<svg width="64" height="64" viewBox="0 0 64 64" fill="none" xmlns="http://www.w3.org/2000/svg">
<g filter="url(#filter0_d_193_4510)">
<rect x="4" y="4" width="56" height="56" rx="16" fill="white" shape-rendering="crispEdges"/>
<path d="M17.7407 18.1296H46.2592V45.8704H17.7407V18.1296Z" fill="url(#paint0_radial_193_4510)"/>
<path d="M17.7407 18.1297H46.2593V45.8704H17.7407V18.1297ZM16.4445 47.1667H47.5556V16.8334H16.4445V47.1667ZM38.4555 31.4556C39.1166 31.4556 39.35 31.4556 39.4148 31.4297C39.4148 31.339 39.4407 31.2741 39.4407 31.2093C39.4407 30.5093 39.1036 29.213 37.7555 29.213C36.511 29.213 35.9796 30.3018 35.85 31.4556H38.4555ZM35.8241 33.2315C35.85 34.9815 36.6796 36.1611 38.65 36.1611C39.4148 36.1611 40.0759 36.0575 40.763 35.7594C40.8537 35.7205 40.9186 35.7334 40.9186 35.8501V37.4704C40.9186 37.6001 40.8797 37.6649 40.789 37.7297C40.1019 38.0667 39.2463 38.2223 38.1834 38.2223C34.7612 38.2223 33.4779 35.6945 33.4779 32.8816C33.4779 29.8223 35.0594 27.3205 37.8464 27.3205C40.6723 27.3205 41.6575 29.6927 41.6575 31.6242C41.6575 32.2464 41.6186 32.752 41.5538 32.9983C41.5279 33.102 41.489 33.1409 41.3853 33.1668C41.126 33.2057 40.3612 33.2575 39.2205 33.2575H35.8241V33.2315ZM28.876 31.9093C28.513 30.4704 27.6315 27.3334 27.3074 25.8167H27.2815C27.0093 27.3334 26.2963 29.9 25.7648 31.9093H28.876ZM25.2333 34.0093L24.2093 37.8853C24.1834 37.9889 24.1445 38.0278 24.0148 38.0278H22.1092C21.9796 38.0278 21.9537 37.9889 21.9796 37.8334L25.6611 24.9612C25.7259 24.7278 25.7648 24.5463 25.7907 23.8982C25.7907 23.8075 25.8296 23.7686 25.8944 23.7686H28.6166C28.7073 23.7686 28.7462 23.7945 28.7722 23.8982L32.8944 37.8593C32.9203 37.963 32.8944 38.0278 32.7907 38.0278H30.6518C30.5481 38.0278 30.4833 37.9889 30.4574 37.8983L29.3944 34.0094H25.2333V34.0093Z" fill="#D8A1FF"/>
</g>
<defs>
<filter id="filter0_d_193_4510" x="0" y="0" width="64" height="64" filterUnits="userSpaceOnUse" color-interpolation-filters="sRGB">
<feFlood flood-opacity="0" result="BackgroundImageFix"/>
<feColorMatrix in="SourceAlpha" type="matrix" values="0 0 0 0 0 0 0 0 0 0 0 0 0 0 0 0 0 0 127 0" result="hardAlpha"/>
<feOffset/>
<feGaussianBlur stdDeviation="2"/>
<feComposite in2="hardAlpha" operator="out"/>
<feColorMatrix type="matrix" values="0 0 0 0 0 0 0 0 0 0 0 0 0 0 0 0 0 0 0.1 0"/>
<feBlend mode="normal" in2="BackgroundImageFix" result="effect1_dropShadow_193_4510"/>
<feBlend mode="normal" in="SourceGraphic" in2="effect1_dropShadow_193_4510" result="shape"/>
</filter>
<radialGradient id="paint0_radial_193_4510" cx="0" cy="0" r="1" gradientUnits="userSpaceOnUse" gradientTransform="translate(27.1333 24.3464) scale(21.6741 20.9845)">
<stop stop-color="#442F55" stop-opacity="0.98"/>
<stop offset="1" stop-color="#12002C"/>
</radialGradient>
</defs>
</svg>
