<svg width="64" height="64" viewBox="0 0 64 64" fill="none" xmlns="http://www.w3.org/2000/svg">
<g filter="url(#filter0_d_193_4372)">
<rect x="4" y="4" width="56" height="56" rx="16" fill="white" shape-rendering="crispEdges"/>
<path d="M30.3367 19.3154L18.7375 24.1149C18.0925 24.3819 18.0992 25.2982 18.7482 25.5555L30.3958 30.1744C31.4191 30.5803 32.5588 30.5803 33.5822 30.1744L45.2299 25.5553C45.8788 25.2982 45.8858 24.382 45.2404 24.1151L33.6416 19.3152C32.5834 18.8773 31.3947 18.8773 30.3365 19.3152" fill="#FCB400"/>
<path d="M33.0225 32.6965V44.2354C33.0225 44.784 33.5759 45.16 34.086 44.9578L47.0649 39.92C47.2097 39.8626 47.3338 39.763 47.4213 39.6342C47.5088 39.5054 47.5556 39.3533 47.5555 39.1976V27.6589C47.5555 27.1101 47.0021 26.7343 46.492 26.9365L33.5131 31.9743C33.3684 32.0317 33.2442 32.1313 33.1567 32.2601C33.0693 32.3889 33.0225 32.541 33.0225 32.6967" fill="#18BFFF"/>
<path d="M29.9917 33.2919L26.1399 35.1517L25.7488 35.3407L17.6177 39.2367C17.1025 39.4854 16.4445 39.1098 16.4445 38.5372V27.7072C16.4445 27.5001 16.5507 27.3212 16.6931 27.1867C16.7515 27.1285 16.8178 27.0788 16.8901 27.039C17.0842 26.9224 17.3613 26.8913 17.597 26.9845L29.927 31.87C30.5537 32.1186 30.603 32.9968 29.9917 33.2921" fill="#F82B60"/>
<path d="M29.9917 33.2919L26.1399 35.1517L16.6931 27.1865C16.7516 27.1284 16.8179 27.0787 16.8901 27.039C17.0842 26.9224 17.3614 26.8913 17.597 26.9845L29.927 31.87C30.5537 32.1186 30.603 32.9968 29.9917 33.2921" fill="black" fill-opacity="0.25"/>
</g>
<defs>
<filter id="filter0_d_193_4372" x="0" y="0" width="64" height="64" filterUnits="userSpaceOnUse" color-interpolation-filters="sRGB">
<feFlood flood-opacity="0" result="BackgroundImageFix"/>
<feColorMatrix in="SourceAlpha" type="matrix" values="0 0 0 0 0 0 0 0 0 0 0 0 0 0 0 0 0 0 127 0" result="hardAlpha"/>
<feOffset/>
<feGaussianBlur stdDeviation="2"/>
<feComposite in2="hardAlpha" operator="out"/>
<feColorMatrix type="matrix" values="0 0 0 0 0 0 0 0 0 0 0 0 0 0 0 0 0 0 0.1 0"/>
<feBlend mode="normal" in2="BackgroundImageFix" result="effect1_dropShadow_193_4372"/>
<feBlend mode="normal" in="SourceGraphic" in2="effect1_dropShadow_193_4372" result="shape"/>
</filter>
</defs>
</svg>
