<svg width="65" height="64" viewBox="0 0 65 64" fill="none" xmlns="http://www.w3.org/2000/svg">
<g filter="url(#filter0_d_193_4066)">
<rect x="4.56433" y="4" width="56.3129" height="56" rx="16" fill="white" shape-rendering="crispEdges"/>
<path d="M46.8509 43.6624C46.8625 45.7984 45.1303 47.5377 42.9836 47.5492C42.824 47.5505 42.6632 47.5416 42.5049 47.5224C40.5127 47.2293 39.0532 45.5054 39.1021 43.5037V20.49C39.0545 18.4858 40.5178 16.7619 42.5113 16.4714C44.6438 16.2231 46.5755 17.7409 46.8252 19.8616C46.8432 20.0177 46.8522 20.1739 46.8509 20.3313V43.6624Z" fill="#F9AB00"/>
<path d="M22.4655 39.8485C24.6057 39.8485 26.3406 41.5737 26.3406 43.702C26.3406 45.8303 24.6057 47.5555 22.4655 47.5555C20.3253 47.5555 18.5905 45.8303 18.5905 43.702C18.5905 41.5737 20.3253 39.8485 22.4655 39.8485ZM32.6609 28.1701C30.5104 28.2878 28.8424 30.0809 28.8926 32.222V42.5719C28.8926 45.3811 30.1358 47.0858 31.9569 47.4493C34.0585 47.8729 36.1061 46.5227 36.5321 44.4328C36.5848 44.1768 36.6106 43.917 36.6093 43.6559V32.0428C36.6132 29.9068 34.8758 28.1727 32.7278 28.1688C32.7059 28.1688 32.6828 28.1688 32.6609 28.1701Z" fill="#E37400"/>
</g>
<defs>
<filter id="filter0_d_193_4066" x="0.564331" y="0" width="64.3129" height="64" filterUnits="userSpaceOnUse" color-interpolation-filters="sRGB">
<feFlood flood-opacity="0" result="BackgroundImageFix"/>
<feColorMatrix in="SourceAlpha" type="matrix" values="0 0 0 0 0 0 0 0 0 0 0 0 0 0 0 0 0 0 127 0" result="hardAlpha"/>
<feOffset/>
<feGaussianBlur stdDeviation="2"/>
<feComposite in2="hardAlpha" operator="out"/>
<feColorMatrix type="matrix" values="0 0 0 0 0 0 0 0 0 0 0 0 0 0 0 0 0 0 0.1 0"/>
<feBlend mode="normal" in2="BackgroundImageFix" result="effect1_dropShadow_193_4066"/>
<feBlend mode="normal" in="SourceGraphic" in2="effect1_dropShadow_193_4066" result="shape"/>
</filter>
</defs>
</svg>
