<svg width="65" height="64" viewBox="0 0 65 64" fill="none" xmlns="http://www.w3.org/2000/svg">
<g filter="url(#filter0_d_193_4084)">
<rect x="4.56433" y="4" width="56.3129" height="56" rx="16" fill="white" shape-rendering="crispEdges"/>
<path d="M25.8947 29.4546C25.8947 29.8375 25.9363 30.1479 26.0091 30.3755C26.0924 30.6032 26.1964 30.8515 26.3421 31.1205C26.3941 31.2033 26.4149 31.2861 26.4149 31.3585C26.4149 31.462 26.3525 31.5655 26.2172 31.6689L25.5617 32.1035C25.4681 32.1656 25.3744 32.1966 25.2912 32.1966C25.1871 32.1966 25.0831 32.1449 24.979 32.0518C24.8334 31.8966 24.7085 31.731 24.6044 31.5655C24.5004 31.3896 24.3963 31.193 24.2819 30.955C23.4703 31.9069 22.4506 32.3829 21.2228 32.3829C20.3488 32.3829 19.6516 32.1346 19.1418 31.6379C18.632 31.1412 18.3718 30.479 18.3718 29.6512C18.3718 28.7717 18.684 28.0577 19.3187 27.5197C19.9534 26.9816 20.7962 26.7126 21.8679 26.7126C22.2217 26.7126 22.5859 26.7436 22.9709 26.7954C23.3558 26.8471 23.7512 26.9299 24.1674 27.023V26.2677C24.1674 25.4813 24.001 24.9329 23.6784 24.6121C23.3454 24.2914 22.7836 24.1361 21.9824 24.1361C21.6182 24.1361 21.2436 24.1775 20.8586 24.2707C20.4736 24.3638 20.0991 24.4776 19.7349 24.6225C19.5684 24.6949 19.4435 24.7363 19.3707 24.757C19.2979 24.7777 19.2458 24.788 19.2042 24.788C19.0586 24.788 18.9857 24.6845 18.9857 24.4673V23.9602C18.9857 23.7947 19.0065 23.6705 19.0586 23.5981C19.1106 23.5257 19.2042 23.4532 19.3499 23.3808C19.7141 23.1945 20.1511 23.0393 20.6609 22.9152C21.1708 22.7807 21.7118 22.7186 22.2841 22.7186C23.5223 22.7186 24.4276 22.9979 25.0102 23.5567C25.5825 24.1154 25.8739 24.9639 25.8739 26.1021V29.4546H25.8947ZM21.6702 31.0274C22.0136 31.0274 22.3674 30.9653 22.7419 30.8412C23.1165 30.717 23.4495 30.4893 23.7304 30.1789C23.8969 29.9823 24.0218 29.765 24.0842 29.5167C24.1466 29.2684 24.1882 28.9683 24.1882 28.6165V28.1819C23.8865 28.1095 23.5639 28.0474 23.231 28.006C22.898 27.9646 22.5755 27.9439 22.2529 27.9439C21.5558 27.9439 21.0459 28.0784 20.7026 28.3578C20.3592 28.6372 20.1927 29.0304 20.1927 29.5477C20.1927 30.0341 20.3176 30.3962 20.5777 30.6446C20.8274 30.9032 21.1916 31.0274 21.6702 31.0274ZM30.0255 32.1449C29.8382 32.1449 29.7133 32.1139 29.6301 32.0414C29.5468 31.9794 29.474 31.8345 29.4116 31.6379L26.9664 23.6395C26.904 23.4325 26.8727 23.298 26.8727 23.2256C26.8727 23.06 26.956 22.9669 27.1225 22.9669H28.1422C28.3399 22.9669 28.4751 22.9979 28.548 23.0704C28.6312 23.1325 28.6936 23.2773 28.7561 23.4739L30.5041 30.3238L32.1273 23.4739C32.1793 23.267 32.2417 23.1325 32.325 23.0704C32.4082 23.0083 32.5539 22.9669 32.7412 22.9669H33.5736C33.7713 22.9669 33.9066 22.9979 33.9898 23.0704C34.073 23.1325 34.1459 23.2773 34.1875 23.4739L35.8315 30.4066L37.6316 23.4739C37.694 23.267 37.7668 23.1325 37.8397 23.0704C37.9229 23.0083 38.0582 22.9669 38.2455 22.9669H39.2131C39.3796 22.9669 39.4733 23.0497 39.4733 23.2256C39.4733 23.2773 39.4628 23.3291 39.4524 23.3911C39.442 23.4532 39.4212 23.536 39.3796 23.6498L36.872 31.6482C36.8096 31.8552 36.7367 31.9897 36.6535 32.0518C36.5702 32.1139 36.435 32.1553 36.2581 32.1553H35.3633C35.1656 32.1553 35.0303 32.1242 34.9471 32.0518C34.8638 31.9794 34.791 31.8448 34.7494 31.6379L33.1366 24.9639L31.5342 31.6275C31.4822 31.8345 31.4197 31.969 31.3365 32.0414C31.2533 32.1139 31.1076 32.1449 30.9203 32.1449H30.0255ZM43.396 32.4243C42.8549 32.4243 42.3138 32.3622 41.7936 32.238C41.2733 32.1139 40.8675 31.9794 40.597 31.8241C40.4305 31.731 40.3161 31.6275 40.2744 31.5344C40.2328 31.4413 40.212 31.3378 40.212 31.2447V30.717C40.212 30.4997 40.2953 30.3962 40.4513 30.3962C40.5138 30.3962 40.5762 30.4066 40.6386 30.4273C40.701 30.448 40.7947 30.4893 40.8987 30.5307C41.2525 30.6859 41.6375 30.8101 42.0433 30.8929C42.4595 30.9757 42.8653 31.0171 43.2815 31.0171C43.937 31.0171 44.4469 30.9032 44.8006 30.6756C45.1544 30.448 45.3417 30.1168 45.3417 29.6926C45.3417 29.4029 45.2481 29.1649 45.0608 28.9683C44.8735 28.7717 44.5197 28.5958 44.0099 28.4302L42.5011 27.9646C41.7416 27.7266 41.1797 27.3748 40.8363 26.9092C40.4929 26.4539 40.3161 25.9469 40.3161 25.4089C40.3161 24.9743 40.4097 24.5914 40.597 24.2603C40.7843 23.9292 41.034 23.6395 41.3462 23.4118C41.6583 23.1738 42.0121 22.9979 42.4283 22.8738C42.8445 22.7496 43.2815 22.6979 43.7393 22.6979C43.9682 22.6979 44.2075 22.7082 44.4365 22.7393C44.6758 22.7703 44.8943 22.8117 45.1128 22.8531C45.3209 22.9048 45.5186 22.9566 45.7059 23.0186C45.8932 23.0807 46.0388 23.1428 46.1429 23.2049C46.2886 23.2877 46.3926 23.3704 46.455 23.4636C46.5175 23.5463 46.5487 23.6602 46.5487 23.805V24.2914C46.5487 24.5086 46.4654 24.6225 46.3094 24.6225C46.2261 24.6225 46.0909 24.5811 45.914 24.4983C45.3209 24.2293 44.655 24.0948 43.9162 24.0948C43.3231 24.0948 42.8549 24.1879 42.5323 24.3845C42.2098 24.5811 42.0433 24.8811 42.0433 25.3054C42.0433 25.5951 42.1473 25.8434 42.3554 26.04C42.5636 26.2366 42.9485 26.4332 43.5 26.6091L44.9775 27.0748C45.7267 27.3127 46.2677 27.6439 46.5903 28.0681C46.9129 28.4923 47.0689 28.9787 47.0689 29.5167C47.0689 29.9616 46.9753 30.3652 46.7984 30.717C46.6111 31.0688 46.3614 31.3792 46.0388 31.6275C45.7163 31.8862 45.3313 32.0725 44.8839 32.207C44.4156 32.3519 43.9266 32.4243 43.396 32.4243Z" fill="#252F3E"/>
<path fill-rule="evenodd" clip-rule="evenodd" d="M45.3625 37.453C41.9392 39.9673 36.9656 41.3021 32.6891 41.3021C26.6958 41.3021 21.2956 39.0982 17.2168 35.4353C16.8943 35.1455 17.1856 34.7523 17.5706 34.98C21.9823 37.5254 27.4242 39.0671 33.0533 39.0671C36.8511 39.0671 41.0236 38.2807 44.863 36.6666C45.4353 36.4079 45.9243 37.0391 45.3625 37.453Z" fill="#FF9900"/>
<path fill-rule="evenodd" clip-rule="evenodd" d="M46.788 35.8388C46.351 35.2801 43.8954 35.5698 42.7821 35.7043C42.4491 35.7457 42.3971 35.456 42.6988 35.2387C44.655 33.8728 47.8701 34.266 48.2447 34.7213C48.6193 35.1869 48.1406 38.3842 46.3094 39.9156C46.0284 40.1536 45.7579 40.0294 45.8828 39.719C46.299 38.6946 47.225 36.3872 46.788 35.8388Z" fill="#FF9900"/>
</g>
<defs>
<filter id="filter0_d_193_4084" x="0.564331" y="0" width="64.3129" height="64" filterUnits="userSpaceOnUse" color-interpolation-filters="sRGB">
<feFlood flood-opacity="0" result="BackgroundImageFix"/>
<feColorMatrix in="SourceAlpha" type="matrix" values="0 0 0 0 0 0 0 0 0 0 0 0 0 0 0 0 0 0 127 0" result="hardAlpha"/>
<feOffset/>
<feGaussianBlur stdDeviation="2"/>
<feComposite in2="hardAlpha" operator="out"/>
<feColorMatrix type="matrix" values="0 0 0 0 0 0 0 0 0 0 0 0 0 0 0 0 0 0 0.1 0"/>
<feBlend mode="normal" in2="BackgroundImageFix" result="effect1_dropShadow_193_4084"/>
<feBlend mode="normal" in="SourceGraphic" in2="effect1_dropShadow_193_4084" result="shape"/>
</filter>
</defs>
</svg>
