<svg width="66" height="64" viewBox="0 0 66 64" fill="none" xmlns="http://www.w3.org/2000/svg">
<g filter="url(#filter0_d_193_210)">
<rect x="4.75439" y="4" width="56.3129" height="56" rx="16" fill="white" shape-rendering="crispEdges"/>
<path fill-rule="evenodd" clip-rule="evenodd" d="M45.6947 28.2892C44.4166 28.2892 43.6946 28.5346 43.28 29.1097C42.8469 29.7103 42.7598 30.6584 42.7598 31.9938C42.7598 34.6151 43.1677 35.7109 45.6947 35.7109C45.9982 35.7109 47.0357 35.7052 47.6414 35.6317C47.877 35.5928 47.9826 35.4133 47.9826 35.2528V34.9632C47.9826 34.738 47.8114 34.5679 47.5842 34.5679H45.6946C44.2688 34.5679 44.0117 34.2337 43.9752 32.3336V31.7185C43.9873 29.7741 44.2444 29.4322 45.6947 29.4322C47.032 29.4322 47.2884 29.7356 47.3329 31.4475H45.208V32.6031H48.0028C48.5533 32.6031 48.5533 32.2203 48.5533 32.0945V31.7256C48.5134 29.06 47.8721 28.2892 45.6947 28.2892ZM42.0146 28.3911L41.9842 28.3832C41.7239 28.3287 41.0126 28.2892 40.6599 28.2892C39.4119 28.2892 38.7524 28.8089 38.7524 29.7919V35.2653C38.7524 35.4906 38.9109 35.648 39.1381 35.648H39.582C39.8092 35.648 39.9677 35.4906 39.9677 35.2653V29.8924C39.9677 29.6498 40.0295 29.4322 40.7741 29.4322L41.8768 29.4313C41.9847 29.4441 42.0878 29.4144 42.1671 29.3476C42.2537 29.275 42.3013 29.169 42.3013 29.0495V28.7726C42.3013 28.5909 42.1967 28.4519 42.0146 28.3911ZM36.6848 28.3774H36.2408C36.0138 28.3774 35.8551 28.5347 35.8551 28.7601V34.568H34.0089C32.8669 34.568 32.4036 34.4958 32.4036 32.6858V28.7601C32.4036 28.5348 32.2449 28.3774 32.0178 28.3774H31.5865C31.3594 28.3774 31.1881 28.5419 31.1881 28.7601V32.6858C31.1881 35.2582 32.1263 35.7109 34.0976 35.7109C34.8068 35.7109 35.778 35.7109 36.7042 35.5812L36.7256 35.577C36.9544 35.5201 37.0704 35.3899 37.0704 35.1898V28.7601C37.0704 28.5348 36.9118 28.3774 36.6848 28.3774Z" fill="#272727"/>
<path fill-rule="evenodd" clip-rule="evenodd" d="M29.8188 28.5571C29.7618 28.4366 29.6396 28.3647 29.492 28.3647H28.9213C28.7556 28.3647 28.6317 28.4311 28.5664 28.5506L27.7207 29.7794L28.4611 30.7863L29.7537 28.9424C29.8956 28.771 29.8465 28.6158 29.8188 28.5571Z" fill="#74BB11"/>
<path fill-rule="evenodd" clip-rule="evenodd" d="M25.3602 28.5367L25.3594 28.5355C25.2305 28.3647 25.059 28.3647 25.0026 28.3647H24.4444C24.3014 28.3647 24.1843 28.43 24.1232 28.5438C24.0603 28.6603 24.0736 28.8003 24.1607 28.93L26.2283 31.7803L23.8507 35.0781C23.7676 35.2021 23.756 35.34 23.8187 35.4564C23.8802 35.5702 23.9974 35.6353 24.1402 35.6353H24.7107C24.8574 35.6353 24.9864 35.5596 25.051 35.4403L27.7122 31.7935L25.3602 28.5367Z" fill="#009CD9"/>
<path fill-rule="evenodd" clip-rule="evenodd" d="M30.1027 35.1069L28.4439 32.843L27.7142 33.8433L29.0261 35.5844L29.0602 35.5993C29.1123 35.6225 29.1686 35.6348 29.2257 35.6352H29.7836C29.9184 35.6352 30.0328 35.5757 30.0976 35.4717C30.164 35.3651 30.1658 35.2322 30.1027 35.1069Z" fill="#EB2084"/>
<path fill-rule="evenodd" clip-rule="evenodd" d="M21.6563 32.5527V34.4752C21.0914 34.5614 20.2303 34.5805 19.9368 34.5805C18.6386 34.5805 18.4963 34.2278 18.4963 33.4786C18.4963 32.7776 18.7601 32.5526 19.5817 32.5526L21.6563 32.5527ZM19.8734 28.2891C19.4723 28.2891 18.9252 28.2995 18.2446 28.3809L18.2138 28.3877C18.0156 28.4438 17.9152 28.5733 17.9152 28.7726V29.0494C17.9152 29.2854 18.0629 29.4321 18.3008 29.4321H19.8735C21.1398 29.4321 21.6563 29.7733 21.6563 30.6096V31.4223H19.5817C17.9603 31.4223 17.2684 32.0372 17.2684 33.4785C17.2684 35.0849 17.9845 35.7109 19.8227 35.7109C20.5673 35.7109 21.9379 35.6533 22.4444 35.4997C22.8716 35.3818 22.8716 35.0573 22.8716 34.9507V30.5342C22.8716 29.0235 21.8909 28.2891 19.8735 28.2891H19.8734Z" fill="#272727"/>
</g>
<defs>
<filter id="filter0_d_193_210" x="0.754395" y="0" width="64.3129" height="64" filterUnits="userSpaceOnUse" color-interpolation-filters="sRGB">
<feFlood flood-opacity="0" result="BackgroundImageFix"/>
<feColorMatrix in="SourceAlpha" type="matrix" values="0 0 0 0 0 0 0 0 0 0 0 0 0 0 0 0 0 0 127 0" result="hardAlpha"/>
<feOffset/>
<feGaussianBlur stdDeviation="2"/>
<feComposite in2="hardAlpha" operator="out"/>
<feColorMatrix type="matrix" values="0 0 0 0 0 0 0 0 0 0 0 0 0 0 0 0 0 0 0.1 0"/>
<feBlend mode="normal" in2="BackgroundImageFix" result="effect1_dropShadow_193_210"/>
<feBlend mode="normal" in="SourceGraphic" in2="effect1_dropShadow_193_210" result="shape"/>
</filter>
</defs>
</svg>
