<svg width="66" height="64" viewBox="0 0 66 64" fill="none" xmlns="http://www.w3.org/2000/svg">
<g filter="url(#filter0_d_193_4626)">
<rect x="4.8772" y="4" width="56.3129" height="56" rx="16" fill="white" shape-rendering="crispEdges"/>
<path d="M27.8209 17.3344H37.0783L27.4682 45.6668C27.419 45.8115 27.3475 45.9477 27.2562 46.0705C27.1651 46.1934 27.0552 46.3011 26.9304 46.3902C26.8057 46.4792 26.668 46.5484 26.5217 46.5951C26.3755 46.6418 26.2229 46.6659 26.0696 46.6659H18.865C18.6311 46.6659 18.4004 46.6107 18.1923 46.5041C17.9841 46.3979 17.8043 46.2437 17.6679 46.0545C17.5314 45.8653 17.4422 45.6466 17.4074 45.4163C17.3726 45.1861 17.3937 44.9508 17.4684 44.7303L26.422 18.3327C26.4709 18.1881 26.5424 18.0519 26.634 17.929C26.7251 17.8061 26.8354 17.6984 26.9597 17.6094C27.0845 17.5203 27.2222 17.4511 27.3684 17.4044C27.5147 17.3577 27.6672 17.3336 27.8205 17.3336V17.334L27.8209 17.3344Z" fill="url(#paint0_linear_193_4626)"/>
<path d="M44.8863 46.6659H36.5738C36.4811 46.6659 36.3884 46.6573 36.2969 46.6398C36.2058 46.6227 36.1162 46.597 36.0298 46.5632C35.9433 46.5294 35.8604 46.4874 35.7818 46.4384C35.7033 46.389 35.6296 46.3325 35.5616 46.2696L26.1286 37.5089C26.0288 37.4162 25.9594 37.2959 25.9292 37.1635C25.899 37.0311 25.9096 36.8928 25.9596 36.7665C26.0096 36.6401 26.0967 36.5317 26.2096 36.4553C26.3226 36.3791 26.456 36.3383 26.5924 36.3383H41.2723L44.8855 46.6663L44.8863 46.6659Z" fill="#0078D4"/>
<path d="M37.1115 17.3344L30.6312 36.3402L41.2195 36.3379L44.8515 46.6659H36.5703C36.4846 46.6651 36.399 46.6574 36.3145 46.6422C36.23 46.627 36.1471 46.6049 36.0665 46.5753C35.905 46.5168 35.7547 46.4311 35.6223 46.3221L29.2546 40.4122L27.472 45.64C27.4259 45.7706 27.3625 45.8947 27.2835 46.0087C27.1252 46.2379 26.9086 46.4213 26.6558 46.5403C26.53 46.5995 26.3967 46.6418 26.2596 46.6659H18.8693C18.633 46.6667 18.4 46.6107 18.1899 46.5026C17.9799 46.3946 17.7991 46.2378 17.6628 46.0456C17.5265 45.8535 17.4388 45.6315 17.407 45.3984C17.3753 45.1653 17.4004 44.928 17.4801 44.7066L26.4192 18.3525C26.4657 18.2051 26.5357 18.0663 26.6265 17.9411C26.7168 17.8158 26.8271 17.7054 26.9522 17.6144C27.0774 17.5234 27.2166 17.4526 27.3641 17.4052C27.5115 17.3577 27.666 17.3336 27.8212 17.3344H37.1119H37.1115Z" fill="url(#paint1_linear_193_4626)"/>
<path d="M48.5986 44.7303C48.6734 44.9509 48.6944 45.186 48.66 45.4163C48.6253 45.6465 48.5362 45.8652 48.4 46.0545C48.2636 46.2436 48.0838 46.3977 47.8757 46.504C47.6675 46.6103 47.4369 46.6658 47.2028 46.6659H36.8852C37.119 46.6659 37.3498 46.6103 37.5582 46.5041C37.7663 46.3979 37.9462 46.2435 38.0827 46.0545C38.2192 45.8655 38.3083 45.6466 38.3432 45.4163C38.378 45.1861 38.3568 44.9508 38.2821 44.7303L29.3282 18.3319C29.2296 18.0411 29.0418 17.7884 28.7912 17.6093C28.6669 17.5203 28.5292 17.4514 28.3833 17.4047C28.2374 17.3581 28.0849 17.3344 27.932 17.3344H38.2493C38.4026 17.3344 38.5547 17.3581 38.701 17.4047C38.8469 17.4514 38.9845 17.5206 39.1093 17.6093C39.2337 17.6984 39.3436 17.8061 39.4347 17.9286C39.5258 18.0511 39.597 18.1872 39.6463 18.3319L48.6002 44.7303H48.5986Z" fill="url(#paint2_linear_193_4626)"/>
</g>
<defs>
<filter id="filter0_d_193_4626" x="0.877197" y="0" width="64.3129" height="64" filterUnits="userSpaceOnUse" color-interpolation-filters="sRGB">
<feFlood flood-opacity="0" result="BackgroundImageFix"/>
<feColorMatrix in="SourceAlpha" type="matrix" values="0 0 0 0 0 0 0 0 0 0 0 0 0 0 0 0 0 0 127 0" result="hardAlpha"/>
<feOffset/>
<feGaussianBlur stdDeviation="2"/>
<feComposite in2="hardAlpha" operator="out"/>
<feColorMatrix type="matrix" values="0 0 0 0 0 0 0 0 0 0 0 0 0 0 0 0 0 0 0.1 0"/>
<feBlend mode="normal" in2="BackgroundImageFix" result="effect1_dropShadow_193_4626"/>
<feBlend mode="normal" in="SourceGraphic" in2="effect1_dropShadow_193_4626" result="shape"/>
</filter>
<linearGradient id="paint0_linear_193_4626" x1="31.1995" y1="19.5084" x2="21.6746" y2="47.803" gradientUnits="userSpaceOnUse">
<stop stop-color="#114A8B"/>
<stop offset="1" stop-color="#0669BC"/>
</linearGradient>
<linearGradient id="paint1_linear_193_4626" x1="34.1991" y1="32.6771" x2="31.9764" y2="33.4352" gradientUnits="userSpaceOnUse">
<stop stop-opacity="0.3"/>
<stop offset="0.1" stop-opacity="0.2"/>
<stop offset="0.3" stop-opacity="0.1"/>
<stop offset="0.6" stop-opacity="0.1"/>
<stop offset="1" stop-opacity="0"/>
</linearGradient>
<linearGradient id="paint2_linear_193_4626" x1="32.9712" y1="18.6839" x2="43.4278" y2="46.6968" gradientUnits="userSpaceOnUse">
<stop stop-color="#3CCBF4"/>
<stop offset="1" stop-color="#2892DF"/>
</linearGradient>
</defs>
</svg>
