<svg width="64" height="64" viewBox="0 0 64 64" fill="none" xmlns="http://www.w3.org/2000/svg">
<g filter="url(#filter0_d_193_4676)">
<rect x="4" y="4" width="56" height="56" rx="16" fill="white" shape-rendering="crispEdges"/>
<path d="M37.7811 27.0174L37.7741 26.9507L37.6662 26.96L37.673 27.0266L37.7811 27.0174ZM38.5071 28.7636L38.5094 28.8004L38.5853 28.7935C38.583 28.7705 38.5921 28.7338 38.6082 28.6878L38.6013 28.6212C38.5692 28.6235 38.537 28.6717 38.5071 28.7636ZM35.674 30.9625C35.6695 30.9005 35.4764 30.6593 35.095 30.2342C35.0881 30.1561 35.2191 30.0389 35.4879 29.885L36.2553 29.2163C36.4277 28.998 36.5288 28.6442 36.5587 28.1525L36.5494 28.0399C36.5196 27.6998 36.2738 27.4264 35.8073 27.2173C35.5316 27.0312 35.0353 26.9278 34.3184 26.9094C33.7256 26.96 32.9512 27.1713 31.9977 27.5458C31.7357 27.7343 31.4371 27.9227 31.1016 28.1111L31.1062 28.1686C31.1269 28.1662 31.159 28.1548 31.1958 28.1295C31.2348 28.1249 31.2578 28.1433 31.2601 28.18L31.3175 28.1501L31.3451 28.1478L31.3474 28.1731C31.3498 28.203 31.1429 28.3662 30.7247 28.6579L30.7569 28.7177L30.7294 28.72L30.6604 28.6947C30.6627 28.7154 30.6329 28.7292 30.5754 28.7338L30.5777 28.7591L30.6443 28.8418C30.6237 28.8441 30.5915 28.8349 30.5479 28.8188C30.4513 28.828 30.3571 28.8785 30.2629 28.975L30.302 28.805C30.4421 28.2007 30.5386 27.6653 30.5892 27.2012L30.5823 27.1713C30.4858 27.1093 30.3916 27.0219 30.3042 26.9117C30.3066 26.8404 30.3066 26.7991 30.3042 26.7899L30.2974 26.7646L30.2698 26.7715C29.9665 27.2265 29.3829 28.0031 28.5166 29.1014C27.8572 29.8826 27.5171 30.3169 27.4965 30.4042C27.2277 30.6822 27.099 30.85 27.1127 30.9074C27.0415 30.9534 27.0116 30.9993 27.0231 31.0499C27.0025 31.0545 26.9887 31.0476 26.984 31.0269C26.8692 31.213 26.6991 31.3325 26.4717 31.3853L26.2327 31.4405C26.2006 31.4474 26.1845 31.4703 26.1868 31.5094L26.1936 31.5393L26.2833 31.5186L26.2902 31.5439L26.088 31.622L25.7295 31.7047L25.5411 31.7162C25.5135 31.7438 25.6904 31.7139 25.6215 31.73L25.3872 31.7852C25.2447 31.8173 25.1666 31.8058 25.1528 31.7484L25.1252 31.7553C25.1298 31.7805 25.1321 31.799 25.1275 31.815L25.1137 31.7576L24.9253 31.8012C24.9115 31.7139 24.6565 31.3968 24.1625 30.85C24.1533 30.7443 24.3279 30.5903 24.6841 30.3904L25.6904 29.5058C25.9156 29.2163 26.0489 28.7521 26.0926 28.1134L26.0788 27.964C26.0397 27.5137 25.7134 27.1506 25.0999 26.8703C24.7369 26.6245 24.0843 26.4935 23.1423 26.4728C22.3611 26.5395 21.3408 26.8175 20.0863 27.3023C19.7417 27.5527 19.3488 27.8009 18.9076 28.0467L18.9145 28.1249C18.9444 28.1226 18.9834 28.1065 19.0316 28.0789C19.0822 28.0743 19.1098 28.0973 19.1144 28.1433L19.1925 28.0996L19.2315 28.0973L19.2339 28.134C19.2362 28.1708 18.9627 28.3845 18.409 28.7751L18.4526 28.8441L18.4136 28.8464L18.3285 28.8165C18.3308 28.8394 18.2918 28.8556 18.2114 28.8624L18.2159 28.9038L18.3079 29.0049C18.278 29.0072 18.2367 28.998 18.1838 28.9796C18.0046 28.9957 17.83 29.1244 17.6576 29.368L17.7013 29.4369C17.8506 29.299 17.9379 29.2301 17.9632 29.2278L17.9724 29.3404C17.9471 29.3427 17.9081 29.3587 17.8552 29.3863L17.9494 29.5288C18.1274 29.3365 18.3289 29.1674 18.5492 29.0256C18.6571 29.0532 18.7146 29.0876 18.7169 29.1244L18.7996 29.1175C19.3924 28.6786 19.9783 28.3615 20.5597 28.1662L20.5665 28.2443C20.4586 28.4052 20.385 28.4879 20.346 28.4925C20.3506 28.5477 20.3689 28.5959 20.4034 28.6373C20.4126 28.7361 20.1484 29.4024 19.613 30.634C18.3975 33.4969 17.3773 35.6154 16.5479 36.9849C16.5501 37.0124 16.5662 37.0492 16.5961 37.0952C16.8006 37.0469 16.9293 36.9964 16.9844 36.9481L17.0281 36.9435L17.0349 37.0217L17.1108 37.0147L17.1889 36.9711C17.1912 36.9941 17.2165 37.0056 17.2693 37.0009L17.2762 37.0791C17.2831 37.1549 17.2395 37.2698 17.1475 37.4284C17.0648 37.5225 16.9752 37.7202 16.881 38.0212L16.8833 38.0579L16.9591 38.051C17.29 37.6811 17.5404 37.318 17.7128 36.9642C18.6778 36.6816 19.4131 36.4036 19.9232 36.1301C20.4356 36.0865 20.8262 35.9509 21.0927 35.728L21.0881 35.6867L20.8951 35.7441L20.8515 35.7487L20.8468 35.7073C21.2237 35.6499 21.4833 35.5672 21.6281 35.4523C22.3611 34.887 22.9148 34.4873 23.2894 34.2506C24.0591 33.6854 24.56 33.1339 24.7874 32.5985C24.8305 32.5892 24.8734 32.5792 24.9161 32.5686C25.0241 32.5641 25.0838 32.5618 25.0999 32.5572C25.0953 32.5365 25.1046 32.525 25.1252 32.5204C25.2975 32.5021 25.2148 32.5319 25.3251 32.5066L25.6146 32.44C25.5963 32.4446 25.5893 32.4538 25.594 32.4722L25.6376 32.4446C25.6284 32.4446 25.6215 32.4423 25.6146 32.44L25.6629 32.4285L25.6399 32.4423C25.6721 32.4469 25.7065 32.4446 25.7456 32.4354L25.7663 32.5204L24.4497 34.6137L24.1579 34.979L24.0154 35.4569L24.043 35.45L24.1854 35.3903L24.1395 35.5764L24.1533 35.6315L24.1923 35.6798C24.174 35.6844 24.1671 35.6959 24.1717 35.7165L24.1786 35.7464L24.2383 35.7326C24.3256 35.6568 24.3624 35.5879 24.3486 35.5258C24.4428 35.5419 24.5048 35.5488 24.537 35.5396L24.5439 35.5695C24.4865 35.5833 24.4566 35.6292 24.452 35.7073L24.4589 35.7372L24.491 35.7303C24.969 35.2087 26.1408 33.4234 27.0806 32.2125C27.0507 32.0816 27.5401 31.9 28.5511 31.6656L28.5833 31.6588C28.6201 31.8173 28.5419 32.201 28.3489 32.8099C28.2248 33.1776 28.1651 33.3798 28.1743 33.4119C28.0135 33.9013 27.9376 34.1656 27.9468 34.207L27.5883 35.381C27.3563 35.9831 27.1794 36.615 27.0553 37.2813C27.076 37.2767 27.1081 37.279 27.1541 37.2905L27.2046 37.2468C27.2092 37.2675 27.223 37.2744 27.2437 37.2698L27.223 37.1848L27.3793 37.1802C27.4252 37.1687 27.4643 37.1112 27.4965 37.0056C27.4895 36.847 27.5218 36.762 27.593 36.7436C27.6895 36.3668 27.7492 36.1784 27.7699 36.1715C27.8595 35.797 27.9261 35.5833 27.9698 35.5304C28.1054 35.0433 28.2041 34.7929 28.2685 34.7767L28.2823 34.8365L28.1835 35.0916C28.0111 35.8567 27.8365 36.461 27.6596 36.9045L27.7102 37.125L27.7423 37.1182C28.1697 36.199 28.7855 34.3793 29.5874 31.6588C29.6104 31.4198 29.7252 31.2337 29.9298 31.1027L29.8838 31.0545L29.8769 31.0292C29.9688 31.0085 30.0331 30.9718 30.0699 30.9212C30.0653 30.9005 29.9849 30.8707 29.8287 30.8293L30.2285 29.1152C30.3157 29.0371 30.3663 28.9957 30.3824 28.9957L30.3893 29.0831C30.3686 29.0853 30.3365 29.0968 30.2997 29.1221L30.3755 29.2301C30.5133 29.0807 30.6627 28.952 30.8258 28.8441C30.9085 28.867 30.9499 28.8946 30.9545 28.9222L31.0143 28.9176C31.4692 28.5844 31.915 28.3454 32.3538 28.2007L32.3584 28.2581C32.278 28.3799 32.2229 28.4419 32.193 28.4442C32.1976 28.4856 32.2091 28.5224 32.2297 28.5545C32.2367 28.6304 32.0391 29.1359 31.6347 30.0733C30.7109 32.2447 29.9366 33.8508 29.3071 34.894C29.3094 34.9146 29.3232 34.9422 29.3484 34.979C29.5023 34.9422 29.6012 34.9031 29.6402 34.8664L29.6678 34.8641L29.6724 34.9215L29.7367 34.9169L29.7942 34.887C29.7964 34.9031 29.8172 34.9101 29.8562 34.9078L29.8608 34.9698C29.8654 35.0249 29.8333 35.1122 29.762 35.2317C29.6954 35.303 29.6264 35.4523 29.5529 35.6798L29.5552 35.7097L29.6149 35.705C29.8654 35.4247 30.0561 35.149 30.1871 34.8779C30.92 34.6619 31.4784 34.4528 31.8644 34.246C32.2573 34.2115 32.5537 34.1104 32.756 33.9404L32.7536 33.9106L32.6043 33.9542L32.5721 33.9565L32.5698 33.9266C32.8548 33.8853 33.0547 33.8209 33.1626 33.7359C33.7187 33.3085 34.1392 33.0029 34.4241 32.8237C35.311 32.1781 35.7246 31.5577 35.674 30.9625ZM35.5224 31.0016L35.5431 31.2337C35.5155 31.2911 35.4856 31.321 35.4581 31.3233L35.4236 30.9281C35.4879 30.9511 35.5201 30.974 35.5224 31.0016ZM18.1241 29.1313L18.085 29.1335L18.0781 29.0623L18.2367 29.0485L18.239 29.0853C18.2137 29.0876 18.1746 29.1014 18.1241 29.1313ZM17.3498 36.8769C17.2578 36.8356 17.1751 36.8194 17.1039 36.8263L17.0947 36.7137C17.0901 36.6701 17.1154 36.6402 17.1705 36.6287C17.2211 36.6242 17.251 36.6609 17.2555 36.7344C17.3888 36.5713 17.4623 36.4886 17.4761 36.4863L17.5612 36.5207C17.5336 36.7505 17.4623 36.8677 17.3498 36.8769ZM25.6239 28.2214C25.5848 28.226 25.5066 28.1042 25.394 27.8629L25.3872 27.7917C25.4607 27.7848 25.5365 27.9043 25.6169 28.1501L25.6239 28.2214ZM25.5135 27.3643L25.4814 27.4402L24.3578 26.9714C25.1068 26.9967 25.4928 27.1277 25.5135 27.3643ZM20.7688 31.4382L20.6102 31.452L20.6033 31.3807L20.7618 31.367L20.7688 31.4382ZM20.6401 28.9911L20.6791 28.9888L20.6883 29.1014C20.6515 29.1037 20.6033 29.1588 20.5436 29.2646L20.5366 29.1864C20.6079 29.1014 20.6447 29.0371 20.6401 28.9911ZM20.3069 29.7769L20.3207 29.9263L20.2816 29.9286L20.2678 29.7792L20.3069 29.7769ZM20.1323 30.0573L20.2081 30.0504C20.2012 30.1744 20.1668 30.2411 20.1047 30.2456L20.0657 30.248C20.1139 30.1653 20.1369 30.1009 20.1323 30.0573ZM20.0013 30.4479L20.0449 30.4433L20.0472 30.48L19.976 30.5995L19.9002 30.6064L19.8979 30.5696C19.9737 30.5628 20.0082 30.5237 20.0013 30.4479ZM19.8726 30.7994L19.8496 30.9878L19.8106 30.9901L19.7945 30.804L19.8726 30.7994ZM18.5836 34.4643C18.5331 34.7216 18.4779 34.8526 18.4205 34.8572L18.4182 34.8204C18.4044 34.694 18.4595 34.5746 18.5836 34.4643ZM18.3469 34.9767L18.3493 35.0134C18.3538 35.064 18.3308 35.0939 18.2803 35.0961L18.278 35.0594C18.2734 35.0157 18.2964 34.9881 18.3469 34.9767ZM18.278 36.0405L18.3975 36.029L18.4021 36.0704C18.3722 36.0727 18.3332 36.0888 18.2849 36.1163L18.2091 36.1232C18.2045 36.0842 18.2297 36.0543 18.278 36.0405H18.278ZM21.6786 34.9905C21.0077 35.3213 20.6125 35.5465 20.4953 35.6637C19.7692 35.9164 19.4085 36.0727 19.4154 36.1347C18.7697 36.3898 18.3446 36.5782 18.1402 36.6954C18.0919 36.7 18.023 36.6816 17.9311 36.6402C17.9196 36.5092 17.9793 36.4036 18.1057 36.3186C18.2183 36.3093 18.3262 36.3254 18.4296 36.3691C18.5492 36.307 18.7583 36.2381 19.0547 36.1646L19.0477 36.0865L18.8088 36.1072C18.8387 36.0658 19.0684 35.9578 19.5004 35.7832L19.6199 35.7717L19.6222 35.8085C19.4177 35.8268 19.3051 35.8866 19.2798 35.9946C19.2844 36.0428 19.312 36.0635 19.3626 36.0589C19.5165 35.9624 19.5923 35.905 19.59 35.8888C19.8818 35.8337 20.6883 35.4109 22.0095 34.6228L22.0164 34.694C22.0187 34.7285 21.9061 34.825 21.6786 34.9905ZM19.652 35.6568C19.8451 35.6407 20.0105 35.5626 20.1484 35.427C20.2035 35.4224 20.2334 35.4431 20.2357 35.4913C20.1414 35.5006 19.9599 35.5787 19.6957 35.7303L19.6567 35.7326L19.652 35.6568ZM22.9217 33.1454L21.9084 33.9473C21.1547 34.4413 20.7503 34.6894 20.6929 34.694C19.4935 35.3535 18.7468 35.6959 18.4572 35.7211L18.4136 35.7257C18.4504 35.5902 18.9834 34.4988 20.0174 32.4446C20.4723 32.4055 21.1892 32.1942 22.1658 31.8081L22.4047 31.7874C22.8987 31.7438 23.2686 31.8403 23.5122 32.0701L23.526 32.2194C23.3422 32.7479 23.14 33.0558 22.9217 33.1454ZM20.9411 32.031L21.1042 32.0172L21.1065 32.054L20.9434 32.0678L20.9411 32.031ZM23.2319 31.6427L23.3514 31.6312C23.4617 31.684 23.5191 31.73 23.5237 31.7714L23.526 31.8081C23.4203 31.8173 23.3215 31.7622 23.2319 31.6427ZM23.5559 29.7976C23.4502 29.924 23.1607 30.14 22.6873 30.4433C22.5311 30.457 21.9498 30.6822 20.9434 31.1234C20.8931 31.1004 20.8376 31.0909 20.7825 31.0959L20.7756 31.0246C20.7641 30.8798 20.8285 30.6983 20.9709 30.4778C21.0491 30.0641 21.1341 29.8275 21.2283 29.77L22.067 27.8836C22.0577 27.7664 22.237 27.6768 22.6046 27.6148L22.7241 27.6033L22.7333 27.7113C23.094 27.6561 23.3192 27.624 23.4065 27.6171C24.0729 27.5596 24.4198 27.6952 24.4474 28.0192L24.5232 28.0123L24.5071 27.8216L24.5898 27.8147C24.7851 27.9227 24.8909 28.0536 24.9046 28.2076C24.9138 28.3133 24.8564 28.4442 24.7346 28.6005C24.6841 28.6051 24.6542 28.5683 24.6496 28.4948L24.5669 28.5017L24.5485 28.7315C24.2107 29.237 23.9649 29.4966 23.8132 29.5104C23.6753 29.7011 23.5903 29.7953 23.5559 29.7976ZM24.0705 31.1188C24.0016 31.0728 23.9465 31.0522 23.9051 31.0545L23.8959 30.9419L23.9717 30.935L24.1395 31.0338C24.1464 31.0866 24.1234 31.1142 24.0705 31.1188ZM24.6036 31.7506C24.6771 31.7805 24.7208 31.8127 24.73 31.8426L24.6933 31.8518L24.6956 31.8541C24.6886 31.8541 24.6795 31.8564 24.6725 31.8587L24.6174 31.9023L24.6036 31.7506ZM24.6542 32.0678L24.6473 32.0379L24.7438 32.0149L24.7507 32.0448L24.6542 32.0678ZM24.8862 32.3274C24.985 32.3113 25.0333 32.3044 25.2171 32.2631L25.224 32.293L24.8748 32.3734C24.8794 32.3573 24.8839 32.3412 24.8862 32.3274ZM25.2263 32.4722C25.0793 32.4859 25.1114 32.4675 24.8771 32.5204L24.8701 32.4906L25.162 32.3963L25.3022 32.3642L25.3159 32.4193C25.2539 32.4331 25.2999 32.4331 25.2263 32.4722ZM25.5365 32.3986C25.502 32.4078 25.4745 32.3918 25.4584 32.3527L25.548 32.332C25.587 32.3228 25.6123 32.3389 25.6215 32.378L25.5365 32.3986ZM26.3774 31.4933L26.3706 31.4635L26.5153 31.429L26.5291 31.4841L26.3774 31.4933ZM27.2759 37.0033C27.2851 36.9619 27.2874 36.932 27.2828 36.9113L27.315 36.9045C27.354 36.8953 27.377 36.9091 27.3862 36.9458L27.3931 36.9757L27.2759 37.0033ZM27.9055 31.73L27.8411 31.7185C27.7377 31.7599 27.6504 31.7897 27.5792 31.8058L27.5194 31.8196C27.485 31.8288 27.4574 31.815 27.4436 31.7782L27.8641 31.6817L28.002 31.6174L28.0479 31.6703C27.9812 31.684 27.933 31.7047 27.9055 31.73ZM28.2294 31.6266L28.2225 31.5967C28.2432 31.5921 28.2708 31.5761 28.3007 31.5462L28.5993 31.4773L28.6063 31.5071C28.4477 31.5462 28.3213 31.5852 28.2294 31.6266ZM28.2754 31.0223C28.2547 31.0269 28.2272 31.0453 28.1926 31.0728C28.1881 31.0522 28.1467 31.0522 28.0686 31.0706C28.0548 31.0131 28.2754 30.9327 28.7327 30.827L28.7969 30.8132L28.8107 30.8684C28.4891 30.9625 28.3099 31.0154 28.2754 31.0223ZM29.0796 30.1538C29.0474 30.5191 28.9188 30.7259 28.6913 30.7787L28.6844 30.7489L28.4822 30.827L28.3926 30.8477C28.3466 30.8592 28.3052 30.8569 28.2685 30.8454L28.2501 30.7649C28.2432 30.7351 28.535 30.3307 29.1279 29.554L29.1968 29.5656C29.222 29.6712 29.183 29.8665 29.0796 30.1538ZM30.5019 28.9359L30.4743 28.9383L30.4697 28.8808L30.5892 28.8693L30.5915 28.8992C30.5708 28.9038 30.5409 28.9153 30.5019 28.9359ZM29.916 34.8204C29.847 34.7882 29.785 34.7745 29.7322 34.7791L29.7252 34.6917C29.7229 34.6619 29.7413 34.6412 29.7804 34.6297C29.8195 34.6251 29.8424 34.6527 29.847 34.7125C29.9458 34.5861 30.001 34.5217 30.0125 34.5217L30.0745 34.547C30.0515 34.7216 29.9987 34.8135 29.916 34.8204ZM36.1979 28.2489C36.168 28.2513 36.1106 28.1593 36.021 27.9732L36.0164 27.9158C36.0738 27.9112 36.1336 28.0008 36.1933 28.1846L36.1979 28.2489ZM36.1152 27.5918L36.0876 27.6515L35.2375 27.2954C35.805 27.3138 36.0991 27.4126 36.1152 27.5918ZM32.5101 30.6869L32.3906 30.6983L32.386 30.6409L32.5055 30.6317L32.5101 30.6869ZM32.4113 28.828L32.4434 28.8257L32.4503 28.913C32.4205 28.9153 32.3837 28.9567 32.34 29.0371L32.3355 28.9796C32.3883 28.913 32.4135 28.8624 32.4113 28.828ZM32.1608 29.4254L32.17 29.538L32.1379 29.5403L32.1286 29.4277L32.1608 29.4254ZM32.0253 29.6391L32.085 29.6345C32.0781 29.731 32.0529 29.7815 32.0092 29.7861L31.977 29.7884C32.0115 29.7241 32.0276 29.6736 32.0253 29.6391ZM31.9288 29.9332L31.9564 29.9309L31.9586 29.9607L31.9058 30.0527L31.846 30.0573L31.8438 30.0274C31.9058 30.0228 31.9333 29.9906 31.9288 29.9332ZM31.8323 30.1997L31.8116 30.3468L31.784 30.3491L31.7725 30.2043L31.8323 30.1997ZM30.8511 32.9868C30.8121 33.1799 30.7707 33.2787 30.727 33.2832L30.7247 33.258C30.7179 33.1615 30.7592 33.0696 30.8511 32.9868ZM30.6696 33.3752L30.6719 33.4004C30.6765 33.4418 30.6581 33.4648 30.6168 33.467L30.6144 33.4372C30.6121 33.4073 30.6306 33.3867 30.6696 33.3752ZM30.6191 34.1839L30.7109 34.1771L30.7133 34.2069C30.6926 34.2092 30.6604 34.2207 30.6236 34.2414L30.5639 34.246C30.5616 34.2138 30.58 34.1932 30.6191 34.1839ZM33.1994 33.3867C32.6939 33.6371 32.3929 33.8071 32.2987 33.8945C31.7472 34.0874 31.4738 34.207 31.4784 34.2552C30.989 34.4505 30.6673 34.5906 30.5156 34.6803C30.4789 34.6826 30.426 34.6688 30.3571 34.6366C30.3479 34.5378 30.3939 34.4574 30.4904 34.3976C30.5777 34.3908 30.6604 34.4023 30.7362 34.4344C30.8282 34.3885 30.9867 34.3379 31.2119 34.2805L31.2073 34.223L31.0188 34.2368C31.0419 34.2047 31.2187 34.1219 31.5474 33.9886L31.6392 33.9818L31.6415 34.0071C31.4853 34.0208 31.398 34.0668 31.3796 34.1495C31.3819 34.1862 31.4049 34.2047 31.4439 34.2C31.5588 34.1242 31.614 34.0806 31.614 34.0668C31.8345 34.0277 32.4458 33.706 33.4499 33.104L33.4544 33.1615C33.4567 33.1867 33.3717 33.2603 33.1994 33.3867ZM31.66 33.8921C31.8093 33.8784 31.9356 33.8209 32.0414 33.7198C32.0804 33.7152 32.1034 33.7336 32.1057 33.7704C32.0368 33.7772 31.9012 33.8347 31.6967 33.945L31.6645 33.9473L31.66 33.8921ZM34.146 31.9828L33.3809 32.5985C32.8088 32.973 32.4986 33.1615 32.4503 33.1661C31.5404 33.667 30.9752 33.9266 30.7523 33.945L30.7202 33.9473C30.7477 33.8439 31.1545 33.0144 31.9403 31.4565C32.2826 31.4267 32.8249 31.2636 33.5693 30.9695L33.7555 30.9534C34.1299 30.9212 34.4103 30.9947 34.5941 31.1716L34.6033 31.2842C34.4631 31.6794 34.3115 31.9115 34.146 31.9828ZM32.6434 31.1372L32.7628 31.1257L32.7651 31.1556L32.6457 31.1671L32.6434 31.1372ZM34.3827 30.8408L34.4747 30.8339C34.5597 30.8752 34.6033 30.912 34.6056 30.9419L34.6079 30.9672C34.5275 30.974 34.4516 30.9327 34.3827 30.8408ZM34.624 29.4415C34.5436 29.538 34.3253 29.7034 33.9692 29.9332C33.8496 29.9447 33.4085 30.1147 32.6457 30.4456C32.6089 30.4318 32.5675 30.4272 32.5238 30.4295L32.5193 30.372C32.5101 30.2617 32.5583 30.1239 32.664 29.9562C32.7237 29.6391 32.7904 29.4622 32.8593 29.4208L33.5004 27.987C33.4935 27.902 33.6291 27.8331 33.9048 27.7802L33.9967 27.7733L34.0036 27.8607C34.2747 27.817 34.4448 27.7917 34.5137 27.7848C35.0192 27.7411 35.2834 27.8423 35.3041 28.0904L35.3638 28.0858L35.3523 27.9479L35.4121 27.9434C35.5592 28.0238 35.6373 28.1203 35.6465 28.2352C35.6534 28.3179 35.612 28.419 35.5247 28.5362C35.4856 28.5407 35.4627 28.5132 35.4581 28.4535L35.3983 28.458L35.3799 28.6304C35.1249 29.0187 34.9388 29.2186 34.8216 29.2278C34.7182 29.368 34.6539 29.4392 34.624 29.4415ZM34.8928 30.3973L34.8859 30.31L34.9456 30.3054L35.0743 30.3835C35.0766 30.4203 35.0582 30.441 35.0192 30.4456C34.9641 30.4111 34.9227 30.395 34.8928 30.3973ZM24.1969 35.9785L24.1372 35.9923L24.0866 36.0359C24.0958 36.0727 24.1188 36.0865 24.1579 36.0773C24.1969 36.0681 24.213 36.0451 24.2039 36.0084L24.1969 35.9785ZM23.9695 35.5258L23.9764 35.5557C24.0154 35.5465 24.0315 35.5235 24.0223 35.4868L24.0154 35.4569C23.9787 35.4661 23.9626 35.4891 23.9695 35.5258ZM25.587 31.6771L25.656 31.6611L25.6422 31.6013L25.5733 31.6174L25.587 31.6771ZM46.4366 33.428C45.738 33.5843 45.6507 33.5567 45.5037 33.5682L45.5083 33.6256L45.5726 33.621L45.6071 33.6187L45.5979 33.6118L45.6737 33.5819C46.3653 33.5061 46.4458 33.5337 46.4388 33.4556L46.4366 33.428ZM42.6752 33.9266L42.6798 33.9841H42.689L42.6844 33.9266H42.6752ZM42.2432 32.4124L42.1812 32.3918C42.1306 32.5273 42.1053 32.6077 42.1076 32.6307L42.1099 32.656C42.1582 32.6537 42.2019 32.571 42.2432 32.4124ZM46.579 33.4165L46.5836 33.474L46.6847 33.4923L46.6801 33.4349L46.579 33.4165ZM41.825 33.9978L41.6688 33.9795L41.6412 34.0392L41.6435 34.0691L42.5741 33.991L42.5695 33.9335L41.825 33.9978ZM41.4022 31.9598L41.4 31.9299L41.3678 31.9322L41.3104 31.969L41.3425 32.0241C41.3862 32.0195 41.4068 31.9988 41.4022 31.9598ZM47.0202 32.9938L47.0638 32.9891C47.0891 32.9868 47.1006 32.9662 47.0983 32.9294L47.073 32.8742C46.9145 32.888 46.841 32.895 46.7123 32.9662L46.71 32.9363L46.5193 32.9547C46.5147 32.8973 46.4986 32.8674 46.4733 32.8697L46.3745 32.8788C46.2596 32.888 46.2045 32.8835 46.147 32.9271C46.1447 32.9064 46.1379 32.8973 46.1264 32.8973L46.0161 32.9064L45.9517 32.9432C45.9494 32.9225 45.9426 32.9133 45.931 32.9133L45.892 32.9478L45.8897 32.9179L45.7357 32.9064L45.699 32.9087L45.7036 32.9662L45.7817 32.9868L45.8552 32.9823C45.8805 32.9984 45.9081 33.0029 45.9403 33.0006L46.0046 32.9685L46.0069 32.9938C45.6462 33.0834 45.6484 33.0673 45.4002 33.1087C45.3727 33.0902 45.352 33.0811 45.3382 33.0834L45.3337 33.0879C45.3061 33.0856 45.29 33.0673 45.2877 33.0374L45.4164 33.0213C45.4255 33.0213 45.4325 33.0305 45.5037 33.0443C45.6071 32.9938 45.6116 32.973 45.6668 32.9685L45.6622 32.911C45.3084 32.98 45.4508 32.934 45.0073 32.973L44.9867 32.9753L44.9821 32.9179C45.5519 32.849 45.3612 32.888 45.5565 32.8329C45.5588 32.8536 45.5657 32.8627 45.5772 32.8627C45.5981 32.8414 45.6257 32.8276 45.6553 32.8237L45.6944 32.8214C45.8943 32.8053 45.9609 32.8444 46.3561 32.7341L46.3584 32.7594L46.4228 32.7272L46.4825 32.7226C46.4779 32.6651 46.5652 32.656 46.5951 32.6537L46.5905 32.5916C45.8966 32.7318 45.7151 32.6927 45.5221 32.7479L45.5198 32.7226C45.3383 32.7548 45.3313 32.741 45.2854 32.7433C45.2716 32.7456 45.251 32.7571 45.2279 32.78C45.2257 32.7594 45.2187 32.7502 45.205 32.7502C45.1981 32.7502 45.1958 32.7525 45.1935 32.7525L44.6053 32.849C44.603 32.8329 44.5961 32.8237 44.5823 32.826C44.2767 32.8903 44.3594 32.9018 43.9504 32.9386C43.932 32.9409 43.9068 32.9501 43.8746 32.9708C43.8723 32.9547 43.8631 32.9455 43.8424 32.9478L43.592 32.9685L43.4243 33.0098C43.422 32.9938 43.4128 32.9846 43.3921 32.9868C43.2979 33.0121 43.2152 33.0282 43.1485 33.0328H43.1439C43.1026 33.0374 43.1646 33.0213 43.1324 33.0075L43.0819 33.0374C43.0083 33.0443 43.0474 33.0328 42.7947 33.0351C42.3512 33.0902 42.3995 33.0971 42.3512 33.0994L42.1858 33.0879C42.1881 33.104 42.1789 33.1155 42.1605 33.1155C41.9721 33.0902 41.8756 33.0604 41.8733 33.0259C41.8985 32.8467 41.9422 32.7548 42.0043 32.7502L42.0364 32.7479L42.0088 32.8076L42.041 32.8053C42.1008 32.7732 42.1284 32.7433 42.126 32.7157L42.1214 32.6537L42.0617 32.6583L42.0571 32.6009C42.0525 32.5572 42.0594 32.5181 42.0755 32.4859L42.2111 32.2677L42.2157 32.3251L42.28 32.3205L42.2754 32.2631L42.2386 32.2102C42.2869 32.1689 42.3237 32.1459 42.3535 32.1436L42.3512 32.1137L42.2639 32.1206L42.257 32.0333C42.4316 31.6703 42.5143 31.4589 42.5098 31.3991L42.5718 31.4244C42.6109 31.4221 42.6292 31.3991 42.6269 31.3577L42.5672 31.3624L42.5649 31.3371C42.5607 31.2951 42.5687 31.2529 42.5879 31.2153C42.6821 31.1165 42.7257 31.0177 42.7166 30.9143C42.735 30.912 42.7441 30.9212 42.7464 30.9419C42.8268 30.8959 42.8889 30.7742 42.9348 30.5719C43.0773 30.3146 43.2795 29.7999 43.5437 29.0302C44.0492 27.6699 44.0286 27.5252 44.0998 27.2035L44.04 27.2081C44.0446 27.2494 44.0354 27.2885 44.0171 27.3253C43.9757 27.3092 43.9436 27.3 43.9206 27.3023L43.9183 27.277C43.909 27.1598 43.9573 27.0197 44.0676 26.8542L44.0952 26.8519L44.1457 27.0495L44.2054 27.045C44.2032 27.0312 44.2192 26.953 44.2514 26.8083C44.2491 26.7784 44.2262 26.76 44.1802 26.7577L44.1227 26.7945C44.1182 26.7531 44.1204 26.6451 44.1274 26.4728L44.0975 26.4751C44.0469 26.4246 44.0216 26.3832 44.0193 26.3487L43.6908 26.3809C43.6885 26.3579 43.677 26.3235 43.654 26.2798C43.6517 26.2499 43.7252 26.22 43.8769 26.1902L43.9436 26.2155L44.0056 26.1787C44.0078 26.1994 44.0193 26.2086 44.0423 26.2063L44.1043 26.1695C44.1066 26.1902 44.1181 26.1994 44.1412 26.1971L44.171 26.1948L44.1664 26.1282C44.1204 26.1328 43.9987 26.1328 43.8057 26.1259L43.7436 26.1672L43.7413 26.1305C42.1996 26.2568 41.3241 26.3281 41.1151 26.3487C41.0875 26.351 40.9795 26.3487 40.7888 26.3441C40.7911 26.3694 40.7681 26.3832 40.7222 26.3878L40.6555 26.3579L40.4303 26.4154C40.3774 26.42 40.2879 26.4176 40.1638 26.4039C40.1293 26.4314 40.088 26.4475 40.0374 26.4522C40.0098 26.4544 40.366 26.4337 40.6968 26.4108C40.6624 26.4384 40.6096 26.4544 40.536 26.4613C40.4855 26.4659 40.4418 26.459 40.405 26.4384C40.3545 26.4613 40.1914 26.4981 39.9179 26.5532L39.8513 26.528L38.776 26.6934C38.7346 26.6727 38.6863 26.6658 38.6312 26.6704C38.5737 26.675 38.4772 26.6957 38.344 26.7325L37.8247 26.9484L37.8638 27.0128C37.889 27.0105 37.9258 26.9967 37.9694 26.9714L38.1533 26.9875L38.1303 27.1598C37.9603 27.2356 37.8615 27.3482 37.8339 27.4907C37.5788 27.6033 37.4525 27.6837 37.4525 27.732L37.4548 27.7619L37.4938 27.7596L37.5627 27.7228L37.6432 27.8193L37.6547 27.9525C37.6592 27.9939 37.2296 28.8969 36.3702 30.6616C35.6258 32.3619 35.2352 33.2925 35.1984 33.4602C34.9434 33.5314 34.7963 33.6348 34.7527 33.7727C34.7573 33.8163 34.833 33.8462 34.9801 33.8577L34.987 33.9243L34.9204 34.0346L34.9318 34.1679C34.9388 34.2368 35.1249 34.2897 35.4902 34.3264C35.4879 34.3035 35.4994 34.2897 35.5247 34.2874C35.5316 34.3701 35.5086 34.5309 35.4558 34.7699L35.4948 34.7676C35.6464 34.5608 35.7177 34.4183 35.7108 34.3402L35.743 34.3379C35.7797 34.3356 35.8188 34.377 35.8648 34.4665C35.8188 34.485 35.658 34.8503 35.3822 35.5649L35.4213 35.6292L35.4604 35.627C35.7981 34.7722 36.0095 34.2988 36.0968 34.2092C36.5403 34.1701 37.3077 34.0921 38.3968 33.9748L38.4658 33.9335C38.4681 33.9565 38.4819 33.968 38.5071 33.9657L38.5783 33.9588L38.6473 33.9174C38.6496 33.9404 38.6634 33.9519 38.6886 33.9496L39.5135 33.8784C39.7318 33.86 39.8352 33.7933 39.826 33.6808C39.8237 33.6509 39.9524 33.6164 40.212 33.5796C40.2373 33.5773 40.2741 33.5843 40.3246 33.6004C40.3223 33.5796 40.4533 33.559 40.7152 33.536C40.7222 33.3981 40.7658 33.3246 40.8439 33.3177L40.837 33.2511C40.7635 33.258 40.6808 33.2764 40.5843 33.3085C40.412 33.2993 40.3017 33.2855 40.2557 33.2694C40.2097 33.2947 40.1753 33.3085 40.15 33.3108L39.5755 33.3292L39.5066 33.366C39.5043 33.3453 39.4905 33.3361 39.4653 33.3384L39.4331 33.3407L39.3596 33.3775C39.3573 33.3568 39.2976 33.3407 39.178 33.3246L39.1046 33.3682L38.9621 33.3797L38.9598 33.343C39.6996 33.2626 40.065 33.1615 40.0558 33.042C40.1041 33.0374 40.1293 33.0604 40.1339 33.1087L40.3499 33.0535L40.343 32.9868L38.5715 33.0351C38.5737 33.0581 38.5622 33.0718 38.537 33.0741L38.321 33.0558C38.2658 33.0604 38.2199 33.0765 38.1831 33.104L38.1027 33.0741C37.8799 33.0926 37.7144 33.1201 37.6041 33.1546C37.4525 33.1431 37.2847 33.1454 37.0986 33.1615L36.7011 33.1959L36.5173 33.1753C36.5081 33.0581 36.7356 32.4813 37.2043 31.4474C37.3399 31.0981 37.4639 30.8798 37.5835 30.7971C37.6087 30.7948 37.6455 30.804 37.6961 30.8247L37.9787 30.7282L38.1234 30.7511C38.3669 30.7305 38.6496 30.6616 38.9736 30.5421C39.054 30.5352 39.1137 30.5398 39.1574 30.5582L39.3734 30.5076L40.0168 30.4525C40.2901 30.4295 40.5865 30.3697 40.9082 30.2709L40.9014 30.2043C40.7819 30.2158 40.7199 30.1952 40.7152 30.1468C40.7084 30.0573 40.621 30.0205 40.4533 30.0342L40.4464 29.9677L40.6234 29.9171L41.0875 29.878L41.0805 29.8114C41.0622 29.8137 40.968 29.8114 40.7934 29.8045L40.7864 29.7333L40.9657 29.7172C41.0139 29.7126 41.0346 29.6896 41.0301 29.6437C40.7888 29.6506 40.667 29.6391 40.6647 29.6069C38.9827 29.6896 38.1395 29.7057 38.1349 29.6528C38.1096 29.6551 38.0752 29.6712 38.0292 29.6988L37.9855 29.6299C38.4313 28.6832 38.6933 28.2053 38.7691 28.1984C38.7713 28.2352 38.753 28.2949 38.7116 28.3753L38.7139 28.4052L38.7851 28.3983C38.9621 27.9755 39.1114 27.7572 39.2355 27.7481C39.764 27.7021 39.162 27.6676 40.2924 27.4907C40.3384 27.5114 40.3706 27.5206 40.3935 27.5183C40.837 27.4287 41.4551 27.3344 42.2478 27.238L42.2432 27.1713L41.8204 27.2104L41.8158 27.1438C41.8664 27.1392 41.9077 27.1231 41.9422 27.0955L41.9445 27.1323C41.9675 27.13 41.9997 27.1139 42.041 27.0863C42.1146 27.0794 42.1697 27.0863 42.2087 27.107C42.3558 27.0679 42.4753 27.045 42.5626 27.0357L42.8268 27.0105C42.8912 26.9691 42.921 26.9324 42.9188 26.8979L42.9165 26.868C42.8498 26.8749 42.774 26.8703 42.6844 26.8542C42.6821 26.8175 42.7004 26.7922 42.7441 26.7807L43.2358 26.7348L43.461 26.6773C43.4633 26.7026 43.4748 26.7118 43.4932 26.7118C43.5161 26.7095 43.5483 26.6934 43.5897 26.6658C43.6012 26.6681 43.6149 26.6681 43.6264 26.6704C43.5966 26.7325 43.5621 26.8221 43.5276 26.9392L43.4633 26.9439C43.4587 26.9002 43.4472 26.8612 43.4265 26.8266L43.3944 26.829C42.7969 28.4925 42.5304 29.2669 41.979 30.5444C41.8779 30.8707 41.7929 31.0522 41.7194 31.0912C41.7217 31.128 41.7446 31.1463 41.7837 31.1418C41.7974 31.3026 41.7607 31.4612 41.6711 31.6174C41.416 32.3527 41.246 32.7548 41.1587 32.8283L41.2161 33.1753C41.2184 33.212 41.2001 33.2327 41.161 33.2373L41.1013 33.2419C41.092 33.1454 41.0576 33.0994 40.9955 33.1063L40.9634 33.1087C40.8852 33.2304 40.8255 33.3706 40.7864 33.5337L40.8462 33.5291C40.9266 33.4763 40.9634 33.4142 40.9565 33.343L41.076 33.3315L41.1449 33.3568C41.0898 33.4441 41.0645 33.513 41.0691 33.5658L41.1013 33.621L41.0231 33.8048L41.0254 33.8347C41.0943 33.8278 41.1702 33.8508 41.2506 33.899C41.3057 33.8945 41.3655 33.8692 41.4321 33.8255C41.501 33.8186 41.7584 33.8163 42.2019 33.8163L42.4247 33.7405C42.6959 33.7382 42.7395 33.7451 42.9739 33.7244L43.0704 33.7152L43.1209 33.6808L43.1232 33.7106C43.3691 33.6899 43.3852 33.706 43.5782 33.729L43.5805 33.7589L43.4449 33.7704L43.4495 33.8278C43.4909 33.8232 43.5276 33.8117 43.5575 33.7865C43.592 33.7842 43.6126 33.8025 43.6149 33.8439C43.5598 33.8485 43.4978 33.8623 43.4288 33.8853L43.3691 33.8646C43.2749 33.8898 43.2956 33.8968 43.2312 33.9013L43.137 33.883C43.1393 33.899 43.1301 33.9105 43.1141 33.9105C43.1163 33.9473 43.137 33.9657 43.1715 33.9634L43.268 33.9542L43.7712 33.9105L43.9619 33.8692C43.9642 33.8853 43.9711 33.8945 43.9872 33.8921L44.0791 33.8577L44.2514 33.8439C44.3847 33.8324 44.3824 33.8232 44.6719 33.7772C44.6696 33.7589 44.6765 33.752 44.6903 33.7497L44.6926 33.7749C45.1636 33.6945 45.1935 33.6899 45.2693 33.6646L45.2762 33.6784C45.3934 33.6509 45.3267 33.6578 45.3589 33.6348C45.3612 33.6555 45.3681 33.6646 45.3796 33.6646L45.4623 33.6578L45.4577 33.5957L45.29 33.5934L45.2877 33.5889C45.2808 33.5911 45.2762 33.5911 45.2693 33.5934H45.2463V33.5981C45.1337 33.621 45.1314 33.6049 45.0579 33.6118L44.6374 33.6348L44.6351 33.6049L44.8695 33.5728L44.9545 33.5658L45.0028 33.5314L45.005 33.5613C45.336 33.5337 45.4531 33.6164 46.9834 33.2902C47.0661 33.2832 47.0592 33.2143 47.1121 33.0718C47.0841 33.0738 47.0561 33.0674 47.0316 33.0535C46.9053 33.1017 46.8387 33.0788 46.5951 33.1178C46.5744 33.1201 46.5583 33.1017 46.5514 33.065L46.5491 33.0397L46.7835 33.0466C46.8272 33.042 46.9122 33.0351 47.0386 32.9639C47.0386 32.9846 46.9926 32.9961 47.0202 32.9938ZM35.7062 33.1753L35.5982 33.1844C35.5936 33.1408 35.651 32.9753 35.7705 32.6927L35.8418 32.6859C35.8441 32.7525 35.8004 32.9156 35.7062 33.1753ZM35.8372 32.6514L35.8349 32.6215C35.8325 32.5848 35.8556 32.5595 35.9061 32.548L35.9084 32.5778C35.9107 32.6215 35.8877 32.6468 35.8372 32.6514ZM37.2733 33.7612L37.2756 33.791L37.0963 33.8071L37.094 33.7772L37.2733 33.7612ZM37.0572 33.7428C37.0596 33.7796 37.0044 33.8209 36.8849 33.8623L36.6643 33.8462L36.5931 33.8531L36.5863 33.7865L37.0572 33.7428ZM38.5094 27.0588L38.4014 27.0679L38.3992 27.0312C38.3968 26.9944 38.4175 26.9691 38.4634 26.9577L38.5025 26.9553L38.576 26.9852C38.5783 27.0289 38.5577 27.0541 38.5094 27.0588ZM40.1523 26.7371L40.1868 26.7348L40.1913 26.8014L40.0925 26.8106C40.0903 26.7738 40.1086 26.7486 40.1523 26.7371ZM39.7387 26.8818L39.5755 26.8634L39.5732 26.8336C39.7869 26.8152 39.8582 26.7922 39.9892 26.7554C39.9915 26.7807 40.0144 26.7899 40.0558 26.7853L40.0604 26.8519L39.996 26.8588C39.9455 26.8634 39.9018 26.8565 39.8651 26.8359C39.826 26.8612 39.7846 26.8772 39.7387 26.8818ZM39.9432 27.4769L39.9409 27.447L40.2051 27.4218L40.2074 27.4517L39.9432 27.4769ZM40.2258 27.2471L40.2235 27.2104L40.3522 27.1989L40.3545 27.2356L40.2258 27.2471ZM40.2557 26.7968L40.2212 26.7991L40.2511 26.7278L40.5452 26.7003L40.5475 26.7371C40.4717 26.7439 40.3729 26.7646 40.2557 26.7968ZM40.405 27.4309L40.4004 27.3643L40.5291 27.3529C40.5728 27.3482 40.5958 27.3689 40.5981 27.4149L40.405 27.4309ZM41.184 26.3694L41.0185 26.4154L40.9887 26.4176C40.9105 26.4246 40.8094 26.4223 40.69 26.4108C40.9037 26.397 41.1081 26.3809 41.184 26.3694ZM41.007 27.1047L41.0093 27.1345L40.7819 27.1553L40.7796 27.1254L41.007 27.1047ZM41.3793 27.2816C41.3769 27.2541 41.3333 27.2356 41.2437 27.2265L41.0163 27.2908L40.8416 27.2977C40.8025 27.2701 40.7819 27.2517 40.7796 27.238L40.9818 27.2494L41.4367 27.1759L41.6688 27.1851L41.6711 27.2219C41.5562 27.2333 41.4597 27.2541 41.3793 27.2816ZM43.7207 26.6773C43.7482 26.6796 43.7666 26.6796 43.7735 26.6796C43.8539 26.6015 43.9436 26.5395 44.0469 26.4958C43.9642 26.8588 43.8355 27.1277 43.6586 27.3023L43.5299 27.2242C43.6379 26.9507 43.7023 26.7692 43.7207 26.6773ZM43.3255 27.3552L43.3576 27.3529C43.3139 27.4356 43.2749 27.4792 43.2427 27.4815L43.2358 27.3942C43.2565 27.3942 43.2864 27.3804 43.3255 27.3552ZM43.0704 27.964C43.1324 27.7159 43.1922 27.5757 43.2473 27.539L43.2496 27.5688C43.2174 27.7986 43.1669 27.9204 43.1003 27.9296L43.1118 28.0743C43.0566 28.1525 43.0313 28.2122 43.0336 28.2581L43.0015 28.2604L42.9831 28.0605C43.0198 28.056 43.0497 28.0238 43.0704 27.964ZM42.9716 28.2949C42.9739 28.3294 42.9509 28.4098 42.905 28.5339L42.8728 28.5362L42.8659 28.4489C42.9095 28.3477 42.9463 28.2972 42.9716 28.2949ZM41.1174 33.6761L41.1151 33.6509L41.1748 33.6463L41.1817 33.7336C41.1495 33.7359 41.1265 33.7175 41.1174 33.6761ZM43.7666 33.7451C43.7643 33.7244 43.7551 33.7152 43.7345 33.7175L43.5851 33.7313L43.5828 33.7014H43.5966L43.9504 33.6716L43.9527 33.7014C43.8493 33.706 43.7873 33.7221 43.7666 33.7451ZM43.5897 33.6716C43.6035 33.6784 43.5966 33.6854 43.5897 33.6899C43.5828 33.6877 43.5736 33.6808 43.5897 33.6716ZM43.6081 33.258L43.4105 33.2741L43.4082 33.2442L43.5874 33.2281L43.7436 33.189C43.746 33.2074 43.7551 33.2143 43.7758 33.212C43.9619 33.1799 43.9436 33.1707 44.0331 33.1638C44.063 33.1615 44.0814 33.1799 44.0837 33.2166L43.6081 33.258ZM44.2997 33.1982C44.1894 33.1867 44.1825 33.1776 44.1044 33.1844L44.1021 33.1592L44.279 33.1431L44.2813 33.1684C44.2629 33.1707 44.3295 33.1753 44.2997 33.1982ZM44.3135 33.1661L44.3112 33.1408L44.4077 33.1316L44.41 33.1569L44.3135 33.1661ZM44.5271 33.1477L44.5249 33.1224C44.5409 33.1201 44.5639 33.1087 44.5938 33.0856C44.642 33.0811 44.6673 33.1132 44.6719 33.15L44.5271 33.1477ZM44.8006 33.1132L44.7983 33.0834L44.9155 33.0741L44.9178 33.104L44.8006 33.1132ZM44.9637 33.0994C44.9614 33.065 44.9752 33.0443 45.0051 33.0397L45.0441 33.0902C45.0419 33.0741 45.0487 33.065 45.0625 33.0627L45.0924 33.1178L44.9637 33.0994ZM43.229 33.8485L43.2244 33.791L43.2059 33.7933L43.2106 33.8508L43.229 33.8485ZM47.2661 32.803C47.2844 32.7915 47.2936 32.78 47.25 32.7732C47.2292 32.7961 47.2729 32.803 47.227 32.8053L47.2292 32.826C47.2339 32.8214 47.2453 32.8145 47.2545 32.8076L47.2292 32.8283V32.8306L47.181 32.8926L47.2775 32.8582H47.289L47.2844 32.8007L47.2661 32.803ZM47.4338 32.934L47.4154 32.9363L47.42 32.9938L47.5555 32.9823C47.5532 32.9455 47.4636 32.934 47.4338 32.934ZM47.2247 32.8329L47.227 32.8306V32.8283C47.227 32.8283 47.2247 32.8306 47.2247 32.8329Z" fill="black"/>
<path d="M38.4037 28.5798L38.406 28.6165L38.4819 28.6097C38.4796 28.5867 38.4887 28.5499 38.5048 28.5039L38.498 28.4373C38.4658 28.4397 38.4336 28.4879 38.4037 28.5798ZM37.6777 26.8335L37.6708 26.7669L37.5628 26.7761L37.5697 26.8427L37.6777 26.8335ZM35.5707 30.7787C35.5661 30.7167 35.3731 30.4754 34.9917 30.0503C34.9847 29.9722 35.1157 29.855 35.3846 29.7011L36.152 29.0325C36.3243 28.8141 36.4254 28.4603 36.4553 27.9686L36.4461 27.856C36.4162 27.5159 36.1704 27.2425 35.7039 27.0335C35.4282 26.8473 34.9319 26.7439 34.215 26.7255C33.6222 26.7761 32.8479 26.9875 31.8943 27.362C31.6324 27.5504 31.3337 27.7388 30.9982 27.9272L31.0028 27.9847C31.0235 27.9824 31.0556 27.9709 31.0924 27.9456C31.1315 27.941 31.1545 27.9594 31.1567 27.9962L31.2142 27.9663L31.2417 27.964L31.2441 27.9893C31.2464 28.0192 31.0396 28.1823 30.6214 28.4741L30.6535 28.5338L30.626 28.5361L30.5571 28.5109C30.5594 28.5315 30.5295 28.5453 30.472 28.5499L30.4744 28.5752L30.541 28.6579C30.5203 28.6602 30.4881 28.6511 30.4445 28.635C30.348 28.6441 30.2537 28.6947 30.1595 28.7912L30.1986 28.6212C30.3388 28.0169 30.4353 27.4815 30.4858 27.0174L30.4789 26.9875C30.3824 26.9254 30.2882 26.8381 30.2009 26.7278C30.2032 26.6566 30.2032 26.6152 30.2009 26.606L30.194 26.5808L30.1665 26.5877C29.8631 27.0426 29.2795 27.8193 28.4133 28.9176C27.7538 29.6988 27.4137 30.133 27.3931 30.2203C27.1243 30.4984 26.9956 30.6661 27.0094 30.7236C26.9381 30.7695 26.9082 30.8155 26.9198 30.866C26.8991 30.8706 26.8853 30.8637 26.8807 30.843C26.7658 31.0292 26.5958 31.1486 26.3683 31.2015L26.1293 31.2566C26.0972 31.2635 26.0811 31.2865 26.0834 31.3256L26.0903 31.3554L26.1799 31.3348L26.1868 31.36L25.9846 31.4382L25.6261 31.5209L25.4378 31.5324C25.4102 31.5599 25.5871 31.53 25.5181 31.5461L25.2838 31.6013C25.1414 31.6335 25.0632 31.622 25.0494 31.5646L25.0218 31.5714C25.0264 31.5967 25.0288 31.6151 25.0241 31.6312L25.0103 31.5737L24.8219 31.6174C24.8082 31.53 24.5531 31.213 24.0591 30.6661C24.0499 30.5604 24.2245 30.4065 24.5807 30.2066L25.5871 29.3219C25.8122 29.0325 25.9455 28.5683 25.9892 27.9295L25.9754 27.7802C25.9363 27.3299 25.6101 26.9668 24.9966 26.6865C24.6335 26.4406 23.981 26.3096 23.0389 26.289C22.2577 26.3556 21.2375 26.6336 19.9829 27.1185C19.6383 27.3689 19.2454 27.617 18.8042 27.8629L18.8111 27.941C18.841 27.9387 18.8801 27.9227 18.9283 27.8951C18.9789 27.8905 19.0064 27.9134 19.011 27.9594L19.0891 27.9157L19.1282 27.9134L19.1305 27.9502C19.1328 27.987 18.8593 28.2007 18.3056 28.5913L18.3493 28.6602L18.3102 28.6625L18.2252 28.6326C18.2275 28.6556 18.1884 28.6717 18.108 28.6786L18.1126 28.72L18.2045 28.8211C18.1746 28.8234 18.1333 28.8141 18.0805 28.7958C17.9012 28.8118 17.7266 28.9405 17.5542 29.1841L17.5979 29.253C17.7473 29.1152 17.8346 29.0463 17.8598 29.044L17.8691 29.1565C17.8438 29.1588 17.8047 29.1749 17.7519 29.2025L17.8461 29.3449C18.024 29.1526 18.2255 28.9836 18.4458 28.8417C18.5538 28.8693 18.6112 28.9038 18.6135 28.9405L18.6962 28.9337C19.2891 28.4948 19.8749 28.1777 20.4563 27.9824L20.4632 28.0605C20.3552 28.2213 20.2816 28.3041 20.2426 28.3086C20.2472 28.3638 20.2656 28.4121 20.3 28.4534C20.3092 28.5523 20.045 29.2186 19.5096 30.4502C18.2941 33.3131 17.2739 35.4316 16.4445 36.801C16.4468 36.8286 16.4629 36.8654 16.4927 36.9113C16.6972 36.863 16.8259 36.8126 16.881 36.7642L16.9247 36.7597L16.9316 36.8378L17.0074 36.8309L17.0855 36.7873C17.0878 36.8102 17.1131 36.8217 17.166 36.8171L17.1728 36.8953C17.1797 36.9711 17.1361 37.0859 17.0441 37.2445C16.9614 37.3387 16.8718 37.5363 16.7776 37.8373L16.7799 37.874L16.8558 37.8672C17.1866 37.4972 17.4371 37.1342 17.6094 36.7803C18.5745 36.4977 19.3097 36.2197 19.8198 35.9463C20.3322 35.9026 20.7228 35.7671 20.9894 35.5442L20.9847 35.5028L20.7917 35.5603L20.7481 35.5649L20.7435 35.5235C21.1203 35.4661 21.3799 35.3833 21.5247 35.2685C22.2577 34.7032 22.8114 34.3034 23.186 34.0668C23.9557 33.5015 24.4566 32.95 24.6841 32.4147C24.7254 32.4055 24.7668 32.3963 24.8127 32.3848C24.9207 32.3803 24.9805 32.3779 24.9966 32.3733C24.992 32.3527 25.0012 32.3412 25.0218 32.3366C25.1942 32.3182 25.1115 32.348 25.2217 32.3228L25.5113 32.2562L25.5595 32.2446L25.5366 32.2584C25.5687 32.263 25.6032 32.2607 25.6422 32.2516L25.6629 32.3366L24.3463 34.4298L24.0545 34.7951L23.912 35.273L23.9396 35.2662L24.0821 35.2064L24.0361 35.3926L24.0499 35.4477L24.089 35.4959C24.0706 35.5005 24.0637 35.512 24.0683 35.5327L24.0752 35.5626L24.1349 35.5488C24.2222 35.473 24.259 35.404 24.2452 35.342C24.3394 35.358 24.4014 35.365 24.4336 35.3558L24.4405 35.3856C24.3831 35.3994 24.3532 35.4454 24.3486 35.5235L24.3555 35.5533L24.3877 35.5465C24.8656 35.0249 26.0374 33.2396 26.9772 32.0287C26.9473 31.8977 27.4368 31.7162 28.4478 31.4818L28.4799 31.4749C28.5167 31.6335 28.4386 32.0172 28.2455 32.6261C28.1215 32.9937 28.0617 33.1959 28.0709 33.2281C27.9101 33.7175 27.8342 33.9817 27.8435 34.0231L27.485 35.1972C27.2529 35.7993 27.076 36.4311 26.9519 37.0974C26.9726 37.0929 27.0048 37.0952 27.0507 37.1067L27.1013 37.063C27.1058 37.0837 27.1196 37.0905 27.1404 37.0859L27.1196 37.0009L27.2759 36.9964C27.3219 36.9849 27.3609 36.9274 27.3931 36.8217C27.3862 36.6632 27.4184 36.5782 27.4896 36.5598C27.5861 36.183 27.6459 35.9946 27.6665 35.9876C27.7561 35.6131 27.8227 35.3994 27.8664 35.3466C28.002 34.8595 28.1008 34.609 28.1651 34.5929L28.1789 34.6526L28.0801 34.9077C27.9077 35.6729 27.7332 36.2772 27.5562 36.7206L27.6068 36.9412L27.6389 36.9343C28.0663 36.0152 28.6821 34.1954 29.484 31.4749C29.507 31.2359 29.6219 31.0498 29.8264 30.9189L29.7804 30.8706L29.7735 30.8454C29.8654 30.8246 29.9298 30.7879 29.9666 30.7374C29.9619 30.7167 29.8815 30.6868 29.7253 30.6454L30.1251 28.9314C30.2124 28.8532 30.263 28.8119 30.279 28.8119L30.2859 28.8992C30.2653 28.9015 30.2331 28.9129 30.1963 28.9382L30.2721 29.0463C30.41 28.8969 30.5594 28.7682 30.7225 28.6602C30.8052 28.6832 30.8465 28.7108 30.8512 28.7383L30.9109 28.7338C31.3658 28.4006 31.8116 28.1616 32.2505 28.0169L32.255 28.0743C32.1746 28.1961 32.1195 28.2581 32.0896 28.2604C32.0942 28.3018 32.1057 28.3385 32.1264 28.3707C32.1333 28.4465 31.9357 28.952 31.5313 29.8895C30.6076 32.0608 29.8332 33.6669 29.2037 34.7101C29.206 34.7308 29.2198 34.7584 29.245 34.7951C29.399 34.7584 29.4978 34.7193 29.5369 34.6825L29.5644 34.6802L29.569 34.7376L29.6334 34.7331L29.6908 34.7032C29.6931 34.7193 29.7138 34.7262 29.7528 34.7239L29.7575 34.786C29.762 34.8411 29.7299 34.9284 29.6587 35.0478C29.592 35.1191 29.5231 35.2685 29.4496 35.4959L29.4518 35.5258L29.5116 35.5212C29.762 35.2409 29.9528 34.9651 30.0837 34.694C30.8167 34.4781 31.3751 34.2689 31.761 34.0621C32.154 34.0277 32.4503 33.9266 32.6526 33.7566L32.6502 33.7267L32.5009 33.7703L32.4687 33.7727L32.4664 33.7428C32.7514 33.7014 32.9513 33.6371 33.0593 33.5521C33.6153 33.1247 34.0358 32.8191 34.3207 32.6398C35.2076 31.9942 35.6212 31.3738 35.5707 30.7787ZM35.419 30.8178L35.4397 31.0498C35.4121 31.1073 35.3823 31.1371 35.3547 31.1395L35.3202 30.7442C35.3846 30.7672 35.4167 30.7902 35.419 30.8178ZM18.0207 28.9475L17.9817 28.9497L17.9747 28.8785L18.1333 28.8647L18.1356 28.9015C18.1103 28.9038 18.0712 28.9176 18.0207 28.9475ZM17.2464 36.693C17.1545 36.6517 17.0717 36.6356 17.0005 36.6425L16.9913 36.5299C16.9867 36.4863 17.012 36.4564 17.0672 36.4449C17.1177 36.4403 17.1476 36.4771 17.1522 36.5506C17.2854 36.3875 17.359 36.3048 17.3727 36.3024L17.4578 36.3369C17.4302 36.5666 17.359 36.6839 17.2464 36.693ZM25.5205 28.0375C25.4814 28.0421 25.4032 27.9204 25.2907 27.6791L25.2838 27.6079C25.3573 27.601 25.4331 27.7205 25.5135 27.9663L25.5205 28.0375ZM25.4102 27.1805L25.378 27.2563L24.2544 26.7875C25.0035 26.8128 25.3895 26.9438 25.4102 27.1805ZM20.6654 31.2544L20.5068 31.2682L20.5 31.1969L20.6585 31.1831L20.6654 31.2544ZM20.5367 28.8073L20.5757 28.805L20.585 28.9176C20.5482 28.9199 20.5 28.975 20.4402 29.0807L20.4333 29.0026C20.5045 28.9176 20.5413 28.8532 20.5367 28.8073ZM20.2035 29.5931L20.2173 29.7424L20.1783 29.7447L20.1645 29.5954L20.2035 29.5931ZM20.0289 29.8734L20.1048 29.8665C20.0978 29.9906 20.0634 30.0573 20.0013 30.0618L19.9623 30.0641C20.0105 29.9814 20.0335 29.9171 20.0289 29.8734ZM19.8979 30.264L19.9416 30.2594L19.9439 30.2962L19.8726 30.4157L19.7968 30.4226L19.7946 30.3858C19.8704 30.3789 19.9048 30.3399 19.8979 30.264ZM19.7693 30.6156L19.7463 30.804L19.7072 30.8063L19.6911 30.6202L19.7693 30.6156ZM18.4802 34.2805C18.4297 34.5378 18.3746 34.6687 18.3171 34.6734L18.3148 34.6366C18.301 34.5102 18.3562 34.3907 18.4802 34.2805ZM18.2436 34.7928L18.2459 34.8296C18.2505 34.8801 18.2275 34.91 18.177 34.9123L18.1746 34.8755C18.17 34.8319 18.193 34.8043 18.2436 34.7928ZM18.1746 35.8567L18.2941 35.8452L18.2987 35.8866C18.2688 35.8888 18.2298 35.9049 18.1815 35.9325L18.1057 35.9394C18.1011 35.9003 18.1264 35.8705 18.1746 35.8567ZM21.5752 34.8066C20.9043 35.1375 20.5091 35.3627 20.3919 35.4798C19.6659 35.7326 19.3051 35.8888 19.312 35.9509C18.6664 36.2059 18.2412 36.3943 18.0368 36.5115C17.9885 36.5161 17.9196 36.4977 17.8277 36.4564C17.8162 36.3254 17.8759 36.2197 18.0023 36.1347C18.1149 36.1255 18.2229 36.1416 18.3263 36.1852C18.4458 36.1232 18.6549 36.0543 18.9513 35.9808L18.9444 35.9026L18.7054 35.9233C18.7353 35.882 18.9651 35.774 19.397 35.5993L19.5165 35.5879L19.5188 35.6246C19.3143 35.643 19.2017 35.7027 19.1765 35.8107C19.181 35.859 19.2086 35.8796 19.2592 35.875C19.4131 35.7785 19.4889 35.7211 19.4867 35.705C19.7785 35.6499 20.585 35.2271 21.9062 34.439L21.913 34.5102C21.9153 34.5447 21.8027 34.6412 21.5752 34.8066ZM19.5487 35.473C19.7417 35.4569 19.9071 35.3788 20.045 35.2432C20.1001 35.2386 20.13 35.2592 20.1323 35.3075C20.0381 35.3167 19.8566 35.3948 19.5923 35.5465L19.5533 35.5488L19.5487 35.473ZM22.8183 32.9615L21.805 33.7657C21.0514 34.2597 20.647 34.5079 20.5872 34.5125C19.3879 35.1719 18.6411 35.5143 18.3516 35.5396L18.3079 35.5442C18.3447 35.4086 18.8777 34.3172 19.9117 32.263C20.3666 32.224 21.0835 32.0126 22.0601 31.6266L22.2991 31.6059C22.7931 31.5623 23.163 31.6587 23.4065 31.8885L23.4203 32.0378C23.2388 32.5641 23.0366 32.872 22.8183 32.9615ZM20.8377 31.8472L21.0008 31.8334L21.0031 31.8701L20.84 31.8839L20.8377 31.8472ZM23.1285 31.4588L23.248 31.4473C23.3583 31.5002 23.4157 31.5461 23.4203 31.5875L23.4226 31.6243C23.3169 31.6335 23.2181 31.5783 23.1285 31.4588ZM23.4525 29.6138C23.3468 29.7401 23.0573 29.9561 22.584 30.2594C22.4277 30.2732 21.8464 30.4984 20.84 30.9395C20.7897 30.9166 20.7343 30.9071 20.6792 30.912L20.6723 30.8407C20.6608 30.696 20.7251 30.5145 20.8676 30.2939C20.9457 29.8803 21.0307 29.6436 21.1249 29.5862L21.9636 27.6998C21.9544 27.5826 22.1336 27.493 22.5012 27.4309L22.6207 27.4194L22.6299 27.5275C22.9907 27.4723 23.2158 27.4402 23.3031 27.4332C23.9695 27.3758 24.3164 27.5114 24.344 27.8354L24.4198 27.8284L24.4037 27.6378L24.4865 27.6308C24.6818 27.7388 24.7875 27.8698 24.8013 28.0237C24.8104 28.1295 24.753 28.2604 24.6312 28.4167C24.5807 28.4212 24.5508 28.3845 24.5462 28.311L24.4635 28.3179L24.4451 28.5476C24.1073 29.0531 23.8615 29.3128 23.7099 29.3266C23.572 29.5172 23.487 29.6115 23.4525 29.6138ZM23.9672 30.935C23.8982 30.889 23.8431 30.8683 23.8018 30.8706L23.7926 30.758L23.8684 30.7511L24.0361 30.85C24.043 30.9028 24.02 30.9304 23.9672 30.935ZM24.5003 31.5668C24.5738 31.5967 24.6174 31.6288 24.6266 31.6587L24.5899 31.6679L24.5922 31.6702C24.5853 31.6702 24.5761 31.6725 24.5692 31.6748L24.514 31.7185L24.5003 31.5668ZM24.5508 31.8839L24.5439 31.854L24.6404 31.8311L24.6473 31.861L24.5508 31.8839ZM24.7829 32.1436C24.8817 32.1275 24.93 32.1206 25.1138 32.0792L25.1206 32.1091L24.7714 32.1895C24.776 32.1734 24.7806 32.1574 24.7829 32.1436ZM25.1229 32.2883C24.9759 32.3021 25.008 32.2837 24.7737 32.3366L24.7668 32.3067L25.0609 32.2125L25.2011 32.1803L25.2149 32.2355C25.1505 32.2492 25.1965 32.2492 25.1229 32.2883ZM25.4331 32.2148C25.3987 32.224 25.3711 32.2079 25.355 32.1689L25.4446 32.1481C25.4837 32.139 25.509 32.1551 25.5181 32.1941L25.4331 32.2148ZM26.2741 31.3095L26.2672 31.2796L26.412 31.2451L26.4258 31.3003L26.2741 31.3095ZM27.1725 36.8194C27.1817 36.778 27.184 36.7482 27.1794 36.7275L27.2116 36.7206C27.2506 36.7114 27.2736 36.7252 27.2828 36.762L27.2897 36.7918L27.1725 36.8194ZM27.8021 31.5461L27.7377 31.5347C27.6344 31.576 27.5471 31.6059 27.4758 31.622L27.416 31.6358C27.3816 31.645 27.354 31.6312 27.3402 31.5944L27.7607 31.4979L27.8986 31.4336L27.9446 31.4864C27.8779 31.5002 27.8297 31.5209 27.8021 31.5461ZM28.1261 31.4427L28.1191 31.4129C28.1399 31.4083 28.1674 31.3922 28.1973 31.3623L28.496 31.2934L28.5029 31.3233C28.3443 31.3623 28.2179 31.4014 28.1261 31.4427ZM28.172 30.8384C28.1514 30.843 28.1238 30.8614 28.0893 30.889C28.0847 30.8683 28.0434 30.8683 27.9652 30.8867C27.9514 30.8293 28.172 30.7489 28.6293 30.6431L28.6936 30.6293L28.7074 30.6845C28.3857 30.7787 28.2065 30.8316 28.172 30.8384ZM28.9762 29.9699C28.9441 30.3352 28.8154 30.542 28.5879 30.5949L28.581 30.5651L28.3788 30.6431L28.2892 30.6639C28.2432 30.6753 28.2019 30.673 28.1651 30.6615L28.1467 30.5811C28.1399 30.5513 28.4317 30.1468 29.0245 29.3702L29.0934 29.3817C29.1187 29.4874 29.0796 29.6827 28.9762 29.9699ZM30.3985 28.7521L30.3709 28.7544L30.3663 28.697L30.4858 28.6855L30.4881 28.7153C30.4674 28.72 30.4376 28.7314 30.3985 28.7521ZM29.8126 34.6366C29.7437 34.6044 29.6816 34.5906 29.6288 34.5952L29.6219 34.5079C29.6196 34.4781 29.6379 34.4573 29.677 34.4459C29.7161 34.4413 29.7391 34.4688 29.7437 34.5286C29.8425 34.4022 29.8976 34.3379 29.9091 34.3379L29.9711 34.3632C29.9481 34.5378 29.8953 34.6297 29.8126 34.6366ZM36.0945 28.0651C36.0647 28.0674 36.0072 27.9755 35.9176 27.7894L35.913 27.7319C35.9704 27.7273 36.0302 27.8169 36.09 28.0008L36.0945 28.0651ZM36.0118 27.4079L35.9842 27.4677L35.1341 27.1115C35.7016 27.13 35.9957 27.2288 36.0118 27.4079ZM32.4067 30.503L32.2872 30.5145L32.2826 30.457L32.4021 30.4455L32.4067 30.503ZM32.3079 28.6441L32.34 28.6418L32.347 28.7291C32.3171 28.7314 32.2803 28.7728 32.2367 28.8532L32.2321 28.7958C32.2849 28.7291 32.3102 28.6786 32.3079 28.6441ZM32.0574 29.2416L32.0667 29.3542L32.0345 29.3565L32.0253 29.2439L32.0574 29.2416ZM31.9219 29.4552L31.9816 29.4506C31.9747 29.5471 31.9495 29.5977 31.9058 29.6023L31.8736 29.6046C31.9081 29.5403 31.9242 29.4897 31.9219 29.4552ZM31.8254 29.7494L31.853 29.7471L31.8553 29.7769L31.8024 29.8688L31.7427 29.8734L31.7404 29.8435C31.8024 29.8389 31.83 29.8068 31.8254 29.7494ZM31.7289 30.0159L31.7082 30.1629L31.6806 30.1652L31.6692 30.0205L31.7289 30.0159ZM30.7477 32.803C30.7087 32.996 30.6673 33.0948 30.6237 33.0994L30.6214 33.0741C30.6145 32.9776 30.6559 32.8857 30.7477 32.803ZM30.5662 33.1913L30.5685 33.2166C30.5732 33.2579 30.5547 33.2809 30.5134 33.2832L30.5111 33.2534C30.5088 33.2235 30.5272 33.2028 30.5662 33.1913ZM30.5157 34.0001L30.6076 33.9932L30.6099 34.0231C30.5892 34.0254 30.5571 34.0369 30.5203 34.0576L30.4606 34.0621C30.4583 34.03 30.4766 34.0093 30.5157 34.0001ZM33.096 33.2028C32.5905 33.4533 32.2895 33.6233 32.1953 33.7106C31.6439 33.9036 31.3704 34.0231 31.3751 34.0713C30.8856 34.2667 30.5639 34.4068 30.4123 34.4964C30.3756 34.4987 30.3227 34.4849 30.2537 34.4528C30.2445 34.354 30.2905 34.2735 30.387 34.2138C30.4744 34.2069 30.5571 34.2184 30.6329 34.2506C30.7248 34.2046 30.8833 34.1541 31.1085 34.0966L31.1039 34.0392L30.9178 34.0553C30.9408 34.0231 31.1177 33.9404 31.4463 33.8071L31.5381 33.8002L31.5405 33.8255C31.3842 33.8393 31.2969 33.8853 31.2785 33.968C31.2808 34.0047 31.3038 34.0231 31.3429 34.0185C31.4578 33.9427 31.5129 33.899 31.5129 33.8853C31.7335 33.8462 32.3447 33.5245 33.3488 32.9225L33.3533 32.9799C33.3533 33.0029 33.2683 33.0764 33.096 33.2028ZM31.5566 33.7083C31.7059 33.6945 31.8323 33.6371 31.938 33.536C31.977 33.5337 32 33.5498 32.0023 33.5865C31.9334 33.5934 31.7978 33.6509 31.5933 33.7612L31.5612 33.7634L31.5566 33.7083ZM34.0427 31.7989L33.2776 32.4147C32.7054 32.7892 32.3952 32.9776 32.347 32.9822C31.4371 33.4831 30.8718 33.7428 30.6489 33.7612L30.6168 33.7634C30.6444 33.6601 31.0511 32.8306 31.8369 31.2727C32.1792 31.2429 32.7215 31.0797 33.4659 30.7856L33.6521 30.7695C34.0266 30.7374 34.3069 30.8109 34.4907 30.9878L34.5 31.1004C34.3598 31.4956 34.2081 31.7276 34.0427 31.7989ZM32.54 30.9533L32.6595 30.9419L32.6617 30.9717L32.5423 30.9832L32.54 30.9533ZM34.2793 30.6569L34.3713 30.6501C34.4563 30.6914 34.5 30.7281 34.5022 30.758L34.5045 30.7833C34.4241 30.7902 34.3483 30.7489 34.2793 30.6569ZM34.5206 29.2576C34.4402 29.3542 34.2219 29.5196 33.8658 29.7494C33.7463 29.7608 33.3051 29.9309 32.5423 30.2617C32.5055 30.2479 32.4641 30.2434 32.4205 30.2456L32.4159 30.1882C32.4067 30.0779 32.455 29.94 32.5607 29.7723C32.6204 29.4552 32.687 29.2783 32.756 29.2369L33.397 27.8032C33.3901 27.7181 33.5257 27.6492 33.8014 27.5964L33.8934 27.5895L33.9002 27.6768C34.1714 27.6331 34.3414 27.6079 34.4103 27.601C34.9158 27.5573 35.18 27.6584 35.2008 27.9066L35.2605 27.902L35.249 27.7641L35.3087 27.7595C35.4558 27.8399 35.5339 27.9364 35.5431 28.0513C35.55 28.134 35.5086 28.2351 35.4213 28.3523C35.3823 28.3569 35.3593 28.3294 35.3547 28.2696L35.2949 28.2742L35.2766 28.4465C35.0215 28.8349 34.8354 29.0347 34.7182 29.044C34.6148 29.1841 34.5505 29.2553 34.5206 29.2576ZM34.7894 30.2135L34.7826 30.1262L34.8423 30.1216L34.9709 30.1997C34.9733 30.2364 34.9549 30.2572 34.9158 30.2617C34.8607 30.2273 34.8193 30.2112 34.7894 30.2135ZM24.0935 35.7946L24.0338 35.8084L23.9833 35.8521C23.9925 35.8888 24.0155 35.9026 24.0545 35.8934C24.0935 35.8843 24.1096 35.8613 24.1005 35.8245L24.0935 35.7946ZM23.8661 35.342L23.873 35.3718C23.912 35.3627 23.9281 35.3397 23.919 35.3029L23.912 35.273C23.8753 35.2822 23.8592 35.3052 23.8661 35.342ZM25.4929 32.286L25.5366 32.2584C25.5273 32.2584 25.5205 32.2561 25.5135 32.2539C25.4975 32.2584 25.4906 32.2699 25.4929 32.286ZM25.4837 31.4933L25.5526 31.4772L25.5388 31.4175L25.4699 31.4336L25.4837 31.4933ZM41.7217 33.814L41.5654 33.7956L41.5378 33.8554L41.5401 33.8853L42.4707 33.8071L42.4661 33.7497L41.7217 33.814ZM42.5718 33.7428L42.5764 33.8002H42.5856L42.581 33.7428H42.5718ZM46.4756 33.2326L46.4802 33.2901L46.5813 33.3085L46.5767 33.2511L46.4756 33.2326ZM46.3332 33.2441C45.6347 33.4004 45.5474 33.3728 45.4003 33.3843L45.4049 33.4417L45.4692 33.4372L45.5037 33.4349L45.4945 33.428L45.5704 33.3981C46.262 33.3223 46.3424 33.3499 46.3355 33.2717L46.3332 33.2441ZM42.1399 32.2286L42.0778 32.2079C42.0273 32.3434 42.002 32.4239 42.0043 32.4469L42.0065 32.4721C42.0549 32.4698 42.0985 32.3871 42.1399 32.2286ZM41.2989 31.776L41.2966 31.7461L41.2644 31.7484L41.207 31.7851L41.2392 31.8402C41.2828 31.8357 41.3035 31.815 41.2989 31.776ZM43.1256 33.6646L43.121 33.6072L43.1026 33.6095L43.1072 33.6669L43.1256 33.6646ZM46.9168 32.8099L46.9604 32.8053C46.9857 32.803 46.9972 32.7823 46.9949 32.7456L46.9696 32.6904C46.8111 32.7042 46.7376 32.7111 46.6089 32.7823L46.6066 32.7524L46.4159 32.7708C46.4113 32.7134 46.3952 32.6835 46.3699 32.6858L46.2711 32.695C46.1562 32.7042 46.1011 32.6996 46.0436 32.7433C46.0414 32.7226 46.0345 32.7134 46.023 32.7134L45.9127 32.7226L45.8483 32.7594C45.846 32.7386 45.8392 32.7295 45.8277 32.7295L45.7886 32.7639L45.7863 32.7341L45.6324 32.7226L45.5956 32.7249L45.6002 32.7823L45.6783 32.803L45.7519 32.7984C45.7771 32.8145 45.8047 32.8191 45.8369 32.8168L45.9012 32.7846L45.9035 32.8099C45.5428 32.8995 45.5451 32.8834 45.2969 32.9248C45.2693 32.9064 45.2487 32.8972 45.2349 32.8995L45.2303 32.9041C45.2027 32.9018 45.1866 32.8834 45.1843 32.8535L45.313 32.8374C45.3222 32.8374 45.3291 32.8467 45.4003 32.8605C45.5037 32.8099 45.5083 32.7892 45.5634 32.7846L45.5589 32.7272C45.205 32.7961 45.3475 32.7501 44.904 32.7892L44.8833 32.7915L44.8787 32.7341C45.4486 32.6651 45.2578 32.7042 45.4531 32.6491C45.4554 32.6697 45.4624 32.6789 45.4739 32.6789C45.4948 32.6575 45.5223 32.6438 45.5519 32.6398L45.591 32.6376C45.7909 32.6215 45.8576 32.6606 46.2528 32.5503L46.255 32.5755L46.3194 32.5433L46.3791 32.5388C46.3746 32.4813 46.4619 32.4721 46.4917 32.4698L46.4872 32.4078C45.7932 32.548 45.6117 32.5089 45.4187 32.5641L45.4164 32.5388C45.2349 32.5709 45.228 32.5571 45.182 32.5594C45.1682 32.5618 45.1476 32.5732 45.1246 32.5962C45.1223 32.5755 45.1154 32.5663 45.1016 32.5663C45.0947 32.5663 45.0924 32.5686 45.0901 32.5686L44.5019 32.6651C44.4996 32.6491 44.4927 32.6398 44.4789 32.6421C44.1733 32.7065 44.256 32.718 43.847 32.7547C43.8287 32.7571 43.8034 32.7662 43.7713 32.7869C43.7689 32.7708 43.7597 32.7617 43.7391 32.7639L43.4886 32.7846L43.3209 32.826C43.3186 32.8099 43.3094 32.8007 43.2887 32.803C43.1945 32.8283 43.1118 32.8444 43.0451 32.8489H43.0406C42.9992 32.8535 43.0612 32.8374 43.0291 32.8237L42.9785 32.8535C42.905 32.8605 42.9441 32.8489 42.6913 32.8512C42.2478 32.9064 42.2961 32.9133 42.2478 32.9156L42.0824 32.9041C42.0847 32.9202 42.0755 32.9317 42.0571 32.9317C41.8687 32.9064 41.7722 32.8765 41.7699 32.8421C41.7952 32.6629 41.8388 32.5709 41.9009 32.5663L41.9331 32.5641L41.9055 32.6238L41.9376 32.6215C41.9974 32.5893 42.025 32.5594 42.0227 32.5319L42.0181 32.4698L41.9583 32.4744L41.9537 32.417C41.9491 32.3733 41.9561 32.3343 41.9721 32.3021L42.1077 32.0838L42.1123 32.1413L42.1766 32.1367L42.172 32.0792L42.1352 32.0264C42.1835 31.985 42.2203 31.962 42.2502 31.9597L42.2478 31.9299L42.1605 31.9367L42.1537 31.8494C42.3283 31.4864 42.411 31.275 42.4064 31.2153L42.4684 31.2406C42.5075 31.2383 42.5258 31.2153 42.5236 31.1739L42.4638 31.1785L42.4616 31.1532C42.4573 31.1113 42.4653 31.069 42.4845 31.0315C42.5787 30.9327 42.6224 30.8339 42.6132 30.7305C42.6316 30.7281 42.6407 30.7374 42.6431 30.758C42.7235 30.7121 42.7855 30.5903 42.8315 30.3881C42.9739 30.1308 43.1761 29.616 43.4403 28.8463C43.9459 27.4861 43.9252 27.3413 43.9964 27.0197L43.9367 27.0242C43.9413 27.0656 43.9321 27.1047 43.9137 27.1414C43.8723 27.1253 43.8402 27.1162 43.8172 27.1185L43.8149 27.0932C43.8057 26.976 43.854 26.8359 43.9642 26.6704L43.9918 26.6681L44.0424 26.8657L44.1021 26.8611C44.0998 26.8473 44.1159 26.7692 44.1481 26.6245C44.1457 26.5946 44.1228 26.5762 44.0768 26.5739L44.0194 26.6107C44.0148 26.5693 44.0171 26.4613 44.024 26.289L43.9941 26.2913C43.9436 26.2407 43.9183 26.1994 43.916 26.1649L43.5874 26.197C43.5851 26.1741 43.5737 26.1396 43.5506 26.0959C43.5484 26.0661 43.6219 26.0362 43.7735 26.0064L43.8402 26.0316L43.9022 25.9949C43.9045 26.0155 43.916 26.0247 43.939 26.0224L44.001 25.9856C44.0033 26.0064 44.0148 26.0155 44.0378 26.0132L44.0677 26.0109L44.063 25.9443C44.0171 25.9489 43.8953 25.9489 43.7023 25.942L43.6402 25.9834L43.6379 25.9466C42.0962 26.073 41.2208 26.1442 41.0117 26.1649C40.9841 26.1672 40.8761 26.1649 40.6854 26.1603C40.6877 26.1856 40.6647 26.1994 40.6188 26.204L40.5521 26.1741L40.327 26.2316C40.2741 26.2361 40.1845 26.2338 40.0604 26.22C40.026 26.2476 39.9846 26.2637 39.934 26.2683C39.9065 26.2706 40.2626 26.2499 40.5935 26.2269C40.559 26.2545 40.5062 26.2706 40.4326 26.2775C40.3821 26.2821 40.3385 26.2752 40.3017 26.2545C40.2511 26.2775 40.088 26.3143 39.8146 26.3694L39.748 26.3441L38.6726 26.5096C38.6312 26.4889 38.583 26.482 38.5278 26.4866C38.4704 26.4911 38.3739 26.5119 38.2406 26.5486L37.7214 26.7646L37.7604 26.8289C37.7856 26.8266 37.8224 26.8128 37.8661 26.7875L38.0499 26.8036L38.0269 26.976C37.8569 27.0518 37.7581 27.1644 37.7305 27.3068C37.4755 27.4194 37.3491 27.4999 37.3491 27.5481L37.3514 27.578L37.3904 27.5757L37.4594 27.539L37.5398 27.6354L37.5513 27.7687C37.5559 27.8101 37.1262 28.713 36.2669 30.4777C35.5224 32.178 35.1318 33.1086 35.095 33.2763C34.84 33.3476 34.6929 33.451 34.6493 33.5888C34.6539 33.6325 34.7297 33.6624 34.8768 33.6739L34.8836 33.7405L34.817 33.8507L34.8285 33.9841C34.8354 34.053 35.0215 34.1058 35.3869 34.1426C35.3846 34.1196 35.396 34.1058 35.4213 34.1035C35.4282 34.1862 35.4052 34.3471 35.3524 34.586L35.3914 34.5837C35.5431 34.377 35.6143 34.2345 35.6074 34.1564L35.6396 34.1541C35.6764 34.1518 35.7154 34.1931 35.7614 34.2827C35.7154 34.3011 35.5546 34.6664 35.2788 35.381L35.3179 35.4454L35.357 35.4431C35.6948 34.5884 35.9062 34.115 35.9934 34.0254C36.4369 33.9863 37.2043 33.9082 38.2935 33.791L38.3624 33.7496C38.3647 33.7727 38.3785 33.7841 38.4037 33.7818L38.475 33.7749L38.5439 33.7336C38.5462 33.7566 38.56 33.768 38.5853 33.7657L39.4102 33.6945C39.6284 33.6761 39.7319 33.6095 39.7226 33.4969C39.7204 33.467 39.849 33.4326 40.1087 33.3958C40.1339 33.3935 40.1707 33.4004 40.2212 33.4165C40.2189 33.3958 40.3499 33.3751 40.6119 33.3522C40.6188 33.2143 40.6624 33.1408 40.7405 33.1338L40.7337 33.0673C40.6601 33.0741 40.5774 33.0925 40.4809 33.1247C40.3086 33.1155 40.1983 33.1017 40.1523 33.0856C40.1063 33.1109 40.0719 33.1247 40.0466 33.127L39.4722 33.1453L39.4032 33.1821C39.4009 33.1614 39.3872 33.1523 39.3619 33.1546L39.3297 33.1568L39.2562 33.1936C39.2539 33.1729 39.1942 33.1568 39.0747 33.1408L39.0012 33.1844L38.8587 33.1959L38.8564 33.1591C39.5963 33.0787 39.9616 32.9776 39.9524 32.8582C40.0007 32.8535 40.026 32.8765 40.0305 32.9248L40.2465 32.8696L40.2397 32.803L38.4681 32.8512C38.4704 32.8742 38.4589 32.888 38.4336 32.8903L38.2176 32.872C38.1625 32.8765 38.1166 32.8926 38.0798 32.9202L37.9994 32.8903C37.7765 32.9087 37.611 32.9362 37.5007 32.9708C37.3491 32.9593 37.1814 32.9615 36.9952 32.9776L36.5978 33.0121L36.414 32.9914C36.4047 32.8742 36.6322 32.2975 37.101 31.2635C37.2365 30.9143 37.3606 30.696 37.4801 30.6133C37.5053 30.611 37.5421 30.6202 37.5927 30.6408L37.8753 30.5443L38.02 30.5673C38.2636 30.5466 38.5462 30.4777 38.8702 30.3582C38.9506 30.3513 39.0103 30.356 39.054 30.3743L39.27 30.3238L39.9134 30.2686C40.1868 30.2456 40.4832 30.1859 40.8049 30.0871L40.798 30.0205C40.6785 30.032 40.6165 30.0113 40.6119 29.963C40.605 29.8734 40.5177 29.8366 40.3499 29.8504L40.343 29.7838L40.52 29.7333L40.9841 29.6942L40.9772 29.6276C40.9588 29.6298 40.8646 29.6276 40.69 29.6207L40.6831 29.5494L40.8623 29.5333C40.9106 29.5288 40.9313 29.5058 40.9267 29.4598C40.6854 29.4667 40.5636 29.4552 40.5613 29.4231C38.8794 29.5058 38.0361 29.5219 38.0316 29.469C38.0063 29.4713 37.9718 29.4874 37.9258 29.515L37.8822 29.446C38.3279 28.4994 38.5899 28.0214 38.6657 28.0146C38.668 28.0513 38.6496 28.111 38.6105 28.1915L38.6128 28.2213L38.6841 28.2145C38.861 27.7917 39.0103 27.5734 39.1344 27.5642C39.6629 27.5182 39.0609 27.4838 40.1914 27.3068C40.2374 27.3276 40.2695 27.3367 40.2925 27.3344C40.7359 27.2448 41.354 27.1506 42.1467 27.0541L42.1421 26.9875L41.7194 27.0265L41.7148 26.9599C41.7653 26.9553 41.8067 26.9392 41.8412 26.9116L41.8435 26.9484C41.8664 26.9461 41.8986 26.93 41.94 26.9025C42.0135 26.8956 42.0686 26.9025 42.1077 26.9231C42.2547 26.8841 42.3742 26.8611 42.4616 26.8519L42.7258 26.8266C42.7901 26.7853 42.82 26.7485 42.8177 26.714L42.8154 26.6842C42.7487 26.6911 42.6729 26.6865 42.5833 26.6704C42.581 26.6336 42.5994 26.6084 42.6431 26.5969L43.1348 26.5509L43.3599 26.4934C43.3623 26.5187 43.3737 26.5279 43.3921 26.5279C43.4151 26.5257 43.4473 26.5096 43.4886 26.482C43.5001 26.4843 43.5139 26.4843 43.5253 26.4866C43.4955 26.5486 43.4611 26.6382 43.4265 26.7554L43.3623 26.76C43.3576 26.7163 43.3462 26.6773 43.3255 26.6428L43.2933 26.6451C42.6959 28.3086 42.4293 29.083 41.8779 30.3605C41.7768 30.6868 41.6918 30.8683 41.6183 30.9074C41.6206 30.9442 41.6435 30.9625 41.6826 30.958C41.6964 31.1188 41.6597 31.2773 41.57 31.4336C41.3149 32.1689 41.1449 32.5709 41.0576 32.6445L41.1151 32.9914C41.1173 33.0282 41.099 33.0488 41.0599 33.0535L41.0002 33.0581C40.991 32.9615 40.9565 32.9156 40.8945 32.9225L40.8623 32.9248C40.7842 33.0465 40.7244 33.1867 40.6854 33.3499L40.7452 33.3452C40.8255 33.2924 40.8623 33.2304 40.8554 33.1591L40.9749 33.1476L41.0438 33.1729C40.9887 33.2602 40.9634 33.3292 40.968 33.382L41.0002 33.4372L40.922 33.621L40.9243 33.6509C40.9933 33.644 41.0691 33.6669 41.1495 33.7152C41.2047 33.7106 41.2644 33.6853 41.331 33.6417C41.4 33.6348 41.6573 33.6325 42.1008 33.6325L42.3237 33.5566C42.5948 33.5543 42.6384 33.5613 42.8728 33.5405L42.9693 33.5314L43.0198 33.4969L43.0222 33.5268C43.268 33.5061 43.2841 33.5222 43.4771 33.5452L43.4794 33.5751L43.3438 33.5865L43.3485 33.644C43.3898 33.6393 43.4265 33.6279 43.4564 33.6026C43.4909 33.6003 43.5116 33.6187 43.5139 33.6601C43.4587 33.6646 43.3967 33.6784 43.3277 33.7014L43.268 33.6807C43.1738 33.706 43.1945 33.7129 43.1301 33.7175L43.036 33.6991C43.0383 33.7152 43.0291 33.7267 43.013 33.7267C43.0153 33.7634 43.036 33.7818 43.0704 33.7795L43.1669 33.7703L43.6701 33.7267L43.8608 33.6853C43.8631 33.7014 43.87 33.7106 43.8861 33.7083L43.978 33.6739L44.1504 33.6601C44.2836 33.6486 44.2813 33.6393 44.5708 33.5934C44.5685 33.5751 44.5754 33.5681 44.5892 33.5658L44.5915 33.5911C45.0625 33.5107 45.0924 33.5061 45.1682 33.4808L45.1751 33.4946C45.2923 33.467 45.2257 33.4739 45.2578 33.451C45.2602 33.4716 45.267 33.4808 45.2785 33.4808L45.3613 33.4739L45.3566 33.4119L45.1889 33.4096L45.1866 33.405C45.1797 33.4073 45.1751 33.4073 45.1682 33.4096H45.1453V33.4142C45.0327 33.4372 45.0303 33.4211 44.9568 33.428L44.5363 33.451L44.5341 33.4211L44.7685 33.3889L44.8535 33.382L44.9017 33.3476L44.904 33.3774C45.2349 33.3499 45.352 33.4326 46.8823 33.1063C46.9651 33.0994 46.9581 33.0305 47.011 32.888C46.983 32.8899 46.955 32.8835 46.9306 32.8696C46.8042 32.9179 46.7376 32.8949 46.494 32.934C46.4734 32.9363 46.4573 32.9179 46.4503 32.8811L46.448 32.8559L46.6824 32.8627C46.7261 32.8582 46.8111 32.8512 46.9375 32.78C46.9375 32.8007 46.8892 32.8122 46.9168 32.8099H46.9168ZM35.6028 32.9914L35.4949 33.0006C35.4902 32.957 35.5477 32.7915 35.6672 32.5089L35.7384 32.502C35.7407 32.5686 35.697 32.7318 35.6028 32.9914ZM35.7338 32.4675L35.7315 32.4377C35.7292 32.4009 35.7522 32.3756 35.8027 32.3642L35.805 32.394C35.8074 32.4377 35.7843 32.463 35.7338 32.4675ZM37.1699 33.5773L37.1722 33.6072L36.993 33.6233L36.9907 33.5934L37.1699 33.5773ZM36.9539 33.559C36.9562 33.5957 36.901 33.6371 36.7816 33.6784L36.561 33.6624L36.4897 33.6692L36.4829 33.6026L36.9539 33.559ZM38.406 26.8749L38.2981 26.8841L38.2958 26.8473C38.2935 26.8106 38.3142 26.7853 38.3601 26.7738L38.3992 26.7715L38.4727 26.8013C38.475 26.845 38.4543 26.8703 38.406 26.8749ZM40.0489 26.5532L40.0834 26.5509L40.088 26.6175L39.9892 26.6267C39.9869 26.5899 40.0052 26.5647 40.0489 26.5532ZM39.6353 26.698L39.4722 26.6796L39.4699 26.6497C39.6836 26.6313 39.7548 26.6084 39.8858 26.5716C39.8881 26.5969 39.911 26.606 39.9524 26.6015L39.957 26.6681L39.8927 26.675C39.8421 26.6796 39.7985 26.6727 39.7617 26.652C39.7226 26.6773 39.6813 26.6934 39.6353 26.698ZM39.8398 27.2931L39.8375 27.2632L40.1018 27.2379L40.1041 27.2678L39.8398 27.2931ZM40.1224 27.0633L40.1201 27.0265L40.2488 27.015L40.2511 27.0518L40.1224 27.0633ZM40.1523 26.613L40.1178 26.6152L40.1477 26.544L40.4418 26.5164L40.4441 26.5532C40.3683 26.5601 40.2695 26.5808 40.1523 26.613ZM40.3017 27.2471L40.2971 27.1805L40.4258 27.169C40.4694 27.1644 40.4924 27.1851 40.4947 27.2311L40.3017 27.2471ZM41.0806 26.1856L40.9152 26.2316L40.8853 26.2338C40.8072 26.2407 40.7061 26.2384 40.5866 26.2269C40.8003 26.2131 41.0048 26.197 41.0806 26.1856ZM40.9037 26.9209L40.906 26.9507L40.6785 26.9714L40.6762 26.9415L40.9037 26.9209ZM41.2759 27.0977C41.2736 27.0702 41.2299 27.0518 41.1404 27.0426L40.9129 27.107L40.7382 27.1138C40.6992 27.0863 40.6785 27.0679 40.6762 27.0541L40.8784 27.0656L41.3333 26.9921L41.5654 27.0013L41.5677 27.038C41.4528 27.0495 41.3563 27.0702 41.2759 27.0977ZM43.6173 26.4934C43.6449 26.4958 43.6632 26.4958 43.6701 26.4958C43.7505 26.4176 43.8402 26.3556 43.9436 26.3119C43.8608 26.675 43.7322 26.9438 43.5552 27.1185L43.4265 27.0403C43.5346 26.7669 43.5989 26.5854 43.6173 26.4934ZM43.2221 27.1713L43.2542 27.169C43.2106 27.2517 43.1715 27.2953 43.1394 27.2977L43.1324 27.2103C43.1532 27.2103 43.183 27.1965 43.2221 27.1713ZM42.967 27.7802C43.0291 27.532 43.0888 27.3919 43.1439 27.3551L43.1462 27.385C43.1141 27.6147 43.0635 27.7366 42.9969 27.7457L43.0084 27.8905C42.9533 27.9686 42.928 28.0283 42.9302 28.0743L42.8981 28.0766L42.8797 27.8767C42.9165 27.8721 42.9463 27.8399 42.967 27.7802ZM42.8682 28.111C42.8705 28.1455 42.8475 28.2259 42.8016 28.35L42.7694 28.3523L42.7625 28.265C42.8062 28.1639 42.843 28.1134 42.8682 28.111H42.8682ZM41.014 33.4923L41.0117 33.467L41.0714 33.4625L41.0783 33.5498C41.0461 33.5521 41.0231 33.5337 41.014 33.4923ZM43.6632 33.5613C43.6609 33.5405 43.6517 33.5314 43.6311 33.5337L43.4817 33.5475L43.4794 33.5176H43.4932L43.847 33.4877L43.8493 33.5176C43.746 33.5222 43.6839 33.5383 43.6632 33.5613ZM43.4863 33.4877C43.5001 33.4946 43.4932 33.5015 43.4863 33.5061C43.4794 33.5038 43.4702 33.4969 43.4863 33.4877ZM43.5047 33.0741L43.3071 33.0902L43.3048 33.0603L43.484 33.0443L43.6402 33.0052C43.6426 33.0236 43.6517 33.0305 43.6725 33.0282C43.8586 32.996 43.8402 32.9868 43.9298 32.9799C43.9596 32.9776 43.978 32.996 43.9803 33.0328L43.5047 33.0741ZM44.1963 33.0144C44.086 33.0029 44.0791 32.9937 44.001 33.0006L43.9987 32.9753L44.1756 32.9593L44.1779 32.9846C44.1595 32.9868 44.2262 32.9914 44.1963 33.0144ZM44.2101 32.9822L44.2078 32.957L44.3043 32.9477L44.3066 32.973L44.2101 32.9822ZM44.4238 32.9638L44.4215 32.9386C44.4376 32.9363 44.4606 32.9248 44.4904 32.9018C44.5386 32.8972 44.5639 32.9294 44.5685 32.9661L44.4238 32.9638ZM44.6972 32.9294L44.6949 32.8995L44.8121 32.8903L44.8144 32.9202L44.6972 32.9294ZM44.8603 32.9156C44.8581 32.8811 44.8718 32.8605 44.9017 32.8559L44.9408 32.9064C44.9385 32.8903 44.9453 32.8811 44.9591 32.8788L44.989 32.934L44.8603 32.9156ZM47.1213 32.6491L47.1236 32.6468V32.6445C47.1236 32.6445 47.1213 32.6468 47.1213 32.6491ZM47.1627 32.6192C47.181 32.6077 47.1903 32.5962 47.1466 32.5893C47.1259 32.6123 47.1695 32.6192 47.1236 32.6215L47.1259 32.6421C47.1305 32.6376 47.142 32.6307 47.1512 32.6238L47.1259 32.6445V32.6468L47.0777 32.7088L47.1742 32.6744H47.1856L47.181 32.6169L47.1627 32.6192ZM47.3304 32.7502L47.312 32.7524L47.3166 32.8099L47.4522 32.7984C47.4499 32.7617 47.3603 32.7502 47.3304 32.7502Z" fill="#F9DC3E"/>
</g>
<defs>
<filter id="filter0_d_193_4676" x="0" y="0" width="64" height="64" filterUnits="userSpaceOnUse" color-interpolation-filters="sRGB">
<feFlood flood-opacity="0" result="BackgroundImageFix"/>
<feColorMatrix in="SourceAlpha" type="matrix" values="0 0 0 0 0 0 0 0 0 0 0 0 0 0 0 0 0 0 127 0" result="hardAlpha"/>
<feOffset/>
<feGaussianBlur stdDeviation="2"/>
<feComposite in2="hardAlpha" operator="out"/>
<feColorMatrix type="matrix" values="0 0 0 0 0 0 0 0 0 0 0 0 0 0 0 0 0 0 0.1 0"/>
<feBlend mode="normal" in2="BackgroundImageFix" result="effect1_dropShadow_193_4676"/>
<feBlend mode="normal" in="SourceGraphic" in2="effect1_dropShadow_193_4676" result="shape"/>
</filter>
</defs>
</svg>
