<svg width="65" height="64" viewBox="0 0 65 64" fill="none" xmlns="http://www.w3.org/2000/svg">
<g filter="url(#filter0_d_193_184)">
<rect x="4.25146" y="4" width="56.3129" height="56" rx="16" fill="white" shape-rendering="crispEdges"/>
<path d="M17.7807 18.0123C17.6344 18.0104 17.4894 18.0404 17.356 18.1002C17.2226 18.1599 17.104 18.248 17.0085 18.3582C16.913 18.4684 16.8429 18.5981 16.8031 18.7381C16.7633 18.8781 16.7549 19.0251 16.7783 19.1687L21.0334 44.8563C21.0864 45.1707 21.2491 45.4564 21.4929 45.6633C21.7368 45.8702 22.0461 45.9851 22.3666 45.9877H42.7799C43.0202 45.9908 43.2535 45.9079 43.4375 45.7542C43.6214 45.6005 43.7437 45.3863 43.7821 45.1504L48.0374 19.1737C48.0608 19.0301 48.0523 18.8831 48.0125 18.7431C47.9727 18.6031 47.9026 18.4735 47.8071 18.3633C47.7116 18.2531 47.5929 18.1651 47.4595 18.1053C47.3261 18.0456 47.1812 18.0156 47.0349 18.0175L17.7807 18.0123ZM35.6981 36.5778H29.1826L27.4185 27.4122H37.2769L35.6981 36.5778Z" fill="#2684FF"/>
<path d="M46.6582 27.3993H37.2586L35.6811 36.5576H29.1709L21.4839 45.6312C21.7275 45.8407 22.0382 45.9571 22.3602 45.9598H42.7623C43.0024 45.9629 43.2356 45.8801 43.4194 45.7265C43.6032 45.573 43.7255 45.3589 43.7639 45.1232L46.6582 27.3993Z" fill="url(#paint0_linear_193_184)"/>
</g>
<defs>
<filter id="filter0_d_193_184" x="0.251465" y="0" width="64.3129" height="64" filterUnits="userSpaceOnUse" color-interpolation-filters="sRGB">
<feFlood flood-opacity="0" result="BackgroundImageFix"/>
<feColorMatrix in="SourceAlpha" type="matrix" values="0 0 0 0 0 0 0 0 0 0 0 0 0 0 0 0 0 0 127 0" result="hardAlpha"/>
<feOffset/>
<feGaussianBlur stdDeviation="2"/>
<feComposite in2="hardAlpha" operator="out"/>
<feColorMatrix type="matrix" values="0 0 0 0 0 0 0 0 0 0 0 0 0 0 0 0 0 0 0.1 0"/>
<feBlend mode="normal" in2="BackgroundImageFix" result="effect1_dropShadow_193_184"/>
<feBlend mode="normal" in="SourceGraphic" in2="effect1_dropShadow_193_184" result="shape"/>
</filter>
<linearGradient id="paint0_linear_193_184" x1="48.8315" y1="29.964" x2="38.0542" y2="45.3521" gradientUnits="userSpaceOnUse">
<stop offset="0.18" stop-color="#0052CC"/>
<stop offset="1" stop-color="#2684FF"/>
</linearGradient>
</defs>
</svg>
