<svg width="66" height="64" viewBox="0 0 66 64" fill="none" xmlns="http://www.w3.org/2000/svg">
<g filter="url(#filter0_d_193_5118)">
<rect x="4.9386" y="4" width="56.3129" height="56" rx="16" fill="white" shape-rendering="crispEdges"/>
<path d="M17.4525 43.5441C17.4525 45.7598 19.2586 47.5556 21.4864 47.5556H44.7034C46.9316 47.5556 48.7374 45.7595 48.7374 43.5441V20.4561C48.7374 18.2403 46.9313 16.4445 44.7035 16.4445H21.4866C19.2584 16.4445 17.4525 18.2405 17.4525 20.456V43.5439V43.5441Z" fill="#563D7C"/>
<path d="M30.4258 30.2061V25.8003H34.3255C34.6971 25.8003 35.0551 25.8311 35.4 25.8927C35.7449 25.9542 36.05 26.064 36.3153 26.2224C36.5805 26.3807 36.7928 26.6006 36.952 26.8819C37.1111 27.1634 37.1908 27.524 37.1908 27.9635C37.1908 28.755 36.952 29.3267 36.4744 29.6784C35.997 30.0302 35.3868 30.2061 34.6439 30.2061H30.4258ZM26.2606 22.5817V41.4185H35.4398C36.2888 41.4185 37.1157 41.313 37.9204 41.1019C38.7251 40.8908 39.4414 40.5655 40.0693 40.1258C40.6971 39.6861 41.1968 39.1188 41.5681 38.4241C41.9397 37.7294 42.1253 36.9071 42.1253 35.9574C42.1253 34.7789 41.8379 33.7721 41.2631 32.9367C40.6883 32.1012 39.8172 31.5164 38.6498 31.1822C39.4988 30.7777 40.14 30.2588 40.5734 29.6257C41.0066 28.9925 41.2233 28.2011 41.2233 27.2512C41.2233 26.3719 41.0774 25.6332 40.7855 25.0352C40.4937 24.4373 40.0825 23.958 39.5519 23.5974C39.0214 23.2368 38.3847 22.9774 37.6418 22.8191C36.899 22.6608 36.0765 22.5817 35.1745 22.5817H26.2606ZM30.4258 38.1998V33.0289H34.9622C35.8643 33.0289 36.5894 33.2355 37.1378 33.649C37.686 34.0623 37.9602 34.7525 37.9602 35.7199C37.9602 36.2125 37.8762 36.6169 37.7081 36.9335C37.5401 37.2501 37.3146 37.5008 37.0316 37.6854C36.7487 37.8701 36.4214 38.002 36.05 38.0812C35.6785 38.1602 35.2895 38.1998 34.8827 38.1998H30.4258Z" fill="white"/>
</g>
<defs>
<filter id="filter0_d_193_5118" x="0.938599" y="0" width="64.3129" height="64" filterUnits="userSpaceOnUse" color-interpolation-filters="sRGB">
<feFlood flood-opacity="0" result="BackgroundImageFix"/>
<feColorMatrix in="SourceAlpha" type="matrix" values="0 0 0 0 0 0 0 0 0 0 0 0 0 0 0 0 0 0 127 0" result="hardAlpha"/>
<feOffset/>
<feGaussianBlur stdDeviation="2"/>
<feComposite in2="hardAlpha" operator="out"/>
<feColorMatrix type="matrix" values="0 0 0 0 0 0 0 0 0 0 0 0 0 0 0 0 0 0 0.1 0"/>
<feBlend mode="normal" in2="BackgroundImageFix" result="effect1_dropShadow_193_5118"/>
<feBlend mode="normal" in="SourceGraphic" in2="effect1_dropShadow_193_5118" result="shape"/>
</filter>
</defs>
</svg>
