<svg width="66" height="64" viewBox="0 0 66 64" fill="none" xmlns="http://www.w3.org/2000/svg">
<g filter="url(#filter0_d_193_4168)">
<rect x="4.8772" y="4" width="56.3129" height="56" rx="16" fill="white" shape-rendering="crispEdges"/>
<path d="M18.6946 18.1295H47.3725V45.8704H18.6946V18.1295Z" fill="url(#paint0_radial_193_4168)"/>
<path d="M18.6946 18.1295H47.3726V45.8703H18.6946V18.1295ZM17.3911 47.1667H48.6761V16.8333H17.3911V47.1667ZM35.7059 29.6018C35.7059 29.4462 35.7059 29.0703 35.6407 28.3443C35.6407 28.2407 35.6668 28.2147 35.745 28.1758C36.5401 27.8518 38.4303 27.2814 40.542 27.2814C40.6463 27.2814 40.6984 27.3073 40.6984 27.411V29.2777C40.6984 29.3814 40.6593 29.4073 40.542 29.4073C39.7208 29.3684 38.5085 29.4721 38.0522 29.6665V37.8462C38.0522 37.9499 38.0131 38.0018 37.8958 38.0018H35.8492C35.745 38.0018 35.6928 37.9629 35.6928 37.8462V29.6017H35.7059V29.6018ZM26.0597 38.0018C25.9032 38.0018 25.8641 37.937 25.8641 37.8074V23.8721C25.8641 23.7685 25.9032 23.7036 26.0206 23.7036H28.0801C28.1844 23.7036 28.2105 23.7425 28.2105 23.8592V35.8629H33.581C33.6853 35.8629 33.7244 35.9018 33.6983 36.0185L33.3725 37.8592C33.3464 37.9629 33.2812 38.0148 33.1769 38.0148H26.0597V38.0018Z" fill="#AAD1EB"/>
</g>
<defs>
<filter id="filter0_d_193_4168" x="0.877197" y="0" width="64.3129" height="64" filterUnits="userSpaceOnUse" color-interpolation-filters="sRGB">
<feFlood flood-opacity="0" result="BackgroundImageFix"/>
<feColorMatrix in="SourceAlpha" type="matrix" values="0 0 0 0 0 0 0 0 0 0 0 0 0 0 0 0 0 0 127 0" result="hardAlpha"/>
<feOffset/>
<feGaussianBlur stdDeviation="2"/>
<feComposite in2="hardAlpha" operator="out"/>
<feColorMatrix type="matrix" values="0 0 0 0 0 0 0 0 0 0 0 0 0 0 0 0 0 0 0.1 0"/>
<feBlend mode="normal" in2="BackgroundImageFix" result="effect1_dropShadow_193_4168"/>
<feBlend mode="normal" in="SourceGraphic" in2="effect1_dropShadow_193_4168" result="shape"/>
</filter>
<radialGradient id="paint0_radial_193_4168" cx="0" cy="0" r="1" gradientUnits="userSpaceOnUse" gradientTransform="translate(28.1397 24.3463) scale(21.7952 20.9845)">
<stop stop-color="#39464D" stop-opacity="0.98"/>
<stop offset="1" stop-color="#05151F"/>
</radialGradient>
</defs>
</svg>
