<svg width="66" height="64" viewBox="0 0 66 64" fill="none" xmlns="http://www.w3.org/2000/svg">
<g filter="url(#filter0_d_193_4164)">
<rect x="4.8772" y="4" width="56.3129" height="56" rx="16" fill="white" shape-rendering="crispEdges"/>
<path fill-rule="evenodd" clip-rule="evenodd" d="M23.8891 19.6083C22.104 19.6083 20.7831 21.1621 20.8423 22.8471C20.8991 24.4659 20.8253 26.5625 20.2946 28.2722C19.7619 29.9868 18.8617 31.0733 17.3911 31.2128V32.7873C18.8617 32.9271 19.7619 34.013 20.2945 35.7278C20.8253 37.4376 20.899 39.5342 20.8422 41.153C20.7831 42.8378 22.104 44.3917 23.8893 44.3917H42.1804C43.9655 44.3917 45.2861 42.838 45.227 41.153C45.1702 39.5342 45.244 37.4376 45.7747 35.7278C46.3074 34.013 47.2053 32.9266 48.676 32.7873V31.2128C47.2054 31.073 46.3074 29.9871 45.7747 28.2722C45.2439 26.5627 45.1702 24.4659 45.227 22.8471C45.2861 21.1623 43.9655 19.6083 42.1804 19.6083H23.8888H23.8891ZM38.6012 34.8641C38.6012 37.1843 36.861 38.5914 33.9729 38.5914H29.0567C28.916 38.5914 28.7812 38.5358 28.6817 38.437C28.5823 38.3381 28.5264 38.2039 28.5264 38.0641V25.936C28.5264 25.7962 28.5823 25.6621 28.6817 25.5632C28.7812 25.4643 28.916 25.4087 29.0567 25.4087H33.9449C36.3531 25.4087 37.9335 26.7059 37.9335 28.6975C37.9335 30.0954 36.8703 31.3468 35.5158 31.5661V31.639C37.3597 31.8401 38.6012 33.1101 38.6012 34.8641ZM33.4369 27.0803H30.6337V31.0178H32.9946C34.8198 31.0178 35.8262 30.2869 35.8262 28.9806C35.826 27.7563 34.9608 27.0803 33.4369 27.0803ZM30.6337 32.5801V36.9193H33.54C35.4403 36.9193 36.4469 36.161 36.4469 34.736C36.4469 33.311 35.4121 32.5798 33.4178 32.5798H30.6337V32.5801Z" fill="#7952B3"/>
</g>
<defs>
<filter id="filter0_d_193_4164" x="0.877197" y="0" width="64.3129" height="64" filterUnits="userSpaceOnUse" color-interpolation-filters="sRGB">
<feFlood flood-opacity="0" result="BackgroundImageFix"/>
<feColorMatrix in="SourceAlpha" type="matrix" values="0 0 0 0 0 0 0 0 0 0 0 0 0 0 0 0 0 0 127 0" result="hardAlpha"/>
<feOffset/>
<feGaussianBlur stdDeviation="2"/>
<feComposite in2="hardAlpha" operator="out"/>
<feColorMatrix type="matrix" values="0 0 0 0 0 0 0 0 0 0 0 0 0 0 0 0 0 0 0.1 0"/>
<feBlend mode="normal" in2="BackgroundImageFix" result="effect1_dropShadow_193_4164"/>
<feBlend mode="normal" in="SourceGraphic" in2="effect1_dropShadow_193_4164" result="shape"/>
</filter>
</defs>
</svg>
