<svg width="65" height="64" viewBox="0 0 65 64" fill="none" xmlns="http://www.w3.org/2000/svg">
<g filter="url(#filter0_d_193_5138)">
<rect x="4.44153" y="4" width="56.3129" height="56" rx="16" fill="white" shape-rendering="crispEdges"/>
<path d="M46.3773 25.6541C46.3771 25.1362 46.2657 24.6785 46.0404 24.2858C45.8191 23.8994 45.4878 23.5756 45.0432 23.3196C41.374 21.2157 37.7013 19.1182 34.0332 17.0121C33.0444 16.4444 32.0856 16.4652 31.104 17.0411C29.6435 17.8975 22.3315 22.0634 20.1527 23.3185C19.2553 23.8351 18.8187 24.6257 18.8185 25.6532C18.8171 29.8843 18.8185 34.1155 18.8171 38.3466C18.8171 38.8532 18.9239 39.3021 19.1393 39.6889C19.3607 40.0869 19.6967 40.4196 20.1515 40.6813C22.3305 41.9364 29.6434 46.102 31.1036 46.9587C32.0856 47.5349 33.0444 47.5555 34.0336 46.9877C37.7017 44.8815 41.3747 42.784 45.0444 40.68C45.4992 40.4184 45.8352 40.0855 46.0566 39.6879C46.2716 39.3009 46.3787 38.8521 46.3787 38.3454C46.3787 38.3454 46.3787 29.8854 46.3773 25.6541Z" fill="#A179DC"/>
<path d="M32.64 31.9587L19.1393 39.6889C19.3607 40.0869 19.6967 40.4196 20.1515 40.6813C22.3304 41.9364 29.6434 46.102 31.1036 46.9587C32.0855 47.5349 33.0443 47.5555 34.0335 46.9877C37.7017 44.8815 41.3747 42.784 45.0444 40.6801C45.4992 40.4184 45.8352 40.0855 46.0566 39.6879L32.64 31.9587Z" fill="#280068"/>
<path d="M46.3774 25.6541C46.3772 25.1362 46.2658 24.6785 46.0405 24.2858L32.6401 31.9588L46.0567 39.6879C46.2717 39.301 46.3786 38.8522 46.3788 38.3455C46.3788 38.3455 46.3788 29.8854 46.3774 25.6541Z" fill="#390091"/>
<path d="M40.5889 29.0689V30.5139H42.0419V29.0689H42.7684V30.5139H44.2214V31.2363H42.7684V32.6812H44.2214V33.4036H42.7684V34.8486H42.0419V33.4036H40.5889V34.8486H39.8623V33.4036H38.4094V32.6812H39.8623V31.2363H38.4094V30.5139H39.8623V29.0689H40.5889ZM42.0419 31.2362H40.5889V32.6812H42.0419V31.2362Z" fill="white"/>
<path d="M32.6697 21.8122C36.4596 21.8122 39.7684 23.859 41.5408 26.9014L41.5235 26.8721L37.0644 29.4252C36.1859 27.9461 34.5754 26.9478 32.7278 26.9272L32.6696 26.9269C29.8523 26.9269 27.5683 29.1982 27.5683 31.9999C27.5674 32.8829 27.7994 33.7508 28.2411 34.5168C29.1204 36.0433 30.7735 37.0729 32.6697 37.0729C34.5777 37.0729 36.2402 36.0303 37.1149 34.4874L37.0937 34.5244L41.546 37.0894C39.7931 40.106 36.5296 42.1465 32.7838 42.1871L32.6697 42.1878C28.8679 42.1878 25.5497 40.1283 23.7818 37.0698C22.9187 35.5767 22.4249 33.8458 22.4249 31.9999C22.4249 26.3734 27.0115 21.8121 32.6696 21.8121L32.6697 21.8122Z" fill="white"/>
</g>
<defs>
<filter id="filter0_d_193_5138" x="0.441528" y="0" width="64.3129" height="64" filterUnits="userSpaceOnUse" color-interpolation-filters="sRGB">
<feFlood flood-opacity="0" result="BackgroundImageFix"/>
<feColorMatrix in="SourceAlpha" type="matrix" values="0 0 0 0 0 0 0 0 0 0 0 0 0 0 0 0 0 0 127 0" result="hardAlpha"/>
<feOffset/>
<feGaussianBlur stdDeviation="2"/>
<feComposite in2="hardAlpha" operator="out"/>
<feColorMatrix type="matrix" values="0 0 0 0 0 0 0 0 0 0 0 0 0 0 0 0 0 0 0.1 0"/>
<feBlend mode="normal" in2="BackgroundImageFix" result="effect1_dropShadow_193_5138"/>
<feBlend mode="normal" in="SourceGraphic" in2="effect1_dropShadow_193_5138" result="shape"/>
</filter>
</defs>
</svg>
