<svg width="65" height="64" viewBox="0 0 65 64" fill="none" xmlns="http://www.w3.org/2000/svg">
<g filter="url(#filter0_d_193_4140)">
<rect x="4.06726" y="4" width="56.3129" height="56" rx="16" fill="white" shape-rendering="crispEdges"/>
<path d="M46.0799 25.5953C46.0797 25.0736 45.9675 24.6126 45.7406 24.217C45.5177 23.8279 45.1839 23.5018 44.7362 23.244C41.0405 21.1249 37.3412 19.0122 33.6467 16.8909C32.6507 16.3191 31.685 16.34 30.6963 16.92C29.2253 17.7827 21.8605 21.9787 19.6659 23.2428C18.7621 23.7631 18.3223 24.5594 18.3221 25.5944C18.3207 29.8561 18.3221 34.1176 18.3207 38.3794C18.3209 38.8897 18.4283 39.3417 18.6452 39.7314C18.8682 40.1323 19.2067 40.4673 19.6647 40.731C21.8594 41.9951 29.2252 46.1908 30.6959 47.0537C31.685 47.634 32.6507 47.6548 33.647 47.0827C37.3416 44.9614 41.0411 42.8488 44.7374 40.7297C45.1954 40.4661 45.5339 40.1309 45.7569 39.7304C45.9735 39.3406 46.0811 38.8886 46.0813 38.3782C46.0813 38.3782 46.0813 29.8571 46.0799 25.5953Z" fill="#5C8DBC"/>
<path d="M32.2435 31.9454L18.6452 39.7314C18.8682 40.1323 19.2066 40.4673 19.6647 40.731C21.8594 41.9951 29.2252 46.1908 30.6959 47.0537C31.6849 47.6341 32.6507 47.6548 33.647 47.0828C37.3416 44.9614 41.0411 42.8488 44.7374 40.7297C45.1954 40.4662 45.5339 40.1309 45.7569 39.7304L32.2435 31.9454Z" fill="#1A4674"/>
<path d="M28.2158 34.2517C29.0071 35.6254 30.4946 36.5519 32.201 36.5519C33.9179 36.5519 35.4139 35.6136 36.2011 34.2252L32.2435 31.9454L28.2158 34.2517Z" fill="#1A4674"/>
<path d="M46.0799 25.5953C46.0797 25.0736 45.9675 24.6126 45.7406 24.217L32.2435 31.9454L45.7569 39.7304C45.9735 39.3407 46.0811 38.8886 46.0813 38.3783C46.0813 38.3783 46.0813 29.8571 46.0799 25.5953Z" fill="#1B598E"/>
<path d="M45.3368 32.5018H44.2808V33.5522H43.2246V32.5018H42.1688V31.4518H43.2246V30.4017H44.2808V31.4518H45.3368V32.5018ZM41.4836 32.5018H40.4277V33.5522H39.3718V32.5018H38.3158V31.4518H39.3718V30.4017H40.4277V31.4518H41.4836V32.5018Z" fill="white"/>
<path d="M36.2012 34.2252C35.4139 35.6136 33.9179 36.5519 32.201 36.5519C30.4946 36.5519 29.0071 35.6254 28.2158 34.2517C27.8183 33.5624 27.6096 32.7815 27.6104 31.9868C27.6104 29.4657 29.6658 27.4219 32.201 27.4219C33.8964 27.4219 35.3761 28.3368 36.1713 29.6965L40.1837 27.3988C38.5889 24.6611 35.6114 22.8193 32.201 22.8193C27.1095 22.8193 22.9821 26.9238 22.9821 31.9868C22.9821 33.6479 23.4265 35.2056 24.2031 36.5491C25.7939 39.3013 28.7799 41.1545 32.201 41.1545C35.6284 41.1545 38.6191 39.2939 40.2076 36.5336L36.2012 34.2252Z" fill="white"/>
</g>
<defs>
<filter id="filter0_d_193_4140" x="0.0672607" y="0" width="64.3129" height="64" filterUnits="userSpaceOnUse" color-interpolation-filters="sRGB">
<feFlood flood-opacity="0" result="BackgroundImageFix"/>
<feColorMatrix in="SourceAlpha" type="matrix" values="0 0 0 0 0 0 0 0 0 0 0 0 0 0 0 0 0 0 127 0" result="hardAlpha"/>
<feOffset/>
<feGaussianBlur stdDeviation="2"/>
<feComposite in2="hardAlpha" operator="out"/>
<feColorMatrix type="matrix" values="0 0 0 0 0 0 0 0 0 0 0 0 0 0 0 0 0 0 0.1 0"/>
<feBlend mode="normal" in2="BackgroundImageFix" result="effect1_dropShadow_193_4140"/>
<feBlend mode="normal" in="SourceGraphic" in2="effect1_dropShadow_193_4140" result="shape"/>
</filter>
</defs>
</svg>
