<svg width="64" height="64" viewBox="0 0 64 64" fill="none" xmlns="http://www.w3.org/2000/svg">
<g filter="url(#filter0_d_193_4120)">
<rect x="4" y="4" width="56" height="56" rx="16" fill="white" shape-rendering="crispEdges"/>
<path d="M31.9596 16.4472C31.9596 16.4472 41.0967 16.0359 45.9392 25.2186H31.1827C31.1827 25.2186 28.3957 25.1269 26.02 28.5081C25.3349 29.9245 24.6041 31.3865 25.4263 34.2642C24.2386 32.2545 19.1216 23.3456 19.1216 23.3456C19.1216 23.3456 22.7312 16.8125 31.9596 16.4472Z" fill="#C6352E"/>
<path d="M45.4636 39.7618C45.4636 39.7618 41.2501 47.8794 30.8761 47.4804C32.1559 45.2652 38.2561 34.7019 38.2561 34.7019C38.2561 34.7019 39.7289 32.3344 37.9899 28.5864C37.1058 27.2846 36.2055 25.9205 33.3018 25.1932C35.6371 25.17 45.9099 25.1947 45.9099 25.1947C45.9099 25.1947 49.7622 31.5875 45.4636 39.7618Z" fill="#F4D911"/>
<path d="M18.5207 39.8235C18.5207 39.8235 13.5977 32.1147 19.1309 23.3307C20.4095 25.5467 26.5065 36.112 26.5065 36.112C26.5065 36.112 27.82 38.5711 31.9357 38.9393C33.5046 38.8249 35.1365 38.7273 37.2182 36.5766C36.0705 38.6101 30.912 47.4947 30.912 47.4947C30.912 47.4947 23.4497 47.6338 18.5207 39.8235Z" fill="#81B354"/>
<path d="M30.8761 47.5555L32.9518 38.8939C32.9518 38.8939 35.2341 38.7158 37.1465 36.6169C35.9593 38.7053 30.8761 47.5555 30.8761 47.5555Z" fill="#7BAA50"/>
<path d="M25.0078 32.0969C25.0078 28.2786 28.1029 25.1832 31.9215 25.1832C35.7398 25.1832 38.8352 28.2785 38.8352 32.0969C38.8352 35.9154 35.74 39.0109 31.9215 39.0109C28.1029 39.0109 25.0078 35.9155 25.0078 32.0969Z" fill="white"/>
<path d="M26.1649 32.0969C26.1649 28.9178 28.7421 26.3406 31.9215 26.3406C35.1004 26.3406 37.6778 28.9178 37.6778 32.0969C37.6778 35.2761 35.1004 37.8535 31.9215 37.8535C28.7421 37.8536 26.1649 35.2759 26.1649 32.0969Z" fill="url(#paint0_linear_193_4120)"/>
<path d="M45.91 25.1947L37.3629 27.7006C37.3629 27.7006 36.074 25.8092 33.3018 25.1932C35.7039 25.185 45.91 25.1947 45.91 25.1947Z" fill="#E7CE12"/>
<path d="M25.2601 33.9534C24.059 31.8732 19.1219 23.3455 19.1219 23.3455L25.4535 29.6088C25.4535 29.6088 24.8028 30.9472 25.0496 32.8589L25.2601 33.9534Z" fill="#BC332C"/>
</g>
<defs>
<filter id="filter0_d_193_4120" x="0" y="0" width="64" height="64" filterUnits="userSpaceOnUse" color-interpolation-filters="sRGB">
<feFlood flood-opacity="0" result="BackgroundImageFix"/>
<feColorMatrix in="SourceAlpha" type="matrix" values="0 0 0 0 0 0 0 0 0 0 0 0 0 0 0 0 0 0 127 0" result="hardAlpha"/>
<feOffset/>
<feGaussianBlur stdDeviation="2"/>
<feComposite in2="hardAlpha" operator="out"/>
<feColorMatrix type="matrix" values="0 0 0 0 0 0 0 0 0 0 0 0 0 0 0 0 0 0 0.1 0"/>
<feBlend mode="normal" in2="BackgroundImageFix" result="effect1_dropShadow_193_4120"/>
<feBlend mode="normal" in="SourceGraphic" in2="effect1_dropShadow_193_4120" result="shape"/>
</filter>
<linearGradient id="paint0_linear_193_4120" x1="31.9213" y1="26.422" x2="31.9213" y2="37.5091" gradientUnits="userSpaceOnUse">
<stop stop-color="#A2C0E6"/>
<stop offset="1" stop-color="#406CB1"/>
</linearGradient>
</defs>
</svg>
