<svg width="65" height="64" viewBox="0 0 65 64" fill="none" xmlns="http://www.w3.org/2000/svg">
<g filter="url(#filter0_d_193_4204)">
<rect x="4.38013" y="4" width="56.3129" height="56" rx="16" fill="white" shape-rendering="crispEdges"/>
<path d="M43.6111 41.4645C43.3855 41.4646 43.1673 41.3847 42.9957 41.2391C42.8241 41.0936 42.7104 40.8919 42.6749 40.6704C42.6395 40.4489 42.6847 40.2221 42.8023 40.0307C42.92 39.8394 43.1025 39.6961 43.3169 39.6265C45.1193 39.0399 46.2837 37.4689 46.2837 35.624C46.2837 33.2875 44.3724 31.3866 42.023 31.3866C41.8597 31.3866 41.6841 31.3993 41.4704 31.4269L40.544 31.5464L40.4109 30.6264C39.8416 26.6821 36.3864 23.7076 32.3738 23.7076C29.0565 23.7076 26.1032 25.6824 24.8509 28.7391L24.615 29.3142L23.991 29.3255C21.1229 29.3778 18.7897 31.74 18.7897 34.5906C18.7897 36.6717 20.0046 38.5695 21.8848 39.4253C22.1133 39.5293 22.2909 39.7193 22.3785 39.9535C22.4661 40.1877 22.4566 40.4469 22.352 40.6741C22.2475 40.9014 22.0564 41.078 21.8209 41.1651C21.5854 41.2523 21.3247 41.2428 21.0962 41.1388C18.5434 39.9771 16.8941 37.4068 16.8941 34.5908C16.8941 30.9261 19.7335 27.8563 23.3399 27.4792C25.0017 24.0238 28.4844 21.8233 32.3734 21.8233C37.0283 21.8233 41.0747 25.0687 42.1239 29.5033C45.4719 29.5572 48.179 32.2822 48.179 35.6242C48.179 38.2577 46.4618 40.5857 43.9063 41.4175C43.8085 41.4492 43.7089 41.4645 43.6111 41.4645Z" fill="#0071CE"/>
<path d="M29.1168 41.8721L29.1164 41.8719L29.1155 41.8716H29.1153L29.115 41.8714L29.1148 41.8711C29.1148 41.8711 29.1145 41.8711 29.1145 41.8709H29.1143L29.114 41.8707C29.1143 41.8704 29.1138 41.8704 29.1138 41.8704L29.1135 41.8702H29.1133L29.1131 41.8699L29.1128 41.8697L29.1121 41.8694L29.1118 41.8692L29.1116 41.869L29.1113 41.8687L29.1106 41.8685C29.1104 41.8687 29.1104 41.8682 29.1101 41.8682L29.1099 41.868L29.1094 41.8677L29.1091 41.8675C29.1089 41.8673 29.1084 41.8673 29.1082 41.8673L29.1072 41.867L29.1067 41.8668H29.1065C29.1062 41.8665 29.106 41.8665 29.1056 41.8665C29.1054 41.8663 29.1049 41.8663 29.1049 41.8663H29.1046L29.1041 41.866C29.1039 41.866 29.1039 41.8658 29.1039 41.8658H29.1036C29.0887 41.8605 29.0731 41.8574 29.0572 41.8567H29.0557H29.055L29.0548 41.8564H29.0522H29.0524H29.0505C28.641 41.8564 28.3059 41.5249 28.3034 41.1186V32.839H28.9415C29.0386 32.8431 29.1049 32.7687 29.1049 32.6795C29.1049 32.6128 29.0638 32.5558 29.0055 32.532L25.944 30.4307C25.9172 30.4123 25.8854 30.4025 25.8529 30.4025C25.8203 30.4025 25.7886 30.4123 25.7618 30.4307L22.6763 32.5484C22.6483 32.5678 22.6273 32.5956 22.6162 32.6276C22.6052 32.6597 22.6047 32.6945 22.6148 32.7269C22.625 32.7593 22.6452 32.7876 22.6726 32.8078C22.7001 32.828 22.7332 32.8389 22.7674 32.8391H23.4053L23.4059 41.1208C23.4091 41.6934 23.8715 42.1606 24.4599 42.1755C24.4666 42.1762 24.473 42.1767 24.4797 42.1767H29.0529C29.095 42.1759 29.1331 42.1592 29.1613 42.1323L29.1616 42.1321L29.1628 42.1309C29.163 42.1306 29.1633 42.1306 29.1635 42.1301L29.1638 42.1299L29.164 42.1296L29.1643 42.1294L29.1645 42.1292L29.1647 42.1289L29.165 42.1287C29.1655 42.1284 29.1652 42.1284 29.1655 42.1282L29.1657 42.1279L29.166 42.1277L29.1662 42.1274C29.194 42.0989 29.2113 42.0602 29.2114 42.0175V42.015C29.2108 41.9848 29.2016 41.9553 29.1848 41.93C29.1681 41.9047 29.1445 41.8847 29.1168 41.8721Z" fill="#DC8327"/>
<path d="M35.7292 41.8721L35.7287 41.8719L35.728 41.8716H35.7276L35.7274 41.8714L35.7271 41.8711H35.7269L35.7267 41.8709L35.7264 41.8707C35.7267 41.8704 35.7262 41.8704 35.7259 41.8704L35.7257 41.8702H35.7254C35.7252 41.8702 35.7252 41.8699 35.7252 41.8699C35.7247 41.8702 35.7247 41.8697 35.7247 41.8697L35.7242 41.8694L35.724 41.8692H35.7237L35.7235 41.869L35.7232 41.8687L35.7227 41.8685C35.7225 41.8687 35.7225 41.8682 35.722 41.8682L35.7218 41.868L35.7215 41.8677L35.721 41.8675C35.7208 41.8673 35.7203 41.8673 35.7201 41.8673L35.7191 41.867L35.7186 41.8668L35.7181 41.8665L35.7176 41.8663L35.717 41.866C35.7163 41.866 35.7168 41.866 35.7165 41.8658L35.716 41.8656L35.7158 41.8653H35.7155C35.7006 41.86 35.6849 41.8569 35.6691 41.8562H35.6671L35.6669 41.8559H35.6619C35.2525 41.8559 34.9175 41.5244 34.9151 41.1182V34.693H35.5529C35.5907 34.6947 35.6279 34.6831 35.6579 34.6602C35.6879 34.6372 35.7088 34.6045 35.7169 34.5677C35.7249 34.5309 35.7196 34.4925 35.7019 34.4592C35.6842 34.426 35.6552 34.4 35.6201 34.386L32.5584 32.2848C32.5316 32.2664 32.4998 32.2565 32.4673 32.2565C32.4347 32.2565 32.4029 32.2664 32.3761 32.2848L29.2918 34.4023C29.2639 34.4217 29.2428 34.4494 29.2318 34.4815C29.2207 34.5136 29.2202 34.5484 29.2303 34.5808C29.2405 34.6132 29.2607 34.6415 29.2882 34.6617C29.3156 34.6818 29.3488 34.6928 29.3829 34.693H30.018L30.0185 41.1206C30.0212 41.6933 30.4845 42.1609 31.0731 42.1754C31.0795 42.1762 31.0858 42.1764 31.0923 42.1764H35.6657C35.7077 42.1757 35.7457 42.1589 35.7739 42.1321L35.7742 42.1318C35.7747 42.1313 35.7757 42.1308 35.7754 42.1306C35.7757 42.1304 35.7759 42.1304 35.7761 42.1299L35.7764 42.1296L35.7766 42.1294L35.7769 42.1291C35.7769 42.1291 35.7771 42.1291 35.7771 42.1289L35.7774 42.1287C35.7776 42.1287 35.7776 42.1284 35.7776 42.1284C35.7783 42.1282 35.7781 42.1282 35.7781 42.1279L35.7783 42.1277L35.7786 42.1274L35.7788 42.1272C35.8066 42.0986 35.8239 42.06 35.8241 42.0172V42.0148C35.8233 41.9846 35.814 41.9552 35.7972 41.9299C35.7804 41.9047 35.7569 41.8847 35.7292 41.8721Z" fill="#F4B21B"/>
<path d="M42.3588 41.8721L42.3583 41.8718L42.3576 41.8716H42.3573L42.3571 41.8714L42.3568 41.8711C42.3566 41.8711 42.3566 41.8711 42.3566 41.8709H42.3563L42.3561 41.8706L42.3559 41.8704C42.3559 41.8704 42.3556 41.8704 42.3556 41.8701H42.3554L42.3551 41.8699C42.3549 41.8701 42.3549 41.8697 42.3546 41.8697C42.3549 41.8694 42.3544 41.8694 42.3541 41.8694L42.3539 41.8692H42.3537L42.3534 41.8689L42.3532 41.8687L42.3527 41.8684C42.3524 41.8687 42.3524 41.8682 42.3519 41.8682L42.3517 41.868C42.3519 41.8677 42.3515 41.8677 42.3512 41.8677C42.3512 41.8677 42.351 41.8677 42.351 41.8675C42.3507 41.8672 42.3502 41.8672 42.35 41.8672L42.3489 41.867L42.3484 41.8667L42.3479 41.8665L42.3474 41.8663L42.3469 41.866C42.3462 41.866 42.3462 41.866 42.3464 41.8658C42.3462 41.8658 42.3462 41.8655 42.3462 41.8655L42.3457 41.8653H42.3455C42.3305 41.86 42.3149 41.8569 42.299 41.8562H42.2967L42.2962 41.8559H42.2935H42.2918H42.2928H42.2926C41.8832 41.8559 41.5482 41.5244 41.5456 41.1181V36.5463H42.1853C42.2754 36.5442 42.3486 36.4762 42.3486 36.387C42.3486 36.3202 42.3076 36.2632 42.2493 36.2394L39.1875 34.1382C39.1607 34.1198 39.129 34.11 39.0964 34.11C39.0639 34.11 39.0321 34.1198 39.0053 34.1382L35.9198 36.2557C35.8918 36.2751 35.8708 36.3028 35.8597 36.3349C35.8487 36.367 35.8482 36.4018 35.8583 36.4342C35.8685 36.4666 35.8887 36.4949 35.9162 36.5151C35.9436 36.5352 35.9768 36.5462 36.0109 36.5464H36.6472L36.6477 41.1206C36.6509 41.6933 37.1138 42.1611 37.7022 42.1754C37.7086 42.1762 37.7151 42.1764 37.7215 42.1764H42.2948C42.3368 42.1757 42.3749 42.1589 42.4031 42.132L42.4034 42.1318C42.4039 42.1313 42.4046 42.1308 42.4046 42.1306C42.4049 42.1303 42.4051 42.1303 42.4053 42.1299L42.4056 42.1296L42.4058 42.1294L42.4061 42.1291L42.4063 42.1289L42.4066 42.1286L42.4068 42.1284C42.4075 42.1281 42.4071 42.1281 42.4073 42.1279L42.4075 42.1277L42.4078 42.1274L42.408 42.1272C42.4358 42.0986 42.453 42.06 42.4533 42.0172V42.0148C42.4526 41.9845 42.4434 41.9551 42.4267 41.9299C42.41 41.9046 42.3864 41.8846 42.3588 41.8721Z" fill="#F2D864"/>
</g>
<defs>
<filter id="filter0_d_193_4204" x="0.380127" y="0" width="64.3129" height="64" filterUnits="userSpaceOnUse" color-interpolation-filters="sRGB">
<feFlood flood-opacity="0" result="BackgroundImageFix"/>
<feColorMatrix in="SourceAlpha" type="matrix" values="0 0 0 0 0 0 0 0 0 0 0 0 0 0 0 0 0 0 127 0" result="hardAlpha"/>
<feOffset/>
<feGaussianBlur stdDeviation="2"/>
<feComposite in2="hardAlpha" operator="out"/>
<feColorMatrix type="matrix" values="0 0 0 0 0 0 0 0 0 0 0 0 0 0 0 0 0 0 0.1 0"/>
<feBlend mode="normal" in2="BackgroundImageFix" result="effect1_dropShadow_193_4204"/>
<feBlend mode="normal" in="SourceGraphic" in2="effect1_dropShadow_193_4204" result="shape"/>
</filter>
</defs>
</svg>
