<svg width="64" height="64" viewBox="0 0 64 64" fill="none" xmlns="http://www.w3.org/2000/svg">
<g filter="url(#filter0_d_193_4050)">
<rect x="4" y="4" width="56" height="56" rx="16" fill="white" shape-rendering="crispEdges"/>
<path d="M45.7161 16.4445L43.217 44.4412L31.9832 47.5556L20.7804 44.4456L18.2839 16.4445H45.7161Z" fill="#264DE4"/>
<path d="M41.0774 42.6584L43.2131 18.7339H32V45.1751L41.0774 42.6584Z" fill="#2965F1"/>
<path d="M24.0071 29.1192L24.3149 32.5534H32V29.1192H24.0071Z" fill="#EBEBEB"/>
<path d="M32.0001 22.1682H31.9882H23.3887L23.7009 25.6025H32.0001V22.1682Z" fill="#EBEBEB"/>
<path d="M32.0001 41.6112V38.0381L31.985 38.0422L28.1603 37.0094L27.9158 34.2704H26.0573H24.4684L24.9495 39.6627L31.9843 41.6156L32.0001 41.6112Z" fill="#EBEBEB"/>
<path d="M36.217 32.5534L35.8184 37.0073L31.9882 38.0411V41.614L39.0285 39.6627L39.0802 39.0825L39.8872 30.0414L39.971 29.1192L40.5909 22.1682H31.9882V25.6025H36.8273L36.5148 29.1192H31.9882V32.5534H36.217Z" fill="white"/>
</g>
<defs>
<filter id="filter0_d_193_4050" x="0" y="0" width="64" height="64" filterUnits="userSpaceOnUse" color-interpolation-filters="sRGB">
<feFlood flood-opacity="0" result="BackgroundImageFix"/>
<feColorMatrix in="SourceAlpha" type="matrix" values="0 0 0 0 0 0 0 0 0 0 0 0 0 0 0 0 0 0 127 0" result="hardAlpha"/>
<feOffset/>
<feGaussianBlur stdDeviation="2"/>
<feComposite in2="hardAlpha" operator="out"/>
<feColorMatrix type="matrix" values="0 0 0 0 0 0 0 0 0 0 0 0 0 0 0 0 0 0 0.1 0"/>
<feBlend mode="normal" in2="BackgroundImageFix" result="effect1_dropShadow_193_4050"/>
<feBlend mode="normal" in="SourceGraphic" in2="effect1_dropShadow_193_4050" result="shape"/>
</filter>
</defs>
</svg>
