<svg width="64" height="64" viewBox="0 0 64 64" fill="none" xmlns="http://www.w3.org/2000/svg">
<g filter="url(#filter0_d_193_4684)">
<rect x="4" y="4" width="56" height="56" rx="16" fill="white" shape-rendering="crispEdges"/>
<path fill-rule="evenodd" clip-rule="evenodd" d="M32.0013 47.5556V41.5264C38.3831 41.5264 43.337 35.1976 40.8863 28.4807C40.4362 27.2467 39.7218 26.1261 38.7931 25.1972C37.8644 24.2684 36.7438 23.5539 35.5099 23.1036C28.793 20.671 22.4642 25.6068 22.4642 31.9886H16.4525C16.4525 21.8174 26.2898 13.8842 36.9553 17.2155C41.6096 18.6796 45.3291 22.381 46.7751 27.0359C50.107 37.7183 42.1912 47.5556 32.0013 47.5556Z" fill="#0080FF"/>
<path fill-rule="evenodd" clip-rule="evenodd" d="M26.0252 41.5438H32.0189V35.5502H26.0259L26.0252 41.5438ZM21.4064 46.1626H26.0246V41.5445H21.4064V46.1626ZM17.5453 41.5445H21.4064V37.6827H17.5453V41.5445Z" fill="#0080FF"/>
</g>
<defs>
<filter id="filter0_d_193_4684" x="0" y="0" width="64" height="64" filterUnits="userSpaceOnUse" color-interpolation-filters="sRGB">
<feFlood flood-opacity="0" result="BackgroundImageFix"/>
<feColorMatrix in="SourceAlpha" type="matrix" values="0 0 0 0 0 0 0 0 0 0 0 0 0 0 0 0 0 0 127 0" result="hardAlpha"/>
<feOffset/>
<feGaussianBlur stdDeviation="2"/>
<feComposite in2="hardAlpha" operator="out"/>
<feColorMatrix type="matrix" values="0 0 0 0 0 0 0 0 0 0 0 0 0 0 0 0 0 0 0.1 0"/>
<feBlend mode="normal" in2="BackgroundImageFix" result="effect1_dropShadow_193_4684"/>
<feBlend mode="normal" in="SourceGraphic" in2="effect1_dropShadow_193_4684" result="shape"/>
</filter>
</defs>
</svg>
