<svg width="64" height="64" viewBox="0 0 64 64" fill="none" xmlns="http://www.w3.org/2000/svg">
<g filter="url(#filter0_d_193_4916)">
<rect x="4" y="4" width="56" height="56" rx="16" fill="white" shape-rendering="crispEdges"/>
<path d="M47.2487 29.2651C47.1644 29.198 46.3767 28.6033 44.7155 28.6033C44.2769 28.6052 43.8392 28.6428 43.4067 28.7158C43.0852 26.5122 41.2633 25.4378 41.1816 25.3896L40.7356 25.1323L40.4422 25.5557C40.0748 26.1243 39.8066 26.7512 39.6491 27.4097C39.3517 28.6676 39.5326 29.8491 40.1716 30.8592C39.4 31.2892 38.1622 31.395 37.9117 31.4044H17.4183C16.883 31.4051 16.4487 31.8377 16.4458 32.3729C16.4219 34.1683 16.726 35.9529 17.3433 37.6389C18.0493 39.4903 19.0995 40.854 20.4659 41.6886C21.9971 42.6263 24.4848 43.1621 27.3046 43.1621C28.5785 43.1662 29.85 43.0509 31.1025 42.8179C32.8435 42.4982 34.5187 41.8897 36.059 41.0174C37.3282 40.2825 38.4704 39.3475 39.4415 38.2484C41.0651 36.4105 42.0324 34.3635 42.7517 32.5444H43.0384C44.816 32.5444 45.9092 31.833 46.512 31.2369C46.9126 30.8567 47.2254 30.3936 47.4283 29.8799L47.5556 29.5075L47.2487 29.2651Z" fill="#2496ED"/>
<path d="M19.3179 30.8043H22.0641C22.1965 30.8043 22.3039 30.6969 22.3039 30.5645V28.1183C22.3046 27.9859 22.1979 27.8779 22.0654 27.8772C22.065 27.8772 22.0645 27.8772 22.0641 27.8772H19.3179C19.1855 27.8772 19.0781 27.9846 19.0781 28.117V28.1183V30.5644C19.0781 30.6969 19.1855 30.8043 19.3179 30.8043Z" fill="#2496ED"/>
<path d="M23.1023 30.8043H25.8484C25.9809 30.8043 26.0882 30.6969 26.0882 30.5645V28.1183C26.089 27.9859 25.9822 27.8779 25.8498 27.8772C25.8493 27.8772 25.8488 27.8772 25.8484 27.8772H23.1022C22.969 27.8772 22.8611 27.9851 22.8611 28.1183V30.5644C22.8619 30.6971 22.9696 30.8043 23.1023 30.8043Z" fill="#2496ED"/>
<path d="M26.9443 30.8043H29.6905C29.8229 30.8043 29.9303 30.6969 29.9303 30.5645V28.1183C29.931 27.9859 29.8242 27.8779 29.6918 27.8772C29.6914 27.8772 29.6909 27.8772 29.6904 27.8772H26.9442C26.8118 27.8772 26.7045 27.9846 26.7045 28.117V28.1183V30.5644C26.7045 30.6969 26.8119 30.8043 26.9443 30.8043Z" fill="#2496ED"/>
<path d="M30.7408 30.8043H33.4869C33.6196 30.8043 33.7273 30.6972 33.7281 30.5645V28.1183C33.7281 27.9851 33.6201 27.8772 33.4869 27.8772H30.7408C30.6083 27.8772 30.501 27.9846 30.501 28.117V28.1183V30.5644C30.501 30.6969 30.6083 30.8043 30.7408 30.8043Z" fill="#2496ED"/>
<path d="M23.1023 27.2852H25.8485C25.9812 27.2844 26.0883 27.1767 26.0883 27.044V24.5979C26.0883 24.4655 25.9809 24.3582 25.8485 24.3582H23.1023C22.9697 24.3582 22.8619 24.4653 22.8612 24.5979V27.044C22.8619 27.1769 22.9694 27.2844 23.1023 27.2852Z" fill="#2496ED"/>
<path d="M26.9442 27.2852H29.6904C29.8231 27.2844 29.9302 27.1767 29.9302 27.044V24.5979C29.9302 24.4655 29.8228 24.3582 29.6904 24.3582H26.9442C26.8118 24.3582 26.7045 24.4655 26.7045 24.5979V27.044C26.7045 27.1767 26.8116 27.2844 26.9442 27.2852Z" fill="#2496ED"/>
<path d="M30.7408 27.2852H33.4869C33.6198 27.2844 33.7273 27.1769 33.7281 27.044V24.5979C33.7273 24.4653 33.6196 24.3582 33.4869 24.3582H30.7408C30.6083 24.3582 30.501 24.4655 30.501 24.5979V27.044C30.501 27.1767 30.6081 27.2844 30.7408 27.2852Z" fill="#2496ED"/>
<path d="M30.7408 23.7647H33.4869C33.6196 23.7647 33.7273 23.6576 33.7281 23.5249V21.0774C33.7273 20.9448 33.6196 20.8376 33.4869 20.8376H30.7408C30.6083 20.8376 30.501 20.945 30.501 21.0774V23.5249C30.501 23.6573 30.6083 23.7647 30.7408 23.7647Z" fill="#2496ED"/>
<path d="M34.5707 30.8043H37.3169C37.4496 30.8043 37.5573 30.6972 37.558 30.5645V28.1183C37.558 27.9851 37.4501 27.8772 37.3169 27.8772H34.5707C34.4383 27.8772 34.3309 27.9846 34.3309 28.117V28.1183V30.5644C34.3309 30.6969 34.4383 30.8043 34.5707 30.8043Z" fill="#2496ED"/>
</g>
<defs>
<filter id="filter0_d_193_4916" x="0" y="0" width="64" height="64" filterUnits="userSpaceOnUse" color-interpolation-filters="sRGB">
<feFlood flood-opacity="0" result="BackgroundImageFix"/>
<feColorMatrix in="SourceAlpha" type="matrix" values="0 0 0 0 0 0 0 0 0 0 0 0 0 0 0 0 0 0 127 0" result="hardAlpha"/>
<feOffset/>
<feGaussianBlur stdDeviation="2"/>
<feComposite in2="hardAlpha" operator="out"/>
<feColorMatrix type="matrix" values="0 0 0 0 0 0 0 0 0 0 0 0 0 0 0 0 0 0 0.1 0"/>
<feBlend mode="normal" in2="BackgroundImageFix" result="effect1_dropShadow_193_4916"/>
<feBlend mode="normal" in="SourceGraphic" in2="effect1_dropShadow_193_4916" result="shape"/>
</filter>
</defs>
</svg>
