<svg width="64" height="64" viewBox="0 0 64 64" fill="none" xmlns="http://www.w3.org/2000/svg">
<g filter="url(#filter0_d_193_4104)">
<rect x="4" y="4" width="56" height="56" rx="16" fill="white" shape-rendering="crispEdges"/>
<path d="M44.5235 39.5977C44.1087 39.8146 43.681 40.0058 43.2427 40.17C41.8477 40.692 40.3699 40.958 38.8804 40.955C33.1303 40.955 28.1215 36.9998 28.1215 31.9241C28.1289 31.2434 28.3178 30.5769 28.6688 29.9935C29.0197 29.4102 29.52 28.931 30.118 28.6056C24.9172 28.8243 23.5806 34.2438 23.5806 37.419C23.5806 46.3964 31.8544 47.3065 33.637 47.3065C34.5982 47.3065 36.0479 47.0271 36.9179 46.7524L37.0771 46.699C40.4251 45.5415 43.2793 43.2788 45.1699 40.2831C45.2278 40.1918 45.2537 40.0839 45.2434 39.9763C45.2331 39.8688 45.1873 39.7677 45.1131 39.6891C45.039 39.6105 44.9407 39.5588 44.8339 39.5423C44.7272 39.5257 44.6179 39.5452 44.5235 39.5977Z" fill="url(#paint0_linear_193_4104)"/>
<path opacity="0.35" d="M44.5235 39.5977C44.1087 39.8146 43.681 40.0058 43.2427 40.17C41.8477 40.692 40.3699 40.958 38.8804 40.955C33.1303 40.955 28.1215 36.9998 28.1215 31.9241C28.1289 31.2434 28.3178 30.5769 28.6688 29.9935C29.0197 29.4102 29.52 28.931 30.118 28.6056C24.9172 28.8243 23.5806 34.2438 23.5806 37.419C23.5806 46.3964 31.8544 47.3065 33.637 47.3065C34.5982 47.3065 36.0479 47.0271 36.9179 46.7524L37.0771 46.699C40.4251 45.5415 43.2793 43.2788 45.1699 40.2831C45.2278 40.1918 45.2537 40.0839 45.2434 39.9763C45.2331 39.8688 45.1873 39.7677 45.1131 39.6891C45.039 39.6105 44.9407 39.5588 44.8339 39.5423C44.7272 39.5257 44.6179 39.5452 44.5235 39.5977Z" fill="url(#paint1_radial_193_4104)"/>
<path d="M29.2929 45.7804C28.2091 45.1077 27.2698 44.2262 26.5297 43.1873C25.6861 42.0315 25.1057 40.7052 24.829 39.3014C24.5523 37.8975 24.586 36.4501 24.9279 35.0607C25.2699 33.6713 25.9116 32.3736 26.8082 31.2584C27.7048 30.1433 28.8344 29.2379 30.118 28.6056C30.4971 28.4269 31.1448 28.1037 32.0063 28.1195C32.6133 28.1239 33.211 28.2689 33.7526 28.5429C34.2942 28.817 34.765 29.2127 35.128 29.6992C35.6187 30.3544 35.8893 31.1482 35.9009 31.9666C35.9009 31.9411 38.8731 22.2941 26.1798 22.2941C20.8453 22.2941 16.4586 27.3564 16.4586 31.7977C16.4376 34.1472 16.9403 36.4717 17.9302 38.6025C19.5479 42.0542 22.3769 44.7916 25.88 46.295C29.383 47.7983 33.3161 47.9628 36.9325 46.7573C35.6663 47.1566 34.3285 47.2764 33.0115 47.1086C31.6945 46.9408 30.4295 46.4893 29.3039 45.7852L29.2929 45.7804Z" fill="url(#paint2_linear_193_4104)"/>
<path opacity="0.41" d="M29.2929 45.7804C28.2091 45.1077 27.2698 44.2262 26.5297 43.1873C25.6861 42.0315 25.1057 40.7052 24.829 39.3014C24.5523 37.8975 24.586 36.4501 24.9279 35.0607C25.2699 33.6713 25.9116 32.3736 26.8082 31.2584C27.7048 30.1433 28.8344 29.2379 30.118 28.6056C30.4971 28.4269 31.1448 28.1037 32.0063 28.1195C32.6133 28.1239 33.211 28.2689 33.7526 28.5429C34.2942 28.817 34.765 29.2127 35.128 29.6992C35.6187 30.3544 35.8893 31.1482 35.9009 31.9666C35.9009 31.9411 38.8731 22.2941 26.1798 22.2941C20.8453 22.2941 16.4586 27.3564 16.4586 31.7977C16.4376 34.1472 16.9403 36.4717 17.9302 38.6025C19.5479 42.0542 22.3769 44.7916 25.88 46.295C29.383 47.7983 33.3161 47.9628 36.9325 46.7573C35.6663 47.1566 34.3285 47.2764 33.0115 47.1086C31.6945 46.9408 30.4295 46.4893 29.3039 45.7852L29.2929 45.7804Z" fill="url(#paint3_radial_193_4104)"/>
<path d="M34.9555 34.533C34.857 34.6606 34.5545 34.8368 34.5545 35.2208C34.5545 35.5379 34.761 35.8429 35.128 36.0993C36.8754 37.3144 40.1696 37.154 40.1781 37.154C41.4729 37.1509 42.7431 36.8006 43.8563 36.1394C44.9794 35.4837 45.9114 34.5457 46.5601 33.4185C47.2087 32.2914 47.5513 31.0142 47.554 29.7138C47.5856 26.9906 46.5819 25.1801 46.176 24.3781C43.6012 19.3413 38.0431 16.4445 31.999 16.4445C27.9115 16.4441 23.9882 18.0527 21.0775 20.9224C18.1668 23.7922 16.5027 27.6924 16.4453 31.7795C16.5036 27.3394 20.917 23.7535 26.1664 23.7535C26.5917 23.7535 29.0171 23.7948 31.2699 24.9772C33.2555 26.0197 34.2956 27.2786 35.0186 28.5266C35.7696 29.8231 35.9033 31.4611 35.9033 32.1137C35.9033 32.7662 35.5703 33.7334 34.9555 34.533Z" fill="url(#paint4_radial_193_4104)"/>
<path d="M34.9555 34.533C34.857 34.6606 34.5545 34.8368 34.5545 35.2208C34.5545 35.5379 34.761 35.8429 35.128 36.0993C36.8754 37.3144 40.1696 37.154 40.1781 37.154C41.4729 37.1509 42.7431 36.8006 43.8563 36.1394C44.9794 35.4837 45.9114 34.5457 46.5601 33.4185C47.2087 32.2914 47.5513 31.0142 47.554 29.7138C47.5856 26.9906 46.5819 25.1801 46.176 24.3781C43.6012 19.3413 38.0431 16.4445 31.999 16.4445C27.9115 16.4441 23.9882 18.0527 21.0775 20.9224C18.1668 23.7922 16.5027 27.6924 16.4453 31.7795C16.5036 27.3394 20.917 23.7535 26.1664 23.7535C26.5917 23.7535 29.0171 23.7948 31.2699 24.9772C33.2555 26.0197 34.2956 27.2786 35.0186 28.5266C35.7696 29.8231 35.9033 31.4611 35.9033 32.1137C35.9033 32.7662 35.5703 33.7334 34.9555 34.533Z" fill="url(#paint5_radial_193_4104)"/>
</g>
<defs>
<filter id="filter0_d_193_4104" x="0" y="0" width="64" height="64" filterUnits="userSpaceOnUse" color-interpolation-filters="sRGB">
<feFlood flood-opacity="0" result="BackgroundImageFix"/>
<feColorMatrix in="SourceAlpha" type="matrix" values="0 0 0 0 0 0 0 0 0 0 0 0 0 0 0 0 0 0 127 0" result="hardAlpha"/>
<feOffset/>
<feGaussianBlur stdDeviation="2"/>
<feComposite in2="hardAlpha" operator="out"/>
<feColorMatrix type="matrix" values="0 0 0 0 0 0 0 0 0 0 0 0 0 0 0 0 0 0 0.1 0"/>
<feBlend mode="normal" in2="BackgroundImageFix" result="effect1_dropShadow_193_4104"/>
<feBlend mode="normal" in="SourceGraphic" in2="effect1_dropShadow_193_4104" result="shape"/>
</filter>
<linearGradient id="paint0_linear_193_4104" x1="23.5806" y1="37.9585" x2="45.2513" y2="37.9585" gradientUnits="userSpaceOnUse">
<stop stop-color="#0C59A4"/>
<stop offset="1" stop-color="#114A8B"/>
</linearGradient>
<radialGradient id="paint1_radial_193_4104" cx="0" cy="0" r="1" gradientUnits="userSpaceOnUse" gradientTransform="translate(35.5497 38.1293) scale(11.59 11.0105)">
<stop offset="0.72" stop-opacity="0"/>
<stop offset="0.95" stop-opacity="0.53"/>
<stop offset="1"/>
</radialGradient>
<linearGradient id="paint2_linear_193_4104" x1="35.0053" y1="28.5582" x2="21.4699" y2="43.3015" gradientUnits="userSpaceOnUse">
<stop stop-color="#1B9DE2"/>
<stop offset="0.16" stop-color="#1595DF"/>
<stop offset="0.67" stop-color="#0680D7"/>
<stop offset="1" stop-color="#0078D4"/>
</linearGradient>
<radialGradient id="paint3_radial_193_4104" cx="0" cy="0" r="1" gradientUnits="userSpaceOnUse" gradientTransform="translate(25.0235 40.6267) rotate(-81.3844) scale(17.4283 14.0803)">
<stop offset="0.76" stop-opacity="0"/>
<stop offset="0.95" stop-opacity="0.5"/>
<stop offset="1"/>
</radialGradient>
<radialGradient id="paint4_radial_193_4104" cx="0" cy="0" r="1" gradientUnits="userSpaceOnUse" gradientTransform="translate(19.5879 22.2014) rotate(92.2906) scale(24.6177 52.4306)">
<stop stop-color="#35C1F1"/>
<stop offset="0.11" stop-color="#34C1ED"/>
<stop offset="0.23" stop-color="#2FC2DF"/>
<stop offset="0.31" stop-color="#2BC3D2"/>
<stop offset="0.67" stop-color="#36C752"/>
</radialGradient>
<radialGradient id="paint5_radial_193_4104" cx="0" cy="0" r="1" gradientUnits="userSpaceOnUse" gradientTransform="translate(45.6173 25.8504) rotate(73.7398) scale(11.8282 9.61866)">
<stop stop-color="#66EB6E"/>
<stop offset="1" stop-color="#66EB6E" stop-opacity="0"/>
</radialGradient>
</defs>
</svg>
