<svg width="65" height="64" viewBox="0 0 65 64" fill="none" xmlns="http://www.w3.org/2000/svg">
<g filter="url(#filter0_d_193_4614)">
<rect x="4.56433" y="4" width="56.3129" height="56" rx="16" fill="white" shape-rendering="crispEdges"/>
<path d="M28.4727 23.1314C24.3844 22.3909 21.1518 23.1661 19.8635 25.3849C18.9021 27.0406 19.1766 29.2362 20.5295 31.5831C20.5569 31.6306 20.5934 31.6723 20.637 31.7058C20.6806 31.7393 20.7304 31.7639 20.7836 31.7783C20.8368 31.7926 20.8922 31.7964 20.9469 31.7894C21.0015 31.7824 21.0542 31.7648 21.102 31.7375C21.1985 31.6825 21.2691 31.5916 21.2982 31.4848C21.3273 31.378 21.3126 31.2641 21.2573 31.1681C20.0384 29.0543 19.8009 27.1595 20.5897 25.8018C21.6598 23.9586 24.5428 23.2671 28.3222 23.9518C28.3905 23.9652 28.4611 23.9615 28.5277 23.941C28.5942 23.9205 28.6545 23.8839 28.7033 23.8344C28.752 23.7849 28.7875 23.7241 28.8067 23.6576C28.826 23.591 28.8282 23.5207 28.8132 23.4531C28.7952 23.3718 28.7531 23.2977 28.6923 23.2403C28.6316 23.183 28.555 23.1451 28.4723 23.1315L28.4727 23.1314ZM22.6556 34.4354C24.3085 36.242 26.4563 37.9365 28.9056 39.3429C34.8359 42.7478 41.1494 43.6579 44.2608 41.5481C44.3504 41.4849 44.4115 41.3892 44.4309 41.2817C44.4504 41.1742 44.4266 41.0633 44.3647 40.9731C44.3029 40.8828 44.2078 40.8203 44.1001 40.799C43.9923 40.7776 43.8805 40.7992 43.7886 40.8591C41.0037 42.7474 35.0064 41.8828 29.3249 38.6207C26.9485 37.2562 24.869 35.6156 23.2759 33.8744C23.2205 33.8119 23.1475 33.7673 23.0664 33.7464C22.9853 33.7255 22.8998 33.7292 22.8208 33.757C22.7552 33.7802 22.6964 33.8193 22.6497 33.8708C22.6031 33.9222 22.5701 33.9844 22.5537 34.0517C22.5373 34.1191 22.538 34.1894 22.5558 34.2564C22.5736 34.3234 22.6079 34.3849 22.6556 34.4354Z" fill="#2DD0ED"/>
<path d="M43.2687 33.9282C45.9456 30.7834 46.8804 27.6203 45.5949 25.4059C44.6489 23.7766 42.6488 22.9163 39.9911 22.882C39.88 22.8806 39.7728 22.9231 39.6931 23.0002C39.6134 23.0774 39.5678 23.1828 39.5663 23.2933C39.565 23.3758 39.5885 23.4568 39.6337 23.526C39.6788 23.5952 39.7437 23.6495 39.8199 23.6819C39.8705 23.7036 39.9249 23.7151 39.98 23.7159C42.3703 23.7466 44.0936 24.4879 44.8687 25.8229C45.9363 27.6622 45.103 30.483 42.6287 33.3896C42.5919 33.4312 42.5638 33.4797 42.546 33.5322C42.5283 33.5848 42.5212 33.6403 42.5253 33.6956C42.5294 33.7509 42.5445 33.8048 42.5699 33.8541C42.5952 33.9035 42.6301 33.9474 42.6727 33.9832C42.7153 34.0189 42.7646 34.0458 42.8177 34.0624C42.8709 34.079 42.9268 34.0849 42.9823 34.0798C43.0377 34.0747 43.0916 34.0586 43.1408 34.0326C43.19 34.0066 43.2334 33.9711 43.2687 33.9282ZM36.3891 23.2702C33.9686 23.786 31.3924 24.7943 28.9185 26.2147C22.7961 29.7297 18.8024 34.9125 19.3572 38.6709C19.3641 38.726 19.382 38.7791 19.4099 38.8273C19.4377 38.8754 19.475 38.9175 19.5194 38.9511C19.5638 38.9847 19.6146 39.0092 19.6686 39.0231C19.7227 39.0369 19.779 39.0399 19.8342 39.0318C19.8895 39.0237 19.9425 39.0048 19.9903 38.976C20.0381 38.9473 20.0796 38.9093 20.1124 38.8644C20.1452 38.8195 20.1687 38.7685 20.1814 38.7145C20.1942 38.6604 20.1959 38.6044 20.1866 38.5496C19.6943 35.2129 23.4797 30.2999 29.3374 26.9368C31.7374 25.5588 34.2321 24.5828 36.5648 24.0853C36.6702 24.0589 36.7612 23.9929 36.8187 23.9012C36.8761 23.8094 36.8955 23.699 36.8727 23.5934C36.8499 23.4877 36.7867 23.3949 36.6965 23.3346C36.6063 23.2743 36.4961 23.2512 36.3891 23.2702Z" fill="#2DD0ED"/>
<path d="M26.4707 41.2763C27.8709 45.1625 30.1603 47.5556 32.7352 47.5556C34.6129 47.5556 36.3501 46.2828 37.705 44.0417C37.7354 43.9948 37.756 43.9422 37.7656 43.8872C37.7752 43.8322 37.7736 43.7759 37.7609 43.7215C37.745 43.6534 37.7122 43.5903 37.6653 43.5381C37.6185 43.4859 37.5592 43.4463 37.493 43.4229C37.4267 43.3995 37.3556 43.393 37.2861 43.4041C37.2167 43.4152 37.1512 43.4435 37.0957 43.4864C37.0513 43.5206 37.0143 43.5633 36.9869 43.612C35.7691 45.6261 34.2734 46.7221 32.7352 46.7221C30.5967 46.7221 28.5542 44.5875 27.2603 40.9951C27.2425 40.9425 27.2144 40.8939 27.1776 40.8522C27.1408 40.8105 27.0959 40.7765 27.0458 40.7522C26.9955 40.728 26.941 40.714 26.8853 40.711C26.8296 40.7081 26.7738 40.7162 26.7213 40.735C26.6688 40.7537 26.6206 40.7827 26.5795 40.8202C26.5383 40.8577 26.5051 40.903 26.4818 40.9534C26.4585 41.0038 26.4455 41.0583 26.4436 41.1137C26.4418 41.1692 26.4511 41.2245 26.4711 41.2763H26.4707ZM39.2557 40.5158C39.9803 38.2138 40.3691 35.5573 40.3691 32.7892C40.3691 25.8827 37.9385 19.9287 34.4761 18.3998C34.3749 18.3575 34.261 18.3563 34.159 18.3965C34.0569 18.4367 33.9748 18.5152 33.9302 18.6149C33.8857 18.7147 33.8823 18.8279 33.9207 18.9302C33.9591 19.0324 34.0364 19.1156 34.1358 19.1619C37.2239 20.5256 39.531 26.176 39.531 32.7892C39.531 35.4743 39.1538 38.047 38.4557 40.267C38.4376 40.3196 38.4304 40.3753 38.4343 40.4308C38.4383 40.4863 38.4534 40.5404 38.4787 40.59C38.5169 40.6647 38.5768 40.7262 38.6506 40.7665C38.7244 40.8069 38.8087 40.8242 38.8926 40.8162C38.9765 40.8082 39.056 40.7753 39.1207 40.7217C39.1855 40.6681 39.2325 40.5964 39.2557 40.5158ZM47.1512 40.1077C47.1528 39.8446 47.1022 39.5838 47.0021 39.3402C46.902 39.0967 46.7545 38.8752 46.568 38.6886C46.3815 38.5019 46.1598 38.3538 45.9155 38.2527C45.6712 38.1517 45.4093 38.0996 45.1447 38.0996C44.8801 38.0997 44.6182 38.1517 44.3739 38.2528C44.1296 38.3539 43.9079 38.502 43.7214 38.6886C43.5349 38.8753 43.3874 39.0967 43.2873 39.3403C43.1872 39.5838 43.1366 39.8447 43.1383 40.1078C43.1417 40.6347 43.3546 41.139 43.7305 41.5104C44.1064 41.8818 44.6148 42.0903 45.1448 42.0903C45.6747 42.0903 46.1831 41.8818 46.559 41.5104C46.9349 41.1389 47.1478 40.6347 47.1512 40.1077ZM46.3126 40.1077C46.3126 40.4157 46.1895 40.7111 45.9705 40.9289C45.7515 41.1467 45.4544 41.2691 45.1447 41.2691C44.9137 41.2691 44.6879 41.201 44.4959 41.0734C44.3039 40.9458 44.1542 40.7644 44.0658 40.5522C43.9774 40.34 43.9543 40.1065 43.9994 39.8812C44.0444 39.6559 44.1556 39.449 44.319 39.2866C44.4823 39.1241 44.6904 39.0135 44.9169 38.9687C45.1434 38.9239 45.3783 38.9469 45.5917 39.0348C45.805 39.1227 45.9874 39.2715 46.1158 39.4625C46.2441 39.6535 46.3126 39.878 46.3126 40.1077ZM20.2969 42.103C20.5604 42.103 20.8213 42.0515 21.0647 41.9512C21.3082 41.8509 21.5294 41.704 21.7157 41.5187C21.9021 41.3334 22.0498 41.1134 22.1507 40.8713C22.2515 40.6292 22.3034 40.3697 22.3033 40.1077C22.3034 39.8457 22.2515 39.5862 22.1506 39.3441C22.0498 39.102 21.902 38.882 21.7157 38.6967C21.5293 38.5114 21.3081 38.3645 21.0647 38.2642C20.8212 38.1639 20.5603 38.1123 20.2968 38.1124C20.0333 38.1124 19.7724 38.164 19.5289 38.2642C19.2855 38.3645 19.0643 38.5115 18.878 38.6968C18.6917 38.8821 18.5439 39.102 18.4431 39.3441C18.3423 39.5862 18.2904 39.8457 18.2904 40.1077C18.2904 40.3697 18.3423 40.6292 18.4431 40.8713C18.5439 41.1134 18.6917 41.3334 18.878 41.5186C19.0644 41.7039 19.2856 41.8509 19.529 41.9512C19.7724 42.0514 20.0334 42.103 20.2969 42.103ZM20.2969 41.2691C19.987 41.2691 19.6899 41.1468 19.4708 40.9289C19.2518 40.711 19.1287 40.4156 19.1287 40.1075C19.1287 39.7994 19.2518 39.5039 19.4708 39.286C19.6899 39.0681 19.987 38.9458 20.2969 38.9458C20.6067 38.9458 20.9038 39.0681 21.1229 39.286C21.342 39.5039 21.4651 39.7994 21.4651 40.1075C21.4651 40.4156 21.342 40.711 21.1229 40.9289C20.9038 41.1468 20.6067 41.2691 20.2969 41.2691Z" fill="#2DD0ED"/>
<path d="M32.7353 20.4351C33.1321 20.4351 33.5201 20.3181 33.8501 20.0988C34.18 19.8796 34.4372 19.5679 34.589 19.2033C34.7152 18.9001 34.7643 18.5707 34.7319 18.2442C34.6995 17.9177 34.5867 17.6041 34.4034 17.3313C34.2201 17.0585 33.972 16.8349 33.681 16.6802C33.39 16.5255 33.0652 16.4445 32.7353 16.4445C32.3384 16.4444 31.9504 16.5614 31.6204 16.7806C31.2904 16.9998 31.0332 17.3115 30.8814 17.6761C30.7295 18.0407 30.6898 18.4419 30.7672 18.829C30.8447 19.216 31.0358 19.5716 31.3165 19.8506C31.5028 20.0359 31.724 20.1829 31.9674 20.2831C32.2109 20.3834 32.4718 20.435 32.7353 20.435V20.4351ZM32.7353 19.6011C32.5043 19.6011 32.2785 19.533 32.0864 19.4054C31.8944 19.2778 31.7447 19.0964 31.6562 18.8842C31.5975 18.7433 31.5673 18.5923 31.5673 18.4397C31.5673 18.2872 31.5975 18.1362 31.6562 17.9953C31.7149 17.8543 31.8009 17.7263 31.9094 17.6185C32.0178 17.5106 32.1466 17.4251 32.2883 17.3667C32.4479 17.301 32.6201 17.2713 32.7926 17.2797C32.9651 17.2882 33.1336 17.3345 33.2859 17.4155C33.4383 17.4965 33.5706 17.61 33.6735 17.748C33.7764 17.8859 33.8472 18.0449 33.8809 18.2133C33.9146 18.3818 33.9103 18.5556 33.8684 18.7222C33.8264 18.8888 33.7478 19.0441 33.6382 19.1769C33.5287 19.3096 33.3908 19.4166 33.2347 19.49C33.0786 19.5635 32.908 19.6015 32.7353 19.6015V19.6011ZM33.0418 34.2007C32.6654 34.2815 32.2721 34.2103 31.9484 34.0029C31.707 33.8482 31.5172 33.6257 31.4029 33.3637C31.2887 33.1016 31.2551 32.8118 31.3065 32.5308C31.3579 32.2498 31.492 31.9903 31.6917 31.7851C31.8915 31.5798 32.148 31.4381 32.4287 31.3779C32.8025 31.3036 33.1907 31.3785 33.5095 31.5863C33.8283 31.7942 34.0522 32.1184 34.1327 32.4889C34.2131 32.8595 34.1438 33.2466 33.9397 33.5668C33.7356 33.887 33.4131 34.1145 33.0418 34.2003V34.2007Z" fill="#2DD0ED"/>
</g>
<defs>
<filter id="filter0_d_193_4614" x="0.564331" y="0" width="64.3129" height="64" filterUnits="userSpaceOnUse" color-interpolation-filters="sRGB">
<feFlood flood-opacity="0" result="BackgroundImageFix"/>
<feColorMatrix in="SourceAlpha" type="matrix" values="0 0 0 0 0 0 0 0 0 0 0 0 0 0 0 0 0 0 127 0" result="hardAlpha"/>
<feOffset/>
<feGaussianBlur stdDeviation="2"/>
<feComposite in2="hardAlpha" operator="out"/>
<feColorMatrix type="matrix" values="0 0 0 0 0 0 0 0 0 0 0 0 0 0 0 0 0 0 0.1 0"/>
<feBlend mode="normal" in2="BackgroundImageFix" result="effect1_dropShadow_193_4614"/>
<feBlend mode="normal" in="SourceGraphic" in2="effect1_dropShadow_193_4614" result="shape"/>
</filter>
</defs>
</svg>
