<svg width="66" height="64" viewBox="0 0 66 64" fill="none" xmlns="http://www.w3.org/2000/svg">
<g filter="url(#filter0_d_193_4602)">
<rect x="4.9386" y="4" width="56.3129" height="56" rx="16" fill="white" shape-rendering="crispEdges"/>
<g clip-path="url(#clip0_193_4602)">
<path d="M48.7188 34.5943C48.643 33.849 48.1017 33.5167 47.5938 33.5167C47.3612 33.5167 47.176 33.5832 47.1049 33.6116L47.0051 33.6544L46.9197 33.7161C46.801 33.8062 46.5922 33.9297 46.407 33.9961C46.3976 33.8442 46.4023 33.6496 46.426 33.4882L46.4307 33.4597C46.5684 32.1495 46.2931 31.3852 45.6142 31.1906C45.5003 31.1573 45.3816 31.1431 45.2629 31.1431C44.8499 31.1431 44.4844 31.3425 44.247 31.5134C44.0477 31.2618 43.7154 31.1194 43.2977 31.1194C42.6758 31.1194 42.1773 31.409 41.9969 31.8742C41.9779 31.9216 41.9542 31.9928 41.9257 32.0878C41.5602 31.2808 40.8149 30.9722 40.1218 30.9722C39.4667 30.9722 38.8306 31.2286 38.5932 31.4089C38.5837 31.4184 38.5695 31.4232 38.5552 31.4374C37.9334 31.8789 37.4491 32.4343 37.1073 33.1036C36.9412 32.5245 36.5757 31.9834 35.9206 31.5751L35.9111 31.5656C35.8921 31.5561 35.8779 31.5467 35.8588 31.5371C36.4997 30.3978 37.0694 28.8882 36.7276 27.4498C36.3668 25.9165 35.4648 25.6886 34.9569 25.6886C34.748 25.6886 34.5344 25.7266 34.316 25.8026L34.3018 25.8073L34.2875 25.812C33.3334 26.1871 32.9156 26.752 32.8254 26.885C32.7305 27.0273 31.6861 28.6129 31.4345 30.9342C31.4061 31.1906 31.3775 31.4564 31.349 31.7223C31.2019 31.5134 30.9598 31.3235 30.5753 31.2048C30.4566 31.1669 30.3332 31.1526 30.2098 31.1526C29.6828 31.1526 29.2555 31.4754 29.0277 31.689L29.0229 31.6843C28.8236 31.3899 28.5055 31.2143 28.1542 31.2001H28.0688C27.5086 31.2001 27.0624 31.4469 26.7348 31.727C26.526 31.3615 26.1414 31.1336 25.6905 31.1336C25.6525 31.1336 25.6192 31.1336 25.586 31.1384H25.51C24.8882 31.1384 24.3992 31.4327 24.1999 31.9216C24.1856 31.9596 24.1666 32.0071 24.1476 32.0688C23.6587 31.4612 23.0368 31.1763 22.2013 31.1763H22.1206C21.5984 31.1858 20.2977 31.4042 19.5001 33.1987C19.3767 33.474 19.2818 33.7541 19.2106 34.0294C19.0677 33.9635 18.9122 33.9295 18.7548 33.9297C18.3371 33.9297 18.0238 34.167 17.8719 34.3902C17.7485 34.5706 17.3544 35.2114 17.5491 35.838C17.6536 36.1751 17.8956 36.4314 18.2374 36.5643C18.5365 36.6831 18.9163 36.797 19.2011 36.8777C19.3767 37.2764 19.6901 37.7369 20.2455 38.1594C20.6395 38.4585 21.1427 38.6104 21.7361 38.6104C22.733 38.6104 23.6966 38.1784 23.8011 38.1309L23.8391 38.112L23.8485 38.1024C24.0384 38.3018 24.29 38.4442 24.6081 38.506C24.703 38.5249 24.8264 38.5392 24.9689 38.5392C25.51 38.5392 25.8851 38.2638 26.2316 37.7464C26.5164 38.1926 27.0339 38.4442 27.6463 38.4442H27.651C27.6843 38.4442 27.7175 38.468 27.7555 38.468C28.0782 38.468 28.4818 38.3541 28.8188 37.8129C29.0989 38.316 29.6116 38.6056 30.2193 38.6056C30.7604 38.6056 31.2304 38.3825 31.3158 38.3398L31.3348 38.3303C31.5152 38.2353 31.6671 38.1499 31.7858 38.0834C32.1893 38.297 32.8017 38.5344 33.5517 38.5344C33.6799 38.5344 33.8081 38.5297 33.9362 38.5155L33.9695 38.5107L34.0027 38.506C35.593 38.1926 36.6279 37.8129 37.245 37.5233C37.677 38.0075 38.3653 38.4727 39.348 38.5439C39.4572 38.5534 39.5711 38.5581 39.6803 38.5581C40.4873 38.5581 41.1329 38.3303 41.6077 38.0787C41.7596 38.2401 41.9495 38.3872 42.1963 38.4869C42.3434 38.5487 42.4953 38.5771 42.652 38.5771C43.6394 38.5771 44.0999 37.3998 44.2281 37.0011L44.4654 36.365C44.6743 36.588 44.9402 36.7685 45.2772 36.8634C45.4623 36.9157 45.6617 36.9441 45.8659 36.9441C46.953 36.9441 47.9973 36.1751 48.1634 36.0469C48.4625 35.8001 48.7901 35.2921 48.7188 34.5943Z" fill="white"/>
<path d="M38.76 34.9162C38.76 34.9162 38.6224 34.4321 39.1351 33.4968C39.643 32.5664 40.0418 33.0743 40.0418 33.0743C40.0418 33.0743 40.4785 33.5491 39.9801 34.2564C39.4816 34.9685 38.76 34.9163 38.76 34.9163V34.9162ZM34.8437 35.5903C34.2598 37.1189 32.8404 36.4971 32.8404 36.4971C32.8404 36.4971 32.679 35.9512 33.1394 34.4178C33.5999 32.8892 34.6822 33.4874 34.6822 33.4874C34.6822 33.4874 35.4275 34.0617 34.8437 35.5903ZM33.7851 29.1863C33.7851 29.1863 34.668 26.884 34.8817 28.0043C35.0953 29.1246 33.0303 32.4571 33.0303 32.4571C33.0492 31.7071 33.7851 29.1864 33.7851 29.1864V29.1863ZM21.1576 34.9162C21.1956 33.4351 22.164 32.7895 22.5011 33.1123C22.8381 33.4351 22.7147 34.1329 22.0786 34.5697C21.4472 35.0064 21.1576 34.9162 21.1576 34.9162ZM47.9125 34.6741C47.8651 34.1756 47.4141 34.3608 47.4141 34.3608C47.4141 34.3608 46.6925 34.9209 46.0565 34.8592C45.4251 34.7927 45.6245 33.3781 45.6245 33.3781C45.6245 33.3781 45.7621 32.0774 45.3871 31.9682C45.0121 31.859 44.5516 32.3052 44.5516 32.3052C44.5516 32.3052 43.9772 32.9413 43.7065 33.7484L43.6306 33.7721C43.6306 33.7721 43.7161 32.3527 43.6164 32.0299C43.5405 31.8685 42.8569 31.8827 42.7477 32.1676C42.6337 32.4524 42.0878 34.4415 42.0498 35.277C42.0498 35.277 40.9817 36.1837 40.0465 36.3356C39.1114 36.4827 38.8882 35.8988 38.8882 35.8988C38.8882 35.8988 41.428 35.1915 41.3378 33.1645C41.2523 31.1374 39.2917 31.8874 39.0686 32.0536C38.855 32.2151 37.7109 32.9034 37.3739 34.8165C37.3644 34.883 37.3407 35.1678 37.3407 35.1678C37.3407 35.1678 36.358 35.8277 35.8121 36.0033C35.8121 36.0033 37.3407 33.4303 35.475 32.2578C34.63 31.7498 33.956 32.8179 33.956 32.8179C33.956 32.8179 36.4814 30.0076 35.9213 27.6292C35.6554 26.4995 35.0905 26.3761 34.5683 26.5612C33.7803 26.8745 33.4812 27.3302 33.4812 27.3302C33.4812 27.3302 32.4606 28.8113 32.2232 31.014C31.9859 33.2167 31.6393 35.8751 31.6393 35.8751C31.6393 35.8751 31.1551 36.3498 30.7089 36.3735C30.2627 36.3973 30.462 35.0443 30.462 35.0443C30.462 35.0443 30.8086 32.9793 30.7848 32.6328C30.7611 32.2862 30.7374 32.0963 30.3244 31.9729C29.9161 31.8495 29.4651 32.3717 29.4651 32.3717C29.4651 32.3717 28.2831 34.1614 28.1834 34.4367L28.1217 34.5507L28.06 34.4747C28.06 34.4747 28.8955 32.0346 28.098 32.0015C27.3004 31.9634 26.7783 32.8701 26.7783 32.8701C26.7783 32.8701 25.8715 34.3892 25.8336 34.5602L25.7719 34.4842C25.7719 34.4842 26.1469 32.7182 26.071 32.2815C25.995 31.8448 25.5867 31.935 25.5867 31.935C25.5867 31.935 25.0646 31.8733 24.9268 32.2103C24.7892 32.5473 24.2908 34.7738 24.2291 35.481C24.2291 35.481 22.9236 36.4163 22.0643 36.4258C21.2051 36.44 21.2953 35.8798 21.2953 35.8798C21.2953 35.8798 24.4426 34.8023 23.5834 32.6755C23.1989 32.1296 22.7479 31.9587 22.1166 31.9682C21.4805 31.9825 20.7351 32.367 20.2224 33.511C19.9804 34.057 19.8806 34.5744 19.8806 34.9684C19.8806 34.9684 19.292 35.0824 18.993 34.8307C18.6939 34.5839 18.523 34.8307 18.523 34.8307C18.523 34.8307 18.0008 35.5761 18.5087 35.7754C19.0167 35.9748 19.8047 36.1599 19.8047 36.1599C19.8759 36.4827 20.0895 37.0097 20.7114 37.4797C21.6419 38.187 23.4363 37.3705 23.4363 37.3705L24.1721 36.9337C24.1721 36.9337 24.1958 37.5936 24.7322 37.6933C25.2687 37.793 25.4918 37.6838 26.4222 35.4242C26.9682 34.2658 27.0061 34.3275 27.0061 34.3275L27.0678 34.3133C27.0678 34.3133 26.6454 36.5254 26.8067 37.1236C26.9682 37.7218 27.6755 37.6601 27.6755 37.6601C27.6755 37.6601 28.06 37.7977 28.3733 36.7011C28.6866 35.6045 29.28 34.4605 29.28 34.4605H29.356C29.356 34.4605 29.0948 36.6632 29.4937 37.3847C29.8924 38.1063 30.9225 37.5983 30.9225 37.5983C30.9225 37.5983 31.6441 37.2186 31.758 37.1046C31.758 37.1046 32.6125 37.8262 33.823 37.6933C36.5242 37.1616 37.4831 36.44 37.4831 36.44C37.4831 36.44 37.9483 37.6126 39.3819 37.7217C41.0244 37.8452 41.9217 36.8103 41.9217 36.8103C41.9217 36.8103 41.9074 37.4797 42.4818 37.717C43.0562 37.9544 43.4407 36.7011 43.4407 36.7011L44.3997 34.1329H44.4851C44.4851 34.1329 44.5326 35.7754 45.482 36.0507C46.4362 36.3214 47.6658 35.3719 47.6658 35.3719C47.6658 35.3719 47.9648 35.1725 47.9126 34.6741" fill="#E24B31"/>
</g>
</g>
<defs>
<filter id="filter0_d_193_4602" x="0.938599" y="0" width="64.3129" height="64" filterUnits="userSpaceOnUse" color-interpolation-filters="sRGB">
<feFlood flood-opacity="0" result="BackgroundImageFix"/>
<feColorMatrix in="SourceAlpha" type="matrix" values="0 0 0 0 0 0 0 0 0 0 0 0 0 0 0 0 0 0 127 0" result="hardAlpha"/>
<feOffset/>
<feGaussianBlur stdDeviation="2"/>
<feComposite in2="hardAlpha" operator="out"/>
<feColorMatrix type="matrix" values="0 0 0 0 0 0 0 0 0 0 0 0 0 0 0 0 0 0 0.1 0"/>
<feBlend mode="normal" in2="BackgroundImageFix" result="effect1_dropShadow_193_4602"/>
<feBlend mode="normal" in="SourceGraphic" in2="effect1_dropShadow_193_4602" result="shape"/>
</filter>
<clipPath id="clip0_193_4602">
<rect width="31.2849" height="13.0145" fill="white" transform="translate(17.4525 25.6492)"/>
</clipPath>
</defs>
</svg>
