<svg width="64" height="64" viewBox="0 0 64 64" fill="none" xmlns="http://www.w3.org/2000/svg">
<g filter="url(#filter0_d_193_4842)">
<rect x="4" y="4" width="56" height="56" rx="16" fill="white" shape-rendering="crispEdges"/>
<path d="M25.9193 28.1268L31.822 24.7189C31.8946 24.677 31.9769 24.6549 32.0608 24.6549C32.1446 24.6549 32.227 24.677 32.2996 24.7189L38.2022 28.1268C38.2748 28.1687 38.335 28.229 38.377 28.3016C38.4189 28.3742 38.4409 28.4565 38.441 28.5404V35.3561C38.441 35.5266 38.3498 35.6842 38.2022 35.7697L32.2996 39.1776C32.227 39.2195 32.1446 39.2416 32.0608 39.2416C31.9769 39.2416 31.8946 39.2195 31.822 39.1776L25.9193 35.7697C25.8468 35.7278 25.7865 35.6675 25.7446 35.5949C25.7026 35.5223 25.6806 35.4399 25.6805 35.3561V28.5402C25.6807 28.3696 25.7717 28.2121 25.9193 28.1267" fill="#8080F2"/>
<path d="M47.3632 31.3897L40.3031 19.1072C40.0467 18.6631 39.573 18.3355 39.0602 18.3355H24.9399C24.4271 18.3355 23.9531 18.6631 23.6967 19.1072L16.6368 31.3626C16.3804 31.8068 16.3804 32.3674 16.6368 32.8116L23.6967 44.9934C23.9531 45.4375 24.4271 45.6645 24.9399 45.6645H39.06C39.5729 45.6645 40.0467 45.4443 40.303 45.0001L47.3631 32.7984C47.6197 32.3545 47.6197 31.8337 47.3631 31.3897H47.3632ZM41.5171 37.2959C41.5171 37.4764 41.4084 37.6435 41.2519 37.7339L32.259 42.9223C32.1815 42.9667 32.0938 42.99 32.0046 42.99C31.9154 42.99 31.8277 42.9667 31.7502 42.9223L22.7504 37.7339C22.594 37.6435 22.4845 37.4765 22.4845 37.2958V26.9188C22.4845 26.7381 22.5924 26.5712 22.7489 26.4808L31.7414 21.2923C31.8188 21.2478 31.9064 21.2245 31.9957 21.2245C32.0849 21.2245 32.1726 21.2478 32.25 21.2923L41.2503 26.4808C41.407 26.5712 41.5171 26.7381 41.5171 26.9188V37.2958V37.2959Z" fill="#4B32C3"/>
</g>
<defs>
<filter id="filter0_d_193_4842" x="0" y="0" width="64" height="64" filterUnits="userSpaceOnUse" color-interpolation-filters="sRGB">
<feFlood flood-opacity="0" result="BackgroundImageFix"/>
<feColorMatrix in="SourceAlpha" type="matrix" values="0 0 0 0 0 0 0 0 0 0 0 0 0 0 0 0 0 0 127 0" result="hardAlpha"/>
<feOffset/>
<feGaussianBlur stdDeviation="2"/>
<feComposite in2="hardAlpha" operator="out"/>
<feColorMatrix type="matrix" values="0 0 0 0 0 0 0 0 0 0 0 0 0 0 0 0 0 0 0.1 0"/>
<feBlend mode="normal" in2="BackgroundImageFix" result="effect1_dropShadow_193_4842"/>
<feBlend mode="normal" in="SourceGraphic" in2="effect1_dropShadow_193_4842" result="shape"/>
</filter>
</defs>
</svg>
