<svg width="64" height="64" viewBox="0 0 64 64" fill="none" xmlns="http://www.w3.org/2000/svg">
<g filter="url(#filter0_d_193_194)">
<rect x="4" y="4" width="56" height="56" rx="16" fill="white" shape-rendering="crispEdges"/>
<path d="M39.7598 22.9706C37.8351 23.613 36.9084 24.7653 36.2771 26.5599C36.1141 27.0392 35.7067 27.5694 35.2485 27.9263L36.8269 29.619L31.8166 26.1113L17.9875 16.4445C17.9875 16.4445 18.9855 22.9297 19.3318 25.3158C19.5762 26.9984 19.9937 27.7529 21.3175 28.5178L21.8471 28.8033L24.1282 30.0065L22.7738 29.3029L29.0264 32.7189L28.9857 32.8107L22.2544 29.6904C22.6108 30.914 23.3033 33.2695 23.5986 34.3097C23.9143 35.4313 24.2707 35.8392 25.3604 36.2368L27.3665 36.9711L28.6089 36.4816L27.0305 37.5319L19.1383 47.5556C24.3828 42.6814 28.8227 40.9479 32.0712 39.5305C36.2159 37.7358 38.7109 36.5836 40.3402 32.4436C41.5011 29.5374 42.4075 25.8155 43.5582 24.3777L46.0124 21.2371C46.0124 21.2371 40.9309 22.5831 39.7598 22.9706Z" fill="#3F00A5"/>
</g>
<defs>
<filter id="filter0_d_193_194" x="0" y="0" width="64" height="64" filterUnits="userSpaceOnUse" color-interpolation-filters="sRGB">
<feFlood flood-opacity="0" result="BackgroundImageFix"/>
<feColorMatrix in="SourceAlpha" type="matrix" values="0 0 0 0 0 0 0 0 0 0 0 0 0 0 0 0 0 0 127 0" result="hardAlpha"/>
<feOffset/>
<feGaussianBlur stdDeviation="2"/>
<feComposite in2="hardAlpha" operator="out"/>
<feColorMatrix type="matrix" values="0 0 0 0 0 0 0 0 0 0 0 0 0 0 0 0 0 0 0.1 0"/>
<feBlend mode="normal" in2="BackgroundImageFix" result="effect1_dropShadow_193_194"/>
<feBlend mode="normal" in="SourceGraphic" in2="effect1_dropShadow_193_194" result="shape"/>
</filter>
</defs>
</svg>
