<svg width="64" height="64" viewBox="0 0 64 64" fill="none" xmlns="http://www.w3.org/2000/svg">
<g filter="url(#filter0_d_193_5174)">
<rect x="4" y="4" width="56" height="56" rx="16" fill="white" shape-rendering="crispEdges"/>
<path d="M26.8148 47.5556C29.677 47.5556 32 45.2326 32 42.3704V37.1852H26.8148C23.9526 37.1852 21.6296 39.5082 21.6296 42.3704C21.6296 45.2326 23.9526 47.5556 26.8148 47.5556Z" fill="#0ACF83"/>
<path d="M21.6296 32C21.6296 29.1378 23.9526 26.8148 26.8148 26.8148H32V37.1852H26.8148C23.9526 37.1852 21.6296 34.8622 21.6296 32Z" fill="#A259FF"/>
<path d="M21.6296 21.6296C21.6296 18.7674 23.9526 16.4445 26.8148 16.4445H32V26.8148H26.8148C23.9526 26.8148 21.6296 24.4919 21.6296 21.6296Z" fill="#F24E1E"/>
<path d="M32 16.4445H37.1852C40.0474 16.4445 42.3704 18.7674 42.3704 21.6296C42.3704 24.4919 40.0474 26.8148 37.1852 26.8148H32V16.4445Z" fill="#FF7262"/>
<path d="M42.3704 32C42.3704 34.8622 40.0474 37.1852 37.1852 37.1852C34.323 37.1852 32 34.8622 32 32C32 29.1378 34.323 26.8148 37.1852 26.8148C40.0474 26.8148 42.3704 29.1378 42.3704 32Z" fill="#1ABCFE"/>
</g>
<defs>
<filter id="filter0_d_193_5174" x="0" y="0" width="64" height="64" filterUnits="userSpaceOnUse" color-interpolation-filters="sRGB">
<feFlood flood-opacity="0" result="BackgroundImageFix"/>
<feColorMatrix in="SourceAlpha" type="matrix" values="0 0 0 0 0 0 0 0 0 0 0 0 0 0 0 0 0 0 127 0" result="hardAlpha"/>
<feOffset/>
<feGaussianBlur stdDeviation="2"/>
<feComposite in2="hardAlpha" operator="out"/>
<feColorMatrix type="matrix" values="0 0 0 0 0 0 0 0 0 0 0 0 0 0 0 0 0 0 0.1 0"/>
<feBlend mode="normal" in2="BackgroundImageFix" result="effect1_dropShadow_193_5174"/>
<feBlend mode="normal" in="SourceGraphic" in2="effect1_dropShadow_193_5174" result="shape"/>
</filter>
</defs>
</svg>
