<svg width="64" height="64" viewBox="0 0 64 64" fill="none" xmlns="http://www.w3.org/2000/svg">
<g filter="url(#filter0_d_193_4274)">
<rect x="4" y="4" width="56" height="56" rx="16" fill="white" shape-rendering="crispEdges"/>
<path d="M41.2833 19.3389C40.5265 20.2199 40.173 22.2055 40.9414 24.216C41.7084 26.2279 42.886 25.791 43.6194 27.8424C44.588 30.5484 44.1366 34.185 44.1366 34.185C44.1366 34.185 45.3009 37.5557 46.1118 33.9746C47.9058 27.2507 41.2833 20.9957 41.2833 19.3389Z" fill="url(#paint0_radial_193_4274)"/>
<path d="M32.0442 47.2618C39.7975 47.2618 46.0781 40.9455 46.0781 33.1594C46.0781 25.3732 39.7975 19.0569 32.0515 19.0569C24.3055 19.0569 18.0248 25.3717 18.0248 33.1594C18.0102 40.9543 24.2982 47.2618 32.0442 47.2618Z" fill="url(#paint1_radial_193_4274)"/>
<path d="M42.5601 41.8543C42.2563 42.0691 41.9378 42.2605 41.6076 42.4285C42.0459 41.7871 42.4506 41.1223 42.8187 40.4371C43.1182 40.1054 43.3914 39.784 43.6149 39.4362C43.7231 39.2653 43.8458 39.0549 43.9758 38.8094C44.7633 37.3892 45.6325 35.0924 45.6574 32.7327V32.7269C45.6574 32.6684 45.6588 32.61 45.6574 32.553C45.6617 31.9613 45.6004 31.3695 45.4762 30.7909C45.482 30.8362 45.4879 30.8815 45.4937 30.9268C45.4864 30.8918 45.4806 30.8567 45.4733 30.8216C45.485 30.8859 45.4937 30.9487 45.504 31.0101C45.6647 32.3762 45.5507 33.7102 44.9766 34.6921C44.9678 34.7067 44.9576 34.7198 44.9488 34.7344C45.2468 33.2412 45.3462 31.5916 45.0145 29.9406C45.0145 29.9406 44.8816 29.1384 43.8954 26.7013C43.3286 25.2987 42.3205 24.1488 41.4294 23.3116C40.6492 22.3458 39.9392 21.6971 39.5491 21.2865C38.7324 20.4274 38.3906 19.7831 38.2503 19.3623C38.129 19.3009 36.5702 17.7872 36.446 17.7302C35.7652 18.7851 33.6264 22.0828 34.6447 25.1657C35.1063 26.5625 36.2722 28.0119 37.4921 28.8258C37.5461 28.8871 38.2182 29.6177 38.5381 31.2658C38.8683 32.968 38.6944 34.2961 38.0151 36.2613C37.216 37.9854 35.1677 39.689 33.2494 39.8629C29.15 40.2354 27.6481 37.8042 27.6481 37.8042C29.1135 38.3901 30.7322 38.2674 31.7184 37.6595C32.7118 37.0459 33.3123 36.59 33.7988 36.7697C34.2794 36.948 34.6622 36.4293 34.3189 35.8916C33.7769 35.0573 32.7892 34.6263 31.8089 34.7987C30.8155 34.9609 29.9053 35.747 28.6021 34.9857C28.5174 34.9375 28.4356 34.8835 28.3582 34.825C28.272 34.768 28.6372 34.9112 28.5525 34.8469C28.2997 34.7096 27.8512 34.4086 27.7343 34.3019C27.7153 34.2844 27.9316 34.3706 27.9111 34.3531C26.6941 33.3508 26.8461 32.6728 26.8841 32.2476C26.9147 31.9072 27.1353 31.4718 27.5079 31.295C27.6876 31.3929 27.8001 31.4689 27.8001 31.4689C27.8001 31.4689 27.7226 31.3125 27.6817 31.2293C27.6963 31.2234 27.7095 31.2249 27.7241 31.219C27.8717 31.2906 28.1975 31.4747 28.3699 31.5872C28.5934 31.745 28.665 31.8853 28.665 31.8853C28.665 31.8853 28.7234 31.8532 28.6796 31.7158C28.6635 31.6588 28.5963 31.4806 28.3742 31.2994L28.3874 31.3009C28.5203 31.3768 28.646 31.463 28.7628 31.5609C28.8257 31.3345 28.9382 31.0963 28.9133 30.6726C28.8987 30.3745 28.9046 30.2971 28.852 30.1817C28.8052 30.0823 28.8783 30.0443 28.9601 30.1466C28.9455 30.0662 28.9221 29.9873 28.89 29.9128V29.9055C28.9922 29.5505 31.0478 28.6256 31.1968 28.5175C31.4422 28.3436 31.6482 28.1201 31.8016 27.86C31.9156 27.6773 32.0018 27.4217 32.0222 27.0345C32.0339 26.7554 31.9039 26.5684 29.825 26.3507C29.2567 26.2952 28.9236 25.8831 28.7336 25.5032C28.6986 25.4214 28.6635 25.3469 28.6284 25.2724C28.5948 25.1862 28.5671 25.0971 28.5481 25.0065C28.8885 24.0305 29.4583 23.2049 30.2983 22.5811C30.3436 22.5387 30.1157 22.5913 30.161 22.5504C30.215 22.5022 30.5627 22.3619 30.6285 22.3297C30.7088 22.2918 30.2852 22.112 29.9097 22.1559C29.5284 22.1982 29.4466 22.245 29.2435 22.3312C29.3282 22.2465 29.5971 22.1369 29.5342 22.1369C29.1222 22.1997 28.6124 22.4393 28.1741 22.7096C28.1726 22.6629 28.1828 22.6161 28.2004 22.5723C27.9973 22.6585 27.4962 23.0077 27.3516 23.3043C27.3574 23.2473 27.3603 23.1903 27.3603 23.1333C27.2055 23.2634 27.0652 23.4095 26.9425 23.5702L26.9352 23.5775C25.7547 23.1012 24.7145 23.0705 23.835 23.2838C23.6422 23.091 23.5487 23.2312 23.1104 22.2698C23.0812 22.2114 23.1338 22.3268 23.1104 22.2698C23.0388 22.0828 23.1542 22.5182 23.1104 22.2698C22.3741 22.8514 21.4055 23.5088 20.9409 23.9735C20.935 23.9925 21.4829 23.8186 20.9409 23.9735C20.751 24.0275 20.7641 24.14 20.7349 25.1599C20.7276 25.2373 20.7334 25.3235 20.7276 25.3937C20.3565 25.8671 20.1038 26.2674 20.0073 26.4749C19.5267 27.3033 18.9978 28.5935 18.485 30.6346C18.7115 30.0808 18.9832 29.5475 19.3002 29.0405C18.8736 30.1247 18.4616 31.8254 18.3798 34.4451C18.4835 33.9045 18.615 33.3698 18.7757 32.8438C18.6749 35.0179 19.0504 37.1876 19.8744 39.201C20.1695 39.9228 20.6575 41.0171 21.4873 42.2181C24.0965 44.9635 27.7767 46.673 31.8528 46.673C36.1129 46.673 39.9348 44.8116 42.5601 41.8543Z" fill="url(#paint2_linear_193_4274)"/>
<path d="M39.4118 43.8487C44.5617 43.2526 46.8408 37.9459 43.913 37.8407C41.2687 37.7574 36.972 44.1307 39.4118 43.8487Z" fill="url(#paint3_radial_193_4274)"/>
<path d="M44.2841 36.7581C47.827 34.6965 46.9036 30.2416 46.9036 30.2416C46.9036 30.2416 45.5362 31.8298 44.607 34.3619C43.6895 36.8691 42.154 38.0029 44.2841 36.7581Z" fill="url(#paint4_radial_193_4274)"/>
<path d="M33.0362 46.4845C37.9757 48.061 42.2212 44.1687 39.6046 42.8698C37.2247 41.698 30.6928 45.7393 33.0362 46.4845Z" fill="url(#paint5_radial_193_4274)"/>
<path d="M44.6523 38.6488C44.7721 38.4793 44.9342 37.9357 45.0789 37.6932C45.951 36.2847 45.9569 35.1626 45.9569 35.1377C46.4843 32.5063 46.4361 31.4324 46.1118 29.4453C45.8502 27.8454 44.7107 25.553 43.7231 24.4498C42.7048 23.3131 43.4221 23.6828 42.436 22.8529C41.5726 21.8944 40.734 20.9461 40.2781 20.5648C36.9808 17.8077 37.0553 17.2218 37.1181 17.1224C37.1079 17.1341 37.0918 17.1517 37.0713 17.175C37.0319 17.0187 37.0041 16.8887 37.0041 16.8887C37.0041 16.8887 35.2013 18.6917 34.8229 21.6942C34.5746 23.655 35.3094 25.6991 36.3715 27.0068C36.9252 27.6832 37.5505 28.2984 38.2372 28.8404V28.839C39.0407 29.9918 39.4819 31.4149 39.4819 32.9461C39.4819 36.78 36.373 39.8878 32.538 39.8878C32.015 39.8878 31.4949 39.8293 30.985 39.7139C29.1749 39.3691 28.1303 38.4559 27.6087 37.8364C27.3107 37.4813 27.1836 37.2227 27.1836 37.2227C28.8052 37.8042 30.5978 37.6815 31.6877 37.0795C32.7864 36.4703 33.4511 36.0188 33.9902 36.197C34.522 36.3738 34.9456 35.8595 34.5658 35.3262C34.1933 34.7929 33.2246 34.0302 31.7871 34.2421C30.687 34.4028 29.6789 35.183 28.2384 34.4262C28.1449 34.378 28.0558 34.3254 27.9681 34.2669C27.8731 34.2114 28.2764 34.3517 28.1829 34.2889C27.9024 34.153 27.4056 33.8549 27.2771 33.7497C27.2552 33.7322 27.4948 33.8184 27.4728 33.8008C26.1258 32.8058 26.2939 32.1352 26.3362 31.7129C26.3698 31.3754 26.6153 30.9444 27.0273 30.7691C27.2259 30.867 27.3501 30.9415 27.3501 30.9415C27.3501 30.9415 27.2654 30.7866 27.2186 30.7033C27.2347 30.6975 27.2508 30.6989 27.2654 30.6931C27.429 30.7632 27.7899 30.9473 27.9798 31.0584C28.2267 31.2147 28.3056 31.355 28.3056 31.355C28.3056 31.355 28.3713 31.3228 28.3231 31.1869C28.3056 31.1314 28.2311 30.9532 27.9856 30.7735L28.0003 30.7749C28.1463 30.8494 28.2851 30.9356 28.4152 31.0335C28.4838 30.8085 28.608 30.5733 28.5817 30.1525C28.5656 29.8573 28.5729 29.7799 28.5145 29.6659C28.4619 29.5681 28.5437 29.5301 28.6343 29.6309C28.6182 29.5505 28.5934 29.4731 28.5569 29.3986L28.5583 29.3913C28.6708 29.0391 30.947 28.123 31.1121 28.0149C31.3794 27.8469 31.6074 27.6248 31.7812 27.3633C31.9083 27.1821 32.0033 26.9293 32.0267 26.545C32.034 26.3712 31.9814 26.2353 31.378 26.1038C31.0157 26.0249 30.4561 25.9489 29.5942 25.8671C28.9645 25.8116 28.5963 25.4025 28.3859 25.0255C28.348 24.9437 28.3085 24.8706 28.2691 24.7976C28.2325 24.7114 28.2019 24.6237 28.1799 24.5331C28.5583 23.5454 29.2362 22.7038 30.1201 22.1267C30.1712 22.0858 29.917 22.1369 29.9682 22.096C30.0266 22.0478 30.4123 21.909 30.4853 21.8768C30.5745 21.8389 30.104 21.6606 29.6906 21.7044C29.2684 21.7468 29.1792 21.7921 28.9528 21.8783C29.0463 21.795 29.3443 21.6854 29.2742 21.6869C28.8184 21.7497 28.253 21.9864 27.7694 22.2553C27.768 22.2085 27.7782 22.1618 27.7986 22.1194C27.5737 22.2056 27.0199 22.5519 26.8592 22.8456C26.8665 22.79 26.8695 22.7331 26.868 22.6761C26.6985 22.8032 26.5437 22.9478 26.4063 23.1086L26.3976 23.1159C25.09 22.6439 23.9402 22.6132 22.9658 22.8251C22.7525 22.6337 22.4106 22.3429 21.9256 21.3903C21.892 21.3333 21.8745 21.5087 21.8496 21.4517C21.6612 21.0148 21.5472 20.2989 21.5662 19.8065C21.5662 19.8065 21.1761 19.9833 20.8547 20.7255C20.7948 20.8585 20.7568 20.933 20.7188 21.006C20.7013 21.028 20.7583 20.762 20.7495 20.7766C20.694 20.8716 20.5479 21.0046 20.4851 21.1755C20.4413 21.3026 20.3799 21.3742 20.3404 21.532L20.3317 21.5466C20.3288 21.4999 20.3434 21.3538 20.3331 21.3845C20.1827 21.6898 20.0526 22.0054 19.9445 22.3283C19.7707 22.8996 19.5691 23.6755 19.5369 24.6865C19.5296 24.7625 19.5355 24.8487 19.5296 24.9174C19.1191 25.3864 18.8386 25.7838 18.7334 25.9898C18.2001 26.808 17.6143 28.088 17.046 30.1116C17.2987 29.5593 17.6011 29.0289 17.9489 28.5307C17.477 29.6046 17.0211 31.2921 16.9291 33.8914C17.0431 33.3537 17.1906 32.8234 17.3674 32.3032C17.2856 34.0361 17.4872 36.1839 18.5829 38.6078C19.233 40.0339 20.7305 42.9283 24.3888 45.1872C28.047 47.446 25.6335 46.1135 27.7723 46.8075C27.9301 46.8645 28.0908 46.9215 28.2545 46.9755C28.2048 46.9551 28.1551 46.9332 28.1054 46.9112C29.5299 47.3379 31.0069 47.5556 32.4942 47.5556C38.0327 47.56 39.666 45.3362 39.666 45.3362C39.666 45.3362 39.6602 45.3406 39.6499 45.3479C39.7274 45.2748 39.8033 45.1974 39.8764 45.1185C39.0027 45.944 37.0085 45.9981 36.262 45.9396C37.533 45.5656 38.3701 45.25 39.9976 44.6261C40.1876 44.556 40.3833 44.4756 40.582 44.385C40.6039 44.3762 40.6259 44.3646 40.6463 44.3558C40.6858 44.3368 40.7252 44.3207 40.7646 44.3003C41.5579 43.9262 42.303 43.4601 42.9868 42.9093C44.6216 41.6031 44.9766 40.3305 45.1636 39.4918C45.1373 39.5722 45.0569 39.7592 45 39.8819C44.5792 40.782 43.6457 41.3357 42.6318 41.8091C43.1139 41.1765 43.5609 40.5175 43.9714 39.8352C44.3016 39.5079 44.4054 38.9936 44.6523 38.6488Z" fill="url(#paint6_radial_193_4274)"/>
<path d="M42.6624 41.7711C43.3286 41.0361 43.9276 40.196 44.3805 39.2419C45.5478 36.7887 47.3507 32.7094 45.9306 28.4503C44.8071 25.0839 43.2658 23.2429 41.3096 21.4443C38.1305 18.5236 37.2423 17.2203 37.2423 16.4445C37.2423 16.4445 33.5723 20.537 35.1633 24.8034C36.7543 29.0698 40.0152 28.9149 42.1716 33.3683C44.7092 38.6092 40.1174 44.328 36.3204 45.9293C36.5527 45.8782 44.7604 44.0197 45.1928 39.3252C45.1841 39.4114 44.9985 40.7088 42.6624 41.7711Z" fill="url(#paint7_radial_193_4274)"/>
<path d="M32.0281 26.5421C32.0412 26.2645 31.8966 26.0789 29.6044 25.8641C28.6606 25.7765 28.2997 24.9057 28.1902 24.5375C27.8542 25.4097 27.7168 26.3229 27.7913 27.4304C27.8425 28.1551 28.329 28.9324 28.5613 29.3898C28.5613 29.3898 28.6124 29.3226 28.6372 29.2977C29.0755 28.8419 30.9119 28.1464 31.0843 28.047C31.2728 27.9272 31.9974 27.3983 32.0281 26.5421Z" fill="url(#paint8_linear_193_4274)"/>
<path d="M21.9344 21.3918C21.9008 21.3348 21.8832 21.5101 21.8584 21.4531C21.6699 21.0162 21.556 20.3091 21.5823 19.8079C21.5823 19.8079 21.1922 19.9847 20.8708 20.727C20.8109 20.8599 20.7729 20.9344 20.7349 21.0075C20.7174 21.0294 20.7744 20.7635 20.7656 20.7781C20.7101 20.8731 20.564 21.006 20.5012 21.1697C20.4486 21.3041 20.396 21.3757 20.3551 21.5422C20.3434 21.5875 20.3668 21.3421 20.3565 21.3728C19.6071 22.8222 19.4639 25.0124 19.5428 24.9203C21.1381 23.2167 22.9673 22.8119 22.9673 22.8119C22.7744 22.6673 22.3507 22.2538 21.9344 21.3918Z" fill="url(#paint9_linear_193_4274)"/>
<path d="M27.99 39.2142C25.7854 38.2732 23.2799 36.9451 23.3734 33.9294C23.502 29.9581 27.0769 30.7427 27.0769 30.7427C26.9425 30.7749 26.5817 31.032 26.4531 31.3067C26.3187 31.6486 26.0718 32.4215 26.8183 33.2324C27.9915 34.5036 24.4092 36.2481 29.9375 39.5429C30.0777 39.6174 28.6431 39.4961 27.99 39.2142Z" fill="url(#paint10_linear_193_4274)"/>
<path d="M27.207 37.2341C28.7702 37.7776 30.5906 37.6826 31.6819 37.0807C32.4124 36.6745 33.3474 36.0229 33.9245 36.1837C33.4263 35.9864 33.0479 35.8944 32.5935 35.8725C32.5161 35.8725 32.4241 35.871 32.3393 35.8622C32.1728 35.8622 32.0062 35.871 31.8411 35.89C31.5592 35.9163 31.248 36.0931 30.9646 36.0653C30.95 36.0639 31.2392 35.9455 31.2158 35.9514C31.0654 35.982 30.9017 35.9893 30.7293 36.0113C30.6198 36.0229 30.5248 36.0376 30.4167 36.0419C27.1602 36.3181 24.4092 34.2771 24.4092 34.2771C24.174 35.0646 25.4567 36.6249 27.207 37.2341Z" fill="url(#paint11_linear_193_4274)"/>
<path d="M42.6566 41.7915C45.9496 38.5581 47.6166 34.6278 46.9109 30.2182C46.9109 30.2182 47.1929 32.4785 46.1249 34.7914C46.6377 32.534 46.6976 29.7287 45.336 26.8241C43.5186 22.9463 40.5295 20.9066 39.387 20.0548C37.6587 18.7647 36.9413 17.4526 36.9282 17.1808C36.411 18.2387 34.8492 21.8666 36.7602 24.9904C38.5513 27.917 41.3724 28.7863 43.3462 31.4704C46.9854 36.4176 42.6566 41.7915 42.6566 41.7915Z" fill="url(#paint12_linear_193_4274)"/>
<path d="M42.1847 33.3785C41.0335 31.0013 39.5973 29.964 38.2386 28.8389C38.3964 29.0596 38.4359 29.1385 38.5235 29.2816C39.7201 30.5557 41.4834 33.6664 40.2022 37.569C37.7916 44.9168 28.1522 41.4569 27.1412 40.4853C27.5503 44.7371 34.6666 46.7724 39.3008 44.0153C41.9378 41.5183 44.0708 37.2753 42.1847 33.3785Z" fill="url(#paint13_linear_193_4274)"/>
</g>
<defs>
<filter id="filter0_d_193_4274" x="0" y="0" width="64" height="64" filterUnits="userSpaceOnUse" color-interpolation-filters="sRGB">
<feFlood flood-opacity="0" result="BackgroundImageFix"/>
<feColorMatrix in="SourceAlpha" type="matrix" values="0 0 0 0 0 0 0 0 0 0 0 0 0 0 0 0 0 0 127 0" result="hardAlpha"/>
<feOffset/>
<feGaussianBlur stdDeviation="2"/>
<feComposite in2="hardAlpha" operator="out"/>
<feColorMatrix type="matrix" values="0 0 0 0 0 0 0 0 0 0 0 0 0 0 0 0 0 0 0.1 0"/>
<feBlend mode="normal" in2="BackgroundImageFix" result="effect1_dropShadow_193_4274"/>
<feBlend mode="normal" in="SourceGraphic" in2="effect1_dropShadow_193_4274" result="shape"/>
</filter>
<radialGradient id="paint0_radial_193_4274" cx="0" cy="0" r="1" gradientUnits="userSpaceOnUse" gradientTransform="translate(45.6484 24.2245) rotate(2.55508) scale(10.873 15.9831)">
<stop offset="0.045" stop-color="#FFEA00"/>
<stop offset="0.12" stop-color="#FFDE00"/>
<stop offset="0.254" stop-color="#FFBF00"/>
<stop offset="0.429" stop-color="#FF8E00"/>
<stop offset="0.769" stop-color="#FF272D"/>
<stop offset="0.872" stop-color="#E0255A"/>
<stop offset="0.953" stop-color="#CC2477"/>
<stop offset="1" stop-color="#C42482"/>
</radialGradient>
<radialGradient id="paint1_radial_193_4274" cx="0" cy="0" r="1" gradientUnits="userSpaceOnUse" gradientTransform="translate(37.8947 22.5506) scale(30.6446 30.6474)">
<stop stop-color="#00CCDA"/>
<stop offset="0.22" stop-color="#0083FF"/>
<stop offset="0.261" stop-color="#007AF9"/>
<stop offset="0.33" stop-color="#0060E8"/>
<stop offset="0.333" stop-color="#005FE7"/>
<stop offset="0.438" stop-color="#2639AD"/>
<stop offset="0.522" stop-color="#401E84"/>
<stop offset="0.566" stop-color="#4A1475"/>
</radialGradient>
<linearGradient id="paint2_linear_193_4274" x1="34.0226" y1="39.5006" x2="27.9689" y2="19.6999" gradientUnits="userSpaceOnUse">
<stop stop-color="#000F43" stop-opacity="0.4"/>
<stop offset="0.485" stop-color="#001962" stop-opacity="0.173"/>
<stop offset="1" stop-color="#002079" stop-opacity="0"/>
</linearGradient>
<radialGradient id="paint3_radial_193_4274" cx="0" cy="0" r="1" gradientUnits="userSpaceOnUse" gradientTransform="translate(42.4819 32.4392) rotate(5.67027) scale(10.3364 10.3373)">
<stop offset="0.003" stop-color="#FFEA00"/>
<stop offset="0.497" stop-color="#FF272D"/>
<stop offset="1" stop-color="#C42482"/>
</radialGradient>
<radialGradient id="paint4_radial_193_4274" cx="0" cy="0" r="1" gradientUnits="userSpaceOnUse" gradientTransform="translate(42.5304 22.4831) rotate(5.67019) scale(17.2611 17.2625)">
<stop offset="0.003" stop-color="#FFE900"/>
<stop offset="0.157" stop-color="#FFAF0E"/>
<stop offset="0.316" stop-color="#FF7A1B"/>
<stop offset="0.472" stop-color="#FF4E26"/>
<stop offset="0.621" stop-color="#FF2C2E"/>
<stop offset="0.762" stop-color="#FF1434"/>
<stop offset="0.892" stop-color="#FF0538"/>
<stop offset="1" stop-color="#FF0039"/>
</radialGradient>
<radialGradient id="paint5_radial_193_4274" cx="0" cy="0" r="1" gradientUnits="userSpaceOnUse" gradientTransform="translate(43.3791 38.6481) rotate(5.67019) scale(15.8388 15.8401)">
<stop offset="0.003" stop-color="#FF272D"/>
<stop offset="0.497" stop-color="#C42482"/>
<stop offset="0.986" stop-color="#620700"/>
</radialGradient>
<radialGradient id="paint6_radial_193_4274" cx="0" cy="0" r="1" gradientUnits="userSpaceOnUse" gradientTransform="translate(39.541 28.9033) scale(24.7299 24.7322)">
<stop offset="0.156" stop-color="#FFEA00"/>
<stop offset="0.231" stop-color="#FFDE00"/>
<stop offset="0.365" stop-color="#FFBF00"/>
<stop offset="0.541" stop-color="#FF8E00"/>
<stop offset="0.763" stop-color="#FF272D"/>
<stop offset="0.796" stop-color="#F92433"/>
<stop offset="0.841" stop-color="#E91C45"/>
<stop offset="0.893" stop-color="#CF0E62"/>
<stop offset="0.935" stop-color="#B5007F"/>
</radialGradient>
<radialGradient id="paint7_radial_193_4274" cx="0" cy="0" r="1" gradientUnits="userSpaceOnUse" gradientTransform="translate(37.6803 16.4846) scale(29.2016 29.2043)">
<stop offset="0.279" stop-color="#FFEA00"/>
<stop offset="0.402" stop-color="#FFDD00"/>
<stop offset="0.63" stop-color="#FFBA00"/>
<stop offset="0.856" stop-color="#FF9100"/>
<stop offset="0.933" stop-color="#FF6711"/>
<stop offset="0.994" stop-color="#FF4A1D"/>
</radialGradient>
<linearGradient id="paint8_linear_193_4274" x1="17.5086" y1="28.6192" x2="28.7452" y2="26.9138" gradientUnits="userSpaceOnUse">
<stop stop-color="#C42482" stop-opacity="0.5"/>
<stop offset="0.474" stop-color="#FF272D" stop-opacity="0.5"/>
<stop offset="0.486" stop-color="#FF2C2C" stop-opacity="0.513"/>
<stop offset="0.675" stop-color="#FF7A1A" stop-opacity="0.72"/>
<stop offset="0.829" stop-color="#FFB20D" stop-opacity="0.871"/>
<stop offset="0.942" stop-color="#FFD605" stop-opacity="0.964"/>
<stop offset="1" stop-color="#FFE302"/>
</linearGradient>
<linearGradient id="paint9_linear_193_4274" x1="21.4572" y1="24.5969" x2="20.1817" y2="20.0248" gradientUnits="userSpaceOnUse">
<stop stop-color="#891551" stop-opacity="0.6"/>
<stop offset="1" stop-color="#C42482" stop-opacity="0"/>
</linearGradient>
<linearGradient id="paint10_linear_193_4274" x1="23.9012" y1="31.2766" x2="26.5245" y2="34.9363" gradientUnits="userSpaceOnUse">
<stop offset="0.005" stop-color="#891551" stop-opacity="0.5"/>
<stop offset="0.484" stop-color="#FF272D" stop-opacity="0.5"/>
<stop offset="1" stop-color="#FF272D" stop-opacity="0"/>
</linearGradient>
<linearGradient id="paint11_linear_193_4274" x1="28.9114" y1="37.6928" x2="29.1496" y2="35.3405" gradientUnits="userSpaceOnUse">
<stop stop-color="#C42482"/>
<stop offset="0.083" stop-color="#C42482" stop-opacity="0.81"/>
<stop offset="0.206" stop-color="#C42482" stop-opacity="0.565"/>
<stop offset="0.328" stop-color="#C42482" stop-opacity="0.362"/>
<stop offset="0.447" stop-color="#C42482" stop-opacity="0.204"/>
<stop offset="0.562" stop-color="#C42482" stop-opacity="0.091"/>
<stop offset="0.673" stop-color="#C42482" stop-opacity="0.023"/>
<stop offset="0.773" stop-color="#C42482" stop-opacity="0"/>
</linearGradient>
<linearGradient id="paint12_linear_193_4274" x1="36.5482" y1="17.586" x2="46.2135" y2="39.1971" gradientUnits="userSpaceOnUse">
<stop stop-color="#FFF14F"/>
<stop offset="0.268" stop-color="#FFEE4C"/>
<stop offset="0.452" stop-color="#FFE643"/>
<stop offset="0.612" stop-color="#FFD834"/>
<stop offset="0.757" stop-color="#FFC41E"/>
<stop offset="0.892" stop-color="#FFAB02"/>
<stop offset="0.902" stop-color="#FFA900"/>
<stop offset="0.949" stop-color="#FFA000"/>
<stop offset="1" stop-color="#FF9100"/>
</linearGradient>
<linearGradient id="paint13_linear_193_4274" x1="38.4564" y1="30.0153" x2="33.878" y2="42.3071" gradientUnits="userSpaceOnUse">
<stop stop-color="#FF8E00"/>
<stop offset="0.04" stop-color="#FF8E00" stop-opacity="0.858"/>
<stop offset="0.084" stop-color="#FF8E00" stop-opacity="0.729"/>
<stop offset="0.13" stop-color="#FF8E00" stop-opacity="0.628"/>
<stop offset="0.178" stop-color="#FF8E00" stop-opacity="0.557"/>
<stop offset="0.227" stop-color="#FF8E00" stop-opacity="0.514"/>
<stop offset="0.282" stop-color="#FF8E00" stop-opacity="0.5"/>
<stop offset="0.389" stop-color="#FF8E00" stop-opacity="0.478"/>
<stop offset="0.524" stop-color="#FF8E00" stop-opacity="0.416"/>
<stop offset="0.676" stop-color="#FF8E00" stop-opacity="0.314"/>
<stop offset="0.838" stop-color="#FF8E00" stop-opacity="0.172"/>
<stop offset="1" stop-color="#FF8E00" stop-opacity="0"/>
</linearGradient>
</defs>
</svg>
