<svg width="65" height="64" viewBox="0 0 65 64" fill="none" xmlns="http://www.w3.org/2000/svg">
<g filter="url(#filter0_d_193_4320)">
<rect x="4.69299" y="4" width="56.3129" height="56" rx="16" fill="white" shape-rendering="crispEdges"/>
<path d="M25.0288 36.7895L20.2113 31.9988L35.8537 16.4445H45.4875L25.0288 36.7895ZM45.4875 30.7979H35.8537L32.245 34.3866L37.0625 39.1774" fill="#42A5F5" fill-opacity="0.8"/>
<path d="M32.245 43.9669L35.8537 47.5556H45.4876L37.0625 39.1774" fill="#0D47A1"/>
<path d="M27.4388 39.1799L32.2488 34.3954L37.0587 39.1786L32.2488 43.9631L27.4388 39.1799Z" fill="#42A5F5"/>
<path d="M32.2488 43.9631L37.0587 39.1799L37.7302 39.8476L32.9202 44.6308L32.2488 43.9631Z" fill="url(#paint0_linear_193_4320)"/>
<path d="M32.245 43.9669L39.3929 41.5111L37.0625 39.1761" fill="url(#paint1_linear_193_4320)"/>
</g>
<defs>
<filter id="filter0_d_193_4320" x="0.692993" y="0" width="64.3129" height="64" filterUnits="userSpaceOnUse" color-interpolation-filters="sRGB">
<feFlood flood-opacity="0" result="BackgroundImageFix"/>
<feColorMatrix in="SourceAlpha" type="matrix" values="0 0 0 0 0 0 0 0 0 0 0 0 0 0 0 0 0 0 127 0" result="hardAlpha"/>
<feOffset/>
<feGaussianBlur stdDeviation="2"/>
<feComposite in2="hardAlpha" operator="out"/>
<feColorMatrix type="matrix" values="0 0 0 0 0 0 0 0 0 0 0 0 0 0 0 0 0 0 0.1 0"/>
<feBlend mode="normal" in2="BackgroundImageFix" result="effect1_dropShadow_193_4320"/>
<feBlend mode="normal" in="SourceGraphic" in2="effect1_dropShadow_193_4320" result="shape"/>
</filter>
<linearGradient id="paint0_linear_193_4320" x1="34.6547" y1="41.5706" x2="35.3224" y2="42.242" gradientUnits="userSpaceOnUse">
<stop offset="0.2" stop-opacity="0.15"/>
<stop offset="0.85" stop-color="#616161" stop-opacity="0.01"/>
</linearGradient>
<linearGradient id="paint1_linear_193_4320" x1="32.2467" y1="41.5716" x2="39.3945" y2="41.5716" gradientUnits="userSpaceOnUse">
<stop offset="0.2" stop-opacity="0.55"/>
<stop offset="0.85" stop-color="#616161" stop-opacity="0.01"/>
</linearGradient>
</defs>
</svg>
