<svg width="65" height="64" viewBox="0 0 65 64" fill="none" xmlns="http://www.w3.org/2000/svg">
<g filter="url(#filter0_d_193_4826)">
<rect x="4.31287" y="4" width="56.3129" height="56" rx="16" fill="white" shape-rendering="crispEdges"/>
<path d="M32.4693 16.8285C23.8313 16.8285 16.8268 23.7929 16.8268 32.3841C16.8268 39.2571 21.3088 45.088 27.5241 47.1449C28.3059 47.2889 28.5929 46.8074 28.5929 46.3965C28.5929 46.0257 28.5783 44.8002 28.5717 43.5004C24.2198 44.4414 23.3015 41.665 23.3015 41.665C22.59 39.867 21.5647 39.389 21.5647 39.389C20.1456 38.4235 21.6717 38.4432 21.6717 38.4432C23.2425 38.553 24.0697 40.0463 24.0697 40.0463C25.4648 42.4245 27.729 41.7369 28.6216 41.3395C28.762 40.334 29.1674 39.6479 29.6147 39.2594C26.1404 38.866 22.4879 37.5321 22.4879 31.5717C22.4879 29.8735 23.099 28.4857 24.0997 27.3964C23.9373 27.0045 23.4019 25.4224 24.2512 23.2797C24.2512 23.2797 25.5648 22.8616 28.554 24.8743C29.8017 24.5295 31.1399 24.3567 32.4693 24.3509C33.7987 24.3567 35.1379 24.5295 36.388 24.8743C39.3737 22.8616 40.6854 23.2797 40.6854 23.2797C41.5368 25.4224 41.0012 27.0045 40.8388 27.3964C41.8417 28.4857 42.4486 29.8733 42.4486 31.5717C42.4486 37.5463 38.7892 38.8619 35.3061 39.247C35.8671 39.7297 36.367 40.6764 36.367 42.1276C36.367 44.209 36.3489 45.8841 36.3489 46.3965C36.3489 46.8105 36.6304 47.2956 37.4234 47.1428C43.6353 45.0836 48.1117 39.2548 48.1117 32.3841C48.1117 23.7929 41.1082 16.8285 32.4693 16.8285Z" fill="#161614"/>
<path d="M22.6854 38.9879C22.6511 39.0651 22.5287 39.0883 22.4174 39.0354C22.3039 38.9846 22.2401 38.8792 22.2769 38.8016C22.3107 38.7221 22.4331 38.6999 22.5463 38.7533C22.66 38.8039 22.7248 38.9103 22.6854 38.9879ZM23.4549 39.6706C23.3803 39.7394 23.2344 39.7075 23.1354 39.5988C23.0331 39.4903 23.014 39.3454 23.0897 39.2755C23.1666 39.2068 23.3081 39.2389 23.4106 39.3474C23.5129 39.4571 23.5328 39.6012 23.4548 39.6707L23.4549 39.6706ZM23.9828 40.5441C23.8869 40.6104 23.7301 40.5483 23.6333 40.4099C23.5375 40.2717 23.5375 40.1058 23.6354 40.0393C23.7325 39.9728 23.8869 40.0326 23.985 40.1698C24.0807 40.3105 24.0807 40.4764 23.9827 40.5443L23.9828 40.5441ZM24.8754 41.5559C24.7897 41.6498 24.6071 41.6247 24.4734 41.4963C24.3367 41.3709 24.2986 41.1929 24.3846 41.0989C24.4713 41.0047 24.655 41.0312 24.7897 41.1584C24.9255 41.2836 24.967 41.4629 24.8756 41.5559H24.8754ZM26.0291 41.8975C25.9915 42.0192 25.8155 42.0746 25.6384 42.0229C25.4615 41.9696 25.3457 41.8268 25.3814 41.7037C25.4182 41.5811 25.5948 41.5234 25.7733 41.5788C25.95 41.6319 26.0661 41.7735 26.0293 41.8975H26.0291ZM27.3423 42.0423C27.3467 42.1706 27.1965 42.277 27.0105 42.2793C26.8234 42.2834 26.6721 42.1795 26.6702 42.0534C26.6702 41.9238 26.817 41.8184 27.004 41.8154C27.19 41.8117 27.3423 41.9148 27.3423 42.0423ZM28.6322 41.9931C28.6545 42.1183 28.5252 42.2469 28.3406 42.2811C28.159 42.314 27.9909 42.2368 27.9678 42.1127C27.9452 41.9843 28.0769 41.8559 28.2581 41.8226C28.4431 41.7906 28.6086 41.8659 28.6322 41.9931Z" fill="#161614"/>
</g>
<defs>
<filter id="filter0_d_193_4826" x="0.312866" y="0" width="64.3129" height="64" filterUnits="userSpaceOnUse" color-interpolation-filters="sRGB">
<feFlood flood-opacity="0" result="BackgroundImageFix"/>
<feColorMatrix in="SourceAlpha" type="matrix" values="0 0 0 0 0 0 0 0 0 0 0 0 0 0 0 0 0 0 127 0" result="hardAlpha"/>
<feOffset/>
<feGaussianBlur stdDeviation="2"/>
<feComposite in2="hardAlpha" operator="out"/>
<feColorMatrix type="matrix" values="0 0 0 0 0 0 0 0 0 0 0 0 0 0 0 0 0 0 0.1 0"/>
<feBlend mode="normal" in2="BackgroundImageFix" result="effect1_dropShadow_193_4826"/>
<feBlend mode="normal" in="SourceGraphic" in2="effect1_dropShadow_193_4826" result="shape"/>
</filter>
</defs>
</svg>
