<svg width="64" height="64" viewBox="0 0 64 64" fill="none" xmlns="http://www.w3.org/2000/svg">
<g filter="url(#filter0_d_193_4342)">
<rect x="4" y="4" width="56" height="56" rx="16" fill="white" shape-rendering="crispEdges"/>
<path d="M32.0001 46.3294L37.7285 28.6991H26.2715L31.9999 46.3294H32.0001Z" fill="#E24329"/>
<path d="M32 46.3292L26.2715 28.6989H18.2433L32 46.3292Z" fill="#FC6D26"/>
<path d="M18.2433 28.6989L16.5025 34.0567C16.4251 34.2949 16.4251 34.5515 16.5025 34.7897C16.5799 35.0279 16.7307 35.2354 16.9333 35.3827L32 46.3293L18.2432 28.699L18.2433 28.6989Z" fill="#FCA326"/>
<path d="M18.2433 28.699H26.2715L22.8214 18.0804C22.6439 17.5339 21.8709 17.5341 21.6935 18.0804L18.2433 28.699Z" fill="#E24329"/>
<path d="M32 46.3292L37.7285 28.6989H45.7568L31.9999 46.3292H32Z" fill="#FC6D26"/>
<path d="M45.7567 28.6989L47.4975 34.0567C47.5749 34.2949 47.5749 34.5515 47.4975 34.7897C47.4201 35.0279 47.2692 35.2355 47.0666 35.3827L32 46.3293L45.7567 28.699V28.6989Z" fill="#FCA326"/>
<path d="M45.7568 28.699H37.7285L41.1787 18.0804C41.3562 17.5339 42.1292 17.5341 42.3066 18.0804L45.7568 28.699Z" fill="#E24329"/>
</g>
<defs>
<filter id="filter0_d_193_4342" x="0" y="0" width="64" height="64" filterUnits="userSpaceOnUse" color-interpolation-filters="sRGB">
<feFlood flood-opacity="0" result="BackgroundImageFix"/>
<feColorMatrix in="SourceAlpha" type="matrix" values="0 0 0 0 0 0 0 0 0 0 0 0 0 0 0 0 0 0 127 0" result="hardAlpha"/>
<feOffset/>
<feGaussianBlur stdDeviation="2"/>
<feComposite in2="hardAlpha" operator="out"/>
<feColorMatrix type="matrix" values="0 0 0 0 0 0 0 0 0 0 0 0 0 0 0 0 0 0 0.1 0"/>
<feBlend mode="normal" in2="BackgroundImageFix" result="effect1_dropShadow_193_4342"/>
<feBlend mode="normal" in="SourceGraphic" in2="effect1_dropShadow_193_4342" result="shape"/>
</filter>
</defs>
</svg>
