<svg width="64" height="64" viewBox="0 0 64 64" fill="none" xmlns="http://www.w3.org/2000/svg">
<g filter="url(#filter0_d_193_4834)">
<rect x="4" y="4" width="56" height="56" rx="16" fill="white" shape-rendering="crispEdges"/>
<path d="M18.7923 29.7078C18.7317 29.7078 18.7166 29.6775 18.7469 29.632L19.065 29.2231C19.0953 29.1776 19.171 29.1473 19.2316 29.1473H24.6393C24.6999 29.1473 24.715 29.1928 24.6847 29.2382L24.4272 29.632C24.3969 29.6775 24.3212 29.7229 24.2757 29.7229L18.7923 29.7078ZM16.505 31.1013C16.4445 31.1013 16.4293 31.0711 16.4596 31.0256L16.7777 30.6166C16.808 30.5712 16.8837 30.5409 16.9443 30.5409H23.8516C23.9122 30.5409 23.9425 30.5863 23.9273 30.6318L23.8061 30.9953C23.791 31.0559 23.7304 31.0862 23.6698 31.0862L16.505 31.1013ZM20.1707 32.4949C20.1102 32.4949 20.095 32.4495 20.1253 32.404L20.3374 32.0253C20.3677 31.9799 20.4283 31.9345 20.4888 31.9345H23.5183C23.5789 31.9345 23.6092 31.9799 23.6092 32.0405L23.5789 32.404C23.5789 32.4646 23.5183 32.5101 23.4729 32.5101L20.1707 32.4949ZM35.8939 29.4351C34.9396 29.6775 34.2882 29.8593 33.3491 30.1016C33.1219 30.1622 33.1067 30.1773 32.9098 29.9501C32.6826 29.6926 32.516 29.526 32.1979 29.3745C31.2436 28.905 30.3196 29.0413 29.4562 29.6017C28.4261 30.2682 27.896 31.2528 27.9111 32.4798C27.9263 33.6916 28.7594 34.6913 29.956 34.8579C30.9861 34.9943 31.8495 34.6307 32.5311 33.8582C32.6674 33.6916 32.7886 33.5098 32.9401 33.2977H30.0166C29.6985 33.2977 29.6228 33.1008 29.7288 32.8433C29.9257 32.3737 30.2893 31.5861 30.5014 31.1922C30.5468 31.1013 30.6528 30.9499 30.88 30.9499H36.3937C36.3634 31.3589 36.3634 31.7678 36.3028 32.1768C36.1362 33.2674 35.7272 34.2672 35.0608 35.1457C33.9701 36.5847 32.5463 37.4784 30.7437 37.7208C29.2593 37.9177 27.8808 37.6299 26.669 36.7211C25.5481 35.8728 24.9119 34.7519 24.7453 33.3583C24.5484 31.7072 25.0331 30.2228 26.0328 28.9201C27.1083 27.5114 28.5322 26.6177 30.2741 26.2996C31.698 26.0421 33.0613 26.2087 34.2882 27.0418C35.091 27.572 35.6667 28.2991 36.0453 29.1776C36.1362 29.3139 36.0756 29.3897 35.8939 29.4351Z" fill="#00ACD7"/>
<path d="M40.9077 37.8117C39.5293 37.7814 38.2721 37.3876 37.2117 36.4787C36.318 35.7062 35.7576 34.7216 35.5758 33.5552C35.3031 31.8436 35.7727 30.3288 36.8027 28.9807C37.9085 27.5265 39.2415 26.7692 41.044 26.4511C42.5891 26.1784 44.0432 26.3299 45.3611 27.2236C46.5577 28.0415 47.3 29.1473 47.4969 30.6015C47.7544 32.6464 47.1636 34.3126 45.7549 35.7365C44.7552 36.7514 43.5282 37.3876 42.1195 37.6754C41.7105 37.7511 41.3015 37.7662 40.9077 37.8117ZM44.5128 31.6921C44.4977 31.4952 44.4977 31.3437 44.4674 31.1922C44.1947 29.6926 42.8163 28.8444 41.3773 29.1776C39.9686 29.4957 39.0597 30.3894 38.7265 31.8133C38.4538 32.9948 39.0294 34.1914 40.12 34.6762C40.9532 35.0397 41.7863 34.9943 42.5891 34.5853C43.7857 33.9642 44.4371 32.9948 44.5128 31.6921Z" fill="#00ACD7"/>
</g>
<defs>
<filter id="filter0_d_193_4834" x="0" y="0" width="64" height="64" filterUnits="userSpaceOnUse" color-interpolation-filters="sRGB">
<feFlood flood-opacity="0" result="BackgroundImageFix"/>
<feColorMatrix in="SourceAlpha" type="matrix" values="0 0 0 0 0 0 0 0 0 0 0 0 0 0 0 0 0 0 127 0" result="hardAlpha"/>
<feOffset/>
<feGaussianBlur stdDeviation="2"/>
<feComposite in2="hardAlpha" operator="out"/>
<feColorMatrix type="matrix" values="0 0 0 0 0 0 0 0 0 0 0 0 0 0 0 0 0 0 0.1 0"/>
<feBlend mode="normal" in2="BackgroundImageFix" result="effect1_dropShadow_193_4834"/>
<feBlend mode="normal" in="SourceGraphic" in2="effect1_dropShadow_193_4834" result="shape"/>
</filter>
</defs>
</svg>
