<svg width="64" height="64" viewBox="0 0 64 64" fill="none" xmlns="http://www.w3.org/2000/svg">
<g filter="url(#filter0_d_193_4306)">
<rect x="4" y="4" width="56" height="56" rx="16" fill="white" shape-rendering="crispEdges"/>
<g clip-path="url(#clip0_193_4306)">
<path d="M37.2009 25.0118H38.3806L41.7414 21.651L41.9067 20.225C35.6533 14.7057 26.1072 15.3004 20.588 21.5537C19.0534 23.2909 17.9401 25.3569 17.3341 27.5932C17.7084 27.4392 18.1232 27.4149 18.5138 27.5219L25.2338 26.4135C25.2338 26.4135 25.5757 25.8479 25.7523 25.8836C28.7421 22.6006 33.7736 22.2181 37.2252 25.0118H37.2009Z" fill="#EA4335"/>
<path d="M46.5282 27.5932C45.7552 24.7493 44.1704 22.1922 41.965 20.2363L37.2494 24.9519C39.241 26.5788 40.3753 29.0305 40.3267 31.6022V32.44C42.6456 32.44 44.5237 34.3197 44.5237 36.637C44.5237 38.9558 42.6439 40.8339 40.3267 40.8339H31.9311L31.0934 41.6831V46.7178L31.9311 47.5556H40.3267C45.1394 47.5929 49.4093 44.4735 50.8386 39.8779C52.2646 35.2806 50.5145 30.2896 46.5282 27.5932Z" fill="#4285F4"/>
<path d="M23.5242 47.5085H31.9198V40.7885H23.5242C22.9262 40.7885 22.3348 40.6605 21.7903 40.4109L20.6106 40.7756L17.2271 44.1364L16.9322 45.3161C18.8297 46.7485 21.1454 47.5183 23.5242 47.5085Z" fill="#34A853"/>
<path d="M23.5242 25.707C18.8605 25.7345 14.73 28.721 13.2424 33.14C11.7548 37.559 13.2376 42.4365 16.9338 45.2788L21.8033 40.4093C19.6902 39.4549 18.752 36.9691 19.7064 34.856C20.6609 32.743 23.1466 31.8047 25.2597 32.7592C26.1899 33.1805 26.9353 33.9259 27.3566 34.856L32.2261 29.9866C30.1535 27.2788 26.9336 25.6956 23.5242 25.707Z" fill="#FBBC05"/>
</g>
</g>
<defs>
<filter id="filter0_d_193_4306" x="0" y="0" width="64" height="64" filterUnits="userSpaceOnUse" color-interpolation-filters="sRGB">
<feFlood flood-opacity="0" result="BackgroundImageFix"/>
<feColorMatrix in="SourceAlpha" type="matrix" values="0 0 0 0 0 0 0 0 0 0 0 0 0 0 0 0 0 0 127 0" result="hardAlpha"/>
<feOffset/>
<feGaussianBlur stdDeviation="2"/>
<feComposite in2="hardAlpha" operator="out"/>
<feColorMatrix type="matrix" values="0 0 0 0 0 0 0 0 0 0 0 0 0 0 0 0 0 0 0.1 0"/>
<feBlend mode="normal" in2="BackgroundImageFix" result="effect1_dropShadow_193_4306"/>
<feBlend mode="normal" in="SourceGraphic" in2="effect1_dropShadow_193_4306" result="shape"/>
</filter>
<clipPath id="clip0_193_4306">
<rect width="38.6592" height="31.1111" fill="white" transform="translate(12.6704 16.4445)"/>
</clipPath>
</defs>
</svg>
