<svg width="64" height="64" viewBox="0 0 64 64" fill="none" xmlns="http://www.w3.org/2000/svg">
<g filter="url(#filter0_d_193_5134)">
<rect x="4" y="4" width="56" height="56" rx="16" fill="white" shape-rendering="crispEdges"/>
<path fill-rule="evenodd" clip-rule="evenodd" d="M34.6545 20.0064L41.0431 23.6951C41.2276 23.5 41.4392 23.3325 41.6715 23.1978C42.9964 22.4361 44.6864 22.8884 45.456 24.2134C46.2177 25.5384 45.7655 27.2283 44.4405 27.9979C44.2099 28.1306 43.9614 28.2296 43.7026 28.2917V35.6717C43.9586 35.7339 44.2044 35.8321 44.4326 35.9636C45.7655 36.7332 46.2177 38.4231 45.4481 39.7481C44.6864 41.073 42.9886 41.5253 41.6636 40.7637C41.4069 40.6164 41.1756 40.4287 40.9788 40.2077L34.629 43.8737C34.722 44.1553 34.7693 44.45 34.7689 44.7465C34.7689 46.2698 33.5313 47.5155 32 47.5155C30.4687 47.5155 29.2311 46.2777 29.2311 44.7465C29.2311 44.4743 29.2702 44.2114 29.3431 43.9631L22.9562 40.2755C22.7738 40.4668 22.5651 40.6311 22.3364 40.7637C21.0035 41.5253 19.3136 41.073 18.5518 39.7481C17.7902 38.4231 18.2425 36.7332 19.5674 35.9636C19.7956 35.8321 20.0414 35.7338 20.2973 35.6716V28.2917C20.0386 28.2296 19.7901 28.1306 19.5595 27.9979C18.2345 27.2362 17.7822 25.5384 18.544 24.2134C19.3057 22.8884 21.0034 22.4361 22.3284 23.1978C22.5595 23.3318 22.7701 23.4982 22.9538 23.692L29.3443 20.0023C29.2689 19.7467 29.2308 19.4815 29.2311 19.2149C29.2311 17.6838 30.4687 16.446 32 16.446C33.5313 16.446 34.7689 17.6837 34.7689 19.2149C34.7689 19.4901 34.729 19.7557 34.6545 20.0064ZM33.989 21.143L40.3928 24.8403C40.2908 25.1967 40.2616 25.5701 40.3068 25.938C40.352 26.306 40.4708 26.6611 40.656 26.9823C41.0458 27.6604 41.6808 28.11 42.3856 28.2852V35.6744C42.3497 35.6832 42.3139 35.6928 42.2784 35.7029L33.9145 21.217C33.9398 21.1928 33.9647 21.1681 33.989 21.1431V21.143ZM30.0872 21.2186L21.7234 35.7043C21.6873 35.6939 21.6509 35.6841 21.6144 35.6752V28.2852C22.3191 28.11 22.9542 27.6604 23.344 26.9823C23.5296 26.6605 23.6485 26.3047 23.6935 25.9359C23.7385 25.5672 23.7088 25.1932 23.6061 24.8362L30.0081 21.1399C30.0339 21.1666 30.0603 21.1929 30.0872 21.2185V21.2186ZM32.7737 21.8748L41.1355 36.3573C40.9439 36.54 40.7798 36.7495 40.648 36.9791C40.5166 37.2073 40.4183 37.4531 40.3562 37.7091H23.644C23.5818 37.4531 23.4835 37.2073 23.352 36.9791C23.2198 36.751 23.0559 36.5429 22.8653 36.3608L31.2287 21.8754C31.4794 21.9476 31.7391 21.9841 32 21.9839C32.2686 21.9839 32.5282 21.9458 32.7737 21.8748ZM34.0477 42.8811L40.4099 39.2078C40.3909 39.1478 40.3738 39.0872 40.3589 39.0261H23.6405C23.6316 39.062 23.622 39.0977 23.6117 39.1332L30.0051 42.8246C30.2633 42.5561 30.5731 42.3427 30.9159 42.1971C31.2588 42.0515 31.6275 41.9769 32 41.9776C32.3855 41.9769 32.7668 42.0569 33.1195 42.2125C33.4722 42.3682 33.7884 42.5959 34.0477 42.8811Z" fill="#E535AB"/>
</g>
<defs>
<filter id="filter0_d_193_5134" x="0" y="0" width="64" height="64" filterUnits="userSpaceOnUse" color-interpolation-filters="sRGB">
<feFlood flood-opacity="0" result="BackgroundImageFix"/>
<feColorMatrix in="SourceAlpha" type="matrix" values="0 0 0 0 0 0 0 0 0 0 0 0 0 0 0 0 0 0 127 0" result="hardAlpha"/>
<feOffset/>
<feGaussianBlur stdDeviation="2"/>
<feComposite in2="hardAlpha" operator="out"/>
<feColorMatrix type="matrix" values="0 0 0 0 0 0 0 0 0 0 0 0 0 0 0 0 0 0 0.1 0"/>
<feBlend mode="normal" in2="BackgroundImageFix" result="effect1_dropShadow_193_5134"/>
<feBlend mode="normal" in="SourceGraphic" in2="effect1_dropShadow_193_5134" result="shape"/>
</filter>
</defs>
</svg>
