<svg width="64" height="64" viewBox="0 0 64 64" fill="none" xmlns="http://www.w3.org/2000/svg">
<g filter="url(#filter0_d_193_5026)">
<rect x="4" y="4" width="56" height="56" rx="16" fill="white" shape-rendering="crispEdges"/>
<path d="M16.4445 16.4445H47.5556V47.5556H16.4445V16.4445Z" fill="#CF4547"/>
<path d="M27.2091 32.2071C27.1945 32.2285 27.1689 32.2949 27.1311 32.4076C27.0933 32.5204 27.0476 32.6611 26.994 32.8305C26.9404 32.9999 26.8819 33.1901 26.8197 33.3997C26.7569 33.6093 26.6923 33.8238 26.6265 34.042C26.5601 34.2607 26.4967 34.4746 26.4358 34.6849C26.3749 34.8945 26.32 35.0846 26.2719 35.254C26.2237 35.4234 26.1835 35.5654 26.1512 35.6806C26.1189 35.7952 26.0994 35.8628 26.0921 35.8841C26.0744 35.9518 26.0458 36.0273 26.0062 36.1102C25.9666 36.1931 25.9203 36.2711 25.8666 36.3454C25.813 36.4198 25.7539 36.4813 25.6893 36.5301C25.6247 36.5788 25.5583 36.6032 25.4906 36.6032C25.3761 36.6032 25.2926 36.5648 25.2408 36.4886C25.189 36.4125 25.1628 36.2723 25.1628 36.0688V35.9798C25.1628 35.9499 25.1646 35.9183 25.1683 35.8847C25.1719 35.8171 25.1988 35.6897 25.2487 35.5027C25.2987 35.3162 25.359 35.1053 25.4285 34.8695C25.498 34.6337 25.5735 34.3905 25.654 34.1377C25.7344 33.8854 25.8069 33.6593 25.8715 33.46C25.6814 33.6721 25.476 33.8829 25.2536 34.0932C25.0318 34.3034 24.8039 34.4917 24.5717 34.6593C24.3389 34.8269 24.1043 34.964 23.8679 35.0694C23.6314 35.1754 23.4041 35.2284 23.186 35.2284C22.9355 35.2284 22.7198 35.173 22.5388 35.0633C22.3578 34.953 22.2085 34.8086 22.0903 34.6306C21.9721 34.4527 21.8844 34.251 21.8271 34.0261C21.7698 33.8013 21.7411 33.5764 21.7411 33.3516V33.2687C21.7411 33.2431 21.743 33.2181 21.7466 33.1925C21.768 32.7854 21.8265 32.3674 21.9209 31.939C22.016 31.5106 22.1403 31.0841 22.2945 30.6605C22.4486 30.2364 22.6266 29.822 22.8289 29.4168C23.0312 29.0116 23.2512 28.6289 23.4895 28.2687C23.7277 27.9086 23.9806 27.5765 24.2493 27.273C24.5181 26.9696 24.7935 26.7087 25.0763 26.4906C25.359 26.2724 25.6448 26.1018 25.9331 25.9787C26.2213 25.8556 26.5071 25.7941 26.7898 25.7941C27.1159 25.7941 27.4309 25.883 27.735 26.061C28.0391 26.2389 28.3236 26.5278 28.5887 26.9263C28.6497 27.0153 28.688 27.1054 28.7039 27.1969C28.7197 27.2883 28.7283 27.3742 28.7283 27.4546C28.7283 27.6454 28.6826 27.7959 28.5912 27.9062C28.4997 28.0165 28.3913 28.0713 28.2664 28.0713C28.1518 28.0713 28.0452 28.011 27.947 27.8897C27.8483 27.7691 27.7386 27.596 27.6168 27.3711C27.5022 27.1676 27.3761 27.0201 27.2383 26.9287C27.1006 26.8373 26.9507 26.7922 26.7898 26.7922C26.5394 26.7922 26.2713 26.8964 25.9867 27.1042C25.7021 27.312 25.42 27.5869 25.1409 27.9281C24.8618 28.2694 24.5936 28.6594 24.3377 29.0987C24.0818 29.5375 23.8551 29.9872 23.6582 30.4473C23.4614 30.9073 23.3048 31.3613 23.1884 31.8086C23.072 32.2559 23.0141 32.6581 23.0141 33.0146C23.0141 33.1334 23.0221 33.2553 23.0385 33.3802C23.055 33.5051 23.0848 33.6191 23.1299 33.7208C23.1744 33.8226 23.2353 33.9067 23.3127 33.9719C23.3895 34.0377 23.487 34.0706 23.6052 34.0706C23.7375 34.0706 23.888 34.0261 24.0562 33.9372C24.2244 33.8482 24.3993 33.7318 24.5796 33.5874C24.7606 33.443 24.9422 33.2797 25.125 33.0974C25.3078 32.9152 25.4778 32.7306 25.6351 32.5441C25.7923 32.3577 25.9324 32.1785 26.0537 32.0067C26.1756 31.8348 26.267 31.6855 26.3273 31.5582L26.827 30.0634C26.8879 29.9025 26.9678 29.7879 27.0659 29.7197C27.1646 29.652 27.2658 29.6179 27.3694 29.6179C27.4193 29.6179 27.4693 29.6264 27.5199 29.6435C27.5698 29.6606 27.6149 29.6868 27.6539 29.7233C27.6935 29.7593 27.7246 29.8062 27.7478 29.8635C27.7709 29.9208 27.7825 29.9878 27.7825 30.064C27.7825 30.2675 27.7648 30.4582 27.7289 30.6368C27.6929 30.8153 27.6472 30.989 27.5918 31.1584C27.5363 31.3278 27.4748 31.4991 27.4065 31.6703C27.3395 31.8409 27.2731 32.0201 27.2091 32.2071ZM33.9817 33.4539C33.8239 33.666 33.6405 33.8726 33.4314 34.0743C33.2218 34.276 33.0061 34.4551 32.7843 34.6117C32.5625 34.7684 32.3437 34.8945 32.1292 34.9902C31.9141 35.0858 31.7209 35.1334 31.5491 35.1334C31.3772 35.1334 31.2377 35.0761 31.1298 34.9615C31.0226 34.847 30.9689 34.652 30.9689 34.3759C30.9689 34.1809 30.9976 33.9536 31.0549 33.6952C30.9616 33.861 30.8452 34.0286 30.7057 34.198C30.5661 34.3674 30.4065 34.5222 30.2273 34.6623C30.0482 34.8025 29.8477 34.9158 29.6259 35.0024C29.4041 35.0895 29.1621 35.1328 28.9007 35.1328C28.7825 35.1328 28.6685 35.1181 28.5595 35.0883C28.4504 35.0584 28.3547 35.0078 28.2725 34.9359C28.1902 34.864 28.1238 34.7677 28.0738 34.6465C28.0238 34.5258 27.9988 34.3741 27.9988 34.1919C27.9988 34.1876 28.0062 34.123 28.0202 33.9981C28.0342 33.8732 28.0799 33.6757 28.1573 33.4064C28.2341 33.1371 28.3535 32.7885 28.5144 32.3601C28.6759 31.9317 28.9032 31.4125 29.1963 30.8013C29.2712 30.6404 29.3584 30.5247 29.4565 30.4546C29.5552 30.3845 29.6612 30.3498 29.7758 30.3498C29.8258 30.3498 29.8775 30.3571 29.9318 30.3717C29.9854 30.3869 30.0354 30.4101 30.0823 30.4418C30.1286 30.4735 30.1664 30.5137 30.195 30.5624C30.2237 30.6112 30.2383 30.6673 30.2383 30.7312C30.2383 30.7739 30.2328 30.8141 30.2218 30.8519C30.2042 30.9244 30.1658 31.0183 30.1061 31.1353C30.047 31.2523 29.9781 31.3857 29.8995 31.5362C29.8209 31.6867 29.7374 31.8488 29.6496 32.0231C29.5619 32.1968 29.4802 32.3772 29.4053 32.5636C29.3303 32.7501 29.2657 32.9402 29.2121 33.1328C29.1585 33.326 29.128 33.5137 29.1207 33.6959C29.1207 33.772 29.1384 33.8421 29.1743 33.9061C29.2103 33.9695 29.2694 34.0018 29.3517 34.0018C29.5844 34.0018 29.8063 33.9256 30.0177 33.7726C30.2292 33.6203 30.4242 33.4302 30.6033 33.2035C30.7825 32.9768 30.9446 32.733 31.0896 32.4716C31.2346 32.2108 31.3559 31.9725 31.4522 31.7562C31.5204 31.6118 31.5801 31.457 31.6319 31.2919C31.6837 31.1267 31.7404 30.9738 31.8014 30.8336C31.8623 30.6935 31.9318 30.5771 32.011 30.4838C32.0896 30.3906 32.1883 30.3437 32.3065 30.3437C32.4351 30.3437 32.5375 30.3924 32.6124 30.4899C32.6874 30.5874 32.7252 30.7044 32.7252 30.8397C32.7252 30.9159 32.7014 31.0213 32.6527 31.1548C32.6039 31.2882 32.5436 31.4412 32.4698 31.613C32.3967 31.7848 32.3169 31.9683 32.231 32.1633C32.145 32.3583 32.0652 32.5569 31.9921 32.758C31.9184 32.9597 31.858 33.1566 31.8093 33.3497C31.7611 33.5429 31.7368 33.7221 31.7368 33.8872C31.7368 34.0402 31.8154 34.1163 31.9732 34.1163C32.0841 34.1163 32.2218 34.0779 32.387 34.0018C32.5521 33.9256 32.7246 33.8183 32.9055 33.6806C33.0865 33.5429 33.2669 33.3808 33.4479 33.1937C33.6289 33.0073 33.7891 32.8056 33.9287 32.5892L33.9817 33.4539Z" fill="white" stroke="white" stroke-width="0.264085" stroke-miterlimit="10"/>
<path d="M34.1487 33.1359C34.1091 33.2334 34.0707 33.3467 34.0329 33.4765C33.9951 33.6057 33.9768 33.7215 33.9768 33.8233C33.9768 33.8867 33.9878 33.9378 34.0091 33.9762C34.0304 34.0146 34.0719 34.0335 34.1328 34.0335C34.2078 34.0335 34.3016 34.0073 34.415 33.9537C34.5277 33.9007 34.6496 33.8306 34.78 33.7434C34.911 33.6569 35.0469 33.557 35.1883 33.4442C35.3296 33.3321 35.4704 33.2151 35.61 33.0945C35.7495 32.9732 35.883 32.8525 36.0103 32.7319C36.1377 32.6106 36.251 32.4997 36.3516 32.3979C36.3802 32.3681 36.4143 32.3468 36.4533 32.3346C36.4923 32.3218 36.5265 32.3157 36.5551 32.3157C36.6264 32.3157 36.6861 32.3455 36.7324 32.4046C36.7787 32.4638 36.8019 32.5424 36.8019 32.6399C36.8019 32.7288 36.7769 32.8288 36.7269 32.9391C36.677 33.0494 36.5892 33.1578 36.4637 33.2633C36.2346 33.5137 36.0036 33.7508 35.7708 33.9756C35.538 34.2005 35.3065 34.3985 35.0755 34.5704C34.8446 34.7422 34.6154 34.8787 34.3882 34.9811C34.1609 35.0829 33.9396 35.1334 33.7245 35.1334C33.5777 35.1334 33.4552 35.1103 33.3565 35.0634C33.2578 35.0164 33.1791 34.9531 33.12 34.8726C33.0609 34.7922 33.0189 34.6965 32.9939 34.5862C32.9689 34.4759 32.9561 34.3595 32.9561 34.2364C32.9561 34.0286 32.9823 33.8154 33.0341 33.5972C33.0859 33.379 33.1475 33.1786 33.2194 32.9964C33.3449 32.6655 33.4716 32.337 33.6008 32.0104C33.7294 31.6838 33.8476 31.3846 33.9555 31.1134L35.5825 27.0098C35.6471 26.8447 35.7337 26.7277 35.8433 26.6601C35.9524 26.5924 36.0627 26.5583 36.1736 26.5583C36.2845 26.5583 36.3857 26.5942 36.4771 26.6661C36.5685 26.7381 36.6142 26.8551 36.6142 27.0159C36.6142 27.0921 36.599 27.1731 36.5685 27.2579C36.538 27.3426 36.4996 27.434 36.4533 27.5315C36.3637 27.7307 36.2571 27.9745 36.134 28.2627C36.0103 28.551 35.8781 28.8648 35.7367 29.2042C35.5953 29.5436 35.4503 29.8965 35.3016 30.2633C35.1529 30.6301 35.0079 30.9872 34.8665 31.3352C34.7251 31.6831 34.5929 32.0128 34.4692 32.3242C34.3443 32.6362 34.2376 32.9068 34.1487 33.1359Z" fill="white" stroke="white" stroke-width="0.264085" stroke-miterlimit="10"/>
<path d="M41.7592 31.9841C41.8091 31.95 41.8561 31.9226 41.8987 31.9013C41.9414 31.8799 41.9828 31.8696 42.0224 31.8696C42.101 31.8696 42.1601 31.9049 42.1998 31.9744C42.2394 32.0445 42.2589 32.1304 42.2589 32.2322C42.2589 32.3425 42.2351 32.4546 42.1863 32.5691C42.1382 32.6837 42.0657 32.7788 41.9688 32.8555C41.5855 33.195 41.2436 33.5045 40.9432 33.7842C40.6422 34.0639 40.3588 34.3046 40.0919 34.5063C39.825 34.7081 39.5648 34.8634 39.3107 34.9737C39.0566 35.084 38.7842 35.1389 38.4941 35.1389C38.2217 35.1389 38.0115 35.0792 37.8628 34.9609C37.7141 34.8421 37.6398 34.6788 37.6398 34.471V34.4235C37.6398 34.4088 37.6416 34.3906 37.6453 34.3692C37.6593 34.2419 37.7154 34.0956 37.8116 33.9305C37.9085 33.7653 38.0249 33.5935 38.1608 33.415C38.2967 33.2364 38.4417 33.0566 38.5959 32.8744C38.7501 32.6922 38.8921 32.5192 39.0231 32.3559C39.1535 32.1925 39.2619 32.0432 39.3479 31.9074C39.4338 31.7715 39.4771 31.6618 39.4771 31.5765C39.4771 31.5253 39.4588 31.4851 39.4234 31.4558C39.3875 31.4259 39.3284 31.4113 39.2461 31.4113C39.1029 31.4113 38.9554 31.4485 38.8031 31.5228C38.6507 31.5972 38.5002 31.6965 38.3522 31.8214C38.2035 31.9464 38.0584 32.0896 37.9171 32.251C37.7757 32.4125 37.6434 32.5795 37.5197 32.7538C37.396 32.9281 37.2833 33.1023 37.1815 33.2785C37.0798 33.4546 36.9926 33.6167 36.9213 33.7653C36.9 33.8123 36.8695 33.8781 36.8299 33.9628C36.7903 34.0475 36.7477 34.1432 36.7013 34.2492C36.6544 34.3552 36.6057 34.4643 36.5533 34.5764C36.5015 34.6892 36.4539 34.7952 36.4113 34.8945C36.368 34.9945 36.3296 35.0828 36.2955 35.162C36.2614 35.2406 36.237 35.2943 36.223 35.3241C36.2047 35.3625 36.1755 35.4344 36.134 35.5405C36.0926 35.6465 36.0457 35.7702 35.9914 35.9128C35.9378 36.0548 35.8811 36.2041 35.8226 36.3613C35.7635 36.5185 35.7081 36.6666 35.6563 36.8067C35.6045 36.9469 35.5588 37.0694 35.5192 37.1754C35.4795 37.2815 35.4546 37.3534 35.4436 37.3917C35.4076 37.502 35.3656 37.6056 35.3175 37.7037C35.2693 37.8012 35.2139 37.8872 35.1511 37.9615C35.0883 38.0359 35.017 38.095 34.936 38.1395C34.8555 38.1839 34.7648 38.2059 34.6648 38.2059C34.5356 38.2059 34.4296 38.1748 34.3449 38.1139C34.2608 38.0523 34.2188 37.9347 34.2188 37.761C34.2188 37.6763 34.2297 37.5892 34.251 37.5002C34.2724 37.4112 34.2998 37.3229 34.3315 37.2364C34.3638 37.1492 34.3967 37.0645 34.4308 36.9822C34.4649 36.8994 34.496 36.8202 34.5247 36.7434C34.7178 36.3192 34.9153 35.8939 35.1158 35.4679C35.3162 35.0414 35.5088 34.6197 35.6928 34.2017C35.8775 33.7842 36.0481 33.3735 36.2059 32.9707C36.3631 32.5679 36.4942 32.1816 36.5978 31.8129C36.6264 31.7367 36.666 31.6283 36.716 31.4881C36.7659 31.3479 36.8232 31.2102 36.8878 31.0743C36.9524 30.9384 37.0249 30.8208 37.1054 30.7215C37.1858 30.6216 37.2729 30.5722 37.3656 30.5722C37.5088 30.5722 37.6124 30.6051 37.677 30.6709C37.7416 30.7367 37.7739 30.833 37.7739 30.9604C37.7739 30.986 37.7702 31.0262 37.7629 31.081C37.7556 31.1359 37.7464 31.1944 37.7361 31.2559C37.7251 31.3175 37.7135 31.376 37.7013 31.4308C37.6885 31.4857 37.677 31.5259 37.6666 31.5515C37.7988 31.4071 37.942 31.2645 38.0962 31.1219C38.2504 30.9799 38.4094 30.8513 38.5746 30.7367C38.7391 30.6222 38.9073 30.5289 39.0791 30.4564C39.251 30.3845 39.4228 30.3486 39.5947 30.3486C39.7129 30.3486 39.8299 30.3656 39.9463 30.3998C40.0627 30.4339 40.1663 30.4832 40.2577 30.5491C40.3491 30.6149 40.4234 30.6977 40.4807 30.7971C40.538 30.897 40.5666 31.0122 40.5666 31.1438C40.5666 31.3181 40.5227 31.5033 40.435 31.7008C40.3472 31.8982 40.237 32.0963 40.1047 32.2955C39.9719 32.4948 39.8287 32.6892 39.6751 32.8775C39.5209 33.0664 39.3771 33.2382 39.2424 33.393C39.1084 33.5478 38.9957 33.6794 38.9042 33.7873C38.8128 33.8958 38.7653 33.9689 38.7617 34.0067C38.7617 34.0578 38.7781 34.0987 38.8098 34.131C38.8415 34.1633 38.8957 34.1785 38.9713 34.1785C39.0322 34.1785 39.1218 34.1444 39.24 34.0767C39.3582 34.0091 39.524 33.8915 39.7367 33.7239C39.9493 33.5563 40.2199 33.3315 40.5477 33.0493C40.8756 32.7678 41.2796 32.4125 41.7592 31.9841Z" fill="white" stroke="white" stroke-width="0.264085" stroke-miterlimit="10"/>
</g>
<defs>
<filter id="filter0_d_193_5026" x="0" y="0" width="64" height="64" filterUnits="userSpaceOnUse" color-interpolation-filters="sRGB">
<feFlood flood-opacity="0" result="BackgroundImageFix"/>
<feColorMatrix in="SourceAlpha" type="matrix" values="0 0 0 0 0 0 0 0 0 0 0 0 0 0 0 0 0 0 127 0" result="hardAlpha"/>
<feOffset/>
<feGaussianBlur stdDeviation="2"/>
<feComposite in2="hardAlpha" operator="out"/>
<feColorMatrix type="matrix" values="0 0 0 0 0 0 0 0 0 0 0 0 0 0 0 0 0 0 0.1 0"/>
<feBlend mode="normal" in2="BackgroundImageFix" result="effect1_dropShadow_193_5026"/>
<feBlend mode="normal" in="SourceGraphic" in2="effect1_dropShadow_193_5026" result="shape"/>
</filter>
</defs>
</svg>
