<svg width="65" height="64" viewBox="0 0 65 64" fill="none" xmlns="http://www.w3.org/2000/svg">
<g filter="url(#filter0_d_193_4650)">
<rect x="4" y="4" width="56.3129" height="56" rx="16" fill="white" shape-rendering="crispEdges"/>
<path opacity="0.263538" d="M54.9743 43.5415C54.9743 44.4197 44.9065 45.1315 32.4872 45.1315C20.0678 45.1315 10 44.4197 10 43.5415C10 42.9735 14.286 42.4486 21.2436 42.1646C28.2011 41.8805 36.7732 41.8805 43.7308 42.1646C50.6883 42.4486 54.9743 42.9735 54.9743 43.5415Z" fill="url(#paint0_linear_193_4650)"/>
<path d="M29.4482 44.1818C29.0129 44.0433 29.0113 43.9821 29.4124 42.7643C29.8129 41.5482 29.6294 40.4188 28.8869 39.5311C27.8772 38.3239 27.391 37.2938 27.2361 36.0335C27.103 34.9515 27.0608 34.8658 26.6203 34.7812C26.3249 34.7245 25.9167 34.8368 24.9439 35.2426C23.5285 35.833 23.1915 36.0922 22.8575 36.8471C22.682 37.2436 22.6609 37.4812 22.7605 37.9399C22.882 38.5 23.38 39.4016 23.5685 39.4028C23.6177 39.4032 23.8895 39.5893 24.1725 39.8165C24.6421 40.1936 24.6744 40.2591 24.5415 40.5664C24.2528 41.2342 23.5667 42.0439 23.2897 42.0439C23.1342 42.0439 22.4994 41.5992 21.8006 41.0008C20.428 39.8256 20.3705 39.7077 20.2287 37.7813C20.0595 35.4827 20.6248 34.41 23.1422 32.2518L24.7212 30.8982L24.822 30.0771C24.926 29.2307 24.7794 27.2153 24.533 26.1027C24.3874 25.4455 23.907 24.8195 23.4511 24.693C22.9544 24.5552 22.6632 24.8396 22.2853 25.8314C21.8777 26.9015 21.488 27.2749 20.7788 27.2749C20.3371 27.2749 19.9249 26.9923 19.6402 26.4944C19.4363 26.1376 19.3179 23.9942 19.4398 22.866C19.4985 22.3233 19.5018 21.7738 19.4473 21.6449C19.3585 21.4352 18.5943 20.9815 16.7926 20.069C16.4651 19.9032 16.0832 19.6798 15.9441 19.5727C15.8049 19.4656 15.4438 19.2687 15.1416 19.1351C14.4571 18.8326 12.6724 17.7891 12.8395 17.7891C13.1556 17.7891 14.4951 18.2014 15.2083 18.5181C15.6436 18.7115 16.0603 18.8697 16.1343 18.8697C16.2083 18.8697 17.0475 19.1399 17.9993 19.4701C18.9511 19.8003 19.821 20.0705 19.9325 20.0705C20.1972 20.0705 20.2387 19.8414 20.1539 18.8489C20.1154 18.3981 20.1171 18.0292 20.1577 18.0292C20.1983 18.0292 20.3737 18.1163 20.5474 18.2226C21.0783 18.5477 22.2201 18.7467 23.5622 18.7482C24.8455 18.7497 26.5205 19.0043 27.1607 19.2952C28.0791 19.7125 29.1444 21.0161 30.4957 23.3761C31.4352 25.0168 32.4447 25.7115 33.8914 25.7131C34.4762 25.7137 36.0366 25.4726 38.1496 25.0552C39.8918 24.711 42.1918 24.6337 43.0846 24.8892C44.1737 25.201 45.6138 26.0344 46.8045 27.0421C47.9189 27.9852 48.0905 28.1946 48.7751 29.4461C49.5921 30.9397 50.4937 33.0624 51.2956 35.3798C51.4098 35.71 51.6512 36.2654 51.8318 36.6141C52.314 37.5444 52.2899 37.6012 51.4138 37.6012C50.4629 37.6012 50.017 37.4512 49.3936 36.9219C48.7958 36.4142 48.6396 36.1036 47.7038 33.5612C47.2245 32.2589 46.7579 31.4774 46.4597 31.4774C46.2554 31.4774 45.8418 32.873 45.8418 33.5624C45.8418 34.0521 46.1487 34.7137 46.942 35.9344C48.2309 37.9173 48.9089 40.7205 48.6375 42.9444L48.5203 43.905L47.6613 43.9408C46.309 43.9971 46.3225 44.0159 46.3225 42.0821C46.3225 40.0234 46.1823 39.5776 45.2738 38.7473C44.8965 38.4024 44.0499 37.4226 43.3924 36.5699C42.735 35.7172 42.1055 35.0196 41.9934 35.0196C41.7359 35.0196 41.6075 35.7208 41.5938 37.2017C41.5848 38.177 41.5464 38.3421 41.2586 38.6426C40.4785 39.4573 39.931 40.9408 39.5934 43.1541C39.5187 43.644 39.4546 43.7356 39.1371 43.8069C38.6702 43.9118 37.3763 43.9289 37.2648 43.8318C37.1686 43.748 37.3371 42.4176 37.7194 40.2428C37.8645 39.4173 38.0228 38.3096 38.0713 37.7813C38.1576 36.8408 37.9647 35.0786 37.7365 34.7221C37.6416 34.5739 37.1584 34.5418 34.8982 34.5335C33.4001 34.528 31.7571 34.4787 31.2472 34.424L30.32 34.3245V34.7359C30.32 35.1765 30.4329 35.5649 31.1881 37.7212C31.4541 38.4807 31.8395 39.6385 32.0446 40.2941L32.4175 41.4862L32.1029 42.4555C31.9298 42.9885 31.6729 43.6273 31.5321 43.875C31.2836 44.3118 31.2545 44.325 30.5576 44.3158C30.1625 44.3106 29.6633 44.2503 29.4482 44.1818Z" fill="#499848"/>
</g>
<defs>
<filter id="filter0_d_193_4650" x="0" y="0" width="64.3129" height="64" filterUnits="userSpaceOnUse" color-interpolation-filters="sRGB">
<feFlood flood-opacity="0" result="BackgroundImageFix"/>
<feColorMatrix in="SourceAlpha" type="matrix" values="0 0 0 0 0 0 0 0 0 0 0 0 0 0 0 0 0 0 127 0" result="hardAlpha"/>
<feOffset/>
<feGaussianBlur stdDeviation="2"/>
<feComposite in2="hardAlpha" operator="out"/>
<feColorMatrix type="matrix" values="0 0 0 0 0 0 0 0 0 0 0 0 0 0 0 0 0 0 0.1 0"/>
<feBlend mode="normal" in2="BackgroundImageFix" result="effect1_dropShadow_193_4650"/>
<feBlend mode="normal" in="SourceGraphic" in2="effect1_dropShadow_193_4650" result="shape"/>
</filter>
<linearGradient id="paint0_linear_193_4650" x1="3325.32" y1="55.0046" x2="3280.97" y2="494.142" gradientUnits="userSpaceOnUse">
<stop stop-color="#959595"/>
<stop offset="1" stop-color="#CCCCCC"/>
</linearGradient>
</defs>
</svg>
