<svg width="64" height="64" viewBox="0 0 64 64" fill="none" xmlns="http://www.w3.org/2000/svg">
<g filter="url(#filter0_d_193_4196)">
<rect x="4" y="4" width="56" height="56" rx="16" fill="white" shape-rendering="crispEdges"/>
<path d="M47.5556 32.6797C47.5556 30.2202 46.9198 27.9098 45.8046 25.9019C50.5576 15.1449 40.7119 16.7204 40.1637 16.8277C38.0778 17.236 36.1479 17.8912 34.3679 18.722C34.1054 18.7072 33.8412 18.699 33.5752 18.699C26.9318 18.699 21.371 23.3326 19.9477 29.5443C23.4492 25.6162 25.8996 24.0312 27.367 23.3971C27.1344 23.6052 26.9047 23.8166 26.678 24.0312C26.6029 24.102 26.5306 24.174 26.4565 24.2452C26.3079 24.3875 26.1605 24.5311 26.0144 24.676C25.9281 24.7619 25.8443 24.8486 25.7592 24.9352C25.6309 25.0653 25.5034 25.1964 25.377 25.3284C25.2878 25.422 25.2008 25.5157 25.1133 25.6093C24.9963 25.7342 24.8802 25.86 24.7651 25.9866C24.6764 26.0846 24.5889 26.1826 24.5016 26.2809C24.3048 26.5023 24.1105 26.7259 23.9188 26.9517C23.8189 27.0697 23.7196 27.1883 23.621 27.3075C23.5343 27.4125 23.4478 27.5172 23.3628 27.6221C23.2717 27.7348 23.1812 27.848 23.0913 27.9616C23.0043 28.0713 22.9174 28.1806 22.8325 28.2901C22.7515 28.3943 22.673 28.4981 22.5939 28.602C22.5046 28.7195 22.4145 28.8369 22.3276 28.9537C22.2654 29.0373 22.2057 29.1202 22.1446 29.2034C21.6178 29.9221 21.1133 30.6568 20.6317 31.4065C20.6305 31.4082 20.6293 31.4099 20.6284 31.4117C20.5106 31.5954 20.3941 31.7801 20.279 31.9655C20.273 31.9753 20.2666 31.9853 20.2606 31.9954C20.1491 32.1752 20.039 32.3558 19.9301 32.5372L19.9187 32.556C19.6458 33.0106 19.3809 33.4699 19.1243 33.9339C17.8651 36.2157 17.2521 37.8099 17.2256 37.9046C13.2495 52.1197 25.6592 46.1168 27.3908 45.2207C29.2555 46.1419 31.3545 46.6603 33.5752 46.6603C39.6541 46.6603 44.8262 42.7799 46.7515 37.3611H39.4056C38.3186 39.1974 36.2261 40.4412 33.822 40.4412C30.2996 40.4412 27.4443 37.7725 27.4443 34.4803H47.4405C47.5164 33.8907 47.5556 33.2898 47.5556 32.6797ZM44.944 18.9219C46.148 19.7346 47.1135 21.0106 45.4552 25.3082C43.8647 22.7503 41.4718 20.7437 38.6277 19.6409C39.9215 19.0161 43.1254 17.6945 44.944 18.9219ZM19.3587 45.1921C18.378 44.1865 18.2047 41.7372 20.3686 37.2741C21.4605 40.4138 23.6396 43.0445 26.4562 44.714C25.0554 45.4851 21.3367 47.221 19.3587 45.1921ZM27.4135 30.6573C27.5253 27.4575 30.3099 24.8956 33.7313 24.8956C37.1527 24.8956 39.9375 27.4575 40.0493 30.6573H27.4135Z" fill="#1EBBEE"/>
</g>
<defs>
<filter id="filter0_d_193_4196" x="0" y="0" width="64" height="64" filterUnits="userSpaceOnUse" color-interpolation-filters="sRGB">
<feFlood flood-opacity="0" result="BackgroundImageFix"/>
<feColorMatrix in="SourceAlpha" type="matrix" values="0 0 0 0 0 0 0 0 0 0 0 0 0 0 0 0 0 0 127 0" result="hardAlpha"/>
<feOffset/>
<feGaussianBlur stdDeviation="2"/>
<feComposite in2="hardAlpha" operator="out"/>
<feColorMatrix type="matrix" values="0 0 0 0 0 0 0 0 0 0 0 0 0 0 0 0 0 0 0.1 0"/>
<feBlend mode="normal" in2="BackgroundImageFix" result="effect1_dropShadow_193_4196"/>
<feBlend mode="normal" in="SourceGraphic" in2="effect1_dropShadow_193_4196" result="shape"/>
</filter>
</defs>
</svg>
