<svg width="65" height="64" viewBox="0 0 65 64" fill="none" xmlns="http://www.w3.org/2000/svg">
<g filter="url(#filter0_d_193_4156)">
<rect x="4.06726" y="4" width="56.3129" height="56" rx="16" fill="white" shape-rendering="crispEdges"/>
<path d="M45.0301 16.4445H19.4173C17.851 16.4445 16.5812 17.7071 16.5812 19.2648V44.7353C16.5812 46.2929 17.851 47.5556 19.4173 47.5556H45.0301C46.5964 47.5556 47.8662 46.2929 47.8662 44.7353V19.2648C47.8662 17.7071 46.5964 16.4445 45.0301 16.4445Z" fill="#DC395F"/>
<path d="M27.0366 26.2329C28.0766 26.2329 28.9478 25.4223 28.9478 24.3599C28.9478 23.2983 28.0766 22.4878 27.0366 22.4878C25.9966 22.4878 25.1257 23.2983 25.1257 24.3599C25.1257 25.4222 25.9966 26.2329 27.0366 26.2329ZM23.0739 36.2614C22.9616 36.7366 22.9053 37.2497 22.9053 37.6682C22.9053 39.3175 23.8046 40.4123 25.7158 40.4123C27.3008 40.4123 28.5858 39.4763 29.5111 37.9649L28.9461 40.2196H32.0935L33.8924 33.0447C34.3421 31.2281 35.2133 30.2852 36.5344 30.2852C37.5743 30.2852 38.2206 30.9283 38.2206 31.9899C38.2206 32.2975 38.1925 32.6326 38.0801 32.9961L37.1525 36.294C37.012 36.7692 36.956 37.2446 36.956 37.6914C36.956 39.2571 37.8832 40.4022 39.8225 40.4022C41.4807 40.4022 42.8015 39.3407 43.5323 36.7972L42.2958 36.3225C41.6775 38.0265 41.1434 38.3346 40.7218 38.3346C40.3002 38.3346 40.0753 38.0553 40.0753 37.4966C40.0753 37.2451 40.1318 36.9659 40.2159 36.6298L41.1154 33.4168C41.3402 32.6624 41.4246 31.9934 41.4246 31.3787C41.4246 28.9751 39.963 27.7207 38.1925 27.7207C36.5344 27.7207 34.8479 29.2081 34.005 30.7735L34.6231 27.9637H29.8174L29.1428 30.4385H31.3913L30.0067 35.951C28.9195 38.3546 26.9222 38.3936 26.6716 38.3378C26.26 38.2455 25.9968 38.09 25.9968 37.5582C25.9968 37.2514 26.053 36.8106 26.1935 36.2792L28.3016 27.9637H22.9616L22.287 30.4385H24.5072L23.0741 36.2614" fill="white"/>
</g>
<defs>
<filter id="filter0_d_193_4156" x="0.0672607" y="0" width="64.3129" height="64" filterUnits="userSpaceOnUse" color-interpolation-filters="sRGB">
<feFlood flood-opacity="0" result="BackgroundImageFix"/>
<feColorMatrix in="SourceAlpha" type="matrix" values="0 0 0 0 0 0 0 0 0 0 0 0 0 0 0 0 0 0 127 0" result="hardAlpha"/>
<feOffset/>
<feGaussianBlur stdDeviation="2"/>
<feComposite in2="hardAlpha" operator="out"/>
<feColorMatrix type="matrix" values="0 0 0 0 0 0 0 0 0 0 0 0 0 0 0 0 0 0 0.1 0"/>
<feBlend mode="normal" in2="BackgroundImageFix" result="effect1_dropShadow_193_4156"/>
<feBlend mode="normal" in="SourceGraphic" in2="effect1_dropShadow_193_4156" result="shape"/>
</filter>
</defs>
</svg>
