<svg width="64" height="64" viewBox="0 0 64 64" fill="none" xmlns="http://www.w3.org/2000/svg">
<g filter="url(#filter0_d_193_5088)">
<rect x="4" y="4" width="56" height="56" rx="16" fill="white" shape-rendering="crispEdges"/>
<path d="M32 16.4445C23.3984 16.4445 16.4445 23.3984 16.4445 32C16.4445 40.6015 23.3984 47.5556 32 47.5556C40.6015 47.5556 47.5556 40.6015 47.5556 32V16.4445H32Z" fill="#F0047F"/>
<path d="M31.1542 32.8458V44.1858C25.1188 43.841 20.2605 39.0397 19.826 33.0283L19.8142 32.8458H31.1542ZM42.2086 32.8458C41.8926 38.8813 37.4914 43.7395 31.981 44.174L31.8136 44.1858V32.8458H42.2086ZM42.2222 21.7778V32.1864H31.8136V21.7778H42.2222Z" fill="white"/>
</g>
<defs>
<filter id="filter0_d_193_5088" x="0" y="0" width="64" height="64" filterUnits="userSpaceOnUse" color-interpolation-filters="sRGB">
<feFlood flood-opacity="0" result="BackgroundImageFix"/>
<feColorMatrix in="SourceAlpha" type="matrix" values="0 0 0 0 0 0 0 0 0 0 0 0 0 0 0 0 0 0 127 0" result="hardAlpha"/>
<feOffset/>
<feGaussianBlur stdDeviation="2"/>
<feComposite in2="hardAlpha" operator="out"/>
<feColorMatrix type="matrix" values="0 0 0 0 0 0 0 0 0 0 0 0 0 0 0 0 0 0 0.1 0"/>
<feBlend mode="normal" in2="BackgroundImageFix" result="effect1_dropShadow_193_5088"/>
<feBlend mode="normal" in="SourceGraphic" in2="effect1_dropShadow_193_5088" result="shape"/>
</filter>
</defs>
</svg>
