<svg width="64" height="64" viewBox="0 0 64 64" fill="none" xmlns="http://www.w3.org/2000/svg">
<g filter="url(#filter0_d_193_4714)">
<rect x="4" y="4" width="56" height="56" rx="16" fill="white" shape-rendering="crispEdges"/>
<path d="M27.9172 40.5044C27.9172 40.5044 26.7283 41.1958 28.7633 41.4297C31.2286 41.7109 32.4885 41.6707 35.2054 41.1564C35.2054 41.1564 35.9197 41.6043 36.9171 41.9922C30.8269 44.6024 23.1335 41.841 27.9172 40.5044ZM27.173 37.0983C27.173 37.0983 25.8395 38.0853 27.876 38.2959C30.5095 38.5676 32.5893 38.5899 36.188 37.8969C36.188 37.8969 36.6858 38.4015 37.4685 38.6775C30.1049 40.8307 21.9032 38.8473 27.173 37.0983Z" fill="#5382A1"/>
<path d="M33.4469 31.3204C34.9476 33.0481 33.0527 34.6028 33.0527 34.6028C33.0527 34.6028 36.863 32.6358 35.1131 30.1725C33.4787 27.8756 32.2253 26.7341 39.0106 22.799C39.0106 22.799 28.36 25.4589 33.4469 31.3203" fill="#E76F00"/>
<path d="M41.5018 43.0239C41.5018 43.0239 42.3816 43.7487 40.5328 44.3096C37.0175 45.3746 25.9013 45.6961 22.8133 44.352C21.7033 43.8692 23.785 43.199 24.4397 43.0583C25.1226 42.9102 25.5129 42.9379 25.5129 42.9379C24.2784 42.0682 17.5336 44.6455 22.0869 45.3835C34.5044 47.3973 44.7227 44.4768 41.5018 43.0239ZM28.4888 33.5691C28.4888 33.5691 22.8346 34.9122 26.4866 35.3998C28.0285 35.6062 31.1024 35.5596 33.9657 35.3196C36.3058 35.1223 38.6554 34.7026 38.6554 34.7026C38.6554 34.7026 37.8303 35.0559 37.2334 35.4635C31.4915 36.9737 20.3991 36.2712 23.5925 34.7264C26.2931 33.421 28.4889 33.5691 28.4889 33.5691H28.4888ZM38.6321 39.2388C44.4691 36.2057 41.7703 33.291 39.8866 33.6837C39.4249 33.7797 39.2191 33.863 39.2191 33.863C39.2191 33.863 39.3905 33.5945 39.7178 33.4783C43.4443 32.1681 46.3103 37.3424 38.5148 39.3917C38.5148 39.3918 38.6052 39.3111 38.6321 39.2388Z" fill="#5382A1"/>
<path d="M35.1131 16.4445C35.1131 16.4445 38.3457 19.6783 32.0471 24.6507C26.9963 28.6395 30.8954 30.9138 32.045 33.5123C29.0968 30.8523 26.9331 28.5106 28.3847 26.3313C30.5151 23.132 36.4173 21.581 35.1131 16.4445" fill="#E76F00"/>
<path d="M29.0625 47.4577C34.6652 47.8164 43.2688 47.2587 43.4726 44.6077C43.4726 44.6077 43.0809 45.6127 38.8422 46.4108C34.0602 47.3107 28.1622 47.2057 24.6641 46.6289C24.6642 46.6289 25.3802 47.2216 29.0626 47.4577" fill="#5382A1"/>
</g>
<defs>
<filter id="filter0_d_193_4714" x="0" y="0" width="64" height="64" filterUnits="userSpaceOnUse" color-interpolation-filters="sRGB">
<feFlood flood-opacity="0" result="BackgroundImageFix"/>
<feColorMatrix in="SourceAlpha" type="matrix" values="0 0 0 0 0 0 0 0 0 0 0 0 0 0 0 0 0 0 127 0" result="hardAlpha"/>
<feOffset/>
<feGaussianBlur stdDeviation="2"/>
<feComposite in2="hardAlpha" operator="out"/>
<feColorMatrix type="matrix" values="0 0 0 0 0 0 0 0 0 0 0 0 0 0 0 0 0 0 0.1 0"/>
<feBlend mode="normal" in2="BackgroundImageFix" result="effect1_dropShadow_193_4714"/>
<feBlend mode="normal" in="SourceGraphic" in2="effect1_dropShadow_193_4714" result="shape"/>
</filter>
</defs>
</svg>
