<svg width="64" height="64" viewBox="0 0 64 64" fill="none" xmlns="http://www.w3.org/2000/svg">
<g filter="url(#filter0_d_193_4392)">
<rect x="4" y="4" width="56" height="56" rx="16" fill="white" shape-rendering="crispEdges"/>
<path d="M18.2668 37.6338C18.2966 37.7012 18.3303 37.7634 18.3666 37.8257C18.3834 37.862 18.4068 37.8995 18.4275 37.9333C18.4612 38.0007 18.4975 38.0655 18.5325 38.1303L18.736 38.4725C18.7736 38.536 18.8099 38.5983 18.8527 38.6605C18.924 38.7823 19.0083 38.9016 19.0821 39.0234C19.1159 39.074 19.147 39.1246 19.1846 39.1751C19.3271 39.3968 19.4568 39.5809 19.5955 39.7598C19.694 39.8933 19.7925 40.0242 19.8988 40.1551C19.9338 40.2044 19.9727 40.2536 20.009 40.3029L20.2955 40.6503C20.3305 40.6905 20.3655 40.7372 20.4031 40.7787C20.5301 40.9316 20.6649 41.0794 20.7998 41.2298C20.7998 41.2324 20.8036 41.235 20.8062 41.2388C20.9735 41.4488 21.1537 41.6355 21.3507 41.8014L21.3559 41.8066C21.4596 41.9129 21.5633 42.0179 21.6735 42.1216L21.8044 42.2474C21.9483 42.3822 22.0922 42.5157 22.2438 42.6453C22.2464 42.6453 22.2477 42.6479 22.2503 42.6492L22.3242 42.714C22.4564 42.8294 22.59 42.9435 22.7261 43.0498L22.8881 43.1859C22.9983 43.274 23.1124 43.357 23.2252 43.4439L23.4015 43.5787C23.522 43.6694 23.6503 43.7576 23.7735 43.8457C23.8189 43.8781 23.8642 43.9105 23.9109 43.9403L23.9485 43.9702L24.3128 44.2087L24.4683 44.3124C24.6589 44.4342 24.8481 44.5483 25.0374 44.6624C25.0918 44.6896 25.1463 44.7194 25.1968 44.7505C25.3368 44.8309 25.482 44.9126 25.6233 44.9865C25.7011 45.0305 25.7815 45.0681 25.8618 45.1083C25.9591 45.1628 26.0602 45.2159 26.1639 45.2704C26.1924 45.2794 26.2157 45.2885 26.2391 45.3015L26.2443 45.2963C26.287 45.3157 26.3272 45.3365 26.3687 45.3572C26.5243 45.435 26.6863 45.5089 26.8548 45.5815C26.8859 45.5944 26.9196 45.6074 26.9533 45.6255C27.14 45.7072 27.3267 45.785 27.5198 45.8602C27.5639 45.8731 27.6106 45.8952 27.6559 45.912C27.8309 45.9781 28.0111 46.0456 28.19 46.1091L28.2548 46.1324C28.4532 46.1998 28.6489 46.2646 28.8511 46.3256C28.8978 46.3385 28.9458 46.3554 28.995 46.3683C29.2011 46.4306 29.4008 46.5044 29.6095 46.5433C42.9265 48.9584 46.796 38.5762 46.796 38.5762C43.5448 42.7892 37.7749 43.9002 32.311 42.6635C32.1088 42.6168 31.9065 42.552 31.7017 42.4924C31.4126 42.4106 31.126 42.3202 30.8423 42.2214L30.9654 42.259L30.8851 42.2279C30.7088 42.1683 30.5389 42.1022 30.3665 42.0361C30.3243 42.0182 30.2815 42.0017 30.2382 41.9868L30.2239 41.9829C30.0334 41.9064 29.848 41.8287 29.6639 41.747C29.6237 41.734 29.59 41.7159 29.5499 41.7003C29.3318 41.6053 29.1157 41.5059 28.9017 41.4022L29.0806 41.4812C29.0339 41.4606 28.9881 41.4381 28.9432 41.4138C28.8213 41.3568 28.6995 41.292 28.5802 41.2311C28.4894 41.188 28.3999 41.1422 28.3119 41.0937L28.3378 41.1066C28.1913 41.0288 28.0448 40.9446 27.8971 40.8655C27.853 40.8344 27.8024 40.8085 27.7519 40.7799C27.5322 40.6523 27.3152 40.52 27.1011 40.3833L27.1828 40.4325C27.1279 40.3986 27.0743 40.3628 27.022 40.3249L27.0298 40.3301C26.8905 40.2446 26.7539 40.1546 26.6202 40.0605C26.5761 40.032 26.5359 40.0009 26.4906 39.9698C26.3509 39.8744 26.2134 39.7759 26.0783 39.6742L26.1094 39.6962C26.055 39.6522 25.9967 39.6107 25.9383 39.5679C25.8243 39.4785 25.7089 39.3929 25.5948 39.2996L25.4418 39.1777C25.2788 39.048 25.1189 38.9144 24.9622 38.7772L24.9609 38.7759L24.5111 38.3675L24.3815 38.2457C24.2752 38.1381 24.1663 38.0357 24.0574 37.9294L23.9316 37.7997C23.7974 37.6668 23.6665 37.5307 23.5389 37.3914L23.5311 37.3823L23.509 37.3642C23.3718 37.2134 23.2365 37.0609 23.1033 36.9066C23.0683 36.8664 23.0359 36.8236 22.9996 36.7808L22.7053 36.4244C22.5727 36.2577 22.443 36.0888 22.3164 35.9175L22.2646 35.8449C19.2338 31.7278 18.1371 26.0461 20.5625 21.3846L18.421 24.0926C15.6664 28.0321 16.0073 33.1551 18.1138 37.3382C18.1618 37.4407 18.2149 37.5366 18.2668 37.6338Z" fill="#1266A9"/>
<path d="M27.5445 31.9585L27.5302 31.9378L27.5186 31.9222L27.5445 31.9585Z" fill="black"/>
<path d="M28.9938 33.6592L29.1104 33.7759C29.2582 33.9185 29.4099 34.0572 29.5642 34.1959L29.5836 34.2128C29.7392 34.3502 29.9142 34.4941 30.0943 34.6341L30.1216 34.6548C30.1656 34.6846 30.2032 34.7196 30.246 34.7494C30.4275 34.8894 30.6103 35.0229 30.8008 35.1565L30.8203 35.1681C30.9006 35.2265 30.9862 35.2796 31.0769 35.3367C31.1132 35.36 31.1547 35.3911 31.1936 35.4144C31.331 35.5026 31.4658 35.5842 31.6045 35.6685C31.6266 35.6776 31.646 35.6892 31.6668 35.6983C31.7834 35.7696 31.9105 35.8383 32.0323 35.9005C32.0751 35.9265 32.1166 35.9459 32.1607 35.9705C32.2475 36.0133 32.3331 36.0587 32.416 36.1028L32.4575 36.1209C32.6325 36.2065 32.8114 36.2868 32.9864 36.3659C33.0305 36.3828 33.0681 36.397 33.1057 36.4152C33.2496 36.4774 33.396 36.537 33.5399 36.5915C33.6047 36.6135 33.6657 36.6394 33.7266 36.6589C33.8588 36.7081 33.9975 36.7535 34.1285 36.7989L34.3099 36.8572C34.4992 36.9156 34.6911 36.992 34.892 37.0232C45.1756 38.7161 47.5556 30.8385 47.5556 30.8385C45.4128 33.9068 41.2659 35.3691 36.8468 34.227C36.6262 34.1714 36.4075 34.1087 36.1909 34.039L36.2648 34.0598C36.2025 34.0429 36.1481 34.0235 36.0885 34.0053C35.9537 33.9587 35.815 33.9133 35.684 33.8653L35.4974 33.7953C35.3522 33.737 35.2044 33.6826 35.0631 33.6203C35.019 33.6009 34.9788 33.5879 34.9451 33.5685C34.7636 33.4868 34.5809 33.4064 34.4033 33.3209L34.1362 33.1822L33.982 33.1044C33.8627 33.0422 33.7525 32.9774 33.6384 32.9113C33.6094 32.8976 33.5812 32.882 33.5542 32.8646L33.5581 32.8659C33.4207 32.7803 33.2781 32.6974 33.1459 32.6105C33.1018 32.5859 33.0616 32.5561 33.0201 32.5301L32.7505 32.3551C32.5638 32.2255 32.381 32.0868 32.1957 31.952C32.1542 31.9144 32.114 31.8833 32.0738 31.8496C30.1306 30.329 28.5984 28.251 27.8712 25.8982C27.1051 23.4521 27.2736 20.7091 28.5971 18.4833L26.9702 20.7752C24.9726 23.6284 25.0854 27.4421 26.641 30.4599C26.9249 31.0174 27.2126 31.4879 27.5302 31.9364C27.8258 32.359 28.1525 32.8542 28.5465 33.1939C28.6866 33.3533 28.8369 33.505 28.9938 33.6592Z" fill="#1266A9"/>
<path d="M19.6019 39.7675L19.5967 39.7597L19.5876 39.748L19.6019 39.7675ZM24.992 38.803L25.0049 38.8121L25.0075 38.816L24.992 38.803Z" fill="black"/>
<path d="M34.1595 18.2941C32.9811 20.0143 32.8683 22.1506 33.6798 24.0471C34.5419 26.0616 36.3036 27.6431 38.3569 28.3923C38.4412 28.4247 38.5228 28.452 38.6097 28.4831L38.7238 28.5181C38.843 28.5557 38.9636 28.5997 39.0867 28.627C44.7659 29.7172 46.3033 25.7258 46.7168 25.1386C45.3648 27.0701 43.0975 27.5342 40.3156 26.8614C40.0737 26.8024 39.8357 26.7288 39.6027 26.641L39.6454 26.6553C39.3555 26.5549 39.0716 26.4381 38.7951 26.3053L38.8443 26.3273C38.3128 26.0681 37.8565 25.788 37.4326 25.4666C34.9463 23.5869 33.4089 20.0078 35.0319 17.0924L34.1595 18.2941Z" fill="#1266A9"/>
</g>
<defs>
<filter id="filter0_d_193_4392" x="0" y="0" width="64" height="64" filterUnits="userSpaceOnUse" color-interpolation-filters="sRGB">
<feFlood flood-opacity="0" result="BackgroundImageFix"/>
<feColorMatrix in="SourceAlpha" type="matrix" values="0 0 0 0 0 0 0 0 0 0 0 0 0 0 0 0 0 0 127 0" result="hardAlpha"/>
<feOffset/>
<feGaussianBlur stdDeviation="2"/>
<feComposite in2="hardAlpha" operator="out"/>
<feColorMatrix type="matrix" values="0 0 0 0 0 0 0 0 0 0 0 0 0 0 0 0 0 0 0.1 0"/>
<feBlend mode="normal" in2="BackgroundImageFix" result="effect1_dropShadow_193_4392"/>
<feBlend mode="normal" in="SourceGraphic" in2="effect1_dropShadow_193_4392" result="shape"/>
</filter>
</defs>
</svg>
