<svg width="66" height="64" viewBox="0 0 66 64" fill="none" xmlns="http://www.w3.org/2000/svg">
<g filter="url(#filter0_d_193_4880)">
<rect x="4.8158" y="4" width="56.3129" height="56" rx="16" fill="white" shape-rendering="crispEdges"/>
<path d="M48.0308 23.5427C48.042 23.5839 48.0477 23.6264 48.0478 23.6691V30.3064C48.0478 30.3916 48.0252 30.4753 47.9822 30.549C47.9393 30.6227 47.8776 30.6838 47.8032 30.7262L42.2013 33.9336V40.2908C42.2013 40.4638 42.1089 40.6235 41.958 40.7106L30.2645 47.4047C30.2377 47.4199 30.2085 47.4295 30.1793 47.4398C30.1684 47.4435 30.158 47.4501 30.1465 47.4531C30.0647 47.4745 29.9788 47.4745 29.8971 47.4531C29.8837 47.4495 29.8715 47.4422 29.8588 47.4374C29.832 47.4277 29.804 47.4193 29.7785 47.4047L18.0874 40.7106C18.0131 40.6682 17.9514 40.607 17.9085 40.5333C17.8655 40.4596 17.8429 40.3759 17.8428 40.2908V20.3789C17.8428 20.3354 17.8489 20.293 17.8599 20.2519C17.8635 20.238 17.872 20.2253 17.8769 20.2113C17.886 20.1859 17.8945 20.1599 17.9079 20.1363C17.917 20.1206 17.9304 20.1079 17.9414 20.0934C17.9554 20.074 17.9681 20.0541 17.9846 20.0371C17.9986 20.0232 18.0168 20.0129 18.0326 20.0008C18.0503 19.9863 18.0661 19.9706 18.0862 19.9591H18.0868L23.9326 16.612C24.0066 16.5697 24.0905 16.5474 24.1759 16.5474C24.2613 16.5474 24.3452 16.5697 24.4193 16.612L30.2651 19.9591H30.2663C30.2858 19.9712 30.3022 19.9863 30.3198 20.0002C30.3357 20.0123 30.3533 20.0232 30.3673 20.0365C30.3843 20.0541 30.3965 20.074 30.4111 20.0934C30.4214 20.1079 30.4354 20.1206 30.4439 20.1363C30.4579 20.1605 30.4658 20.1859 30.4756 20.2113C30.4804 20.2253 30.489 20.238 30.4926 20.2525C30.5038 20.2937 30.5095 20.3362 30.5096 20.3789V32.8157L35.381 30.0263V23.6685C35.381 23.6262 35.3871 23.5832 35.398 23.5427C35.4023 23.5282 35.4102 23.5155 35.415 23.5016C35.4248 23.4761 35.4333 23.4501 35.4467 23.4265C35.4558 23.4108 35.4692 23.3981 35.4795 23.3836C35.4941 23.3642 35.5063 23.3443 35.5233 23.3273C35.5373 23.3134 35.555 23.3031 35.5708 23.291C35.589 23.2765 35.6048 23.2608 35.6243 23.2493H35.6249L41.4714 19.9022C41.5454 19.8598 41.6293 19.8375 41.7147 19.8375C41.8001 19.8375 41.884 19.8598 41.958 19.9022L47.8039 23.2493C47.8245 23.2614 47.8404 23.2765 47.8586 23.2904C47.8738 23.3025 47.8914 23.3134 47.9054 23.3267C47.9225 23.3443 47.9346 23.3642 47.9492 23.3836C47.9602 23.3981 47.9736 23.4108 47.9821 23.4265C47.9961 23.4501 48.004 23.4761 48.0137 23.5016C48.0192 23.5155 48.0271 23.5282 48.0308 23.5427ZM47.0733 30.0263V24.5069L45.0275 25.6781L42.2013 27.2963V32.8157L47.0739 30.0263H47.0733ZM41.2274 40.0107V34.4877L38.4475 36.0665L30.509 40.5721V46.1471L41.2274 40.0107ZM18.8173 21.2167V40.0107L29.5345 46.1465V40.5727L23.9357 37.4216L23.9338 37.4204L23.9314 37.4192C23.9125 37.4083 23.8967 37.3926 23.8791 37.3792C23.8639 37.3671 23.8462 37.3575 23.8328 37.3442L23.8316 37.3423C23.8158 37.3272 23.8049 37.3085 23.7915 37.2915C23.7793 37.2752 23.7647 37.2613 23.755 37.2443L23.7544 37.2425C23.7434 37.2244 23.7367 37.2026 23.7288 37.182C23.7209 37.1639 23.7106 37.147 23.7057 37.1276V37.127C23.6996 37.104 23.6984 37.0798 23.696 37.0562C23.6935 37.0381 23.6887 37.0199 23.6887 37.0018V24.0061L20.8631 22.3873L18.8173 21.2173V21.2167ZM24.1765 17.5908L19.3058 20.3789L24.1753 23.167L29.0454 20.3783L24.1753 17.5908H24.1765ZM26.7095 34.991L29.5351 33.3734V21.2167L27.4894 22.3879L24.6632 24.0061V36.1627L26.7095 34.991ZM41.7147 20.881L36.8446 23.6691L41.7147 26.4572L46.5842 23.6685L41.7147 20.881ZM41.2274 27.2963L38.4012 25.6781L36.3555 24.5069V30.0263L39.1811 31.6439L41.2274 32.8157V27.2963ZM30.0212 39.7342L37.1645 35.6788L40.7353 33.6523L35.8688 30.866L30.2657 34.0739L25.159 36.9975L30.0212 39.7342Z" fill="#FF2D20"/>
</g>
<defs>
<filter id="filter0_d_193_4880" x="0.815796" y="0" width="64.3129" height="64" filterUnits="userSpaceOnUse" color-interpolation-filters="sRGB">
<feFlood flood-opacity="0" result="BackgroundImageFix"/>
<feColorMatrix in="SourceAlpha" type="matrix" values="0 0 0 0 0 0 0 0 0 0 0 0 0 0 0 0 0 0 127 0" result="hardAlpha"/>
<feOffset/>
<feGaussianBlur stdDeviation="2"/>
<feComposite in2="hardAlpha" operator="out"/>
<feColorMatrix type="matrix" values="0 0 0 0 0 0 0 0 0 0 0 0 0 0 0 0 0 0 0.1 0"/>
<feBlend mode="normal" in2="BackgroundImageFix" result="effect1_dropShadow_193_4880"/>
<feBlend mode="normal" in="SourceGraphic" in2="effect1_dropShadow_193_4880" result="shape"/>
</filter>
</defs>
</svg>
