<svg width="65" height="64" viewBox="0 0 65 64" fill="none" xmlns="http://www.w3.org/2000/svg">
<g filter="url(#filter0_d_193_4074)">
<rect x="4.56433" y="4" width="56.3129" height="56" rx="16" fill="white" shape-rendering="crispEdges"/>
<path d="M32.6229 16.5294L33.4578 18.0887C33.6455 18.3765 33.8488 18.6312 34.0883 18.8684C34.7905 19.558 35.445 20.294 36.0474 21.0713C37.462 22.9184 38.4161 24.9696 39.0975 27.1881C39.5061 28.5432 39.728 29.9334 39.7447 31.3391C39.8131 35.5418 38.3643 39.1504 35.4433 42.1495C34.9681 42.625 34.4548 43.0614 33.9085 43.4541C33.6191 43.4541 33.4822 43.2334 33.363 43.0302C33.1458 42.6535 33.0012 42.2397 32.9368 41.8102C32.8341 41.3017 32.7667 40.7933 32.7999 40.2683V40.0311C32.7764 39.9806 32.5213 16.649 32.6229 16.5294Z" fill="#599636"/>
<path d="M32.6229 16.4779C32.5887 16.4099 32.5545 16.4614 32.5203 16.4944C32.5369 16.8347 32.4176 17.138 32.2309 17.4277C32.0256 17.7155 31.7538 17.9361 31.4811 18.1733C29.9658 19.478 28.7732 21.0538 27.8181 22.8163C26.5472 25.1884 25.8922 27.7305 25.7065 30.4069C25.6215 31.3722 26.0135 34.7786 26.3195 35.7615C27.1543 38.3707 28.6539 40.5571 30.5964 42.4547C31.0734 42.9116 31.5837 43.3355 32.1116 43.7428C32.2651 43.7428 32.2817 43.6067 32.3169 43.5056C32.3842 43.2893 32.4355 43.0683 32.4704 42.8446L32.8126 40.3034L32.6229 16.4779Z" fill="#6CAC48"/>
<path d="M33.4577 44.4865C33.4919 44.0977 33.6796 43.7749 33.8839 43.4531C33.6786 43.3686 33.5261 43.2004 33.4069 43.0128C33.304 42.8351 33.2189 42.6479 33.1527 42.4538C32.9142 41.7422 32.8633 40.9956 32.7949 40.2684V39.828C32.7099 39.8961 32.6923 40.4716 32.6923 40.5571C32.6425 41.3257 32.54 42.0899 32.3853 42.8446C32.3345 43.1498 32.3002 43.4541 32.1116 43.7253C32.1116 43.7594 32.1116 43.7934 32.1282 43.8439C32.4352 44.7422 32.5192 45.657 32.571 46.5893V46.9295C32.571 47.3359 32.5544 47.2503 32.8936 47.3864C33.0305 47.437 33.183 47.4545 33.3199 47.5556C33.4225 47.5556 33.4391 47.471 33.4391 47.403L33.3883 46.844V45.2847C33.3717 45.0125 33.4225 44.7422 33.4567 44.4875L33.4577 44.4865Z" fill="#C2BFBF"/>
</g>
<defs>
<filter id="filter0_d_193_4074" x="0.564331" y="0" width="64.3129" height="64" filterUnits="userSpaceOnUse" color-interpolation-filters="sRGB">
<feFlood flood-opacity="0" result="BackgroundImageFix"/>
<feColorMatrix in="SourceAlpha" type="matrix" values="0 0 0 0 0 0 0 0 0 0 0 0 0 0 0 0 0 0 127 0" result="hardAlpha"/>
<feOffset/>
<feGaussianBlur stdDeviation="2"/>
<feComposite in2="hardAlpha" operator="out"/>
<feColorMatrix type="matrix" values="0 0 0 0 0 0 0 0 0 0 0 0 0 0 0 0 0 0 0.1 0"/>
<feBlend mode="normal" in2="BackgroundImageFix" result="effect1_dropShadow_193_4074"/>
<feBlend mode="normal" in="SourceGraphic" in2="effect1_dropShadow_193_4074" result="shape"/>
</filter>
</defs>
</svg>
