<svg width="65" height="64" viewBox="0 0 65 64" fill="none" xmlns="http://www.w3.org/2000/svg">
<g filter="url(#filter0_d_193_4536)">
<rect x="4.50293" y="4" width="56.3129" height="56" rx="16" fill="white" shape-rendering="crispEdges"/>
<path d="M44.2435 33.3142C44.2435 33.5788 44.3717 33.7885 44.7302 33.7885C45.152 33.7885 45.6013 33.4874 45.6284 32.8039C45.4316 32.7725 45.2328 32.7545 45.0336 32.7501C44.6102 32.7496 44.2435 32.8679 44.2435 33.3142Z" fill="black"/>
<path d="M17.0169 27.0114V36.9886H48.3018V27.0114H17.0169ZM25.8733 34.536H24.1429V32.2205C24.1429 31.5096 23.9044 31.2359 23.4372 31.2359C22.8689 31.2359 22.6396 31.637 22.6396 32.2113V33.6439H23.1868V34.5371H21.4564V32.2205C21.4564 31.5096 21.2185 31.2359 20.7508 31.2359C20.1824 31.2359 19.9532 31.637 19.9532 32.2113V33.6439H20.7394V34.5371H18.2184V33.6439H18.7684V31.3181H18.1736V30.4249H19.951V31.0444C20.1987 30.6072 20.6296 30.3427 21.2066 30.3427C21.8014 30.3427 22.3525 30.6255 22.5542 31.2273C22.7834 30.6804 23.2506 30.3427 23.9017 30.3427C24.6441 30.3427 25.3228 30.7895 25.3228 31.765V33.6439H25.8727L25.8733 34.536ZM28.504 34.6269C27.23 34.6269 26.3497 33.852 26.3497 32.5393C26.3497 31.3359 27.0829 30.3421 28.5667 30.3421C30.0505 30.3421 30.7762 31.3359 30.7762 32.4845C30.7773 33.7977 29.824 34.6274 28.504 34.6274V34.6269ZM35.086 34.536H31.4738L31.3548 33.916L33.6259 31.3176H32.3336L32.1502 31.9559L31.2975 31.865L31.444 30.4244H35.0779L35.1692 31.0444L32.8765 33.6439H34.2127L34.4052 33.0056L35.3401 33.0964L35.086 34.536ZM37.3225 34.536H36.0847V33.0593H37.3225V34.536ZM37.3225 31.901H36.0847V30.4249H37.3225V31.901ZM37.9714 34.536L39.7607 28.2664H40.9249L39.1372 34.536H37.9714ZM40.3734 34.536L42.1616 28.2664H43.3259L41.5392 34.536H40.3734ZM46.5336 34.6269C45.9836 34.6269 45.6814 34.3074 45.6262 33.8063C45.3877 34.2257 44.9659 34.6269 44.297 34.6269C43.7022 34.6269 43.023 34.3074 43.023 33.4508C43.023 32.4388 44.004 32.2022 44.9481 32.2022C45.1749 32.2002 45.4015 32.2125 45.6267 32.2387V32.1022C45.6267 31.6827 45.6175 31.1815 44.9481 31.1815C44.7004 31.1815 44.5079 31.1998 44.3154 31.2999L44.1624 31.8833L43.2183 31.7827L43.4016 30.7164C44.1256 30.4244 44.4923 30.34 45.1709 30.34C46.0604 30.34 46.8121 30.796 46.8121 31.7349V33.5218C46.8121 33.7589 46.9034 33.8412 47.0965 33.8412C47.1555 33.8404 47.2142 33.8311 47.2706 33.8138L47.2798 34.4338C47.0512 34.5577 46.7955 34.6241 46.5352 34.6274L46.5336 34.6269Z" fill="black"/>
<path d="M28.5494 31.245C27.9443 31.245 27.5685 31.6913 27.5685 32.4667C27.5685 33.1776 27.8983 33.7245 28.5418 33.7245C29.1561 33.7245 29.5595 33.2325 29.5595 32.4485C29.5579 31.6187 29.1091 31.245 28.5494 31.245Z" fill="black"/>
</g>
<defs>
<filter id="filter0_d_193_4536" x="0.50293" y="0" width="64.3129" height="64" filterUnits="userSpaceOnUse" color-interpolation-filters="sRGB">
<feFlood flood-opacity="0" result="BackgroundImageFix"/>
<feColorMatrix in="SourceAlpha" type="matrix" values="0 0 0 0 0 0 0 0 0 0 0 0 0 0 0 0 0 0 127 0" result="hardAlpha"/>
<feOffset/>
<feGaussianBlur stdDeviation="2"/>
<feComposite in2="hardAlpha" operator="out"/>
<feColorMatrix type="matrix" values="0 0 0 0 0 0 0 0 0 0 0 0 0 0 0 0 0 0 0.1 0"/>
<feBlend mode="normal" in2="BackgroundImageFix" result="effect1_dropShadow_193_4536"/>
<feBlend mode="normal" in="SourceGraphic" in2="effect1_dropShadow_193_4536" result="shape"/>
</filter>
</defs>
</svg>
