<svg width="65" height="64" viewBox="0 0 65 64" fill="none" xmlns="http://www.w3.org/2000/svg">
<g filter="url(#filter0_d_193_4546)">
<rect x="4.50293" y="4" width="56.3129" height="56" rx="16" fill="white" shape-rendering="crispEdges"/>
<path d="M45.8336 40.4763C44.1314 40.4335 42.8122 40.6053 41.7057 41.0778C41.3865 41.2065 40.8758 41.2067 40.8332 41.6148C41.0035 41.7866 41.0248 42.0659 41.1737 42.3021C41.4293 42.7316 41.8758 43.3115 42.2802 43.6124C42.7269 43.956 43.1739 44.2995 43.6418 44.6003C44.4718 45.1158 45.4081 45.4164 46.2166 45.932C46.6849 46.2325 47.1527 46.6194 47.6209 46.9415C47.8549 47.1131 48.0038 47.3926 48.3018 47.4998V47.4355C48.1527 47.2421 48.1102 46.9629 47.9613 46.7481C47.7488 46.5333 47.5357 46.34 47.3229 46.1252C46.7059 45.2877 45.94 44.5573 45.1102 43.956C44.4293 43.4834 42.9397 42.8391 42.6632 42.0443C42.6632 42.0443 42.6418 42.0229 42.6206 42.0014C43.0887 41.9585 43.6418 41.7866 44.0888 41.6578C44.8123 41.4643 45.4718 41.5074 46.2166 41.3141C46.557 41.2281 46.8975 41.1207 47.2378 41.0133V40.8201C46.855 40.4335 46.5784 39.918 46.1741 39.5529C45.0889 38.6076 43.8972 37.6842 42.6632 36.911C42.0035 36.4813 41.1523 36.2021 40.4502 35.837C40.1951 35.708 39.7693 35.6437 39.6205 35.4289C39.2373 34.9564 39.0245 34.3336 38.748 33.7751C38.1311 32.5937 37.5352 31.2836 37.0032 30.0379C36.6204 29.2002 36.3863 28.3624 35.9181 27.5893C33.7265 23.938 31.3434 21.7257 27.6837 19.5562C26.8963 19.1052 25.9601 18.9119 24.9601 18.6757C24.4283 18.6541 23.8962 18.6113 23.3643 18.5897C23.0238 18.4393 22.6834 18.0313 22.3854 17.838C21.1728 17.0647 18.0448 15.3895 17.1511 17.6018C16.5766 18.9978 18.0024 20.3724 18.4915 21.0814C18.8536 21.5753 19.3215 22.1337 19.5768 22.6922C19.7258 23.0571 19.7682 23.444 19.9172 23.8305C20.2578 24.7753 20.5768 25.828 21.0238 26.7087C21.2578 27.1597 21.5131 27.6322 21.811 28.0403C21.9812 28.2765 22.279 28.384 22.343 28.7705C22.0452 29.2002 22.0238 29.8446 21.8534 30.3815C21.0875 32.8086 21.3855 35.8156 22.4706 37.5982C22.8109 38.135 23.6196 39.3167 24.7047 38.8655C25.6623 38.4789 25.4495 37.2547 25.7259 36.1807C25.79 35.9227 25.7475 35.7511 25.875 35.5793V35.6224C26.1729 36.2236 26.4707 36.8037 26.7474 37.405C27.4071 38.4573 28.5559 39.5529 29.5134 40.2832C30.0243 40.6696 30.4285 41.3355 31.0669 41.5718V41.5073H31.0242C30.8965 41.3139 30.705 41.2281 30.5349 41.0776C30.152 40.6912 29.7262 40.2187 29.4284 39.789C28.5349 38.5861 27.7474 37.2545 27.0453 35.8799C26.7049 35.2142 26.4069 34.4839 26.1304 33.8181C26.0026 33.5601 26.0026 33.1736 25.7899 33.0449C25.4707 33.5173 25.0027 33.9255 24.7686 34.5053C24.3645 35.4289 24.3218 36.5673 24.1729 37.7485C24.0877 37.7702 24.1302 37.7485 24.0876 37.7917C23.4069 37.6196 23.1728 36.911 22.9173 36.3095C22.2789 34.7846 22.1725 32.336 22.7259 30.5748C22.8749 30.1237 23.5133 28.7062 23.2579 28.2766C23.1303 27.8685 22.7045 27.6322 22.4706 27.3101C22.194 26.902 21.896 26.3867 21.7046 25.9354C21.1939 24.7326 20.9385 23.4009 20.3854 22.1981C20.13 21.6396 19.6834 21.0599 19.3215 20.5443C18.9173 19.9645 18.4704 19.5562 18.1512 18.8689C18.0449 18.6328 17.8958 18.2461 18.0661 17.9883C18.1086 17.8165 18.1936 17.7522 18.364 17.7092C18.6406 17.4728 19.428 17.7735 19.7044 17.9024C20.4918 18.2244 21.1513 18.5254 21.811 18.9763C22.1088 19.1912 22.428 19.5993 22.8109 19.7067H23.2578C23.9388 19.8569 24.7046 19.7497 25.343 19.9429C26.4709 20.3079 27.4921 20.8449 28.4071 21.4249C31.1946 23.2076 33.4923 25.7421 35.0458 28.7705C35.3011 29.2644 35.4074 29.7157 35.6415 30.231C36.0885 31.2836 36.6417 32.3575 37.0883 33.3885C37.5352 34.3978 37.9607 35.4289 38.5991 36.2667C38.9183 36.7175 40.1948 36.9539 40.7694 37.1902C41.195 37.3834 41.8547 37.5554 42.2376 37.7916C42.961 38.2424 43.6844 38.7582 44.3654 39.252C44.7058 39.5098 45.7696 40.0468 45.8336 40.4763Z" fill="#00546B"/>
<path d="M24.1301 21.8114C23.7684 21.8114 23.5132 21.8546 23.2578 21.9189V21.9619H23.3004C23.4707 22.3056 23.7684 22.5419 23.9811 22.8425C24.1515 23.1861 24.3003 23.5299 24.4707 23.8736C24.4918 23.852 24.5131 23.8306 24.5131 23.8306C24.8111 23.6157 24.96 23.2721 24.96 22.7566C24.8323 22.6063 24.811 22.456 24.7046 22.3056C24.5771 22.0907 24.3003 21.9834 24.1301 21.8114Z" fill="#00546B"/>
</g>
<defs>
<filter id="filter0_d_193_4546" x="0.50293" y="0" width="64.3129" height="64" filterUnits="userSpaceOnUse" color-interpolation-filters="sRGB">
<feFlood flood-opacity="0" result="BackgroundImageFix"/>
<feColorMatrix in="SourceAlpha" type="matrix" values="0 0 0 0 0 0 0 0 0 0 0 0 0 0 0 0 0 0 127 0" result="hardAlpha"/>
<feOffset/>
<feGaussianBlur stdDeviation="2"/>
<feComposite in2="hardAlpha" operator="out"/>
<feColorMatrix type="matrix" values="0 0 0 0 0 0 0 0 0 0 0 0 0 0 0 0 0 0 0.1 0"/>
<feBlend mode="normal" in2="BackgroundImageFix" result="effect1_dropShadow_193_4546"/>
<feBlend mode="normal" in="SourceGraphic" in2="effect1_dropShadow_193_4546" result="shape"/>
</filter>
</defs>
</svg>
