<svg width="64" height="64" viewBox="0 0 64 64" fill="none" xmlns="http://www.w3.org/2000/svg">
<g filter="url(#filter0_d_193_5096)">
<rect x="4" y="4" width="56" height="56" rx="16" fill="white" shape-rendering="crispEdges"/>
<path d="M35.0496 36.5787L27.4196 34.9843C27.3876 35.046 27.3521 35.1059 27.3131 35.1635L34.2592 45.2961L34.6782 44.8776L35.8599 37.5289C35.6602 37.4445 35.4829 37.3147 35.3422 37.1497C35.2015 36.9847 35.1013 36.7891 35.0496 36.5786V36.5787ZM32.2662 26.6046C31.9803 27.043 31.4869 27.3332 30.925 27.3332C30.8385 27.3332 30.7544 27.3245 30.6717 27.3114L27.1921 32.7558L36.4886 28.7552C36.4857 28.7178 36.4774 28.6828 36.4774 28.6444C36.4774 28.5661 36.4881 28.4903 36.5007 28.4154L32.2662 26.6047V26.6046ZM32.5189 25.6124L37.0233 27.5384C37.1668 27.4262 37.331 27.3433 37.5065 27.2943L38.2468 22.6909L35.4263 19.8705L32.2516 24.8382C32.4072 25.0683 32.4994 25.3354 32.5189 25.6126V25.6124ZM41.9572 26.4014L39.1305 23.5742L38.5161 27.3911C38.6719 27.4694 38.8118 27.5759 38.9288 27.7051L41.9572 26.4014ZM35.1847 35.5733C35.2953 35.3725 35.4543 35.2024 35.6471 35.0784C35.8399 34.9544 36.0607 34.8804 36.2893 34.8631L37.1011 29.8139C37.0374 29.7717 36.9805 29.7211 36.9246 29.6691L27.5746 33.6931C27.5985 33.7908 27.615 33.8904 27.6228 33.9939L35.1847 35.5733ZM42.7272 27.1719L39.4567 28.5791L47.5262 32.0291L47.5553 32L42.7272 27.1719ZM36.8828 37.5441L35.8999 43.6549L41.6072 37.9475L37.4963 37.0891C37.3386 37.2954 37.126 37.4531 36.8828 37.5441ZM25.7892 35.973C25.5826 35.973 25.3848 35.9375 25.1995 35.8747L23.3037 38.8415L22.5712 38.1094L24.3669 35.2997C24.3224 35.2446 24.2811 35.1871 24.2429 35.1275L20.9899 36.5281L20.2188 35.757L23.7795 34.2244L17.3422 32.8808L16.4617 32L16.7403 31.7214L24.1637 33.2711C24.249 33.1092 24.3583 32.961 24.4879 32.8317L20.8849 27.5763L21.6126 26.8486L25.3769 32.3397C25.512 32.3083 25.6503 32.2922 25.7891 32.2916C25.948 32.2916 26.1021 32.314 26.2494 32.3519L29.7718 26.8403C29.4851 26.5428 29.3249 26.1457 29.3251 25.7325C29.3251 25.6061 29.3411 25.4836 29.3689 25.366L24.9745 23.4872L25.7453 22.7162L29.9088 24.4968C30.1199 24.3228 30.3723 24.2061 30.6416 24.1578C30.9109 24.1095 31.188 24.1314 31.4465 24.2212L34.6941 19.1384L32.0003 16.4444L16.4447 32L32.0003 47.5555L33.531 46.0248L26.5329 35.8154C26.2987 35.9192 26.0454 35.9729 25.7892 35.973ZM38.0913 30.0316L37.2654 35.1645C37.4097 35.2805 37.5292 35.4243 37.6168 35.5874C37.7044 35.7505 37.7583 35.9296 37.7753 36.114L42.4628 37.0925L46.7551 32.8002L39.0076 29.4878C38.7859 29.7829 38.4565 29.9784 38.0913 30.0317V30.0316Z" fill="#25C7B7"/>
</g>
<defs>
<filter id="filter0_d_193_5096" x="0" y="0" width="64" height="64" filterUnits="userSpaceOnUse" color-interpolation-filters="sRGB">
<feFlood flood-opacity="0" result="BackgroundImageFix"/>
<feColorMatrix in="SourceAlpha" type="matrix" values="0 0 0 0 0 0 0 0 0 0 0 0 0 0 0 0 0 0 127 0" result="hardAlpha"/>
<feOffset/>
<feGaussianBlur stdDeviation="2"/>
<feComposite in2="hardAlpha" operator="out"/>
<feColorMatrix type="matrix" values="0 0 0 0 0 0 0 0 0 0 0 0 0 0 0 0 0 0 0.1 0"/>
<feBlend mode="normal" in2="BackgroundImageFix" result="effect1_dropShadow_193_5096"/>
<feBlend mode="normal" in="SourceGraphic" in2="effect1_dropShadow_193_5096" result="shape"/>
</filter>
</defs>
</svg>
