<svg width="64" height="64" viewBox="0 0 64 64" fill="none" xmlns="http://www.w3.org/2000/svg">
<g filter="url(#filter0_d_193_4884)">
<rect x="4" y="4" width="56" height="56" rx="16" fill="white" shape-rendering="crispEdges"/>
<path d="M23.7854 27.5323H29.6532V27.9964H24.3233V31.4897H29.3354V31.9539H24.3233V35.7892H29.7144V36.2533H23.7854V27.5323ZM30.1789 27.5323H30.8024L33.5651 31.3676L36.389 27.5323L40.23 22.6606L33.9196 31.7706L37.1714 36.2533H36.5235L33.5651 32.1737L30.5945 36.2533H29.9589L33.2351 31.7706L30.1789 27.5323ZM37.4037 27.9964V27.5323H44.0906V27.9964H41.01V36.2533H40.4721V27.9964H37.4037Z" fill="black"/>
<path d="M16.4445 27.5323H17.1168L26.3882 41.3394L22.5568 36.2533L17.0068 28.1919L16.9823 36.2533H16.4445V27.5323Z" fill="black"/>
<path d="M44.0363 35.6491C44.1475 35.6491 44.2286 35.5643 44.2286 35.4548C44.2286 35.3453 44.1475 35.2606 44.0363 35.2606C43.9264 35.2606 43.844 35.3453 43.844 35.4548C43.844 35.5643 43.9264 35.6491 44.0363 35.6491ZM44.5648 35.138C44.5648 35.4613 44.799 35.6725 45.1405 35.6725C45.5042 35.6725 45.724 35.4548 45.724 35.0768V33.7457H45.4309V35.0754C45.4309 35.2853 45.3249 35.3975 45.1379 35.3975C44.9704 35.3975 44.8566 35.2932 44.8527 35.138H44.5648ZM46.1073 35.1211C46.1282 35.4574 46.4095 35.6725 46.8281 35.6725C47.2756 35.6725 47.5555 35.447 47.5555 35.0872C47.5555 34.8043 47.3959 34.6478 47.0087 34.5579L46.8007 34.507C46.5547 34.4497 46.4553 34.3728 46.4553 34.2385C46.4553 34.069 46.6097 33.9582 46.8412 33.9582C47.061 33.9582 47.2128 34.0664 47.2402 34.2398H47.5254C47.5084 33.923 47.2285 33.7001 46.8451 33.7001C46.433 33.7001 46.1583 33.923 46.1583 34.258C46.1583 34.5344 46.314 34.6987 46.6554 34.7782L46.8988 34.8369C47.1487 34.8955 47.2586 34.9816 47.2586 35.125C47.2586 35.2919 47.0859 35.4131 46.8504 35.4131C46.5979 35.4131 46.4226 35.2997 46.3977 35.1211H46.1073Z" fill="black"/>
</g>
<defs>
<filter id="filter0_d_193_4884" x="0" y="0" width="64" height="64" filterUnits="userSpaceOnUse" color-interpolation-filters="sRGB">
<feFlood flood-opacity="0" result="BackgroundImageFix"/>
<feColorMatrix in="SourceAlpha" type="matrix" values="0 0 0 0 0 0 0 0 0 0 0 0 0 0 0 0 0 0 127 0" result="hardAlpha"/>
<feOffset/>
<feGaussianBlur stdDeviation="2"/>
<feComposite in2="hardAlpha" operator="out"/>
<feColorMatrix type="matrix" values="0 0 0 0 0 0 0 0 0 0 0 0 0 0 0 0 0 0 0.1 0"/>
<feBlend mode="normal" in2="BackgroundImageFix" result="effect1_dropShadow_193_4884"/>
<feBlend mode="normal" in="SourceGraphic" in2="effect1_dropShadow_193_4884" result="shape"/>
</filter>
</defs>
</svg>
