<svg width="65" height="64" viewBox="0 0 65 64" fill="none" xmlns="http://www.w3.org/2000/svg">
<g filter="url(#filter0_d_193_4646)">
<rect x="4" y="4" width="56.3129" height="56" rx="16" fill="white" shape-rendering="crispEdges"/>
<path d="M17.6406 36.7752C17.381 36.7752 17.1255 36.6742 16.9345 36.4829L11.0254 30.5733V35.7768C11.0254 36.3284 10.5785 36.7753 10.0269 36.7753C9.47571 36.7753 9.02838 36.3283 9.02838 35.7768V28.1625C9.02838 27.7583 9.27204 27.3944 9.64507 27.2399C9.82747 27.1642 10.0283 27.1443 10.222 27.1829C10.4157 27.2214 10.5936 27.3166 10.7331 27.4564L16.6421 33.366V28.1625C16.6421 27.6109 17.0891 27.164 17.6406 27.164C18.1923 27.164 18.6391 27.611 18.6391 28.1625V35.7768C18.639 36.0416 18.5338 36.2954 18.3465 36.4827C18.1593 36.6699 17.9054 36.7751 17.6406 36.7752ZM22.2645 27.1736L21.9901 27.6857L19.8681 31.5423L19.5937 32.0292L19.8681 32.5156L21.9902 36.2477L22.2769 36.7593H27.8314L28.1058 36.1978L29.691 33.0024L30.4024 31.5546H28.7924L24.736 31.567C24.2085 31.5598 23.7231 32.0378 23.7231 32.5655C23.7231 33.093 24.2085 33.5716 24.736 33.564L27.1824 33.5516L26.5833 34.7622H23.4379L21.8774 32.0163L23.4503 29.1706H26.7961L27.5761 30.7713H29.5859L28.3191 27.7356L28.0443 27.1736H22.2646M32.3802 27.1612C31.857 27.1676 31.3873 27.6493 31.3941 28.1721V30.7743H33.3911V28.1721C33.3974 27.6408 32.911 27.1545 32.3802 27.1612ZM35.5811 36.7944C35.3163 36.7943 35.0625 36.689 34.8753 36.5018C34.6882 36.3145 34.583 36.0606 34.5829 35.7959V28.1816C34.5829 27.6301 35.0299 27.1832 35.5814 27.1832C36.1331 27.1832 36.58 27.6301 36.58 28.1817V33.3851L42.4892 27.4755C42.6287 27.3357 42.8066 27.2406 43.0003 27.202C43.194 27.1635 43.3947 27.1833 43.5772 27.259C43.7596 27.3346 43.9155 27.4626 44.0252 27.6269C44.1349 27.7911 44.1934 27.9842 44.1934 28.1816V35.7959C44.1934 36.3474 43.7464 36.7943 43.1949 36.7943C42.6432 36.7943 42.1964 36.3474 42.1964 35.7958V30.5925L36.2872 36.5021C36.1945 36.5948 36.0844 36.6684 35.9632 36.7186C35.842 36.7688 35.7121 36.7945 35.581 36.7944M51.5899 31.9811L54.696 28.8863C55.0867 28.4973 55.0879 27.8649 54.6985 27.4739C54.3095 27.0833 53.6776 27.0825 53.2866 27.4715L50.1757 30.5718L47.0646 27.4715C46.6736 27.0821 46.0418 27.0834 45.6528 27.4739C45.2634 27.8649 45.2645 28.4973 45.6548 28.8863L48.761 31.9812L45.664 35.0674C45.273 35.4568 45.2722 36.0887 45.6615 36.4793C45.7541 36.5726 45.8643 36.6467 45.9857 36.6971C46.1072 36.7476 46.2374 36.7735 46.3689 36.7732C46.6238 36.7732 46.8786 36.6762 47.0734 36.4817L50.1757 33.3907L53.2774 36.4817C53.37 36.5743 53.4799 36.6477 53.6008 36.6977C53.7218 36.7477 53.8514 36.7734 53.9823 36.7732C54.2387 36.7732 54.4944 36.6754 54.6897 36.4793C55.0787 36.0887 55.0779 35.4568 54.6872 35.0675L51.5899 31.9811ZM32.3802 36.766C31.857 36.7597 31.3873 36.278 31.3941 35.7552V31.5754H33.3911V35.7552C33.3974 36.286 32.911 36.7724 32.3802 36.766Z" fill="#009900"/>
</g>
<defs>
<filter id="filter0_d_193_4646" x="0" y="0" width="64.3129" height="64" filterUnits="userSpaceOnUse" color-interpolation-filters="sRGB">
<feFlood flood-opacity="0" result="BackgroundImageFix"/>
<feColorMatrix in="SourceAlpha" type="matrix" values="0 0 0 0 0 0 0 0 0 0 0 0 0 0 0 0 0 0 127 0" result="hardAlpha"/>
<feOffset/>
<feGaussianBlur stdDeviation="2"/>
<feComposite in2="hardAlpha" operator="out"/>
<feColorMatrix type="matrix" values="0 0 0 0 0 0 0 0 0 0 0 0 0 0 0 0 0 0 0.1 0"/>
<feBlend mode="normal" in2="BackgroundImageFix" result="effect1_dropShadow_193_4646"/>
<feBlend mode="normal" in="SourceGraphic" in2="effect1_dropShadow_193_4646" result="shape"/>
</filter>
</defs>
</svg>
