<svg width="64" height="64" viewBox="0 0 64 64" fill="none" xmlns="http://www.w3.org/2000/svg">
<g filter="url(#filter0_d_193_5166)">
<rect x="4" y="4" width="56" height="56" rx="16" fill="white" shape-rendering="crispEdges"/>
<path d="M30.7262 16.7764C31.4976 16.3348 32.5024 16.3328 33.2732 16.7764C37.1507 18.9674 41.0295 21.155 44.9064 23.3473C45.6356 23.7581 46.1234 24.5696 46.1159 25.4098V38.5919C46.1214 39.4669 45.5854 40.2978 44.8161 40.6992C40.9513 42.8782 37.0884 45.0598 33.2243 47.2387C32.4369 47.6889 31.412 47.6543 30.6492 47.1672C29.4906 46.4955 28.3299 45.8271 27.1711 45.1561C26.9343 45.0149 26.6674 44.9026 26.5002 44.673C26.648 44.4738 26.9123 44.4489 27.127 44.362C27.6107 44.2082 28.0549 43.9613 28.4992 43.7217C28.6116 43.6448 28.7487 43.6743 28.8564 43.7431C29.8472 44.3112 30.8293 44.8958 31.8234 45.4585C32.0355 45.5809 32.2502 45.4184 32.4315 45.3173C36.2241 43.1738 40.0213 41.0384 43.8132 38.8943C43.9537 38.8267 44.0314 38.6775 44.02 38.5236C44.0226 34.1751 44.0206 29.8259 44.0213 25.4774C44.0374 25.3028 43.9363 25.1422 43.7784 25.0708C39.927 22.9018 36.0776 20.7295 32.2268 18.56C32.1601 18.5141 32.0811 18.4895 32.0001 18.4894C31.9192 18.4893 31.8401 18.5136 31.7732 18.5593C27.9225 20.7295 24.0737 22.9038 20.223 25.0727C20.0656 25.1442 19.96 25.3021 19.9788 25.4774C19.9794 29.8259 19.9788 34.1751 19.9788 38.5243C19.9721 38.5994 19.9886 38.6747 20.026 38.7402C20.0635 38.8056 20.12 38.858 20.1882 38.8903C21.2158 39.473 22.2447 40.0516 23.2729 40.6323C23.8522 40.9441 24.5635 41.1294 25.2017 40.8905C25.7649 40.6885 26.1597 40.1138 26.1489 39.5158C26.1543 35.1927 26.1463 30.8689 26.1529 26.5465C26.1389 26.3545 26.3209 26.196 26.5075 26.214C27.0012 26.2107 27.4957 26.2074 27.9894 26.2154C28.1955 26.2107 28.3373 26.4174 28.3118 26.6107C28.3098 30.9612 28.3171 35.3118 28.3085 39.6622C28.3098 40.8217 27.8335 42.0833 26.761 42.6506C25.4398 43.335 23.8068 43.1899 22.5015 42.5336C21.3716 41.9696 20.2932 41.304 19.1833 40.6998C18.412 40.3006 17.8787 39.4663 17.8841 38.592V25.4098C17.876 24.5522 18.3832 23.726 19.1351 23.3212C22.9993 21.1405 26.8627 18.9581 30.7262 16.7764Z" fill="#8CC84B"/>
<path d="M34.0973 25.9077C35.7826 25.7992 37.5868 25.8434 39.1034 26.6736C40.2775 27.3099 40.9285 28.6452 40.9492 29.9496C40.9164 30.1256 40.7325 30.2227 40.5645 30.2106C40.0755 30.2099 39.5865 30.2172 39.0975 30.2073C38.8901 30.2152 38.7695 30.024 38.7435 29.8406C38.603 29.2165 38.2626 28.5983 37.6751 28.2972C36.7733 27.8457 35.7276 27.8684 34.7442 27.8778C34.0264 27.916 33.2544 27.9781 32.6462 28.4003C32.1793 28.7201 32.0374 29.3656 32.2041 29.8855C32.3612 30.2588 32.7921 30.3792 33.1447 30.4903C35.1757 31.0214 37.328 30.9686 39.3202 31.6677C40.145 31.9526 40.9519 32.5067 41.2342 33.3703C41.6035 34.5277 41.4416 35.9112 40.6182 36.8404C39.9503 37.605 38.9777 38.0212 38.0076 38.2473C36.7171 38.535 35.3778 38.5423 34.0672 38.4146C32.8349 38.2741 31.5524 37.9503 30.6011 37.1106C29.7876 36.4043 29.3902 35.3037 29.4297 34.2414C29.4391 34.062 29.6177 33.9369 29.7896 33.9516C30.282 33.9477 30.7744 33.9463 31.2668 33.9523C31.4635 33.9382 31.6093 34.1082 31.6194 34.2936C31.7102 34.8883 31.9337 35.5124 32.4523 35.865C33.4531 36.5106 34.7088 36.4664 35.8547 36.4845C36.8041 36.4424 37.8698 36.4296 38.6445 35.8022C39.0533 35.4443 39.1744 34.8455 39.0639 34.3304C38.9442 33.8955 38.4893 33.6928 38.0986 33.5603C36.0936 32.926 33.9173 33.1562 31.9317 32.439C31.1256 32.1541 30.3461 31.6155 30.0364 30.7873C29.6043 29.6152 29.8023 28.1655 30.7121 27.2677C31.5992 26.3746 32.8798 26.0306 34.0973 25.9075V25.9077Z" fill="#8CC84B"/>
</g>
<defs>
<filter id="filter0_d_193_5166" x="0" y="0" width="64" height="64" filterUnits="userSpaceOnUse" color-interpolation-filters="sRGB">
<feFlood flood-opacity="0" result="BackgroundImageFix"/>
<feColorMatrix in="SourceAlpha" type="matrix" values="0 0 0 0 0 0 0 0 0 0 0 0 0 0 0 0 0 0 127 0" result="hardAlpha"/>
<feOffset/>
<feGaussianBlur stdDeviation="2"/>
<feComposite in2="hardAlpha" operator="out"/>
<feColorMatrix type="matrix" values="0 0 0 0 0 0 0 0 0 0 0 0 0 0 0 0 0 0 0.1 0"/>
<feBlend mode="normal" in2="BackgroundImageFix" result="effect1_dropShadow_193_5166"/>
<feBlend mode="normal" in="SourceGraphic" in2="effect1_dropShadow_193_5166" result="shape"/>
</filter>
</defs>
</svg>
