<svg width="64" height="64" viewBox="0 0 64 64" fill="none" xmlns="http://www.w3.org/2000/svg">
<g filter="url(#filter0_d_193_4186)">
<rect x="4" y="4" width="56" height="56" rx="16" fill="white" shape-rendering="crispEdges"/>
<path d="M25.9019 42.5138C25.8788 42.4739 25.8582 42.4327 25.8402 42.3903C25.716 42.1095 25.6778 41.7996 25.7303 41.498H18.3754L29.3057 22.7163L32.8941 28.8757L33.9344 27.0783L30.8063 21.6977C30.6564 21.4221 30.4381 21.1876 30.1715 21.0156C29.9049 20.8437 29.5983 20.7397 29.2799 20.7133C28.9621 20.7274 28.6548 20.8283 28.3929 21.0045C28.1309 21.1807 27.9249 21.4251 27.7982 21.71L16.7251 40.7196C16.5596 40.988 16.4641 41.292 16.4472 41.6048C16.4302 41.9177 16.4923 42.2298 16.6279 42.5138C16.7982 42.776 17.0402 42.9864 17.3266 43.1213C17.613 43.2562 17.9324 43.3101 18.2486 43.277H27.5231C27.2069 43.3106 26.8873 43.2569 26.6008 43.122C26.3143 42.9871 26.0723 42.7763 25.9024 42.5138H25.9019Z" fill="#00C492"/>
<path d="M47.2247 40.7192L38.1252 25.0687C37.9759 24.7902 37.7572 24.5529 37.4893 24.3787C37.2213 24.2045 36.9127 24.099 36.592 24.0719C36.2747 24.0853 35.9675 24.1856 35.7057 24.3613C35.4439 24.5369 35.238 24.7809 35.1113 25.0653L33.9344 27.0778L34.9815 28.8758L36.6017 26.0749L45.604 41.4976H42.1808C42.2246 41.7525 42.1999 42.0141 42.1094 42.257C42.0903 42.3107 42.0664 42.3626 42.0379 42.4122L42.0087 42.4692C41.8228 42.7257 41.575 42.9334 41.2872 43.0742C40.9994 43.2149 40.6806 43.2843 40.3589 43.2761H45.7139C46.0356 43.2845 46.3546 43.2153 46.6424 43.0745C46.9302 42.9338 47.1779 42.7258 47.3637 42.4692C47.5104 42.1939 47.5751 41.8841 47.5505 41.5748C47.5259 41.2654 47.4131 40.969 47.2247 40.7192Z" fill="#008776"/>
<path d="M42.0093 42.4696L42.0384 42.4127C42.0667 42.3631 42.0905 42.3111 42.1094 42.2574C42.2 42.0146 42.2246 41.7529 42.1809 41.498C42.1303 41.2231 42.0292 40.9593 41.8824 40.7196L34.9884 28.8757L33.935 27.0782L32.8879 28.8757L25.9963 40.7196C25.8625 40.9622 25.7725 41.2255 25.7304 41.498C25.6749 41.7989 25.7098 42.1089 25.831 42.3908C25.849 42.4331 25.8696 42.4744 25.8927 42.5142C26.0631 42.7764 26.3051 42.9867 26.5916 43.1215C26.878 43.2563 27.1973 43.3102 27.5134 43.277H40.3492C40.6725 43.2863 40.9931 43.2175 41.2826 43.0768C41.5722 42.936 41.8216 42.7276 42.0088 42.4701L42.0093 42.4696ZM33.9345 30.6737L40.2359 41.4975H27.6359L33.9345 30.6737Z" fill="#2D4A5D"/>
</g>
<defs>
<filter id="filter0_d_193_4186" x="0" y="0" width="64" height="64" filterUnits="userSpaceOnUse" color-interpolation-filters="sRGB">
<feFlood flood-opacity="0" result="BackgroundImageFix"/>
<feColorMatrix in="SourceAlpha" type="matrix" values="0 0 0 0 0 0 0 0 0 0 0 0 0 0 0 0 0 0 127 0" result="hardAlpha"/>
<feOffset/>
<feGaussianBlur stdDeviation="2"/>
<feComposite in2="hardAlpha" operator="out"/>
<feColorMatrix type="matrix" values="0 0 0 0 0 0 0 0 0 0 0 0 0 0 0 0 0 0 0.1 0"/>
<feBlend mode="normal" in2="BackgroundImageFix" result="effect1_dropShadow_193_4186"/>
<feBlend mode="normal" in="SourceGraphic" in2="effect1_dropShadow_193_4186" result="shape"/>
</filter>
</defs>
</svg>
