<svg width="65" height="64" viewBox="0 0 65 64" fill="none" xmlns="http://www.w3.org/2000/svg">
<g filter="url(#filter0_d_193_174)">
<rect x="4.25146" y="4" width="56.3129" height="56" rx="16" fill="white" shape-rendering="crispEdges"/>
<path fill-rule="evenodd" clip-rule="evenodd" d="M32.4078 39.8831C41.047 39.8831 48.0503 36.3536 48.0503 32C48.0503 27.6464 41.047 24.1168 32.4078 24.1168C23.7689 24.1168 16.7654 27.6464 16.7654 32C16.7654 36.3536 23.7689 39.8831 32.4078 39.8831Z" fill="#6E81B6"/>
<path fill-rule="evenodd" clip-rule="evenodd" d="M35.578 34.5479L36.3539 30.5767C36.5291 29.6804 36.3834 29.0119 35.9213 28.5895C35.4736 28.1807 34.7136 27.9819 33.598 27.9819H32.2542L32.6386 26.0143C32.6458 25.9777 32.6447 25.94 32.6355 25.9038C32.6263 25.8676 32.6092 25.8339 32.5854 25.8051C32.5615 25.7763 32.5315 25.7531 32.4976 25.7372C32.4637 25.7213 32.4266 25.713 32.3891 25.713H30.5345C30.4126 25.713 30.308 25.799 30.2848 25.9179L29.4606 30.1338C29.3857 29.6594 29.2011 29.2516 28.9057 28.9151C28.3617 28.2958 27.5012 27.9819 26.348 27.9819H22.7533C22.6315 27.9819 22.5269 28.0678 22.5037 28.1865L20.8359 36.7203C20.8213 36.7946 20.8408 36.871 20.8892 36.9293C20.9375 36.9878 21.0094 37.0215 21.0856 37.0215H22.9548C23.0766 37.0215 23.1812 36.9355 23.2045 36.8164L23.6079 34.7524H24.9993C25.7294 34.7524 26.343 34.6738 26.822 34.5188C27.3117 34.3604 27.7624 34.0918 28.1597 33.722C28.4807 33.4287 28.7458 33.1003 28.9499 32.7461L28.6168 34.4511C28.6023 34.5254 28.6218 34.6021 28.6702 34.66C28.7184 34.7185 28.7905 34.7522 28.8665 34.7522H30.7212C30.843 34.7522 30.9476 34.6662 30.9708 34.5476L31.8861 29.8633H33.1588C33.701 29.8633 33.8599 29.9707 33.9033 30.0168C33.9424 30.0589 34.0237 30.2073 33.9324 30.6751L33.1947 34.4509C33.1876 34.4875 33.1888 34.5252 33.198 34.5613C33.2073 34.5974 33.2245 34.6311 33.2483 34.6598C33.2722 34.6886 33.3021 34.7118 33.336 34.7277C33.3699 34.7436 33.4069 34.7519 33.4444 34.752H35.3285C35.3875 34.7521 35.4446 34.7318 35.4902 34.6946C35.5357 34.6573 35.5667 34.6055 35.578 34.5479ZM26.9795 31.2667C26.863 31.862 26.6436 32.2866 26.327 32.5287C26.0054 32.7753 25.4911 32.9002 24.7982 32.9002H23.9698L24.5688 29.8345H25.64C26.4268 29.8345 26.7439 30.0017 26.8712 30.1418C27.0476 30.3363 27.0851 30.7255 26.9795 31.2667ZM43.3902 28.9151C42.8463 28.2958 41.9859 27.9819 40.8326 27.9819H37.238C37.116 27.9819 37.0116 28.0678 36.9883 28.1865L35.3208 36.7203C35.306 36.7946 35.3255 36.871 35.3739 36.9293C35.4223 36.9876 35.4944 37.0215 35.5701 37.0215H37.4394C37.5614 37.0215 37.6659 36.9355 37.6891 36.8164L38.0926 34.7524H39.4842C40.2145 34.7524 40.8275 34.6738 41.3066 34.5188C41.7966 34.3604 42.2473 34.0918 42.6443 33.722C42.9757 33.4193 43.2483 33.079 43.4548 32.7117C43.6614 32.3443 43.8095 31.9346 43.8959 31.4937C44.1084 30.4063 43.9383 29.5388 43.3902 28.9151ZM41.5703 31.2667C41.4536 31.862 41.2342 32.2866 40.9179 32.5287C40.5962 32.7753 40.0819 32.9002 39.3892 32.9002H38.5605L39.1594 29.8345H40.2308C41.0176 29.8345 41.3346 30.0017 41.4621 30.1418C41.6382 30.3363 41.6759 30.7255 41.5703 31.2667Z" fill="white"/>
<path fill-rule="evenodd" clip-rule="evenodd" d="M25.5868 29.5815C26.2969 29.5815 26.7703 29.7119 27.007 29.9726C27.2434 30.2333 27.2998 30.681 27.1761 31.3151C27.0467 31.9755 26.7978 32.4469 26.4289 32.7294C26.0601 33.0119 25.4987 33.153 24.7451 33.153H23.6079L24.3059 29.5815H25.5868ZM21.0322 36.7685H22.9014L23.345 34.4998H24.9462C25.6526 34.4998 26.2339 34.4259 26.6901 34.2782C27.1464 34.1306 27.5612 33.8832 27.9344 33.5358C28.2476 33.2497 28.5011 32.9337 28.6952 32.5883C28.889 32.243 29.0267 31.8621 29.1083 31.4454C29.3061 30.4338 29.1569 29.6459 28.6609 29.0816C28.1652 28.5171 27.3762 28.2349 26.2948 28.2349H22.7002L21.0322 36.7685ZM30.4811 25.9661H32.3358L31.8924 28.2349H33.5448C34.584 28.2349 35.3015 28.4151 35.6961 28.7757C36.0906 29.1363 36.2088 29.7207 36.0511 30.5286L35.2752 34.4998H33.391L34.1287 30.7239C34.2125 30.2943 34.1819 30.0014 34.0361 29.8451C33.8902 29.689 33.5798 29.6107 33.1054 29.6107H31.6232L30.6678 34.4998H28.8132L30.4811 25.9661ZM40.1776 29.5815C40.8877 29.5815 41.361 29.7119 41.5978 29.9726C41.8342 30.2333 41.8904 30.681 41.7667 31.3151C41.6377 31.9755 41.3888 32.4469 41.0197 32.7294C40.6511 33.0119 40.0895 33.153 39.3363 33.153H38.1991L38.8969 29.5815H40.1776ZM35.6227 36.7685H37.4921L37.9354 34.4998H39.5366C40.2433 34.4998 40.8245 34.4259 41.2808 34.2782C41.737 34.1306 42.1518 33.8832 42.525 33.5358C42.8382 33.2497 43.0917 32.9337 43.2856 32.5883C43.4795 32.243 43.6174 31.8621 43.6991 31.4454C43.8967 30.4338 43.7475 29.6459 43.2517 29.0816C42.7556 28.5171 41.9668 28.2349 40.8854 28.2349H37.2908L35.6227 36.7685Z" fill="black"/>
</g>
<defs>
<filter id="filter0_d_193_174" x="0.251465" y="0" width="64.3129" height="64" filterUnits="userSpaceOnUse" color-interpolation-filters="sRGB">
<feFlood flood-opacity="0" result="BackgroundImageFix"/>
<feColorMatrix in="SourceAlpha" type="matrix" values="0 0 0 0 0 0 0 0 0 0 0 0 0 0 0 0 0 0 127 0" result="hardAlpha"/>
<feOffset/>
<feGaussianBlur stdDeviation="2"/>
<feComposite in2="hardAlpha" operator="out"/>
<feColorMatrix type="matrix" values="0 0 0 0 0 0 0 0 0 0 0 0 0 0 0 0 0 0 0.1 0"/>
<feBlend mode="normal" in2="BackgroundImageFix" result="effect1_dropShadow_193_174"/>
<feBlend mode="normal" in="SourceGraphic" in2="effect1_dropShadow_193_174" result="shape"/>
</filter>
</defs>
</svg>
