<svg width="65" height="64" viewBox="0 0 65 64" fill="none" xmlns="http://www.w3.org/2000/svg">
<g filter="url(#filter0_d_193_5042)">
<rect x="4.12866" y="4" width="56.3129" height="56" rx="16" fill="white" shape-rendering="crispEdges"/>
<path d="M44.6654 22.4924C42.7744 20.0572 40.1996 18.2344 37.2667 17.2546C34.3339 16.2747 31.1747 16.1817 28.1887 16.9874C25.2027 17.7931 22.5241 19.4613 20.4915 21.781C18.459 24.1008 17.1639 26.9678 16.77 30.0195C16.376 33.0712 16.901 36.1706 18.2785 38.9256C19.656 41.6806 21.8241 43.9675 24.5086 45.497C27.1932 47.0266 30.2736 47.7301 33.3602 47.5186C36.4468 47.3071 39.4011 46.1901 41.8493 44.3089C48.683 39.057 49.9442 29.2906 44.6649 22.4924H44.6654Z" fill="#FF6C37"/>
<path d="M37.5608 26.3559L30.9651 32.967L29.1013 31.0615C35.5928 24.606 36.2444 25.1893 37.5613 26.3559H37.5608Z" fill="white"/>
<path d="M30.9652 33.1478C30.9068 33.1464 30.851 33.1233 30.8087 33.0832L28.9317 31.2165C28.8894 31.173 28.8658 31.1149 28.8658 31.0544C28.8658 30.9939 28.8894 30.9358 28.9317 30.8923C35.3318 24.5277 36.2053 24.8257 37.7173 26.1868C37.7426 26.2069 37.7628 26.2327 37.7764 26.2619C37.79 26.2912 37.7965 26.3232 37.7955 26.3555C37.8053 26.4187 37.7808 26.4833 37.7305 26.5241L31.1348 33.0837C31.0885 33.1258 31.0279 33.1489 30.9652 33.1483V33.1478ZM29.4268 31.061L30.9652 32.5907L37.2221 26.3686C37.0061 26.0993 36.6978 25.9188 36.3563 25.8614C36.0147 25.804 35.6639 25.8738 35.3709 26.0575C34.2369 26.563 32.4121 28.1054 29.4268 31.061Z" fill="#FF6C37"/>
<path d="M32.8554 34.7948L31.0565 32.9671L37.6522 26.4854C39.4252 28.2096 36.7919 31.0873 32.8554 34.7943V34.7948Z" fill="white"/>
<path d="M32.8555 35.0281C32.7978 35.0236 32.743 35.0009 32.699 34.9635L30.8611 33.1746C30.8335 33.1081 30.8335 33.0335 30.8611 32.967C30.8415 32.9125 30.8415 32.8529 30.8611 32.7983L37.4568 26.2393C37.5026 26.1965 37.5632 26.1726 37.6261 26.1726C37.6891 26.1726 37.7496 26.1965 37.7955 26.2393C38.0091 26.4348 38.1779 26.6738 38.2903 26.9399C38.4027 27.2061 38.4562 27.4932 38.4471 27.7817C38.4471 29.5317 36.4395 31.7352 33.0246 34.9503C32.979 34.9952 32.9189 35.0228 32.855 35.0281H32.8555ZM31.3954 32.967L32.8682 34.4312C35.4751 31.9812 37.9651 29.4535 37.9778 27.7424C37.992 27.3796 37.8714 27.0244 37.6391 26.7444L31.3954 32.967Z" fill="#FF6C37"/>
<path d="M29.1531 31.1003L30.4568 32.3968C30.4651 32.4041 30.4718 32.4131 30.4763 32.4231C30.4809 32.4332 30.4833 32.4441 30.4833 32.4551C30.4833 32.4662 30.4809 32.4771 30.4763 32.4871C30.4718 32.4972 30.4651 32.5062 30.4568 32.5135L27.7062 33.0968C27.6507 33.1087 27.5928 33.1022 27.5413 33.0784C27.4898 33.0546 27.4475 33.0146 27.4209 32.9647C27.3944 32.9148 27.3849 32.8576 27.3941 32.8018C27.4032 32.7461 27.4304 32.6948 27.4716 32.6559L29.0749 31.0746C29.0749 31.0746 29.1272 31.0746 29.1531 31.1003Z" fill="white"/>
<path d="M27.6412 33.3559C27.5543 33.3548 27.4691 33.3316 27.3938 33.2884C27.3185 33.2453 27.2555 33.1837 27.211 33.1094C27.1609 33.0154 27.1427 32.9078 27.1592 32.8027C27.1756 32.6975 27.2259 32.6005 27.3024 32.5261L28.8925 30.9317C28.9499 30.8807 29.0241 30.8525 29.101 30.8525C29.1779 30.8525 29.2522 30.8807 29.3095 30.9317L30.6132 32.2281C30.6904 32.3011 30.7207 32.4114 30.6914 32.5135C30.6621 32.6156 30.576 32.6967 30.47 32.721L27.7194 33.3044L27.6412 33.3559ZM29.1013 31.3857L27.6285 32.8504L30.0662 32.3317L29.1013 31.3857Z" fill="#FF6C37"/>
<path d="M41.0677 22.7131C40.1242 21.808 38.6421 21.7701 37.6527 22.6241C36.6633 23.4782 36.4942 24.9443 37.2646 25.9992C38.035 27.054 39.4873 27.3496 40.6116 26.6797L38.8386 24.9166L41.0677 22.7131Z" fill="white"/>
<path d="M39.3079 27.2757C38.7659 27.2688 38.2379 27.1034 37.7897 26.8001C37.3415 26.4969 36.993 26.0692 36.7875 25.5704C36.5822 25.0719 36.5284 24.5246 36.6326 23.996C36.7369 23.4674 36.9947 22.9808 37.3741 22.5964C37.896 22.0869 38.5981 21.8015 39.3294 21.8015C40.0607 21.8015 40.7629 22.0869 41.2847 22.5964C41.3346 22.6382 41.363 22.6999 41.363 22.7651C41.3628 22.7971 41.3558 22.8288 41.3423 22.8579C41.3288 22.887 41.3092 22.9128 41.2847 22.9337L39.173 24.9171L40.7764 26.4857C40.8023 26.5104 40.8218 26.541 40.8332 26.5749C40.8445 26.6088 40.8473 26.645 40.8414 26.6802C40.8375 26.7142 40.8262 26.7469 40.8082 26.776C40.7902 26.8052 40.766 26.8301 40.7373 26.8489C40.3065 27.1166 39.8113 27.2643 39.3035 27.2766L39.3079 27.2757ZM39.3079 22.2459C38.3792 22.2508 37.5482 22.8064 37.1996 23.6556C36.8511 24.5048 37.0407 25.4824 37.6919 26.1348C38.0157 26.4587 38.4304 26.6778 38.8816 26.7634C39.3328 26.849 39.7995 26.7972 40.2206 26.6146L38.6822 25.0848C38.6578 25.0653 38.638 25.0407 38.6245 25.0126C38.6109 24.9845 38.6038 24.9538 38.6038 24.9227C38.6038 24.8915 38.6109 24.8608 38.6245 24.8327C38.638 24.8047 38.6578 24.78 38.6822 24.7605L40.7157 22.7252C40.3115 22.4171 39.8172 22.2487 39.3079 22.2454V22.2459Z" fill="#FF6C37"/>
<path d="M41.1068 22.752L38.8777 24.9555L40.6507 26.7186C40.8291 26.6167 40.9953 26.4949 41.1459 26.3555C41.6105 25.867 41.8662 25.2182 41.8589 24.5458C41.8516 23.8735 41.5819 23.2303 41.1068 22.752Z" fill="white"/>
<path d="M40.6111 26.9131C40.5818 26.9146 40.5526 26.9096 40.5255 26.8985C40.4984 26.8873 40.4742 26.8702 40.4547 26.8484L38.6817 25.0853C38.6573 25.0658 38.6375 25.0412 38.6239 25.0131C38.6104 24.9851 38.6033 24.9543 38.6033 24.9232C38.6033 24.892 38.6104 24.8613 38.6239 24.8332C38.6375 24.8052 38.6573 24.7805 38.6817 24.7611L40.8975 22.5964C40.9189 22.5643 40.948 22.538 40.9821 22.5198C41.0162 22.5016 41.0544 22.4921 41.0931 22.4921C41.1318 22.4921 41.1699 22.5016 41.204 22.5198C41.2381 22.538 41.2672 22.5643 41.2886 22.5964C41.5487 22.8499 41.7554 23.1524 41.8965 23.4863C42.0376 23.8202 42.1102 24.1787 42.1102 24.5408C42.1102 24.903 42.0376 25.2615 41.8965 25.5954C41.7554 25.9293 41.5487 26.2318 41.2886 26.4853C41.1352 26.6471 40.9596 26.7867 40.767 26.8999C40.7185 26.9242 40.6625 26.9289 40.6106 26.9131H40.6111ZM39.1774 24.9171L40.6502 26.3817C40.7515 26.3111 40.8474 26.2331 40.9371 26.1484C41.3701 25.719 41.614 25.1363 41.6151 24.5282C41.6161 23.984 41.4167 23.4583 41.0545 23.0504L39.1774 24.9171Z" fill="#FF6C37"/>
<path d="M37.8346 26.6282C37.658 26.4634 37.4249 26.3716 37.1827 26.3716C36.9405 26.3716 36.7075 26.4634 36.5309 26.6282L30.6264 32.4868L31.6041 33.4722L37.8478 28.0277C37.943 27.937 38.0185 27.8278 38.0697 27.7069C38.1209 27.5861 38.1467 27.4561 38.1455 27.3249C38.1442 27.1938 38.116 27.0642 38.0625 26.9444C38.0091 26.8245 37.9315 26.7167 37.8346 26.6277V26.6282Z" fill="white"/>
<path d="M31.5518 33.7059C31.4934 33.7044 31.4376 33.6814 31.3953 33.6412L30.4045 32.6559C30.3622 32.6124 30.3386 32.5543 30.3386 32.4938C30.3386 32.4333 30.3622 32.3752 30.4045 32.3316L36.3095 26.4852C36.4796 26.3163 36.6968 26.2021 36.9329 26.1574C37.1691 26.1127 37.4133 26.1396 37.6339 26.2346C37.8544 26.3296 38.0413 26.4883 38.1701 26.6901C38.2989 26.892 38.3637 27.1276 38.3562 27.3666C38.3494 27.5287 38.3102 27.6879 38.2408 27.8348C38.1713 27.9817 38.0731 28.1134 37.9519 28.2221L31.7082 33.6665C31.6628 33.6985 31.607 33.7123 31.5518 33.7054V33.7059ZM30.8611 32.4867L31.5127 33.1478L37.6391 27.8459C37.7906 27.7146 37.881 27.527 37.8869 27.3272C37.8928 27.1274 37.8136 26.932 37.6655 26.7959C37.5287 26.6604 37.3435 26.5844 37.1505 26.5844C36.9575 26.5844 36.7723 26.6604 36.6355 26.7959L30.8611 32.4867Z" fill="#FF6C37"/>
<path d="M26.051 39.163C26.0344 39.1855 26.0254 39.2128 26.0254 39.2407C26.0254 39.2687 26.0344 39.296 26.051 39.3185L26.3116 40.4463C26.322 40.5127 26.3121 40.5806 26.2832 40.6413C26.2542 40.702 26.2076 40.7526 26.1493 40.7866C26.0912 40.8204 26.0239 40.8349 25.9569 40.8282C25.89 40.8215 25.8269 40.7938 25.7768 40.7491L23.9911 39.038L29.5574 33.459H31.4867L32.7904 34.7554C30.7568 36.5236 28.4893 38.0066 26.051 39.163Z" fill="white"/>
<path d="M25.9337 41.0685C25.7861 41.0656 25.6404 41.0053 25.5427 40.8998L23.8352 39.2018C23.8108 39.1824 23.791 39.1577 23.7774 39.1296C23.7639 39.1016 23.7568 39.0708 23.7568 39.0397C23.7568 39.0086 23.7639 38.9778 23.7774 38.9498C23.791 38.9217 23.8108 38.897 23.8352 38.8776L29.4401 33.2908C29.4714 33.2576 29.5125 33.235 29.5574 33.2261H31.4995C31.5501 33.2083 31.6053 33.2083 31.6559 33.2261L32.9596 34.5226C32.9844 34.5453 33.0032 34.5737 33.0146 34.6052C33.0259 34.6368 33.0293 34.6707 33.0246 34.7039C33.0255 34.7361 33.0189 34.7681 33.0054 34.7973C32.9918 34.8266 32.9716 34.8523 32.9464 34.8726L32.8423 34.9635C30.8004 36.6562 28.554 38.0889 26.1552 39.2281L26.403 40.2781C26.4222 40.3591 26.4229 40.4433 26.4051 40.5246C26.3874 40.6059 26.3516 40.6823 26.3004 40.7481C26.2492 40.8139 26.1839 40.8675 26.1092 40.905C26.0345 40.9426 25.9524 40.963 25.8687 40.9649L25.9337 41.0685ZM24.3436 39.0331L25.8814 40.5756C25.8958 40.5883 25.9143 40.5953 25.9335 40.5953C25.9527 40.5953 25.9712 40.5883 25.9855 40.5756C25.9951 40.5623 26.0003 40.5464 26.0003 40.5301C26.0003 40.5138 25.9951 40.4979 25.9855 40.4847L25.725 39.3569C25.7045 39.276 25.7127 39.1904 25.7484 39.1149C25.784 39.0393 25.8448 38.9783 25.9205 38.9422C28.2549 37.8182 30.4434 36.4166 32.438 34.768L31.3689 33.7049H29.6224L24.3436 39.0331Z" fill="#FF6C37"/>
<path d="M22.6488 40.3685L23.9525 39.072L25.9601 41.0685L22.7666 40.8482C22.7118 40.844 22.6597 40.8226 22.6178 40.7871C22.576 40.7517 22.5464 40.704 22.5334 40.6509C22.5204 40.5977 22.5246 40.5418 22.5454 40.4912C22.5662 40.4406 22.6026 40.3978 22.6493 40.3689L22.6488 40.3685Z" fill="white"/>
<path d="M25.9987 41.2629L22.818 41.0427C22.6293 41.0252 22.467 40.8969 22.4005 40.7253C22.334 40.5537 22.3746 40.35 22.5051 40.2129L23.8088 38.9165C23.8526 38.8744 23.911 38.851 23.9718 38.851C24.0327 38.851 24.0911 38.8744 24.1349 38.9165L26.1292 40.8998C26.1568 40.9374 26.1717 40.9828 26.1717 41.0293C26.1717 41.0759 26.1568 41.1213 26.1292 41.1589C26.0991 41.2074 26.053 41.244 25.9987 41.2624V41.2629ZM22.818 40.5372L25.4248 40.7058L23.9911 39.3705L22.818 40.5372Z" fill="#FF6C37"/>
<path d="M31.669 33.6155L29.0358 34.0176L30.5609 32.514L31.669 33.6155Z" fill="white"/>
<path d="M29.0358 34.2631C28.992 34.2642 28.9489 34.2525 28.9117 34.2294C28.8746 34.2063 28.8452 34.1729 28.827 34.1333C28.7993 34.0957 28.7843 34.0503 28.7843 34.0037C28.7843 33.9571 28.7993 33.9117 28.827 33.8742L30.3389 32.3575C30.3848 32.3146 30.4454 32.2908 30.5083 32.2908C30.5712 32.2908 30.6318 32.3146 30.6777 32.3575L31.7863 33.459C31.8085 33.494 31.8202 33.5344 31.8202 33.5757C31.8202 33.617 31.8085 33.6574 31.7863 33.6924C31.7754 33.7349 31.7525 33.7735 31.7201 33.8034C31.6878 33.8333 31.6475 33.8533 31.604 33.861L28.9971 34.2631H29.0358ZM30.5609 32.8499L29.7137 33.6924L31.1738 33.4721L30.5609 32.8499Z" fill="#FF6C37"/>
<path d="M31.669 33.6146L29.8311 33.8479C29.7819 33.859 29.7304 33.8541 29.6843 33.8338C29.6381 33.8135 29.5998 33.779 29.575 33.7354C29.5501 33.6917 29.5401 33.6413 29.5463 33.5915C29.5525 33.5417 29.5748 33.4953 29.6096 33.459L30.5614 32.5126L31.669 33.6146Z" fill="white"/>
<path d="M29.7788 34.0948C29.6936 34.094 29.6101 34.0708 29.5369 34.0275C29.4637 33.9842 29.4033 33.9224 29.3618 33.8483C29.3121 33.7596 29.2928 33.6571 29.3069 33.5565C29.321 33.4559 29.3677 33.3626 29.44 33.2908L30.3918 32.3443C30.4376 32.3015 30.4982 32.2776 30.5612 32.2776C30.6241 32.2776 30.6847 32.3015 30.7305 32.3443L31.8387 33.4463C31.8716 33.4774 31.8948 33.5173 31.9055 33.5612C31.9161 33.6051 31.9136 33.6511 31.8985 33.6936C31.8833 33.7362 31.8561 33.7734 31.82 33.8009C31.784 33.8284 31.7407 33.8448 31.6955 33.8483L29.8707 34.0817L29.7788 34.0948ZM29.7788 33.615L31.1607 33.4463L30.5482 32.8372L29.7661 33.615H29.7788ZM41.1195 24.2428C41.0949 24.2019 41.0561 24.1714 41.0104 24.1571C40.9648 24.1427 40.9154 24.1456 40.8716 24.1651C40.8501 24.1759 40.8309 24.191 40.8153 24.2094C40.7997 24.2277 40.7879 24.249 40.7807 24.272C40.7662 24.3184 40.7708 24.3685 40.7934 24.4115C40.8848 24.6026 40.8594 24.8286 40.7284 24.9949C40.7121 25.0109 40.6994 25.0301 40.691 25.0512C40.6826 25.0724 40.6787 25.0951 40.6795 25.1178C40.68 25.1634 40.6974 25.2072 40.7284 25.2408C40.7619 25.254 40.7991 25.254 40.8325 25.2408C40.8629 25.2484 40.8948 25.2476 40.9247 25.2384C40.9546 25.2292 40.9814 25.2121 41.0022 25.1888C41.1095 25.0581 41.1775 24.8999 41.1982 24.7324C41.219 24.565 41.1917 24.3951 41.1195 24.2424V24.2428Z" fill="#FF6C37"/>
</g>
<defs>
<filter id="filter0_d_193_5042" x="0.128662" y="0" width="64.3129" height="64" filterUnits="userSpaceOnUse" color-interpolation-filters="sRGB">
<feFlood flood-opacity="0" result="BackgroundImageFix"/>
<feColorMatrix in="SourceAlpha" type="matrix" values="0 0 0 0 0 0 0 0 0 0 0 0 0 0 0 0 0 0 127 0" result="hardAlpha"/>
<feOffset/>
<feGaussianBlur stdDeviation="2"/>
<feComposite in2="hardAlpha" operator="out"/>
<feColorMatrix type="matrix" values="0 0 0 0 0 0 0 0 0 0 0 0 0 0 0 0 0 0 0.1 0"/>
<feBlend mode="normal" in2="BackgroundImageFix" result="effect1_dropShadow_193_5042"/>
<feBlend mode="normal" in="SourceGraphic" in2="effect1_dropShadow_193_5042" result="shape"/>
</filter>
</defs>
</svg>
