<svg width="66" height="64" viewBox="0 0 66 64" fill="none" xmlns="http://www.w3.org/2000/svg">
<g filter="url(#filter0_d_193_4868)">
<rect x="4.8158" y="4" width="56.3129" height="56" rx="16" fill="white" shape-rendering="crispEdges"/>
<path d="M48.0227 35.0807C47.8408 34.5314 47.3644 34.1488 46.7482 34.057C46.4577 34.0137 46.125 34.0321 45.7312 34.1131C45.0449 34.2543 44.5358 34.308 44.1642 34.3184C45.5668 31.957 46.7072 29.2642 47.3638 26.7293C48.4255 22.6305 47.8581 20.7632 47.1952 19.9186C45.4407 17.6831 42.8809 16.4821 39.7928 16.4453C38.1454 16.4253 36.6992 16.7496 35.9448 16.9829C35.2424 16.8593 34.4871 16.7903 33.6946 16.7775C32.2091 16.7539 30.8966 17.0768 29.775 17.7405C29.1541 17.5311 28.1576 17.236 27.0068 17.0476C24.3003 16.6045 22.1188 16.9498 20.5232 18.0738C18.5911 19.4348 17.6954 21.7994 17.8611 25.1019C17.9137 26.1505 18.5019 29.3408 19.428 32.3663C19.9603 34.1054 20.5278 35.5495 21.115 36.6591C21.9476 38.2323 22.8385 39.1588 23.8387 39.4916C24.3993 39.6778 25.4179 39.8082 26.4892 38.9185C26.6249 39.0825 26.8061 39.2454 27.0465 39.3968C27.3519 39.5888 27.7253 39.7457 28.0982 39.8387C29.442 40.1737 30.7007 40.0899 31.7746 39.6204C31.7812 39.8108 31.7863 39.9928 31.7906 40.15C31.7977 40.4048 31.8048 40.6547 31.8142 40.8884C31.8778 42.4687 31.9856 43.6974 32.3051 44.5572C32.3226 44.6044 32.3462 44.6765 32.3711 44.753C32.5304 45.2395 32.7969 46.0541 33.4749 46.6921C34.177 47.3529 35.0262 47.5556 35.804 47.5556C36.1941 47.5556 36.5663 47.5045 36.8927 47.4348C38.0563 47.1861 39.3778 46.8073 40.3338 45.4499C41.2377 44.1666 41.677 42.2339 41.7565 39.1886C41.7669 39.1025 41.7763 39.0202 41.7855 38.9419L41.8044 38.781L42.0173 38.7996L42.0722 38.8033C43.2574 38.8572 44.7065 38.6066 45.5965 38.1943C46.2997 37.8689 48.5533 36.6825 48.0227 35.0807Z" fill="black"/>
<path d="M45.9963 35.3922C42.4724 36.1171 42.2301 34.9273 42.2301 34.9273C45.9507 29.4219 47.5061 22.4337 46.164 20.7233C42.5021 16.0578 36.1634 18.2643 36.0576 18.3215L36.0236 18.3276C35.3273 18.1835 34.5482 18.0977 33.6725 18.0834C32.0781 18.0574 30.8685 18.5003 29.9507 19.1943C29.9507 19.1943 18.643 14.549 19.169 25.0366C19.2808 27.2677 22.3758 41.9184 26.0673 37.4932C27.4166 35.875 28.7204 34.5068 28.7204 34.5068C29.3678 34.9357 30.143 35.1546 30.9556 35.076L31.0187 35.0226C30.9991 35.2234 31.0081 35.4199 31.044 35.6526C30.093 36.7121 30.3725 36.8981 28.4714 37.2884C26.5477 37.6838 27.6777 38.3875 28.4156 38.5716C29.3101 38.7946 31.3794 39.1105 32.7776 37.1587L32.7219 37.3814C33.0945 37.679 33.3561 39.3172 33.3123 40.8023C33.2684 42.2874 33.2392 43.307 33.5327 44.1034C33.8264 44.8997 34.1189 46.6916 36.6182 46.1577C38.7064 45.7114 39.7885 44.555 39.9391 42.6259C40.0459 41.2545 40.2877 41.4573 40.3029 40.2312L40.4969 39.6508C40.7205 37.7918 40.5324 37.192 41.8189 37.471L42.1317 37.4984C43.0785 37.5413 44.3179 37.3464 45.0453 37.0093C46.6115 36.2845 47.5405 35.0742 45.9961 35.3922H45.9963Z" fill="#336791"/>
<path d="M30.6125 26.0343C30.295 25.9902 30.0074 26.031 29.8619 26.1409C29.7801 26.2027 29.7548 26.2743 29.7479 26.3236C29.7297 26.4541 29.8214 26.5985 29.8778 26.6729C30.0373 26.8837 30.2702 27.0286 30.5008 27.0605C30.5342 27.0652 30.5675 27.0674 30.6006 27.0674C30.9851 27.0674 31.3347 26.7688 31.3656 26.5484C31.4041 26.2724 31.0023 26.0884 30.6125 26.0344V26.0343ZM41.1327 26.043C41.1024 25.8267 40.7163 25.765 40.3499 25.8158C39.984 25.8666 39.6293 26.0313 39.6589 26.2482C39.6826 26.4168 39.988 26.7046 40.3494 26.7046C40.3799 26.7046 40.4107 26.7026 40.4418 26.6982C40.683 26.6649 40.8601 26.5121 40.9442 26.4241C41.0722 26.2899 41.1463 26.1403 41.1327 26.043Z" fill="white"/>
<path d="M47.1689 35.3098C47.0346 34.9046 46.6021 34.7743 45.8835 34.9222C43.7501 35.3613 42.9861 35.0572 42.7352 34.873C44.3935 32.3538 45.7577 29.3086 46.4936 26.4675C46.8422 25.1216 47.0348 23.8717 47.0506 22.853C47.068 21.7348 46.877 20.9132 46.4831 20.4112C44.8951 18.3877 42.5643 17.3023 39.743 17.2725C37.8035 17.2508 36.1647 17.7458 35.847 17.885C35.178 17.7191 34.4487 17.6172 33.6547 17.6042C32.1987 17.5807 30.9401 17.9283 29.898 18.6369C29.4454 18.4689 28.2757 18.0685 26.8451 17.8386C24.3719 17.4416 22.4066 17.7425 21.0042 18.7332C19.3307 19.9155 18.5581 22.0289 18.7078 25.0146C18.7582 26.0191 19.3321 29.1092 20.2379 32.0685C21.4301 35.9635 22.7262 38.1684 24.0898 38.622C24.2494 38.6751 24.4334 38.7122 24.6364 38.7122C25.1338 38.7122 25.7437 38.4886 26.3782 37.7279C27.1522 36.8021 27.9528 35.8988 28.779 35.019C29.3151 35.3059 29.904 35.4661 30.5063 35.4822C30.5074 35.4979 30.509 35.5136 30.5104 35.5292C30.4067 35.6525 30.3052 35.7776 30.2059 35.9044C29.7886 36.4327 29.7017 36.5427 28.3584 36.8185C27.9762 36.8972 26.9613 37.1057 26.9464 37.8151C26.9303 38.5903 28.1461 38.9158 28.2847 38.9503C28.7674 39.0708 29.2325 39.1303 29.676 39.1303C30.7546 39.1303 31.7039 38.7767 32.4624 38.0927C32.4391 40.856 32.5546 43.5788 32.8874 44.4084C33.1599 45.0876 33.8256 46.7474 35.9283 46.7473C36.2369 46.7473 36.5765 46.7115 36.9501 46.6316C39.1447 46.1625 40.0977 45.1953 40.4663 43.0628C40.6636 41.9232 41.0021 39.2019 41.1614 37.7421C41.4974 37.8467 41.9301 37.8945 42.3977 37.8944C43.3732 37.8944 44.4987 37.6878 45.2046 37.3611C45.9975 36.9938 47.4284 36.0927 47.1689 35.3098ZM41.9427 25.4459C41.9355 25.8768 41.876 26.268 41.813 26.6764C41.7451 27.1156 41.6749 27.5697 41.6573 28.1209C41.6399 28.6573 41.7071 29.215 41.772 29.7544C41.9033 30.8439 42.038 31.9654 41.5165 33.0721C41.4299 32.919 41.3527 32.7608 41.2855 32.5984C41.2206 32.4417 41.0799 32.19 40.885 31.8417C40.1267 30.4857 38.3511 27.3103 39.2601 26.0146C39.5308 25.6289 40.218 25.2323 41.9427 25.4459ZM39.8521 18.1452C42.38 18.2008 44.3796 19.1438 45.7954 20.9479C46.8812 22.3317 45.6855 28.628 42.224 34.0599C42.1892 34.0158 42.1542 33.9718 42.119 33.9279L42.0752 33.8733C42.9697 32.4002 42.7948 30.9428 42.6391 29.6506C42.5751 29.1203 42.5147 28.6194 42.5301 28.1489C42.546 27.6502 42.6121 27.2225 42.6761 26.8089C42.7546 26.2993 42.8346 25.772 42.8126 25.1503C42.829 25.0851 42.8357 25.0081 42.827 24.9166C42.7708 24.3205 42.0882 22.5364 40.6971 20.9217C39.9362 20.0384 38.8265 19.05 37.3114 18.3834C37.9631 18.2487 38.8542 18.1231 39.8521 18.1452ZM25.7068 37.1712C25.0077 38.0094 24.5249 37.8487 24.3661 37.796C23.3317 37.4519 22.1314 35.2716 21.0731 31.8143C20.1574 28.8227 19.6223 25.8145 19.5799 24.971C19.4462 22.3032 20.0947 20.4439 21.5075 19.4448C23.8067 17.8189 27.5869 18.7921 29.1058 19.2856C29.084 19.3071 29.0613 19.3272 29.0397 19.3491C26.5471 21.8593 26.6062 26.148 26.6124 26.4102C26.6121 26.5113 26.6207 26.6545 26.6323 26.8515C26.6752 27.5728 26.755 28.9154 26.5418 30.4357C26.3436 31.8486 26.7804 33.2314 27.7398 34.2297C27.8383 34.332 27.9418 34.4293 28.0499 34.5213C27.6229 34.9774 26.6947 35.986 25.7068 37.1712ZM28.3703 33.6272C27.5971 32.8226 27.2458 31.7033 27.4066 30.5563C27.6318 28.9502 27.5487 27.5515 27.504 26.8C27.4978 26.6948 27.4922 26.6026 27.489 26.53C27.8531 26.208 29.5406 25.3064 30.744 25.5814C31.293 25.7068 31.6277 26.0797 31.7668 26.721C32.4867 30.0417 31.862 31.4257 31.3601 32.5379C31.2567 32.767 31.1589 32.9836 31.0755 33.2076L31.0108 33.3809C30.847 33.8188 30.6947 34.2259 30.6002 34.6125C29.7781 34.6102 28.9784 34.26 28.3703 33.6271V33.6272ZM28.4965 38.1055C28.2565 38.0457 28.0406 37.9418 27.9139 37.8557C28.0197 37.806 28.208 37.7385 28.5346 37.6713C30.1149 37.347 30.359 37.118 30.892 36.4432C31.0141 36.2884 31.1526 36.1131 31.3445 35.8994L31.3447 35.8992C31.6304 35.5802 31.7611 35.6343 31.9981 35.7323C32.1901 35.8115 32.3772 36.0516 32.4531 36.3158C32.489 36.4406 32.5293 36.6774 32.3974 36.8617C31.284 38.4162 29.6617 38.3962 28.4965 38.1055ZM36.7671 45.7801C34.8338 46.1932 34.1493 45.2095 33.6982 44.085C33.4071 43.3591 33.2639 40.0853 33.3655 36.47C33.3668 36.4219 33.3599 36.3755 33.3466 36.3318C33.3348 36.2454 33.3167 36.1601 33.2926 36.0763C33.1416 35.5503 32.7737 35.1102 32.3323 34.9278C32.157 34.8554 31.8351 34.7224 31.4484 34.8211C31.5309 34.4822 31.6739 34.0995 31.829 33.6851L31.894 33.5108C31.9673 33.3143 32.0592 33.1107 32.1564 32.8952C32.6817 31.7316 33.401 30.1377 32.6203 26.5371C32.3278 25.1884 31.3512 24.5298 29.8708 24.6828C28.9833 24.7744 28.1713 25.1314 27.7663 25.3362C27.6792 25.3802 27.5995 25.4227 27.5251 25.4641C27.6382 24.1052 28.0652 21.5657 29.6627 19.959C30.6686 18.9476 32.0081 18.448 33.6403 18.4749C36.8561 18.5274 38.9183 20.1731 40.0822 21.5446C41.0851 22.7263 41.6281 23.9168 41.8449 24.5588C40.215 24.3935 39.1065 24.7143 38.5446 25.5155C37.3221 27.2581 39.2134 30.6403 40.1223 32.2658C40.2891 32.5637 40.4329 32.8211 40.4782 32.9305C40.7742 33.6459 41.1574 34.1235 41.4371 34.4721C41.5229 34.5789 41.6061 34.6825 41.6694 34.773C41.1757 34.9149 40.2891 35.2428 40.3699 36.8818C40.3047 37.7042 39.8413 41.5545 39.6058 42.9149C39.295 44.7121 38.6318 45.3815 36.7671 45.7803V45.7801ZM44.8369 36.5713C44.3321 36.8049 43.4874 36.9801 42.685 37.0178C41.7986 37.0592 41.3474 36.9188 41.2413 36.8324C41.1915 35.811 41.5727 35.7043 41.9761 35.5914C42.0395 35.5737 42.1014 35.5563 42.1611 35.5355C42.1982 35.5656 42.2388 35.5955 42.2834 35.6248C42.9958 36.0937 44.2664 36.1442 46.0602 35.775L46.0799 35.7711C45.8379 35.9967 45.4239 36.2994 44.8369 36.5713Z" fill="white"/>
</g>
<defs>
<filter id="filter0_d_193_4868" x="0.815796" y="0" width="64.3129" height="64" filterUnits="userSpaceOnUse" color-interpolation-filters="sRGB">
<feFlood flood-opacity="0" result="BackgroundImageFix"/>
<feColorMatrix in="SourceAlpha" type="matrix" values="0 0 0 0 0 0 0 0 0 0 0 0 0 0 0 0 0 0 127 0" result="hardAlpha"/>
<feOffset/>
<feGaussianBlur stdDeviation="2"/>
<feComposite in2="hardAlpha" operator="out"/>
<feColorMatrix type="matrix" values="0 0 0 0 0 0 0 0 0 0 0 0 0 0 0 0 0 0 0.1 0"/>
<feBlend mode="normal" in2="BackgroundImageFix" result="effect1_dropShadow_193_4868"/>
<feBlend mode="normal" in="SourceGraphic" in2="effect1_dropShadow_193_4868" result="shape"/>
</filter>
</defs>
</svg>
