<svg width="64" height="64" viewBox="0 0 64 64" fill="none" xmlns="http://www.w3.org/2000/svg">
<g filter="url(#filter0_d_193_4940)">
<rect x="4" y="4" width="56" height="56" rx="16" fill="white" shape-rendering="crispEdges"/>
<path d="M39.4074 22.3704H40.8889C41.3037 22.3704 41.6297 22.6963 41.6297 23.1111C41.6297 23.5259 41.3037 23.8518 40.8889 23.8518H39.4074C38.9926 23.8518 38.6667 23.5259 38.6667 23.1111C38.6667 22.6963 38.9926 22.3704 39.4074 22.3704Z" fill="#56B3B4"/>
<path d="M17.1852 46.0741H24.5926C25.0074 46.0741 25.3333 46.4 25.3333 46.8148C25.3333 47.2297 25.0074 47.5556 24.5926 47.5556H17.1852C16.7704 47.5556 16.4445 47.2297 16.4445 46.8148C16.4445 46.4 16.7704 46.0741 17.1852 46.0741Z" fill="#EA5E5E"/>
<path d="M34.963 34.2223H39.4074C39.8222 34.2223 40.1482 34.5482 40.1482 34.963C40.1482 35.3778 39.8222 35.7037 39.4074 35.7037H34.963C34.5482 35.7037 34.2223 35.3778 34.2223 34.963C34.2223 34.5482 34.5482 34.2223 34.963 34.2223Z" fill="#BF85BF"/>
<path d="M26.0741 34.2223H32.0001C32.4149 34.2223 32.7408 34.5482 32.7408 34.963C32.7408 35.3778 32.4149 35.7037 32.0001 35.7037H26.0741C25.6593 35.7037 25.3334 35.3778 25.3334 34.963C25.3334 34.5482 25.6593 34.2223 26.0741 34.2223Z" fill="#EA5E5E"/>
<path d="M17.1852 34.2223H23.1111C23.5259 34.2223 23.8519 34.5482 23.8519 34.963C23.8519 35.3778 23.5259 35.7037 23.1111 35.7037H17.1852C16.7704 35.7037 16.4445 35.3778 16.4445 34.963C16.4445 34.5482 16.7704 34.2223 17.1852 34.2223Z" fill="#56B3B4"/>
<path d="M17.1852 40.1481H24.5926C25.0074 40.1481 25.3333 40.4741 25.3333 40.8889C25.3333 41.3037 25.0074 41.6296 24.5926 41.6296H17.1852C16.7704 41.6296 16.4445 41.3037 16.4445 40.8889C16.4445 40.4741 16.7704 40.1481 17.1852 40.1481Z" fill="#BF85BF"/>
<path d="M17.1852 28.2963H24.5926C25.0074 28.2963 25.3333 28.6223 25.3333 29.0371C25.3333 29.4519 25.0074 29.7778 24.5926 29.7778H17.1852C16.7704 29.7778 16.4445 29.4519 16.4445 29.0371C16.4445 28.6223 16.7704 28.2963 17.1852 28.2963Z" fill="#BF85BF"/>
<path d="M24.5926 19.4074H39.4074C39.8222 19.4074 40.1481 19.7333 40.1481 20.1482C40.1481 20.563 39.8222 20.8889 39.4074 20.8889H24.5926C24.1778 20.8889 23.8519 20.563 23.8519 20.1482C23.8519 19.7333 24.1778 19.4074 24.5926 19.4074Z" fill="#F7BA3E"/>
<path d="M17.1852 19.4074H21.6296C22.0445 19.4074 22.3704 19.7333 22.3704 20.1482C22.3704 20.563 22.0445 20.8889 21.6296 20.8889H17.1852C16.7704 20.8889 16.4445 20.563 16.4445 20.1482C16.4445 19.7333 16.7704 19.4074 17.1852 19.4074Z" fill="#EA5E5E"/>
<path d="M23.1111 43.1111H24.5926C25.0074 43.1111 25.3333 43.437 25.3333 43.8518C25.3333 44.2666 25.0074 44.5926 24.5926 44.5926H23.1111C22.6963 44.5926 22.3704 44.2666 22.3704 43.8518C22.3704 43.437 22.6963 43.1111 23.1111 43.1111Z" fill="#F7BA3E"/>
<path d="M23.1111 25.3334H24.5926C25.0074 25.3334 25.3333 25.6593 25.3333 26.0741C25.3333 26.4889 25.0074 26.8148 24.5926 26.8148H23.1111C22.6963 26.8148 22.3704 26.4889 22.3704 26.0741C22.3704 25.6593 22.6963 25.3334 23.1111 25.3334Z" fill="#56B3B4"/>
<path d="M17.1852 43.1111H20.1482C20.563 43.1111 20.8889 43.437 20.8889 43.8518C20.8889 44.2666 20.563 44.5926 20.1482 44.5926H17.1852C16.7704 44.5926 16.4445 44.2666 16.4445 43.8518C16.4445 43.437 16.7704 43.1111 17.1852 43.1111Z" fill="#56B3B4"/>
<path d="M17.1852 25.3334H20.1482C20.563 25.3334 20.8889 25.6593 20.8889 26.0741C20.8889 26.4889 20.563 26.8148 20.1482 26.8148H17.1852C16.7704 26.8148 16.4445 26.4889 16.4445 26.0741C16.4445 25.6593 16.7704 25.3334 17.1852 25.3334Z" fill="#F7BA3E"/>
<path opacity="0.5" d="M36.4445 43.1111H37.9259C38.3407 43.1111 38.6666 43.437 38.6666 43.8518C38.6666 44.2666 38.3407 44.5926 37.9259 44.5926H36.4445C36.0297 44.5926 35.7037 44.2666 35.7037 43.8518C35.7037 43.437 36.0297 43.1111 36.4445 43.1111Z" fill="#D0D4D8"/>
<path opacity="0.5" d="M27.5556 43.1111H33.4815C33.8963 43.1111 34.2223 43.437 34.2223 43.8518C34.2223 44.2666 33.8963 44.5926 33.4815 44.5926H27.5556C27.1407 44.5926 26.8148 44.2666 26.8148 43.8518C26.8148 43.437 27.1407 43.1111 27.5556 43.1111Z" fill="#D0D4D8"/>
<path opacity="0.5" d="M40.8889 43.1111H46.8149C47.2297 43.1111 47.5556 43.437 47.5556 43.8518C47.5556 44.2666 47.2297 44.5926 46.8149 44.5926H40.8889C40.4741 44.5926 40.1482 44.2666 40.1482 43.8518C40.1482 43.437 40.4741 43.1111 40.8889 43.1111Z" fill="#D0D4D8"/>
<path d="M29.0371 31.2593H40.8889C41.3037 31.2593 41.6296 31.5852 41.6296 32C41.6296 32.4148 41.3037 32.7407 40.8889 32.7407H29.0371C28.6223 32.7407 28.2963 32.4148 28.2963 32C28.2963 31.5852 28.6223 31.2593 29.0371 31.2593Z" fill="#56B3B4"/>
<path d="M21.6297 31.2593H26.0741C26.4889 31.2593 26.8148 31.5852 26.8148 32C26.8148 32.4148 26.4889 32.7407 26.0741 32.7407H21.6297C21.2148 32.7407 20.8889 32.4148 20.8889 32C20.8889 31.5852 21.2148 31.2593 21.6297 31.2593Z" fill="#F7BA3E"/>
<path d="M17.1852 31.2593H18.6667C19.0815 31.2593 19.4074 31.5852 19.4074 32C19.4074 32.4148 19.0815 32.7407 18.6667 32.7407H17.1852C16.7704 32.7407 16.4445 32.4148 16.4445 32C16.4445 31.5852 16.7704 31.2593 17.1852 31.2593Z" fill="#EA5E5E"/>
<path d="M30.5186 22.3704H36.4445C36.8593 22.3704 37.1852 22.6963 37.1852 23.1111C37.1852 23.5259 36.8593 23.8518 36.4445 23.8518H30.5186C30.1038 23.8518 29.7778 23.5259 29.7778 23.1111C29.7778 22.6963 30.1038 22.3704 30.5186 22.3704Z" fill="#BF85BF"/>
<path d="M17.1852 22.3704H27.5556C27.9704 22.3704 28.2963 22.6963 28.2963 23.1111C28.2963 23.5259 27.9704 23.8518 27.5556 23.8518H17.1852C16.7704 23.8518 16.4445 23.5259 16.4445 23.1111C16.4445 22.6963 16.7704 22.3704 17.1852 22.3704Z" fill="#56B3B4"/>
<path d="M21.6297 37.1852H34.963C35.3778 37.1852 35.7038 37.5111 35.7038 37.9259C35.7038 38.3407 35.3778 38.6667 34.963 38.6667H21.6297C21.2148 38.6667 20.8889 38.3407 20.8889 37.9259C20.8889 37.5111 21.2148 37.1852 21.6297 37.1852Z" fill="#F7BA3E"/>
<path d="M17.1852 37.1852H18.6667C19.0815 37.1852 19.4074 37.5111 19.4074 37.9259C19.4074 38.3407 19.0815 38.6667 18.6667 38.6667H17.1852C16.7704 38.6667 16.4445 38.3407 16.4445 37.9259C16.4445 37.5111 16.7704 37.1852 17.1852 37.1852Z" fill="#BF85BF"/>
<path d="M34.963 25.3334H42.3704C42.7852 25.3334 43.1111 25.6593 43.1111 26.0741C43.1111 26.4889 42.7852 26.8148 42.3704 26.8148H34.963C34.5482 26.8148 34.2223 26.4889 34.2223 26.0741C34.2223 25.6593 34.5482 25.3334 34.963 25.3334Z" fill="#EA5E5E"/>
<path d="M34.963 28.2963H42.3704C42.7852 28.2963 43.1111 28.6223 43.1111 29.0371C43.1111 29.4519 42.7852 29.7778 42.3704 29.7778H34.963C34.5482 29.7778 34.2223 29.4519 34.2223 29.0371C34.2223 28.6223 34.5482 28.2963 34.963 28.2963Z" fill="#F7BA3E"/>
<path d="M17.1852 16.4445H34.963C35.3778 16.4445 35.7037 16.7704 35.7037 17.1852C35.7037 17.6 35.3778 17.9259 34.963 17.9259H17.1852C16.7704 17.9259 16.4445 17.6 16.4445 17.1852C16.4445 16.7704 16.7704 16.4445 17.1852 16.4445Z" fill="#56B3B4"/>
<path opacity="0.5" d="M37.9259 16.4445H46.8148C47.2296 16.4445 47.5556 16.7704 47.5556 17.1852C47.5556 17.6 47.2296 17.9259 46.8148 17.9259H37.9259C37.5111 17.9259 37.1852 17.6 37.1852 17.1852C37.1852 16.7704 37.5111 16.4445 37.9259 16.4445Z" fill="#D0D4D8"/>
<path opacity="0.5" d="M37.9259 37.1852H40.8889C41.3037 37.1852 41.6296 37.5111 41.6296 37.9259C41.6296 38.3407 41.3037 38.6667 40.8889 38.6667H37.9259C37.5111 38.6667 37.1852 38.3407 37.1852 37.9259C37.1852 37.5111 37.5111 37.1852 37.9259 37.1852Z" fill="#D0D4D8"/>
<path opacity="0.5" d="M43.8519 37.1852H46.8149C47.2297 37.1852 47.5556 37.5111 47.5556 37.9259C47.5556 38.3407 47.2297 38.6667 46.8149 38.6667H43.8519C43.4371 38.6667 43.1111 38.3407 43.1111 37.9259C43.1111 37.5111 43.4371 37.1852 43.8519 37.1852Z" fill="#D0D4D8"/>
<path opacity="0.5" d="M42.3704 34.2223H46.8148C47.2297 34.2223 47.5556 34.5482 47.5556 34.963C47.5556 35.3778 47.2297 35.7037 46.8148 35.7037H42.3704C41.9556 35.7037 41.6296 35.3778 41.6296 34.963C41.6296 34.5482 41.9556 34.2223 42.3704 34.2223Z" fill="#D0D4D8"/>
<path opacity="0.5" d="M42.3704 19.4074H46.8148C47.2297 19.4074 47.5556 19.7333 47.5556 20.1482C47.5556 20.563 47.2297 20.8889 46.8148 20.8889H42.3704C41.9556 20.8889 41.6296 20.563 41.6296 20.1482C41.6296 19.7333 41.9556 19.4074 42.3704 19.4074Z" fill="#D0D4D8"/>
<path opacity="0.5" d="M43.8519 31.2593H46.8149C47.2297 31.2593 47.5556 31.5852 47.5556 32C47.5556 32.4148 47.2297 32.7407 46.8149 32.7407H43.8519C43.4371 32.7407 43.1111 32.4148 43.1111 32C43.1111 31.5852 43.4371 31.2593 43.8519 31.2593Z" fill="#D0D4D8"/>
<path opacity="0.5" d="M43.8519 22.3704H46.8149C47.2297 22.3704 47.5556 22.6963 47.5556 23.1111C47.5556 23.5259 47.2297 23.8518 46.8149 23.8518H43.8519C43.4371 23.8518 43.1111 23.5259 43.1111 23.1111C43.1111 22.6963 43.4371 22.3704 43.8519 22.3704Z" fill="#D0D4D8"/>
<path opacity="0.5" d="M45.3333 25.3334H46.8148C47.2296 25.3334 47.5556 25.6593 47.5556 26.0741C47.5556 26.4889 47.2296 26.8148 46.8148 26.8148H45.3333C44.9185 26.8148 44.5926 26.4889 44.5926 26.0741C44.5926 25.6593 44.9185 25.3334 45.3333 25.3334Z" fill="#D0D4D8"/>
<path opacity="0.5" d="M45.3333 28.2963H46.8148C47.2296 28.2963 47.5556 28.6223 47.5556 29.0371C47.5556 29.4519 47.2296 29.7778 46.8148 29.7778H45.3333C44.9185 29.7778 44.5926 29.4519 44.5926 29.0371C44.5926 28.6223 44.9185 28.2963 45.3333 28.2963Z" fill="#D0D4D8"/>
<path opacity="0.5" d="M33.4815 40.1481H46.8148C47.2296 40.1481 47.5556 40.4741 47.5556 40.8889C47.5556 41.3037 47.2296 41.6296 46.8148 41.6296H33.4815C33.0667 41.6296 32.7408 41.3037 32.7408 40.8889C32.7408 40.4741 33.0667 40.1481 33.4815 40.1481Z" fill="#D0D4D8"/>
<path opacity="0.5" d="M27.5556 40.1481H30.5185C30.9333 40.1481 31.2593 40.4741 31.2593 40.8889C31.2593 41.3037 30.9333 41.6296 30.5185 41.6296H27.5556C27.1407 41.6296 26.8148 41.3037 26.8148 40.8889C26.8148 40.4741 27.1407 40.1481 27.5556 40.1481Z" fill="#D0D4D8"/>
<path opacity="0.5" d="M39.4074 46.0741H46.8149C47.2297 46.0741 47.5556 46.4 47.5556 46.8148C47.5556 47.2297 47.2297 47.5556 46.8149 47.5556H39.4074C38.9926 47.5556 38.6667 47.2297 38.6667 46.8148C38.6667 46.4 38.9926 46.0741 39.4074 46.0741Z" fill="#D0D4D8"/>
<path opacity="0.5" d="M27.5556 46.0741H36.4444C36.8592 46.0741 37.1852 46.4 37.1852 46.8148C37.1852 47.2297 36.8592 47.5556 36.4444 47.5556H27.5556C27.1407 47.5556 26.8148 47.2297 26.8148 46.8148C26.8148 46.4 27.1407 46.0741 27.5556 46.0741Z" fill="#D0D4D8"/>
<path opacity="0.5" d="M27.5556 25.3334H32C32.4149 25.3334 32.7408 25.6593 32.7408 26.0741C32.7408 26.4889 32.4149 26.8148 32 26.8148H27.5556C27.1407 26.8148 26.8148 26.4889 26.8148 26.0741C26.8148 25.6593 27.1407 25.3334 27.5556 25.3334Z" fill="#D0D4D8"/>
<path opacity="0.5" d="M27.5556 28.2963H32C32.4149 28.2963 32.7408 28.6223 32.7408 29.0371C32.7408 29.4519 32.4149 29.7778 32 29.7778H27.5556C27.1407 29.7778 26.8148 29.4519 26.8148 29.0371C26.8148 28.6223 27.1407 28.2963 27.5556 28.2963Z" fill="#D0D4D8"/>
</g>
<defs>
<filter id="filter0_d_193_4940" x="0" y="0" width="64" height="64" filterUnits="userSpaceOnUse" color-interpolation-filters="sRGB">
<feFlood flood-opacity="0" result="BackgroundImageFix"/>
<feColorMatrix in="SourceAlpha" type="matrix" values="0 0 0 0 0 0 0 0 0 0 0 0 0 0 0 0 0 0 127 0" result="hardAlpha"/>
<feOffset/>
<feGaussianBlur stdDeviation="2"/>
<feComposite in2="hardAlpha" operator="out"/>
<feColorMatrix type="matrix" values="0 0 0 0 0 0 0 0 0 0 0 0 0 0 0 0 0 0 0.1 0"/>
<feBlend mode="normal" in2="BackgroundImageFix" result="effect1_dropShadow_193_4940"/>
<feBlend mode="normal" in="SourceGraphic" in2="effect1_dropShadow_193_4940" result="shape"/>
</filter>
</defs>
</svg>
