<svg width="65" height="64" viewBox="0 0 65 64" fill="none" xmlns="http://www.w3.org/2000/svg">
<g filter="url(#filter0_d_193_4804)">
<rect x="4.31287" y="4" width="56.3129" height="56" rx="16" fill="white" shape-rendering="crispEdges"/>
<path d="M16.8268 16.7037H48.1117V47.2963H16.8268V16.7037Z" fill="url(#paint0_linear_193_4804)"/>
<path d="M19.3148 19.1366H45.6237V44.8636H19.3148V19.1366Z" fill="url(#paint1_linear_193_4804)"/>
<path d="M24.3871 25.3261C24.3871 25.3261 26.3651 25.2744 27.9934 25.2744C29.6388 25.2744 30.8119 25.6593 31.5996 26.3358C32.3524 26.975 32.8601 28.0647 32.8601 29.3052C32.8601 30.5457 32.4748 31.5608 31.7745 32.2745C30.8642 33.1955 29.8034 33.7406 27.9934 33.816C27.4933 33.8369 27.0305 33.8418 27.0305 33.8418V37.8743H24.387L24.3871 25.3261ZM27.0304 31.6077C27.3176 31.6355 27.4976 31.6222 27.9233 31.6171C29.3413 31.6002 30.2164 30.7427 30.2164 29.4458C30.2164 28.2808 29.4949 27.3243 28.1335 27.2747C27.591 27.255 27.0304 27.2747 27.0304 27.2747V31.6077Z" fill="url(#paint2_linear_193_4804)"/>
<path d="M33.8689 35.065C34.4017 35.3901 35.659 35.877 36.516 35.877C37.3915 35.877 37.7531 35.5702 37.7531 35.0918C37.7531 34.6128 37.4675 34.1096 36.3823 33.7458C34.4594 33.0947 33.7168 32.3152 33.7361 31.2243C33.7361 29.4622 35.2209 28.1411 37.5245 28.1411C38.6096 28.1411 39.4766 28.4939 40.0472 28.7809V30.8956C39.628 30.6656 38.4192 30.1521 37.6198 30.1521C36.9149 30.1521 36.5154 30.4393 36.5154 30.9176C36.5154 31.3581 36.8774 31.588 38.0196 31.9903C39.7898 32.603 40.5324 33.5027 40.5512 34.8815C40.5512 36.6242 39.2003 38.01 36.5154 37.9259C35.594 37.8971 34.5732 37.5348 33.8687 37.1524L33.8689 35.065Z" fill="url(#paint3_linear_193_4804)"/>
</g>
<defs>
<filter id="filter0_d_193_4804" x="0.312866" y="0" width="64.3129" height="64" filterUnits="userSpaceOnUse" color-interpolation-filters="sRGB">
<feFlood flood-opacity="0" result="BackgroundImageFix"/>
<feColorMatrix in="SourceAlpha" type="matrix" values="0 0 0 0 0 0 0 0 0 0 0 0 0 0 0 0 0 0 127 0" result="hardAlpha"/>
<feOffset/>
<feGaussianBlur stdDeviation="2"/>
<feComposite in2="hardAlpha" operator="out"/>
<feColorMatrix type="matrix" values="0 0 0 0 0 0 0 0 0 0 0 0 0 0 0 0 0 0 0.1 0"/>
<feBlend mode="normal" in2="BackgroundImageFix" result="effect1_dropShadow_193_4804"/>
<feBlend mode="normal" in="SourceGraphic" in2="effect1_dropShadow_193_4804" result="shape"/>
</filter>
<linearGradient id="paint0_linear_193_4804" x1="24.4295" y1="15.1061" x2="36.3133" y2="40.3574" gradientUnits="userSpaceOnUse">
<stop stop-color="#A0CBFF"/>
<stop offset="0.394" stop-color="#A0CBFE"/>
<stop offset="0.583" stop-color="#8EC2FC"/>
<stop offset="0.784" stop-color="#83BCFB"/>
<stop offset="1" stop-color="#7FBAFB"/>
</linearGradient>
<linearGradient id="paint1_linear_193_4804" x1="28.6863" y1="19.4991" x2="35.3958" y2="41.92" gradientUnits="userSpaceOnUse">
<stop stop-color="#090058"/>
<stop offset="1" stop-color="#070033"/>
</linearGradient>
<linearGradient id="paint2_linear_193_4804" x1="20.6995" y1="16.447" x2="32.5832" y2="41.698" gradientUnits="userSpaceOnUse">
<stop stop-color="#A0CBFF"/>
<stop offset="0.394" stop-color="#A0CBFE"/>
<stop offset="0.583" stop-color="#8EC2FC"/>
<stop offset="0.784" stop-color="#83BCFB"/>
<stop offset="1" stop-color="#7FBAFB"/>
</linearGradient>
<linearGradient id="paint3_linear_193_4804" x1="27.5305" y1="13.1566" x2="39.4613" y2="38.5077" gradientUnits="userSpaceOnUse">
<stop stop-color="#A0CBFF"/>
<stop offset="0.394" stop-color="#A0CBFE"/>
<stop offset="0.583" stop-color="#8EC2FC"/>
<stop offset="0.784" stop-color="#83BCFB"/>
<stop offset="1" stop-color="#7FBAFB"/>
</linearGradient>
</defs>
</svg>
