<svg width="64" height="64" viewBox="0 0 64 64" fill="none" xmlns="http://www.w3.org/2000/svg">
<g filter="url(#filter0_d_193_4406)">
<rect x="4" y="4" width="56" height="56" rx="16" fill="white" shape-rendering="crispEdges"/>
<path d="M42.4776 28.4036C42.4291 27.3352 42.5748 26.3882 42.0891 25.5869C40.9236 23.5958 38.0098 22.4302 32.1821 22.4302V22.6002H32.0607H32.1821V22.4302C26.3544 22.4302 23.2949 23.5958 22.1294 25.6112C21.668 26.4368 21.7166 27.3595 21.6437 28.4279C21.5951 29.2778 21.2066 30.1762 21.3766 31.1475C21.5709 32.4101 21.6437 33.6728 21.838 34.8383C21.9837 35.7853 23.2949 36.5866 23.4163 37.4851C23.7562 39.9618 26.3301 41.1031 32.1578 41.1031V41.2974H32.0121H32.1821V41.1031C38.0098 41.1031 40.4865 39.9618 40.8022 37.4851C40.9236 36.5624 42.1377 35.7853 42.2834 34.8383C42.4776 33.6728 42.5505 32.4101 42.7447 31.1475C42.9147 30.1762 42.5262 29.2535 42.4776 28.4036Z" fill="#EFCCA3"/>
<path d="M32.0849 29.2778C33.1291 29.3021 33.8575 29.9577 34.5374 30.5647C35.3387 31.2689 36.6985 31.7545 37.257 32.3616C37.8155 32.9686 38.544 33.5757 38.8111 34.5227C39.0782 35.4697 39.151 36.6838 39.151 36.9994C39.151 37.3151 39.321 37.2423 39.8066 36.9994C40.9479 36.441 42.2105 34.9355 42.2105 34.9355C42.0648 35.8825 40.8265 36.7323 40.7051 37.6308C40.4137 40.1075 38.0097 41.2974 32.0607 41.2974H32.0364H32.1821" fill="#CCAC8D"/>
<path d="M35.9215 27.3837C36.1401 28.1365 36.9171 30.6861 35.4116 29.8362C35.4116 29.8362 36.043 30.2005 36.4315 31.5845C36.8443 32.9686 37.8398 33.1386 37.8398 33.1386C37.8398 33.1386 39.4667 33.4542 40.6808 32.4101C41.7006 31.536 41.8706 29.9819 41.4335 28.7921C40.9965 27.6266 40.2194 27.2623 39.0782 27.0195C37.9369 26.7524 35.6544 26.5339 35.9215 27.3837Z" fill="#CCAC8D"/>
<path d="M38.8111 32.2887C39.9913 32.2887 40.9479 31.332 40.9479 30.1519C40.9479 28.9718 39.9913 28.0151 38.8111 28.0151C37.631 28.0151 36.6743 28.9718 36.6743 30.1519C36.6743 31.332 37.631 32.2887 38.8111 32.2887Z" fill="black"/>
<path d="M38.2526 29.7634C38.5611 29.7634 38.8111 29.5133 38.8111 29.2049C38.8111 28.8965 38.5611 28.6464 38.2526 28.6464C37.9441 28.6464 37.6941 28.8965 37.6941 29.2049C37.6941 29.5133 37.9441 29.7634 38.2526 29.7634Z" fill="white"/>
<path d="M35.5574 30.0548C35.5574 30.0548 37.4756 31.366 38.5198 32.653C39.5639 33.9399 39.5396 34.1827 39.5396 34.1827L38.7869 34.5227C38.7869 34.5227 37.7185 32.5073 36.4072 31.7545C35.0717 31.0018 34.926 30.3705 34.926 30.3705L35.5574 30.0548Z" fill="#EFCCA3"/>
<path d="M32.1579 29.2778C31.1137 29.3021 30.3367 29.9577 29.6325 30.5647C28.8312 31.2689 27.4229 31.7545 26.8644 32.3616C26.3059 32.9686 25.5532 33.5757 25.2861 34.5227C25.019 35.4697 24.9218 36.6838 24.9218 36.9994C24.9218 37.3151 24.9704 37.3394 24.2662 36.9994C23.125 36.4652 21.8623 34.9355 21.8623 34.9355C22.008 35.8825 23.2464 36.7323 23.3678 37.6308C23.7077 40.1075 26.1117 41.2974 32.0607 41.2974H32.1822" fill="#CCAC8D"/>
<path d="M37.7913 33.3814C36.6258 31.9488 34.7561 30.6133 32.1579 30.6133H32.1336C29.5354 30.6133 27.6657 31.9488 26.5002 33.3814C25.2861 34.8626 25.3832 35.4454 25.3832 36.8537C25.3832 41.953 27.1801 40.496 28.3699 41.1274C29.584 41.7344 30.8467 41.5402 32.1336 41.5402H32.1579C33.4691 41.5402 34.7075 41.7101 35.9216 41.1031C37.1114 40.496 38.9083 42.0015 38.9083 36.9023C38.9326 35.494 39.0054 34.8626 37.7913 33.3814Z" fill="#56332B"/>
<path d="M32.0364 31.8759C32.0364 31.8759 31.8664 34.2313 31.5265 34.6927L32.1578 34.547L32.0364 31.8759Z" fill="#442823"/>
<path d="M32.2064 31.8759C32.2064 31.8759 32.3763 34.2313 32.7163 34.6927L32.085 34.547L32.2064 31.8759Z" fill="#442823"/>
<path d="M30.1667 31.3174C29.9239 30.759 30.7981 29.8605 32.1822 29.8362C33.5662 29.8362 34.4404 30.7347 34.1976 31.3174C33.9548 31.9002 33.0806 32.0702 32.1822 32.0945C31.308 32.0702 30.4096 31.9002 30.1667 31.3174Z" fill="#56332B"/>
<path d="M32.1821 31.876C32.1821 31.7788 33.0077 31.7546 33.4448 31.4632C33.4448 31.4632 32.5463 31.7546 32.3521 31.6331C32.1578 31.536 32.1093 31.2446 32.1093 31.2446C32.1093 31.2446 32.0364 31.536 31.8907 31.6331C31.7208 31.7303 30.7009 31.4632 30.7009 31.4632C30.7009 31.4632 32.0607 31.8031 32.0607 31.876C32.0607 31.9488 32.0364 32.1916 32.0364 32.3616C32.0364 32.9687 32.0364 34.4741 32.1336 34.5955C32.2792 34.8141 32.2307 32.9687 32.2307 32.3616C32.2064 32.1673 32.2064 31.9731 32.1821 31.876Z" fill="black"/>
<path d="M32.2306 35.1297C32.6434 35.1297 33.3719 35.4211 34.0275 35.8824C33.3961 35.1783 32.6434 34.6926 32.2306 34.6926C31.7935 34.6926 30.8708 35.2268 30.2152 36.0038C30.8951 35.4696 31.7692 35.1297 32.2306 35.1297Z" fill="#7F4A41"/>
<path d="M32.0607 39.4277C31.138 39.4277 30.2396 39.1363 29.414 38.9178C29.244 38.8692 29.074 38.9906 28.9041 38.942C27.3743 38.4564 26.1359 37.6308 25.3832 36.5867V36.8295C25.3832 41.9287 27.18 40.4961 28.3699 41.1031C29.584 41.7102 30.8466 41.5159 32.1336 41.5159H32.1579C33.4691 41.5159 34.7075 41.6859 35.9216 41.0789C37.1114 40.4718 38.9083 41.953 38.9083 36.8538C38.9083 36.6595 38.9083 36.4653 38.9325 36.2953C38.2284 37.4365 36.9414 38.335 35.3388 38.8692C35.1931 38.9178 34.8532 38.7963 34.7075 38.8206C33.8333 39.112 33.0563 39.4277 32.0607 39.4277Z" fill="#442823"/>
<path d="M29.7538 36.6838C29.7538 36.6838 29.1468 38.5049 29.5596 39.3063L29.0011 39.0634C29.0011 39.0634 29.4139 37.218 29.7538 36.6838ZM34.5617 36.6838C34.5617 36.6838 35.1687 38.5049 34.7559 39.3063L35.3144 39.0634C35.3144 39.0634 34.8773 37.218 34.5617 36.6838Z" fill="#442823"/>
<path d="M28.1998 27.3837C27.9813 28.1365 27.2043 30.6861 28.7097 29.8362C28.7097 29.8362 28.0784 30.2005 27.6899 31.5845C27.3014 32.9686 26.2815 33.1386 26.2815 33.1386C26.2815 33.1386 24.6546 33.4542 23.4405 32.4101C22.4207 31.536 22.2507 29.9819 22.6878 28.7921C23.1249 27.6023 23.9019 27.2623 25.0432 27.0195C26.1844 26.7524 28.4426 26.5339 28.1998 27.3837Z" fill="#CCAC8D"/>
<path d="M32.1578 34.6927C32.8134 34.6927 34.8531 36.101 34.8774 37.825V37.7279C34.8774 35.931 33.2262 34.4984 32.1578 34.4984C31.0894 34.4984 29.4382 35.9553 29.4382 37.7279V37.825C29.4625 36.101 31.5022 34.6927 32.1578 34.6927Z" fill="black"/>
<path d="M32.6879 31.3307C32.7918 31.3039 32.8353 31.1242 32.7851 30.9295C32.7348 30.7347 32.6099 30.5985 32.506 30.6253C32.4021 30.6521 32.3586 30.8317 32.4089 31.0265C32.4591 31.2213 32.584 31.3575 32.6879 31.3307Z" fill="#331712"/>
<path d="M31.4398 31.327C31.5423 31.3588 31.6736 31.2288 31.7332 31.0367C31.7928 30.8446 31.7581 30.6631 31.6556 30.6313C31.5532 30.5995 31.4218 30.7295 31.3622 30.9216C31.3026 31.1137 31.3373 31.2952 31.4398 31.327Z" fill="#331712"/>
<path d="M25.4317 32.2887C26.6119 32.2887 27.5686 31.332 27.5686 30.1519C27.5686 28.9718 26.6119 28.0151 25.4317 28.0151C24.2516 28.0151 23.2949 28.9718 23.2949 30.1519C23.2949 31.332 24.2516 32.2887 25.4317 32.2887Z" fill="black"/>
<path d="M25.9901 29.7634C26.2986 29.7634 26.5486 29.5133 26.5486 29.2049C26.5486 28.8965 26.2986 28.6464 25.9901 28.6464C25.6817 28.6464 25.4316 28.8965 25.4316 29.2049C25.4316 29.5133 25.6817 29.7634 25.9901 29.7634Z" fill="white"/>
<path d="M32.7891 30.1762C32.7891 30.1519 32.2306 30.419 32.0849 30.4433C31.9392 30.419 31.3807 30.1519 31.3807 30.1762H32.7891Z" fill="#7F4A41"/>
<path d="M28.5398 30.0548C28.5398 30.0548 26.6215 31.366 25.5774 32.653C24.5333 33.9399 24.5575 34.1827 24.5575 34.1827L25.3103 34.5227C25.3103 34.5227 26.3787 32.5073 27.6899 31.7545C29.0011 31.0018 29.1711 30.3705 29.1711 30.3705L28.5398 30.0548Z" fill="#EFCCA3"/>
<path d="M24.339 26.1697C24.339 26.1697 23.6834 27.9666 22.2264 28.7193C22.2264 28.7193 24.5089 28.4522 24.339 26.1697ZM39.6609 26.1697C39.6609 26.1697 40.3165 27.9666 41.7735 28.7193C41.7735 28.7193 39.4909 28.4522 39.6609 26.1697ZM35.5087 29.5206C35.5087 29.5206 34.0761 28.0151 32.1578 27.9666H32.1821H32.2063C30.2638 28.0151 28.8554 29.5206 28.8554 29.5206C30.5309 28.3551 31.9635 28.3794 32.2063 28.3794C32.1821 28.3794 33.8332 28.3551 35.5087 29.5206ZM33.8332 26.364C33.8332 26.364 33.1048 25.3441 32.1335 25.3198H32.1821C31.4536 25.3441 30.5066 26.364 30.5066 26.364C31.3322 25.5626 32.1821 25.5869 32.1821 25.5869C32.1821 25.5869 32.9834 25.5626 33.8332 26.364ZM25.4317 33.8185C25.4317 33.8185 24.2904 34.377 23.4648 34.0371H23.4405C22.7121 33.6243 22.3479 32.3859 22.3479 32.3859C22.3479 32.3859 23.0763 34.5713 25.4317 33.8185ZM38.7382 33.8185C38.7382 33.8185 39.8795 34.377 40.705 34.0371C41.6763 33.6243 41.822 32.3859 41.822 32.3859C41.822 32.3859 41.0936 34.5713 38.7382 33.8185Z" fill="#CCAC8D"/>
<path d="M26.743 26.0483C27.3743 25.9269 28.4184 25.9026 29.244 26.1697C30.2882 26.5339 29.4383 27.8694 29.6568 27.9423C29.8754 28.0151 30.1667 27.0196 32.1093 27.1167C34.0761 27.2138 34.2947 28.088 34.5618 27.9423C34.8289 27.7966 34.2947 25.5141 37.2328 26.0483C37.2328 26.0483 34.149 25.2227 34.2947 27.4566C34.2947 27.4566 32.5221 26.0968 30.0453 27.3109C30.0696 27.3109 30.7009 25.2227 26.743 26.0483ZM37.4999 26.0483C37.5485 26.0483 37.5728 26.0726 37.597 26.0726C37.6213 26.0726 37.5728 26.0483 37.4999 26.0483ZM25.8931 23.0616C25.8931 23.0616 23.2707 26.3639 22.8821 27.6266C22.4936 28.9135 22.2022 34.1827 21.8623 34.9355L20.6482 29.7391L22.8821 24.3242L25.8931 23.0616ZM38.2284 23.0616C38.2284 23.0616 40.8508 26.3639 41.2393 27.6266C41.6278 28.9135 41.9192 34.1827 42.2592 34.9355L43.4733 29.7391L41.2393 24.3242L38.2284 23.0616Z" fill="#CCAC8D"/>
<path d="M38.107 23.0616C38.107 23.0616 40.9237 25.4169 41.7493 28.1365C42.5749 30.8561 42.2349 34.1584 42.8663 34.5712C43.7647 35.154 44.7846 31.6817 45.1245 31.3174C45.6587 30.7347 47.4313 29.2535 47.5527 28.9864C47.6741 28.7193 43.959 24.6642 42.3321 23.8629C40.3652 22.9402 37.937 22.8673 38.107 23.0616Z" fill="#56332B"/>
<path d="M40.5109 24.5185C40.5109 24.5185 43.8375 28.7678 43.7889 34.0613L45.1244 31.3417C45.1002 31.3417 43.9346 27.8694 40.5109 24.5185Z" fill="#442823"/>
<path d="M25.8931 23.0616C25.8931 23.0616 23.0764 25.4169 22.2508 28.1365C21.4252 30.8561 21.7651 34.1584 21.1338 34.5712C20.2354 35.154 19.2155 31.6817 18.8756 31.3174C18.3414 30.7347 16.5688 29.2535 16.4474 28.9864C16.326 28.7193 20.0411 24.6642 21.668 23.8629C23.6348 22.9402 26.063 22.8673 25.8931 23.0616Z" fill="#56332B"/>
<path d="M23.4892 24.5185C23.4892 24.5185 20.1626 28.7678 20.2111 34.0613L18.8999 31.3417C18.8999 31.3417 20.0654 27.8694 23.4892 24.5185Z" fill="#442823"/>
<path d="M21.6923 34.1584C21.6923 34.1584 21.9351 35.4696 22.3236 35.8824C22.7121 36.2952 22.445 35.5668 22.445 35.5668C22.445 35.5668 22.0322 35.3482 22.1051 33.6728C22.1779 31.9973 21.6923 34.1584 21.6923 34.1584ZM42.4048 34.1584C42.4048 34.1584 42.162 35.4696 41.7735 35.8824C41.385 36.2952 41.6521 35.5668 41.6521 35.5668C41.6521 35.5668 42.0649 35.3482 41.992 33.6728C41.9192 31.9973 42.4048 34.1584 42.4048 34.1584Z" fill="#CCAC8D"/>
<path d="M29.6325 33.3572C29.7398 33.3572 29.8267 33.2703 29.8267 33.163C29.8267 33.0557 29.7398 32.9687 29.6325 32.9687C29.5252 32.9687 29.4382 33.0557 29.4382 33.163C29.4382 33.2703 29.5252 33.3572 29.6325 33.3572Z" fill="#442823"/>
<path d="M28.5156 34.5227C28.6228 34.5227 28.7098 34.4358 28.7098 34.3285C28.7098 34.2212 28.6228 34.1342 28.5156 34.1342C28.4083 34.1342 28.3213 34.2212 28.3213 34.3285C28.3213 34.4358 28.4083 34.5227 28.5156 34.5227Z" fill="#442823"/>
<path d="M28.1513 33.3572C28.2586 33.3572 28.3456 33.2703 28.3456 33.163C28.3456 33.0557 28.2586 32.9687 28.1513 32.9687C28.044 32.9687 27.957 33.0557 27.957 33.163C27.957 33.2703 28.044 33.3572 28.1513 33.3572Z" fill="#442823"/>
<path d="M34.3675 33.3572C34.4748 33.3572 34.5618 33.2703 34.5618 33.163C34.5618 33.0557 34.4748 32.9687 34.3675 32.9687C34.2602 32.9687 34.1732 33.0557 34.1732 33.163C34.1732 33.2703 34.2602 33.3572 34.3675 33.3572Z" fill="#442823"/>
<path d="M35.4844 34.5227C35.5917 34.5227 35.6787 34.4358 35.6787 34.3285C35.6787 34.2212 35.5917 34.1342 35.4844 34.1342C35.3771 34.1342 35.2902 34.2212 35.2902 34.3285C35.2902 34.4358 35.3771 34.5227 35.4844 34.5227Z" fill="#442823"/>
<path d="M35.8487 33.3572C35.956 33.3572 36.0429 33.2703 36.0429 33.163C36.0429 33.0557 35.956 32.9687 35.8487 32.9687C35.7414 32.9687 35.6544 33.0557 35.6544 33.163C35.6544 33.2703 35.7414 33.3572 35.8487 33.3572Z" fill="#442823"/>
</g>
<defs>
<filter id="filter0_d_193_4406" x="0" y="0" width="64" height="64" filterUnits="userSpaceOnUse" color-interpolation-filters="sRGB">
<feFlood flood-opacity="0" result="BackgroundImageFix"/>
<feColorMatrix in="SourceAlpha" type="matrix" values="0 0 0 0 0 0 0 0 0 0 0 0 0 0 0 0 0 0 127 0" result="hardAlpha"/>
<feOffset/>
<feGaussianBlur stdDeviation="2"/>
<feComposite in2="hardAlpha" operator="out"/>
<feColorMatrix type="matrix" values="0 0 0 0 0 0 0 0 0 0 0 0 0 0 0 0 0 0 0.1 0"/>
<feBlend mode="normal" in2="BackgroundImageFix" result="effect1_dropShadow_193_4406"/>
<feBlend mode="normal" in="SourceGraphic" in2="effect1_dropShadow_193_4406" result="shape"/>
</filter>
</defs>
</svg>
