<svg width="66" height="64" viewBox="0 0 66 64" fill="none" xmlns="http://www.w3.org/2000/svg">
<g filter="url(#filter0_d_193_5110)">
<rect x="4.9386" y="4" width="56.3129" height="56" rx="16" fill="white" shape-rendering="crispEdges"/>
<path d="M32.9823 16.5254C25.0402 16.5254 25.5361 19.9504 25.5361 19.9504L25.5449 23.4988H33.1239V24.5642H22.5346C22.5346 24.5642 17.4525 23.991 17.4525 31.96C17.4525 39.9292 21.8883 39.6465 21.8883 39.6465H24.5356V35.9485C24.5356 35.9485 24.3929 31.5374 28.9006 31.5374H36.4176C36.4176 31.5374 40.6409 31.6052 40.6409 27.4784V20.6549C40.6409 20.6549 41.2823 16.5254 32.9823 16.5254ZM28.8032 18.9116C28.9823 18.9115 29.1597 18.9464 29.3252 19.0145C29.4907 19.0826 29.641 19.1825 29.7677 19.3084C29.8943 19.4343 29.9947 19.5839 30.0632 19.7484C30.1317 19.913 30.1668 20.0894 30.1667 20.2675C30.1668 20.4456 30.1317 20.622 30.0632 20.7866C29.9947 20.9511 29.8943 21.1007 29.7677 21.2266C29.641 21.3526 29.4907 21.4524 29.3252 21.5205C29.1597 21.5886 28.9823 21.6235 28.8032 21.6234C28.6241 21.6235 28.4467 21.5886 28.2813 21.5205C28.1158 21.4524 27.9654 21.3526 27.8388 21.2266C27.7121 21.1007 27.6117 20.9511 27.5432 20.7866C27.4748 20.622 27.4396 20.4456 27.4398 20.2675C27.4396 20.0894 27.4748 19.913 27.5432 19.7484C27.6117 19.5839 27.7121 19.4343 27.8388 19.3084C27.9654 19.1825 28.1158 19.0826 28.2813 19.0145C28.4467 18.9464 28.6241 18.9115 28.8032 18.9116Z" fill="url(#paint0_linear_193_5110)"/>
<path d="M33.2078 47.4747C41.1499 47.4747 40.654 44.0497 40.654 44.0497L40.6452 40.5014H33.0661V39.4361H43.6553C43.6553 39.4361 48.7374 40.0092 48.7374 32.04C48.7374 24.0709 44.3016 24.3535 44.3016 24.3535H41.6544V28.0514C41.6544 28.0514 41.7971 32.4626 37.2893 32.4626H29.7724C29.7724 32.4626 25.5491 32.3948 25.5491 36.5217V43.3453C25.5491 43.3453 24.9078 47.4747 33.2077 47.4747H33.2078ZM37.3869 45.0887C37.2078 45.0889 37.0304 45.0539 36.8649 44.9858C36.6994 44.9178 36.549 44.8179 36.4224 44.692C36.2958 44.566 36.1953 44.4165 36.1269 44.2519C36.0584 44.0873 36.0232 43.9109 36.0234 43.7328C36.0232 43.5547 36.0584 43.3783 36.1268 43.2137C36.1953 43.0492 36.2957 42.8996 36.4224 42.7737C36.549 42.6477 36.6994 42.5478 36.8649 42.4797C37.0304 42.4117 37.2078 42.3767 37.3869 42.3768C37.566 42.3767 37.7433 42.4116 37.9088 42.4797C38.0743 42.5478 38.2247 42.6477 38.3513 42.7736C38.478 42.8996 38.5784 43.0491 38.6469 43.2137C38.7153 43.3782 38.7505 43.5546 38.7503 43.7327C38.7505 43.9108 38.7153 44.0872 38.6469 44.2518C38.5784 44.4164 38.478 44.5659 38.3513 44.6918C38.2247 44.8178 38.0743 44.9176 37.9088 44.9857C37.7433 45.0538 37.566 45.0888 37.3869 45.0886V45.0887Z" fill="url(#paint1_linear_193_5110)"/>
</g>
<defs>
<filter id="filter0_d_193_5110" x="0.938599" y="0" width="64.3129" height="64" filterUnits="userSpaceOnUse" color-interpolation-filters="sRGB">
<feFlood flood-opacity="0" result="BackgroundImageFix"/>
<feColorMatrix in="SourceAlpha" type="matrix" values="0 0 0 0 0 0 0 0 0 0 0 0 0 0 0 0 0 0 127 0" result="hardAlpha"/>
<feOffset/>
<feGaussianBlur stdDeviation="2"/>
<feComposite in2="hardAlpha" operator="out"/>
<feColorMatrix type="matrix" values="0 0 0 0 0 0 0 0 0 0 0 0 0 0 0 0 0 0 0.1 0"/>
<feBlend mode="normal" in2="BackgroundImageFix" result="effect1_dropShadow_193_5110"/>
<feBlend mode="normal" in="SourceGraphic" in2="effect1_dropShadow_193_5110" result="shape"/>
</filter>
<linearGradient id="paint0_linear_193_5110" x1="20.459" y1="19.3091" x2="35.8773" y2="34.6589" gradientUnits="userSpaceOnUse">
<stop stop-color="#387EB8"/>
<stop offset="1" stop-color="#366994"/>
</linearGradient>
<linearGradient id="paint1_linear_193_5110" x1="29.9753" y1="29.1107" x2="46.5371" y2="44.8545" gradientUnits="userSpaceOnUse">
<stop stop-color="#FFE052"/>
<stop offset="1" stop-color="#FFC331"/>
</linearGradient>
</defs>
</svg>
