<svg width="64" height="64" viewBox="0 0 64 64" fill="none" xmlns="http://www.w3.org/2000/svg">
<g filter="url(#filter0_d_193_4728)">
<rect x="4" y="4" width="56" height="56" rx="16" fill="white" shape-rendering="crispEdges"/>
<path d="M40.3699 36.0471V37.4694H42.9396C43.4661 37.4694 44.3698 37.0844 44.4013 36.0078V35.4577C44.4013 34.5383 43.6469 33.9961 42.9396 33.9961H41.6587V33.336H44.1969V31.9057H41.7609C41.1322 31.9057 40.2914 32.4244 40.2914 33.391V33.886C40.2914 34.8526 41.1243 35.3477 41.7609 35.3477C43.529 35.3556 41.3365 35.3477 42.971 35.3477V36.0392L40.3699 36.0471ZM26.6021 35.7013C26.6021 35.7013 27.9774 35.5834 27.9774 33.8075C27.9774 32.0315 26.3114 31.8665 26.3114 31.8665H23.3095V37.4694H24.8183V36.1178L26.1228 37.4694H28.3546L26.6021 35.7013ZM26.0206 34.554H24.8183V33.2731H26.0285C26.0285 33.2731 26.3664 33.3988 26.3664 33.9096C26.3664 34.4204 26.0206 34.554 26.0206 34.554ZM31.7022 31.9057H30.1698C29.0775 31.9057 28.7082 32.8959 28.7082 33.3674V37.4694H30.2406V36.4872H31.6786V37.4694H33.1638V33.3674C33.1638 32.1729 32.0794 31.9057 31.7022 31.9057ZM31.6786 34.8998H30.2327V33.5403C30.2327 33.5403 30.2327 33.2338 30.7121 33.2338H31.2386C31.6629 33.2338 31.6708 33.5403 31.6708 33.5403V34.8998H31.6786ZM33.8632 31.9057H35.4585V37.4694H33.8632V31.9057ZM37.6981 36.0314V31.9057H36.1107V37.4694H39.8434V36.0314H37.6981Z" fill="#CC0000"/>
<path d="M13.8402 37.4694H20.0483C20.0483 37.4694 18.8617 32.055 22.7908 29.8625C23.6474 29.446 26.3742 27.8901 30.8378 31.1906C30.9792 31.0727 31.1128 30.9784 31.1128 30.9784C31.1128 30.9784 27.0265 26.8999 22.4765 27.3557C20.1897 27.56 17.3765 29.6425 15.7262 32.3929C14.076 35.1433 13.8402 37.4694 13.8402 37.4694Z" fill="#CC0000"/>
<path d="M13.8402 37.4694H20.0483C20.0483 37.4694 18.8617 32.055 22.7908 29.8625C23.6474 29.446 26.3742 27.8901 30.8378 31.1906C30.9792 31.0727 31.1128 30.9784 31.1128 30.9784C31.1128 30.9784 27.0265 26.8999 22.4765 27.3557C20.1897 27.56 17.3765 29.6425 15.7262 32.3929C14.076 35.1433 13.8402 37.4694 13.8402 37.4694Z" fill="#CC0000"/>
<path d="M13.8402 37.4694H20.0483C20.0483 37.4694 18.8617 32.055 22.7908 29.8626C23.6474 29.4461 26.3742 27.8901 30.8378 31.1906C30.9792 31.0727 31.1128 30.9784 31.1128 30.9784C31.1128 30.9784 27.0265 26.9 22.4765 27.3557C20.1819 27.5601 17.3686 29.6425 15.7183 32.3929C14.0681 35.1433 13.8402 37.4694 13.8402 37.4694ZM26.775 27.7958L26.8064 27.2693C26.7357 27.23 26.5393 27.1357 26.0442 26.9943L26.0128 27.5129C26.2721 27.5994 26.5235 27.6937 26.775 27.7958Z" fill="#CC0000"/>
<path d="M26.0285 29.4618L25.997 29.9569C26.2564 29.9647 26.5157 29.9962 26.775 30.0512L26.8065 29.564C26.5393 29.5089 26.2799 29.4775 26.0285 29.4618ZM23.1209 27.01H23.1995L23.0423 26.5306C22.7987 26.5306 22.5472 26.5464 22.2879 26.5778L22.4372 27.0414C22.6651 27.0179 22.893 27.01 23.1209 27.01ZM23.4981 29.9019L23.6788 30.4441C23.9067 30.3341 24.1346 30.2398 24.3625 30.169L24.1896 29.6504C23.9224 29.729 23.6946 29.8154 23.4981 29.9019ZM19.9304 27.8351L19.5768 27.2929C19.3803 27.3951 19.176 27.5051 18.9638 27.6308L19.3253 28.1809C19.5296 28.0552 19.7261 27.9373 19.9304 27.8351ZM21.5414 31.3714L21.9186 31.9372C22.0522 31.7407 22.2093 31.56 22.3822 31.3792L22.0286 30.8449C21.8478 31.0099 21.6828 31.1906 21.5414 31.3714ZM20.4019 33.9018L21.0384 34.4047C21.0699 34.0982 21.1249 33.7917 21.2035 33.4853L20.6377 33.0373C20.5355 33.3281 20.4648 33.6189 20.4019 33.9018ZM16.96 30.169L16.402 29.6818C16.1977 29.8783 16.0013 30.0747 15.8205 30.2712L16.4256 30.7899C16.5906 30.5777 16.7714 30.3655 16.96 30.169ZM14.5868 33.6817L13.683 33.3517C13.5337 33.6896 13.3687 34.0825 13.2901 34.2947L14.1938 34.6247C14.296 34.3575 14.461 33.9725 14.5868 33.6817ZM20.284 35.8978C20.2998 36.3143 20.339 36.6522 20.3783 36.8879L21.3213 37.2258C21.2506 36.9193 21.1799 36.5736 21.1327 36.2042L20.284 35.8978Z" fill="#CC0000"/>
</g>
<defs>
<filter id="filter0_d_193_4728" x="0" y="0" width="64" height="64" filterUnits="userSpaceOnUse" color-interpolation-filters="sRGB">
<feFlood flood-opacity="0" result="BackgroundImageFix"/>
<feColorMatrix in="SourceAlpha" type="matrix" values="0 0 0 0 0 0 0 0 0 0 0 0 0 0 0 0 0 0 127 0" result="hardAlpha"/>
<feOffset/>
<feGaussianBlur stdDeviation="2"/>
<feComposite in2="hardAlpha" operator="out"/>
<feColorMatrix type="matrix" values="0 0 0 0 0 0 0 0 0 0 0 0 0 0 0 0 0 0 0.1 0"/>
<feBlend mode="normal" in2="BackgroundImageFix" result="effect1_dropShadow_193_4728"/>
<feBlend mode="normal" in="SourceGraphic" in2="effect1_dropShadow_193_4728" result="shape"/>
</filter>
</defs>
</svg>
