<svg width="65" height="64" viewBox="0 0 65 64" fill="none" xmlns="http://www.w3.org/2000/svg">
<g filter="url(#filter0_d_193_160)">
<rect x="4.25146" y="4" width="56.3129" height="56" rx="16" fill="white" shape-rendering="crispEdges"/>
<path d="M32.4079 34.7429C33.9312 34.7429 35.1661 33.5149 35.1661 32C35.1661 30.4852 33.9312 29.2572 32.4079 29.2572C30.8846 29.2572 29.6498 30.4852 29.6498 32C29.6498 33.5149 30.8846 34.7429 32.4079 34.7429Z" fill="#61DAFB"/>
<path fill-rule="evenodd" clip-rule="evenodd" d="M19.4391 30.5568C18.8136 31.1183 18.608 31.6079 18.608 32C18.608 32.3922 18.8136 32.8817 19.4391 33.4432C20.0641 34.0043 21.0251 34.5554 22.2978 35.0387C24.8362 36.0025 28.4104 36.6195 32.4079 36.6195C36.4054 36.6195 39.9795 36.0025 42.518 35.0387C43.7907 34.5554 44.7516 34.0043 45.3766 33.4432C46.0021 32.8817 46.2077 32.3922 46.2077 32C46.2077 31.6079 46.0021 31.1183 45.3766 30.5568C44.7516 29.9957 43.7907 29.4446 42.518 28.9613C39.9795 27.9975 36.4054 27.3806 32.4079 27.3806C28.4104 27.3806 24.8362 27.9975 22.2978 28.9613C21.0251 29.4446 20.0641 29.9957 19.4391 30.5568ZM21.5878 27.0916C24.4059 26.0216 28.2316 25.3806 32.4079 25.3806C36.5841 25.3806 40.4098 26.0216 43.2279 27.0916C44.6334 27.6252 45.8399 28.285 46.7127 29.0685C47.585 29.8516 48.2077 30.8404 48.2077 32C48.2077 33.1596 47.585 34.1484 46.7127 34.9315C45.8399 35.715 44.6334 36.3748 43.2279 36.9084C40.4098 37.9784 36.5841 38.6195 32.4079 38.6195C28.2316 38.6195 24.4059 37.9784 21.5878 36.9084C20.1823 36.3748 18.9758 35.715 18.1031 34.9315C17.2307 34.1484 16.608 33.1596 16.608 32C16.608 30.8404 17.2307 29.8516 18.1031 29.0685C18.9758 28.285 20.1823 27.6252 21.5878 27.0916Z" fill="#61DAFB"/>
<path fill-rule="evenodd" clip-rule="evenodd" d="M27.1884 20.1117C26.3877 19.8541 25.8558 19.9205 25.51 20.119C25.1643 20.3175 24.8405 20.7424 24.6645 21.5607C24.4884 22.3792 24.4889 23.4815 24.7043 24.8184C25.1339 27.4849 26.3832 30.8702 28.3813 34.3118C30.3794 37.7535 32.7029 40.522 34.8103 42.2252C35.8669 43.0791 36.8266 43.6307 37.6273 43.8884C38.428 44.146 38.9599 44.0795 39.3057 43.881C39.6514 43.6825 39.9752 43.2577 40.1512 42.4393C40.3273 41.6208 40.3268 40.5185 40.1114 39.1817C39.6818 36.5151 38.4325 33.1298 36.4344 29.6882C34.4363 26.2465 32.1128 23.478 30.0054 21.7748C28.9489 20.9209 27.9891 20.3693 27.1884 20.1117ZM31.2661 20.2263C33.6081 22.1193 36.0801 25.0947 38.1689 28.6924C40.2576 32.29 41.6128 35.9067 42.0902 38.8701C42.3284 40.3483 42.357 41.718 42.111 42.8618C41.865 44.0057 41.3155 45.0333 40.3099 45.6106C39.3042 46.188 38.1346 46.1474 37.0154 45.7874C35.8963 45.4274 34.7178 44.7178 33.5496 43.7737C31.2076 41.8808 28.7356 38.9053 26.6468 35.3076C24.5581 31.71 23.2029 28.0933 22.7255 25.1299C22.4873 23.6517 22.4587 22.282 22.7047 21.1382C22.9507 19.9944 23.5002 18.9667 24.5058 18.3894C25.5115 17.812 26.6811 17.8526 27.8003 18.2126C28.9194 18.5727 30.0979 19.2822 31.2661 20.2263Z" fill="#61DAFB"/>
<path fill-rule="evenodd" clip-rule="evenodd" d="M40.1513 21.5608C39.9753 20.7424 39.6515 20.3175 39.3057 20.119C38.96 19.9205 38.4281 19.8541 37.6274 20.1117C36.8266 20.3693 35.8669 20.9209 34.8104 21.7748C32.703 23.4781 30.3795 26.2466 28.3814 29.6882C26.3832 33.1299 25.134 36.5151 24.7044 39.1817C24.489 40.5185 24.4885 41.6209 24.6645 42.4393C24.8405 43.2577 25.1643 43.6825 25.5101 43.881C25.8558 44.0796 26.3877 44.146 27.1884 43.8884C27.9892 43.6308 28.9489 43.0792 30.0054 42.2252C32.1128 40.522 34.4363 37.7535 36.4345 34.3118C38.4326 30.8702 39.6818 27.4849 40.1114 24.8184C40.3268 23.4815 40.3273 22.3792 40.1513 21.5608ZM42.0903 25.1299C41.6128 28.0934 40.2576 31.71 38.1689 35.3077C36.0802 38.9053 33.6082 41.8808 31.2662 43.7737C30.098 44.7179 28.9195 45.4274 27.8004 45.7874C26.6812 46.1475 25.5115 46.188 24.5059 45.6107C23.5003 45.0333 22.9508 44.0057 22.7048 42.8618C22.4587 41.718 22.4874 40.3483 22.7255 38.8701C23.203 35.9067 24.5582 32.2901 26.6469 28.6924C28.7356 25.0947 31.2076 22.1193 33.5497 20.2264C34.7179 19.2822 35.8963 18.5727 37.0155 18.2126C38.1346 17.8526 39.3043 17.812 40.3099 18.3894C41.3155 18.9668 41.865 19.9944 42.1111 21.1382C42.3571 22.2821 42.3284 23.6518 42.0903 25.1299Z" fill="#61DAFB"/>
</g>
<defs>
<filter id="filter0_d_193_160" x="0.251465" y="0" width="64.3129" height="64" filterUnits="userSpaceOnUse" color-interpolation-filters="sRGB">
<feFlood flood-opacity="0" result="BackgroundImageFix"/>
<feColorMatrix in="SourceAlpha" type="matrix" values="0 0 0 0 0 0 0 0 0 0 0 0 0 0 0 0 0 0 127 0" result="hardAlpha"/>
<feOffset/>
<feGaussianBlur stdDeviation="2"/>
<feComposite in2="hardAlpha" operator="out"/>
<feColorMatrix type="matrix" values="0 0 0 0 0 0 0 0 0 0 0 0 0 0 0 0 0 0 0.1 0"/>
<feBlend mode="normal" in2="BackgroundImageFix" result="effect1_dropShadow_193_160"/>
<feBlend mode="normal" in="SourceGraphic" in2="effect1_dropShadow_193_160" result="shape"/>
</filter>
</defs>
</svg>
