<svg width="64" height="64" viewBox="0 0 64 64" fill="none" xmlns="http://www.w3.org/2000/svg">
<g filter="url(#filter0_d_193_4692)">
<rect x="4" y="4" width="56" height="56" rx="16" fill="white" shape-rendering="crispEdges"/>
<path d="M46.3366 39.178C44.6763 40.0434 36.0756 43.5798 34.2445 44.5344C32.4135 45.4891 31.3963 45.4799 29.9497 44.7884C28.5033 44.0969 19.3506 40.3998 17.7018 39.6117C16.8778 39.2179 16.4445 38.8854 16.4445 38.5714V35.4267C16.4445 35.4267 28.3603 32.8327 30.2839 32.1426C32.2075 31.4524 32.8749 31.4275 34.5119 32.0271C36.1491 32.627 45.9377 34.393 47.5556 34.9856L47.5548 38.0858C47.5551 38.3966 47.1817 38.7376 46.3366 39.178Z" fill="#912626"/>
<path d="M46.336 36.052C44.6758 36.917 36.0753 40.4535 34.2442 41.4079C32.4133 42.3628 31.3961 42.3534 29.9497 41.6619C28.5031 40.9709 19.3508 37.2732 17.7021 36.4856C16.0535 35.6975 16.019 35.1551 17.6384 34.521C19.2579 33.8866 28.3601 30.3155 30.284 29.6253C32.2076 28.9354 32.8749 28.9103 34.5118 29.5101C36.1489 30.1098 44.6982 33.5126 46.3158 34.1051C47.9341 34.6983 47.9962 35.1867 46.336 36.052Z" fill="#C6302B"/>
<path d="M46.3366 34.0898C44.6763 34.9554 36.0756 38.4916 34.2445 39.4465C32.4135 40.4009 31.3963 40.3917 29.9497 39.7002C28.5032 39.009 19.3506 35.3116 17.7018 34.5234C16.8778 34.1297 16.4445 33.7977 16.4445 33.4835V30.3385C16.4445 30.3385 28.3603 27.7446 30.2839 27.0545C32.2075 26.3643 32.8749 26.3393 34.5119 26.939C36.1492 27.5388 45.9378 29.3044 47.5556 29.8971L47.5548 32.9977C47.5551 33.3084 47.1817 33.6494 46.3366 34.0898Z" fill="#912626"/>
<path d="M46.336 30.9638C44.6758 31.8291 36.0753 35.3653 34.2442 36.3201C32.4133 37.2746 31.3961 37.2652 29.9497 36.5737C28.5031 35.8827 19.3508 32.1851 17.7021 31.3974C16.0535 30.6095 16.019 30.067 17.6384 29.4327C19.2579 28.7986 28.3602 25.2273 30.284 24.5373C32.2076 23.8472 32.8749 23.8222 34.5118 24.4219C36.1489 25.0216 44.6982 28.4242 46.3158 29.0169C47.9341 29.61 47.9962 30.0985 46.336 30.9638Z" fill="#C6302B"/>
<path d="M46.3366 28.813C44.6763 29.6783 36.0756 33.2147 34.2445 34.1697C32.4135 35.1242 31.3963 35.1148 29.9497 34.4233C28.5032 33.7322 19.3506 30.0346 17.7018 29.2468C16.8778 28.8527 16.4445 28.5206 16.4445 28.2068V25.0617C16.4445 25.0617 28.3603 22.4679 30.2839 21.7779C32.2075 21.0876 32.8749 21.0628 34.5119 21.6624C36.1492 22.2621 45.9378 24.0278 47.5556 24.6205L47.5548 27.7209C47.5551 28.0314 47.1817 28.3724 46.3366 28.813Z" fill="#912626"/>
<path d="M46.336 25.6869C44.6758 26.5522 36.0753 30.0886 34.2442 31.0431C32.4133 31.9976 31.3961 31.9882 29.9497 31.2971C28.5033 30.6056 19.3508 26.9083 17.7022 26.1204C16.0535 25.3327 16.0191 24.79 17.6384 24.1558C19.2579 23.5216 28.3602 19.9508 30.284 19.2605C32.2076 18.5704 32.8749 18.5456 34.5118 19.1453C36.1489 19.745 44.6982 23.1477 46.3158 23.7404C47.9341 24.333 47.9962 24.8216 46.336 25.6869Z" fill="#C6302B"/>
<path d="M35.8018 22.6277L33.127 22.9054L32.5282 24.3462L31.5611 22.7384L28.4724 22.4608L30.7771 21.6297L30.0856 20.3539L32.2433 21.1978L34.2775 20.5318L33.7277 21.851L35.8018 22.6277ZM32.3685 29.6177L27.3765 27.5472L34.5296 26.4492L32.3685 29.6177ZM25.4475 23.4285C27.559 23.4285 29.2707 24.0921 29.2707 24.9104C29.2707 25.729 27.559 26.3925 25.4475 26.3925C23.3359 26.3925 21.6242 25.7289 21.6242 24.9104C21.6242 24.0921 23.3359 23.4285 25.4475 23.4285Z" fill="white"/>
<path d="M38.963 23.0216L43.1965 24.6946L38.9666 26.3659L38.963 23.0215" fill="#621B1C"/>
<path d="M34.2793 24.8743L38.963 23.0216L38.9666 26.3659L38.5074 26.5456L34.2793 24.8743Z" fill="#9A2928"/>
</g>
<defs>
<filter id="filter0_d_193_4692" x="0" y="0" width="64" height="64" filterUnits="userSpaceOnUse" color-interpolation-filters="sRGB">
<feFlood flood-opacity="0" result="BackgroundImageFix"/>
<feColorMatrix in="SourceAlpha" type="matrix" values="0 0 0 0 0 0 0 0 0 0 0 0 0 0 0 0 0 0 127 0" result="hardAlpha"/>
<feOffset/>
<feGaussianBlur stdDeviation="2"/>
<feComposite in2="hardAlpha" operator="out"/>
<feColorMatrix type="matrix" values="0 0 0 0 0 0 0 0 0 0 0 0 0 0 0 0 0 0 0.1 0"/>
<feBlend mode="normal" in2="BackgroundImageFix" result="effect1_dropShadow_193_4692"/>
<feBlend mode="normal" in="SourceGraphic" in2="effect1_dropShadow_193_4692" result="shape"/>
</filter>
</defs>
</svg>
