<svg width="64" height="64" viewBox="0 0 64 64" fill="none" xmlns="http://www.w3.org/2000/svg">
<g filter="url(#filter0_d_193_5130)">
<rect x="4" y="4" width="56" height="56" rx="16" fill="white" shape-rendering="crispEdges"/>
<path d="M38.0011 37.8596C39.1492 37.7407 40.0202 36.751 39.9806 35.5632C39.9411 34.3755 38.9512 33.4253 37.7635 33.4253H37.6844C36.457 33.4649 35.5069 34.4942 35.5465 35.7215C35.5861 36.3154 35.8236 36.8301 36.1799 37.1864C34.8339 39.8391 32.7752 41.7791 29.6872 43.4023C27.5889 44.5109 25.4115 44.9068 23.234 44.6298C21.4524 44.3922 20.0668 43.6004 19.1957 42.2938C17.9289 40.3538 17.8101 38.2554 18.8791 36.1571C19.6313 34.6526 20.8189 33.544 21.5712 32.9897C21.4128 32.475 21.1752 31.6041 21.0565 30.9706C15.3159 35.1278 15.9098 40.7497 17.6518 43.4023C18.9582 45.382 21.6108 46.6093 24.5405 46.6093C25.3322 46.6093 26.124 46.5301 26.9158 46.3322C31.9834 45.3424 35.8237 42.3334 38.0011 37.8596ZM44.9691 32.9502C41.9602 29.4265 37.5261 27.4866 32.4585 27.4866H31.8251C31.4688 26.7739 30.7165 26.2988 29.8851 26.2988H29.8059C28.5787 26.3384 27.6286 27.3677 27.6681 28.5951C27.7077 29.7828 28.6974 30.7331 29.8851 30.7331H29.9643C30.8352 30.6934 31.5875 30.1392 31.9042 29.3869H32.6168C35.6258 29.3869 38.4762 30.2579 41.0497 31.9604C43.0291 33.2669 44.4544 34.9694 45.2461 37.0281C45.9192 38.6909 45.8795 40.3142 45.1669 41.7C44.0585 43.7983 42.1977 44.9465 39.7431 44.9465C38.1595 44.9465 36.6551 44.4713 35.8632 44.115C35.4278 44.5109 34.6359 45.1443 34.0816 45.5404C35.7841 46.3321 37.5261 46.7677 39.1888 46.7677C42.9895 46.7677 45.8004 44.6693 46.8694 42.571C48.0175 40.2746 47.9382 36.3154 44.9691 32.9502ZM24.8572 38.5325C24.8968 39.7203 25.8865 40.6704 27.0742 40.6704H27.1534C28.3807 40.6309 29.3308 39.6014 29.2912 38.3741C29.2517 37.1863 28.2619 36.2362 27.0742 36.2362H26.9951C26.9158 36.2362 26.797 36.2362 26.718 36.2757C25.0948 33.5835 24.4217 30.6538 24.6593 27.4864C24.8175 25.1109 25.6094 23.0521 26.9951 21.3497C28.1432 19.8848 30.3602 19.1721 31.8647 19.1326C36.0612 19.0534 37.8427 24.2795 37.9615 26.3779C38.4762 26.4966 39.3472 26.7738 39.9411 26.9718C39.4659 20.558 35.5069 17.2323 31.7064 17.2323C28.1432 17.2323 24.8572 19.8058 23.5506 23.6066C21.7295 28.6743 22.9172 33.544 25.1342 37.3844C24.9364 37.6615 24.8175 38.097 24.8572 38.5326V38.5325Z" fill="#764ABC"/>
</g>
<defs>
<filter id="filter0_d_193_5130" x="0" y="0" width="64" height="64" filterUnits="userSpaceOnUse" color-interpolation-filters="sRGB">
<feFlood flood-opacity="0" result="BackgroundImageFix"/>
<feColorMatrix in="SourceAlpha" type="matrix" values="0 0 0 0 0 0 0 0 0 0 0 0 0 0 0 0 0 0 127 0" result="hardAlpha"/>
<feOffset/>
<feGaussianBlur stdDeviation="2"/>
<feComposite in2="hardAlpha" operator="out"/>
<feColorMatrix type="matrix" values="0 0 0 0 0 0 0 0 0 0 0 0 0 0 0 0 0 0 0.1 0"/>
<feBlend mode="normal" in2="BackgroundImageFix" result="effect1_dropShadow_193_5130"/>
<feBlend mode="normal" in="SourceGraphic" in2="effect1_dropShadow_193_5130" result="shape"/>
</filter>
</defs>
</svg>
