<svg width="65" height="64" viewBox="0 0 65 64" fill="none" xmlns="http://www.w3.org/2000/svg">
<g filter="url(#filter0_d_193_4908)">
<rect x="4.62573" y="4" width="56.3129" height="56" rx="16" fill="white" shape-rendering="crispEdges"/>
<path d="M48.2108 31.6184L46.8975 30.8099C46.8864 30.683 46.8739 30.5562 46.8601 30.4295L47.9888 29.3825C48.0452 29.3304 48.0873 29.2647 48.1109 29.1918C48.1346 29.1189 48.139 29.0412 48.1238 28.9661C48.109 28.8909 48.075 28.8208 48.0252 28.7624C47.9753 28.704 47.9112 28.6593 47.8391 28.6326L46.3962 28.096C46.3599 27.9721 46.3223 27.8487 46.2831 27.7256L47.1832 26.4825C47.2283 26.4204 47.2566 26.3478 47.2656 26.2717C47.2745 26.1956 47.2637 26.1185 47.2342 26.0477C47.2048 25.9769 47.1576 25.9147 47.0972 25.8672C47.0367 25.8196 46.9651 25.7882 46.889 25.776L45.3676 25.5299C45.3084 25.4151 45.2468 25.3021 45.1847 25.1901L45.824 23.7946C45.8562 23.7249 45.8699 23.6482 45.8637 23.5719C45.8575 23.4955 45.8317 23.4219 45.7888 23.3583C45.7462 23.2944 45.6878 23.2426 45.6193 23.2076C45.5507 23.1727 45.4742 23.1558 45.3973 23.1587L43.8531 23.2122C43.7733 23.1129 43.692 23.0148 43.6091 22.918L43.964 21.4222C43.9818 21.3476 43.98 21.2697 43.9589 21.196C43.9378 21.1223 43.8981 21.0551 43.8435 21.001C43.7891 20.9468 43.7216 20.9074 43.6475 20.8864C43.5734 20.8654 43.4952 20.8636 43.4202 20.8812L41.9164 21.2337C41.8188 21.1514 41.72 21.0706 41.62 20.9912L41.674 19.4557C41.6769 19.3791 41.66 19.3031 41.6249 19.2349C41.5898 19.1667 41.5377 19.1086 41.4736 19.0662C41.4095 19.0235 41.3356 18.9979 41.2588 18.9917C41.182 18.9856 41.1049 18.9991 41.0348 19.0309L39.6319 19.667C39.5187 19.6049 39.4048 19.5441 39.2902 19.4847L39.0421 17.9714C39.0297 17.8959 38.9981 17.8247 38.9503 17.7647C38.9025 17.7047 38.84 17.6578 38.7689 17.6285C38.6978 17.5992 38.6203 17.5885 38.5438 17.5973C38.4673 17.6061 38.3944 17.6342 38.3319 17.6789L37.081 18.574C36.9579 18.5351 36.8341 18.4975 36.7092 18.4619L36.1697 17.0268C36.1428 16.9549 36.0979 16.8911 36.0392 16.8414C35.9804 16.7917 35.9099 16.7578 35.8342 16.7429C35.7587 16.7281 35.6807 16.7327 35.6075 16.7562C35.5343 16.7798 35.4683 16.8214 35.4158 16.8773L34.363 18.0006C34.2357 17.9864 34.1081 17.974 33.9805 17.9634L33.1674 16.657C33.1269 16.5919 33.0703 16.5382 33.0031 16.5009C32.9358 16.4636 32.8601 16.4441 32.7831 16.4441C32.7062 16.4441 32.6304 16.4636 32.5632 16.5009C32.4959 16.5382 32.4394 16.5919 32.3989 16.657L31.5858 17.9634C31.458 17.974 31.3304 17.9864 31.203 18.0006L30.1499 16.8773C30.0974 16.8212 30.0314 16.7794 29.958 16.7559C29.8847 16.7323 29.8066 16.7278 29.731 16.7428C29.6554 16.7578 29.585 16.7918 29.5263 16.8415C29.4677 16.8912 29.4228 16.955 29.396 17.0268L28.8566 18.4619C28.7316 18.4975 28.6079 18.5353 28.4845 18.574L27.2338 17.6789C27.1713 17.634 27.0983 17.6058 27.0217 17.597C26.9451 17.5881 26.8676 17.599 26.7964 17.6285C26.7253 17.6579 26.6629 17.7048 26.6152 17.7648C26.5674 17.8248 26.5357 17.8959 26.5233 17.9714L26.2752 19.4847C26.1603 19.5439 26.0468 19.6048 25.9335 19.667L24.5305 19.0308C24.4604 18.9989 24.3834 18.9854 24.3066 18.9916C24.2298 18.9978 24.1559 19.0235 24.092 19.0662C24.0278 19.1086 23.9757 19.1667 23.9405 19.2349C23.9054 19.3031 23.8885 19.3791 23.8913 19.4557L23.9451 20.9912C23.8452 21.0707 23.7464 21.1516 23.6486 21.2337L22.1449 20.8813C22.0699 20.8638 21.9916 20.8656 21.9175 20.8866C21.8434 20.9075 21.7759 20.9469 21.7213 21.001C21.6667 21.0551 21.627 21.1223 21.6059 21.196C21.5848 21.2697 21.5831 21.3476 21.6008 21.4222L21.9551 22.918C21.8728 23.0148 21.7916 23.1129 21.7118 23.2122L20.1676 23.1587C20.0907 23.1563 20.0144 23.1734 19.9459 23.2082C19.8774 23.2431 19.819 23.2947 19.776 23.3582C19.7332 23.4218 19.7074 23.4953 19.7012 23.5717C19.695 23.6481 19.7085 23.7247 19.7405 23.7944L20.3801 25.1901C20.3179 25.3021 20.2564 25.4151 20.1968 25.5299L18.6754 25.776C18.5994 25.7883 18.5278 25.8197 18.4674 25.8673C18.407 25.9149 18.3599 25.977 18.3304 26.0477C18.3009 26.1185 18.2902 26.1956 18.2991 26.2717C18.308 26.3478 18.3363 26.4204 18.3813 26.4825L19.2813 27.7257C19.2422 27.8485 19.2042 27.9717 19.1683 28.096L17.7253 28.6326C17.6532 28.6595 17.5892 28.7043 17.5394 28.7626C17.4896 28.821 17.4556 28.8911 17.4406 28.9661C17.4256 29.0412 17.4302 29.1189 17.4538 29.1918C17.4774 29.2646 17.5193 29.3303 17.5756 29.3825L18.7044 30.4294C18.6903 30.5558 18.6779 30.683 18.6671 30.8099L17.3535 31.6184C17.2881 31.6587 17.2341 31.715 17.1966 31.7819C17.1592 31.8488 17.1396 31.9241 17.1396 32.0006C17.1396 32.1567 17.2207 32.3012 17.3536 32.3826L18.6671 33.1911C18.6779 33.3183 18.6903 33.4453 18.7044 33.5716L17.5754 34.6188C17.5191 34.671 17.4771 34.7366 17.4534 34.8095C17.4297 34.8824 17.4252 34.9601 17.4402 35.0352C17.4552 35.1103 17.4893 35.1804 17.5392 35.2387C17.5891 35.297 17.6531 35.3417 17.7253 35.3685L19.1683 35.9051C19.2042 36.0293 19.2422 36.1526 19.2813 36.2754L18.3813 37.5187C18.3362 37.5809 18.3078 37.6534 18.2989 37.7296C18.29 37.8057 18.3008 37.8828 18.3303 37.9536C18.3598 38.0244 18.4071 38.0865 18.4675 38.134C18.528 38.1815 18.5997 38.2129 18.6758 38.225L20.1969 38.4711C20.2564 38.5858 20.3174 38.6989 20.3802 38.8114L19.7405 40.2065C19.7084 40.2762 19.6949 40.3529 19.7011 40.4293C19.7073 40.5057 19.7331 40.5792 19.776 40.6428C19.8187 40.7066 19.8771 40.7584 19.9456 40.7933C20.0142 40.8282 20.0906 40.8451 20.1676 40.8422L21.711 40.7885C21.7916 40.8883 21.8726 40.9861 21.9551 41.0834L21.6008 42.5794C21.5831 42.6538 21.5848 42.7316 21.6059 42.8052C21.627 42.8788 21.6667 42.9458 21.7213 42.9997C21.7757 43.0541 21.8432 43.0936 21.9174 43.1145C21.9916 43.1354 22.0699 43.137 22.1449 43.1192L23.6486 42.767C23.7464 42.8496 23.8454 42.9299 23.9452 43.0088L23.8914 44.5448C23.8887 44.6214 23.9056 44.6973 23.9407 44.7655C23.9758 44.8337 24.0278 44.8918 24.0919 44.9343C24.1559 44.9769 24.2298 45.0024 24.3066 45.0085C24.3834 45.0146 24.4604 45.0011 24.5305 44.9692L25.9335 44.3335C26.0465 44.3959 26.1604 44.4567 26.2752 44.5157L26.5233 46.0281C26.5355 46.1037 26.5671 46.175 26.6149 46.2351C26.6627 46.2952 26.7252 46.3421 26.7964 46.3714C26.8676 46.4007 26.9451 46.4115 27.0217 46.4027C27.0982 46.3939 27.1712 46.3659 27.2338 46.3212L28.4839 45.4256C28.6073 45.4644 28.7313 45.5025 28.8562 45.5382L29.3958 46.9727C29.4226 47.0445 29.4676 47.1083 29.5263 47.1579C29.585 47.2075 29.6555 47.2412 29.7311 47.256C29.8066 47.2711 29.8847 47.2667 29.958 47.2432C30.0313 47.2197 30.0973 47.1778 30.1497 47.1216L31.2027 45.9989C31.3298 46.0135 31.4576 46.0257 31.5856 46.037L32.3986 47.3431C32.4392 47.4081 32.4957 47.4618 32.5629 47.499C32.6302 47.5362 32.7058 47.5558 32.7827 47.5558C32.8597 47.5558 32.9354 47.5362 33.0026 47.499C33.0699 47.4618 33.1265 47.4082 33.1671 47.3431L33.9801 46.037C34.108 46.0257 34.2358 46.0135 34.3627 45.9989L35.4155 47.1216C35.4679 47.1777 35.5338 47.2196 35.6071 47.2431C35.6804 47.2667 35.7585 47.2711 35.834 47.256C35.9095 47.2412 35.98 47.2074 36.0387 47.1578C36.0974 47.1082 36.1424 47.0445 36.1693 46.9727L36.7089 45.5382C36.8337 45.5025 36.9579 45.4644 37.0813 45.4256L38.3316 46.3212C38.3942 46.3659 38.4672 46.394 38.5437 46.4028C38.6202 46.4116 38.6977 46.4008 38.7689 46.3714C38.84 46.3421 38.9025 46.2951 38.9502 46.235C38.998 46.1749 39.0296 46.1037 39.0419 46.0281L39.29 44.5157C39.4047 44.4565 39.5183 44.395 39.6315 44.3334L41.0346 44.9692C41.1046 45.0012 41.1817 45.0148 41.2585 45.0087C41.3353 45.0027 41.4093 44.9772 41.4734 44.9346C41.5375 44.8921 41.5895 44.8339 41.6246 44.7657C41.6597 44.6974 41.6766 44.6214 41.6737 44.5448L41.62 43.009C41.72 42.9299 41.8187 42.8492 41.9161 42.767L43.42 43.1192C43.5727 43.1549 43.7328 43.1107 43.8432 42.9997C43.8977 42.9458 43.9374 42.8788 43.9585 42.8052C43.9796 42.7316 43.9814 42.6538 43.9636 42.5794L43.6095 41.0834C43.692 40.9861 43.7733 40.8883 43.8527 40.7885L45.3969 40.8422C45.4739 40.8451 45.5503 40.8283 45.6188 40.7934C45.6874 40.7585 45.7458 40.7067 45.7884 40.6429C45.8314 40.5793 45.8572 40.5057 45.8634 40.4293C45.8696 40.3528 45.8559 40.2761 45.8238 40.2064L45.1844 38.8115C45.2468 38.6989 45.3082 38.5858 45.3673 38.4712L46.8888 38.225C46.9649 38.2129 47.0365 38.1815 47.0969 38.1339C47.1573 38.0864 47.2044 38.0242 47.2337 37.9533C47.2632 37.8826 47.274 37.8055 47.2651 37.7294C47.2562 37.6534 47.2279 37.5808 47.1829 37.5187L46.2829 36.2755C46.3218 36.1526 46.3598 36.0293 46.3959 35.9051L47.8387 35.3685C47.9109 35.3418 47.975 35.2971 48.0249 35.2387C48.0748 35.1803 48.1088 35.1101 48.1236 35.0349C48.1388 34.9599 48.1343 34.8822 48.1107 34.8093C48.087 34.7364 48.0449 34.6708 47.9884 34.6188L46.8598 33.5716C46.8735 33.4452 46.8861 33.3181 46.8971 33.1912L48.2106 32.3826C48.2761 32.3424 48.3301 32.2861 48.3676 32.2193C48.405 32.1524 48.4246 32.0771 48.4246 32.0006C48.4246 31.8449 48.3439 31.7002 48.2108 31.6184ZM39.4202 42.4533C38.9187 42.3458 38.5998 41.8542 38.7074 41.3539C38.8147 40.8542 39.3087 40.5361 39.8101 40.6437C40.3116 40.7505 40.6311 41.2429 40.5235 41.7423C40.416 42.2418 39.9215 42.5602 39.4202 42.4533ZM38.974 39.4517C38.8651 39.4285 38.7528 39.4269 38.6433 39.4469C38.5338 39.4669 38.4294 39.5082 38.336 39.5684C38.2426 39.6285 38.162 39.7065 38.0989 39.7976C38.0358 39.8888 37.9914 39.9915 37.9682 40.0997L37.5019 42.2638C36.0629 42.9132 34.465 43.274 32.7821 43.274C31.0607 43.274 29.428 42.8953 27.9635 42.2182L27.4974 40.0543C27.3994 39.5989 26.9492 39.3088 26.4919 39.4065L24.5708 39.8168C24.2138 39.4514 23.8819 39.0624 23.5775 38.6526H32.9251C33.0308 38.6526 33.1013 38.6335 33.1013 38.5377V35.2495C33.1013 35.1539 33.0308 35.1348 32.925 35.1348H30.1913V33.0506H33.1481C33.4179 33.0506 34.5913 33.1272 34.9663 34.6186C35.0839 35.0772 35.3417 36.5691 35.5182 37.0467C35.6939 37.5824 36.4094 38.6524 37.172 38.6524H41.8299C41.8828 38.6524 41.9393 38.6465 41.9988 38.6358C41.6756 39.0723 41.3216 39.4853 40.9394 39.8717L38.9741 39.4517H38.974ZM26.0457 42.4081C25.544 42.5158 25.0502 42.1978 24.9423 41.698C24.835 41.1975 25.154 40.7061 25.6555 40.5986C26.1572 40.4919 26.6512 40.8099 26.7588 41.3095C26.8661 41.809 26.5469 42.3012 26.0456 42.4081H26.0457ZM22.4996 28.1092C22.7078 28.5761 22.496 29.1233 22.0271 29.3299C21.5582 29.5371 21.0093 29.3263 20.8013 28.859C20.5932 28.3917 20.8049 27.8455 21.2739 27.6383C21.3855 27.589 21.5057 27.5622 21.6277 27.5592C21.7497 27.5563 21.8711 27.5772 21.9849 27.621C22.0987 27.6647 22.2028 27.7303 22.2911 27.8141C22.3794 27.8978 22.4503 27.998 22.4996 28.109V28.1092ZM21.4098 30.6783L23.4111 29.7939C23.6165 29.703 23.7773 29.5348 23.858 29.3261C23.9388 29.1174 23.9329 28.8854 23.8417 28.681L23.4296 27.7542H25.0506V35.0201H21.7802C21.4903 34.0052 21.3436 32.9552 21.3444 31.9002C21.3444 31.4873 21.3668 31.0792 21.4098 30.6781V30.6783ZM30.1918 29.9726V27.8309H34.0518C34.2513 27.8309 35.4597 28.0601 35.4597 28.9586C35.4597 29.7047 34.5328 29.9722 33.7706 29.9722H30.1918V29.9726ZM44.2202 31.9002C44.2202 32.1844 44.2097 32.4656 44.1888 32.7446H43.0152C42.8978 32.7446 42.8505 32.8214 42.8505 32.9358V33.4717C42.8505 34.7332 42.1352 35.0076 41.5084 35.0775C40.9115 35.1443 40.2497 34.8289 40.1682 34.4657C39.816 32.4962 39.2292 32.0756 38.3027 31.3487C39.4526 30.6226 40.649 29.5513 40.649 28.1173C40.649 26.569 39.5817 25.5938 38.8541 25.1156C37.8334 24.4464 36.7032 24.3123 36.3983 24.3123H24.2617C25.9075 22.4857 28.138 21.1918 30.6607 20.721L32.0913 22.2134C32.168 22.2935 32.2599 22.3577 32.3617 22.4025C32.4634 22.4472 32.5731 22.4716 32.6843 22.4741C32.7955 22.4767 32.9062 22.4574 33.0099 22.4174C33.1136 22.3773 33.2084 22.3173 33.2888 22.2408L34.8894 20.7183C38.2434 21.3393 41.0831 23.4155 42.7196 26.264L41.6238 28.7253C41.4346 29.1513 41.6277 29.6494 42.0548 29.8381L44.1646 30.77C44.201 31.1425 44.2202 31.5188 44.2202 31.9002ZM32.0919 19.4514C32.4625 19.0984 33.0505 19.1123 33.4054 19.4814C33.7595 19.8516 33.7461 20.4369 33.3746 20.7897C33.0039 21.1428 32.416 21.1291 32.0611 20.7593C31.891 20.5817 31.7988 20.3442 31.8046 20.099C31.8103 19.8538 31.9137 19.6209 32.0919 19.4514ZM42.9662 28.154C43.0155 28.043 43.0863 27.9428 43.1746 27.8591C43.2629 27.7753 43.367 27.7097 43.4808 27.666C43.5946 27.6223 43.716 27.6013 43.838 27.6043C43.96 27.6073 44.0802 27.6342 44.1917 27.6835C44.6607 27.8903 44.8724 28.4373 44.6643 28.9042C44.615 29.0152 44.5442 29.1155 44.4558 29.1993C44.3675 29.2831 44.2635 29.3488 44.1496 29.3925C44.0358 29.4362 43.9144 29.4572 43.7923 29.4542C43.6703 29.4513 43.5501 29.4244 43.4385 29.3751C42.9701 29.1682 42.7584 28.6217 42.9662 28.154Z" fill="black"/>
</g>
<defs>
<filter id="filter0_d_193_4908" x="0.625732" y="0" width="64.3129" height="64" filterUnits="userSpaceOnUse" color-interpolation-filters="sRGB">
<feFlood flood-opacity="0" result="BackgroundImageFix"/>
<feColorMatrix in="SourceAlpha" type="matrix" values="0 0 0 0 0 0 0 0 0 0 0 0 0 0 0 0 0 0 127 0" result="hardAlpha"/>
<feOffset/>
<feGaussianBlur stdDeviation="2"/>
<feComposite in2="hardAlpha" operator="out"/>
<feColorMatrix type="matrix" values="0 0 0 0 0 0 0 0 0 0 0 0 0 0 0 0 0 0 0.1 0"/>
<feBlend mode="normal" in2="BackgroundImageFix" result="effect1_dropShadow_193_4908"/>
<feBlend mode="normal" in="SourceGraphic" in2="effect1_dropShadow_193_4908" result="shape"/>
</filter>
</defs>
</svg>
