<svg width="64" height="64" viewBox="0 0 64 64" fill="none" xmlns="http://www.w3.org/2000/svg">
<g filter="url(#filter0_d_193_4046)">
<rect x="4" y="4" width="56" height="56" rx="16" fill="white" shape-rendering="crispEdges"/>
<path d="M43.2336 33.7466C42.1482 33.7523 41.2049 34.0137 40.415 34.4001C40.1252 33.8262 39.8354 33.3148 39.7842 32.9397C39.7274 32.5022 39.6592 32.2351 39.7274 31.7123C39.7956 31.1895 40.1025 30.4451 40.0968 30.3882C40.0911 30.3314 40.0286 30.0643 39.4035 30.0587C38.7784 30.053 38.2386 30.178 38.1761 30.3428C38.1136 30.5076 37.9942 30.8826 37.9147 31.269C37.8067 31.8373 36.6645 33.866 36.011 34.9286C35.8008 34.5138 35.6189 34.1501 35.5791 33.8603C35.5223 33.4227 35.4541 33.1557 35.5223 32.6329C35.5905 32.1101 35.8974 31.3656 35.8917 31.3088C35.886 31.252 35.8235 30.9849 35.1984 30.9792C34.5733 30.9736 34.0335 31.0986 33.971 31.2634C33.9085 31.4282 33.8403 31.8146 33.7096 32.1896C33.5789 32.5647 32.0616 35.9515 31.6639 36.8266C31.4593 37.2755 31.2831 37.6335 31.1581 37.8779C31.1581 37.8779 31.1524 37.8949 31.1354 37.9233C31.0274 38.1336 30.9649 38.2472 30.9649 38.2472C30.9649 38.2472 30.9649 38.2472 30.9649 38.2529C30.8797 38.4063 30.7887 38.5484 30.7433 38.5484C30.7092 38.5484 30.6467 38.1393 30.7546 37.5824C30.9819 36.4061 31.5218 34.5763 31.5161 34.5138C31.5161 34.4797 31.6184 34.1615 31.1638 33.9967C30.7205 33.8319 30.5614 34.1046 30.5217 34.1046C30.4819 34.1046 30.4535 34.2012 30.4535 34.2012C30.4535 34.2012 30.9479 32.1442 29.5102 32.1442C28.6123 32.1442 27.3735 33.1272 26.7598 34.0137C26.3734 34.224 25.5494 34.6729 24.6686 35.1559C24.3333 35.3434 23.9867 35.531 23.6628 35.7071C23.6401 35.6844 23.6173 35.656 23.5946 35.6333C21.8557 33.7751 18.6394 32.4624 18.7758 29.9677C18.8269 29.0585 19.1395 26.6718 24.9527 23.7737C29.7375 21.4155 33.5448 22.069 34.204 23.518C35.1473 25.5865 32.1639 29.4279 27.2201 29.9848C25.3335 30.195 24.3447 29.4677 24.0947 29.1949C23.8333 28.9108 23.7935 28.8937 23.6969 28.9506C23.5378 29.0358 23.6401 29.2915 23.6969 29.4393C23.8446 29.8257 24.4527 30.5076 25.4812 30.8429C26.3904 31.1383 28.601 31.3031 31.2774 30.2689C34.2722 29.1097 36.6134 25.8877 35.9258 23.1884C35.2382 20.4494 30.6921 19.5459 26.3904 21.0745C23.8333 21.9837 21.0602 23.4157 19.0656 25.2796C16.696 27.4958 16.3209 29.4222 16.4744 30.2291C17.0256 33.0931 20.975 34.957 22.5547 36.3379C22.4751 36.3834 22.4013 36.4231 22.3388 36.4572C21.5489 36.8493 18.5371 38.4234 17.787 40.0884C16.9346 41.975 17.9234 43.3274 18.5769 43.5093C20.6056 44.0719 22.6911 43.0604 23.8106 41.3897C24.93 39.719 24.7936 37.5483 24.2765 36.5538C24.2708 36.5425 24.2652 36.5311 24.2538 36.5197C24.4584 36.4004 24.6686 36.2754 24.8732 36.156C25.2767 35.9174 25.6744 35.6958 26.0154 35.5139C25.8222 36.0424 25.6801 36.6732 25.6119 37.5824C25.5267 38.6507 25.9642 40.0372 26.5382 40.5828C26.7939 40.8214 27.0951 40.8271 27.2883 40.8271C27.9588 40.8271 28.26 40.2702 28.5953 39.611C29.0044 38.8041 29.3738 37.8665 29.3738 37.8665C29.3738 37.8665 28.9135 40.4009 30.1637 40.4009C30.6183 40.4009 31.0786 39.8099 31.2831 39.5088C31.2831 39.5144 31.2831 39.5144 31.2831 39.5144C31.2831 39.5144 31.2945 39.4974 31.3172 39.4576C31.3627 39.3837 31.3911 39.3383 31.3911 39.3383C31.3911 39.3383 31.3911 39.3326 31.3911 39.3269C31.5729 39.0087 31.9821 38.287 32.5901 37.088C33.3743 35.5423 34.1301 33.6103 34.1301 33.6103C34.1301 33.6103 34.1983 34.0819 34.4313 34.8661C34.5676 35.3264 34.8518 35.8321 35.0791 36.3208C34.8972 36.5766 34.7836 36.7186 34.7836 36.7186C34.7836 36.7186 34.7836 36.7186 34.7893 36.7243C34.6415 36.9175 34.4824 37.1278 34.3062 37.3323C33.6868 38.0711 32.9481 38.9178 32.8458 39.1621C32.7265 39.4519 32.7549 39.6622 32.9822 39.8327C33.147 39.9577 33.4425 39.9747 33.7437 39.9577C34.3006 39.9179 34.6927 39.7815 34.8859 39.6963C35.187 39.5883 35.5394 39.4235 35.869 39.1792C36.477 38.7303 36.8464 38.0881 36.8123 37.2414C36.7952 36.7754 36.6418 36.3095 36.4543 35.8719C36.5111 35.7924 36.5622 35.7128 36.6191 35.6333C37.5794 34.2297 38.3238 32.6897 38.3238 32.6897C38.3238 32.6897 38.392 33.1613 38.625 33.9455C38.7386 34.3433 38.9716 34.7752 39.1762 35.1957C38.2727 35.9287 37.7158 36.7811 37.5169 37.338C37.1589 38.3723 37.4373 38.8382 37.9658 38.9462C38.2045 38.9973 38.5454 38.8837 38.7955 38.7757C39.1137 38.6734 39.4887 38.4973 39.8467 38.2359C40.4548 37.7869 41.0401 37.1619 41.006 36.3152C40.9889 35.9287 40.8867 35.548 40.7446 35.1786C41.5117 34.8604 42.5005 34.6843 43.762 34.832C46.4669 35.1502 47.0011 36.838 46.8988 37.5483C46.7965 38.2586 46.2283 38.645 46.0407 38.7643C45.8532 38.8837 45.7907 38.9235 45.8078 39.0087C45.8305 39.1337 45.9214 39.128 46.0805 39.1053C46.3021 39.0655 47.5012 38.5314 47.5523 37.2244C47.6375 35.5537 46.0464 33.7296 43.2336 33.7466ZM22.3672 40.7817C21.4693 41.7591 20.2192 42.1284 19.6793 41.8159C19.0997 41.4806 19.327 40.0372 20.4294 39.003C21.1 38.3722 21.9637 37.7869 22.5377 37.4289C22.6684 37.3494 22.8616 37.2357 23.0945 37.0937C23.1343 37.0709 23.1571 37.0596 23.1571 37.0596C23.2025 37.0312 23.248 37.0028 23.2934 36.9743C23.6969 38.4518 23.3105 39.7531 22.3672 40.7817ZM28.9021 36.3379C28.5896 37.0994 27.9361 39.0485 27.5383 38.9405C27.1974 38.8496 26.9871 37.3721 27.4701 35.9117C27.7145 35.1786 28.2316 34.3035 28.5328 33.9626C29.0215 33.4171 29.5613 33.2352 29.692 33.4568C29.8568 33.7466 29.0953 35.8606 28.9021 36.3379ZM34.2949 38.9178C34.1642 38.986 34.0392 39.0314 33.9823 38.9973C33.9426 38.9746 34.0392 38.8837 34.0392 38.8837C34.0392 38.8837 34.7154 38.1563 34.9825 37.8267C35.1359 37.6335 35.3177 37.4062 35.511 37.1505C35.511 37.1732 35.511 37.2016 35.511 37.2244C35.511 38.0938 34.6699 38.6791 34.2949 38.9178ZM38.4545 37.9688C38.3579 37.9006 38.375 37.6733 38.6989 36.963C38.8239 36.6845 39.1194 36.2186 39.6251 35.7696C39.682 35.9515 39.7217 36.1276 39.7161 36.2924C39.7104 37.3892 38.9262 37.7983 38.4545 37.9688Z" fill="#CD6799"/>
</g>
<defs>
<filter id="filter0_d_193_4046" x="0" y="0" width="64" height="64" filterUnits="userSpaceOnUse" color-interpolation-filters="sRGB">
<feFlood flood-opacity="0" result="BackgroundImageFix"/>
<feColorMatrix in="SourceAlpha" type="matrix" values="0 0 0 0 0 0 0 0 0 0 0 0 0 0 0 0 0 0 127 0" result="hardAlpha"/>
<feOffset/>
<feGaussianBlur stdDeviation="2"/>
<feComposite in2="hardAlpha" operator="out"/>
<feColorMatrix type="matrix" values="0 0 0 0 0 0 0 0 0 0 0 0 0 0 0 0 0 0 0.1 0"/>
<feBlend mode="normal" in2="BackgroundImageFix" result="effect1_dropShadow_193_4046"/>
<feBlend mode="normal" in="SourceGraphic" in2="effect1_dropShadow_193_4046" result="shape"/>
</filter>
</defs>
</svg>
