<svg width="66" height="64" viewBox="0 0 66 64" fill="none" xmlns="http://www.w3.org/2000/svg">
<g filter="url(#filter0_d_193_226)">
<rect x="4.75439" y="4" width="56.3129" height="56" rx="16" fill="white" shape-rendering="crispEdges"/>
<path fill-rule="evenodd" clip-rule="evenodd" d="M23.6922 27.9856L32.9978 45.996L17.3567 27.9856H23.6922Z" fill="#EA6C00"/>
<path fill-rule="evenodd" clip-rule="evenodd" d="M42.3061 27.9856L33.0005 45.996L48.6416 27.9856H42.3061Z" fill="#EA6C00"/>
<path fill-rule="evenodd" clip-rule="evenodd" d="M23.6918 27.9856H42.3032L32.9975 45.996L23.6918 27.9856Z" fill="#FDAD00"/>
<path fill-rule="evenodd" clip-rule="evenodd" d="M32.9975 18.0042L24.1816 18.9256L23.6918 27.9855L32.9975 18.0042Z" fill="#FDD231"/>
<path fill-rule="evenodd" clip-rule="evenodd" d="M32.9975 18.0042L41.8134 18.9256L42.3032 27.9855L32.9975 18.0042Z" fill="#FDD231"/>
<path fill-rule="evenodd" clip-rule="evenodd" d="M48.6416 27.9856L41.8163 18.9257L42.3061 27.9856H48.6416Z" fill="#FDAD00"/>
<path fill-rule="evenodd" clip-rule="evenodd" d="M17.3567 27.9856L24.1819 18.9257L23.6922 27.9856H17.3567Z" fill="#FDAD00"/>
<path fill-rule="evenodd" clip-rule="evenodd" d="M32.9975 18.0042L23.6918 27.9855H42.3032L32.9975 18.0042Z" fill="#FEEEB7"/>
</g>
<defs>
<filter id="filter0_d_193_226" x="0.754395" y="0" width="64.3129" height="64" filterUnits="userSpaceOnUse" color-interpolation-filters="sRGB">
<feFlood flood-opacity="0" result="BackgroundImageFix"/>
<feColorMatrix in="SourceAlpha" type="matrix" values="0 0 0 0 0 0 0 0 0 0 0 0 0 0 0 0 0 0 127 0" result="hardAlpha"/>
<feOffset/>
<feGaussianBlur stdDeviation="2"/>
<feComposite in2="hardAlpha" operator="out"/>
<feColorMatrix type="matrix" values="0 0 0 0 0 0 0 0 0 0 0 0 0 0 0 0 0 0 0.1 0"/>
<feBlend mode="normal" in2="BackgroundImageFix" result="effect1_dropShadow_193_226"/>
<feBlend mode="normal" in="SourceGraphic" in2="effect1_dropShadow_193_226" result="shape"/>
</filter>
</defs>
</svg>
