<svg width="65" height="64" viewBox="0 0 65 64" fill="none" xmlns="http://www.w3.org/2000/svg">
<g filter="url(#filter0_d_193_246)">
<rect x="4.12866" y="4" width="56.3129" height="56" rx="16" fill="white" shape-rendering="crispEdges"/>
<path fill-rule="evenodd" clip-rule="evenodd" d="M16.7979 27.7031L23.1555 19.1209C23.2205 19.0333 23.303 18.9601 23.3979 18.9058C23.4928 18.8515 23.5979 18.8173 23.7068 18.8054L32.1981 17.8667C32.2561 17.8603 32.3146 17.8603 32.3726 17.8667L40.8639 18.8044C40.9727 18.8163 41.0779 18.8505 41.1727 18.9048C41.2676 18.9591 41.3502 19.0324 41.4152 19.1199L47.7737 27.7031C47.8801 27.8472 47.9341 28.0229 47.9269 28.2015C47.9197 28.3801 47.8517 28.551 47.7341 28.6862L32.7365 45.9333C32.6806 45.9976 32.6115 46.0492 32.5338 46.0845C32.4562 46.1199 32.3717 46.1382 32.2863 46.1382C32.2009 46.1382 32.1165 46.1199 32.0388 46.0845C31.9611 46.0492 31.892 45.9976 31.8362 45.9333L16.8356 28.6862C16.7181 28.5509 16.6503 28.38 16.6432 28.2014C16.6362 28.0228 16.6904 27.8471 16.7969 27.7031H16.7979ZM34.4726 20.4037L40.4683 26.0358C40.5264 26.0905 40.5998 26.1265 40.6788 26.139C40.7579 26.1515 40.8388 26.1399 40.9111 26.1057C40.9834 26.0716 41.0437 26.0165 41.0839 25.9477C41.1241 25.8789 41.1425 25.7996 41.1366 25.7203L40.849 21.723C40.845 21.6741 40.8594 21.6254 40.8895 21.5866C40.9196 21.5477 40.9632 21.5214 41.0118 21.5127C41.0604 21.5041 41.1104 21.5138 41.1522 21.5399C41.194 21.566 41.2245 21.6067 41.2377 21.654L42.5524 26.231C42.5967 26.3851 42.6781 26.5262 42.7895 26.642C42.9009 26.7578 43.0391 26.8448 43.192 26.8956L45.9979 27.8254C46.0427 27.84 46.0808 27.87 46.1053 27.91C46.1299 27.95 46.1393 27.9974 46.1319 28.0437C46.1245 28.09 46.1007 28.1321 46.0649 28.1626C46.0291 28.193 45.9836 28.2098 45.9365 28.2099H43.2396C43.0729 28.21 42.9089 28.2519 42.7628 28.3317C42.6167 28.4115 42.4932 28.5266 42.4037 28.6664L35.0526 40.1534C35.0115 40.2161 34.948 40.2609 34.8749 40.2788C34.8019 40.2968 34.7247 40.2866 34.6589 40.2502C34.5932 40.2138 34.5437 40.154 34.5205 40.0828C34.4974 40.0116 34.5022 39.9343 34.5341 39.8665L39.803 29.0598C39.847 28.9696 39.8673 28.8698 39.8618 28.7697C39.8564 28.6695 39.8255 28.5724 39.7719 28.4874C39.7184 28.4025 39.644 28.3324 39.5558 28.2839C39.4676 28.2353 39.3684 28.2099 39.2676 28.2099H25.3031C25.2023 28.2099 25.1031 28.2353 25.0148 28.2839C24.9266 28.3324 24.8522 28.4025 24.7987 28.4874C24.7452 28.5724 24.7143 28.6695 24.7088 28.7697C24.7034 28.8698 24.7236 28.9696 24.7677 29.0598L30.0366 39.8665C30.0697 39.9344 30.0754 40.0123 30.0526 40.0843C30.0298 40.1563 29.9802 40.2169 29.9139 40.2537C29.8476 40.2905 29.7697 40.3007 29.6961 40.2823C29.6225 40.2638 29.5588 40.218 29.518 40.1544L22.1669 28.6674C22.0775 28.5273 21.9538 28.4119 21.8076 28.3319C21.6613 28.2519 21.497 28.2099 21.3301 28.2099H18.5509C18.5038 28.2098 18.4582 28.193 18.4224 28.1626C18.3866 28.1321 18.3629 28.09 18.3555 28.0437C18.3481 27.9974 18.3575 27.95 18.382 27.91C18.4066 27.87 18.4447 27.84 18.4894 27.8254L21.3727 26.8936C21.5272 26.8435 21.667 26.7565 21.7797 26.6401C21.8925 26.5237 21.9747 26.3815 22.0192 26.2261L23.333 21.654C23.3462 21.6067 23.3767 21.566 23.4184 21.5399C23.4602 21.5138 23.5103 21.5041 23.5588 21.5127C23.6074 21.5214 23.651 21.5477 23.6811 21.5866C23.7112 21.6254 23.7257 21.6741 23.7216 21.723L23.4341 25.7203C23.4282 25.7996 23.4465 25.8789 23.4868 25.9477C23.527 26.0165 23.5872 26.0716 23.6595 26.1057C23.7318 26.1399 23.8128 26.1515 23.8918 26.139C23.9709 26.1265 24.0443 26.0905 24.1024 26.0358L30.098 20.4037C30.1343 20.3673 30.1833 20.3464 30.2348 20.3453C30.2863 20.3442 30.3361 20.3631 30.3739 20.398C30.4116 20.4328 30.4342 20.4808 30.437 20.532C30.4397 20.5831 30.4224 20.6333 30.3886 20.6719L26.366 25.595C26.3188 25.6529 26.2891 25.7228 26.2802 25.7967C26.2713 25.8707 26.2837 25.9456 26.3158 26.0129C26.348 26.0801 26.3986 26.1369 26.4619 26.1768C26.5252 26.2166 26.5985 26.2378 26.6734 26.2379H37.8973C37.9722 26.2378 38.0455 26.2166 38.1088 26.1768C38.172 26.1369 38.2227 26.0801 38.2548 26.0129C38.287 25.9456 38.2993 25.8707 38.2905 25.7967C38.2816 25.7228 38.2518 25.6529 38.2047 25.595L34.1821 20.6719C34.1483 20.6333 34.1309 20.5831 34.1337 20.532C34.1364 20.4808 34.1591 20.4328 34.1968 20.398C34.2345 20.3631 34.2844 20.3442 34.3359 20.3453C34.3873 20.3464 34.4364 20.3673 34.4726 20.4037Z" fill="black"/>
</g>
<defs>
<filter id="filter0_d_193_246" x="0.128662" y="0" width="64.3129" height="64" filterUnits="userSpaceOnUse" color-interpolation-filters="sRGB">
<feFlood flood-opacity="0" result="BackgroundImageFix"/>
<feColorMatrix in="SourceAlpha" type="matrix" values="0 0 0 0 0 0 0 0 0 0 0 0 0 0 0 0 0 0 127 0" result="hardAlpha"/>
<feOffset/>
<feGaussianBlur stdDeviation="2"/>
<feComposite in2="hardAlpha" operator="out"/>
<feColorMatrix type="matrix" values="0 0 0 0 0 0 0 0 0 0 0 0 0 0 0 0 0 0 0.1 0"/>
<feBlend mode="normal" in2="BackgroundImageFix" result="effect1_dropShadow_193_246"/>
<feBlend mode="normal" in="SourceGraphic" in2="effect1_dropShadow_193_246" result="shape"/>
</filter>
</defs>
</svg>
