<svg width="65" height="64" viewBox="0 0 65 64" fill="none" xmlns="http://www.w3.org/2000/svg">
<g filter="url(#filter0_d_193_4580)">
<rect x="4" y="4" width="56.3129" height="56" rx="16" fill="white" shape-rendering="crispEdges"/>
<g clip-path="url(#clip0_193_4580)">
<path d="M31.2612 19.3896C31.6062 18.8701 32.3856 18.8701 32.7435 19.3896L40.0664 30.2379L47.8506 41.7591C47.7587 41.9217 47.6527 42.0759 47.5337 42.2201C47.4524 42.3162 47.3755 42.4072 47.2795 42.5006C47.2584 42.5206 47.2381 42.5362 47.2129 42.5553L47.1859 42.5757C47.0978 42.6411 47.0071 42.7029 46.9139 42.761C46.8385 42.8079 46.7761 42.8494 46.6859 42.8925C46.5959 42.9356 46.4519 42.9875 46.3653 43.017C46.2785 43.0467 46.2495 43.0568 46.1856 43.0708C46.1537 43.0772 46.1216 43.0835 46.0898 43.0873C46.068 43.0911 46.0464 43.0949 46.0246 43.0975C46.0208 43.0987 46.0157 43.0987 46.0119 43.1001L45.9146 43.1115C45.8125 43.1215 45.7064 43.1267 45.5979 43.1267C36.5647 44.1055 27.4513 44.1055 18.4182 43.1267C18.4079 43.1267 18.3978 43.1267 18.3875 43.1254L18.3568 43.1252L18.3427 43.1241H18.3288C18.3185 43.1229 18.3082 43.1229 18.2981 43.1215H18.2878C18.2737 43.1203 18.2608 43.1203 18.247 43.1191C18.1627 43.1127 18.0644 43.0915 17.994 43.076C17.9235 43.062 17.8815 43.0505 17.8228 43.0377C17.1276 42.8739 16.4888 42.4575 16.1961 41.7832C16.1884 41.7654 16.182 41.7477 16.1743 41.7299L16.1731 41.726L9.04046 23.6473C8.84879 23.1394 9.37273 22.6314 9.88379 22.8727C9.89667 22.8727 9.92213 22.8727 9.93501 22.8854L23.9331 30.2377L31.2612 19.3896ZM54.0826 22.8855C54.595 22.6062 55.1444 23.0886 54.9655 23.622V23.6474L47.8508 41.7593L40.0664 30.2379L54.0698 22.8855H54.0826Z" fill="#FF4B4B"/>
<path d="M54.0826 22.8855H54.0698L40.0665 30.2378L47.8508 41.7592L54.9655 23.6474V23.6219C55.1444 23.0886 54.595 22.6062 54.0826 22.8855Z" fill="#7D353B"/>
<path d="M32.7435 19.3896C32.3856 18.8701 31.6062 18.8701 31.2612 19.3896L23.9331 30.2379L31.9972 34.4741L47.2795 42.5006C47.3755 42.4072 47.4524 42.3162 47.5337 42.2201C47.6527 42.0759 47.7587 41.9217 47.8506 41.7591L40.0664 30.2379L32.7435 19.3896Z" fill="#BD4043"/>
</g>
</g>
<defs>
<filter id="filter0_d_193_4580" x="0" y="0" width="64.3129" height="64" filterUnits="userSpaceOnUse" color-interpolation-filters="sRGB">
<feFlood flood-opacity="0" result="BackgroundImageFix"/>
<feColorMatrix in="SourceAlpha" type="matrix" values="0 0 0 0 0 0 0 0 0 0 0 0 0 0 0 0 0 0 127 0" result="hardAlpha"/>
<feOffset/>
<feGaussianBlur stdDeviation="2"/>
<feComposite in2="hardAlpha" operator="out"/>
<feColorMatrix type="matrix" values="0 0 0 0 0 0 0 0 0 0 0 0 0 0 0 0 0 0 0.1 0"/>
<feBlend mode="normal" in2="BackgroundImageFix" result="effect1_dropShadow_193_4580"/>
<feBlend mode="normal" in="SourceGraphic" in2="effect1_dropShadow_193_4580" result="shape"/>
</filter>
<clipPath id="clip0_193_4580">
<rect width="46" height="25" fill="white" transform="translate(9 19)"/>
</clipPath>
</defs>
</svg>
