<svg width="65" height="64" viewBox="0 0 65 64" fill="none" xmlns="http://www.w3.org/2000/svg">
<g filter="url(#filter0_d_193_4656)">
<rect x="4" y="4" width="56.3129" height="56" rx="16" fill="white" shape-rendering="crispEdges"/>
<path d="M10.5139 29.7036C10.5139 29.1619 10.9583 28.9536 11.6944 28.9536C12.75 28.9536 14.0833 29.273 15.1389 29.8424V26.5786C13.9861 26.1202 12.8472 25.9397 11.6944 25.9397C8.875 25.9397 7 27.4119 7 29.8702C7 33.7036 12.2778 33.0924 12.2778 34.7452C12.2778 35.3841 11.7222 35.5924 10.9444 35.5924C9.79167 35.5924 8.31944 35.1202 7.15278 34.4813V37.7869C8.44444 38.3424 9.75 38.5786 10.9444 38.5786C13.8333 38.5786 15.8194 37.148 15.8194 34.6619C15.8056 30.523 10.5139 31.2591 10.5139 29.7036ZM19.9028 23.1619L16.5139 23.8841L16.5 35.0091C16.5 37.0647 18.0417 38.5786 20.0972 38.5786C21.2361 38.5786 22.0694 38.3702 22.5278 38.1202V35.3008C22.0833 35.4813 19.8889 36.1202 19.8889 34.0647V29.1341H22.5278V26.1758H19.8889L19.9028 23.1619ZM26.8472 27.2036L26.625 26.1758H23.625V38.3286H27.0972V30.0924C27.9167 29.023 29.3056 29.2174 29.7361 29.3702V26.1758C29.2917 26.0091 27.6667 25.7036 26.8472 27.2036ZM30.5833 26.1758H34.0694V38.3286H30.5833V26.1758ZM30.5833 25.1202L34.0694 24.3702V21.5508L30.5833 22.2869V25.1202ZM41.3194 25.9397C39.9583 25.9397 39.0833 26.5786 38.5972 27.023L38.4167 26.1619H35.3611V42.3563L38.8333 41.6202L38.8472 37.6897C39.3472 38.0508 40.0833 38.5647 41.3056 38.5647C43.7917 38.5647 46.0556 36.5647 46.0556 32.1619C46.0417 28.1341 43.75 25.9397 41.3194 25.9397ZM40.4861 35.5091C39.6667 35.5091 39.1806 35.2174 38.8472 34.8563L38.8333 29.7036C39.1944 29.3008 39.6944 29.023 40.4861 29.023C41.75 29.023 42.625 30.4397 42.625 32.2591C42.625 34.1202 41.7639 35.5091 40.4861 35.5091ZM57 32.3008C57 28.7452 55.2778 25.9397 51.9861 25.9397C48.6806 25.9397 46.6806 28.7452 46.6806 32.273C46.6806 36.4536 49.0417 38.5647 52.4306 38.5647C54.0833 38.5647 55.3333 38.1897 56.2778 37.6619V34.8841C55.3333 35.3563 54.25 35.648 52.875 35.648C51.5278 35.648 50.3333 35.1758 50.1806 33.5369H56.9722C56.9722 33.3563 57 32.6341 57 32.3008ZM50.1389 30.9813C50.1389 29.4119 51.0972 28.7591 51.9722 28.7591C52.8194 28.7591 53.7222 29.4119 53.7222 30.9813H50.1389Z" fill="#6772E5"/>
</g>
<defs>
<filter id="filter0_d_193_4656" x="0" y="0" width="64.3129" height="64" filterUnits="userSpaceOnUse" color-interpolation-filters="sRGB">
<feFlood flood-opacity="0" result="BackgroundImageFix"/>
<feColorMatrix in="SourceAlpha" type="matrix" values="0 0 0 0 0 0 0 0 0 0 0 0 0 0 0 0 0 0 127 0" result="hardAlpha"/>
<feOffset/>
<feGaussianBlur stdDeviation="2"/>
<feComposite in2="hardAlpha" operator="out"/>
<feColorMatrix type="matrix" values="0 0 0 0 0 0 0 0 0 0 0 0 0 0 0 0 0 0 0.1 0"/>
<feBlend mode="normal" in2="BackgroundImageFix" result="effect1_dropShadow_193_4656"/>
<feBlend mode="normal" in="SourceGraphic" in2="effect1_dropShadow_193_4656" result="shape"/>
</filter>
</defs>
</svg>
