<svg width="65" height="64" viewBox="0 0 65 64" fill="none" xmlns="http://www.w3.org/2000/svg">
<g filter="url(#filter0_d_193_4818)">
<rect x="4.31287" y="4" width="56.3129" height="56" rx="16" fill="white" shape-rendering="crispEdges"/>
<path d="M43.8326 20.5607C40.9259 16.426 35.1848 15.2004 31.0343 17.8292L23.7453 22.4474C23.2549 22.7537 22.7975 23.11 22.3813 23.5104C21.9646 23.9108 21.5912 24.3532 21.2669 24.8305C20.9426 25.3077 20.669 25.8171 20.4502 26.3505C20.2319 26.884 20.0698 27.4387 19.9666 28.0055C19.8804 28.4807 19.8334 28.9626 19.8272 29.4455C19.8204 29.929 19.8543 30.412 19.928 30.8892C20.0016 31.367 20.1149 31.838 20.2663 32.2971C20.4178 32.7561 20.6073 33.2017 20.8329 33.6296C20.6777 33.8641 20.5345 34.1063 20.4037 34.3551C20.2726 34.6038 20.1546 34.8593 20.0496 35.12C19.9447 35.3807 19.8533 35.6466 19.7755 35.9166C19.6977 36.1867 19.6339 36.4603 19.5838 36.7366C19.3755 37.8984 19.403 39.0899 19.6648 40.2409C19.7953 40.8147 19.9828 41.3745 20.2251 41.9115C20.4674 42.4485 20.7624 42.9605 21.1071 43.4393C24.0137 47.574 29.7543 48.7996 33.9049 46.1709L41.1938 41.5719C41.6842 41.265 42.1406 40.9082 42.5568 40.5073C42.9729 40.1067 43.3462 39.6643 43.6707 39.1872C43.995 38.7105 44.2686 38.2011 44.4874 37.6677C44.7062 37.1349 44.8686 36.5803 44.9725 36.0137C45.0587 35.5386 45.1052 35.0572 45.1114 34.5742C45.1177 34.0913 45.0838 33.6083 45.0096 33.1311C44.936 32.6538 44.8227 32.1833 44.6707 31.7243C44.5187 31.2657 44.3292 30.8201 44.1036 30.3922C44.2587 30.158 44.4023 29.9155 44.5334 29.6668C44.6639 29.418 44.7824 29.1625 44.8874 28.9018C44.9924 28.6411 45.0843 28.3752 45.1626 28.1052C45.2404 27.8357 45.3052 27.562 45.3558 27.2857C45.4592 26.7062 45.5041 26.1178 45.4906 25.5294C45.477 24.9411 45.4044 24.3558 45.2738 23.7815C45.1433 23.2076 44.9558 22.6478 44.7135 22.1108C44.4715 21.5738 44.1764 21.062 43.8326 20.583" fill="#FF3E00"/>
<path d="M30.322 43.8391C29.7516 43.9865 29.1618 44.0464 28.5732 44.0168C27.9846 43.9866 27.4039 43.8682 26.8514 43.6641C26.2989 43.4604 25.7809 43.1741 25.3151 42.8151C24.8497 42.4558 24.4421 42.0282 24.1062 41.5469C23.8989 41.2587 23.7213 40.9513 23.5761 40.6283C23.4306 40.3055 23.3177 39.969 23.2393 39.6239C23.1615 39.2786 23.1177 38.9265 23.1098 38.5729C23.102 38.2192 23.1297 37.8656 23.1923 37.5171C23.2022 37.4605 23.2137 37.4039 23.2263 37.3478C23.2383 37.2912 23.2519 37.2351 23.2665 37.1796C23.2806 37.1235 23.2962 37.0679 23.313 37.0123C23.3291 36.9573 23.3469 36.9022 23.3652 36.8477L23.5025 36.4307L23.8769 36.7085C24.0916 36.8643 24.313 37.0113 24.5401 37.1484C24.7673 37.286 25.0002 37.4138 25.2383 37.5311C25.4759 37.649 25.7193 37.757 25.9663 37.8541C26.2133 37.9518 26.4645 38.0385 26.7193 38.1148L26.9987 38.1953L26.9736 38.4731C26.9602 38.6622 26.98 38.8522 27.0321 39.0345C27.0577 39.1259 27.0917 39.2142 27.1329 39.2994C27.1742 39.3845 27.2227 39.4661 27.2781 39.5429C27.3795 39.6879 27.5026 39.8166 27.6431 39.9246C27.7831 40.0326 27.9392 40.1188 28.1058 40.1801C28.2724 40.2414 28.4468 40.2767 28.6243 40.2855C28.8014 40.2949 28.9789 40.2767 29.1507 40.232C29.1904 40.2217 29.229 40.2097 29.2677 40.1962C29.3063 40.1827 29.3445 40.1682 29.3815 40.1515C29.4191 40.1354 29.4557 40.1178 29.4922 40.0986C29.5283 40.0799 29.5633 40.0596 29.5977 40.0378L36.8757 35.4191C36.965 35.3635 37.0481 35.2987 37.1238 35.2259C37.1995 35.1527 37.2669 35.0722 37.3259 34.9855C37.3849 34.8988 37.434 34.8058 37.4737 34.7087C37.5128 34.6116 37.5421 34.5108 37.5609 34.408C37.5791 34.3026 37.587 34.1961 37.5844 34.0892C37.5818 33.9827 37.5682 33.8768 37.5442 33.7724C37.5207 33.6685 37.4862 33.5672 37.4418 33.4696C37.3979 33.3725 37.3436 33.2801 37.281 33.1933C37.1797 33.0485 37.0569 32.9202 36.9165 32.8122C36.776 32.7042 36.6199 32.618 36.4538 32.5567C36.2873 32.4954 36.1125 32.4597 35.9352 32.4507C35.7577 32.4419 35.5801 32.4601 35.4083 32.5042C35.3692 32.5146 35.33 32.5266 35.2914 32.5401C35.2527 32.5536 35.2151 32.5681 35.1775 32.5842C35.1399 32.6008 35.1034 32.6185 35.0673 32.6377C35.0313 32.6564 34.9958 32.6772 34.9613 32.699L32.1665 34.4636C32.0526 34.5352 31.9356 34.6027 31.8166 34.6661C31.697 34.7289 31.5758 34.7876 31.4521 34.8416C31.3283 34.8956 31.2025 34.945 31.075 34.9891C30.9476 35.0338 30.8186 35.0732 30.6881 35.108C30.1184 35.2545 29.5298 35.3137 28.9424 35.2836C28.3549 35.2534 27.7757 35.1345 27.2243 34.9315C26.6728 34.7279 26.1559 34.4418 25.6911 34.0834C25.2263 33.7251 24.819 33.2988 24.4832 32.8184C24.277 32.5302 24.0999 32.2222 23.9553 31.8992C23.8101 31.5762 23.6978 31.2397 23.62 30.8949C23.5422 30.5496 23.4994 30.1975 23.4921 29.8438C23.4842 29.4907 23.5119 29.137 23.5751 28.7891C23.6986 28.1041 23.9643 27.4521 24.3553 26.8749C24.7466 26.2977 25.2547 25.8081 25.8472 25.4375L33.1477 20.8193C33.261 20.7476 33.3769 20.6801 33.4955 20.6168C33.614 20.5539 33.7352 20.4952 33.8579 20.4412C33.9809 20.3872 34.106 20.338 34.2328 20.2938C34.3592 20.2491 34.4877 20.2091 34.6177 20.1743C35.188 20.0273 35.7775 19.9671 36.3655 19.9967C36.9541 20.0268 37.5342 20.1452 38.0867 20.3493C38.6392 20.5529 39.1567 20.8395 39.6225 21.1984C40.0878 21.5578 40.4952 21.9856 40.8309 22.4671C41.0377 22.7547 41.2158 23.0622 41.3615 23.3852C41.5072 23.7082 41.62 24.0442 41.6988 24.3895C41.7772 24.7349 41.821 25.087 41.8289 25.4406C41.8372 25.7943 41.8101 26.1479 41.7474 26.4964C41.7364 26.5535 41.725 26.6106 41.7119 26.6672C41.6994 26.7238 41.6858 26.7804 41.6712 26.8365C41.6571 26.8931 41.6414 26.9492 41.6252 27.0048C41.609 27.0608 41.5923 27.1164 41.574 27.1715L41.4346 27.5885L41.0628 27.3106C40.8476 27.1533 40.6257 27.0058 40.398 26.8671C40.1703 26.729 39.9364 26.6002 39.6977 26.4813C39.22 26.2443 38.723 26.0476 38.2121 25.8934L37.9322 25.813L37.9577 25.5351C37.9656 25.4401 37.9651 25.3445 37.9562 25.25C37.9478 25.1555 37.9306 25.0615 37.9055 24.9696C37.8799 24.8782 37.847 24.7884 37.8058 24.7027C37.7651 24.6165 37.7165 24.5344 37.6611 24.4565C37.5592 24.3142 37.4362 24.1881 37.2961 24.0826C37.1563 23.9766 37.0009 23.8926 36.8355 23.8334C36.5031 23.7134 36.1418 23.6973 35.8 23.7871C35.7603 23.7975 35.7211 23.8095 35.683 23.8224C35.6444 23.8359 35.6062 23.851 35.5686 23.8671C35.5316 23.8832 35.4945 23.9014 35.4585 23.9201C35.4224 23.9393 35.3869 23.9595 35.3525 23.9814L28.0609 28.5918C27.9721 28.6473 27.8891 28.7122 27.8139 28.7849C27.7387 28.8576 27.6708 28.9381 27.6118 29.0243C27.5533 29.1111 27.5037 29.2034 27.464 29.3001C27.4243 29.3972 27.3951 29.4974 27.3763 29.6003C27.358 29.7057 27.3501 29.8127 27.3528 29.9196C27.359 30.1338 27.4075 30.3446 27.4953 30.5402C27.5396 30.6376 27.5933 30.7304 27.6556 30.8175C27.7564 30.9608 27.8786 31.0886 28.018 31.1956C28.1572 31.3031 28.312 31.3889 28.4771 31.45C28.8091 31.5728 29.1707 31.5925 29.5142 31.5066C29.5533 31.4957 29.5925 31.4838 29.6311 31.4703C29.6693 31.4568 29.7074 31.4417 29.745 31.4256C29.7824 31.4094 29.8192 31.3918 29.8552 31.3727C29.8912 31.354 29.9267 31.3337 29.9612 31.3119L32.756 29.5504C32.8704 29.4777 32.9869 29.4092 33.1064 29.3458C33.2255 29.2819 33.3472 29.2232 33.4715 29.1687C33.5953 29.1147 33.7213 29.0655 33.849 29.0212C33.977 28.9766 34.1065 28.9371 34.2375 28.9028C34.8078 28.7553 35.3968 28.6951 35.9854 28.7242C36.5739 28.7538 37.1541 28.8722 37.7066 29.0758C38.2585 29.2793 38.7766 29.5655 39.2419 29.9248C39.7077 30.2837 40.115 30.7111 40.4508 31.1925C40.6576 31.4807 40.8351 31.7881 40.9808 32.1111C41.1265 32.4339 41.2395 32.7704 41.3182 33.1155C41.3965 33.4603 41.4403 33.8124 41.4487 34.166C41.4571 34.5202 41.4294 34.8738 41.3672 35.2218C41.3057 35.5634 41.2085 35.8977 41.0774 36.2194C40.9464 36.5411 40.7819 36.8483 40.5865 37.1359C40.3918 37.4236 40.1672 37.6905 39.9165 37.932C39.6659 38.1735 39.3907 38.3885 39.0951 38.5734L31.803 43.1916C31.6886 43.2638 31.5717 43.3318 31.4526 43.3951C31.333 43.4585 31.2113 43.5172 31.0871 43.5712C30.9633 43.6257 30.8374 43.675 30.7095 43.7197C30.5821 43.7644 30.4526 43.8044 30.322 43.8391Z" fill="white"/>
</g>
<defs>
<filter id="filter0_d_193_4818" x="0.312866" y="0" width="64.3129" height="64" filterUnits="userSpaceOnUse" color-interpolation-filters="sRGB">
<feFlood flood-opacity="0" result="BackgroundImageFix"/>
<feColorMatrix in="SourceAlpha" type="matrix" values="0 0 0 0 0 0 0 0 0 0 0 0 0 0 0 0 0 0 127 0" result="hardAlpha"/>
<feOffset/>
<feGaussianBlur stdDeviation="2"/>
<feComposite in2="hardAlpha" operator="out"/>
<feColorMatrix type="matrix" values="0 0 0 0 0 0 0 0 0 0 0 0 0 0 0 0 0 0 0.1 0"/>
<feBlend mode="normal" in2="BackgroundImageFix" result="effect1_dropShadow_193_4818"/>
<feBlend mode="normal" in="SourceGraphic" in2="effect1_dropShadow_193_4818" result="shape"/>
</filter>
</defs>
</svg>
