<svg width="66" height="64" viewBox="0 0 66 64" fill="none" xmlns="http://www.w3.org/2000/svg">
<g filter="url(#filter0_d_193_4858)">
<rect x="4.8158" y="4" width="56.3129" height="56" rx="16" fill="white" shape-rendering="crispEdges"/>
<path d="M24.2806 16.4445H41.6028C42.4457 16.4445 43.2642 16.5781 44.0582 16.8577C45.2065 17.2708 46.2448 18 47.0267 18.9479C47.8207 19.8958 48.346 21.0625 48.5292 22.2778C48.6025 22.7274 48.6147 23.1771 48.6147 23.6267V40.434C48.6147 40.9688 48.5903 41.5156 48.4803 42.0382C48.236 43.2413 47.6619 44.3715 46.8312 45.283C46.0127 46.1945 44.9377 46.875 43.7772 47.2396C43.0687 47.4583 42.3357 47.5556 41.5906 47.5556C41.2607 47.5556 24.2318 47.5556 23.9753 47.5434C22.7292 47.4827 21.4954 47.0816 20.4571 46.3889C19.4432 45.7083 18.6125 44.7604 18.075 43.6667C17.6108 42.7309 17.3787 41.6858 17.3787 40.6406V23.3594C17.3542 22.3264 17.5741 21.3056 18.0261 20.382C18.5514 19.2882 19.3699 18.3281 20.3838 17.6476C21.4221 16.9427 22.6437 16.5295 23.8897 16.4688C24.0119 16.4445 24.1463 16.4445 24.2806 16.4445Z" fill="url(#paint0_linear_193_4858)"/>
<path d="M43.7161 41.8924C43.6061 41.7222 43.484 41.5521 43.3496 41.3941C43.0442 41.0295 42.69 40.7136 42.299 40.4462C41.8104 40.1181 41.2363 39.9115 40.6499 39.8872C40.2346 39.8629 39.8192 39.9358 39.4283 40.0816C39.0374 40.2153 38.6587 40.4097 38.2922 40.6042C37.8647 40.8229 37.4371 41.0417 36.9851 41.224C36.4476 41.4427 35.8857 41.6129 35.3116 41.7344C34.5908 41.8681 33.8579 41.9167 33.1371 41.9045C31.83 41.8802 30.5229 41.6858 29.2769 41.3212C28.1775 40.9931 27.1269 40.5434 26.1374 39.9722C25.2701 39.474 24.4639 38.9028 23.7065 38.2587C23.0835 37.724 22.5093 37.1528 21.9718 36.5452C21.6053 36.1198 21.2511 35.6702 20.9212 35.2083C20.7869 35.0261 20.6647 34.8316 20.5548 34.6372L17.3298 31.1736V23.3351C17.3298 19.5313 20.4204 16.4445 24.244 16.4445H30.413L34.9817 21.0625C45.2919 28.0382 41.957 35.7309 41.957 35.7309C41.957 35.7309 44.8888 39.0122 43.7161 41.8924Z" fill="url(#paint1_linear_193_4858)"/>
<path d="M35.0061 21.0625C45.3163 28.0382 41.9814 35.7309 41.9814 35.7309C41.9814 35.7309 44.9132 39.0243 43.7282 41.9045C43.7282 41.9045 42.5189 39.8872 40.491 39.8872C38.5365 39.8872 37.3882 41.9045 33.4547 41.9045C24.6959 41.9045 20.5547 34.625 20.5547 34.625C28.4462 39.7899 33.8334 36.1319 33.8334 36.1319C30.2786 34.0781 22.717 24.2587 22.717 24.2587C29.3013 29.8368 32.1476 31.3073 32.1476 31.3073C30.4496 29.9097 25.6854 23.0799 25.6854 23.0799C29.4968 26.9201 37.0706 32.2795 37.0706 32.2795C39.2206 26.349 35.0061 21.0625 35.0061 21.0625Z" fill="white"/>
</g>
<defs>
<filter id="filter0_d_193_4858" x="0.815796" y="0" width="64.3129" height="64" filterUnits="userSpaceOnUse" color-interpolation-filters="sRGB">
<feFlood flood-opacity="0" result="BackgroundImageFix"/>
<feColorMatrix in="SourceAlpha" type="matrix" values="0 0 0 0 0 0 0 0 0 0 0 0 0 0 0 0 0 0 127 0" result="hardAlpha"/>
<feOffset/>
<feGaussianBlur stdDeviation="2"/>
<feComposite in2="hardAlpha" operator="out"/>
<feColorMatrix type="matrix" values="0 0 0 0 0 0 0 0 0 0 0 0 0 0 0 0 0 0 0.1 0"/>
<feBlend mode="normal" in2="BackgroundImageFix" result="effect1_dropShadow_193_4858"/>
<feBlend mode="normal" in="SourceGraphic" in2="effect1_dropShadow_193_4858" result="shape"/>
</filter>
<linearGradient id="paint0_linear_193_4858" x1="35.9335" y1="15.3343" x2="30.0841" y2="48.6799" gradientUnits="userSpaceOnUse">
<stop stop-color="#FAAE42"/>
<stop offset="1" stop-color="#EF3E31"/>
</linearGradient>
<linearGradient id="paint1_linear_193_4858" x1="33.2852" y1="16.9471" x2="29.0041" y2="41.3522" gradientUnits="userSpaceOnUse">
<stop stop-color="#E39F3A"/>
<stop offset="1" stop-color="#D33929"/>
</linearGradient>
</defs>
</svg>
