<svg width="64" height="64" viewBox="0 0 64 64" fill="none" xmlns="http://www.w3.org/2000/svg">
<g filter="url(#filter0_d_193_4096)">
<rect x="4" y="4" width="56" height="56" rx="16" fill="white" shape-rendering="crispEdges"/>
<path d="M16.4445 16.4445H47.5556V47.5556H16.4445V16.4445Z" fill="#017ACB"/>
<path d="M31.3827 27.9653H32.875V30.5417H28.8403V42.0042L28.7334 42.0334C28.5875 42.0723 26.6674 42.0723 26.2542 42.0285L25.9236 41.9994V30.5417H21.8889V27.9653L23.1674 27.9508C23.8674 27.941 25.666 27.941 27.1632 27.9508C28.6605 27.9605 30.5563 27.9653 31.3827 27.9653ZM42.7723 40.7889C42.1792 41.416 41.5424 41.766 40.4827 42.0528C40.0209 42.1792 39.9431 42.1841 38.9028 42.1792C37.8626 42.1744 37.7799 42.1744 37.2744 42.0431C35.9667 41.7077 34.9119 41.0515 34.1924 40.123C33.9882 39.8605 33.6528 39.316 33.6528 39.248C33.6528 39.2285 33.7014 39.1848 33.7646 39.1556C33.8278 39.1265 33.9591 39.0438 34.066 38.9806C34.173 38.9174 34.3674 38.8008 34.4987 38.7327C34.6299 38.6646 35.0091 38.441 35.3396 38.2417C35.6702 38.0424 35.9716 37.882 36.0056 37.882C36.0396 37.882 36.1028 37.9501 36.1514 38.0327C36.4431 38.5237 37.1237 39.1508 37.6049 39.3646C37.9014 39.491 38.5577 39.632 38.8737 39.632C39.1653 39.632 39.7001 39.5056 39.9869 39.3744C40.2931 39.2334 40.4487 39.0924 40.6334 38.8105C40.7598 38.6112 40.7744 38.5577 40.7695 38.1785C40.7695 37.8285 40.7501 37.7313 40.6528 37.5709C40.3806 37.1237 40.0112 36.8903 38.5139 36.2292C36.9681 35.5438 36.273 35.1355 35.7091 34.5862C35.291 34.1778 35.2084 34.066 34.9459 33.5556C34.6056 32.8994 34.5619 32.6855 34.557 31.7084C34.5521 31.023 34.5667 30.7994 34.6396 30.566C34.7417 30.216 35.0723 29.5403 35.223 29.3702C35.5341 29.0056 35.6459 28.8938 35.8646 28.714C36.5257 28.1695 37.5563 27.8098 38.5431 27.7758C38.6549 27.7758 39.0244 27.7952 39.3695 27.8195C40.3612 27.9021 41.0369 28.1452 41.6883 28.6653C42.1792 29.0542 42.923 29.9681 42.8501 30.0896C42.8015 30.1626 40.8619 31.4556 40.7355 31.4945C40.6577 31.5188 40.6042 31.4896 40.4973 31.3633C39.8362 30.5709 39.5688 30.4008 38.9271 30.3619C38.4702 30.3327 38.2271 30.3862 37.9209 30.5903C37.6001 30.8042 37.4445 31.1299 37.4445 31.582C37.4494 32.2431 37.7021 32.5542 38.6355 33.016C39.2383 33.3126 39.7535 33.5556 39.7924 33.5556C39.8508 33.5556 41.1001 34.1778 41.4258 34.3723C42.9424 35.2619 43.5598 36.1758 43.7202 37.7508C43.8369 38.9369 43.5015 40.0209 42.7723 40.7889Z" fill="white"/>
</g>
<defs>
<filter id="filter0_d_193_4096" x="0" y="0" width="64" height="64" filterUnits="userSpaceOnUse" color-interpolation-filters="sRGB">
<feFlood flood-opacity="0" result="BackgroundImageFix"/>
<feColorMatrix in="SourceAlpha" type="matrix" values="0 0 0 0 0 0 0 0 0 0 0 0 0 0 0 0 0 0 127 0" result="hardAlpha"/>
<feOffset/>
<feGaussianBlur stdDeviation="2"/>
<feComposite in2="hardAlpha" operator="out"/>
<feColorMatrix type="matrix" values="0 0 0 0 0 0 0 0 0 0 0 0 0 0 0 0 0 0 0.1 0"/>
<feBlend mode="normal" in2="BackgroundImageFix" result="effect1_dropShadow_193_4096"/>
<feBlend mode="normal" in="SourceGraphic" in2="effect1_dropShadow_193_4096" result="shape"/>
</filter>
</defs>
</svg>
