<svg width="65" height="64" viewBox="0 0 65 64" fill="none" xmlns="http://www.w3.org/2000/svg">
<g filter="url(#filter0_d_193_4030)">
<rect x="4.69299" y="4" width="56.3129" height="56" rx="16" fill="white" shape-rendering="crispEdges"/>
<path d="M20.7626 35.0289C22.4434 35.0289 23.806 33.6739 23.806 32.0024C23.806 30.3309 22.4434 28.9758 20.7626 28.9758C19.0817 28.9758 17.7191 30.3309 17.7191 32.0024C17.7191 33.6739 19.0817 35.0289 20.7626 35.0289Z" fill="#FF6309"/>
<path d="M42.5859 47.5556C44.2668 47.5556 45.6295 46.2004 45.6295 44.5288C45.6295 42.8572 44.2668 41.5021 42.5859 41.5021C40.9049 41.5021 39.5422 42.8572 39.5422 44.5288C39.5422 46.2004 40.9049 47.5556 42.5859 47.5556Z" fill="#FFB515"/>
<path d="M42.5833 22.4975C44.2641 22.4975 45.6267 21.1425 45.6267 19.471C45.6267 17.7995 44.2641 16.4445 42.5833 16.4445C40.9024 16.4445 39.5399 17.7995 39.5399 19.471C39.5399 21.1425 40.9024 22.4975 42.5833 22.4975Z" fill="#C90016"/>
<path d="M35.311 24.5133C39.1007 24.5133 42.2448 27.3116 42.7656 30.9395H47.9797C47.7425 28.0888 46.5545 25.4317 44.5673 23.3364C43.2946 23.9808 41.7297 23.9932 40.4005 23.2302C39.0702 22.4662 38.2984 21.1116 38.2244 19.6918C37.2691 19.4706 36.2914 19.3591 35.3105 19.3595C33.4079 19.3595 31.5693 19.7724 29.8972 20.5556L32.5082 25.052C33.3991 24.6954 34.3506 24.5125 35.311 24.5133Z" fill="#FF6309"/>
<path d="M27.7804 32.0024C27.7804 29.6164 28.9082 27.4879 30.6611 26.1155L28.0512 21.6198C27.4329 22.0494 26.8538 22.5321 26.3204 23.0624C24.81 24.5644 23.7268 26.378 23.1308 28.3572C24.3317 29.1307 25.1269 30.4736 25.1269 32.0024C25.1269 33.5309 24.3317 34.8739 23.1308 35.6472C23.7268 37.6265 24.81 39.4398 26.3204 40.9423C26.8534 41.4723 27.432 41.9549 28.0497 42.3845L30.6601 37.8881C28.9075 36.5159 27.7804 34.3876 27.7804 32.0024Z" fill="#FFB515"/>
<path d="M42.7659 33.0618C42.2466 36.6909 39.1018 39.491 35.311 39.491C34.3205 39.491 33.374 39.2993 32.5072 38.9519L29.8964 43.4485C31.5681 44.2321 33.4077 44.6452 35.3108 44.6452C36.305 44.6452 37.2821 44.5312 38.2267 44.3125C38.2995 42.8908 39.0713 41.5338 40.4026 40.7693C41.7323 40.006 43.2978 40.0179 44.5705 40.6638C46.5558 38.5681 47.7431 35.9114 47.9792 33.0618H42.7659Z" fill="#C90016"/>
</g>
<defs>
<filter id="filter0_d_193_4030" x="0.692993" y="0" width="64.3129" height="64" filterUnits="userSpaceOnUse" color-interpolation-filters="sRGB">
<feFlood flood-opacity="0" result="BackgroundImageFix"/>
<feColorMatrix in="SourceAlpha" type="matrix" values="0 0 0 0 0 0 0 0 0 0 0 0 0 0 0 0 0 0 127 0" result="hardAlpha"/>
<feOffset/>
<feGaussianBlur stdDeviation="2"/>
<feComposite in2="hardAlpha" operator="out"/>
<feColorMatrix type="matrix" values="0 0 0 0 0 0 0 0 0 0 0 0 0 0 0 0 0 0 0.1 0"/>
<feBlend mode="normal" in2="BackgroundImageFix" result="effect1_dropShadow_193_4030"/>
<feBlend mode="normal" in="SourceGraphic" in2="effect1_dropShadow_193_4030" result="shape"/>
</filter>
</defs>
</svg>
