<svg width="65" height="64" viewBox="0 0 65 64" fill="none" xmlns="http://www.w3.org/2000/svg">
<g filter="url(#filter0_d_193_4494)">
<rect x="4" y="4" width="56.3129" height="56" rx="16" fill="white" shape-rendering="crispEdges"/>
<path d="M47.4115 21.0492L32.9839 47.1495C32.686 47.6884 31.9207 47.6916 31.6183 47.1553L16.9047 21.0517C16.5753 20.4674 17.0692 19.7595 17.7238 19.878L32.1669 22.4896C32.259 22.5063 32.3534 22.5061 32.4454 22.4891L46.5864 19.8816C47.2388 19.7613 47.735 20.4637 47.4115 21.0492Z" fill="url(#paint0_linear_193_4494)"/>
<path d="M39.0468 16.4521L28.37 18.5687C28.2847 18.5856 28.2074 18.6307 28.1502 18.6969C28.093 18.7631 28.0592 18.8467 28.054 18.9345L27.3973 30.1564C27.3937 30.2179 27.4043 30.2795 27.4283 30.3361C27.4523 30.3928 27.4891 30.443 27.5356 30.4828C27.5821 30.5226 27.6372 30.5509 27.6965 30.5654C27.7557 30.5799 27.8174 30.5802 27.8768 30.5664L30.8494 29.8724C31.1275 29.8074 31.3789 30.0553 31.3216 30.3382L30.4385 34.7134C30.3791 35.0079 30.6523 35.2596 30.9365 35.1722L32.7726 34.6079C33.0572 34.5205 33.3307 34.773 33.2705 35.0677L31.867 41.9401C31.7792 42.37 32.3444 42.6044 32.5801 42.2359L32.7376 41.9897L41.4376 24.4243C41.5834 24.1302 41.332 23.7948 41.0129 23.8572L37.953 24.4546C37.6655 24.5107 37.4209 24.2398 37.502 23.9553L39.4991 16.9513C39.5803 16.6661 39.3347 16.3951 39.0469 16.4521H39.0468Z" fill="url(#paint1_linear_193_4494)"/>
</g>
<defs>
<filter id="filter0_d_193_4494" x="0" y="0" width="64.3129" height="64" filterUnits="userSpaceOnUse" color-interpolation-filters="sRGB">
<feFlood flood-opacity="0" result="BackgroundImageFix"/>
<feColorMatrix in="SourceAlpha" type="matrix" values="0 0 0 0 0 0 0 0 0 0 0 0 0 0 0 0 0 0 127 0" result="hardAlpha"/>
<feOffset/>
<feGaussianBlur stdDeviation="2"/>
<feComposite in2="hardAlpha" operator="out"/>
<feColorMatrix type="matrix" values="0 0 0 0 0 0 0 0 0 0 0 0 0 0 0 0 0 0 0.1 0"/>
<feBlend mode="normal" in2="BackgroundImageFix" result="effect1_dropShadow_193_4494"/>
<feBlend mode="normal" in="SourceGraphic" in2="effect1_dropShadow_193_4494" result="shape"/>
</filter>
<linearGradient id="paint0_linear_193_4494" x1="16.5455" y1="21.9838" x2="32.3406" y2="43.1873" gradientUnits="userSpaceOnUse">
<stop stop-color="#41D1FF"/>
<stop offset="1" stop-color="#BD34FE"/>
</linearGradient>
<linearGradient id="paint1_linear_193_4494" x1="33.5054" y1="17.0268" x2="36.7801" y2="39.2306" gradientUnits="userSpaceOnUse">
<stop stop-color="#FFEA83"/>
<stop offset="0.083" stop-color="#FFDD35"/>
<stop offset="1" stop-color="#FFA800"/>
</linearGradient>
</defs>
</svg>
