<svg width="64" height="64" viewBox="0 0 64 64" fill="none" xmlns="http://www.w3.org/2000/svg">
<g filter="url(#filter0_d_193_4566)">
<rect x="4" y="4" width="56" height="56" rx="16" fill="white" shape-rendering="crispEdges"/>
<path d="M18.6558 31.9997C18.6558 37.282 21.7254 41.8465 26.1766 44.0099L19.8111 26.5688C19.048 28.2776 18.6543 30.1282 18.6558 31.9997ZM41.0089 31.3263C41.0089 29.6771 40.4165 28.5349 39.9084 27.646C39.232 26.5467 38.5982 25.6159 38.5982 24.5166C38.5982 23.2899 39.5283 22.1481 40.8388 22.1481C40.8979 22.1481 40.954 22.1554 41.0119 22.1587C38.6375 19.9836 35.4744 18.6556 32.0003 18.6556C27.3383 18.6556 23.2367 21.0476 20.8507 24.6705C21.1637 24.6799 21.459 24.6863 21.7094 24.6863C23.1052 24.6863 25.2658 24.5169 25.2658 24.5169C25.9852 24.4745 26.07 25.531 25.3516 25.6161C25.3516 25.6161 24.6285 25.7012 23.8241 25.7433L28.6836 40.1978L31.6042 31.4393L29.5248 25.7431C28.8062 25.7009 28.1255 25.6159 28.1255 25.6159C27.4064 25.5737 27.4907 24.4742 28.2098 24.5166C28.2098 24.5166 30.4136 24.686 31.7248 24.686C33.1203 24.686 35.2812 24.5166 35.2812 24.5166C36.0011 24.4742 36.0856 25.5308 35.3668 25.6159C35.3668 25.6159 34.6423 25.7009 33.8394 25.7431L38.6619 40.0881L39.9927 35.6401C40.5699 33.7944 41.0089 32.4687 41.0089 31.3263Z" fill="#00749A"/>
<path d="M32.2344 33.1669L28.2306 44.801C29.4547 45.1618 30.7242 45.3449 32.0003 45.3449C33.5543 45.3449 35.0446 45.076 36.4317 44.5885C36.3945 44.5303 36.3627 44.4687 36.3368 44.4047L32.2344 33.1669ZM43.7096 25.5973C43.767 26.0224 43.7995 26.4789 43.7995 26.9695C43.7995 28.3236 43.5466 29.8459 42.7848 31.7493L38.7086 43.5345C42.6759 41.221 45.3444 36.9229 45.3444 31.9996C45.3479 29.7618 44.7856 27.5595 43.7096 25.5973Z" fill="#00749A"/>
<path d="M32.0003 16.4445C23.4231 16.4445 16.4446 23.4224 16.4446 31.9996C16.4446 40.5778 23.4228 47.5558 32.0003 47.5558C40.5772 47.5558 47.5567 40.5781 47.5567 31.9996C47.5565 23.4224 40.5772 16.4445 32.0003 16.4445ZM32.0003 46.8425C23.8164 46.8425 17.1578 40.184 17.1578 31.9996C17.1578 23.816 23.8162 17.158 32.0003 17.158C40.1839 17.158 46.842 23.816 46.842 31.9996C46.842 40.184 40.1836 46.8425 32.0003 46.8425Z" fill="#00749A"/>
</g>
<defs>
<filter id="filter0_d_193_4566" x="0" y="0" width="64" height="64" filterUnits="userSpaceOnUse" color-interpolation-filters="sRGB">
<feFlood flood-opacity="0" result="BackgroundImageFix"/>
<feColorMatrix in="SourceAlpha" type="matrix" values="0 0 0 0 0 0 0 0 0 0 0 0 0 0 0 0 0 0 127 0" result="hardAlpha"/>
<feOffset/>
<feGaussianBlur stdDeviation="2"/>
<feComposite in2="hardAlpha" operator="out"/>
<feColorMatrix type="matrix" values="0 0 0 0 0 0 0 0 0 0 0 0 0 0 0 0 0 0 0.1 0"/>
<feBlend mode="normal" in2="BackgroundImageFix" result="effect1_dropShadow_193_4566"/>
<feBlend mode="normal" in="SourceGraphic" in2="effect1_dropShadow_193_4566" result="shape"/>
</filter>
</defs>
</svg>
