<svg width="66" height="64" viewBox="0 0 66 64" fill="none" xmlns="http://www.w3.org/2000/svg">
<g filter="url(#filter0_d_193_5100)">
<rect x="4.9386" y="4" width="56.3129" height="56" rx="16" fill="white" shape-rendering="crispEdges"/>
<path d="M18.7561 18.1296H47.4339V45.8703H18.7561V18.1296Z" fill="#2E001E"/>
<path d="M17.4525 16.8333V47.1666H48.7374V16.8333H17.4525ZM18.7561 18.1296H47.4339V45.8703H18.7561V18.1296Z" fill="#FF2BC2"/>
<path d="M40.1732 29.5759C39.9776 29.4852 39.73 29.4463 39.4171 29.4463C37.7747 29.4463 36.6797 30.7037 36.6797 32.7907C36.6797 35.1759 37.8007 36.1351 39.2607 36.1351C39.5735 36.1351 39.9125 36.0963 40.1601 35.9926V29.5759H40.1732ZM34.3333 32.8944C34.3333 29.8741 36.2886 27.5148 39.4953 27.5148C39.7691 27.5148 39.9125 27.5148 40.1732 27.5407V24.1704C40.1732 24.0926 40.2384 24.0407 40.3035 24.0407H42.4022C42.5065 24.0407 42.5326 24.0796 42.5326 24.1444V35.9926C42.5326 36.3426 42.5326 36.7833 42.5978 37.2629C42.5978 37.3537 42.5978 37.3666 42.5195 37.4055C41.4246 37.924 40.2775 38.1574 39.1825 38.1574C36.3538 38.1574 34.3333 36.4203 34.3333 32.8944ZM29.8883 30.7944L33.5382 37.8333C33.6033 37.937 33.5642 38.0407 33.46 38.0407H31.1918C31.0484 38.0407 30.9832 38.0018 30.9181 37.8722C30.0838 36.1611 29.2365 34.3852 28.3631 32.5444H28.3371C27.5549 34.2814 26.6946 36.174 25.8603 37.8851C25.7952 37.9888 25.73 38.0277 25.6257 38.0277H23.4618C23.3315 38.0277 23.3184 37.924 23.3836 37.8463L26.9553 31.0148L23.5009 24.2222C23.4227 24.1185 23.5009 24.0278 23.5922 24.0278H25.8343C25.9646 24.0278 26.0298 24.0537 26.0689 24.1704C26.8901 25.8944 27.7244 27.5926 28.5065 29.3296H28.5326C29.2886 27.6185 30.1229 25.8944 30.9181 24.1963C30.9832 24.0926 31.0223 24.0278 31.1527 24.0278H33.2514C33.3557 24.0278 33.3948 24.1055 33.3296 24.2222L29.8883 30.7944Z" fill="#FF2BC2"/>
</g>
<defs>
<filter id="filter0_d_193_5100" x="0.938599" y="0" width="64.3129" height="64" filterUnits="userSpaceOnUse" color-interpolation-filters="sRGB">
<feFlood flood-opacity="0" result="BackgroundImageFix"/>
<feColorMatrix in="SourceAlpha" type="matrix" values="0 0 0 0 0 0 0 0 0 0 0 0 0 0 0 0 0 0 127 0" result="hardAlpha"/>
<feOffset/>
<feGaussianBlur stdDeviation="2"/>
<feComposite in2="hardAlpha" operator="out"/>
<feColorMatrix type="matrix" values="0 0 0 0 0 0 0 0 0 0 0 0 0 0 0 0 0 0 0.1 0"/>
<feBlend mode="normal" in2="BackgroundImageFix" result="effect1_dropShadow_193_5100"/>
<feBlend mode="normal" in="SourceGraphic" in2="effect1_dropShadow_193_5100" result="shape"/>
</filter>
</defs>
</svg>
