<svg width="259" height="362" viewBox="0 0 259 362" fill="none" xmlns="http://www.w3.org/2000/svg">
<path d="M166.6 229.357L154.133 226.703V194.901H104.266V226.703L91.7998 229.357L104.266 308.061L154.133 308.062L166.6 229.357Z" fill="#E8E8E8"/>
<path d="M256.051 361.76C255.048 355.329 253.811 337.556 252.188 331.2L220.673 345.212C220.932 346.804 221.22 359.905 221.519 361.76H256.051Z" fill="#E8E8E8"/>
<path d="M36.8864 361.76C37.1851 359.914 37.4744 346.822 37.7358 345.237L6.22106 331.2C4.58773 337.556 3.35045 355.329 2.34912 361.76H36.8864Z" fill="#E8E8E8"/>
<path d="M40.9213 361.76H217.479L217.324 353.449L258.4 330.589L244.703 269.413C241.971 257.209 232.759 247.49 220.719 244.108L159.571 226.933L129.2 293.005L98.8293 226.933L37.6813 244.108C25.6413 247.49 16.4293 257.209 13.6973 269.413L0 330.589L41.0747 353.449L40.9213 361.76Z" fill="#898989"/>
<path d="M97.2599 203.263C100.776 203.235 106.045 203.465 112.332 203.695C124.187 204.129 139.657 204.562 153.803 203.263C168.811 201.886 184.089 196.326 192.832 184.999C248.741 112.574 170.999 7.36739 90.9546 9.59138C31.4719 11.2434 16.5533 203.918 97.2599 203.263Z" fill="#4F4F4F"/>
<path d="M186.32 110.572V84.6418C186.32 57.1018 154.437 22.3085 129.2 22.3085C103.963 22.3085 72.0801 57.1018 72.0801 84.6418V110.572C65.0694 110.572 59.3867 116.154 59.3867 123.039V136.004C59.3867 142.89 65.0694 148.471 72.0801 148.471C72.0801 176.012 103.963 211.802 129.2 211.802C154.437 211.802 186.32 176.012 186.32 148.471C193.331 148.471 199.013 142.89 199.013 136.004V123.039C199.013 116.154 193.331 110.572 186.32 110.572Z" fill="#E8E8E8"/>
<path d="M129.2 211.802V165.675L116.506 163.182C116.506 163.182 119.94 142.631 129.2 123.288V22.3085C151.012 22.3085 177.786 48.2965 184.653 73.1311C185.732 77.0311 186.32 80.9031 186.32 84.6418V110.572C193.33 110.572 199.013 116.154 199.013 123.039V136.004C199.013 142.89 193.33 148.471 186.32 148.471C186.32 167.772 170.664 191.123 152.606 203.368C144.898 208.596 136.75 211.802 129.2 211.802Z" fill="#CCCCCC"/>
<path d="M101.855 65.3208C91.98 85.3421 75.9987 113.318 63.6067 113.691C46.6641 79.5687 63.444 3.06742 125.863 0.130089C217.831 -4.19658 214.723 100.681 208.364 124.691C130.099 104.346 108.088 74.0474 101.855 65.3208Z" fill="#4F4F4F"/>
</svg>
