<svg width="309" height="374" viewBox="0 0 309 374" fill="none" xmlns="http://www.w3.org/2000/svg">
<path d="M190.903 230.889L184.076 226.591V196.951H124.236V226.591L117.363 230.631V314.693H124.236V327.573H184.076V314.693H190.903V230.889Z" fill="#E8E8E8"/>
<path d="M299.13 373.986L298.57 331.306L251.196 343.773L254.53 373.986H299.13Z" fill="#E8E8E8"/>
<path d="M53.7333 373.986L57.0759 343.773L9.70257 331.306L9.1333 373.986H53.7333Z" fill="#E8E8E8"/>
<path d="M57.2 369.693C57.2 369.693 57.144 371.226 57.0466 373.986H251.223C251.116 371.226 251.063 369.693 251.063 369.693C251.263 369.946 288.929 373.186 308.263 342.853C303.983 318.306 292.689 290.746 284.356 272.653C272.956 247.878 233.463 239.305 185.996 225.961L154.143 286.92L122.263 225.961C74.796 239.305 35.3079 247.878 23.9039 272.653C15.5759 290.746 4.27867 318.306 0 342.853C19.34 373.186 57.0027 369.946 57.2 369.693Z" fill="#898989"/>
<path d="M219.436 112.515L221.463 86.1847C221.463 51.7514 188.543 23.8514 154.143 23.8514C119.704 23.8514 86.8175 51.7514 86.8175 86.1847L88.8414 112.49C86.9148 112.954 85.1774 113.838 83.7254 115.082C81.0334 117.377 79.3374 120.767 79.3374 124.582V137.547C79.3374 144.402 84.8575 149.963 91.7269 150.006C91.7269 182.522 130.796 213.345 154.143 213.345C177.476 213.345 216.543 182.526 216.543 150.01C223.396 149.962 228.929 144.407 228.929 137.551V124.587C228.929 118.731 224.876 113.854 219.436 112.515Z" fill="#E8E8E8"/>
<path d="M154.129 213.344V159.738H139.169C139.169 159.738 145.036 131.706 154.129 112.365L154.143 23.8518C188.543 23.8518 221.463 51.7518 221.463 86.1851L219.436 112.516C224.876 113.854 228.929 118.732 228.929 124.588V137.552C228.929 144.408 223.396 149.962 216.543 150.01C216.543 150.042 216.543 150.076 216.543 150.108C216.543 150.552 216.543 150.994 216.516 151.437C216.516 151.441 216.516 151.442 216.516 151.446C216.516 151.56 216.516 151.677 216.503 151.79C216.503 151.982 216.489 152.172 216.476 152.364C216.476 152.372 216.476 152.38 216.476 152.388C214.649 184.008 176.916 213.337 154.129 213.344Z" fill="#CCCCCC"/>
<path d="M219.263 40.1463C219.263 40.1463 206.516 -0.0377502 154.129 -0.000419617H154.116C101.734 -0.0377502 88.9895 40.1463 88.9895 40.1463C80.3695 60.4609 79.8468 87.4169 85.6575 113.753L94.2229 112.581C94.3935 106.76 95.3842 103.154 95.3842 103.154C105.955 89.0956 110.955 64.5543 110.955 64.5543C110.955 64.5543 128.103 69.3089 154.116 70.4116V70.4129H154.129V70.4116C180.143 69.3089 199.796 64.5543 199.796 64.5543C199.796 64.5543 202.303 89.0956 212.876 103.154C212.876 103.154 213.863 106.76 214.036 112.581L222.543 113.753C228.356 87.4169 227.889 60.4609 219.263 40.1463Z" fill="#4F4F4F"/>
</svg>
