<svg width="1450" height="700" viewBox="0 0 1450 700" fill="none" xmlns="http://www.w3.org/2000/svg">
<g id="surface1">
<path id="Vector" d="M1448.29 2.61133H0.282715V685.895H1448.29V2.61133Z" fill="#7BCEF4"/>
<path id="Vector_2" d="M516.586 497.032C513.282 505.185 510.73 514.184 511.371 523.269C512.02 532.363 516.524 541.491 523.56 544.194C533.107 547.864 542.605 539.138 550.138 530.994C563.844 516.186 585.842 491.985 578.399 466.107C572.025 443.933 550.931 449.057 539.529 460.982C530.044 470.897 522.153 483.276 516.586 497.032Z" fill="#C2E4F8"/>
<path id="Vector_3" d="M500.793 586.515C511.513 584.136 517.038 563.417 505.256 558.027C497.441 554.451 486.108 559.867 485.956 571.356C485.832 580.749 493.447 588.149 500.793 586.515Z" fill="#C2E4F8"/>
<path id="Vector_4" d="M768.953 566.181H751.108V579.68H740.216V601.811H751.108V615.311H768.953V601.811H779.837V579.68H768.953V566.181ZM765.786 570.099V583.598H776.678V597.885H765.786V611.392H754.267V597.885H743.382V583.598H754.267V570.099H765.786Z" fill="white"/>
<path id="Vector_5" d="M1221.38 102.736H1203.52V116.236H1192.64V138.367H1203.52V151.866H1221.38V138.367H1232.26V116.236H1221.38V102.736ZM1218.21 106.663V120.162H1229.1V134.449H1218.21V147.948H1206.69V134.449H1195.81V120.162H1206.69V106.663H1218.21Z" fill="white"/>
<path id="Vector_6" d="M88.6996 295.988H70.8546V309.487H59.9697V331.618H70.8546V345.118H88.6996V331.618H99.5845V309.487H88.6996V295.988ZM85.5334 299.906V313.405H96.4183V327.692H85.5334V341.2H74.0139V327.692H63.129V313.405H74.0139V299.906H85.5334Z" fill="white"/>
<path id="Vector_7" d="M85.9966 113.413L64.5923 106.663C60.6605 105.423 58.2876 100.469 59.2878 95.6017L64.7303 69.0478C65.7305 64.1716 69.7244 61.2288 73.6562 62.4692L95.0604 69.2189C98.9923 70.4593 101.365 75.4125 100.365 80.2887L94.9225 106.834C93.9223 111.71 89.9284 114.653 85.9966 113.413Z" fill="#5178BC"/>
<path id="Vector_8" d="M112.81 102.916C112.168 102.403 111.444 102.009 110.664 101.761L89.2532 95.0112C85.3213 93.7708 81.3274 96.7136 80.3272 101.59L74.8848 128.135C74.0846 132.045 75.4504 135.997 78.0371 138.05C78.6855 138.563 79.4029 138.957 80.1893 139.205L101.594 145.955C105.525 147.195 109.519 144.252 110.519 139.376L115.969 112.831C116.769 108.93 115.403 104.977 112.81 102.916ZM110.437 107.518C111.506 108.365 112.009 109.956 111.699 111.479L106.25 138.033C105.85 139.975 104.249 141.155 102.683 140.659L81.2723 133.91C80.9688 133.816 80.679 133.662 80.4169 133.448C79.3477 132.601 78.8373 131.01 79.1546 129.487L84.5971 102.933C84.7902 101.992 85.2662 101.196 85.9422 100.7C86.6182 100.204 87.4045 100.059 88.1702 100.307L109.574 107.056C109.885 107.15 110.175 107.313 110.437 107.518Z" fill="white"/>
<path id="Vector_9" d="M662.143 556.942C662.143 571.955 652.335 584.12 640.229 584.12C628.123 584.12 618.307 571.955 618.307 556.942C618.307 541.928 628.123 529.755 640.229 529.755C652.335 529.755 662.143 541.928 662.143 556.942Z" fill="#5178BC"/>
<path id="Vector_10" d="M1397.77 197.505C1397.77 210.32 1389.39 220.705 1379.06 220.705C1368.73 220.705 1360.35 210.32 1360.35 197.505C1360.35 184.69 1368.73 174.304 1379.06 174.304C1389.39 174.304 1397.77 184.69 1397.77 197.505Z" fill="#5178BC"/>
<path id="Vector_11" d="M722.902 457.792C722.902 464.969 718.212 470.786 712.424 470.786C706.637 470.786 701.946 464.969 701.946 457.792C701.946 450.614 706.637 444.797 712.424 444.797C718.212 444.797 722.902 450.614 722.902 457.792Z" fill="white"/>
<path id="Vector_12" d="M739.136 462.497C736.929 462.497 735.122 464.73 735.122 467.468C735.122 470.214 736.929 472.446 739.136 472.446C741.351 472.446 743.151 470.214 743.151 467.468C743.151 464.73 741.351 462.497 739.136 462.497ZM739.136 476.707C735.032 476.707 731.687 472.566 731.687 467.468C731.687 462.378 735.032 458.229 739.136 458.229C743.247 458.229 746.586 462.378 746.586 467.468C746.586 472.566 743.247 476.707 739.136 476.707Z" fill="#5178BC"/>
<path id="Vector_13" d="M1108.29 64.1115C1104.2 59.0386 1104.2 50.8089 1108.29 45.7359C1112.38 40.6544 1119.02 40.6544 1123.11 45.7359C1127.2 50.8089 1127.2 59.0386 1123.11 64.1115C1119.02 69.1845 1112.38 69.1845 1108.29 64.1115Z" fill="white"/>
<path id="Vector_14" d="M1094.09 75.0528C1095.65 73.1109 1095.65 69.9542 1094.09 68.0122C1092.53 66.0789 1089.98 66.0789 1088.42 68.0122C1086.85 69.9542 1086.85 73.1109 1088.42 75.0528C1089.98 76.9947 1092.53 76.9947 1094.09 75.0528ZM1085.98 65.001C1088.89 61.3994 1093.62 61.3994 1096.52 65.001C1099.43 68.6025 1099.43 74.4625 1096.52 78.064C1093.62 81.6656 1088.89 81.6656 1085.98 78.064C1083.08 74.4625 1083.08 68.6025 1085.98 65.001Z" fill="#5178BC"/>
<path id="Vector_15" d="M1408.03 235.258C1409.6 233.316 1409.6 230.159 1408.03 228.217C1406.47 226.275 1403.92 226.275 1402.36 228.217C1400.79 230.159 1400.79 233.316 1402.36 235.258C1403.92 237.191 1406.47 237.191 1408.03 235.258ZM1399.93 225.206C1402.83 221.596 1407.56 221.596 1410.47 225.206C1413.37 228.808 1413.37 234.668 1410.47 238.269C1407.56 241.871 1402.83 241.871 1399.93 238.269C1397.02 234.668 1397.02 228.808 1399.93 225.206Z" fill="white"/>
<path id="Vector_16" d="M1311.03 588.799C1292.21 602.316 1268.13 594.351 1257.24 571.014C1246.34 547.685 1252.76 517.821 1271.58 504.313C1290.39 490.796 1314.47 498.761 1325.36 522.09C1336.26 545.418 1329.84 575.291 1311.03 588.799Z" fill="white"/>
<path id="Vector_17" d="M1304.13 574.085C1291.86 582.888 1276.17 577.704 1269.07 562.494C1261.97 547.292 1266.15 527.83 1278.41 519.027C1290.68 510.216 1306.37 515.408 1313.47 530.61C1320.56 545.82 1316.38 565.283 1304.13 574.085Z" fill="#C2E4F8"/>
<path id="Vector_18" d="M1222.81 647.528C1223.28 649.743 1223.79 651.942 1224.35 654.123L1231.4 652.053C1230.81 649.829 1230.28 647.587 1229.82 645.312C1229.81 645.286 1229.8 645.261 1229.8 645.235C1227.55 646.364 1225.13 646.929 1222.7 646.894C1222.75 647.1 1222.77 647.314 1222.81 647.528Z" fill="#3B58A8"/>
<path id="Vector_19" d="M1233.95 660.428L1226.87 662.618C1227.26 663.798 1227.68 664.962 1228.1 666.125C1230.52 665.663 1232.89 664.868 1235.16 663.747C1234.75 662.652 1234.33 661.548 1233.95 660.428Z" fill="#3B58A8"/>
<path id="Vector_20" d="M1267.86 634.148C1283.79 612.898 1292.7 582.101 1292.27 549.653L1285.06 549.798C1285.44 579.954 1277.25 608.475 1262.58 628.049C1253.93 639.58 1242.98 647.819 1231.42 652.053L1224.37 654.124C1216.65 655.834 1208.81 655.749 1201.34 653.67C1178.83 647.417 1161.36 622.514 1160.69 595.746C1160.32 581.134 1166.09 563.948 1177.84 559.371C1190.19 554.555 1203.25 566.027 1210.14 580.784C1211.07 582.751 1211.88 584.787 1212.56 586.84C1216.27 598.022 1217.68 609.947 1219.17 622.582C1220.11 630.581 1221.1 638.845 1222.72 646.895C1225.15 646.929 1227.56 646.364 1229.82 645.235C1228.22 637.467 1227.25 629.238 1226.31 621.282C1224.83 608.672 1223.29 595.635 1219.24 583.436C1215.7 572.777 1209.41 563.067 1201.98 556.813C1193.49 549.653 1184.15 547.523 1175.68 550.825C1164.19 555.299 1152.88 572.263 1153.47 596.028C1153.74 606.79 1156.36 617.287 1160.75 626.688C1168.89 644.114 1183.12 657.776 1199.76 662.404C1208.57 664.86 1217.83 664.843 1226.89 662.618L1233.98 660.428C1246.57 655.689 1258.46 646.681 1267.86 634.148Z" fill="#5178BC"/>
<path id="Vector_21" d="M1297.53 559.909C1291.59 564.178 1283.97 561.663 1280.53 554.289C1277.09 546.915 1279.11 537.47 1285.06 533.202C1291.01 528.933 1298.62 531.448 1302.06 538.822C1305.51 546.196 1303.48 555.632 1297.53 559.909Z" fill="#7BCEF4"/>
<path id="Vector_22" d="M98.0263 602.512C86.3206 625.233 61.9847 631.88 43.6638 617.363C25.3429 602.846 19.9833 572.664 31.689 549.943C43.3948 527.222 67.7307 520.575 86.0515 535.092C104.372 549.609 109.732 579.79 98.0263 602.512Z" fill="white"/>
<path id="Vector_23" d="M86.4992 593.359C78.8701 608.167 63.0117 612.496 51.0714 603.034C39.1311 593.581 35.6407 573.906 43.2698 559.097C50.892 544.298 66.7573 539.96 78.6976 549.422C90.638 558.883 94.1283 578.551 86.4992 593.359Z" fill="#C2E4F8"/>
<path id="Vector_24" d="M93.2701 640.556C98.1073 621.22 95.4099 598.797 85.8735 579.03L80.9779 581.964C89.8453 600.335 92.3727 621.084 87.9178 638.893C85.2948 649.383 80.1549 658.755 73.4593 665.914L69.2327 669.966C64.438 674.055 59.0592 677.09 53.3565 678.758C36.1899 683.782 17.1384 675.374 9.04634 659.198C4.6286 650.365 3.67284 637.532 10.4003 630.089C17.473 622.268 29.6748 624.167 38.5953 630.515C39.7847 631.361 40.921 632.29 41.9723 633.284C47.7015 638.692 52.0609 645.466 56.6857 652.637C59.6061 657.175 62.638 661.867 66.0415 666.174C67.7088 665.239 69.2008 663.938 70.4221 662.358C67.1141 658.21 64.1088 653.542 61.199 649.028C56.5848 641.863 51.8166 634.456 45.567 628.563C40.1086 623.41 33.0359 619.919 26.1757 619.002C18.3278 617.954 11.3349 620.327 6.48172 625.693C-0.091792 632.971 -2.99093 647.851 4.1932 662.21C7.44279 668.718 12.2269 674.132 17.9084 678.179C28.443 685.681 42.0732 688.467 54.7689 684.752C61.491 682.782 67.815 679.125 73.3796 674.191L77.5956 670.049C84.8594 662.169 90.4187 651.951 93.2701 640.556Z" fill="#5178BC"/>
<path id="Vector_25" d="M75.3401 584.539C71.6428 591.717 63.9516 593.821 58.1574 589.227C52.37 584.642 50.6731 575.103 54.3773 567.926C58.0746 560.74 65.7658 558.635 71.56 563.221C77.3474 567.815 79.0443 577.353 75.3401 584.539Z" fill="#7BCEF4"/>
<path id="Vector_26" d="M1363.2 497.204L1332.64 456.192C1326.17 447.5 1325.13 434.386 1330.14 424.309L1333.83 427.132C1329.84 435.165 1330.66 445.618 1335.82 452.548L1366.38 493.551L1363.2 497.204Z" fill="#C2E4F8"/>
<path id="Vector_27" d="M1419.49 446.893L1390.56 393.666C1388.16 389.243 1384 386.805 1379.71 387.301L1376.55 387.66L1376.15 382.314L1379.32 381.946C1385.18 381.27 1390.86 384.615 1394.15 390.663L1423.09 443.891L1419.49 446.893Z" fill="#C2E4F8"/>
<path id="Vector_28" d="M1406.01 540.37C1399.14 538.976 1392.55 535.015 1387.2 528.505L1360.31 495.826L1365.36 489.427L1392.25 522.115C1402.94 535.101 1419.82 535.28 1430.68 522.508C1440.54 510.916 1442.19 492.361 1434.59 478.383L1416.61 445.319L1422.6 440.306L1440.58 473.378C1450.16 490.992 1448.08 514.39 1435.65 529.01C1427.4 538.702 1416.39 542.483 1406.01 540.37Z" fill="#5178BC"/>
<path id="Vector_29" d="M1340.72 422.213C1340.15 426.516 1336.87 429.441 1333.39 428.731C1329.92 428.03 1327.56 423.958 1328.13 419.655C1328.7 415.343 1331.98 412.418 1335.46 413.119C1338.93 413.829 1341.29 417.901 1340.72 422.213Z" fill="white"/>
<path id="Vector_30" d="M1378.91 387.146C1378.35 391.458 1375.07 394.375 1371.6 393.674C1368.11 392.964 1365.76 388.9 1366.33 384.589C1366.9 380.277 1370.18 377.351 1373.66 378.061C1377.14 378.771 1379.49 382.835 1378.91 387.146Z" fill="white"/>
<path id="Vector_31" d="M800.867 49.1235C787.947 27.4372 763.301 22.8604 745.815 38.892C728.335 54.915 724.645 85.4897 737.565 107.167C750.491 128.845 775.145 133.43 792.617 117.399C810.103 101.367 813.794 70.8012 800.867 49.1235Z" fill="white"/>
<path id="Vector_32" d="M789.85 59.2353C781.428 45.1029 765.37 42.1173 753.974 52.5626C742.579 63.0079 740.172 82.9319 748.601 97.0558C757.023 111.188 773.088 114.174 784.477 103.728C795.865 93.2832 798.273 73.3592 789.85 59.2353Z" fill="#C2E4F8"/>
<path id="Vector_33" d="M765.651 32.0729C770.934 45.4735 769.771 61.4637 762.46 75.9412L758.008 74.131C764.8 60.6759 765.908 45.8799 761.04 33.5353C758.171 26.2609 753.159 19.9126 746.899 15.2153L742.97 12.5838C738.541 9.95227 733.654 8.09177 728.562 7.22019C713.22 4.59287 696.949 11.5572 690.717 23.4241C687.311 29.8981 687.167 39.0204 693.469 43.9147C700.098 49.0646 710.707 47.07 718.196 42.1045C719.196 41.4382 720.139 40.7217 721.013 39.9632C725.75 35.8358 729.216 30.8158 732.884 25.4983C735.21 22.1335 737.616 18.6597 740.372 15.4332C741.886 16.0073 743.269 16.8453 744.423 17.8929C741.741 21.0021 739.354 24.4633 737.041 27.8114C733.379 33.1163 729.59 38.6056 724.418 43.1102C719.906 47.0449 713.889 49.8859 707.913 50.9041C701.079 52.0648 694.814 50.7617 690.269 47.2292C684.102 42.4439 680.762 32.0855 686.293 21.551C688.802 16.7825 692.707 12.6969 697.477 9.53324C706.32 3.671 718.135 0.968251 729.478 2.91255C735.49 3.93918 741.232 6.18518 746.385 9.374L750.304 12.0726C757.106 17.2518 762.535 24.17 765.651 32.0729Z" fill="#5178BC"/>
<path id="Vector_34" d="M779.223 68.9712C775.139 62.1189 767.352 60.6731 761.826 65.7375C756.301 70.8019 755.128 80.4688 759.212 87.3211C763.303 94.1649 771.09 95.6192 776.616 90.5548C782.141 85.4819 783.313 75.8236 779.223 68.9712Z" fill="#7BCEF4"/>
<path id="Vector_35" d="M568.815 43.4517L599.979 83.7445C606.588 92.2907 607.815 105.379 602.959 115.568L599.228 112.839C603.097 104.712 602.125 94.2754 596.855 87.4658L565.69 47.173L568.815 43.4517Z" fill="#C2E4F8"/>
<path id="Vector_36" d="M513.232 95.0542L542.962 147.597C545.432 151.969 549.625 154.313 553.902 153.723L557.061 153.286L557.544 158.624L554.378 159.061C548.529 159.873 542.797 156.665 539.417 150.686L509.687 98.1425L513.232 95.0542Z" fill="#C2E4F8"/>
<path id="Vector_37" d="M525.368 1.28608C532.252 2.51796 538.901 6.32482 544.351 12.7067L571.729 44.7613L566.769 51.28L539.398 19.2168C528.513 6.4788 511.634 6.69267 500.963 19.7044C491.278 31.5271 489.905 50.1165 497.714 63.9153L516.186 96.5602L510.282 101.702L491.809 69.0653C481.959 51.6649 483.683 28.2249 495.906 13.3226C504.005 3.43332 514.952 -0.587411 525.368 1.28608Z" fill="#5178BC"/>
<path id="Vector_38" d="M592.368 117.912C592.872 113.592 596.107 110.598 599.597 111.222C603.081 111.847 605.495 115.859 604.991 120.187C604.488 124.508 601.253 127.502 597.762 126.877C594.279 126.253 591.865 122.241 592.368 117.912Z" fill="white"/>
<path id="Vector_39" d="M554.747 153.86C555.251 149.531 558.486 146.537 561.976 147.161C565.46 147.786 567.874 151.798 567.37 156.127C566.867 160.447 563.632 163.441 560.141 162.817C556.658 162.192 554.244 158.18 554.747 153.86Z" fill="white"/>
<path id="Vector_40" d="M1342.05 94.4978C1329.34 109.623 1309.15 109.092 1296.96 93.3343C1284.76 77.568 1285.18 52.5197 1297.9 37.4035C1310.61 22.2787 1330.8 22.8091 1342.99 38.5755C1355.18 54.3418 1354.76 79.3816 1342.05 94.4978Z" fill="white"/>
<path id="Vector_41" d="M1334.34 84.558C1326.06 94.413 1312.9 94.0708 1304.96 83.7966C1297.01 73.5224 1297.29 57.1999 1305.57 47.3449C1313.86 37.4898 1327.02 37.832 1334.96 48.1062C1342.9 58.3805 1342.63 74.7029 1334.34 84.558Z" fill="#C2E4F8"/>
<path id="Vector_42" d="M1315.97 65.0606C1320.52 41.0862 1341 19.1242 1368.16 9.10567C1392.58 0.0996285 1421.64 0.0121313 1450 8.86817L1448.09 13.8806C1421.08 5.44325 1393.48 5.49325 1370.37 14.0118C1345.04 23.3553 1325.95 43.7424 1321.75 65.9543L1315.97 65.0606Z" fill="#68A1D7"/>
<path id="Vector_43" d="M1326.94 74.9761C1322.93 79.7582 1316.54 79.5871 1312.69 74.6083C1308.83 69.6209 1308.97 61.7077 1312.99 56.9256C1317 52.1521 1323.39 52.3146 1327.25 57.2935C1331.09 62.2809 1330.96 70.194 1326.94 74.9761Z" fill="#7BCEF4"/>
</g>
</svg>
