<svg width="308" height="374" viewBox="0 0 308 374" fill="none" xmlns="http://www.w3.org/2000/svg">
<path d="M246.629 243.694C246.507 244.269 246.357 244.771 246.205 245.297C244.665 250.76 242.943 255.847 241.07 260.478C237.838 268.471 234.394 275.097 230.013 280.056C227.989 282.379 225.724 284.333 223.186 285.917C218.322 288.95 212.372 290.549 204.82 290.549H92.0786C84.1942 290.549 78.0621 288.8 73.0765 285.521C70.7821 284.018 68.7579 282.188 66.8852 280.056C62.504 275.097 59.0601 268.471 55.8285 260.478C53.9558 255.847 52.233 250.76 50.693 245.297C50.5414 244.771 50.3899 244.269 50.2697 243.743C32.5968 179.22 37.8525 64.8532 77.9106 30.3985C94.345 16.2649 114.675 3.83638 148.449 3.83638C175.214 3.83638 193.551 11.6553 208.172 21.9539C212.009 24.6098 215.573 27.4666 218.988 30.3985C220.347 31.5762 221.676 32.8536 222.944 34.2075C259.377 72.5956 263.697 181.423 246.629 243.694Z" fill="#4F4F4F"/>
<path d="M184.798 234.061V201.475H123.198V234.061L107.798 235.053L123.198 317.421L184.798 317.435L200.198 235.053L184.798 234.061Z" fill="#E8E8E8"/>
<path d="M184.798 234.062L123.198 218.176V207.344C133.27 213.344 144.052 217.077 153.998 217.077C163.945 217.077 174.726 213.344 184.798 207.344V234.062Z" fill="#B0B0B0"/>
<path d="M236.375 373.724C238.01 336.904 237.34 250.533 196.255 237.729L193.859 245.194C189.715 255.044 179.085 255.832 153.847 255.832C125.374 255.832 114.514 250.644 111.142 241.756L109.849 237.729C68.7648 250.533 69.7432 336.904 72.0935 373.724H236.375Z" fill="#898989"/>
<path d="M154 297.871C150.597 297.871 147.84 295.576 147.84 292.761C147.84 289.933 150.597 287.652 154 287.652C157.401 287.652 160.16 289.933 160.16 292.761C160.16 295.576 157.401 297.871 154 297.871Z" fill="#4F4F4F"/>
<path d="M154 348.421C150.597 348.421 147.84 346.139 147.84 343.311C147.84 340.497 150.597 338.202 154 338.202C157.401 338.202 160.16 340.497 160.16 343.311C160.16 346.139 157.401 348.421 154 348.421Z" fill="#4F4F4F"/>
<path d="M154.003 256.953L134.174 274.276L100.268 240.718L121.428 231.977L129.388 238.085L154.003 256.953Z" fill="#4F4F4F"/>
<path d="M186.592 231.985L154.003 256.953L173.832 274.276L207.73 240.707L186.592 231.985Z" fill="#4F4F4F"/>
<path d="M111.997 236.688L51.0177 253.549C36.7755 257.486 26.1504 267.432 23.1478 279.632L0 373.724H124.449C122.857 356.209 111.997 236.688 111.997 236.688Z" fill="#C9C9C9"/>
<path d="M196.003 236.688L256.981 253.549C271.224 257.486 281.85 267.432 284.851 279.632L308 373.724H183.55C185.141 356.209 196.003 236.688 196.003 236.688Z" fill="#C9C9C9"/>
<path d="M104.166 277.514L92.2532 291.013L121.449 373.724H123.58L114.806 230.12L87.8127 241.637L88.857 267.063L104.166 277.514Z" fill="white"/>
<path d="M186.551 373.724L215.747 291.013L203.834 277.514L219.141 267.063L220.187 241.637L193.194 230.12L184.42 373.724H186.551Z" fill="white"/>
<path d="M224.559 113.351V86.7806C224.559 58.5613 185.174 22.9098 153.999 22.9098C122.823 22.9098 83.4386 58.5613 83.4386 86.7806V113.351C74.7783 113.351 67.7585 119.07 67.7585 126.125V139.41C67.7585 146.465 74.7783 152.184 83.4386 152.184C83.4386 180.404 122.823 217.077 153.999 217.077C185.174 217.077 224.559 180.404 224.559 152.184C233.219 152.184 240.239 146.465 240.239 139.41V126.125C240.239 119.07 233.219 113.351 224.559 113.351Z" fill="#E8E8E8"/>
<path d="M153.999 217.077V169.813L138.319 167.258C138.319 167.258 142.56 146.2 153.999 126.381V22.9098C185.174 22.9098 224.559 58.5613 224.559 86.7806V113.351C233.219 113.351 240.239 119.07 240.239 126.125V139.41C240.239 146.465 233.219 152.184 224.559 152.184C224.559 180.404 185.174 217.077 153.999 217.077Z" fill="#CCCCCC"/>
<path d="M196.311 147.493C178.587 147.493 168.033 139.735 164.047 123.778C162.222 116.975 176.803 111.215 196.311 111.215C205.158 111.215 224.685 111.866 224.685 119.134C224.685 123.869 223.316 147.493 196.311 147.493ZM143.951 123.778C139.964 139.735 129.409 147.493 111.685 147.493C84.6802 147.493 83.3115 123.869 83.3115 119.134C83.3115 111.866 102.841 111.215 111.685 111.215C131.193 111.215 145.775 116.975 143.951 123.778ZM234.902 107.527H224.071C217.876 104.045 206.559 104.041 196.311 104.059C179.063 104.059 167.514 106.868 161.937 112.382C160.015 111.472 157.189 111.206 153.998 111.206C150.808 111.206 147.983 111.472 146.06 112.382C140.484 106.868 128.935 104.059 111.685 104.059C101.439 104.041 90.1221 104.045 83.9259 107.527H73.0964V117.235L77.7774 119.392C77.8778 134.538 86.7901 152.093 111.685 152.093C132.158 152.093 144.841 142.879 149.38 124.711C149.709 123.394 149.84 122.118 149.813 120.886C150.125 119.873 151.712 118.87 153.998 118.87C156.286 118.87 157.874 119.873 158.184 120.886C158.157 122.118 158.289 123.394 158.617 124.711C163.158 142.879 175.838 152.093 196.311 152.093C221.207 152.093 230.12 134.538 230.219 119.392L234.902 117.235V107.527Z" fill="white"/>
<path d="M80.5066 209.257C58.2499 147.646 42.6901 109.416 54.8487 67.8434C78.4626 -12.899 197.324 -17.6862 209.363 32.9842C211.924 43.7692 238.124 54.4107 224.573 107.527C223.532 107.221 193.027 77.2662 185.077 61.7828C80.5066 61.5137 115.498 190.107 80.5066 209.257Z" fill="#4F4F4F"/>
<path d="M123.255 229.831V224.246C75.3764 244.379 95.4853 348.176 96.3945 352.725L96.8689 355.103L102.609 354.31L102.133 351.933C101.922 350.881 82.6054 251.327 123.255 229.831Z" fill="#A4A6A9"/>
<path d="M190.721 306.902C191.156 300.166 194.264 284.509 213.694 284.509C233.126 284.509 236.234 300.166 236.669 306.902C237.697 322.859 228.907 341.016 213.694 350.73C198.484 341.016 189.692 322.859 190.721 306.902ZM233.663 357.575C228.261 357.097 223.255 355.648 218.703 353.49C234.51 342.533 243.562 323.46 242.478 306.642C241.404 290.015 230.376 279.686 213.694 279.686C197.013 279.686 185.986 290.015 184.912 306.642C183.826 323.46 192.879 342.533 208.686 353.49C204.133 355.648 199.129 357.097 193.727 357.575C192.128 357.711 190.971 358.9 191.144 360.225C191.303 361.468 192.564 362.384 194.033 362.384L194.346 362.37C201.44 361.742 207.926 359.665 213.694 356.564C219.462 359.665 225.948 361.742 233.044 362.37L233.355 362.384C234.824 362.384 236.086 361.468 236.246 360.225C236.419 358.9 235.263 357.711 233.663 357.575Z" fill="#A4A6A9"/>
<path d="M102.203 328.461C89.3712 328.461 78.9304 337.123 78.9304 347.766C78.9304 358.408 89.3712 367.07 102.203 367.07C115.036 367.07 125.475 358.408 125.475 347.766C125.475 337.123 115.036 328.461 102.203 328.461ZM102.203 333.297C111.842 333.297 119.657 339.773 119.657 347.766C119.657 355.772 111.842 362.248 102.203 362.248C92.5632 362.248 84.7495 355.772 84.7495 347.766C84.7495 339.773 92.5632 333.297 102.203 333.297Z" fill="#A4A6A9"/>
<path d="M114.649 347.766C114.649 353.477 109.077 358.095 102.203 358.095C95.3303 358.095 89.7566 353.477 89.7566 347.766C89.7566 342.069 95.3303 337.451 102.203 337.451C109.077 337.451 114.649 342.069 114.649 347.766Z" fill="#A4A6A9"/>
<path d="M219.749 281.198C219.63 278.971 216.593 230.591 185.294 218.257V223.874C210.748 236.878 213.509 280.909 213.536 281.405L213.669 283.836L219.882 283.63L219.749 281.198Z" fill="#A4A6A9"/>
</svg>
