<svg width="309" height="379" viewBox="0 0 309 379" fill="none" xmlns="http://www.w3.org/2000/svg">
<path d="M193.398 233.119L184.074 228.82V199.18H124.234V228.82L114.87 232.86L117.363 316.918H124.234V329.806H184.074V316.918H190.904L193.398 233.119Z" fill="#E8E8E8"/>
<path d="M231.683 378.589C232.819 334.417 230.375 246.892 194.235 233.314L192.009 241.665C188.164 252.688 178.299 270.714 154.876 270.714C128.452 270.714 118.371 247.764 115.243 237.821L114.043 233.314C77.9027 246.892 76.8334 334.417 78.6774 378.589H231.683Z" fill="#898989"/>
<path d="M168.535 266.595L162.791 277.597H145.311L139.731 266.595L154.134 254.822L168.535 266.595Z" fill="#3C3948"/>
<path d="M154.138 254.824L135.735 274.198L104.267 236.657L123.906 226.878L131.292 233.713L154.138 254.824Z" fill="#4F4F4F"/>
<path d="M184.383 226.888L154.139 254.82L172.54 274.208L204 236.647L184.383 226.888Z" fill="#4F4F4F"/>
<path d="M165.893 378.589L162.837 280.226H145.357L142.372 378.589H165.893Z" fill="#3C3948"/>
<path d="M13.7099 284.288L0 378.589H151.01C140.668 338.453 113.028 231.194 113.028 231.194L48.0391 246.717C29.9828 251.03 16.3801 265.917 13.7099 284.288Z" fill="#C9C9C9"/>
<path d="M260.364 246.641L196.68 231.194C196.68 231.194 169.041 338.453 158.699 378.589H308.265L294.54 284.174C291.877 265.86 278.349 251.002 260.364 246.641Z" fill="#C9C9C9"/>
<path d="M107.648 277.098L96.5364 292.288L145.32 378.589H150.574L117.575 223.809L92.395 236.761L93.3697 265.352L107.648 277.098Z" fill="white"/>
<path d="M162.946 378.589L211.73 292.288L200.618 277.098L214.896 265.352L215.871 236.761L190.691 223.809L157.692 378.589H162.946Z" fill="white"/>
<path d="M220.324 115.507L222.35 89.1735C222.35 54.7468 189.437 26.8402 155.029 26.8402C120.597 26.8402 87.7095 54.7468 87.7095 89.1735L89.7335 115.48C87.8068 115.947 86.0695 116.827 84.6188 118.08C81.9255 120.373 80.2295 123.76 80.2295 127.574V140.541C80.2295 147.396 85.7495 152.958 92.6202 153C92.6202 185.516 131.688 216.339 155.029 216.339C178.372 216.339 217.44 185.52 217.44 153.004C224.284 152.956 229.82 147.401 229.82 140.547V127.587C229.82 121.72 225.767 116.854 220.324 115.507Z" fill="#E8E8E8"/>
<path d="M155.039 216.339H155.02V162.732H140.059C140.059 162.732 145.924 134.693 155.02 115.36V26.8402C155.024 26.8402 155.026 26.8402 155.03 26.8402C189.438 26.8402 222.35 54.7468 222.35 89.1735L220.324 115.507C225.767 116.854 229.82 121.72 229.82 127.587V140.547C229.82 147.401 224.284 152.956 217.44 153.004C217.44 153.036 217.44 153.069 217.44 153.102C217.439 153.546 217.431 153.988 217.415 154.432C217.415 154.436 217.415 154.437 217.415 154.441C217.411 154.553 217.406 154.671 217.402 154.784C217.394 154.976 217.383 155.167 217.372 155.357C217.372 155.365 217.371 155.375 217.371 155.383C217.316 156.328 217.23 157.273 217.112 158.213C217.111 158.217 217.111 158.22 217.111 158.224C213.29 188.737 177.127 216.332 155.039 216.339Z" fill="#CCCCCC"/>
<path d="M225.417 115.227C223.825 121.987 221.824 125.693 219.451 131.027C218.956 132.147 217.293 131.8 217.283 130.587C217.223 123.467 217.14 111.933 217.14 111.933L203.177 69.6C203.177 69.6 181.036 74.3599 155.005 75.4532C129 74.3599 106.86 69.6 106.86 69.6L92.672 111.933C92.672 111.933 92.684 123.24 92.684 130.387C92.684 131.627 90.9827 131.96 90.5067 130.813C88.2894 125.493 85.3627 118.387 84.6187 115.227C81.1787 100.613 79.6574 86.0532 80.38 72.4932C80.6547 67.6265 81.1787 62.8932 82.0507 58.3199C83.2227 51.9466 84.9934 45.8533 87.3867 40.2C87.3867 40.2 102.621 -0.000106812 155.005 0.0532379C156.103 0.0265656 157.149 -3.05176e-05 158.197 -3.05176e-05C172.335 -3.05176e-05 182.308 2.67992 191.881 7.41325C191.881 7.41325 207.565 15.0132 220.531 8.78656C220.955 8.58656 221.453 8.90656 221.403 9.38657C221.179 11.1199 220.431 14.6933 217.888 18.0133C221.253 18.1599 225.044 17.9065 229.456 16.9599L229.607 16.9333V17.1066C229.931 25.8933 226.888 33.6933 222.649 40.2C224.993 45.76 226.739 51.7199 227.936 57.9733C228.808 62.5333 229.357 67.2799 229.631 72.1066C230.404 85.7999 228.908 100.467 225.417 115.227Z" fill="#4F4F4F"/>
<path d="M193.127 145.135C175.111 145.135 169.46 135.677 166.518 121.48C165.839 118.2 166.39 115.453 168.152 113.28C170.644 110.226 177 106.573 193.127 106.573C216.5 106.573 216.5 118.173 216.5 121.986C216.5 134.013 213.668 145.135 193.127 145.135ZM144.371 121.48C141.427 135.677 135.776 145.135 117.76 145.135C97.2189 145.135 94.3869 134.013 94.3869 121.986C94.3869 118.173 94.3869 106.573 117.76 106.573C133.887 106.573 140.243 110.226 142.735 113.28C144.498 115.453 145.048 118.2 144.371 121.48ZM225.208 105.24H211.715C207.45 103.013 201.482 101.586 193.127 101.586C179.234 101.586 169.804 104.24 164.964 109.44C162.676 108.187 159.26 106.76 155.395 106.76C151.566 106.76 148.178 108.16 145.888 109.413C141.039 104.24 131.623 101.586 117.76 101.586C109.406 101.586 103.438 103.013 99.1722 105.24H85.5815V114.96L90.0429 116.533C89.5869 118.36 89.4002 120.2 89.4002 121.986C89.4002 134.066 92.3402 150.121 117.76 150.121C140.464 150.121 146.42 136.152 149.252 122.493C149.682 120.413 149.727 118.44 149.44 116.586C150.548 115.88 152.375 115.267 155.395 115.267C158.494 115.267 160.34 115.92 161.438 116.64C161.162 118.48 161.21 120.44 161.635 122.493C164.467 136.152 170.423 150.121 193.127 150.121C218.547 150.121 221.487 134.066 221.487 121.986C221.487 120.186 221.298 118.333 220.835 116.493L225.208 114.96V105.24Z" fill="white"/>
<path d="M211.668 281.929C211.572 279.648 209.138 230.089 184.047 217.454V223.208C204.452 236.529 206.666 281.633 206.687 282.141L206.794 284.632L211.775 284.421L211.668 281.929Z" fill="#A4A6A9"/>
<path d="M124.207 222.625V216.856C83.1695 237.657 100.406 344.905 101.184 349.605L101.591 352.063L106.511 351.25L106.103 348.789C105.922 347.698 89.3655 244.838 124.207 222.625Z" fill="#A4A6A9"/>
<path d="M189.487 307.658C189.859 300.703 192.523 284.529 209.177 284.529C225.832 284.529 228.496 300.703 228.868 307.658C229.751 324.15 222.215 342.91 209.177 352.95C196.139 342.91 188.604 324.15 189.487 307.658ZM226.292 360.022C221.661 359.526 217.372 358.035 213.471 355.809C227.019 344.479 234.777 324.779 233.848 307.39C232.927 290.214 223.475 279.542 209.177 279.542C194.88 279.542 185.427 290.214 184.507 307.39C183.577 324.779 191.336 344.479 204.884 355.809C200.983 358.035 196.693 359.526 192.063 360.022C190.692 360.169 189.7 361.398 189.849 362.766C189.985 364.047 191.067 364.994 192.325 364.994L192.593 364.979C198.673 364.327 204.233 362.181 209.177 358.977C214.121 362.181 219.68 364.327 225.761 364.979L226.029 364.994C227.288 364.994 228.369 364.045 228.505 362.766C228.653 361.398 227.663 360.169 226.292 360.022Z" fill="#A4A6A9"/>
<path d="M103.644 329.946C92.6458 329.946 83.6978 338.893 83.6978 349.892C83.6978 360.891 92.6458 369.839 103.644 369.839C114.643 369.839 123.591 360.891 123.591 349.892C123.591 338.893 114.643 329.946 103.644 329.946ZM103.644 334.932C111.906 334.932 118.604 341.629 118.604 349.892C118.604 358.155 111.906 364.852 103.644 364.852C95.3818 364.852 88.6844 358.155 88.6844 349.892C88.6844 341.629 95.3818 334.932 103.644 334.932Z" fill="#A4A6A9"/>
<path d="M114.311 349.892C114.311 355.784 109.535 360.56 103.644 360.56C97.7521 360.56 92.9761 355.784 92.9761 349.892C92.9761 344 97.7521 339.225 103.644 339.225C109.535 339.225 114.311 344 114.311 349.892Z" fill="#A4A6A9"/>
</svg>
