<svg width="601" height="450" viewBox="0 0 601 450" fill="none" xmlns="http://www.w3.org/2000/svg">
<path d="M262.964 449.576C315.797 452.296 365.924 442.336 400.474 407.342C430.178 377.25 445.493 338.943 477.769 310.398C496.095 294.187 519.021 282.213 540.478 268.926C561.928 255.639 582.672 240.254 593.83 220.031C621.905 169.129 562.352 109.312 504.996 95.7146C456.591 84.243 402.247 96.2161 356.074 79.5455C325.224 68.4059 302.604 46.0207 275.198 29.8021C239.784 8.85086 193.738 -1.62477 151.84 7.9467C109.935 17.5252 74.8425 49.715 74.5286 85.8888C74.3589 105.858 84.0908 125.305 83.0132 145.26C81.206 178.933 53.5886 201.827 33.1831 228.175C12.3363 255.081 14.8817 297.189 26.9978 326.193C46.0882 371.874 96.8686 402.433 146.894 423.221C183.004 438.232 222.636 447.5 262.964 449.576Z" fill="#C2E4F8"/>
<path d="M57.8883 304.141H97.4787L63.7619 278.139L51.4238 286.383L57.8883 304.141Z" fill="#B8C4C3"/>
<path d="M51.4231 286.383L63.7612 278.139H36.5718L53.7813 304.141H57.8875L51.4231 286.383Z" fill="#A1ABAB"/>
<path d="M197.158 204.965C197.764 208.311 200.87 220.458 193.437 213.854C189.302 210.186 187.308 201.78 185.461 197.108C182.851 190.484 181.123 183.373 177.244 177.237C173.324 171.033 168.026 166.997 160.89 163.494C156.37 161.281 149.041 157.629 148.764 152.855C149.474 152.835 149.673 152.565 149.213 149.243C159.784 151.037 170.662 158.507 178.998 163.95C189.558 170.851 190.393 181.039 193.865 191.17C195.467 195.85 196.292 200.212 197.158 204.965ZM143.283 143.922C143.534 145.026 143.68 146.163 143.68 147.332C143.68 153.335 140.172 158.644 134.796 161.962C146.791 166.119 159.439 171.384 166.1 176.874C181.097 189.238 189.068 243.199 166.1 261.63C161.303 265.48 158.703 289.661 158.703 289.665L159.622 292.092C172.567 284.391 191.161 272.527 199.173 263.541C212.067 249.076 202.086 188.598 191.328 170.674C184.009 158.487 162.331 149.622 143.283 143.922Z" fill="#B8C4C3"/>
<path d="M158.706 289.664C158.706 289.66 161.306 265.48 166.101 261.63C189.067 243.198 181.098 189.238 166.101 176.874C159.442 171.383 146.796 166.118 134.795 161.962C131.158 164.199 126.679 165.537 121.813 165.537C118.192 165.537 114.784 164.795 111.772 163.497L105.551 174.548C119.716 173.959 155.217 173.729 162.926 185.666C168.305 193.991 175.075 236.942 166.101 248.141C161.778 253.543 153.947 257.3 146.984 259.759C147.558 260.598 148.066 261.473 148.426 262.42L158.706 289.664Z" fill="#A3ADAC"/>
<path d="M28.3981 274.578C21.4301 274.578 15.784 271.607 15.784 267.947V260.811L57.9264 269.378V274.578H28.3981ZM63.7613 263.109L10.5107 250.704V264.871C10.5107 272.2 17.6483 278.138 26.4467 278.138H36.5719H63.7613V263.109Z" fill="#868D8D"/>
<path d="M57.926 269.378L15.7837 260.811V267.946C15.7837 271.607 21.4298 274.578 28.3978 274.578H57.926V269.378Z" fill="#8F9898"/>
<path d="M130.701 252.917C131.36 252.849 132.024 252.808 132.702 252.808C132.024 252.808 131.36 252.853 130.701 252.917Z" fill="#A3ADAC"/>
<path d="M128.661 253.241C129.272 253.116 129.892 253.015 130.522 252.942C129.887 253.011 129.272 253.116 128.661 253.241Z" fill="#A3ADAC"/>
<path d="M124.909 265.798C124.909 262.06 128.541 259.029 133.037 259.029C137.523 259.029 141.161 262.06 141.161 265.798C141.161 269.535 137.523 272.562 133.037 272.562C128.541 272.562 124.909 269.535 124.909 265.798ZM140.308 262.419C138.567 257.815 134.1 254.396 128.663 253.239C121.52 254.743 116.219 260.117 116.219 266.531V304.14H156.043L140.308 262.419Z" fill="#A3ADAC"/>
<path d="M148.429 262.42C148.074 261.472 147.562 260.597 146.985 259.759C144.103 255.538 138.709 252.809 132.704 252.809C132.025 252.809 131.36 252.849 130.704 252.918L130.522 252.942C129.892 253.014 129.276 253.115 128.665 253.24C134.099 254.397 138.566 257.816 140.305 262.42L156.044 304.141H164.143L164.172 304.145L159.626 292.091L158.709 289.664L148.429 262.42Z" fill="#949D9D"/>
<path d="M141.16 265.798C141.16 262.061 137.518 259.029 133.034 259.029C128.541 259.029 124.904 262.061 124.904 265.798C124.904 269.535 128.541 272.563 133.034 272.563C137.518 272.563 141.16 269.535 141.16 265.798Z" fill="#7A8181"/>
<path d="M72.8393 256.014L3.74476 239.92L2.30664 244.194L71.406 260.283L72.8393 256.014Z" fill="#CCD4D4"/>
<path d="M69.9695 264.552L71.4077 260.283L2.30834 244.194L0.875 248.463L10.5111 250.704L63.7617 263.109L69.9695 264.552Z" fill="#B8C4C3"/>
<path d="M38.4796 220.315L45.2007 208.374L52.5609 211.245L45.8399 223.182L38.4796 220.315ZM58.1441 213.422L47.2295 209.165L40.8135 206.665L36.8574 219.678L59.6452 228.572L51.423 225.363L58.1441 213.422Z" fill="#CCD4D6"/>
<path d="M48.0568 177.994L89.3857 104.558C90.1217 103.256 92.0053 102.687 93.5694 103.296L95.487 104.046C97.051 104.659 97.7338 106.223 97.0026 107.529L55.6737 180.969C54.9377 182.271 53.054 182.836 51.49 182.227L49.5724 181.477C48.0035 180.868 47.3208 179.3 48.0568 177.994ZM47.9793 188.589L49.3642 189.129L66.7577 195.914L117.655 105.481L97.8548 97.7568L91.3855 95.2332L40.4932 185.666L47.9793 188.589Z" fill="#3D4D57"/>
<path d="M99.941 147.331C99.941 137.277 109.732 129.126 121.814 129.126C124.825 129.126 127.702 129.633 130.317 130.553L139.604 114.044L117.654 105.481L66.7568 195.914L67.7737 196.309L88.7117 204.477L105.553 174.547L111.775 163.497C104.749 160.47 99.941 154.37 99.941 147.331Z" fill="#344149"/>
<path d="M142.535 62.3613L122.953 54.7218L118.847 53.1213L100.654 85.4492L124.343 94.6892L142.535 62.3613Z" fill="#A3ADAC"/>
<path d="M149.345 65.0182L142.529 62.3614L124.339 94.6891L144.131 102.414L162.33 70.0859L149.345 65.0182Z" fill="#969F9F"/>
<path d="M104.04 86.7708L97.8508 97.7567L117.653 105.481L139.602 114.044L144.425 115.922L124.25 108.053L130.434 97.0672L150.609 104.936L144.135 102.413L124.342 94.6888L100.65 85.4488L92.7464 82.3648L86.562 93.3542L88.9738 94.2936L95.1534 83.3042L104.04 86.7708Z" fill="#B8C4C3"/>
<path d="M97.8548 97.7573L104.043 86.7717L95.1577 83.3047L88.9741 94.2943L91.3856 95.2337L97.8548 97.7573Z" fill="#D2DCD4"/>
<path d="M130.437 97.0672L124.252 108.053L144.428 115.922L150.612 104.936L130.437 97.0672Z" fill="#A9B4B3"/>
<path d="M129.133 43.7371L122.954 54.7224L142.534 62.3622L149.347 65.0188L155.531 54.0331L117.837 39.3308L111.653 50.3205L114.065 51.2597L120.249 40.27L129.133 43.7371Z" fill="#B8C4C3"/>
<path d="M122.952 54.7214L129.135 43.7358L120.249 40.2688L114.066 51.2584L118.845 53.121L122.952 54.7214Z" fill="#D2DCD4"/>
<path d="M149.349 65.0167L162.336 70.0841L169.527 72.886L175.713 61.9003L155.535 54.031L149.349 65.0167Z" fill="#A9B4B3"/>
<path d="M56.8603 192.052L47.229 209.165L58.1435 213.422L67.7748 196.309L66.758 195.914L49.3645 189.129L56.8603 192.052Z" fill="#B8C4C3"/>
<path d="M40.4924 185.665L37.0737 205.206L38.3424 205.701L47.9785 188.588L40.4924 185.665Z" fill="#B8C4C3"/>
<path d="M58.1449 213.422L51.4238 225.363L59.646 228.572L69.1272 217.707L58.1449 213.422Z" fill="#BEC4C6"/>
<path d="M67.7734 196.309L58.1421 213.422L69.1244 217.707L72.8578 219.167L88.7114 204.476L67.7734 196.309Z" fill="#A9B4B3"/>
<path d="M49.5738 181.477L51.4913 182.227C53.0553 182.836 54.939 182.271 55.675 180.969L97.0039 107.529C97.7351 106.223 97.0523 104.658 95.4883 104.046L93.5707 103.296C92.0066 102.687 90.123 103.256 89.387 104.558L48.0581 177.994C47.3221 179.3 48.0049 180.868 49.5738 181.477Z" fill="#485A67"/>
<path d="M47.2279 209.165L56.8592 192.052L49.3633 189.129L47.9784 188.589L38.3423 205.702L40.8118 206.666L47.2279 209.165Z" fill="#D2DCD4"/>
<path d="M45.2001 208.375L38.479 220.316L45.8393 223.182L52.5603 211.245L45.2001 208.375Z" fill="#E3E1E0"/>
<path d="M133.034 147.331C133.034 152.491 128.008 156.672 121.815 156.672C115.617 156.672 110.595 152.491 110.595 147.331C110.595 142.175 115.617 137.995 121.815 137.995C128.008 137.995 133.034 142.175 133.034 147.331ZM99.9424 147.331C99.9424 154.37 104.751 160.47 111.777 163.497C114.784 164.795 118.193 165.537 121.815 165.537C126.681 165.537 131.161 164.199 134.797 161.961C140.177 158.643 143.683 153.334 143.683 147.331C143.683 146.162 143.537 145.025 143.286 143.921C141.906 137.878 136.952 132.887 130.318 130.553C127.703 129.633 124.827 129.125 121.815 129.125C109.733 129.125 99.9424 137.277 99.9424 147.331Z" fill="#A3ADAC"/>
<path d="M110.595 147.331C110.595 152.491 115.616 156.672 121.814 156.672C128.008 156.672 133.034 152.491 133.034 147.331C133.034 142.175 128.008 137.994 121.814 137.994C115.616 137.994 110.595 142.175 110.595 147.331Z" fill="#7A8181"/>
<path d="M179.003 163.949C170.663 158.506 159.789 151.036 149.218 149.242C149.677 152.564 149.481 152.834 148.765 152.854C149.043 157.628 156.374 161.28 160.891 163.493C168.031 166.997 173.326 171.032 177.252 177.236C181.131 183.372 182.856 190.483 185.468 197.107C187.312 201.779 189.306 210.185 193.442 213.854C200.875 220.457 197.769 208.31 197.161 204.964C196.296 200.211 195.472 195.849 193.87 191.169C190.398 181.038 189.563 170.85 179.003 163.949Z" fill="#CED3D4"/>
<path d="M0 331.679V344.273H186.289V331.679H176.641H9.64773H0Z" fill="#B8C4C3"/>
<path d="M158.247 324.726H12.9023V314.03C12.9023 309.616 17.2045 306.032 22.5122 306.032H148.637C153.944 306.032 158.247 309.616 158.247 314.03V324.726ZM156.036 304.141H116.215H97.4755H57.8853H53.7782H22.137C15.2335 304.141 9.64062 308.801 9.64062 314.546V331.68H176.636V314.546C176.636 308.81 171.053 304.158 164.17 304.145L164.14 304.141H156.036Z" fill="#A3ADAC"/>
<path d="M148.636 306.032H22.5102C17.2048 306.032 12.9019 309.616 12.9019 314.03V324.726H158.244V314.03C158.244 309.616 153.946 306.032 148.636 306.032Z" fill="#B3BEBE"/>
<path d="M396.465 38.1608L488.974 325.596C490.727 331.042 486.842 336.649 480.294 338.11L485.584 336.93C492.124 335.47 496.01 329.863 494.257 324.418L401.748 36.9823C399.995 31.5367 393.265 28.3054 386.724 29.7645L381.434 30.9446C387.982 29.4839 394.712 32.7152 396.465 38.1608Z" fill="#3B58A8"/>
<path d="M246.503 390.264L251.786 389.085L480.293 338.11C486.841 336.649 490.726 331.042 488.974 325.597L396.464 38.1611C394.712 32.7155 387.982 29.4843 381.434 30.945L312.901 46.2332L315.989 55.8278L384.204 40.6104L477.068 329.148L243.916 381.16L151.051 92.622L219.268 77.4042L216.18 67.8096L152.927 81.9201L147.644 83.0986C141.099 84.5587 137.215 90.1578 138.967 95.6034L231.477 383.039C233.229 388.484 239.958 391.724 246.503 390.264Z" fill="#5178BC"/>
<path d="M363.899 116.447L268.783 137.665L261.961 116.468L357.077 95.2497L363.899 116.447ZM385.114 121.569L271.743 146.86L269.94 141.259L383.312 115.968L385.114 121.569ZM388.462 131.971L275.09 157.262L273.288 151.661L386.659 126.37L388.462 131.971ZM391.81 142.373L278.438 167.664L276.633 162.056L390.005 136.765L391.81 142.373ZM406.868 189.161L269.956 219.704L268.153 214.102L405.066 183.56L406.868 189.161ZM410.216 199.563L273.304 230.106L271.501 224.505L408.414 193.962L410.216 199.563ZM421.157 233.556L284.244 264.098L282.441 258.497L419.354 227.955L421.157 233.556ZM424.504 243.958L287.592 274.5L285.789 268.899L422.702 238.357L424.504 243.958ZM435.445 277.951L298.532 308.493L296.732 302.899L433.644 272.357L435.445 277.951ZM438.793 288.353L301.88 318.895L300.077 313.294L436.99 282.752L438.793 288.353ZM376.583 313.372L305.225 329.29L303.423 323.689L374.78 307.77L376.583 313.372ZM271.574 251.924L228.337 261.57L216.75 225.569L259.988 215.924L271.574 251.924ZM285.862 296.319L242.625 305.964L231.038 269.964L274.276 260.319L285.862 296.319ZM300.151 340.713L256.913 350.359L245.329 314.366L288.566 304.72L300.151 340.713ZM289.137 279.301L360.495 263.383L362.295 268.977L290.937 284.895L289.137 279.301ZM274.846 234.9L346.204 218.981L348.007 224.582L276.649 240.501L274.846 234.9ZM183.654 133.937L245.145 120.219L265.998 185.011L204.507 198.728L183.654 133.937ZM279.981 172.458L339.069 159.277L340.872 164.878L281.784 178.059L279.981 172.458ZM323.017 80.879C322.683 82.2017 321.94 83.4165 320.846 84.4034L320.738 84.4886C320.274 84.8986 319.747 85.2535 319.171 85.5657L318.714 85.8056C318.061 86.112 317.374 86.3878 316.614 86.5572L316.609 86.5584L237.183 104.277C234.2 104.942 231.161 104.272 228.991 102.704C227.687 101.755 226.699 100.497 226.218 99.0043L219.267 77.4071L151.05 92.6249L254.621 354.438L477.067 329.15L384.203 40.6133L315.988 55.8307L322.939 77.4279C323.316 78.5996 323.297 79.7676 323.017 80.879Z" fill="#FCFCFC"/>
<path d="M151.05 92.6249L243.914 381.162L477.067 329.15L254.621 354.438L151.05 92.6249Z" fill="#E4E4E4"/>
<path d="M239.285 52.7332C237.601 47.5008 241.346 42.0999 247.634 40.6971L269.381 35.8458C275.668 34.4434 282.153 37.5621 283.837 42.7945L284.411 44.5778L294.466 42.3348L293.892 40.5514C290.721 30.6983 278.518 24.8346 266.687 27.474L244.939 32.3253C233.107 34.9649 226.058 45.1233 229.229 54.9764L229.803 56.7598L239.859 54.5165L239.285 52.7332Z" fill="#B8C4C3"/>
<path d="M219.38 63.3484C220.47 61.7612 222.307 60.4967 224.648 59.9744L300.028 43.1588C304.56 42.1478 309.177 44.2567 310.339 47.8667L319.533 76.435C320.273 78.7329 319.399 81.0489 317.52 82.7112L319.842 82.1932C321.034 81.9273 322.105 81.4708 323.021 80.878C323.301 79.7668 323.319 78.5973 322.943 77.4302L315.991 55.8282L312.902 46.2305L312.816 45.9622C311.537 41.9898 306.627 39.6278 301.852 40.693L294.468 42.3401L284.414 44.5831L239.861 54.5218L229.806 56.765L222.425 58.4114C221.233 58.6773 220.163 59.1337 219.245 59.7269C218.965 60.8382 218.948 62.0074 219.324 63.1745L219.38 63.3484Z" fill="#B8C4C3"/>
<path d="M323.018 80.8792C322.683 82.1978 321.93 83.4149 320.847 84.406C321.942 83.4199 322.682 82.1981 323.018 80.8792Z" fill="#B8C4C3"/>
<path d="M319.174 85.5635C319.748 85.2484 320.275 84.8918 320.742 84.4885C320.28 84.898 319.746 85.249 319.174 85.5635Z" fill="#B8C4C3"/>
<path d="M250.234 80.018L249.505 77.7553L292.739 68.1107L293.468 70.3734L250.234 80.018ZM295.27 75.9724L252.036 85.617L251.307 83.3544L294.541 73.7098L295.27 75.9724ZM297.072 81.5715L253.838 91.2162L253.109 88.9535L296.343 79.3089L297.072 81.5715ZM240.336 90.8683C237.949 91.4009 235.496 90.2259 234.856 88.237C234.216 86.2481 235.632 84.2021 238.02 83.6695C240.408 83.1368 242.862 84.3192 243.503 86.3081C244.143 88.297 242.724 90.3356 240.336 90.8683ZM310.729 73.1186C310.36 74.4057 309.234 75.4987 307.594 75.8646C305.206 76.3972 302.753 75.2222 302.113 73.2333C301.473 71.2445 302.89 69.1984 305.277 68.6658C306.917 68.2999 308.551 68.785 309.643 69.7462L304.754 54.5559C303.592 50.9456 298.976 48.8396 294.444 49.8506L220.356 66.3783L229.449 94.6332C230.729 98.6109 235.639 100.968 240.414 99.9029L314.013 83.4845L313.948 83.1206L310.729 73.1186Z" fill="#B8C4C3"/>
<path d="M319.53 76.4251L310.337 47.8598C309.174 44.2484 304.559 42.1443 300.027 43.1552L224.648 59.9709C222.306 60.4933 220.469 61.7563 219.378 63.3415L220.354 66.3739L294.443 49.8463C298.975 48.8351 303.592 50.9467 304.755 54.558L309.642 69.7418C310.139 70.1738 310.559 70.6775 310.761 71.3071C310.959 71.9223 310.899 72.533 310.729 73.1215L313.948 83.1234L314.011 83.4817L317.516 82.6998C319.398 81.0466 320.271 78.7266 319.53 76.4251Z" fill="#D9D9DA"/>
<path d="M226.22 99.0003C226.701 100.493 227.69 101.755 228.993 102.7C231.163 104.266 234.202 104.939 237.185 104.273L316.612 86.5549L316.617 86.5539C317.376 86.3844 318.065 86.1141 318.718 85.8055L319.174 85.5641C319.747 85.2498 320.28 84.8979 320.74 84.4846L320.848 84.3985C321.932 83.4111 322.686 82.1946 323.021 80.8774C322.104 81.4702 321.031 81.9192 319.84 82.1849L317.517 82.7031L314.012 83.4849L240.413 99.9035C235.638 100.969 230.73 98.6155 229.45 94.6377L220.355 66.3801L219.378 63.3442L219.325 63.1775C218.947 62.0037 218.964 60.8352 219.244 59.7242L219.223 59.7367C218.82 60.0052 218.454 60.3043 218.112 60.6137L217.813 60.9131L217.158 61.6883L216.917 62.0139C216.667 62.3881 216.446 62.7791 216.276 63.182L216.273 63.1904C216.106 63.5927 215.994 64.0137 215.914 64.4431L215.862 64.8276C215.82 65.1475 215.803 65.4696 215.813 65.7937L215.831 66.1934C215.875 66.6418 215.95 67.0909 216.095 67.5401L216.181 67.8082L219.269 77.4014L226.22 99.0003Z" fill="#A6B0B0"/>
<path d="M238.022 83.6702C235.635 84.2026 234.218 86.2499 234.857 88.2336C235.498 90.2244 237.952 91.4005 240.339 90.868C242.727 90.3353 244.145 88.2953 243.504 86.3046C242.866 84.3209 240.41 83.1375 238.022 83.6702Z" fill="#878F8F"/>
<path d="M305.277 68.6668C302.89 69.1992 301.473 71.2465 302.112 73.2302C302.752 75.2209 305.207 76.3971 307.594 75.8646C309.234 75.4986 310.36 74.4047 310.73 73.1225C310.9 72.5378 310.96 71.9246 310.759 71.3011C310.558 70.6777 310.141 70.1787 309.642 69.7432C308.552 68.7867 306.918 68.3008 305.277 68.6668Z" fill="#878F8F"/>
<path d="M292.738 68.1077L249.504 77.7524L250.233 80.0186L293.467 70.3739L292.738 68.1077Z" fill="#878F8F"/>
<path d="M252.037 85.6179L295.272 75.9731L294.544 73.7109L251.309 83.3557L252.037 85.6179Z" fill="#878F8F"/>
<path d="M253.837 91.2161L297.071 81.5713L296.342 79.306L253.108 88.9508L253.837 91.2161Z" fill="#878F8F"/>
<path d="M248.696 161.381L235.11 164.412L238.752 175.728L222.529 179.347L218.887 168.031L205.302 171.062L200.955 157.556L214.541 154.525L210.901 143.217L227.123 139.598L230.763 150.907L244.349 147.876L248.696 161.381ZM245.145 120.219L183.655 133.936L204.507 198.726L265.997 185.008L245.145 120.219Z" fill="#FF0101"/>
<path d="M225.984 139.993L209.761 143.612L213.399 154.919L199.813 157.949L204.161 171.459L217.747 168.428L221.388 179.741L237.611 176.122L233.97 164.809L247.556 161.778L243.208 148.269L229.622 151.3L225.984 139.993Z" fill="white"/>
<path d="M268.783 137.664L363.899 116.446L357.077 95.25L261.961 116.468L268.783 137.664Z" fill="#ADC0D8"/>
<path d="M271.746 146.857L385.118 121.566L383.316 115.966L269.943 141.257L271.746 146.857Z" fill="#ADC0D8"/>
<path d="M275.093 157.254L388.466 131.963L386.664 126.364L273.291 151.655L275.093 157.254Z" fill="#ADC0D8"/>
<path d="M278.44 167.658L391.812 142.367L390.008 136.762L276.636 162.053L278.44 167.658Z" fill="#ADC0D8"/>
<path d="M339.071 159.27L279.982 172.451L281.783 178.048L340.873 164.866L339.071 159.27Z" fill="#ADC0D8"/>
<path d="M269.958 219.705L406.871 189.163L405.069 183.563L268.156 214.105L269.958 219.705Z" fill="#ADC0D8"/>
<path d="M273.306 230.102L410.219 199.559L408.417 193.96L271.504 224.502L273.306 230.102Z" fill="#ADC0D8"/>
<path d="M346.206 218.982L274.848 234.901L276.652 240.505L348.01 224.586L346.206 218.982Z" fill="#ADC0D8"/>
<path d="M228.342 261.565L271.579 251.92L259.994 215.925L216.757 225.571L228.342 261.565Z" fill="#ADC0D8"/>
<path d="M284.247 264.092L421.16 233.55L419.358 227.95L282.445 258.493L284.247 264.092Z" fill="#ADC0D8"/>
<path d="M287.596 274.49L424.51 243.947L422.708 238.348L285.794 268.89L287.596 274.49Z" fill="#ADC0D8"/>
<path d="M360.495 263.38L289.137 279.299L290.939 284.897L362.297 268.979L360.495 263.38Z" fill="#ADC0D8"/>
<path d="M242.626 305.954L285.864 296.309L274.279 260.315L231.042 269.96L242.626 305.954Z" fill="#ADC0D8"/>
<path d="M298.535 308.491L435.448 277.949L433.646 272.35L296.733 302.892L298.535 308.491Z" fill="#ADC0D8"/>
<path d="M301.883 318.889L438.796 288.347L436.994 282.747L300.081 313.289L301.883 318.889Z" fill="#ADC0D8"/>
<path d="M305.229 329.287L376.587 313.368L374.785 307.769L303.427 323.688L305.229 329.287Z" fill="#ADC0D8"/>
<path d="M256.916 350.354L300.153 340.709L288.568 304.713L245.331 314.359L256.916 350.354Z" fill="#ADC0D8"/>
</svg>
