<svg width="309" height="379" viewBox="0 0 309 379" fill="none" xmlns="http://www.w3.org/2000/svg">
<path d="M213.718 188.233C168.553 177.465 123.055 160.471 114.878 157.975C114.492 157.859 114.755 157.351 115.141 157.481C123.019 160.282 177.554 175.041 214.016 187.71C214.438 187.855 214.157 188.349 213.718 188.233Z" fill="#8B8B8B"/>
<path d="M0 378.59H23.3195C23.3195 378.59 28.8818 307.625 80.8024 304.069C108.28 302.197 133.618 318.379 153.34 336.562C133.811 318.233 99.1912 294.564 66.186 294.564C16.4763 294.564 0 378.59 0 378.59Z" fill="#8B8B8B"/>
<path d="M153.867 158.817L118.107 98.5327L106.017 112.073L136.671 158.817H153.867Z" fill="#8B8B8B"/>
<path d="M85.0209 110.617L125.805 174.566L144.351 166.475L103.567 102.526L85.0209 110.617Z" fill="#B5B5B5"/>
<path d="M125.757 174.548L114.632 172.066L81.0479 120.635L84.9608 110.607L125.757 174.548Z" fill="#DADADA"/>
<path d="M235.604 208.067L240.897 206.125C243.244 205.264 244.303 202.992 243.262 201.05L224.587 166.228C223.545 164.286 220.798 163.41 218.451 164.271L213.158 166.213C210.81 167.074 209.751 169.346 210.793 171.288L229.468 206.111C230.509 208.052 233.256 208.928 235.604 208.067Z" fill="#DADADA"/>
<path d="M193.088 229.19L198.381 227.248C200.728 226.387 201.787 224.115 200.746 222.174L182.071 187.351C181.029 185.409 178.282 184.533 175.935 185.395L170.642 187.336C168.294 188.198 167.235 190.47 168.276 192.411L186.952 227.234C187.993 229.175 190.74 230.051 193.088 229.19Z" fill="#DADADA"/>
<path d="M221.722 234.16L229.373 231.354C232.553 230.187 233.988 227.109 232.577 224.479L208.779 180.105C207.369 177.474 203.647 176.288 200.467 177.455L192.816 180.261C189.636 181.428 188.201 184.506 189.612 187.136L213.41 231.51C214.82 234.141 218.542 235.327 221.722 234.16Z" fill="#DADADA"/>
<path d="M140.543 58.8161L148.193 56.0083C151.373 54.8411 152.807 51.763 151.396 49.133L127.589 4.76219C126.178 2.13217 122.456 0.946254 119.276 2.11336L111.626 4.9212C108.446 6.08831 107.012 9.16648 108.423 11.7965L132.23 56.1673C133.641 58.7973 137.363 59.9832 140.543 58.8161Z" fill="#DADADA"/>
<path d="M109.22 70.2448L116.871 67.4381C120.051 66.2714 121.485 63.1935 120.075 60.5633L96.2769 16.1891C94.8663 13.5588 91.1448 12.3724 87.9646 13.539L80.3137 16.3458C77.1335 17.5124 75.699 20.5904 77.1096 23.2206L100.908 67.5948C102.318 70.225 106.04 71.4115 109.22 70.2448Z" fill="#DADADA"/>
<path d="M225.194 166.377L150.129 37.1313C150.129 37.1313 128.705 37.7264 91.5938 59.0158L171.308 187.957C190.847 183.845 209.177 176.504 225.194 166.377Z" fill="#DADADA"/>
<path d="M156.411 198.769C156.411 198.769 227.124 181.499 246.566 165.681L240.372 154.071C185.731 161.066 150.252 187.231 150.252 187.231L156.411 198.769Z" fill="#B5B5B5"/>
<path d="M88.8385 62.6873C88.8385 62.6873 116.913 42.9506 154.849 37.0151L148.357 25.594C108.192 25.028 82.3462 51.2661 82.3462 51.2661L88.8385 62.6873Z" fill="#B5B5B5"/>
<path d="M141.022 140.429C141.022 140.429 171.957 123.508 198.628 118.037C199.006 117.91 199.348 117.719 199.631 117.475C199.914 117.232 200.131 116.941 200.269 116.623C200.406 116.306 200.461 115.967 200.429 115.63C200.397 115.294 200.28 114.966 200.084 114.67L192.82 101.885C192.434 101.313 191.811 100.877 191.066 100.655C190.321 100.434 189.504 100.443 188.767 100.68C152.866 108.198 131.161 123.073 131.161 123.073C130.798 123.214 130.472 123.414 130.202 123.66C129.932 123.906 129.723 124.193 129.588 124.506C129.453 124.819 129.393 125.151 129.413 125.482C129.433 125.814 129.532 126.139 129.705 126.439L136.969 139.225C137.138 139.525 137.378 139.794 137.674 140.017C137.97 140.24 138.316 140.413 138.692 140.525C139.069 140.636 139.469 140.686 139.869 140.669C140.269 140.653 140.661 140.571 141.022 140.429Z" fill="#B5B5B5"/>
<path d="M91.1548 124.684L85.575 122.623C85.575 122.623 7.50991 151.241 11.6334 228.301C14.3005 279.297 59.2901 314.548 59.2901 314.548C59.2901 314.548 4.57963 256.179 25.0215 202.136C45.4633 148.092 91.1548 124.684 91.1548 124.684Z" fill="#B5B5B5"/>
<path d="M17.8624 233.54C22.3543 280.56 59.2199 314.475 59.2199 314.475H115.159C140.812 286.553 181.66 270.227 181.66 270.227L136.916 276.7L132.933 275.016L125.072 271.693C125.072 271.693 113.72 286.031 96.682 285.712C93.1973 285.641 89.7632 285.005 86.5751 283.84C66.6421 276.714 56.5879 233.047 65.9051 206.925C75.2224 180.803 116.036 164.651 116.036 164.651L91.1197 124.756C46.6214 141.228 13.388 186.52 17.8624 233.54Z" fill="#DADADA"/>
<path d="M96.6997 285.726C96.6997 285.726 111.351 289.833 132.969 275.016L125.108 271.693C125.108 271.693 113.755 286.031 96.7172 285.712L96.6997 285.726Z" fill="#B5B5B5"/>
<path d="M23.3193 378.59H190.258C186.082 373.191 178.87 363.497 169.29 352.831L168.676 352.134C168.43 351.858 168.167 351.583 167.921 351.292L167.447 350.77C166.956 350.248 166.482 349.725 165.991 349.217C165.878 349.055 165.743 348.904 165.588 348.767C165.079 348.23 164.57 347.664 164.026 347.127C163.201 346.228 162.271 345.27 161.236 344.225C160.534 343.485 159.797 342.774 159.06 342.034C157.92 340.902 156.691 339.712 155.393 338.478C154.744 337.84 154.059 337.201 153.34 336.548C133.618 318.364 108.28 302.183 80.8022 304.055C28.8816 307.625 23.3193 378.59 23.3193 378.59Z" fill="#B5B5B5"/>
<path d="M144.183 277.364L308.27 266.04L306.537 248.859L142.449 260.184L144.183 277.364Z" fill="#8B8B8B"/>
<path d="M107.698 279.965L144.068 277.45L142.331 260.269L105.961 262.784L107.698 279.965Z" fill="#DADADA"/>
<path d="M157.271 367.212C157.271 368.137 157.602 369.04 158.223 369.809C158.844 370.577 159.726 371.176 160.758 371.53C161.791 371.883 162.927 371.976 164.023 371.796C165.119 371.615 166.126 371.17 166.916 370.517C167.706 369.863 168.244 369.031 168.462 368.124C168.68 367.218 168.568 366.278 168.14 365.424C167.713 364.57 166.989 363.841 166.06 363.327C165.13 362.814 164.038 362.54 162.921 362.54C161.422 362.54 159.985 363.032 158.925 363.908C157.866 364.785 157.271 365.973 157.271 367.212Z" fill="#8B8B8B"/>
<path d="M39.9888 367.212C39.9888 368.137 40.3201 369.04 40.941 369.809C41.5618 370.577 42.4442 371.176 43.4766 371.53C44.509 371.883 45.645 371.976 46.741 371.796C47.837 371.615 48.8438 371.17 49.634 370.517C50.4241 369.863 50.9622 369.031 51.1802 368.124C51.3982 367.218 51.2864 366.278 50.8587 365.424C50.4311 364.57 49.7069 363.841 48.7778 363.327C47.8486 362.814 46.7563 362.54 45.6388 362.54C44.8968 362.54 44.1621 362.66 43.4766 362.895C42.7911 363.13 42.1683 363.474 41.6436 363.908C41.119 364.342 40.7028 364.857 40.4189 365.424C40.1349 365.991 39.9888 366.599 39.9888 367.212Z" fill="#8B8B8B"/>
<path d="M86.5225 319.148C86.5225 320.072 86.8538 320.975 87.4747 321.744C88.0955 322.512 88.9779 323.111 90.0103 323.465C91.0427 323.818 92.1788 323.911 93.2748 323.731C94.3708 323.55 95.3775 323.105 96.1677 322.452C96.9578 321.798 97.496 320.966 97.714 320.059C97.932 319.153 97.82 318.213 97.3924 317.359C96.9648 316.505 96.2406 315.776 95.3115 315.262C94.3823 314.749 93.29 314.475 92.1725 314.475C90.674 314.475 89.2369 314.967 88.1773 315.843C87.1177 316.72 86.5225 317.908 86.5225 319.148Z" fill="#8B8B8B"/>
<path d="M129.933 68.4054C129.933 69.3296 130.264 70.233 130.885 71.0015C131.506 71.77 132.389 72.3689 133.421 72.7226C134.453 73.0763 135.589 73.1688 136.685 72.9885C137.781 72.8082 138.788 72.3631 139.578 71.7096C140.368 71.0561 140.907 70.2235 141.125 69.317C141.343 68.4105 141.231 67.471 140.803 66.6171C140.375 65.7632 139.651 65.0334 138.722 64.5199C137.793 64.0065 136.701 63.7324 135.583 63.7324C134.841 63.7324 134.106 63.8533 133.421 64.0881C132.735 64.323 132.113 64.6672 131.588 65.1011C131.063 65.535 130.647 66.0501 130.363 66.6171C130.079 67.184 129.933 67.7917 129.933 68.4054Z" fill="#8B8B8B"/>
<path d="M178.835 154.144C178.835 155.068 179.167 155.971 179.788 156.74C180.408 157.508 181.291 158.107 182.323 158.461C183.356 158.815 184.492 158.907 185.588 158.727C186.684 158.547 187.69 158.101 188.481 157.448C189.271 156.794 189.809 155.962 190.027 155.055C190.245 154.149 190.133 153.209 189.705 152.355C189.278 151.502 188.554 150.772 187.624 150.258C186.695 149.745 185.603 149.471 184.485 149.471C183.744 149.471 183.009 149.592 182.323 149.826C181.638 150.061 181.015 150.405 180.49 150.839C179.966 151.273 179.549 151.788 179.265 152.355C178.982 152.922 178.835 153.53 178.835 154.144Z" fill="#8B8B8B"/>
<path d="M81.048 160.456C84.1684 160.456 86.698 158.364 86.698 155.783C86.698 153.203 84.1684 151.11 81.048 151.11C77.9276 151.11 75.3979 153.203 75.3979 155.783C75.3979 158.364 77.9276 160.456 81.048 160.456Z" fill="#8B8B8B"/>
<path d="M117.668 290.82C117.668 291.744 117.999 292.648 118.62 293.416C119.241 294.185 120.123 294.784 121.156 295.137C122.188 295.491 123.324 295.583 124.42 295.403C125.516 295.223 126.523 294.778 127.313 294.124C128.103 293.471 128.641 292.638 128.859 291.732C129.077 290.825 128.966 289.886 128.538 289.032C128.11 288.178 127.386 287.448 126.457 286.935C125.528 286.421 124.435 286.147 123.318 286.147C121.82 286.147 120.382 286.639 119.323 287.516C118.263 288.392 117.668 289.581 117.668 290.82Z" fill="#8B8B8B"/>
</svg>
