<svg width="3221" height="3119" viewBox="0 0 3221 3119" fill="none" xmlns="http://www.w3.org/2000/svg">
<path d="M72.6218 2393.18H1036.72L1067.72 1830.73H41.6167L72.6218 2393.18Z" fill="#EBEBEB"/>
<path d="M966.052 2087.98H117.098L105.433 1892.72H979.673L966.052 2087.98ZM124.172 2081.06H958.978L971.696 1899.64H113.26L124.172 2081.06Z" fill="#DBDBDB"/>
<path d="M954.538 2312.85H141.781L132.148 2136.42H966.503L954.538 2312.85ZM148.554 2305.93H947.464L958.526 2143.34H139.674L148.554 2305.93Z" fill="#DBDBDB"/>
<path d="M639.144 2011.87H459.208L452.586 1964.75H645.766L639.144 2011.87ZM466.057 2004.95H632.596L637.262 1971.67H461.165L466.057 2004.95Z" fill="#DBDBDB"/>
<path d="M639.144 2248.23H459.208L452.586 2201.18H645.766L639.144 2248.23ZM466.057 2241.31H632.596L637.262 2208.1H461.165L466.057 2241.31Z" fill="#DBDBDB"/>
<path d="M206.35 2393.18L197.018 2454.42L178.129 2577.58H141.33V2393.18H206.35Z" fill="#EBEBEB"/>
<path d="M206.35 2393.18L197.018 2454.42H141.33V2393.18H206.35Z" fill="#DBDBDB"/>
<path d="M903.062 2393.18L912.394 2454.42L931.208 2577.58H968.008V2393.18H903.062Z" fill="#EBEBEB"/>
<path d="M903.062 2393.18L912.394 2454.42H968.008V2393.18H903.062Z" fill="#DBDBDB"/>
<path d="M1925.78 193.32H1570.43V642.509H1925.78V193.32Z" fill="#EBEBEB"/>
<path d="M2321.17 193.32H1965.82V642.509H2321.17V193.32Z" fill="#EBEBEB"/>
<path d="M1925.78 679.319H1570.43V1128.51H1925.78V679.319Z" fill="#EBEBEB"/>
<path d="M2321.17 679.319H1965.82V1128.51H2321.17V679.319Z" fill="#EBEBEB"/>
<path d="M2741.62 193.32H2386.27V642.509H2741.62V193.32Z" fill="#EBEBEB"/>
<path d="M3137.01 193.32H2781.66V642.509H3137.01V193.32Z" fill="#EBEBEB"/>
<path d="M2741.62 679.319H2386.27V1128.51H2741.62V679.319Z" fill="#EBEBEB"/>
<path d="M3137.01 679.319H2781.66V1128.51H3137.01V679.319Z" fill="#EBEBEB"/>
<path d="M2815.9 3071.05C3008.5 3071.05 3164.63 3037.28 3164.63 2995.63C3164.63 2953.98 3008.5 2920.21 2815.9 2920.21C2623.3 2920.21 2467.17 2953.98 2467.17 2995.63C2467.17 3037.28 2623.3 3071.05 2815.9 3071.05Z" fill="#EBEBEB"/>
<path d="M1674.73 2939.1C2342.8 2939.1 2884.38 2876.5 2884.38 2799.27C2884.38 2722.04 2342.8 2659.43 1674.73 2659.43C1006.66 2659.43 465.076 2722.04 465.076 2799.27C465.076 2876.5 1006.66 2939.1 1674.73 2939.1Z" fill="#EBEBEB"/>
<path d="M1518.35 3119C2186.42 3119 2728 3056.39 2728 2979.16C2728 2901.94 2186.42 2839.33 1518.35 2839.33C850.276 2839.33 308.696 2901.94 308.696 2979.16C308.696 3056.39 850.276 3119 1518.35 3119Z" fill="#EBEBEB"/>
<path d="M0 2577.58L381.093 2575.85L762.185 2575.3L1524.37 2574.12L2286.55 2575.3L2667.65 2575.85L3048.74 2577.58L2667.65 2579.24L2286.55 2579.86L1524.37 2581.04L762.185 2579.86L381.093 2579.24L0 2577.58Z" fill="#263238"/>
<path d="M2274.74 2009.93C2313.5 2027.72 2351.8 2046.19 2390.03 2064.73C2428.26 2083.28 2466.26 2102.3 2504.42 2121.12C2542.57 2139.94 2580.28 2159.39 2617.98 2178.9L2674.42 2208.31C2693.08 2218.34 2712.05 2228.16 2730.48 2238.4C2711.07 2229.55 2691.95 2220.34 2672.61 2211.28L2615.19 2183.6C2576.89 2165.06 2538.96 2145.96 2500.81 2127.21C2462.65 2108.46 2425.02 2088.88 2387.32 2069.37C2349.62 2049.86 2311.99 2030.21 2274.74 2009.93Z" fill="#A6A6A6"/>
<path d="M2698.35 2009.93C2663.81 2028.2 2628.82 2045.84 2593.82 2063.42C2558.83 2080.99 2523.53 2098.01 2488.46 2115.24C2453.4 2132.47 2417.8 2149.08 2382.2 2165.68L2328.77 2190.38C2310.86 2198.34 2293.03 2206.58 2274.97 2214.39C2292.2 2205.19 2309.73 2196.4 2327.04 2187.34L2379.72 2160.91C2414.79 2143.4 2450.08 2126.31 2485.08 2109.09C2520.07 2091.86 2555.82 2075.25 2591.34 2058.71C2626.86 2042.18 2662.3 2025.71 2698.35 2009.93Z" fill="#A6A6A6"/>
<path d="M1844.58 2009.93C1883.34 2027.72 1921.64 2046.19 1959.87 2064.73C1998.1 2083.28 2036.1 2102.3 2074.26 2121.12C2112.41 2139.94 2150.12 2159.39 2187.74 2178.9L2244.26 2208.31C2262.92 2218.34 2281.89 2228.16 2300.33 2238.4C2280.91 2229.55 2261.8 2220.34 2242.45 2211.28L2185.03 2183.6C2146.73 2165.06 2108.8 2145.96 2070.65 2127.21C2032.49 2108.46 1994.79 2088.88 1957.16 2069.37C1919.53 2049.86 1881.83 2030.21 1844.58 2009.93Z" fill="#A6A6A6"/>
<path d="M2268.12 2009.93C2233.58 2028.2 2198.58 2045.84 2163.59 2063.42C2128.59 2080.99 2093.22 2098.01 2058.23 2115.24C2023.24 2132.47 1987.57 2149.08 1951.97 2165.68L1898.54 2190.38C1880.63 2198.34 1862.79 2206.58 1844.73 2214.39C1861.96 2205.19 1879.5 2196.4 1896.81 2187.34L1949.49 2160.91C1984.56 2143.4 2019.85 2126.31 2054.84 2109.09C2089.84 2091.86 2125.58 2075.25 2161.1 2058.71C2196.62 2042.18 2232.15 2025.71 2268.12 2009.93Z" fill="#A6A6A6"/>
<path d="M1923.22 1955.2L1900.42 2080.86L1746.07 2847.42H1721.16L1833.44 2080.86L1850 1955.2H1923.22Z" fill="#A6A6A6"/>
<path d="M1850 1955.2H1923.22L1900.42 2080.86H1833.44L1850 1955.2Z" fill="#263238"/>
<path d="M2408.09 2847.42H2383.18L2228.83 2080.86L2206.03 1955.2H2279.25L2295.81 2080.86L2408.09 2847.42Z" fill="#A6A6A6"/>
<path d="M2279.25 1955.2L2295.81 2080.86H2228.83L2206.03 1955.2H2279.25Z" fill="#263238"/>
<path d="M2871.21 2847.42H2846.3L2691.88 2080.86L2669.08 1955.2H2742.3L2758.93 2080.86L2871.21 2847.42Z" fill="#A6A6A6"/>
<path d="M2758.93 2080.86H2691.88L2669.08 1955.2H2742.3L2758.93 2080.86Z" fill="#263238"/>
<path d="M2831.7 2014.22H1700.39V1904.63H2123.85L2266.24 1062.22H2788.58L2831.7 2014.22Z" fill="#A6A6A6"/>
<path d="M2831.7 2014.22H2770.07L2729.88 1062.22H2788.58L2831.7 2014.22Z" fill="#DBDBDB"/>
<path d="M2045.81 1304.18C2100.6 1350.47 2184.36 1359.54 2255.4 1354.07C2327.87 1348.4 2407.57 1330.96 2467.39 1291.31C2494.39 1274.26 2515.71 1250.64 2528.95 1223.09C2542.27 1193.34 2539.71 1164.42 2516.31 1141.52C2497.5 1123.04 2461.37 1113.01 2458.21 1094.12C2455.05 1075.23 2469.2 1058 2470.85 1039.25C2473.56 1007.15 2451.67 986.459 2424.95 969.576C2361.66 929.514 2366.33 864.405 2322.45 809.744C2297.54 778.677 2232.52 723.947 2139.28 766.015C2103.76 781.999 2083.44 817.009 2073.66 851.674C2062.14 892.428 2083.14 941 2067.41 980.854C2053.94 1014.83 2027.45 1023.61 2014.73 1059.04C2009.39 1074.4 2008.41 1091.56 2030.39 1122.97C2038.36 1134.32 2047.77 1152.03 2044.68 1167.26C2040.4 1188.43 2016.24 1201.23 2011.27 1223.37C2004.72 1253.81 2021.66 1283.77 2045.81 1304.18Z" fill="#263238"/>
<path d="M2508.41 1234.09C2541.22 1224.27 2548.52 1179.23 2523.46 1160.27C2507.65 1148.23 2486.36 1144.63 2470.78 1132.59C2444.74 1112.87 2461.22 1089.48 2469.5 1065.41C2487.49 1013.17 2446.47 985.352 2403.88 960.65C2371.52 941.83 2361.43 916.576 2353.98 883.225C2353.98 882.741 2354.74 882.533 2354.89 883.225C2361.66 907.581 2369.41 931.313 2391.23 948.057C2409 961.896 2430.89 969.576 2448.28 983.829C2477.4 1007.7 2485.3 1036.97 2473.19 1070.6C2469.73 1080.28 2461.97 1091.77 2461.6 1101.87C2460.77 1125.6 2481.47 1134.87 2501.11 1143.38C2516.16 1150.3 2532.94 1157.78 2540.62 1172.44C2552.28 1194.65 2535.05 1229.53 2509.46 1235.69C2507.88 1236.24 2507.13 1234.51 2508.41 1234.09Z" fill="#263238"/>
<path d="M2494.11 1260.25C2512.77 1245.72 2533.39 1232.09 2542.12 1210.08C2554.99 1177.56 2528.8 1158.19 2504.49 1139.92C2493.96 1132.11 2484.93 1124.08 2483.2 1111.14C2480.71 1091.84 2493.06 1073.5 2492.38 1054.06C2490.65 1007.7 2437.59 987.081 2407.57 957.191C2377.54 927.3 2362.41 887.999 2346.31 849.737C2346.31 848.906 2347.36 848.422 2347.66 849.252C2368.13 897.686 2392.14 942.937 2437.07 976.287C2468.45 999.536 2501.94 1024.72 2496.14 1065.75C2494.71 1075.78 2490.05 1085.47 2488.62 1095.43C2486.28 1115.36 2493.96 1126.92 2509.84 1138.68C2525.72 1150.44 2542.57 1161.24 2548.14 1179.5C2559.05 1215 2524.21 1244.61 2496.14 1262.88C2495.77 1263.01 2495.35 1263.03 2494.96 1262.93C2494.58 1262.82 2494.24 1262.6 2494 1262.3C2493.77 1261.99 2493.65 1261.63 2493.67 1261.25C2493.69 1260.88 2493.84 1260.53 2494.11 1260.25Z" fill="#263238"/>
<path d="M2000.66 1213.27C2013.38 1188.84 2038.29 1173.97 2025.42 1143.66C2016.76 1122.9 2001.04 1107.4 2001.64 1083.81C2003.13 1064.78 2011.65 1046.78 2025.79 1032.82C2042.58 1014 2061.92 998.221 2072.53 975.18C2084.04 950.272 2086.38 922.803 2089.01 896.233C2089.01 895.68 2089.99 895.749 2089.99 896.233C2088.63 932.005 2085.77 968.953 2062.14 999.19C2049.8 1014.9 2033.7 1027.9 2021.58 1043.75C1999.76 1072.32 2004.87 1099.1 2021.58 1128.16C2029.11 1141.52 2036.63 1154.94 2032.19 1170.37C2027.75 1185.8 2014.73 1196.94 2006.6 1210.5C1972.14 1268.21 2051.16 1322.59 2108.35 1323.42C2110.91 1323.42 2111.28 1327.09 2108.35 1327.09C2065.76 1327.64 2015.41 1299.41 1999.3 1263.02C1995.73 1255.1 1994 1246.58 1994.24 1238.01C1994.47 1229.44 1996.66 1221.01 2000.66 1213.27Z" fill="#263238"/>
<path d="M2007.51 1240.32C2003.75 1217.35 2016.76 1202.34 2025.34 1182.62C2038.81 1151.55 2014.36 1126.78 2006.53 1097.37C2004.23 1087.7 2004.05 1077.69 2006 1067.95C2007.95 1058.21 2012 1048.92 2017.89 1040.64C2032.94 1017.39 2053.86 999.121 2064.78 973.451C2076.15 945.892 2078.51 915.874 2071.55 887.1C2071.55 886.547 2072.3 886.547 2072.45 887.1C2078.06 906.401 2079.21 926.568 2075.83 946.302C2072.44 966.037 2064.6 984.901 2052.81 1001.68C2037.76 1023.06 2015.18 1042.09 2009.39 1068.52C2003.22 1096.2 2022.03 1118.34 2030.76 1143.94C2033.51 1151.45 2034.59 1159.39 2033.95 1167.29C2033.3 1175.2 2030.94 1182.9 2027 1189.95C2020.15 1200.44 2015.07 1211.82 2011.95 1223.72C2010.25 1240.91 2015.33 1258.1 2026.25 1272.15C2057.48 1316.64 2117.61 1338.23 2170.96 1337.88C2172.84 1337.88 2173.22 1340.65 2170.96 1340.65C2146.79 1341.12 2122.75 1337.18 2100.24 1329.07C2077.73 1320.96 2057.18 1308.83 2039.79 1293.39C2023.11 1279.35 2011.79 1260.74 2007.51 1240.32Z" fill="#263238"/>
<path d="M1669.61 2850.05C1689.71 2856.42 2265.71 2860.16 2287.76 2847.56C2296.11 2842.86 2312.22 2630.99 2307.48 2610.31C2291.52 2540.08 2215.29 2327.25 2215.29 2327.25L1829.98 2323.72L1932.78 2606.92L1934.06 2669.19C1934.06 2669.19 1712.51 2758.17 1689.93 2774.43C1667.35 2790.69 1649.52 2843.76 1669.61 2850.05Z" fill="#F7A9A0"/>
<path d="M1667.81 2850.82C1688.05 2857.18 2267.21 2860.99 2289.41 2848.32C2299.72 2842.44 2305.74 2729.25 2309.28 2609.68L1932.55 2606.22L1933.76 2668.5C1933.76 2668.5 1711.3 2758.44 1688.58 2774.57C1665.85 2790.69 1647.64 2844.45 1667.81 2850.82Z" fill="#3FACF8"/>
<path d="M1676.31 2829.57C1773.39 2828.05 2165.47 2830.2 2261.42 2835.45C2262.17 2835.45 2262.17 2835.94 2261.42 2836.01C2165.17 2839.47 1773.39 2834.42 1676.31 2831.03C1674.28 2830.96 1674.28 2829.57 1676.31 2829.57Z" fill="#263238"/>
<path d="M1920.21 2648.78C1958.52 2642.48 2005.18 2648.15 2034.15 2673.41C2035.28 2674.38 2033.77 2675.83 2032.57 2675.48C1996.15 2664.37 1958.53 2656.9 1920.36 2653.2C1919.72 2653.22 1919.1 2653.01 1918.64 2652.61C1918.17 2652.2 1917.9 2651.65 1917.88 2651.06C1917.86 2650.47 1918.09 2649.9 1918.53 2649.47C1918.97 2649.05 1919.57 2648.79 1920.21 2648.78Z" fill="#263238"/>
<path d="M1892.52 2663.86C1930.75 2657.56 1977.48 2663.24 2006.45 2688.49C2007.58 2689.46 2006.08 2690.91 2004.8 2690.57C1968.39 2679.48 1930.8 2672.01 1892.67 2668.29C1892.03 2668.31 1891.41 2668.09 1890.94 2667.69C1890.48 2667.29 1890.2 2666.73 1890.18 2666.14C1890.16 2665.56 1890.4 2664.99 1890.84 2664.56C1891.27 2664.13 1891.88 2663.88 1892.52 2663.86Z" fill="#263238"/>
<path d="M1864.82 2678.94C1903.05 2672.65 1949.79 2678.39 1978.76 2703.58C1979.89 2704.54 1978.38 2706 1977.11 2705.65C1940.7 2694.59 1903.11 2687.14 1864.97 2683.44C1864.4 2683.37 1863.86 2683.1 1863.47 2682.7C1863.08 2682.3 1862.86 2681.79 1862.84 2681.25C1862.82 2680.71 1863.01 2680.19 1863.37 2679.76C1863.74 2679.34 1864.25 2679.05 1864.82 2678.94Z" fill="#263238"/>
<path d="M1837.13 2694.1C1875.36 2687.73 1922.09 2693.47 1951.07 2718.66C1952.2 2719.7 1950.69 2721.15 1949.41 2720.74C1913 2709.67 1875.41 2702.22 1837.28 2698.52C1836.64 2698.54 1836.02 2698.33 1835.56 2697.93C1835.09 2697.52 1834.82 2696.97 1834.8 2696.38C1834.78 2695.79 1835.01 2695.22 1835.45 2694.79C1835.89 2694.37 1836.49 2694.12 1837.13 2694.1Z" fill="#263238"/>
<path d="M1867.01 2617.23C1893.87 2636.74 1929.02 2644.9 1960.47 2655.76C1963.71 2656.94 1966.34 2654.1 1966.49 2651.41C1966.65 2651.41 1966.81 2651.37 1966.96 2651.3C1967.1 2651.23 1967.22 2651.13 1967.31 2651.01C1967.4 2650.88 1967.45 2650.74 1967.47 2650.59C1967.48 2650.45 1967.46 2650.3 1967.4 2650.16C1956.08 2618.99 1936.01 2591.11 1909.22 2569.35C1893.35 2556.89 1865.43 2548.17 1850.3 2567.06C1835.17 2585.95 1851.35 2605.81 1867.01 2617.23ZM1857.52 2588.86C1851.05 2550.32 1895.9 2570.8 1907.19 2580.42C1914.41 2586.72 1921.13 2593.49 1927.29 2600.69C1939.87 2615.62 1951.6 2631.14 1962.43 2647.19C1947.38 2640.96 1931.8 2635.98 1916.45 2630.23C1898.16 2623.38 1861.06 2610.17 1857.52 2588.86Z" fill="#263238"/>
<path d="M2095.41 2597.51C2086.3 2575.5 2056.88 2576.75 2037.99 2585.05C2005.84 2599.39 1978.36 2621.25 1958.29 2648.43C1958.2 2648.55 1958.14 2648.69 1958.11 2648.83C1958.09 2648.97 1958.09 2649.12 1958.14 2649.26C1958.18 2649.4 1958.26 2649.53 1958.36 2649.63C1958.47 2649.74 1958.6 2649.83 1958.74 2649.88C1958.53 2650.54 1958.49 2651.24 1958.62 2651.91C1958.76 2652.59 1959.06 2653.22 1959.5 2653.77C1959.95 2654.32 1960.52 2654.77 1961.19 2655.08C1961.85 2655.39 1962.59 2655.55 1963.33 2655.56C1996.82 2652.79 2033.02 2653.62 2064.63 2641.72C2083.06 2634.59 2103.84 2618.26 2095.41 2597.51ZM2013.53 2641.93C1997.12 2643.66 1980.64 2644.63 1964.31 2646.91C1979.44 2634.14 1995.27 2622.09 2011.72 2610.79C2019.79 2605.44 2028.24 2600.59 2037.01 2596.26C2050.7 2589.83 2099.92 2581.11 2082.16 2617.02C2072.38 2636.32 2032.79 2639.85 2013.53 2641.93Z" fill="#263238"/>
<path d="M2569.59 1800.15C2498.93 1864.7 2400.49 1905.46 2316.73 1945.45C2244.79 1979.49 2183.76 2012.7 2160.65 2059.48C2140.41 2100.99 2308.38 2556.34 2308.38 2556.34L1900.65 2590.24C1900.65 2590.24 1723.27 2144.65 1767.67 1952.85C1775.2 1921.37 1809.14 1880.62 1857.98 1836.13C2032.49 1677.68 2394.32 1471.77 2394.32 1471.77H2616.55C2616.55 1471.77 2708.74 1672.83 2569.59 1800.15Z" fill="#455A64"/>
<path d="M2591.49 1516.26C2590.59 1506.98 2589.53 1497.71 2588.55 1488.58C2588.55 1487.68 2586.9 1487.68 2587.05 1488.58C2596.23 1563.03 2603.83 1644.67 2565.68 1713.8C2528.95 1780.22 2455.35 1820.21 2389.8 1859.65L2270.9 1932.3L2211.3 1968.42C2194.96 1977.88 2179.16 1988.11 2163.96 1999.07C2150.1 2008.94 2138.38 2021.12 2129.42 2034.98C2120.24 2050.67 2116.32 2068.51 2118.13 2086.25C2127.84 2205.95 2256.75 2522.99 2259.76 2533.23C2259.99 2533.69 2260.39 2534.06 2260.88 2534.27C2261.38 2534.47 2261.94 2534.51 2262.47 2534.37C2262.99 2534.22 2263.44 2533.91 2263.74 2533.48C2264.03 2533.06 2264.14 2532.55 2264.05 2532.05C2236.06 2452.2 2160.58 2274.52 2126.79 2114.27C2122.5 2093.52 2119.26 2072 2126.26 2051.59C2132.44 2035.34 2143.13 2020.86 2157.27 2009.59C2171.05 1998.33 2185.83 1988.15 2201.44 1979.14L2261.65 1942.33L2379.72 1870.58C2444.21 1831.35 2516.91 1793.3 2558.83 1731.3C2602.85 1666.82 2598.64 1588.91 2591.49 1516.26Z" fill="#263238"/>
<path d="M2569.59 1800.15C2498.93 1864.7 2400.49 1905.46 2316.73 1945.45C2168.71 1909.75 1981.77 1865.12 1857.68 1836.4C2032.19 1677.96 2394.02 1472.04 2394.02 1472.04H2616.25C2616.25 1472.04 2708.74 1672.84 2569.59 1800.15Z" fill="#263238"/>
<path d="M914.802 2581.8C931.96 2593.29 1480.65 2754.43 1505.78 2748.41C1515.34 2746.2 1545.52 2674.1 1579.31 2586.02C1586.83 2566.99 1594.36 2547.34 1601.43 2527.28C1649.67 2397.34 1697.53 2258.4 1697.53 2258.4L1330.81 2149.63L1244.72 2421.48L1225.83 2481.2C1225.83 2481.2 985.692 2505.9 958.901 2515.24C932.111 2524.58 897.644 2570.24 914.802 2581.8Z" fill="#F7A9A0"/>
<path d="M912.845 2582.01C930.079 2593.63 1481.85 2755.61 1507.36 2749.59C1519.03 2746.82 1561.39 2640.34 1603.54 2527.21L1244.87 2420.86L1225.83 2480.85C1225.83 2480.85 984.413 2505.69 957.472 2515.03C930.53 2524.37 895.612 2570.45 912.845 2582.01Z" fill="#3FACF8"/>
<path d="M927.821 2564.02C1020.99 2589.13 1394.4 2698.32 1484.71 2729.66C1485.46 2729.66 1485.31 2730.35 1484.71 2730.15C1391.69 2707.17 1019.26 2595.15 927.821 2565.47C925.338 2564.78 925.79 2563.53 927.821 2564.02Z" fill="#263238"/>
<path d="M1219.13 2458.15C1257.74 2462.58 1300.48 2480.78 1319.98 2512.82C1320.73 2514.06 1318.85 2515.03 1317.72 2514.34C1286.53 2493.8 1253.06 2476.38 1217.85 2462.38C1217.33 2462.16 1216.9 2461.78 1216.65 2461.3C1216.41 2460.82 1216.36 2460.27 1216.51 2459.76C1216.67 2459.24 1217.02 2458.8 1217.5 2458.51C1217.98 2458.21 1218.56 2458.09 1219.13 2458.15Z" fill="#263238"/>
<path d="M1187.83 2465C1226.36 2469.43 1269.1 2487.63 1288.67 2519.67C1289.42 2520.84 1287.47 2521.81 1286.41 2521.19C1255.21 2500.64 1221.71 2483.22 1186.47 2469.23C1185.93 2469.01 1185.49 2468.63 1185.23 2468.13C1184.98 2467.64 1184.93 2467.08 1185.1 2466.56C1185.27 2466.04 1185.64 2465.59 1186.14 2465.3C1186.64 2465.02 1187.24 2464.91 1187.83 2465Z" fill="#263238"/>
<path d="M1156.52 2471.79C1195.05 2476.28 1237.8 2494.48 1257.29 2526.45C1258.12 2527.69 1256.16 2528.66 1255.11 2527.97C1223.89 2507.47 1190.38 2490.07 1155.17 2476.08C1154.67 2475.83 1154.27 2475.43 1154.05 2474.95C1153.83 2474.47 1153.8 2473.93 1153.95 2473.43C1154.11 2472.92 1154.46 2472.49 1154.92 2472.19C1155.39 2471.89 1155.95 2471.75 1156.52 2471.79Z" fill="#263238"/>
<path d="M1125.52 2478.64C1164.12 2483.06 1206.87 2501.33 1226.36 2533.3C1227.11 2534.54 1225.23 2535.51 1224.1 2534.82C1192.93 2514.29 1159.45 2496.89 1124.24 2482.93C1123.74 2482.68 1123.36 2482.29 1123.14 2481.81C1122.91 2481.34 1122.88 2480.81 1123.02 2480.31C1123.17 2479.82 1123.5 2479.38 1123.95 2479.07C1124.4 2478.77 1124.96 2478.62 1125.52 2478.64Z" fill="#263238"/>
<path d="M1178.57 2413.18C1197.91 2439.13 1228.84 2456.49 1255.33 2475.45C1255.95 2475.84 1256.67 2476.09 1257.41 2476.17C1258.16 2476.25 1258.91 2476.16 1259.61 2475.92C1260.31 2475.67 1260.94 2475.28 1261.44 2474.76C1261.94 2474.25 1262.3 2473.63 1262.48 2472.96C1262.64 2472.99 1262.8 2472.99 1262.95 2472.96C1263.11 2472.92 1263.25 2472.86 1263.38 2472.76C1263.5 2472.67 1263.6 2472.55 1263.67 2472.42C1263.73 2472.29 1263.76 2472.14 1263.76 2471.99C1262.98 2439.14 1252.84 2407.05 1234.34 2378.93C1223.2 2362.74 1199.42 2346.76 1178.8 2360.66C1158.18 2374.57 1167.28 2398.3 1178.57 2413.18ZM1178.57 2383.5C1184.89 2344.89 1221.09 2376.58 1228.77 2389.03C1233.62 2397.03 1237.84 2405.33 1241.41 2413.87C1248.56 2431.59 1254.74 2449.62 1259.92 2467.91C1247.51 2457.81 1234.26 2448.74 1221.47 2439.13C1206.34 2427.85 1175.19 2405.09 1178.65 2383.77L1178.57 2383.5Z" fill="#263238"/>
<path d="M1402.98 2457.05C1401.4 2433.59 1372.88 2427.02 1352.19 2429.37C1316.8 2434.41 1283.48 2447.92 1255.56 2468.53C1255.43 2468.62 1255.33 2468.74 1255.26 2468.87C1255.19 2469 1255.16 2469.15 1255.16 2469.29C1255.16 2469.44 1255.19 2469.59 1255.26 2469.72C1255.33 2469.85 1255.43 2469.96 1255.56 2470.06C1255.07 2470.62 1254.74 2471.29 1254.6 2472C1254.47 2472.71 1254.52 2473.44 1254.77 2474.13C1255.02 2474.82 1255.44 2475.44 1256.01 2475.93C1256.59 2476.43 1257.28 2476.79 1258.04 2476.97C1290.93 2483.48 1325.24 2494.2 1359.33 2491.3C1379.2 2489.29 1404.41 2479.26 1402.98 2457.05ZM1310.12 2477.04C1293.86 2474.14 1277.83 2470.61 1261.5 2468.33C1280.07 2460.24 1299.09 2453.06 1318.47 2446.81C1327.89 2443.89 1337.52 2441.58 1347.29 2439.89C1362.34 2437.47 1412.24 2442.66 1384.02 2471.85C1368.44 2487.84 1329.46 2480.43 1310.12 2477.04Z" fill="#263238"/>
<path d="M1228.84 2389.31L1635.22 2499.25L1761.2 2072.83C1772.18 1931.89 1799.8 1863.53 1889.96 1837.58C2043.48 1793.85 2418.55 1955.2 2588.4 1846.99C2726.35 1758.98 2616.32 1471.42 2616.32 1471.42H2217.47C2217.47 1471.42 2169.31 1525.32 2160.43 1557.01C2160.43 1557.01 1666.53 1522 1555.98 1650.83C1408.25 1823.81 1228.84 2389.31 1228.84 2389.31Z" fill="#455A64"/>
<path d="M1959.19 1831.42C1935.42 1829.53 1911.47 1831.24 1888.3 1836.47C1866.29 1841.93 1845.77 1851.59 1828.1 1864.84C1810.97 1877.66 1797.1 1893.76 1787.46 1912.03C1776.17 1933.41 1772.41 1957.63 1768.42 1981.22C1766.24 1995.06 1764.81 2008.9 1763.98 2022.73C1763.15 2036.57 1762.55 2055.81 1762.55 2067.64C1762.55 2068.68 1764.06 2068.75 1764.06 2067.64C1764.28 2055.2 1765.41 2042.79 1767.44 2030.48C1769.1 2018.79 1771.36 2007.17 1773.54 1995.54C1777.15 1972.39 1783.02 1949.58 1791.07 1927.39C1798.84 1908.39 1810.8 1891.06 1826.2 1876.51C1841.6 1861.96 1860.1 1850.5 1880.55 1842.84C1892.93 1838.24 1905.87 1835.03 1919.08 1833.29C1932.45 1831.96 1945.91 1831.57 1959.34 1832.11C1959.34 1832.11 1959.49 1831.42 1959.19 1831.42Z" fill="#263238"/>
<path d="M2530.91 1610.56C2517.06 1607.68 2503.64 1603.27 2490.95 1597.42C2478.27 1592.08 2466.76 1584.65 2457.01 1575.48C2449.63 1566.62 2444.7 1556.24 2442.63 1545.25C2441.05 1539.3 2440.15 1533.21 2439.1 1527.19C2438.04 1521.17 2436.16 1513.97 2435.64 1507.33C2435.64 1506.5 2434.06 1506.57 2434.13 1507.33C2437.52 1532.38 2429.84 1560.33 2450.16 1581.64C2460.53 1591.35 2473.13 1598.79 2487.03 1603.44C2500.81 1608.98 2515.53 1612.26 2530.53 1613.12C2530.87 1613.11 2531.18 1612.98 2531.43 1612.78C2531.67 1612.57 2531.83 1612.29 2531.87 1611.99C2531.92 1611.68 2531.85 1611.37 2531.67 1611.11C2531.49 1610.85 2531.22 1610.66 2530.91 1610.56Z" fill="#263238"/>
<path d="M2605.56 1552.79C2601.95 1539.27 2597.74 1525.94 2592.92 1512.8C2592.92 1511.97 2591.11 1512.31 2591.49 1513.21C2610.99 1568.06 2619.56 1625.7 2616.77 1683.35C2616.42 1710.62 2612.4 1737.74 2604.81 1764.1C2597.52 1789.28 2579.77 1810.83 2555.37 1824.09C2530.19 1836.17 2502.87 1844.02 2474.69 1847.27C2443.11 1851.81 2411.16 1853.87 2379.19 1853.42C2314.1 1852.87 2249.45 1844.78 2184.96 1837.79C2122.42 1830.87 2059.89 1823.05 1997.2 1817.86C1945.87 1813.64 1891.16 1813.15 1843.68 1834.05C1798.52 1854.05 1769.02 1892.17 1749.76 1933.62C1728.09 1980.46 1715.82 2030.97 1701.14 2079.89C1683.69 2138.21 1593.53 2456.29 1592.17 2469.92C1592.17 2471.23 1594.21 2471.16 1594.36 2469.92C1597.52 2440.03 1675.56 2176.96 1693.09 2118.22L1719.51 2030.21C1726.51 2006.75 1733.43 1983.23 1742.08 1960.26C1758.79 1916.46 1783.32 1872.52 1826.75 1846.37C1873.03 1818.69 1930.67 1816.41 1984.18 1820C2014.28 1821.94 2044.38 1825.68 2074.49 1828.93L2173.3 1839.72C2236.36 1846.64 2299.5 1854.74 2363.01 1856.54C2394.77 1857.65 2426.58 1856.47 2458.14 1853.01C2486.68 1850.45 2514.71 1844.3 2541.44 1834.74C2565.1 1826.32 2584.98 1810.82 2597.89 1790.74C2611.13 1768.94 2615.65 1743.69 2618.58 1719.26C2624.82 1663.5 2620.41 1607.16 2605.56 1552.79Z" fill="#263238"/>
<path d="M2312.89 1130.51C2260.22 1289.65 2216.12 1413.16 2165.09 1441.87C2123.93 1465.19 1868.06 1508.64 1818.32 1511.07C1798.67 1512.03 1782.34 1512.59 1770.76 1513C1742.16 1513.9 1700.69 1339.06 1721.61 1318.44C1726.43 1313.73 1745.39 1310.48 1771.96 1308.13C1861.29 1300.17 2036.56 1302.39 2047.32 1293.53C2058.08 1284.67 2117 1217 2196.47 1128.65C2251.26 1067.62 2295.13 1050.39 2312.29 1068.24C2322.08 1078.55 2323.05 1099.79 2312.89 1130.51Z" fill="#F7A9A0"/>
<path d="M1818.24 1511.34C1788.02 1522.76 1757.03 1532.35 1725.45 1540.06C1700.32 1545.11 1627.62 1557.98 1618.59 1533.14C1612.57 1516.19 1654.41 1503.94 1683.84 1494.74C1699.26 1489.89 1718.9 1476.47 1715.07 1467.06C1708.44 1451.01 1668.56 1464.36 1641.99 1476.47C1590.82 1499.86 1521.59 1543.31 1493.14 1518.47C1482.38 1509.06 1496.75 1494.04 1517.22 1479.65C1484.48 1495.84 1449.94 1508.71 1437.53 1498.68C1430.45 1493.01 1430.6 1485.81 1435.34 1477.92C1431.25 1479.32 1426.8 1479.59 1422.54 1478.7C1418.28 1477.82 1414.38 1475.82 1411.34 1472.94C1401.85 1462.49 1407.87 1448.31 1420.07 1434.13C1418.16 1433.81 1416.37 1433.1 1414.82 1432.02C1413.28 1430.95 1412.03 1429.56 1411.19 1427.97C1391.77 1396.35 1506.16 1315.88 1544.24 1310C1656.07 1292.56 1772.56 1308.41 1772.56 1308.41C1813.5 1342.86 1818.39 1511.27 1818.24 1511.34Z" fill="#F7A9A0"/>
<path d="M1663.06 1407.21C1636.55 1409.16 1610.85 1416.51 1587.81 1428.73C1560.94 1443.4 1538.97 1464.36 1513.91 1481.24C1513.23 1481.73 1513.91 1482.7 1514.66 1482.21C1526.55 1473.43 1539.42 1465.68 1551.61 1457.3C1563.8 1448.93 1575.32 1440.49 1587.88 1433.16C1610.52 1419.47 1636.26 1410.74 1663.14 1407.63C1663.14 1407.63 1663.37 1407.14 1663.06 1407.21Z" fill="#263238"/>
<path d="M1645.61 1363C1615.74 1367.6 1586.46 1375 1558.23 1385.07C1528.13 1397.04 1503.22 1418.14 1479.07 1438.35C1464.62 1450.52 1450.42 1462.98 1436.47 1475.71C1435.87 1476.26 1436.47 1477.16 1437.3 1476.68C1461.83 1455.74 1486.92 1435.49 1512.55 1415.93C1536.52 1397.56 1564.23 1383.75 1594.06 1375.31C1611.06 1370.54 1628.37 1366.94 1645.68 1363.34L1645.61 1363Z" fill="#263238"/>
<path d="M1617.38 1323.56C1588.94 1327.16 1564.03 1330.48 1538.14 1342.59C1503.9 1358.91 1469.88 1387.91 1457.92 1397.94C1444.75 1409.29 1431.96 1421.05 1419.39 1432.95C1418.86 1433.43 1419.39 1434.26 1420.29 1433.78C1449.04 1407.91 1479.55 1383.76 1511.65 1361.47C1526.8 1350.59 1543.68 1341.91 1561.7 1335.74C1579.89 1330.41 1598.55 1326.52 1617.46 1324.11C1617.46 1324.11 1617.54 1323.56 1617.38 1323.56Z" fill="#263238"/>
<path d="M2328.85 1103.95C2322.23 1149.13 2284.82 1235.89 2284.82 1235.89L2100.75 1216.59C2100.75 1216.59 2199.63 1100.21 2274.21 1057.45C2304.16 1040.36 2335.62 1058.28 2328.85 1103.95Z" fill="#3FACF8"/>
<path d="M2286.4 1212.85C2259.24 1208.35 2232.15 1204.2 2204.75 1201.16C2191.06 1199.64 2177.43 1198.32 2163.74 1197.15C2150.04 1195.97 2136.19 1196.18 2122.57 1194.86C2121.82 1194.86 2121.75 1195.9 2122.57 1195.97C2136.19 1196.59 2149.97 1199.01 2163.59 1200.33C2177.21 1201.64 2190.91 1203.1 2204.6 1204.55C2231.84 1207.52 2259.16 1210.43 2286.4 1213.96C2287.08 1214.03 2287.08 1212.99 2286.4 1212.85Z" fill="#263238"/>
<path d="M2260.97 1113.15C2268.72 1106.76 2278.04 1102.2 2288.13 1099.86C2284.31 1103.09 2280.03 1105.84 2275.42 1108.03C2270.86 1110.3 2266 1112.02 2260.97 1113.15ZM2237.19 1193.2C2232.3 1191.79 2227.25 1190.96 2222.14 1190.71C2226.54 1193.24 2231.3 1195.19 2236.28 1196.52C2241.16 1197.96 2246.22 1198.8 2251.33 1199.01C2246.93 1196.49 2242.17 1194.53 2237.19 1193.2ZM2199.11 1121.24C2197.53 1125.72 2196.62 1130.38 2196.4 1135.08C2199.12 1131.03 2201.22 1126.65 2202.64 1122.07C2204.22 1117.59 2205.13 1112.94 2205.35 1108.23C2202.68 1112.31 2200.58 1116.68 2199.11 1121.24Z" fill="white"/>
<path d="M2328.85 1103.95C2328.85 1106.44 2328.1 1109.13 2327.49 1111.76C2326.89 1114.39 2326.59 1115.98 2325.99 1118.27C2315.66 1158.41 2301.89 1197.74 2284.82 1235.89L2277.3 1235.13L2270.15 1234.37L2212.28 1228.28L2203.7 1227.45L2145.98 1221.43L2138.45 1220.6L2117.23 1218.39L2273.91 1057.45C2307.02 1045.55 2335.47 1058.28 2328.85 1103.95Z" fill="#263238"/>
<path d="M2151.25 1560.61C2151.25 1560.61 2326.14 1585.45 2649.06 1535.7C2649.06 1535.7 2489.52 1171.89 2378.14 1079.04C2327.57 1036.69 2282.64 1047 2246.59 1079.04C2237.64 1087.06 2130.32 1235.13 2124.38 1284.47C2119.19 1328.06 2161.25 1372.89 2161.25 1372.89L2151.25 1560.61Z" fill="#3FACF8"/>
<path d="M2471.98 1388.18C2468.47 1384.66 2465.49 1380.73 2463.1 1376.49C2460.57 1372.33 2458.7 1367.85 2457.53 1363.2C2461.05 1366.72 2464.03 1370.66 2466.41 1374.9C2468.88 1379.09 2470.76 1383.55 2471.98 1388.18ZM2312.59 1225.24C2310.21 1220.98 2307.19 1217.04 2303.64 1213.54C2304.86 1218.17 2306.74 1222.64 2309.21 1226.83C2311.59 1231.07 2314.58 1235 2318.09 1238.52C2316.94 1233.88 2315.09 1229.41 2312.59 1225.24ZM2589.53 1511.48C2587.13 1507.27 2584.14 1503.37 2580.65 1499.86C2581.88 1504.49 2583.75 1508.95 2586.22 1513.14C2588.6 1517.38 2591.59 1521.32 2595.1 1524.84C2593.89 1520.18 2592.02 1515.69 2589.53 1511.48ZM2269.4 1427.55C2267.01 1423.31 2264.03 1419.38 2260.52 1415.86C2261.74 1420.49 2263.61 1424.95 2266.08 1429.14C2268.47 1433.39 2271.45 1437.32 2274.96 1440.84C2273.75 1436.2 2271.88 1431.74 2269.4 1427.55ZM2340.59 1070.32C2338.26 1066.05 2335.27 1062.11 2331.71 1058.62C2334.25 1067.9 2339.21 1076.48 2346.16 1083.6C2344.99 1078.95 2343.09 1074.47 2340.51 1070.32H2340.59ZM2359.7 1371.02C2364.31 1368.82 2368.58 1366.07 2372.42 1362.86C2367.36 1363.97 2362.47 1365.69 2357.9 1367.98C2353.29 1370.18 2349.02 1372.93 2345.18 1376.14C2350.24 1375.03 2355.13 1373.31 2359.7 1371.02ZM2189.78 1307.92C2194.35 1305.71 2198.6 1302.97 2202.42 1299.76C2197.36 1300.82 2192.5 1302.54 2187.97 1304.88C2183.36 1307.07 2179.08 1309.81 2175.25 1313.04C2180.39 1311.95 2185.36 1310.22 2190 1307.92H2189.78ZM2275.19 1108.03C2279.81 1105.84 2284.08 1103.09 2287.91 1099.86C2277.82 1102.2 2268.49 1106.76 2260.74 1113.15C2265.86 1112.04 2270.79 1110.32 2275.42 1108.03H2275.19ZM2303.86 1528.64C2308.55 1526.51 2312.9 1523.81 2316.81 1520.61C2306.71 1522.95 2297.39 1527.51 2289.64 1533.9C2294.68 1532.73 2299.54 1530.96 2304.09 1528.64H2303.86ZM2453.47 1190.37C2458.05 1188.15 2462.3 1185.41 2466.11 1182.2C2456.02 1184.54 2446.7 1189.1 2438.95 1195.49C2444.09 1194.39 2449.05 1192.67 2453.7 1190.37H2453.47ZM2506.98 1473.36C2511.59 1471.17 2515.87 1468.42 2519.7 1465.19C2514.63 1466.24 2509.77 1467.97 2505.25 1470.31C2500.63 1472.5 2496.35 1475.25 2492.53 1478.48C2497.64 1477.37 2502.58 1475.65 2507.2 1473.36H2506.98ZM2394.85 1443.33C2389.97 1441.89 2384.91 1441.05 2379.8 1440.84C2384.2 1443.36 2388.96 1445.32 2393.94 1446.65C2398.83 1448.06 2403.88 1448.9 2408.99 1449.14C2404.66 1446.63 2399.98 1444.68 2395.07 1443.33H2394.85ZM2183.23 1394.2C2178.35 1392.76 2173.29 1391.92 2168.18 1391.71C2172.58 1394.24 2177.34 1396.19 2182.33 1397.52C2187.21 1398.93 2192.27 1399.77 2197.38 1400.01C2193.04 1397.51 2188.36 1395.55 2183.45 1394.2H2183.23ZM2401.02 1268.62C2396.14 1267.17 2391.08 1266.33 2385.97 1266.13C2390.4 1268.64 2395.19 1270.6 2400.19 1271.94C2405.07 1273.36 2410.13 1274.19 2415.24 1274.43C2410.87 1271.94 2406.17 1269.98 2401.24 1268.62H2401.02ZM2236.96 1193.2C2232.08 1191.79 2227.02 1190.96 2221.91 1190.71C2226.31 1193.24 2231.07 1195.19 2236.06 1196.52C2240.93 1197.97 2245.99 1198.8 2251.11 1199.01C2246.78 1196.51 2242.09 1194.55 2237.19 1193.2H2236.96ZM2564.25 1398.77C2559.37 1397.32 2554.31 1396.48 2549.19 1396.28C2553.61 1398.78 2558.37 1400.73 2563.34 1402.09C2568.23 1403.49 2573.28 1404.33 2578.39 1404.58C2574.06 1402.07 2569.38 1400.12 2564.47 1398.77H2564.25ZM2504.49 1287.03C2502.92 1291.51 2502.01 1296.16 2501.78 1300.86C2504.53 1296.81 2506.66 1292.44 2508.11 1287.86C2509.64 1283.37 2510.56 1278.72 2510.81 1274.02C2508.16 1278.08 2506.11 1282.46 2504.72 1287.03H2504.49ZM2275.49 1323.56C2273.92 1328.04 2273.01 1332.69 2272.78 1337.4C2275.53 1333.35 2277.66 1328.97 2279.1 1324.39C2280.65 1319.9 2281.53 1315.25 2281.74 1310.55C2279.12 1314.63 2277.1 1319 2275.72 1323.56H2275.49ZM2204.83 1513.7C2203.25 1518.18 2202.34 1522.83 2202.12 1527.53C2204.85 1523.45 2206.98 1519.06 2208.44 1514.46C2209.98 1509.97 2210.89 1505.32 2211.15 1500.62C2208.4 1504.69 2206.27 1509.09 2204.83 1513.7ZM2429.92 1527.53C2428.35 1532.02 2427.44 1536.67 2427.21 1541.37C2429.93 1537.32 2432.03 1532.94 2433.45 1528.36C2435.03 1523.88 2435.94 1519.23 2436.16 1514.53C2433.5 1518.6 2431.4 1522.97 2429.92 1527.53ZM2373.47 1144.15C2371.9 1148.63 2370.99 1153.28 2370.76 1157.98C2373.48 1153.92 2375.61 1149.55 2377.09 1144.98C2378.61 1140.48 2379.52 1135.84 2379.8 1131.14C2377.06 1135.16 2374.93 1139.52 2373.47 1144.08V1144.15ZM2158.55 1232.78C2156.97 1237.26 2156.06 1241.91 2155.84 1246.62C2158.57 1242.54 2160.7 1238.14 2162.16 1233.54C2163.73 1229.06 2164.64 1224.41 2164.87 1219.7C2162.13 1223.78 2160.01 1228.18 2158.55 1232.78Z" fill="white"/>
<path d="M2320.87 1064.51C2320.87 1072.81 2295.51 1133.7 2256.23 1141.31C2243.43 1143.87 2225.15 1080.35 2225.15 1080.35L2222.66 1075.92L2187.44 1014.2L2256.9 943.975L2267.14 934.427C2267.14 934.427 2275.57 951.863 2285.8 973.727L2287.23 976.841C2287.83 978.086 2288.44 979.193 2288.96 980.37C2290.54 983.622 2292.12 987.289 2293.63 990.264C2295.13 993.239 2295.96 995.315 2297.09 998.013C2298.22 1000.71 2299.35 1003.34 2300.55 1005.97C2308.77 1025.03 2315.56 1044.59 2320.87 1064.51Z" fill="#F7A9A0"/>
<path d="M2285.8 974.004C2283.98 994.232 2277.39 1013.85 2266.48 1031.5C2255.58 1049.15 2240.63 1064.4 2222.66 1076.2L2187.44 1014.48L2256.9 944.252L2267.14 934.704C2267.14 934.704 2275.57 951.863 2285.8 974.004Z" fill="#263238"/>
<path d="M2057.33 932.074C2072.38 1053.57 2153.13 1059.11 2181.65 1056.13C2207.54 1053.37 2295.21 1041.12 2294 918.859C2292.8 796.598 2226.65 764.493 2167.12 767.814C2107.6 771.136 2042.43 810.505 2057.33 932.074Z" fill="#F7A9A0"/>
<path d="M2073.73 909.172C2076.74 908.411 2079.45 907.304 2082.39 906.335C2085.58 905.695 2088.46 904.116 2090.59 901.838C2091.12 901.011 2091.34 900.043 2091.2 899.089C2091.07 898.135 2090.59 897.251 2089.84 896.579C2088.15 895.45 2086.16 894.758 2084.08 894.575C2082.01 894.393 2079.91 894.727 2078.02 895.542C2073.89 896.622 2070.34 899.091 2068.09 902.461C2067.66 903.253 2067.48 904.142 2067.57 905.025C2067.66 905.907 2068.02 906.748 2068.61 907.449C2069.2 908.151 2070 908.685 2070.9 908.99C2071.81 909.294 2072.79 909.358 2073.73 909.172Z" fill="#263238"/>
<path d="M2164.04 897.894C2160.97 897.861 2157.9 897.653 2154.86 897.271C2151.58 897.458 2148.33 896.656 2145.6 894.988C2144.86 894.309 2144.39 893.427 2144.26 892.476C2144.12 891.525 2144.33 890.56 2144.85 889.729C2146.17 888.235 2147.89 887.088 2149.85 886.407C2151.8 885.727 2153.92 885.536 2155.99 885.855C2160.27 885.866 2164.38 887.375 2167.5 890.075C2168.17 890.722 2168.62 891.531 2168.79 892.406C2168.97 893.281 2168.87 894.185 2168.51 895.01C2168.14 895.834 2167.53 896.545 2166.74 897.056C2165.94 897.568 2165.01 897.858 2164.04 897.894Z" fill="#263238"/>
<path d="M2147.26 929.999C2147.26 929.999 2148.01 929.999 2148.09 930.621C2148.76 938.924 2151.1 948.334 2159.6 950.272V950.756C2149.44 950.479 2146.5 937.956 2147.26 929.999Z" fill="#263238"/>
<path d="M2154.26 920.519C2168.63 918.028 2172.99 944.598 2159.67 946.881C2146.35 949.164 2142.22 922.595 2154.26 920.519Z" fill="#263238"/>
<path d="M2160.13 921.142C2162.91 922.249 2165.85 924.602 2168.93 924.463C2172.02 924.325 2174.73 921.142 2176.46 918.098C2176.46 918.098 2176.91 918.098 2176.98 918.098C2177.83 920.468 2177.66 923.046 2176.51 925.308C2175.37 927.569 2173.33 929.345 2170.81 930.275C2165.47 931.728 2160.88 927.715 2158.62 922.803C2158.39 922.18 2159.07 920.658 2160.13 921.142Z" fill="#263238"/>
<path d="M2097.21 935.188C2097.21 935.188 2096.53 935.672 2096.61 936.018C2098.34 944.183 2098.79 953.8 2091.19 957.744C2091.19 957.744 2091.19 958.229 2091.19 958.159C2100.97 955.461 2100.22 942.661 2097.21 935.188Z" fill="#263238"/>
<path d="M2087.73 927.715C2073.13 928.822 2076.67 955.392 2090.14 954.492C2103.61 953.593 2099.92 926.816 2087.73 927.715Z" fill="#263238"/>
<path d="M2081.94 930.137C2079.83 931.867 2077.87 934.634 2075.16 935.119C2072.45 935.603 2069.29 933.043 2066.88 930.483H2066.43C2066.96 935.603 2069.52 940.723 2074.94 941.138C2080.35 941.553 2082.91 936.71 2083.59 931.452C2083.74 930.829 2082.76 929.514 2081.94 930.137Z" fill="#263238"/>
<path d="M2117.38 972.413C2117.38 972.413 2117.38 984.936 2118.28 990.748C2118.28 991.302 2119.94 991.371 2122.12 991.233C2127.67 991.492 2133.18 990.336 2138.05 987.894C2142.93 985.452 2146.97 981.818 2149.74 977.395C2150.12 976.772 2149.21 976.287 2148.69 976.772C2141.37 982.836 2132.15 986.593 2122.35 987.496C2121.67 985.905 2123.1 965.978 2122.35 966.047C2117.48 967.048 2112.79 968.678 2108.43 970.891C2107.52 944.736 2111.28 918.651 2110.01 892.635C2110.01 891.667 2108.43 891.598 2108.27 892.635C2103.35 920.461 2101.49 948.672 2102.71 976.841C2102.71 979.747 2115.05 974.004 2117.38 972.413Z" fill="#263238"/>
<path d="M2122.57 988.327C2126.8 992.691 2132.16 995.999 2138.15 997.944C2141.43 998.913 2144.96 998.913 2148.24 997.944C2155.76 995.799 2155.16 989.641 2153.43 984.452C2152.47 981.699 2151.19 979.053 2149.59 976.564C2142.18 983.032 2132.71 987.154 2122.57 988.327Z" fill="#263238"/>
<path d="M2138.15 997.944C2141.43 998.913 2144.96 998.913 2148.24 997.944C2155.76 995.799 2155.16 989.641 2153.43 984.452C2149.6 984.793 2146.01 986.31 2143.24 988.758C2140.47 991.207 2138.68 994.443 2138.15 997.944Z" fill="#FF9CBD"/>
<path d="M2285.35 929.237C2270.9 929.237 2230.34 895.611 2223.87 831.678C2223.87 831.678 2233.95 888.761 2239.37 896.856C2244.79 904.951 2216.79 877.759 2210.62 826.281C2193.92 839.179 2175.3 849.805 2155.31 857.832C2129.35 866.481 2113.09 867.45 2111.06 865.789C2109.03 864.129 2147.11 850.083 2156.74 838.113C2156.74 838.113 2089.01 873.193 2056.35 877.759C2052.66 878.313 2042.2 807.53 2089.99 773.972C2137.77 740.415 2220.1 767.053 2243.13 784.766C2243.13 784.766 2268.49 786.288 2298.67 818.601C2328.85 850.913 2301 929.03 2285.35 929.237Z" fill="#263238"/>
<path d="M2168.18 968.33C2157.11 968.276 2146.51 964.189 2138.71 956.965C2130.91 949.742 2126.54 939.97 2126.56 929.791C2126.59 922.602 2128.8 915.564 2132.96 909.477C2137.12 903.39 2143.06 898.499 2150.09 895.36C2157.12 892.221 2164.98 890.96 2172.75 891.721C2180.53 892.482 2187.91 895.235 2194.07 899.665C2200.23 904.096 2204.91 910.027 2207.58 916.782C2210.25 923.538 2210.81 930.848 2209.18 937.88C2207.56 944.912 2203.82 951.384 2198.4 956.559C2192.97 961.735 2186.07 965.406 2178.49 967.154C2175.12 967.932 2171.65 968.327 2168.18 968.33ZM2132.13 929.791C2132.1 936.376 2134.2 942.822 2138.15 948.311C2142.11 953.801 2147.75 958.088 2154.35 960.63C2160.96 963.173 2168.24 963.855 2175.27 962.593C2182.3 961.33 2188.76 958.178 2193.84 953.536C2198.92 948.894 2202.39 942.971 2203.81 936.516C2205.23 930.06 2204.53 923.364 2201.81 917.273C2199.08 911.183 2194.45 905.972 2188.51 902.301C2182.56 898.629 2175.57 896.662 2168.4 896.648C2165.41 896.635 2162.42 896.984 2159.52 897.686C2151.72 899.472 2144.79 903.6 2139.83 909.415C2134.87 915.23 2132.16 922.4 2132.13 929.791Z" fill="#3FACF8"/>
<path d="M2080.66 978.502C2063.72 980.508 2047.47 965.078 2044.53 943.906C2042.99 934.43 2044.72 924.746 2049.5 916.229C2051.31 912.463 2054.14 909.189 2057.73 906.724C2061.32 904.259 2065.54 902.687 2069.98 902.158C2074.42 901.629 2078.93 902.163 2083.08 903.706C2087.24 905.25 2090.88 907.752 2093.68 910.971C2100.63 918.103 2105 927.052 2106.17 936.572C2108.95 956.43 2098.64 974.212 2083.59 978.086L2080.66 978.502ZM2054.39 918.651C2050.19 926.196 2048.66 934.762 2050.03 943.145C2052.59 961.342 2066.06 974.765 2080.13 973.105C2094.2 971.444 2103.31 955.323 2100.75 937.125C2099.72 928.699 2095.88 920.772 2089.76 914.431C2087.45 911.927 2084.53 909.963 2081.23 908.7C2077.93 907.437 2074.36 906.911 2070.8 907.165L2068.77 907.511C2065.65 908.338 2062.77 909.757 2060.29 911.676C2057.81 913.595 2055.81 915.972 2054.39 918.651Z" fill="#3FACF8"/>
<path d="M2128.52 934.012L2131.53 929.722C2124.61 925.57 2108.95 920.796 2100.45 931.936L2104.96 934.98C2112.79 924.948 2127.92 933.666 2128.52 934.012Z" fill="#3FACF8"/>
<path d="M2314.55 921.834L2319.14 918.859C2317.63 916.921 2304.09 899.693 2291.67 899.278C2279.25 898.863 2206.56 914.223 2203.47 914.846L2204.68 919.897C2225.75 915.468 2282.34 904.121 2291.52 904.398C2300.7 904.675 2310.79 917.06 2314.55 921.834Z" fill="#3FACF8"/>
<path d="M2299.5 963.626C2297.68 964.633 2295.76 965.489 2293.78 966.186C2291.8 966.875 2289.72 967.294 2287.61 967.431C2284.91 967.701 2282.19 967.417 2279.63 966.601C2277.61 965.973 2275.69 965.113 2273.91 964.041C2271.42 962.463 2269.26 960.496 2267.51 958.229V924.878C2267.51 924.878 2287.76 882.118 2308.23 888.069C2328.7 894.019 2319.89 952.209 2299.5 963.626Z" fill="#F7A9A0"/>
<path d="M2305.59 904.813C2305.97 904.813 2306.12 905.159 2305.59 905.297C2291.6 913.808 2286.4 928.269 2283.77 942.73C2284.35 941.168 2285.29 939.739 2286.52 938.542C2287.76 937.346 2289.26 936.409 2290.92 935.798C2292.59 935.186 2294.38 934.914 2296.17 935C2297.97 935.086 2299.72 935.527 2301.3 936.295C2301.76 936.295 2301.3 937.125 2301.3 937.125C2298.48 936.818 2295.62 937.317 2293.12 938.555C2290.61 939.793 2288.59 941.709 2287.31 944.044C2285.26 948.003 2283.7 952.156 2282.64 956.43C2282.19 957.813 2279.56 957.606 2279.78 956.084C2275.64 938.025 2285.2 910.348 2305.59 904.813Z" fill="#263238"/>
<path d="M2296.86 958.921C2296.86 960.043 2296.5 961.14 2295.82 962.073C2295.15 963.006 2294.18 963.733 2293.05 964.162C2291.93 964.592 2290.69 964.704 2289.49 964.485C2288.29 964.266 2287.19 963.726 2286.33 962.932C2285.47 962.139 2284.88 961.128 2284.64 960.027C2284.4 958.927 2284.53 957.786 2284.99 956.749C2285.46 955.713 2286.25 954.826 2287.26 954.203C2288.28 953.58 2289.47 953.247 2290.69 953.247C2292.33 953.247 2293.9 953.845 2295.06 954.909C2296.21 955.973 2296.86 957.416 2296.86 958.921Z" fill="white"/>
<path d="M2307.48 948.196C2307.48 948.99 2307.22 949.765 2306.74 950.425C2306.26 951.085 2305.58 951.6 2304.78 951.903C2303.98 952.207 2303.11 952.287 2302.26 952.132C2301.41 951.977 2300.64 951.595 2300.02 951.033C2299.41 950.472 2299 949.757 2298.83 948.979C2298.66 948.2 2298.75 947.393 2299.08 946.66C2299.41 945.927 2299.97 945.3 2300.69 944.859C2301.4 944.418 2302.25 944.183 2303.11 944.183C2304.27 944.183 2305.38 944.606 2306.2 945.358C2307.02 946.111 2307.48 947.132 2307.48 948.196Z" fill="white"/>
<path d="M2402 1099.17C2500.88 1222.95 2634.08 1431.91 2572 1476.89C2469.95 1550.71 2175.63 1588.91 2108.2 1595.13C2079.08 1597.76 2024.74 1422.16 2044.61 1399.95C2064.48 1377.73 2374.98 1367.56 2377.54 1350.13C2378.97 1340.23 2355.64 1254.64 2327.72 1148.16C2295.43 1025.34 2373.62 1063.95 2402 1099.17Z" fill="#F7A9A0"/>
<path d="M2095.78 1386.52C2095.78 1386.52 2006.76 1384.24 1948.51 1385.28C1916 1385.83 1860.38 1391.43 1836.68 1401.88C1801.31 1417.52 1664.12 1503.73 1686.17 1534.8C1706.11 1562.89 1814.1 1475.02 1814.1 1475.02C1814.1 1475.02 1696.55 1555.21 1727.56 1584.62C1758.56 1614.02 1865.58 1500.27 1865.58 1500.27C1865.58 1500.27 1747.2 1584.75 1784.23 1610.98C1812.22 1630.7 1915.7 1532.38 1915.7 1532.38C1915.7 1532.38 1814.55 1605.65 1842.32 1627.03C1873.1 1650.69 1974.77 1565.45 1974.77 1565.45C2055.45 1608.9 2113.24 1599.28 2153.43 1587.94C2162.99 1585.03 2095.78 1386.52 2095.78 1386.52Z" fill="#F7A9A0"/>
<path d="M1852.33 1445.06C1838.18 1453.98 1823.81 1462.91 1810.57 1472.73C1797.32 1482.56 1784.53 1493.49 1772.34 1504.35C1756.2 1518.66 1741.86 1534.58 1729.59 1551.82C1753.75 1522.62 1800.48 1486.02 1813.73 1475.71C1826.97 1465.4 1839.54 1454.95 1852.71 1444.99C1853.08 1445.27 1852.63 1444.85 1852.33 1445.06Z" fill="#263238"/>
<path d="M1892.59 1488.3C1875.13 1500.34 1857.22 1511.83 1840.29 1524.63C1823.36 1537.43 1808.68 1550.85 1792.88 1564.62C1791.6 1565.73 1792.88 1565.93 1793.93 1564.62C1810.34 1551.47 1826.67 1540.4 1843.23 1527.4C1859.78 1514.39 1875.89 1500.76 1892.97 1488.37L1892.59 1488.3Z" fill="#263238"/>
<path d="M1934.44 1519.65C1907.12 1537.62 1881.9 1558.14 1859.18 1580.88C1858.05 1581.99 1859.18 1582.13 1860.69 1580.88C1885.29 1560.12 1904.41 1543.66 1935.19 1520.34C1935.56 1520.2 1935.04 1519.3 1934.44 1519.65Z" fill="#263238"/>
<path d="M2162.38 1378.84C2149.89 1378.84 2123.48 1382.72 2094.2 1383.34C2028.35 1384.58 1935.34 1382.58 1902.15 1383.34C1812.45 1385.83 1756.61 1445.61 1731.02 1466.37C1715.72 1478.93 1701.78 1492.84 1689.4 1507.88C1683.01 1516.12 1676.76 1527.81 1684.89 1537.22C1694.75 1548.64 1733.05 1537.22 1773.31 1505.32C1774.74 1504.15 1773.84 1503.39 1772.34 1504.42C1716.04 1544.69 1694.07 1539.57 1688.43 1532.1C1684.81 1527.46 1688.43 1519.58 1692.04 1513.63C1697.68 1505.01 1704.45 1497.06 1712.21 1489.96C1738.14 1465.35 1766.73 1443.23 1797.55 1423.95C1830.65 1402.18 1869.79 1389.49 1910.43 1387.35C1939.33 1385.69 2027.98 1388.11 2094.35 1386.31C2123.4 1385.48 2149.74 1380.71 2162.08 1379.81C2163.44 1380.16 2163.29 1378.84 2162.38 1378.84Z" fill="#263238"/>
<path d="M2528.35 1256.3L2339.38 1251.88C2339.38 1251.88 2319.06 1166.56 2315 1117.92C2309.66 1053.5 2334.42 1036.55 2395.9 1092.04C2436.99 1129.2 2528.35 1256.3 2528.35 1256.3Z" fill="#3FACF8"/>
<path d="M2346.08 1083.6C2339.14 1076.48 2334.18 1067.9 2331.63 1058.62C2338.58 1065.75 2343.54 1074.32 2346.08 1083.6ZM2453.7 1190.37C2458.27 1188.15 2462.52 1185.41 2466.34 1182.2C2456.25 1184.54 2446.92 1189.1 2439.17 1195.49C2444.24 1194.37 2449.12 1192.65 2453.7 1190.37ZM2373.47 1144.08C2371.9 1148.56 2370.99 1153.21 2370.76 1157.91C2373.48 1153.85 2375.61 1149.48 2377.09 1144.91C2378.61 1140.42 2379.52 1135.77 2379.8 1131.07C2377.05 1135.12 2374.92 1139.49 2373.47 1144.08Z" fill="white"/>
<path d="M2362.49 1252.5C2360.46 1252.08 2341.04 1251.05 2339.91 1251.32C2337.8 1241.22 2335.85 1231.12 2333.59 1221.09C2332.46 1216.03 2331.26 1210.98 2329.98 1206C2328.7 1201.02 2327.19 1194.17 2325.99 1189.33C2325.99 1188.57 2324.71 1188.7 2324.78 1189.33C2325.76 1195.83 2326.67 1200.61 2327.57 1206.21C2328.47 1211.81 2329.22 1216.24 2330.28 1221.22C2332.39 1231.74 2334.19 1243.02 2336.9 1253.47C2345.53 1253.81 2354.18 1253.65 2362.79 1252.98L2362.49 1252.5Z" fill="#263238"/>
<path d="M2509.61 1239.35C2482.14 1237 2454.75 1234.92 2427.21 1234.02C2413.44 1233.61 2399.74 1233.33 2385.97 1233.26C2372.2 1233.19 2358.42 1234.44 2344.73 1234.16C2344.57 1234.16 2344.41 1234.22 2344.3 1234.33C2344.19 1234.43 2344.13 1234.57 2344.12 1234.72C2344.13 1234.86 2344.19 1235 2344.3 1235.11C2344.41 1235.21 2344.57 1235.27 2344.73 1235.27C2358.42 1234.85 2372.35 1236.17 2386.04 1236.45L2427.28 1237.42C2454.75 1238.25 2482.22 1239.01 2509.69 1240.46C2510.21 1240.46 2510.21 1239.42 2509.61 1239.35Z" fill="#263238"/>
<path d="M1604.67 1583.79H2021.51V1554.03L1604.67 1541.65V1583.79Z" fill="#455A64"/>
<path d="M1277.01 1583.3H1552.07C1575.47 1583.3 1541.53 1521.86 1455.89 1498.27C1370.25 1474.67 1249.99 1560.26 1277.01 1583.3Z" fill="#37474F"/>
<path d="M1384.92 1583.3C1380.45 1570.35 1374.44 1557.89 1367.01 1546.15C1363.32 1540.43 1359.04 1535.05 1354.22 1530.09C1349.22 1525.1 1343.81 1520.48 1338.04 1516.26C1345.49 1518.29 1352.39 1521.76 1358.28 1526.43C1364.28 1531.04 1369.37 1536.56 1373.33 1542.76C1377.35 1548.91 1380.42 1555.54 1382.44 1562.48C1384.51 1569.24 1385.35 1576.28 1384.92 1583.3Z" fill="#263238"/>
<path d="M1352.34 1524.84C1337.89 1533.41 1323.44 1541.23 1309.89 1550.16C1303.08 1554.44 1296.68 1559.25 1290.78 1564.55C1284.64 1569.71 1279.92 1576.14 1277.01 1583.3C1277.15 1575.06 1280.48 1567.13 1286.41 1560.95C1291.88 1554.63 1298.32 1549.09 1305.53 1544.49C1312.66 1539.92 1320.21 1535.93 1328.11 1532.58C1335.86 1529.22 1343.98 1526.62 1352.34 1524.84Z" fill="#263238"/>
<path d="M1079.69 1464.36H1748.18L1641.92 1006.73H973.352L1079.69 1464.36Z" fill="#455A64"/>
<path d="M1055 1464.36H1723.5L1617.16 1006.73H948.668L1055 1464.36Z" fill="#37474F"/>
<path d="M1415.55 1300.31H1431.2L1407.42 1197.63H1391.7L1415.55 1300.31Z" fill="#263238"/>
<path d="M1384.62 1300.31H1400.27L1376.49 1197.63H1360.77L1384.62 1300.31Z" fill="#263238"/>
<path d="M1353.69 1300.31H1369.34L1345.56 1197.63H1329.84L1353.69 1300.31Z" fill="#263238"/>
<path d="M1322.76 1300.31H1338.41L1314.63 1197.63H1298.91L1322.76 1300.31Z" fill="#263238"/>
<path d="M1291.76 1300.31H1307.48L1283.63 1197.63H1267.98L1291.76 1300.31Z" fill="#263238"/>
<path d="M1260.83 1300.31H1276.55L1252.7 1197.63H1237.05L1260.83 1300.31Z" fill="#263238"/>
<path d="M1229.9 1300.31H1245.63L1221.77 1197.63H1206.12L1229.9 1300.31Z" fill="#263238"/>
<path d="M1244.04 1583.86H1572.84V1560.4L1244.04 1550.57V1583.86Z" fill="#455A64"/>
<path d="M1154.64 1583.79H1331.19L1437.53 1327.43H1260.98L1154.64 1583.79Z" fill="#455A64"/>
<path d="M1125.59 1583.79H1302.14L1408.4 1327.43H1231.93L1125.59 1583.79Z" fill="#263238"/>
<path d="M2709.41 1583.79H339.326V1623.43H2709.41V1583.79Z" fill="#37474F"/>
<path d="M2652.97 1623.43H395.768V1722.93H2652.97V1623.43Z" fill="#37474F"/>
<path d="M2652.97 1623.43H395.768V1673.18H2652.97V1623.43Z" fill="#263238"/>
<path d="M701.756 2500.64H499.47V2533.37H701.756V2500.64Z" fill="#37474F"/>
<path d="M811.478 2979.16H789.654L611.45 2214.39L601.29 2170.8L569.307 2033.53L557.416 1982.33L512.564 1790.25L496.911 1722.93H574.725L587.443 1790.25L595.721 1834.4L601.29 1863.8L633.274 2033.53L643.584 2088.19L811.478 2979.16Z" fill="#37474F"/>
<path d="M574.725 1722.93L587.443 1790.25H512.564L496.911 1722.93H574.725Z" fill="#263238"/>
<path d="M643.583 2088.19L611.449 2214.39L601.29 2170.8L569.306 2033.53L557.416 1982.33L595.721 1834.4L601.29 1863.8L633.273 2033.53L643.583 2088.19Z" fill="#263238"/>
<path d="M705.668 1722.93L690.015 1790.25L633.273 2033.53L601.289 2170.8L412.926 2979.16H391.102L569.306 2033.53L601.289 1863.8L615.136 1790.25L627.779 1722.93H705.668Z" fill="#37474F"/>
<path d="M705.669 1722.93L690.016 1790.25H615.137L627.78 1722.93H705.669Z" fill="#263238"/>
<path d="M2547.92 2500.64H2345.63V2533.37H2547.92V2500.64Z" fill="#37474F"/>
<path d="M2657.64 2979.16H2635.74L2457.61 2214.39L2447.45 2170.8L2415.39 2033.53L2403.5 1982.33L2358.73 1790.25L2343 1722.93H2420.89L2433.53 1790.25L2441.88 1834.4L2447.45 1863.8L2479.36 2033.53L2489.67 2088.19L2657.64 2979.16Z" fill="#37474F"/>
<path d="M2420.89 1722.93L2433.53 1790.25H2358.73L2343 1722.93H2420.89Z" fill="#263238"/>
<path d="M2489.67 2088.19L2457.61 2214.39L2447.45 2170.8L2415.39 2033.53L2403.5 1982.33L2441.88 1834.4L2447.45 1863.8L2479.36 2033.53L2489.67 2088.19Z" fill="#263238"/>
<path d="M2551.76 1722.93L2536.1 1790.25L2479.36 2033.53L2447.45 2170.8L2259.01 2979.16H2237.26L2415.39 2033.53L2447.45 1863.8L2461.22 1790.25L2473.94 1722.93H2551.76Z" fill="#37474F"/>
<path d="M2551.75 1722.93L2536.1 1790.25H2461.22L2473.94 1722.93H2551.75Z" fill="#263238"/>
<path d="M539.881 1544.49L524.98 1542.69L589.775 1089.14L780.773 977.049L842.407 1014.14L834.204 1025.69L780.623 993.516L603.773 1097.3L539.881 1544.49Z" fill="#263238"/>
<path d="M584.131 1093.22C584.116 1095.54 584.851 1097.81 586.243 1099.74C587.635 1101.68 589.62 1103.19 591.947 1104.08C594.274 1104.97 596.838 1105.21 599.312 1104.76C601.786 1104.31 604.059 1103.2 605.842 1101.56C607.625 1099.92 608.838 1097.83 609.326 1095.55C609.815 1093.28 609.557 1090.92 608.585 1088.78C607.613 1086.64 605.971 1084.82 603.868 1083.54C601.765 1082.26 599.296 1081.58 596.774 1081.6C593.421 1081.6 590.205 1082.82 587.834 1085C585.463 1087.18 584.131 1090.14 584.131 1093.22Z" fill="#3FACF8"/>
<path d="M780.096 996.906C787.079 996.906 792.739 991.702 792.739 985.282C792.739 978.863 787.079 973.658 780.096 973.658C773.114 973.658 767.453 978.863 767.453 985.282C767.453 991.702 773.114 996.906 780.096 996.906Z" fill="#3FACF8"/>
<path d="M948.216 1030.05L864.006 1116.47L825.174 1072.32L801.544 1045.41L864.608 980.716L896.29 999.466L948.216 1030.05Z" fill="#3FACF8"/>
<path opacity="0.1" d="M948.216 1030.05L864.006 1116.47L825.174 1072.32L896.29 999.466L948.216 1030.05Z" fill="black"/>
<path d="M1070.2 1072.67L923.456 1223.23L826.001 1108.93L935.949 996.145L1070.2 1072.67Z" fill="#3FACF8"/>
<path d="M647.647 1583.86H430.535L443.855 1521.17H634.326L647.647 1583.86Z" fill="#3FACF8"/>
<path d="M2842.32 2165.89C2835.98 2206.43 2838.26 2247.72 2849.01 2287.46C2854.11 2305.87 2860.88 2323.86 2869.26 2341.22C2879.79 2363.43 2890.78 2385.16 2888.15 2409.51C2885.59 2411.1 2894.39 2410.83 2894.62 2408.48C2965.36 2371.46 3056.12 2364.68 3110.52 2304.14C3136.34 2275.42 3149.36 2239.1 3155.68 2202.77C3162.38 2163.19 3164.18 2119.74 3153.12 2080.37C3143.71 2047.37 3123.02 2015.54 3089.08 1999.35C3055.14 1983.16 3008.7 1984.13 2972.06 1994.57C2892.81 2017.2 2853.53 2095.59 2842.32 2165.89Z" fill="#3FACF8"/>
<path d="M2806.04 2647.32C2815.67 2617.78 2825.31 2588.17 2835.24 2558.69C2854.66 2500.85 2874.83 2443.28 2897.18 2386.33C2910.57 2352.29 2924.67 2318.55 2939.47 2285.11C2937.89 2264.02 2935.08 2243.02 2931.04 2222.21C2925.17 2197.03 2916.52 2172.67 2908.46 2147.97C2908.33 2147.62 2908.36 2147.24 2908.54 2146.91C2908.71 2146.58 2909.03 2146.33 2909.41 2146.21C2909.78 2146.09 2910.2 2146.11 2910.56 2146.27C2910.92 2146.44 2911.19 2146.72 2911.32 2147.07C2927.2 2181.11 2947.97 2224.57 2948.43 2264.7C2965.73 2226.85 2984.17 2189.55 3004.04 2152.81C3006.32 2121.73 3005.28 2090.51 3000.95 2059.61C3000.89 2059.32 3000.96 2059.02 3001.15 2058.77C3001.33 2058.52 3001.61 2058.35 3001.93 2058.3C3002.25 2058.24 3002.58 2058.31 3002.85 2058.48C3003.12 2058.65 3003.3 2058.91 3003.36 2059.2C3009.36 2086.25 3011.69 2113.89 3010.28 2141.47C3025.34 2113.79 3041.44 2086.6 3058.52 2059.75C3060.03 2057.33 3063.72 2059.75 3062.36 2062.17C3035.8 2109.22 3011.11 2157.31 2987.93 2205.95C3020.53 2180.02 3058.17 2159.99 3098.86 2146.93C3100.67 2146.38 3101.95 2148.73 3100.14 2149.35C3055.75 2166.96 3015.12 2191.7 2980.18 2222.42C2963.58 2258.08 2947.75 2294.01 2932.7 2330.22C2976.95 2290.3 3037.53 2264.07 3096.08 2250.03C3098.11 2249.54 3098.63 2252.31 3096.68 2252.86C3028.95 2271.62 2976.27 2306.97 2924.64 2349.73C2918.62 2364.35 2912.75 2379.02 2907.03 2393.74C2885.11 2449.41 2864.29 2505.48 2844.57 2561.94C2835.09 2588.93 2825.68 2616.05 2816.5 2643.1C2806.64 2672.3 2798.89 2703.09 2786.4 2731.25C2785.2 2733.95 2779.93 2733.33 2780.61 2730.08C2787.56 2702.12 2796.05 2674.5 2806.04 2647.32Z" fill="#263238"/>
<path d="M2923.36 2108.74C2935.92 2126.49 2944.59 2146.33 2948.88 2167.14C2948.88 2167.69 2948.05 2167.97 2947.82 2167.14C2939.92 2147.53 2930.69 2128.4 2920.2 2109.85C2919.15 2108.74 2922.16 2107.29 2923.36 2108.74Z" fill="#263238"/>
<path d="M3049.57 2244.49C3069.23 2234.44 3090.74 2227.78 3113.01 2224.84C3113.61 2224.84 3113.99 2225.53 3113.01 2225.74C3102.77 2229.69 3092.09 2232.66 3081.78 2236.05C3071.47 2239.44 3061.23 2244.15 3050.77 2247.47C3050.39 2247.49 3050 2247.39 3049.68 2247.2C3049.36 2247.01 3049.11 2246.72 3048.97 2246.39C3048.84 2246.06 3048.82 2245.69 3048.93 2245.35C3049.04 2245.01 3049.26 2244.71 3049.57 2244.49Z" fill="#263238"/>
<path d="M3085.09 2081.48C3091.5 2077.02 3098.35 2073.13 3105.56 2069.85C3105.8 2069.72 3106.09 2069.67 3106.36 2069.73C3106.64 2069.79 3106.88 2069.95 3107.03 2070.17C3107.18 2070.39 3107.22 2070.65 3107.16 2070.9C3107.1 2071.16 3106.93 2071.38 3106.69 2071.51C3100.41 2076.1 3093.69 2080.13 3086.59 2083.55C3085.31 2084.25 3083.81 2082.24 3085.09 2081.48Z" fill="#263238"/>
<path d="M2603.83 2386.82C2654.78 2400.66 2706.03 2413.53 2756.98 2427.3C2761.42 2428.54 2847.28 2276.8 2816.35 2198.62C2787.6 2126.24 2721.76 2072.14 2643.27 2047.51C2606.92 2036.16 2562.22 2026.75 2523.76 2034.43C2489.59 2041.35 2465.44 2067.09 2454.37 2096.7C2439.32 2136.83 2444.29 2184.78 2452.49 2225.74C2459.08 2264.23 2476.37 2300.51 2502.69 2331.05C2529.63 2360.6 2564.17 2375.96 2603.83 2386.82Z" fill="#3FACF8"/>
<path d="M2530.01 2242.56C2562.2 2257.03 2595.59 2269.13 2629.87 2278.74C2652.73 2284.41 2675.04 2291.84 2696.55 2300.95C2675.1 2256.81 2651.39 2213.63 2626.41 2170.87C2593.45 2162.09 2558.68 2148.46 2534.07 2127.01C2533.79 2126.79 2533.62 2126.47 2533.59 2126.13C2533.56 2125.8 2533.68 2125.46 2533.92 2125.21C2534.16 2124.95 2534.5 2124.79 2534.87 2124.77C2535.23 2124.74 2535.6 2124.85 2535.88 2125.07C2563.04 2142.71 2593 2153.3 2623.02 2165.2C2616.25 2153.71 2609.38 2142.18 2602.4 2130.6C2600.52 2127.42 2605.26 2124.24 2607.59 2127.35C2634.36 2163.11 2658.54 2200.43 2679.99 2239.1C2685.47 2205.21 2687.24 2170.9 2685.26 2136.69C2685.22 2136.59 2685.21 2136.48 2685.23 2136.37C2685.25 2136.26 2685.29 2136.16 2685.36 2136.07C2685.43 2135.98 2685.52 2135.91 2685.63 2135.86C2685.74 2135.81 2685.85 2135.78 2685.97 2135.78C2686.09 2135.78 2686.21 2135.81 2686.32 2135.86C2686.42 2135.91 2686.51 2135.98 2686.58 2136.07C2686.65 2136.16 2686.7 2136.26 2686.72 2136.37C2686.73 2136.48 2686.73 2136.59 2686.69 2136.69C2693.06 2174 2692.66 2212.02 2685.48 2249.2C2703.32 2281.99 2719.57 2315.62 2734.25 2349.59C2740.04 2329.18 2747.57 2309.05 2752.61 2288.43C2760.38 2259.02 2762.92 2228.64 2760.14 2198.48C2760.14 2197.58 2761.42 2197.51 2761.57 2198.48C2770.62 2254.41 2763.25 2311.56 2740.19 2363.99C2748.7 2384.74 2756.83 2405.02 2764.28 2425.57C2802.71 2530.66 2825.49 2640.05 2832.01 2750.76C2832.01 2751.3 2831.78 2751.81 2831.37 2752.18C2830.96 2752.56 2830.4 2752.77 2829.82 2752.77C2829.24 2752.77 2828.69 2752.56 2828.28 2752.18C2827.87 2751.81 2827.64 2751.3 2827.64 2750.76C2814.32 2641.61 2788.9 2533.99 2751.78 2429.58C2736.73 2388.76 2719.95 2349.11 2701.29 2310.15C2671.19 2301.99 2641.08 2290.92 2611.66 2281.51C2582.23 2272.1 2553.26 2261.65 2528.88 2244.22C2527.9 2243.52 2528.95 2242.07 2530.01 2242.56Z" fill="#263238"/>
<path d="M2482.52 2198.69C2513.68 2208.93 2543.18 2223.18 2574.33 2233.28C2575.76 2233.77 2574.93 2235.91 2573.43 2235.64C2540.54 2229.34 2507.88 2220 2481.32 2200.14C2480.11 2199.38 2481.39 2198.13 2482.52 2198.69Z" fill="#263238"/>
<path d="M2736.88 2136.42C2736.88 2134.89 2738.99 2134.06 2739.44 2135.59C2748.02 2162.02 2753.89 2190.04 2745.61 2217.02C2745.61 2218.06 2743.43 2218.13 2743.35 2217.02C2741.93 2189.97 2743.51 2163.54 2736.88 2136.42Z" fill="#263238"/>
<path d="M2608.05 2075.74C2617.97 2088.86 2622.72 2104.7 2621.52 2120.64C2621.52 2121.61 2619.71 2122.23 2619.41 2120.64C2615.65 2105.56 2609.32 2091.79 2604.36 2077.12C2604.33 2076.72 2604.45 2076.32 2604.68 2075.98C2604.92 2075.64 2605.26 2075.37 2605.67 2075.22C2606.07 2075.07 2606.52 2075.04 2606.94 2075.13C2607.37 2075.22 2607.76 2075.43 2608.05 2075.74Z" fill="#263238"/>
<path d="M3210.09 2453.73C3195.04 2497.32 3159.67 2557.51 3103.45 2558.07C3067.03 2558.07 3030.3 2554.4 2993.8 2553.92C2954.67 2553.36 2915.54 2553.43 2876.48 2555.58C2873.32 2555.58 2881.15 2447.91 2975.14 2395.4C3001.48 2380.66 3033.69 2376.02 3063.57 2370.07C3097.77 2362.64 3132.88 2359.26 3168.02 2360.04C3189.62 2360.87 3207.6 2365.09 3215.28 2385.37C3222.96 2405.64 3217.01 2433.04 3210.09 2453.73Z" fill="#3FACF8"/>
<path d="M3169.45 2399.34C3146.87 2404.74 3123.54 2410.9 3100.59 2417.61C3106.57 2411.65 3112.9 2405.99 3119.56 2400.66C3129.41 2393.12 3140.25 2386.82 3150.79 2380.52C3151.69 2379.97 3151.16 2378.38 3150.03 2378.79C3127.79 2387.29 3108.58 2401.33 3094.57 2419.34C3066.05 2427.85 3037.75 2437.19 3010.51 2447.5C2991.69 2454.57 2973.64 2463.28 2956.63 2473.52C2962.09 2462.62 2968.61 2452.2 2976.12 2442.38C2988.61 2427.5 3005.47 2419.2 3021.8 2408.68C3022.13 2408.5 3022.36 2408.2 3022.46 2407.86C3022.55 2407.52 3022.49 2407.15 3022.29 2406.85C3022.09 2406.55 3021.77 2406.33 3021.39 2406.25C3021.02 2406.16 3020.62 2406.22 3020.29 2406.4C3003.17 2413.16 2987.77 2423.14 2975.1 2435.7C2962.42 2448.26 2952.75 2463.12 2946.69 2479.33C2927.35 2492.3 2909.68 2507.24 2894.02 2523.89C2831.78 2588.86 2782.79 2675.28 2782.64 2763.43C2782.64 2765.57 2786.33 2766.12 2786.78 2763.98C2802.72 2677.51 2843.68 2596.59 2905.38 2529.7C2909.82 2524.92 2914.41 2520.43 2919 2515.86C2936.04 2513.75 2953.21 2512.57 2970.4 2512.33C2990.42 2512.33 3010.28 2515.03 3030.23 2516.55C3063.04 2518.97 3099.31 2519.39 3128.89 2504.17C3129.18 2504.02 3129.41 2503.78 3129.52 2503.48C3129.64 2503.19 3129.62 2502.87 3129.49 2502.58C3129.36 2502.3 3129.12 2502.07 3128.81 2501.94C3128.5 2501.81 3128.16 2501.79 3127.83 2501.88C3061.91 2523.96 2992.37 2496 2926.53 2509.15C2954.85 2484.34 2988.05 2464.71 3024.36 2451.31L3030.45 2449.09C3072.82 2453.73 3117.52 2463.9 3158.76 2451.24C3159.02 2451.17 3159.24 2451.02 3159.38 2450.8C3159.51 2450.59 3159.55 2450.33 3159.48 2450.09C3159.41 2449.86 3159.24 2449.65 3159.01 2449.53C3158.77 2449.41 3158.5 2449.37 3158.24 2449.44C3118.35 2458.57 3080.12 2447.08 3040.84 2445.29C3083.66 2429.93 3127.31 2417.61 3170.28 2402.53C3173.29 2401.28 3173.36 2398.24 3169.45 2399.34Z" fill="#263238"/>
<path d="M3188.11 2437.54C3167.67 2439.97 3147.09 2441.4 3126.48 2441.83C3126.03 2441.83 3125.88 2442.52 3126.48 2442.59C3147.23 2446.14 3168.61 2444.91 3188.72 2438.99C3189.54 2438.71 3189.09 2437.4 3188.11 2437.54Z" fill="#263238"/>
<path d="M3048.89 2400.17C3037.51 2404.87 3027.18 2411.46 3018.41 2419.62C3017.28 2420.51 3018.79 2422.31 3019.92 2421.48C3025.11 2418.02 3030.45 2414.56 3035.8 2411.59C3040.98 2408.96 3046.01 2406.08 3050.85 2402.94C3052.05 2401.9 3050.55 2399.34 3048.89 2400.17Z" fill="#263238"/>
<path d="M2717.02 2540.49C2717.69 2541.88 2715.43 2543.26 2714.53 2541.74C2714.38 2541.97 2714.17 2542.16 2713.92 2542.3C2713.67 2542.45 2713.39 2542.54 2713.1 2542.57C2675.27 2550.89 2636.92 2557.06 2598.26 2561.04C2567.18 2563.53 2531.36 2565.12 2504.12 2548.59C2467.24 2526.1 2443.01 2465.97 2462.95 2427.78C2486.51 2382.46 2557.55 2407.02 2593.22 2423.21C2648.1 2447.84 2691.89 2489.32 2717.02 2540.49Z" fill="#3FACF8"/>
<path d="M2744.56 2561.46C2723.85 2543.02 2700.83 2526.9 2676 2513.44C2658.12 2487.42 2634.41 2465.2 2606.46 2448.26C2605.11 2447.43 2603.98 2449.37 2605.19 2450.27C2627.42 2466.64 2647.14 2485.7 2663.81 2506.93C2636.1 2493.03 2607.33 2481.01 2577.72 2470.96C2567.19 2452.91 2551.12 2438.11 2531.51 2428.4C2531.13 2428.4 2530.68 2428.4 2531.06 2428.96C2547.21 2440.26 2561.31 2453.86 2572.83 2469.23C2555.29 2463.21 2537.68 2457.67 2520.15 2452.27C2518.57 2451.79 2517.96 2454 2519.47 2454.56C2550.93 2465.84 2582.99 2477.74 2614.14 2491.44C2576.18 2497.01 2537.49 2497.01 2499.53 2491.44C2499.33 2491.41 2499.12 2491.45 2498.95 2491.55C2498.78 2491.65 2498.66 2491.8 2498.6 2491.98C2498.55 2492.16 2498.56 2492.35 2498.65 2492.52C2498.74 2492.68 2498.89 2492.82 2499.08 2492.89C2538.68 2503.68 2580.74 2504.28 2620.69 2494.62C2640.52 2503.46 2659.77 2513.37 2678.33 2524.3C2662.7 2523.11 2646.96 2524.3 2631.75 2527.83C2604.88 2533.56 2577.38 2536.41 2549.8 2536.34C2548.74 2536.34 2548.52 2537.86 2549.8 2538C2597.28 2545.54 2642.21 2525.69 2689.32 2531.08C2706.81 2542.01 2723.23 2554.33 2738.39 2567.89C2767.77 2594.91 2791.97 2626.3 2809.95 2660.75C2829.75 2697.83 2840.51 2736.86 2856.54 2775.47C2856.64 2775.82 2856.89 2776.13 2857.23 2776.32C2857.58 2776.51 2857.99 2776.56 2858.38 2776.47C2858.77 2776.38 2859.1 2776.15 2859.31 2775.83C2859.51 2775.51 2859.57 2775.13 2859.47 2774.77C2845.4 2698.66 2804.46 2615.29 2744.56 2561.46Z" fill="#263238"/>
<path d="M2601.2 2457.74C2598.06 2452.5 2593.94 2447.81 2589.01 2443.9C2585.05 2439.91 2580.3 2436.65 2575.01 2434.28C2574.56 2434.28 2574.26 2434.7 2574.56 2434.98C2578.47 2439.06 2583.89 2441.9 2588.1 2445.91C2592.32 2449.92 2595.63 2454.42 2600.07 2458.29C2600.18 2458.35 2600.31 2458.38 2600.43 2458.39C2600.56 2458.39 2600.69 2458.36 2600.8 2458.31C2600.91 2458.25 2601.01 2458.17 2601.08 2458.07C2601.15 2457.97 2601.19 2457.86 2601.2 2457.74Z" fill="#263238"/>
<path d="M2522.86 2481.2C2515.78 2479.6 2508.33 2479.74 2501.18 2478.36C2494.05 2476.79 2487.02 2474.88 2480.11 2472.62C2479.92 2472.59 2479.73 2472.61 2479.57 2472.7C2479.4 2472.78 2479.27 2472.92 2479.2 2473.08C2479.13 2473.24 2479.12 2473.42 2479.18 2473.59C2479.23 2473.76 2479.35 2473.9 2479.51 2474C2492.48 2481.34 2507.7 2484.59 2522.86 2483.27C2523.09 2483.19 2523.29 2483.05 2523.43 2482.87C2523.57 2482.68 2523.64 2482.46 2523.64 2482.23C2523.64 2482.01 2523.57 2481.79 2523.43 2481.6C2523.29 2481.42 2523.09 2481.27 2522.86 2481.2Z" fill="#263238"/>
<path d="M2970.55 2641.44L2962.8 2722.4L2936.53 2995.63H2703.77L2670.88 2722.4L2661.18 2641.44H2970.55Z" fill="#455A64"/>
<path d="M2970.55 2641.44L2962.8 2722.4H2670.88L2661.18 2641.44H2970.55Z" fill="#263238"/>
<path d="M2993.58 2619.37H2638.15V2685.03H2993.58V2619.37Z" fill="#455A64"/>
</svg>
