<svg width="310" height="380" viewBox="0 0 310 380" fill="none" xmlns="http://www.w3.org/2000/svg">
<mask id="mask0_21_5168" style="mask-type:luminance" maskUnits="userSpaceOnUse" x="0" y="0" width="310" height="380">
<path d="M155.25 379.058L156.789 378.006C154.557 376.322 152.365 374.531 150.228 372.641C131.181 355.794 115.659 332.324 101.109 308.296C85.151 281.94 69.9653 254.344 58.8594 223.528C57.1565 218.801 55.5356 213.964 54.0221 209.033C46.8722 185.758 42.0812 160.428 42.0827 135.175C42.0842 130.219 42.2691 125.265 42.6568 120.33C46.3056 73.9102 67.5333 30.0495 94.211 2.75682C94.5793 2.38055 94.9581 2.0272 95.3279 1.65509C91.7403 0.829804 88.3225 0.472257 85.1315 0.4681C103.976 0.501361 130.599 12.3527 155.25 65.2895C179.935 12.2841 206.6 0.4681 225.447 0.4681C225.664 0.4681 225.878 0.468205 226.092 0.472363C253.037 0.854863 279.61 26.6569 295.445 67.8048C311.272 108.934 318.505 173.674 291.335 232.028C266.453 285.47 222.954 332.871 158.353 376.94L155.25 379.058ZM102.227 163.208C98.6606 163.208 95.7678 167.24 95.7678 172.215V208.238C95.7678 213.213 98.6606 217.246 102.227 217.246H135.87V264.146C135.87 269.118 138.761 273.151 142.33 273.151H168.17C171.738 273.151 174.631 269.118 174.631 264.146V217.246H208.272C211.84 217.246 214.733 213.213 214.733 208.238V172.215C214.733 167.24 211.84 163.208 208.272 163.208H174.693L174.631 155.684V116.308C174.631 111.335 171.738 107.302 168.17 107.302H142.33C138.761 107.302 135.87 111.335 135.87 116.308V163.208H102.227Z" fill="white"/>
</mask>
<g mask="url(#mask0_21_5168)">
<path d="M155.25 379.058L156.789 378.006C154.557 376.322 152.365 374.531 150.228 372.641C131.181 355.794 115.659 332.324 101.109 308.296C85.151 281.94 69.9653 254.344 58.8594 223.528C57.1565 218.801 55.5356 213.964 54.0221 209.033C46.8722 185.758 42.0812 160.428 42.0827 135.175C42.0842 130.219 42.2691 125.265 42.6568 120.33C46.3056 73.9102 67.5333 30.0495 94.211 2.75682C94.5793 2.38055 94.9581 2.0272 95.3279 1.65509C91.7403 0.829804 88.3225 0.472257 85.1315 0.4681C103.976 0.501361 130.599 12.3527 155.25 65.2895C179.935 12.2841 206.6 0.4681 225.447 0.4681C225.664 0.4681 225.878 0.468205 226.092 0.472363C253.037 0.854863 279.61 26.6569 295.445 67.8048C311.272 108.934 318.505 173.674 291.335 232.028C266.453 285.47 222.954 332.871 158.353 376.94L155.25 379.058ZM102.227 163.208C98.6606 163.208 95.7678 167.24 95.7678 172.215V208.238C95.7678 213.213 98.6606 217.246 102.227 217.246H135.87V264.146C135.87 269.118 138.761 273.151 142.33 273.151H168.17C171.738 273.151 174.631 269.118 174.631 264.146V217.246H208.272C211.84 217.246 214.733 213.213 214.733 208.238V172.215C214.733 167.24 211.84 163.208 208.272 163.208H174.693L174.631 155.684V116.308C174.631 111.335 171.738 107.302 168.17 107.302H142.33C138.761 107.302 135.87 111.335 135.87 116.308V163.208H102.227Z" fill="url(#paint0_linear_21_5168)"/>
</g>
<mask id="mask1_21_5168" style="mask-type:luminance" maskUnits="userSpaceOnUse" x="0" y="0" width="157" height="380">
<path d="M155.25 379.058L152.146 376.94C87.5457 332.871 44.048 285.47 19.1656 232.028C6.05706 203.877 0.957396 174.24 0.964852 146.483C0.973799 116.705 6.86375 89.0917 15.056 67.8048C30.8903 26.6569 57.4652 0.854863 84.4084 0.472363C84.6216 0.468205 84.8378 0.4681 85.0525 0.4681C88.2659 0.4681 91.7104 0.821488 95.3279 1.65509C94.9581 2.0272 94.5793 2.38055 94.211 2.75682C67.5333 30.0495 46.3056 73.9102 42.6568 120.33C42.2691 125.265 42.0842 130.219 42.0827 135.175C42.0812 160.428 46.8722 185.758 54.0221 209.033C55.5356 213.964 57.1565 218.801 58.8594 223.528C69.9653 254.344 85.151 281.94 101.109 308.296C115.659 332.324 131.181 355.794 150.228 372.641C152.365 374.531 154.557 376.322 156.789 378.006L155.25 379.058Z" fill="white"/>
</mask>
<g mask="url(#mask1_21_5168)">
<path d="M155.25 379.058L152.146 376.94C87.5457 332.871 44.048 285.47 19.1656 232.028C6.05706 203.877 0.957396 174.24 0.964852 146.483C0.973799 116.705 6.86375 89.0917 15.056 67.8048C30.8903 26.6569 57.4652 0.854863 84.4084 0.472363C84.6216 0.468205 84.8378 0.4681 85.0525 0.4681C88.2659 0.4681 91.7104 0.821488 95.3279 1.65509C94.9581 2.0272 94.5793 2.38055 94.211 2.75682C67.5333 30.0495 46.3056 73.9102 42.6568 120.33C42.2691 125.265 42.0842 130.219 42.0827 135.175C42.0812 160.428 46.8722 185.758 54.0221 209.033C55.5356 213.964 57.1565 218.801 58.8594 223.528C69.9653 254.344 85.151 281.94 101.109 308.296C115.659 332.324 131.181 355.794 150.228 372.641C152.365 374.531 154.557 376.322 156.789 378.006L155.25 379.058Z" fill="#B5B5B5"/>
</g>
<defs>
<linearGradient id="paint0_linear_21_5168" x1="330.665" y1="391.144" x2="3.20024" y2="156.254" gradientUnits="userSpaceOnUse">
<stop stop-color="#CACACA"/>
<stop offset="0.816647" stop-color="#E1E1E1"/>
<stop offset="1" stop-color="#DADADA"/>
</linearGradient>
</defs>
</svg>
