<svg width="601" height="450" viewBox="0 0 601 450" fill="none" xmlns="http://www.w3.org/2000/svg">
<path d="M252.711 449.573C307.147 452.319 358.795 442.261 394.392 406.923C424.997 376.536 440.777 337.852 474.031 309.027C492.914 292.657 516.534 280.566 538.643 267.148C560.742 253.731 582.116 238.195 593.612 217.772C622.539 166.37 561.179 105.967 502.084 92.2352C452.211 80.6509 396.219 92.7417 348.645 75.9073C316.859 64.6583 293.553 42.0532 265.317 25.6754C228.828 4.51834 181.385 -6.06018 138.218 3.6053C95.0412 13.2779 58.8845 45.7839 58.561 82.3129C58.3862 102.478 68.4132 122.116 67.303 142.267C65.4409 176.271 36.9859 199.39 15.9615 225.997C-5.51747 253.167 -2.89489 295.688 9.58862 324.977C29.258 371.107 81.5786 401.966 133.121 422.959C170.327 438.117 211.161 447.475 252.711 449.573Z" fill="#C2E4F8"/>
<mask id="mask0_104_4777" style="mask-type:luminance" maskUnits="userSpaceOnUse" x="93" y="35" width="373" height="307">
<path d="M93.5694 35.8816H465.167V341.664H93.5694V35.8816Z" fill="white"/>
</mask>
<g mask="url(#mask0_104_4777)">
<mask id="mask1_104_4777" style="mask-type:luminance" maskUnits="userSpaceOnUse" x="93" y="35" width="373" height="307">
<path d="M284.2 341.555C266.639 341.555 252.302 339.999 243.543 338.769C244.019 338.379 244.456 337.964 244.85 337.524L339.015 336.128C319.256 340.235 300.361 341.555 284.2 341.555ZM430.776 289.91L418.005 85.215C480.848 143.858 476.231 240.423 430.776 289.91ZM172 184.859C150.93 183.979 128.956 183.308 112.126 183.308C105.819 183.308 100.238 183.402 95.6943 183.615C94.9963 183.648 94.3176 183.727 93.6619 183.848C94.4407 178.33 95.5355 172.835 96.9271 167.408C102.307 171.534 109.474 174.94 118.47 174.941C119.09 174.941 119.717 174.924 120.355 174.892C137.439 174 157.096 167.191 170.247 167.191C170.845 167.191 171.43 167.205 172 167.235V184.859ZM104.044 146.104C109.541 132.842 116.831 120.268 125.628 108.95C126.431 107.916 127.605 106.375 129.16 104.44C135.786 111.187 144.418 116.362 153.022 119.388C161.041 122.207 167.312 124.711 172 129.202V129.303C171.417 129.256 170.828 129.231 170.237 129.231C168.671 129.231 167.077 129.399 165.493 129.75C164.603 129.946 163.746 130.194 162.926 130.489C157.997 127.714 152.863 126.305 147.436 126.305C139.525 126.305 130.99 129.298 121.55 135.418C114.724 139.843 108.932 143.385 104.044 146.104ZM186.173 68.9961C185.25 65.5485 183.938 62.3836 182.13 59.5962C200.849 49.0965 224.392 40.2836 253.163 37.2147C261.15 36.3624 269.359 35.9321 277.674 35.9321C318.075 35.9321 361.118 46.0809 394.819 67.3753H214.992C207.19 66.6212 200.833 65.9465 196.301 65.4446C195.985 65.4088 195.672 65.3922 195.363 65.3922C192.937 65.3922 190.767 66.4379 189.542 68.0312C188.381 68.2848 187.258 68.6077 186.173 68.9961Z" fill="white"/>
</mask>
<g mask="url(#mask1_104_4777)">
<mask id="mask2_104_4777" style="mask-type:luminance" maskUnits="userSpaceOnUse" x="93" y="35" width="373" height="307">
<path d="M284.2 341.555C266.639 341.555 252.302 339.999 243.543 338.769C244.019 338.379 244.456 337.964 244.85 337.524L339.015 336.128C319.256 340.235 300.361 341.555 284.2 341.555ZM430.776 289.91L418.005 85.215C480.848 143.858 476.231 240.423 430.776 289.91ZM172 184.859C150.93 183.979 128.956 183.308 112.126 183.308C105.819 183.308 100.238 183.402 95.6943 183.615C94.9963 183.648 94.3176 183.727 93.6619 183.848C94.4407 178.33 95.5355 172.835 96.9271 167.408C102.307 171.534 109.474 174.94 118.47 174.941C119.09 174.941 119.717 174.924 120.355 174.892C137.439 174 157.096 167.191 170.247 167.191C170.845 167.191 171.43 167.205 172 167.235V184.859ZM104.044 146.104C109.541 132.842 116.831 120.268 125.628 108.95C126.431 107.916 127.605 106.375 129.16 104.44C135.786 111.187 144.418 116.362 153.022 119.388C161.041 122.207 167.312 124.711 172 129.202V129.303C171.417 129.256 170.828 129.231 170.237 129.231C168.671 129.231 167.077 129.399 165.493 129.75C164.603 129.946 163.746 130.194 162.926 130.489C157.997 127.714 152.863 126.305 147.436 126.305C139.525 126.305 130.99 129.298 121.55 135.418C114.724 139.843 108.932 143.385 104.044 146.104ZM186.173 68.9961C185.25 65.5485 183.938 62.3836 182.13 59.5962C200.849 49.0965 224.392 40.2836 253.163 37.2147C261.15 36.3624 269.359 35.9321 277.674 35.9321C318.075 35.9321 361.118 46.0809 394.819 67.3753H214.992C207.19 66.6212 200.833 65.9465 196.301 65.4446C195.985 65.4088 195.672 65.3922 195.363 65.3922C192.937 65.3922 190.767 66.4379 189.542 68.0312C188.381 68.2848 187.258 68.6077 186.173 68.9961Z" fill="white"/>
</mask>
<g mask="url(#mask2_104_4777)">
<path d="M245.953 495.885L663.811 221.345L328.557 -118.398L-89.3015 156.142L245.953 495.885Z" fill="url(#paint0_linear_104_4777)"/>
</g>
</g>
</g>
<path d="M182.007 154.9C183.41 167.141 186.706 183.324 190.667 197.27H193.153C188.033 180.442 183.32 157.393 184.706 130.827C186.107 104.035 194.002 71.5064 179.281 55.9679C167.028 43.0352 115.033 41.101 97.9359 40.8174C95.7992 40.7816 94.576 42.8262 95.9062 44.217C102.461 51.0713 116.186 66.9446 117.382 80.8072C118.958 99.0768 136.044 113.418 153.022 119.387C169.999 125.356 179.142 129.91 182.007 154.9Z" fill="#3B58A8"/>
<path d="M172 102.93L170.653 98.5608C169.988 96.3966 169.296 94.2394 168.593 92.084L168.068 90.4675C167.894 89.9281 167.686 89.4162 167.496 88.8899C167.297 88.3683 167.132 87.8377 166.907 87.3227L166.219 85.7843C164.373 81.6773 161.652 77.8752 158.478 74.3708C156.846 72.6479 155.138 70.9633 153.241 69.4236L152.544 68.8358L151.819 68.2706C151.334 67.8962 150.861 67.51 150.366 67.1434C149.364 66.4215 148.372 65.6875 147.322 65.0093C143.186 62.2333 138.643 59.878 133.922 57.8111C129.2 55.7499 124.232 54.0095 119.134 52.719L119.11 52.7134C118.911 52.6632 118.799 52.4877 118.86 52.3223C118.909 52.187 119.059 52.1011 119.221 52.1011C119.251 52.1011 119.282 52.1046 119.313 52.1102C129.829 54.329 139.776 58.316 148.479 63.7773C152.839 66.4966 156.79 69.6929 160.197 73.2601C163.567 76.8488 166.399 80.8228 168.364 85.0913L169.091 86.6947C169.329 87.2297 169.507 87.7827 169.717 88.326C169.911 88.8711 170.13 89.4205 170.303 89.9613L170.823 91.586C171.22 92.8171 171.613 94.0505 172 95.2838V102.93Z" fill="#DCE6FD"/>
<path d="M182.497 171.48C191.39 182.33 190.248 188.401 190.522 193.543C190.569 194.455 190.63 195.746 190.757 197.271H193.185C192.689 195.177 192.339 193.067 192.212 190.998C191.347 176.797 187.493 152.557 172.757 138.058C158.021 123.559 141.884 122.237 121.55 135.418C104.605 146.401 94.0353 151.945 87.8365 152.975C86.3021 153.231 85.5185 154.671 86.2657 155.814C90.2411 161.898 101.482 175.875 120.355 174.892C144.429 173.636 173.605 160.631 182.497 171.48Z" fill="#5178BC"/>
<path d="M128.701 153.426C128.587 153.426 128.475 153.384 128.4 153.303C128.279 153.174 128.299 152.99 128.438 152.88C129.769 151.827 131.18 150.878 132.636 149.962C134.092 149.048 135.592 148.179 137.153 147.384C140.266 145.788 143.586 144.425 147.123 143.485C148.783 143.051 150.491 142.709 152.235 142.506C152.164 143.073 152.134 143.649 152.147 144.227C150.647 144.394 149.156 144.668 147.688 145.025C144.31 145.842 141.052 147.063 137.923 148.483C136.365 149.203 134.82 149.955 133.321 150.771C131.827 151.586 130.35 152.449 128.943 153.354L128.933 153.359C128.864 153.404 128.782 153.426 128.701 153.426Z" fill="#C0D6FC"/>
<mask id="mask3_104_4777" style="mask-type:luminance" maskUnits="userSpaceOnUse" x="171" y="67" width="262" height="271">
<path d="M171.887 67.2751H432.854V337.53H171.887V67.2751Z" fill="white"/>
</mask>
<g mask="url(#mask3_104_4777)">
<mask id="mask4_104_4777" style="mask-type:luminance" maskUnits="userSpaceOnUse" x="172" y="67" width="261" height="271">
<path d="M244.85 337.525C246.268 335.941 247.111 334.064 247.169 332.049C247.2 330.938 247.234 329.745 247.269 328.474C307.075 328.329 387.75 324.654 412.116 323.478C416.136 323.283 419.206 320.477 418.992 317.197L403.406 77.8961C403.225 75.1188 400.406 72.986 397.054 72.986C396.889 72.986 396.722 72.9917 396.556 73.0017C380.912 73.9815 364.62 74.3882 348.334 74.3882C296.634 74.3882 245.058 70.2846 214.992 67.3755H397.065C408.174 67.3755 417.335 74.4799 417.901 83.5337L418.005 85.2152L430.776 289.91L432.765 321.772C433.207 328.856 426.372 334.833 417.679 334.962L339.015 336.128L244.85 337.525ZM189.325 185.635C183.711 185.367 177.888 185.105 172 184.859V158.669C172.984 158.589 173.973 158.441 174.96 158.223C184.596 156.091 190.287 147.987 187.674 140.124C185.651 134.043 179.254 129.887 172 129.303V86.699C172 78.7868 177.829 71.9849 186.173 68.9963C187.258 68.6079 188.381 68.285 189.542 68.0314C188.877 68.8994 188.491 69.9307 188.499 71.0422L188.581 82.564C178.767 88.2352 173.83 98.4966 177.161 108.519C179.061 114.234 183.328 118.906 188.866 122.024L189.325 185.635Z" fill="white"/>
</mask>
<g mask="url(#mask4_104_4777)">
<mask id="mask5_104_4777" style="mask-type:luminance" maskUnits="userSpaceOnUse" x="172" y="67" width="261" height="271">
<path d="M244.85 337.525C246.268 335.941 247.111 334.064 247.169 332.049C247.2 330.938 247.234 329.745 247.269 328.474C307.075 328.329 387.75 324.654 412.116 323.478C416.136 323.283 419.206 320.477 418.992 317.197L403.406 77.8961C403.225 75.1188 400.406 72.986 397.054 72.986C396.889 72.986 396.722 72.9917 396.556 73.0017C380.912 73.9815 364.62 74.3882 348.334 74.3882C296.634 74.3882 245.058 70.2846 214.992 67.3755H397.065C408.174 67.3755 417.335 74.4799 417.901 83.5337L418.005 85.2152L430.776 289.91L432.765 321.772C433.207 328.856 426.372 334.833 417.679 334.962L339.015 336.128L244.85 337.525ZM189.325 185.635C183.711 185.367 177.888 185.105 172 184.859V158.669C172.984 158.589 173.973 158.441 174.96 158.223C184.596 156.091 190.287 147.987 187.674 140.124C185.651 134.043 179.254 129.887 172 129.303V86.699C172 78.7868 177.829 71.9849 186.173 68.9963C187.258 68.6079 188.381 68.285 189.542 68.0314C188.877 68.8994 188.491 69.9307 188.499 71.0422L188.581 82.564C178.767 88.2352 173.83 98.4966 177.161 108.519C179.061 114.234 183.328 118.906 188.866 122.024L189.325 185.635Z" fill="white"/>
</mask>
<g mask="url(#mask5_104_4777)">
<path d="M172.298 344.716L444.379 337.216L432.909 60.1831L160.829 67.6833L172.298 344.716Z" fill="#3B58A8"/>
</g>
</g>
</g>
<mask id="mask6_104_4777" style="mask-type:luminance" maskUnits="userSpaceOnUse" x="179" y="288" width="43" height="47">
<path d="M179.007 288.82H221.178V334.402H179.007V288.82Z" fill="white"/>
</mask>
<g mask="url(#mask6_104_4777)">
<mask id="mask7_104_4777" style="mask-type:luminance" maskUnits="userSpaceOnUse" x="179" y="288" width="43" height="47">
<path d="M220.603 334.335H220.596L194.77 334.062C186.133 333.97 179.108 328.163 179.108 321.116V289.299C179.108 289.05 179.354 288.849 179.66 288.849C179.963 288.849 180.21 289.05 180.21 289.299V321.116C180.21 327.673 186.748 333.076 194.784 333.161L220.61 333.434C220.914 333.437 221.158 333.642 221.154 333.89C221.15 334.137 220.904 334.335 220.603 334.335Z" fill="white"/>
</mask>
<g mask="url(#mask7_104_4777)">
<mask id="mask8_104_4777" style="mask-type:luminance" maskUnits="userSpaceOnUse" x="179" y="288" width="43" height="47">
<path d="M220.603 334.335H220.596L194.77 334.062C186.133 333.97 179.108 328.163 179.108 321.116V289.299C179.108 289.05 179.354 288.849 179.66 288.849C179.963 288.849 180.21 289.05 180.21 289.299V321.116C180.21 327.673 186.748 333.076 194.784 333.161L220.61 333.434C220.914 333.437 221.158 333.642 221.154 333.89C221.15 334.137 220.904 334.335 220.603 334.335Z" fill="white"/>
</mask>
<g mask="url(#mask8_104_4777)">
<path d="M191.199 273.319L153.877 321.256L209.067 349.865L246.389 301.929L191.199 273.319Z" fill="url(#paint1_linear_104_4777)"/>
</g>
</g>
</g>
<mask id="mask9_104_4777" style="mask-type:luminance" maskUnits="userSpaceOnUse" x="179" y="273" width="2" height="7">
<path d="M179.007 273.737H180.239V279.993H179.007V273.737Z" fill="white"/>
</mask>
<g mask="url(#mask9_104_4777)">
<mask id="mask10_104_4777" style="mask-type:luminance" maskUnits="userSpaceOnUse" x="179" y="273" width="2" height="7">
<path d="M179.66 279.893C179.354 279.893 179.108 279.692 179.108 279.443V274.29C179.108 274.041 179.354 273.84 179.66 273.84C179.963 273.84 180.21 274.041 180.21 274.29V279.443C180.21 279.692 179.963 279.893 179.66 279.893Z" fill="white"/>
</mask>
<g mask="url(#mask10_104_4777)">
<mask id="mask11_104_4777" style="mask-type:luminance" maskUnits="userSpaceOnUse" x="179" y="273" width="2" height="7">
<path d="M179.66 279.893C179.354 279.893 179.108 279.692 179.108 279.443V274.29C179.108 274.041 179.354 273.84 179.66 273.84C179.963 273.84 180.21 274.041 180.21 274.29V279.443C180.21 279.692 179.963 279.893 179.66 279.893Z" fill="white"/>
</mask>
<g mask="url(#mask11_104_4777)">
<path d="M179.425 273.433L175.75 278.152L179.893 280.3L183.568 275.58L179.425 273.433Z" fill="url(#paint2_linear_104_4777)"/>
</g>
</g>
</g>
<path d="M188.499 71.042C188.474 67.6288 192.154 64.9854 196.301 65.4445C223.801 68.4881 318.369 77.8993 396.556 73.0015C400.122 72.778 403.216 74.9823 403.406 77.8958L418.992 317.196C419.206 320.477 416.136 323.283 412.116 323.477C379.232 325.065 243.805 331.203 195.5 327.075C192.56 326.823 190.329 324.803 190.31 322.391L188.499 71.042Z" fill="#7D97F4"/>
<path d="M191.739 77.0386C191.714 73.7529 195.256 71.2099 199.246 71.6515C225.711 74.5794 316.718 83.6368 391.962 78.9244C395.393 78.7088 398.371 80.8302 398.553 83.6346L413.553 313.923C413.758 317.081 410.803 319.781 406.935 319.968C375.289 321.496 244.962 327.403 198.475 323.43C195.647 323.189 193.498 321.245 193.482 318.923L191.739 77.0386Z" fill="#F4FAFE"/>
<path d="M387.658 111.382H287.164C290.082 107.045 291.024 101.815 289.311 96.6636C288.71 94.8538 287.818 93.1701 286.692 91.637H387.658C388.446 91.637 389.085 92.1589 389.085 92.8022V110.216C389.085 110.86 388.446 111.382 387.658 111.382ZM244.588 111.382H232.918C235.316 106.641 235.882 101.244 234.109 95.9125C233.611 94.4121 232.95 92.9846 232.145 91.637H245.074C241.782 96.1028 240.642 101.612 242.447 107.037C242.96 108.583 243.684 110.035 244.588 111.382Z" fill="#D1DFFD"/>
<path d="M391.235 203.801H246.369C246.142 201.033 245.89 198.434 245.609 196.033C245.523 195.302 245.312 194.596 244.989 193.928H391.235C391.678 193.928 392.037 194.221 392.037 194.584V203.146C392.037 203.508 391.678 203.801 391.235 203.801Z" fill="#D1DFFD"/>
<path d="M391.451 219.032H247.309C247.153 215.597 246.972 212.296 246.765 209.16H391.451C391.774 209.16 392.037 209.373 392.037 209.638V218.553C392.037 218.817 391.774 219.032 391.451 219.032Z" fill="#D1DFFD"/>
<path d="M395.308 305.998H247.784C247.843 302.833 247.897 299.533 247.948 296.126H395.308C395.698 296.126 396.015 296.385 396.015 296.703V305.422C396.015 305.74 395.698 305.998 395.308 305.998Z" fill="#D1DFFD"/>
<path d="M387.546 183.023H265.08L264.747 166.648C271.647 160.589 274.676 151.849 271.827 143.278C271.771 143.109 271.711 142.941 271.651 142.775L389.104 141.372L391.24 179.869C391.287 180.7 390.924 181.489 390.219 182.091C389.515 182.692 388.566 183.023 387.546 183.023ZM263.696 183.023H213.432C211.393 183.023 209.734 181.67 209.734 180.005V126.809C209.734 126.545 209.777 126.289 209.855 126.045C211.022 125.906 212.193 125.708 213.361 125.45C215.249 125.032 217.044 124.474 218.735 123.792H262.49L262.642 131.206C257.168 127.264 250.032 124.986 242.545 124.986C239.914 124.986 237.238 125.267 234.578 125.856C218.397 129.437 208.837 143.045 213.227 156.25C216.895 167.282 229.139 174.542 242.508 174.542C245.138 174.542 247.814 174.261 250.476 173.671C255.486 172.562 259.863 170.491 263.386 167.768L263.696 183.023ZM271.212 141.651C269.677 138.026 267.19 134.857 264.047 132.286L263.874 123.792H384.594C386.575 123.792 388.198 125.057 388.288 126.672L389.042 140.244L271.212 141.651Z" fill="#ADC6FB"/>
<path d="M213.432 123.792C211.393 123.792 209.734 125.145 209.734 126.809V180.005C209.734 181.67 211.393 183.023 213.432 183.023H387.546C388.566 183.023 389.515 182.692 390.219 182.091C390.924 181.489 391.287 180.7 391.24 179.869L388.288 126.672C388.198 125.057 386.575 123.792 384.594 123.792H213.432ZM387.546 184.151H213.432C210.631 184.151 208.352 182.291 208.352 180.005V126.809C208.352 124.523 210.631 122.664 213.432 122.664H384.594C387.316 122.664 389.546 124.402 389.67 126.622L392.622 179.817C392.685 180.959 392.186 182.044 391.22 182.869C390.25 183.696 388.947 184.151 387.546 184.151Z" fill="white"/>
<path d="M390.227 289.54H248.036C248.259 270.602 248.278 249.223 247.725 230.309H387.791C390.421 230.309 392.561 231.989 392.664 234.134L395.1 285.407C395.152 286.499 394.67 287.532 393.742 288.32C392.813 289.106 391.566 289.54 390.227 289.54Z" fill="#ADC6FB"/>
<path d="M214.662 230.31C211.972 230.31 209.784 232.095 209.784 234.289V285.562C209.784 287.757 211.972 289.541 214.662 289.541H390.227C391.566 289.541 392.813 289.107 393.742 288.321C394.67 287.533 395.152 286.5 395.1 285.408L392.664 234.135C392.561 231.99 390.421 230.31 387.791 230.31H214.662ZM390.227 290.669H214.662C211.21 290.669 208.402 288.378 208.402 285.562V234.289C208.402 231.473 211.21 229.182 214.662 229.182H387.791C391.167 229.182 393.915 231.338 394.045 234.091L396.482 285.365C396.548 286.765 395.928 288.093 394.739 289.103C393.547 290.113 391.945 290.669 390.227 290.669Z" fill="white"/>
<path d="M263.709 183.597L262.479 123.237L263.862 123.218L265.092 183.578L263.709 183.597Z" fill="white"/>
<path d="M331.463 183.602L329.465 123.242L330.848 123.212L332.844 183.571L331.463 183.602Z" fill="white"/>
<path d="M263.795 142.868L263.776 141.741L389.754 140.236L389.774 141.364L263.795 142.868Z" fill="white"/>
<path d="M390.843 165.622H264.092V164.494H390.843V165.622Z" fill="white"/>
<path d="M263.862 290.111L262.479 290.098L263.401 229.738L264.784 229.752L263.862 290.111Z" fill="white"/>
<path d="M394.069 244.977H264.554V243.849H394.069V244.977Z" fill="white"/>
<path d="M394.53 258.892H263.632V257.764H394.53V258.892Z" fill="white"/>
<path d="M395.297 275.743L263.777 274.405L263.794 273.277L395.315 274.615L395.297 275.743Z" fill="white"/>
<mask id="mask12_104_4777" style="mask-type:luminance" maskUnits="userSpaceOnUse" x="284" y="31" width="32" height="28">
<path d="M284.434 31.1892H315.378V58.3376H284.434V31.1892Z" fill="white"/>
</mask>
<g mask="url(#mask12_104_4777)">
<mask id="mask13_104_4777" style="mask-type:luminance" maskUnits="userSpaceOnUse" x="284" y="31" width="32" height="28">
<path d="M298.815 48.6894C295.668 48.6894 293.118 46.6081 293.118 44.0407C293.118 41.4733 295.668 39.392 298.815 39.392C301.961 39.392 304.512 41.4733 304.512 44.0407C304.512 46.6081 301.961 48.6894 298.815 48.6894ZM308.863 34.8926C301.588 30.7637 295.263 30.8453 290.81 31.9176C286.749 32.8951 284.116 36.0949 284.502 39.536L286.424 56.6373L309.272 58.2931C309.272 58.2931 323.129 42.9902 308.863 34.8926Z" fill="white"/>
</mask>
<g mask="url(#mask13_104_4777)">
<mask id="mask14_104_4777" style="mask-type:luminance" maskUnits="userSpaceOnUse" x="284" y="31" width="32" height="28">
<path d="M298.815 48.6894C295.668 48.6894 293.118 46.6081 293.118 44.0407C293.118 41.4733 295.668 39.392 298.815 39.392C301.961 39.392 304.512 41.4733 304.512 44.0407C304.512 46.6081 301.961 48.6894 298.815 48.6894ZM308.863 34.8926C301.588 30.7637 295.263 30.8453 290.81 31.9176C286.749 32.8951 284.116 36.0949 284.502 39.536L286.424 56.6373L309.272 58.2931C309.272 58.2931 323.129 42.9902 308.863 34.8926Z" fill="white"/>
</mask>
<g mask="url(#mask14_104_4777)">
<path d="M339.383 40.846L298.404 15.4275L267.862 48.2109L308.841 73.6294L339.383 40.846Z" fill="#3B58A8"/>
</g>
</g>
</g>
<path d="M288.106 44.1065C287.824 44.1065 287.585 43.9311 287.559 43.6976L287.326 41.6294C286.957 38.3515 289.485 35.2993 293.336 34.3719C296.062 33.7151 298.874 33.6212 301.687 34.0926C301.986 34.1419 302.177 34.3797 302.116 34.6233C302.055 34.8659 301.767 35.0221 301.465 34.9733C298.83 34.5329 296.199 34.6211 293.647 35.2347C290.301 36.0412 288.104 38.6959 288.424 41.5478L288.655 43.616C288.684 43.863 288.461 44.0816 288.157 44.1052C288.14 44.1065 288.123 44.1065 288.106 44.1065ZM288.706 49.4434C288.424 49.4434 288.183 49.268 288.157 49.0345L287.852 46.3108C287.823 46.0638 288.047 45.8448 288.35 45.8225C288.659 45.7981 288.922 45.9822 288.95 46.2292L289.255 48.9529C289.284 49.1999 289.059 49.419 288.757 49.4421C288.739 49.4434 288.722 49.4434 288.706 49.4434Z" fill="#91B3FA"/>
<mask id="mask15_104_4777" style="mask-type:luminance" maskUnits="userSpaceOnUse" x="255" y="53" width="87" height="16">
<path d="M255.133 53.7568H341.255V68.951H255.133V53.7568Z" fill="white"/>
</mask>
<g mask="url(#mask15_104_4777)">
<mask id="mask16_104_4777" style="mask-type:luminance" maskUnits="userSpaceOnUse" x="255" y="53" width="87" height="16">
<path d="M255.238 67.6897V59.0915C255.238 56.123 258.253 53.7455 261.887 53.8471L334.539 55.8782C337.762 55.969 340.373 58.0459 340.568 60.6735L341.175 68.9353L255.238 67.6897Z" fill="white"/>
</mask>
<g mask="url(#mask16_104_4777)">
<mask id="mask17_104_4777" style="mask-type:luminance" maskUnits="userSpaceOnUse" x="255" y="53" width="87" height="16">
<path d="M255.238 67.6897V59.0915C255.238 56.123 258.253 53.7455 261.887 53.8471L334.539 55.8782C337.762 55.969 340.373 58.0459 340.568 60.6735L341.175 68.9353L255.238 67.6897Z" fill="white"/>
</mask>
<g mask="url(#mask17_104_4777)">
<path d="M350.143 59.3086L286.711 19.9624L246.269 63.372L309.701 102.718L350.143 59.3086Z" fill="#3B58A8"/>
</g>
</g>
</g>
<path d="M282.328 57.0875H279.204C278.898 57.0875 278.652 56.8867 278.652 56.6375C278.652 56.3892 278.898 56.1885 279.204 56.1885H282.328C282.632 56.1885 282.879 56.3892 282.879 56.6375C282.879 56.8867 282.632 57.0875 282.328 57.0875Z" fill="#91B3FA"/>
<path d="M259.17 64.9896C258.866 64.9896 258.619 64.7884 258.619 64.5406V61.0615C258.619 58.3745 261.299 56.1885 264.591 56.1885H276.079C276.383 56.1885 276.63 56.3892 276.63 56.6375C276.63 56.8867 276.383 57.0875 276.079 57.0875H264.591C261.907 57.0875 259.722 58.8707 259.722 61.0615V64.5406C259.722 64.7884 259.475 64.9896 259.17 64.9896Z" fill="#91B3FA"/>
<mask id="mask18_104_4777" style="mask-type:luminance" maskUnits="userSpaceOnUse" x="225" y="64" width="145" height="16">
<path d="M225.285 64.4822H369.05V79.1177H225.285V64.4822Z" fill="white"/>
</mask>
<g mask="url(#mask18_104_4777)">
<mask id="mask19_104_4777" style="mask-type:luminance" maskUnits="userSpaceOnUse" x="225" y="64" width="144" height="16">
<path d="M225.636 69.8608C225.811 66.8832 228.821 64.5427 232.473 64.5427L359.517 64.5405C364.085 64.5405 367.991 67.2232 368.771 70.8951L368.877 71.4027C369.73 75.4256 365.935 79.1045 360.932 79.1045H230.592C227.598 79.1045 225.211 77.0612 225.355 74.6212L225.636 69.8608Z" fill="white"/>
</mask>
<g mask="url(#mask19_104_4777)">
<mask id="mask20_104_4777" style="mask-type:luminance" maskUnits="userSpaceOnUse" x="225" y="64" width="144" height="16">
<path d="M225.636 69.8608C225.811 66.8832 228.821 64.5427 232.473 64.5427L359.517 64.5405C364.085 64.5405 367.991 67.2232 368.771 70.8951L368.877 71.4027C369.73 75.4256 365.935 79.1045 360.932 79.1045H230.592C227.598 79.1045 225.211 77.0612 225.355 74.6212L225.636 69.8608Z" fill="white"/>
</mask>
<g mask="url(#mask20_104_4777)">
<path d="M377.227 67.8719L258.27 15.0095L217.715 75.7727L336.672 128.635L377.227 67.8719Z" fill="#5178BC"/>
</g>
</g>
</g>
<mask id="mask21_104_4777" style="mask-type:luminance" maskUnits="userSpaceOnUse" x="152" y="129" width="37" height="30">
<path d="M152.034 129.169H188.317V158.775H152.034V129.169Z" fill="white"/>
</mask>
<g mask="url(#mask21_104_4777)">
<mask id="mask22_104_4777" style="mask-type:luminance" maskUnits="userSpaceOnUse" x="152" y="129" width="37" height="30">
<path d="M170.215 158.741C162.255 158.741 154.963 154.417 152.779 147.848C152.377 146.639 152.172 145.425 152.147 144.227C152.134 143.649 152.164 143.073 152.235 142.506C152.879 137.307 156.899 132.652 162.926 130.489C163.746 130.194 164.603 129.946 165.493 129.749C167.077 129.399 168.671 129.231 170.237 129.231C170.829 129.231 171.417 129.255 172 129.303C179.254 129.887 185.652 134.043 187.674 140.124C190.288 147.987 184.596 156.09 174.96 158.223C173.973 158.441 172.984 158.588 172 158.668C171.403 158.716 170.808 158.741 170.215 158.741ZM170.237 129.721C168.723 129.721 167.183 129.883 165.65 130.223C156.335 132.284 150.832 140.118 153.359 147.72C155.471 154.071 162.52 158.251 170.215 158.251C171.731 158.251 173.27 158.089 174.802 157.749C184.118 155.687 189.621 147.854 187.093 140.252C184.982 133.901 177.933 129.721 170.237 129.721Z" fill="white"/>
</mask>
<g mask="url(#mask22_104_4777)">
<mask id="mask23_104_4777" style="mask-type:luminance" maskUnits="userSpaceOnUse" x="152" y="129" width="37" height="30">
<path d="M170.215 158.741C162.255 158.741 154.963 154.417 152.779 147.848C152.377 146.639 152.172 145.425 152.147 144.227C152.134 143.649 152.164 143.073 152.235 142.506C152.879 137.307 156.899 132.652 162.926 130.489C163.746 130.194 164.603 129.946 165.493 129.749C167.077 129.399 168.671 129.231 170.237 129.231C170.829 129.231 171.417 129.255 172 129.303C179.254 129.887 185.652 134.043 187.674 140.124C190.288 147.987 184.596 156.09 174.96 158.223C173.973 158.441 172.984 158.588 172 158.668C171.403 158.716 170.808 158.741 170.215 158.741ZM170.237 129.721C168.723 129.721 167.183 129.883 165.65 130.223C156.335 132.284 150.832 140.118 153.359 147.72C155.471 154.071 162.52 158.251 170.215 158.251C171.731 158.251 173.27 158.089 174.802 157.749C184.118 155.687 189.621 147.854 187.093 140.252C184.982 133.901 177.933 129.721 170.237 129.721Z" fill="white"/>
</mask>
<g mask="url(#mask23_104_4777)">
<path d="M190.283 128.885L150.443 129.235L150.837 159.088L190.677 158.738L190.283 128.885Z" fill="#E9605A"/>
</g>
</g>
</g>
<mask id="mask24_104_4777" style="mask-type:luminance" maskUnits="userSpaceOnUse" x="152" y="129" width="36" height="30">
<path d="M152.718 129.616H187.769V158.329H152.718V129.616Z" fill="white"/>
</mask>
<g mask="url(#mask24_104_4777)">
<mask id="mask25_104_4777" style="mask-type:luminance" maskUnits="userSpaceOnUse" x="152" y="129" width="36" height="30">
<path d="M170.215 158.251C162.52 158.251 155.47 154.071 153.359 147.72C150.832 140.118 156.335 132.284 165.65 130.223C167.182 129.884 168.723 129.722 170.237 129.722C177.933 129.722 184.982 133.901 187.093 140.252C189.62 147.854 184.117 155.687 174.802 157.749C173.27 158.089 171.731 158.251 170.215 158.251ZM170.703 132.132C169.421 132.132 168.117 132.269 166.821 132.556C158.936 134.301 154.278 140.932 156.417 147.365C158.205 152.741 164.171 156.278 170.684 156.278C171.966 156.278 173.27 156.14 174.566 155.853C182.45 154.108 187.108 147.478 184.969 141.044C183.183 135.669 177.216 132.132 170.703 132.132ZM168.88 130.389C168.864 130.389 168.847 130.39 168.831 130.391C167.83 130.46 166.828 130.604 165.848 130.821C159.723 132.177 155.122 136.174 153.845 141.252C153.779 141.509 153.983 141.762 154.299 141.814C154.339 141.821 154.378 141.824 154.417 141.824C154.469 141.824 154.521 141.819 154.569 141.808C154.776 141.763 154.944 141.625 154.989 141.443C156.178 136.721 160.457 133.003 166.155 131.741C167.066 131.54 167.998 131.405 168.929 131.34C169.253 131.32 169.489 131.088 169.462 130.825C169.436 130.576 169.181 130.389 168.88 130.389Z" fill="white"/>
</mask>
<g mask="url(#mask25_104_4777)">
<mask id="mask26_104_4777" style="mask-type:luminance" maskUnits="userSpaceOnUse" x="152" y="129" width="36" height="30">
<path d="M170.215 158.251C162.52 158.251 155.47 154.071 153.359 147.72C150.832 140.118 156.335 132.284 165.65 130.223C167.182 129.884 168.723 129.722 170.237 129.722C177.933 129.722 184.982 133.901 187.093 140.252C189.62 147.854 184.117 155.687 174.802 157.749C173.27 158.089 171.731 158.251 170.215 158.251ZM170.703 132.132C169.421 132.132 168.117 132.269 166.821 132.556C158.936 134.301 154.278 140.932 156.417 147.365C158.205 152.741 164.171 156.278 170.684 156.278C171.966 156.278 173.27 156.14 174.566 155.853C182.45 154.108 187.108 147.478 184.969 141.044C183.183 135.669 177.216 132.132 170.703 132.132ZM168.88 130.389C168.864 130.389 168.847 130.39 168.831 130.391C167.83 130.46 166.828 130.604 165.848 130.821C159.723 132.177 155.122 136.174 153.845 141.252C153.779 141.509 153.983 141.762 154.299 141.814C154.339 141.821 154.378 141.824 154.417 141.824C154.469 141.824 154.521 141.819 154.569 141.808C154.776 141.763 154.944 141.625 154.989 141.443C156.178 136.721 160.457 133.003 166.155 131.741C167.066 131.54 167.998 131.405 168.929 131.34C169.253 131.32 169.489 131.088 169.462 130.825C169.436 130.576 169.181 130.389 168.88 130.389Z" fill="white"/>
</mask>
<g mask="url(#mask26_104_4777)">
<path d="M189.616 129.38L150.455 129.724L150.836 158.591L189.997 158.247L189.616 129.38Z" fill="#FE7062"/>
</g>
</g>
</g>
<mask id="mask27_104_4777" style="mask-type:luminance" maskUnits="userSpaceOnUse" x="153" y="130" width="17" height="12">
<path d="M153.814 130.287H169.559V141.906H153.814V130.287Z" fill="white"/>
</mask>
<g mask="url(#mask27_104_4777)">
<mask id="mask28_104_4777" style="mask-type:luminance" maskUnits="userSpaceOnUse" x="153" y="130" width="17" height="12">
<path d="M154.417 141.824C154.378 141.824 154.339 141.82 154.299 141.814C153.983 141.761 153.779 141.509 153.845 141.252C155.122 136.173 159.723 132.177 165.849 130.82C166.828 130.604 167.83 130.46 168.831 130.39C168.847 130.389 168.864 130.388 168.88 130.388C169.181 130.388 169.436 130.576 169.462 130.825C169.489 131.088 169.253 131.32 168.929 131.34C167.999 131.405 167.066 131.54 166.156 131.741C160.457 133.002 156.178 136.72 154.989 141.443C154.944 141.625 154.776 141.762 154.569 141.807C154.521 141.818 154.469 141.824 154.417 141.824Z" fill="white"/>
</mask>
<g mask="url(#mask28_104_4777)">
<mask id="mask29_104_4777" style="mask-type:luminance" maskUnits="userSpaceOnUse" x="153" y="130" width="17" height="12">
<path d="M154.417 141.824C154.378 141.824 154.339 141.82 154.299 141.814C153.983 141.761 153.779 141.509 153.845 141.252C155.122 136.173 159.723 132.177 165.849 130.82C166.828 130.604 167.83 130.46 168.831 130.39C168.847 130.389 168.864 130.388 168.88 130.388C169.181 130.388 169.436 130.576 169.462 130.825C169.489 131.088 169.253 131.32 168.929 131.34C167.999 131.405 167.066 131.54 166.156 131.741C160.457 133.002 156.178 136.72 154.989 141.443C154.944 141.625 154.776 141.762 154.569 141.807C154.521 141.818 154.469 141.824 154.417 141.824Z" fill="white"/>
</mask>
<g mask="url(#mask29_104_4777)">
<path d="M169.488 130.25L153.629 130.389L153.782 141.961L169.641 141.822L169.488 130.25Z" fill="#FFC3BD"/>
</g>
</g>
</g>
<mask id="mask30_104_4777" style="mask-type:luminance" maskUnits="userSpaceOnUse" x="155" y="132" width="31" height="25">
<path d="M155.867 132.074H185.579V156.318H155.867V132.074Z" fill="white"/>
</mask>
<g mask="url(#mask30_104_4777)">
<mask id="mask31_104_4777" style="mask-type:luminance" maskUnits="userSpaceOnUse" x="155" y="132" width="31" height="25">
<path d="M170.685 156.277C164.171 156.277 158.205 152.74 156.417 147.364C154.278 140.931 158.936 134.3 166.821 132.555C168.117 132.268 169.421 132.131 170.703 132.131C177.216 132.131 183.183 135.668 184.97 141.043C187.108 147.477 182.45 154.107 174.566 155.852C173.27 156.139 171.966 156.277 170.685 156.277Z" fill="white"/>
</mask>
<g mask="url(#mask31_104_4777)">
<mask id="mask32_104_4777" style="mask-type:luminance" maskUnits="userSpaceOnUse" x="155" y="132" width="31" height="25">
<path d="M170.685 156.277C164.171 156.277 158.205 152.74 156.417 147.364C154.278 140.931 158.936 134.3 166.821 132.555C168.117 132.268 169.421 132.131 170.703 132.131C177.216 132.131 183.183 135.668 184.97 141.043C187.108 147.477 182.45 154.107 174.566 155.852C173.27 156.139 171.966 156.277 170.685 156.277Z" fill="white"/>
</mask>
<g mask="url(#mask32_104_4777)">
<path d="M187.104 131.843L153.96 132.134L154.282 156.566L187.427 156.275L187.104 131.843Z" fill="#FFE0DD"/>
</g>
</g>
</g>
<mask id="mask33_104_4777" style="mask-type:luminance" maskUnits="userSpaceOnUse" x="163" y="135" width="16" height="19">
<path d="M163.398 135.761H178.459V153.748H163.398V135.761Z" fill="white"/>
</mask>
<g mask="url(#mask33_104_4777)">
<mask id="mask34_104_4777" style="mask-type:luminance" maskUnits="userSpaceOnUse" x="163" y="135" width="16" height="19">
<path d="M172.171 153.174L171.75 151.907C170.114 152.213 168.408 152.255 167.136 152.1C166.681 152.045 166.351 151.719 166.351 151.345L166.354 150.077C166.354 149.612 166.857 149.26 167.422 149.32C168.679 149.457 170.174 149.454 171.676 149.121C173.236 148.776 174.254 148.087 173.961 147.203C173.696 146.406 172.638 146.129 170.314 146.135C166.992 146.129 164.406 145.521 163.667 143.3C163.001 141.293 164.29 139.364 167.271 138.264L166.85 136.996C166.714 136.589 167.01 136.168 167.51 136.058L168.422 135.856C168.921 135.745 169.437 135.986 169.573 136.394L169.951 137.532C171.465 137.249 172.625 137.217 173.574 137.273C174.06 137.303 174.431 137.639 174.431 138.037V139.208C174.431 139.66 173.957 140.013 173.405 139.969C172.527 139.9 171.315 139.893 169.851 140.217C168 140.626 167.679 141.369 167.865 141.93C168.095 142.62 169.364 142.848 171.969 142.92C175.685 143.001 177.499 143.849 178.195 145.942C178.834 147.861 177.662 149.973 174.423 151.153L174.894 152.571C175.029 152.979 174.735 153.399 174.235 153.51L173.322 153.712C172.822 153.823 172.307 153.582 172.171 153.174Z" fill="white"/>
</mask>
<g mask="url(#mask34_104_4777)">
<mask id="mask35_104_4777" style="mask-type:luminance" maskUnits="userSpaceOnUse" x="163" y="135" width="16" height="19">
<path d="M172.171 153.174L171.75 151.907C170.114 152.213 168.408 152.255 167.136 152.1C166.681 152.045 166.351 151.719 166.351 151.345L166.354 150.077C166.354 149.612 166.857 149.26 167.422 149.32C168.679 149.457 170.174 149.454 171.676 149.121C173.236 148.776 174.254 148.087 173.961 147.203C173.696 146.406 172.638 146.129 170.314 146.135C166.992 146.129 164.406 145.521 163.667 143.3C163.001 141.293 164.29 139.364 167.271 138.264L166.85 136.996C166.714 136.589 167.01 136.168 167.51 136.058L168.422 135.856C168.921 135.745 169.437 135.986 169.573 136.394L169.951 137.532C171.465 137.249 172.625 137.217 173.574 137.273C174.06 137.303 174.431 137.639 174.431 138.037V139.208C174.431 139.66 173.957 140.013 173.405 139.969C172.527 139.9 171.315 139.893 169.851 140.217C168 140.626 167.679 141.369 167.865 141.93C168.095 142.62 169.364 142.848 171.969 142.92C175.685 143.001 177.499 143.849 178.195 145.942C178.834 147.861 177.662 149.973 174.423 151.153L174.894 152.571C175.029 152.979 174.735 153.399 174.235 153.51L173.322 153.712C172.822 153.823 172.307 153.582 172.171 153.174Z" fill="white"/>
</mask>
<g mask="url(#mask35_104_4777)">
<path d="M178.832 135.606L162.763 135.747L163.003 153.962L179.072 153.821L178.832 135.606Z" fill="#FE7062"/>
</g>
</g>
</g>
<mask id="mask36_104_4777" style="mask-type:luminance" maskUnits="userSpaceOnUse" x="175" y="78" width="61" height="49">
<path d="M175.994 78.1123H235.28V126.376H175.994V78.1123Z" fill="white"/>
</mask>
<g mask="url(#mask36_104_4777)">
<mask id="mask37_104_4777" style="mask-type:luminance" maskUnits="userSpaceOnUse" x="176" y="78" width="60" height="49">
<path d="M205.618 126.295C200.836 126.295 196.2 125.339 192.074 123.595C190.965 123.127 189.894 122.601 188.866 122.023C183.328 118.905 179.061 114.232 177.161 108.518C173.83 98.4953 178.767 88.2339 188.581 82.5627C189.593 81.9783 190.655 81.442 191.766 80.9606C193.679 80.1314 195.734 79.4624 197.911 78.981C200.498 78.4089 203.097 78.1353 205.654 78.1353C216.828 78.1353 227.195 83.3548 232.145 91.6366C232.95 92.9842 233.611 94.4117 234.109 95.9121C235.882 101.244 235.316 106.641 232.918 111.381C230.589 115.985 226.535 119.968 221.223 122.663C220.422 123.068 219.591 123.446 218.735 123.792C217.044 124.473 215.249 125.031 213.361 125.449C212.193 125.707 211.022 125.905 209.855 126.044C209.371 126.102 208.891 126.149 208.408 126.187C207.475 126.259 206.544 126.295 205.618 126.295ZM205.652 78.9361C203.181 78.9361 200.669 79.1997 198.168 79.753C182.965 83.1191 173.985 95.9034 178.109 108.308C181.555 118.673 193.058 125.494 205.618 125.494C208.09 125.494 210.603 125.23 213.104 124.676C228.307 121.311 237.287 108.527 233.163 96.1212C229.717 85.7559 218.212 78.9361 205.652 78.9361Z" fill="white"/>
</mask>
<g mask="url(#mask37_104_4777)">
<mask id="mask38_104_4777" style="mask-type:luminance" maskUnits="userSpaceOnUse" x="176" y="78" width="60" height="49">
<path d="M205.618 126.295C200.836 126.295 196.2 125.339 192.074 123.595C190.965 123.127 189.894 122.601 188.866 122.023C183.328 118.905 179.061 114.232 177.161 108.518C173.83 98.4953 178.767 88.2339 188.581 82.5627C189.593 81.9783 190.655 81.442 191.766 80.9606C193.679 80.1314 195.734 79.4624 197.911 78.981C200.498 78.4089 203.097 78.1353 205.654 78.1353C216.828 78.1353 227.195 83.3548 232.145 91.6366C232.95 92.9842 233.611 94.4117 234.109 95.9121C235.882 101.244 235.316 106.641 232.918 111.381C230.589 115.985 226.535 119.968 221.223 122.663C220.422 123.068 219.591 123.446 218.735 123.792C217.044 124.473 215.249 125.031 213.361 125.449C212.193 125.707 211.022 125.905 209.855 126.044C209.371 126.102 208.891 126.149 208.408 126.187C207.475 126.259 206.544 126.295 205.618 126.295ZM205.652 78.9361C203.181 78.9361 200.669 79.1997 198.168 79.753C182.965 83.1191 173.985 95.9034 178.109 108.308C181.555 118.673 193.058 125.494 205.618 125.494C208.09 125.494 210.603 125.23 213.104 124.676C228.307 121.311 237.287 108.527 233.163 96.1212C229.717 85.7559 218.212 78.9361 205.652 78.9361Z" fill="white"/>
</mask>
<g mask="url(#mask38_104_4777)">
<path d="M237.28 77.5784L173.195 78.1418L173.837 126.853L237.923 126.29L237.28 77.5784Z" fill="#E9605A"/>
</g>
</g>
</g>
<mask id="mask39_104_4777" style="mask-type:luminance" maskUnits="userSpaceOnUse" x="177" y="78" width="58" height="48">
<path d="M177.09 78.8943H234.185V125.594H177.09V78.8943Z" fill="white"/>
</mask>
<g mask="url(#mask39_104_4777)">
<mask id="mask40_104_4777" style="mask-type:luminance" maskUnits="userSpaceOnUse" x="177" y="78" width="58" height="48">
<path d="M205.618 125.495C193.058 125.495 181.555 118.674 178.109 108.309C173.985 95.9043 182.965 83.12 198.168 79.754C200.669 79.2006 203.181 78.937 205.652 78.937C218.212 78.937 229.717 85.7568 233.163 96.1221C237.287 108.528 228.307 121.312 213.104 124.677C210.603 125.231 208.09 125.495 205.618 125.495ZM206.412 82.8695C204.322 82.8695 202.194 83.093 200.078 83.5612C187.211 86.4102 179.609 97.2306 183.099 107.73C186.017 116.503 195.753 122.275 206.383 122.275C208.476 122.275 210.603 122.052 212.719 121.584C225.586 118.735 233.188 107.914 229.697 97.4148C226.781 88.6424 217.043 82.8695 206.412 82.8695ZM203.44 80.3558C203.423 80.3558 203.408 80.3571 203.392 80.3584C201.783 80.4688 200.17 80.7014 198.598 81.0497C188.748 83.2304 181.354 89.6558 179.298 97.8202C179.237 98.0615 179.428 98.2985 179.725 98.3478C179.762 98.3544 179.799 98.3565 179.835 98.3565C179.884 98.3565 179.932 98.3522 179.977 98.3421C180.172 98.2985 180.329 98.1711 180.372 98.0004C182.344 90.1685 189.437 84.0038 198.886 81.9125C200.395 81.5782 201.942 81.3547 203.485 81.2487C203.787 81.2308 204.011 81.0117 203.985 80.766C203.96 80.5325 203.72 80.3558 203.44 80.3558Z" fill="white"/>
</mask>
<g mask="url(#mask40_104_4777)">
<mask id="mask41_104_4777" style="mask-type:luminance" maskUnits="userSpaceOnUse" x="177" y="78" width="58" height="48">
<path d="M205.618 125.495C193.058 125.495 181.555 118.674 178.109 108.309C173.985 95.9043 182.965 83.12 198.168 79.754C200.669 79.2006 203.181 78.937 205.652 78.937C218.212 78.937 229.717 85.7568 233.163 96.1221C237.287 108.528 228.307 121.312 213.104 124.677C210.603 125.231 208.09 125.495 205.618 125.495ZM206.412 82.8695C204.322 82.8695 202.194 83.093 200.078 83.5612C187.211 86.4102 179.609 97.2306 183.099 107.73C186.017 116.503 195.753 122.275 206.383 122.275C208.476 122.275 210.603 122.052 212.719 121.584C225.586 118.735 233.188 107.914 229.697 97.4148C226.781 88.6424 217.043 82.8695 206.412 82.8695ZM203.44 80.3558C203.423 80.3558 203.408 80.3571 203.392 80.3584C201.783 80.4688 200.17 80.7014 198.598 81.0497C188.748 83.2304 181.354 89.6558 179.298 97.8202C179.237 98.0615 179.428 98.2985 179.725 98.3478C179.762 98.3544 179.799 98.3565 179.835 98.3565C179.884 98.3565 179.932 98.3522 179.977 98.3421C180.172 98.2985 180.329 98.1711 180.372 98.0004C182.344 90.1685 189.437 84.0038 198.886 81.9125C200.395 81.5782 201.942 81.3547 203.485 81.2487C203.787 81.2308 204.011 81.0117 203.985 80.766C203.96 80.5325 203.72 80.3558 203.44 80.3558Z" fill="white"/>
</mask>
<g mask="url(#mask41_104_4777)">
<path d="M237.28 78.3806L173.37 78.9423L173.992 126.051L237.902 125.489L237.28 78.3806Z" fill="#FE7062"/>
</g>
</g>
</g>
<mask id="mask42_104_4777" style="mask-type:luminance" maskUnits="userSpaceOnUse" x="179" y="80" width="26" height="19">
<path d="M179.28 80.3464H204.063V98.4454H179.28V80.3464Z" fill="white"/>
</mask>
<g mask="url(#mask42_104_4777)">
<mask id="mask43_104_4777" style="mask-type:luminance" maskUnits="userSpaceOnUse" x="179" y="80" width="25" height="19">
<path d="M179.835 98.356C179.8 98.356 179.763 98.3538 179.726 98.3472C179.428 98.2979 179.237 98.061 179.298 97.8196C181.354 89.6552 188.748 83.2299 198.599 81.0491C200.17 80.7009 201.784 80.4683 203.392 80.3578C203.408 80.3565 203.423 80.3552 203.44 80.3552C203.721 80.3552 203.96 80.532 203.985 80.7655C204.011 81.0112 203.788 81.2302 203.485 81.2481C201.942 81.3542 200.395 81.5776 198.886 81.9119C189.437 84.0032 182.344 90.168 180.372 97.9999C180.33 98.1705 180.172 98.2979 179.978 98.3416C179.933 98.3516 179.885 98.356 179.835 98.356Z" fill="white"/>
</mask>
<g mask="url(#mask43_104_4777)">
<mask id="mask44_104_4777" style="mask-type:luminance" maskUnits="userSpaceOnUse" x="179" y="80" width="25" height="19">
<path d="M179.835 98.356C179.8 98.356 179.763 98.3538 179.726 98.3472C179.428 98.2979 179.237 98.061 179.298 97.8196C181.354 89.6552 188.748 83.2299 198.599 81.0491C200.17 80.7009 201.784 80.4683 203.392 80.3578C203.408 80.3565 203.423 80.3552 203.44 80.3552C203.721 80.3552 203.96 80.532 203.985 80.7655C204.011 81.0112 203.788 81.2302 203.485 81.2481C201.942 81.3542 200.395 81.5776 198.886 81.9119C189.437 84.0032 182.344 90.168 180.372 97.9999C180.33 98.1705 180.172 98.2979 179.978 98.3416C179.933 98.3516 179.885 98.356 179.835 98.356Z" fill="white"/>
</mask>
<g mask="url(#mask44_104_4777)">
<path d="M204.008 80.1379L178.999 80.3575L179.239 98.5738L204.248 98.3538L204.008 80.1379Z" fill="#FFC3BD"/>
</g>
</g>
</g>
<mask id="mask45_104_4777" style="mask-type:luminance" maskUnits="userSpaceOnUse" x="182" y="82" width="49" height="41">
<path d="M182.156 82.8047H230.625V122.354H182.156V82.8047Z" fill="white"/>
</mask>
<g mask="url(#mask45_104_4777)">
<mask id="mask46_104_4777" style="mask-type:luminance" maskUnits="userSpaceOnUse" x="182" y="82" width="49" height="41">
<path d="M206.383 122.275C195.753 122.275 186.017 116.502 183.099 107.73C179.609 97.2302 187.211 86.4098 200.078 83.5609C202.194 83.0926 204.322 82.8691 206.412 82.8691C217.043 82.8691 226.781 88.642 229.697 97.4144C233.188 107.914 225.586 118.734 212.719 121.583C210.603 122.051 208.476 122.275 206.383 122.275Z" fill="white"/>
</mask>
<g mask="url(#mask46_104_4777)">
<mask id="mask47_104_4777" style="mask-type:luminance" maskUnits="userSpaceOnUse" x="182" y="82" width="49" height="41">
<path d="M206.383 122.275C195.753 122.275 186.017 116.502 183.099 107.73C179.609 97.2302 187.211 86.4098 200.078 83.5609C202.194 83.0926 204.322 82.8691 206.412 82.8691C217.043 82.8691 226.781 88.642 229.697 97.4144C233.188 107.914 225.586 118.734 212.719 121.583C210.603 122.051 208.476 122.275 206.383 122.275Z" fill="white"/>
</mask>
<g mask="url(#mask47_104_4777)">
<path d="M233.182 82.3989L179.089 82.8742L179.615 122.746L233.708 122.271L233.182 82.3989Z" fill="#FFE0DD"/>
</g>
</g>
</g>
<mask id="mask48_104_4777" style="mask-type:luminance" maskUnits="userSpaceOnUse" x="194" y="88" width="25" height="31">
<path d="M194.615 88.8376H218.987V118.22H194.615V88.8376Z" fill="white"/>
</mask>
<g mask="url(#mask48_104_4777)">
<mask id="mask49_104_4777" style="mask-type:luminance" maskUnits="userSpaceOnUse" x="194" y="88" width="25" height="31">
<path d="M208.811 117.212L208.122 115.143C205.452 115.642 202.669 115.711 200.592 115.459C199.851 115.37 199.312 114.837 199.312 114.225L199.316 112.156C199.317 111.397 200.137 110.823 201.059 110.923C203.11 111.146 205.55 111.141 208.001 110.598C210.546 110.035 212.211 108.91 211.73 107.467C211.298 106.165 209.574 105.714 205.779 105.724C200.358 105.714 196.137 104.722 194.932 101.096C193.843 97.8227 195.946 94.674 200.814 92.879L200.126 90.8095C199.904 90.144 200.386 89.4588 201.203 89.2781L202.691 88.9482C203.507 88.7675 204.347 89.1607 204.569 89.8267L205.187 91.6832C207.659 91.2219 209.552 91.1696 211.099 91.2612C211.891 91.3092 212.498 91.8578 212.498 92.5054V94.4195C212.498 95.1566 211.723 95.7323 210.824 95.6607C209.39 95.5477 207.412 95.5367 205.023 96.0652C202.002 96.7343 201.479 97.9453 201.783 98.8613C202.158 99.9877 204.227 100.361 208.481 100.477C214.545 100.609 217.505 101.994 218.64 105.408C219.682 108.541 217.772 111.986 212.485 113.914L213.254 116.228C213.474 116.894 212.994 117.58 212.178 117.76L210.688 118.09C209.872 118.27 209.031 117.878 208.811 117.212Z" fill="white"/>
</mask>
<g mask="url(#mask49_104_4777)">
<mask id="mask50_104_4777" style="mask-type:luminance" maskUnits="userSpaceOnUse" x="194" y="88" width="25" height="31">
<path d="M208.811 117.212L208.122 115.143C205.452 115.642 202.669 115.711 200.592 115.459C199.851 115.37 199.312 114.837 199.312 114.225L199.316 112.156C199.317 111.397 200.137 110.823 201.059 110.923C203.11 111.146 205.55 111.141 208.001 110.598C210.546 110.035 212.211 108.91 211.73 107.467C211.298 106.165 209.574 105.714 205.779 105.724C200.358 105.714 196.137 104.722 194.932 101.096C193.843 97.8227 195.946 94.674 200.814 92.879L200.126 90.8095C199.904 90.144 200.386 89.4588 201.203 89.2781L202.691 88.9482C203.507 88.7675 204.347 89.1607 204.569 89.8267L205.187 91.6832C207.659 91.2219 209.552 91.1696 211.099 91.2612C211.891 91.3092 212.498 91.8578 212.498 92.5054V94.4195C212.498 95.1566 211.723 95.7323 210.824 95.6607C209.39 95.5477 207.412 95.5367 205.023 96.0652C202.002 96.7343 201.479 97.9453 201.783 98.8613C202.158 99.9877 204.227 100.361 208.481 100.477C214.545 100.609 217.505 101.994 218.64 105.408C219.682 108.541 217.772 111.986 212.485 113.914L213.254 116.228C213.474 116.894 212.994 117.58 212.178 117.76L210.688 118.09C209.872 118.27 209.031 117.878 208.811 117.212Z" fill="white"/>
</mask>
<g mask="url(#mask50_104_4777)">
<path d="M219.68 88.5403L193.454 88.7707L193.846 118.497L220.072 118.266L219.68 88.5403Z" fill="#FE7062"/>
</g>
</g>
</g>
<mask id="mask51_104_4777" style="mask-type:luminance" maskUnits="userSpaceOnUse" x="212" y="124" width="61" height="51">
<path d="M212.141 124.924H272.933V174.64H212.141V124.924Z" fill="white"/>
</mask>
<g mask="url(#mask51_104_4777)">
<mask id="mask52_104_4777" style="mask-type:luminance" maskUnits="userSpaceOnUse" x="212" y="124" width="61" height="51">
<path d="M242.508 174.543C229.139 174.543 216.895 167.283 213.227 156.25C208.837 143.046 218.397 129.438 234.578 125.856C237.238 125.268 239.914 124.986 242.545 124.986C250.032 124.986 257.168 127.264 262.642 131.207C263.124 131.554 263.591 131.913 264.047 132.286C267.19 134.858 269.677 138.026 271.212 141.651C271.369 142.021 271.516 142.395 271.651 142.776C271.711 142.942 271.771 143.109 271.827 143.278C274.676 151.85 271.647 160.59 264.747 166.648C264.309 167.032 263.855 167.407 263.385 167.769C259.863 170.491 255.486 172.563 250.476 173.672C247.814 174.261 245.138 174.543 242.508 174.543ZM242.544 125.81C240.001 125.81 237.415 126.082 234.842 126.652C219.199 130.114 209.957 143.269 214.202 156.035C217.748 166.7 229.584 173.718 242.508 173.718C245.052 173.718 247.639 173.446 250.21 172.877C265.854 169.414 275.096 156.259 270.852 143.494C267.305 132.828 255.468 125.81 242.544 125.81Z" fill="white"/>
</mask>
<g mask="url(#mask52_104_4777)">
<mask id="mask53_104_4777" style="mask-type:luminance" maskUnits="userSpaceOnUse" x="212" y="124" width="61" height="51">
<path d="M242.508 174.543C229.139 174.543 216.895 167.283 213.227 156.25C208.837 143.046 218.397 129.438 234.578 125.856C237.238 125.268 239.914 124.986 242.545 124.986C250.032 124.986 257.168 127.264 262.642 131.207C263.124 131.554 263.591 131.913 264.047 132.286C267.19 134.858 269.677 138.026 271.212 141.651C271.369 142.021 271.516 142.395 271.651 142.776C271.711 142.942 271.771 143.109 271.827 143.278C274.676 151.85 271.647 160.59 264.747 166.648C264.309 167.032 263.855 167.407 263.385 167.769C259.863 170.491 255.486 172.563 250.476 173.672C247.814 174.261 245.138 174.543 242.508 174.543ZM242.544 125.81C240.001 125.81 237.415 126.082 234.842 126.652C219.199 130.114 209.957 143.269 214.202 156.035C217.748 166.7 229.584 173.718 242.508 173.718C245.052 173.718 247.639 173.446 250.21 172.877C265.854 169.414 275.096 156.259 270.852 143.494C267.305 132.828 255.468 125.81 242.544 125.81Z" fill="white"/>
</mask>
<g mask="url(#mask53_104_4777)">
<path d="M275.088 124.404L208.183 124.991L208.845 175.124L275.75 174.537L275.088 124.404Z" fill="#E9605A"/>
</g>
</g>
</g>
<mask id="mask54_104_4777" style="mask-type:luminance" maskUnits="userSpaceOnUse" x="213" y="125" width="59" height="49">
<path d="M213.099 125.706H271.974V173.746H213.099V125.706Z" fill="white"/>
</mask>
<g mask="url(#mask54_104_4777)">
<mask id="mask55_104_4777" style="mask-type:luminance" maskUnits="userSpaceOnUse" x="213" y="125" width="59" height="49">
<path d="M242.508 173.717C229.584 173.717 217.748 166.699 214.202 156.034C209.957 143.269 219.199 130.113 234.842 126.651C237.415 126.081 240.001 125.81 242.544 125.81C255.468 125.81 267.305 132.827 270.852 143.493C275.096 156.258 265.854 169.414 250.21 172.876C247.639 173.446 245.052 173.717 242.508 173.717ZM243.326 129.856C241.173 129.856 238.984 130.087 236.807 130.568C223.567 133.5 215.745 144.634 219.337 155.437C222.339 164.465 232.357 170.405 243.295 170.405C245.449 170.405 247.637 170.175 249.814 169.693C263.055 166.762 270.876 155.627 267.285 144.824C264.283 135.797 254.264 129.856 243.326 129.856ZM240.267 127.284C240.25 127.284 240.235 127.284 240.219 127.284C238.565 127.4 236.906 127.639 235.29 127.996C225.159 130.239 217.554 136.847 215.441 145.243C215.38 145.484 215.571 145.721 215.868 145.771C215.905 145.777 215.942 145.78 215.977 145.78C216.027 145.78 216.075 145.774 216.121 145.764C216.314 145.722 216.472 145.594 216.514 145.423C218.544 137.359 225.848 131.013 235.576 128.86C237.13 128.516 238.722 128.286 240.312 128.175C240.616 128.156 240.836 127.938 240.812 127.693C240.787 127.459 240.547 127.284 240.267 127.284Z" fill="white"/>
</mask>
<g mask="url(#mask55_104_4777)">
<mask id="mask56_104_4777" style="mask-type:luminance" maskUnits="userSpaceOnUse" x="213" y="125" width="59" height="49">
<path d="M242.508 173.717C229.584 173.717 217.748 166.699 214.202 156.034C209.957 143.269 219.199 130.113 234.842 126.651C237.415 126.081 240.001 125.81 242.544 125.81C255.468 125.81 267.305 132.827 270.852 143.493C275.096 156.258 265.854 169.414 250.21 172.876C247.639 173.446 245.052 173.717 242.508 173.717ZM243.326 129.856C241.173 129.856 238.984 130.087 236.807 130.568C223.567 133.5 215.745 144.634 219.337 155.437C222.339 164.465 232.357 170.405 243.295 170.405C245.449 170.405 247.637 170.175 249.814 169.693C263.055 166.762 270.876 155.627 267.285 144.824C264.283 135.797 254.264 129.856 243.326 129.856ZM240.267 127.284C240.25 127.284 240.235 127.284 240.219 127.284C238.565 127.4 236.906 127.639 235.29 127.996C225.159 130.239 217.554 136.847 215.441 145.243C215.38 145.484 215.571 145.721 215.868 145.771C215.905 145.777 215.942 145.78 215.977 145.78C216.027 145.78 216.075 145.774 216.121 145.764C216.314 145.722 216.472 145.594 216.514 145.423C218.544 137.359 225.848 131.013 235.576 128.86C237.13 128.516 238.722 128.286 240.312 128.175C240.616 128.156 240.836 127.938 240.812 127.693C240.787 127.459 240.547 127.284 240.267 127.284Z" fill="white"/>
</mask>
<g mask="url(#mask56_104_4777)">
<path d="M275.089 125.237L209.325 125.815L209.965 174.289L275.728 173.712L275.089 125.237Z" fill="#FE7062"/>
</g>
</g>
</g>
<mask id="mask57_104_4777" style="mask-type:luminance" maskUnits="userSpaceOnUse" x="215" y="127" width="26" height="19">
<path d="M215.427 127.27H240.894V145.816H215.427V127.27Z" fill="white"/>
</mask>
<g mask="url(#mask57_104_4777)">
<mask id="mask58_104_4777" style="mask-type:luminance" maskUnits="userSpaceOnUse" x="215" y="127" width="26" height="19">
<path d="M215.977 145.78C215.942 145.78 215.905 145.776 215.868 145.771C215.571 145.721 215.38 145.484 215.441 145.243C217.553 136.847 225.159 130.238 235.29 127.996C236.906 127.639 238.565 127.4 240.219 127.284C240.235 127.283 240.25 127.283 240.267 127.283C240.547 127.283 240.787 127.459 240.811 127.692C240.836 127.938 240.616 128.156 240.312 128.175C238.722 128.285 237.13 128.515 235.576 128.86C225.848 131.013 218.543 137.359 216.514 145.423C216.472 145.594 216.314 145.722 216.121 145.764C216.075 145.774 216.027 145.78 215.977 145.78Z" fill="white"/>
</mask>
<g mask="url(#mask58_104_4777)">
<mask id="mask59_104_4777" style="mask-type:luminance" maskUnits="userSpaceOnUse" x="215" y="127" width="26" height="19">
<path d="M215.977 145.78C215.942 145.78 215.905 145.776 215.868 145.771C215.571 145.721 215.38 145.484 215.441 145.243C217.553 136.847 225.159 130.238 235.29 127.996C236.906 127.639 238.565 127.4 240.219 127.284C240.235 127.283 240.25 127.283 240.267 127.283C240.547 127.283 240.787 127.459 240.811 127.692C240.836 127.938 240.616 128.156 240.312 128.175C238.722 128.285 237.13 128.515 235.576 128.86C225.848 131.013 218.543 137.359 216.514 145.423C216.472 145.594 216.314 145.722 216.121 145.764C216.075 145.774 216.027 145.78 215.977 145.78Z" fill="white"/>
</mask>
<g mask="url(#mask59_104_4777)">
<path d="M240.833 127.06L215.137 127.286L215.383 146.004L241.081 145.778L240.833 127.06Z" fill="#FFC3BD"/>
</g>
</g>
</g>
<mask id="mask60_104_4777" style="mask-type:luminance" maskUnits="userSpaceOnUse" x="218" y="129" width="51" height="42">
<path d="M218.439 129.84H268.278V170.507H218.439V129.84Z" fill="white"/>
</mask>
<g mask="url(#mask60_104_4777)">
<mask id="mask61_104_4777" style="mask-type:luminance" maskUnits="userSpaceOnUse" x="218" y="129" width="51" height="42">
<path d="M243.295 170.405C232.357 170.405 222.339 164.465 219.337 155.438C215.745 144.634 223.567 133.5 236.807 130.568C238.984 130.087 241.173 129.856 243.326 129.856C254.264 129.856 264.283 135.797 267.285 144.824C270.876 155.628 263.055 166.762 249.814 169.693C247.637 170.175 245.449 170.405 243.295 170.405Z" fill="white"/>
</mask>
<g mask="url(#mask61_104_4777)">
<mask id="mask62_104_4777" style="mask-type:luminance" maskUnits="userSpaceOnUse" x="218" y="129" width="51" height="42">
<path d="M243.295 170.405C232.357 170.405 222.339 164.465 219.337 155.438C215.745 144.634 223.567 133.5 236.807 130.568C238.984 130.087 241.173 129.856 243.326 129.856C254.264 129.856 264.283 135.797 267.285 144.824C270.876 155.628 263.055 166.762 249.814 169.693C247.637 170.175 245.449 170.405 243.295 170.405Z" fill="white"/>
</mask>
<g mask="url(#mask62_104_4777)">
<path d="M270.87 129.372L215.21 129.861L215.751 170.889L271.411 170.399L270.87 129.372Z" fill="#FFE0DD"/>
</g>
</g>
</g>
<mask id="mask63_104_4777" style="mask-type:luminance" maskUnits="userSpaceOnUse" x="231" y="135" width="26" height="32">
<path d="M231.173 135.984H256.229V166.149H231.173V135.984Z" fill="white"/>
</mask>
<g mask="url(#mask63_104_4777)">
<mask id="mask64_104_4777" style="mask-type:luminance" maskUnits="userSpaceOnUse" x="231" y="136" width="26" height="31">
<path d="M245.793 165.194L245.086 163.066C242.337 163.579 239.474 163.65 237.337 163.391C236.574 163.298 236.018 162.751 236.019 162.122L236.023 159.993C236.024 159.211 236.869 158.62 237.818 158.723C239.927 158.952 242.437 158.947 244.96 158.388C247.579 157.808 249.291 156.652 248.798 155.167C248.352 153.826 246.579 153.364 242.674 153.373C237.094 153.364 232.752 152.342 231.512 148.611C230.392 145.243 232.556 142.003 237.564 140.155L236.856 138.027C236.629 137.342 237.124 136.637 237.964 136.451L239.496 136.112C240.337 135.925 241.2 136.33 241.428 137.014L242.063 138.926C244.607 138.451 246.556 138.397 248.148 138.492C248.962 138.541 249.588 139.105 249.588 139.773V141.74C249.588 142.5 248.79 143.092 247.864 143.019C246.39 142.903 244.354 142.891 241.895 143.435C238.788 144.124 238.25 145.37 238.562 146.312C238.948 147.471 241.077 147.855 245.453 147.975C251.694 148.11 254.74 149.535 255.908 153.049C256.98 156.272 255.014 159.818 249.573 161.8L250.366 164.182C250.593 164.867 250.097 165.573 249.258 165.758L247.725 166.098C246.886 166.283 246.021 165.879 245.793 165.194Z" fill="white"/>
</mask>
<g mask="url(#mask64_104_4777)">
<mask id="mask65_104_4777" style="mask-type:luminance" maskUnits="userSpaceOnUse" x="231" y="136" width="26" height="31">
<path d="M245.793 165.194L245.086 163.066C242.337 163.579 239.474 163.65 237.337 163.391C236.574 163.298 236.018 162.751 236.019 162.122L236.023 159.993C236.024 159.211 236.869 158.62 237.818 158.723C239.927 158.952 242.437 158.947 244.96 158.388C247.579 157.808 249.291 156.652 248.798 155.167C248.352 153.826 246.579 153.364 242.674 153.373C237.094 153.364 232.752 152.342 231.512 148.611C230.392 145.243 232.556 142.003 237.564 140.155L236.856 138.027C236.629 137.342 237.124 136.637 237.964 136.451L239.496 136.112C240.337 135.925 241.2 136.33 241.428 137.014L242.063 138.926C244.607 138.451 246.556 138.397 248.148 138.492C248.962 138.541 249.588 139.105 249.588 139.773V141.74C249.588 142.5 248.79 143.092 247.864 143.019C246.39 142.903 244.354 142.891 241.895 143.435C238.788 144.124 238.25 145.37 238.562 146.312C238.948 147.471 241.077 147.855 245.453 147.975C251.694 148.11 254.74 149.535 255.908 153.049C256.98 156.272 255.014 159.818 249.573 161.8L250.366 164.182C250.593 164.867 250.097 165.573 249.258 165.758L247.725 166.098C246.886 166.283 246.021 165.879 245.793 165.194Z" fill="white"/>
</mask>
<g mask="url(#mask65_104_4777)">
<path d="M256.978 135.692L229.992 135.929L230.396 166.517L257.381 166.28L256.978 135.692Z" fill="#FE7062"/>
</g>
</g>
</g>
<mask id="mask66_104_4777" style="mask-type:luminance" maskUnits="userSpaceOnUse" x="241" y="82" width="50" height="40">
<path d="M241.578 82.0227H290.185V121.684H241.578V82.0227Z" fill="white"/>
</mask>
<g mask="url(#mask66_104_4777)">
<mask id="mask67_104_4777" style="mask-type:luminance" maskUnits="userSpaceOnUse" x="241" y="82" width="50" height="40">
<path d="M265.864 121.667C257.046 121.667 248.84 117.717 244.588 111.382C243.684 110.035 242.96 108.583 242.447 107.037C240.642 101.612 241.782 96.1028 245.074 91.637C248.188 87.4116 253.229 84.1228 259.522 82.7293C261.65 82.258 263.789 82.0337 265.894 82.0337C274.393 82.0337 282.323 85.7013 286.692 91.637C287.819 93.1701 288.71 94.8538 289.311 96.6636C291.024 101.815 290.082 107.045 287.165 111.382C284.101 115.933 278.863 119.504 272.236 120.971C270.109 121.441 267.968 121.667 265.864 121.667ZM265.892 82.6927C263.859 82.6927 261.791 82.9096 259.734 83.3652C247.222 86.1347 239.831 96.6557 243.226 106.865C246.061 115.395 255.529 121.008 265.865 121.008C267.899 121.008 269.967 120.79 272.024 120.335C284.535 117.566 291.926 107.045 288.532 96.8355C285.696 88.3054 276.229 82.6927 265.892 82.6927Z" fill="white"/>
</mask>
<g mask="url(#mask67_104_4777)">
<mask id="mask68_104_4777" style="mask-type:luminance" maskUnits="userSpaceOnUse" x="241" y="82" width="50" height="40">
<path d="M265.864 121.667C257.046 121.667 248.84 117.717 244.588 111.382C243.684 110.035 242.96 108.583 242.447 107.037C240.642 101.612 241.782 96.1028 245.074 91.637C248.188 87.4116 253.229 84.1228 259.522 82.7293C261.65 82.258 263.789 82.0337 265.894 82.0337C274.393 82.0337 282.323 85.7013 286.692 91.637C287.819 93.1701 288.71 94.8538 289.311 96.6636C291.024 101.815 290.082 107.045 287.165 111.382C284.101 115.933 278.863 119.504 272.236 120.971C270.109 121.441 267.968 121.667 265.864 121.667ZM265.892 82.6927C263.859 82.6927 261.791 82.9096 259.734 83.3652C247.222 86.1347 239.831 96.6557 243.226 106.865C246.061 115.395 255.529 121.008 265.865 121.008C267.899 121.008 269.967 120.79 272.024 120.335C284.535 117.566 291.926 107.045 288.532 96.8355C285.696 88.3054 276.229 82.6927 265.892 82.6927Z" fill="white"/>
</mask>
<g mask="url(#mask68_104_4777)">
<path d="M291.92 81.5762L239.309 82.0383L239.838 122.125L292.449 121.662L291.92 81.5762Z" fill="#E9605A"/>
</g>
</g>
</g>
<mask id="mask69_104_4777" style="mask-type:luminance" maskUnits="userSpaceOnUse" x="242" y="82" width="48" height="40">
<path d="M242.4 82.6929H289.363V121.013H242.4V82.6929Z" fill="white"/>
</mask>
<g mask="url(#mask69_104_4777)">
<mask id="mask70_104_4777" style="mask-type:luminance" maskUnits="userSpaceOnUse" x="242" y="82" width="48" height="40">
<path d="M265.865 121.008C255.529 121.008 246.061 115.395 243.226 106.865C239.831 96.6557 247.222 86.1346 259.734 83.3651C261.791 82.9095 263.86 82.6926 265.892 82.6926C276.229 82.6926 285.696 88.3053 288.532 96.8355C291.926 107.045 284.535 117.566 272.024 120.335C269.967 120.79 267.899 121.008 265.865 121.008ZM266.518 85.9291C264.797 85.9291 263.046 86.1124 261.305 86.4977C250.715 88.8417 244.461 97.7471 247.334 106.388C249.733 113.607 257.747 118.358 266.495 118.358C268.216 118.358 269.967 118.174 271.708 117.789C282.297 115.444 288.552 106.54 285.68 97.899C283.28 90.6794 275.266 85.9291 266.518 85.9291ZM264.072 83.7405C264.055 83.7405 264.038 83.7405 264.019 83.7418C262.686 83.8343 261.35 84.0276 260.049 84.3161C251.89 86.1215 245.763 91.4449 244.061 98.2084C243.994 98.472 244.202 98.7304 244.527 98.7841C244.566 98.7906 244.607 98.7941 244.647 98.7941C244.701 98.7941 244.752 98.7884 244.802 98.7771C245.014 98.7304 245.185 98.5907 245.232 98.404C246.843 92.0048 252.64 86.9673 260.363 85.2579C261.593 84.9851 262.859 84.8018 264.121 84.7137C264.454 84.6949 264.694 84.4544 264.667 84.1865C264.64 83.9329 264.378 83.7405 264.072 83.7405Z" fill="white"/>
</mask>
<g mask="url(#mask70_104_4777)">
<mask id="mask71_104_4777" style="mask-type:luminance" maskUnits="userSpaceOnUse" x="242" y="82" width="48" height="40">
<path d="M265.865 121.008C255.529 121.008 246.061 115.395 243.226 106.865C239.831 96.6557 247.222 86.1346 259.734 83.3651C261.791 82.9095 263.86 82.6926 265.892 82.6926C276.229 82.6926 285.696 88.3053 288.532 96.8355C291.926 107.045 284.535 117.566 272.024 120.335C269.967 120.79 267.899 121.008 265.865 121.008ZM266.518 85.9291C264.797 85.9291 263.046 86.1124 261.305 86.4977C250.715 88.8417 244.461 97.7471 247.334 106.388C249.733 113.607 257.747 118.358 266.495 118.358C268.216 118.358 269.967 118.174 271.708 117.789C282.297 115.444 288.552 106.54 285.68 97.899C283.28 90.6794 275.266 85.9291 266.518 85.9291ZM264.072 83.7405C264.055 83.7405 264.038 83.7405 264.019 83.7418C262.686 83.8343 261.35 84.0276 260.049 84.3161C251.89 86.1215 245.763 91.4449 244.061 98.2084C243.994 98.472 244.202 98.7304 244.527 98.7841C244.566 98.7906 244.607 98.7941 244.647 98.7941C244.701 98.7941 244.752 98.7884 244.802 98.7771C245.014 98.7304 245.185 98.5907 245.232 98.404C246.843 92.0048 252.64 86.9673 260.363 85.2579C261.593 84.9851 262.859 84.8018 264.121 84.7137C264.454 84.6949 264.694 84.4544 264.667 84.1865C264.64 83.9329 264.378 83.7405 264.072 83.7405Z" fill="white"/>
</mask>
<g mask="url(#mask71_104_4777)">
<path d="M291.92 82.2344L239.326 82.6965L239.838 121.465L292.432 121.003L291.92 82.2344Z" fill="#FE7062"/>
</g>
</g>
</g>
<mask id="mask72_104_4777" style="mask-type:luminance" maskUnits="userSpaceOnUse" x="244" y="83" width="21" height="16">
<path d="M244.043 83.6985H264.718V98.8927H244.043V83.6985Z" fill="white"/>
</mask>
<g mask="url(#mask72_104_4777)">
<mask id="mask73_104_4777" style="mask-type:luminance" maskUnits="userSpaceOnUse" x="244" y="83" width="21" height="16">
<path d="M244.647 98.7944C244.607 98.7944 244.566 98.7909 244.527 98.7843C244.202 98.7307 243.994 98.4723 244.061 98.2087C245.763 91.4452 251.89 86.1218 260.049 84.3164C261.349 84.0279 262.686 83.8346 264.019 83.742C264.037 83.7407 264.055 83.7407 264.072 83.7407C264.378 83.7407 264.64 83.9332 264.667 84.1867C264.694 84.4547 264.454 84.6952 264.121 84.7139C262.859 84.8021 261.593 84.9854 260.363 85.2581C252.64 86.9676 246.843 92.0051 245.231 98.4042C245.185 98.591 245.014 98.7307 244.801 98.7774C244.752 98.7887 244.7 98.7944 244.647 98.7944Z" fill="white"/>
</mask>
<g mask="url(#mask73_104_4777)">
<mask id="mask74_104_4777" style="mask-type:luminance" maskUnits="userSpaceOnUse" x="244" y="83" width="21" height="16">
<path d="M244.647 98.7944C244.607 98.7944 244.566 98.7909 244.527 98.7843C244.202 98.7307 243.994 98.4723 244.061 98.2087C245.763 91.4452 251.89 86.1218 260.049 84.3164C261.349 84.0279 262.686 83.8346 264.019 83.742C264.037 83.7407 264.055 83.7407 264.072 83.7407C264.378 83.7407 264.64 83.9332 264.667 84.1867C264.694 84.4547 264.454 84.6952 264.121 84.7139C262.859 84.8021 261.593 84.9854 260.363 85.2581C252.64 86.9676 246.843 92.0051 245.231 98.4042C245.185 98.591 245.014 98.7307 244.801 98.7774C244.752 98.7887 244.7 98.7944 244.647 98.7944Z" fill="white"/>
</mask>
<g mask="url(#mask74_104_4777)">
<path d="M264.692 83.5593L243.795 83.7426L243.996 98.9761L264.893 98.7928L264.692 83.5593Z" fill="#FFC3BD"/>
</g>
</g>
</g>
<mask id="mask75_104_4777" style="mask-type:luminance" maskUnits="userSpaceOnUse" x="246" y="85" width="41" height="34">
<path d="M246.508 85.8215H286.488V118.444H246.508V85.8215Z" fill="white"/>
</mask>
<g mask="url(#mask75_104_4777)">
<mask id="mask76_104_4777" style="mask-type:luminance" maskUnits="userSpaceOnUse" x="246" y="85" width="41" height="34">
<path d="M266.495 118.358C257.747 118.358 249.733 113.607 247.333 106.388C244.461 97.747 250.715 88.8416 261.304 86.4976C263.046 86.1122 264.797 85.929 266.518 85.929C275.266 85.929 283.28 90.6793 285.68 97.8989C288.552 106.539 282.297 115.444 271.708 117.789C269.967 118.174 268.216 118.358 266.495 118.358Z" fill="white"/>
</mask>
<g mask="url(#mask76_104_4777)">
<mask id="mask77_104_4777" style="mask-type:luminance" maskUnits="userSpaceOnUse" x="246" y="85" width="41" height="34">
<path d="M266.495 118.358C257.747 118.358 249.733 113.607 247.333 106.388C244.461 97.747 250.715 88.8416 261.304 86.4976C263.046 86.1122 264.797 85.929 266.518 85.929C275.266 85.929 283.28 90.6793 285.68 97.8989C288.552 106.539 282.297 115.444 271.708 117.789C269.967 118.174 268.216 118.358 266.495 118.358Z" fill="white"/>
</mask>
<g mask="url(#mask77_104_4777)">
<path d="M288.548 85.5417L244.033 85.9328L244.466 118.745L288.981 118.354L288.548 85.5417Z" fill="#FFE0DD"/>
</g>
</g>
</g>
<mask id="mask78_104_4777" style="mask-type:luminance" maskUnits="userSpaceOnUse" x="256" y="90" width="21" height="25">
<path d="M256.776 90.8489H276.904V114.981H256.776V90.8489Z" fill="white"/>
</mask>
<g mask="url(#mask78_104_4777)">
<mask id="mask79_104_4777" style="mask-type:luminance" maskUnits="userSpaceOnUse" x="256" y="90" width="21" height="25">
<path d="M268.491 114.19L267.926 112.489C265.728 112.899 263.437 112.956 261.729 112.749C261.118 112.674 260.674 112.236 260.674 111.734L260.677 110.031C260.679 109.405 261.354 108.934 262.112 109.015C263.8 109.199 265.808 109.194 267.826 108.747C269.921 108.283 271.29 107.359 270.894 106.171C270.538 105.099 269.119 104.73 265.996 104.736C261.534 104.728 258.062 103.912 257.069 100.928C256.174 98.2342 257.904 95.6436 261.911 94.1655L261.344 92.4639C261.162 91.9153 261.559 91.351 262.23 91.2027L263.455 90.9308C264.128 90.7824 264.819 91.1062 265.001 91.6539L265.509 93.1822C267.544 92.8021 269.101 92.7589 270.374 92.8357C271.027 92.8737 271.527 93.3254 271.527 93.8591V95.4333C271.527 96.0399 270.889 96.5138 270.148 96.4558C268.968 96.3619 267.341 96.3528 265.373 96.7888C262.889 97.3395 262.459 98.3358 262.709 99.0891C263.017 100.016 264.719 100.323 268.22 100.42C273.211 100.528 275.648 101.667 276.581 104.477C277.439 107.055 275.866 109.891 271.514 111.477L272.148 113.382C272.331 113.929 271.933 114.493 271.262 114.642L270.037 114.913C269.366 115.062 268.673 114.738 268.491 114.19Z" fill="white"/>
</mask>
<g mask="url(#mask79_104_4777)">
<mask id="mask80_104_4777" style="mask-type:luminance" maskUnits="userSpaceOnUse" x="256" y="90" width="21" height="25">
<path d="M268.491 114.19L267.926 112.489C265.728 112.899 263.437 112.956 261.729 112.749C261.118 112.674 260.674 112.236 260.674 111.734L260.677 110.031C260.679 109.405 261.354 108.934 262.112 109.015C263.8 109.199 265.808 109.194 267.826 108.747C269.921 108.283 271.29 107.359 270.894 106.171C270.538 105.099 269.119 104.73 265.996 104.736C261.534 104.728 258.062 103.912 257.069 100.928C256.174 98.2342 257.904 95.6436 261.911 94.1655L261.344 92.4639C261.162 91.9153 261.559 91.351 262.23 91.2027L263.455 90.9308C264.128 90.7824 264.819 91.1062 265.001 91.6539L265.509 93.1822C267.544 92.8021 269.101 92.7589 270.374 92.8357C271.027 92.8737 271.527 93.3254 271.527 93.8591V95.4333C271.527 96.0399 270.889 96.5138 270.148 96.4558C268.968 96.3619 267.341 96.3528 265.373 96.7888C262.889 97.3395 262.459 98.3358 262.709 99.0891C263.017 100.016 264.719 100.323 268.22 100.42C273.211 100.528 275.648 101.667 276.581 104.477C277.439 107.055 275.866 109.891 271.514 111.477L272.148 113.382C272.331 113.929 271.933 114.493 271.262 114.642L270.037 114.913C269.366 115.062 268.673 114.738 268.491 114.19Z" fill="white"/>
</mask>
<g mask="url(#mask80_104_4777)">
<path d="M277.436 90.5964L255.854 90.7858L256.176 115.249L277.759 115.06L277.436 90.5964Z" fill="#FE7062"/>
</g>
</g>
</g>
<mask id="mask81_104_4777" style="mask-type:luminance" maskUnits="userSpaceOnUse" x="82" y="183" width="167" height="160">
<path d="M82.479 183.242H248.287V342.781H82.479V183.242Z" fill="white"/>
</mask>
<g mask="url(#mask81_104_4777)">
<mask id="mask82_104_4777" style="mask-type:luminance" maskUnits="userSpaceOnUse" x="82" y="183" width="167" height="160">
<path d="M194.229 342.747C155.172 342.747 107.578 341.936 91.3124 341.551C86.7588 341.444 83.1079 338.803 82.9651 335.514C81.6152 304.462 84.4429 216.837 85.3147 191.434C85.4393 187.785 88.9259 184.721 93.6619 183.847C94.3176 183.726 94.9963 183.647 95.6943 183.614C100.238 183.401 105.819 183.307 112.126 183.307C128.956 183.307 150.93 183.979 172 184.858C177.888 185.104 183.711 185.367 189.325 185.635C190.4 185.686 191.462 185.737 192.522 185.789C210.684 186.676 226.394 187.608 234.967 188.228C239.644 188.566 243.5 190.842 244.989 193.929C245.312 194.596 245.523 195.302 245.61 196.033C245.89 198.435 246.142 201.033 246.369 203.801C246.51 205.523 246.643 207.313 246.765 209.16C246.972 212.296 247.153 215.597 247.309 219.032C247.456 222.306 247.584 225.699 247.691 229.182C247.701 229.555 247.713 229.934 247.725 230.31C248.278 249.223 248.259 270.602 248.036 289.54C248.03 289.917 248.026 290.294 248.022 290.669C247.999 292.513 247.974 294.336 247.948 296.126C247.897 299.533 247.842 302.833 247.784 305.998C247.652 313.053 247.504 319.433 247.368 324.778C247.333 326.072 247.3 327.306 247.269 328.473C247.234 329.744 247.2 330.938 247.169 332.048C247.111 334.064 246.268 335.941 244.85 337.524C244.456 337.963 244.019 338.378 243.543 338.768C241.006 340.845 237.346 342.193 233.236 342.317C223.002 342.627 209.252 342.747 194.229 342.747ZM179.361 308.112C174.706 308.112 170.934 311.191 170.934 314.989C170.934 318.787 174.706 321.866 179.361 321.866H189.622C194.276 321.866 198.049 318.787 198.049 314.989C198.049 311.191 194.276 308.112 189.622 308.112H179.361ZM142.718 308.112C138.063 308.112 134.29 311.191 134.29 314.989C134.29 318.787 138.063 321.866 142.718 321.866H152.978C157.633 321.866 161.406 318.787 161.406 314.989C161.406 311.191 157.633 308.112 152.978 308.112H142.718ZM104.608 308.112C99.9538 308.112 96.1805 311.191 96.1805 314.989C96.1805 318.787 99.9538 321.866 104.608 321.866H114.868C119.523 321.866 123.297 318.787 123.297 314.989C123.297 311.191 119.523 308.112 114.868 308.112H104.608ZM179.361 287.182C174.706 287.182 170.934 290.261 170.934 294.059C170.934 297.857 174.706 300.936 179.361 300.936H189.622C194.276 300.936 198.049 297.857 198.049 294.059C198.049 290.261 194.276 287.182 189.622 287.182H179.361ZM142.718 287.182C138.063 287.182 134.29 290.261 134.29 294.059C134.29 297.857 138.063 300.936 142.718 300.936H152.978C157.633 300.936 161.406 297.857 161.406 294.059C161.406 290.261 157.633 287.182 152.978 287.182H142.718ZM104.608 287.182C99.9538 287.182 96.1805 290.261 96.1805 294.059C96.1805 297.857 99.9538 300.936 104.608 300.936H114.868C119.523 300.936 123.297 297.857 123.297 294.059C123.297 290.261 119.523 287.182 114.868 287.182H104.608ZM100.944 195.159C95.8847 195.159 91.783 198.506 91.783 202.634V224.163C91.783 228.291 95.8847 231.637 100.944 231.637H226.998C232.057 231.637 236.159 228.291 236.159 224.163V202.634C236.159 198.506 232.057 195.159 226.998 195.159H100.944Z" fill="white"/>
</mask>
<g mask="url(#mask82_104_4777)">
<mask id="mask83_104_4777" style="mask-type:luminance" maskUnits="userSpaceOnUse" x="82" y="183" width="167" height="160">
<path d="M194.229 342.747C155.172 342.747 107.578 341.936 91.3124 341.551C86.7588 341.444 83.1079 338.803 82.9651 335.514C81.6152 304.462 84.4429 216.837 85.3147 191.434C85.4393 187.785 88.9259 184.721 93.6619 183.847C94.3176 183.726 94.9963 183.647 95.6943 183.614C100.238 183.401 105.819 183.307 112.126 183.307C128.956 183.307 150.93 183.979 172 184.858C177.888 185.104 183.711 185.367 189.325 185.635C190.4 185.686 191.462 185.737 192.522 185.789C210.684 186.676 226.394 187.608 234.967 188.228C239.644 188.566 243.5 190.842 244.989 193.929C245.312 194.596 245.523 195.302 245.61 196.033C245.89 198.435 246.142 201.033 246.369 203.801C246.51 205.523 246.643 207.313 246.765 209.16C246.972 212.296 247.153 215.597 247.309 219.032C247.456 222.306 247.584 225.699 247.691 229.182C247.701 229.555 247.713 229.934 247.725 230.31C248.278 249.223 248.259 270.602 248.036 289.54C248.03 289.917 248.026 290.294 248.022 290.669C247.999 292.513 247.974 294.336 247.948 296.126C247.897 299.533 247.842 302.833 247.784 305.998C247.652 313.053 247.504 319.433 247.368 324.778C247.333 326.072 247.3 327.306 247.269 328.473C247.234 329.744 247.2 330.938 247.169 332.048C247.111 334.064 246.268 335.941 244.85 337.524C244.456 337.963 244.019 338.378 243.543 338.768C241.006 340.845 237.346 342.193 233.236 342.317C223.002 342.627 209.252 342.747 194.229 342.747ZM179.361 308.112C174.706 308.112 170.934 311.191 170.934 314.989C170.934 318.787 174.706 321.866 179.361 321.866H189.622C194.276 321.866 198.049 318.787 198.049 314.989C198.049 311.191 194.276 308.112 189.622 308.112H179.361ZM142.718 308.112C138.063 308.112 134.29 311.191 134.29 314.989C134.29 318.787 138.063 321.866 142.718 321.866H152.978C157.633 321.866 161.406 318.787 161.406 314.989C161.406 311.191 157.633 308.112 152.978 308.112H142.718ZM104.608 308.112C99.9538 308.112 96.1805 311.191 96.1805 314.989C96.1805 318.787 99.9538 321.866 104.608 321.866H114.868C119.523 321.866 123.297 318.787 123.297 314.989C123.297 311.191 119.523 308.112 114.868 308.112H104.608ZM179.361 287.182C174.706 287.182 170.934 290.261 170.934 294.059C170.934 297.857 174.706 300.936 179.361 300.936H189.622C194.276 300.936 198.049 297.857 198.049 294.059C198.049 290.261 194.276 287.182 189.622 287.182H179.361ZM142.718 287.182C138.063 287.182 134.29 290.261 134.29 294.059C134.29 297.857 138.063 300.936 142.718 300.936H152.978C157.633 300.936 161.406 297.857 161.406 294.059C161.406 290.261 157.633 287.182 152.978 287.182H142.718ZM104.608 287.182C99.9538 287.182 96.1805 290.261 96.1805 294.059C96.1805 297.857 99.9538 300.936 104.608 300.936H114.868C119.523 300.936 123.297 297.857 123.297 294.059C123.297 290.261 119.523 287.182 114.868 287.182H104.608ZM100.944 195.159C95.8847 195.159 91.783 198.506 91.783 202.634V224.163C91.783 228.291 95.8847 231.637 100.944 231.637H226.998C232.057 231.637 236.159 228.291 236.159 224.163V202.634C236.159 198.506 232.057 195.159 226.998 195.159H100.944Z" fill="white"/>
</mask>
<g mask="url(#mask83_104_4777)">
<path d="M81.6153 183.307V342.747H248.278V183.307H81.6153Z" fill="#5178BC"/>
</g>
</g>
</g>
<path d="M91.7831 202.634V224.163C91.7831 228.291 95.8847 231.637 100.944 231.637H226.998C232.057 231.637 236.159 228.291 236.159 224.163V202.634C236.159 198.506 232.057 195.159 226.998 195.159H100.944C95.8847 195.159 91.7831 198.506 91.7831 202.634Z" fill="#91B3FA"/>
<path d="M222.963 229.713C222.894 229.713 222.825 229.713 222.756 229.711L106.794 228.565C102.3 228.52 98.775 227.049 98.9756 225.3L101.426 203.948C101.718 201.412 104.326 199.48 107.437 199.48C107.469 199.48 107.502 199.48 107.534 199.48L225.485 201.01C227.089 201.031 228.615 201.571 229.73 202.511C230.844 203.451 231.455 204.715 231.427 206.022L230.989 226.612C230.953 228.333 227.357 229.713 222.963 229.713ZM210.874 224.462C209.863 224.462 209.043 225.131 209.043 225.956C209.043 226.783 209.863 227.452 210.874 227.452H216.005C217.017 227.452 217.837 226.783 217.837 225.956C217.837 225.131 217.017 224.462 216.005 224.462H210.874ZM220.403 216.688C219.391 216.688 218.571 217.357 218.571 218.183V222.369C218.571 223.195 219.391 223.864 220.403 223.864C221.415 223.864 222.234 223.195 222.234 222.369V218.183C222.234 217.357 221.415 216.688 220.403 216.688ZM207.943 216.688C206.931 216.688 206.111 217.357 206.111 218.183V222.369C206.111 223.195 206.931 223.864 207.943 223.864C208.955 223.864 209.775 223.195 209.775 222.369V218.183C209.775 217.357 208.955 216.688 207.943 216.688ZM220.403 208.316C219.391 208.316 218.571 208.985 218.571 209.81V213.996C218.571 214.822 219.391 215.491 220.403 215.491C221.415 215.491 222.234 214.822 222.234 213.996V209.81C222.234 208.985 221.415 208.316 220.403 208.316ZM207.943 208.316C206.931 208.316 206.111 208.985 206.111 209.81V213.996C206.111 214.822 206.931 215.491 207.943 215.491C208.955 215.491 209.775 214.822 209.775 213.996V209.81C209.775 208.985 208.955 208.316 207.943 208.316ZM210.874 204.129C209.863 204.129 209.043 204.799 209.043 205.624C209.043 206.451 209.863 207.12 210.874 207.12H216.005C217.017 207.12 217.837 206.451 217.837 205.624C217.837 204.799 217.017 204.129 216.005 204.129H210.874Z" fill="#A7C2FB"/>
<mask id="mask84_104_4777" style="mask-type:luminance" maskUnits="userSpaceOnUse" x="96" y="246" width="28" height="15">
<path d="M96.1709 246.449H123.418V260.414H96.1709V246.449Z" fill="white"/>
</mask>
<g mask="url(#mask84_104_4777)">
<mask id="mask85_104_4777" style="mask-type:luminance" maskUnits="userSpaceOnUse" x="96" y="246" width="28" height="15">
<path d="M123.297 253.436C123.297 257.235 119.524 260.314 114.869 260.314H104.609C99.9538 260.314 96.1805 257.235 96.1805 253.436C96.1805 249.639 99.9538 246.56 104.609 246.56H114.869C119.524 246.56 123.297 249.639 123.297 253.436Z" fill="white"/>
</mask>
<g mask="url(#mask85_104_4777)">
<mask id="mask86_104_4777" style="mask-type:luminance" maskUnits="userSpaceOnUse" x="96" y="246" width="28" height="15">
<path d="M123.297 253.436C123.297 257.235 119.524 260.314 114.869 260.314H104.609C99.9538 260.314 96.1805 257.235 96.1805 253.436C96.1805 249.639 99.9538 246.56 104.609 246.56H114.869C119.524 246.56 123.297 249.639 123.297 253.436Z" fill="white"/>
</mask>
<g mask="url(#mask86_104_4777)">
<path d="M87.7585 253.175L109.224 271.369L131.718 253.698L110.253 235.505L87.7585 253.175Z" fill="#F5F5F5"/>
</g>
</g>
</g>
<mask id="mask87_104_4777" style="mask-type:luminance" maskUnits="userSpaceOnUse" x="134" y="246" width="28" height="15">
<path d="M134.234 246.449H161.481V260.414H134.234V246.449Z" fill="white"/>
</mask>
<g mask="url(#mask87_104_4777)">
<mask id="mask88_104_4777" style="mask-type:luminance" maskUnits="userSpaceOnUse" x="134" y="246" width="28" height="15">
<path d="M161.406 253.436C161.406 257.235 157.633 260.314 152.978 260.314H142.718C138.063 260.314 134.29 257.235 134.29 253.436C134.29 249.639 138.063 246.56 142.718 246.56H152.978C157.633 246.56 161.406 249.639 161.406 253.436Z" fill="white"/>
</mask>
<g mask="url(#mask88_104_4777)">
<mask id="mask89_104_4777" style="mask-type:luminance" maskUnits="userSpaceOnUse" x="134" y="246" width="28" height="15">
<path d="M161.406 253.436C161.406 257.235 157.633 260.314 152.978 260.314H142.718C138.063 260.314 134.29 257.235 134.29 253.436C134.29 249.639 138.063 246.56 142.718 246.56H152.978C157.633 246.56 161.406 249.639 161.406 253.436Z" fill="white"/>
</mask>
<g mask="url(#mask89_104_4777)">
<path d="M125.868 253.175L147.333 271.369L169.828 253.698L148.363 235.505L125.868 253.175Z" fill="white"/>
</g>
</g>
</g>
<mask id="mask90_104_4777" style="mask-type:luminance" maskUnits="userSpaceOnUse" x="172" y="246" width="28" height="15">
<path d="M172.229 246.449H199.476V260.414H172.229V246.449Z" fill="white"/>
</mask>
<g mask="url(#mask90_104_4777)">
<mask id="mask91_104_4777" style="mask-type:luminance" maskUnits="userSpaceOnUse" x="172" y="246" width="28" height="15">
<path d="M199.35 253.436C199.35 257.235 195.577 260.314 190.923 260.314H180.662C176.007 260.314 172.235 257.235 172.235 253.436C172.235 249.639 176.007 246.56 180.662 246.56H190.923C195.577 246.56 199.35 249.639 199.35 253.436Z" fill="white"/>
</mask>
<g mask="url(#mask91_104_4777)">
<mask id="mask92_104_4777" style="mask-type:luminance" maskUnits="userSpaceOnUse" x="172" y="246" width="28" height="15">
<path d="M199.35 253.436C199.35 257.235 195.577 260.314 190.923 260.314H180.662C176.007 260.314 172.235 257.235 172.235 253.436C172.235 249.639 176.007 246.56 180.662 246.56H190.923C195.577 246.56 199.35 249.639 199.35 253.436Z" fill="white"/>
</mask>
<g mask="url(#mask92_104_4777)">
<path d="M163.813 253.176L185.278 271.368L207.772 253.698L186.307 235.505L163.813 253.176Z" fill="white"/>
</g>
</g>
</g>
<mask id="mask93_104_4777" style="mask-type:luminance" maskUnits="userSpaceOnUse" x="208" y="247" width="28" height="15">
<path d="M208.033 247.483H235.28V261.56H208.033V247.483Z" fill="white"/>
</mask>
<g mask="url(#mask93_104_4777)">
<mask id="mask94_104_4777" style="mask-type:luminance" maskUnits="userSpaceOnUse" x="208" y="247" width="28" height="15">
<path d="M235.195 254.474C235.195 258.334 231.36 261.462 226.631 261.462H216.714C211.984 261.462 208.15 258.334 208.15 254.474C208.15 250.615 211.984 247.486 216.714 247.486H226.631C231.36 247.486 235.195 250.615 235.195 254.474Z" fill="white"/>
</mask>
<g mask="url(#mask94_104_4777)">
<mask id="mask95_104_4777" style="mask-type:luminance" maskUnits="userSpaceOnUse" x="208" y="247" width="28" height="15">
<path d="M235.195 254.474C235.195 258.334 231.36 261.462 226.631 261.462H216.714C211.984 261.462 208.15 258.334 208.15 254.474C208.15 250.615 211.984 247.486 216.714 247.486H226.631C231.36 247.486 235.195 250.615 235.195 254.474Z" fill="white"/>
</mask>
<g mask="url(#mask95_104_4777)">
<path d="M240.796 249.188L211.441 240.271L202.55 259.762L231.904 268.678L240.796 249.188Z" fill="#FE7062"/>
</g>
</g>
</g>
<mask id="mask96_104_4777" style="mask-type:luminance" maskUnits="userSpaceOnUse" x="96" y="266" width="28" height="15">
<path d="M96.1709 266.894H123.418V280.748H96.1709V266.894Z" fill="white"/>
</mask>
<g mask="url(#mask96_104_4777)">
<mask id="mask97_104_4777" style="mask-type:luminance" maskUnits="userSpaceOnUse" x="96" y="266" width="28" height="15">
<path d="M123.297 273.848C123.297 277.646 119.524 280.724 114.869 280.724H104.609C99.9538 280.724 96.1805 277.646 96.1805 273.848C96.1805 270.049 99.9538 266.97 104.609 266.97H114.869C119.524 266.97 123.297 270.049 123.297 273.848Z" fill="white"/>
</mask>
<g mask="url(#mask97_104_4777)">
<mask id="mask98_104_4777" style="mask-type:luminance" maskUnits="userSpaceOnUse" x="96" y="266" width="28" height="15">
<path d="M123.297 273.848C123.297 277.646 119.524 280.724 114.869 280.724H104.609C99.9538 280.724 96.1805 277.646 96.1805 273.848C96.1805 270.049 99.9538 266.97 104.609 266.97H114.869C119.524 266.97 123.297 270.049 123.297 273.848Z" fill="white"/>
</mask>
<g mask="url(#mask98_104_4777)">
<path d="M87.7585 273.586L109.224 291.779L131.718 274.108L110.253 255.915L87.7585 273.586Z" fill="white"/>
</g>
</g>
</g>
<mask id="mask99_104_4777" style="mask-type:luminance" maskUnits="userSpaceOnUse" x="134" y="266" width="28" height="15">
<path d="M134.234 266.894H161.481V280.748H134.234V266.894Z" fill="white"/>
</mask>
<g mask="url(#mask99_104_4777)">
<mask id="mask100_104_4777" style="mask-type:luminance" maskUnits="userSpaceOnUse" x="134" y="266" width="28" height="15">
<path d="M161.406 273.848C161.406 277.646 157.633 280.724 152.978 280.724H142.718C138.063 280.724 134.29 277.646 134.29 273.848C134.29 270.049 138.063 266.97 142.718 266.97H152.978C157.633 266.97 161.406 270.049 161.406 273.848Z" fill="white"/>
</mask>
<g mask="url(#mask100_104_4777)">
<mask id="mask101_104_4777" style="mask-type:luminance" maskUnits="userSpaceOnUse" x="134" y="266" width="28" height="15">
<path d="M161.406 273.848C161.406 277.646 157.633 280.724 152.978 280.724H142.718C138.063 280.724 134.29 277.646 134.29 273.848C134.29 270.049 138.063 266.97 142.718 266.97H152.978C157.633 266.97 161.406 270.049 161.406 273.848Z" fill="white"/>
</mask>
<g mask="url(#mask101_104_4777)">
<path d="M125.868 273.586L147.333 291.779L169.828 274.108L148.363 255.915L125.868 273.586Z" fill="white"/>
</g>
</g>
</g>
<mask id="mask102_104_4777" style="mask-type:luminance" maskUnits="userSpaceOnUse" x="172" y="266" width="28" height="15">
<path d="M172.229 266.894H199.476V280.748H172.229V266.894Z" fill="white"/>
</mask>
<g mask="url(#mask102_104_4777)">
<mask id="mask103_104_4777" style="mask-type:luminance" maskUnits="userSpaceOnUse" x="172" y="266" width="28" height="15">
<path d="M199.35 273.848C199.35 277.646 195.577 280.724 190.923 280.724H180.662C176.007 280.724 172.235 277.646 172.235 273.848C172.235 270.049 176.007 266.97 180.662 266.97H190.923C195.577 266.97 199.35 270.049 199.35 273.848Z" fill="white"/>
</mask>
<g mask="url(#mask103_104_4777)">
<mask id="mask104_104_4777" style="mask-type:luminance" maskUnits="userSpaceOnUse" x="172" y="266" width="28" height="15">
<path d="M199.35 273.848C199.35 277.646 195.577 280.724 190.923 280.724H180.662C176.007 280.724 172.235 277.646 172.235 273.848C172.235 270.049 176.007 266.97 180.662 266.97H190.923C195.577 266.97 199.35 270.049 199.35 273.848Z" fill="white"/>
</mask>
<g mask="url(#mask104_104_4777)">
<path d="M163.813 273.586L185.278 291.778L207.772 274.108L186.307 255.915L163.813 273.586Z" fill="white"/>
</g>
</g>
</g>
<mask id="mask105_104_4777" style="mask-type:luminance" maskUnits="userSpaceOnUse" x="208" y="268" width="29" height="14">
<path d="M208.992 268.04H236.239V281.893H208.992V268.04Z" fill="white"/>
</mask>
<g mask="url(#mask105_104_4777)">
<mask id="mask106_104_4777" style="mask-type:luminance" maskUnits="userSpaceOnUse" x="209" y="268" width="28" height="14">
<path d="M236.16 274.993C236.16 278.791 232.386 281.869 227.731 281.869H217.471C212.816 281.869 209.043 278.791 209.043 274.993C209.043 271.194 212.816 268.115 217.471 268.115H227.731C232.386 268.115 236.16 271.194 236.16 274.993Z" fill="white"/>
</mask>
<g mask="url(#mask106_104_4777)">
<mask id="mask107_104_4777" style="mask-type:luminance" maskUnits="userSpaceOnUse" x="209" y="268" width="28" height="14">
<path d="M236.16 274.993C236.16 278.791 232.386 281.869 227.731 281.869H217.471C212.816 281.869 209.043 278.791 209.043 274.993C209.043 271.194 212.816 268.115 217.471 268.115H227.731C232.386 268.115 236.16 271.194 236.16 274.993Z" fill="white"/>
</mask>
<g mask="url(#mask107_104_4777)">
<path d="M200.621 274.731L222.086 292.924L244.581 275.253L223.115 257.06L200.621 274.731Z" fill="#FFC727"/>
</g>
</g>
</g>
<mask id="mask108_104_4777" style="mask-type:luminance" maskUnits="userSpaceOnUse" x="96" y="287" width="28" height="15">
<path d="M96.1709 287.172H123.418V301.025H96.1709V287.172Z" fill="white"/>
</mask>
<g mask="url(#mask108_104_4777)">
<mask id="mask109_104_4777" style="mask-type:luminance" maskUnits="userSpaceOnUse" x="96" y="287" width="28" height="14">
<path d="M114.868 300.964H104.609C99.9538 300.964 96.1805 297.885 96.1805 294.087C96.1805 290.289 99.9538 287.21 104.609 287.21H114.868C119.524 287.21 123.297 290.289 123.297 294.087C123.297 297.885 119.524 300.964 114.868 300.964Z" fill="white"/>
</mask>
<g mask="url(#mask109_104_4777)">
<rect x="96.06" y="287.104" width="27.3591" height="13.9563" fill="white"/>
</g>
</g>
<mask id="mask110_104_4777" style="mask-type:luminance" maskUnits="userSpaceOnUse" x="134" y="287" width="28" height="15">
<path d="M134.234 287.172H161.481V301.025H134.234V287.172Z" fill="white"/>
</mask>
<g mask="url(#mask110_104_4777)">
<mask id="mask111_104_4777" style="mask-type:luminance" maskUnits="userSpaceOnUse" x="134" y="287" width="28" height="14">
<path d="M152.978 300.964H142.718C138.063 300.964 134.29 297.885 134.29 294.087C134.29 290.289 138.063 287.21 142.718 287.21H152.978C157.633 287.21 161.406 290.289 161.406 294.087C161.406 297.885 157.633 300.964 152.978 300.964Z" fill="white"/>
</mask>
<g mask="url(#mask111_104_4777)">
<rect x="134.178" y="287.104" width="27.3591" height="13.9563" fill="white"/>
</g>
</g>
<mask id="mask112_104_4777" style="mask-type:luminance" maskUnits="userSpaceOnUse" x="170" y="287" width="29" height="14">
<path d="M170.928 287.144H198.175V300.997H170.928V287.144Z" fill="white"/>
</mask>
<g mask="url(#mask112_104_4777)">
<mask id="mask113_104_4777" style="mask-type:luminance" maskUnits="userSpaceOnUse" x="170" y="287" width="29" height="14">
<path d="M189.622 300.936H179.361C174.706 300.936 170.934 297.857 170.934 294.059C170.934 290.261 174.706 287.182 179.361 287.182H189.622C194.276 287.182 198.049 290.261 198.049 294.059C198.049 297.857 194.276 300.936 189.622 300.936Z" fill="white"/>
</mask>
<g mask="url(#mask113_104_4777)">
<rect x="170.859" y="287.076" width="27.2906" height="13.9563" fill="white"/>
</g>
</g>
<mask id="mask114_104_4777" style="mask-type:luminance" maskUnits="userSpaceOnUse" x="96" y="308" width="28" height="14">
<path d="M96.1709 308.036H123.418V321.89H96.1709V308.036Z" fill="white"/>
</mask>
<g mask="url(#mask114_104_4777)">
<mask id="mask115_104_4777" style="mask-type:luminance" maskUnits="userSpaceOnUse" x="96" y="308" width="28" height="14">
<path d="M114.868 321.866H104.609C99.9538 321.866 96.1805 318.787 96.1805 314.99C96.1805 311.191 99.9538 308.112 104.609 308.112H114.868C119.524 308.112 123.297 311.191 123.297 314.99C123.297 318.787 119.524 321.866 114.868 321.866Z" fill="white"/>
</mask>
<g mask="url(#mask115_104_4777)">
<rect x="96.06" y="308.046" width="27.3591" height="13.9004" fill="white"/>
</g>
</g>
<mask id="mask116_104_4777" style="mask-type:luminance" maskUnits="userSpaceOnUse" x="134" y="308" width="28" height="14">
<path d="M134.234 308.036H161.481V321.89H134.234V308.036Z" fill="white"/>
</mask>
<g mask="url(#mask116_104_4777)">
<mask id="mask117_104_4777" style="mask-type:luminance" maskUnits="userSpaceOnUse" x="134" y="308" width="28" height="14">
<path d="M152.978 321.866H142.718C138.063 321.866 134.29 318.787 134.29 314.99C134.29 311.191 138.063 308.112 142.718 308.112H152.978C157.633 308.112 161.406 311.191 161.406 314.99C161.406 318.787 157.633 321.866 152.978 321.866Z" fill="white"/>
</mask>
<g mask="url(#mask117_104_4777)">
<rect x="134.178" y="308.046" width="27.3591" height="13.9004" fill="white"/>
</g>
</g>
<mask id="mask118_104_4777" style="mask-type:luminance" maskUnits="userSpaceOnUse" x="170" y="308" width="29" height="14">
<path d="M170.928 308.036H198.175V321.89H170.928V308.036Z" fill="white"/>
</mask>
<g mask="url(#mask118_104_4777)">
<mask id="mask119_104_4777" style="mask-type:luminance" maskUnits="userSpaceOnUse" x="170" y="308" width="29" height="14">
<path d="M189.622 321.866H179.361C174.706 321.866 170.934 318.787 170.934 314.99C170.934 311.191 174.706 308.112 179.361 308.112H189.622C194.276 308.112 198.049 311.191 198.049 314.99C198.049 318.787 194.276 321.866 189.622 321.866Z" fill="white"/>
</mask>
<g mask="url(#mask119_104_4777)">
<rect x="170.859" y="308.046" width="27.2906" height="13.9004" fill="white"/>
</g>
</g>
<mask id="mask120_104_4777" style="mask-type:luminance" maskUnits="userSpaceOnUse" x="210" y="289" width="23" height="35">
<path d="M210.498 289.043H232.542V323.23H210.498V289.043Z" fill="white"/>
</mask>
<g mask="url(#mask120_104_4777)">
<mask id="mask121_104_4777" style="mask-type:luminance" maskUnits="userSpaceOnUse" x="210" y="289" width="23" height="35">
<path d="M232.495 314.427C232.495 319.234 227.718 323.132 221.826 323.132H221.176C215.285 323.132 210.509 319.234 210.509 314.427V297.751C210.509 292.943 215.285 289.046 221.176 289.046H221.826C227.718 289.046 232.495 292.943 232.495 297.751V314.427Z" fill="white"/>
</mask>
<g mask="url(#mask121_104_4777)">
<mask id="mask122_104_4777" style="mask-type:luminance" maskUnits="userSpaceOnUse" x="210" y="289" width="23" height="35">
<path d="M232.495 314.427C232.495 319.234 227.718 323.132 221.826 323.132H221.176C215.285 323.132 210.509 319.234 210.509 314.427V297.751C210.509 292.943 215.285 289.046 221.176 289.046H221.826C227.718 289.046 232.495 292.943 232.495 297.751V314.427Z" fill="white"/>
</mask>
<g mask="url(#mask122_104_4777)">
<path d="M190.999 312.175L225.427 331.511L252.005 300.004L217.577 280.667L190.999 312.175Z" fill="#FFC727"/>
</g>
</g>
</g>
<path d="M216.005 207.12H210.874C209.863 207.12 209.043 206.451 209.043 205.624C209.043 204.8 209.863 204.129 210.874 204.129H216.005C217.017 204.129 217.837 204.8 217.837 205.624C217.837 206.451 217.017 207.12 216.005 207.12Z" fill="#E4EDFE"/>
<path d="M216.005 227.452H210.874C209.863 227.452 209.043 226.783 209.043 225.956C209.043 225.131 209.863 224.462 210.874 224.462H216.005C217.017 224.462 217.837 225.131 217.837 225.956C217.837 226.783 217.017 227.452 216.005 227.452Z" fill="#E4EDFE"/>
<path d="M207.943 215.491C206.931 215.491 206.111 214.822 206.111 213.996V209.81C206.111 208.985 206.931 208.316 207.943 208.316C208.955 208.316 209.775 208.985 209.775 209.81V213.996C209.775 214.822 208.955 215.491 207.943 215.491Z" fill="#E4EDFE"/>
<path d="M207.943 223.864C206.931 223.864 206.111 223.195 206.111 222.369V218.182C206.111 217.357 206.931 216.688 207.943 216.688C208.955 216.688 209.775 217.357 209.775 218.182V222.369C209.775 223.195 208.955 223.864 207.943 223.864Z" fill="#E4EDFE"/>
<path d="M220.403 215.491C219.391 215.491 218.571 214.822 218.571 213.996V209.81C218.571 208.985 219.391 208.316 220.403 208.316C221.415 208.316 222.235 208.985 222.235 209.81V213.996C222.235 214.822 221.415 215.491 220.403 215.491Z" fill="#E4EDFE"/>
<path d="M220.403 223.864C219.391 223.864 218.571 223.195 218.571 222.369V218.182C218.571 217.357 219.391 216.688 220.403 216.688C221.415 216.688 222.235 217.357 222.235 218.182V222.369C222.235 223.195 221.415 223.864 220.403 223.864Z" fill="#E4EDFE"/>
<defs>
<linearGradient id="paint0_linear_104_4777" x1="446.673" y1="364.008" x2="189.675" y2="-27.1507" gradientUnits="userSpaceOnUse">
<stop stop-color="#DDE5FE"/>
<stop offset="0.0625" stop-color="#DDE6FE"/>
<stop offset="0.125" stop-color="#DEE7FE"/>
<stop offset="0.1875" stop-color="#DFE7FE"/>
<stop offset="0.25" stop-color="#E0E8FE"/>
<stop offset="0.3125" stop-color="#E1E9FE"/>
<stop offset="0.375" stop-color="#E2EAFD"/>
<stop offset="0.4375" stop-color="#E3EAFD"/>
<stop offset="0.5" stop-color="#E4EBFD"/>
<stop offset="0.5625" stop-color="#E5ECFD"/>
<stop offset="0.625" stop-color="#E6EDFD"/>
<stop offset="0.6875" stop-color="#E7EDFD"/>
<stop offset="0.75" stop-color="#E8EEFD"/>
<stop offset="1" stop-color="#E9EFFD"/>
</linearGradient>
<linearGradient id="paint1_linear_104_4777" x1="168.293" y1="302.741" x2="216.522" y2="340.29" gradientUnits="userSpaceOnUse">
<stop stop-color="#B53AC3"/>
<stop offset="0.03125" stop-color="#B53BC3"/>
<stop offset="0.0625" stop-color="#B63BC2"/>
<stop offset="0.09375" stop-color="#B63BC2"/>
<stop offset="0.125" stop-color="#B73BC1"/>
<stop offset="0.15625" stop-color="#B83BC0"/>
<stop offset="0.1875" stop-color="#B83BBF"/>
<stop offset="0.21875" stop-color="#B93BBF"/>
<stop offset="0.25" stop-color="#B93CBE"/>
<stop offset="0.28125" stop-color="#BA3CBD"/>
<stop offset="0.3125" stop-color="#BB3CBC"/>
<stop offset="0.34375" stop-color="#BB3CBC"/>
<stop offset="0.375" stop-color="#BC3CBB"/>
<stop offset="0.40625" stop-color="#BC3CBA"/>
<stop offset="0.4375" stop-color="#BD3CB9"/>
<stop offset="0.46875" stop-color="#BE3DB9"/>
<stop offset="0.5" stop-color="#BE3DB8"/>
<stop offset="0.53125" stop-color="#BF3DB7"/>
<stop offset="0.5625" stop-color="#BF3DB6"/>
<stop offset="0.59375" stop-color="#C03DB6"/>
<stop offset="0.625" stop-color="#C03DB5"/>
<stop offset="0.65625" stop-color="#C13EB4"/>
<stop offset="0.6875" stop-color="#C23EB3"/>
<stop offset="0.71875" stop-color="#C23EB3"/>
<stop offset="0.75" stop-color="#C33EB2"/>
<stop offset="0.78125" stop-color="#C33EB1"/>
<stop offset="0.8125" stop-color="#C43EB0"/>
<stop offset="0.84375" stop-color="#C53EB0"/>
<stop offset="0.875" stop-color="#C53FAF"/>
<stop offset="0.90625" stop-color="#C63FAE"/>
<stop offset="0.9375" stop-color="#C63FAD"/>
<stop offset="0.96875" stop-color="#C73FAD"/>
<stop offset="1" stop-color="#C83FAC"/>
</linearGradient>
<linearGradient id="paint2_linear_104_4777" x1="177.588" y1="275.792" x2="181.208" y2="278.611" gradientUnits="userSpaceOnUse">
<stop stop-color="#B23AC7"/>
<stop offset="0.5" stop-color="#B23AC7"/>
<stop offset="1" stop-color="#B33AC6"/>
</linearGradient>
</defs>
</svg>
