<svg xmlns="http://www.w3.org/2000/svg" width="575.403" height="472.645" viewBox="0 0 575.403 472.645"><defs><style>.a,.b{fill:#f06723;}.a,.d,.e,.f,.g,.i,.j,.l,.m,.p,.r,.s{fill-rule:evenodd;}.c{fill:#def7ff;}.d,.u{fill:#3a2222;}.e{fill:#563030;}.f{fill:#723f3f;}.g{fill:#935252;}.h{fill:#32a0be;}.i{fill:#e2e2e2;}.j{fill:#8c8c8c;}.k,.m{fill:#fff;}.l{fill:#212121;}.n,.r{fill:#f4fcff;}.o{fill:#d2d2d2;}.p,.q{fill:#62bec9;}.s{fill:#f4e100;}.t{fill:#080600;}.v{fill:#fc8448;}.w{fill:#b0b0b0;mix-blend-mode:multiply;isolation:isolate;}</style></defs><g transform="translate(-20.753 -70.737)"><g transform="translate(20.753 70.737)"><path class="a" d="M257.107,434.275H83.46a4.377,4.377,0,0,1-4.364-4.365h0a4.377,4.377,0,0,1,4.364-4.364H257.107a4.377,4.377,0,0,1,4.364,4.364h0A4.377,4.377,0,0,1,257.107,434.275Z" transform="translate(-5.876 19.734)"/><rect class="b" width="110.118" height="9.481" rx="3.642" transform="translate(161.273 463.164)"/><rect class="b" width="110.118" height="9.481" rx="3.642" transform="translate(452.262 364.955)"/><rect class="b" width="184.85" height="10.062" rx="3.642" transform="translate(291.542 386.289)"/><path class="a" d="M386,405.476h-87.57a4.377,4.377,0,0,1-4.364-4.364h0a4.377,4.377,0,0,1,4.364-4.364H386a4.377,4.377,0,0,1,4.365,4.364h0A4.377,4.377,0,0,1,386,405.476Z" transform="translate(48.936 12.391)"/><rect class="b" width="80.904" height="9.775" rx="3.642" transform="translate(26.846 367.19)"/><path class="c" d="M513.807,431.924H36.708a148.649,148.649,0,0,1,10.91-136.129,102.41,102.41,0,0,1-26.864-69.3c0-56.666,45.787-102.6,102.269-102.6A102.277,102.277,0,0,1,217,186C248.661,117.923,317.481,70.737,397.3,70.737c109.826,0,198.857,89.322,198.857,199.507A199.429,199.429,0,0,1,513.807,431.924Z" transform="translate(-20.753 -70.737)"/><ellipse class="b" cx="17.383" cy="16.598" rx="17.383" ry="16.598" transform="translate(143.367 17.611)"/></g><g transform="translate(123.371 107.379)"><g transform="translate(12.46)"><g transform="translate(0 151.18)"><path class="d" d="M193.439,237.565l11.016,151.519h6.22l1.4-154.614Z" transform="translate(-91.798 -216.81)"/><path class="e" d="M321.9,276.539l11.016,182.549h6.22l3.156-186.63Z" transform="translate(-59.043 -207.123)"/><path class="d" d="M382.558,237.535l6.133,151.8,6.217.2,6.375-154.489Z" transform="translate(-43.576 -216.664)"/><path class="e" d="M112.683,276.539,123.7,459.088h6.22l3.156-186.63Z" transform="translate(-112.39 -207.123)"/><path class="f" d="M469.939,242.1,387.253,290.71h-274.8V268.753l355.366-47.36Z" transform="translate(-112.449 -220.144)"/><path class="g" d="M211.653,220.4H469.939l-82.686,48.609h-274.8Z" transform="translate(-112.449 -220.398)"/><path class="e" d="M331.419,269.006v21.957l82.686-48.609V220.4Z" transform="translate(-56.616 -220.398)"/></g><g transform="translate(71.694)"><rect class="h" width="182.674" height="113.717" transform="translate(7.034 6.138)"/><path class="i" d="M227,242.867c7.49-5.258,15-12.609,12.764-29.515h27.224c-2.233,16.906,5.275,24.256,12.764,29.515Z" transform="translate(-154.934 -71.014)"/><path class="j" d="M237.437,222.264a40.215,40.215,0,0,0-.262-8.912H264.4a40.293,40.293,0,0,0-.262,8.912,82.723,82.723,0,0,0-26.7,0Z" transform="translate(-152.341 -71.014)"/><rect class="k" width="62.343" height="5.153" transform="translate(67.275 171.716)"/><path class="l" d="M180.222,214.6H355.052V109.988H180.222ZM365.7,224.657H169.577V110.029a10.1,10.1,0,0,1,10.1-10.1H355.6a10.1,10.1,0,0,1,10.094,10.1Z" transform="translate(-169.577 -99.934)"/><path class="m" d="M366,199.213v7.24a10.1,10.1,0,0,1-10.094,10.1H179.98a10.1,10.1,0,0,1-10.094-10.1v-7.24Z" transform="translate(-169.498 -74.619)"/><rect class="b" width="118.207" height="16.792" rx="4.675" transform="translate(60.8 81.88) rotate(-1.876)"/><g transform="translate(62.726 32.565)"><rect class="n" width="118.207" height="36.416" rx="4.054"/><path class="a" d="M231.78,133.4a4.53,4.53,0,1,1-4.529-4.53A4.53,4.53,0,0,1,231.78,133.4Z" transform="translate(-218.752 -125.12)"/><rect class="o" width="70.459" height="7.317" rx="2.662" transform="translate(16.293 4.179)"/><rect class="o" width="95.598" height="17.534" rx="5.677" transform="translate(16.149 14.549)"/></g><g transform="translate(14.708 13.987)"><rect class="n" width="167.146" height="14.096" rx="3.193"/><path class="p" d="M289.839,120.279H187.87a3.418,3.418,0,0,1-3.419-3.417h0a3.418,3.418,0,0,1,3.419-3.417h101.97a3.417,3.417,0,0,1,3.417,3.417h0A3.417,3.417,0,0,1,289.839,120.279Z" transform="translate(-180.493 -110.476)"/></g><g transform="translate(18.098 39.286)"><rect class="q" width="39.171" height="70.333" rx="3.704"/><path class="r" d="M195.131,138.3a4.508,4.508,0,1,1-4.508-4.508A4.508,4.508,0,0,1,195.131,138.3Z" transform="translate(-183.459 -130.586)"/><circle class="n" cx="4.508" cy="4.508" r="4.508" transform="translate(2.657 16.28)"/><path class="r" d="M195.131,159.134a4.508,4.508,0,1,1-4.508-4.508A4.508,4.508,0,0,1,195.131,159.134Z" transform="translate(-183.459 -125.274)"/><path class="r" d="M195.131,169.551a4.508,4.508,0,1,1-4.508-4.508A4.508,4.508,0,0,1,195.131,169.551Z" transform="translate(-183.459 -122.618)"/><circle class="n" cx="4.508" cy="4.508" r="4.508" transform="translate(2.657 55.497)"/><path class="r" d="M212.532,138.822H196.919a1.647,1.647,0,0,1-1.647-1.647h0a1.647,1.647,0,0,1,1.647-1.647h15.613a1.647,1.647,0,0,1,1.647,1.647h0A1.646,1.646,0,0,1,212.532,138.822Z" transform="translate(-181.124 -130.144)"/><path class="r" d="M212.415,149.65H196.8A1.646,1.646,0,0,1,195.156,148h0a1.646,1.646,0,0,1,1.647-1.645h15.612A1.646,1.646,0,0,1,214.061,148h0A1.646,1.646,0,0,1,212.415,149.65Z" transform="translate(-181.153 -127.383)"/><path class="r" d="M212.532,160.479H196.919a1.647,1.647,0,0,1-1.647-1.647h0a1.647,1.647,0,0,1,1.647-1.647h15.613a1.646,1.646,0,0,1,1.647,1.647h0A1.647,1.647,0,0,1,212.532,160.479Z" transform="translate(-181.124 -124.622)"/><path class="r" d="M212.532,170.473H196.919a1.647,1.647,0,0,1-1.647-1.647h0a1.647,1.647,0,0,1,1.647-1.647h15.613a1.646,1.646,0,0,1,1.647,1.647h0A1.646,1.646,0,0,1,212.532,170.473Z" transform="translate(-181.124 -122.073)"/><path class="r" d="M212.415,181.256H196.8a1.646,1.646,0,0,1-1.647-1.647h0a1.647,1.647,0,0,1,1.647-1.647h15.612a1.647,1.647,0,0,1,1.647,1.647h0A1.646,1.646,0,0,1,212.415,181.256Z" transform="translate(-181.153 -119.324)"/></g></g><g transform="translate(250.708 100.553)"><path class="n" d="M0,0H44.134a0,0,0,0,1,0,0V28.643A12.258,12.258,0,0,1,31.877,40.9H12.257A12.257,12.257,0,0,1,0,28.643V0A0,0,0,0,1,0,0Z" transform="translate(1.157 40.239)"/><ellipse class="h" cx="22.368" cy="4.851" rx="22.368" ry="4.851" transform="translate(0.865 35.902)"/><path class="s" d="M327.437,217.269c.737,2.73,1.495,5.483,2.333,8.21,1.069.025,2.177.039,3.322.034.35-1.679.766-3.346,1.1-4.986,1.846-9.114,3.151-18.178,2.686-27.51-.191-3.818-1.729-12.516-6.65-12.941-6.768-.582-6.906,13.228-6.665,17.338C323.954,204.148,325.688,210.78,327.437,217.269Z" transform="translate(-309.343 -180.057)"/><path class="a" d="M330.421,224.359c1.481.06,3.071.1,4.738.1-.446-2.568-.948-5.125-1.465-7.655-1.344-6.585-2.766-13.29-5.433-19.487-1.628-3.783-7.94-16.065-13.728-12.511-4.209,2.585-1.687,11.05-.146,14.549,3.767,8.55,9,16.068,14.732,23.388C329.542,223.285,329.979,223.822,330.421,224.359Z" transform="translate(-312.219 -179.008)"/><path class="a" d="M347.076,182.866c-6.108-2.968-11.186,9.874-12.434,13.8-2.046,6.429-2.8,13.243-3.494,19.927-.285,2.752-.556,5.532-.75,8.317,1.305.005,2.657-.013,4.036-.056.628-.939,1.259-1.867,1.85-2.8,4.99-7.847,9.456-15.843,12.365-24.722C349.838,193.7,351.518,185.027,347.076,182.866Z" transform="translate(-307.584 -179.453)"/></g></g><g transform="translate(0 43.848)"><path class="h" d="M184.157,305.167c-1.131,3.765,1.905,7.391,4.7,10.157l14.06,13.929a10.214,10.214,0,0,1,2.61,3.452c.92,2.44-.129,5.135-1.156,7.532A887.371,887.371,0,0,0,164.995,452.51l-.579-.034,7.743-.1c21.776-44.449,53.881-82.969,78.805-125.733,1.847-3.171,3.682-6.431,4.438-10.022s.282-7.623-2.092-10.423c-3.46-4.08-9.555-4.339-14.905-4.253q-26.968.429-53.917,1.639Z" transform="translate(-86.739 -92.274)"/><path class="t" d="M191.708,422.476c0,1.521-6.077,2.753-13.573,2.753s-13.573-1.232-13.573-2.753,6.077-2.752,13.573-2.752S191.708,420.956,191.708,422.476Z" transform="translate(-86.702 -62.24)"/><path class="j" d="M194.336,344.8a233.38,233.38,0,0,0-47.391,0H126.537l-.567,6.71c0,4.371,20,7.916,44.671,7.916s44.671-3.545,44.671-7.916l.566-6.71Z" transform="translate(-96.542 -81.654)"/><ellipse class="k" cx="44.671" cy="7.916" rx="44.671" ry="7.916" transform="translate(29.995 255.226)"/><path class="d" d="M154.935,355.657,116.186,441.95l10.353.657,38.886-86.263Z" transform="translate(-99.037 -78.576)"/><path class="d" d="M176.722,355.737l38.749,86.293-10.353.657-38.886-86.263Z" transform="translate(-86.276 -78.556)"/><rect class="u" width="66.297" height="11.504" transform="translate(39.886 311.582)"/><path class="q" d="M132.083,298.8c-2.387.066-1.96,15.571-1.777,17.236A42.693,42.693,0,0,0,142.754,341.2c10.765,10.465,26.136,15.208,41.146,15.587,16.006.405,33.842-3.442,45.383-15.259-4.74,8.277-6.851,17.369-9.223,26.5a159.866,159.866,0,0,0-4.783,29.722,163.419,163.419,0,0,0,7.625,59.892s2.122.3,2.713-.061C226.8,412.01,249.31,371.3,255.93,326.844a51.651,51.651,0,0,0,.6-11.166c-.393-5.693-2.775-8.2-8.464-8.465Q221.8,306,195.5,305.759l-.574-1.958q-.9-2.741-1.808-5.48Z" transform="translate(-95.475 -93.196)"/><path class="n" d="M171.573,152.155a11.714,11.714,0,0,1,9.385,5.73,26.013,26.013,0,0,1,3.469,11.069,49.687,49.687,0,0,1-.73,15.791c-1.1,5.258-3.5,10.822-8.376,13.067-4.433,2.041-9.924.654-13.614-2.54s-5.784-7.89-6.86-12.649a38.568,38.568,0,0,1-.725-12.562c.614-5.743,2.711-12.239,7.947-15.351A16.792,16.792,0,0,1,171.573,152.155Z" transform="translate(-89.42 -130.473)"/><path class="b" d="M141.8,206.412c-5.056,4.733-6.431,12.138-7.047,19.036-1.432,16.026-.262,32.185-1.345,48.24s-4.685,32.53-14.417,45.344l-.312-.191c24.814,10.06,57.443,17.238,82.332,7.364,0,0-14.569-38.562-2.776-63.575l.281-.543-24.458-26.2s4.969-20.528,8.1-30.571c.208-.665-16.263-6.185-24.153-4.858-4.751.8-9.879,1.8-13.115,5.366Z" transform="translate(-98.403 -118.202)"/><path class="v" d="M163.21,213.9a35.2,35.2,0,0,0-2.279,10.537c-.9,12.426,4.045,24.546,11.743,33.962,8.575,10.489,27.076,26.4,41.605,23.262,5.14-1.109,9.391-4.972,12.217-9.506s4.428-9.735,6-14.869q11.438-37.41,22.876-74.825a15.12,15.12,0,0,0,.843-5.37,1.436,1.436,0,0,0-2.713-.56c-14.5,28-42.567,82.437-42.949,81.84a375.509,375.509,0,0,0-25.5-35.083c-3.579-4.367-6.185-10.07-10.729-13.53-3.3-2.511-7.078-2.554-9.51,1.086A17.687,17.687,0,0,0,163.21,213.9Z" transform="translate(-87.654 -124.451)"/><path d="M141.7,162.616c-1.834-2.677-10.748-3.247-13.644-3.14a18.834,18.834,0,0,0-11.492,4.046A35.989,35.989,0,0,0,103.5,183.4c-2.186,9.01-.784,19.725,4.963,27.182,6.362,8.252,19.436,11.954,28.572,6.584,5.414,6.409,11.568,10.746,20.219,11.445,14.77,1.195,33.1-7.443,37.309-22.576,2.71-9.729-.483-23.792-11.045-27.487a1.778,1.778,0,0,0-2.138.638,36.942,36.942,0,0,0,11.793-25.553c.31-7.876-4.136-13.574-11.31-16.532-12.07-4.977-26.207-1.512-33.757,9.323-2.748,3.944-5.363,7.776-6.779,12.442A4.068,4.068,0,0,0,141.7,162.616Z" transform="translate(-102.521 -134.873)"/><path class="t" d="M230.885,426.523c0,1.521-6.077,2.753-13.573,2.753s-13.571-1.232-13.571-2.753,6.075-2.752,13.571-2.752S230.885,425,230.885,426.523Z" transform="translate(-76.712 -61.208)"/><path class="w" d="M195.251,305.543s-37.13,20.573-64.128-6.372c0,0,35.065,12.313,63.209,3.363Z" transform="translate(-95.228 -92.979)"/></g></g></g></svg>