<svg width="601" height="450" viewBox="0 0 601 450" fill="none" xmlns="http://www.w3.org/2000/svg">
<path d="M252.711 449.573C307.147 452.319 358.795 442.261 394.392 406.923C424.997 376.536 440.777 337.852 474.031 309.027C492.914 292.657 516.534 280.566 538.643 267.148C560.742 253.731 582.116 238.195 593.612 217.772C622.539 166.37 561.179 105.967 502.084 92.2352C452.211 80.6509 396.219 92.7417 348.645 75.9073C316.859 64.6583 293.553 42.0532 265.317 25.6754C228.828 4.51834 181.385 -6.06018 138.218 3.6053C95.0412 13.2779 58.8845 45.7839 58.561 82.3129C58.3862 102.478 68.4132 122.116 67.303 142.267C65.4409 176.271 36.9859 199.39 15.9615 225.997C-5.51747 253.167 -2.89489 295.688 9.58862 324.977C29.258 371.107 81.5786 401.966 133.121 422.959C170.327 438.117 211.161 447.475 252.711 449.573Z" fill="#C2E4F8"/>
<path d="M288.574 135.399V123.149C288.574 117.588 294.098 113.079 300.913 113.079H432.304C439.119 113.079 444.647 117.588 444.647 123.149V339.669H104.782V135.399H288.574Z" fill="white"/>
<path d="M287.482 135.399V123.149C287.482 117.588 293.004 113.079 299.821 113.079H431.212C438.027 113.079 443.555 117.588 443.555 123.149V339.669H103.689V135.399H287.482Z" fill="#263B76"/>
<path d="M432.171 143.861V339.669H117.334V142.899L432.171 143.861Z" fill="#BAE2FF"/>
<path d="M414.885 143.861V339.669H100.049V142.899L414.885 143.861Z" fill="#1480CC"/>
<path d="M87.3571 135.4H398.392C404.776 135.4 409.479 138.925 410.396 143.798V339.669H70.9318V148.768C70.8553 141.734 78.6345 135.4 87.3571 135.4Z" fill="white"/>
<path d="M201.446 208.111L383.235 208.527L383.622 95.7952L201.834 95.3801L201.446 208.111Z" fill="#EBF3FF"/>
<path d="M206.208 202.706L378.697 203.1L379.053 99.4639L206.563 99.0698L206.208 202.706Z" fill="#3B58A8"/>
<path d="M364.159 194.746L253.312 194.495L313.92 147.049L364.159 194.746Z" fill="#E3EEFF"/>
<path d="M313.755 194.632L220.618 194.42L271.157 155.208L313.755 194.632Z" fill="#E3EEFF"/>
<path d="M266.461 136.467C266.441 142.251 272.172 146.955 279.261 146.971C286.352 146.987 292.114 142.31 292.135 136.526C292.155 130.74 286.424 126.038 279.335 126.021C272.244 126.006 266.48 130.681 266.461 136.467Z" fill="#E3EEFF"/>
<path d="M177.27 194.608L345.802 195.049L346.199 75.4565L177.667 75.0156L177.27 194.608Z" fill="#EBF3FF"/>
<path d="M182.168 188.872L341.13 189.291L341.496 79.3491L182.533 78.9307L182.168 188.872Z" fill="#3B58A8"/>
<path d="M262.607 94.5261H325.916V99.0649H262.607V94.5261Z" fill="#CCE5FF"/>
<path d="M197.114 111.319H325.916V106.783H197.114V111.319Z" fill="#CCE5FF"/>
<path d="M197.114 123.799H325.916V119.26H197.114V123.799Z" fill="#CCE5FF"/>
<path d="M85.8611 135.4H396.895C403.28 135.4 407.98 138.925 408.898 143.798V340.372H69.4341V148.768C69.3576 141.734 77.1393 135.4 85.8611 135.4Z" fill="#5178BC"/>
<path d="M410.395 338.544H444.647V339.669H410.395V338.544Z" fill="white"/>
<path d="M443.556 218.827V218.246H444.647L443.556 218.827Z" fill="#7F7F7F"/>
<path d="M432.17 224.888V218.246H443.556V218.827L432.17 224.888Z" fill="#07224C"/>
<path d="M414.886 225.392V218.246H432.171V224.888H415.686L414.886 225.392Z" fill="#5D717F"/>
<path d="M410.395 228.21V218.246H414.885V225.392L410.395 228.21Z" fill="#0A4066"/>
<path d="M408.897 225.055H410.395V218.246H408.897V225.055Z" fill="#7F7F7F"/>
<path d="M70.9312 225.055H408.897V218.246H70.9312V225.055Z" fill="#335C7F"/>
<path d="M64.0161 221.285H449.469V185.747H64.0161V221.285Z" fill="#61B3F2"/>
<path d="M64.0161 221.285H414.77V185.747H64.0161V221.285Z" fill="#2E97E6"/>
<path d="M317.802 185.747V221.273H287.324L308.693 185.747H317.802Z" fill="#0E0E0E"/>
<path d="M314.935 209.33C313.42 208.94 312.239 206.521 312.239 203.476C312.239 200.512 313.42 198.092 314.935 197.701C316.452 198.092 317.631 200.512 317.631 203.476C317.631 206.521 316.452 208.94 314.935 209.33ZM307.27 203.476C307.27 208.393 308.322 212.842 310.092 216.043C311.818 219.322 314.22 221.273 316.871 221.273H324.966V185.759H316.871C311.564 185.759 307.27 193.72 307.27 203.476Z" fill="#2475B3"/>
<path d="M315.272 203.476C315.272 200.512 317.563 198.092 319.148 197.701C320.736 198.092 321.968 200.512 321.968 203.476C321.968 206.521 320.736 208.94 319.148 209.33C317.563 208.94 315.272 206.521 315.272 203.476ZM311.392 203.476C311.392 208.393 312.495 212.842 314.346 216.043C316.153 219.322 318.663 221.273 321.44 221.273H324.966V185.759H321.44C315.888 185.759 311.392 193.72 311.392 203.476Z" fill="#3F9EE6"/>
<path d="M318.811 209.33C317.295 208.94 316.117 206.521 316.117 203.476C316.117 200.512 317.295 198.092 318.811 197.701C320.328 198.092 321.506 200.512 321.506 203.476C321.506 206.521 320.328 208.94 318.811 209.33ZM311.146 203.476C311.146 208.393 312.199 212.842 313.967 216.043C315.693 219.322 318.095 221.273 320.747 221.273H328.841V185.759H320.747C315.442 185.759 311.146 193.72 311.146 203.476Z" fill="#2475B3"/>
<path d="M319.148 203.476C319.148 200.512 320.382 198.092 321.967 197.701C323.555 198.092 324.789 200.512 324.789 203.476C324.789 206.521 323.555 208.94 321.967 209.33C320.382 208.94 319.148 206.521 319.148 203.476ZM315.268 203.476C315.268 208.393 316.371 212.842 318.223 216.043C320.029 219.322 322.54 221.273 325.317 221.273H328.842V185.759H325.317C319.765 185.759 315.268 193.72 315.268 203.476Z" fill="#61B3F2"/>
<path d="M320.71 221.504C320.367 221.504 318.395 221.43 316.309 219.796C313.941 217.942 311.122 213.753 311.122 204.329C311.122 195.35 313.695 190.73 315.852 188.433C318.229 185.905 320.602 185.546 320.702 185.532C320.857 185.511 321.002 185.594 321.029 185.721C321.055 185.846 320.953 185.966 320.8 185.986C320.776 185.99 318.508 186.346 316.263 188.756C314.175 190.997 311.688 195.52 311.688 204.329C311.688 213.568 314.403 217.649 316.68 219.445C318.75 221.077 320.723 221.044 320.74 221.04C320.897 221.037 321.027 221.136 321.032 221.264C321.037 221.391 320.916 221.499 320.761 221.504C320.755 221.504 320.737 221.504 320.71 221.504Z" fill="#1A5380"/>
<path d="M321.966 208.855C322.348 208.933 322.633 209.011 323.016 209.09C322.921 209.168 322.921 209.168 323.016 209.168C338.416 212.913 349.798 224.464 349.798 238.278V267.947H362.042V238.278C362.042 219.08 345.495 203.001 323.4 198.943C322.921 198.787 322.442 198.708 321.966 198.632C318.425 198.007 318.137 208.388 321.966 208.855Z" fill="#E6E6E6"/>
<path d="M307.472 198.101V208.036C291.69 209.695 278.946 219.248 275.559 231.733C275.461 232.044 275.367 232.278 275.367 232.51C275.176 233.214 275.08 233.837 274.984 234.54C274.793 235.789 274.697 237.039 274.697 238.288V267.954H262.549V238.288C262.549 217.306 282.31 200.115 307.472 198.101Z" fill="#E6E6E6"/>
<path d="M321.682 205.925C350.392 210.033 354.087 235.537 354.087 235.537V267.954H349.781V238.288C349.781 224.18 337.929 212.389 321.974 208.877C320.754 208.554 319.995 205.64 319.995 205.64C319.995 205.64 320.748 205.779 321.682 205.925Z" fill="#999999"/>
<path d="M307.472 205.925V208.036C291.69 209.694 278.946 219.247 275.559 231.733C276.245 224.445 283.65 208.52 307.472 205.925Z" fill="#808080"/>
<path d="M321.966 208.855C322.348 208.933 322.633 209.011 323.016 209.09C322.727 208.465 321.172 207.046 320.98 204.08C320.789 201.036 322.057 198.977 323.4 198.943C322.921 198.787 322.442 198.708 321.966 198.632C318.425 198.007 318.137 208.388 321.966 208.855Z" fill="#666666"/>
<path d="M251.93 340.31V259.859H372.546V340.31H251.93Z" fill="#F7AF0C"/>
<path d="M314.053 279.732C313.67 279.652 313.287 279.652 312.904 279.652C304.68 279.652 297.983 285.088 297.983 291.865C297.983 296.828 301.618 301.083 306.785 303.054V323.775C306.785 326.532 309.557 328.817 312.904 328.817C313.192 328.817 313.574 328.817 313.861 328.739H314.147C316.921 328.265 319.028 326.218 319.028 323.775V303.054C324.19 301.161 327.826 296.828 327.826 291.865C327.826 285.404 321.8 280.204 314.053 279.732Z" fill="#CC840A"/>
<path d="M314.053 279.732C306.306 280.124 300.182 285.405 300.182 291.865C300.182 296.828 303.818 301.083 308.985 303.054V323.775C308.985 326.218 311.089 328.265 313.862 328.739H314.147C316.921 328.265 319.028 326.218 319.028 323.775V303.054C324.19 301.161 327.827 296.828 327.827 291.865C327.827 285.405 321.8 280.204 314.053 279.732Z" fill="#803D00"/>
<path d="M290.204 340.31H251.93V259.859H262.548C262.548 259.859 259.729 319.219 290.204 340.31Z" fill="#E6950B"/>
<path d="M346.651 340.31C355.793 324.35 354.088 281.441 354.088 259.859H366.236V340.31H346.651Z" fill="#F7E4AD"/>
<path d="M132.407 163.814C132.407 163.814 124.609 163.231 121.915 164.526C119.663 165.608 120.456 167.506 120.456 167.506C115.9 168.772 118.351 176.739 125.141 179.644C131.931 182.549 139.172 172.194 139.172 172.194C139.172 172.194 139.604 165.313 132.407 163.814Z" fill="#231F20"/>
<path d="M166.169 156.221C165.514 156.786 164.822 157.38 164.094 157.944C152.884 166.796 133.118 176.121 133.118 176.121L126.239 168.042C132.391 165.28 136.14 158.746 141.417 153.341C142.256 152.45 143.164 151.619 144.111 150.816C146.769 152.093 154.704 155.508 166.169 156.221Z" fill="#231F20"/>
<path d="M166.168 156.221C165.513 156.786 164.822 157.38 164.094 157.944C154.484 157.558 145.458 154.737 141.417 153.341C142.255 152.45 143.164 151.619 144.111 150.816C146.769 152.093 154.703 155.508 166.168 156.221Z" fill="#66B8FF"/>
<path d="M103.749 121.588C103.753 121.558 103.755 121.545 103.755 121.542L103.749 121.588Z" fill="#D9FFFF"/>
<path d="M103.749 121.588C103.753 121.558 103.755 121.545 103.755 121.542L103.749 121.588Z" fill="#D9FFFF"/>
<path d="M84.5089 119.336L84.5156 119.291C84.5156 119.293 84.5139 119.307 84.5089 119.336Z" fill="#D9FFFF"/>
<path d="M84.5089 119.336L84.5156 119.291C84.5156 119.293 84.5139 119.307 84.5089 119.336Z" fill="#D9FFFF"/>
<path d="M208.134 159.08C208.133 158.939 208.133 158.878 208.133 158.865C208.133 158.891 208.134 159.08 208.134 159.08Z" fill="#D9FFFF"/>
<path d="M208.134 159.08C208.133 158.939 208.133 158.878 208.133 158.865C208.133 158.891 208.134 159.08 208.134 159.08Z" fill="#D9FFFF"/>
<path d="M105.417 160.001C105.417 160.001 105.413 159.812 105.413 159.786C105.413 159.8 105.415 159.863 105.417 160.001Z" fill="#D9FFFF"/>
<path d="M105.417 160.001C105.417 160.001 105.413 159.812 105.413 159.786C105.413 159.8 105.415 159.863 105.417 160.001Z" fill="#D9FFFF"/>
<path d="M156.38 136.815C168.437 147.165 187.607 155.598 208.075 159.125C208.09 160.234 208.173 166.377 208.56 194.691C209.073 232.46 164.967 251.153 158.119 254.023C151.441 251.57 106.478 233.381 105.962 195.611C105.578 167.299 105.494 161.156 105.479 160.047C125.848 156.154 144.612 147.379 156.38 136.815Z" fill="white"/>
<path d="M156.559 143.64C168.352 152.311 184.647 159.09 202.536 162.736L202.972 194.736C203.17 209.38 196.116 222.664 182.002 234.224C172.729 241.82 162.953 246.552 157.988 248.684C157.774 248.595 157.54 248.498 157.308 248.401L156.457 143.715C156.491 143.691 156.527 143.667 156.559 143.64Z" fill="#007880"/>
<path d="M156.457 143.716L157.308 248.401C152.112 246.241 142.662 241.768 133.589 234.66C119.166 223.356 111.751 210.201 111.55 195.557L111.114 163.556C128.847 159.603 144.911 152.562 156.457 143.716Z" fill="#008F99"/>
<path d="M151.782 199.228C151.762 196.927 154.032 195.059 156.865 195.043C159.695 195.03 162.014 196.873 162.034 199.172C162.046 200.853 160.81 202.32 159.037 202.98L159.095 210.022C159.101 210.958 158.172 211.741 156.999 211.746C155.848 211.753 154.903 210.98 154.897 210.045L154.84 203.018C153.037 202.378 151.794 200.924 151.782 199.228ZM136.082 189.952L136.284 214.745C136.305 217.504 177.806 217.282 177.782 214.523L177.58 189.73L136.082 189.952Z" fill="white"/>
<path d="M139.7 188.166L143.901 188.143L143.888 186.475C143.841 180.689 149.598 175.953 156.718 175.915C163.839 175.876 169.672 180.552 169.718 186.336L169.731 188.004L173.932 187.983L173.919 186.313C173.857 178.647 166.128 172.452 156.689 172.503C147.253 172.553 139.626 178.832 139.688 186.497L139.7 188.166Z" fill="white"/>
</svg>
