<?xml version="1.0" encoding="utf-8" ?>
<svg xmlns="http://www.w3.org/2000/svg" xmlns:xlink="http://www.w3.org/1999/xlink" width="100" height="100">
	<path fill="#4461BE" transform="scale(0.195312 0.195312)" d="M189.096 358.401C183.891 358.879 177.569 358.402 172.249 358.399L100.232 358.41C87.6838 358.415 67.8423 361.087 66.2924 342.76C65.9091 338.227 66.1104 333.57 66.1149 329.019L66.1074 153.378C66.1042 124.899 73.9903 126.484 99.2844 126.493L286.268 126.479C289.39 126.447 292.624 126.126 295.722 126.498C300.882 129.775 298.235 133.135 292.277 133.403C284.659 133.747 276.912 133.48 269.281 133.477L92.9996 133.473C92.4952 139.096 93.0055 145.158 93.0036 150.828L92.9996 309.672C94.8045 309.684 96.6163 309.727 98.4202 309.672C109.627 307.912 121.472 311.236 132.638 309.045C131.413 308.967 128.857 309.285 127.982 308.413L128.153 308.093C135.259 308.574 141.183 308.597 148.379 308.667C156.117 308.742 163.755 309.632 171.475 309.008C179.489 308.361 193.344 308.564 201.976 308.924C203.609 308.992 222.689 309.533 222.881 309.672L368.216 309.672C368.215 302.582 367.629 252.743 368.658 250.003C369.764 248.736 372.414 248.255 373.722 249.478C375.7 251.328 374.793 258.36 374.796 261.01L374.819 333.002C374.815 355.24 370.017 358.476 348.514 358.419L252.474 358.401C255.742 370.018 260.474 383.716 264.586 395.019C274.181 395.947 295.729 390.233 298.063 404.247C298.493 406.832 298.589 419.592 298.21 422.157C297.058 429.956 279.988 426.941 273.52 426.942L155.331 426.905C150.473 426.913 142.063 428.839 141.748 421.642C140.398 390.838 152.089 394.974 176.21 395.019C180.067 382.69 185.574 370.792 189.096 358.401ZM153.101 401.841C148.881 407.26 148.594 413.169 148.996 419.867L254.875 419.867L291.471 419.867C291.452 414.816 291.393 409.76 291.471 404.709C287.693 400.182 279.748 401.817 274.374 401.824L185.736 401.841L164.025 401.855C160.39 401.868 156.724 402.172 153.101 401.841Z"/>
	<path fill="#D7DDEC" transform="scale(0.195312 0.195312)" d="M72.8702 309.672L72.8634 161.866C72.8588 141.782 68.4972 132.838 92.9996 133.473C92.4952 139.096 93.0055 145.158 93.0036 150.828L92.9996 309.672L72.8702 309.672Z"/>
	<path fill="#D7DDEC" transform="scale(0.195312 0.195312)" d="M98.4202 309.672C109.627 307.912 121.472 311.236 132.638 309.045C131.413 308.967 128.857 309.285 127.982 308.413L128.153 308.093C135.259 308.574 141.183 308.597 148.379 308.667C156.117 308.742 163.755 309.632 171.475 309.008C179.489 308.361 193.344 308.564 201.976 308.924C203.609 308.992 222.689 309.533 222.881 309.672L139.587 309.673C125.899 309.673 112.093 310.068 98.4202 309.672Z"/>
	<path fill="#48C3FC" transform="scale(0.195312 0.195312)" d="M72.8702 316.747C77.2043 316.751 89.4355 316.055 92.9996 316.747L368.216 316.747L368.249 331.841C368.277 349.977 366.86 351.711 348.978 351.68L110.376 351.637C107.922 351.63 105.233 351.338 102.811 351.656C99.5797 352.669 84.2973 351.713 80.7961 350.881C68.7207 348.009 72.9761 326.666 72.8702 316.747Z"/>
	<path fill="#5F83C5" transform="scale(0.195312 0.195312)" d="M72.8702 316.747C77.2043 316.751 89.4355 316.055 92.9996 316.747C92.9688 328.953 89.4391 345.629 102.811 351.656C99.5797 352.669 84.2973 351.713 80.7961 350.881C68.7207 348.009 72.9761 326.666 72.8702 316.747Z"/>
	<path fill="#4461BE" transform="scale(0.195312 0.195312)" d="M221.853 330.636C224.738 330.613 232.835 329.647 234.738 331.784C241.218 339.062 220.103 337.7 218.489 337.693C216.967 337.699 199.98 338.826 205.867 332.118C207.974 329.716 218.526 330.615 221.853 330.636Z"/>
	<path fill="#5F83C5" transform="scale(0.195312 0.195312)" d="M196.707 359.012L245.693 359.012C246.69 362.801 248.173 366.523 249.332 370.278C252.323 378.426 255.076 386.659 257.41 395.019L198.103 395.019C193.181 395.052 188.24 394.855 183.322 395.019C188.087 383.948 192.469 370.539 196.707 359.012Z"/>
	<path fill="#5D71AC" transform="scale(0.195312 0.195312)" d="M196.707 359.012L245.693 359.012C246.69 362.801 248.173 366.523 249.332 370.278C240.396 369.754 221.022 369.614 213.055 370.89C204.263 372.299 197.53 389.266 198.103 395.019C193.181 395.052 188.24 394.855 183.322 395.019C188.087 383.948 192.469 370.539 196.707 359.012Z"/>
	<path fill="#4461BE" transform="scale(0.195312 0.195312)" d="M377.515 79.5762C382.19 78.9301 385.834 81.9924 389.835 83.9458C399.359 88.5965 410.678 91.0727 421.114 92.1864C426.283 92.7381 442.927 91.1034 444.803 96.5755C446.102 100.364 445.566 156.094 445.31 164.191C444.231 198.301 409.916 227.886 379.213 238.09C377.381 238.474 375.558 237.485 373.898 236.774C355.512 228.894 339.099 218.794 326.416 203.229C312.974 186.732 311.517 174.492 311.51 154.646L311.504 111.206C311.489 104.198 308.9 92.7937 318.375 92.7106C333.581 92.5774 348.522 91.8921 362.859 86.2583C367.873 84.2879 372.505 81.4371 377.515 79.5762Z"/>
	<path fill="#48C3FC" transform="scale(0.195312 0.195312)" d="M379.213 86.5039C381.183 86.1105 384.633 88.6609 386.412 89.4961C403.089 97.3259 420.227 99.6309 438.606 99.5913L438.609 144.818C438.617 153.067 439.334 164.157 437.884 172.069C433.205 197.6 411.151 214.488 389.575 226.085C386.331 227.829 382.163 230.473 378.547 231.196C354.226 222.166 326.326 202.386 319.654 176.399C317.3 167.229 318.229 152.534 318.229 142.659L318.22 99.2411C333.961 99.2803 348.558 98.4111 363.557 93.058C368.72 91.2154 373.536 88.1971 378.749 86.6402L379.213 86.5039Z"/>
	<path fill="#4461BE" transform="scale(0.195312 0.195312)" d="M379.213 99.5913C381.521 100.003 383.933 101.65 386.112 102.56C394.196 105.94 403.48 108.432 412.12 109.497C417.511 110.161 423.685 108.867 427.333 113.751L427.323 149.082C427.336 155.825 427.946 163.329 427.068 169.956C424.43 189.877 397.263 212.619 378.547 218.975C377.458 218.816 376.476 218.303 375.486 217.843C358.402 209.906 338.715 196.166 332.071 177.897C329.644 171.222 329.982 164.328 329.99 157.349L329.984 124.747C329.925 113.864 328.073 109.763 340.663 109.385C357.537 108.879 365.055 103.942 379.213 99.5913Z"/>
	<path fill="#D7DDEC" transform="scale(0.195312 0.195312)" d="M379.213 106.483C379.51 106.487 389.661 111.12 391.854 111.819C401.582 114.922 411.008 116.408 421.172 117.068L421.176 144.817C421.184 161.427 423.279 171.684 412.755 185.46C403.728 197.276 391.546 204.743 378.547 211.491C377.432 211.45 375.229 209.949 374.185 209.391C338.898 190.542 336.723 181.221 336.722 145.608L336.728 116.21C351.047 116.484 366.231 112.274 379.213 106.483Z"/>
	<path fill="#19CEC1" transform="scale(0.195312 0.195312)" d="M407.049 131.25C421.863 132.557 396.693 152.07 393.982 154.76L379.992 168.748C377.936 170.782 372.883 177.06 369.775 177.241C368.049 177.341 355.487 163.778 353.324 161.668C351.341 159.744 346.629 156.911 349.035 153.705C353.096 148.294 357.192 153.991 360.071 156.981C363.371 160.409 366.681 164.007 370.227 167.175L370.445 167.366C372.92 164.281 375.805 161.551 378.594 158.754L390.243 147.108C394.186 143.179 402.283 133.133 407.049 131.25Z"/>
	<path fill="#FED36B" transform="scale(0.195312 0.195312)" d="M172.949 167.366C187.904 159.024 221.484 159.351 236.988 164.884C238.378 165.949 239.996 166.462 241.509 167.301C257.828 176.348 269.98 194.156 272.925 212.431C276.817 236.576 266.014 258.056 247.444 272.7C245.759 274.029 243.784 275.341 242.29 276.869C224.63 281.936 193.695 284.914 176.21 276.869C174.722 275.653 172.898 274.677 171.339 273.512C153.332 260.058 142.292 236.934 144.465 214.443C146.634 191.983 156.874 180.516 172.949 167.366Z"/>
	<path fill="#48C3FC" transform="scale(0.195312 0.195312)" d="M208.366 183.529C214.085 181.336 226.707 186.795 231.437 190.123C260.309 210.44 250.118 252.181 212.991 258.535C155.526 256.01 162.274 184.469 208.366 183.529Z"/>
	<path fill="#4461BE" transform="scale(0.195312 0.195312)" d="M206.926 195.601C238.401 190.742 249.328 240.472 212.991 246.235C177.107 247.847 173.97 199.211 206.926 195.601Z"/>
	<path fill="#D7DDEC" transform="scale(0.195312 0.195312)" d="M198.103 201.571C206.924 202.068 208.006 212.087 199.853 214.471C191.293 215.543 189.82 203.545 198.103 201.571Z"/>
	<path fill="#4461BE" transform="scale(0.195312 0.195312)" d="M193.293 287.749C183.589 288.754 185.864 287.06 179.912 285.915C178.845 285.71 177.493 286.433 176.565 285.886L177.142 285.445C176.115 284.692 172.845 283.906 171.545 283.816L171.147 284.104L171.148 284.101C171.54 284.193 171.922 284.269 172.321 284.329L172.719 284.386C171.537 284.801 169.377 284.609 168.502 283.719L168.58 283.13L168.594 283.284L168.822 282.997C166.001 282.859 160.104 280.435 159.396 280.689C158.676 282.253 151.634 278.398 151.305 278.059C150.728 277.465 150.169 276.861 149.34 276.652C150.977 276.398 152.806 278.191 154.004 277.773C150.93 274.879 137.41 273.141 135.264 268.89L135.775 268.385C133.564 267.653 128.374 266.205 129.772 262.99L130.368 262.892C131.995 260.473 131.562 262.283 132.668 263.407C134.417 265.185 143.459 271 146.752 270.623L147.073 270.331C146.294 260.064 157.33 269.103 160.943 270.812C165.416 272.928 171.437 275.837 176.21 276.869C193.695 284.914 224.63 281.936 242.29 276.869C248.22 275.097 254.275 272.902 259.885 270.269C262.878 268.864 272.931 261.599 274.623 267.35C275.45 270.162 271.648 271.769 269.748 272.845C244.291 287.26 221.52 290.147 193.293 287.749Z"/>
	<path fill="#D7DDEC" transform="scale(0.195312 0.195312)" d="M193.293 287.749C183.589 288.754 185.864 287.06 179.912 285.915C178.845 285.71 177.493 286.433 176.565 285.886L177.142 285.445C176.115 284.692 172.845 283.906 171.545 283.816L171.147 284.104L171.148 284.101C171.54 284.193 171.922 284.269 172.321 284.329L172.719 284.386C171.537 284.801 169.377 284.609 168.502 283.719L168.58 283.13L168.594 283.284L168.822 282.997C166.001 282.859 160.104 280.435 159.396 280.689C158.676 282.253 151.634 278.398 151.305 278.059C150.728 277.465 150.169 276.861 149.34 276.652C150.977 276.398 152.806 278.191 154.004 277.773C150.93 274.879 137.41 273.141 135.264 268.89L135.775 268.385C133.564 267.653 128.374 266.205 129.772 262.99L130.368 262.892C131.995 260.473 131.562 262.283 132.668 263.407C134.417 265.185 143.459 271 146.752 270.623L147.073 270.331C153.952 279.499 180.99 284.688 193.293 287.749Z"/>
	<path fill="#4461BE" transform="scale(0.195312 0.195312)" d="M172.949 167.366C169.203 168.466 165.371 170.301 161.873 172.035C158.09 173.91 150.504 180.714 147.373 177.787C142.967 173.669 153.881 168.534 156.374 167.143C190.187 148.283 230.367 150.179 263.994 168.275C266.946 169.864 273.913 172.334 273.414 176.705C272.716 182.816 261.788 174.775 259.757 173.701C252.61 169.922 244.848 166.8 236.988 164.884C221.484 159.351 187.904 159.024 172.949 167.366Z"/>
	<path fill="#4461BE" transform="scale(0.195312 0.195312)" d="M134.822 185.741C142.659 188.332 131.499 196.495 129.091 198.798L113.289 213.86C110.326 216.707 107.203 219.475 104.557 222.622C111.644 227.56 122.137 238.357 128.814 244.508C131.632 247.104 144.649 256.478 134.822 258.535C129.606 256.376 121.576 247.175 117.13 243.055C113.146 239.364 94.5511 225.528 97.6428 220.273C99.1402 217.729 130.312 187.019 134.822 185.741Z"/>
	<path fill="#4461BE" transform="scale(0.195312 0.195312)" d="M285.133 184.763C292.851 186.606 317.076 216.386 320.064 222.622C317.128 228.644 292.033 255.626 286.058 258.535C282.442 259.152 280.493 255.477 282.932 252.646C285.302 249.896 289.119 247.264 291.813 244.587C298.951 237.494 305.652 230.129 312.341 222.622C303.462 212.266 297.489 204.078 287.004 194.514C283.549 191.362 278.495 187.477 285.133 184.763Z"/>
	<path fill="#48C3FC" transform="scale(0.195312 0.195312)" d="M372.117 377.881C374.35 376.335 378.131 371.073 380.993 371.469C389.371 372.625 378.546 381.5 376.695 383.036C380.153 385.705 387.348 391.075 381.941 395.019C378.032 395.993 374.497 390.526 372.117 388.055C368.893 391.05 363.236 399.529 360.767 390.763L360.872 390.581C362.516 387.69 364.991 385.395 367.298 383.036C363.801 380.004 357.972 374.718 363.481 370.823C367.511 371.415 369.33 375.423 372.117 377.881Z"/>
	<path fill="#FFB076" transform="scale(0.195312 0.195312)" d="M410.996 295.513C413.455 295.96 417.021 300.588 418.757 302.392C420.308 300.185 423.408 296.283 426.244 295.987C435.143 295.06 425.51 305.379 423.831 307.056C426.497 310.035 434.39 316.698 426.372 318.828C423.205 317.151 421.01 314.403 418.757 311.687C416.18 314.027 412.364 321.162 408.346 317.72C404.348 314.293 411.079 309.29 413.335 307.056C409.992 304.261 402.952 297.573 410.996 295.513Z"/>
	<path fill="#FFB076" transform="scale(0.195312 0.195312)" d="M190.214 81.7435C194.209 81.5973 196.646 85.6758 199.209 88.1419C201.441 85.171 203.505 83.2811 206.926 81.7435C214.74 83.9903 207.397 89.7979 204.435 92.7499C207.354 96.1808 212.943 99.574 208.366 104.01C204.378 104.167 201.707 100.139 199.209 97.5548C197.87 98.9069 188.318 109.023 188.089 100.764C188.015 98.1036 192.433 94.5265 194.193 92.7499C191.781 89.9745 184.731 85.2888 190.214 81.7435Z"/>
	<path fill="#ABE5FA" transform="scale(0.195312 0.195312)" d="M435.685 243.831C448.884 242.677 451.534 259.826 439.665 263.251C426.385 264.843 422.56 246.851 435.685 243.831Z"/>
	<path fill="#ABE5FA" transform="scale(0.195312 0.195312)" d="M123.976 83.3112C136.672 82.6387 139.292 99.5794 126.759 102.79C113.424 104.044 110.866 86.1654 123.976 83.3112Z"/>
	<path fill="#B8EDDC" transform="scale(0.195312 0.195312)" d="M96.8508 383.036C107.555 384.834 109.747 397.188 99.194 399.748C86.9475 400.344 86.408 385.864 96.8508 383.036Z"/>
	<path fill="#ABE5FA" transform="scale(0.195312 0.195312)" d="M273.418 70.0978C284.256 70.4733 284.24 84.1983 274.6 86.5039C263.24 86.6259 262.492 71.1145 273.418 70.0978Z"/>
</svg>
