<?xml version="1.0" encoding="utf-8" ?>
<svg xmlns="http://www.w3.org/2000/svg" xmlns:xlink="http://www.w3.org/1999/xlink" width="100" height="100">
	<path fill="#168DDF" transform="matrix(0.195312 0 0 0.195312 0.00012207 3.05176e-05)" d="M303.593 194.066L326.938 194.066C324.861 203.358 322.13 212.602 319.726 221.818L300.823 295.564C299.66 300.115 299.014 307.464 296.021 311.17C292.317 313.695 281.978 312.591 277.558 312.347C271.216 308.168 275.731 299.9 277.219 294.121L303.593 194.066Z"/>
	<path fill="#2D406C" transform="matrix(0.195312 0 0 0.195312 0.00012207 3.05176e-05)" d="M330.915 194.066L363.372 194.06C372.694 194.038 387.124 191.245 387.665 205.348C387.892 211.272 373.928 239.422 371.137 245.991L351.832 290.885C349.18 296.985 346.716 306.356 342.116 311.17L339.137 312.43C330.098 316.315 318.652 309.219 321.205 298.834C322.505 293.548 326.539 286.068 328.785 280.812C338.069 259.08 348.44 237.466 357.95 215.717L325.401 215.717C326.823 208.47 329.145 201.25 330.915 194.066Z"/>
	<path fill="#2D406C" transform="matrix(0.195312 0 0 0.195312 0.00012207 3.05176e-05)" d="M247.361 194.066C266.745 190.442 263.248 213.344 263.25 224.794L263.244 266.748C276.831 264.67 280.775 287.172 263.244 286.113C263.239 291.913 263.569 297.802 263.418 303.585C263.137 314.378 237.994 320.004 239.242 299.523L239.242 286.113L217.733 286.126C210.916 286.127 199.927 287.873 197.887 278.983C195.714 269.514 198.422 265.9 203.024 258.508L230.964 213.16C235.293 206.148 239.066 195.811 247.361 194.066ZM239.242 236.153C235.734 240.352 221.081 264.624 220.616 266.523L220.99 266.748L239.242 266.748C239.241 263.821 239.471 236.499 239.242 236.153Z"/>
	<path fill="#2D406C" transform="matrix(0.195312 0 0 0.195312 0.00012207 3.05176e-05)" d="M157.081 193.25C179.904 192.118 198.953 203.672 198.798 228.263C198.624 255.9 171.538 265.373 155.985 280.997C145.85 291.178 152.215 290.514 159.66 290.511L179.218 290.508C184.038 290.51 190.831 289.43 194.771 292.967C200.555 298.159 199.04 310.493 190.729 312.095C186.437 312.922 178.864 312.343 174.259 312.338L139.312 312.347C133.044 312.407 127.331 311.127 126.143 304.003C119.299 262.985 149.621 268.279 168.501 241.8C183.07 221.368 163.88 205.985 153.786 216.525C148.119 222.443 153.076 231.077 148.785 237.483C145.173 242.876 135.833 243.174 130.949 239.553C121.516 232.558 127.131 214.215 132.778 206.703C138.864 198.609 147.273 194.665 157.081 193.25Z"/>
	<path fill="#168DDF" transform="matrix(0.195312 0 0 0.195312 0.00012207 3.05176e-05)" d="M343.113 132.488L157.735 132.482C148.471 132.481 133.537 131.179 124.792 134.075C107.036 139.954 103.247 154.923 103.245 171.119L103.272 226.726C103.275 233.135 104.558 242.183 99.6646 247.079C91.7724 254.976 79.7805 248.307 79.73 236.976L79.7632 169.109C79.7621 163.095 79.4939 157.171 80.8261 151.258C85.4973 130.527 102.462 114.057 123.315 109.92C130.949 108.406 139.528 109.14 147.307 109.145L325.401 109.141C322.801 109.679 312.599 109.835 309.532 109.857L291.821 109.876C284.955 109.906 264.117 108.888 258.296 110.331L258.241 110.543L259.13 111.187L259.189 111.642C258.356 112.479 256.628 112.315 256.393 112.673C257.34 113.305 258.746 113.937 259.247 114.952L259.076 115.356L257.989 115.702C257.869 116.477 258.581 117.522 258.933 118.249L259.09 118.258L259.313 117.363L259.558 117.226C260.19 118.243 258.965 123.553 260.071 121.858C260.332 122.183 263.186 127.459 263.722 128.4C263.07 133.634 286.395 131.897 290.43 131.896C304.488 131.893 330.05 130.114 343.113 132.488Z"/>
	<path fill="#2D406C" transform="matrix(0.195312 0 0 0.195312 0.00012207 3.05176e-05)" d="M325.401 109.141L364.615 109.133C373.306 109.131 384.026 108.281 392.393 110.256C411.454 114.756 427.671 130.189 431.601 149.615C433.344 158.233 432.739 167.684 432.739 176.455L432.737 340.782C432.679 368.059 414.654 391.29 387.5 396.072C378.436 397.668 366.649 396.945 357.352 396.939L133.882 396.924C119.116 396.793 105.794 392.293 95.1656 381.476C77.9579 363.964 79.7551 347.125 79.7847 324.636C79.7992 313.665 79.6277 302.681 79.7444 291.712C79.8751 279.415 93.297 274.707 100.286 282.609C104.402 287.264 103.308 294.439 103.282 300.194L103.254 328.259C103.214 366.249 109.2 374.051 147.014 374.058L365.426 374.052C371.178 374.061 377.025 374.247 382.749 373.594C405.175 371.034 408.804 353.095 408.99 334.997L409.023 186.586C409.03 177.272 409.777 166.972 408.524 157.732C404.188 125.773 365.737 133.04 343.113 132.488C330.05 130.114 304.488 131.893 290.43 131.896C286.395 131.897 263.07 133.634 263.722 128.4C263.186 127.459 260.332 122.183 260.071 121.858C258.965 123.553 260.19 118.243 259.558 117.226L259.313 117.363L259.09 118.258L258.933 118.249C258.581 117.522 257.869 116.477 257.989 115.702L259.076 115.356L259.247 114.952C258.746 113.937 257.34 113.305 256.393 112.673C256.628 112.315 258.356 112.479 259.189 111.642L259.13 111.187L258.241 110.543L258.296 110.331C264.117 108.888 284.955 109.906 291.821 109.876L309.532 109.857C312.599 109.835 322.801 109.679 325.401 109.141Z"/>
</svg>
