<?xml version="1.0" encoding="utf-8" ?>
<svg xmlns="http://www.w3.org/2000/svg" xmlns:xlink="http://www.w3.org/1999/xlink" width="100" height="100">
	<path fill="#49638C" transform="scale(0.195312 0.195312)" d="M375.525 175.853L400.055 175.832C428.235 175.817 423.712 181.122 423.664 204.958L423.663 371.436L423.663 392.433L400.77 392.433C400.838 391.15 400.825 389.904 400.77 388.622L400.77 348.856C400.612 343.408 400.767 337.909 400.767 332.456L400.77 199.224L375.525 199.224L375.555 184.449C375.582 181.634 375.835 178.641 375.525 175.853Z"/>
	<path fill="#29416D" transform="scale(0.195312 0.195312)" d="M423.663 336.391C423.609 338.637 423.299 370.824 423.663 371.436L423.663 392.433L400.77 392.433C400.838 391.15 400.825 389.904 400.77 388.622L400.77 348.856C400.842 348.019 400.802 346.884 401.269 346.183C408.876 343.308 416.025 339.02 423.663 336.391Z"/>
	<path fill="#29416D" transform="scale(0.195312 0.195312)" d="M88.6149 392.433C88.8899 386.785 88.6247 381 88.6188 375.34L88.6146 203.836C88.5923 181.883 84.3293 176.288 110.159 176.274L138.001 176.283L138.001 176.283C137.846 183.414 138.017 190.566 138.001 197.7L127.905 197.7L127.905 392.433L208.18 392.422C211.352 392.421 214.594 392.28 217.759 392.433L294.203 392.433L400.77 392.433C400.749 391.163 400.767 389.892 400.77 388.622C400.825 389.904 400.838 391.15 400.77 392.433L423.663 392.433C431.004 392.417 443.489 389.098 443.129 399.365C442.69 411.889 437.47 423.336 427.18 430.641C414.057 439.258 402.8 438.285 388.011 438.272L119.524 438.27C114.208 438.283 108.618 438.661 103.343 438.063C83.884 435.859 71.3854 418.949 69.8745 400.219C68.9729 389.041 80.0024 392.556 88.6149 392.433Z"/>
	<path fill="#286AD9" transform="scale(0.195312 0.195312)" d="M111.556 392.433L111.551 228.126C111.552 220.763 111.202 213.22 111.704 205.885C112.386 195.933 120.157 197.964 127.905 197.7L127.905 392.433C123.604 391.879 116.11 392.398 111.556 392.433Z"/>
	<path fill="#49638C" transform="scale(0.195312 0.195312)" d="M400.77 388.622C400.825 389.904 400.838 391.15 400.77 392.433L423.663 392.433C431.004 392.417 443.489 389.098 443.129 399.365C442.69 411.889 437.47 423.336 427.18 430.641C423.134 425.152 405.926 424.414 398.931 424.435L115.717 424.638C103.057 424.651 96.4582 402.787 96.5337 392.433C101.54 392.448 106.549 392.489 111.556 392.433C116.11 392.398 123.604 391.879 127.905 392.433L208.18 392.422C211.352 392.421 214.594 392.28 217.759 392.433L294.203 392.433L400.77 392.433C400.749 391.163 400.767 389.892 400.77 388.622Z"/>
	<path fill="#B3C8EC" transform="scale(0.195312 0.195312)" d="M217.759 392.433L294.203 392.433C294.334 402.457 289.148 407.277 279.262 407.382C268.483 407.497 257.69 407.392 246.91 407.39C233.477 407.388 219.824 410.346 217.759 392.433Z"/>
	<path fill="#E7EDF3" transform="scale(0.195312 0.195312)" d="M180.537 71.5316C188.788 70.5072 204.333 71.5366 213.192 71.5345L315.094 71.5445C319.135 71.5546 323.262 71.8484 327.287 71.5316C330.819 75.2719 374.271 118.658 374.715 120.136C374.129 124.621 375.283 129.394 375.46 133.873C375.851 143.776 375.844 156.076 375.461 165.817C375.372 168.066 374.168 173.917 375.525 175.853C375.835 178.641 375.582 181.634 375.555 184.449L375.525 199.224L400.77 199.224L400.767 332.456C400.767 337.909 400.612 343.408 400.77 348.856L400.77 388.622C400.767 389.892 400.749 391.163 400.77 392.433L294.203 392.433L217.759 392.433C214.594 392.28 211.352 392.421 208.18 392.422L127.905 392.433L127.905 197.7L138.001 197.7C138.017 190.566 137.846 183.414 138.001 176.283L138.001 176.283L137.861 104.649C137.824 95.5769 139.5 87.1153 146.152 80.5001C156.96 69.7518 166.656 71.4963 180.537 71.5316Z"/>
	<path fill="#B3C8EC" transform="scale(0.195312 0.195312)" d="M229.251 299.51C233.341 299.247 237.592 299.494 241.698 299.496L267.357 299.51C266.238 303.52 265.724 307.474 265.504 311.625C257.945 311.5 250.364 311.635 242.802 311.633C237.344 311.632 222.678 313.527 225.495 303.657C226.14 301.4 227.302 300.563 229.251 299.51Z"/>
	<path fill="#B3C8EC" transform="scale(0.195312 0.195312)" d="M268.835 332.247L242.673 332.263C238.628 332.264 234.005 332.686 230.014 332.105C224.251 331.266 223.735 321.253 229.749 320.464C233.368 319.989 237.477 320.404 241.148 320.408L265.504 320.421C266.515 324.361 267.394 328.441 268.835 332.247Z"/>
	<path fill="#B3C8EC" transform="scale(0.195312 0.195312)" d="M229.251 290.572C224.847 287.914 223.205 279.677 229.374 278.865C234.837 278.145 240.79 278.604 246.319 278.606L280.16 278.613C277.801 281.246 272.344 289.661 271.238 290.572L229.251 290.572Z"/>
	<path fill="#B3C8EC" transform="scale(0.195312 0.195312)" d="M252.783 103.016C255.378 102.857 258.054 102.997 260.658 103L276.29 103.016C282.92 103.022 291.087 102.548 297.556 103.116C306.244 103.878 304.98 113.802 299.47 114.986C285.396 115.481 267.591 115.569 253.567 114.974C246.512 114.674 246.277 104.743 252.783 103.016Z"/>
	<path fill="#B3C8EC" transform="scale(0.195312 0.195312)" d="M252.783 123.495C266.229 122.898 284.365 122.908 297.915 123.462C305.884 123.788 306.144 133.092 299.47 135.529C294.096 135.718 288.655 135.54 283.273 135.538L251.624 135.529C246.531 131.848 246.786 125.629 252.783 123.495Z"/>
	<path fill="#FDC33D" transform="scale(0.195312 0.195312)" d="M175.536 280.427L193.637 280.405C210.093 280.389 208.375 281.001 208.272 295.393L208.258 314.466C187.924 314.515 175.465 317.76 175.505 291.406L175.536 280.427Z"/>
	<path fill="#3DA2F4" transform="scale(0.195312 0.195312)" d="M327.287 71.5316C330.819 75.2719 374.271 118.658 374.715 120.136C369.669 120.782 363.935 120.122 358.816 120.122C346.375 120.122 332.353 121.68 328.087 105.706C326.246 98.8111 327.4 79.736 327.287 71.5316Z"/>
	<path fill="#FDC33D" transform="scale(0.195312 0.195312)" d="M175.536 197.7L193.801 197.679C209.919 197.677 208.237 197.839 208.24 212.07L208.258 233.99L198.51 234.001C170.953 233.961 176.494 218.686 175.536 197.7Z"/>
	<path fill="#B3C8EC" transform="scale(0.195312 0.195312)" d="M254.351 144.103C260.52 143.951 266.73 144.099 272.903 144.099L333.573 144.101C337.403 144.101 341.397 143.853 345.208 144.112C353.486 144.676 354.238 154.803 346.312 156.009C340.269 156.258 334.124 156.016 328.068 156.015L265.74 156.007C261.735 156.002 257.452 156.304 253.485 155.949C245.818 155.264 246.284 144.552 254.351 144.103Z"/>
	<path fill="#FA9C28" transform="scale(0.195312 0.195312)" d="M160.519 281.887C163.563 279.321 171.534 280.435 175.536 280.427L175.505 291.406C175.465 317.76 187.924 314.515 208.258 314.466C208.397 331.438 208.471 330.232 193.23 330.193L172.147 330.161C166.148 329.584 160.351 330.889 159.684 322.838C159.18 316.748 158.658 285.749 160.519 281.887Z"/>
	<path fill="#FA9C28" transform="scale(0.195312 0.195312)" d="M160.519 197.7C162.472 197.147 172.556 197.698 175.536 197.7C176.494 218.686 170.953 233.961 198.51 234.001L208.258 233.99C208.422 252.304 206.037 248.851 187.874 248.856C183.393 248.858 163.299 250.093 160.519 247.142C158.72 244.219 159.442 240.658 159.455 237.387L159.462 222.557C159.462 215.726 158.093 203.864 160.519 197.7Z"/>
	<path fill="#B3C8EC" transform="scale(0.195312 0.195312)" d="M231.555 195.071L330.614 195.081C335.414 195.081 349.856 192.957 351.12 199.664C351.959 204.119 349.19 206.628 345.062 206.951L239.857 206.956C235.948 206.961 231.844 207.295 227.965 206.951C223.782 201.846 224.352 195.582 231.555 195.071Z"/>
	<path fill="#B3C8EC" transform="scale(0.195312 0.195312)" d="M230.637 236.915C237.291 236.694 244.029 236.91 250.689 236.912L325.5 236.915C333.942 236.907 349.405 233.586 351.609 242.88C351.002 245.324 349.913 248.026 347.287 248.841L244.625 248.847C240.704 248.858 231.245 250.073 227.928 247.796C223.294 244.615 225.059 237.403 230.637 236.915Z"/>
	<path fill="#B3C8EC" transform="scale(0.195312 0.195312)" d="M230.637 215.997L330.182 215.992C334.79 215.986 339.449 215.83 344.052 216.013C354.39 216.424 352.599 226.906 347.287 228.014L246.219 228.026C241.095 228.026 235.878 228.216 230.768 227.84C223.598 227.312 223.456 216.756 230.637 215.997Z"/>
	<path fill="#F68056" transform="scale(0.195312 0.195312)" d="M186.62 86.782C196.452 85.2116 207.817 89.4019 215.697 95.073C242.821 114.592 235.302 158.864 203.23 168.88C187.919 174.478 172.717 168.283 161.028 157.999C159.587 155.759 157.685 153.742 156.147 151.551C145.115 135.831 147.906 113.785 160.519 99.8341C167.44 91.7552 176.264 88.2505 186.62 86.782Z"/>
	<path fill="#E95937" transform="scale(0.195312 0.195312)" d="M160.519 99.8341C167.44 91.7552 176.264 88.2505 186.62 86.782C186.734 89.2952 179.986 91.764 178.036 93.1403C148.819 113.76 158.096 158.018 194.571 166.385C197.26 167.002 200.925 167.353 203.23 168.88C187.919 174.478 172.717 168.283 161.028 157.999C159.587 155.759 157.685 153.742 156.147 151.551C145.115 135.831 147.906 113.785 160.519 99.8341Z"/>
	<path fill="#E7EDF3" transform="scale(0.195312 0.195312)" d="M190.485 99.8341C194.471 98.995 195.365 100.892 196.449 104.481C210.405 110.252 210.627 127.255 201.862 124.029C197.631 122.471 199.783 116.799 195.857 114.073C191.291 110.902 183.591 115.285 185.084 121.009C186.894 127.947 203.137 118.469 207.247 134.095C209.273 141.8 204.018 149.808 196.449 151.699C195.996 154.247 195.343 156.045 193.573 157.999C188.946 158.547 187.646 155.686 186.62 151.699C171.32 143.211 175.106 130.073 182.359 132.79C186.486 134.335 184.048 141.127 191.517 143.378C194.642 142.713 200.649 139.556 198.652 135.643C196.724 131.865 189.425 133.94 185.26 132.565C171.74 128.102 172.884 111.085 186.62 104.481C187.505 102.338 188.13 100.754 190.485 99.8341Z"/>
	<path fill="#69C457" transform="scale(0.195312 0.195312)" d="M280.16 278.613C293.888 268.928 303.664 262.944 321.902 266.139C362.038 273.169 373.164 325.1 342.286 351.403C321.833 368.171 302.376 362.978 282.488 350.986C276.187 344.105 273.186 340.59 268.835 332.247C267.394 328.441 266.515 324.361 265.504 320.421C265.361 317.516 265.495 314.538 265.504 311.625C265.724 307.474 266.238 303.52 267.357 299.51C268.473 296.445 269.804 293.498 271.238 290.572C272.344 289.661 277.801 281.246 280.16 278.613Z"/>
	<path fill="#E7EDF3" transform="scale(0.195312 0.195312)" d="M335.566 289.789L336.05 289.748C338.572 289.556 340.847 289.926 342.783 291.667C351.986 299.942 339.98 308.641 334.316 314.218C328.925 319.524 315.588 335.735 309.092 335.683C303.307 335.637 299.045 329.284 295.325 325.494C291.924 322.227 285.86 317.681 285.657 312.6C285.464 307.77 289.561 303.683 294.382 303.811C300.012 303.961 305.331 311.115 309.014 314.985L322.604 301.218C326.388 297.331 330.333 291.745 335.566 289.789Z"/>
	<path fill="#B3C8EC" transform="scale(0.195312 0.195312)" d="M138.001 176.283L137.861 104.649C137.824 95.5769 139.5 87.1153 146.152 80.5001C156.96 69.7518 166.656 71.4963 180.537 71.5316C178.528 73.0049 176.078 73.4676 173.866 74.5257C163.177 79.6379 159.127 88.6764 160.519 99.8341C147.906 113.785 145.115 135.831 156.147 151.551C157.685 153.742 159.587 155.759 161.028 157.999C159.988 160.224 160.517 192.884 160.519 197.7C158.093 203.864 159.462 215.726 159.462 222.557L159.455 237.387C159.442 240.658 158.72 244.219 160.519 247.142C159.802 252.67 160.52 258.602 160.519 264.206L160.489 276.174C160.482 278.016 160.291 280.073 160.519 281.887C158.658 285.749 159.18 316.748 159.684 322.838C160.351 330.889 166.148 329.584 172.147 330.161C184.516 353.354 197.483 350.994 219.503 350.991L274.22 351.014C276.847 351.025 279.912 351.387 282.488 350.986C302.376 362.978 321.833 368.171 342.286 351.403C349.173 355.045 367.633 352.762 375.525 352.674L375.525 366.754L186.151 366.762C178.662 366.763 170.35 367.378 162.987 366.27C151.283 364.509 140.901 354.04 138.602 342.548C137.475 336.913 137.988 330.647 137.996 324.902L137.991 192.229C138.016 186.936 138.23 181.568 138.001 176.283L138.001 176.283Z"/>
	<path fill="#3DA2F4" transform="scale(0.195312 0.195312)" d="M138.001 176.283C138.23 181.568 138.016 186.936 137.991 192.229L137.996 324.902C137.988 330.647 137.475 336.913 138.602 342.548C140.901 354.04 151.283 364.509 162.987 366.27C170.35 367.378 178.662 366.763 186.151 366.762L375.525 366.754L375.525 352.674L375.525 199.224L400.77 199.224L400.767 332.456C400.767 337.909 400.612 343.408 400.77 348.856L400.77 388.622C400.767 389.892 400.749 391.163 400.77 392.433L294.203 392.433L217.759 392.433C214.594 392.28 211.352 392.421 208.18 392.422L127.905 392.433L127.905 197.7L138.001 197.7C138.017 190.566 137.846 183.414 138.001 176.283Z"/>
</svg>
