<?xml version="1.0" encoding="utf-8" ?>
<svg xmlns="http://www.w3.org/2000/svg" xmlns:xlink="http://www.w3.org/1999/xlink" width="100" height="100">
	<path fill="#253C5D" transform="scale(0.195312 0.195312)" d="M392.269 290.269C397.493 290.195 398.747 295.808 394.024 298.266C388.642 298.131 387.948 292.6 392.269 290.269Z"/>
	<path fill="#253C5D" transform="scale(0.195312 0.195312)" d="M345.465 305.964L402.586 305.956C407.668 305.953 423.158 305.377 427.441 306.374C431.14 307.234 429.693 311.995 427.014 313.243C422.127 313.522 417.1 313.257 412.198 313.248L357.562 313.244C354.694 313.244 342.925 314.827 341.953 311.157C341.118 308.004 342.431 306.533 345.465 305.964Z"/>
	<path fill="#253C5D" transform="scale(0.195312 0.195312)" d="M221.603 117.522C225.703 117.168 230.13 117.501 234.253 117.51L303.136 117.522C304.182 117.522 336.78 114.503 328.105 123.534C326.282 125.432 320.988 124.644 318.653 124.624L307.55 124.59L226.242 124.59L226.222 134.875C226.229 137.095 227.048 141.516 224.984 143.072C223.34 144.311 220.93 144.095 219.771 142.352C219.279 141.611 216.797 120.297 221.603 117.522Z"/>
	<path fill="#253C5D" transform="scale(0.195312 0.195312)" d="M327.718 181.704L352.697 181.688C359.18 181.686 369.717 180.886 375.612 182.778C387.236 186.51 395.148 195.78 396.455 207.843C397.111 213.903 397.07 262.28 396.167 264.681C395.769 265.739 395.003 266.222 394.024 266.683C387.12 264.855 389.505 258.513 389.504 252.097L389.512 224.226C389.518 209.224 390.522 191.458 369.981 188.919C366.101 188.439 360.605 188.928 356.516 188.934L335.085 188.989C332.829 189.003 328.328 189.553 326.38 188.51C323.183 186.798 324.358 182.3 327.718 181.704Z"/>
	<path fill="#253C5D" transform="scale(0.195312 0.195312)" d="M424.445 197.994C426.706 197.988 427.831 198.464 429.296 200.328L429.297 251.354C429.297 257.056 430.6 278.088 428.562 282.332C424.318 283.453 408.544 282.837 402.937 282.837L346.288 282.83C342.397 282.772 339.493 279.672 342.162 277.009C344.409 274.766 352.033 275.757 354.926 275.763L422.072 275.779C422.305 269.592 422.083 263.307 422.082 257.112L422.073 220.333C422.067 214.889 419.976 200.809 424.445 197.994Z"/>
	<path fill="#C4CED6" transform="scale(0.195312 0.195312)" d="M135.75 202.527C134.964 205.978 136.851 207.638 139.079 210.067C133.545 215.801 135.742 224.482 135.753 231.859L135.75 390.005C125.057 389.779 112.53 389.556 101.851 390.005L103.113 389.7C104.231 388.329 103.685 353.933 103.685 349.566L103.671 237.531C103.662 207.401 104.303 202.52 135.75 202.527Z"/>
	<path fill="#253C5D" transform="scale(0.195312 0.195312)" d="M406.681 70.8672C413.234 70.5736 424.254 81.1278 427.978 85.4508C433.054 91.3438 430.403 96.3627 427.014 102.514C434.515 102.071 442.249 101.806 445.28 110.186C446.152 112.597 445.99 132.664 445.644 135.817C444.414 147.022 432.992 144.014 427.858 145.709C426.893 148.652 434.754 153.803 429.98 161.047C427.465 164.864 414.879 176.722 409.498 177.729C400.58 179.4 397.748 170.977 391.452 166.976C385.704 171.862 382.778 178.503 374.187 177.855C368.359 176.768 356.715 165.939 353.469 161.708C348.898 155.748 352.078 150.723 356.001 145.375C348.458 145.434 337.821 146.657 336.171 136.472C335.575 132.795 335.418 114.019 336.156 110.616C338.72 98.7994 351.296 104.448 355.05 102.026C355.619 98.7507 345.414 94.1181 354.224 85.059C358.656 80.5025 368.782 71.1192 375.625 71.0336C384.06 70.9281 386.207 76.1063 391.452 81.1723C396.08 75.4332 398.78 71.7732 406.681 70.8672ZM391.452 87.9342C389.973 87.7811 388.725 87.4542 387.332 86.9532C385.05 85.2759 383.443 83.3755 381.665 81.1723C377.245 83.6424 365.229 93.1601 363.853 96.2635C364.055 98.953 372.684 103.974 365.952 111.8C361.811 116.614 355.594 115.14 349.996 115.281C346.585 118.757 349.219 133.01 348.46 138.49C353.592 138.353 357.752 137.888 361.62 141.825C367.028 153.181 350.901 152.101 362.955 160.963C385.272 180.335 373.466 168.094 387.793 161.109C398.831 155.727 402.741 175.399 410.113 170.298C413.095 168.235 418.98 162.156 422.345 159.276C427.907 154.516 419.612 151.568 420.134 143.375C428.388 129.551 438.742 150.07 438.679 127.311L438.644 114.276C437.79 107.811 431.814 109.729 427.014 109.538C413.38 108.264 423.785 94.4193 423.94 91.8766C424.033 90.3669 414.084 82.6458 412.503 81.1723C402.816 71.8077 400.433 86.2723 391.452 87.9342ZM342.767 136.706C344.386 138.393 346.266 138.398 348.46 138.49L348.46 138.49C349.219 133.01 346.585 118.757 349.996 115.281C348.746 110.2 354.843 110.293 345.465 109.538C340.496 110.258 343.026 131.677 342.767 136.706Z"/>
	<path fill="#FDF9D9" transform="scale(0.195312 0.195312)" d="M342.767 136.706C343.026 131.677 340.496 110.258 345.465 109.538C354.843 110.293 348.746 110.2 349.996 115.281C346.585 118.757 349.219 133.01 348.46 138.49L348.46 138.49C346.266 138.398 344.386 138.393 342.767 136.706ZM342.767 136.706C344.386 138.393 346.266 138.398 348.46 138.49C349.862 133.988 344.93 135.408 342.767 136.706Z"/>
	<path fill="#FEF5CA" transform="scale(0.195312 0.195312)" d="M345.465 109.538C350.859 108.879 361.548 111.65 362.85 102.463C363.518 97.7493 357.556 95.8422 358.191 91.309C360.149 88.4891 369.429 81.0981 372.538 78.8623C375.971 76.3931 379.459 78.0558 381.665 81.1723C377.245 83.6424 365.229 93.1601 363.853 96.2635C364.055 98.953 372.684 103.974 365.952 111.8C361.811 116.614 355.594 115.14 349.996 115.281C348.746 110.2 354.843 110.293 345.465 109.538Z"/>
	<path fill="#FFE564" transform="scale(0.195312 0.195312)" d="M391.452 87.9342C400.433 86.2723 402.816 71.8077 412.503 81.1723C414.084 82.6458 424.033 90.3669 423.94 91.8766C423.785 94.4193 413.38 108.264 427.014 109.538C431.814 109.729 437.79 107.811 438.644 114.276L438.679 127.311C438.742 150.07 428.388 129.551 420.134 143.375C419.612 151.568 427.907 154.516 422.345 159.276C418.98 162.156 413.095 168.235 410.113 170.298C402.741 175.399 398.831 155.727 387.793 161.109C373.466 168.094 385.272 180.335 362.955 160.963C350.901 152.101 367.028 153.181 361.62 141.825C357.752 137.888 353.592 138.353 348.46 138.49C349.219 133.01 346.585 118.757 349.996 115.281C355.594 115.14 361.811 116.614 365.952 111.8C372.684 103.974 364.055 98.953 363.853 96.2635C365.229 93.1601 377.245 83.6424 381.665 81.1723C383.443 83.3755 385.05 85.2759 387.332 86.9532C388.725 87.4542 389.973 87.7811 391.452 87.9342ZM375.78 140.542C398.151 157.607 427.316 130.197 406.681 107.302C388.14 89.6391 350.75 111.579 375.78 140.542Z"/>
	<path fill="#FEF5CA" transform="scale(0.195312 0.195312)" d="M387.332 86.9532C388.725 87.4542 389.973 87.7811 391.452 87.9342C391.38 89.3833 390.417 90.2136 389.512 91.1768C388.543 89.86 387.614 88.6018 387.332 86.9532Z"/>
	<path fill="#FEF5CA" transform="scale(0.195312 0.195312)" d="M425.977 112.909C425.086 112.284 424.41 111.843 424.155 110.739L424.52 110.446C425.63 110.531 426.125 111.021 427.014 111.627C427.144 111.629 427.639 111.666 427.754 111.627C429.026 112.252 430.305 112.848 431.471 113.662C429.699 114.567 427.645 113.639 425.977 112.909Z"/>
	<path fill="#FDF9D9" transform="scale(0.195312 0.195312)" d="M361.62 141.825C370.595 145.291 368.868 150.02 364.969 155.618C363.797 157.301 363.943 159.399 362.955 160.963C350.901 152.101 367.028 153.181 361.62 141.825Z"/>
	<path fill="#FDF9D9" transform="scale(0.195312 0.195312)" d="M391.452 87.9342C400.433 86.2723 402.816 71.8077 412.503 81.1723C404.339 83.9651 398.589 99.8089 389.512 91.1768C390.417 90.2136 391.38 89.3833 391.452 87.9342Z"/>
	<path fill="#FE8B18" transform="scale(0.195312 0.195312)" d="M432.841 114.276C434.747 114.309 436.774 113.989 438.644 114.276L438.679 127.311C438.742 150.07 428.388 129.551 420.134 143.375C416.28 135.983 427.912 132.609 432.841 131.852C432.857 126.002 433.003 120.123 432.841 114.276Z"/>
	<path fill="#FDF9D9" transform="scale(0.195312 0.195312)" d="M406.681 107.302C409.624 107.699 412.87 111.429 414.625 113.692C433.292 137.763 394.376 166.936 376.79 142.775C376.245 142.027 375.779 141.512 375.78 140.542C398.151 157.607 427.316 130.197 406.681 107.302Z"/>
	<path fill="#253C5D" transform="scale(0.195312 0.195312)" d="M375.78 140.542C350.75 111.579 388.14 89.6391 406.681 107.302C427.316 130.197 398.151 157.607 375.78 140.542ZM382.925 136.706C382.845 136.282 382.904 136.376 382.734 136.075C378.142 127.921 378.377 119.127 387.258 114.138C393.366 110.707 397.496 112.496 403.682 114.276C395.975 103.138 376.664 106.75 374.725 120.737C373.823 127.236 377.187 133.648 382.925 136.706Z"/>
	<path fill="#F57486" transform="scale(0.195312 0.195312)" d="M382.925 136.706C382.845 136.282 382.904 136.376 382.734 136.075C378.142 127.921 378.377 119.127 387.258 114.138C393.366 110.707 397.496 112.496 403.682 114.276C413.477 127.666 396.273 146.3 382.925 136.706Z"/>
	<path fill="#253C5D" transform="scale(0.195312 0.195312)" d="M82.7839 390.005L82.7865 222.984C82.7508 196.164 84.8299 182.046 115.848 181.738L130.225 181.718C132.464 181.733 135.9 181.365 137.559 183.099C145.747 191.658 119.419 188.929 117.157 188.929C96.6838 188.934 90.2181 193.257 90.2673 212.925L90.279 379.234C90.272 382.743 89.9502 386.526 90.2946 390.005C94.0235 390.022 98.1716 390.423 101.851 390.005C112.53 389.556 125.057 389.779 135.75 390.005L379.575 389.983C382.883 389.96 386.211 389.73 389.512 390.005C389.32 376.121 389.513 362.211 389.512 348.324L389.527 332.748C389.529 329.891 388.274 321.404 393.045 321.811C397.838 322.22 396.744 327.22 396.737 330.452L396.736 390.005C414.874 388.432 413.62 387.753 413.717 403.308C413.931 437.96 394.018 438.302 365.37 438.299L105.296 438.31C101.54 438.319 97.5676 438.631 93.8456 438.23C71.7108 435.847 62.6186 412.918 66.0291 393.612C67.0727 387.705 78.5713 390.339 82.7839 390.005ZM72.75 396.973C72.7108 407.328 72.2818 416.413 80.1793 424.431C85.0402 429.366 91.4694 431.815 98.3179 431.218C89.3189 426.67 82.814 417.998 84.0507 407.487L193.889 407.487C187.198 395.926 184.422 396.97 173.374 396.969L72.75 396.973ZM293.378 396.973C289.875 401.141 283.337 408.439 280.851 412.911C284.406 414.091 286.359 417.21 288.705 419.918C292.705 418.947 295.895 408.911 300.139 407.984C305.441 406.826 318.4 407.489 324.535 407.495L381.106 407.484C388.442 407.481 399.277 408.205 406.266 407.53L406.681 407.487C406.806 403.989 406.71 400.473 406.681 396.973L331.16 396.968C318.596 396.967 305.933 396.629 293.378 396.973ZM197.476 396.973L193.889 396.973C196.766 399.887 199.292 402.571 201.598 405.966L277.05 405.966C277.528 405.338 277.992 404.686 278.502 404.085C280.427 401.739 282.348 399.395 284.177 396.973L197.476 396.973Z"/>
	<path fill="#5DAFBC" transform="scale(0.195312 0.195312)" d="M193.889 407.487C195.222 410.139 195.585 412.632 198.877 412.911C207.432 412.492 216.23 412.903 224.807 412.907L280.851 412.911C284.406 414.091 286.359 417.21 288.705 419.918C292.705 418.947 295.895 408.911 300.139 407.984C305.441 406.826 318.4 407.489 324.535 407.495L381.106 407.484C388.442 407.481 399.277 408.205 406.266 407.53L406.681 407.487C405.357 428.591 392.862 431.217 374.572 431.224L98.3179 431.218C89.3189 426.67 82.814 417.998 84.0507 407.487L193.889 407.487Z"/>
	<path fill="#7FD4E5" transform="scale(0.195312 0.195312)" d="M198.877 412.911C207.432 412.492 216.23 412.903 224.807 412.907L280.851 412.911C284.406 414.091 286.359 417.21 288.705 419.918C279.458 419.592 270.081 419.913 260.824 419.915L205.055 419.918C203.033 417.545 200.988 415.206 198.877 412.911Z"/>
	<path fill="#253C5D" transform="scale(0.195312 0.195312)" d="M267.325 152.982C286.413 153.172 279.205 150.958 293.673 165.591L312.774 184.797C317.073 189.188 326.428 197.673 329.384 202.527L329.403 344.582C329.431 360.895 323.051 359.551 309.648 359.528L212.125 359.511L175.86 359.517C148.776 359.515 149.11 360.922 149.134 331.083L149.086 167.113C149.071 151.548 159.591 152.94 171.242 152.959L267.325 152.982ZM276.301 168.135C267.112 168.45 257.82 168.132 248.618 168.13L192.584 168.127C160.436 168.127 166.221 161.98 166.222 193.621L166.219 352.629L301.003 352.638C306.588 352.639 312.35 352.941 317.911 352.56C324.766 352.091 322.241 336.174 322.24 330.678L322.234 207.549L300.388 207.561C278.667 207.56 276.263 207.272 276.282 186.631L276.301 168.135ZM158.761 159.93C154.975 164.346 155.975 169.069 155.981 174.532L155.996 333.524C155.999 347.474 152.206 352.892 166.219 352.629L166.222 193.621C166.221 161.98 160.436 168.127 192.584 168.127L248.618 168.13C257.82 168.132 267.112 168.45 276.301 168.135C276.327 165.401 276.384 162.664 276.301 159.93L170.748 159.92C166.829 159.916 162.644 159.577 158.761 159.93Z"/>
	<path fill="#04B8F2" transform="scale(0.195312 0.195312)" d="M283.038 165.069C284.881 165.876 314.437 195.795 318.416 200.328C311.682 200.543 304.909 200.314 298.17 200.313C281.483 200.31 283.024 200.943 283.024 185.159L283.038 165.069Z"/>
	<path fill="#7FD4E5" transform="scale(0.195312 0.195312)" d="M276.301 168.135L276.282 186.631C276.263 207.272 278.667 207.56 300.388 207.561L322.234 207.549L322.24 330.678C322.241 336.174 324.766 352.091 317.911 352.56C312.35 352.941 306.588 352.639 301.003 352.638L166.219 352.629L166.222 193.621C166.221 161.98 160.436 168.127 192.584 168.127L248.618 168.13C257.82 168.132 267.112 168.45 276.301 168.135ZM195.651 269.598C157.939 273.625 163.498 329.339 200.484 326.478C227.181 322.756 235.772 290.083 215.328 274.945C210.054 271.039 202.231 268.609 195.651 269.598ZM307.55 264.765C306.281 265.347 305.064 265.909 303.896 266.683C303.367 271.994 301.745 281.841 308.94 282.83C309.979 282.44 311.294 282.116 311.883 281.097C313.065 279.053 314.997 264.323 307.55 264.765ZM307.55 311.801C300.056 315.203 302.556 329.314 308.94 328.996C315.948 326.578 313.71 311.346 307.55 311.801ZM307.55 288.991C301.897 291.639 302.833 301.09 304.774 304.764C305.53 306.195 307.564 305.994 308.94 305.964C309.781 305.908 310.713 305.948 311.452 305.503C313.048 302.423 314.272 287.813 307.55 288.991ZM308.293 240.72C306.65 241.384 305.232 242.081 303.896 243.283C304.346 248.731 301.675 257.341 308.293 258.302C309.405 258.115 310.518 258.026 311.494 257.424C312.864 255.402 314.304 240.812 308.293 240.72Z"/>
	<path fill="#253C5D" transform="scale(0.195312 0.195312)" d="M232.233 185.005C233.648 184.956 235.212 185.146 236.22 186.253C237.87 188.067 236.944 208.217 236.941 211.603C236.937 216.607 238.815 227.163 234.366 230.39C231.913 230.731 230.048 229.201 229.881 226.827C229.442 220.602 227.482 187.298 232.233 185.005Z"/>
	<path fill="#253C5D" transform="scale(0.195312 0.195312)" d="M291.653 291.204C293.904 291.132 299.219 290.394 300.98 292.01C303.12 293.974 301.964 297.751 299.104 298.126C294.287 298.758 287.435 298.282 282.43 298.281L247.625 298.266C245.073 298.307 240.472 299.021 238.482 297.282C236.01 295.123 237.983 291.776 240.771 291.399C245.843 290.712 252.567 291.197 257.788 291.196L291.653 291.204Z"/>
	<path fill="#253C5D" transform="scale(0.195312 0.195312)" d="M240.759 268.825C244.463 268.664 248.239 268.812 251.951 268.814L289.947 268.818C293.311 268.817 300.834 267.52 302.195 271.809C302.85 273.871 301.01 275.271 299.242 275.779C296.502 276.124 293.55 275.822 290.784 275.804L251.853 275.783C247.9 275.792 243.898 276.073 239.956 275.779C236.501 273.362 236.729 269.95 240.759 268.825Z"/>
	<path fill="#253C5D" transform="scale(0.195312 0.195312)" d="M242.239 313.85L292.116 313.867C294.937 313.868 301.801 312.989 302.325 317.017C302.66 319.588 300.183 320.664 298.128 320.999L261.047 320.988C257.381 320.988 241.486 322.108 238.926 320.207C235.222 317.456 238.79 314.134 242.239 313.85Z"/>
	<path fill="#253C5D" transform="scale(0.195312 0.195312)" d="M184.229 246.301L286.214 246.305C290.211 246.303 297.092 244.966 300.668 247.138C303.758 249.016 302.415 252.831 299.242 253.401L220.439 253.404C215.478 253.403 185.011 253.828 183.101 253.06C179.39 251.566 180.987 247.114 184.229 246.301Z"/>
	<path fill="#253C5D" transform="scale(0.195312 0.195312)" d="M200.484 185.005C205.482 184.382 206.498 191.311 208.483 195.6C210.263 199.445 222.874 224.869 221.443 227.971C217.875 235.707 212.925 225.037 212.199 220.646L212.125 220.189L202.875 220.189L191.784 220.189C190.793 222.356 188.343 228.914 186.498 229.89C183.762 231.339 180.914 228.668 181.673 225.865C182.625 222.348 184.725 218.478 186.137 215.043C188.262 209.876 196.412 186.465 200.484 185.005Z"/>
	<path fill="#7FD4E5" transform="scale(0.195312 0.195312)" d="M201.598 197.994C202.932 198.921 207.592 210.753 208.683 213.228L202.875 213.228L193.889 213.228C196.959 208.461 199.199 203.123 201.598 197.994Z"/>
	<path fill="#253C5D" transform="scale(0.195312 0.195312)" d="M195.651 269.598C202.231 268.609 210.054 271.039 215.328 274.945C235.772 290.083 227.181 322.756 200.484 326.478C163.498 329.339 157.939 273.625 195.651 269.598ZM196.431 275.779C165.754 282.974 173.419 321.706 200.484 319.502C225.427 314.247 228.236 279.919 196.431 275.779Z"/>
	<path fill="#F57486" transform="scale(0.195312 0.195312)" d="M197.476 285.595C213.679 285.243 214.779 308.493 198.877 310.355C182.625 310.308 180.867 287.684 197.476 285.595Z"/>
</svg>
