<?xml version="1.0" encoding="utf-8" ?>
<svg xmlns="http://www.w3.org/2000/svg" xmlns:xlink="http://www.w3.org/1999/xlink" width="100" height="100">
	<path fill="#5DD8FA" transform="scale(0.195312 0.195312)" d="M360.011 259.208C363.098 259.572 366.437 259.6 369.528 259.208C374.638 260.629 377.761 267.472 372.256 270.257C368.903 271.953 363.711 270.584 360.011 270.99C359.917 267.356 360.005 263.697 360.011 260.061L360.011 259.208Z"/>
	<path fill="#2D6BCB" transform="scale(0.195312 0.195312)" d="M104.012 260.806C106.139 260.783 108.264 260.76 110.391 260.806C114.864 261.273 122.618 261.077 127.264 260.806C127.239 264.106 126.917 267.721 127.264 270.99L103.652 270.99C104.357 267.564 104.22 264.268 104.012 260.806Z"/>
	<path fill="#2D6BCB" transform="scale(0.195312 0.195312)" d="M104.012 191.759L127.264 191.759C127.078 195.256 127.293 198.744 127.264 202.241L103.652 202.241C104.218 198.832 104.154 195.201 104.012 191.759Z"/>
	<path fill="#2D6BCB" transform="scale(0.195312 0.195312)" d="M104.012 331.116C111.723 331.126 119.57 331.443 127.264 331.116C127.15 333.6 127.139 336.021 127.264 338.503C127.255 339.588 127.192 340.702 127.264 341.783L104.012 341.783C104.34 338.136 104.592 334.751 104.012 331.116Z"/>
	<path fill="#5DD8FA" transform="scale(0.195312 0.195312)" d="M360.011 283.359L375.518 283.357C378.782 283.351 384.76 282.386 387.275 285.092C390.544 288.61 387.533 294.059 383.144 294.394C379.014 293.8 364.369 294.113 360.011 294.394L360.011 283.359Z"/>
	<path fill="#5DD8FA" transform="scale(0.195312 0.195312)" d="M420.814 308.048L435.164 307.994C439.523 307.972 448.262 306.939 448.563 313.406C448.855 319.669 443.261 319.774 438.485 319.773C432.013 319.767 417.91 321.425 412.605 318.035C410.123 314.274 411.006 310.543 414.625 308.048C416.691 308.099 418.748 308.09 420.814 308.048Z"/>
	<path fill="#2D6BCB" transform="scale(0.195312 0.195312)" d="M157.808 366.518C161.209 367.307 164.88 366.831 168.314 366.518L168.326 394.494C168.331 398.981 168.657 403.698 168.314 408.154C164.522 407.189 161.602 407.19 157.808 408.154C157.419 403.832 157.792 399.187 157.795 394.823L157.808 366.518Z"/>
	<path fill="#2D6BCB" transform="scale(0.195312 0.195312)" d="M157.186 122.185C161.089 122.931 164.42 123.098 168.314 122.185C168.114 125.288 168.292 128.424 168.307 131.534L168.313 147.526C168.308 152.101 167.647 158.326 168.314 162.724C164.734 162.675 160.704 163.3 157.186 162.724L157.186 122.185Z"/>
	<path fill="#2D6BCB" transform="scale(0.195312 0.195312)" d="M262.467 366.518C265.85 366.876 269.591 366.948 272.978 366.518C273.253 369.493 273.002 372.511 272.985 375.495L273.002 401.987C273.019 403.964 273.293 406.208 272.978 408.154C269.306 407.408 266.164 407.61 262.467 408.154L262.467 366.518Z"/>
	<path fill="#5DD8FA" transform="scale(0.195312 0.195312)" d="M360.011 308.048L384.535 308.029C388.066 308.028 392.088 307.611 395.538 308.121C402.102 309.09 402.608 318.751 395.952 319.647C391.9 320.192 387.388 319.772 383.285 319.756L360.011 319.773L360.011 319.773C359.854 315.879 360.113 311.951 360.011 308.048L360.011 308.048Z"/>
	<path fill="#FEA24C" transform="scale(0.195312 0.195312)" d="M278.804 89.2286C292.313 96.3785 287.233 115.358 272.978 122.185C269.159 122.848 266.265 122.834 262.467 122.185C255.761 120.34 251.009 115.044 248.859 108.53C251.314 108.81 253.459 110.854 255.964 111.414C267.283 113.946 277.972 106.154 278.623 94.475C278.721 92.7098 278.343 90.97 278.804 89.2286Z"/>
	<path fill="#CFE9F9" transform="scale(0.195312 0.195312)" d="M360.011 319.773L360.011 319.773C359.198 324.047 360.128 336.651 360.011 341.783C357.046 341.638 337.829 341.281 335.839 341.783C336.19 334.515 335.848 327.062 335.839 319.773L360.011 319.773Z"/>
	<path fill="#5DD8FA" transform="scale(0.195312 0.195312)" d="M403.953 283.359C413.714 282.642 432.863 282.743 442.425 283.444C450.766 284.055 450.079 293.312 443.679 294.394L414.854 294.374C411.2 294.36 407.157 294.798 403.552 294.404C396.839 293.67 396.84 284.016 403.953 283.359Z"/>
	<path fill="#FEA24C" transform="scale(0.195312 0.195312)" d="M172.46 87.8134C185.687 97.4926 182.609 117.39 168.314 122.185C164.42 123.098 161.089 122.931 157.186 122.185C149.565 118.909 144.749 114.865 142.717 106.299C150.175 107.711 156.301 116.502 167.476 105.615C173.517 99.7293 172.368 95.2737 172.46 87.8134Z"/>
	<path fill="#FEA24C" transform="scale(0.195312 0.195312)" d="M171.945 410.279C185.541 415.167 186.145 438.846 170.699 445.755C161.684 449.788 151.938 446.601 146.21 438.843C159.459 436.8 172.75 433.796 171.867 416.666C171.764 414.681 170.759 412.067 171.945 410.279Z"/>
	<path fill="#FEA24C" transform="scale(0.195312 0.195312)" d="M277.745 410.279C287.088 416.633 291.019 429.414 284.299 439.149C275.17 452.372 256.76 450.518 250.316 436.383C251.742 435.376 263.351 438.736 271.669 431.015C278.425 424.743 277.423 418.545 277.745 410.279Z"/>
	<path fill="#FEC75B" transform="scale(0.195312 0.195312)" d="M65.0223 199.521C58.7075 184.796 78.2256 169.097 93.0143 177.038C92.2531 179.181 92.9931 181.529 92.9754 183.737C92.86 198.192 77.8312 204.745 65.0223 199.521Z"/>
	<path fill="#FEC75B" transform="scale(0.195312 0.195312)" d="M142.717 106.299C140.258 89.3321 158.62 79.0143 172.46 87.8134C172.368 95.2737 173.517 99.7293 167.476 105.615C156.301 116.502 150.175 107.711 142.717 106.299Z"/>
	<path fill="#FEC75B" transform="scale(0.195312 0.195312)" d="M248.859 108.53C243.608 85.0534 272.398 79.1417 278.804 89.2286C278.343 90.97 278.721 92.7098 278.623 94.475C277.972 106.154 267.283 113.946 255.964 111.414C253.459 110.854 251.314 108.81 248.859 108.53Z"/>
	<path fill="#FEA24C" transform="scale(0.195312 0.195312)" d="M93.0143 177.038C98.9356 180.058 102.814 185.283 104.012 191.759C104.154 195.201 104.218 198.832 103.652 202.241C99.5216 208.009 96.2181 213.087 88.8928 214.709C78.233 217.068 67.2416 210.244 65.0223 199.521C77.8312 204.745 92.86 198.192 92.9754 183.737C92.9931 181.529 92.2531 179.181 93.0143 177.038Z"/>
	<path fill="#FEC75B" transform="scale(0.195312 0.195312)" d="M262.467 408.154C266.164 407.61 269.306 407.408 272.978 408.154C274.653 408.718 276.312 409.205 277.745 410.279C277.423 418.545 278.425 424.743 271.669 431.015C263.351 438.736 251.742 435.376 250.316 436.383C243.102 427.569 251.397 411.842 262.467 408.154Z"/>
	<path fill="#FEC75B" transform="scale(0.195312 0.195312)" d="M157.808 408.154C161.602 407.19 164.522 407.189 168.314 408.154C169.583 408.755 170.854 409.382 171.945 410.279C170.759 412.067 171.764 414.681 171.867 416.666C172.75 433.796 159.459 436.8 146.21 438.843C138.936 428.067 144.685 411.064 157.808 408.154Z"/>
	<path fill="#5DD8FA" transform="scale(0.195312 0.195312)" d="M390.76 259.208L424.634 259.204C430.088 259.201 441.014 257.986 445.949 259.944C449.688 261.427 449.756 268.769 443.679 270.99L409.124 270.983C404.383 270.983 391.397 272.358 387.525 269.72C383.023 266.652 385.917 259.87 390.76 259.208Z"/>
	<path fill="#6782EF" transform="scale(0.195312 0.195312)" d="M354.282 385.707C354.378 382.972 355.648 379.651 358.447 378.673C361.022 377.774 403.577 377.725 411.223 378.214C415.218 378.469 416.624 381.043 417.43 384.782C417.133 394.85 400.244 391.293 392.823 391.295C382.429 391.297 371.844 391.712 361.472 391.249C357.323 391.063 355.648 389.495 354.282 385.707Z"/>
	<path fill="#CFE9F9" transform="scale(0.195312 0.195312)" d="M335.839 283.359L360.011 283.359L360.011 294.394C364.369 294.113 379.014 293.8 383.144 294.394C380.552 294.865 377.43 294.444 374.757 294.417L360.011 294.394C359.997 298.158 359.54 304.594 360.011 308.048L360.011 308.048C360.113 311.951 359.854 315.879 360.011 319.773L335.839 319.773L335.839 308.048L335.839 294.394L335.839 283.359Z"/>
	<path fill="#65CCFD" transform="scale(0.195312 0.195312)" d="M335.839 283.359L360.011 283.359L360.011 294.394C352.397 294.87 343.621 294.387 335.839 294.394L335.839 283.359Z"/>
	<path fill="#65CCFD" transform="scale(0.195312 0.195312)" d="M335.839 308.048C343.86 308.042 352.006 307.722 360.011 308.048C360.113 311.951 359.854 315.879 360.011 319.773L335.839 319.773L335.839 308.048Z"/>
	<path fill="#5DD8FA" transform="scale(0.195312 0.195312)" d="M371.672 229.684L434.864 229.671C439.821 229.668 444.104 228.964 448.311 231.983C449.041 235.925 448.319 239.105 444.71 241.257C440.592 241.887 430.599 241.26 426.008 241.259L388.07 241.261C382.922 241.262 371.439 243.322 368.888 238.459C367.078 235.008 368.38 231.537 371.672 229.684Z"/>
	<path fill="#FEA24C" transform="scale(0.195312 0.195312)" d="M65.0223 270.572C61.1153 254.206 75.9565 241.96 91.2458 247.128C98.462 250.117 100.797 254.268 104.012 260.806C104.22 264.268 104.357 267.564 103.652 270.99C96.7307 289.803 71.8893 290.158 65.0223 270.572Z"/>
	<path fill="#FEC75B" transform="scale(0.195312 0.195312)" d="M65.0223 270.572C61.1153 254.206 75.9565 241.96 91.2458 247.128C91.152 249.324 92.0764 251.406 92.4917 253.528C94.7155 264.894 84.0497 272.6 73.7829 272.488C70.4465 272.451 67.8164 270.723 65.0223 270.572Z"/>
	<path fill="#FEA24C" transform="scale(0.195312 0.195312)" d="M65.0223 340.941C60.4179 323.979 74.659 312.503 91.2458 316.307C96.886 319.251 103.531 324.217 104.012 331.116C104.592 334.751 104.34 338.136 104.012 341.783C96.7117 361.026 71.8167 360.042 65.0223 340.941Z"/>
	<path fill="#FEC75B" transform="scale(0.195312 0.195312)" d="M65.0223 340.941C60.4179 323.979 74.659 312.503 91.2458 316.307C89.9393 318.493 91.9768 321.876 92.4294 324.193C94.981 337.255 80.9058 346.325 69.3214 342.468C67.9262 342.003 66.4493 341.205 65.0223 340.941Z"/>
	<path fill="#CFE9F9" transform="scale(0.195312 0.195312)" d="M335.839 222.355L336.075 223.672C339.465 225.668 355.756 218.471 359.503 232.562C360.683 236.999 360.008 253.52 360.011 259.208C362.597 259.191 367.195 258.704 369.528 259.208C366.437 259.6 363.098 259.572 360.011 259.208L360.011 260.061C360.005 263.697 359.917 267.356 360.011 270.99C359.712 275.105 359.677 279.244 360.011 283.359L335.839 283.359L335.839 270.99L335.839 260.806L335.839 259.208L335.839 222.355Z"/>
	<path fill="#CFE9F9" transform="scale(0.195312 0.195312)" d="M335.839 259.208C343.869 259.202 351.993 258.925 360.011 259.208L360.011 260.061C360.005 263.697 359.917 267.356 360.011 270.99C359.712 275.105 359.677 279.244 360.011 283.359L335.839 283.359L335.839 270.99L335.839 260.806L335.839 259.208Z"/>
	<path fill="#65CCFD" transform="scale(0.195312 0.195312)" d="M335.839 259.208C343.869 259.202 351.993 258.925 360.011 259.208L360.011 260.061C360.005 263.697 359.917 267.356 360.011 270.99C351.973 271.201 343.883 271.002 335.839 270.99L335.839 260.806L335.839 259.208Z"/>
	<path fill="#CFE9F9" transform="scale(0.195312 0.195312)" d="M417.43 384.782L417.793 385.853C419.126 386.245 445.947 385.774 448.311 385.707L448.336 404.32C448.342 423.019 444.998 421.572 428.616 421.569L410.806 421.557C394.295 421.544 373.733 422.803 357.747 421.554C352.195 417.586 346.229 410.276 341.285 405.217L328.581 392.164C326.269 389.753 323.821 387.433 321.779 384.782C332.989 386.679 345.303 384.147 354.282 385.707C355.648 389.495 357.323 391.063 361.472 391.249C371.844 391.712 382.429 391.297 392.823 391.295C400.244 391.293 417.133 394.85 417.43 384.782Z"/>
	<path fill="#5DD8FA" transform="scale(0.195312 0.195312)" d="M262.467 122.185C266.265 122.834 269.159 122.848 272.978 122.185C273.337 126.394 272.989 130.845 272.984 135.085L272.978 162.724C276.837 162.791 281.955 162.261 285.54 162.724C286.605 164.928 291.07 166.634 293.008 168.301C301.532 175.631 300.795 183.774 300.792 193.908L300.818 233.636C300.839 237.625 301.044 241.629 300.784 245.615C298.447 240.325 296.537 234.954 293.805 229.836C275.485 195.514 233.752 179.557 197.653 195.503C139.628 221.133 138.426 303.63 192.455 332.744C196.685 335.023 201.194 336.578 205.579 338.503C196.931 338.337 188.248 338.504 179.596 338.505L127.264 338.503C127.139 336.021 127.15 333.6 127.264 331.116C126.897 326.031 127.244 320.659 127.248 315.543L127.271 286.359C127.277 281.247 127.442 276.097 127.264 270.99C126.917 267.721 127.239 264.106 127.264 260.806C122.618 261.077 114.864 261.273 110.391 260.806L127.264 260.806L127.264 202.241C127.293 198.744 127.078 195.256 127.264 191.759C127.366 170.373 135.064 161.611 157.186 162.724C160.704 163.3 164.734 162.675 168.314 162.724L262.467 162.724C262.789 149.235 261.862 135.646 262.467 122.185Z"/>
	<path fill="#2D6BCB" transform="scale(0.195312 0.195312)" d="M262.467 122.185C266.265 122.834 269.159 122.848 272.978 122.185L272.978 162.724L262.467 162.724C262.789 149.235 261.862 135.646 262.467 122.185Z"/>
	<path fill="#13C1E1" transform="scale(0.195312 0.195312)" d="M285.54 162.724L300.582 162.71C311.023 162.711 316.876 162.895 325.978 168.611L325.821 168.907C321.664 176.586 306.155 190.841 316.342 196.47C325.305 196.827 329.623 190.083 335.839 188.209L335.832 211.307C335.831 214.947 335.614 218.735 335.839 222.355L335.839 259.208L335.839 260.806L335.839 270.99L335.839 283.359L335.839 294.394L335.839 308.048L335.839 319.773C335.848 327.062 336.19 334.515 335.839 341.783C335.232 352.846 327.342 363.719 316.249 366.178C308.599 367.874 282.091 366.424 272.978 366.518C269.591 366.948 265.85 366.876 262.467 366.518C259.757 366.159 256.563 366.488 253.809 366.495L168.314 366.518C164.88 366.831 161.209 367.307 157.808 366.518C157.262 366.328 156.855 366.366 156.293 366.379C138.025 366.803 127.552 361.639 127.264 341.783C127.192 340.702 127.255 339.588 127.264 338.503L179.596 338.505C188.248 338.504 196.931 338.337 205.579 338.503C219.318 339.821 225.575 342.525 240.861 339.451C242.706 339.08 244.754 338.497 246.64 338.503C274.21 327.814 290.15 315.754 300.224 285.619C304.654 270.217 303.017 260.387 300.784 245.615C301.044 241.629 300.839 237.625 300.818 233.636L300.792 193.908C300.795 183.774 301.532 175.631 293.008 168.301C291.07 166.634 286.605 164.928 285.54 162.724Z"/>
	<path fill="#5DD8FA" transform="scale(0.195312 0.195312)" d="M246.64 338.503C274.21 327.814 290.15 315.754 300.224 285.619C301.097 288.966 301.327 316.512 300.577 321.439C299 331.806 290.221 338.011 280.279 338.51C275.334 338.758 250.411 339.269 246.64 338.503Z"/>
	<path fill="#939EF7" transform="scale(0.195312 0.195312)" d="M329.386 162.724C319.847 146.285 315.551 127.914 320.472 109.187C335.244 52.9693 411.24 43.55 439.883 94.24C457.162 124.818 445.767 165.338 415.018 182.212C395.569 192.884 369.431 192.997 350.638 180.689C345.491 182.694 340.808 185.82 335.839 188.209C329.623 190.083 325.305 196.827 316.342 196.47C306.155 190.841 321.664 176.586 325.821 168.907L325.978 168.611C327.138 166.679 328.41 164.755 329.386 162.724Z"/>
	<path fill="#6782EF" transform="scale(0.195312 0.195312)" d="M407.873 96.2728L408.111 96.1888C409.945 97.7 412.317 99.3677 413.764 101.247C411.924 101.24 409.651 100.916 407.873 101.247C407.638 99.7098 407.872 97.847 407.873 96.2728Z"/>
	<path fill="#6782EF" transform="scale(0.195312 0.195312)" d="M407.873 113.661C410.133 113.489 415.416 113.173 417.43 113.661C416.819 116.82 417.529 121.634 417.43 125.015C414.248 125.199 411.058 125.08 407.873 125.015C407.721 121.253 407.867 117.43 407.873 113.661Z"/>
	<path fill="#3D4BF0" transform="scale(0.195312 0.195312)" d="M357.747 137.016C354.157 137.176 347.058 138.066 344.279 135.512C341.884 133.311 341.529 128.98 343.85 126.599C346.261 124.127 354.246 124.993 357.747 125.015L357.747 137.016Z"/>
	<path fill="#3D4BF0" transform="scale(0.195312 0.195312)" d="M357.747 113.661C354.152 113.716 346.682 114.661 343.873 112.051C341.339 109.696 341.587 105.244 343.999 102.911C346.886 100.118 354.02 101.174 357.747 101.247L357.747 113.661Z"/>
	<path fill="#3D4BF0" transform="scale(0.195312 0.195312)" d="M417.43 125.015C430.552 125.77 426.217 136.609 420.814 137.016L407.873 137.016C408.032 133.035 407.886 129.001 407.873 125.015C411.058 125.08 414.248 125.199 417.43 125.015Z"/>
	<path fill="#3D4BF0" transform="scale(0.195312 0.195312)" d="M413.764 101.247C417.142 101.257 421.804 100.661 424.38 103.283C428.856 107.838 424.496 114.053 417.43 113.661C415.416 113.173 410.133 113.489 407.873 113.661C407.896 109.526 407.975 105.381 407.873 101.247L407.873 101.247C409.651 100.916 411.924 101.24 413.764 101.247Z"/>
	<path fill="#6782EF" transform="scale(0.195312 0.195312)" d="M407.873 137.016L420.814 137.016C419.674 137.072 418.57 137.087 417.43 137.016C416.326 159.94 422.729 163.361 394.515 163.35C386.698 163.347 371.845 165.99 369.528 155.552C368.332 154.687 366.765 153.664 365.993 152.386L366.181 151.97C368.711 151.903 371.309 151.74 373.833 151.97C379.493 151.584 385.446 151.988 391.136 152.004C403.919 152.04 407.865 149.93 407.873 137.016Z"/>
	<path fill="#6782EF" transform="scale(0.195312 0.195312)" d="M366.181 151.97C368.711 151.903 371.309 151.74 373.833 151.97C372.39 152.022 370.97 152.024 369.528 151.97L369.528 155.552C368.332 154.687 366.765 153.664 365.993 152.386L366.181 151.97Z"/>
	<path fill="#EA5166" transform="scale(0.195312 0.195312)" d="M361.004 149.204C374.269 133.992 386.136 143.811 394.651 132.256C403.16 120.708 388.937 111.611 407.873 101.247C407.975 105.381 407.896 109.526 407.873 113.661C407.867 117.43 407.721 121.253 407.873 125.015C407.886 129.001 408.032 133.035 407.873 137.016C407.865 149.93 403.919 152.04 391.136 152.004C385.446 151.988 379.493 151.584 373.833 151.97C371.309 151.74 368.711 151.903 366.181 151.97C364.387 151.255 362.593 150.302 361.004 149.204Z"/>
	<path fill="#FC7185" transform="scale(0.195312 0.195312)" d="M357.747 101.247C358.914 86.4186 372.268 89.2007 383.274 89.2013C395.505 89.2019 399.962 86.2711 407.873 96.2728C407.872 97.847 407.638 99.7098 407.873 101.247L407.873 101.247C388.937 111.611 403.16 120.708 394.651 132.256C386.136 143.811 374.269 133.992 361.004 149.204C357.355 145.791 357.738 141.59 357.747 137.016L357.747 125.015L357.747 113.661L357.747 101.247Z"/>
	<path fill="#F59EC5" transform="scale(0.195312 0.195312)" d="M377.917 102.781C394.545 101.356 391.578 127.098 380.124 131.02C376.083 131.946 371.55 131.48 370.03 126.992C367.4 119.226 368.248 106.051 377.917 102.781Z"/>
	<path fill="#6782EF" transform="scale(0.195312 0.195312)" d="M205.579 338.503C201.194 336.578 196.685 335.023 192.455 332.744C138.426 303.63 139.628 221.133 197.653 195.503C233.752 179.557 275.485 195.514 293.805 229.836C296.537 234.954 298.447 240.325 300.784 245.615C303.017 260.387 304.654 270.217 300.224 285.619C290.15 315.754 274.21 327.814 246.64 338.503C244.754 338.497 242.706 339.08 240.861 339.451C225.575 342.525 219.318 339.821 205.579 338.503Z"/>
	<path fill="#D5D6FA" transform="scale(0.195312 0.195312)" d="M262.467 228.786C267.238 228.669 267.773 232.208 267.93 235.95C268.157 241.332 268.353 294.489 267.421 296.518C266.708 298.069 265.065 298.743 263.562 299.285C261.018 299.311 259.381 298.301 257.765 296.347C257.455 293.868 257.71 291.279 257.744 288.785C257.977 271.384 257.288 253.973 257.834 236.576C257.97 232.235 257.834 230.167 262.467 228.786Z"/>
	<path fill="#D5D6FA" transform="scale(0.195312 0.195312)" d="M212.304 228.786C220.095 227.97 222.528 240.489 225.515 246.659C228.337 252.488 247.854 292.423 246.758 296.151C245.964 298.852 242.718 300.373 240.104 299.364C236.744 298.067 232.149 285.654 230.483 281.941L216.875 281.941L197.834 281.941C196.675 284.895 188.138 308.412 182.206 296.385C180.23 292.379 187.136 280.493 188.867 276.654L198.444 254.984C201.008 249.14 207.368 231.144 212.304 228.786Z"/>
	<path fill="#6782EF" transform="scale(0.195312 0.195312)" d="M213.739 245.615C215.378 247.418 223.892 267.082 225.729 270.99C222.162 271.408 218.154 271.012 214.545 270.99L202.317 270.99C206.955 263.357 210.328 253.908 213.739 245.615Z"/>
</svg>
