<?xml version="1.0" encoding="utf-8" ?>
<svg xmlns="http://www.w3.org/2000/svg" xmlns:xlink="http://www.w3.org/1999/xlink" width="100" height="100">
	<path fill="#5C45B2" transform="scale(0.195312 0.195312)" d="M279.581 308.751L321.17 308.714C340.796 308.639 343.528 320.627 343.498 337.182L343.487 356.821C359.218 361.206 362.021 377.742 362 391.603L362.082 406.63C362.015 427.202 345.973 427.62 331.256 427.619L310.932 427.606C310.814 454.613 307.597 449.69 284.506 449.926C265.637 450.119 261.864 452.055 262.038 431.125L262.006 415.514C261.995 407.237 261.324 399.178 272.449 398.985C278.222 398.884 299.568 398.187 304.328 399.316C312.72 401.307 310.959 413.441 310.932 419.75L330.512 419.758C339.436 419.765 352.341 421.76 354.107 409.542C354.768 404.97 354.844 381.723 353.778 377.885C351.193 368.584 343.324 365.398 335.631 361.212C335.449 353.211 335.642 345.17 335.645 337.163C335.654 312.313 327.827 316.247 306.528 316.249L285.274 316.246C282.612 316.248 279.27 316.726 276.691 316.281C272.052 315.481 273.527 309.287 279.581 308.751Z"/>
	<path fill="#1ABFF1" transform="scale(0.195312 0.195312)" d="M269.761 406.611C271.929 406.306 274.181 406.52 276.365 406.552L286.209 406.611L286.209 442.256C266.364 442.246 269.711 446.991 269.75 425.684C269.762 419.337 269.568 412.951 269.761 406.611Z"/>
	<path fill="#8EDFF5" transform="scale(0.195312 0.195312)" d="M286.209 406.611L303.249 406.611C303.256 418.442 303.663 430.442 303.249 442.256C300.611 442.832 290.001 442.245 286.209 442.256L286.209 406.611Z"/>
	<path fill="#5C45B2" transform="scale(0.195312 0.195312)" d="M170.536 308.751C183.589 308.42 205.425 307.578 218.231 308.735C223.365 309.198 226.698 316.363 214.667 316.256L190.232 316.242C155.415 316.205 160.386 319.92 160.466 350.836C161.775 351.825 164.516 353.362 163.877 355.374C160.908 364.709 143.038 369.004 142.948 384.54L142.933 399.189C142.962 417.948 144.953 419.793 164.923 419.773L188.292 419.75C188.482 400.993 187.397 400.248 209.295 400.233C217.519 400.228 227.711 398.019 233.38 404.582C236.24 408.937 235.329 414.757 235.312 419.75C238.767 419.774 252.044 418.813 254.069 420.728C255.18 421.779 255.682 425.325 254.46 426.417C252.225 428.416 238.754 427.684 235.312 427.606C235.193 435.36 238.017 448.938 226.727 449.818C221.406 450.233 200.842 450.599 195.808 449.689C185.883 447.896 188.533 434.778 188.292 427.606C171.547 427.619 141.237 433.453 135.89 412.768C134.476 407.298 135.232 400.76 135.197 395.11C135.091 377.923 133.043 376.563 146.27 363.307C148.421 361.152 150.437 358.827 152.729 356.821L152.711 338.429C152.702 323.774 153.448 311.877 170.536 308.751Z"/>
	<path fill="#FDDF79" transform="scale(0.195312 0.195312)" d="M212.213 407.788C215.627 407.765 224.168 407.106 226.867 408.412C228.205 411.886 227.918 436.507 227.587 442.256L212.213 442.256C212.053 441.627 212.016 408.802 212.213 407.788Z"/>
	<path fill="#F7B931" transform="scale(0.195312 0.195312)" d="M195.982 407.788L212.213 407.788C212.016 408.802 212.053 441.627 212.213 442.256C206.836 442.05 201.367 442.25 195.982 442.256L195.982 407.788Z"/>
	<path fill="#5C45B2" transform="scale(0.195312 0.195312)" d="M323.874 60.3755C338.479 60.3232 347.083 56.6852 347.034 75.2583C347.021 80.25 346.801 85.3039 346.995 90.2877C356.408 97.6706 380.366 84.0432 380.992 103.179C381.171 108.629 380.961 114.123 380.976 119.579C381.051 148.707 377.256 141.912 353.746 142.816C339.909 143.349 352.007 166.018 344.291 173.799C340.01 178.117 328.672 176.834 322.875 176.813C316.999 176.832 306.433 178.071 301.716 174.134C293.405 167.198 302.834 149.462 295.342 143.531C284.384 141.132 265.427 148.421 265.197 131.404C265.122 125.904 264.581 102.815 265.652 98.881C268.281 89.2275 287.088 92.3712 294.75 92.3872C304.811 85.9684 290.768 64.9863 304.418 61.0087C308.855 59.7157 318.918 60.3672 323.874 60.3755ZM305.775 68.0257L305.808 81.2043C305.844 90.8999 305.449 97.0254 294.75 99.9865C295.994 102.199 305.056 111.433 303.249 113.182C298.653 108.344 292.581 109.07 292.732 114.664C292.779 116.395 314.159 143.871 324.746 141.22C330.404 144.487 334.075 155.702 339.226 159.782C339.231 143.992 338.61 135.152 358.529 135.224L367.077 135.282C370.735 135.342 372.999 135.964 373.429 131.688C373.858 127.427 374.115 101.603 372.657 100.529C370.705 99.091 352.921 100.666 348.396 99.3929C335.662 95.8105 339.202 78.3127 339.226 68.0257C335.433 67.8548 331.571 68.0073 327.769 68.0108L305.775 68.0257Z"/>
	<path fill="#F9778F" transform="scale(0.195312 0.195312)" d="M272.509 99.9865L286.302 99.9548C289.095 99.9326 291.967 99.7702 294.75 99.9865C295.994 102.199 305.056 111.433 303.249 113.182C298.653 108.344 292.581 109.07 292.732 114.664C292.779 116.395 314.159 143.871 324.746 141.22C330.404 144.487 334.075 155.702 339.226 159.782C339.428 162.939 339.309 166.089 339.226 169.249C329.611 169.641 319.628 169.532 310.013 169.227C297.152 168.819 315.94 140.752 296.114 135.823C290.997 134.551 278.402 135.23 272.509 135.246C272.096 123.56 272.502 111.692 272.509 99.9865Z"/>
	<path fill="#FDACAA" transform="scale(0.195312 0.195312)" d="M305.775 68.0257L327.769 68.0108C331.571 68.0073 335.433 67.8548 339.226 68.0257C339.202 78.3127 335.662 95.8105 348.396 99.3929C352.921 100.666 370.705 99.091 372.657 100.529C374.115 101.603 373.858 127.427 373.429 131.688C372.999 135.964 370.735 135.342 367.077 135.282L358.529 135.224C338.61 135.152 339.231 143.992 339.226 159.782C334.075 155.702 330.404 144.487 324.746 141.22C314.159 143.871 292.779 116.395 292.732 114.664C292.581 109.07 298.653 108.344 303.249 113.182C305.056 111.433 295.994 102.199 294.75 99.9865C305.449 97.0254 305.844 90.8999 305.808 81.2043L305.775 68.0257ZM321.449 130.867C315.575 124.702 308.708 118.98 303.249 113.182C298.653 108.344 292.581 109.07 292.732 114.664C292.779 116.395 314.159 143.871 324.746 141.22C329.294 138.609 349.72 119.045 351.427 114.224C347.768 104.94 341.484 112.017 336.996 116.308C332.283 120.814 326.488 126.962 321.449 130.867Z"/>
	<path fill="#DDE9F7" transform="scale(0.195312 0.195312)" d="M321.449 81.5135C324.947 81.3805 326.349 83.177 326.726 86.4017C327.76 95.2547 327.493 114.524 327.002 123.827C325.733 125.025 324.405 125.943 322.875 126.77C320.642 126.9 318.291 125.962 317.363 123.764C316.351 121.37 316.272 85.9409 317.205 84.3135C318.097 82.7578 319.851 82.091 321.449 81.5135Z"/>
	<path fill="#5C45B2" transform="scale(0.195312 0.195312)" d="M114.311 188.125C127.768 185.972 143.604 192.338 153.957 200.697C192.569 231.871 175.278 295.829 123.062 301.065L122.151 301.096C89.642 301.929 62.7581 278.391 62.0845 245.501C61.493 216.619 84.4656 188.738 114.311 188.125Z"/>
	<path fill="#AFC4F3" transform="scale(0.195312 0.195312)" d="M100.243 289.445C89.6449 286.507 79.8079 275.642 74.962 266.123C61.8899 240.444 73.976 212.015 98.9417 199.618C93.2617 211.452 89.8031 210.565 88.5028 227.801C91.5747 227.791 98.3662 227.302 101.01 227.801C83.8349 227.9 83.2468 223.595 83.2472 241.496C83.2474 248.385 80.2613 261.728 88.5028 261.794C88.6495 269.242 91.9839 277.941 96.1881 284.05C97.3422 285.727 99.6103 287.573 100.243 289.445Z"/>
	<path fill="#DDE9F7" transform="scale(0.195312 0.195312)" d="M98.9417 199.618C101.884 198.935 104.584 197.493 107.529 196.825C131.927 191.297 159.155 206.596 165.307 231.279C172.099 258.527 157.251 285.971 129.264 292.484C120.967 294.414 107.649 294.065 100.243 289.445C99.6103 287.573 97.3422 285.727 96.1881 284.05C91.9839 277.941 88.6495 269.242 88.5028 261.794L101.889 261.794C101.768 279.024 99.1981 278.723 115.347 278.732C120.901 278.735 126.456 278.787 132.009 278.72C136.105 275.574 134.279 266.437 134.258 261.794C137.142 261.813 148.954 262.448 150.87 261.08C153.214 259.406 154.937 232.384 150.629 227.801C145.177 227.691 139.711 227.785 134.258 227.801C134.254 221.504 136.864 211.398 129.478 210.566C125.936 210.167 106.806 210.119 103.916 210.912C99.1019 212.235 103.648 223.985 101.69 227.717L101.01 227.801C98.3662 227.302 91.5747 227.791 88.5028 227.801C89.8031 210.565 93.2617 211.452 98.9417 199.618Z"/>
	<path fill="#5C45B2" transform="scale(0.195312 0.195312)" d="M101.01 227.801L101.69 227.717C103.648 223.985 99.1019 212.235 103.916 210.912C106.806 210.119 125.936 210.167 129.478 210.566C136.864 211.398 134.254 221.504 134.258 227.801C139.711 227.785 145.177 227.691 150.629 227.801C154.937 232.384 153.214 259.406 150.87 261.08C148.954 262.448 137.142 261.813 134.258 261.794C134.279 266.437 136.105 275.574 132.009 278.72C126.456 278.787 120.901 278.735 115.347 278.732C99.1981 278.723 101.768 279.024 101.889 261.794L88.5028 261.794C80.2613 261.728 83.2474 248.385 83.2472 241.496C83.2468 223.595 83.8349 227.9 101.01 227.801Z"/>
	<path fill="#DDE9F7" transform="scale(0.195312 0.195312)" d="M109.545 218.244L126.275 218.244C126.303 221.36 125.532 231.626 127.084 233.636C130.1 237.538 140.37 235.009 144.841 235.731L144.841 254.026C125.077 254 126.172 251.279 126.275 270.914C120.731 270.706 115.098 270.907 109.545 270.914C109.674 250.62 110.678 253.992 91.0475 254.026L91.0475 235.731C112.453 235.809 109.595 237.761 109.545 218.244Z"/>
	<path fill="#5C45B2" transform="scale(0.195312 0.195312)" d="M150.629 70.3181L218.294 70.2954C241.473 70.2842 244.9 76.7567 244.922 99.3719L244.923 131.313C244.918 138.348 245.421 144.397 240.639 150.122C232.756 159.559 220.831 155.543 210.235 156.521C211.377 161.948 212.639 167.362 213.468 172.847C215.51 181.844 217.377 190.698 205.136 182.265C196.749 176.489 188.567 170.406 180.262 164.51C173.511 159.718 171.467 156.352 162.982 156.45C137.109 156.749 131.129 155.733 131.112 127.994L131.108 93.3879C131.074 78.4298 134.799 71.4198 150.629 70.3181ZM160.466 78.0851C159.159 78.4292 157.806 78.1897 156.475 78.0851C156.961 95.0388 156.954 111.91 156.961 128.878L157.003 142.108C157.021 144.358 157.245 146.769 156.97 148.998C161.493 149.194 167.454 148.199 171.715 149.324C174.073 149.946 201.621 170.277 205.482 172.847C204.617 167.591 202.044 157.823 201.98 153.087C201.813 140.853 236.738 160.949 237.267 136.199C237.483 126.082 237.209 115.922 237.243 105.799C237.303 87.4144 241.215 77.9437 220.061 78.0484L160.466 78.0851Z"/>
	<path fill="#DDE9F7" transform="scale(0.195312 0.195312)" d="M156.97 148.998C134.572 149.21 138.769 141.153 138.768 122.637C138.767 111.63 138.637 100.607 138.767 89.6015C138.923 76.3578 150.569 77.9193 160.466 78.0851C159.159 78.4292 157.806 78.1897 156.475 78.0851C156.961 95.0388 156.954 111.91 156.961 128.878L157.003 142.108C157.021 144.358 157.245 146.769 156.97 148.998Z"/>
	<path fill="#5C45B2" transform="scale(0.195312 0.195312)" d="M169.329 105.281C176.841 104.428 178.263 112.429 172.326 115.629C165.18 116.767 163.682 108.696 169.329 105.281Z"/>
	<path fill="#5C45B2" transform="scale(0.195312 0.195312)" d="M210.235 105.281C217.579 104.934 218.141 112.395 212.213 115.629C205.43 116.6 203.106 108.328 210.235 105.281Z"/>
	<path fill="#5C45B2" transform="scale(0.195312 0.195312)" d="M189.257 105.281C197.108 104.523 198.658 112.039 192.223 115.629C185.999 117.1 183.105 108.746 189.257 105.281Z"/>
	<path fill="#5C45B2" transform="scale(0.195312 0.195312)" d="M388.783 184.44C420.96 184.09 448.844 210.85 449.405 243.188C449.982 276.411 423.71 303.313 390.449 303.564C358.303 302.995 330.891 279.757 329.707 246.879C328.467 212.429 354.4 185.373 388.783 184.44Z"/>
	<path fill="#F7B931" transform="scale(0.195312 0.195312)" d="M396.693 295.993C365.806 298.222 338.004 277.478 337.47 245.21C337.027 218.414 357.214 193.853 384.575 192.099C389.291 191.796 393.934 192.359 398.64 192.315C396.477 195.623 389.369 197.037 385.879 198.829C364.165 209.979 350.01 229.543 354.626 254.774C357.603 271.045 371.693 288.015 387.816 293.098C390.899 294.07 393.89 294.212 396.693 295.993Z"/>
	<path fill="#FDDF79" transform="scale(0.195312 0.195312)" d="M398.64 192.315C416.974 199.314 428.658 204.194 437.541 224.105C450.164 252.395 433.801 286.711 403.507 294.217C401.218 294.784 398.899 295.131 396.693 295.993C393.89 294.212 390.899 294.07 387.816 293.098C371.693 288.015 357.603 271.045 354.626 254.774C350.01 229.543 364.165 209.979 385.879 198.829C389.369 197.037 396.477 195.623 398.64 192.315Z"/>
	<path fill="#5C45B2" transform="scale(0.195312 0.195312)" d="M389.674 261.096C403.202 261.678 402.912 280.123 389.674 282.159C376.812 282.559 374.815 262.312 389.674 261.096Z"/>
	<path fill="#1ABFF1" transform="scale(0.195312 0.195312)" d="M388.783 268.956C392.836 268.753 393.047 272.252 390.449 274.352C386.428 274.289 386.15 271.187 388.783 268.956Z"/>
	<path fill="#5C45B2" transform="scale(0.195312 0.195312)" d="M380.995 209.02C385.111 209.001 399.848 206.689 400.187 213.092C400.411 217.338 400.368 252.121 399.893 253.605C399.396 255.158 398.078 255.852 396.693 256.498C392.892 256.762 379.272 258.313 377.733 253.649C376.93 251.214 377.138 218.434 377.372 213.609C377.494 211.108 378.355 209.599 380.995 209.02Z"/>
	<path fill="#8EDFF5" transform="scale(0.195312 0.195312)" d="M385.036 216.547C387.657 216.285 390.127 216.315 392.753 216.547L392.753 249.015L385.036 249.015L385.036 216.547Z"/>
	<path fill="#5C45B2" transform="scale(0.195312 0.195312)" d="M247.053 188.125C254.037 187.06 252.267 195.044 252.221 199.618C289.131 199.513 296.694 206.203 296.585 243.262C297.662 243.259 321.172 242.038 312.76 249.728C310.379 251.905 300.132 250.981 296.585 250.961C297.11 270.739 283.384 295.038 267.182 305.409L267.182 326.155C294.601 326.017 304.29 332.947 304.266 361.575L304.246 379.585C309.531 379.524 314.82 379.572 320.106 379.585L320.117 358.616C320.169 345.138 321.351 336.476 305.775 333.832C303.181 331.325 300.958 328.544 298.226 326.155C327.78 326.054 327.852 338.237 327.954 364.286C328.016 380.075 331.659 386.983 313.172 386.984L250.489 386.972L185.924 386.98C168.578 386.975 168.211 386.335 168.313 367.649L168.34 351.825C168.53 328.942 174.712 325.853 196.738 326.155C194.757 328.648 192.974 331.016 191.465 333.832C174.955 332.199 176.235 342.303 176.241 354.767L176.244 379.585C177.927 379.324 179.902 379.536 181.612 379.548L192.223 379.585L192.207 362.621C192.169 332.032 201.49 326.679 230.274 326.155C230.375 319.534 230.277 312.897 230.274 306.274C212.692 290.766 201.642 275.49 199.822 250.961C199.2 250.925 177.303 252.02 184.904 244.687C187.381 242.297 196.43 243.234 199.822 243.262C199.485 229.862 198.144 217.88 208.69 207.463C218.819 197.458 231.99 199.612 244.917 199.618C244.36 195.553 242.434 190.295 247.053 188.125ZM259.257 310.784C250.466 313.83 247.079 314.196 238.231 310.784L238.231 324.812L238.304 325.861C239.217 326.556 256.822 326.292 259.257 326.155L259.289 315.277C259.29 313.846 259.451 312.194 259.257 310.784Z"/>
	<path fill="#1ABFF1" transform="scale(0.195312 0.195312)" d="M199.822 379.585C199.779 354.352 194.867 331.41 230.274 333.832C216.699 344.954 219.531 363.499 220.568 379.585C213.657 379.565 206.729 379.758 199.822 379.585Z"/>
	<path fill="#1ABFF1" transform="scale(0.195312 0.195312)" d="M258.011 302.38C245.57 310.266 233.299 299.529 224.778 290.494C207.925 272.627 206.534 253.67 207.353 230.93C208.163 208.453 222.647 206.489 241.813 207.271C233.873 213.287 231.173 218.1 231.247 227.801C225.876 228.107 221.344 227.16 220.232 233.506C219.64 236.885 219.683 249.754 220.115 253.234C220.927 259.776 224.832 259.302 230.274 259.731C237.054 282.621 242.472 287.009 258.011 302.38Z"/>
	<path fill="#8EDFF5" transform="scale(0.195312 0.195312)" d="M230.274 333.832L261.746 333.826C274.46 333.822 291.132 331.509 295.621 347.259C297.382 353.435 296.595 371.927 296.585 379.585L220.568 379.585C219.531 363.499 216.699 344.954 230.274 333.832Z"/>
	<path fill="#8EDFF5" transform="scale(0.195312 0.195312)" d="M241.813 207.271L257.605 207.263C290.458 207.167 289.644 220.726 289.079 249.847C288.732 267.722 274.923 294.689 258.011 302.38C242.472 287.009 237.054 282.621 230.274 259.731C224.832 259.302 220.927 259.776 220.115 253.234C219.683 249.754 219.64 236.885 220.232 233.506C221.344 227.16 225.876 228.107 231.247 227.801C231.173 218.1 233.873 213.287 241.813 207.271Z"/>
	<path fill="#5C45B2" transform="scale(0.195312 0.195312)" d="M231.247 227.801L257.022 227.786C274.873 227.786 275.773 225.274 275.858 244.787C275.936 262.746 272.583 259.755 256.747 259.738L230.274 259.731C224.832 259.302 220.927 259.776 220.115 253.234C219.683 249.754 219.64 236.885 220.232 233.506C221.344 227.16 225.876 228.107 231.247 227.801Z"/>
	<path fill="#FDDF79" transform="scale(0.195312 0.195312)" d="M227.587 235.731L268.385 235.731L268.385 251.995L227.587 251.995C227.392 250.213 227.547 248.256 227.554 246.458L227.587 235.731Z"/>
</svg>
