<?xml version="1.0" encoding="utf-8" ?>
<svg xmlns="http://www.w3.org/2000/svg" xmlns:xlink="http://www.w3.org/1999/xlink" width="100" height="100">
	<path fill="#F9AD31" transform="scale(0.195312 0.195312)" d="M164.136 140.309C165.106 142.775 164.817 145.452 165.287 148.015C167.756 161.468 181.61 173.665 195.742 168.775C205.489 165.402 205.539 158.92 210.024 152.4C211.747 165.126 201.41 177.877 189.086 180.087C166.573 184.125 151.278 158.337 164.136 140.309Z"/>
	<path fill="#FED74E" transform="scale(0.195312 0.195312)" d="M164.136 140.309C178.342 120.032 209.566 130.824 210.024 152.4C205.539 158.92 205.489 165.402 195.742 168.775C181.61 173.665 167.756 161.468 165.287 148.015C164.817 145.452 165.106 142.775 164.136 140.309Z"/>
	<path fill="#B2BED0" transform="scale(0.195312 0.195312)" d="M331.818 129.223C335.684 129.241 342.949 128.662 346.386 129.308C351.423 130.254 354.625 136.359 350.542 140.426C347.468 143.486 339.883 142.292 335.96 142.294L256.168 142.288C251.491 142.279 241.018 143.389 237.549 140.328C233.925 137.131 235.576 129.964 240.56 129.388C244.013 128.989 247.657 129.218 251.138 129.217L331.818 129.223Z"/>
	<path fill="#B2BED0" transform="scale(0.195312 0.195312)" d="M340.276 163.532L340.415 163.526C358.887 162.704 352.724 175.937 346.942 176.512C342.939 176.909 338.782 176.696 334.756 176.697L247.875 176.695C244.465 176.775 240.504 177.201 237.637 174.968C234.657 172.646 234.954 167.848 237.44 165.238C240.345 162.189 249.124 163.515 252.904 163.521L340.276 163.532Z"/>
	<path fill="#B2BED0" transform="scale(0.195312 0.195312)" d="M271.982 233.652L337.996 233.636C340.801 233.612 343.729 233.369 346.519 233.657C351.664 234.187 354.58 240.806 350.933 244.66C347.523 248.264 339.167 246.84 334.748 246.833L240.125 246.837L173.804 246.861C168.442 246.908 159.317 248.409 158.822 240.639C158.235 231.433 169.679 233.642 175.486 233.642L271.982 233.652Z"/>
	<path fill="#B2BED0" transform="scale(0.195312 0.195312)" d="M168.197 198.264L326.009 198.258C331.106 198.256 347.034 196.596 350.702 200.3C355.821 205.47 351.56 211.537 343.562 211.438L183.804 211.443C177.781 211.445 171.413 211.876 165.426 211.408C157.817 210.813 153.626 198.001 168.197 198.264Z"/>
	<path fill="#0EFE7A" transform="scale(0.195312 0.195312)" d="M160.773 275.474C165.123 275.362 169.488 275.455 173.839 275.474L174.198 275.799C173.648 284.062 173.823 292.352 173.835 300.628L173.834 353.738C173.819 357.74 173.501 362.085 174.081 366.047C176.153 380.185 194.228 377.731 204.474 377.713L341.02 377.711C345.611 377.71 350.247 377.55 354.831 377.713C355.936 394.777 352.745 393.121 338.54 393.126L176.919 393.143C171.367 393.151 158.644 395.351 158.046 388.099C157.623 382.97 157.977 377.532 157.98 372.379L157.992 299.361C157.99 292.566 157.655 285.611 157.991 278.833C158.851 277.628 159.767 276.557 160.773 275.474Z"/>
	<path fill="#F35C5B" transform="scale(0.195312 0.195312)" d="M194.17 45.2382L206.956 45.2382L266.162 45.2382L365.82 45.2204C376.933 45.2076 386.473 44.2097 388.604 57.5074L388.604 69.7799L320.483 69.7799C319.612 70.7497 318.715 71.6898 317.798 72.6154L300.565 89.6724C284.638 105.477 290.016 101.617 266.492 101.583L232.173 101.641C224.593 101.675 223.998 101.577 218.524 96.1487C214.859 92.5141 194.723 73.1219 194.017 70.2532C193.23 67.056 194.19 50.1476 194.17 45.2382Z"/>
	<path fill="#F9813B" transform="scale(0.195312 0.195312)" d="M206.956 45.2382L266.162 45.2382C265.992 59.8413 266.164 74.4655 266.162 89.0707L229.727 89.0707C226.907 87.1587 208.942 69.4864 206.956 66.5541C206.505 59.4958 207.008 52.317 206.956 45.2382Z"/>
	<path fill="#FEA067" transform="scale(0.195312 0.195312)" d="M266.162 45.2382L365.82 45.2204C376.933 45.2076 386.473 44.2097 388.604 57.5074L315.016 57.5074C302.869 66.585 294.257 79.7165 282.454 89.0707C277.058 89.3521 271.571 89.0459 266.162 89.0707C266.164 74.4655 265.992 59.8413 266.162 45.2382Z"/>
	<path fill="#355883" transform="scale(0.195312 0.195312)" d="M114.04 98.0784L114.384 98.4365C113.567 124.453 114.041 150.601 114.041 176.643L114.034 420.66C114.03 425.595 113.77 430.705 114.169 435.618C115.676 454.136 137.917 450.292 150.826 450.257L386.7 450.279C394.114 450.298 401.567 451.39 407.366 445.776C408.893 444.299 410.429 440.798 412.743 441.625C412.628 461.478 397.913 462.259 383.378 462.252L140.394 462.244C125.796 462.244 103.985 466.301 99.2946 448.22C98.2243 444.093 98.7125 439.201 98.7233 434.957L98.7336 142.913C98.7324 125.471 93.2188 103.172 114.04 98.0784Z"/>
	<path fill="#E6EDF7" transform="scale(0.195312 0.195312)" d="M123.208 98.0784C123.66 88.8249 123.195 78.6557 123.19 69.2956C123.177 46.9773 126.417 45.1939 148.731 45.2382C139.297 53.3383 141.696 59.0725 141.713 70.2348L141.719 370.69C141.728 383.56 137.322 408.253 154.947 409.454C164.762 410.122 174.749 409.753 184.591 409.749L389.267 409.742C389.028 407.01 388.644 404.059 389.267 401.359C389.335 421.804 390.698 426.54 368.854 426.538L143.289 426.532C121.152 426.455 123.212 420.017 123.209 400.532L123.206 119.539C123.204 112.396 123.019 105.216 123.208 98.0784Z"/>
	<path fill="#5575A4" transform="scale(0.195312 0.195312)" d="M389.267 98.0784C411.684 97.9078 412.748 103.99 412.747 124.634L412.743 441.625C410.429 440.798 408.893 444.299 407.366 445.776C401.567 451.39 394.114 450.298 386.7 450.279L150.826 450.257C137.917 450.292 115.676 454.136 114.169 435.618C113.77 430.705 114.03 425.595 114.034 420.66L114.041 176.643C114.041 150.601 113.567 124.453 114.384 98.4365L114.04 98.0784C117.08 98.2268 120.164 98.1068 123.208 98.0784C123.019 105.216 123.204 112.396 123.206 119.539L123.209 400.532C123.212 420.017 121.152 426.455 143.289 426.532L368.854 426.538C390.698 426.54 389.335 421.804 389.267 401.359L389.267 98.0784Z"/>
	<path fill="#56FEC7" transform="scale(0.195312 0.195312)" d="M173.839 275.474C176.041 275.209 178.397 275.439 180.618 275.462L337.687 275.473C349.713 275.451 355.013 271.913 354.873 285.494L354.844 364.183C354.849 367.759 355.277 374.567 354.831 377.713C350.247 377.55 345.611 377.71 341.02 377.711L204.474 377.713C194.228 377.731 176.153 380.185 174.081 366.047C173.501 362.085 173.819 357.74 173.834 353.738L173.835 300.628C173.823 292.352 173.648 284.062 174.198 275.799L173.839 275.474Z"/>
	<path fill="#5575A4" transform="scale(0.195312 0.195312)" d="M284.038 367.072L296.213 367.072C298.777 367.312 297.793 370.424 297.741 372.357L284.038 372.357C284.117 370.582 284.124 368.847 284.038 367.072Z"/>
	<path fill="#5575A4" transform="scale(0.195312 0.195312)" d="M255.231 365.993C256.777 368.704 266.996 366.918 270.155 367.072C270.057 368.796 270.652 370.674 271.028 372.357L256.168 372.357C255.554 370.212 254.867 368.105 254.146 365.993L255.231 365.993Z"/>
	<path fill="#5575A4" transform="scale(0.195312 0.195312)" d="M216.08 362.158L216.08 362.158C214.723 365.483 213.753 368.905 212.787 372.357L197.176 372.357C197.454 371.182 197.844 367.313 199.177 367.072L213.615 367.072C214.259 365.283 215.04 363.744 216.08 362.158Z"/>
	<path fill="#E6EDF7" transform="scale(0.195312 0.195312)" d="M284.038 292.781C288.756 292.797 293.8 293.21 298.472 292.781C298.475 301.124 299.013 364.059 298.037 366.515C297.365 367.153 297.115 367.027 296.213 367.072L284.038 367.072L284.038 292.781Z"/>
	<path fill="#E6EDF7" transform="scale(0.195312 0.195312)" d="M226.679 292.781L243.493 292.781C249.64 307.608 255 322.793 260.594 337.834C261.991 341.592 271.826 365.057 270.155 367.072C266.996 366.918 256.777 368.704 255.231 365.993L254.146 365.993C252.974 362.756 251.814 359.527 250.814 356.231C244.943 355.901 223.255 355.555 218.537 356.502C217.23 357.53 216.593 360.58 216.08 362.158L216.08 362.158C215.04 363.744 214.259 365.283 213.615 367.072L199.177 367.072L198.58 366.873C198.378 365.852 224.885 297.661 226.679 292.781Z"/>
	<path fill="#5575A4" transform="scale(0.195312 0.195312)" d="M219.628 350.465L250.814 350.465C251.047 355.59 253.666 361.1 255.231 365.993L254.146 365.993C252.974 362.756 251.814 359.527 250.814 356.231C244.943 355.901 223.255 355.555 218.537 356.502C217.23 357.53 216.593 360.58 216.08 362.158L216.08 362.158C216.696 358.139 218.268 354.284 219.628 350.465Z"/>
	<path fill="#56FEC7" transform="scale(0.195312 0.195312)" d="M235.032 308.15C235.091 308.211 245.05 335.273 244.765 336.166C241.785 336.029 238.795 336.085 235.812 336.093C232.189 336.116 228.563 336.163 224.939 336.093C227.512 327.393 231.741 316.641 235.032 308.15Z"/>
</svg>
