<?xml version="1.0" encoding="utf-8" ?>
<svg xmlns="http://www.w3.org/2000/svg" xmlns:xlink="http://www.w3.org/1999/xlink" width="100" height="100">
	<path fill="#617CE6" transform="scale(0.195312 0.195312)" d="M389.683 306.222L390.645 306.23C390.989 308.321 390.626 310.939 390.622 313.082L390.614 372.337C390.62 378.889 391.24 387.793 390.235 394.025C388.036 407.654 376.401 419.607 362.766 421.808C353.536 423.299 343.768 422.188 334.435 422.45C333.382 417.067 331.023 412.637 327.869 408.211L345.933 408.231C364.03 408.277 376.017 407.117 377.045 385.841C377.056 378.749 377.117 371.652 377.045 364.559C377.242 362.493 377.086 360.295 377.076 358.215L377.045 306.222L389.683 306.222Z"/>
	<path fill="#617CE6" transform="scale(0.195312 0.195312)" d="M56.1049 142.761C56.0836 134.727 55.2779 123.843 57.3318 116.191C64.9027 87.9872 88.7045 89.2991 111.195 89.3083L350.01 89.2997C356.274 89.296 363.231 88.6577 369.297 90.3493C380.775 93.5501 394.373 107.638 390.621 120.585C386.824 119.331 381.091 119.373 377.045 119.222C376.283 117.67 376.244 115.879 375.722 114.247C371.331 100.524 355.682 102.986 344.458 103.019L140.312 103.018C124.705 103.018 108.584 102.56 93.0412 103.128C67.7121 104.054 70.2629 124.984 70.2326 142.761C68.3295 142.764 66.3607 142.645 64.4662 142.761L56.1049 142.761Z"/>
	<path fill="#BDCBF3" transform="scale(0.195312 0.195312)" d="M64.4662 142.761C66.3304 142.922 68.3818 143.097 70.2326 142.761C70.085 150.931 70.2326 159.119 70.2332 167.291L70.231 216.154C70.2301 235.99 69.5727 256.257 70.8047 276.035C69.8505 285.027 70.2264 294.189 70.2267 303.219L70.2253 372.975C70.2231 378.505 69.8195 384.442 70.6685 389.902C73.4236 407.62 89.5119 408.227 103.124 408.222L310.636 408.223C316.368 408.23 322.144 408.405 327.869 408.211C331.023 412.637 333.382 417.067 334.435 422.45C330.752 422.243 327.063 422.408 323.376 422.431L112.447 422.453C104.245 422.46 93.4606 423.144 85.5914 421.798C71.1127 419.321 58.7903 407.23 56.5325 392.654C55.4411 385.608 56.1079 374.95 56.1087 367.572L56.1049 142.761L64.4662 142.761Z"/>
	<path fill="#8BA6EF" transform="scale(0.195312 0.195312)" d="M70.2326 142.761C70.2629 124.984 67.7121 104.054 93.0412 103.128C108.584 102.56 124.705 103.018 140.312 103.018L344.458 103.019C355.682 102.986 371.331 100.524 375.722 114.247C376.244 115.879 376.283 117.67 377.045 119.222C349.128 119.29 339.357 126.82 319.529 142.228C310.956 142.916 302.424 142.771 293.83 142.772L90.2411 142.754C83.6557 142.749 76.7942 142.343 70.2326 142.761C68.3818 143.097 66.3304 142.922 64.4662 142.761C66.3607 142.645 68.3295 142.764 70.2326 142.761Z"/>
	<path fill="#FEFEFE" transform="scale(0.195312 0.195312)" d="M88.9234 114.549C103.11 115.472 103.072 128.267 91.1069 128.883C79.0841 130.093 75.2314 117.385 88.9234 114.549Z"/>
	<path fill="#FEFEFE" transform="scale(0.195312 0.195312)" d="M146.789 114.549C160.579 113.125 164.538 126.275 151.607 128.883C135.629 128.84 135.861 117.203 146.789 114.549Z"/>
	<path fill="#FEFEFE" transform="scale(0.195312 0.195312)" d="M117.663 114.549C130.692 113.428 134.084 127.578 120.312 128.883C108.115 130.671 103.813 115.864 117.663 114.549Z"/>
	<path fill="#E1E6F4" transform="scale(0.195312 0.195312)" d="M70.8047 276.035C73.8978 289.101 77.0681 302.206 82.5047 314.534C94.3854 341.474 119.138 364.235 145.96 376.242C156.37 380.901 177.662 388.104 188.642 385.446C200.982 382.46 200.32 372.311 202.032 362.848C204.825 347.413 221.146 345.094 234.062 347.61C256.646 352.009 243.671 374.384 257.622 382.897C265.1 387.46 274.407 385.849 282.779 385.849L357.048 385.844C363.666 385.847 370.456 386.273 377.045 385.841C376.017 407.117 364.03 408.277 345.933 408.231L327.869 408.211C322.144 408.405 316.368 408.23 310.636 408.223L103.124 408.222C89.5119 408.227 73.4236 407.62 70.6685 389.902C69.8195 384.442 70.2231 378.505 70.2253 372.975L70.2267 303.219C70.2264 294.189 69.8505 285.027 70.8047 276.035Z"/>
	<path fill="#F9CF85" transform="scale(0.195312 0.195312)" d="M377.045 119.222C381.091 119.373 386.824 119.331 390.621 120.585C433.257 129.657 462.346 172.443 453.235 215.431C451.989 221.313 447.847 233.498 444.201 238.522C441.917 236.817 429.691 240.836 426.035 241.029L426.035 241.029C419.678 241.27 412.929 243.109 406.098 243.395C401.512 243.587 393.523 242.629 389.683 243.473C380.069 252.555 369.025 254.515 363.121 241.029C354.789 240.293 345.467 233.468 339.427 227.914C326.783 216.287 318.817 200.274 316.441 183.32C316.041 180.466 316.597 176.186 314.405 174.028L314.405 174.028C311.16 170.552 308.697 162.092 306.183 160.212C309.782 153.616 314.386 147.677 319.529 142.228C339.357 126.82 349.128 119.29 377.045 119.222Z"/>
	<path fill="#FEFEFE" transform="scale(0.195312 0.195312)" d="M363.121 241.029C357.006 222.717 385.033 214.179 389.998 232.826C390.917 236.275 390.143 240.003 389.683 243.473C380.069 252.555 369.025 254.515 363.121 241.029Z"/>
	<path fill="#FAE1B1" transform="scale(0.195312 0.195312)" d="M396.228 142.228C401.83 141.252 409.41 147.008 413.655 150.175C423.807 157.75 432.35 170.084 434.12 182.81C434.661 186.697 433.547 189.697 429.374 190.192C423.571 190.274 423.889 184.053 422.582 180.089C419.084 169.481 410.883 159.688 400.988 154.585C398.034 153.062 394.832 151.954 392.151 149.948C390.661 146.031 391.771 142.366 396.228 142.228Z"/>
	<path fill="#FEFEFE" transform="scale(0.195312 0.195312)" d="M378.268 148.649C382.089 148.62 390.219 147.403 390.46 152.968C390.706 158.643 386.891 211.44 385.034 213.142C383.401 214.64 378.287 214.106 376.111 214.104C374.246 214.141 370.4 214.593 368.871 213.614C366.526 212.114 366.262 192.725 365.991 189.539C365.601 184.945 362.075 153.334 364.345 150.706C366.947 147.696 374.526 148.622 378.268 148.649Z"/>
	<path fill="#F98989" transform="scale(0.195312 0.195312)" d="M377.045 119.222C381.091 119.373 386.824 119.331 390.621 120.585C433.257 129.657 462.346 172.443 453.235 215.431C451.989 221.313 447.847 233.498 444.201 238.522C441.917 236.817 429.691 240.836 426.035 241.029C427.278 239.104 428.776 237.316 430.091 235.434C455.099 199.673 436.538 151.655 396.907 136.251C364.098 123.498 326.797 141.635 314.405 174.028L314.405 174.028C311.16 170.552 308.697 162.092 306.183 160.212C309.782 153.616 314.386 147.677 319.529 142.228C339.357 126.82 349.128 119.29 377.045 119.222Z"/>
	<path fill="#FEFEFE" transform="scale(0.195312 0.195312)" d="M70.2326 142.761C76.7942 142.343 83.6557 142.749 90.2411 142.754L293.83 142.772C302.424 142.771 310.956 142.916 319.529 142.228C314.386 147.677 309.782 153.616 306.183 160.212C308.697 162.092 311.16 170.552 314.405 174.028L314.405 174.028C316.597 176.186 316.041 180.466 316.441 183.32C318.817 200.274 326.783 216.287 339.427 227.914C345.467 233.468 354.789 240.293 363.121 241.029C369.025 254.515 380.069 252.555 389.683 243.473C393.523 242.629 401.512 243.587 406.098 243.395C412.929 243.109 419.678 241.27 426.035 241.029L426.035 241.029C429.691 240.836 441.917 236.817 444.201 238.522C432.333 259.917 410.583 274.911 386.185 277.509C385.316 285.114 386.285 297.369 386.185 305.49C387.337 305.715 388.559 305.893 389.683 306.222L377.045 306.222L377.076 358.215C377.086 360.295 377.242 362.493 377.045 364.559C377.117 371.652 377.056 378.749 377.045 385.841C370.456 386.273 363.666 385.847 357.048 385.844L282.779 385.849C274.407 385.849 265.1 387.46 257.622 382.897C243.671 374.384 256.646 352.009 234.062 347.61C221.146 345.094 204.825 347.413 202.032 362.848C200.32 372.311 200.982 382.46 188.642 385.446C177.662 388.104 156.37 380.901 145.96 376.242C119.138 364.235 94.3854 341.474 82.5047 314.534C77.0681 302.206 73.8978 289.101 70.8047 276.035C69.5727 256.257 70.2301 235.99 70.231 216.154L70.2332 167.291C70.2326 159.119 70.085 150.931 70.2326 142.761Z"/>
	<path fill="#617CE6" transform="scale(0.195312 0.195312)" d="M276.837 362.489C280.139 362.309 283.537 362.472 286.847 362.475L326.532 362.48C330.61 362.469 338.022 361.505 341.791 363.133C348.74 366.134 347.013 374.33 340.637 376.488C337.024 376.732 333.292 376.519 329.669 376.502L287.991 376.484C282.671 376.491 273.991 378.218 271.489 371.889C269.812 367.644 272.951 363.889 276.837 362.489Z"/>
	<path fill="#617CE6" transform="scale(0.195312 0.195312)" d="M279.298 332.248L334.123 332.213C336.233 332.197 338.55 331.972 340.637 332.248C347.737 333.885 347.612 347.057 343.682 351.234C340.732 354.369 329.166 353.103 325.121 353.102L286.022 353.09C279.242 353.08 271.359 354.277 271.133 344.914C270.976 338.423 271.308 332.242 279.298 332.248Z"/>
	<path fill="#8BA6EF" transform="scale(0.195312 0.195312)" d="M279.298 332.248L334.123 332.213C336.233 332.197 338.55 331.972 340.637 332.248C335.066 332.613 334.505 337.015 334.435 341.852C317.522 342.241 300.51 341.856 283.586 341.852C283.512 338.569 283.511 333.093 279.298 332.248Z"/>
	<path fill="#E1E6F4" transform="scale(0.195312 0.195312)" d="M306.183 160.212C308.697 162.092 311.16 170.552 314.405 174.028L314.405 174.028C316.597 176.186 316.041 180.466 316.441 183.32C318.817 200.274 326.783 216.287 339.427 227.914C345.467 233.468 354.789 240.293 363.121 241.029C369.025 254.515 380.069 252.555 389.683 243.473C393.523 242.629 401.512 243.587 406.098 243.395C412.929 243.109 419.678 241.27 426.035 241.029L426.035 241.029C429.691 240.836 441.917 236.817 444.201 238.522C432.333 259.917 410.583 274.911 386.185 277.509C385.316 285.114 386.285 297.369 386.185 305.49C387.337 305.715 388.559 305.893 389.683 306.222L377.045 306.222L377.076 358.215C377.086 360.295 377.242 362.493 377.045 364.559C376.778 362.671 376.99 360.542 377.005 358.63L377.045 306.222C368.812 305.583 360.153 306.221 351.871 306.225L296.551 306.225C272.533 306.133 271.474 293.431 271.459 273.206L271.455 253.758C271.458 232.077 271.195 210.362 271.47 188.684C271.71 169.737 286.455 169.378 301.573 169.627C303.025 166.444 304.596 163.33 306.183 160.212Z"/>
	<path fill="#EB6769" transform="scale(0.195312 0.195312)" d="M306.183 160.212C308.697 162.092 311.16 170.552 314.405 174.028L314.405 174.028C316.597 176.186 316.041 180.466 316.441 183.32C318.817 200.274 326.783 216.287 339.427 227.914C345.467 233.468 354.789 240.293 363.121 241.029C369.025 254.515 380.069 252.555 389.683 243.473C393.523 242.629 401.512 243.587 406.098 243.395C412.929 243.109 419.678 241.27 426.035 241.029L426.035 241.029C429.691 240.836 441.917 236.817 444.201 238.522C432.333 259.917 410.583 274.911 386.185 277.509C368.7 277.97 357.386 276.879 341.218 269.157C332.813 272.507 313.615 280.401 305.166 282.247C300.763 283.209 295.853 279.763 296.32 274.981C297.154 266.443 305.282 250.643 307.894 240.669L307.974 240.349C294.176 220.372 293.04 191.815 301.573 169.627C303.025 166.444 304.596 163.33 306.183 160.212Z"/>
	<path fill="#FDB25F" transform="scale(0.195312 0.195312)" d="M314.405 174.028L314.405 174.028C316.597 176.186 316.041 180.466 316.441 183.32C318.817 200.274 326.783 216.287 339.427 227.914C345.467 233.468 354.789 240.293 363.121 241.029C369.025 254.515 380.069 252.555 389.683 243.473C393.523 242.629 401.512 243.587 406.098 243.395C412.929 243.109 419.678 241.27 426.035 241.029C425.203 242.128 423.907 243.142 422.944 244.176C400.881 267.839 368.153 268.347 340.637 253.498C333.156 257.791 320.971 263.148 312.974 266.529C316.433 256.903 319.161 247.043 322.736 237.439C308.218 220.905 305.746 193.628 314.405 174.028Z"/>
	<path fill="#617CE6" transform="scale(0.195312 0.195312)" d="M176.683 169.627C183.039 171.702 186.266 168.83 193.248 176.033C198.791 181.752 198.327 188.581 198.244 195.983C231.554 207.157 233.823 235.035 233.691 265.211C233.671 269.689 233.319 274.371 235.012 278.616C239.243 289.226 246.359 287.54 250.242 293.978C250.911 300.927 250.487 313.557 250.228 320.585C249.873 330.225 241.114 327.57 234.561 327.598L217.678 327.629C214.024 327.648 210.373 327.833 206.722 327.625C201.193 337.667 193.973 344.089 182.058 345.718C169.421 346.105 155.983 340.403 151.607 327.625C144.984 327.632 117.47 328.369 113.069 326.748C105.868 324.096 107.671 303.288 108.624 298.043C110.18 289.483 123.455 292.246 123.474 263.997C123.496 230.87 126.056 210.788 160.534 195.983C159.01 183.201 163.787 173.377 176.683 169.627Z"/>
	<path fill="#FEFEFE" transform="scale(0.195312 0.195312)" d="M178.039 183.263C184.533 182.826 184.455 187.456 184.293 192.602L180.711 192.602C178.48 192.629 176.249 192.612 174.019 192.602C173.855 188.092 173.501 185.434 178.039 183.263Z"/>
	<path fill="#51B9F5" transform="scale(0.195312 0.195312)" d="M167.744 327.625C172.784 327.12 187.167 327.189 192.23 327.625C190.947 328.686 189.544 329.598 188.174 330.54C182.549 333.741 167.29 333.134 167.001 327.69L167.744 327.625Z"/>
	<path fill="#8BA6EF" transform="scale(0.195312 0.195312)" d="M121.862 302.756L237.682 302.756L237.682 314.26L121.862 314.26L121.862 302.756Z"/>
	<path fill="#51B9F5" transform="scale(0.195312 0.195312)" d="M131.467 289.334C141.938 268.999 132.626 251.905 139.266 233.381C142.039 225.644 148.805 216.327 156.393 212.769C148.031 242.177 164.412 272.38 193.989 280.584C205.653 283.819 212.455 281.66 222.661 282.754C224.226 284.13 225.385 287.43 226.307 289.334L131.467 289.334Z"/>
	<path fill="#86E1F9" transform="scale(0.195312 0.195312)" d="M156.393 212.769C174.794 200.656 201.399 204.701 213.778 223.532C225.923 242.007 215.834 263.439 222.661 282.754C212.455 281.66 205.653 283.819 193.989 280.584C164.412 272.38 148.031 242.177 156.393 212.769Z"/>
	<path fill="#C0F1FA" transform="scale(0.195312 0.195312)" d="M182.058 207.815C203.682 207.519 225.54 240.428 211.226 245.042C201.385 244.373 207.976 228.117 188.645 221.313C185.231 220.112 178.977 219.359 177.58 215.386C176.425 212.097 179.004 208.771 182.058 207.815Z"/>
</svg>
