<?xml version="1.0" encoding="utf-8" ?>
<svg xmlns="http://www.w3.org/2000/svg" xmlns:xlink="http://www.w3.org/1999/xlink" width="100" height="100">
	<path fill="#7887D5" transform="scale(0.195312 0.195312)" d="M357.54 288.563C358.517 287.911 370.754 283.956 373.797 282.597C373.723 284.597 373.674 286.564 373.797 288.563L373.805 375.011C373.809 382.165 374.059 389.316 372.447 396.343C368.108 415.264 352.986 429.559 333.872 432.877C324.865 434.441 315.11 433.831 305.984 433.827L119.01 433.816C95.6749 433.65 76.3309 417.617 74.2544 393.745C73.9266 389.976 74.0907 386.117 74.0937 382.335L74.1123 364.985L90.7027 364.985C90.4345 369.938 90.7355 374.977 90.6987 379.942C90.5243 403.473 96.2737 417.406 122.277 417.659L308.939 417.672C328.716 417.694 351.06 419.625 356.883 393.751C358.34 387.28 357.534 378.675 357.533 371.94L357.54 334.26C357.839 319.052 357.541 303.778 357.54 288.563Z"/>
	<path fill="#A6A6E7" transform="scale(0.195312 0.195312)" d="M74.1123 364.985L74.112 145.037C74.1051 131.852 72.1478 117.317 77.101 104.766C88.3672 76.2178 109.612 73.0358 135.623 73.0505L318.656 73.0493C322.902 73.0507 327.31 72.913 331.534 73.3792C334.234 73.6771 336.018 75.7103 338.551 76.3468C341.991 77.2111 346.031 77.0962 349.59 77.6737C384.446 83.3299 415.649 109.686 429.394 141.751C452.359 195.325 427.706 259.618 373.797 282.597C373.865 284.582 373.988 286.582 373.797 288.563C373.674 286.564 373.723 284.597 373.797 282.597C370.754 283.956 358.517 287.911 357.54 288.563C350.165 290.115 342.586 291.679 335 291.342C335.45 290.328 335.003 278.045 335 275.784C332.309 275.983 329.544 276.242 326.866 275.784C343.677 275.815 357.144 273.607 372.267 265.756C417.709 242.165 434.415 185.493 410.959 140.418C389.631 99.4333 338.953 80.1267 296.138 98.1326C290.964 100.308 286.673 103.051 281.764 105.628C279.295 104.311 262.031 104.934 258.127 104.932C264.203 98.3279 272.045 93.0941 279.962 88.9365C267.727 88.781 255.47 88.938 243.232 88.9384L136.118 88.9292C130.089 88.9288 123.38 88.3946 117.429 89.3638C100.924 92.0519 90.9112 106.237 90.7102 122.506C90.4136 146.5 90.7027 170.536 90.7027 194.534L90.7027 337.518L90.7027 364.985L74.1123 364.985Z"/>
	<path fill="#9ECAF5" transform="scale(0.195312 0.195312)" d="M144.169 298.006C154.174 303.171 170.256 327.829 174.493 337.518C177.575 336.044 196.002 336.212 199.086 337.518C210.859 328.636 203.029 332.974 212.17 338.505C213.377 337.323 214.355 336.47 216.004 335.99C217.803 336.613 222.753 335.228 225.071 335.274C227.1 335.314 231.423 337.101 232.86 335.298C234.605 335.657 237.105 336.359 238.469 337.518C240.355 334.945 241.83 332.798 244.813 331.414C246.228 332.487 247.317 333.613 249.022 334.26C259.074 336.061 271.748 333.005 280.737 335.298C282.507 334.058 284.117 332.943 286.17 332.208C288.532 333.744 290.425 335.852 292.685 337.518C293.929 336.916 295.106 336.378 296.438 335.99C298.308 336.355 310.236 336.782 311.727 335.99C313.041 336.405 314.591 336.769 315.745 337.518C317.521 335.501 319.359 333.687 321.612 332.208C322.981 333.023 324.276 333.711 325.774 334.26C336.327 334.6 346.972 334.256 357.54 334.26L357.533 371.94C357.534 378.675 358.34 387.28 356.883 393.751C351.06 419.625 328.716 417.694 308.939 417.672L122.277 417.659C96.2737 417.406 90.5243 403.473 90.6987 379.942C90.7355 374.977 90.4345 369.938 90.7027 364.985L90.7027 337.518C94.4053 337.285 109.176 336.897 112.791 337.518C118.693 326.064 133.531 302.352 144.169 298.006Z"/>
	<path fill="#EC8188" transform="scale(0.195312 0.195312)" d="M281.764 381.284C284.992 383.897 287.412 387.453 290.844 390.017C289.094 391.861 287.924 394.162 286.17 396.023C275.914 390.359 274.789 388.341 281.764 381.284Z"/>
	<path fill="#EC8188" transform="scale(0.195312 0.195312)" d="M327.931 379.081C328.836 382.037 330.555 384.612 331.588 387.506C328.965 390.559 325.436 393.906 322.026 396.023C320.524 394.03 319.065 391.736 317.261 390.017C318.903 387.262 324.997 384.594 327.931 379.081Z"/>
	<path fill="#EC8188" transform="scale(0.195312 0.195312)" d="M275.375 362.791C275.844 363.366 278.598 376.834 278.595 377.375C276.311 377.071 274.198 378.924 271.928 378.709C269.532 377.095 267.385 366.527 268.518 364.825C269.534 363.297 273.415 363.277 275.107 362.859L275.375 362.791Z"/>
	<path fill="#EC8188" transform="scale(0.195312 0.195312)" d="M274.278 343.351C276.18 344.391 278.651 345.335 280.737 345.919L280.961 346.247C280.424 347.901 279.226 349.316 278.482 350.886C277.625 352.694 276.923 358.223 275.375 359.236C273.978 357.308 270.088 357.076 268.268 354.806C268.006 352.585 271.518 344.03 274.278 343.351Z"/>
	<path fill="#EC8188" transform="scale(0.195312 0.195312)" d="M321.612 332.208C322.981 333.023 324.276 333.711 325.774 334.26C327.798 336.127 329.952 337.747 331.588 339.984C330.291 342.561 328.633 344.235 327.931 347.142C326.857 346.77 316.914 338.701 315.745 337.518C317.521 335.501 319.359 333.687 321.612 332.208Z"/>
	<path fill="#EC8188" transform="scale(0.195312 0.195312)" d="M331.588 364.104C343.62 366.502 338.714 370.149 337.501 379.081L330.451 379.081C329.62 378.951 328.77 379.042 327.931 379.081C329.601 374.354 331.166 369.105 331.588 364.104Z"/>
	<path fill="#EC8188" transform="scale(0.195312 0.195312)" d="M280.737 335.298C282.507 334.058 284.117 332.943 286.17 332.208C288.532 333.744 290.425 335.852 292.685 337.518C288.924 339.05 282.167 345.625 280.737 345.919L280.737 345.919C278.651 345.335 276.18 344.391 274.278 343.351C275.055 342.611 276.078 341.043 276.249 339.984C277.313 338.115 279.144 336.702 280.737 335.298Z"/>
	<path fill="#A6A6E7" transform="scale(0.195312 0.195312)" d="M274.278 343.351C275.055 342.611 276.078 341.043 276.249 339.984C277.578 342.097 279.105 344.032 280.737 345.919L280.737 345.919C278.651 345.335 276.18 344.391 274.278 343.351Z"/>
	<path fill="#EC8188" transform="scale(0.195312 0.195312)" d="M296.438 392.489C296.715 392.393 310.002 392.541 311.727 392.489C312.114 395.055 312.557 397.647 312.493 400.25C308.828 401.229 299.568 402.095 296.342 400.22C294.492 399.144 296.127 394.175 296.438 392.489Z"/>
	<path fill="#EC8188" transform="scale(0.195312 0.195312)" d="M238.469 337.518C240.355 334.945 241.83 332.798 244.813 331.414C246.228 332.487 247.317 333.613 249.022 334.26C251.445 337.395 255.379 339.685 256.935 343.351C255.403 345.917 252.893 347.302 251.21 349.623C250.209 349.631 245.394 343.096 244.168 341.964C242.736 340.642 239.214 339.185 238.469 337.518Z"/>
	<path fill="#EC8188" transform="scale(0.195312 0.195312)" d="M252.897 351.633C253.602 352.959 253.944 354.35 254.33 355.789C256.604 355.456 258.512 355.376 260.788 355.789C263.555 360.816 262.564 369.358 261.008 374.705L260.788 375.438C258.602 375.256 256.516 375.32 254.33 375.438C253.499 376.052 252.691 376.648 251.954 377.375C252.056 374.168 254.283 369.942 254.537 365.91C254.846 361.027 252.889 356.464 252.897 351.633Z"/>
	<path fill="#EC8188" transform="scale(0.195312 0.195312)" d="M199.086 337.518C210.859 328.636 203.029 332.974 212.17 338.505C181.858 353.805 200.831 402.243 234.509 391.832C245.116 388.553 245.955 382.195 251.954 377.375C249.936 381.086 254.802 383.101 256.935 385.671C254.892 388.862 248.063 395.168 244.813 397.391C242.549 395.478 240.482 393.364 238.469 391.194C236.893 391.74 235.383 392.185 233.742 392.489C233.699 394.918 234.432 399.464 233.119 401.457C230.542 402.536 218.805 402.265 217.42 400.955C216.51 400.094 216.924 393.954 216.937 392.489C215.399 391.776 213.826 391.474 212.17 391.194C209.794 392.913 208.385 395.499 206.184 397.391C202.143 393.96 198.428 390.509 194.02 387.506C195.699 384.82 197.476 383.186 200.004 381.284C199.756 379.643 199.462 378.038 199.086 376.421C196.544 376.499 192.427 378.343 191.051 375.294C188.61 369.883 189.554 357.157 191.798 351.633C193.787 351.756 195.695 351.743 197.686 351.633C198.26 350.511 198.68 349.395 199.086 348.207C195.451 342.944 193.361 342.351 199.086 337.518Z"/>
	<path fill="#EF9389" transform="scale(0.195312 0.195312)" d="M216.004 335.99C217.803 336.613 222.753 335.228 225.071 335.274C227.1 335.314 231.423 337.101 232.86 335.298C234.605 335.657 237.105 336.359 238.469 337.518C239.214 339.185 242.736 340.642 244.168 341.964C245.394 343.096 250.209 349.631 251.21 349.623C251.822 350.263 252.448 350.863 252.897 351.633C252.889 356.464 254.846 361.027 254.537 365.91C254.283 369.942 252.056 374.168 251.954 377.375L251.954 377.375C245.955 382.195 245.116 388.553 234.509 391.832C200.831 402.243 181.858 353.805 212.17 338.505C213.377 337.323 214.355 336.47 216.004 335.99Z"/>
	<path fill="#EC8188" transform="scale(0.195312 0.195312)" d="M223.461 338.505C251.34 336.169 267.734 378.735 228.39 390.017C192.767 390.433 188.693 342.862 223.461 338.505Z"/>
	<path fill="#F8BA86" transform="scale(0.195312 0.195312)" d="M223.461 351.05C239.45 349.752 244.69 370.028 228.39 376.421C210.057 378.732 207.462 354.07 223.461 351.05Z"/>
	<path fill="#EF9389" transform="scale(0.195312 0.195312)" d="M296.438 335.99C298.308 336.355 310.236 336.782 311.727 335.99C313.041 336.405 314.591 336.769 315.745 337.518C316.914 338.701 326.857 346.77 327.931 347.142C334.398 347.102 337.456 347.822 337.734 356.03C337.124 357.93 333.246 359.589 331.588 360.453L331.588 364.104C331.166 369.105 329.601 374.354 327.931 379.081C328.77 379.042 329.62 378.951 330.451 379.081C329.642 378.975 328.688 378.728 327.931 379.081C324.997 384.594 318.903 387.262 317.261 390.017C315.657 391.188 313.656 392.038 311.727 392.489C310.002 392.541 296.715 392.393 296.438 392.489C294.795 391.444 292.621 390.949 290.844 390.017C287.412 387.453 284.992 383.897 281.764 381.284C280.445 380.157 279.429 378.894 278.595 377.375C278.598 376.834 275.844 363.366 275.375 362.791C274.85 361.549 275.014 360.504 275.375 359.236C276.923 358.223 277.625 352.694 278.482 350.886C279.226 349.316 280.424 347.901 280.961 346.247L280.737 345.919L280.737 345.919C282.167 345.625 288.924 339.05 292.685 337.518C293.929 336.916 295.106 336.378 296.438 335.99Z"/>
	<path fill="#EC8188" transform="scale(0.195312 0.195312)" d="M300.36 338.505C335.653 335.915 339.853 382.783 307.81 389.212C273.478 392.476 268.183 343.097 300.36 338.505Z"/>
	<path fill="#F8BA86" transform="scale(0.195312 0.195312)" d="M301.94 351.05C318.449 349.088 322.341 372.848 305.514 376.421C289.322 377.793 284.777 355.054 301.94 351.05Z"/>
	<path fill="#57BB96" transform="scale(0.195312 0.195312)" d="M144.169 298.006C154.174 303.171 170.256 327.829 174.493 337.518C178.992 349.903 182.801 361.147 177.561 374.04C172.607 386.229 164.652 397.066 152.223 402.287C133.439 410.177 116.332 389.744 110.062 374.228C103.621 358.292 106.376 352.685 112.791 337.518C118.693 326.064 133.531 302.352 144.169 298.006Z"/>
	<path fill="#80C7B0" transform="scale(0.195312 0.195312)" d="M169.529 351.05C179.099 367.109 156.254 397.729 142.449 395.634C129.612 393.686 112.89 368.89 115.084 356.492C117.368 343.582 132.41 317.386 144.169 309.251C151.693 316.672 167.526 336.447 168.281 347.142C168.722 348.437 169.181 349.726 169.529 351.05Z"/>
	<path fill="#FCFDFD" transform="scale(0.195312 0.195312)" d="M163.329 344.707C165.195 345.277 166.745 345.89 168.281 347.142C168.722 348.437 169.181 349.726 169.529 351.05C168.585 355.709 158.074 364.892 154.358 368.745C148.667 374.644 142.364 386.453 134.466 378.879C131.685 376.212 124.454 369.312 122.915 366.255C121.034 362.519 125.811 357.782 129.472 357.95C132.989 358.112 137.115 363.984 139.293 366.509C145.11 361.628 156.985 346.219 163.329 344.707Z"/>
	<path fill="#FCFDFD" transform="scale(0.195312 0.195312)" d="M281.764 105.628C286.673 103.051 290.964 100.308 296.138 98.1326C338.953 80.1267 389.631 99.4333 410.959 140.418C434.415 185.493 417.709 242.165 372.267 265.756C357.144 273.607 343.677 275.815 326.866 275.784C270.536 272.74 230.406 220.642 241.263 165.296C246.211 140.076 260.562 119.887 281.764 105.628Z"/>
	<path fill="#F8BA86" transform="scale(0.195312 0.195312)" d="M380.945 175.036C385.92 175.019 394.704 173.822 398.324 177.588C401.351 180.738 400.657 185.449 397.342 188.088C393.501 191.146 385.698 189.794 380.945 189.899C381.718 186.019 380.674 179.375 380.945 175.036Z"/>
	<path fill="#EF9389" transform="scale(0.195312 0.195312)" d="M348.267 189.899C352.255 194.274 356.811 198.309 360.623 202.798C364.503 206.083 367.629 210.117 371.508 213.376C374.647 216.251 380.211 220.131 380.501 224.764C380.761 228.937 377.071 232.568 372.997 232.763C368.268 232.989 363.399 227.367 360.623 223.896C356.928 220.579 353.369 217.088 350.069 213.376C345.9 210.165 341.277 204.653 337.501 200.763C342.954 197.576 345.206 195.499 348.267 189.899Z"/>
	<path fill="#EF9389" transform="scale(0.195312 0.195312)" d="M313.881 189.899C317.429 196.68 320.214 197.146 325.774 200.763C320.987 204.768 316.834 209.821 311.727 213.376C308.785 217.617 304.734 220.891 301.248 224.657C298.52 227.374 294.612 232.272 290.499 232.539C286.362 232.807 281.994 229.114 282.003 224.869C282.012 220.426 287.846 216.304 290.844 213.376C294.215 209.768 297.532 206.06 301.248 202.798C305.413 198.47 309.516 194.025 313.881 189.899Z"/>
	<path fill="#EF9389" transform="scale(0.195312 0.195312)" d="M360.623 142.234C363.957 139.087 369.226 132.418 374.072 132.614C378.495 132.793 381.208 137.17 380.756 141.273C380.209 146.245 374.034 149.517 371.508 153.62C368.981 155.512 361.843 161.805 360.623 164.478C356.025 167.81 352.72 172.462 348.267 175.847C345.328 171.562 341.92 168.547 337.501 165.869C340.557 162.015 346.347 155.907 350.069 152.738C353.784 149.636 357.188 145.672 360.623 142.234Z"/>
	<path fill="#EF9389" transform="scale(0.195312 0.195312)" d="M289.631 152.738C286.385 148.789 280.36 145.37 281.101 139.47C281.647 135.121 286.008 132.255 290.243 132.93C294.467 133.605 298.063 139.004 300.36 142.234C304.184 145.042 307.15 148.671 310.629 151.846C314.036 154.955 322.044 162.37 324.509 165.869C319.455 168.748 316.25 172.175 313.881 177.508C309.42 173.19 305.509 168.018 300.36 164.478C298.845 161.092 292.579 155.234 289.631 152.738Z"/>
	<path fill="#A6A6E7" transform="scale(0.195312 0.195312)" d="M324.509 165.869C328.992 165.043 333.049 164.77 337.501 165.869C341.92 168.547 345.328 171.562 348.267 175.847C349.229 180.936 349.411 184.797 348.267 189.899C345.206 195.499 342.954 197.576 337.501 200.763C333.863 200.949 329.041 200.439 325.774 200.763C320.214 197.146 317.429 196.68 313.881 189.899C314.066 185.514 312.123 182.603 313.881 177.508C316.25 172.175 319.455 168.748 324.509 165.869Z"/>
	<path fill="#F7D283" transform="scale(0.195312 0.195312)" d="M371.508 153.62C376.702 160.765 378.441 166.755 380.945 175.036C380.674 179.375 381.718 186.019 380.945 189.899C379.017 199.905 378.472 205.19 371.508 213.376C367.629 210.117 364.503 206.083 360.623 202.798C356.811 198.309 352.255 194.274 348.267 189.899C349.411 184.797 349.229 180.936 348.267 175.847C352.72 172.462 356.025 167.81 360.623 164.478C361.843 161.805 368.981 155.512 371.508 153.62Z"/>
	<path fill="#FCFDFD" transform="scale(0.195312 0.195312)" d="M360.623 164.478C367.137 178.453 368.636 189.5 360.623 202.798C356.811 198.309 352.255 194.274 348.267 189.899C349.411 184.797 349.229 180.936 348.267 175.847C352.72 172.462 356.025 167.81 360.623 164.478Z"/>
	<path fill="#F7D283" transform="scale(0.195312 0.195312)" d="M325.774 200.763C329.041 200.439 333.863 200.949 337.501 200.763C341.277 204.653 345.9 210.165 350.069 213.376C353.369 217.088 356.928 220.579 360.623 223.896C353.615 229.711 345.207 231.751 336.577 233.742C336.617 238.033 337.718 246.087 334.452 249.26C331.29 252.332 326.397 251.471 323.678 248.291C320.986 245.145 321.888 237.745 322.026 233.742C315.648 231.456 306.057 229.449 301.248 224.657C304.734 220.891 308.785 217.617 311.727 213.376C316.834 209.821 320.987 204.768 325.774 200.763Z"/>
	<path fill="#FCFDFD" transform="scale(0.195312 0.195312)" d="M325.774 200.763C329.041 200.439 333.863 200.949 337.501 200.763C341.277 204.653 345.9 210.165 350.069 213.376C335.381 219.702 325.916 221.466 311.727 213.376C316.834 209.821 320.987 204.768 325.774 200.763Z"/>
	<path fill="#F7D283" transform="scale(0.195312 0.195312)" d="M289.631 152.738C292.579 155.234 298.845 161.092 300.36 164.478C305.509 168.018 309.42 173.19 313.881 177.508C312.123 182.603 314.066 185.514 313.881 189.899C309.516 194.025 305.413 198.47 301.248 202.798C297.532 206.06 294.215 209.768 290.844 213.376C284.738 207.109 281.989 198.192 279.962 189.899C275.39 189.169 268.796 190.527 265.422 187.19C262.398 184.199 262.184 178.998 265.336 176C268.268 173.211 276.011 174.231 279.962 174.246C282.926 166.489 283.263 159.185 289.631 152.738Z"/>
	<path fill="#FCFDFD" transform="scale(0.195312 0.195312)" d="M300.36 164.478C305.509 168.018 309.42 173.19 313.881 177.508C312.123 182.603 314.066 185.514 313.881 189.899C309.516 194.025 305.413 198.47 301.248 202.798C295.223 189.572 290.993 178.445 300.36 164.478Z"/>
	<path fill="#F7D283" transform="scale(0.195312 0.195312)" d="M322.026 131.435C322.016 126.797 320.971 117.017 324.137 113.682C328.358 109.235 336.201 111.611 337.418 117.478C338.147 120.992 337.459 127.6 337.501 131.435C344.262 132.028 356.088 137.1 360.623 142.234C357.188 145.672 353.784 149.636 350.069 152.738C346.347 155.907 340.557 162.015 337.501 165.869C333.049 164.77 328.992 165.043 324.509 165.869C322.044 162.37 314.036 154.955 310.629 151.846C307.15 148.671 304.184 145.042 300.36 142.234C305.525 135.848 314.151 132.84 322.026 131.435Z"/>
	<path fill="#FCFDFD" transform="scale(0.195312 0.195312)" d="M310.629 151.846C324.844 142.651 336.576 143.606 350.069 152.738C346.347 155.907 340.557 162.015 337.501 165.869C333.049 164.77 328.992 165.043 324.509 165.869C322.044 162.37 314.036 154.955 310.629 151.846Z"/>
	<path fill="#BEDFF8" transform="scale(0.195312 0.195312)" d="M90.7027 337.518L90.7027 194.534C90.7027 170.536 90.4136 146.5 90.7102 122.506C90.9112 106.237 100.924 92.0519 117.429 89.3638C123.38 88.3946 130.089 88.9288 136.118 88.9292L243.232 88.9384C255.47 88.938 267.727 88.781 279.962 88.9365C272.045 93.0941 264.203 98.3279 258.127 104.932C262.031 104.934 279.295 104.311 281.764 105.628C260.562 119.887 246.211 140.076 241.263 165.296C230.406 220.642 270.536 272.74 326.866 275.784C329.544 276.242 332.309 275.983 335 275.784C335.003 278.045 335.45 290.328 335 291.342C342.586 291.679 350.165 290.115 357.54 288.563C357.541 303.778 357.839 319.052 357.54 334.26C346.972 334.256 336.327 334.6 325.774 334.26C324.276 333.711 322.981 333.023 321.612 332.208C319.359 333.687 317.521 335.501 315.745 337.518C314.591 336.769 313.041 336.405 311.727 335.99C310.236 336.782 298.308 336.355 296.438 335.99C295.106 336.378 293.929 336.916 292.685 337.518C290.425 335.852 288.532 333.744 286.17 332.208C284.117 332.943 282.507 334.058 280.737 335.298C271.748 333.005 259.074 336.061 249.022 334.26C247.317 333.613 246.228 332.487 244.813 331.414C241.83 332.798 240.355 334.945 238.469 337.518C237.105 336.359 234.605 335.657 232.86 335.298C231.423 337.101 227.1 335.314 225.071 335.274C222.753 335.228 217.803 336.613 216.004 335.99C214.355 336.47 213.377 337.323 212.17 338.505C203.029 332.974 210.859 328.636 199.086 337.518C196.002 336.212 177.575 336.044 174.493 337.518C170.256 327.829 154.174 303.171 144.169 298.006C133.531 302.352 118.693 326.064 112.791 337.518C109.176 336.897 94.4053 337.285 90.7027 337.518Z"/>
	<path fill="#EC8188" transform="scale(0.195312 0.195312)" d="M296.438 327.271C301.522 327.296 306.651 327.029 311.727 327.271C311.962 330.128 311.763 333.119 311.727 335.99C310.236 336.782 298.308 336.355 296.438 335.99L296.171 334.384C295.731 331.821 295.974 329.81 296.438 327.271Z"/>
	<path fill="#EC8188" transform="scale(0.195312 0.195312)" d="M216.004 335.99C216.593 335.475 215.497 328.635 216.596 326.696C218.889 325.848 230.532 325.934 232.868 326.786C233.966 328.523 233.083 333.314 232.86 335.298C231.423 337.101 227.1 335.314 225.071 335.274C222.753 335.228 217.803 336.613 216.004 335.99Z"/>
	<path fill="#9ECAF5" transform="scale(0.195312 0.195312)" d="M115.464 104.344C126.424 103.597 128.469 118.578 117.904 121.631C105.853 122.165 104.457 107.602 115.464 104.344Z"/>
	<path fill="#9ECAF5" transform="scale(0.195312 0.195312)" d="M140.893 104.932C150.15 102.121 154.864 118.86 142.062 121.631C130.776 121.633 129.415 105.757 140.893 104.932Z"/>
	<path fill="#9ECAF5" transform="scale(0.195312 0.195312)" d="M167.241 104.344C176.964 103.884 178.814 119.647 167.241 121.631C156.634 121.697 153.736 105.657 167.241 104.344Z"/>
	<path fill="#57BB96" transform="scale(0.195312 0.195312)" d="M117.904 157.816C130.005 156.576 133.418 171.675 121.707 175.847C109.44 177.502 105.386 160.989 117.904 157.816Z"/>
	<path fill="#EC8188" transform="scale(0.195312 0.195312)" d="M117.904 191.327C130.226 190.61 133.616 205.334 121.707 209.823C109.272 211.095 105.596 194.139 117.904 191.327Z"/>
	<path fill="#F7D283" transform="scale(0.195312 0.195312)" d="M117.904 260.033C130.609 259.191 133.727 274.22 121.707 278.276C108.71 279.978 105.202 264.089 117.904 260.033Z"/>
	<path fill="#9ECAF5" transform="scale(0.195312 0.195312)" d="M119.304 226.831C131.067 225.288 133.415 244.455 120.254 246.155C107.366 245.969 105.917 228.8 119.304 226.831Z"/>
	<path fill="#F7D283" transform="scale(0.195312 0.195312)" d="M164.308 245.455C156.849 246.879 139.582 246.347 147.997 234.376C150.985 230.126 155.256 224.137 160.669 223.262C166.333 222.347 179.269 220.635 180.363 228.184C177.94 232.212 167.969 242.649 164.308 245.455Z"/>
	<path fill="#F7D283" transform="scale(0.195312 0.195312)" d="M163.329 278.276C158.642 278.32 144.414 280.047 146.053 271.472C146.832 267.395 155.085 258.518 158.589 256.241C161.426 254.397 182.541 251.128 179.577 261.313C176.568 265.456 167.654 276.104 163.329 278.276Z"/>
	<path fill="#9ECAF5" transform="scale(0.195312 0.195312)" d="M180.363 228.184C182.451 228.348 184.541 228.132 186.631 228.139L201.89 228.167C206.662 228.165 212.87 227.539 216.363 231.557C219.639 235.326 218.607 241.043 214.715 243.921C211.324 246.429 200.829 245.451 196.749 245.455L177.055 245.463C173.03 245.466 168.219 246.355 164.308 245.455C167.969 242.649 177.94 232.212 180.363 228.184Z"/>
	<path fill="#9ECAF5" transform="scale(0.195312 0.195312)" d="M179.577 261.313C187.947 261.608 204.323 260.181 211.662 261.607C220.141 263.254 219.912 277.393 211.276 278.649C205.958 279.423 197.396 278.84 191.737 278.841L175.386 278.838C172.681 278.835 165.531 279.493 163.329 278.276C167.654 276.104 176.568 265.456 179.577 261.313Z"/>
	<path fill="#9ECAF5" transform="scale(0.195312 0.195312)" d="M152.377 192.908L187.742 192.895C192.513 192.896 208.488 192.281 212.18 193.538C220.193 196.268 219.541 206.542 210.915 209.823C207.878 210.065 204.792 209.859 201.746 209.836L168.75 209.812C163.621 209.83 155.503 210.905 150.728 208.767C142.547 205.105 144.731 195.31 152.377 192.908Z"/>
	<path fill="#9ECAF5" transform="scale(0.195312 0.195312)" d="M152.377 158.783C155.097 158.633 157.903 158.77 160.631 158.771L177.532 158.778C183.469 158.78 208.722 157.616 212.795 159.403C220.973 162.99 218.327 173.395 210.915 175.847C205.629 175.604 200.222 175.851 194.924 175.874L168.56 175.856C163.498 175.854 157.95 176.281 152.931 175.676C143.331 174.519 142.902 160.878 152.377 158.783Z"/>
	<path fill="#7887D5" transform="scale(0.195312 0.195312)" d="M258.127 104.932C262.031 104.934 279.295 104.311 281.764 105.628C260.562 119.887 246.211 140.076 241.263 165.296C230.406 220.642 270.536 272.74 326.866 275.784C329.544 276.242 332.309 275.983 335 275.784C335.003 278.045 335.45 290.328 335 291.342C269.221 293.968 218.088 236.108 224.564 171.254C226.869 148.174 239.984 119.761 258.127 104.932Z"/>
</svg>
