<?xml version="1.0" encoding="utf-8" ?>
<svg xmlns="http://www.w3.org/2000/svg" xmlns:xlink="http://www.w3.org/1999/xlink" width="100" height="100">
	<path fill="#2E54BF" transform="matrix(0.195312 0 0 0.195312 0 3.05176e-05)" d="M64.2433 138.04L64.6203 138.084C66.3044 131.115 67.2587 120.153 74.5169 115.729C75.3176 115.241 87.1241 120.24 87.534 122.165C85.3197 127.486 80.2966 126.275 79.6571 138.475C79.4379 142.657 79.5358 182.889 79.8037 183.54L79.7973 318.168C79.7789 351.605 84.9842 352.06 114.039 352.032L258.433 352.02C258.61 352.337 262.111 365.792 262.407 367.257C263.179 369.502 263.905 371.834 264.909 373.986C266.737 377.278 268.372 380.667 270.088 384.017C273.942 389.26 277.866 394.39 281.898 399.497L151.945 399.51C125.181 399.518 117.818 395.654 117.928 367.257L103.821 367.255C92.4133 367.214 83.5983 366.219 75.1213 357.697C62.6531 345.164 64.2303 333.051 64.2458 316.908L64.2433 138.04Z"/>
	<path fill="#72D1F3" transform="matrix(0.195312 0 0 0.195312 0 3.05176e-05)" d="M133.908 367.257L262.407 367.257C263.179 369.502 263.905 371.834 264.909 373.986C260.554 374.223 256.122 373.997 251.757 373.991L146.327 373.986C146.334 377.308 146.497 380.705 146.327 384.017C131.587 384.338 133.848 380.993 133.908 367.257Z"/>
	<path fill="#FEFEFE" transform="matrix(0.195312 0 0 0.195312 0 3.05176e-05)" d="M264.909 373.986C266.737 377.278 268.372 380.667 270.088 384.017C256.414 383.707 242.663 384.014 228.977 384.015L146.327 384.017C146.497 380.705 146.334 377.308 146.327 373.986L251.757 373.991C256.122 373.997 260.554 374.223 264.909 373.986Z"/>
	<defs>
		<linearGradient id="gradient_0" gradientUnits="userSpaceOnUse" x1="226.64668" y1="224.95644" x2="249.0871" y2="70.18573">
			<stop offset="0" stop-color="#2B8AD1"/>
			<stop offset="1" stop-color="#38BAD4"/>
		</linearGradient>
	</defs>
	<path fill="url(#gradient_0)" transform="matrix(0.195312 0 0 0.195312 0 3.05176e-05)" d="M208.144 104.199C208.163 96.4905 208.644 90.9893 214.388 85.2199C228.153 71.3927 250.707 81.4717 249.832 104.199C264.599 104.204 279.469 104.591 294.225 104.199C294.219 81.4465 316.012 71.2755 330.06 85.8477C335.576 91.5694 336.227 96.6026 336.261 104.199L350.112 104.178C370.08 104.169 386.708 111.498 391.179 133.471C392.184 138.413 391.821 143.681 391.816 148.705L391.796 249.735C386.833 247.772 382.013 245.311 376.793 244.057L376.793 183.54C373.288 183.754 369.76 183.552 366.25 183.543L79.8037 183.54C79.5358 182.889 79.4379 142.657 79.6571 138.475C80.2966 126.275 85.3197 127.486 87.534 122.165C87.1241 120.24 75.3176 115.241 74.5169 115.729C67.2587 120.153 66.3044 131.115 64.6203 138.084L64.2433 138.04C64.32 129.134 68.7598 120.26 75.049 114.108C88.4707 100.981 104.14 104.566 121.007 104.199C121.078 97.005 121.619 91.0965 127.035 85.7852C135.322 77.6582 149.237 77.2808 157.422 85.8281C162.637 91.2736 163.027 97.0059 163.314 104.199L208.144 104.199Z"/>
	<path fill="#FEFEFE" transform="matrix(0.195312 0 0 0.195312 0 3.05176e-05)" d="M227.284 94.7625C232.501 94.0894 234.218 97.6838 234.589 102.033C235.17 108.865 237.741 132.732 230.763 136.241C228.264 136.333 225.645 136.087 224.242 133.659C222.215 130.15 222.756 101.334 223.562 98.5833C224.128 96.6529 225.67 95.7256 227.284 94.7625Z"/>
	<path fill="#FEFEFE" transform="matrix(0.195312 0 0 0.195312 0 3.05176e-05)" d="M314.761 94.7625C317.139 94.572 319.752 95.7886 320.529 98.1982C321.467 101.108 321.244 125.899 320.847 130.104C320.53 133.475 319.11 135.336 315.712 136.241C313.144 136.051 310.065 135.06 309.537 132.159C308.631 127.178 308.856 105.026 309.428 99.7083C309.778 96.458 311.57 95.2451 314.761 94.7625Z"/>
	<path fill="#FEFEFE" transform="matrix(0.195312 0 0 0.195312 0 3.05176e-05)" d="M141.127 94.7625C143.485 94.6481 146.764 96.0286 147.561 98.3983C148.616 101.53 148.429 125.714 148.079 130.216C147.828 133.445 146.637 135.211 143.399 136.241C140.169 136.376 137.966 134.981 136.224 132.236C136.083 127.63 135.739 100.412 136.776 98.0867C137.574 96.2977 139.435 95.4768 141.127 94.7625Z"/>
	<path fill="#72D1F3" transform="matrix(0.195312 0 0 0.195312 0 3.05176e-05)" d="M336.261 119.008L348.345 118.983C372.599 118.966 376.872 128.851 376.814 151.206L376.793 168.093L327.062 168.093L79.8037 168.093C79.7895 160.069 78.9684 140.304 80.9145 133.393C85.9835 115.392 106.773 119.486 121.007 119.509C120.971 128.701 120.293 138.302 127.149 145.479C135.261 153.97 149.331 153.517 157.518 145.357C164.481 138.418 163.328 128.026 163.314 119.008L208.144 119.008C208.151 128.75 207.026 138.208 214.384 145.804C222.333 154.01 235.896 153.559 243.902 145.659C251.029 138.627 249.815 128.161 249.832 119.008L294.225 119.008C294.202 128.302 293.231 138.404 300.321 145.613C308.285 153.709 321.952 153.854 329.946 145.731C337.407 138.15 336.317 128.754 336.261 119.008Z"/>
	<defs>
		<linearGradient id="gradient_1" gradientUnits="userSpaceOnUse" x1="299.75488" y1="414.27231" x2="403.86685" y2="256.9043">
			<stop offset="0" stop-color="#4296F1"/>
			<stop offset="1" stop-color="#6EE0F9"/>
		</linearGradient>
	</defs>
	<path fill="url(#gradient_1)" transform="matrix(0.195312 0 0 0.195312 0 3.05176e-05)" d="M258.433 352.02C255.568 338.787 256.97 322.528 260.504 309.539C274.369 258.582 326.452 230.244 376.793 244.057C382.013 245.311 386.833 247.772 391.796 249.735C397.681 251.959 403.172 255.633 408.128 259.455C442.193 285.726 456.051 329.599 440.559 370.463C415.983 435.288 328.405 452.293 281.898 399.497C277.866 394.39 273.942 389.26 270.088 384.017C268.372 380.667 266.737 377.278 264.909 373.986C263.905 371.834 263.179 369.502 262.407 367.257C262.111 365.792 258.61 352.337 258.433 352.02Z"/>
	<path fill="#FEFEFE" transform="matrix(0.195312 0 0 0.195312 0 3.05176e-05)" d="M348.144 255.71C390.717 251.132 428.641 288.972 431.735 330.428C435.057 374.952 401.273 411.743 357.229 414.77C355.835 414.944 354.404 414.964 353.001 414.982C309.683 415.539 273.382 380.406 272.764 337.002C272.166 294.982 305.434 256.37 348.144 255.71Z"/>
	<path fill="#477CE6" transform="matrix(0.195312 0 0 0.195312 0 3.05176e-05)" d="M352.705 264.567C360.889 265.156 360.701 273.115 360.64 279.467C368.577 281.004 375.565 284.527 381.309 290.245C394.878 303.751 393.253 317.081 393.22 334.531C399.342 340.616 409.396 349.185 409.393 358.014C409.387 371.595 398.42 375.008 386.939 375.043L376.793 375.04C375.898 387.41 366.205 396.575 353.827 397.269C340.131 397.47 330.222 388.793 329.247 375.04L318.936 375.063C307.784 375.072 296.613 372.473 296.417 358.713C296.28 349.106 305.962 341.007 312.287 334.531C312.913 318.554 310.213 306.081 321.623 292.54C327.461 285.613 336.109 280.239 345.249 279.467C345.167 272.776 344.437 265.79 352.705 264.567Z"/>
	<path fill="#FEFEFE" transform="matrix(0.195312 0 0 0.195312 0 3.05176e-05)" d="M345.249 375.04C350.363 374.875 355.521 375.027 360.64 375.04C360.073 377.013 359.553 378.165 358.044 379.623C352.692 383.777 344.964 379.56 344.869 375.354L345.249 375.04Z"/>
	<path fill="#72D1F3" transform="matrix(0.195312 0 0 0.195312 0 3.05176e-05)" d="M352.705 293.858C358.699 293.583 365.157 296.496 369.497 300.504C383.918 313.823 373.741 330.674 378.734 340.884C381.418 346.372 393.8 354.436 394.006 359.069C391.869 361.196 380.602 360.256 377.609 360.257L353.827 360.251L329.63 360.256C324.819 360.256 316.525 360.902 312.121 359.66C309.89 357.411 323.573 345.985 325.472 343.316C333.181 332.486 317.15 296.54 352.705 293.858Z"/>
	<path fill="#FEFEFE" transform="matrix(0.195312 0 0 0.195312 0 3.05176e-05)" d="M79.8037 183.54L366.25 183.543C369.76 183.552 373.288 183.754 376.793 183.54L376.793 244.057C326.452 230.244 274.369 258.582 260.504 309.539C256.97 322.528 255.568 338.787 258.433 352.02L114.039 352.032C84.9842 352.06 79.7789 351.605 79.7973 318.168L79.8037 183.54Z"/>
	<path fill="#72D1F3" transform="matrix(0.195312 0 0 0.195312 0 3.05176e-05)" d="M216.503 280.69L264.249 280.69L264.249 296.208C260.509 295.456 255.971 296.221 252.116 296.221L216.503 296.208C216.511 291.037 216.394 285.86 216.503 280.69Z"/>
	<path fill="#72D1F3" transform="matrix(0.195312 0 0 0.195312 0 3.05176e-05)" d="M295.517 216.524L344.291 216.524L344.291 231.775C338.935 232.05 333.423 231.785 328.049 231.784L295.517 231.775L295.517 216.524Z"/>
	<path fill="#72D1F3" transform="matrix(0.195312 0 0 0.195312 0 3.05176e-05)" d="M216.503 248.265L264.249 248.265C264.265 253.444 264.344 258.631 264.249 263.808C259.066 264.071 253.738 263.821 248.54 263.819L216.503 263.808L216.503 248.265Z"/>
	<path fill="#72D1F3" transform="matrix(0.195312 0 0 0.195312 0 3.05176e-05)" d="M216.503 216.524L280.275 216.524L280.275 231.775L216.503 231.775C216.536 226.757 216.053 221.502 216.503 216.524Z"/>
	<defs>
		<linearGradient id="gradient_2" gradientUnits="userSpaceOnUse" x1="121.45324" y1="313.49435" x2="162.9879" y2="213.64713">
			<stop offset="0" stop-color="#2D55C7"/>
			<stop offset="1" stop-color="#3F77E1"/>
		</linearGradient>
	</defs>
	<path fill="url(#gradient_2)" transform="matrix(0.195312 0 0 0.195312 0 3.05176e-05)" d="M117.316 216.524L153.226 216.536C177.009 216.527 182.215 215.053 182.23 239.257L182.224 281.529C182.217 293.191 184.271 308.556 168.804 310.772L132.087 310.768C108.092 310.79 102.801 313.916 102.799 285.275L102.808 242.049C102.814 230.347 101.849 217.794 117.316 216.524Z"/>
	<path fill="#FEFEFE" transform="matrix(0.195312 0 0 0.195312 0 3.05176e-05)" d="M117.928 231.775L167.272 231.775L167.272 296.208L117.928 296.208L117.928 231.775Z"/>
	<path fill="#477CE6" transform="matrix(0.195312 0 0 0.195312 0 3.05176e-05)" d="M151.587 251.95C154.989 255.061 158.239 258.312 161.494 261.573C156.97 267.744 145.311 278.513 139.578 283.953C138.364 282.756 136.97 281.74 135.628 280.69C132.428 277.072 129.1 273.588 125.603 270.255C129.058 266.989 132.346 263.59 135.628 260.155C136.853 261.492 138.195 262.64 139.578 263.808C143.59 260.971 148.077 255.566 151.587 251.95Z"/>
</svg>
