<?xml version="1.0" encoding="utf-8" ?>
<svg xmlns="http://www.w3.org/2000/svg" xmlns:xlink="http://www.w3.org/1999/xlink" width="100" height="100">
	<path fill="#B1E1FA" transform="scale(0.195312 0.195312)" d="M424.932 110.317C435.437 110.906 437.925 127.006 424.932 129.291C412.571 128.519 409.9 112.836 424.932 110.317Z"/>
	<path fill="#B1E1FA" transform="scale(0.195312 0.195312)" d="M376.326 83.3276C389.018 83.569 389.882 100.461 377.81 102.434C365.318 103.71 363.186 85.1701 376.326 83.3276Z"/>
	<path fill="#B1E1FA" transform="scale(0.195312 0.195312)" d="M102.945 70.8092C114.659 69.9248 118.081 86.8564 105.269 90.0757C92.6649 92.0005 89.6018 73.2776 102.945 70.8092Z"/>
	<path fill="#5D8DE0" transform="scale(0.195312 0.195312)" d="M314.742 341.024C319.984 338.856 340.789 331.494 346.044 330.876C355.892 329.718 363.036 340.234 359.307 349.078C355.583 357.91 346.828 356.994 342.027 360.983C347.216 360.358 361.404 360.667 366.869 360.983C369.876 360.589 372.353 360.625 375.373 360.983C379.964 355.402 385.319 350.501 390.406 345.381C399.449 336.278 409.042 328.618 417.86 343.562C419.162 346.761 419.21 350.721 417.719 353.894C416.173 357.185 387.642 384.765 383.113 389.162C373.176 398.808 373.41 398.273 360.329 402.506C352.193 405.139 344.121 407.93 336.03 410.696C316.785 417.277 319.765 414.054 319.747 434.985L256.984 434.985C256.97 427.24 256.508 419.16 257.213 411.459C260.02 380.77 285.759 350.003 314.742 341.024Z"/>
	<path fill="#4776BA" transform="scale(0.195312 0.195312)" d="M342.027 360.983C347.216 360.358 361.404 360.667 366.869 360.983C369.72 361.011 372.512 360.836 375.373 360.983C366.836 369.624 367.902 371.645 355.518 371.736L333.018 371.754C329.673 371.759 326.043 372.159 322.74 371.777C319.594 371.414 317.88 368.718 321.342 366.806C326.201 364.122 336.372 361.491 342.027 360.983Z"/>
	<defs>
		<linearGradient id="gradient_0" gradientUnits="userSpaceOnUse" x1="161.9776" y1="416.56427" x2="235.23068" y2="287.03616">
			<stop offset="0" stop-color="#82A1E2"/>
			<stop offset="1" stop-color="#50BEFF"/>
		</linearGradient>
	</defs>
	<path fill="url(#gradient_0)" transform="scale(0.195312 0.195312)" d="M240.556 309.689C250.929 315.115 261.357 313.887 271.714 309.689C273.788 310.481 275.718 311.187 277.405 312.686C290.208 315.744 310.091 327.886 314.742 341.024C285.759 350.003 260.02 380.77 257.213 411.459C256.508 419.16 256.97 427.24 256.984 434.985C235.908 434.66 213.815 434.604 192.743 434.985C192.839 417.563 196.049 416.368 178.307 411.32L154.872 404.753C136.3 399.399 138.201 398.535 124.458 384.597L105.003 364.929C98.6146 358.363 88.9903 351.482 95.2544 341.024C99.5629 336.864 106.203 333.553 112.08 336.601C115.727 338.493 135.915 358.994 139.418 364.331C144.141 358.224 159.92 361.479 167.292 360.983C162.128 357.022 155.555 355.941 152.31 349.437C147.505 339.807 155.742 327.337 166.733 329.112C173.09 330.138 188.539 338.136 195.536 341.024C202.545 329.019 216.511 319.785 228.936 314.524C230.478 313.871 232.53 312.728 234.181 312.686C236.212 311.428 238.327 310.533 240.556 309.689Z"/>
	<path fill="#5D8DE0" transform="scale(0.195312 0.195312)" d="M167.292 360.983C175.521 361.032 188.587 357.501 190.675 367.199C189.957 369.127 189.094 370.967 187.147 371.928C184.617 373.176 145.172 372.985 142.629 371.965C139.566 370.736 138.78 367.269 139.418 364.331C144.141 358.224 159.92 361.479 167.292 360.983Z"/>
	<path fill="#F9577C" transform="scale(0.195312 0.195312)" d="M240.556 309.689C250.929 315.115 261.357 313.887 271.714 309.689C273.788 310.481 275.718 311.187 277.405 312.686C272.613 324.358 259.718 339.581 256.984 349.786C253.876 346.531 235.675 317.348 234.181 312.686C236.212 311.428 238.327 310.533 240.556 309.689Z"/>
	<path fill="#FBFCFD" transform="scale(0.195312 0.195312)" d="M183.987 139.663C187.151 119.086 196.809 99.9191 213.921 87.469C258.399 55.1071 322.873 86.7833 327.946 139.663L328.666 140.303C329.942 140.16 329.905 138.701 330.15 137.641C338.749 136.396 347.736 137.547 356.394 137.63L376.133 137.628C382.989 137.598 389.987 137.299 396.73 138.767C413.905 142.504 427.655 158.004 430.117 175.239C431.108 182.18 430.848 189.452 430.831 196.451L430.884 261.229C430.846 270.69 426.927 340.747 417.86 343.562C409.042 328.618 399.449 336.278 390.406 345.381C385.319 350.501 379.964 355.402 375.373 360.983C372.353 360.625 369.876 360.589 366.869 360.983C361.404 360.667 347.216 360.358 342.027 360.983C346.828 356.994 355.583 357.91 359.307 349.078C363.036 340.234 355.892 329.718 346.044 330.876C340.789 331.494 319.984 338.856 314.742 341.024C310.091 327.886 290.208 315.744 277.405 312.686C275.718 311.187 273.788 310.481 271.714 309.689C261.357 313.887 250.929 315.115 240.556 309.689C238.327 310.533 236.212 311.428 234.181 312.686C232.53 312.728 230.478 313.871 228.936 314.524C216.511 319.785 202.545 329.019 195.536 341.024C188.539 338.136 173.09 330.138 166.733 329.112C155.742 327.337 147.505 339.807 152.31 349.437C155.555 355.941 162.128 357.022 167.292 360.983C159.92 361.479 144.141 358.224 139.418 364.331C135.915 358.994 115.727 338.493 112.08 336.601C106.203 333.553 99.5629 336.864 95.2544 341.024C94.4558 341.013 93.6904 340.985 92.8988 340.875C87.0352 334.627 80.7836 290.281 80.3047 281.647C79.7571 271.772 80.0483 261.771 80.0439 251.882L80.0289 192.293C80.049 167.794 86.9753 144.228 115.127 138.55C120.629 137.44 126.256 137.639 131.838 137.642L165.82 137.626C171.073 137.626 179.362 136.612 183.987 139.663Z"/>
	<path fill="#EDB49D" transform="scale(0.195312 0.195312)" d="M288.035 270.129C297.867 274.961 297.471 291.536 285.757 294.462C285.803 291.582 287.733 288.418 288.162 285.47C288.915 280.302 288.041 275.285 288.035 270.129Z"/>
	<path fill="#EDB49D" transform="scale(0.195312 0.195312)" d="M226.004 294.462L225.16 294.239C215.138 291.516 214.6 275.271 224.472 270.129C225.399 275.238 223.871 280.547 224.651 285.758C224.973 287.904 227.234 292.442 226.8 294.205L226.004 294.462Z"/>
	<path fill="#4776BA" transform="scale(0.195312 0.195312)" d="M343.282 214.839C343.215 199.143 343.648 184.66 363.601 184.425L373.075 184.406C395.657 184.451 395.841 195.885 395.794 214.839C390.814 214.695 385.771 214.673 380.792 214.839L359.034 214.839C355.863 214.794 352.686 214.722 349.516 214.839C347.44 214.68 345.36 214.778 343.282 214.839Z"/>
	<path fill="#FBFCFD" transform="scale(0.195312 0.195312)" d="M359.034 214.839C359.02 211.594 358.369 203.967 359.905 201.368C362.245 199.694 377.421 199.612 379.817 201.171C381.534 203.963 380.817 211.382 380.792 214.839L359.034 214.839Z"/>
	<path fill="#4776BA" transform="scale(0.195312 0.195312)" d="M116.014 214.839C115.921 189.39 119.129 184.776 144.326 184.436C167.386 184.125 168.329 194.577 168.24 214.839C163.477 215.215 158.45 214.863 153.662 214.839C149.045 215.174 136.224 215.346 131.759 214.839C128.589 214.805 125.42 214.823 122.251 214.839C120.194 214.724 118.077 214.833 116.014 214.839Z"/>
	<path fill="#FBFCFD" transform="scale(0.195312 0.195312)" d="M131.759 214.839C131.75 210.941 131.189 204.691 132.231 201.101C133.405 200.106 151.721 199.446 153.372 201.317C154.328 204.765 153.643 211.032 153.662 214.839C149.045 215.174 136.224 215.346 131.759 214.839Z"/>
	<path fill="#F4D1BC" transform="scale(0.195312 0.195312)" d="M224.472 270.129L224.652 269.839C226.416 266.944 227.304 263.49 228.795 260.441C241.417 234.634 279.672 240.341 288.035 270.129C288.041 275.285 288.915 280.302 288.162 285.47C287.733 288.418 285.803 291.582 285.757 294.462C280.27 299.709 282.062 302.46 271.714 309.689C261.357 313.887 250.929 315.115 240.556 309.689C236.323 306.432 232.433 302.945 229.463 298.459C228.312 296.721 228.346 294.741 226.004 294.462L226.8 294.205C227.234 292.442 224.973 287.904 224.651 285.758C223.871 280.547 225.399 275.238 224.472 270.129Z"/>
	<path fill="#4AE0D8" transform="scale(0.195312 0.195312)" d="M153.662 214.839C158.45 214.863 163.477 215.215 168.24 214.839C185.026 215.05 181.321 231.831 181.32 243.422L181.309 283.715C180.715 302.939 176.984 304.762 158.029 304.775L122.656 304.777C102.016 304.775 102.953 300.188 102.941 279.434L102.941 237.247C102.949 225.802 101.07 216.035 116.014 214.839C118.077 214.833 120.194 214.724 122.251 214.839C125.42 214.823 128.589 214.805 131.759 214.839C136.224 215.346 149.045 215.174 153.662 214.839Z"/>
	<path fill="#4AE0D8" transform="scale(0.195312 0.195312)" d="M395.794 214.839C411.039 213.025 410.055 224.963 410.059 236.197L410.066 274.363C410.068 277.44 410.279 280.656 410.054 283.715L410.049 287.112C409.901 307.587 394.793 304.181 380.097 304.188C368.777 304.193 357.418 304.376 346.103 304.134C330.784 303.806 330.148 294.109 330.145 281.244L330.155 239.562C330.154 228.649 328.047 213.997 343.282 214.839C345.36 214.778 347.44 214.68 349.516 214.839C352.686 214.722 355.863 214.794 359.034 214.839L380.792 214.839C385.771 214.673 390.814 214.695 395.794 214.839Z"/>
	<defs>
		<linearGradient id="gradient_1" gradientUnits="userSpaceOnUse" x1="185.25845" y1="159.63945" x2="326.47952" y2="134.5683">
			<stop offset="0" stop-color="#369DFC"/>
			<stop offset="1" stop-color="#5DB9F9"/>
		</linearGradient>
	</defs>
	<path fill="url(#gradient_1)" transform="scale(0.195312 0.195312)" d="M183.987 139.663C187.151 119.086 196.809 99.9191 213.921 87.469C258.399 55.1071 322.873 86.7833 327.946 139.663L328.181 146.686C329.453 186.3 297.638 218.931 258.276 219.871C221.154 220.758 188.228 192.27 184.31 155.244C183.758 150.033 184.095 144.882 183.987 139.663Z"/>
	<path fill="#FBFCFD" transform="scale(0.195312 0.195312)" d="M241.994 108.916L270.72 108.916L270.72 134.325L296.228 134.325C296.083 143.535 296.219 152.767 296.228 161.979L270.72 161.979C270.514 164.459 270.69 167.019 270.699 169.51L270.744 183.263C270.759 184.898 271.168 187.473 270.72 189.008C261.153 189.002 251.557 189.19 241.994 189.008L241.994 161.979L215.966 161.979L215.966 134.325L241.994 134.325L241.994 108.916Z"/>
</svg>
