<?xml version="1.0" encoding="utf-8" ?>
<svg xmlns="http://www.w3.org/2000/svg" xmlns:xlink="http://www.w3.org/1999/xlink" width="100" height="100">
	<path fill="#4F61C4" transform="scale(0.195312 0.195312)" d="M181.856 88.9949L181.854 88.761C181.733 70.1678 186.503 67.2527 204.22 67.2418L242.594 67.2418C261.306 67.2519 268.665 67.9726 268.551 88.9949C265.511 88.4891 261.771 88.9298 258.652 88.9949C236.463 89.2805 214.164 89.2496 191.975 88.9949L181.856 88.9949ZM191.975 88.9949C214.164 89.2496 236.463 89.2805 258.652 88.9949C258.638 74.0518 256.313 76.8585 242.197 76.8514L207.162 76.8543C192.706 76.8658 191.777 74.1514 191.975 88.9949Z"/>
	<path fill="#FDBFA0" transform="scale(0.195312 0.195312)" d="M367.753 156.973C370.763 157.583 373.806 159.708 376.334 161.374C403.209 179.09 419.669 208.714 419.786 240.993C419.802 245.258 420.255 250.133 418.393 254.115C405.577 239.724 387.76 228.463 367.753 229.594L367.753 156.973Z"/>
	<defs>
		<linearGradient id="gradient_0" gradientUnits="userSpaceOnUse" x1="62.564754" y1="261.63538" x2="381.80103" y2="297.23605">
			<stop offset="0" stop-color="#5F65BD"/>
			<stop offset="1" stop-color="#7F8FEC"/>
		</linearGradient>
	</defs>
	<path fill="url(#gradient_0)" transform="scale(0.195312 0.195312)" d="M369.013 365.332L369.02 399.069C369.022 413.933 371.508 436.114 350.388 438.046C346.339 438.416 342.081 438.122 338.006 438.119L112.388 438.106C107.745 438.108 102.951 438.453 98.3319 438.132C77.0677 436.651 78.116 415.386 78.121 400.631L78.1208 135.839C78.1218 122.352 75.6936 103.15 93.8816 99.5986C98.5556 98.6859 103.863 99.0193 108.616 99.0168L129.625 99.0166C135.964 99.0165 142.599 98.4773 148.899 99.019C148.385 101.938 148.621 105.545 148.899 108.502L110.742 108.502C87.7349 108.427 87.994 110.718 87.9925 130.898L87.994 400.631C87.9974 424.295 85.8061 428.526 113.104 428.491C120.358 428.482 127.644 428.646 134.894 428.487L325.358 428.487C333.223 428.493 341.971 429.045 349.732 428.176C362.314 426.768 359.567 410.358 359.564 401.712L359.572 365.332C362.733 365.413 365.852 365.415 369.013 365.332Z"/>
	<path fill="#E6ECF7" transform="scale(0.195312 0.195312)" d="M134.894 428.487C127.644 428.646 120.358 428.482 113.104 428.491C85.8061 428.526 87.9974 424.295 87.994 400.631L87.9925 130.898C87.994 110.718 87.7349 108.427 110.742 108.502L110.745 394.498C110.756 405.863 111.639 417.125 110.742 428.487L127.217 428.462C129.584 428.445 132.62 427.931 134.894 428.487Z"/>
	<path fill="#4F61C4" transform="scale(0.195312 0.195312)" d="M367.753 229.594C387.76 228.463 405.577 239.724 418.393 254.115C420.433 256.998 422.632 259.863 424.356 262.949C448.938 306.945 417.434 363.246 369.013 365.332C365.852 365.415 362.733 365.413 359.572 365.332C339.264 362.635 335.251 358.088 320.052 348.375L319.796 348.214C313.975 340.701 310.202 337.695 305.547 328.281C293.606 306.709 295.932 279.474 309.588 259.196C321.425 241.619 338.07 233.446 358.059 229.594C360.829 230.07 364.591 229.227 367.753 229.594Z"/>
	<path fill="#FEC736" transform="scale(0.195312 0.195312)" d="M361.71 238.854C375.973 237.068 391.745 242.84 402.748 251.761C443.295 284.633 421.027 351.282 369.013 356.229C353.659 356.431 341.164 353.15 329.035 343.323C288.042 310.111 307.956 243.971 361.71 238.854Z"/>
	<path fill="#E6ECF7" transform="scale(0.195312 0.195312)" d="M365.152 255.786C370.592 255.426 371.56 258.637 371.525 263.405C380.806 265.975 390.576 278.84 385.872 287.113C384.387 289.726 380.964 290.989 378.339 289.254C375.517 287.388 376.226 283.628 375.564 280.775C372.691 268.4 352.375 273.074 356.289 286.301C358.198 292.75 365.855 290.767 370.905 291.337C392.157 293.733 392.773 324.794 370.684 330.393C371.575 334.283 370.396 337.434 367.041 339.726C360.746 340.247 360.129 335.55 360.311 330.393C339.225 325.177 340.778 295.883 355.795 307.405C355.845 309.655 355.423 312.104 356.125 314.279C359.663 325.234 380.879 319.487 375.717 307.003C372.705 299.718 362.495 303.507 355.926 300.849C339.253 294.103 341.79 271.025 360.311 263.405C360.249 262.094 360.298 260.772 360.311 259.459C361.617 257.593 362.967 256.459 365.152 255.786Z"/>
	<path fill="#809BF3" transform="scale(0.195312 0.195312)" d="M174.594 386.715C177.531 389.391 180.044 392.577 183.012 395.177C184.014 409.077 183.776 408.258 171.019 408.26L155.743 408.237C157.862 407.9 160.278 408.182 162.431 408.204L174.594 408.237C174.435 405.204 174.249 402.114 174.594 399.091C175.101 397.009 174.602 389.397 174.594 386.715Z"/>
	<path fill="#809BF3" transform="scale(0.195312 0.195312)" d="M305.547 206.733C308.075 206.479 325.529 206.246 327.228 207.298C331.063 209.674 329.159 215.57 325.063 216.321L303.572 216.321C298.929 213.268 300.107 207.296 305.547 206.733Z"/>
	<path fill="#809BF3" transform="scale(0.195312 0.195312)" d="M268.551 206.733C273.488 206.738 283.613 206.056 288.022 206.696C294.412 207.624 293.101 215.954 287.197 216.321C283.422 216.311 267.457 217.103 265.226 215.406C261.756 212.767 263.244 206.91 268.551 206.733Z"/>
	<path fill="#809BF3" transform="scale(0.195312 0.195312)" d="M229.239 206.733C232.639 206.722 250.26 206.243 252.229 207.011C256.425 208.647 255.603 215.013 251.517 216.321L228.482 216.321C224.391 213.383 224.768 208.726 229.239 206.733Z"/>
	<path fill="#809BF3" transform="scale(0.195312 0.195312)" d="M185.595 206.733C190.356 206.727 211.771 206.05 214.777 207.424C219.095 209.399 216.889 215.294 212.995 216.321C205.758 216.666 193.837 216.898 186.469 216.455C180.117 216.073 179.911 208.748 185.595 206.733Z"/>
	<path fill="#809BF3" transform="scale(0.195312 0.195312)" d="M201.576 267.001L221.226 266.98C224.787 266.983 239.68 265.013 237.081 272.736C236.479 274.524 235.149 275.472 233.53 276.271C226.059 276.702 210.019 276.965 202.49 276.273C196.602 275.732 195.952 268.122 201.576 267.001Z"/>
	<path fill="#809BF3" transform="scale(0.195312 0.195312)" d="M202.255 347.585C210.244 347.684 218.245 347.61 226.235 347.592C229.975 347.583 242.907 346.014 243.981 351.313C244.758 355.151 241.942 356.548 238.775 356.79L212.62 356.791C209.016 356.8 205.287 357.144 201.701 356.956C195.815 356.648 195.363 348.813 202.255 347.585Z"/>
	<path fill="#809BF3" transform="scale(0.195312 0.195312)" d="M201.576 366.414L227.253 366.408C231.461 366.401 246.886 363.866 243.803 372.658C243.254 374.224 242.153 375.134 240.712 375.858C231.282 376.431 211.131 376.659 201.882 375.821C196.204 375.307 195.924 366.979 201.576 366.414Z"/>
	<path fill="#06B1FB" transform="scale(0.195312 0.195312)" d="M193.4 408.954C193.357 398.354 191.57 385.688 205.735 385.612C208.156 385.846 210.57 385.747 212.995 385.612L212.995 408.954L193.4 408.954Z"/>
	<path fill="#809BF3" transform="scale(0.195312 0.195312)" d="M190.016 187.568L219.738 187.56C223.99 187.558 229.782 187.071 233.878 187.76C239.249 188.665 240.007 197.056 230.407 197.032L201.031 197.039C197.2 197.05 186.089 198.44 183.136 195.955C177.107 190.884 184.412 187.657 190.016 187.568Z"/>
	<path fill="#03AA70" transform="scale(0.195312 0.195312)" d="M164.227 199.026C158.844 209.038 145.838 213.301 135.397 209.173C115.547 201.325 115.693 174.43 134.894 166.333C134.877 167.399 134.586 168.016 134.001 168.917C128.366 177.605 130.126 192.977 139.388 198.647C148.995 204.528 161.668 197.704 164.227 199.026Z"/>
	<path fill="#809BF3" transform="scale(0.195312 0.195312)" d="M202.255 286.296C209.86 286.146 263.231 285.542 266.449 286.924C271.19 288.959 269.978 294.266 264.814 295.789C257.771 296.024 201.95 296.507 199.565 295.059C194.876 292.213 197.976 287.092 202.255 286.296Z"/>
	<path fill="#809BF3" transform="scale(0.195312 0.195312)" d="M213.726 247.399L274.32 247.398C277.137 247.401 280.052 247.282 282.855 247.573C286.657 247.969 288.35 252.779 285.471 255.46C283.023 257.74 273.933 256.979 270.425 256.964L208.923 256.986C205.131 256.99 197.585 258.228 197.227 252.56C196.756 245.1 209.465 247.389 213.726 247.399Z"/>
	<path fill="#00DA76" transform="scale(0.195312 0.195312)" d="M134.894 166.333C151.622 156.959 175.808 178.688 164.227 199.026C161.668 197.704 148.995 204.528 139.388 198.647C130.126 192.977 128.366 177.605 134.001 168.917C134.586 168.016 134.877 167.399 134.894 166.333Z"/>
	<path fill="#809BF3" transform="scale(0.195312 0.195312)" d="M185.595 168.258C189.042 168.099 192.554 168.244 196.011 168.248L310.599 168.27C314.858 168.272 321.079 167.766 325.085 168.402C330.923 169.33 330.293 175.511 325.962 177.885C322.038 178.419 317.195 177.902 313.158 177.892L197.823 177.901C193.674 177.905 179.186 179.789 181.905 171.706C182.574 169.717 183.819 169.102 185.595 168.258Z"/>
	<path fill="#16D2F4" transform="scale(0.195312 0.195312)" d="M205.735 385.612C211.268 385.275 217.037 385.598 222.593 385.6L257.017 385.612C262.513 385.718 268.011 385.598 273.507 385.612L273.486 401.416C273.483 403.877 273.27 406.517 273.507 408.954C267.181 408.703 260.787 409.081 254.449 408.954C249.856 409.094 245.215 408.96 240.617 408.959L212.995 408.954L212.995 385.612C210.57 385.747 208.156 385.846 205.735 385.612Z"/>
	<path fill="#23E1F6" transform="scale(0.195312 0.195312)" d="M257.017 385.612C262.513 385.718 268.011 385.598 273.507 385.612L273.486 401.416C273.483 403.877 273.27 406.517 273.507 408.954C267.181 408.703 260.787 409.081 254.449 408.954C255.308 408.863 256.157 408.918 257.017 408.954L257.048 394.585C257.07 391.615 257.233 388.571 257.017 385.612Z"/>
	<path fill="#83E7F4" transform="scale(0.195312 0.195312)" d="M319.796 385.612L341.993 385.612L341.993 408.954C337.312 409.134 332.625 408.963 327.941 408.955L282.851 408.967C279.774 408.973 276.561 409.189 273.507 408.954C273.27 406.517 273.483 403.877 273.486 401.416L273.507 385.612C278.833 385.395 284.26 385.607 289.595 385.605L319.796 385.612Z"/>
	<path fill="#7C84E8" transform="scale(0.195312 0.195312)" d="M301.713 98.0938C304.82 98.677 307.997 98.1383 311.128 98.1072L337.149 98.0875C341.153 98.0869 348.646 97.535 352.323 98.5034C368.851 102.856 367.764 117.605 367.765 130.713L367.753 156.973L367.753 229.594C364.591 229.227 360.829 230.07 358.059 229.594L358.07 129.482C358.077 121.461 360.345 110.121 349.939 107.889C344.794 106.786 336.727 107.243 331.3 107.241L301.713 107.255L301.713 98.0938Z"/>
	<path fill="#4F61C4" transform="scale(0.195312 0.195312)" d="M292.525 88.9949C295.594 88.7957 298.645 88.7785 301.713 88.9949C301.837 92.0377 301.794 95.051 301.713 98.0938L301.713 107.255C301.487 130.932 294.539 134.238 271.904 134.237L247.954 134.233C221.642 134.226 195.282 134.576 168.975 134.222C153.958 134.021 148.234 122.089 148.899 108.502C148.621 105.545 148.385 101.938 148.899 99.019C149.321 95.8724 148.923 92.1939 148.899 88.9949C151.947 88.853 154.964 88.848 158.012 88.9949L157.986 104.516C157.93 124.934 161.17 125.343 182.395 125.302L255.483 125.285C263.554 125.286 271.695 125.526 279.757 125.266C291.74 124.88 292.592 118.306 292.557 108.097C292.535 101.77 292.236 95.3064 292.525 88.9949Z"/>
	<path fill="#F55681" transform="scale(0.195312 0.195312)" d="M257.017 385.612C256.614 382.787 256.964 379.853 256.985 377.01L256.998 342.49C256.953 336.332 254.478 328.847 261.244 328.376C274.401 327.459 292.252 327.982 305.547 328.281C310.202 337.695 313.975 340.701 319.796 348.214C319.499 352.352 319.782 356.612 319.788 360.769L319.796 385.612L289.595 385.605C284.26 385.607 278.833 385.395 273.507 385.612C268.011 385.598 262.513 385.718 257.017 385.612ZM286.061 344.296C281.301 346.273 282.804 350.474 282.762 354.748C280.031 354.744 277.291 354.697 274.562 354.748C273.277 355.706 272.026 356.598 271.771 358.295C270.713 365.321 278.517 363.75 282.762 363.861C282.768 368.463 281.576 375.852 288.49 374.929C293.522 372.68 292.19 368.517 292.525 363.861C295.914 364.19 299.473 364.791 302.554 362.968C306.565 354.434 298.252 354.656 292.525 354.748C292.073 349.362 293.282 343.731 286.061 344.296Z"/>
	<path fill="#4F61C4" transform="scale(0.195312 0.195312)" d="M119.761 250.24C124.926 245.176 141.463 247.428 148.899 247.399C148.885 250.584 148.824 253.78 148.899 256.964L138.882 256.927C137.055 256.91 135.012 256.705 133.209 256.964C131.887 256.993 130.28 256.778 129.281 257.752C128.435 261.932 129.008 273.45 129.012 278.578C129.031 302.525 124.336 298.603 148.899 298.523C149.339 301.291 148.97 304.59 148.899 307.405C144.902 307.394 132.733 306.728 129.658 307.835L129.536 307.973L129.782 308.305L129.455 308.181C128.216 313.814 128.614 340.553 128.993 347.585L148.899 347.585C149.342 350.498 148.922 353.822 148.899 356.79L148.899 356.79L174.594 356.79L174.594 386.715L174.594 386.715C174.602 389.397 175.101 397.009 174.594 399.091C174.249 402.114 174.435 405.204 174.594 408.237L162.431 408.204C160.278 408.182 157.862 407.9 155.743 408.237L135.395 408.263C130.351 408.265 120.316 410.32 119.872 403.752C119.405 396.835 119.755 389.676 119.756 382.737L119.761 281.383C119.76 271.018 119.534 260.599 119.761 250.24Z"/>
	<path fill="#16D2F4" transform="scale(0.195312 0.195312)" d="M148.899 356.79L148.899 356.79L174.594 356.79L174.594 386.715L174.594 386.715C174.602 389.397 175.101 397.009 174.594 399.091L128.993 399.091C128.556 393.366 128.992 387.33 128.991 381.567L128.993 368.189C128.996 364.665 128.831 361.132 129.476 357.652L129.708 357.756L129.607 357.322C132.401 356.116 145.172 356.777 148.899 356.79Z"/>
	<path fill="#0D76E7" transform="scale(0.195312 0.195312)" d="M158.012 366.414C160.507 367.495 163.812 368.178 163.196 371.474L154.232 380.951C152.356 382.915 150.509 385.161 148.267 386.715C144.723 384.709 141.544 381.545 138.751 378.601C143.175 373.655 143.005 374.837 148.267 377.843C148.576 377.304 149.209 376.45 149.283 375.858C152.372 372.948 155.657 369.96 158.012 366.414Z"/>
	<path fill="#83E7F4" transform="scale(0.195312 0.195312)" d="M148.899 356.79L174.594 356.79L174.594 386.715C170.719 381.663 166.492 376.95 163.196 371.474C163.812 368.178 160.507 367.495 158.012 366.414C155.657 369.96 152.372 372.948 149.283 375.858C148.554 374.399 148.651 359.122 148.899 356.79Z"/>
	<path fill="#06B1FB" transform="scale(0.195312 0.195312)" d="M258.652 88.9949C261.771 88.9298 265.511 88.4891 268.551 88.9949C275.045 89.5288 285.882 89.2406 292.525 88.9949C292.236 95.3064 292.535 101.77 292.557 108.097C292.592 118.306 291.74 124.88 279.757 125.266C271.695 125.526 263.554 125.286 255.483 125.285L182.395 125.302C161.17 125.343 157.93 124.934 157.986 104.516L158.012 88.9949L181.856 88.9949L191.975 88.9949C214.164 89.2496 236.463 89.2805 258.652 88.9949ZM210.303 102.967C204.533 103.269 198.712 106.737 204.377 111.634C206.549 113.511 212.143 112.727 214.78 112.733L272.823 112.737C278.672 112.795 282.674 108.378 278.702 104.618C275.316 101.412 257.637 102.971 252.892 102.971L210.303 102.967Z"/>
	<path fill="#E6ECF7" transform="scale(0.195312 0.195312)" d="M176.198 102.967C181.018 102.147 183.318 111.299 176.198 112.737C168.96 113.3 167.402 103.684 176.198 102.967Z"/>
	<path fill="#E6ECF7" transform="scale(0.195312 0.195312)" d="M190.016 102.967C196.203 101.934 199.572 110.137 193.4 112.737C185.493 114.806 182.924 104.813 190.016 102.967Z"/>
	<path fill="#809BF3" transform="scale(0.195312 0.195312)" d="M148.899 247.399C155.118 247.33 161.341 247.375 167.56 247.381C171.79 247.385 182.209 245.545 182.761 251.641C183.291 257.501 183.021 263.55 183.022 269.43L183.012 395.177C180.044 392.577 177.531 389.391 174.594 386.715L174.594 386.715L174.594 356.79L148.899 356.79L148.899 356.79C148.922 353.822 149.342 350.498 148.899 347.585L128.993 347.585C128.614 340.553 128.216 313.814 129.455 308.181L129.782 308.305L129.536 307.973L129.658 307.835C132.733 306.728 144.902 307.394 148.899 307.405C148.97 304.59 149.339 301.291 148.899 298.523C124.336 298.603 129.031 302.525 129.012 278.578C129.008 273.45 128.435 261.932 129.281 257.752C130.28 256.778 131.887 256.993 133.209 256.964C135.012 256.705 137.055 256.91 138.882 256.927L148.899 256.964C148.824 253.78 148.885 250.584 148.899 247.399Z"/>
	<path fill="#83E7F4" transform="scale(0.195312 0.195312)" d="M128.993 347.585C128.614 340.553 128.216 313.814 129.455 308.181L129.782 308.305L129.536 307.973L129.658 307.835C132.733 306.728 144.902 307.394 148.899 307.405L174.594 307.405L174.594 347.585C166.047 347.59 157.439 347.821 148.899 347.585L148.899 347.585L128.993 347.585Z"/>
	<path fill="#7C84E8" transform="scale(0.195312 0.195312)" d="M138.136 328.281C139.919 326.423 141.737 324.284 143.982 322.988C145.863 324.073 147.346 325.586 148.899 327.082L148.899 327.082C149.788 329.012 148.928 335.228 148.899 337.642C145.479 335.354 141.072 331.224 138.136 328.281Z"/>
	<path fill="#809BF3" transform="scale(0.195312 0.195312)" d="M158.012 317.532C160.836 318.954 162.391 320.425 164.227 322.988C159.911 327.24 153.384 334.136 148.899 337.642C148.928 335.228 149.788 329.012 148.899 327.082C151.311 325.769 155.442 319.729 158.012 317.532Z"/>
	<path fill="#83E7F4" transform="scale(0.195312 0.195312)" d="M148.899 256.964L174.594 256.964L174.604 285.073C174.608 289.489 174.986 294.137 174.594 298.523C166.047 298.525 157.439 298.751 148.899 298.523L148.899 298.523C124.336 298.603 129.031 302.525 129.012 278.578C129.008 273.45 128.435 261.932 129.281 257.752C130.28 256.778 131.887 256.993 133.209 256.964C138.398 257.025 143.721 257.21 148.899 256.964Z"/>
	<path fill="#4F61C4" transform="scale(0.195312 0.195312)" d="M142.866 273.244C145.08 274.683 146.924 276.806 148.899 278.566L148.899 278.566C149.45 279.695 149.039 287.314 148.899 289.168C145.717 285.891 140.496 282.181 138.136 278.566C139.388 276.261 140.632 274.68 142.866 273.244Z"/>
	<path fill="#809BF3" transform="scale(0.195312 0.195312)" d="M159.683 268.248C161.854 269.772 163.683 271.132 165.303 273.244C162.541 276.837 152.382 286.517 148.899 289.168C149.039 287.314 149.45 279.695 148.899 278.566C151.297 277.801 157.226 270.433 159.683 268.248Z"/>
</svg>
