<?xml version="1.0" encoding="utf-8" ?>
<svg xmlns="http://www.w3.org/2000/svg" xmlns:xlink="http://www.w3.org/1999/xlink" width="100" height="100">
	<path fill="#314BBB" transform="matrix(0.195313 0 0 0.195313 0 3.05176e-05)" d="M420.315 421.255C421.379 430.475 431.445 434.683 437.257 426.816C441.414 421.189 436.264 412.018 443.231 410.715C455.91 408.344 447.16 449.683 421.389 438.677C406.817 427.281 411.114 414.996 420.315 421.255Z"/>
	<path fill="#9BA0F9" transform="matrix(0.195313 0 0 0.195313 0 3.05176e-05)" d="M346.936 317.73C356.208 318.083 365.632 317.736 374.923 317.731L420.315 317.73C420.316 320.806 419.974 345.832 420.315 346.499C420.61 351.544 420.338 356.718 420.323 361.783L420.333 411.5C420.336 414.669 420.628 418.116 420.315 421.255C411.114 414.996 406.817 427.281 421.389 438.677C417.392 441.503 392.705 440.231 387.32 440.231L344.478 440.226C337.263 440.224 330.02 440.074 322.809 440.227C323.378 439.852 324.095 440.126 324.73 439.786C339.829 431.712 339.906 425.431 339.9 408.586L339.888 317.73C342.23 317.731 344.597 317.807 346.936 317.73Z"/>
	<path fill="#FEFEFE" transform="matrix(0.195313 0 0 0.195313 0 3.05176e-05)" d="M380.829 330.168C381.849 330.19 387.263 334.148 389.277 335.26C403.705 343.225 403.35 360.937 394.995 356.495C391.126 354.438 393.137 347.235 385.59 343.285L385.273 343.122L385.273 362.593C411.764 371.099 401.15 396.828 385.273 397.479C384.486 400.449 384.061 401.516 380.829 401.972C378.391 401.068 378.049 399.99 377.417 397.479C367.782 396.462 362.106 389.296 360.104 380.124C361.016 377.627 363.879 374.824 366.755 376.135C371.582 378.334 367.236 384.572 377.417 388.288L377.417 371.664C364.791 369.987 356.179 357.197 361.614 345.197C364.763 338.244 370.695 335.776 377.417 333.277C378.357 331.913 379.443 331.044 380.829 330.168Z"/>
	<path fill="#9BA0F9" transform="matrix(0.195313 0 0 0.195313 0 3.05176e-05)" d="M385.273 372.419C392.966 374.191 394.228 380.384 390.118 386.369C388.638 387.437 387.01 387.847 385.273 388.288L385.273 372.419Z"/>
	<path fill="#9BA0F9" transform="matrix(0.195313 0 0 0.195313 0 3.05176e-05)" d="M377.417 343.122C377.564 343.283 377.416 360.876 377.417 362.593C375.424 362.04 373.494 361.348 371.725 360.262C366.145 353.387 369.001 345.042 377.417 343.122Z"/>
	<path fill="#01DBC2" transform="matrix(0.195313 0 0 0.195313 0 3.05176e-05)" d="M80.1694 326.222C85.3366 326.401 90.5495 326.23 95.7217 326.227L125.266 326.222L140.498 326.222C158.951 326.59 154.297 328.961 154.26 347.735L154.253 377.715L154.253 377.715C160.333 378.88 168.128 375.293 172.54 381.259C172.552 386.607 172.147 392.156 172.54 397.479C172.527 406.042 172.419 414.617 172.54 423.179C173.051 433.467 172.42 431.845 169.875 440.227L81.1689 440.246C58.5437 440.287 62.201 435.229 62.2772 416.451C62.3142 407.324 62.1624 398.192 62.269 389.066C62.3681 380.579 64.3723 377.56 73.0255 377.715C72.073 364.856 72.6776 345.796 73.0653 332.839C73.2159 327.807 74.9625 325.99 80.1694 326.222Z"/>
	<path fill="#01BDA4" transform="matrix(0.195313 0 0 0.195313 0 3.05176e-05)" d="M92.8463 391.582C97.2848 391.574 114.785 389.99 115.484 394.171C116.444 399.917 103.262 397.469 98.5014 397.479C95.304 397.473 78.3084 398.224 77.389 397.685C74.0055 395.702 76.9082 392.217 79.6581 391.692C82.1127 391.223 89.7841 391.597 92.8463 391.582Z"/>
	<path fill="#01BDA4" transform="matrix(0.195313 0 0 0.195313 0 3.05176e-05)" d="M79.414 407.002C85.2486 406.941 109.984 406.359 113.877 407.717C117.239 408.89 115.592 412.781 113.02 413.737C107.257 414.032 101.321 413.742 95.5431 413.732C92.2101 413.727 76.8404 415.49 75.8983 411.09C75.3132 408.357 77.0691 407.248 79.414 407.002Z"/>
	<path fill="#01BDA4" transform="matrix(0.195313 0 0 0.195313 0 3.05176e-05)" d="M79.414 422.229C84.3125 422.226 111.593 421.661 114.146 422.891C116.896 424.215 115.896 428.48 113.02 428.993L90.0872 428.995C87.3091 428.992 72.038 430.937 76.4249 423.976C77.1481 422.829 78.1643 422.554 79.414 422.229Z"/>
	<path fill="#FEFEFE" transform="matrix(0.195313 0 0 0.195313 0 3.05176e-05)" d="M156.415 391.582C160.6 391.44 161.956 393.403 163.421 397.118C161.231 403.361 154.399 408.305 149.946 412.915C142.878 420.229 141.762 425.868 133.123 417.375C130.384 414.729 125.991 411.699 125.913 407.558C125.752 399.001 134.711 401.99 139.292 407.002C142.797 403.148 151.957 393.089 156.415 391.582Z"/>
	<path fill="#FED340" transform="matrix(0.195313 0 0 0.195313 0 3.05176e-05)" d="M80.1694 326.222C85.3366 326.401 90.5495 326.23 95.7217 326.227L125.266 326.222L140.498 326.222C158.951 326.59 154.297 328.961 154.26 347.735L154.253 377.715L154.253 377.715L73.0255 377.715C72.073 364.856 72.6776 345.796 73.0653 332.839C73.2159 327.807 74.9625 325.99 80.1694 326.222Z"/>
	<path fill="#FEAB09" transform="matrix(0.195313 0 0 0.195313 0 3.05176e-05)" d="M91.3758 335.746L140.498 335.746C142.895 339.4 143.834 345.724 138.225 346.499C124.353 346.656 106.258 347.437 92.5775 346.442C85.3257 345.915 84.8762 337.182 91.3758 335.746Z"/>
	<path fill="#FEAB09" transform="matrix(0.195313 0 0 0.195313 0 3.05176e-05)" d="M92.8463 355.257L123.797 355.271C128.255 355.281 133.028 354.875 137.443 355.291C144.126 355.921 144.225 365.717 136.731 366.072C123.573 366.307 104.541 367.078 91.6307 365.931C85.2736 365.365 85.2842 356.108 92.8463 355.257Z"/>
	<path fill="#C1DFF8" transform="matrix(0.195313 0 0 0.195313 0 3.05176e-05)" d="M80.1694 326.222C48.8577 242.225 76.5865 146.384 154.05 97.7534C214.896 59.5547 289.771 57.2071 351.335 93.6972C424.692 137.178 459.386 223.596 437.358 305.692C432.791 322.714 428.191 331.541 420.315 346.499C419.974 345.832 420.316 320.806 420.315 317.73L374.923 317.731C365.632 317.736 356.208 318.083 346.936 317.73C344.597 317.807 342.23 317.731 339.888 317.73L339.9 408.586C339.906 425.431 339.829 431.712 324.73 439.786C324.095 440.126 323.378 439.852 322.809 440.227C317.452 440.378 312.048 440.234 306.685 440.234L177.201 440.227L169.875 440.227C172.42 431.845 173.051 433.467 172.54 423.179C172.419 414.617 172.527 406.042 172.54 397.479C172.147 392.156 172.552 386.607 172.54 381.259C168.128 375.293 160.333 378.88 154.253 377.715L154.253 377.715L154.26 347.735C154.297 328.961 158.951 326.59 140.498 326.222L125.266 326.222L95.7217 326.227C90.5495 326.23 85.3366 326.401 80.1694 326.222Z"/>
	<path fill="#1733AA" transform="matrix(0.195313 0 0 0.195313 0 3.05176e-05)" d="M256.592 95.2207C255.345 83.9399 268.634 84.9287 268.169 95.2207C265.893 95.152 263.545 94.9714 261.279 95.2207L256.592 95.2207L256.592 95.2207Z"/>
	<path fill="#3B78ED" transform="matrix(0.195313 0 0 0.195313 0 3.05176e-05)" d="M125.266 302.737C130.341 302.721 135.424 302.65 140.498 302.737L140.498 326.222L125.266 326.222C125.478 318.416 125.271 310.549 125.266 302.737Z"/>
	<path fill="#7A86D5" transform="matrix(0.195313 0 0 0.195313 0 3.05176e-05)" d="M125.266 302.737L125.254 214.012C125.314 202.963 130.366 201.345 140.498 201.748L140.498 302.737C135.424 302.65 130.341 302.721 125.266 302.737Z"/>
	<path fill="#3B78ED" transform="matrix(0.195313 0 0 0.195313 0 3.05176e-05)" d="M203.457 180.766C199.469 182.6 198.123 174.253 196.432 172.195C190.124 164.522 173.568 164.27 168.685 173.628C167.563 175.777 167.383 178.924 165.493 180.554C161.075 181.708 164.448 168.7 164.852 166.76C173.989 122.804 213.074 95.4109 256.592 95.2207L256.592 95.2207C218.015 101.655 202.884 133.87 202.667 169.897C202.65 172.731 201.523 178.473 203.457 180.766Z"/>
	<path fill="#FDB398" transform="matrix(0.195313 0 0 0.195313 0 3.05176e-05)" d="M279.542 96.5909C283.454 96.324 287.618 97.4884 291.371 98.5146C327.31 108.342 355.158 138.101 357.851 176.172C357.97 177.856 357.904 182.278 354.967 181.224C353.27 180.614 349.595 161.75 332.656 167.391C322.052 170.922 322.606 179.947 319.289 181.19C316.788 182.127 316.297 178.588 316.275 176.971C317.334 174.126 315.031 153.785 314.427 149.664C311.958 132.82 306.376 116.253 292.59 105.148C288.523 101.871 283.663 99.784 279.542 96.5909Z"/>
	<path fill="#314BBB" transform="matrix(0.195313 0 0 0.195313 0 3.05176e-05)" d="M350.962 288.966L406.145 288.94C412.201 288.906 418.491 288.334 419.984 295.577C420.937 300.203 420.306 312.308 420.315 317.73L374.923 317.731C365.632 317.736 356.208 318.083 346.936 317.73C344.597 317.807 342.23 317.731 339.888 317.73C339.575 309.308 339.386 297.35 339.888 288.966L350.962 288.966Z"/>
	<path fill="#1733AA" transform="matrix(0.195313 0 0 0.195313 0 3.05176e-05)" d="M339.888 288.966L350.962 288.966L350.962 317.73C349.628 317.691 348.265 317.586 346.936 317.73C344.597 317.807 342.23 317.731 339.888 317.73C339.575 309.308 339.386 297.35 339.888 288.966Z"/>
	<path fill="#1799F9" transform="matrix(0.195313 0 0 0.195313 0 3.05176e-05)" d="M377.417 298.101C382.689 297.926 388.011 298.142 393.29 298.118C397.266 298.1 410.702 296.032 411.542 301.951C411.969 304.961 410.188 307.007 407.312 307.445C402.256 307.531 377.822 308.412 374.734 306.291C370.824 303.606 373.248 298.448 377.417 298.101Z"/>
	<path fill="#FE9A79" transform="matrix(0.195313 0 0 0.195313 0 3.05176e-05)" d="M261.279 95.2207C263.545 94.9714 265.893 95.152 268.169 95.2207C272.003 95.7146 275.737 95.7356 279.542 96.5909C283.663 99.784 288.523 101.871 292.59 105.148C306.376 116.253 311.958 132.82 314.427 149.664C315.031 153.785 317.334 174.126 316.275 176.971C312.593 169.778 305.38 165.149 297.104 166.986C284.402 169.806 286.942 180.58 282.978 180.981C281.548 181.126 279.466 175.083 278.704 173.791C276.209 169.557 271.209 166.639 266.245 166.938C264.644 167.116 262.896 166.96 261.279 166.938C261.644 163.16 261.297 159.2 261.291 155.398L261.271 104.955C261.252 101.791 261.576 98.3292 261.279 95.2207Z"/>
	<path fill="#FDB398" transform="matrix(0.195313 0 0 0.195313 0 3.05176e-05)" d="M256.592 95.2207L261.279 95.2207C261.576 98.3292 261.252 101.791 261.271 104.955L261.291 155.398C261.297 159.2 261.644 163.16 261.279 166.938C259.93 166.977 258.585 166.96 257.235 166.938C243.637 164.061 240.954 181.322 238.259 180.746C235.958 180.255 235.672 176.589 234.946 174.806C231.529 166.416 218.822 164.441 211.587 168.419C204.29 172.431 207.225 176.383 203.457 180.766C201.523 178.473 202.65 172.731 202.667 169.897C202.884 133.87 218.015 101.655 256.592 95.2207Z"/>
	<path fill="#FEFEFE" transform="matrix(0.195313 0 0 0.195313 0 3.05176e-05)" d="M257.235 166.938C258.585 166.96 259.93 166.977 261.279 166.938C262.896 166.96 264.644 167.116 266.245 166.938L266.245 190.472L300.126 190.467C306.086 190.468 312.458 190.036 318.37 190.69C324.446 191.362 323.958 195.878 324.293 200.995C339.986 201.037 339.893 209.03 339.897 222.469L339.888 288.966C339.386 297.35 339.575 309.308 339.888 317.73L339.9 408.586C339.906 425.431 339.829 431.712 324.73 439.786C324.095 440.126 323.378 439.852 322.809 440.227C317.452 440.378 312.048 440.234 306.685 440.234L177.201 440.227L169.875 440.227C172.42 431.845 173.051 433.467 172.54 423.179C172.419 414.617 172.527 406.042 172.54 397.479C172.147 392.156 172.552 386.607 172.54 381.259C168.128 375.293 160.333 378.88 154.253 377.715L154.253 377.715L154.26 347.735C154.297 328.961 158.951 326.59 140.498 326.222L140.498 302.737L140.498 201.748C140.524 197.993 140.285 194.221 140.498 190.472L257.235 190.472C257.178 192.183 257.095 193.885 257.235 195.595C257.342 186.046 257.245 176.488 257.235 166.938Z"/>
	<path fill="#314BBB" transform="matrix(0.195313 0 0 0.195313 0 3.05176e-05)" d="M257.235 166.938C258.585 166.96 259.93 166.977 261.279 166.938C262.896 166.96 264.644 167.116 266.245 166.938L266.245 190.472L266.245 215.949L257.235 215.949L257.235 195.595C257.342 186.046 257.245 176.488 257.235 166.938Z"/>
	<path fill="#C1DFF8" transform="matrix(0.195313 0 0 0.195313 0 3.05176e-05)" d="M196.332 308.272C198.277 308.142 200.147 308.157 202.093 308.272C205.402 311.607 205.641 316.408 202.093 319.633C198.493 319.817 194.827 319.651 191.219 319.648L169.875 319.633C154.724 320.182 161.466 308.809 164.294 308.336C167.303 307.832 170.976 308.252 174.055 308.255L196.332 308.272Z"/>
	<path fill="#01BDA4" transform="matrix(0.195313 0 0 0.195313 0 3.05176e-05)" d="M272.716 397.479C273.206 395.464 300.775 365.957 303.815 364.957L303.828 384.007C303.827 399.152 306.209 397.51 290.845 397.49L272.716 397.479Z"/>
	<path fill="#C1DFF8" transform="matrix(0.195313 0 0 0.195313 0 3.05176e-05)" d="M249.442 330.168L284.229 330.161C288.741 330.159 296.357 329.658 300.554 330.403C305.543 331.289 304.667 339.009 301.194 341.377L297.938 341.377L261.167 341.371C257.041 341.37 252.069 341.993 248.087 341.66C240.802 341.05 240.143 330.287 249.442 330.168Z"/>
	<path fill="#C1DFF8" transform="matrix(0.195313 0 0 0.195313 0 3.05176e-05)" d="M234.423 249.766L276.129 249.77C282.523 249.772 299.706 247.719 303.815 252.198C304.445 255.468 304.347 258.381 301.194 260.281C298.613 260.547 295.809 260.292 293.202 260.29L246.474 260.287C243.081 260.286 236.347 260.761 233.305 260.008C230.984 259.433 229.296 251.902 234.423 249.766Z"/>
	<path fill="#C1DFF8" transform="matrix(0.195313 0 0 0.195313 0 3.05176e-05)" d="M164.933 330.168C173.452 329.901 227.515 329.359 231.287 330.937C235.019 332.498 234.178 340.014 229.779 341.377L186.304 341.375C178.744 341.375 170.952 341.803 163.421 341.377C159.987 337.613 160.791 332.789 164.933 330.168Z"/>
	<path fill="#C1DFF8" transform="matrix(0.195313 0 0 0.195313 0 3.05176e-05)" d="M237.117 227.768L277.41 227.76C281.662 227.754 298.923 226.613 301.942 228.507C306.873 231.599 304.049 238.364 298.822 239.229L254.223 239.193C248.636 239.182 232.413 242.003 231.124 235.085C230.149 229.853 232.345 228.224 237.117 227.768Z"/>
	<path fill="#C1DFF8" transform="matrix(0.195313 0 0 0.195313 0 3.05176e-05)" d="M154.253 377.715C156.621 377.533 166.057 377.302 168.091 377.658C173.777 378.655 172.814 382.196 172.54 386.369L234.995 386.347C237.917 386.343 243.964 385.425 246.219 387.796C249.096 390.821 247.797 396.968 243.295 397.331C238.444 397.721 233.41 397.482 228.538 397.482L202.246 397.476C193.486 397.475 180.895 398.305 172.54 397.479C172.147 392.156 172.552 386.607 172.54 381.259C168.128 375.293 160.333 378.88 154.253 377.715L154.253 377.715Z"/>
	<path fill="#01DBC2" transform="matrix(0.195313 0 0 0.195313 0 3.05176e-05)" d="M272.716 397.479C262.032 400.344 264.81 389.172 264.781 382.601C264.757 377.196 263.664 365.395 265.253 360.638C266.065 359.914 295.338 360.149 298.289 360.041C302.695 359.879 303.806 360.463 303.815 364.957C300.775 365.957 273.206 395.464 272.716 397.479Z"/>
	<path fill="#C1DFF8" transform="matrix(0.195313 0 0 0.195313 0 3.05176e-05)" d="M164.933 360.262C173.88 360.171 240.337 359.16 245.034 360.938C249.983 362.811 248.306 369.922 244.1 371.664C240.985 371.924 237.673 371.685 234.535 371.681L180.821 371.657C176.438 371.667 167.411 372.795 163.417 371.228C160.283 369.997 159.207 362.964 164.933 360.262Z"/>
	<path fill="#C1DFF8" transform="matrix(0.195313 0 0 0.195313 0 3.05176e-05)" d="M220.009 308.272L289.903 308.299C292.949 308.284 296.093 308.017 299.122 308.27C306.439 308.882 306.332 318.932 298.822 319.633C294.449 319.817 289.991 319.643 285.611 319.64L233.999 319.643C230.941 319.643 218.767 320.469 216.463 318.783C213.394 316.536 212.456 308.92 220.009 308.272Z"/>
	<path fill="#C1DFF8" transform="matrix(0.195313 0 0 0.195313 0 3.05176e-05)" d="M167.36 285.992L283.612 286.002C287.862 285.981 299.175 284.482 302.561 287.344C306.37 290.564 304.359 296.769 297.938 297.104C291.053 297.486 283.909 297.109 277.001 297.108L190.368 297.106C184.54 297.106 148.748 300.792 163.421 285.992C164.733 285.96 166.048 285.986 167.36 285.992Z"/>
	<path fill="#FEAB09" transform="matrix(0.195313 0 0 0.195313 0 3.05176e-05)" d="M183.667 215.949C189.787 213.731 198.167 217.492 202.905 221.186C222.004 236.081 211.945 266.111 188.811 268.453C149.971 269.92 152.129 217.41 183.667 215.949Z"/>
	<path fill="#FED340" transform="matrix(0.195313 0 0 0.195313 0 3.05176e-05)" d="M196.332 230.773C212.569 231.448 185.718 253.47 184.214 253.686C181.78 254.036 177.087 248.743 175.42 247.115C173.496 245.19 171.766 243.484 170.526 241.018C174.011 231.009 179.402 238.287 183.667 242.993C186.343 238.925 191.756 232.607 196.332 230.773Z"/>
	<path fill="#7A86D5" transform="matrix(0.195313 0 0 0.195313 0 3.05176e-05)" d="M324.293 200.995C339.986 201.037 339.893 209.03 339.897 222.469L339.888 288.966C339.386 297.35 339.575 309.308 339.888 317.73L339.9 408.586C339.906 425.431 339.829 431.712 324.73 439.786C324.095 440.126 323.378 439.852 322.809 440.227C317.452 440.378 312.048 440.234 306.685 440.234L177.201 440.227L169.875 440.227C172.42 431.845 173.051 433.467 172.54 423.179L185.71 423.179L302.019 423.189C320.372 423.188 324.503 424.318 324.314 405.762L324.293 200.995Z"/>
	<path fill="#3B78ED" transform="matrix(0.195313 0 0 0.195313 0 3.05176e-05)" d="M172.54 423.179L185.71 423.179C184.571 436.389 181.349 433.282 177.201 440.227L169.875 440.227C172.42 431.845 173.051 433.467 172.54 423.179Z"/>
</svg>
