<?xml version="1.0" encoding="utf-8" ?>
<svg xmlns="http://www.w3.org/2000/svg" xmlns:xlink="http://www.w3.org/1999/xlink" width="100" height="100">
	<path fill="#2E59DD" transform="scale(0.195312 0.195312)" d="M210.04 88.2274C208.25 81.2016 217.187 83.1291 222.435 83.177C225.532 83.2053 227.856 84.0932 227.57 87.4923C224.016 90.4404 214.333 90.4819 210.04 88.2274Z"/>
	<path fill="#2E59DD" transform="scale(0.195312 0.195312)" d="M237.059 88.2274C236.098 84.5672 238.012 83.3692 241.372 83.2877C252.492 83.0179 263.686 83.2765 274.814 83.2832L370.347 83.2692C389.029 83.2493 407.382 83.7136 407.743 107.774C407.979 123.54 407.721 139.343 407.735 155.113L407.754 173.688C407.757 176.603 408.825 185.106 406.624 187.382C403.338 188.505 374.8 187.882 368.436 187.883L368.436 220.508L438.609 220.471C459.978 220.277 457.841 225.407 457.813 245.102L457.829 403.863C457.944 421.378 454.483 422.733 437.375 422.742L167.873 422.755C155.27 422.738 151.656 420.889 142.809 412.015C138.567 415.362 125.821 422.958 120.82 424.87C92.4825 410.463 56.7627 382.643 53.8247 348.145C53.5294 344.677 53.7187 341.14 53.7245 337.661L53.7429 290.682C53.7382 287.175 52.8209 277.717 54.1243 274.784C58.7795 271.202 113.017 252.422 120.82 249.696C128.08 252.485 135.352 255.799 142.809 257.996L142.801 121.87C142.801 113.008 141.224 102.409 146.104 94.4906C154.453 80.9425 168.331 83.2806 181.928 83.2613C187.932 83.2527 199.423 80.6094 200.017 87.4923C203.493 87.1116 206.732 86.9033 210.04 88.2274C214.333 90.4819 224.016 90.4404 227.57 87.4923C230.704 87.0677 233.718 86.9094 236.616 88.3337L237.059 88.2274ZM92.1055 286.057C87.3455 287.835 82.6013 289.689 77.8124 291.385L77.8145 325.554C77.816 333.127 76.9376 349.679 79.0476 356.271C84.9903 374.836 106.277 394.35 122.994 403.82C125.527 400.964 128.86 398.79 131.871 396.475C145.208 386.222 161.822 370.363 163.542 353.123C164.242 346.104 163.766 338.649 163.765 331.586L163.754 290.519C154.971 285.214 132.35 279.084 121.428 274.634L92.1055 286.057Z"/>
	<path fill="#22A1F7" transform="scale(0.195312 0.195312)" d="M173.402 386.245C179.606 386.168 185.816 386.231 192.021 386.245C187.711 393.297 183.358 400.284 178.302 406.834C176.251 409.49 171.074 414.689 169.799 416.919C161.845 418.483 153.057 415.3 148.496 408.527C158.19 401.007 165.015 393.149 173.402 386.245Z"/>
	<path fill="#49BCF8" transform="scale(0.195312 0.195312)" d="M382.602 90.0905C390.755 88.9408 399.311 94.5833 400.978 102.757C401.737 106.479 401.497 110.481 401.499 114.263L401.495 181.77L387.875 181.77L368.436 181.77L368.428 114.535C368.431 103.413 369.085 91.7717 382.602 90.0905Z"/>
	<path fill="#F79A1F" transform="scale(0.195312 0.195312)" d="M59.5734 278.475C64.4288 277.133 69.1457 275.178 73.859 273.413L91.43 267.025C92.7743 268.924 92.0957 282.896 92.1055 286.057C87.3455 287.835 82.6013 289.689 77.8124 291.385L77.8145 325.554C77.816 333.127 76.9376 349.679 79.0476 356.271C84.9903 374.836 106.277 394.35 122.994 403.82C123.247 408.082 123.157 412.653 122.994 416.919C122.279 417.428 121.546 417.915 120.82 418.41C96.5367 403.203 68.6619 384.786 60.9039 355.32C58.6541 346.775 59.5831 331.803 59.5826 322.437L59.5734 278.475Z"/>
	<path fill="#49BCF8" transform="scale(0.195312 0.195312)" d="M192.021 386.245L289.264 386.245C289.225 399.085 287.689 406.696 297.445 416.542L297.821 416.919L183.866 416.915C179.197 416.914 174.46 416.739 169.799 416.919C171.074 414.689 176.251 409.49 178.302 406.834C183.358 400.284 187.711 393.297 192.021 386.245Z"/>
	<path fill="#FCB759" transform="scale(0.195312 0.195312)" d="M120.82 256.055C139.196 264.11 162.449 272.973 181.838 279.285L181.843 336.298C181.853 344.761 182.001 352.739 179.548 360.963C172.891 383.275 144.402 407.512 122.994 416.919C123.157 412.653 123.247 408.082 122.994 403.82C125.527 400.964 128.86 398.79 131.871 396.475C145.208 386.222 161.822 370.363 163.542 353.123C164.242 346.104 163.766 338.649 163.765 331.586L163.754 290.519C154.971 285.214 132.35 279.084 121.428 274.634L92.1055 286.057C92.0957 282.896 92.7743 268.924 91.43 267.025C101.156 263.223 110.901 259.33 120.82 256.055Z"/>
	<path fill="#2E59DD" transform="scale(0.195312 0.195312)" d="M120.82 290.519C125.669 291.033 124.089 296.54 124.02 300.058C143.494 306.332 142.859 323.855 137.331 323.137C132.733 322.539 136.112 307.482 121.955 306.012C109.907 304.762 102.276 319.564 110.318 328.507C114.361 333.002 119.019 332.304 124.372 332.59C148.198 333.864 143.092 371.167 124.02 369.774C123.883 373.131 125.567 378.673 120.82 379.116C117.264 377.377 118.301 373.02 118.538 369.774C99.8271 368.779 99.0813 342.037 106.378 346.452C108.035 347.454 107.867 351.952 108.231 353.746C112.847 376.502 146.867 358.407 131.106 341.964C124.932 335.523 117.519 340.62 110.115 336.091C94.3372 326.438 99.651 304.195 118.538 300.058C118.326 296.501 116.863 292.311 120.82 290.519Z"/>
	<defs>
		<linearGradient id="gradient_0" gradientUnits="userSpaceOnUse" x1="317.29651" y1="334.35284" x2="464.63031" y2="309.25037">
			<stop offset="0" stop-color="#D5DFF5"/>
			<stop offset="1" stop-color="white"/>
		</linearGradient>
	</defs>
	<path fill="url(#gradient_0)" transform="scale(0.195312 0.195312)" d="M338.949 226.479L433.858 226.485C437.955 226.468 442.186 226.241 446.269 226.531C453.392 227.039 451.794 232.941 451.783 238.255L451.77 397.21C451.77 406.177 454.9 416.618 443.773 416.919L330.168 416.919C336.259 410.655 334.469 406.664 334.439 398.382L334.457 245.513C334.473 239.775 331.797 227.117 338.949 226.479Z"/>
	<path fill="#9EDDC1" transform="scale(0.195312 0.195312)" d="M351.762 384.25C356.336 384.317 360.951 384.071 365.516 384.25C366.336 384.877 367.091 385.496 367.802 386.245C368.056 390.31 367.922 394.551 367.802 398.625C352.507 398.594 352.285 399.618 351.762 384.25Z"/>
	<path fill="#FCB759" transform="scale(0.195312 0.195312)" d="M382.602 383.481C402.917 382.98 401.086 380.125 400.996 398.625C400.335 395.836 390.782 398.355 387.171 397.41C380.519 395.67 388.084 384.451 382.602 383.481Z"/>
	<path fill="#F79A1F" transform="scale(0.195312 0.195312)" d="M365.516 344.001C361.482 344.017 349.917 344.687 346.711 343.413C344.781 340.747 345.032 323.884 346.35 321.245C347.676 320.185 349.566 320.001 351.199 319.738L351.762 326.167C351.192 329.803 351.68 334.062 351.762 337.751C354.77 337.819 357.778 337.778 360.786 337.751C362.909 337.75 364.874 337.81 366.966 338.205C367.28 340.729 366.876 341.916 365.516 344.001Z"/>
	<path fill="#55BCA7" transform="scale(0.195312 0.195312)" d="M367.802 398.625C367.781 400.433 367.938 402.775 366.492 404.121C364.209 406.249 348.623 406.326 346.323 403.972C345.244 401.314 341.76 380.845 351.762 384.25C352.285 399.618 352.507 398.594 367.802 398.625Z"/>
	<path fill="#9EDDC1" transform="scale(0.195312 0.195312)" d="M384.43 353.969C402.393 354.046 400.917 349.37 400.996 368.342C384.25 368.136 384.375 371.704 384.43 353.969Z"/>
	<path fill="#55BCA7" transform="scale(0.195312 0.195312)" d="M367.802 372.02C367.791 377.711 354.606 376.252 351.051 375.897C343.881 375.181 345.614 369.71 345.658 364.389C345.697 359.588 343.571 351.228 351.199 352.47C353.187 356.939 349.854 366.453 354.98 368.879C360.434 371.46 367.707 366.814 367.802 372.02Z"/>
	<path fill="#55BCA7" transform="scale(0.195312 0.195312)" d="M400.996 338.205C400.973 340.018 401.121 342.885 399.944 344.333C397.427 345.243 381.429 345.067 378.831 343.965C377.15 340.961 377.49 322.737 379.144 320.346C380.704 319.313 382.645 319.665 384.43 319.738C384.399 323.284 383.972 332.023 384.471 335.075C385.341 340.386 397.159 337.939 400.996 338.205Z"/>
	<path fill="#9EDDC1" transform="scale(0.195312 0.195312)" d="M351.199 352.47C357.124 352.453 363.169 350.618 367.802 354.982C367.806 358.664 368.316 369.228 367.802 372.02C367.707 366.814 360.434 371.46 354.98 368.879C349.854 366.453 353.187 356.939 351.199 352.47Z"/>
	<path fill="#F79A1F" transform="scale(0.195312 0.195312)" d="M400.996 398.625C400.999 400.284 401.552 404.274 399.702 405.219C397.605 406.29 379.888 406.346 378.599 403.33C377.205 400.069 375.347 385.064 382.602 383.481C388.084 384.451 380.519 395.67 387.171 397.41C390.782 398.355 400.335 395.836 400.996 398.625Z"/>
	<path fill="#55BCA7" transform="scale(0.195312 0.195312)" d="M434.82 338.205C434.802 340.172 435.066 342.76 433.591 344.247C430.46 345.233 416.035 345.179 412.947 343.935C411.382 342.433 412.276 337.458 412.266 335.506C412.247 331.463 409.824 320.08 415.97 319.738C423.155 319.98 414.986 333.496 419.698 337.223C422.263 339.251 434.347 337.466 434.82 338.205Z"/>
	<path fill="#FCB759" transform="scale(0.195312 0.195312)" d="M351.199 319.738L351.559 319.772C370.219 321.426 366.862 315.706 366.966 338.205C364.874 337.81 362.909 337.75 360.786 337.751C357.778 337.778 354.77 337.819 351.762 337.751C351.68 334.062 351.192 329.803 351.762 326.167L351.199 319.738Z"/>
	<path fill="#55BCA7" transform="scale(0.195312 0.195312)" d="M400.996 368.342C400.982 370.2 401.417 374.179 399.867 375.498C396.51 376.417 381.74 376.354 378.657 375.247C376.838 373.21 377.974 354.797 378.848 353.791C380.67 352.992 382.551 353.624 384.43 353.969C384.375 371.704 384.25 368.136 400.996 368.342Z"/>
	<path fill="#9EDDC1" transform="scale(0.195312 0.195312)" d="M415.97 319.738C418.984 319.302 422.308 319.736 425.37 319.755C436.31 319.821 435.08 319.926 434.785 329.641C434.742 331.061 435.567 337.283 434.82 338.205C434.347 337.466 422.263 339.251 419.698 337.223C414.986 333.496 423.155 319.98 415.97 319.738Z"/>
	<path fill="#9EDDC1" transform="scale(0.195312 0.195312)" d="M384.43 319.738C405.073 319.639 400.911 318.687 400.996 338.205C397.159 337.939 385.341 340.386 384.471 335.075C383.972 332.023 384.399 323.284 384.43 319.738Z"/>
	<path fill="#55BCA7" transform="scale(0.195312 0.195312)" d="M434.82 394.282C434.242 406.829 437.612 405.538 424.63 405.513C420.87 405.506 412.599 407.791 412.225 402.054C411.815 395.757 411.59 356.367 413.248 354.815C414.54 353.605 416.879 353.95 418.506 353.969L418.499 377.431C418.504 398.227 415.708 393.722 434.82 394.282Z"/>
	<path fill="#9EDDC1" transform="scale(0.195312 0.195312)" d="M418.506 353.969C422.307 353.95 430.348 353.302 433.668 354.464C435.367 356.44 435.364 388.903 434.82 394.282C415.708 393.722 418.504 398.227 418.499 377.431L418.506 353.969Z"/>
	<path fill="#2E59DD" transform="scale(0.195312 0.195312)" d="M438.018 286.057C437.84 305.245 435.938 305.338 417.932 305.335L370.97 305.332C361.711 305.356 347.84 308.004 345.961 295.374C344.982 288.79 345.103 262.927 345.784 255.756C347.015 242.79 360.823 245.008 370.099 245.033L417.45 245.033C424.627 245.027 436.465 243.148 437.938 252.996C438.397 256.067 439.325 271.435 436.299 273.502C426.559 271.918 435.344 256.192 430.954 252.045C428.351 249.585 409.334 250.799 405.276 250.799L363.233 250.806L363.223 274.419C363.223 283.619 361.548 292.126 368.436 299.283C373.227 299.112 378.086 299.275 382.883 299.278L411.94 299.304C414.89 299.306 427.924 300.168 430.019 298.591C434.348 295.334 428.179 282.765 436.299 284.35C436.945 284.847 437.469 285.459 438.018 286.057Z"/>
	<path fill="#55BCA7" transform="scale(0.195312 0.195312)" d="M368.436 299.283C364.107 300.256 352.468 301.303 351.944 294.841C351.474 289.042 350.705 254.647 353.384 252.21C355.633 250.163 360.364 250.752 363.233 250.806L363.223 274.419C363.223 283.619 361.548 292.126 368.436 299.283Z"/>
	<path fill="#9EDDC1" transform="scale(0.195312 0.195312)" d="M363.233 250.806L405.276 250.799C409.334 250.799 428.351 249.585 430.954 252.045C435.344 256.192 426.559 271.918 436.299 273.502C436.759 275.144 436.545 282.429 436.299 284.35C428.179 282.765 434.348 295.334 430.019 298.591C427.924 300.168 414.89 299.306 411.94 299.304L382.883 299.278C378.086 299.275 373.227 299.112 368.436 299.283C361.548 292.126 363.223 283.619 363.223 274.419L363.233 250.806Z"/>
	<path fill="#DEE9F8" transform="scale(0.195312 0.195312)" d="M227.57 87.4923C230.704 87.0677 233.718 86.9094 236.616 88.3337L237.059 88.2274C242.217 90.7032 248.808 89.4873 254.385 89.4838L370.113 89.4718C361.535 97.1878 362.357 105.79 362.374 116.289L362.394 220.508L347.246 220.481C324.249 220.48 328.508 226.413 328.527 246.936L328.523 409.645C321.609 416.646 312.303 419.352 303.643 413.868C289.53 404.93 298.279 384.558 294.605 381.004C292.773 379.231 283.186 380.262 280.555 380.266L176.766 380.273C188.507 360.72 187.647 354.079 187.65 332.162L187.645 300.451C187.645 296.353 188.146 278.153 187.377 275.738C186.648 273.452 152.617 262.055 148.799 260.516L148.8 164.529C148.8 146.972 148.377 129.318 148.824 111.773C149.319 92.3364 154.97 89.2971 171.969 89.4301L190.876 89.5351C193.961 89.5441 197.41 90.0233 199.789 87.7183L200.017 87.4923C203.493 87.1116 206.732 86.9033 210.04 88.2274C214.333 90.4819 224.016 90.4404 227.57 87.4923Z"/>
	<path fill="#2E59DD" transform="scale(0.195312 0.195312)" d="M205.588 275.784L217.9 275.764C220.855 275.77 234.745 275.715 227.57 281.846L226.821 281.897C225.035 282.007 195.707 284.593 205.588 275.784Z"/>
	<path fill="#2E59DD" transform="scale(0.195312 0.195312)" d="M205.588 252.839C207.461 252.577 240.599 252.66 242.173 253.061C245.424 253.888 244.567 257.585 242.233 258.886C233.307 259.76 216.539 259.205 207.397 258.915C202.965 258.774 202.01 255.052 205.588 252.839Z"/>
	<path fill="#2E59DD" transform="scale(0.195312 0.195312)" d="M276.582 252.839L294.509 252.853C295.596 252.853 310.534 252.241 305.905 257.282C303.018 260.426 290.434 258.887 286.375 258.886L270.584 258.912C267.967 258.94 257.509 260.297 257.488 255.845C257.466 251.047 273.422 252.829 276.582 252.839Z"/>
	<path fill="#2E59DD" transform="scale(0.195312 0.195312)" d="M245.681 275.784L284.57 275.783C289.235 275.782 300.964 275.185 304.783 276.263C306.97 278.687 306.021 281.648 302.813 281.846L263.908 281.848C258.09 281.848 252.166 282.097 246.361 281.909C241.446 281.749 240.534 276.617 245.681 275.784Z"/>
	<path fill="#2E59DD" transform="scale(0.195312 0.195312)" d="M210.04 298.283L291.38 298.27C294.228 298.262 302.677 297.349 304.925 299.213C309.371 302.901 302.874 304.254 299.875 304.251L216.945 304.253C213.599 304.252 210.16 304.413 206.826 304.232C203 304.024 200.697 298.537 210.04 298.283Z"/>
	<path fill="#2E59DD" transform="scale(0.195312 0.195312)" d="M235.392 229.619L280.315 229.622C284.644 229.622 302.293 228.376 305.169 230.456C307.505 232.145 305.96 235.317 303.467 235.659C300.881 236.015 297.794 235.663 295.159 235.661L275.45 235.656L231.082 235.658C226.626 235.661 202.721 238.173 203.258 232.29C203.608 228.453 213.99 229.617 216.371 229.616L235.392 229.619Z"/>
	<path fill="#2E59DD" transform="scale(0.195312 0.195312)" d="M207.005 321.973L269.674 321.981C275.026 321.981 301.322 320.828 304.567 322.614C307.672 324.322 305.423 327.555 302.813 328.044L216.926 328.05C213.701 328.061 210.434 328.244 207.214 328.123C202.145 327.933 201.204 322.745 207.005 321.973Z"/>
	<path fill="#FCB759" transform="scale(0.195312 0.195312)" d="M252.181 114.56C260.765 111.623 277.382 119.589 284.053 125.04C314.887 150.238 298.698 200.848 256.459 204.732C243.287 205.113 232.827 202.069 222.911 193.055C192.707 165.6 211.643 115.886 252.181 114.56Z"/>
	<path fill="#2E59DD" transform="scale(0.195312 0.195312)" d="M275.45 141.516C286.134 143.66 263.396 162.125 260.076 165.59C243.57 182.821 248.419 182.545 233.437 166.099C231.17 163.619 227.526 157.847 233.983 158.205C235.709 158.301 244.791 169.035 246.514 170.839C249.816 166.73 271.55 143.159 275.45 141.516Z"/>
</svg>
