<?xml version="1.0" encoding="utf-8" ?>
<svg xmlns="http://www.w3.org/2000/svg" xmlns:xlink="http://www.w3.org/1999/xlink" width="100" height="100">
	<path fill="#4C6AB4" transform="scale(0.195312 0.195312)" d="M89.4221 212.743C96.5857 212.751 95.1097 227.346 93.9019 230.531C93.4827 231.636 92.2369 232.163 91.2508 232.623C84.1978 233.709 82.0055 216.147 89.4221 212.743Z"/>
	<path fill="#E2F0F7" transform="scale(0.195312 0.195312)" d="M111.847 131.627L112.061 131.894C113.218 141.83 123.277 149.99 132.458 152.073C121.698 155.123 115.979 161.759 111.847 172.097L111.554 172.098C108.522 162.027 101.713 154.765 91.2508 152.073C101.201 148.219 108.839 142.528 111.847 131.627Z"/>
	<path fill="#4C6AB4" transform="scale(0.195312 0.195312)" d="M89.4221 242.245C91.3992 241.959 93.3191 241.817 94.0926 244.086C94.7904 246.133 94.4853 293 94.2817 298.821C94.1551 302.438 94.2012 304.038 90.3844 305.172C88.1298 304.96 86.8943 303.935 85.5583 302.147L85.5525 264.554C85.5496 258.433 82.731 243.203 89.4221 242.245Z"/>
	<path fill="#FEB04F" transform="scale(0.195312 0.195312)" d="M410.513 252.601C426.441 251.005 432.52 277.598 411.827 281.306C393.025 280.81 391.041 254.443 410.513 252.601Z"/>
	<path fill="#4C6AB4" transform="scale(0.195312 0.195312)" d="M263.065 94.2562C276.172 93.9199 289.379 94.25 302.496 94.2562L302.496 102.712L267.501 102.674C252.468 102.622 253.06 109.174 253.134 122.625L253.134 153.254C250.487 153.08 247.733 153.236 245.075 153.254C245.327 149.907 245.094 146.381 245.088 143.016L245.065 122.284C245.063 107.542 245.942 96.2946 263.065 94.2562Z"/>
	<path fill="#FEB04F" transform="scale(0.195312 0.195312)" d="M148.905 87.602C171.485 87.5245 173.516 118.388 151.249 121.779C126.84 122.191 126.989 89.4575 148.905 87.602Z"/>
	<path fill="#4C6AB4" transform="scale(0.195312 0.195312)" d="M245.075 336.866C247.775 337 250.435 336.953 253.134 336.866C253.366 349.436 253.122 362.056 253.11 374.628C253.09 395.07 249.647 396.666 272.084 396.612L299.7 396.604C304.203 396.596 308.852 396.21 313.329 396.568L313.755 396.604C315.551 399.329 317.434 401.764 319.03 404.654L318.632 404.94C312.238 404.545 305.825 404.646 299.421 404.651L275.541 404.663C265.117 404.696 249.278 407.115 245.608 393.396C244.467 389.131 245.06 378.629 245.06 373.849L245.075 336.866Z"/>
	<path fill="#4C6AB4" transform="scale(0.195312 0.195312)" d="M144.661 242.873C149.435 242.853 154.211 242.807 158.985 242.873C158.739 245.421 158.696 247.703 158.985 250.258C151.978 251.946 133.127 247.398 127.263 253.236C123.793 256.69 124.685 261.998 124.697 266.444L124.722 334.312L124.722 340.014L116.264 340.014L116.237 265.272C116.199 243.831 126.134 242.858 144.661 242.873Z"/>
	<path fill="#4C6AB4" transform="scale(0.195312 0.195312)" d="M388.131 160.833L396.218 160.833L396.228 223.998C396.227 249.411 386.746 250.297 365.999 250.27L347.688 250.258L340.273 250.258L340.273 242.245L364.714 242.261C384.146 242.262 388.16 242.467 388.142 222.921L388.131 160.833Z"/>
	<path fill="#4C6AB4" transform="scale(0.195312 0.195312)" d="M212.83 430.419L347.128 430.418C350.985 430.413 361.602 428.249 360.202 435.373C359.918 436.814 359.06 437.646 357.906 438.465C354.825 439.062 348.245 438.476 344.67 438.47L224.724 438.48C221.713 438.485 213.512 439.776 211.435 437.093C209.293 434.324 210.201 432.242 212.83 430.419Z"/>
	<path fill="#E2F0F7" transform="scale(0.195312 0.195312)" d="M190.917 135.361C206.183 134.332 224.294 141.533 232.722 154.918C200.695 161.49 181.217 176.837 166.742 207.084C163.757 213.464 162.269 219.513 159.885 226.009C126.971 194.896 146.433 139.08 190.917 135.361Z"/>
	<path fill="#52D5BB" transform="scale(0.195312 0.195312)" d="M355.963 56.3508L417.954 56.3266C440.861 56.2979 437.595 64.7178 437.551 84.7994L437.557 129.812C437.559 148.693 435.194 149.999 417.147 149.999L395.375 149.981L333.854 149.99C311.523 149.98 313.753 145.438 313.744 124.584L313.753 76.5875C313.772 55.9573 316.477 56.3418 336.198 56.3365L355.963 56.3508ZM341.284 78.0946C319.872 80.289 323.222 110.471 343.23 107.774C361.617 109.024 362.549 76.8952 341.284 78.0946ZM357.003 117.673L326.613 117.673L326.613 126.742L373.65 126.742L393.262 126.727C396.589 126.724 399.97 126.561 403.289 126.742L403.289 117.673L357.003 117.673Z"/>
	<path fill="#E2F0F7" transform="scale(0.195312 0.195312)" d="M368.229 98.7424L427.552 98.7424L427.552 107.774L368.229 107.774C368.105 104.781 368.222 101.74 368.229 98.7424Z"/>
	<path fill="#E2F0F7" transform="scale(0.195312 0.195312)" d="M368.229 79.9179C387.987 80.2076 407.79 79.922 427.552 79.9179C427.681 83.0449 427.675 86.1126 427.552 89.2376L368.229 89.2376L368.229 79.9179Z"/>
	<path fill="#4C6AB4" transform="scale(0.195312 0.195312)" d="M374.584 298.786C428.036 295.473 458.843 364.892 419.102 403.572C408.02 414.357 393.25 420.897 377.725 420.749C360.246 421.262 344.04 413.726 331.74 401.512C294.916 364.946 322.976 298.635 374.584 298.786ZM374.584 306.638C322.619 308.183 302.635 377.282 348.629 405.005C356.967 410.031 367.895 413.745 377.725 412.978C424.962 412.684 446.678 353.726 412.568 320.915C402.361 311.096 388.581 306.496 374.584 306.638Z"/>
	<path fill="#7BC5F9" transform="scale(0.195312 0.195312)" d="M374.584 306.638C388.581 306.496 402.361 311.096 412.568 320.915C446.678 353.726 424.962 412.684 377.725 412.978C367.895 413.745 356.967 410.031 348.629 405.005C302.635 377.282 322.619 308.183 374.584 306.638ZM374.584 340.014C368.721 343.278 370.803 353.489 370.803 358.945C366.733 358.781 359.763 358.279 355.963 358.945C354.316 359.818 352.635 360.623 352.113 362.583C349.357 372.938 365.387 369.967 370.803 370.009C370.774 375.879 368.129 390.908 377.725 390.003C384.873 387.245 382.392 376.64 382.331 370.009C386.66 369.788 396.53 370.76 399.39 367.69C401.234 365.711 401.277 362.052 399.074 360.318C396.118 357.993 386.377 358.918 382.331 358.945C382.375 350.516 385.559 340.222 374.584 340.014ZM373.65 314.103C368.927 314.519 359.95 314.92 360.652 321.613C361.346 328.234 373.725 325.119 379.562 325.253C382.978 325.663 387.206 326.846 390.11 324.425C392.472 322.455 392.26 319.051 390.174 316.96C386.709 313.487 378.4 313.473 373.65 314.103Z"/>
	<path fill="#52D5BB" transform="scale(0.195312 0.195312)" d="M84.7856 351.481C90.8301 351.255 96.9718 351.471 103.025 351.473L171.923 351.477C197.518 351.461 200.15 348.754 200.122 377.885L200.119 426.409C200.133 436.586 202.031 447.968 189.776 451.92C187.051 451.713 184.159 451.913 181.419 451.917L93.2066 451.946C75.7202 451.974 74.8169 448.938 74.8147 433.563L74.8173 381.715C74.8217 371.35 71.3192 353.523 84.7856 351.481ZM106.091 417.021L87.0015 417.021C86.9952 420.097 86.9707 423.174 87.0015 426.25L139.625 426.25L158.985 426.25L158.985 417.021L106.091 417.021Z"/>
	<path fill="#E2F0F7" transform="scale(0.195312 0.195312)" d="M133.829 379.799L187.03 379.799C187.017 381.162 187.421 388.215 187.03 388.709L133.829 388.709C133.875 386.363 133.212 381.755 133.829 379.799Z"/>
	<path fill="#E2F0F7" transform="scale(0.195312 0.195312)" d="M87.0015 398.722L153.733 398.723C164.822 398.723 175.946 398.513 187.03 398.722L187.03 407.499L87.0015 407.499L87.0015 398.722Z"/>
	<path fill="#3F96DE" transform="scale(0.195312 0.195312)" d="M243.326 163.752C285.588 161.601 322.284 189.151 329.139 231.765C335.859 273.54 308.75 312.834 268.167 323.094C264.245 324.085 260.189 324.623 256.195 325.253C219.075 328.578 184.667 304.43 173.396 269.305C159.728 226.71 183.971 177.425 228.445 166.155C233.331 164.916 238.332 164.356 243.326 163.752ZM245.754 193.997C232.95 194.406 221.366 200.483 212.677 209.757C181.453 243.086 207.784 297.602 253.134 294.741C280.761 292.222 301.371 267.617 298.711 239.971C296.189 213.748 272.81 191.422 245.754 193.997Z"/>
	<path fill="#EE453A" transform="scale(0.195312 0.195312)" d="M238.291 255.807C245.389 256.215 252.93 256.008 260.044 255.807C259.811 262.622 260.042 269.524 260.044 276.349L238.291 276.349C238.6 269.56 238.304 262.613 238.291 255.807Z"/>
	<path fill="#F57D66" transform="scale(0.195312 0.195312)" d="M238.291 211.21C245.541 211.21 252.796 211.109 260.044 211.21C260.213 213.542 260.074 215.961 260.069 218.303L260.044 231.997L278.869 231.997L278.869 255.807C272.623 255.8 266.279 255.551 260.044 255.807L260.044 255.807C252.93 256.008 245.389 256.215 238.291 255.807C231.879 255.922 225.446 255.81 219.032 255.807L219.032 231.997C225.451 232.054 231.874 231.814 238.291 231.997L238.291 211.21Z"/>
</svg>
