<?xml version="1.0" encoding="utf-8" ?>
<svg xmlns="http://www.w3.org/2000/svg" xmlns:xlink="http://www.w3.org/1999/xlink" width="100" height="100">
	<path fill="#3A5599" transform="scale(0.195312 0.195312)" d="M379.774 233.627C381.537 233.52 383.233 233.522 384.995 233.627C384.989 237.55 384.926 241.481 384.995 245.403C386.648 243.719 388.213 241.98 389.767 240.205C391.435 241.347 392.78 242.791 394.053 244.35C390.709 247.382 387.339 250.389 384.035 253.464C382.774 253.981 382.219 254.279 380.986 253.464C377.741 250.384 374.482 247.333 371.148 244.35C372.477 242.766 373.791 241.488 375.412 240.205C376.926 241.877 378.436 243.588 379.774 245.403C379.75 241.509 379.547 237.509 379.774 233.627Z"/>
	<path fill="#AFC2E2" transform="scale(0.195312 0.195312)" d="M355.896 123.248C384.875 123.14 388.184 130.697 388.169 159.613L388.16 203.53C388.162 204.479 389.878 226.093 383.569 220.615C381.365 218.702 382.098 211.846 382.107 209.125L382.108 166.216C382.13 135.801 385.654 127.331 347.671 128.986C345.758 129.07 334.95 130.219 338.613 124.601C339.818 122.753 353.006 123.648 355.896 123.248Z"/>
	<path fill="#AFC2E2" transform="scale(0.195312 0.195312)" d="M252.152 353.416C252.326 348.069 249.118 309.819 257.361 318.723C259.424 320.951 258.376 329.396 258.378 332.314L258.387 354.906C262.787 358.206 265.862 362.913 270.177 366.288C285.312 366.798 300.467 366.074 315.608 366.34C320.668 366.429 323.688 368.25 324.249 363.837L324.249 372.72L277.32 372.74C262.743 372.735 265.939 371.045 254.783 359.88C250.025 363.809 246.184 368.707 241.549 372.72C235.144 371.859 211.161 374.052 207.318 371.855C205.138 370.609 206.273 366.769 208.535 366.308C214.361 365.122 232.713 366.534 239.951 366.288C243.445 363.147 249.191 356.991 252.152 353.416Z"/>
	<path fill="#AFC2E2" transform="scale(0.195312 0.195312)" d="M138.661 123.248C142.536 123.045 146.494 123.226 150.379 123.23L172.926 123.248L172.926 128.977L153.754 128.962C130.775 128.955 123.726 129.346 123.74 156.47L123.75 240.743L123.75 270.259L118.022 270.259L118.019 157.954C118.027 142.1 117.931 126.567 138.661 123.248Z"/>
	<path fill="#82C9F6" transform="scale(0.195312 0.195312)" d="M353.052 253.464C355.903 253.414 379.908 254.012 380.986 253.464C382.219 254.279 382.774 253.981 384.035 253.464C392.829 253.756 401.756 252.946 410.53 253.464C410.938 257.514 410.338 261.551 410.53 265.609C414.796 265.589 419.283 265.285 423.522 265.609C419.227 265.899 414.838 265.579 410.53 265.609L410.53 270.991C413.916 270.964 422.521 270.479 425.292 270.991C420.427 271.275 415.41 271.006 410.53 270.991L410.53 280.873L353.052 280.873C353.091 277.577 353.087 274.286 353.052 270.991C352.908 269.208 353.01 267.395 353.052 265.609C353.256 261.588 352.951 257.503 353.052 253.464Z"/>
	<path fill="#3A5599" transform="scale(0.195312 0.195312)" d="M353.052 265.609C353.01 267.395 352.908 269.208 353.052 270.991C326.418 270.891 329.32 270.008 329.337 295.866L329.326 378.236C329.323 387.126 329.064 396.11 329.383 404.989C329.828 417.403 339.772 414.547 348.736 414.501L408.55 414.506C417.134 414.517 431.734 418.277 432.23 407.417C432.626 398.733 432.241 389.867 432.239 381.166L432.233 293.806C432.233 287.654 435.242 270.976 425.292 270.991C422.521 270.479 413.916 270.964 410.53 270.991L410.53 265.609C414.838 265.579 419.227 265.899 423.522 265.609C434.19 265.529 437.26 272.023 437.304 281.667L437.31 395.905C437.306 407.284 439.259 419.679 424.003 419.671L345.514 419.611C323.08 419.682 324.226 415.619 324.231 396.6L324.249 372.72L324.249 363.837L324.228 285.586C324.188 262.521 331.619 265.553 353.052 265.609Z"/>
	<path fill="#3A5599" transform="scale(0.195312 0.195312)" d="M247.145 218.02C251.163 217.839 262.537 216.715 265.776 219.259C266.92 221.531 266.303 224.074 265.875 226.449C271.043 228.098 274.744 230.88 279.337 233.627C281.175 232.326 283.936 229.433 286.158 231.458C288.625 233.705 295.828 244.188 295.969 247.302C295.169 249.137 291.501 251.006 289.85 252.262C290.196 257.65 290.193 262.687 289.85 268.071C291.539 269.226 295.027 270.532 295.762 272.524C296.762 275.233 287.66 288.627 286.311 289.041C284.169 289.698 281.026 287.285 279.337 286.192C274.946 289.247 270.859 291.784 265.875 293.781C265.868 297.214 266.518 300.447 264.165 303.253C260.923 303.613 246.475 303.683 244.584 301.772C243.186 300.36 243.71 295.693 243.737 293.781C239.094 291.754 234.797 290.021 231.359 286.192C229.073 287.988 225.116 291.28 222.615 288.173C220.737 285.84 214.302 275.684 214.67 272.378C215.855 270.398 218.638 269.349 220.531 268.071C218.833 262.621 219.047 257.837 219.859 252.262C218.411 251.187 214.304 249.261 214.103 247.388C213.9 245.492 222.546 230.635 226.213 230.652C227.909 230.66 230.101 232.588 231.359 233.627C235.141 230.548 239.057 227.952 243.737 226.449C243.638 222.835 242.756 219.028 247.145 218.02ZM249.101 223.234L249.101 230.919C241.108 232.485 237.665 235.113 232.081 240.743C230.274 239.166 228.302 237.836 226.331 236.476C224.098 239.48 221.985 242.977 220.531 246.439C222.572 247.548 224.452 248.773 226.331 250.134C223.42 257.288 223.97 263.787 226.331 270.991C224.415 272.121 222.508 273.255 220.531 274.276C222.441 277.247 223.997 280.409 225.601 283.551C227.798 282.47 230.007 281.424 232.081 280.115C237.207 284.74 242.299 287.972 249.101 289.574C248.737 292.412 248.817 294.976 249.101 297.821C250.911 297.828 259.957 298.271 260.976 297.821C260.962 295.073 260.933 292.323 260.976 289.574C267.547 287.847 272.909 284.821 277.806 280.115C280.191 281.152 282.464 282.321 284.753 283.551C286.552 280.691 288.699 277.449 289.85 274.276C287.759 272.741 285.665 271.297 283.277 270.259C285.391 264.474 285.826 255.838 283.277 250.134C285.635 248.698 287.821 247.289 289.85 245.403C287.888 242.632 286.093 239.599 284.753 236.476C282.239 237.639 280.059 239.149 277.806 240.743C273.312 235.764 267.91 231.464 260.976 230.919C261.04 228.35 261.075 225.804 260.976 223.234L249.101 223.234Z"/>
	<path fill="#82C9F6" transform="scale(0.195312 0.195312)" d="M249.101 223.234L260.976 223.234C261.075 225.804 261.04 228.35 260.976 230.919C267.91 231.464 273.312 235.764 277.806 240.743C280.059 239.149 282.239 237.639 284.753 236.476C286.093 239.599 287.888 242.632 289.85 245.403C287.821 247.289 285.635 248.698 283.277 250.134C285.826 255.838 285.391 264.474 283.277 270.259C285.665 271.297 287.759 272.741 289.85 274.276C288.699 277.449 286.552 280.691 284.753 283.551C282.464 282.321 280.191 281.152 277.806 280.115C272.909 284.821 267.547 287.847 260.976 289.574C260.933 292.323 260.962 295.073 260.976 297.821C259.957 298.271 250.911 297.828 249.101 297.821C248.817 294.976 248.737 292.412 249.101 289.574C242.299 287.972 237.207 284.74 232.081 280.115C230.007 281.424 227.798 282.47 225.601 283.551C223.997 280.409 222.441 277.247 220.531 274.276C222.508 273.255 224.415 272.121 226.331 270.991C223.97 263.787 223.42 257.288 226.331 250.134C224.452 248.773 222.572 247.548 220.531 246.439C221.985 242.977 224.098 239.48 226.331 236.476C228.302 237.836 230.274 239.166 232.081 240.743C237.665 235.113 241.108 232.485 249.101 230.919L249.101 223.234ZM253.258 242.32C229.425 246.019 232.072 278.87 256.945 277.974C280.336 274.495 276.406 240.749 253.258 242.32Z"/>
	<path fill="#3A5599" transform="scale(0.195312 0.195312)" d="M253.258 242.32C276.406 240.749 280.336 274.495 256.945 277.974C232.072 278.87 229.425 246.019 253.258 242.32ZM253.258 247.549C234.989 251.444 241.077 276.113 256.945 272.74C273.136 269.471 269.847 245.542 253.258 247.549Z"/>
	<path fill="#3A5599" transform="scale(0.195312 0.195312)" d="M254.783 57.618C290.283 56.9784 321.582 85.3118 321.944 121.357C322.317 158.396 294.41 189.408 256.945 189.793C221.196 189.754 190.876 161.838 189.578 125.741C188.251 88.8662 218.546 58.9113 254.783 57.618ZM259.565 164.984C279.071 164.293 296.23 144.688 295.93 125.181C293.691 87.0608 249.997 70.9793 225.474 99.4729C202.571 126.084 224.111 166.6 259.565 164.984ZM195.02 120.981C196.837 120.918 198.628 120.905 200.445 120.981C201.102 117.868 201.559 114.724 202.317 111.629C207.973 88.5402 229.27 69.9401 253.258 68.6831L253.258 62.8983C223.564 63.1624 194.816 90.9643 195.02 120.981ZM258.387 62.8983C258.475 64.8435 258.508 66.739 258.387 68.6831C260.908 68.3525 263.637 68.9757 266.088 69.5408C290.433 75.1539 310.1 95.5116 311.554 120.981L316.992 120.981C314.033 88.857 291.433 64.2402 258.387 62.8983Z"/>
	<path fill="#86D8C8" transform="scale(0.195312 0.195312)" d="M295.93 125.181C299.022 125.103 302.194 125.37 305.266 125.181C308.522 126.892 313.393 126.245 316.992 126.175C315.154 143.286 308.671 159.134 295.014 170.161C285.365 177.953 271.101 185.14 258.387 184.282C258.399 182.962 258.838 177.399 258.387 176.483C258.125 174.336 257.422 167.04 258.227 165.333L259.565 164.984C279.071 164.293 296.23 144.688 295.93 125.181Z"/>
	<path fill="#82C9F6" transform="scale(0.195312 0.195312)" d="M200.445 120.981C201.102 117.868 201.559 114.724 202.317 111.629C207.973 88.5402 229.27 69.9401 253.258 68.6831C253.235 70.6294 252.658 74.458 254.031 75.9891C258.748 81.2496 258.582 70.7377 258.387 68.6831C260.908 68.3525 263.637 68.9757 266.088 69.5408C290.433 75.1539 310.1 95.5116 311.554 120.981C307.49 121.1 305.041 120.452 305.266 125.181C302.194 125.37 299.022 125.103 295.93 125.181C293.691 87.0608 249.997 70.9793 225.474 99.4729C202.571 126.084 224.111 166.6 259.565 164.984L258.227 165.333C257.422 167.04 258.125 174.336 258.387 176.483C256.675 176.382 254.971 176.439 253.258 176.483L253.258 184.282C222.239 183.311 195.675 157.398 195.02 126.175C197.661 125.988 203.385 126.725 205.516 125.019C208.996 122.233 203.477 120.723 200.445 120.981Z"/>
	<path fill="#F9BD5D" transform="scale(0.195312 0.195312)" d="M249.101 101.437C266.978 101.605 263.424 99.2339 263.48 117.59C268.758 117.506 274.059 117.515 279.337 117.59C279.408 135.891 281.227 132.187 263.48 132.268C263.182 135.65 264.368 146.271 262.309 148.414C244.308 149.544 248.608 148.07 248.251 132.268C231.688 132.045 231.146 136.05 232.081 117.59C237.462 117.411 242.864 117.738 248.251 117.59C248.685 112.808 247.151 105.798 249.101 101.437Z"/>
	<path fill="#86D8C8" transform="scale(0.195312 0.195312)" d="M346.805 382.071C356.649 382.793 357.463 396.647 348.068 398.016C337.117 397.728 336.048 383.606 346.805 382.071Z"/>
	<path fill="#F9BD5D" transform="scale(0.195312 0.195312)" d="M346.805 293.781C356.593 295.447 358.938 308.001 348.068 310.254C337.074 310.782 336.769 295.95 346.805 293.781Z"/>
	<path fill="#F57569" transform="scale(0.195312 0.195312)" d="M345.647 323.35C356.44 322.132 358.782 336.022 349.004 339.652C338.101 340.984 335.168 326.651 345.647 323.35Z"/>
	<path fill="#F9BD5D" transform="scale(0.195312 0.195312)" d="M345.647 352.28C356.336 351.864 358.975 365.775 349.004 368.731C337.626 369.626 335.218 355.951 345.647 352.28Z"/>
	<path fill="#AFC2E2" transform="scale(0.195312 0.195312)" d="M368.61 387.149C371.189 386.914 373.865 387.113 376.456 387.129L406.392 387.163C407.976 387.154 425.467 385.414 421.372 391.368C420.438 392.726 418.656 392.651 417.188 392.781C400.733 392.449 365.631 394.57 365.067 390.941C364.683 388.47 366.521 387.285 368.61 387.149Z"/>
	<path fill="#AFC2E2" transform="scale(0.195312 0.195312)" d="M380.986 300.123L406.049 300.119C409.244 300.115 427.652 297.967 419.958 305.814C415.776 305.948 411.561 305.828 407.375 305.814L379.694 305.824C372.796 305.825 363.23 308.807 365.654 300.123C370.753 300.236 375.883 300.129 380.986 300.123Z"/>
	<path fill="#AFC2E2" transform="scale(0.195312 0.195312)" d="M372.071 358.003C378.503 358.001 417.653 357.46 420.457 358.47C425.953 363.201 417.626 363.831 414.475 363.837L383.622 363.837C382.322 363.838 359.358 366.188 365.871 358.995C366.977 357.774 370.458 358.055 372.071 358.003Z"/>
	<path fill="#AFC2E2" transform="scale(0.195312 0.195312)" d="M379.774 329.276C388.507 329.325 428.112 325.881 421.197 334.175C419.739 335.924 409.94 335.271 407.375 335.25L378.777 335.207C375.737 335.199 361.745 337.236 365.95 330.133C368.533 328.616 376.467 329.268 379.774 329.276Z"/>
	<path fill="#3A5599" transform="scale(0.195312 0.195312)" d="M76.0952 286.192C104.933 286.193 133.807 285.883 162.64 286.192C164.902 287.791 166.702 290.074 168.614 292.06L178.59 302.428C191.828 316.02 192.23 310.235 192.235 328.194L192.238 434.949C192.24 438.736 193.896 447.837 190.659 450.266C188.335 450.631 185.525 450.302 183.153 450.294L101.244 450.267C97.7622 450.267 76.6079 450.636 75.2426 450.135C74.0139 448.665 74.769 440.651 74.7692 438.587L74.7589 296.38C74.7624 293.19 73.8166 288.74 76.0952 286.192Z"/>
	<path fill="#0CB5CD" transform="scale(0.195312 0.195312)" d="M163.58 294.84C165.993 296.29 181.294 311.932 183.137 314.582C176.624 314.695 170.095 314.596 163.58 314.582C163.2 308.095 163.58 301.351 163.58 294.84Z"/>
	<path fill="#FEFEFE" transform="scale(0.195312 0.195312)" d="M94.7104 291.333C115.991 291.334 137.307 291.063 158.584 291.333L158.571 308.123C158.486 320.249 157.169 319.83 170.601 319.755L186.895 319.745L186.895 445.233L172.926 445.233L79.8578 445.233L79.8578 291.333L94.7104 291.333Z"/>
	<path fill="#86D8C8" transform="scale(0.195312 0.195312)" d="M91.6225 303.253L147.491 303.253L147.491 330.694L174.924 330.694L174.924 433.253L91.6225 433.253L91.6225 303.253Z"/>
	<path fill="#0DAA98" transform="scale(0.195312 0.195312)" d="M105.798 319.745L128.649 319.745L128.649 325.241L105.798 325.241L105.798 319.745Z"/>
	<path fill="#0DAA98" transform="scale(0.195312 0.195312)" d="M105.798 333.981L128.649 333.981C128.703 335.852 128.856 337.789 128.649 339.652L105.798 339.652L105.798 333.981Z"/>
	<path fill="#0DAA98" transform="scale(0.195312 0.195312)" d="M105.798 385.773C112.118 385.945 118.489 385.783 124.813 385.782L161.513 385.773L161.513 391.237L105.798 391.237C105.847 389.42 105.801 387.591 105.798 385.773Z"/>
	<path fill="#0DAA98" transform="scale(0.195312 0.195312)" d="M107.801 401.797L161.513 401.797C161.483 403.431 162.071 405.885 161.002 407.194L159.813 407.239L105.798 407.239C105.791 404.843 104.702 402.008 107.801 401.797Z"/>
	<path fill="#0DAA98" transform="scale(0.195312 0.195312)" d="M105.798 353.416L161.513 353.416C161.659 355.222 161.566 357.033 161.513 358.842C159.286 359.341 150.884 358.832 148.083 358.832L105.798 358.842L105.798 353.416Z"/>
	<path fill="#0DAA98" transform="scale(0.195312 0.195312)" d="M158.584 369.486L161.513 369.486C161.624 371.314 161.6 373.094 161.513 374.923L109.921 374.923L105.798 374.923C105.909 373.112 105.84 371.299 105.798 369.486L158.584 369.486Z"/>
</svg>
