<?xml version="1.0" encoding="utf-8" ?>
<svg xmlns="http://www.w3.org/2000/svg" xmlns:xlink="http://www.w3.org/1999/xlink" width="100" height="100">
	<path fill="#727F99" transform="scale(0.195312 0.195312)" d="M373.749 173.274C377.508 173.523 381.876 173.633 385.614 173.274C385.47 183.339 386.409 195.768 385.614 205.501C381.659 205.243 377.705 205.39 373.749 205.501C373.903 194.766 373.717 184.012 373.749 173.274Z"/>
	<path fill="#727F99" transform="scale(0.195312 0.195312)" d="M373.749 306.41C377.166 306.394 382.406 305.952 385.614 306.41L385.614 345.382C381.848 345.772 377.538 345.49 373.749 345.382L373.749 306.41Z"/>
	<path fill="#727F99" transform="scale(0.195312 0.195312)" d="M263.201 119.405C270.122 118.976 277.296 119.411 284.242 119.408L329.238 119.405C329.015 123.373 328.996 127.262 329.238 131.231L267.47 131.231L259.803 131.231C259.819 127.289 259.864 123.346 259.803 119.405C260.921 119.399 262.089 119.321 263.201 119.405Z"/>
	<path fill="#5D769F" transform="scale(0.195312 0.195312)" d="M259.803 119.405C260.921 119.399 262.089 119.321 263.201 119.405C264.638 119.485 266.033 119.469 267.47 119.405C267.525 123.346 267.487 127.289 267.47 131.231L259.803 131.231C259.819 127.289 259.864 123.346 259.803 119.405Z"/>
	<path fill="#5EA4FB" transform="scale(0.195312 0.195312)" d="M127.115 311.508C108.893 311.546 83.2352 317.319 82.5451 291.869C82.144 277.074 82.4922 262.182 82.4922 247.379L82.479 97.2335C82.4818 78.6307 85.8395 75.8888 104.143 75.9042L119.326 75.9324C120.402 79.9023 124.173 83.1438 125.93 86.9694C122.604 91.2701 123.345 96.3242 129.428 97.4466C127.647 99.546 128.542 105.068 128.519 107.834L96.4683 107.834L96.4726 273.15C96.4726 279.468 96.1575 285.91 96.4388 292.209C96.7535 299.256 108.308 296.871 113.925 296.864L137.457 296.855L137.457 311.508C133.982 311.303 130.594 311.266 127.115 311.508Z"/>
	<path fill="#C5CBDB" transform="scale(0.195312 0.195312)" d="M109.592 86.0612C117.83 85.7398 118.783 94.3851 111.776 97.4466C103.844 98.1738 102.065 88.1868 109.592 86.0612Z"/>
	<path fill="#5EA4FB" transform="scale(0.195312 0.195312)" d="M119.326 75.9324L233.825 75.9195C255.542 75.8804 259.914 78.9037 259.818 101.441L259.75 113.774C259.739 115.58 259.546 117.628 259.803 119.405C259.864 123.346 259.819 127.289 259.803 131.231L259.803 190.459C259.79 192.022 259.77 193.584 259.803 195.146C255.029 195.165 250.231 195.285 245.46 195.146L245.46 107.834L173.192 107.834C158.328 107.512 143.391 107.827 128.519 107.834C128.542 105.068 127.647 99.546 129.428 97.4466C123.345 96.3242 122.604 91.2701 125.93 86.9694C124.173 83.1438 120.402 79.9023 119.326 75.9324Z"/>
	<path fill="#E3E6EC" transform="scale(0.195312 0.195312)" d="M125.93 86.9694C135.705 82.6263 139.467 95.2782 129.428 97.4466C123.345 96.3242 122.604 91.2701 125.93 86.9694Z"/>
	<path fill="#E3E6EC" transform="scale(0.195312 0.195312)" d="M128.519 107.834C143.391 107.827 158.328 107.512 173.192 107.834C172.604 108.104 132.11 107.834 128.519 107.834C128.321 116.136 128.234 125.421 128.519 133.695C129.515 136.339 128.829 140.236 128.519 142.983C125.773 142.776 123.178 142.693 120.439 142.983C123.113 143.214 125.836 142.964 128.519 142.983C128.657 146.296 128.585 149.564 128.419 152.875C129.039 153.422 129.72 152.914 130.435 153.333C129.704 153.398 128.931 153.343 128.195 153.333C128.169 156.494 127.964 159.781 128.195 162.928C128.489 166.533 128.506 170.093 128.519 173.706C125.951 173.596 122.963 173.215 120.439 173.706C123.119 173.901 125.837 173.808 128.519 173.706C128.711 176.824 128.923 179.897 128.519 183.009C131.471 182.996 134.516 182.834 137.457 183.009C134.457 183.281 131.523 183.188 128.519 183.009C128.552 189.711 128.641 196.41 128.195 203.101C130.277 203.115 132.363 203.155 134.444 203.101C135.448 203.106 136.453 203.125 137.457 203.101C137.457 204.519 138.058 213.275 137.457 213.762C137.914 214.606 137.357 280.26 137.473 285.138C137.563 288.93 138.061 293.121 137.457 296.855L113.925 296.864C108.308 296.871 96.7535 299.256 96.4388 292.209C96.1575 285.91 96.4726 279.468 96.4726 273.15L96.4683 107.834L128.519 107.834Z"/>
	<path fill="#DE5959" transform="scale(0.195312 0.195312)" d="M118.532 203.101C120.965 202.608 123.48 202.902 125.93 203.101C125.885 206.647 126.06 210.224 125.93 213.762L123.602 213.741C115.55 213.638 111.817 208.982 118.532 203.101Z"/>
	<path fill="#5D769F" transform="scale(0.195312 0.195312)" d="M118.038 162.928C109.732 153.788 122.124 153.203 128.195 153.333C128.169 156.494 127.964 159.781 128.195 162.928C124.826 163.055 121.404 163.107 118.038 162.928Z"/>
	<path fill="#9EA8C4" transform="scale(0.195312 0.195312)" d="M118.038 183.009C114.76 179.794 114.739 173.949 120.439 173.706C123.119 173.901 125.837 173.808 128.519 173.706C128.711 176.824 128.923 179.897 128.519 183.009L118.038 183.009Z"/>
	<path fill="#9EA8C4" transform="scale(0.195312 0.195312)" d="M120.439 142.983C117.453 142.754 115.817 140.743 115.655 137.785C115.343 132.075 125.195 133.664 128.519 133.695C129.515 136.339 128.829 140.236 128.519 142.983C125.773 142.776 123.178 142.693 120.439 142.983Z"/>
	<path fill="#F4CE27" transform="scale(0.195312 0.195312)" d="M128.195 203.101C130.277 203.115 132.363 203.155 134.444 203.101C135.448 203.106 136.453 203.125 137.457 203.101C137.457 204.519 138.058 213.275 137.457 213.762C133.657 213.544 129.741 213.75 125.93 213.762C126.06 210.224 125.885 206.647 125.93 203.101L128.195 203.101Z"/>
	<path fill="#63C166" transform="scale(0.195312 0.195312)" d="M329.238 119.405C331.139 77.8363 386.853 58.1917 416.138 91.1117C439.635 117.525 428.915 160.295 394.841 170.779C391.793 171.716 388.661 172.345 385.614 173.274C381.876 173.633 377.508 173.523 373.749 173.274C371.523 172.525 368.982 172.29 366.676 171.787C345.96 167.265 333.469 151.061 329.238 131.231C328.996 127.262 329.015 123.373 329.238 119.405ZM376.242 95.7526C375.222 95.9014 374.225 95.9656 373.32 96.4955C372.187 98.2085 372.733 114.457 372.741 117.698C369.213 117.69 353.574 117.117 351.194 118.161C349.85 119.989 349.645 126.931 351.082 129.063C353.925 130.654 368.532 129.951 372.741 129.938C372.738 132.96 372.087 149.704 373.735 151.523C375.079 153.006 380.422 152.636 382.312 152.475C387.659 151.03 385.631 135.112 385.614 129.938C390.468 129.949 404.838 131.584 407.389 127.684C407.44 125.004 407.892 121.609 406.867 119.103C403.936 116.194 389.82 117.686 385.614 117.698C385.624 113.727 386.45 99.0623 384.206 96.2942C382.311 95.2205 378.416 95.6624 376.242 95.7526Z"/>
	<path fill="#FDA952" transform="scale(0.195312 0.195312)" d="M373.749 205.501C377.705 205.39 381.659 205.243 385.614 205.501C430.479 211.076 445.794 268.933 409.338 296.469C403.665 300.754 392.744 305.766 385.614 306.41C382.406 305.952 377.166 306.394 373.749 306.41C347.596 303.106 334.854 284.431 330.195 260.75C329.839 257.134 330.07 253.104 330.195 249.461C332.582 242.058 333.619 235.463 337.958 228.655C346.684 214.962 358.597 208.867 373.749 205.501ZM376.242 220.593C329.961 226.58 337.969 297.057 383.725 291.177C432.845 281.654 418.689 216.26 376.242 220.593Z"/>
	<path fill="#5EA4FB" transform="scale(0.195312 0.195312)" d="M373.749 345.382C377.538 345.49 381.848 345.772 385.614 345.382L411.634 345.372C430.447 345.359 429.247 343.971 429.166 361.461L429.163 412.68C429.18 435.748 431.972 433.48 406.392 433.464L350.557 433.462C333.123 433.462 333.159 436.363 333.202 417.592L333.227 396.871C333.046 393.158 333.031 389.245 333.227 385.537C333.513 375.833 331.917 357.329 333.488 348.678C334.431 343.484 345.738 345.401 349.28 345.407L373.749 345.382ZM381.062 359.65C375.798 364.136 348.51 385.492 368.173 385.537L368.173 414.175L381.062 414.175C385.259 414.186 389.509 414.342 393.699 414.175L393.699 385.537C396.72 385.272 400.185 385.193 400.746 381.563C399.448 378.098 385.51 363.978 381.363 359.738L381.062 359.65Z"/>
	<path fill="#5EA4FB" transform="scale(0.195312 0.195312)" d="M208.127 344.571L208.301 345.256C209.413 345.639 217.806 345.78 219.008 345.382L219.008 345.382L219.47 345.439C222.833 345.816 226.625 345.418 230.025 345.38L248.249 345.351C264.157 345.278 261.097 347.824 261.099 362.64L261.087 385.537C261.109 388.819 261.565 393.761 261.087 396.871C260.808 399.558 261.056 402.48 261.069 405.195L261.097 421.443C261.076 437.226 259.093 433.478 242.37 433.463L186.703 433.459C159.444 433.472 164.003 435.527 164.015 409.252L164.026 359.319C164.024 354.031 161.797 346.629 168.796 345.582C172.424 345.04 176.475 345.372 180.161 345.373L200.706 345.404C202.785 345.417 205.978 345.893 207.93 345.269L208.127 344.571Z"/>
	<path fill="#E3E6EC" transform="scale(0.195312 0.195312)" d="M212.745 363.814C220.225 364.172 217.533 380.29 217.512 385.537C221.628 385.517 232.816 384.563 235.695 387.171C237.422 388.735 237.54 391.839 235.936 393.533C233.319 396.296 221.679 395.04 217.512 395.031C217.511 400.95 220.036 414.093 212.745 414.175C205.073 413.622 208.11 401.902 208.127 395.031C204.084 395.053 195.959 395.57 192.358 394.853C188.712 394.126 186.299 389.919 189.502 386.964C192.129 384.54 204.294 385.511 208.127 385.537C208.602 378.297 204.787 365.32 212.745 363.814Z"/>
	<path fill="#5D769F" transform="scale(0.195312 0.195312)" d="M292.845 249.461L318.093 249.445C322.044 249.441 326.277 249.108 330.195 249.461C330.07 253.104 329.839 257.134 330.195 260.75L296.558 260.75C295.325 260.703 294.08 260.745 292.845 260.75L292.845 249.461Z"/>
	<path fill="#FDFDFD" transform="scale(0.195312 0.195312)" d="M173.192 107.834L245.46 107.834L245.46 195.146L151.261 195.14C147.559 195.138 143.768 194.933 140.08 195.146C137.745 197.665 137.693 199.805 137.457 203.101C136.454 203.088 135.445 203.046 134.444 203.101C132.363 203.155 130.277 203.115 128.195 203.101C128.641 196.41 128.552 189.711 128.519 183.009C131.523 183.188 134.457 183.281 137.457 183.009C134.516 182.834 131.471 182.996 128.519 183.009C128.923 179.897 128.711 176.824 128.519 173.706C125.837 173.808 123.119 173.901 120.439 173.706C122.963 173.215 125.951 173.596 128.519 173.706C128.506 170.093 128.489 166.533 128.195 162.928C127.964 159.781 128.169 156.494 128.195 153.333C128.931 153.343 129.704 153.398 130.435 153.333C129.72 152.914 129.039 153.422 128.419 152.875C128.585 149.564 128.657 146.296 128.519 142.983C125.836 142.964 123.113 143.214 120.439 142.983C123.178 142.693 125.773 142.776 128.519 142.983C128.829 140.236 129.515 136.339 128.519 133.695C128.234 125.421 128.321 116.136 128.519 107.834C132.11 107.834 172.604 108.104 173.192 107.834Z"/>
	<path fill="#63C166" transform="scale(0.195312 0.195312)" d="M130.435 153.333L156.322 153.31C160.114 153.291 174.611 151.198 174.216 157.967C173.778 165.494 159.641 162.931 154.779 162.914L128.195 162.928C127.964 159.781 128.169 156.494 128.195 153.333C128.931 153.343 129.704 153.398 130.435 153.333Z"/>
	<path fill="#C5CBDB" transform="scale(0.195312 0.195312)" d="M128.519 133.695L210.243 133.688C213.164 133.671 222.37 132.62 224.558 134.754C226.518 136.665 226.613 140.213 224.379 141.955C221.576 144.141 215.749 142.982 212.458 142.98L128.519 142.983C125.836 142.964 123.113 143.214 120.439 142.983C123.178 142.693 125.773 142.776 128.519 142.983C128.829 140.236 129.515 136.339 128.519 133.695Z"/>
	<path fill="#C5CBDB" transform="scale(0.195312 0.195312)" d="M128.519 173.706L211.302 173.699C214.695 173.698 218.2 173.489 221.578 173.763C225.321 174.067 227.878 178.525 224.909 181.507C222.438 183.989 216.633 183.053 213.491 183.033L157.974 183.008C151.154 183.008 144.27 182.802 137.457 183.009C134.516 182.834 131.471 182.996 128.519 183.009C128.923 179.897 128.711 176.824 128.519 173.706C125.837 173.808 123.119 173.901 120.439 173.706C122.963 173.215 125.951 173.596 128.519 173.706Z"/>
	<path fill="#727F99" transform="scale(0.195312 0.195312)" d="M261.087 385.537C266.957 385.704 272.86 385.54 278.733 385.539L326.126 385.505C328.464 385.484 330.901 385.29 333.227 385.537C333.031 389.245 333.046 393.158 333.227 396.871L261.087 396.871C261.565 393.761 261.109 388.819 261.087 385.537Z"/>
	<path fill="#C5CBDB" transform="scale(0.195312 0.195312)" d="M259.803 190.459C259.908 192.032 259.864 193.572 259.803 195.146L292.845 195.146L292.849 231.577C292.851 237.489 293.214 243.575 292.845 249.461L292.845 260.75C294.08 260.745 295.325 260.703 296.558 260.75C295.319 260.772 294.083 260.804 292.845 260.75L292.845 322.515L219.008 322.515C219.015 330.1 219.327 337.812 219.008 345.382L219.008 345.382C217.806 345.78 209.413 345.639 208.301 345.256L208.127 344.571C207.891 337.249 208.123 329.846 208.127 322.515C205.526 321.953 200.995 322.531 198.143 322.525L163.478 322.521C159.578 322.52 142.107 323.56 139.307 321.02C137.067 318.987 137.569 314.281 137.457 311.508C134.053 311.475 130.487 311.892 127.115 311.508C130.594 311.266 133.982 311.303 137.457 311.508L137.457 296.855C138.061 293.121 137.563 288.93 137.473 285.138C137.357 280.26 137.914 214.606 137.457 213.762C138.058 213.275 137.457 204.519 137.457 203.101C136.453 203.125 135.448 203.106 134.444 203.101C135.445 203.046 136.454 203.088 137.457 203.101C137.693 199.805 137.745 197.665 140.08 195.146C143.768 194.933 147.559 195.138 151.261 195.14L245.46 195.146C250.231 195.285 255.029 195.165 259.803 195.146C259.77 193.584 259.79 192.022 259.803 190.459Z"/>
	<path fill="#5D769F" transform="scale(0.195312 0.195312)" d="M208.127 322.515C211.716 322.783 215.406 322.488 219.008 322.515L218.984 337.627C218.98 340.178 218.817 342.845 219.008 345.382C217.806 345.78 209.413 345.639 208.301 345.256L208.127 344.571C207.891 337.249 208.123 329.846 208.127 322.515Z"/>
	<path fill="#FDFDFD" transform="scale(0.195312 0.195312)" d="M148.236 206.589L281.975 206.589L281.975 311.508C277.804 311.918 273.178 311.529 268.969 311.524L148.236 311.508L148.236 206.589Z"/>
	<path fill="#DE5959" transform="scale(0.195312 0.195312)" d="M211.821 224.598C252.729 221.89 258.262 282.709 217.512 287.441C178.524 293.628 169.01 229.02 211.821 224.598Z"/>
	<path fill="#FDFDFD" transform="scale(0.195312 0.195312)" d="M214.673 239.166C216.739 239.119 218.811 239.16 220.878 239.166L220.878 249.461C224.258 249.488 227.652 249.242 231.026 249.461L231.026 262.468L220.878 262.468L220.878 273.224L213.869 273.224L207.278 273.224L207.278 262.468C203.865 262.587 200.431 262.494 197.015 262.468L197.015 249.461L207.278 249.461L207.278 239.166L214.673 239.166Z"/>
</svg>
