<?xml version="1.0" encoding="utf-8" ?>
<svg xmlns="http://www.w3.org/2000/svg" xmlns:xlink="http://www.w3.org/1999/xlink" width="100" height="100">
	<path fill="#FD8A8A" transform="scale(0.195312 0.195312)" d="M334.844 169.245C337.622 169.155 350.56 181.117 342.138 184.815C338.819 185.191 327.149 172.447 334.844 169.245Z"/>
	<path fill="#F24D51" transform="scale(0.195312 0.195312)" d="M371.499 86.8177C374.13 88.6238 376.297 91.1324 378.45 93.4708C374.966 96.2005 371.989 99.04 369.574 102.764C362.767 96.2138 359.835 94.5866 371.499 86.8177Z"/>
	<path fill="#F24D51" transform="scale(0.195312 0.195312)" d="M369.574 139.579C371.535 142.901 379.922 150.076 379.925 150.091C377.614 152.126 375.371 154.347 372.608 155.752C369.803 154.107 364.539 149.783 363.956 146.56C364.634 144.193 367.808 141.899 369.332 139.899L369.574 139.579Z"/>
	<path fill="#F24D51" transform="scale(0.195312 0.195312)" d="M390.745 153.982C395.539 155.072 399.885 154.765 404.715 153.982C404.577 156.746 405.023 160.614 403.893 163.132C401.691 165.074 393.24 164.811 391.374 163.237C390.293 160.613 390.748 156.805 390.745 153.982Z"/>
	<path fill="#F24D51" transform="scale(0.195312 0.195312)" d="M430.686 115.25C432.896 115.223 438.624 114.549 440.187 115.886C441.174 118.143 441.511 125.009 440.523 127.308C439.579 129.501 432.641 128.206 430.686 128.219L430.364 127.885C431.027 123.66 430.598 119.499 430.686 115.25Z"/>
	<path fill="#F24D51" transform="scale(0.195312 0.195312)" d="M425.707 139.579C427.157 141.013 431.688 145.81 431.886 147.654C430.858 150.669 425.891 154.662 422.75 155.752C420.151 154.23 418.245 151.802 415.759 150.091C418.525 146.652 422.493 143.479 425.707 139.579Z"/>
	<path fill="#F24D51" transform="scale(0.195312 0.195312)" d="M355.642 128.219C352.247 127.637 352.703 117.339 354.444 115.814C355.824 114.606 361.684 115.211 363.577 115.25L364.403 115.556C364.342 119.794 364.422 123.982 364.584 128.219C361.662 128.188 358.545 127.944 355.642 128.219Z"/>
	<path fill="#F24D51" transform="scale(0.195312 0.195312)" d="M423.932 86.8177C426.552 87.9225 431.621 92.679 432.392 94.9592C433.026 96.8311 426.923 101.609 425.707 102.764C422.435 100.001 419.865 96.3416 416.574 93.4708C418.609 90.657 420.765 88.3158 423.932 86.8177Z"/>
	<path fill="#F24D51" transform="scale(0.195312 0.195312)" d="M390.745 87.498C390.721 85.3945 390.058 79.3246 391.279 77.8972C393.767 76.9664 401.211 76.7301 403.651 77.8376C405.741 78.7856 404.713 86.3379 404.715 88.22C400.475 86.9977 395.116 87.0182 390.745 87.498Z"/>
	<path fill="#FD8A8A" transform="scale(0.195312 0.195312)" d="M282.515 142.577C294.005 141.826 340.055 159.065 326.504 167.416C323.412 167.837 318.761 162.736 316.285 161.15C309.947 157.091 302.064 153.652 294.719 151.904C291.204 151.068 282.875 151.103 280.742 147.908C279.368 145.85 280.666 143.72 282.515 142.577Z"/>
	<path fill="#74D7B4" transform="scale(0.195312 0.195312)" d="M73.5494 216.216C76.8019 216.228 89.2069 229.985 90.6807 232.624C90.8854 235.315 89.1463 236.411 86.8266 237.375C83.3306 235.474 80.7272 232.084 77.9306 229.298L77.9306 299.589C76.8658 300.79 75.9524 301.866 74.501 302.611C68.5008 301.321 70.7307 284.474 70.7326 279.338L70.734 248.274C70.7321 244.166 70.0735 232.56 70.7341 229.298C69.1522 230.507 57.6662 242.904 57.272 233.18C57.9895 230.939 71.0456 217.787 73.5494 216.216Z"/>
	<path fill="#74D7B4" transform="scale(0.195312 0.195312)" d="M311.804 90.2853C315.804 89.9535 321.633 98.044 324.405 100.663C326.679 102.811 332.43 105.787 328.837 109.422C325.279 113.022 317.395 121.343 314.045 123.483C311.769 124.938 308.97 122.455 309.161 119.999C309.311 118.085 316.025 112.149 317.734 110.723L318.042 110.469C308.367 110.117 298.542 110.464 288.849 110.465L229.625 110.469L211.621 110.485C208.718 110.503 202.103 111.646 199.664 109.701C198.282 108.599 198.229 106.086 199.481 104.862C201.812 102.587 209.48 103.601 212.433 103.608L307.876 103.64C311.257 103.653 314.667 103.835 318.042 103.632C314.938 100.646 304.115 94.3378 311.804 90.2853Z"/>
	<path fill="#31549C" transform="scale(0.195312 0.195312)" d="M116.346 315.235C115.512 300.078 116.501 283.097 116.364 267.716L116.342 232.025C116.336 218.499 113.76 199.801 131.777 195.778C137.185 194.57 146.255 195.228 152.1 195.23L189.092 195.241C186.94 197.411 185.058 199.805 182.942 201.988L149.834 201.975C136.186 201.962 122.39 199.947 122.624 218.762C123.025 250.905 122.705 283.088 122.707 315.235C120.649 314.692 118.426 314.989 116.346 315.235Z"/>
	<path fill="#74D7B4" transform="scale(0.195312 0.195312)" d="M436.825 167.416C444.22 164.847 441.256 187.185 441.256 191.965L441.257 264.385C441.259 269.814 441.591 275.382 441.255 280.789C444.089 278.885 448.721 272.431 451.482 272.154C454.272 271.875 456.223 275.402 454.558 277.619C450.647 282.826 444.304 287.659 439.813 292.653C438.782 293.022 437.729 293.489 436.666 292.934C434.727 291.922 418.875 278.763 421.628 274.869C425.145 269.895 431.612 278.499 434.105 280.789L434.105 169.245C434.967 168.554 435.886 167.994 436.825 167.416Z"/>
	<path fill="#4E7EC1" transform="scale(0.195312 0.195312)" d="M209.089 425.386C228.52 425.587 247.972 425.387 267.405 425.389L291.475 425.393C295.524 425.394 299.619 425.532 303.662 425.386L330.456 425.378C333.921 425.374 343.24 423.581 344.572 427.896C346.4 433.816 332.711 431.951 329.924 431.949L188.797 431.955C184.311 431.955 168.008 434.475 168.031 428.519C168.05 423.431 181.425 425.357 184.342 425.378L209.089 425.386Z"/>
	<path fill="#D9E4F4" transform="scale(0.195312 0.195312)" d="M218.295 392.03L293.799 392.03C294.39 400.083 295.388 408.88 298.875 416.236C300.141 418.906 303.063 422.714 303.662 425.386C299.619 425.532 295.524 425.394 291.475 425.393L267.405 425.389C247.972 425.387 228.52 425.587 209.089 425.386L208.684 424.635C208.648 424.026 222.601 400.13 218.295 392.03Z"/>
	<path fill="#FD8A8A" transform="scale(0.195312 0.195312)" d="M390.745 87.498C395.116 87.0182 400.475 86.9977 404.715 88.22C408.941 89.5133 412.924 90.8584 416.574 93.4708C419.865 96.3416 422.435 100.001 425.707 102.764C427.542 106.452 430.28 111.127 430.686 115.25C430.598 119.499 431.027 123.66 430.364 127.885L430.686 128.219C429.979 129.061 427.376 136.804 425.707 139.579C422.493 143.479 418.525 146.652 415.759 150.091C411.997 151.586 408.124 152.655 404.715 153.982C399.885 154.765 395.539 155.072 390.745 153.982C386.935 153.68 383.233 151.871 379.925 150.091C379.922 150.076 371.535 142.901 369.574 139.579C366.959 136.408 365.592 132.137 364.584 128.219C361.649 128.363 358.551 128.648 355.642 128.219C358.545 127.944 361.662 128.188 364.584 128.219C364.422 123.982 364.342 119.794 364.403 115.556L363.577 115.25C365.023 114.998 367.259 105.89 369.574 102.764C371.989 99.04 374.966 96.2005 378.45 93.4708C378.712 93.4176 388.844 88.2287 390.745 87.498ZM395.229 98.8297C364.31 103.617 371.787 146.747 400.119 143.568C420.369 140.245 427.024 115.027 409.586 102.702C405.752 99.9926 399.976 98 395.229 98.8297Z"/>
	<path fill="#D9E4F4" transform="scale(0.195312 0.195312)" d="M116.346 315.235C118.426 314.989 120.649 314.692 122.707 315.235C128.174 316.639 142.006 313.724 149.539 315.588C157.568 317.574 156.292 325.787 156.297 332.093L156.266 350.612C156.253 352.509 155.823 355.456 156.3 357.242L156.3 357.242C153.269 369.729 162.715 383.098 150.713 392.03C148.659 392.562 146.361 392.061 144.261 392.048L96.8239 392.035C79.8806 392.051 70.7593 396.189 70.7466 375.268L70.8532 336.245C71.088 317.885 69.5713 315.163 87.5247 315.207L106.357 315.247C109.435 315.266 112.802 315.587 115.848 315.288L116.346 315.235Z"/>
	<path fill="#F9BB38" transform="scale(0.195312 0.195312)" d="M90.9596 332.23L120.298 332.216C126.541 332.219 140.25 329.637 141.445 338.566C142.073 343.259 141.517 350.982 141.509 356.003C141.498 362.537 144.442 375.38 135.043 376.475L106.322 376.487C99.9786 376.488 86.2475 378.869 84.155 371.285C83.49 368.875 83.4391 343.474 83.8444 339.573C84.2749 335.432 86.9784 333.121 90.9596 332.23Z"/>
	<path fill="#D9E4F4" transform="scale(0.195312 0.195312)" d="M95.354 361.772L107.425 361.743C109.679 361.739 112.116 361.558 114.345 361.866C118.935 362.502 118.659 365.36 115.009 367.114C111.722 367.12 94.9015 367.792 92.7644 366.329C89.6692 364.21 93.0039 361.941 95.354 361.772Z"/>
	<path fill="#D9E4F4" transform="scale(0.195312 0.195312)" d="M93.942 342.004C104.804 341.734 118.456 341.464 129.245 342.053C133.828 342.303 134.25 344.058 131.492 347.306C120.965 347.806 110.39 347.164 99.8494 347.284C96.0551 347.328 90.541 348.255 91.8693 342.616C92.5368 342.029 93.0732 342.109 93.942 342.004Z"/>
	<path fill="#D9E4F4" transform="scale(0.195312 0.195312)" d="M93.0304 351.713C97.8343 351.687 130.349 351.097 132.208 352.472C134.299 354.019 132.785 355.811 131.492 357.242C124.829 358.261 103.746 357.485 96.9301 357.128C92.2383 356.882 89.3535 353.617 93.0304 351.713Z"/>
	<path fill="#D9E4F4" transform="scale(0.195312 0.195312)" d="M112.635 102.764C115.65 102.5 118.736 102.734 121.762 102.746L161.341 102.755C180.929 102.744 187.261 99.0578 187.202 121.047L187.201 155.293C187.21 163.385 189.213 175.407 178.274 176.787C178.193 179.718 180.776 194.811 175.074 189.511C170.767 186.193 166.72 180.628 162.508 176.787C149.624 176.385 136.594 176.791 123.695 176.795C100.196 176.801 99.2023 179.52 98.9374 155.847C98.8232 145.639 97.7323 117.046 99.6988 108.305C100.936 102.804 108.22 102.682 112.635 102.764Z"/>
	<path fill="#5AACF6" transform="scale(0.195312 0.195312)" d="M137.309 155.752C141.945 155.601 168.971 154.103 169.93 158.305C170.301 159.933 168.813 161.439 167.312 161.722C162.988 161.712 137.719 162.23 135.697 161.29C133.267 160.162 133.929 156.676 137.309 155.752Z"/>
	<path fill="#5AACF6" transform="scale(0.195312 0.195312)" d="M144.806 118.122L159.026 118.113C160.518 118.11 173.914 117.615 168.752 122.769C166.549 124.969 162.58 124.474 159.721 124.407C156.437 124.412 137.073 124.965 135.373 123.674C134.094 122.703 133.829 120.033 135.055 118.923C136.668 117.464 142.655 118.108 144.806 118.122Z"/>
	<path fill="#5AACF6" transform="scale(0.195312 0.195312)" d="M137.309 148.21C142.737 148.08 170.196 147.381 174.402 148.428C177.492 149.198 176.38 152.764 174.308 153.982C168.133 154.583 143.8 154.703 137.381 153.679C133.502 153.06 134.239 149.795 137.309 148.21Z"/>
	<path fill="#5AACF6" transform="scale(0.195312 0.195312)" d="M158.019 125.73C158.748 125.685 182.606 124.691 174.933 130.867C173.438 132.071 155.531 131.499 152.255 131.511C149.132 131.492 137.035 132.347 135.09 130.747C128.595 125.403 143.083 125.745 144.487 125.748L158.019 125.73Z"/>
	<path fill="#F24D51" transform="scale(0.195312 0.195312)" d="M118.252 115.25C130.479 115.607 133.395 131.034 120.948 134.228C108.887 135.156 106.314 118.61 118.252 115.25Z"/>
	<path fill="#D9E4F4" transform="scale(0.195312 0.195312)" d="M119.262 121.014C124.278 121.721 124.097 126.21 120.214 128.219C115.213 127.686 115.193 122.847 119.262 121.014Z"/>
	<path fill="#F24D51" transform="scale(0.195312 0.195312)" d="M117.034 145.806C129.709 144.548 134.319 157.523 122.707 164.149C110.128 165.297 104.573 150.896 117.034 145.806Z"/>
	<path fill="#D9E4F4" transform="scale(0.195312 0.195312)" d="M119.262 151.223C124.256 151.366 123.851 156.333 120.214 158.182C114.965 157.766 115.274 153.178 119.262 151.223Z"/>
	<path fill="#5AACF6" transform="scale(0.195312 0.195312)" d="M156.3 357.242L156.3 363.534L395.229 363.534C394.992 386.447 390.259 392.262 366.992 392.047L312.942 392.036C306.58 392.039 300.151 392.374 293.799 392.03L218.295 392.03L150.713 392.03C162.715 383.098 153.269 369.729 156.3 357.242Z"/>
	<path fill="#D9E4F4" transform="scale(0.195312 0.195312)" d="M255.73 370.325C264.701 370.214 264.765 380.643 256.958 383.442C248.389 383.764 247.108 371.839 255.73 370.325Z"/>
	<path fill="#8ADFFB" transform="scale(0.195312 0.195312)" d="M178.274 310.257C180.653 310.074 182.737 312.795 181.683 315.055C180.695 317.175 169.932 324.821 167.312 325.769C164.874 325.616 162.394 323.517 163.456 320.881C164.832 317.464 174.765 311.668 178.274 310.257Z"/>
	<path fill="#8ADFFB" transform="scale(0.195312 0.195312)" d="M359.08 279.761C366.888 280.522 359.818 294.294 358.172 298.11C350.151 316.709 334.817 333.666 315.735 341.268C312.936 341.561 311.068 338.201 312.998 335.991C314.803 333.924 318.09 332.475 320.399 331.006C335.947 321.112 345.937 310.326 352.898 292.639C354.309 289.054 355 281.148 359.08 279.761Z"/>
	<path fill="#31549C" transform="scale(0.195312 0.195312)" d="M322.77 196.006L359.568 196.016C389.179 196.011 395.25 195.674 395.24 230.175L395.229 363.534L156.3 363.534L156.3 357.242L156.3 357.242C164.663 357.576 173.182 357.245 181.558 357.245L388.982 357.242L388.99 228.682C388.999 202.678 388.418 201.961 359.59 201.979L328.628 201.988C326.92 199.812 324.46 198.317 322.77 196.006Z"/>
	<path fill="#5AACF6" transform="scale(0.195312 0.195312)" d="M240.266 164.149L260.666 164.133C264.06 164.131 267.597 163.884 270.97 164.149C271.038 170.033 270.985 175.92 270.97 181.804C280.052 182.347 289.065 187.289 296.488 192.174C297.957 190.614 305.492 181.898 306.818 181.892C310.186 181.876 318.755 193.796 322.77 196.006C324.46 198.317 326.92 199.812 328.628 201.988C330.285 206.146 321.765 211.815 319.124 216.216C323.862 224.029 325.225 229.89 328.628 237.84C333.985 237.838 339.367 237.685 344.721 237.84C345.317 246.899 344.984 259.683 344.721 268.818C339.46 269.214 333.922 268.833 328.628 268.818C326.809 277.366 322.821 284.834 319.124 292.653C320.681 294.3 327.252 302.408 327.714 303.973C328.154 305.47 322.993 309.271 321.998 310.262C307.423 324.767 310.148 330.111 294.984 315.235C287.843 320.308 281.522 322.889 273.081 325.085C272.613 327.722 272.54 338.939 271.245 340.223C268.475 340.971 244.009 340.954 240.266 340.686C240.285 335.462 239.588 330.143 238.275 325.085C230.178 322.296 224.284 319.679 216.911 315.235C212.958 318.314 209.35 322.559 205.055 325.085C199.476 320.773 187.416 307.81 182.942 302.611C184.618 298.773 189.608 294.436 192.83 291.701C187.291 285.623 184.396 276.769 182.942 268.818C178.966 269.432 172.712 270.989 168.846 270.168L168.848 269.941L168.648 269.921C168.03 266.905 167.802 240.717 168.683 238.748C170.095 237.886 180.366 239.258 182.942 239.228C184.55 230.43 188.342 222.444 192.83 214.797C189.822 211.166 186.114 208.22 182.942 204.743C182.973 203.82 183.018 202.909 182.942 201.988C185.058 199.805 186.94 197.411 189.092 195.241C205.853 179.756 200.578 176.783 215.167 192.174C223.353 187.288 230.876 183.861 240.266 181.804C240.251 175.962 239.955 169.977 240.266 164.149ZM255.73 209.367C213.578 211.385 195.714 259.989 226.47 287.579C235.237 295.443 245.361 298.313 256.958 298.247C313.843 297.861 316.293 210.19 255.73 209.367Z"/>
	<path fill="#F9BB38" transform="scale(0.195312 0.195312)" d="M255.73 209.367C316.293 210.19 313.843 297.861 256.958 298.247C245.361 298.313 235.237 295.443 226.47 287.579C195.714 259.989 213.578 211.385 255.73 209.367ZM247.688 225.689C245.769 227.532 246.741 241.398 246.749 244.257C241.582 244.254 236.393 244.159 231.228 244.257C230.148 263.417 228.82 261.912 246.749 261.323C246.621 281.895 243.441 278.184 260.246 278.711C261.446 278.749 263.465 279.459 264.533 278.978L264.564 278.735L264.564 261.323L282.515 261.323C282.368 255.642 282.503 249.94 282.515 244.257L264.564 244.257L264.564 225.689L247.688 225.689Z"/>
</svg>
