<?xml version="1.0" encoding="utf-8" ?>
<svg xmlns="http://www.w3.org/2000/svg" xmlns:xlink="http://www.w3.org/1999/xlink" width="100" height="100">
	<path fill="#1F4DA6" transform="scale(0.195312 0.195312)" d="M248.836 63.4999C306.172 62.7802 345.848 90.5828 363.066 146.251C384.299 137.792 409.421 142.446 425.809 158.657C458.693 191.189 444.58 249.522 397.747 259.614C388.813 261.539 379.071 260.821 369.953 260.82L335.29 260.813L335.29 310.182C346.284 310.36 364.601 308.908 374.813 310.346C380.432 311.137 378.835 318.829 378.824 322.924L378.799 337.471C378.8 355.836 378.505 374.253 378.806 392.612C402.575 399.235 406.904 430.439 385.135 441.556C363.96 452.369 340.73 431.75 348.93 407.701L320.904 407.713C295.31 407.714 297.85 409.108 297.841 385.8C297.839 380.268 295.217 364.142 303.007 363.697C310.977 363.242 309.007 372.467 308.966 377.526L308.987 396.754L342.524 396.765C346.392 396.766 353.488 397.242 356.952 396.597C359.615 396.102 364.446 393.184 368.262 392.092L368.262 320.969C364.765 320.671 361.057 320.95 357.535 320.954L335.29 320.969C335.487 329.234 334.581 336.896 328.368 343.084C319.637 351.779 309.08 349.866 297.798 349.85L264.625 349.86L223.934 349.862C201.973 349.876 175.871 353.493 177.25 320.969L143.702 320.969L143.702 392.612L144.229 392.691C148.041 393.26 151.108 395.652 154.178 395.983C157.72 396.364 163.668 395.855 167.549 395.858L202.252 395.867L202.217 379.572C202.212 376.491 201.334 370.348 203.367 367.717C205.164 365.393 209.26 364.682 211.524 366.702C215.27 370.045 213.599 384.893 213.612 389.757C213.667 410.388 212.472 406.783 193.468 406.766L162.581 406.753C168.49 422.179 163.052 438.496 146.273 443.436C113.421 453.109 97.813 401.747 133.248 392.612C133.547 385.998 133.258 379.259 133.255 372.629L133.22 321.017C133.21 317.988 131.922 311.003 136.123 310.389C146.63 308.855 165.927 310.354 177.25 310.182L177.25 260.813L141.114 260.824C133.971 260.826 126.597 261.223 119.506 260.338C98.8272 257.754 80.495 242.678 72.656 223.596C52.7649 175.177 101.897 126.372 149.448 146.251C160.742 98.8595 201.608 68.3249 248.836 63.4999ZM179.004 233.913C188.248 221.526 195.596 222.533 210.29 222.618C210.258 204.873 210.582 192.818 223.847 179.101C240.887 161.481 270.684 161.122 288.089 178.418C300.897 191.146 302.029 205.248 302.002 222.618C315.492 222.539 324.301 220.99 332.685 233.913C335.413 239.683 335.289 243.956 335.29 250.192L369.148 250.201C385.842 250.198 399.107 251.242 413.367 240.935C449.015 215.17 433.066 159.281 390.039 152.76C382.821 152.964 376.128 153.027 369.193 155.424C363.008 157.562 361.609 161.244 354.992 157.791C352.83 153.481 352.241 148.357 350.858 143.743C340.243 108.324 308.167 79.8207 270.996 75.7458C266.452 75.2803 262.045 74.5761 257.46 74.4801C208.092 73.4456 169.807 106.72 159.139 153.741C156.626 164.818 149.206 157.365 142.905 155.208C97.7244 139.742 60.258 193.841 89.6053 231.297C90.3131 232.201 91.097 233.117 91.9251 233.913C106.375 250.853 125.977 250.204 145.965 250.204L177.25 250.192C177.23 244.657 176.898 239.155 179.004 233.913ZM265.77 301.573C264.459 302.12 263.167 302.666 261.802 303.067C262.214 305.117 262.267 307.236 262.394 309.32L262.701 309.417C264.197 307.924 265.967 303.612 265.77 301.573Z"/>
	<path fill="#6ED0F8" transform="scale(0.195312 0.195312)" d="M91.9251 233.913C91.097 233.117 90.3131 232.201 89.6053 231.297C60.258 193.841 97.7244 139.742 142.905 155.208C149.206 157.365 156.626 164.818 159.139 153.741C169.807 106.72 208.092 73.4456 257.46 74.4801C262.045 74.5761 266.452 75.2803 270.996 75.7458C308.167 79.8207 340.243 108.324 350.858 143.743C352.241 148.357 352.83 153.481 354.992 157.791C361.609 161.244 363.008 157.562 369.193 155.424C376.128 153.027 382.821 152.964 390.039 152.76C433.066 159.281 449.015 215.17 413.367 240.935C399.107 251.242 385.842 250.198 369.148 250.201L335.29 250.192C335.289 243.956 335.413 239.683 332.685 233.913C324.301 220.99 315.492 222.539 302.002 222.618C302.029 205.248 300.897 191.146 288.089 178.418C270.684 161.122 240.887 161.481 223.847 179.101C210.582 192.818 210.258 204.873 210.29 222.618C195.596 222.533 188.248 221.526 179.004 233.913C176.898 239.155 177.23 244.657 177.25 250.192L145.965 250.204C125.977 250.204 106.375 250.853 91.9251 233.913ZM332.685 148.374C332.669 145.894 332.013 143.233 331.126 140.929C328.059 135.368 324.828 127.957 318.903 124.974C304.478 126.744 313.086 136.058 316.478 142.761C318.993 147.732 320.556 156.305 328.298 153.2C330.314 152.392 332.081 150.455 332.685 148.374ZM304.288 123.199C323.664 115.785 293.454 99.7428 285.656 96.9655C279.518 94.7791 268.309 91.9413 261.802 92.3477C255.569 93.5754 252.411 100.852 258.446 104.944C261.268 106.858 266.859 106.027 270.223 106.61C285.602 109.275 299.36 122.573 304.288 123.199ZM332.685 179.394C339.804 177.826 338.565 168.244 338.241 162.796C336.378 161.066 333.842 158.867 331.126 158.995C319.314 163.437 323.271 179.851 332.685 179.394Z"/>
	<path fill="#10BBF9" transform="scale(0.195312 0.195312)" d="M390.039 152.76C433.066 159.281 449.015 215.17 413.367 240.935C399.107 251.242 385.842 250.198 369.148 250.201L335.29 250.192C335.289 243.956 335.413 239.683 332.685 233.913L357.492 233.924C363.284 233.921 369.518 234.366 375.222 233.294C407.553 227.222 418.047 185.72 398.389 161.63C395.817 158.477 392.168 156.287 390.039 152.76Z"/>
	<path fill="#10BBF9" transform="scale(0.195312 0.195312)" d="M270.996 75.7458C308.167 79.8207 340.243 108.324 350.858 143.743C352.241 148.357 352.83 153.481 354.992 157.791C344.147 158.072 335.955 160.704 332.685 148.374C332.669 145.894 332.013 143.233 331.126 140.929C332.71 137.896 327.192 126.174 325.657 122.916C317.449 105.484 303.197 91.3502 285.994 82.7425C283.162 81.3254 271.918 77.7355 270.996 75.7458Z"/>
	<path fill="#10BBF9" transform="scale(0.195312 0.195312)" d="M91.9251 233.913L150.088 233.908C159.685 233.907 169.424 233.56 179.004 233.913C176.898 239.155 177.23 244.657 177.25 250.192L145.965 250.204C125.977 250.204 106.375 250.853 91.9251 233.913Z"/>
	<path fill="#E1EDF1" transform="scale(0.195312 0.195312)" d="M187.835 315.814L187.829 266.306C187.829 256.447 183.774 234.433 197.531 233.28C205.128 232.644 212.967 233.022 220.599 233.02L295.85 233.021C306.432 233.018 323.621 229.525 324.394 244.73L324.422 318.379C324.534 337.954 321.646 339.063 301.06 339.069L201.757 339.16C187.383 339.121 187.693 326.257 187.835 315.814ZM265.77 301.573C264.459 302.12 263.167 302.666 261.802 303.067C262.214 305.117 262.267 307.236 262.394 309.32L262.701 309.417C264.197 307.924 265.967 303.612 265.77 301.573Z"/>
	<path fill="#C5E0EB" transform="scale(0.195312 0.195312)" d="M308.987 244.73C314.125 244.555 319.255 244.778 324.394 244.73L324.422 318.379C324.534 337.954 321.646 339.063 301.06 339.069L201.757 339.16C187.383 339.121 187.693 326.257 187.835 315.814C188.374 316.694 187.924 318.89 187.835 319.958L231.395 319.968C234.519 319.969 249.937 320.573 250.297 319.322C251.704 326.002 260.711 326.482 261.802 319.322C263.684 320.756 285.183 319.938 288.537 319.937C306.009 319.933 309.066 321.486 309.008 304.001L308.987 244.73Z"/>
	<path fill="#1F4DA6" transform="scale(0.195312 0.195312)" d="M250.297 303.067C232.016 296.754 228.419 273.66 244.611 263.398C267.645 248.798 294.194 284.493 265.77 301.573C264.459 302.12 263.167 302.666 261.802 303.067C261.664 308.461 262.15 313.952 261.802 319.322C260.711 326.482 251.704 326.002 250.297 319.322C250.184 313.909 250.28 308.482 250.297 303.067Z"/>
	<path fill="#139AFE" transform="scale(0.195312 0.195312)" d="M255.139 270.786C269.491 269.957 271.963 291.232 256.976 293.167C244.048 294.723 239.942 274.076 255.139 270.786Z"/>
	<path fill="#1F4DA6" transform="scale(0.195312 0.195312)" d="M199.46 243.475C204.243 243.397 214.265 241.966 212.853 249.935C212.526 251.781 211.301 252.74 209.81 253.718C206.99 254.048 202.757 254.102 200.044 253.28C195.47 251.895 195.301 245.417 199.46 243.475Z"/>
	<path fill="#1F4DA6" transform="scale(0.195312 0.195312)" d="M221.508 243.475C224.355 243.477 228.312 243.056 230.859 244.381C235.376 246.731 232.905 252.765 228.697 253.718C225.86 253.758 221.493 254.289 219.058 252.721C215.083 250.163 217.189 244.127 221.508 243.475Z"/>
	<path fill="#6ED0F8" transform="scale(0.195312 0.195312)" d="M251.974 176.773C262.488 175.444 273.568 179.501 280.965 186.984C291.55 197.691 291.268 208.704 291.239 222.618L261.802 222.618L221.508 222.618C221.451 200.046 226.179 181.189 251.974 176.773Z"/>
	<path fill="#C5E0EB" transform="scale(0.195312 0.195312)" d="M372.508 402.598C392.156 401.885 395.082 430.673 374.579 433.69C353.252 434.23 352.261 404.553 372.508 402.598Z"/>
	<path fill="#1F4DA6" transform="scale(0.195312 0.195312)" d="M373.539 411.31C381.739 411.867 381.992 423.067 373.539 424.666C364.633 423.988 363.943 412.745 373.539 411.31Z"/>
	<path fill="#C5E0EB" transform="scale(0.195312 0.195312)" d="M138.576 403.588C152.545 399.909 164.482 427.954 140.563 433.69C118.567 434.653 118.505 403.05 138.576 403.588Z"/>
	<path fill="#1F4DA6" transform="scale(0.195312 0.195312)" d="M138.576 412.276C145.831 410.777 148.175 420.261 140.563 424.666C131.287 425.21 128.799 414.772 138.576 412.276Z"/>
	<path fill="#1F4DA6" transform="scale(0.195312 0.195312)" d="M256.006 363.338C263.068 363.97 261.858 370.43 261.833 375.623C261.806 381.274 261.608 386.966 261.802 392.612C292.454 400.776 286.336 444.039 256.976 444.524C226.041 444.581 219.015 401.13 251.025 392.612C251.029 384.841 247.478 365.13 256.006 363.338Z"/>
	<path fill="#C5E0EB" transform="scale(0.195312 0.195312)" d="M253.994 403.588C273.282 401.045 278.103 429.16 258.725 433.69C237.795 436.059 234.643 406.258 253.994 403.588Z"/>
	<path fill="#1F4DA6" transform="scale(0.195312 0.195312)" d="M255.139 412.276C263.716 412.073 264.866 422.742 256.976 424.666C248.114 425.058 247.487 414.74 255.139 412.276Z"/>
</svg>
