<?xml version="1.0" encoding="utf-8" ?>
<svg xmlns="http://www.w3.org/2000/svg" xmlns:xlink="http://www.w3.org/1999/xlink" width="100" height="100">
	<path fill="#2F65AF" transform="scale(0.195312 0.195312)" d="M89.5245 247.944C88.029 247.837 85.9862 247.74 84.8572 246.634C83.1681 244.979 83.9121 224.081 84.4571 222.999C85.2886 221.348 87.9961 221.434 89.5245 221.418C91.5905 221.907 92.5603 222.472 93.7318 224.239C94.0362 228.976 94.1817 239.827 93.7199 244.429C93.4777 246.843 92.5241 247.317 90.2164 247.798L89.5245 247.944Z"/>
	<path fill="#2F65AF" transform="scale(0.195312 0.195312)" d="M164.218 98.7533L164.19 88.4923C164.162 66.7014 173.879 65.6928 193.37 65.5863L217.776 65.5916C242.008 65.5982 266.28 65.2806 290.508 65.5396C311.517 65.7641 309.142 84.8339 309.854 98.7533L352.736 98.763C358.8 98.7604 370.025 98.0797 375.407 99.3132C393.213 103.394 390.251 123.363 390.242 136.632L390.245 325.816C451.974 350.161 433.982 438.706 370.333 442.297C361.095 442.819 349.662 441.997 340.059 441.997L121.786 441.997C109.273 442.01 91.5355 445.039 85.5919 430.621C82.7494 423.726 84.1007 406.641 84.1011 398.951L84.0945 292.33C84.0933 282.556 83.8982 272.746 84.0642 262.975C84.131 259.047 85.4179 257.965 89.5245 257.922C89.3343 254.648 89.3571 251.221 89.5245 247.944L90.2164 247.798C92.5241 247.317 93.4777 246.843 93.7199 244.429C94.1817 239.827 94.0362 228.976 93.7318 224.239C92.5603 222.472 91.5905 221.907 89.5245 221.418C89.785 218.121 89.5177 214.611 89.5245 211.285C81.4768 211.171 84.0871 200.911 84.0893 194.271L84.0996 172.021C84.1098 154.949 83.6883 137.44 84.1114 120.422C84.7445 94.954 109.818 98.7251 127.63 98.7431C134.163 98.7498 159.032 99.9192 164.218 98.7533ZM332.935 344.648C333.044 350.719 332.452 356.393 335.085 362.122C335.824 363.731 339.585 368.966 339.117 370.549L338.776 370.811L334.435 370.811C336.572 372.688 337.815 374.404 338.776 377.132C341.879 380.081 350.676 390.956 350.315 395.25L355.891 395.25L355.891 411.275C363.844 411.287 371.808 411.39 379.759 411.275L379.759 410.565C383.055 410.944 385.885 413.012 389.07 413.818C399.165 416.373 401.879 412.31 409.221 411.275C416.111 406.874 419.874 385.876 419.481 377.956C417.285 333.663 359.156 314.926 332.935 344.648ZM182.675 74.7827C170.604 75.5628 173.225 85.0835 173.225 94.0113L173.238 117.508L291.125 117.508L300.591 117.508L300.605 94.7797C300.607 74.5436 299.782 74.7031 281.86 74.7562L182.675 74.7827Z"/>
	<path fill="#56D0EE" transform="scale(0.195312 0.195312)" d="M316.232 414.768C319.624 422.69 327.414 427.3 333.64 432.762L319.821 432.762C314.724 427.415 309.797 421.807 307.236 414.768C310.246 414.956 313.227 415.141 316.232 414.768Z"/>
	<path fill="#EF574F" transform="scale(0.195312 0.195312)" d="M409.221 411.275C407.666 414.033 405.447 416.404 403.163 418.57C382.601 438.074 348.97 438.081 329.533 416.91C310.407 396.077 311.947 363.594 332.935 344.648C333.044 350.719 332.452 356.393 335.085 362.122C335.824 363.731 339.585 368.966 339.117 370.549L338.776 370.811L334.435 370.811C336.572 372.688 337.815 374.404 338.776 377.132C341.879 380.081 350.676 390.956 350.315 395.25L355.891 395.25L355.891 411.275C363.844 411.287 371.808 411.39 379.759 411.275L379.759 410.565C383.055 410.944 385.885 413.012 389.07 413.818C399.165 416.373 401.879 412.31 409.221 411.275Z"/>
	<path fill="#56D0EE" transform="scale(0.195312 0.195312)" d="M334.435 395.25C334.443 387.142 334.039 378.895 334.435 370.811C336.572 372.688 337.815 374.404 338.776 377.132C339.095 383.178 338.708 389.2 338.776 395.25L334.435 395.25Z"/>
	<path fill="#14AEF6" transform="scale(0.195312 0.195312)" d="M355.891 411.275C363.844 411.287 371.808 411.39 379.759 411.275L379.759 415.764L355.891 415.764C355.832 414.277 355.889 412.765 355.891 411.275Z"/>
	<path fill="#ABE0F0" transform="scale(0.195312 0.195312)" d="M338.776 377.132C341.879 380.081 350.676 390.956 350.315 395.25L338.776 395.25C338.708 389.2 339.095 383.178 338.776 377.132Z"/>
	<path fill="#78A5EC" transform="scale(0.195312 0.195312)" d="M182.675 74.7827L281.86 74.7562C299.782 74.7031 300.607 74.5436 300.605 94.7797L300.591 117.508L291.125 117.508L173.238 117.508L173.225 94.0113C173.225 85.0835 170.604 75.5628 182.675 74.7827ZM217.085 89.8833C213.991 91.6847 213.479 96.6962 217.306 97.7741C220.081 98.5556 232.012 97.9844 235.64 97.9947L252.521 98.039C255.419 98.0453 258.393 98.184 261.286 98.0145C264.565 96.9911 264.971 91.8108 261.804 90.4916C258.832 89.2539 223.029 89.8879 217.085 89.8833Z"/>
	<path fill="#FEFEFE" transform="scale(0.195312 0.195312)" d="M198.431 89.8833C204.05 90.0744 210.286 93.6355 203.743 98.0145C196.771 99.0793 192.465 93.4624 198.431 89.8833Z"/>
	<path fill="#F38B83" transform="scale(0.195312 0.195312)" d="M332.935 344.648C359.156 314.926 417.285 333.663 419.481 377.956C419.874 385.876 416.111 406.874 409.221 411.275C401.879 412.31 399.165 416.373 389.07 413.818C385.885 413.012 383.055 410.944 379.759 410.565L379.759 411.275C371.808 411.39 363.844 411.287 355.891 411.275L355.891 395.25L350.315 395.25C350.676 390.956 341.879 380.081 338.776 377.132C337.815 374.404 336.572 372.688 334.435 370.811L338.776 370.811L339.117 370.549C339.585 368.966 335.824 363.731 335.085 362.122C332.452 356.393 333.044 350.719 332.935 344.648ZM355.891 349.284L355.891 361.559L355.891 370.811C350.235 370.771 344.415 370.507 338.776 370.811L334.435 370.811C336.572 372.688 337.815 374.404 338.776 377.132C341.879 380.081 350.676 390.956 350.315 395.25L355.891 395.25L355.891 411.275C363.844 411.287 371.808 411.39 379.759 411.275L379.759 410.565C379.572 408.575 379.441 396.758 379.759 395.25L399.115 395.25L399.115 370.811C398.117 370.776 397.125 370.793 396.127 370.811C390.776 370.429 385.135 370.771 379.759 370.811L379.759 368.336L379.759 349.284C371.81 349.171 363.843 349.282 355.891 349.284Z"/>
	<path fill="#78EDF8" transform="scale(0.195312 0.195312)" d="M309.854 108.556C314.37 108.251 319.055 108.546 323.592 108.554L352.001 108.575C358.29 108.574 372.907 107.034 377.274 110.86C383.118 115.978 380.755 133.138 380.755 140.766L380.755 322.662C373.465 321.119 365.213 320.597 357.987 322.662C355.004 322.715 352.363 323.425 349.502 324.191C349.112 314.68 349.498 304.973 349.499 295.443L349.513 175.149C349.515 165.132 349.136 154.988 349.502 144.99C350.64 116.123 332.056 121.903 309.854 121.943C309.971 117.48 309.844 113.019 309.854 108.556Z"/>
	<path fill="#2F65AF" transform="scale(0.195312 0.195312)" d="M349.502 144.99C353.413 144.961 361.249 143.897 364.234 146.905C368.164 150.865 363.404 155.196 357.987 155.115C355.238 154.878 352.273 155.102 349.502 155.115C349.668 151.727 349.849 148.375 349.502 144.99Z"/>
	<path fill="#56D0EE" transform="scale(0.195312 0.195312)" d="M349.502 144.99C349.849 148.375 349.668 151.727 349.502 155.115C352.273 155.102 355.238 154.878 357.987 155.115C358.35 173.681 357.983 192.333 357.983 210.909L357.987 322.662C355.004 322.715 352.363 323.425 349.502 324.191C349.112 314.68 349.498 304.973 349.499 295.443L349.513 175.149C349.515 165.132 349.136 154.988 349.502 144.99Z"/>
	<path fill="#78EDF8" transform="scale(0.195312 0.195312)" d="M89.5245 211.285C95.6685 211.026 93.754 199.782 93.744 195.144L93.7238 175.215C93.726 156.715 93.959 138.188 93.5668 119.693C93.2497 104.738 111.625 108.562 121.309 108.565L164.218 108.556L164.218 117.508C155.065 119.932 138.697 112.625 130.139 126.003C126.746 131.308 127.747 137.039 127.455 142.996L127.455 153.034L127.446 369.884C127.42 372.668 127.177 375.517 127.455 378.288C127.417 379.664 127.41 381.026 127.455 382.402C127.6 393.815 136.699 403.254 147.72 405.031C152.235 405.759 158.152 405.256 162.842 405.257L263.019 405.248C274.709 405.249 286.495 405.665 298.174 405.247C300.028 405.275 301.877 405.303 303.73 405.247C306.164 405.231 308.67 405.087 311.095 405.247C312.588 408.609 314.008 411.818 316.232 414.768C313.227 415.141 310.246 414.956 307.236 414.768C309.797 421.807 314.724 427.415 319.821 432.762L125.548 432.762C117.721 432.761 109.659 433.199 101.867 432.701C92.2939 432.09 93.7287 421.345 93.726 414.742L93.7254 303.409C93.7132 289.994 94.0894 276.505 93.7597 263.103C93.6728 259.57 92.8797 259.028 89.5245 257.922C89.3343 254.648 89.3571 251.221 89.5245 247.944L90.2164 247.798C92.5241 247.317 93.4777 246.843 93.7199 244.429C94.1817 239.827 94.0362 228.976 93.7318 224.239C92.5603 222.472 91.5905 221.907 89.5245 221.418C89.785 218.121 89.5177 214.611 89.5245 211.285Z"/>
	<path fill="#14AEF6" transform="scale(0.195312 0.195312)" d="M121.62 394.536C107.815 394.61 109.485 393.373 109.489 381.389L109.505 151.483C109.517 139.366 114.959 142.929 127.455 142.996L127.455 153.034L127.446 369.884C127.42 372.668 127.177 375.517 127.455 378.288C127.417 379.664 127.41 381.026 127.455 382.402C127.6 393.815 136.699 403.254 147.72 405.031C152.235 405.759 158.152 405.256 162.842 405.257L263.019 405.248C274.709 405.249 286.495 405.665 298.174 405.247C300.028 405.275 301.877 405.303 303.73 405.247C306.164 405.231 308.67 405.087 311.095 405.247C312.588 408.609 314.008 411.818 316.232 414.768C313.227 415.141 310.246 414.956 307.236 414.768L306.63 414.768L165.941 414.777C149.003 414.781 127.956 415.571 121.62 394.536Z"/>
	<path fill="#FEFEFE" transform="scale(0.195312 0.195312)" d="M118.73 153.034L121.62 153.034L121.62 382.402L118.73 382.402L118.73 153.034Z"/>
	<path fill="#AEB4C2" transform="scale(0.195312 0.195312)" d="M121.62 153.034L127.455 153.034L127.446 369.884C127.42 372.668 127.177 375.517 127.455 378.288C127.417 379.664 127.41 381.026 127.455 382.402C125.549 382.116 123.528 382.154 121.62 382.402L121.62 153.034Z"/>
	<path fill="#FEFEFE" transform="scale(0.195312 0.195312)" d="M127.455 142.996C127.747 137.039 126.746 131.308 130.139 126.003C138.697 112.625 155.065 119.932 164.218 117.508C164.687 130.402 179.22 126.298 189.548 126.298L278.001 126.292C285.177 126.291 307.487 129.459 309.854 121.943C332.056 121.903 350.64 116.123 349.502 144.99C349.136 154.988 349.515 165.132 349.513 175.149L349.499 295.443C349.498 304.973 349.112 314.68 349.502 324.191C336.819 328.699 318.024 342.452 313.213 355.711C308.147 367.758 306.524 378.049 307.236 391.06C308.409 395.848 309.42 400.596 311.095 405.247C308.67 405.087 306.164 405.231 303.73 405.247C301.877 405.303 300.028 405.275 298.174 405.247C286.495 405.665 274.709 405.249 263.019 405.248L162.842 405.257C158.152 405.256 152.235 405.759 147.72 405.031C136.699 403.254 127.6 393.815 127.455 382.402C127.41 381.026 127.417 379.664 127.455 378.288C127.177 375.517 127.42 372.668 127.446 369.884L127.455 153.034L127.455 142.996Z"/>
	<path fill="#78A5EC" transform="scale(0.195312 0.195312)" d="M233.32 351.773C244.742 351.613 256.189 351.771 267.614 351.785C271.873 351.79 289.377 349.532 290.621 355.294C291.404 358.927 289.207 360.888 285.936 361.559L251.969 361.566C247.874 361.566 233.745 362.741 230.647 360.681C226.235 357.747 228.471 352.321 233.32 351.773Z"/>
	<path fill="#2F65AF" transform="scale(0.195312 0.195312)" d="M253.521 209.291C259.676 209.076 265.914 209.287 272.077 209.289L325.658 209.291C329.131 209.287 334.572 207.951 336.526 211.856C337.917 214.637 336.43 217.433 333.64 218.465L262.25 218.464C258.339 218.467 251.958 219.885 250.301 215.03C249.397 212.381 250.988 210.108 253.521 209.291Z"/>
	<path fill="#2F65AF" transform="scale(0.195312 0.195312)" d="M292.399 231.867L320.318 231.886C324.031 231.89 332.857 230.345 335.807 233.16C337.364 234.646 337.318 238.595 335.747 240.072C333.295 242.378 323.307 241.267 320.042 241.265L295.125 241.246L265.944 241.253C262.787 241.252 256.705 241.657 253.88 241.177C248.987 240.344 248.575 233.332 253.735 232.312C258.309 231.408 263.631 231.856 268.285 231.855L292.399 231.867Z"/>
	<path fill="#2F65AF" transform="scale(0.195312 0.195312)" d="M253.521 255.214C259.01 254.935 264.659 255.206 270.162 255.208L323.709 255.2C328.006 255.199 338.92 253.455 336.585 261.25C336.084 262.922 335.139 263.919 333.64 264.751C331.586 265.002 329.307 264.785 327.231 264.778L273.273 264.75C268.976 264.751 257.11 265.344 253.822 264.358C249.065 262.931 249.383 257.065 253.521 255.214Z"/>
	<path fill="#78A5EC" transform="scale(0.195312 0.195312)" d="M327.105 186.501C329.504 186.337 333.048 185.648 335.081 187.182C337.157 188.749 337.412 192.941 335.637 194.804C333.655 196.885 325.869 195.972 323.244 195.973L259.732 195.969C254.053 196.343 245.499 193.578 251.436 187.896C253.859 185.577 259.52 186.497 262.552 186.503L327.105 186.501Z"/>
	<path fill="#78A5EC" transform="scale(0.195312 0.195312)" d="M253.521 164.24L324.225 164.216C327.225 164.195 330.653 163.864 333.601 164.424C338.785 165.408 337.309 171.802 333.64 173.747C331.28 173.944 328.803 173.776 326.429 173.761L271.515 173.758C267.981 173.759 255.365 174.268 252.82 173.458C248.401 172.053 249.662 165.871 253.521 164.24Z"/>
	<path fill="#78A5EC" transform="scale(0.195312 0.195312)" d="M232.14 329.535L303.104 329.529C306.992 329.525 314.706 328.118 316.578 332.687C317.719 335.471 315.953 338.414 313.213 339.283L259.38 339.276C250.882 339.274 242.153 339.64 233.689 339.383C227.254 339.187 226.852 331.165 232.14 329.535Z"/>
	<path fill="#2F65AF" transform="scale(0.195312 0.195312)" d="M327.879 307.998C333.318 307.61 340.148 310.716 335.382 315.795C332.618 318.741 325.375 317.447 321.78 317.432L238.48 317.419L231.272 317.419C227.922 314.794 226.446 308.795 231.931 308.165C235.544 307.75 239.372 307.992 243.015 307.99L327.879 307.998Z"/>
	<path fill="#406EF0" transform="scale(0.195312 0.195312)" d="M215.97 373.276C214.996 382.826 205.911 382.449 198.811 382.418L158.767 382.43C140.758 382.452 137.259 385.559 137.24 364.763L137.236 323.618C137.241 315.417 135.296 304.168 146.459 302.817C147.518 302.829 148.578 302.855 149.636 302.817C147.668 309.061 148.028 315.451 148.02 321.921L148.013 353.983C148.018 361.092 147.685 370.444 156.458 372.758C160.795 373.901 179.066 373.281 184.394 373.283L201.093 373.29C208.223 373.301 210.68 374.74 215.97 369.126C215.958 370.495 215.876 371.913 215.97 373.276Z"/>
	<path fill="#56D0EE" transform="scale(0.195312 0.195312)" d="M158.474 216.36C158.603 217.186 142.621 236.295 159.084 248.31C164.676 252.391 170.005 252.081 176.622 252.084L238.48 252.074C238.459 255.991 238.026 260.925 238.48 264.751L140.689 264.751C140.649 244.774 137.956 227.627 158.474 216.36Z"/>
	<path fill="#2F65AF" transform="scale(0.195312 0.195312)" d="M188.36 159.081C219.542 156.2 226.358 201.949 193.807 207.22C160.654 209.263 156.97 163.753 188.36 159.081Z"/>
	<path fill="#EF574F" transform="scale(0.195312 0.195312)" d="M203.743 192.98C186.2 213.576 161.196 181.371 182.675 169.282C183.247 172.971 174.116 182.772 185.868 191.379C192.443 196.194 196.931 192.782 203.743 192.98Z"/>
	<path fill="#F38B83" transform="scale(0.195312 0.195312)" d="M182.675 169.282C196.435 159.175 215.165 179.058 203.743 192.98C196.931 192.782 192.443 196.194 185.868 191.379C174.116 182.772 183.247 172.971 182.675 169.282Z"/>
	<path fill="#ABE0F0" transform="scale(0.195312 0.195312)" d="M301.757 391.06C301.282 384.897 306.957 355.422 313.213 355.711C308.147 367.758 306.524 378.049 307.236 391.06C308.409 395.848 309.42 400.596 311.095 405.247C308.67 405.087 306.164 405.231 303.73 405.247C301.877 405.303 300.028 405.275 298.174 405.247C286.495 405.665 274.709 405.249 263.019 405.248L162.842 405.257C158.152 405.256 152.235 405.759 147.72 405.031C136.699 403.254 127.6 393.815 127.455 382.402C127.41 381.026 127.417 379.664 127.455 378.288C132.25 386.342 137.376 391.031 146.848 391.105L290.73 391.063C293.674 391.065 299.187 391.538 301.757 391.06Z"/>
	<path fill="#56D0EE" transform="scale(0.195312 0.195312)" d="M301.757 391.06C303.553 390.928 305.453 390.777 307.236 391.06C308.409 395.848 309.42 400.596 311.095 405.247C308.67 405.087 306.164 405.231 303.73 405.247C301.877 405.303 300.028 405.275 298.174 405.247C300.016 405.019 301.881 405.167 303.73 405.247C302.683 400.766 301.679 395.67 301.757 391.06Z"/>
	<path fill="#78EDF8" transform="scale(0.195312 0.195312)" d="M210.655 212.67C235.791 218.539 238.199 233.781 238.495 256.15C238.527 258.594 239.371 262.509 238.48 264.751C238.026 260.925 238.459 255.991 238.48 252.074L176.622 252.084C170.005 252.081 164.676 252.391 159.084 248.31C142.621 236.295 158.603 217.186 158.474 216.36C167.032 209.921 173.119 214.268 180.575 216.89C194.098 221.647 199.777 217.223 210.655 212.67Z"/>
	<path fill="#78A5EC" transform="scale(0.195312 0.195312)" d="M146.459 302.817C149.207 302.49 152.098 302.788 154.865 302.806L195.689 302.808C216.054 302.802 215.975 301.65 215.977 324.404L215.981 366.259C215.988 368.525 216.296 371.043 215.97 373.276C215.876 371.913 215.958 370.495 215.97 369.126C210.68 374.74 208.223 373.301 201.093 373.29L184.394 373.283C179.066 373.281 160.795 373.901 156.458 372.758C147.685 370.444 148.018 361.092 148.013 353.983L148.02 321.921C148.028 315.451 147.668 309.061 149.636 302.817C148.578 302.855 147.518 302.829 146.459 302.817Z"/>
	<path fill="#F29F2A" transform="scale(0.195312 0.195312)" d="M166.745 324.989C169.463 325.032 176.962 333.402 178.599 335.77C180.361 333.762 187.474 325.836 189.918 325.451C192.662 325.019 201.84 333.053 201.504 336.288C201.198 339.235 193.049 346.326 190.587 348.763C176.452 363.12 179.482 362.958 164.789 347.869C162.723 345.747 154.025 339.064 155.364 335.719C156.825 332.067 162.873 326.693 166.745 324.989Z"/>
	<path fill="#FAF616" transform="scale(0.195312 0.195312)" d="M190.587 330.392C192 331.48 193.297 332.836 194.608 334.051C192.537 336.769 181.219 347.646 178.599 349.284C173.856 346.692 170.868 342.598 166.745 339.283C165.605 337.836 164.416 336.835 162.93 335.77C164.327 333.471 165.974 331.927 168.138 330.392C171.923 333.647 175.312 337.265 178.599 341.014C182.308 337.274 186.018 333.074 190.587 330.392Z"/>
</svg>
