<?xml version="1.0" encoding="utf-8" ?>
<svg xmlns="http://www.w3.org/2000/svg" xmlns:xlink="http://www.w3.org/1999/xlink" width="100" height="100">
	<path fill="#356EB4" transform="matrix(0.195313 0 0 0.195313 0.00012207 3.05176e-05)" d="M376.289 283.97C389.741 284.218 388.78 291.701 388.783 302.819L388.771 320.994C384.453 320.449 380.529 318.703 376.289 317.997C376.464 314.156 376.307 310.235 376.305 306.387L376.289 283.97Z"/>
	<path fill="#F85855" transform="matrix(0.195313 0 0 0.195313 0.00012207 3.05176e-05)" d="M290.75 199.352C294.968 199.345 305.181 198.287 308.271 200.975C310.725 203.109 311.603 207.994 309.215 210.49C306.578 213.248 301.862 212.485 298.45 212.473L285.445 212.425C285.426 216.765 285.387 221.107 285.445 225.447C289.883 225.469 301.9 224.29 305.04 227.148C308.982 230.736 306.681 236.859 301.731 237.672C298.014 238.283 289.637 237.781 285.445 237.761L285.445 250.999L294.604 250.999C298.356 250.973 305.355 250.062 308.333 252.555C311.148 254.912 310.975 259.755 308.505 262.286C305.621 265.241 291.422 264.029 287.345 264.023C279.764 264.011 273.126 266.07 272.968 255.991C272.872 249.806 271.888 204.36 274.318 201.91C277.96 198.236 285.889 199.342 290.75 199.352Z"/>
	<path fill="#F85855" transform="matrix(0.195313 0 0 0.195313 0.00012207 3.05176e-05)" d="M324.732 199.352C324.884 199.348 325.037 199.346 325.189 199.345L335.782 199.334C351.108 199.344 359.016 204.839 358.802 221.324C358.674 231.243 355.909 234.595 349.125 241.236C368.787 263.124 351.974 270.24 345.515 258.972C342.672 253.388 339.582 247.888 336.285 242.56C334.451 242.456 332.592 242.536 330.754 242.56C330.736 246.914 331.749 258.581 329.48 261.9C326.787 265.841 319.554 264.544 318.736 259.646C318.099 255.829 318.346 251.736 318.343 247.87L318.337 214.636C318.32 208.71 316.593 200.202 324.732 199.352Z"/>
	<path fill="#E9E9E9" transform="matrix(0.195313 0 0 0.195313 0.00012207 3.05176e-05)" d="M332.619 212.425C346.468 210.686 350.714 220.043 343.401 228.957C340.066 230.455 334.437 229.777 330.754 229.753C330.745 225.69 328.924 212.409 332.619 212.425Z"/>
	<path fill="#F85855" transform="matrix(0.195313 0 0 0.195313 0.00012207 3.05176e-05)" d="M176.448 199.352C199.504 198.7 215.897 197.907 212.091 226.892C211.336 232.642 208.198 236.128 203.748 239.516C205.933 243.979 214.687 256.235 212.299 261.231C209.593 266.894 201.898 264.712 199.752 257.907C196.205 252.762 193.622 246.757 190.685 241.236L182.873 241.236C182.796 245.292 185.524 271.367 173.269 263.325C169.063 260.565 170.495 252.737 170.487 248.415L170.468 214.164C170.471 208.282 168.639 200.515 176.448 199.352Z"/>
	<path fill="#E9E9E9" transform="matrix(0.195313 0 0 0.195313 0.00012207 3.05176e-05)" d="M183.575 212.425C188.761 212.501 199.431 209.971 199.83 217.753C200.014 221.337 200.159 225.09 197.597 227.856C193.985 229.991 187.132 228.829 182.873 228.957C182.862 225.415 182.366 215.409 183.141 212.581L183.575 212.425Z"/>
	<path fill="#F85855" transform="matrix(0.195313 0 0 0.195313 0.00012207 3.05176e-05)" d="M136.943 198.747C163.412 197.238 161.149 213.479 161.128 233.799C161.114 247.742 162.16 261.391 144.356 264.005C122.062 264.526 120.568 254.312 120.576 234.66C120.582 220.08 117.412 201.485 136.943 198.747Z"/>
	<path fill="#E9E9E9" transform="matrix(0.195313 0 0 0.195313 0.00012207 3.05176e-05)" d="M140.411 210.832C144.923 211.031 147.535 213.176 148.043 217.688C148.521 221.939 148.646 242.261 147.927 245.986C147.311 249.177 144.469 250.787 141.433 250.999C137.896 251.517 134.068 250.21 133.282 246.303C132.57 242.76 132.733 221.774 133.198 217.739C133.722 213.186 135.864 211.481 140.411 210.832Z"/>
	<path fill="#F85855" transform="matrix(0.195313 0 0 0.195313 0.00012207 3.05176e-05)" d="M226.258 199.352C239.396 199.313 257.89 196.45 261.448 213.725C262.44 218.543 262.427 243.454 261.665 248.521C260.903 253.591 258.141 257.729 254.059 260.735C249.093 264.008 222.23 269.623 221.539 256.962C221.293 252.456 221.046 205.02 222.006 202.847C222.758 201.147 224.584 199.976 226.258 199.352Z"/>
	<path fill="#E9E9E9" transform="matrix(0.195313 0 0 0.195313 0.00012207 3.05176e-05)" d="M234.234 212.425C240.925 212.531 249.035 210.345 249.523 219.53C249.805 224.835 250.77 245.943 247.754 249.291C243.919 252.036 238.663 251.293 234.234 250.999L234.234 212.425Z"/>
	<path fill="#F2B464" transform="matrix(0.195313 0 0 0.195313 0.00012207 3.05176e-05)" d="M370.317 350.752C369.499 345.353 366.788 322.654 367.85 318.993C368.877 315.454 374.004 317.126 376.289 317.997C380.529 318.703 384.453 320.449 388.771 320.994C395.106 324.029 403.461 325.769 410.317 327.736C425.778 332.173 416.985 334.14 410.104 342.356C415.18 346.683 424.258 353.102 428.433 357.587C433.584 363.121 423.676 366.078 420.643 369.162C416.92 372.948 419.509 380.45 417.891 385.23C415.001 387.885 412.367 389.088 408.773 387.213C403.699 381.81 392.473 368.708 388.771 362.968C380.025 370.109 372.73 384.017 370.961 362.968C370.595 358.878 370.24 354.863 370.317 350.752Z"/>
	<path fill="#356EB4" transform="matrix(0.195313 0 0 0.195313 0.00012207 3.05176e-05)" d="M161.12 349.001L173.454 349.001C182.214 349.91 187.674 350.602 196.552 350.662L370.317 350.752C370.24 354.863 370.595 358.878 370.961 362.968L144.772 362.971C135.58 362.971 124.997 363.47 115.997 362.779C108.495 362.204 107.216 355.998 106.807 349.594L139.414 349.596C146.648 349.603 153.933 350.059 161.12 349.001Z"/>
	<defs>
		<linearGradient id="gradient_0" gradientUnits="userSpaceOnUse" x1="139.69221" y1="479.82632" x2="507.53043" y2="205.98265">
			<stop offset="0" stop-color="#B7D0EF"/>
			<stop offset="1" stop-color="#DCDDE1"/>
		</linearGradient>
	</defs>
	<path fill="url(#gradient_0)" transform="matrix(0.195313 0 0 0.195313 0.00012207 3.05176e-05)" d="M442.001 120.547L448.943 127.774C463.172 142.327 459.317 151.548 459.302 171.326L459.289 319.525C459.289 336.728 459.664 354.022 459.279 371.215C459.063 380.909 456.926 387.107 449.81 393.939C439.628 403.713 427.317 402.74 414.21 402.74L120.132 402.737C111.864 402.742 103.524 402.967 95.2655 402.711C81.0131 402.271 76.8403 396.116 69.4772 386.056C75.5505 387.479 81.4244 387.239 87.6091 387.234L408.773 387.213C412.367 389.088 415.001 387.885 417.891 385.23C429.736 384.886 439.706 374.936 441.476 363.505C442.549 356.579 442.004 349.014 442.004 342.017L442.001 174.406C434.1 174.786 417.931 175.177 410.104 174.406C413.373 174.094 416.916 174.385 420.22 174.389L442.001 174.406L442.001 138.826C441.999 132.738 441.853 126.632 442.001 120.547Z"/>
	<path fill="#519CE8" transform="matrix(0.195313 0 0 0.195313 0.00012207 3.05176e-05)" d="M106.807 349.594L106.819 309.854C106.8 288.839 103.271 283.938 125.255 283.956L376.289 283.97L376.305 306.387C376.307 310.235 376.464 314.156 376.289 317.997C374.004 317.126 368.877 315.454 367.85 318.993C366.788 322.654 369.499 345.353 370.317 350.752L196.552 350.662C187.674 350.602 182.214 349.91 173.454 349.001L161.12 349.001C153.933 350.059 146.648 349.603 139.414 349.596L106.807 349.594Z"/>
	<path fill="#E9E9E9" transform="matrix(0.195313 0 0 0.195313 0.00012207 3.05176e-05)" d="M232.243 298.012L250.743 297.987C253.81 297.987 257.322 297.656 260.326 298.162C263.995 298.781 264.207 305.048 261.78 307.139C259.471 309.13 254.625 308.376 251.727 308.247L251.727 340.338C251.576 352.796 242.153 349.6 241.365 344.763C240.708 340.726 241.083 336.125 241.081 332.034L241.088 308.247C237.916 308.449 231.971 309.626 230.134 306.087C228.761 303.439 229.427 299.433 232.243 298.012Z"/>
	<path fill="#E9E9E9" transform="matrix(0.195313 0 0 0.195313 0.00012207 3.05176e-05)" d="M307.965 298.012C317.867 297.441 317.807 307.409 322.368 316.143C324.217 311.673 327.695 302.102 330.754 298.708C332.887 297.857 335.371 297.658 337.461 298.748C342.299 301.272 336.955 309.433 335.389 312.581L329.339 324.675C326.165 330.343 328.458 337.721 327.737 343.918C327.196 348.567 320.976 351.117 318.19 346.692C315.651 342.659 318.213 333.831 316.813 328.568C314.702 320.637 299.682 302.333 307.965 298.012Z"/>
	<path fill="#E9E9E9" transform="matrix(0.195313 0 0 0.195313 0.00012207 3.05176e-05)" d="M155.86 349.001C154.687 348.316 153.454 347.733 153.09 346.299C152.138 342.545 152.444 309.358 152.788 302.833C153.173 295.53 159.698 298.106 164.781 298.088C169.151 298.072 174.487 297.528 178.701 297.832C185.776 298.343 185.061 307.917 178.25 308.223C173.367 308.443 168.386 308.248 163.493 308.247L163.493 317.997C166.96 317.967 175.544 317.049 178.03 319.587C179.686 321.277 180.033 324.969 178.147 326.642C175.786 328.737 166.86 327.757 163.493 327.786L163.493 338.096C167.933 338.071 184.036 335.422 183.559 343.259C183.187 349.366 178.289 349.061 173.454 349.001L161.12 349.001C159.367 349.018 157.613 349.047 155.86 349.001Z"/>
	<path fill="#E9E9E9" transform="matrix(0.195313 0 0 0.195313 0.00012207 3.05176e-05)" d="M213.923 326.576L213.906 311.195C213.882 307.97 212.608 300.553 215.837 298.423C218.111 296.922 222.333 297.633 223.61 300.195C225.503 303.993 224.636 344.986 224.027 346.314C223.247 348.017 221.494 348.474 219.867 349.001C212.858 348.781 209.41 338.836 206.455 333.711C203.861 329.213 200.888 324.838 198.723 320.112C198.564 324.441 202.395 354.491 191.337 348.33C186.162 345.446 188.013 336.5 188.036 331.689L188.046 313.388C188.059 307.935 185.748 299.408 192.966 298.012C199.378 297.296 209.682 320.724 213.923 326.576Z"/>
	<path fill="#E9E9E9" transform="matrix(0.195313 0 0 0.195313 0.00012207 3.05176e-05)" d="M271.219 298.012C281.358 297.98 295.645 295.622 300.477 307.189C303.346 314.055 302.358 324.637 294.604 327.786C296.586 333.472 299.683 338.425 301.249 344.334C298.682 350.498 293.84 350.717 290.75 345.153C288.629 340.381 286.338 335.699 284.178 330.947L278.228 330.947C278.223 335.063 280.034 345.28 276.015 348.076C273.662 349.713 270.002 349.599 268.476 346.934C266.757 343.933 267.375 303.129 268.173 300.891C268.72 299.358 269.835 298.72 271.219 298.012Z"/>
	<path fill="#519CE8" transform="matrix(0.195313 0 0 0.195313 0.00012207 3.05176e-05)" d="M278.228 308.247C286.134 308.95 295.487 308.695 289.636 320.112C287.016 321.773 281.324 321.023 278.228 320.994L278.228 308.247Z"/>
	<path fill="#667082" transform="matrix(0.195313 0 0 0.195313 0.00012207 3.05176e-05)" d="M53.5976 174.406C53.4427 171.58 53.5867 168.676 53.5868 165.842L53.5852 148.81C53.5852 134.326 49.5721 113.387 65.8309 106.47C73.1393 103.361 89.4644 104.751 97.5299 104.754L404.11 104.747C420.631 104.723 434.158 101.75 442.001 120.547C441.853 126.632 441.999 132.738 442.001 138.826L442.001 174.406L420.22 174.389C416.916 174.385 413.373 174.094 410.104 174.406C405.131 174.265 400.109 174.404 395.132 174.404L53.5976 174.406Z"/>
	<path fill="#F2B464" transform="matrix(0.195313 0 0 0.195313 0.00012207 3.05176e-05)" d="M112.054 128.557C125.98 128.634 127.55 148.571 113.498 150.409C99.7143 151.474 97.3067 130.517 112.054 128.557Z"/>
	<path fill="#519CE8" transform="matrix(0.195313 0 0 0.195313 0.00012207 3.05176e-05)" d="M138.257 128.557C152.394 127.215 155.412 148.093 140.411 150.409C126.609 152.786 123.59 131.411 138.257 128.557Z"/>
	<path fill="#F85855" transform="matrix(0.195313 0 0 0.195313 0.00012207 3.05176e-05)" d="M84.2631 128.557C98.2623 126.191 101.564 148.566 86.2268 150.409C71.3834 151.619 69.2825 131.125 84.2631 128.557Z"/>
	<path fill="#E9E9E9" transform="matrix(0.195313 0 0 0.195313 0.00012207 3.05176e-05)" d="M176.448 126.314L391.468 126.309C396.634 126.305 410.838 125.675 415.243 126.947C423.991 129.474 425.96 147.288 414.131 152.923C411.141 153.154 407.991 152.946 404.986 152.94L193.795 152.919C186.013 152.931 170.825 156.045 169.228 146.82C167.91 139.206 166.734 127.32 176.448 126.314Z"/>
</svg>
