<?xml version="1.0" encoding="utf-8" ?>
<svg xmlns="http://www.w3.org/2000/svg" xmlns:xlink="http://www.w3.org/1999/xlink" width="100" height="100">
	<path fill="#99C8E6" transform="scale(0.195312 0.195312)" d="M284.423 121.609C305.865 119.96 302.401 134.473 294.28 136.368C290.446 136.474 284.428 137.352 281.137 135.167C275.537 131.45 278.121 122.612 284.423 121.609Z"/>
	<path fill="#99C8E6" transform="scale(0.195312 0.195312)" d="M347.323 121.609L377.955 121.589C384.809 121.584 399.398 118.551 399.646 129C399.839 137.123 399.622 145.309 399.62 153.438C399.618 160.397 402.676 176.182 391.641 176.113C382.724 176.057 384.556 162.533 384.589 156.938L384.589 136.368L328.282 136.402C324.716 136.416 318.834 137.261 315.937 134.664C313.261 132.263 312.419 126.806 315.08 124.089C318.634 120.459 326.312 121.596 330.857 121.595L347.323 121.609Z"/>
	<path fill="#CFDBEC" transform="scale(0.195312 0.195312)" d="M274.861 380.532C262.667 380.389 250.457 380.531 238.262 380.531L134.2 380.53C127.312 380.536 114.17 383.543 113.5 374.771C112.986 368.04 112.529 348.425 113.54 341.945C114.341 336.811 121.876 335.549 125.288 338.875C127.977 341.496 126.998 347.972 126.998 351.324L126.983 365.983L169.713 365.983C178.05 366.401 186.712 365.984 195.088 365.981L264.492 365.973C276.557 365.972 286.076 368.676 274.861 380.532Z"/>
	<path fill="#FCFCFC" transform="scale(0.195312 0.195312)" d="M150.381 320.753L316.992 320.753L316.981 347.779C316.984 361.075 314.839 368.431 323.332 379.297C316.18 381.26 316.075 380.556 308.433 380.518C298.04 380.466 285.075 379.971 274.861 380.532C286.076 368.676 276.557 365.972 264.492 365.973L195.088 365.981C186.712 365.984 178.05 366.401 169.713 365.983C179.071 364.17 164.845 365.619 159.242 365.276L160.957 365.218C151.677 363.879 136.574 366.193 129.567 364.07L130.718 363.791C130.172 363.293 129.497 363.494 128.779 363.515C126.528 361.187 128.905 343.14 128.026 340.897C126.677 337.456 135.973 326.318 138.649 323.074L138.101 322.999L138.025 322.763L138.656 322.415L138.223 322.265L138.452 322.264L138.104 322.148C140.84 321.183 146.127 322.057 150.381 320.753Z"/>
	<path fill="#CFDBEC" transform="scale(0.195312 0.195312)" d="M161.874 336.064C167.041 335.69 172.525 336.057 177.723 336.066L250.237 336.072C255.196 336.071 272.369 334.743 276.228 337.242C281.638 340.746 280.183 349.652 273.812 350.75C266.509 350.899 259.171 350.76 251.865 350.76L177.572 350.755C174.321 350.755 159.942 351.604 157.634 349.248C152.831 344.345 154.941 336.658 161.874 336.064Z"/>
	<path fill="#CFDBEC" transform="scale(0.195312 0.195312)" d="M368.035 208.765C370.987 208.526 373.897 208.759 376.849 208.718C393.942 208.477 412.344 208.345 429.365 208.897C437.296 209.154 444.359 209.143 450.78 214.645C465.083 226.9 461.343 247.4 461.305 264.762L461.295 345.93C461.296 356.949 463.339 369.461 455.579 378.423C446.724 388.648 433.545 387.446 421.374 387.454L363.015 387.48C359.299 387.454 355.515 387.623 351.809 387.494C340.89 388.563 331.409 388.274 323.332 379.297C314.839 368.431 316.984 361.075 316.981 347.779L316.992 320.753C320.672 320.527 324.464 320.731 328.156 320.74L349.099 320.762C356.207 320.758 363.782 322.413 368.035 315.491L368.035 208.765Z"/>
	<path fill="#209464" transform="scale(0.195312 0.195312)" d="M407.215 360.682L407.544 359.999C410.013 359.485 422.057 359.467 424.691 359.858C424.848 360.528 424.867 361.133 424.87 361.814C424.032 371.414 409.363 372.773 407.215 360.682Z"/>
	<path fill="#209464" transform="scale(0.195312 0.195312)" d="M407.215 336.064C407.173 333.185 421.094 334.769 424.87 334.768C424.986 339.781 424.091 341.531 420.323 344.481C417.577 345.056 414.274 344.829 411.501 344.481C408.518 342.289 407.336 339.789 407.215 336.064Z"/>
	<path fill="#6BC986" transform="scale(0.195312 0.195312)" d="M407.215 319.758C407.221 315.893 406.928 311.865 409.837 308.845C417.52 300.869 425.247 309.262 424.87 319.758C416.317 320.194 407.651 319.514 399.075 319.758C401.765 319.251 404.508 319.55 407.215 319.758Z"/>
	<path fill="#23C27C" transform="scale(0.195312 0.195312)" d="M424.87 319.758C428.611 319.716 433.835 318.615 436.772 321.404C439.876 324.352 440.084 329.989 436.846 332.93C433.834 335.667 428.604 334.565 424.87 334.768C421.094 334.769 407.173 333.185 407.215 336.064C406.705 333.123 400.301 335.699 396.945 333.771C391.237 330.492 392.542 320.993 399.075 319.758C407.651 319.514 416.317 320.194 424.87 319.758Z"/>
	<path fill="#6BC986" transform="scale(0.195312 0.195312)" d="M411.501 344.481C414.274 344.829 417.577 345.056 420.323 344.481C425.145 344.454 433.892 343.382 437.499 347.039C440.127 349.704 440.032 355.058 437.304 357.628C431.735 362.874 425.447 356.232 424.87 361.814C424.867 361.133 424.848 360.528 424.691 359.858C422.057 359.467 410.013 359.485 407.544 359.999L407.215 360.682C407.06 358.593 399.116 360.798 395.426 357.264C392.703 354.656 392.412 349.395 395.236 346.745C399.108 343.109 406.608 344.394 411.501 344.481Z"/>
	<path fill="#E95D75" transform="scale(0.195312 0.195312)" d="M432.218 265.19C434.448 263.039 437.175 259.737 440.238 258.943C443.838 258.009 447.969 260.882 448.57 264.496C449.319 269.005 444.435 272.256 441.659 275.087L428.504 288.254C417.828 298.731 417.693 301.814 405.351 289.24L394.051 277.761C391.04 274.689 387.479 271.738 384.816 268.372C380.742 263.222 386.307 251.609 399.075 263.958C401.731 268.177 412.388 277.541 416.518 281.619C420.21 277.68 429.684 269.163 432.218 265.19Z"/>
	<path fill="#F58C8D" transform="scale(0.195312 0.195312)" d="M399.075 263.958L399.064 242.97C399.061 238.477 397.194 228.854 402.85 228.298C409.186 227.675 421.72 227.991 428.304 228.197C434.084 228.379 432.232 236.087 432.227 240.738L432.2 258.573C432.194 260.702 431.953 263.088 432.218 265.19C429.684 269.163 420.21 277.68 416.518 281.619C412.388 277.541 401.731 268.177 399.075 263.958Z"/>
	<path fill="#A9ADCE" transform="scale(0.195312 0.195312)" d="M316.992 320.753C320.672 320.527 324.464 320.731 328.156 320.74L349.099 320.762C356.207 320.758 363.782 322.413 368.035 315.491C368.303 326.128 367.982 336.807 368.016 347.451C368.053 358.93 370.446 370.932 361.727 380.116C358.803 383.195 354.902 384.733 351.809 387.494C340.89 388.563 331.409 388.274 323.332 379.297C314.839 368.431 316.984 361.075 316.981 347.779L316.992 320.753Z"/>
	<path fill="#6BC986" transform="scale(0.195312 0.195312)" d="M167.476 153.745L167.769 153.628C171.168 152.235 174.236 150.086 177.66 148.759C198.869 140.541 219.992 139.98 241.162 148.708C243.665 149.74 249.887 153.602 251.911 153.745C276.719 153.455 301.568 153.756 326.382 153.754L350.457 153.735C355.204 153.724 365.994 151.781 367.438 158.468C368.677 164.207 368.041 171.424 368.041 177.342L368.035 208.765L368.035 315.491C363.782 322.413 356.207 320.758 349.099 320.762L328.156 320.74C324.464 320.731 320.672 320.527 316.992 320.753L150.381 320.753L90.1046 320.756C79.5105 320.756 68.7189 321.208 58.1531 320.635C50.6238 320.227 50.9525 317.652 50.8314 310.586C50.6322 298.966 50.7964 287.316 50.7978 275.693L50.8057 177.713C50.7586 157.338 46.6106 153.732 70.0458 153.738L167.476 153.745Z"/>
	<path fill="#9DDCA7" transform="scale(0.195312 0.195312)" d="M270.677 169.356C275.819 169.607 280.992 169.356 286.14 169.352L316.992 169.356C318.575 190.17 330.538 202.774 351.809 202.095L351.809 273.971C333.62 273.061 316.263 285.332 315.43 304.196C309.448 303.746 303.122 304.197 297.105 304.196L236.021 304.183C233.938 304.175 231.754 304.33 229.685 304.196C232.347 302.703 235.34 301.899 238.17 300.78C284.978 282.275 307.074 226.809 280.508 182.964C277.648 178.244 273.867 174.28 270.888 169.684L270.677 169.356Z"/>
	<path fill="#9DDCA7" transform="scale(0.195312 0.195312)" d="M102.47 169.356L148.805 169.356C111.101 212.423 125.937 278.113 179.534 300.134C182.931 301.53 186.611 302.436 189.835 304.196C186.631 304.411 183.305 304.225 180.093 304.214L103.998 304.196C99.9629 283.347 87.7632 272.265 66.0032 272.299L66.0032 203.23C86.92 205.012 101.245 189.278 102.47 169.356Z"/>
	<path fill="#FAB55A" transform="scale(0.195312 0.195312)" d="M167.476 153.745L167.769 153.628C171.168 152.235 174.236 150.086 177.66 148.759C198.869 140.541 219.992 139.98 241.162 148.708C243.665 149.74 249.887 153.602 251.911 153.745C258.641 158.864 264.642 164.824 270.677 169.356L270.888 169.684C273.867 174.28 277.648 178.244 280.508 182.964C307.074 226.809 284.978 282.275 238.17 300.78C235.34 301.899 232.347 302.703 229.685 304.196C225.535 304.173 221.636 305.027 217.537 305.5C206.178 306.811 199.586 304.157 189.835 304.196C186.611 302.436 182.931 301.53 179.534 300.134C125.937 278.113 111.101 212.423 148.805 169.356C153.654 162.777 161.208 158.726 167.476 153.745Z"/>
	<path fill="#FCFCFC" transform="scale(0.195312 0.195312)" d="M204.437 158.255C261.679 156.427 297.424 218.535 262.856 263.383C250.295 279.679 234.752 286.899 215.06 289.514C198.259 290.243 183.021 286.778 169.567 276.245C122.137 239.114 143.501 165.08 204.437 158.255Z"/>
	<path fill="#FAB55A" transform="scale(0.195312 0.195312)" d="M209.916 181.811C215.179 181.368 216.306 186.004 216.211 190.226C228.909 189.939 241.845 205.239 234.668 213.318C225.828 223.27 222.879 206.12 220.751 204.498C218.259 202.6 193.641 199.538 195.919 211.898C197.699 221.554 212.726 217.522 219.358 218.427C241.02 221.382 246.386 255.272 216.211 260.171L216.211 263.958C214.734 266.611 213.08 268.121 209.916 268.583C204.833 267.937 203.215 265.061 203.338 260.171C179.88 255.605 178.478 232.068 189.984 232.731C200.566 233.341 190.071 246.627 206.812 246.555C211.268 246.536 218.96 247.237 222.197 243.769C225.42 240.316 223.701 234.191 219.418 232.452C214.914 230.624 205.205 232.319 199.605 231.249C175.821 226.704 177.685 191.404 203.338 190.226C203.201 184.978 204.536 182.734 209.916 181.811Z"/>
</svg>
