<?xml version="1.0" encoding="utf-8" ?>
<svg xmlns="http://www.w3.org/2000/svg" xmlns:xlink="http://www.w3.org/1999/xlink" width="100" height="100">
	<path fill="#79C8FB" transform="scale(0.195312 0.195312)" d="M87.9208 105.083C104.733 103.384 108.227 127.506 91.0369 130.677C73.7072 132.261 70.8732 107.335 87.9208 105.083Z"/>
	<path fill="#79C8FB" transform="scale(0.195312 0.195312)" d="M390.884 411.108C408.269 410.108 409.992 434.096 392.813 437.227C373.034 436.229 375.377 412.32 390.884 411.108Z"/>
	<path fill="#F7F7F9" transform="scale(0.195312 0.195312)" d="M89.1293 238.253C89.7826 239.524 89.8455 241.219 91.0369 242.084C91.0488 247.422 91.4059 252.968 91.0369 258.277C94.6255 285.5 96.2009 301.562 110.6 327.259C111.897 329.573 113.457 331.94 114.474 334.38C104.995 337.315 92.7158 343.541 87.9208 352.668C83.4101 350.165 82.2626 339.355 81.2069 334.78C73.9576 303.36 76.1935 268.029 89.1293 238.253Z"/>
	<path fill="#F7F7F9" transform="scale(0.195312 0.195312)" d="M238.266 91.2226C237.845 91.0044 237.555 90.7916 237.213 90.4636L237.374 89.5714C236.897 89.6499 234.264 89.3413 234.804 88.5616C237.074 85.279 261.302 77.222 265.861 75.9869C290.757 69.2419 317.099 69.2669 341.789 76.9165C345.838 78.1712 350.805 79.3208 354.495 81.4369C340.97 93.9262 340.408 99.0591 335.501 114.73C332.733 113.342 330.04 111.752 327.293 110.311C306.676 96.6776 271.422 90.5368 247.363 91.3041C244.336 91.4006 241.273 91.7455 238.266 91.2226Z"/>
	<path fill="#F7F7F9" transform="scale(0.195312 0.195312)" d="M156.787 422.915C165.031 416.357 170.162 408.491 174.321 398.952C177.632 400.275 180.79 401.974 184.03 403.464C222.615 421.209 267.241 424.314 307.397 409.728C312.161 413.973 294.14 420.241 291.045 421.712C249.377 441.519 205.37 443.943 163.159 425.857C161.116 424.982 158.566 424.228 156.787 422.915Z"/>
	<path fill="#F7F7F9" transform="scale(0.195312 0.195312)" d="M395.74 168.521C407.059 165.931 416.044 159.967 423.595 151.268C427.43 152.546 430.784 166.561 431.813 170.008C440.485 199.057 440.519 230.117 430.831 258.883C429.262 263.543 421.112 286.434 416.281 287.853L415.988 287.689C415.821 286.844 415.807 286.448 415.2 285.78C417.065 276.297 418.179 267.96 418.524 258.277C420.089 237.826 413.095 200.965 402.71 182.284C400.343 177.745 397.773 173.217 395.74 168.521Z"/>
	<defs>
		<linearGradient id="gradient_0" gradientUnits="userSpaceOnUse" x1="421.05588" y1="87.484077" x2="348.23273" y2="153.48094">
			<stop offset="0" stop-color="#F4A53D"/>
			<stop offset="1" stop-color="#FACA4C"/>
		</linearGradient>
	</defs>
	<path fill="url(#gradient_0)" transform="scale(0.195312 0.195312)" d="M354.495 81.4369C392.67 54.2789 441.39 84.6865 433.361 129.123C431.925 137.067 428.225 144.695 423.595 151.268C416.044 159.967 407.059 165.931 395.74 168.521C368.281 174.676 338.807 156.436 335.724 127.392C335.281 123.219 335.431 118.923 335.501 114.73C340.408 99.0591 340.97 93.9262 354.495 81.4369Z"/>
	<path fill="#F7D251" transform="scale(0.195312 0.195312)" d="M384.298 87.7918C386.975 87.7249 392.956 91.191 395.381 92.6336C421.71 108.292 411.722 145.163 386.553 151.268C384.986 151.351 383.161 150.509 381.759 149.86C351.837 136.002 351.77 99.5505 384.298 87.7918Z"/>
	<path fill="#F4996C" transform="scale(0.195312 0.195312)" d="M114.474 334.38C118.036 333.653 121.664 332.753 125.307 332.585C159.263 331.024 185.6 367.843 174.321 398.952C170.162 408.491 165.031 416.357 156.787 422.915C140.492 436.626 112.264 434.095 96.4527 421.236C76.9227 405.352 71.5064 372.681 87.9208 352.668C92.7158 343.541 104.995 337.315 114.474 334.38Z"/>
	<path fill="#F3B260" transform="scale(0.195312 0.195312)" d="M124.379 355.349C162.538 353.285 164.559 408.818 130.389 411.771C92.4212 414.947 88.5625 360.259 124.379 355.349Z"/>
	<defs>
		<linearGradient id="gradient_1" gradientUnits="userSpaceOnUse" x1="86.138641" y1="282.87936" x2="398.40216" y2="355.49716">
			<stop offset="0" stop-color="#28BC8F"/>
			<stop offset="1" stop-color="#42D9B5"/>
		</linearGradient>
	</defs>
	<path fill="url(#gradient_1)" transform="scale(0.195312 0.195312)" d="M91.0369 258.277C99.6529 258.1 108.302 258.282 116.922 258.284L409.198 258.293C412.278 258.306 415.464 258.598 418.524 258.277C418.179 267.96 417.065 276.297 415.2 285.78C402.405 341.954 362.275 390.59 307.397 409.728C267.241 424.314 222.615 421.209 184.03 403.464C180.79 401.974 177.632 400.275 174.321 398.952C185.6 367.843 159.263 331.024 125.307 332.585C121.664 332.753 118.036 333.653 114.474 334.38C113.457 331.94 111.897 329.573 110.6 327.259C96.2009 301.562 94.6255 285.5 91.0369 258.277Z"/>
	<path fill="#3D4F98" transform="scale(0.195312 0.195312)" d="M211.691 286.459C217.832 282.14 240.563 266.901 246.389 264.829C264.614 258.348 284.671 277.888 300.893 285.78C296.47 290.846 294.292 295.84 291.766 301.988C287.58 297.691 279.106 293.65 273.833 290.297C257.583 279.964 258.678 277.504 241.275 288.436C234.146 292.915 227.033 297.889 219.694 301.988C217.968 295.926 215.603 291.395 211.691 286.459Z"/>
	<path fill="#F7F7F9" transform="scale(0.195312 0.195312)" d="M219.694 301.988C220.046 304.308 220.309 306.629 220.373 308.977C221.223 340.247 183.913 356.004 162.362 334.882C131.141 304.283 176.803 251.903 211.691 286.459C215.603 291.395 217.968 295.926 219.694 301.988Z"/>
	<path fill="#F7F7F9" transform="scale(0.195312 0.195312)" d="M300.893 285.78C302.889 283.957 304.852 282.005 307.054 280.435C339.08 257.591 381.123 306.72 348.249 335.748C326.899 354.601 291.74 340.666 291.631 311.064C291.62 308.033 292.082 305.016 291.766 301.988C294.292 295.84 296.47 290.846 300.893 285.78Z"/>
	<defs>
		<linearGradient id="gradient_2" gradientUnits="userSpaceOnUse" x1="192.42221" y1="103.2821" x2="292.26337" y2="316.70404">
			<stop offset="0" stop-color="#6464DA"/>
			<stop offset="1" stop-color="#4EC2FF"/>
		</linearGradient>
	</defs>
	<path fill="url(#gradient_2)" transform="scale(0.195312 0.195312)" d="M238.266 91.2226C241.273 91.7455 244.336 91.4006 247.363 91.3041C271.422 90.5368 306.676 96.6776 327.293 110.311C330.04 111.752 332.733 113.342 335.501 114.73C335.431 118.923 335.281 123.219 335.724 127.392C338.807 156.436 368.281 174.676 395.74 168.521C397.773 173.217 400.343 177.745 402.71 182.284C413.095 200.965 420.089 237.826 418.524 258.277C415.464 258.598 412.278 258.306 409.198 258.293L116.922 258.284C108.302 258.282 99.6529 258.1 91.0369 258.277C91.4059 252.968 91.0488 247.422 91.0369 242.084C89.8455 241.219 89.7826 239.524 89.1293 238.253C89.5169 236.979 89.7174 236.488 91.0369 235.984C91.4352 232.751 92.306 229.409 92.9133 226.192C105.709 158.414 156.814 106.964 224.3 93.7392C228.951 92.8278 233.644 92.3092 238.266 91.2226ZM89.1293 238.253C89.7826 239.524 89.8455 241.219 91.0369 242.084C91.2334 240.042 91.1267 238.028 91.0369 235.984C89.7174 236.488 89.5169 236.979 89.1293 238.253Z"/>
	<path fill="#3D4F98" transform="scale(0.195312 0.195312)" d="M220.251 212.42C221.52 212.765 238.002 223.338 239.934 224.543C253.125 232.766 254.659 235.296 267.914 227.207L280.486 219.537C284.598 216.995 288.709 213.956 293.314 212.42C293.347 218.302 294.743 223.472 297.589 228.636C284.517 237.414 264.145 252.27 248.632 249.213C238.155 247.149 224.747 233.949 214.364 230.202C217.712 224.445 219.346 218.975 220.251 212.42Z"/>
	<path fill="#3D4F98" transform="scale(0.195312 0.195312)" d="M327.293 110.311C330.04 111.752 332.733 113.342 335.501 114.73C335.431 118.923 335.281 123.219 335.724 127.392C338.807 156.436 368.281 174.676 395.74 168.521C397.773 173.217 400.343 177.745 402.71 182.284C358.429 199.064 310.664 157.746 327.293 110.311Z"/>
	<path fill="#F7F7F9" transform="scale(0.195312 0.195312)" d="M293.314 212.42C290.172 169.844 357.601 164.501 359.958 209.751C361.754 244.218 317.716 259.452 297.589 228.636C294.743 223.472 293.347 218.302 293.314 212.42Z"/>
	<path fill="#F7F7F9" transform="scale(0.195312 0.195312)" d="M214.364 230.202C204.02 246.415 181.552 250.55 166.06 239.252C129.61 212.669 171.354 157.68 206.804 184.749C216.296 191.997 218.801 201.136 220.251 212.42C219.346 218.975 217.712 224.445 214.364 230.202Z"/>
</svg>
