<?xml version="1.0" encoding="utf-8" ?>
<svg xmlns="http://www.w3.org/2000/svg" xmlns:xlink="http://www.w3.org/1999/xlink" width="100" height="100">
	<path fill="#4FADF9" transform="scale(0.195312 0.195312)" d="M355.053 64.1283C354.69 61.6616 355.021 59.2479 355.037 56.7749C355.13 42.5832 357.17 45.6477 369.885 45.6382C389.444 45.6237 385.975 43.0235 386.427 63.0588L386.242 63.6341C384.285 63.7627 381.639 62.4568 379.632 62.1062C372.14 60.7973 362.123 61.1307 355.053 64.1283Z"/>
	<path fill="#FBC46E" transform="scale(0.195312 0.195312)" d="M272.738 145.747L272.745 170.333C272.755 173.79 275.355 193.042 266.37 187.181C264.532 184.741 265.474 177.905 265.482 175.024L265.533 158.045C265.536 155.141 263.853 139.376 267.697 138.528C274.382 137.052 298.186 138.431 306.197 138.322C306.076 140.815 306.049 143.255 306.197 145.747C302.497 145.908 298.73 145.767 295.024 145.761L272.738 145.747Z"/>
	<path fill="#4FADF9" transform="scale(0.195312 0.195312)" d="M355.053 160.022C364.865 163.586 376.596 163.382 386.427 160.022C386.438 165.127 388.913 181.928 382.729 183.241C379.476 183.932 359.134 184.833 356.204 182.117C354.348 180.397 355.05 163.312 355.053 160.022Z"/>
	<path fill="#4FADF9" transform="scale(0.195312 0.195312)" d="M419.299 127.246C435.083 127.228 435.625 123.87 435.561 140.484C435.549 143.557 436.593 153.296 433.898 155.47C431.566 157.352 413.094 157.014 409.858 156.153C407.233 155.455 406.06 151.533 405.369 149.248C406.061 146.963 410.76 142.638 412.409 140.406C415.325 136.456 416.742 131.664 419.173 127.459L419.299 127.246Z"/>
	<path fill="#4FADF9" transform="scale(0.195312 0.195312)" d="M410.557 68.2449C413.126 68.0585 432.117 67.8582 433.524 68.9421C437.396 71.927 436.081 95.4168 434.074 97.1212C431.222 99.5435 423.044 98.6081 419.299 98.4983C414.647 87.5577 414.695 85.3411 405.369 75.7899C406.639 73.118 408.033 69.9563 410.557 68.2449Z"/>
	<path fill="#4FADF9" transform="scale(0.195312 0.195312)" d="M323.04 98.4983C320.065 98.4878 308.944 99.9802 307.193 97.0194C305.604 94.3338 305.832 74.8691 306.709 71.4675C308.104 66.0638 328.49 67.8194 331.159 68.6867C334.054 69.6273 335.645 73.2977 337.006 75.7899C329.806 80.6212 325.271 90.421 323.04 98.4983Z"/>
	<path fill="#4FADF9" transform="scale(0.195312 0.195312)" d="M323.04 127.246C327.623 141.425 330.105 140.01 337.006 149.248C336.365 153.826 335.932 156.423 330.827 156.691C327.269 156.877 309.119 157.518 307.08 155.131C305.398 153.163 306.097 148.249 306.197 145.747C306.049 143.255 306.076 140.815 306.197 138.322C305.828 123.415 309.78 127.273 323.04 127.246Z"/>
	<path fill="#475978" transform="scale(0.195312 0.195312)" d="M310.004 454.179L332.448 454.168C336.269 454.164 340.21 453.844 344.009 454.179C347.989 457.376 347.914 463.36 341.841 463.89C335.849 464.414 327.517 463.972 321.24 463.97L219.073 463.964C208.304 463.965 197.414 464.319 186.659 463.846C180.661 463.582 180.847 456.877 185.418 454.179L221.501 454.179C224.654 454.395 227.959 454.197 231.124 454.193L310.004 454.179Z"/>
	<path fill="#475978" transform="scale(0.195312 0.195312)" d="M107.114 253.228C109.07 253.229 125.756 252.926 126.288 253.228C126.153 257.861 126.364 262.497 126.288 267.13L126.288 340.367C126.141 352.745 126.296 365.137 126.288 377.517C119.953 377.526 113.425 377.877 107.114 377.517L107.103 271.483C107.092 266.636 106.925 261.75 107.114 256.909L107.114 253.228Z"/>
	<path fill="#2D3259" transform="scale(0.195312 0.195312)" d="M107.114 253.228C109.07 253.229 125.756 252.926 126.288 253.228C126.153 257.861 126.364 262.497 126.288 267.13L107.114 267.13C107.08 263.751 107.459 260.265 107.114 256.909L107.114 253.228Z"/>
	<path fill="#4FADF9" transform="scale(0.195312 0.195312)" d="M310.004 424.988L310.004 454.179L231.124 454.193C227.959 454.197 224.654 454.395 221.501 454.179C221.734 451.038 221.522 447.717 221.514 444.557L221.501 424.988C223.973 424.596 226.866 424.953 229.391 424.965L310.004 424.988Z"/>
	<defs>
		<linearGradient id="gradient_0" gradientUnits="userSpaceOnUse" x1="402.87442" y1="385.96075" x2="293.27048" y2="167.28477">
			<stop offset="0" stop-color="#30344D"/>
			<stop offset="1" stop-color="#586885"/>
		</linearGradient>
	</defs>
	<path fill="url(#gradient_0)" transform="scale(0.195312 0.195312)" d="M227.361 199.755L384.121 199.748C399.299 199.745 419.235 198.072 422.366 218.944C423.226 224.68 422.757 230.963 422.75 236.768L422.744 377.047C416.205 377.17 409.645 377.024 403.103 377.047L403.103 220.819C396.203 220.617 389.246 220.813 382.339 220.814L216.001 220.819L216.001 220.819C216.053 207.392 223.096 206.605 227.361 199.755Z"/>
	<path fill="#A2D8F7" transform="scale(0.195312 0.195312)" d="M355.053 64.1283C362.123 61.1307 372.14 60.7973 379.632 62.1062C381.639 62.4568 384.285 63.7627 386.242 63.6341L386.427 63.0588C387.602 65.731 393.044 66.6743 395.518 68.2509C399.03 70.4895 402.27 73.0143 405.369 75.7899C414.695 85.3411 414.647 87.5577 419.299 98.4983C421.796 109.063 422.029 116.667 419.299 127.246L419.173 127.459C416.742 131.664 415.325 136.456 412.409 140.406C410.76 142.638 406.061 146.963 405.369 149.248C399.822 153.933 393.034 157.175 386.427 160.022C376.596 163.382 364.865 163.586 355.053 160.022C351.908 158.003 348.047 156.985 344.818 155.001C342.637 153.662 338.827 149.983 337.006 149.248C330.105 140.01 327.623 141.425 323.04 127.246C320.398 118.226 320.081 107.445 323.04 98.4983C325.271 90.421 329.806 80.6212 337.006 75.7899C341.266 69.7774 348.51 66.9266 355.053 64.1283ZM367.289 82.0952C330.491 87.2774 332.306 143.984 375.008 142.236C414.747 135.792 405.107 77.3724 367.289 82.0952Z"/>
	<path fill="#475978" transform="scale(0.195312 0.195312)" d="M367.289 82.0952C405.107 77.3724 414.747 135.792 375.008 142.236C332.306 143.984 330.491 87.2774 367.289 82.0952ZM369.954 94.546C365.954 97.0419 367.287 102.47 367.289 106.481C364.309 106.428 358.132 105.467 355.9 107.504C348.53 114.227 365.45 113.96 367.289 113.968C367.276 118.869 365.711 127.044 373.063 125.875C376.461 123.798 374.983 117.295 375.008 113.968C378.023 113.911 385.146 115.003 387.267 112.705C393.779 105.648 376.779 106.478 375.008 106.481C375.221 101.804 377.101 93.7234 369.954 94.546Z"/>
	<path fill="#C2C6D1" transform="scale(0.195312 0.195312)" d="M126.288 340.367C126.808 343.806 126.302 347.849 126.296 351.368L126.288 377.517L379.413 377.512C385.455 377.512 397.809 378.181 403.103 377.047C409.645 377.024 416.205 377.17 422.744 377.047C421.329 388.095 425.836 400.478 415.268 409.021C408.473 414.514 398.222 413.497 390.022 413.493L310.004 413.481L310.004 424.988L229.391 424.965C226.866 424.953 223.973 424.596 221.501 424.988L221.501 424.988C221.11 421.21 221.252 417.269 221.501 413.481L143.592 413.494C114.722 413.514 107.047 406.126 107.114 377.517C113.425 377.877 119.953 377.526 126.288 377.517C126.296 365.137 126.141 352.745 126.288 340.367Z"/>
	<path fill="#FEFEFE" transform="scale(0.195312 0.195312)" d="M265.504 386.301C276.087 385.473 278.633 398.905 268.508 402.237C257.676 403.451 254.724 390.096 265.504 386.301Z"/>
	<path fill="#6586BA" transform="scale(0.195312 0.195312)" d="M221.501 413.481L299.433 413.504C302.94 413.52 306.503 413.669 310.004 413.481L310.004 424.988L229.391 424.965C226.866 424.953 223.973 424.596 221.501 424.988L221.501 424.988C221.71 421.193 221.51 417.287 221.501 413.481Z"/>
	<defs>
		<linearGradient id="gradient_1" gradientUnits="userSpaceOnUse" x1="81.354919" y1="138.20952" x2="205.85495" y2="249.80635">
			<stop offset="0" stop-color="#2077AF"/>
			<stop offset="1" stop-color="#2D8FC1"/>
		</linearGradient>
	</defs>
	<path fill="url(#gradient_1)" transform="scale(0.195312 0.195312)" d="M107.114 253.228C95.342 251.259 77.5896 259.098 77.055 238.405C76.8744 231.415 77.0216 224.389 77.0225 217.394L77 156.226C76.9931 146.142 75.9697 135.652 89.2449 135.53L188.447 135.536C212.595 135.544 210.473 139.063 210.47 163.51L210.46 199.755L227.361 199.755C223.096 206.605 216.053 207.392 216.001 220.819L216.001 220.819C214.153 220.843 212.308 220.85 210.46 220.819C210.468 226.381 211.202 240.762 209.756 245.381C206.5 255.787 191.792 253.24 183.609 253.24L152.738 253.228C152.757 257.301 154.797 270.763 147.806 270.555C143.21 270.418 129.514 251.658 126.441 252.95L126.288 253.228C125.756 252.926 109.07 253.229 107.114 253.228Z"/>
	<path fill="#2D3259" transform="scale(0.195312 0.195312)" d="M210.46 199.755L227.361 199.755C223.096 206.605 216.053 207.392 216.001 220.819C214.155 220.783 212.306 220.809 210.46 220.819L210.46 199.755Z"/>
	<path fill="#5ACED8" transform="scale(0.195312 0.195312)" d="M87.9862 144.241L185.956 144.231C195.067 144.228 201.738 141.196 201.957 150.971C202.136 158.939 202.967 237.754 201.603 241.848C201.083 243.41 200.362 244.162 198.916 244.899C195.792 245.145 192.58 244.918 189.444 244.912L115.452 244.914C111.152 244.915 90.7097 245.459 87.8962 244.458C83.1528 242.769 84.9573 231.119 84.9699 226.702L84.9698 168.172C84.9697 163.187 82.825 145.676 87.9862 144.241Z"/>
	<path fill="#FEFEFE" transform="scale(0.195312 0.195312)" d="M141.312 185.075L169.163 185.073C171.772 185.071 183.441 184.229 185.202 185.591C186.851 186.867 186.74 190.169 185.254 191.509C183.104 193.446 172.722 192.426 169.834 192.417L146.728 192.421L119.17 192.426C115.83 192.43 104.193 193.584 101.816 191.308C93.836 183.67 115.788 185.062 117.311 185.065L141.312 185.075Z"/>
	<path fill="#FEFEFE" transform="scale(0.195312 0.195312)" d="M104.828 201.704L174.861 201.715C177.62 201.708 186.401 200.453 186.878 204.533C187.263 207.832 184.208 208.75 181.69 209.001L131.249 209.002C126.176 209.003 105.511 210.248 102.029 208.132C97.9269 205.639 101.15 201.719 104.828 201.704Z"/>
	<path fill="#FEFEFE" transform="scale(0.195312 0.195312)" d="M146.728 218.161L170.148 218.156C173.317 218.152 182.837 217.111 185.461 218.811C187.249 219.969 186.488 223.389 185.251 224.643C183.216 226.705 171.577 225.572 168.503 225.566L141.312 225.574L115.559 225.544C112.154 225.537 108.533 225.898 105.162 225.582C102.254 225.309 98.7409 222.369 101.743 219.578C104.771 216.762 114.342 218.154 118.21 218.155L146.728 218.161Z"/>
	<path fill="#FEFEFE" transform="scale(0.195312 0.195312)" d="M104.054 168.332C129.956 168.85 156.915 167.213 182.508 168.314C187.903 168.545 187.767 174.864 183.222 176.032L113.72 176.02C110.687 176.022 101.516 177.287 100.79 172.997C100.381 170.583 101.615 168.78 104.054 168.332Z"/>
	<path fill="#6586BA" transform="scale(0.195312 0.195312)" d="M306.954 259.018L352.851 259.033C356.417 259.052 375.316 257.146 376.524 261.452C377.084 263.447 374.751 265.214 373.063 265.504L329.856 265.511C322.411 265.52 314.797 265.867 307.368 265.476C302.217 265.205 302.234 259.719 306.954 259.018Z"/>
	<path fill="#6586BA" transform="scale(0.195312 0.195312)" d="M306.197 295.937L351.509 295.939C356.081 295.936 371.102 295.381 374.424 296.329C377.782 297.286 376.454 301.326 373.931 302.414C370.093 302.561 366.203 302.425 362.359 302.424L315.707 302.417C312.619 302.429 308.364 303.382 305.455 302.108C302.081 300.631 303.016 296.714 306.197 295.937Z"/>
	<path fill="#6586BA" transform="scale(0.195312 0.195312)" d="M330.913 335.372L359.983 335.394C363.846 335.392 372.673 333.946 375.778 336.529C380.718 345.507 353.634 341.918 348.938 341.913L321.808 341.925C318.386 341.934 303.44 343.831 302.937 338.559C302.546 334.457 312.687 335.363 314.879 335.363L330.913 335.372Z"/>
	<path fill="#6586BA" transform="scale(0.195312 0.195312)" d="M314.213 245.774L353.67 245.785C358.781 245.782 375.513 243.206 376.475 248.997C377.263 253.739 368.123 252.368 365.551 252.329L324.566 252.317C323.076 252.317 297.971 255.135 303.959 247.46C305.567 245.398 311.718 245.878 314.213 245.774Z"/>
	<path fill="#F48577" transform="scale(0.195312 0.195312)" d="M271.015 321.279C273.751 321.172 288.012 320.915 289.563 321.726C291.678 322.83 293.688 340.754 289.441 341.913C285.943 342.773 280.585 341.708 276.76 341.879C272.982 342.047 269.069 344.257 268.528 338.821C268.117 334.688 266.551 322.658 271.015 321.279Z"/>
	<path fill="#FBC46E" transform="scale(0.195312 0.195312)" d="M271.015 282.766C274.708 282.298 278.549 282.794 282.269 282.804C286.377 282.815 290.71 280.52 291.415 286.358C291.809 289.625 292.882 301.985 289.441 303.711C286.146 303.719 270.934 305.03 268.997 302.422C268.084 298.947 266.554 285.06 271.015 282.766Z"/>
	<path fill="#83D85B" transform="scale(0.195312 0.195312)" d="M271.805 244.899C274.01 244.628 284.959 244.463 287.401 244.685C290.482 244.964 291.114 245.679 291.43 248.677C291.787 252.07 293.292 265.429 288.552 265.504C285.11 265.788 272.598 266.069 270.145 265.208C269.033 264.219 264.879 245.633 271.805 244.899Z"/>
	<path fill="#6586BA" transform="scale(0.195312 0.195312)" d="M306.954 282.766C311.789 282.56 316.714 282.749 321.557 282.753L350.568 282.781C354.987 282.785 370.791 282.198 373.908 283.031C377.521 283.996 376.883 288.303 373.931 289.562L330.762 289.556C326.754 289.556 308.561 290.127 305.581 289.129C301.479 287.757 303.845 283.523 306.954 282.766Z"/>
	<path fill="#6586BA" transform="scale(0.195312 0.195312)" d="M332.595 322.369L359.514 322.367C362.625 322.353 376.524 320.336 376.475 325.566C376.427 330.696 368.675 329.198 365.484 329.196L348.125 329.186L319.347 329.164C318.437 329.162 297.844 330.819 304.378 323.893C306.888 321.233 314.174 322.35 317.421 322.37L332.595 322.369Z"/>
	<path fill="#EF6051" transform="scale(0.195312 0.195312)" d="M199.497 268.766C206.321 269.339 204.908 273.526 204.761 279.156C206.963 279.724 208.577 280.393 210.46 281.685C213.074 280.058 215.645 278.011 218.401 276.661C220.284 277.943 228.492 286.545 229.378 288.673C229.064 291.306 226.395 293.48 224.607 295.286C225.549 297.241 226.533 299.187 227.361 301.193C229.631 301.428 233.726 301.232 235.719 302.35C236.676 305.427 236.454 316.133 236.246 319.733C233.302 320.369 230.296 320.609 227.361 321.279C226.755 323.236 226.303 325.23 225.832 327.223C232.746 334.052 226.911 336.866 220.546 342.844C216.213 346.913 215.224 343.669 211.027 341.301C208.955 342.034 206.89 342.81 204.761 343.364C204.546 345.852 204.996 349.82 203.747 351.964C201.244 353.947 190.131 354.999 187.123 352.64C185.571 350.015 186.424 346.281 186.227 343.364C184.238 342.615 182.263 341.836 180.202 341.301C177.46 342.471 175.352 344.409 172.764 345.818C171.403 345.057 169.985 344.349 168.771 343.364C170.847 341.656 172.308 333.811 173.693 330.88C183.975 340.154 197.338 344.021 209.906 336.284C231.675 322.883 226.181 288.734 199.497 282.766C199.502 278.115 199.255 273.409 199.497 268.766Z"/>
	<path fill="#F48577" transform="scale(0.195312 0.195312)" d="M187.668 268.766C191.576 268.55 195.578 268.746 199.497 268.766C199.255 273.409 199.502 278.115 199.497 282.766C226.181 288.734 231.675 322.883 209.906 336.284C197.338 344.021 183.975 340.154 173.693 330.88C172.308 333.811 170.847 341.656 168.771 343.364C166.229 340.225 163.219 337.621 161.043 334.177C162.627 331.678 164.895 329.473 166.822 327.223C165.707 325.376 164.893 323.242 163.99 321.279C162.161 320.831 157.053 320.707 155.916 320.04C153.301 318.506 154.513 303.9 155.768 301.797C157.685 300.638 161.756 301.157 163.99 301.193C164.769 298.843 165.688 296.694 166.822 294.491C165.331 293.03 160.618 289.059 161.681 286.633C163.085 283.427 169.177 278.101 172.764 276.661C175.367 277.852 177.969 279.904 180.202 281.685C182.182 280.56 183.959 279.578 186.227 279.156C186.863 275.721 187.009 272.207 187.668 268.766ZM193.548 294.491C171.999 296.47 171.811 327.639 195.985 329.186C221.664 321.569 211.605 293.211 193.548 294.491Z"/>
</svg>
