<?xml version="1.0" encoding="utf-8" ?>
<svg xmlns="http://www.w3.org/2000/svg" xmlns:xlink="http://www.w3.org/1999/xlink" width="100" height="100">
	<path fill="#3288D6" transform="scale(0.195312 0.195312)" d="M390.024 124.664C393.536 127.809 396.801 131.241 400.144 134.564C405.677 140.064 413.697 145.966 406.389 153.999C402.26 158.539 383.869 174.469 383.895 179.401C383.904 181.124 393.191 197.712 394.863 201.734C396.357 205.325 400.529 218.869 402.741 220.884C407.219 224.963 431.051 219.737 438.986 223.489C445.458 226.55 443.644 235.115 443.596 240.923L443.642 273.425C443.792 288.578 442.811 290.321 427.539 290.283L414.279 290.213C396.48 289.946 401.54 292.529 395.446 309.097C393.531 314.3 385.276 329.589 385.287 332.44C385.304 337.125 390.691 341.066 393.663 344.016L402.609 352.941C415.069 365.15 408.365 367.361 397.485 378.182L382.682 392.97C378.729 396.912 372.459 404.013 368.258 407.043C359.765 413.169 350.275 399.431 344.807 393.655C332.115 380.25 334.021 383.254 319.069 390.683C313.982 393.211 308.526 395.158 303.055 396.654C291.014 399.947 290.677 400.469 290.407 412.865C259.627 410.063 222.541 389.652 201.977 367.341C195.346 360.147 180.05 340.962 179.143 331.233C197.034 351.928 229.208 363.116 255.968 363.562C352.577 365.172 401.939 250.211 333.109 179.72C313.473 159.61 285.112 147.101 256.868 146.762C276.678 141.264 297.642 143.034 317.399 147.879C324.434 149.604 331.29 152.274 338.513 153.126C342.027 151.182 344.753 147.414 347.709 144.72C360.092 133.439 373.027 126.113 390.024 124.664Z"/>
	<path fill="#55CFF0" transform="scale(0.195312 0.195312)" d="M290.407 412.865C290.381 431.693 295.39 439.086 274.129 438.984L258.049 438.976C248.608 438.977 238.98 439.361 229.564 438.84C217.501 438.173 221.246 419.295 221.293 410.764C221.358 398.803 218.631 399.583 208.85 396.339C201.443 393.882 181.609 383.068 177.933 384.176C171.176 386.211 159.065 404.66 151.53 407.501C144.688 410.081 140.197 403.431 136.018 399.191L123.712 386.795C117.615 380.654 100.515 368.16 104.245 359.002C107.764 350.362 122.656 342.034 126.164 334.258C128.203 329.74 120.17 317.156 117.825 311.62C115.983 307.271 113.5 293.654 109.669 291.383C100.071 285.693 69.3862 298.657 68.511 280.895C68.0623 271.788 68.5289 262.454 68.5147 253.323L68.4686 239.26C68.3533 226.221 67.8613 222.083 82.8306 222.202C88.1211 222.244 103.799 222.923 107.729 221.686C113.535 219.859 114.724 207.191 116.56 202.185C118.38 197.221 128.588 179.607 127.899 176.464C126.188 168.658 98.9685 152.484 104.178 143.329C105.847 140.397 108.154 138.334 110.504 135.955L134.092 112.318C139.138 107.322 144.943 99.1849 152.882 103.358C159.819 107.004 175.009 127.56 180.126 126.792C184.993 126.062 201.546 116.814 208.793 114.398C219.284 110.9 221.222 113.458 221.248 101.216L221.212 87.0325C221.146 72.4547 222.297 71.729 236.711 71.7309L273.218 71.74C287.948 71.7346 290.417 71.5386 290.426 86.141L290.394 100.295C290.361 103.31 290.108 106.33 290.407 109.341C293.296 111.844 302.223 113.805 306.236 115.261C315.807 118.733 324.515 123.352 333.456 128.153C340.432 123.328 350.233 111.44 356.839 105.179C365.599 96.8767 370.43 104.626 376.69 111.086C381.109 115.645 385.706 120.003 390.024 124.664C373.027 126.113 360.092 133.439 347.709 144.72C344.753 147.414 342.027 151.182 338.513 153.126C331.29 152.274 324.434 149.604 317.399 147.879C297.642 143.034 276.678 141.264 256.868 146.762C196.685 146.749 146.963 194.781 147.158 255.447C147.247 282.945 158.468 312.599 179.143 331.233C180.05 340.962 195.346 360.147 201.977 367.341C222.541 389.652 259.627 410.063 290.407 412.865Z"/>
	<path fill="#C2E9FC" transform="scale(0.195312 0.195312)" d="M260.677 225.25C270.063 225.143 294.676 227.825 297.588 239.351C298.804 244.162 295.594 249.349 290.749 250.431C286.492 251.381 283.387 248.349 280.116 246.185C266.12 236.926 247.171 243.512 238.309 257.038C233.417 265.336 235.038 273.966 232.556 278.026C228.588 284.514 218.635 282.611 217.418 274.942C216.028 266.189 221.732 251.584 226.893 244.597C235.17 233.392 247.042 227.279 260.677 225.25Z"/>
	<path fill="#24CAB8" transform="scale(0.195312 0.195312)" d="M322.345 248.6C329.487 248.814 332.185 253.644 336.719 258.368C340.717 262.532 354.399 272.524 343.748 278.106C340.237 279.947 337.013 279.359 333.456 278.165C332.498 281.638 331.775 285.19 330.731 288.635C323.422 312.753 300.916 329.389 275.587 328.515C285.148 339.317 273.769 347.922 266.054 342.911C263.051 340.96 254.1 330.948 250.875 327.807C245.848 323.404 243.267 319.222 248.287 313.611C251.33 310.208 263.647 297.841 266.907 295.763C272.392 292.269 286.512 298.39 273.653 312.184C295.046 312.726 314.181 298.187 315.643 276.236C304.23 284.022 293.744 273.736 301.318 264.679C306.517 258.461 313.988 249.399 322.345 248.6Z"/>
	<path fill="#FEB057" transform="scale(0.195312 0.195312)" d="M240.253 164.561C246.402 164.065 251.161 172.095 254.948 175.861C268.061 188.902 272.764 187.463 256.734 202.861C251.57 207.82 243.276 220.144 235.446 212.15C232.08 208.713 233.19 201.764 233.221 197.234C213.267 200.038 201.477 212.462 197.094 231.238C203.311 231.308 212.782 229.565 213.776 238.218C214.087 240.928 212.875 242.595 211.267 244.568C207.934 247.963 204.554 251.307 201.161 254.641C189.044 266.549 187.841 263.098 178.362 252.983C174.311 248.66 162.463 239.511 168.795 232.664C171.284 229.973 175.765 230.212 179.143 230.1C183.764 202.289 204.318 181.106 233.221 179.108C232.816 172.414 232.149 166.033 240.253 164.561Z"/>
</svg>
