<?xml version="1.0" encoding="utf-8" ?>
<svg xmlns="http://www.w3.org/2000/svg" xmlns:xlink="http://www.w3.org/1999/xlink" width="100" height="100">
	<path fill="#80B7FC" transform="matrix(0.195312 0 0 0.195312 0.00012207 3.05176e-05)" d="M273.699 115.317C276.982 115.293 286.321 114.507 288.688 116.395C292.269 119.25 287.256 121.286 284.321 121.487C279.895 121.465 268.451 123.617 267.78 118.046C267.434 115.172 271.86 115.391 273.699 115.317Z"/>
	<path fill="#80B7FC" transform="matrix(0.195312 0 0 0.195312 0.00012207 3.05176e-05)" d="M272.241 159.771C275.211 159.565 286.016 159.172 288.174 160.41C291.118 162.1 289.226 165.834 286.288 165.988C283.141 165.997 270.732 166.677 268.994 165.12C265.842 162.299 269.308 159.836 272.241 159.771Z"/>
	<path fill="#80B7FC" transform="matrix(0.195312 0 0 0.195312 0.00012207 3.05176e-05)" d="M300.547 212.691L337.754 212.683C340.011 212.683 366.488 210.248 356.93 218.693C354.219 219.014 351.31 218.715 348.57 218.706L311.841 218.712C308.379 218.719 304.658 218.998 301.225 218.585C298.24 218.226 298.528 214.086 300.547 212.691Z"/>
	<path fill="#80B7FC" transform="matrix(0.195312 0 0 0.195312 0.00012207 3.05176e-05)" d="M301.66 115.317C306.668 115.03 355.138 115.089 356.831 115.649C359.784 116.626 358.852 120.784 356.207 121.487C345.998 121.805 335.682 121.495 325.458 121.491L309.607 121.459C307.04 121.456 299.765 122.719 299.057 119.198C298.626 117.056 299.697 115.709 301.66 115.317Z"/>
	<path fill="#80B7FC" transform="matrix(0.195312 0 0 0.195312 0.00012207 3.05176e-05)" d="M304.37 159.771L339.652 159.782C344.256 159.788 350.73 159.377 355.046 159.784C360.748 160.322 359.648 165.86 353.957 165.988L320.257 165.992C314.537 165.998 308.568 166.347 302.876 165.957C297.567 165.593 296.369 160.135 304.37 159.771Z"/>
	<path fill="#80B7FC" transform="matrix(0.195312 0 0 0.195312 0.00012207 3.05176e-05)" d="M269.901 99.2335L330.801 99.2428C335.446 99.2389 353.338 98.6495 356.825 99.5673C359.972 100.396 358.272 104.384 356.207 105.443L279.394 105.438C276.486 105.424 266.221 106.804 267.912 101.206C268.235 100.134 268.942 99.6999 269.901 99.2335Z"/>
	<path fill="#80B7FC" transform="matrix(0.195312 0 0 0.195312 0.00012207 3.05176e-05)" d="M334.909 143.95L347.686 143.902C363.082 143.766 362.921 150.128 348.524 150.12L291.789 150.125C288.092 150.1 270.87 150.927 269.015 149.353C267.748 148.278 267.895 145.849 268.996 144.721C270.973 142.695 288.676 143.959 292.162 143.96L334.909 143.95Z"/>
	<path fill="#80B7FC" transform="matrix(0.195312 0 0 0.195312 0.00012207 3.05176e-05)" d="M156.646 228.256C163.463 228.03 170.366 228.247 177.193 228.247L240.569 228.249C244.623 228.25 248.953 227.92 252.953 228.546C256.276 229.065 256.716 232.583 253.749 234.256C249.991 234.588 245.999 234.263 242.21 234.261L178.027 234.255C175.475 234.255 146.594 237.31 156.646 228.256Z"/>
	<path fill="#80B7FC" transform="matrix(0.195312 0 0 0.195312 0.00012207 3.05176e-05)" d="M158.615 212.691L272.428 212.689C275.145 212.687 286.74 211.836 288.599 213.189C291.669 215.423 289.241 218.485 286.288 218.693L173.5 218.698C170.3 218.704 158.205 219.862 155.946 217.899C152.906 215.258 155.387 212.637 158.615 212.691Z"/>
	<path fill="#80B7FC" transform="matrix(0.195312 0 0 0.195312 0.00012207 3.05176e-05)" d="M157.75 196.774L301.867 196.776C309.376 196.776 354.878 196.26 356.892 197.086C360.108 198.406 359.078 201.768 356.207 202.496L201.243 202.494C196.285 202.494 158.396 202.933 156.508 202.315C153.179 201.225 155.166 197.577 157.75 196.774Z"/>
	<path fill="#496ACB" transform="matrix(0.195312 0 0 0.195312 0.00012207 3.05176e-05)" d="M195.884 94.0158C235.841 91.7628 258.028 144.488 227.73 172.107C220.316 178.865 208.866 183.894 198.744 183.442C186.461 184.513 174.506 178.894 165.843 170.388C138.473 143.513 157.836 94.3976 195.884 94.0158Z"/>
	<path fill="#FC4957" transform="matrix(0.195312 0 0 0.195312 0.00012207 3.05176e-05)" d="M192.559 178.1C143.095 172.056 150.712 99.1134 194.637 99.2335C200.672 99.176 191.97 103.914 190.668 104.907C181.975 111.534 174.399 118.179 176.848 129.718C172.971 130.615 170.268 146.149 176.848 147.488C176.904 155.462 179.808 167.389 185.738 173.115C187.684 174.994 191.178 175.97 192.559 178.1Z"/>
	<path fill="#FD7689" transform="matrix(0.195312 0 0 0.195312 0.00012207 3.05176e-05)" d="M194.637 99.2335C202.579 97.7239 212.981 101.907 219.466 106.297C236.943 118.127 242.383 143.263 230.356 160.915C222.982 171.738 206.132 181.591 192.559 178.1C191.178 175.97 187.684 174.994 185.738 173.115C179.808 167.389 176.904 155.462 176.848 147.488C170.268 146.149 172.971 130.615 176.848 129.718C174.399 118.179 181.975 111.534 190.668 104.907C191.97 103.914 200.672 99.176 194.637 99.2335Z"/>
	<path fill="#496ACB" transform="matrix(0.195312 0 0 0.195312 0.00012207 3.05176e-05)" d="M190.188 115.963C206.001 115.865 206.122 113.612 206.082 129.718C209.734 129.698 213.722 129.269 217.328 129.718C218.341 130.593 219.072 131.425 219.832 132.518C220.321 147.139 221.129 148.2 206.082 147.488C206.096 149.959 206.808 158.433 205.334 159.996C202.96 162.512 191.762 162.765 189.325 159.915C187.375 157.634 188.227 150.473 188.219 147.488C184.462 147.476 180.591 147.263 176.848 147.488C170.268 146.149 172.971 130.615 176.848 129.718C180.638 129.767 184.429 129.734 188.219 129.718C188.169 124.974 187.287 119.953 190.188 115.963Z"/>
	<path fill="#FEFDFC" transform="matrix(0.195312 0 0 0.195312 0.00012207 3.05176e-05)" d="M193.76 120.619C196.171 120.586 198.584 120.613 200.996 120.619L200.996 134.481L214.824 134.481L214.824 142.432L200.996 142.432C200.984 146.242 202.852 156.671 198.744 156.684L193.18 156.684L193.18 142.432C188.195 142.358 183.195 142.429 178.209 142.432L178.209 134.481L193.18 134.481C193.186 131.653 192.661 122.828 193.161 120.809L193.76 120.619Z"/>
	<path fill="#496ACB" transform="matrix(0.195312 0 0 0.195312 0.00012207 3.05176e-05)" d="M121.021 259.142L121.023 150.414C121.023 132.272 120.604 114.016 121.044 95.8843C121.706 68.5379 148.916 73.319 167.544 73.3282L347.801 73.3171C359.389 73.3169 377.161 71.0154 385.618 80.1042C392.855 87.881 391.874 96.8864 391.869 106.714L391.858 178.302C391.859 186.018 392.13 193.83 391.859 201.536L386.773 201.536L386.784 108.536C386.792 97.067 387.755 80.638 371.989 78.7136C369.123 78.3638 366.12 78.5398 363.236 78.5485L145.231 78.5655C144.59 84.2146 145.246 90.0006 145.237 95.6901L145.231 259.142C150.395 259.143 197.628 258.828 198.304 259.142C203.872 259.237 208.089 259.637 211.6 264.29C228.452 259.754 224.789 279.092 225.486 288.868L257.676 288.88C261.343 288.878 267.495 288.326 270.852 288.868C273.636 289.041 276.521 288.885 279.315 288.882L296.542 288.868C296.53 277.636 296.274 266.334 296.591 255.11C297.018 240.04 305.715 239.725 318.055 239.721L369.439 239.725C375.213 239.724 381.004 239.552 386.773 239.724L386.773 213.074C388.476 213.017 390.156 213.014 391.859 213.074C391.864 221.951 391.694 230.849 391.859 239.724L410.07 239.695C420.148 239.683 432.758 239.624 433.445 253.781C433.927 263.709 433.51 273.846 433.51 283.799L433.501 379.496C433.505 386.918 435.635 400.253 430.017 406.138C424.472 411.947 401.685 409.49 393.032 409.729C391.853 431.072 376.744 434.886 359.606 434.901L158.611 434.904C136.465 434.902 123.684 435.557 119.328 409.729C113.649 410.593 105.768 409.606 99.6535 409.768C93.3065 409.937 87.7602 410.833 82.6413 406.201C75.3457 399.599 77.8474 375.609 77.8468 366.057L77.8344 287.781C77.832 262.43 77.603 259.123 102.585 259.124L121.021 259.142Z"/>
	<path fill="#2881ED" transform="matrix(0.195312 0 0 0.195312 0.00012207 3.05176e-05)" d="M125.009 410.664C130.602 410.328 136.298 410.62 141.902 410.664C141.963 414.221 142.295 416.658 143.872 419.883C140.794 420.017 129.677 419.227 127.859 419.883C125.52 417.809 125.276 413.551 125.009 410.664Z"/>
	<path fill="#80B7FC" transform="matrix(0.195312 0 0 0.195312 0.00012207 3.05176e-05)" d="M143.872 419.883L143.872 419.883C146.255 424.093 151.959 428.523 156.646 429.746C145.594 429.719 133.552 431.819 127.859 419.883C129.677 419.227 140.794 420.017 143.872 419.883Z"/>
	<path fill="#80B7FC" transform="matrix(0.195312 0 0 0.195312 0.00012207 3.05176e-05)" d="M286.288 294.003L296.542 294.003L296.542 320.61L286.288 320.61C286.283 311.764 286.567 302.841 286.288 294.003Z"/>
	<path fill="#EAECF6" transform="matrix(0.195312 0 0 0.195312 0.00012207 3.05176e-05)" d="M211.6 264.29C228.452 259.754 224.789 279.092 225.486 288.868L257.676 288.88C261.343 288.878 267.495 288.326 270.852 288.868C268.975 289.063 266.923 288.889 265.03 288.885L214.824 288.868C214.85 281.564 216.878 270.158 211.6 264.29Z"/>
	<path fill="#80B7FC" transform="matrix(0.195312 0 0 0.195312 0.00012207 3.05176e-05)" d="M214.824 294.003L225.486 294.003L225.486 320.61L214.824 320.61L214.824 294.003Z"/>
	<path fill="#EAECF6" transform="matrix(0.195312 0 0 0.195312 0.00012207 3.05176e-05)" d="M286.288 325.632L296.542 325.632L296.542 361.987L286.288 361.987C286.284 349.872 286.43 337.745 286.288 325.632Z"/>
	<path fill="#EAECF6" transform="matrix(0.195312 0 0 0.195312 0.00012207 3.05176e-05)" d="M214.824 325.632L261.444 325.637C269.041 325.636 276.739 325.319 284.321 325.632C279.924 326.151 271.802 325.625 267.067 325.629L225.486 325.632L225.468 350.492C225.457 354.16 225.035 358.367 225.486 361.987L214.824 361.987L214.824 325.632Z"/>
	<path fill="#80B7FC" transform="matrix(0.195312 0 0 0.195312 0.00012207 3.05176e-05)" d="M214.824 366.994L225.486 366.994L225.494 392.099C225.499 396.871 226.086 402.696 224.933 407.33C220.811 423.892 198.275 419.894 185.173 419.894L143.872 419.883L143.872 419.883C142.295 416.658 141.963 414.221 141.902 410.664L183.428 410.669C209.889 410.666 214.874 412.948 214.846 386.086L214.824 366.994Z"/>
	<path fill="#80B7FC" transform="matrix(0.195312 0 0 0.195312 0.00012207 3.05176e-05)" d="M286.288 366.994L296.542 366.994L296.521 385.618C296.507 403.006 295.885 409.741 317.003 409.747L388.094 409.729C387.746 413.056 387.205 417.088 385.188 419.883C383.937 419.437 371.795 419.878 369.583 419.881L327.341 419.872C312.493 419.879 291.148 423.857 286.857 404.616C285.322 397.732 286.04 375.495 286.288 366.994Z"/>
	<path fill="#98D3F9" transform="matrix(0.195312 0 0 0.195312 0.00012207 3.05176e-05)" d="M225.486 294.003L286.288 294.003C286.567 302.841 286.283 311.764 286.288 320.61L225.486 320.61L225.486 294.003Z"/>
	<path fill="#FEFDFC" transform="matrix(0.195312 0 0 0.195312 0.00012207 3.05176e-05)" d="M284.321 325.632L286.288 325.632C286.43 337.745 286.284 349.872 286.288 361.987L225.486 361.987C225.035 358.367 225.457 354.16 225.468 350.492L225.486 325.632L267.067 325.629C271.802 325.625 279.924 326.151 284.321 325.632Z"/>
	<path fill="#EAECF6" transform="matrix(0.195312 0 0 0.195312 0.00012207 3.05176e-05)" d="M126.448 259.142C126.198 255.494 126.432 251.805 126.435 248.15L126.45 112.633C126.446 95.7799 123.409 79.3795 145.231 78.5655C144.59 84.2146 145.246 90.0006 145.237 95.6901L145.231 259.142C150.395 259.143 197.628 258.828 198.304 259.142L126.448 259.142Z"/>
	<path fill="#FEFDFC" transform="matrix(0.195312 0 0 0.195312 0.00012207 3.05176e-05)" d="M301.66 377.257L428.493 377.257C428.508 383.165 430.28 398.343 426.474 402.686C421.869 406.101 396.508 404.72 390.219 404.717L320.486 404.722C313.209 404.72 303.592 406.531 301.603 396.948C300.943 393.769 301.658 381.328 301.66 377.257Z"/>
	<path fill="#98D3F9" transform="matrix(0.195312 0 0 0.195312 0.00012207 3.05176e-05)" d="M225.486 366.994L286.288 366.994C286.04 375.495 285.322 397.732 286.857 404.616C291.148 423.857 312.493 419.879 327.341 419.872L369.583 419.881C371.795 419.878 383.937 419.437 385.188 419.883C378.066 431.86 366.889 429.726 355.048 429.737L208.975 429.75C191.557 429.751 174.056 430.119 156.646 429.746C151.959 428.523 146.255 424.093 143.872 419.883L185.173 419.894C198.275 419.894 220.811 423.892 224.933 407.33C226.086 402.696 225.499 396.871 225.494 392.099L225.486 366.994Z"/>
	<path fill="#EAECF6" transform="matrix(0.195312 0 0 0.195312 0.00012207 3.05176e-05)" d="M358.814 244.627L400.219 244.62C405.803 244.619 415.001 244.065 420.138 244.937C430.718 246.732 428.506 258.2 428.502 266.078L428.493 372.36L370.812 372.36L301.66 372.36L301.641 265.5C301.559 241.136 303.547 244.622 325.655 244.619L358.814 244.627Z"/>
	<path fill="#496ACB" transform="matrix(0.195312 0 0 0.195312 0.00012207 3.05176e-05)" d="M386.214 314.311L400.079 314.299C421.272 314.335 417.955 319.5 417.994 339.268C418.011 347.846 420.153 356.132 408.494 356.913L393.534 356.944C374.583 356.974 375.903 353.368 375.949 335.586C375.972 326.71 373.856 315.121 386.214 314.311Z"/>
	<path fill="#61D1A8" transform="matrix(0.195312 0 0 0.195312 0.00012207 3.05176e-05)" d="M380.835 322.421C385.342 316.664 409.472 319.031 411.574 320.697C413.905 322.544 413.249 327.131 413.242 329.752C413.233 336.182 413.966 344.115 413.242 350.339C408.729 353.249 399.279 352.006 394.074 352.025C390.219 352.04 381.555 353.507 380.798 347.979C380.217 343.737 380.849 334.464 380.835 329.752C380.774 327.327 380.594 324.837 380.835 322.421Z"/>
	<path fill="#496ACB" transform="matrix(0.195312 0 0 0.195312 0.00012207 3.05176e-05)" d="M384.34 257.191L400.902 257.165C408.519 257.161 416.721 256.272 417.749 266.376C418.534 274.087 421.682 298.602 410.133 299.753C402.159 301.61 378.606 304.351 376.266 292.57C375.748 289.963 375.649 268.319 376.059 265.556C376.75 260.888 379.674 258.06 384.34 257.191Z"/>
	<path fill="#61D1A8" transform="matrix(0.195312 0 0 0.195312 0.00012207 3.05176e-05)" d="M380.835 264.92C384.473 260.657 391.326 261.91 396.392 261.905C411.639 261.891 413.373 260.054 413.242 274.305C412.963 293.603 417.687 295.063 399.595 295.051C377.578 295.037 380.776 297.139 380.835 275.071C380.815 271.688 380.771 268.303 380.835 264.92Z"/>
	<path fill="#496ACB" transform="matrix(0.195312 0 0 0.195312 0.00012207 3.05176e-05)" d="M321.325 314.311L337.117 314.278C352.868 314.273 354.407 314.609 354.303 331.912C354.247 341.323 358.218 356.13 345.654 356.913C342.023 357.467 336.622 356.917 332.746 356.921C325.4 356.927 313.546 359.165 312.128 348.865C311.458 343.996 311.43 327.003 312.145 322.393C312.917 317.409 316.41 314.955 321.325 314.311Z"/>
	<path fill="#F0D078" transform="matrix(0.195312 0 0 0.195312 0.00012207 3.05176e-05)" d="M316.759 329.752C316.624 326.825 316.042 322.895 318.311 320.577C320.381 318.463 338.487 319.198 342.339 319.269C347.072 319.356 349.933 320.441 349.518 325.632C338.234 334.83 331.146 336.582 316.759 329.752Z"/>
	<path fill="#F5BA4F" transform="matrix(0.195312 0 0 0.195312 0.00012207 3.05176e-05)" d="M349.518 325.632L349.544 340.465C349.622 356.248 345.232 351.917 330.795 352.036C326.299 352.073 318.045 353.943 316.91 347.768C316.157 343.671 316.783 334.443 316.759 329.752C331.146 336.582 338.234 334.83 349.518 325.632Z"/>
	<path fill="#2881ED" transform="matrix(0.195312 0 0 0.195312 0.00012207 3.05176e-05)" d="M321.325 257.191C322.91 256.898 324.956 257.138 326.589 257.154L337.534 257.231C356.037 257.177 354.227 260 354.266 278.242C354.285 287.006 357.159 299.168 345.093 300.73C335.371 300.865 312.935 304.198 311.893 292.253C311.426 286.898 311.225 269.217 312.08 264.304C312.982 259.118 316.316 257.512 321.325 257.191Z"/>
	<path fill="#98D3F9" transform="matrix(0.195312 0 0 0.195312 0.00012207 3.05176e-05)" d="M322.021 261.927C326.51 261.697 347.626 259.622 348.999 264.804C349.847 268.006 350.039 291.529 348.691 293.688C347.897 294.961 346.471 295.435 345.093 295.758C340.599 295.766 321.249 296.51 318.766 294.702C314.5 291.595 316.932 264.211 317.878 263.216C318.929 262.11 320.595 262.016 322.021 261.927Z"/>
	<path fill="#FEFDFC" transform="matrix(0.195312 0 0 0.195312 0.00012207 3.05176e-05)" d="M327.802 278.074C330.488 278.077 350.047 275.676 344.799 283.363C343.125 284.299 340.91 283.966 339.06 283.91C335.928 283.89 323.445 284.723 321.57 283.21C316.194 278.87 325.647 278.099 327.802 278.074Z"/>
	<path fill="#98D3F9" transform="matrix(0.195312 0 0 0.195312 0.00012207 3.05176e-05)" d="M127.859 264.29L192.411 264.286C212.308 264.294 209.567 267.823 209.543 284.367L209.654 394.465C209.679 406.731 201.958 404.762 193.249 404.727L165.125 404.713L99.3038 404.724C96.2322 404.751 89.9807 405.769 87.4829 403.536C80.4155 397.218 83.2824 381.582 83.2823 372.309L83.2768 290.577C83.2564 268.112 78.8522 264.288 103.806 264.279L127.859 264.29Z"/>
	<path fill="#496ACB" transform="matrix(0.195312 0 0 0.195312 0.00012207 3.05176e-05)" d="M119.328 339.843C146.079 336.759 152.159 379.928 122.356 382.471C96.4179 386.637 89.359 343.388 119.328 339.843Z"/>
	<path fill="#F5BA4F" transform="matrix(0.195312 0 0 0.195312 0.00012207 3.05176e-05)" d="M119.328 344.81C138.88 343.367 145.347 372.92 122.356 377.257C100.365 377.735 98.5728 348.902 119.328 344.81Z"/>
	<path fill="#FEFDFC" transform="matrix(0.195312 0 0 0.195312 0.00012207 3.05176e-05)" d="M110.453 357.752C117.017 358.537 123.775 357.212 130.447 358.099C135.251 358.738 136.86 363.045 132.713 365.621C127.273 366.04 116.929 366.416 111.921 365.373C107.025 364.353 106.963 360.591 110.453 357.752Z"/>
	<path fill="#496ACB" transform="matrix(0.195312 0 0 0.195312 0.00012207 3.05176e-05)" d="M119.328 283.099C143.967 279.916 154.613 318.748 123.56 325.632C92.858 327.052 91.0611 285.871 119.328 283.099Z"/>
	<path fill="#F8A26F" transform="matrix(0.195312 0 0 0.195312 0.00012207 3.05176e-05)" d="M119.328 288.07C139.757 286.249 145.491 315.636 123.56 320.61C100.119 320.881 97.8441 291.523 119.328 288.07Z"/>
	<path fill="#FEFDFC" transform="matrix(0.195312 0 0 0.195312 0.00012207 3.05176e-05)" d="M111.812 301.347L124.932 301.329C127.341 301.324 130.155 301.045 132.516 301.525C136.557 302.348 135.651 307.029 132.713 308.587C128.842 308.668 113.072 309.28 110.307 307.702C107.048 305.843 108.505 301.802 111.812 301.347Z"/>
	<path fill="#496ACB" transform="matrix(0.195312 0 0 0.195312 0.00012207 3.05176e-05)" d="M176.848 283.91C185.987 283.986 198.517 281.687 198.751 294.524C199.163 317.189 203.485 324.499 178.209 324.427C169.218 324.491 157.179 326.191 156.677 313.968C155.733 291.011 152.584 283.821 176.848 283.91Z"/>
	<path fill="#FEFDFC" transform="matrix(0.195312 0 0 0.195312 0.00012207 3.05176e-05)" d="M161.739 299.753C161.567 291.721 161.241 289.07 170.092 288.888C173.779 288.812 193.169 286.617 193.18 292.949C193.037 295.212 193.133 297.488 193.18 299.753C185.089 300.044 169.604 300.554 161.739 299.753Z"/>
	<path fill="#EAECF6" transform="matrix(0.195312 0 0 0.195312 0.00012207 3.05176e-05)" d="M193.18 292.949C193.544 295.827 193.576 314.95 192.983 316.706C189.204 320.849 165.93 319.946 163.055 317.48C160.685 315.446 161.725 302.78 161.739 299.753C169.604 300.554 185.089 300.044 193.18 299.753C193.133 297.488 193.037 295.212 193.18 292.949Z"/>
	<path fill="#496ACB" transform="matrix(0.195312 0 0 0.195312 0.00012207 3.05176e-05)" d="M166.091 340.991C175.032 340.517 196.294 338.28 198.154 348.419C198.582 350.75 198.474 371.188 198.072 373.565C197.171 378.89 193.471 381.767 188.219 382.471C181.758 382.787 164.697 383.457 160.458 380.205C155.287 376.237 156.667 369.276 156.679 363.627C156.696 355.048 154.065 342.423 166.091 340.991Z"/>
	<path fill="#FEFDFC" transform="matrix(0.195312 0 0 0.195312 0.00012207 3.05176e-05)" d="M161.739 357.752C161.708 354.365 160.545 348.269 164.659 346.863C168.565 345.528 190.883 343.088 193.18 350.339C193.003 352.812 193 355.279 193.18 357.752C182.708 357.763 172.202 357.477 161.739 357.752Z"/>
	<path fill="#EAECF6" transform="matrix(0.195312 0 0 0.195312 0.00012207 3.05176e-05)" d="M193.18 350.339C193.799 354.536 193.49 372.354 192.248 375.078C189.521 377.736 166.154 378.761 163.012 375.139C160.78 372.567 161.755 361.432 161.739 357.752C172.202 357.477 182.708 357.763 193.18 357.752C193 355.279 193.003 352.812 193.18 350.339Z"/>
</svg>
