<?xml version="1.0" encoding="utf-8" ?>
<svg xmlns="http://www.w3.org/2000/svg" xmlns:xlink="http://www.w3.org/1999/xlink" width="100" height="100">
	<path fill="#97EFF2" transform="scale(0.195312 0.195312)" d="M117.555 164.697C121.336 161.801 124.528 158.033 128.019 154.783C137.896 145.588 147.525 136.232 157.59 127.242C159.79 135.917 163.492 166.346 148.229 165.623C142.805 165.624 121.213 166.416 117.555 164.697Z"/>
	<path fill="#44DAD6" transform="scale(0.195312 0.195312)" d="M117.555 164.697C121.213 166.416 142.805 165.624 148.229 165.623C148.65 174.406 148.231 183.301 148.229 192.1L148.229 244.27L117.555 244.27L117.557 182.419C117.555 179.596 117.028 166.541 117.555 164.697Z"/>
	<path fill="#44DAD6" transform="scale(0.195312 0.195312)" d="M117.555 420.528C123.018 420.308 128.465 420.435 133.929 420.528C141.826 420.061 150.963 420.533 159.026 420.528C160.401 421.388 164.482 420.759 166.446 421.566L203.537 421.566L347.561 421.566L347.561 424.186L347.561 430.943C349.701 448.53 337.6 448.787 324.913 448.79L144.96 448.792C119.218 448.789 116.34 446.786 117.555 421.566L117.555 421.566L117.555 420.528Z"/>
	<path fill="#0CA5D6" transform="scale(0.195312 0.195312)" d="M117.555 420.528C123.018 420.308 128.465 420.435 133.929 420.528C141.826 420.061 150.963 420.533 159.026 420.528C160.401 421.388 164.482 420.759 166.446 421.566L203.537 421.566L347.561 421.566L347.561 424.186L347.561 430.943C347.469 432.122 347.547 433.341 347.561 434.523L142.244 434.526C134.058 434.524 125.721 434.168 117.555 434.523C117.529 430.228 117.837 425.847 117.555 421.566L117.555 421.566L117.555 420.528Z"/>
	<path fill="#E5E9F8" transform="scale(0.195312 0.195312)" d="M117.555 420.528C123.018 420.308 128.465 420.435 133.929 420.528C133.415 420.711 132.891 420.877 132.394 421.103L133.929 421.566C128.563 421.572 122.874 421.058 117.555 421.566L117.555 420.528Z"/>
	<path fill="#CAE6F2" transform="scale(0.195312 0.195312)" d="M133.929 420.528C141.826 420.061 150.963 420.533 159.026 420.528C160.401 421.388 164.482 420.759 166.446 421.566C155.624 421.525 144.74 421.896 133.929 421.566L132.394 421.103C132.891 420.877 133.415 420.711 133.929 420.528Z"/>
	<path fill="#72ACF9" transform="scale(0.195312 0.195312)" d="M162.377 110.059L162.361 87.5279C162.356 61.227 163.404 59.372 192.124 59.4041L373.413 59.3904C395.264 59.3739 394.526 63.5679 394.487 81.3132L394.478 110.059L162.377 110.059ZM186.263 86.3732C182.967 86.6336 182.042 87.8262 181.121 90.8232C183.093 99.0607 190.094 97.1302 197.836 96.6162C203.471 96.0678 204.95 90.2645 201.515 87.7115C198.461 85.4422 190.133 86.3504 186.263 86.3732ZM214.33 86.3732C208.87 86.7276 205.552 92.2584 209.691 95.249C212.533 97.3031 220.141 96.714 223.652 96.6162C229.361 96.1821 231.95 90.9929 228.338 88.0311C225.21 85.4658 218.183 86.2893 214.33 86.3732Z"/>
	<path fill="#E5E9F8" transform="scale(0.195312 0.195312)" d="M239.054 86.3732C244.031 86.3602 250.912 84.9686 254.824 88.7236C255.957 92.188 255.666 95.4782 251.813 96.6162C248.151 96.6592 239.899 97.305 236.9 95.5975C232.659 93.1837 234.831 87.2445 239.054 86.3732Z"/>
	<path fill="#6572C5" transform="scale(0.195312 0.195312)" d="M162.377 244.27C162.359 242.666 162.368 241.063 162.377 239.459L162.377 244.27C167.808 244.257 173.377 244.017 178.738 244.996C183.332 243.777 191.981 244.147 196.111 246.518C205.551 251.936 203.544 261.72 203.539 270.855L203.548 408.677C203.56 412.949 203.797 417.307 203.537 421.566L166.446 421.566C164.482 420.759 160.401 421.388 159.026 420.528C150.963 420.533 141.826 420.061 133.929 420.528C128.465 420.435 123.018 420.308 117.555 420.528C114.566 419.357 110.105 419.731 106.898 419.734L85.5188 419.767C77.4431 419.782 66.5893 421.283 62.4963 412.285C59.9854 406.765 61.2542 386.398 61.2543 379.658L61.2532 282.076C61.2518 266.94 56.5644 251.137 72.1863 244.27C77.0521 243.957 82.1095 244.264 87.001 244.266L117.555 244.27L148.229 244.27C152.933 244.147 157.67 244.267 162.377 244.27Z"/>
	<path fill="#334AA2" transform="scale(0.195312 0.195312)" d="M133.929 402.202C130.735 402.141 117.153 402.092 116.167 401.265C114.604 399.954 115.337 395.748 115.517 393.927C115.56 395.379 115.35 397.115 115.865 398.465L116.291 398.736L116.979 398.259C118.62 400.879 133.437 399.747 136.717 399.564L133.929 402.202Z"/>
	<path fill="#334AA2" transform="scale(0.195312 0.195312)" d="M101.352 376.021C97.6526 376.109 85.2759 376.553 82.6756 375.503C81.0722 372.659 81.6056 361.825 83.1004 359.174L83.5453 359.138L83.75 360.246C83.7728 364.732 83.861 369.23 83.75 373.715L103.047 373.715C102.537 374.548 101.986 375.279 101.352 376.021Z"/>
	<path fill="#334AA2" transform="scale(0.195312 0.195312)" d="M117.555 306.726C117.472 325.387 115.026 321.608 136.717 321.55L133.929 323.99C131.171 324.038 117.926 325.102 116.284 323.142C115.424 320.498 114.487 308.814 117.555 306.726Z"/>
	<path fill="#334AA2" transform="scale(0.195312 0.195312)" d="M167.915 323.99C165.051 324 147.97 324.97 147.242 322.93C146.531 320.934 146.601 306.607 148.718 305.929C148.558 326.019 147.986 321.532 169.006 321.55C168.749 322.381 168.284 323.201 167.915 323.99Z"/>
	<path fill="#334AA2" transform="scale(0.195312 0.195312)" d="M167.915 351.078C165.028 351.492 149.196 352.839 147.302 350.559C146.838 349.179 145.578 334.449 148.229 333.675C148.23 338.836 148.391 343.919 148.718 349.071C155.576 349.438 162.807 349.266 169.681 349.071L167.915 351.078Z"/>
	<path fill="#334AA2" transform="scale(0.195312 0.195312)" d="M104.299 349.071C101.594 353.336 83.2444 351.184 82.2053 350.636C81.5912 348.282 80.072 334.251 83.75 333.675C83.7332 338.749 83.41 344.021 83.75 349.071C90.5921 348.77 97.465 349.379 104.299 349.071Z"/>
	<path fill="#334AA2" transform="scale(0.195312 0.195312)" d="M117.555 359.436C117.563 363.458 116.913 370.07 117.555 373.715C123.347 374.596 130.92 374.614 136.717 373.715C135.259 380.326 115.906 376.306 115.527 375.427C115.037 374.29 114.097 360.938 117.555 359.436Z"/>
	<defs>
		<linearGradient id="gradient_0" gradientUnits="userSpaceOnUse" x1="121.37048" y1="332.47009" x2="125.89697" y2="352.77753">
			<stop offset="0" stop-color="#2436AC"/>
			<stop offset="1" stop-color="#315BC3"/>
		</linearGradient>
	</defs>
	<path fill="url(#gradient_0)" transform="scale(0.195312 0.195312)" d="M133.929 351.531C131.359 351.863 117.726 352.127 116.222 351.105C114.803 348.441 114.461 335.065 117.555 332.527C117.441 335.449 116.859 347.006 118.323 348.808C119.978 349.48 134.714 349.319 136.717 349.071C135.774 349.878 134.848 350.698 133.929 351.531Z"/>
	<path fill="#334AA2" transform="scale(0.195312 0.195312)" d="M81.9661 308.112C82.4989 307.326 83.1205 306.638 83.75 305.929C83.6739 326.209 81.3379 321.581 104.299 321.55L103.047 323.99C79.0329 323.945 81.8851 329.24 81.9661 308.112Z"/>
	<path fill="#334AA2" transform="scale(0.195312 0.195312)" d="M83.75 382.279C83.9159 387.886 82.9635 394.058 83.75 399.564C89.2977 400.341 98.6508 400.34 104.299 400.021L103.047 402.202C99.4903 402.508 85.0349 402.691 81.9661 402.202C81.6493 398.635 80.3988 384.084 83.75 382.279Z"/>
	<path fill="#334AA2" transform="scale(0.195312 0.195312)" d="M148.229 359.436L148.246 359.668C148.456 362.918 148.24 366.256 148.232 369.519L148.215 389.105C148.211 391.449 147.242 397.865 148.902 399.778C149.233 400.159 166.662 400.282 169.006 400.021C166.84 403.37 163.008 402.242 159.478 402.225L146.978 402.202C146.072 399.427 145.917 367.23 146.292 360.533C146.719 359.843 147.504 359.695 148.229 359.436Z"/>
	<path fill="#25C492" transform="scale(0.195312 0.195312)" d="M117.555 306.726C117.685 305.554 117.68 304.12 118.602 303.266C119.839 302.119 135.014 301.602 137.029 303.318C138.387 306.567 138.305 318.386 136.717 321.55C115.026 321.608 117.472 325.387 117.555 306.726Z"/>
	<path fill="#FDC863" transform="scale(0.195312 0.195312)" d="M117.555 359.436C117.62 358.383 117.575 357.259 118.03 356.291C118.931 355.644 136.788 352.866 137.58 357.959C138.062 361.058 138.71 371.07 136.717 373.715C130.92 374.614 123.347 374.596 117.555 373.715C116.913 370.07 117.563 363.458 117.555 359.436Z"/>
	<path fill="#25C492" transform="scale(0.195312 0.195312)" d="M117.555 332.527C119.631 328.031 133.991 329.587 137.006 330.755C138.122 332.073 138.562 346.518 136.717 349.071C134.714 349.319 119.978 349.48 118.323 348.808C116.859 347.006 117.441 335.449 117.555 332.527Z"/>
	<path fill="#DE5251" transform="scale(0.195312 0.195312)" d="M83.75 360.246C83.8208 359.175 83.761 356.949 84.461 356.139C85.4069 355.044 102.119 354.564 105.423 356.265C106.905 359.147 106.937 370.227 103.047 373.715L83.75 373.715C83.861 369.23 83.7728 364.732 83.75 360.246Z"/>
	<path fill="#DE5251" transform="scale(0.195312 0.195312)" d="M148.718 305.929C150.68 301.372 169.626 303.621 170.765 304.23C171.731 304.746 172.086 320.207 169.006 321.55C147.986 321.532 148.558 326.019 148.718 305.929Z"/>
	<path fill="#72ACF9" transform="scale(0.195312 0.195312)" d="M83.75 305.929C83.955 305.049 84.2138 303.142 85.0422 302.655C86.5832 301.748 102.893 301.998 105.017 302.591C106.539 304.427 106.97 319.021 104.299 321.55C81.3379 321.581 83.6739 326.209 83.75 305.929Z"/>
	<path fill="#25C492" transform="scale(0.195312 0.195312)" d="M116.979 382.279C118.882 377.558 135.26 379.976 137.32 381.017C138.822 383.754 138.529 396.293 136.717 399.564C133.437 399.747 118.62 400.879 116.979 398.259L116.291 398.736L115.865 398.465C115.35 397.115 115.56 395.379 115.517 393.927C115.513 390.028 114.691 385.654 116.979 382.279Z"/>
	<path fill="#334AA2" transform="scale(0.195312 0.195312)" d="M115.517 393.927C115.513 390.028 114.691 385.654 116.979 382.279C116.993 387.112 117.429 393.634 116.979 398.259L116.291 398.736L115.865 398.465C115.35 397.115 115.56 395.379 115.517 393.927Z"/>
	<path fill="#72ACF9" transform="scale(0.195312 0.195312)" d="M84.3981 329.178C86.7746 329.044 103.031 328.629 104.564 329.61C106.462 332.238 106.004 343.225 105.834 346.758C105.341 347.54 104.863 348.336 104.299 349.071C97.465 349.379 90.5921 348.77 83.75 349.071C83.41 344.021 83.7332 338.749 83.75 333.675C83.9418 332.177 84.0847 330.656 84.3981 329.178Z"/>
	<path fill="#72ACF9" transform="scale(0.195312 0.195312)" d="M148.229 333.675C148.329 332.097 148.341 331.059 149.462 329.848C151.973 328.599 167.992 328.416 170.313 330.099C170.959 332.079 171.012 347.454 169.681 349.071C162.807 349.266 155.576 349.438 148.718 349.071C148.391 343.919 148.23 338.836 148.229 333.675Z"/>
	<path fill="#72ACF9" transform="scale(0.195312 0.195312)" d="M83.75 382.279C83.9312 374.879 104.987 379.267 105.397 379.536C106.357 380.164 107.019 397.742 104.299 400.021C98.6508 400.34 89.2977 400.341 83.75 399.564C82.9635 394.058 83.9159 387.886 83.75 382.279Z"/>
	<path fill="#F4AD37" transform="scale(0.195312 0.195312)" d="M123.988 292.478L99.5767 292.486C89.4408 292.484 79.9981 294.857 80.037 280.919C80.0918 261.231 86.7996 264.107 104.299 264.176C104.867 266.242 107.236 268.589 108.57 270.31L119.918 284.918C121.272 286.682 124.829 289.827 124.649 292.178L123.988 292.478Z"/>
	<path fill="#72ACF9" transform="scale(0.195312 0.195312)" d="M148.229 359.436C148.097 352.878 167.786 354.891 169.843 356.205C170.984 358.091 171.421 396.717 169.622 399.663L169.006 400.021C166.662 400.282 149.233 400.159 148.902 399.778C147.242 397.865 148.211 391.449 148.215 389.105L148.232 369.519C148.24 366.256 148.456 362.918 148.246 359.668L148.229 359.436Z"/>
	<path fill="#FDC863" transform="scale(0.195312 0.195312)" d="M104.299 264.176L159.204 264.146C175.615 263.993 174.467 268.955 174.085 284.326C173.816 295.119 160.799 292.491 153.655 292.482L123.988 292.478L124.649 292.178C124.829 289.827 121.272 286.682 119.918 284.918L108.57 270.31C107.236 268.589 104.867 266.242 104.299 264.176Z"/>
	<path fill="#334AA2" transform="scale(0.195312 0.195312)" d="M117.555 420.528C114.566 419.357 110.105 419.731 106.898 419.734L85.5188 419.767C77.4431 419.782 66.5893 421.283 62.4963 412.285C59.9854 406.765 61.2542 386.398 61.2543 379.658L61.2532 282.076C61.2518 266.94 56.5644 251.137 72.1863 244.27C71.1087 258.159 71.2834 271.795 71.2826 285.727L71.2822 393.957C71.268 397.938 70.3978 403.673 73.1962 406.93C77.5652 412.016 91.7953 409.99 97.9192 409.99L163.284 410.007C172.831 410.026 180.959 412.523 187.012 404.223C187.001 415.069 183.455 420.636 172.005 420.594L159.026 420.528C150.963 420.533 141.826 420.061 133.929 420.528C128.465 420.435 123.018 420.308 117.555 420.528Z"/>
	<path fill="#C7CCF6" transform="scale(0.195312 0.195312)" d="M178.738 244.996C183.332 243.777 191.981 244.147 196.111 246.518C205.551 251.936 203.544 261.72 203.539 270.855L203.548 408.677C203.56 412.949 203.797 417.307 203.537 421.566L166.446 421.566C164.482 420.759 160.401 421.388 159.026 420.528L172.005 420.594C183.455 420.636 187.001 415.069 187.012 404.223C187.383 397.665 187.014 390.841 187.013 384.261L187.015 286.628C187.016 276.997 187.272 267.297 186.984 257.674C186.804 251.704 184.231 247.718 178.738 244.996Z"/>
	<path fill="#E5E9F8" transform="scale(0.195312 0.195312)" d="M162.377 110.059L394.478 110.059C394.487 112.874 395.047 119.465 394.478 121.748C393.465 131.637 396.617 158.15 393.239 163.558C397.212 165.644 401.792 167.362 405.494 169.831C410.699 166.919 415.586 162.711 421.038 160.365C425.528 165.594 430.369 170.447 435.083 175.466C435.806 176.17 436.487 176.849 437.099 177.652C434.23 182.101 427.704 185.58 426.727 191.046C429.647 195.288 432.077 203.359 433.697 208.428C438.6 208.877 443.438 209.337 448.37 209.291L448.37 229.85C448.41 231.069 448.401 232.277 448.37 233.496C444.258 237.3 436.055 237.678 433.586 240.548C431.581 242.88 428.853 249.74 426.727 253.064C429.661 256.671 434.974 263.283 437.099 267.23C433.577 269.29 431.297 272.307 428.194 274.827C425.234 277.797 422.268 280.76 419.388 283.808C417.436 282.402 415.329 280.545 412.967 279.908C412.129 280.106 398.783 280.11 397.93 279.908C396.335 280.214 394.77 280.496 393.239 281.051C394.63 284.963 395.368 301.244 394.478 303.669C393.59 311.5 394.495 319.991 394.487 327.924L394.47 384.394C394.466 407.18 399.241 420.741 370.935 421.014C364.718 421.074 353.386 420.952 347.561 421.566C347.645 422.443 347.861 423.348 347.561 424.186L347.561 421.566L203.537 421.566C203.797 417.307 203.56 412.949 203.548 408.677L203.539 270.855C203.544 261.72 205.551 251.936 196.111 246.518C191.981 244.147 183.332 243.777 178.738 244.996C173.377 244.017 167.808 244.257 162.377 244.27L162.377 239.459C162.368 241.063 162.359 242.666 162.377 244.27C157.67 244.267 152.933 244.147 148.229 244.27L148.229 192.1C148.231 183.301 148.65 174.406 148.229 165.623C163.492 166.346 159.79 135.917 157.59 127.242C158.866 125.256 160.768 123.477 162.377 121.748L162.377 121.748L162.377 110.059Z"/>
	<path fill="#5392F5" transform="scale(0.195312 0.195312)" d="M214.33 330.793C205.087 330.536 204.711 321.114 214.33 320.529C214.037 324.004 214.073 327.31 214.33 330.793Z"/>
	<path fill="#5392F5" transform="scale(0.195312 0.195312)" d="M214.33 360.246C204.97 360.931 204.542 350.343 214.33 350.036C214.03 353.533 214.313 356.772 214.33 360.246Z"/>
	<path fill="#C7CCF6" transform="scale(0.195312 0.195312)" d="M351.283 146.756C354.863 146.841 358.414 146.517 361.998 146.756L361.998 162.744C358.402 163.932 354.746 165.109 351.283 166.654C351.123 164.426 351.263 162.119 351.269 159.878L351.283 146.756Z"/>
	<path fill="#72ACF9" transform="scale(0.195312 0.195312)" d="M342.508 379.999C346.684 379.525 360.859 379.615 365.118 379.952C371.688 380.472 371.253 389.326 364.577 390.287C360.114 390.249 341.521 391.109 338.778 389.172C335.132 386.597 336.929 380.641 342.508 379.999Z"/>
	<path fill="#C7CCF6" transform="scale(0.195312 0.195312)" d="M310.214 173.116C310.94 173.899 312.044 175.36 313.144 175.466C314.929 176.304 316.513 177.251 317.943 178.627C316.634 179.424 315.203 179.999 313.914 180.812C316.82 184.726 319.353 188.736 323.794 191.046C321.169 195.297 320.234 200.201 317.943 204.576C317.635 204.331 317.724 204.427 317.501 204.17C313.083 199.07 303.679 190.879 298.262 186.222C302.296 181.944 306.479 177.659 310.214 173.116Z"/>
	<path fill="#72ACF9" transform="scale(0.195312 0.195312)" d="M214.33 350.036L241.597 350.026C245.602 350.026 256.232 348.701 259.215 351.752C262.091 354.694 260.192 359.668 256.262 360.191C252.082 360.748 247.419 360.253 243.189 360.248L214.33 360.246C214.313 356.772 214.03 353.533 214.33 350.036Z"/>
	<path fill="#F4AD37" transform="scale(0.195312 0.195312)" d="M317.943 178.627C320.053 178.252 326.943 185.918 328.931 187.437C322.12 198.666 318.133 212.111 317.943 225.258C312.259 225.21 306.373 228.088 301.018 229.85L301.018 214.317L301.018 209.291C306.445 208.503 311.929 208.076 317.332 207.136L317.943 204.576C320.234 200.201 321.169 195.297 323.794 191.046C319.353 188.736 316.82 184.726 313.914 180.812C315.203 179.999 316.634 179.424 317.943 178.627Z"/>
	<path fill="#72ACF9" transform="scale(0.195312 0.195312)" d="M211.382 261.903C216.3 261.244 223.638 261.935 228.818 261.918L248.629 261.915C252.515 261.891 264.359 260.076 264.816 266.086C265.36 273.233 256.708 272.016 252.108 272.006L220.339 272.007C217.467 272.021 214.198 272.525 211.382 271.983C205.631 270.882 206.015 263.245 211.382 261.903Z"/>
	<path fill="#5392F5" transform="scale(0.195312 0.195312)" d="M211.382 271.983C205.631 270.882 206.015 263.245 211.382 261.903C212.283 261.91 213.462 262.069 214.33 261.903C214.37 267.129 216.441 271.654 211.382 271.983Z"/>
	<path fill="#F48F37" transform="scale(0.195312 0.195312)" d="M187.012 175.466C188.728 178.762 187.923 184.075 188.816 187.775C194.914 213.033 224.001 230.16 249.448 224.145C252.156 223.505 255.31 221.947 258.02 221.796C222.941 248.049 174.241 213.901 187.012 175.466Z"/>
	<path fill="#72ACF9" transform="scale(0.195312 0.195312)" d="M290.646 350.036L355.861 350.018C358.764 350.017 361.774 349.859 364.661 350.127C371.222 350.736 372.765 359.754 362.591 360.246C337.356 360.245 312.079 360.561 286.85 360.246C280.525 356.605 282.794 350.399 290.646 350.036Z"/>
	<path fill="#72ACF9" transform="scale(0.195312 0.195312)" d="M211.382 291.238C215.007 290.788 219.091 291.225 222.761 291.247L276.655 291.238C281.438 291.238 286.962 290.874 291.665 291.193C295.547 291.457 298.144 296.215 295.425 299.38C292.686 302.569 274.324 301.144 269.905 301.144L231.557 301.143C228.927 301.143 212.864 301.556 211.382 301.143C208.604 300.994 207.655 298.539 207.142 296.164C207.804 293.62 208.775 292.169 211.382 291.238Z"/>
	<path fill="#5392F5" transform="scale(0.195312 0.195312)" d="M207.142 296.164C207.804 293.62 208.775 292.169 211.382 291.238C212.329 291.284 213.273 291.321 214.214 291.442C214.612 293.379 214.832 299.391 214.263 301.118C213.305 301.118 212.337 301.087 211.382 301.143C208.604 300.994 207.655 298.539 207.142 296.164Z"/>
	<path fill="#72ACF9" transform="scale(0.195312 0.195312)" d="M211.382 379.999C214.964 379.544 219.003 379.995 222.633 380.02L285.289 379.996C289.793 379.994 308.938 378.672 312.067 381.253C315.819 384.347 312.986 389.732 308.728 390.217C305.173 390.622 301.282 390.292 297.684 390.291L230.589 390.279C224.509 390.28 217.32 391.112 211.382 390.287C206.153 389.559 205.887 381.199 211.382 379.999Z"/>
	<path fill="#5392F5" transform="scale(0.195312 0.195312)" d="M211.382 390.287C206.153 389.559 205.887 381.199 211.382 379.999C216.234 380.3 215.213 383.59 214.38 389.177C214.206 390.344 212.344 390.188 211.382 390.287Z"/>
	<path fill="#0CA5D6" transform="scale(0.195312 0.195312)" d="M162.377 121.748C162.93 124.461 162.41 127.937 162.391 130.759L162.377 239.459C162.368 241.063 162.359 242.666 162.377 244.27C157.67 244.267 152.933 244.147 148.229 244.27L148.229 192.1C148.231 183.301 148.65 174.406 148.229 165.623C163.492 166.346 159.79 135.917 157.59 127.242C158.866 125.256 160.768 123.477 162.377 121.748Z"/>
	<path fill="#72ACF9" transform="scale(0.195312 0.195312)" d="M214.33 320.529L345.684 320.526C349.797 320.522 365.188 319.157 368.097 322.113C370.102 324.15 369.827 327.544 367.681 329.35C364.781 331.79 358.649 330.788 355.147 330.788L222.147 330.804C219.571 330.806 216.895 330.952 214.33 330.793C214.073 327.31 214.037 324.004 214.33 320.529Z"/>
	<path fill="#C7CCF6" transform="scale(0.195312 0.195312)" d="M287.691 215.575C292.246 215.028 296.373 213.902 301.018 214.317L301.018 229.85L301.018 237.691C306.438 238.756 311.957 239.651 317.332 240.905C319.773 244.681 321.03 249.056 323.006 253.064C318.647 257.364 314.596 261.931 311.472 267.23C317.402 272.933 322.989 279.01 328.931 284.68C333.637 282.461 338.779 278.452 342.508 274.827C348.209 278.36 354.326 280.989 360.738 282.92L360.738 298.642L386.637 298.642L386.637 283.808C388.823 282.849 391.052 282.001 393.239 281.051C394.63 284.963 395.368 301.244 394.478 303.669C391.074 306.647 388.097 310.154 384.761 313.224C373.071 313.442 360.639 312.887 348.998 312.162L348.998 296.164C343.493 294.041 338.099 291.692 332.639 289.467C328.047 292.088 323.428 295.23 319.388 298.642C312.119 290.502 304.304 282.909 296.981 274.827C302.868 264.9 307.791 265.121 303.365 252.17C298.233 250.706 292.98 249.626 287.691 248.905L287.691 215.575Z"/>
	<path fill="#F48F37" transform="scale(0.195312 0.195312)" d="M326.374 225.258L327.42 225.258C329.026 257.115 365.61 280.035 395.361 270.393C408.313 266.196 407.005 263.65 419.892 270.393C422.439 271.726 426.198 272.756 428.194 274.827C425.234 277.797 422.268 280.76 419.388 283.808C417.436 282.402 415.329 280.545 412.967 279.908C412.129 280.106 398.783 280.11 397.93 279.908C396.335 280.214 394.77 280.496 393.239 281.051C391.052 282.001 388.823 282.849 386.637 283.808L386.637 298.642L360.738 298.642L360.738 282.92C354.326 280.989 348.209 278.36 342.508 274.827C338.779 278.452 333.637 282.461 328.931 284.68C322.989 279.01 317.402 272.933 311.472 267.23C314.596 261.931 318.647 257.364 323.006 253.064C321.03 249.056 319.773 244.681 317.332 240.905C311.957 239.651 306.438 238.756 301.018 237.691L301.018 229.85C306.373 228.088 312.259 225.21 317.943 225.258C320.748 225.261 323.572 225.333 326.374 225.258Z"/>
	<path fill="#97EFF2" transform="scale(0.195312 0.195312)" d="M407.313 275.628C409.508 276.825 411.176 278.161 412.967 279.908C412.129 280.106 398.783 280.11 397.93 279.908C400.892 277.757 403.801 276.627 407.313 275.628Z"/>
	<path fill="#5392F5" transform="scale(0.195312 0.195312)" d="M162.377 110.059L394.478 110.059C394.487 112.874 395.047 119.465 394.478 121.748L187.808 121.756C179.342 121.754 170.839 121.561 162.377 121.748L162.377 110.059Z"/>
	<path fill="#FDC863" transform="scale(0.195312 0.195312)" d="M187.012 175.466C194.872 140.176 247.392 131.394 267.872 164.635C278.662 182.147 275.466 210.039 258.02 221.796C255.31 221.947 252.156 223.505 249.448 224.145C224.001 230.16 194.914 213.033 188.816 187.775C187.923 184.075 188.728 178.762 187.012 175.466Z"/>
	<path fill="#E5E9F8" transform="scale(0.195312 0.195312)" d="M228.082 157.501C232.007 157.416 232.972 160.262 234.096 163.558C250.593 170.371 246.03 186.253 239.463 183.036C237.173 181.914 236.899 179.088 236.059 176.972C233.473 170.462 223.506 170.303 221.496 176.728C218.981 184.765 230.052 184.512 234.889 185.931C249.87 190.327 248.392 206.92 234.096 214.317C233.467 216.229 232.874 218.023 231.606 219.627C227.064 222.813 225 218.192 224.44 214.317C217.142 211.418 205.308 199.398 216.397 197.11C219.234 196.525 228.968 212.609 234.985 202.195C239.84 193.791 225.207 193.865 220.543 192.064C207.138 186.889 209.109 169.437 223.652 163.558C224.725 160.807 225.428 159.071 228.082 157.501Z"/>
	<path fill="#FED592" transform="scale(0.195312 0.195312)" d="M361.998 142.497C370.155 142.531 379.242 141.733 387.274 142.497C386.483 151.716 384.462 160.316 393.239 163.558C397.212 165.644 401.792 167.362 405.494 169.831C410.699 166.919 415.586 162.711 421.038 160.365C425.528 165.594 430.369 170.447 435.083 175.466C435.806 176.17 436.487 176.849 437.099 177.652C434.23 182.101 427.704 185.58 426.727 191.046C429.647 195.288 432.077 203.359 433.697 208.428C438.6 208.877 443.438 209.337 448.37 209.291L448.37 229.85C448.41 231.069 448.401 232.277 448.37 233.496C444.258 237.3 436.055 237.678 433.586 240.548C431.581 242.88 428.853 249.74 426.727 253.064C429.661 256.671 434.974 263.283 437.099 267.23C433.577 269.29 431.297 272.307 428.194 274.827C426.198 272.756 422.439 271.726 419.892 270.393C407.005 263.65 408.313 266.196 395.361 270.393C365.61 280.035 329.026 257.115 327.42 225.258L326.374 225.258C323.572 225.333 320.748 225.261 317.943 225.258C318.133 212.111 322.12 198.666 328.931 187.437C326.943 185.918 320.053 178.252 317.943 178.627C316.513 177.251 314.929 176.304 313.144 175.466C318.263 170.318 323.717 165.429 328.931 160.365C333.223 164.138 338.086 167.119 342.508 170.721C345.453 169.418 348.347 167.981 351.283 166.654C354.746 165.109 358.402 163.932 361.998 162.744L361.998 146.756L361.998 142.497Z"/>
	<path fill="#FDC863" transform="scale(0.195312 0.195312)" d="M419.388 186.222C423.136 183.403 431.071 177.806 435.083 175.466C435.806 176.17 436.487 176.849 437.099 177.652C434.23 182.101 427.704 185.58 426.727 191.046C423.984 191.365 421.84 187.922 419.71 186.444L419.388 186.222Z"/>
	<path fill="#FDC863" transform="scale(0.195312 0.195312)" d="M326.374 225.258C327.839 224.616 327.124 223.602 327.276 222.253C328.251 213.561 333.737 202.378 338.972 195.432C354.641 174.642 380.309 170.035 401.308 186.071C418.342 199.079 414.334 223.053 416.834 224.518C414.142 224.218 408.919 223.273 406.543 224.518C406.977 178.671 341.86 182.774 342.508 224.518C338.699 224.582 330.738 224.111 327.42 225.258L326.374 225.258Z"/>
	<path fill="#44DAD6" transform="scale(0.195312 0.195312)" d="M342.508 224.518C341.86 182.774 406.977 178.671 406.543 224.518C406.146 234.349 401.25 243.962 393.239 249.778C389.725 246.471 385.775 243.216 382.744 239.459C371.069 244.503 358.675 237.229 357.973 224.518C355.377 224.52 343.842 224.12 342.508 225.258L342.508 224.518Z"/>
	<path fill="#E5E9F8" transform="scale(0.195312 0.195312)" d="M357.973 224.518C358.402 214.816 365.761 206.051 375.804 206.547C392.373 207.366 398.943 228.236 382.744 239.459C371.069 244.503 358.675 237.229 357.973 224.518Z"/>
	<path fill="#FDC863" transform="scale(0.195312 0.195312)" d="M406.543 224.518C408.919 223.273 414.142 224.218 416.834 224.518L443.17 224.518C444.838 226.213 446.43 228.534 448.37 229.85C448.41 231.069 448.401 232.277 448.37 233.496C444.258 237.3 436.055 237.678 433.586 240.548C431.581 242.88 428.853 249.74 426.727 253.064C429.661 256.671 434.974 263.283 437.099 267.23C433.577 269.29 431.297 272.307 428.194 274.827C426.198 272.756 422.439 271.726 419.892 270.393C407.005 263.65 408.313 266.196 395.361 270.393C365.61 280.035 329.026 257.115 327.42 225.258C330.738 224.111 338.699 224.582 342.508 224.518L342.508 225.258C343.842 224.12 355.377 224.52 357.973 224.518C358.675 237.229 371.069 244.503 382.744 239.459C385.775 243.216 389.725 246.471 393.239 249.778C401.25 243.962 406.146 234.349 406.543 224.518Z"/>
	<path fill="#0CA5D6" transform="scale(0.195312 0.195312)" d="M342.508 225.258C343.842 224.12 355.377 224.52 357.973 224.518C358.675 237.229 371.069 244.503 382.744 239.459C385.775 243.216 389.725 246.471 393.239 249.778C371.507 265.623 346.759 250.65 342.508 225.258Z"/>
</svg>
