<?xml version="1.0" encoding="utf-8" ?>
<svg xmlns="http://www.w3.org/2000/svg" xmlns:xlink="http://www.w3.org/1999/xlink" width="100" height="100">
	<path fill="#424B6F" transform="scale(0.195312 0.195312)" d="M71.5651 434.589C76.224 434.591 93.6412 432.437 93.1386 438.281C92.911 440.927 90.8817 441.685 88.5568 441.502L76.8496 441.556C61.2136 441.683 64.5349 434.665 71.5651 434.589Z"/>
	<path fill="#424B6F" transform="scale(0.195312 0.195312)" d="M420.579 434.589L434.908 434.572C437.686 434.567 440.634 434.374 443.384 434.761C447.261 435.307 447.27 439.497 444.265 441.502C441.979 441.836 421.874 441.694 419.844 441.119C416.731 440.237 417.773 435.946 420.579 434.589Z"/>
	<path fill="#EAF3F5" transform="scale(0.195312 0.195312)" d="M134.328 144.994C134.628 146.616 134.627 157.659 134.328 159.269L142.455 159.269C144.595 159.345 149.721 158.966 151.102 160.671C151.996 161.775 154.035 180.041 150.017 182.243C147.493 182.625 144.988 182.43 142.455 182.243C142.406 185.641 142.312 189.041 142.455 192.437C151.957 189.677 187.418 188.615 195.648 193.188C201.485 196.431 205.835 203.47 205.99 210.212C203.486 210.284 201.004 210.271 198.501 210.212L176.747 210.212L176.747 250.949L161.155 250.927C141.782 250.915 134.258 252.475 134.307 275.192L134.336 289.846C134.341 310.848 134.704 331.923 134.328 352.917C131.417 351.099 128.734 347.651 126.596 344.986C83.0252 290.7 87.0454 207.504 128.162 153.094C130.12 150.502 132.512 148.21 134.121 145.368L134.328 144.994Z"/>
	<defs>
		<linearGradient id="gradient_0" gradientUnits="userSpaceOnUse" x1="124.1497" y1="167.72354" x2="152.52184" y2="174.00908">
			<stop offset="0" stop-color="#175D94"/>
			<stop offset="1" stop-color="#22739E"/>
		</linearGradient>
	</defs>
	<path fill="url(#gradient_0)" transform="scale(0.195312 0.195312)" d="M134.328 159.269L142.455 159.269C144.595 159.345 149.721 158.966 151.102 160.671C151.996 161.775 154.035 180.041 150.017 182.243C147.515 182.041 144.894 182.248 142.378 182.256L127.461 182.243C123.219 181.645 125.152 161.592 125.655 160.288C127.296 159.001 132.162 159.363 134.328 159.269Z"/>
	<path fill="#EEA82F" transform="scale(0.195312 0.195312)" d="M131.96 165.987C136.357 165.788 140.814 165.712 145.208 165.987L145.208 176.011L131.96 176.011L131.96 165.987Z"/>
	<path fill="#336C97" transform="scale(0.195312 0.195312)" d="M134.328 202.81C137.007 202.813 139.788 202.971 142.455 202.81C145.796 202.756 151.133 201.5 151.783 206.13C152.198 209.087 153.166 223.9 149.75 225.631C148.679 226.174 128.294 225.942 126.357 225.36C124.542 222.563 124.956 204.345 125.96 203.536C127.611 202.205 132.223 202.766 134.328 202.81Z"/>
	<path fill="#EEA82F" transform="scale(0.195312 0.195312)" d="M131.96 209.055L145.208 209.055L145.208 219.306C140.825 219.1 136.352 219.296 131.96 219.306C131.915 215.887 131.914 212.474 131.96 209.055Z"/>
	<path fill="#9BB3D8" transform="scale(0.195312 0.195312)" d="M127.461 182.243L142.378 182.256C144.894 182.248 147.515 182.041 150.017 182.243C147.493 182.625 144.988 182.43 142.455 182.243C142.406 185.641 142.312 189.041 142.455 192.437C151.957 189.677 187.418 188.615 195.648 193.188C201.485 196.431 205.835 203.47 205.99 210.212C203.486 210.284 201.004 210.271 198.501 210.212C197.619 196.593 183.325 197.752 173.801 197.754C164.738 197.755 149.179 195.699 142.455 202.81C139.788 202.971 137.007 202.813 134.328 202.81C134.341 195.955 134.397 189.097 134.328 182.243C132.043 182.432 129.729 182.699 127.461 182.243Z"/>
	<path fill="#EAF3F5" transform="scale(0.195312 0.195312)" d="M148.277 130.477C174.32 102.684 219.804 87.3689 256.875 87.2729C263.387 87.256 269.929 87.2925 276.347 88.5134L279.009 88.5134L279.009 90.8487L279.008 161.286C279.017 181.511 283.521 181.545 300.76 181.526L319.066 181.514L319.066 210.212L297.28 210.22C280.431 210.216 281.213 212.217 269.541 201.199C263.488 195.484 251.241 195.54 245.314 201.409C237.3 209.344 237.014 210.156 225.301 210.216L205.99 210.212C205.835 203.47 201.485 196.431 195.648 193.188C187.418 188.615 151.957 189.677 142.455 192.437C142.312 189.041 142.406 185.641 142.455 182.243C144.988 182.43 147.493 182.625 150.017 182.243C154.035 180.041 151.996 161.775 151.102 160.671C149.721 158.966 144.595 159.345 142.455 159.269L134.328 159.269C134.627 157.659 134.628 146.616 134.328 144.994C138.356 137.783 140.299 133.778 148.277 130.477Z"/>
	<path fill="#336C97" transform="scale(0.195312 0.195312)" d="M205.99 159.269C219.743 159.99 217.554 158.883 217.453 171.821C217.436 173.994 218.351 179.936 216.521 181.542C213.26 182.611 195.244 182.756 192.193 181.531C190.983 179.13 191.045 163.594 191.826 161.037C192.904 159.749 194.188 159.471 195.805 159.269C198.923 160.122 202.799 159.589 205.99 159.269Z"/>
	<path fill="#EEA82F" transform="scale(0.195312 0.195312)" d="M198.501 165.987C202.636 166.022 206.848 165.639 210.964 165.987L210.964 176.011L198.501 176.011L198.501 165.987Z"/>
	<path fill="#9BB3D8" transform="scale(0.195312 0.195312)" d="M148.277 130.477C156.681 129.657 169.152 130.507 177.93 130.501C182.063 130.498 187.631 129.709 191.528 130.367C206.963 132.973 206.046 147.768 205.99 159.269C202.799 159.589 198.923 160.122 195.805 159.269C196.599 159.038 197.672 159.228 198.501 159.269C198.533 150.633 200.347 137.975 188.276 137.715C181.147 137.561 173.98 137.743 166.848 137.746C146.828 137.753 142.186 135.333 142.455 159.269L134.328 159.269C134.627 157.659 134.628 146.616 134.328 144.994C138.356 137.783 140.299 133.778 148.277 130.477Z"/>
	<path fill="#424B6F" transform="scale(0.195312 0.195312)" d="M279.009 88.5134C278.952 69.6721 279.744 67.4336 298.872 67.4643L318.531 67.4758C339.715 67.4796 360.949 67.1557 382.127 67.4455C396.223 67.6383 394.118 81.4101 394.117 90.9017L394.109 154.622C394.113 160.897 394.643 167.314 394.11 173.569C394.673 173.698 395.07 173.564 395.61 173.384L396.073 172.664C399.139 175.569 401.152 180.864 402.88 184.722C423.605 231.018 421.055 281.577 397.358 326.397C392.62 335.358 386.922 346.046 378.23 351.82C378.497 353.43 378.657 355.152 378.435 356.774L378.23 357.013L378.23 406.27C384.957 407.11 398.008 402.908 398.596 410.307C399.496 421.634 398.997 426.207 391.873 434.589C394.082 434.587 410.405 432.795 405.458 439.984C403.155 443.329 394.076 441.437 390.639 441.475C376.083 441.636 361.511 441.501 346.954 441.501L116.051 441.506C113.126 441.511 110.143 441.748 107.227 441.614C103.877 441.46 101.71 437.752 104.653 435.252C106.714 433.502 115.55 434.365 118.404 434.589C114.779 429.529 113.177 426.236 112.987 419.926C112.422 401.098 114.7 406.243 134.328 406.27L134.328 352.917C134.704 331.923 134.341 310.848 134.336 289.846L134.307 275.192C134.258 252.475 141.782 250.915 161.155 250.927L176.747 250.949L176.747 210.212L198.501 210.212C201.004 210.271 203.486 210.284 205.99 210.212L225.301 210.216C237.014 210.156 237.3 209.344 245.314 201.409C251.241 195.54 263.488 195.484 269.541 201.199C281.213 212.217 280.431 210.216 297.28 210.22L319.066 210.212L319.066 181.514L300.76 181.526C283.521 181.545 279.017 181.511 279.008 161.286L279.009 90.8487L279.009 88.5134Z"/>
	<path fill="#336C97" transform="scale(0.195312 0.195312)" d="M120.005 413.199L141.178 413.199C141.281 424.179 141.364 427.474 150.017 434.069C148.304 434.277 146.435 433.977 144.705 433.929C126.454 433.425 119.91 433.564 120.005 413.199Z"/>
	<path fill="#D94446" transform="scale(0.195312 0.195312)" d="M387.557 153.238C387.561 179.054 392.392 175.036 367.109 175.041L307.218 175.039C302.037 175.037 296.735 175.285 291.573 174.922C284.522 174.425 285.909 168.706 285.902 163.289C287.441 164.018 288.316 165.374 290.119 165.643C298.305 166.865 312.537 165.981 321.09 165.979L387.557 165.987L387.557 153.238Z"/>
	<path fill="#EAF3F5" transform="scale(0.195312 0.195312)" d="M325.96 181.514L348.813 181.514L348.813 252.292C344.461 252.732 339.675 252.31 335.282 252.292L335.292 225.559C335.29 212.34 338.852 210.267 325.96 210.212L325.96 181.514Z"/>
	<path fill="#6A88AD" transform="scale(0.195312 0.195312)" d="M183.242 216.776L209.669 216.785C216.628 216.786 232.482 217.625 238.395 215.396C249.401 211.247 253.971 195.259 266.742 208.038C275.598 216.898 279.98 216.78 292.122 216.788L328.77 216.776L328.797 230.052C328.829 232.778 329.139 235.666 328.77 238.364C328.669 234.173 328.749 229.972 328.77 225.781L202.28 225.781L183.242 225.781L183.242 216.776Z"/>
	<path fill="#4DBFFD" transform="scale(0.195312 0.195312)" d="M183.242 225.781L202.28 225.781L202.279 266.478C202.284 275.769 201.779 285.493 202.754 294.729C206.131 326.737 230.015 350.001 258.879 361.122C262.411 362.483 266.386 363.259 269.788 364.821C265.355 367.432 260.401 369.377 255.781 371.667C235.185 362.265 214.039 350.227 200.1 331.845C183.098 309.422 183.241 291.128 183.241 265.338L183.242 225.781Z"/>
	<path fill="#6A88AD" transform="scale(0.195312 0.195312)" d="M141.178 413.199L384.002 413.226C386.592 413.251 389.305 413.537 391.873 413.199C391.832 438.757 373.524 434.081 353.766 434.078L157.092 434.044C154.737 434.037 152.37 433.971 150.017 434.069C141.364 427.474 141.281 424.179 141.178 413.199Z"/>
	<path fill="#424B6F" transform="scale(0.195312 0.195312)" d="M244.749 418.125C250.299 418.126 274.523 417.482 277.715 418.745C278.756 420.066 278.691 425.26 277.609 426.187C275.863 427.684 270.668 427.002 268.366 426.95C263.972 426.941 237.569 427.584 235.693 426.399C234.304 424.655 233.743 420.394 235.264 418.624C237.713 417.563 242.063 418.131 244.749 418.125Z"/>
	<path fill="#EAF3F5" transform="scale(0.195312 0.195312)" d="M394.11 173.569C394.673 173.698 395.07 173.564 395.61 173.384L396.073 172.664C399.139 175.569 401.152 180.864 402.88 184.722C423.605 231.018 421.055 281.577 397.358 326.397C392.62 335.358 386.922 346.046 378.23 351.82C378.497 353.43 378.657 355.152 378.435 356.774L378.23 357.013C378.249 356.241 378.264 355.469 378.266 354.697L378.246 279.42C378.246 260.459 376.524 252.125 355.534 252.292L355.534 181.514L375.073 181.535C382.712 181.537 391.577 183.018 394.11 173.569Z"/>
	<defs>
		<linearGradient id="gradient_1" gradientUnits="userSpaceOnUse" x1="279.67975" y1="149.12009" x2="393.97101" y2="91.929977">
			<stop offset="0" stop-color="#F35959"/>
			<stop offset="1" stop-color="#FEA7A7"/>
		</linearGradient>
	</defs>
	<path fill="url(#gradient_1)" transform="scale(0.195312 0.195312)" d="M365.084 73.9962C376.448 73.8458 387.476 69.706 387.586 82.2346L387.557 153.238L387.557 165.987L321.09 165.979C312.537 165.981 298.305 166.865 290.119 165.643C288.316 165.374 287.441 164.018 285.902 163.289L285.887 88.0243C285.875 75.0295 283.478 73.9611 297.702 73.9703L311.639 73.9962L347.143 73.986C353.097 73.9842 359.145 73.7509 365.084 73.9962Z"/>
	<path fill="#FC9FA0" transform="scale(0.195312 0.195312)" d="M311.639 73.9962L347.143 73.986C353.097 73.9842 359.145 73.7509 365.084 73.9962C363.71 74.3426 359.715 73.8074 358.913 74.5676C355.85 77.474 350.06 75.4594 350.07 74.57C350.997 74.1646 352.158 74.5995 353.238 74.33C345.348 73.4524 337.733 74.4017 329.899 74.3991C327.676 74.3983 305.092 71.9666 310.844 76.1036C312.369 77.2001 314.812 81.8018 315.72 83.6227C320.31 84.4706 325.009 91.6303 323.302 96.1157C323.218 90.2811 320.616 86.782 315.72 83.6227C314.543 80.8932 310.84 76.5502 308.957 73.9962C309.872 74.1052 310.721 74.0603 311.639 73.9962Z"/>
	<path fill="#FC9FA0" transform="scale(0.195312 0.195312)" d="M325.349 96.1157C321.687 89.934 334.865 74.9548 349.968 88.7011C350.761 91.1324 355.043 82.7567 357.931 83.6227C350.764 88.348 346.93 97.0982 354.614 103.635L355.534 104.427C348.032 102.33 351.644 92.0923 350.111 90.4976L350.573 90.8041L349.899 90.6303C347.628 93.9937 350.059 105.483 340.123 106.097C358.867 97.7191 341.921 74.2088 328.803 86.7795C326.06 89.4079 325.397 92.4786 325.349 96.1157Z"/>
	<path fill="#EAF3F5" transform="scale(0.195312 0.195312)" d="M306.591 124.507L320.074 124.505C322.292 124.495 324.706 124.264 326.901 124.463C331.329 124.863 331.22 130.349 325.349 130.477C319.125 130.465 293.95 132.345 302.239 125.149C303.176 124.335 305.409 124.537 306.591 124.507Z"/>
	<path fill="#EAF3F5" transform="scale(0.195312 0.195312)" d="M342.499 124.507C346.327 124.513 366.787 123.937 369.26 124.876C371.771 127.285 370.481 130.232 367.328 130.477C363.111 130.874 341.192 131.11 339.657 129.612C337.513 127.52 339.503 124.782 342.499 124.507Z"/>
	<path fill="#EAF3F5" transform="scale(0.195312 0.195312)" d="M303.602 153.238C312.886 152.885 366.427 152.716 369.465 153.829C371.162 155.452 370.311 157.499 369.197 159.269C366.647 159.503 363.95 159.278 361.382 159.275L346.219 159.275C332.718 159.279 319.121 159.629 305.63 159.244C300.484 159.098 300.471 155.959 303.602 153.238Z"/>
	<path fill="#EAF3F5" transform="scale(0.195312 0.195312)" d="M303.602 138.869C307.608 138.533 311.922 138.853 315.954 138.856L358.745 138.889C361.64 138.883 364.871 138.543 367.71 139.034C370.964 139.597 372.454 143.491 369.197 144.994L321.864 144.977C317.654 144.965 308.124 145.516 304.527 144.849C300.841 144.166 300.264 140.316 303.602 138.869Z"/>
	<path fill="#EAF3F5" transform="scale(0.195312 0.195312)" d="M325.349 96.1157C325.397 92.4786 326.06 89.4079 328.803 86.7795C341.921 74.2088 358.867 97.7191 340.123 106.097C332.464 107.367 327.773 103.13 325.349 96.1157Z"/>
	<path fill="#EAF3F5" transform="scale(0.195312 0.195312)" d="M323.302 96.1157C321.258 102.828 317.463 107.336 309.802 106.377C294.832 104.503 298.221 79.2866 315.72 83.6227C320.616 86.782 323.218 90.2811 323.302 96.1157Z"/>
	<path fill="#EAF3F5" transform="scale(0.195312 0.195312)" d="M357.931 83.6227C365.137 82.1098 372.239 85.3018 373.559 93.0354C375.312 103.31 363.785 110.253 355.534 104.427L354.614 103.635C346.93 97.0982 350.764 88.348 357.931 83.6227Z"/>
	<path fill="#7DD5FB" transform="scale(0.195312 0.195312)" d="M202.28 225.781L328.77 225.781C328.749 229.972 328.669 234.173 328.77 238.364L328.777 272.402C328.776 279.939 329.159 287.702 328.212 295.187C324.406 325.269 296.61 352.576 269.788 364.821C266.386 363.259 262.411 362.483 258.879 361.122C230.015 350.001 206.131 326.737 202.754 294.729C201.779 285.493 202.284 275.769 202.279 266.478L202.28 225.781Z"/>
	<path fill="#0BA176" transform="scale(0.195312 0.195312)" d="M290.643 313.853C273.671 340.485 228.688 334.596 217.565 302.884C209.714 280.501 221.231 257.285 243.495 249.595C242.54 250.583 241.318 251.034 240.2 251.785C228.407 259.709 220.526 271.737 220.085 286.283C219.063 320.011 257.099 336.176 284.399 317.812C286.001 316.734 288.925 314.331 290.643 313.853Z"/>
	<path fill="#27C689" transform="scale(0.195312 0.195312)" d="M243.495 249.595C248.653 246.419 260.48 246.886 266.213 248.259C288.701 253.645 303.324 276.88 297.623 299.439C296.621 303.404 293.623 311.034 290.643 313.853C288.925 314.331 286.001 316.734 284.399 317.812C257.099 336.176 219.063 320.011 220.085 286.283C220.526 271.737 228.407 259.709 240.2 251.785C241.318 251.034 242.54 250.583 243.495 249.595Z"/>
	<path fill="#0BA176" transform="scale(0.195312 0.195312)" d="M253.461 308.382C253.261 310.446 251.3 312.39 249.247 312.491C243.171 312.788 230.701 299.317 228.355 295.276C225.876 291.005 229.696 285.327 234.417 285.275C232.695 287.103 231.284 290.517 232.876 292.887C234.803 295.754 244.013 304.477 247.138 307.208C249.504 309.275 250.66 309.452 253.461 308.382Z"/>
	<path fill="#EAF3F5" transform="scale(0.195312 0.195312)" d="M251.136 294.116C253.925 290.65 268.124 276.081 271.671 273.342C275.222 270.599 281.768 271.584 282.089 276.86C282.36 281.322 259.234 303.941 253.461 308.382C250.66 309.452 249.504 309.275 247.138 307.208C244.013 304.477 234.803 295.754 232.876 292.887C231.284 290.517 232.695 287.103 234.417 285.275C241.621 281.347 246.91 289.24 251.136 294.116Z"/>
	<path fill="#EAF3F5" transform="scale(0.195312 0.195312)" d="M141.178 406.27L141.171 281.572C141.159 262.442 139.071 257.459 159.826 257.492L176.747 257.519C176.761 274.392 175.744 289.387 180.103 305.971C182.454 313.621 185.801 321.352 190.001 328.179C191.94 331.332 195.616 335.035 196.707 338.421C198.686 340.18 200.417 342.235 202.251 344.146C214.65 357.061 238.129 372.709 255.781 378.313C272.815 373 306.898 352.029 316.949 336.231C320.257 332.462 322.705 327.905 325.349 323.656C328.263 318.056 330.651 312.596 332.665 306.604C335.902 297.595 335.311 287.395 335.304 277.983L335.282 258.772L352.896 258.747C372.736 258.6 371.44 261.877 371.426 281.075L371.41 406.27L141.178 406.27Z"/>
	<path fill="#D94446" transform="scale(0.195312 0.195312)" d="M159.651 388.322C165.379 387.291 175.233 388.025 181.444 387.936L196.707 387.936C196.547 392.292 195.419 394.581 190.79 394.861C185.165 395.2 168.903 395.566 163.382 394.828C159.657 394.33 159.704 391.543 159.651 388.322Z"/>
	<path fill="#27C689" transform="scale(0.195312 0.195312)" d="M162.179 305.971C163.526 305.891 164.902 305.96 166.253 305.971L166.253 338.421L186.753 338.404C190.033 338.4 193.446 338.166 196.707 338.421L196.707 342.779C193.963 348.205 179.134 346.003 173.612 346.018C169.908 346.028 165.813 346.588 162.179 346.012C157.74 342.365 159.646 330.475 159.644 324.651C159.642 318.465 157.811 310.957 162.179 305.971Z"/>
	<path fill="#F8D548" transform="scale(0.195312 0.195312)" d="M353.829 393.529C353.803 395.033 353.329 397.141 351.776 397.752C349.943 398.473 322.585 398.963 318.455 397.242C316.17 394.862 316.942 389.26 316.943 386.288L316.951 373.648C316.952 370.934 317.001 368.209 316.939 365.496C316.733 356.436 317.07 357.578 325.96 357.013L325.96 387.936C332.877 392.331 350.664 387.573 353.829 393.529Z"/>
	<path fill="#5FDAAB" transform="scale(0.195312 0.195312)" d="M166.253 305.971C170.86 305.967 175.499 305.841 180.103 305.971C182.454 313.621 185.801 321.352 190.001 328.179C191.94 331.332 195.616 335.035 196.707 338.421C196.638 339.845 197.013 341.405 196.707 342.779L196.707 338.421C193.446 338.166 190.033 338.4 186.753 338.404L166.253 338.421L166.253 305.971Z"/>
	<path fill="#FBE67F" transform="scale(0.195312 0.195312)" d="M325.96 357.013C329.952 357.066 351.711 355.975 353.475 358.468C354.686 360.179 353.172 388.656 353.829 393.529C350.664 387.573 332.877 392.331 325.96 387.936L325.96 357.013Z"/>
	<path fill="#FE6165" transform="scale(0.195312 0.195312)" d="M162.179 357.768C165.71 357.246 187.061 357.369 190.957 357.827C197.818 358.633 196.753 364.942 196.738 369.997C196.72 375.934 196.415 382.016 196.707 387.936L181.444 387.936C175.233 388.025 165.379 387.291 159.651 388.322C160.239 382.402 157.2 359.311 162.179 357.768Z"/>
	<path fill="#5FDAAB" transform="scale(0.195312 0.195312)" d="M332.665 306.604C336.361 306.592 350.704 305.743 352.959 307.736C354.783 309.349 354.09 340.257 353.829 343.616C352.724 344.974 351.79 345.83 349.995 346.012L332.126 346.021C319.453 346.021 318.791 348.554 316.949 336.231C320.257 332.462 322.705 327.905 325.349 323.656C328.263 318.056 330.651 312.596 332.665 306.604Z"/>
	<path fill="#27C689" transform="scale(0.195312 0.195312)" d="M325.349 323.656C326.612 326.195 325.982 334.094 325.96 337.107C331.088 337.126 336.483 336.733 341.582 337.107C344.327 339.013 348.392 343.069 349.995 346.012L332.126 346.021C319.453 346.021 318.791 348.554 316.949 336.231C320.257 332.462 322.705 327.905 325.349 323.656Z"/>
</svg>
