<?xml version="1.0" encoding="utf-8" ?>
<svg xmlns="http://www.w3.org/2000/svg" xmlns:xlink="http://www.w3.org/1999/xlink" width="100" height="100">
	<path fill="#455C91" transform="scale(0.195312 0.195312)" d="M364.346 246.246L375.779 246.246L375.779 282.469C375.728 284.35 375.735 286.22 375.779 288.101L364.346 288.101L364.346 246.246Z"/>
	<path fill="#455C91" transform="scale(0.195312 0.195312)" d="M136.525 221.321C138.559 221.078 145.801 220.827 147.519 221.321L147.519 264.748L136.525 264.748C136.696 250.279 136.533 235.791 136.525 221.321Z"/>
	<path fill="#76C6D3" transform="scale(0.195312 0.195312)" d="M375.779 282.469C375.952 284.353 375.856 286.214 375.779 288.101C383.266 288.489 395.181 284.899 397.974 292.291C395.394 298.048 388.114 303.275 383.666 307.619C380.063 311.137 373.742 320.5 367.808 317.718C365.653 316.708 346.982 298.328 344.131 295.002C335.415 284.832 360.579 288.105 364.346 288.101L375.779 288.101C375.735 286.22 375.728 284.35 375.779 282.469Z"/>
	<path fill="#76C6D3" transform="scale(0.195312 0.195312)" d="M364.346 361.82L352.555 361.866C334.115 362.001 343.544 354.96 352.01 346.42C357.574 340.808 366.885 325.978 374.2 332.205C378.916 336.219 394.87 351.372 397.409 355.041C403.734 364.176 377.273 361.811 375.779 361.82L375.813 373.009C375.842 375.278 376.183 377.883 375.779 380.105C375.565 374.04 375.774 367.893 375.779 361.82L364.346 361.82C364.408 363.335 364.426 364.813 364.346 366.328C364.322 364.823 364.306 363.324 364.346 361.82Z"/>
	<path fill="#76C6D3" transform="scale(0.195312 0.195312)" d="M136.525 147.204L136.588 148.235C137.058 148.563 146.61 148.402 147.519 148.253L159.482 148.22C177.199 148.182 170.851 154.736 161.978 163.537C157.787 167.693 146.158 179.893 141.421 182.74C138.703 180.936 136.716 178.202 134.53 175.811L123.902 164.15C119.475 159.356 109.841 153.495 116.988 148.253C120.439 148.25 134.223 148.777 136.132 148.189L136.525 147.204Z"/>
	<path fill="#76C6D3" transform="scale(0.195312 0.195312)" d="M141.421 186.416C149.524 192.58 156.294 200.634 163.197 208.053C165.683 210.725 173.195 216.146 169.765 220.32C168.28 222.127 150.8 221.695 147.519 221.321C145.801 220.827 138.559 221.078 136.525 221.321C132.311 222.067 127.942 221.207 123.68 221.252C120.634 221.285 115.35 223.203 114.549 218.664C113.802 214.429 137.585 190.8 141.421 186.416Z"/>
	<path fill="#455C91" transform="scale(0.195312 0.195312)" d="M136.525 147.204L136.495 134.231C136.393 121.149 139.995 109.879 155.421 107.469C159.999 106.754 165.166 107.198 169.807 107.205L296.256 107.228L296.256 118.332L173.614 118.324C165.169 118.323 150.821 115.639 147.99 126.496C146.897 130.688 147.471 143.236 147.519 148.253C146.61 148.402 137.058 148.563 136.588 148.235L136.525 147.204Z"/>
	<path fill="#455C91" transform="scale(0.195312 0.195312)" d="M364.346 361.82L375.779 361.82C375.774 367.893 375.565 374.04 375.779 380.105C375.711 388.946 368.772 398.513 359.829 400.326C353.311 401.647 346.229 401.179 339.597 401.181L216.615 401.178L216.615 389.286L342.548 389.294C364.68 389.306 364.46 389.251 364.346 366.328C364.426 364.813 364.408 363.335 364.346 361.82Z"/>
	<defs>
		<linearGradient id="gradient_0" gradientUnits="userSpaceOnUse" x1="236.48679" y1="284.65347" x2="241.11635" y2="181.61526">
			<stop offset="0" stop-color="#1C89E1"/>
			<stop offset="1" stop-color="#63B2F1"/>
		</linearGradient>
	</defs>
	<path fill="url(#gradient_0)" transform="scale(0.195312 0.195312)" d="M200.618 182.74L268.17 182.723C271.112 182.719 274.182 182.529 277.104 182.856C295.217 184.884 293.84 201.283 293.826 214.283L293.825 256.674C293.817 270.453 292.428 279.687 277.129 283.816C261.034 284.181 244.849 283.81 228.745 283.814L211.878 283.829C186.246 283.867 184.163 276.462 184.154 251.471L184.134 207.94C184.132 194.878 185.208 184.549 200.618 182.74Z"/>
	<path fill="#455C91" transform="scale(0.195312 0.195312)" d="M242.401 209.117L275.421 209.117L275.421 260.442C272.053 260.462 265.205 261.978 265.025 258.626L253.894 258.626C253.692 262.086 245.747 260.739 242.641 260.394C242.283 259.829 242.404 259.284 242.401 258.626C238.792 258.663 235.056 258.261 231.475 258.626L231.373 259.78C229.89 260.616 221.078 260.951 220.275 258.626C218.256 258.153 211.541 258.615 209.068 258.626C209.186 262.226 205.497 260.622 201.56 260.442L201.56 232.755L221.114 232.755L221.114 222.424L242.401 222.424L242.401 209.117Z"/>
	<path fill="#E8A5A4" transform="scale(0.195312 0.195312)" d="M209.068 242.964L220.275 242.964L220.308 253.253C220.314 254.99 220.476 256.905 220.275 258.626C218.256 258.153 211.541 258.615 209.068 258.626L209.068 242.964Z"/>
	<path fill="#E8A5A4" transform="scale(0.195312 0.195312)" d="M231.475 234.727L242.401 234.727C242.286 242.686 242.625 250.675 242.401 258.626C238.792 258.663 235.056 258.261 231.475 258.626L231.475 234.727Z"/>
	<path fill="#E8A5A4" transform="scale(0.195312 0.195312)" d="M253.894 219.98L265.025 219.98L265.025 258.626L253.894 258.626L253.894 219.98Z"/>
	<path fill="#455C91" transform="scale(0.195312 0.195312)" d="M85.6499 277.765C90.4534 277.462 95.5002 277.761 100.329 277.763L151.455 277.751C170.595 277.751 165.677 277.136 179.366 290.993L193.606 305.534C196.359 308.367 199.533 311.268 201.826 314.488L202.113 314.895C204.14 317.72 202.939 323.344 202.939 326.673L202.937 402.32C202.935 417.144 207.839 438.167 189.533 442.252L95.8695 442.269C70.5193 442.311 71.0095 436.504 71.0033 412.221L71.003 303.492C71.0106 291.552 70.2286 280.891 85.6499 277.765ZM169.951 297.831C169.948 299.237 169.931 300.646 169.951 302.052C171.077 301.723 172.114 301.42 173.001 300.622L169.951 297.831Z"/>
	<path fill="#E6E6E7" transform="scale(0.195312 0.195312)" d="M173.001 300.622C176.486 304.097 181.477 308.289 184.156 312.32L169.951 312.32L169.951 302.052C171.077 301.723 172.114 301.42 173.001 300.622Z"/>
	<path fill="#E6E6E7" transform="scale(0.195312 0.195312)" d="M87.4779 289.272L158.683 289.272L158.664 306.625C158.659 321.399 158.087 323.846 175.019 323.8L191.492 323.777C191.161 332.193 191.486 340.739 191.486 349.172L191.508 416.543C191.517 421.455 193.45 430.474 187.062 430.564L99.7923 430.571C77.4707 430.568 82.5157 431.668 82.5105 407.78L82.5153 292.291C83.868 290.339 85.0207 289.574 87.4779 289.272Z"/>
	<path fill="#455C91" transform="scale(0.195312 0.195312)" d="M144.811 341.197L157.117 341.197L157.117 351.054L144.811 351.054L144.811 341.197Z"/>
	<path fill="#455C91" transform="scale(0.195312 0.195312)" d="M121.628 330.491L132.99 330.491L132.99 351.054L121.628 351.054L121.628 330.491Z"/>
	<path fill="#455C91" transform="scale(0.195312 0.195312)" d="M99.1215 313.953L110.212 313.953L110.212 351.054L99.1215 351.054L99.1215 313.953Z"/>
	<path fill="#ECB45A" transform="scale(0.195312 0.195312)" d="M104.97 397.6L161.726 397.576C166.924 397.544 171.127 396.484 174.446 401.178C174.366 406.512 177.081 418.608 169.062 418.719L126.876 418.721C120.684 418.728 100.368 421.819 99.4784 414.427C98.7074 408.019 96.7177 398.066 104.97 397.6Z"/>
	<path fill="#ECB45A" transform="scale(0.195312 0.195312)" d="M130.794 364.801L157.02 364.793C162.756 364.79 174.198 362.231 174.484 370.829C174.991 386.064 176.37 386.328 161.351 386.332L143.562 386.318L117.811 386.324C111.299 386.335 100.537 388.996 99.4514 381.263C99.0842 378.647 98.6491 368.287 100.555 366.386C103.099 363.847 125.96 364.792 130.794 364.801Z"/>
	<path fill="#455C91" transform="scale(0.195312 0.195312)" d="M345.433 65.1275L384.81 65.1285C391.215 65.1266 397.735 64.8238 404.125 65.1275C412.47 74.4677 435.428 93.9093 440.747 102.673C441.385 111.035 440.746 119.726 440.745 128.123L440.764 208.004C440.794 229.557 438.716 232.811 418.171 232.78L404.125 232.755L332.009 232.773C308.532 232.791 308.449 225.233 308.5 202.532L308.472 84.4918C308.465 60.4445 328.377 65.0983 345.433 65.1275Z"/>
	<path fill="#E6E6E7" transform="scale(0.195312 0.195312)" d="M407.457 85.466C411.787 89.3883 416.007 93.7778 419.879 98.1571C415.739 98.1838 411.596 98.2414 407.457 98.1571C407.372 93.9333 407.455 89.6917 407.457 85.466Z"/>
	<path fill="#E6E6E7" transform="scale(0.195312 0.195312)" d="M325.091 76.7651C348.552 76.5205 372.042 76.7686 395.506 76.7651C395.495 84.4443 393.337 100.22 399.201 106.179C403.616 110.667 410.197 109.788 415.909 109.778L429.245 109.768L429.25 203.852C429.25 209.359 431.495 220.521 424.505 221.321L335.885 221.337C317.346 221.447 320.17 221.369 320.176 204.212L320.188 113.117C320.187 102.959 319.895 92.7191 320.18 82.5718C320.277 79.102 321.599 77.3576 325.091 76.7651Z"/>
	<path fill="#455C91" transform="scale(0.195312 0.195312)" d="M384.84 131.533L395.506 131.533C395.458 135.128 396.173 140.096 395.506 143.516L384.84 143.516L384.84 131.533Z"/>
	<path fill="#455C91" transform="scale(0.195312 0.195312)" d="M360.752 122.937L372.064 122.937L372.064 143.516C368.925 143.981 364.064 143.537 360.752 143.516L360.752 122.937Z"/>
	<path fill="#455C91" transform="scale(0.195312 0.195312)" d="M336.922 102.673L348.237 102.673L348.237 143.516L336.922 143.516L336.922 102.673Z"/>
	<path fill="#ECB45A" transform="scale(0.195312 0.195312)" d="M383.293 189.406L398.431 189.386C404.23 189.383 412.51 188.045 412.801 196.254C413.394 213.003 407.396 209.779 394.303 209.772L366.097 209.756L349.974 209.789C344.6 209.798 336.834 210.968 336.455 203.31C335.594 185.927 340.883 189.4 355.643 189.397L383.293 189.406Z"/>
	<path fill="#ECB45A" transform="scale(0.195312 0.195312)" d="M341.77 157.02C355.046 156.882 368.337 157.018 381.615 157.01C387.676 157.006 409.669 154.459 412.165 160.54C414.306 165.758 414.32 175.065 407.457 177.361L366.923 177.367C359.698 177.368 337.727 180.671 336.352 171.58C335.57 166.407 334.916 157.637 341.77 157.02Z"/>
</svg>
