<?xml version="1.0" encoding="utf-8" ?>
<svg xmlns="http://www.w3.org/2000/svg" xmlns:xlink="http://www.w3.org/1999/xlink" width="100" height="100">
	<path fill="#264988" transform="scale(0.195312 0.195312)" d="M284.185 325.648L303.767 325.635C307.019 325.636 311.95 325.191 315.019 325.999C312.483 331.799 308.426 337.614 304.028 342.174L341.518 342.18C371.012 342.185 371.626 342.646 371.599 375.467L371.593 413.654C371.444 431.615 362.3 433.271 346.737 433.263L287.366 433.231C263.711 433.231 251.036 437.7 250.817 410.043L250.731 393.601L250.731 361.222C250.572 346.522 256.161 342.386 270.411 342.174C273.478 337.244 280.27 331.524 284.185 325.648Z"/>
	<path fill="#0DE8A8" transform="scale(0.195312 0.195312)" d="M284.185 325.648L303.767 325.635C307.019 325.636 311.95 325.191 315.019 325.999C312.483 331.799 308.426 337.614 304.028 342.174C292.867 342.45 281.58 342.275 270.411 342.174C273.478 337.244 280.27 331.524 284.185 325.648Z"/>
	<path fill="#6294D8" transform="scale(0.195312 0.195312)" d="M265.521 355.207L320.655 355.206C331.655 355.2 342.767 354.863 353.751 355.262C356.89 355.376 357.9 356.36 358.025 359.425C358.382 368.141 359.166 417.606 356.274 420.263C353.042 420.49 349.72 420.274 346.475 420.27L269.782 420.273C261.113 420.191 263.756 414.443 263.758 406.942L263.736 368.409C263.723 364.944 262.389 357.576 265.521 355.207Z"/>
	<path fill="#EFF4F9" transform="scale(0.195312 0.195312)" d="M310.824 372.036L311.166 372.023C320.992 371.75 323.675 382.51 316.037 389.838L316.037 402.252L312.885 402.252L307 402.252C307.016 398.115 307.056 393.975 307 389.838C301.718 382.976 299.514 374.517 310.824 372.036Z"/>
	<path fill="#0DE8A8" transform="scale(0.195312 0.195312)" d="M59.9301 146.173C64.0875 145.085 68.4857 144.466 72.7057 143.616C111.04 135.89 147.127 120.205 181.92 102.716C187.977 99.672 194.14 95.9409 200.439 93.4793L200.801 93.3401C203.835 94.5915 206.74 96.4339 209.674 97.9316C233.381 110.035 254.372 117.595 279.405 125.22C276.269 129.828 271.423 133.555 269.284 138.77C274.891 147.172 284.721 150.709 277.33 158.622C274.709 161.684 270.662 165.404 269.284 169.229C245.859 160.414 223.6 148.15 200.801 137.865L200.487 137.423C193.861 138.458 166.276 151.986 158.604 155.282L117.76 172.753C112.316 175.138 106.339 177.155 101.209 180.15L101.204 207.668C101.218 258.027 112.704 304.145 149.575 341.069C163.994 355.51 182.251 371.006 200.801 379.737L201.276 379.897C204.104 379.487 211.09 374.696 213.765 372.999C233.97 360.179 249.173 345.77 264.789 328.096C268.793 323.565 272.083 318.396 276.246 314.023L276.246 325.648C278.901 325.73 281.531 325.718 284.185 325.648C280.27 331.524 273.478 337.244 270.411 342.174C256.161 342.386 250.572 346.522 250.731 361.222L250.731 393.601C239.005 401.44 213.293 420.985 201.697 421.648C194.105 422.083 167.541 405.061 160.658 400.364C118.361 371.493 86.1188 327.472 71.3713 278.395C60.1282 240.981 57.936 202.654 59.3431 163.905C59.557 158.014 60.4036 152.056 59.9301 146.173Z"/>
	<path fill="#6294D8" transform="scale(0.195312 0.195312)" d="M200.801 122.962C204.272 124.12 207.585 126.214 210.847 127.88C233.132 139.263 254.959 148.245 277.33 158.622C274.709 161.684 270.662 165.404 269.284 169.229C245.859 160.414 223.6 148.15 200.801 137.865L200.487 137.423C193.861 138.458 166.276 151.986 158.604 155.282L117.76 172.753C112.316 175.138 106.339 177.155 101.209 180.15L101.204 207.668C101.218 258.027 112.704 304.145 149.575 341.069C163.994 355.51 182.251 371.006 200.801 379.737L201.276 379.897C204.104 379.487 211.09 374.696 213.765 372.999C233.97 360.179 249.173 345.77 264.789 328.096C268.793 323.565 272.083 318.396 276.246 314.023L276.246 325.648C278.901 325.73 281.531 325.718 284.185 325.648C280.27 331.524 273.478 337.244 270.411 342.174C256.161 342.386 250.572 346.522 250.731 361.222L250.517 361.361C246.981 363.6 243.965 366.914 240.648 369.502C229.312 378.346 214.183 389.648 200.801 394.77C121.546 351.775 88.0939 293.263 88.0752 204.786L88.0816 171.738C100.744 166.724 113.185 161.041 125.665 155.598L174.523 134.585C183.245 130.845 191.878 126.14 200.801 122.962Z"/>
	<path fill="#EFF4F9" transform="scale(0.195312 0.195312)" d="M101.209 180.15C106.339 177.155 112.316 175.138 117.76 172.753L158.604 155.282C166.276 151.986 193.861 138.458 200.487 137.423L200.801 137.865C223.6 148.15 245.859 160.414 269.284 169.229C271.988 174.303 277.488 177.656 279.852 182.886C282.67 189.12 271.591 195.624 269.284 201.171L269.448 201.499C271.278 205.115 281.418 214.691 280.367 218.129C279.008 222.577 271.478 227.812 269.284 232.597C271.777 237.965 277.736 240.99 280.104 246.246C282.952 252.568 271.586 259.575 269.284 265.28C284.592 285.503 284.485 276.373 269.284 296.307L269.49 296.588C273.672 302.246 278.538 306.078 276.246 314.023C272.083 318.396 268.793 323.565 264.789 328.096C249.173 345.77 233.97 360.179 213.765 372.999C211.09 374.696 204.104 379.487 201.276 379.897L200.801 379.737C182.251 371.006 163.994 355.51 149.575 341.069C112.704 304.145 101.218 258.027 101.204 207.668L101.209 180.15Z"/>
	<path fill="#C6E1F8" transform="scale(0.195312 0.195312)" d="M166.238 238.006C166.204 222.446 164.102 208.614 176.062 196.397C182.678 189.64 191.388 186.122 200.801 185.988C200.975 190.304 200.791 194.653 200.801 198.973L200.815 226.608C200.828 230.367 201.455 234.292 200.801 238.006L200.801 238.006C187.849 237.986 174.821 238.401 161.878 238.006C163.321 237.863 164.791 237.966 166.238 238.006Z"/>
	<path fill="#EFF4F9" transform="scale(0.195312 0.195312)" d="M179.272 238.006L179.26 226.105C179.261 211.883 184.512 199.025 200.801 198.973L200.815 226.608C200.828 230.367 201.455 234.292 200.801 238.006C193.647 237.786 186.432 237.991 179.272 238.006Z"/>
	<path fill="#3C62AA" transform="scale(0.195312 0.195312)" d="M161.878 238.006C174.821 238.401 187.849 237.986 200.801 238.006L200.769 250.771C200.745 253.116 200.435 255.733 200.801 258.036C193.966 259.779 187.984 264.83 190.115 272.524C190.898 275.352 193.043 276.806 194.468 279.188C194.502 285.027 193.403 291.987 200.801 293.376C200.37 294.581 200.804 311.328 200.801 314.023L215.855 313.998C218.157 313.99 220.676 313.733 222.951 314.023C217.582 314.452 206.225 314.412 200.801 314.023C183.432 314.044 161.774 317.641 156.849 295.127C155.851 290.564 156.165 285.672 156.167 281.025L156.18 248.733C156.171 243.239 154.556 237.618 161.878 238.006Z"/>
	<path fill="#C6E1F8" transform="scale(0.195312 0.195312)" d="M200.801 137.865C223.6 148.15 245.859 160.414 269.284 169.229C271.988 174.303 277.488 177.656 279.852 182.886C282.67 189.12 271.591 195.624 269.284 201.171L269.448 201.499C271.278 205.115 281.418 214.691 280.367 218.129C279.008 222.577 271.478 227.812 269.284 232.597C271.777 237.965 277.736 240.99 280.104 246.246C282.952 252.568 271.586 259.575 269.284 265.28C284.592 285.503 284.485 276.373 269.284 296.307L269.49 296.588C273.672 302.246 278.538 306.078 276.246 314.023C272.083 318.396 268.793 323.565 264.789 328.096C249.173 345.77 233.97 360.179 213.765 372.999C211.09 374.696 204.104 379.487 201.276 379.897L200.801 379.737L200.801 314.023C206.225 314.412 217.582 314.452 222.951 314.023C220.676 313.733 218.157 313.99 215.855 313.998L200.801 314.023C200.804 311.328 200.37 294.581 200.801 293.376C193.403 291.987 194.502 285.027 194.468 279.188C193.043 276.806 190.898 275.352 190.115 272.524C187.984 264.83 193.966 259.779 200.801 258.036C200.435 255.733 200.745 253.116 200.769 250.771L200.801 238.006L200.801 238.006C201.455 234.292 200.828 230.367 200.815 226.608L200.801 198.973C200.791 194.653 200.975 190.304 200.801 185.988L200.801 185.988C201.261 182.43 200.795 175.743 200.794 171.909L200.801 137.865Z"/>
	<path fill="#A8C2E3" transform="scale(0.195312 0.195312)" d="M200.801 185.988C210.77 186.168 219.55 189.398 226.575 196.643C241.586 212.123 234.474 236.513 236.268 238.006L200.801 238.006L200.801 238.006C201.455 234.292 200.828 230.367 200.815 226.608L200.801 198.973C200.791 194.653 200.975 190.304 200.801 185.988L200.801 185.988Z"/>
	<path fill="#C6E1F8" transform="scale(0.195312 0.195312)" d="M200.801 198.973C223.97 199.575 223.485 219.979 222.951 238.006L208.104 237.978C205.714 237.974 203.175 237.798 200.801 238.006C201.455 234.292 200.828 230.367 200.815 226.608L200.801 198.973Z"/>
	<path fill="#264988" transform="scale(0.195312 0.195312)" d="M200.801 238.006L236.268 238.006C249.274 238.488 248.025 239.329 248.004 251.059L247.975 264.832C247.941 284.138 252.301 314.306 222.951 314.023C220.676 313.733 218.157 313.99 215.855 313.998L200.801 314.023C200.804 311.328 200.37 294.581 200.801 293.376C193.403 291.987 194.502 285.027 194.468 279.188C193.043 276.806 190.898 275.352 190.115 272.524C187.984 264.83 193.966 259.779 200.801 258.036C200.435 255.733 200.745 253.116 200.769 250.771L200.801 238.006Z"/>
	<path fill="#EFF4F9" transform="scale(0.195312 0.195312)" d="M200.801 258.036C213.349 258.952 216.522 269.721 208.278 279.188C208.336 286.076 208.955 292.055 200.801 293.376C193.403 291.987 194.502 285.027 194.468 279.188C193.043 276.806 190.898 275.352 190.115 272.524C187.984 264.83 193.966 259.779 200.801 258.036Z"/>
	<path fill="#EFF4F9" transform="scale(0.195312 0.195312)" d="M413.386 73.7968L437.5 73.7777C445.058 73.7657 454.021 71.5716 454.627 82.051C454.901 86.7806 454.753 91.5794 454.753 96.3185L454.751 299.384C454.753 304.628 456.184 318.978 451.886 322.759C446.793 327.239 419.84 325.18 410.025 325.648C404.149 325.446 398.268 325.648 392.39 325.644L346.409 326.007C336.071 326.109 325.597 325.085 315.27 325.75L315.019 325.999C311.95 325.191 307.019 325.636 303.767 325.635L284.185 325.648C281.531 325.718 278.901 325.73 276.246 325.648L276.246 314.023C278.538 306.078 273.672 302.246 269.49 296.588L269.284 296.307C284.485 276.373 284.592 285.503 269.284 265.28C271.586 259.575 282.952 252.568 280.104 246.246C277.736 240.99 271.777 237.965 269.284 232.597C271.478 227.812 279.008 222.577 280.367 218.129C281.418 214.691 271.278 205.115 269.448 201.499L269.284 201.171C271.591 195.624 282.67 189.12 279.852 182.886C277.488 177.656 271.988 174.303 269.284 169.229C270.662 165.404 274.709 161.684 277.33 158.622C284.721 150.709 274.891 147.172 269.284 138.77C271.423 133.555 276.269 129.828 279.405 125.22C281.925 114.032 274.101 115.17 272.44 107.098C270.23 96.3518 273.02 84.7297 272.066 73.7968C276.116 74.3446 281.32 73.8018 285.503 73.7942L384.923 73.8009C394.403 73.782 403.911 74.0078 413.386 73.7968Z"/>
	<path fill="#58D4F9" transform="scale(0.195312 0.195312)" d="M298.001 161.96C303.602 161.838 321.884 161.287 325.966 162.89C332.216 165.343 330.477 172.32 325.05 174.259C321.897 174.442 318.657 174.288 315.493 174.278L296.379 174.259C292.079 170.005 291.611 164.058 298.001 161.96Z"/>
	<path fill="#58D4F9" transform="scale(0.195312 0.195312)" d="M298.001 193.561C305.781 194.08 318.249 192.355 325.268 194.13C332.137 195.866 330.854 203.22 325.697 206.029C322.02 206.259 299.199 206.393 296.876 205.561C290.967 203.445 292.309 195.546 298.001 193.561Z"/>
	<path fill="#E9C274" transform="scale(0.195312 0.195312)" d="M299.966 290.273L316.911 290.297C319.26 290.306 321.88 290.042 324.189 290.357C331.864 291.403 331.878 301.166 324.081 302.767L308.21 302.784C304.001 302.789 294.304 303.988 293.365 298.066C292.61 293.305 295.682 290.863 299.966 290.273Z"/>
	<path fill="#58D4F9" transform="scale(0.195312 0.195312)" d="M297.143 258.036C302.351 257.997 321.748 257.429 325.439 258.506C331.811 260.365 331.094 268.031 325.697 270.49C321.696 270.765 299.185 270.764 296.774 269.888C291.015 267.796 291.989 260.119 297.143 258.036Z"/>
	<path fill="#E9C274" transform="scale(0.195312 0.195312)" d="M298.001 225.524L314.824 225.496C322.03 225.491 328.252 223.666 330.165 232.597C329.329 235.183 327.79 237.206 325.05 238.006C319.388 238.342 304.145 238.637 298.498 237.954C291.381 237.093 291.121 226.54 298.001 225.524Z"/>
	<path fill="#E9C274" transform="scale(0.195312 0.195312)" d="M298.001 129.73C301.914 129.564 323.554 129.298 325.879 130.203C332.212 132.669 330.595 140.013 325.05 142.061C321.995 142.644 304.058 142.445 299.032 142.258C290.567 141.943 290.378 132.597 298.001 129.73Z"/>
	<path fill="#58D4F9" transform="scale(0.195312 0.195312)" d="M298.001 97.3837C302.596 97.3489 322.908 96.8627 325.892 97.7239C331.6 99.3715 331.101 106.745 325.05 109.868C318.691 110.36 304.415 110.36 298.253 109.809C290.624 109.127 290.395 98.2127 298.001 97.3837Z"/>
	<path fill="#6294D8" transform="scale(0.195312 0.195312)" d="M415.378 142.061L353.625 142.068C351.623 142.084 349.482 142.364 347.497 142.212C340.601 141.686 339.466 130.871 346.64 129.856C349.048 129.515 351.585 129.697 354.013 129.713L404.484 129.73C409.66 129.924 428.549 128.35 431.642 131.604C434.073 134.162 433.538 138.445 430.879 140.619C426.911 143.864 420.076 141.527 415.378 142.061Z"/>
	<path fill="#6294D8" transform="scale(0.195312 0.195312)" d="M417.819 238.006L355.984 238.019C352.744 238.021 346.655 238.902 344.011 236.561C341.539 234.374 341.154 229.705 343.553 227.327C346.214 224.689 351.628 225.527 355.019 225.525L413.386 225.524L413.756 225.558C418.442 225.961 428.627 224.382 431.931 228.077C433.927 230.308 433.547 234.819 431.088 236.581C427.92 238.851 421.532 238.031 417.819 238.006Z"/>
	<path fill="#6294D8" transform="scale(0.195312 0.195312)" d="M417.819 270.49L354.626 270.507C352.061 270.507 349.293 270.698 346.754 270.338C341.564 269.602 340.25 263.176 343.609 259.702C346.085 257.142 350.873 258.03 354.061 258.041L415.378 258.036L415.692 258.064C419.711 258.393 428.764 257.112 431.389 260.17C433.438 262.557 434.295 266.9 431.509 269.053C428.194 271.616 421.79 270.464 417.819 270.49Z"/>
	<path fill="#6294D8" transform="scale(0.195312 0.195312)" d="M417.819 290.273C421.358 290.268 428.522 289.461 431.178 292.033C433.423 294.207 434.034 298.716 431.645 301.022C428.827 303.743 421.5 302.607 417.819 302.767L367.726 302.755C362.878 302.741 346.56 303.93 343.763 301.235C341.212 298.777 341.59 294.254 344.078 291.897C346.721 289.394 351.577 290.278 354.873 290.28L417.819 290.273Z"/>
	<path fill="#6294D8" transform="scale(0.195312 0.195312)" d="M417.819 193.561C421.919 193.666 428.214 192.656 431.271 195.82C433.555 198.183 433.623 202.183 431.178 204.464C428.373 207.082 421.533 206.015 417.819 206.029L354.896 206.036C352.357 206.032 349.639 206.2 347.118 205.909C341.266 205.233 340.154 199.018 343.774 195.14C346.24 192.498 352.735 193.517 355.96 193.539L417.819 193.561Z"/>
	<path fill="#A8C2E3" transform="scale(0.195312 0.195312)" d="M413.386 73.7968L437.5 73.7777C445.058 73.7657 454.021 71.5716 454.627 82.051C454.901 86.7806 454.753 91.5794 454.753 96.3185L454.751 299.384C454.753 304.628 456.184 318.978 451.886 322.759C446.793 327.239 419.84 325.18 410.025 325.648C420.75 318.181 417.684 314.972 417.819 302.767C421.5 302.607 428.827 303.743 431.645 301.022C434.034 298.716 433.423 294.207 431.178 292.033C428.522 289.461 421.358 290.268 417.819 290.273L417.819 270.49C421.79 270.464 428.194 271.616 431.509 269.053C434.295 266.9 433.438 262.557 431.389 260.17C428.764 257.112 419.711 258.393 415.692 258.064L415.378 258.036C416.159 258.013 416.92 257.952 417.696 257.867C418.275 256.084 417.824 241.067 417.819 238.006C421.532 238.031 427.92 238.851 431.088 236.581C433.547 234.819 433.927 230.308 431.931 228.077C428.627 224.382 418.442 225.961 413.756 225.558L413.386 225.524C414.835 225.406 416.361 225.508 417.819 225.524C417.999 223.245 417.857 220.912 417.846 218.626L417.819 206.029C421.533 206.015 428.373 207.082 431.178 204.464C433.623 202.183 433.555 198.183 431.271 195.82C428.214 192.656 421.919 193.666 417.819 193.561L417.819 174.259L365.499 174.246C361.087 174.245 350.403 174.962 346.698 174.259C339.94 172.77 340.204 162.953 347.34 162.15C350.324 161.814 353.445 161.952 356.448 161.95L417.819 161.96C418.02 159.762 417.844 157.425 417.838 155.211L417.819 142.061C417.012 142.115 416.187 142.072 415.378 142.061C420.076 141.527 426.911 143.864 430.879 140.619C433.538 138.445 434.073 134.162 431.642 131.604C428.549 128.35 409.66 129.924 404.484 129.73C407.67 129.267 414.298 129.716 417.819 129.73L417.819 109.868C415.835 109.917 413.86 109.979 411.878 109.868L355.22 109.886C352.472 109.887 349.6 110.048 346.881 109.64C341.813 108.88 335.081 96.707 354.194 97.3837C356.496 97.1659 358.974 97.3533 361.292 97.3637L417.819 97.3837C417.816 88.5162 420.156 80.0912 413.386 73.7968Z"/>
	<path fill="#6294D8" transform="scale(0.195312 0.195312)" d="M346.698 174.259C339.94 172.77 340.204 162.953 347.34 162.15C350.324 161.814 353.445 161.952 356.448 161.95L417.819 161.96C421.991 162.008 428.456 161.132 431.614 164.283C433.798 166.462 433.684 170.2 431.468 172.321C428.392 175.265 422.858 174.266 419.008 174.258L346.698 174.259Z"/>
	<path fill="#6294D8" transform="scale(0.195312 0.195312)" d="M411.878 109.868L355.22 109.886C352.472 109.887 349.6 110.048 346.881 109.64C341.813 108.88 335.081 96.707 354.194 97.3837C360.09 97.63 366.077 97.3854 371.984 97.3831L418.754 97.4471C421.791 97.4571 424.947 97.2642 427.953 97.7511C432.719 98.5229 434.924 105.617 430.873 108.584C427.078 111.365 416.786 109.35 411.878 109.868Z"/>
</svg>
