<?xml version="1.0" encoding="utf-8" ?>
<svg xmlns="http://www.w3.org/2000/svg" xmlns:xlink="http://www.w3.org/1999/xlink" width="100" height="100">
	<path fill="#CCDCE6" transform="scale(0.195312 0.195312)" d="M269.462 102.747C274.528 102.917 279.654 102.751 284.727 102.749L314.578 102.741C332.938 102.742 347.299 101.949 364.638 109.727C389.348 120.811 406.522 144.263 410.599 171.047C411.673 178.103 415.27 198.572 404.667 199.865C394.053 200.215 396.14 191.906 396.136 184.213C396.118 152.432 373.589 124.086 341.537 119.116C334.935 118.093 328.039 118.787 321.371 118.791L281.939 118.795C278.387 118.793 269.25 119.34 266.432 117.728C260.297 114.22 260.286 104.739 269.462 102.747Z"/>
	<path fill="#CCDCE6" transform="scale(0.195312 0.195312)" d="M106.918 308.306C118.211 307.708 116.154 316.782 116.311 324.861C116.674 343.481 123.29 361.803 136.903 374.837C154.727 391.903 173.34 391.675 195.809 391.678L230.091 391.67C236.883 391.668 258.107 388.52 255.382 401.264C254.749 404.224 252.558 406.207 250.106 407.741C246.425 408.06 242.528 407.769 238.825 407.753L192.218 407.748C173.93 407.743 161.235 407.66 144.526 398.707C121.738 386.497 106.052 364.664 102.153 339.159C100.966 331.395 97.265 310.996 106.918 308.306Z"/>
	<path fill="#69D3D6" transform="scale(0.195312 0.195312)" d="M269.462 135.811C272.929 135.559 276.549 135.791 280.035 135.796L322.655 135.802C328.796 135.797 335.069 135.423 341.121 136.648C371.378 142.775 377.514 166.841 377.506 192.857L377.491 213.967C377.486 220.678 377.4 227.255 378.22 233.931C381.99 229.796 390.735 218.91 396.133 218.207C400.875 217.589 405.495 221.995 405.496 226.671C405.496 231.366 397.15 237.34 394.149 240.28C387.257 247.035 380.247 253.75 373.481 260.627L370.512 263.894C363.135 257.891 353.938 248.024 347.237 241.069C340.889 234.48 328.122 222.522 345.464 218.308C350.433 219.803 356.598 227.812 360.664 231.528L360.664 202.254C360.67 193.967 361.587 179.285 359.179 171.725C354.339 156.531 342.241 152.624 328.254 152.727L281.16 152.739C276.848 152.735 270.042 153.438 266.228 151.35C259.116 147.458 262.184 137.246 269.462 135.811Z"/>
	<path fill="#F37E64" transform="scale(0.195312 0.195312)" d="M142.022 244.147C144.446 245.236 146.785 248.931 148.712 250.841C152.158 254.255 176.544 277.008 176.922 279.927C177.772 286.494 171.869 292.163 165.535 288.215C161.716 285.835 155.544 278.519 151.878 275.022C151.666 285.573 151.877 296.171 151.876 306.727C151.874 326.1 148.359 351.171 173.993 356.273C181.246 357.716 193.663 357.042 201.48 357.039L237.381 357.013C242.067 357.008 249.336 355.891 253.024 359.25C259.892 365.505 254.484 373.865 244.313 373.889L202.134 373.884C181.212 373.891 162.446 376.414 146.606 359.251C135.448 347.163 135.001 334.529 135.005 319.047L135.01 300.295C135.013 291.419 134.668 282.452 135.009 273.593C129.601 277.425 121.621 289.311 115.501 289.802C108.668 290.351 104.696 282.452 108.635 277.172C111.051 273.934 115.914 270.103 118.926 267.163C126.686 259.59 134.399 251.858 142.022 244.147Z"/>
	<path fill="#466895" transform="scale(0.195312 0.195312)" d="M271.354 385.516L437.975 385.516L437.988 406.045C437.991 425.468 438.587 433.663 415.896 433.699L301.109 433.696C274.114 433.707 271.333 430.646 271.333 405.945L271.354 385.516Z"/>
	<path fill="#8498B1" transform="scale(0.195312 0.195312)" d="M288.873 408.219C294.589 408.083 300.341 408.216 306.061 408.219C306.158 409.885 306.348 420.8 306.058 421.563L305.227 421.683C302.62 421.806 289.679 422.238 288.097 421.523C287.41 421.213 284.478 409.128 288.873 408.219Z"/>
	<path fill="#8498B1" transform="scale(0.195312 0.195312)" d="M322.396 408.219C325.93 408.233 329.485 408.034 333.014 408.219C333.409 411.2 333.219 418.53 333.014 421.683L323.824 421.683L312.521 421.683L312.521 408.219C315.799 408.105 319.115 408.212 322.396 408.219Z"/>
	<path fill="#54A0D3" transform="scale(0.195312 0.195312)" d="M316.01 292.254C321.733 291.762 328.317 292.253 334.127 292.254L407.173 292.243C418.785 292.228 436.723 289.726 437.847 306.324C438.446 315.169 437.977 324.629 437.977 333.538L437.975 385.516L271.354 385.516C271.584 383.582 271.378 381.414 271.375 379.457L271.354 323.347C289.339 319.64 306.784 308.327 316.01 292.254Z"/>
	<path fill="#F8C051" transform="scale(0.195312 0.195312)" d="M308.12 316.216C316.519 315.688 327.621 316.038 336.119 316.216L336.137 327.638C336.151 331.709 337.63 334.607 333.769 334.484L305.227 334.484C305.216 328.534 304.918 322.398 305.319 316.47C306.179 316.16 307.212 316.238 308.12 316.216Z"/>
	<path fill="#69D3D6" transform="scale(0.195312 0.195312)" d="M305.227 350.457L336.119 350.457L336.119 369.39C332.538 368.978 328.935 369.352 325.34 369.373L305.227 369.39L305.227 350.457Z"/>
	<path fill="#CCDCE6" transform="scale(0.195312 0.195312)" d="M354.208 316.216L407.233 316.216L407.233 334.484L354.208 334.484L354.208 316.216Z"/>
	<path fill="#F8C051" transform="scale(0.195312 0.195312)" d="M354.208 350.457L407.233 350.457L407.233 369.39L354.208 369.39L354.208 350.457Z"/>
	<path fill="#54A0D3" transform="scale(0.195312 0.195312)" d="M254.189 233.931C259.21 237.165 265.82 244.136 270.681 246.275C273.774 249.58 277.875 252.915 281.728 255.286C278.282 259.724 273.351 262.141 269.462 266.009C264.181 269.539 259.335 274.01 254.189 277.791L254.189 266.584C254.196 259.825 253.991 253.029 254.189 246.275L254.189 233.931Z"/>
	<path fill="#F8C051" transform="scale(0.195312 0.195312)" d="M299.492 246.275C306.172 246.828 319.149 246.656 325.888 246.275C339.005 246.502 344.161 264.2 325.888 266.009C317.352 266.442 307.881 265.32 299.492 266.009C294.599 266.41 274.172 266.706 269.462 266.009C273.351 262.141 278.282 259.724 281.728 255.286C277.875 252.915 273.774 249.58 270.681 246.275C273.441 245.793 276.781 246.241 279.612 246.252L299.492 246.275Z"/>
	<path fill="#CCDCE6" transform="scale(0.195312 0.195312)" d="M187.208 246.275C196.166 246.269 205.283 245.893 214.224 246.275C217.147 246.464 220.109 246.306 223.039 246.287L236.827 246.276C242.571 246.284 248.491 246.893 254.189 246.275C253.991 253.029 254.196 259.825 254.189 266.584L253.882 265.937C253.041 265.587 216.669 265.953 214.224 266.009L187.208 266.009C172.61 265.52 174.498 246.395 187.208 246.275Z"/>
	<path fill="#F8C051" transform="scale(0.195312 0.195312)" d="M239.746 186.095C262.404 183.066 279.178 184.467 298.494 199.277C308.149 206.679 319.396 221.031 322.396 232.833C324.101 237.064 325.058 241.798 325.888 246.275C319.149 246.656 306.172 246.828 299.492 246.275C297.938 241.607 296.011 237.208 293.766 232.833C285.327 221.661 276.351 213.844 262.005 211.885C240.834 208.995 215.943 223.509 214.224 246.275C205.283 245.893 196.166 246.269 187.208 246.275C187.251 238.184 189.941 230.016 193.383 222.737C200.9 208.801 209.71 200.101 223.351 192.152C228.634 189.58 234.065 187.579 239.746 186.095Z"/>
	<path fill="#DC9946" transform="scale(0.195312 0.195312)" d="M293.766 232.833C303.194 232.618 312.975 232.412 322.396 232.833C324.101 237.064 325.058 241.798 325.888 246.275C319.149 246.656 306.172 246.828 299.492 246.275C297.938 241.607 296.011 237.208 293.766 232.833Z"/>
	<path fill="#F37E64" transform="scale(0.195312 0.195312)" d="M214.224 266.009C216.669 265.953 253.041 265.587 253.882 265.937L254.189 266.584L254.189 277.791C259.335 274.01 264.181 269.539 269.462 266.009C274.172 266.706 294.599 266.41 299.492 266.009C307.881 265.32 317.352 266.442 325.888 266.009C324.245 275.559 320.854 283.905 316.01 292.254C306.784 308.327 289.339 319.64 271.354 323.347C243.14 328.022 216.645 318.754 199.474 294.84C195.303 290.906 189.992 276.373 188.349 270.84C187.906 269.237 187.54 267.637 187.208 266.009L214.224 266.009ZM214.224 266.009C215.852 270.401 217.781 274.671 220.223 278.676C233.492 295.305 249.366 302.928 271.354 296.914C287.791 291.505 294.061 280.758 299.492 266.009C294.599 266.41 274.172 266.706 269.462 266.009C264.181 269.539 259.335 274.01 254.189 277.791L254.189 266.584L253.882 265.937C253.041 265.587 216.669 265.953 214.224 266.009Z"/>
	<path fill="#F8C051" transform="scale(0.195312 0.195312)" d="M187.208 266.009L214.224 266.009C215.852 270.401 217.781 274.671 220.223 278.676C233.492 295.305 249.366 302.928 271.354 296.914C270.349 300.821 261.477 303.118 258.062 304.09C246.708 307.323 234.087 306.862 222.816 303.364C216.686 301.461 204.878 294.858 199.474 294.84C195.303 290.906 189.992 276.373 188.349 270.84C187.906 269.237 187.54 267.637 187.208 266.009Z"/>
	<path fill="#DC9946" transform="scale(0.195312 0.195312)" d="M187.208 266.009L214.224 266.009C215.852 270.401 217.781 274.671 220.223 278.676C216.211 280.06 195.252 272.25 188.349 270.84C187.906 269.237 187.54 267.637 187.208 266.009Z"/>
	<path fill="#54A0D3" transform="scale(0.195312 0.195312)" d="M74.5397 172.324L74.531 97.1287C74.5053 73.9797 81.1095 73.6828 103.801 73.7231L224.276 73.6895C239.237 73.8264 239.784 85.7827 239.767 96.5128L239.746 172.324L239.746 186.095C234.065 187.579 228.634 189.58 223.351 192.152C209.71 200.101 200.9 208.801 193.383 222.737C187.33 223.008 181.14 222.745 175.075 222.743L107.488 222.748C98.5093 222.756 85.0495 224.941 78.507 217.272C73.3829 211.265 73.8882 193.217 74.5397 184.748C74.072 181.767 74.5092 175.578 74.5397 172.324Z"/>
	<path fill="#69D3D6" transform="scale(0.195312 0.195312)" d="M104.079 135.811L137.002 135.811L137.002 152.75L104.079 152.75L104.079 135.811Z"/>
	<path fill="#F37E64" transform="scale(0.195312 0.195312)" d="M104.079 100.499C114.753 100.184 125.526 100.496 136.21 100.499L136.21 119.24C131.835 118.549 127.179 118.774 122.756 118.773L104.079 118.786L104.079 100.499Z"/>
	<path fill="#F8C051" transform="scale(0.195312 0.195312)" d="M182.761 135.811L207.319 135.811C207.116 141.428 207.31 147.126 207.319 152.75L177.776 152.75L153.155 152.75L153.155 135.811L182.761 135.811Z"/>
	<path fill="#CCDCE6" transform="scale(0.195312 0.195312)" d="M153.155 100.499L189.245 100.498C195.25 100.501 201.327 100.793 207.319 100.499L207.319 118.786L153.155 118.786C153.156 112.691 153.06 106.593 153.155 100.499Z"/>
	<path fill="#3C5D8A" transform="scale(0.195312 0.195312)" d="M74.5397 172.324L225.384 172.326C229.284 172.321 236.247 171.807 239.746 172.324L239.746 186.095C234.065 187.579 228.634 189.58 223.351 192.152C220.661 190.777 191.831 191.669 186.899 191.679L107.878 191.701C99.4076 191.7 82.294 190.587 74.5397 191.689C74.6031 189.384 74.7495 187.047 74.5397 184.748C74.072 181.767 74.5092 175.578 74.5397 172.324Z"/>
	<path fill="#466895" transform="scale(0.195312 0.195312)" d="M74.5397 184.748C74.7495 187.047 74.6031 189.384 74.5397 191.689C82.294 190.587 99.4076 191.7 107.878 191.701L186.899 191.679C191.831 191.669 220.661 190.777 223.351 192.152C209.71 200.101 200.9 208.801 193.383 222.737C187.33 223.008 181.14 222.745 175.075 222.743L107.488 222.748C98.5093 222.756 85.0495 224.941 78.507 217.272C73.3829 211.265 73.8882 193.217 74.5397 184.748Z"/>
	<path fill="#8498B1" transform="scale(0.195312 0.195312)" d="M120.238 194.701C125.551 194.436 134.352 193.338 134.266 200.906C134.236 203.514 133.048 204.866 131.249 206.551C130.284 206.615 129.31 206.57 128.343 206.551C124.587 206.732 118.733 207.61 115.606 205.212C110.729 201.471 115.129 194.947 120.238 194.701Z"/>
	<path fill="#8498B1" transform="scale(0.195312 0.195312)" d="M91.4178 194.701C94.9776 194.671 101.728 194.07 104.89 195.123C111.592 197.355 109.446 204.319 104.079 206.551C100.697 206.817 91.9238 207.031 89.151 205.527C84.0673 202.77 86.7344 196.05 91.4178 194.701Z"/>
</svg>
