<?xml version="1.0" encoding="utf-8" ?>
<svg xmlns="http://www.w3.org/2000/svg" xmlns:xlink="http://www.w3.org/1999/xlink" width="100" height="100">
	<path fill="#CBDFF0" transform="scale(0.195312 0.195312)" d="M191.181 79.3715C205.314 77.9165 200.695 92.3057 191.181 98.1997C177.849 100.192 181.62 84.1942 191.181 79.3715Z"/>
	<path fill="#CBDFF0" transform="scale(0.195312 0.195312)" d="M103.979 102.311C109.431 101.844 114.272 108.481 116.697 112.655C116.848 117.154 115.562 119.1 111.539 121.403C110.357 121.548 109.16 121.45 107.973 121.403C101.36 116.916 91.4475 105.979 103.979 102.311Z"/>
	<path fill="#CBDFF0" transform="scale(0.195312 0.195312)" d="M144.417 79.3715C153.555 78.6859 162.882 95.1615 150.359 98.1997C149.387 98.2789 148.403 98.2223 147.429 98.1997C140.839 94.1691 132.113 82.488 144.417 79.3715Z"/>
	<path fill="#FBAD2E" transform="scale(0.195312 0.195312)" d="M362.439 276.523C369.013 279.18 371.822 288.973 382.952 291.591C388.25 292.837 412.613 292.62 417.309 290.908C420.384 289.788 425.664 284.638 426.276 284.504C426.284 287.568 426.925 295.865 425.449 298.141L424.738 298.027L424.904 298.274C421.097 298.729 417.135 298.536 413.303 298.538L375.036 298.541C370.835 298.54 366.563 298.716 362.376 298.336C358.366 297.971 359.811 280.336 360.207 278.663L362.439 276.523Z"/>
	<path fill="#ACC0F3" transform="scale(0.195312 0.195312)" d="M363.736 320.234L364.857 320.234L406.963 320.232C423.639 320.226 427.249 315.321 426.276 330.226C409.4 330.554 392.453 330.228 375.569 330.226L374.37 330.226C369.656 330.225 364.919 330.128 360.207 330.226C360.033 326.079 358.036 320.396 363.736 320.234Z"/>
	<path fill="#5C87E2" transform="scale(0.195312 0.195312)" d="M375.569 330.226C392.453 330.228 409.4 330.554 426.276 330.226C426.397 332.651 426.392 335.015 426.276 337.438C426.434 339.648 426.492 341.808 426.276 344.017L360.207 344.017L360.207 337.438C360.285 335.037 360.226 332.628 360.207 330.226C364.919 330.128 369.656 330.225 374.37 330.226L375.569 330.226Z"/>
	<path fill="#6E7BBC" transform="scale(0.195312 0.195312)" d="M374.37 330.226L375.569 330.226C378.161 332.636 380.64 334.534 382.743 337.438C380.137 337.286 376.902 336.781 374.37 337.438L360.207 337.438C360.285 335.037 360.226 332.628 360.207 330.226C364.919 330.128 369.656 330.225 374.37 330.226Z"/>
	<path fill="#ACC0F3" transform="scale(0.195312 0.195312)" d="M360.207 337.438L374.37 337.438C377.798 337.56 381.235 337.393 384.665 337.393L404.518 337.439C411.666 337.437 419.181 337.89 426.276 337.438C426.434 339.648 426.492 341.808 426.276 344.017L360.207 344.017L360.207 337.438Z"/>
	<path fill="#FDD577" transform="scale(0.195312 0.195312)" d="M370.928 250.844L404.7 250.833C429.449 250.827 426.372 246.031 426.276 269.673C426.383 274.612 426.292 279.564 426.276 284.504C425.664 284.638 420.384 289.788 417.309 290.908C412.613 292.62 388.25 292.837 382.952 291.591C371.822 288.973 369.013 279.18 362.439 276.523L360.207 278.663C359.875 274.314 359.482 254.071 361.447 252.051C362.921 250.536 368.812 250.993 370.928 250.844Z"/>
	<path fill="#07C19F" transform="scale(0.195312 0.195312)" d="M360.207 278.663C359.875 274.314 359.482 254.071 361.447 252.051C362.921 250.536 368.812 250.993 370.928 250.844C371.639 252.992 392.293 265.315 397.616 273.229C395.639 275.144 393.648 277.238 391.277 278.663C386.055 273.859 380.029 269.125 375.569 263.622C371.841 266.584 365.646 272.844 362.439 276.523L360.207 278.663Z"/>
	<path fill="#26D0BD" transform="scale(0.195312 0.195312)" d="M370.928 250.844L404.7 250.833C429.449 250.827 426.372 246.031 426.276 269.673C421.623 266.292 418.092 261.686 413.47 258.298C407.566 262.359 402.803 268.298 397.616 273.229C392.293 265.315 371.639 252.992 370.928 250.844Z"/>
	<path fill="#CBDFF0" transform="scale(0.195312 0.195312)" d="M107.32 146.557C109.14 150.643 107.655 178.976 107.662 187.874L107.967 347.319C107.961 367.243 107.63 390.756 134.712 393.673C145.97 394.885 170.452 394.5 181.421 393.368C184.027 400.955 185.749 411.116 193.647 414.967C204.735 420.373 214.765 411.319 215.417 400.044C215.759 397.728 216.065 395.409 216.371 393.089C218.778 393.265 252.349 393.965 253.282 393.368C253.638 400.361 253.64 407.674 259.279 412.698C266.314 418.966 277.792 416.784 282.127 408.381C285.07 404.059 286.49 398.296 288.075 393.368L338.79 393.363C341.037 393.361 350.009 392.842 351.529 393.368C305.37 439.078 231.636 455.656 169.877 436.97C119.901 421.849 78.657 383.733 60.3595 334.861C38.0163 275.183 47.614 198.785 96.5606 155.008C99.8497 152.066 103.417 148.637 107.32 146.557Z"/>
	<path fill="#E2EEF6" transform="scale(0.195312 0.195312)" d="M210.212 129.302L210.346 128.906C211.657 124.977 213.229 120.567 213.713 116.458C214.723 107.893 210.562 111.422 218.716 103.967C235.974 88.1857 255.455 75.8871 277.967 69.1843C328.548 54.1243 389.655 69.8347 426.269 108.161C468.503 152.373 474.001 217.379 448.744 271.343C448.471 264.692 448.832 257.92 448.76 251.244C448.568 233.259 443.222 236.747 427.863 236.742L402.339 236.742C391.227 236.746 347.935 234.857 343.401 240.026C339.476 244.501 340.883 279.047 340.916 285.807C340.93 288.599 341.374 292.007 340.894 294.71C346.917 301.764 359.039 313.602 363.736 320.234C358.036 320.396 360.033 326.079 360.207 330.226C360.226 332.628 360.285 335.037 360.207 337.438L360.207 344.017L426.276 344.017C426.452 346.64 427.529 350.364 424.604 351.703L423.296 352.037L423.136 352.617C425.327 355.117 444.253 354.012 447.897 354.007C448.499 365.912 449.031 371.993 435.465 372.327C416.344 372.797 397.214 371.987 378.101 372.444C375.4 372.508 372.193 372.947 369.542 372.384C367.346 377.703 356.19 389.437 351.529 393.368C350.009 392.842 341.037 393.361 338.79 393.363L288.075 393.368C286.49 398.296 285.07 404.059 282.127 408.381C277.792 416.784 266.314 418.966 259.279 412.698C253.64 407.674 253.638 400.361 253.282 393.368C252.349 393.965 218.778 393.265 216.371 393.089C216.065 395.409 215.759 397.728 215.417 400.044C214.765 411.319 204.735 420.373 193.647 414.967C185.749 411.116 184.027 400.955 181.421 393.368C170.452 394.5 145.97 394.885 134.712 393.673C107.63 390.756 107.961 367.243 107.967 347.319L107.662 187.874C107.655 178.976 109.14 150.643 107.32 146.557C108.358 145.903 110.341 145.535 111.539 145.164C111.383 129.077 114.129 122.033 131.813 121.403C136.635 121.211 141.502 121.399 146.33 121.401L189.895 121.393C198.721 121.384 204.634 120.915 210.212 129.302ZM379.27 104.477C375.972 108.573 371.199 114.081 367.158 117.372C347.173 103.578 322.995 99.3606 302.784 116.408C300.225 118.566 297.966 121.029 295.525 123.312C287.686 133.022 282.63 146.149 284.116 158.793L284.167 159.194C286.096 159.723 286.356 161.769 287.224 163.371C301.693 190.09 335.733 207.692 364.468 192.205C366.361 191.185 368.032 189.076 370.306 189.086L370.928 189.386C372.429 187.109 374.248 185.053 375.79 182.803C386.824 166.697 385.498 145.589 375.569 129.302C378.355 124.811 384.383 118.994 388.328 115.299C390.812 112.641 396.198 108.744 395.959 104.782C395.744 101.215 391.313 96.7669 387.612 97.107C384.471 97.3957 381.204 102.254 379.27 104.477Z"/>
	<path fill="#5C87E2" transform="scale(0.195312 0.195312)" d="M360.207 344.017L426.276 344.017C426.452 346.64 427.529 350.364 424.604 351.703L385.45 351.715C382.225 351.717 362.314 352.731 360.842 350.926C359.732 349.565 360.181 345.762 360.207 344.017Z"/>
	<defs>
		<linearGradient id="gradient_0" gradientUnits="userSpaceOnUse" x1="295.14169" y1="124.54432" x2="371.02966" y2="88.884384">
			<stop offset="0" stop-color="#5F55BE"/>
			<stop offset="1" stop-color="#7272E3"/>
		</linearGradient>
	</defs>
	<path fill="url(#gradient_0)" transform="scale(0.195312 0.195312)" d="M286.701 107.304C286.718 107.283 286.732 107.259 286.751 107.24C311.202 80.9033 352.966 81.0192 379.27 104.477C375.972 108.573 371.199 114.081 367.158 117.372C347.173 103.578 322.995 99.3606 302.784 116.408C300.225 118.566 297.966 121.029 295.525 123.312C293.487 118.355 289.557 111.786 286.701 107.304Z"/>
	<defs>
		<linearGradient id="gradient_1" gradientUnits="userSpaceOnUse" x1="272.66147" y1="180.50125" x2="398.38785" y2="134.68646">
			<stop offset="0" stop-color="#373386"/>
			<stop offset="1" stop-color="#6A68DB"/>
		</linearGradient>
	</defs>
	<path fill="url(#gradient_1)" transform="scale(0.195312 0.195312)" d="M286.701 107.304C289.557 111.786 293.487 118.355 295.525 123.312C287.686 133.022 282.63 146.149 284.116 158.793L284.167 159.194C286.096 159.723 286.356 161.769 287.224 163.371C301.693 190.09 335.733 207.692 364.468 192.205C366.361 191.185 368.032 189.076 370.306 189.086L370.928 189.386C372.429 187.109 374.248 185.053 375.79 182.803C386.824 166.697 385.498 145.589 375.569 129.302C378.355 124.811 384.383 118.994 388.328 115.299C397.748 125.899 402.437 144.507 401.654 158.322C400.113 185.518 382.294 207.523 357.791 217.75C350.661 220.006 343.662 221.57 336.152 221.85C275.233 224.116 246.52 150.196 286.701 107.304Z"/>
	<path fill="#E2EEF6" transform="scale(0.195312 0.195312)" d="M284.167 159.194C286.096 159.723 286.356 161.769 287.224 163.371C301.693 190.09 335.733 207.692 364.468 192.205C366.361 191.185 368.032 189.076 370.306 189.086L370.928 189.386C367.851 192.378 364.21 194.81 361.22 197.797C351.133 202.638 347.275 205.729 335.372 206.036C309.381 206.705 284.909 185.729 284.167 159.194Z"/>
	<path fill="#FDD577" transform="scale(0.195312 0.195312)" d="M131.813 121.403C136.635 121.211 141.502 121.399 146.33 121.401L189.895 121.393C198.721 121.384 204.634 120.915 210.212 129.302C212.136 137.415 212.809 180.919 210.212 189.386C203.283 200.877 191.411 197.8 179.96 197.804L132.941 197.801C111.374 197.793 111.524 189.3 111.524 170.789L111.539 145.164C111.383 129.077 114.129 122.033 131.813 121.403Z"/>
	<path fill="#E2EEF6" transform="scale(0.195312 0.195312)" d="M158.882 133.992C173.445 133.774 171.611 135.6 171.514 149.474C175.14 149.265 182.012 148.273 184.724 150.979C187.386 153.635 187.025 163.686 184.375 166.162C181.647 168.711 175.032 167.803 171.514 167.77C171.706 172.404 173.554 181.631 166.648 181.828C152.593 183.33 153.675 180.155 153.571 167.77C150.419 167.423 143.002 168.453 140.799 166.217C137.975 163.351 137.773 153.431 140.682 150.692C142.89 148.613 150.465 149.448 153.571 149.474C153.519 144.158 151.635 135.058 158.882 133.992Z"/>
	<path fill="#FBAD2E" transform="scale(0.195312 0.195312)" d="M111.539 145.164C111.383 129.077 114.129 122.033 131.813 121.403C123.362 129.322 126.791 150.849 126.758 162.361L126.709 173.689C126.56 193.818 136.881 189.355 154.034 189.365C172.753 189.376 191.497 189.158 210.212 189.386C203.283 200.877 191.411 197.8 179.96 197.804L132.941 197.801C111.374 197.793 111.524 189.3 111.524 170.789L111.539 145.164Z"/>
	<path fill="#54CAE5" transform="scale(0.195312 0.195312)" d="M379.27 104.477C381.204 102.254 384.471 97.3957 387.612 97.107C391.313 96.7669 395.744 101.215 395.959 104.782C396.198 108.744 390.812 112.641 388.328 115.299C384.383 118.994 378.355 124.811 375.569 129.302C372.244 131.339 362.04 141.8 360.207 145.164C361.029 148.798 360.193 153.36 360.185 157.106C360.136 180.496 355.65 186.109 331.529 186.051C315.188 186.012 307.276 179.899 306.887 163.041C306.543 148.16 302.321 123.825 323.709 123.46C331.697 123.324 340.639 132.523 346.462 138.279L346.634 138.452C353.241 131.236 360.413 124.479 367.158 117.372C371.199 114.081 375.972 108.573 379.27 104.477Z"/>
	<path fill="#E2EEF6" transform="scale(0.195312 0.195312)" d="M340.894 163.807C346.529 160.491 351.695 153.37 356.23 148.584C356.269 173.948 357.659 182.133 328.918 181.838C308.349 181.627 311.445 163.533 311.477 149.474C316.107 153.565 320.333 158.904 324.101 163.807C326.001 161.466 331.187 156.811 332.129 154.481C334.895 157.707 337.224 161.494 340.894 163.807Z"/>
	<path fill="#E0627D" transform="scale(0.195312 0.195312)" d="M379.27 104.477C381.204 102.254 384.471 97.3957 387.612 97.107C391.313 96.7669 395.744 101.215 395.959 104.782C396.198 108.744 390.812 112.641 388.328 115.299C384.383 118.994 378.355 124.811 375.569 129.302C372.244 131.339 362.04 141.8 360.207 145.164C358.674 146.177 357.398 147.14 356.23 148.584C351.695 153.37 346.529 160.491 340.894 163.807C337.224 161.494 334.895 157.707 332.129 154.481C332.579 152.233 344.239 141.177 346.634 138.452C353.241 131.236 360.413 124.479 367.158 117.372C371.199 114.081 375.972 108.573 379.27 104.477Z"/>
	<path fill="#54CAE5" transform="scale(0.195312 0.195312)" d="M181.421 393.368C176.508 381.218 172.818 367.767 170.572 354.855C169.02 345.934 169.145 336.885 165.658 328.359C161.59 318.411 153.383 311.041 148.246 301.674C120.086 250.32 173.375 198.601 217.361 223.879C222.051 226.574 226.24 230.857 231.503 232.403C242.639 235.674 247.846 227.257 256.532 222.646C279.121 210.655 308.917 223.103 320.132 244.93C330.533 265.175 328.288 288.647 317.627 308.263C313.434 315.977 308.292 322.277 305.442 330.787C298.768 350.713 294.653 372.764 288.075 393.368C286.49 398.296 285.07 404.059 282.127 408.381C277.792 416.784 266.314 418.966 259.279 412.698C253.64 407.674 253.638 400.361 253.282 393.368C252.349 393.965 218.778 393.265 216.371 393.089C216.065 395.409 215.759 397.728 215.417 400.044C214.765 411.319 204.735 420.373 193.647 414.967C185.749 411.116 184.027 400.955 181.421 393.368Z"/>
	<path fill="#E2EEF6" transform="scale(0.195312 0.195312)" d="M304.917 285.783C307.992 285.591 309.297 286.049 310.952 288.818C309.626 300.677 300.132 312.187 290.14 318.053C287.588 318.646 284.676 316.631 284.864 313.834C285.029 311.383 290.519 307.885 292.269 306.201C299.643 299.105 301.565 288.772 304.917 285.783Z"/>
	<path fill="#E2EEF6" transform="scale(0.195312 0.195312)" d="M273.022 232.035C298.51 229.808 320.631 268.03 308.636 274.116C302.156 275.002 303.637 267.246 302.152 262.197C299.075 251.73 290.025 243.477 279.539 240.761C276.681 240.021 268.064 240.255 269.846 235.152C270.431 233.474 271.491 232.791 273.022 232.035Z"/>
	<path fill="#5C87E2" transform="scale(0.195312 0.195312)" d="M215.417 400.044C213.148 397.014 213.734 353.428 214.719 346.64C217.513 327.373 243.667 320.608 255.098 337.008C266.905 353.947 248.464 383.292 282.127 408.381C277.792 416.784 266.314 418.966 259.279 412.698C253.64 407.674 253.638 400.361 253.282 393.368C251.191 379.316 252.722 360.038 250.033 347.862C247.334 335.644 227.2 332.989 222.338 347.907C220.613 353.198 220.836 361.418 220.164 367.163C219.15 375.827 217.718 384.471 216.371 393.089C216.065 395.409 215.759 397.728 215.417 400.044Z"/>
	<path fill="#E2EEF6" transform="scale(0.195312 0.195312)" d="M216.371 393.089C217.718 384.471 219.15 375.827 220.164 367.163C220.836 361.418 220.613 353.198 222.338 347.907C227.2 332.989 247.334 335.644 250.033 347.862C252.722 360.038 251.191 379.316 253.282 393.368C252.349 393.965 218.778 393.265 216.371 393.089Z"/>
</svg>
