<?xml version="1.0" encoding="utf-8" ?>
<svg xmlns="http://www.w3.org/2000/svg" xmlns:xlink="http://www.w3.org/1999/xlink" width="100" height="100">
	<defs>
		<linearGradient id="gradient_0" gradientUnits="userSpaceOnUse" x1="410.95117" y1="316.95331" x2="106.13278" y2="324.64752">
			<stop offset="0" stop-color="#408BF4"/>
			<stop offset="1" stop-color="#42DCEF"/>
		</linearGradient>
	</defs>
	<path fill="url(#gradient_0)" transform="scale(0.195312 0.195312)" d="M355.113 229.347L409.795 229.347C407.816 235.687 405.05 241.831 402.544 247.977L391.516 275.532C385.801 290.133 386.345 284.263 387.938 299.647C390.779 327.087 387.654 358.149 378.214 383.997C374.64 393.785 370.273 403.737 360.814 409.15C344.481 418.497 325.066 414.468 313.791 399.478C305.789 388.841 292.901 350.414 287.777 336.008C286.041 331.128 284.948 325.551 282.361 321.067C271.807 302.773 243.471 301.034 231.421 318.861C227.98 323.952 226.863 330.22 224.792 335.923C217.262 356.654 204.9 399.9 186.385 410.758C177.36 415.853 165.586 416.163 156.246 411.782C122.036 395.739 121.303 332.859 124.499 299.09C125.774 285.609 127.086 289.272 121.802 276.99L115.47 262.014C111.015 251.269 106.971 240.271 102.978 229.347L156.009 229.347C155.981 233.78 155.021 241.922 158.001 245.314C164.83 253.089 173.9 247.171 173.687 235.231L195.232 235.231L195.215 248.838C195.22 265.814 199.189 276.414 218.244 276.485L291.616 276.493C312.891 276.485 317.609 269.808 317.573 249.096L317.552 235.231L339.083 235.231C338.953 238.935 338.222 244.219 340.85 247.202C343.884 250.647 349.68 250.942 352.899 247.63C356.226 244.208 355.141 234.157 355.113 229.347Z"/>
	<defs>
		<linearGradient id="gradient_1" gradientUnits="userSpaceOnUse" x1="419.83627" y1="169.92618" x2="111.82103" y2="147.1416">
			<stop offset="0" stop-color="#4185F3"/>
			<stop offset="1" stop-color="#40DCEF"/>
		</linearGradient>
	</defs>
	<path fill="url(#gradient_1)" transform="scale(0.195312 0.195312)" d="M116.558 126.342C144.614 97.9209 186.256 89.3918 221.938 108.019C232.174 113.363 240.217 119.961 252.325 120.704C268.896 121.722 275.463 115.974 288.356 108.786C316.356 93.1766 351.812 94.7029 378.761 112.081C413.077 134.208 425.078 174.479 415.273 212.716L355.113 212.716C355.144 207.994 356.259 197.685 352.86 194.228C349.709 191.022 344.186 191.211 341.144 194.466C337.75 198.098 338.852 204.892 339.083 209.436L317.552 209.436L317.563 197.085C317.553 174.894 310.636 166.38 288.01 166.364L223.26 166.381C214.397 166.465 207.68 167.177 201.176 173.87C192.095 183.216 195.307 197.581 195.232 209.436L173.687 209.436C173.706 204.767 174.73 197.435 171.231 193.906C166.892 189.531 157.709 190.971 156.26 197.431C155.396 201.286 156.025 208.491 156.009 212.716L125.33 212.719C120.376 212.72 115.337 212.938 110.399 212.716L96.6594 212.716C88.996 181.19 93.911 151.221 116.558 126.342Z"/>
	<path fill="#42E7EB" transform="scale(0.195312 0.195312)" d="M116.558 126.342L116.724 128.212L116.931 128.04C120.587 125.04 115.623 139.438 115.411 139.888C116.457 139.368 117.403 137.038 118.233 136.047C117.879 140.393 115.478 144.912 113.967 148.985C109.079 162.154 111.664 174.641 111.872 188.27C111.952 193.53 110.886 198.365 110.655 203.57C110.554 205.856 112.23 207.693 109.77 209.142L109.683 209.431C109.232 210.872 108.853 211.536 107.417 211.938L107.407 212.241C108.388 212.366 109.455 212.421 110.399 212.716L96.6594 212.716C88.996 181.19 93.911 151.221 116.558 126.342Z"/>
	<path fill="#44AFF4" transform="scale(0.195312 0.195312)" d="M242.504 195.762C247.513 195.529 252.55 195.761 257.564 195.749C275.331 195.708 279.729 194.961 279.634 214.307C299.438 214.091 319.276 214.306 339.083 214.307L339.083 230.108L279.634 230.108C279.021 237.511 278.543 243.709 270.246 245.959C265.786 246.215 261.293 245.974 256.829 245.954C242.256 245.889 233.308 247.741 233.182 230.108L173.687 230.108L173.687 214.307L233.182 214.307C233.23 205.694 232.354 198.128 242.504 195.762Z"/>
	<path fill="#FEFEFE" transform="scale(0.195312 0.195312)" d="M247.775 210.771L264.238 210.771L264.238 231.196L247.775 231.196L247.775 210.771Z"/>
</svg>
