<?xml version="1.0" encoding="utf-8" ?>
<svg xmlns="http://www.w3.org/2000/svg" xmlns:xlink="http://www.w3.org/1999/xlink" width="100" height="100">
	<path fill="#335987" transform="scale(0.195312 0.195312)" d="M294.336 388.183L409.608 388.205C422.446 388.227 417.911 389.525 428.698 384.193C428.997 401.071 419.064 398.996 405.629 398.996L294.336 398.987L294.336 388.183Z"/>
	<path fill="#FCC558" transform="scale(0.195312 0.195312)" d="M112.265 183.209L112.26 151.793C112.252 124.365 111.384 122.3 141.859 122.301L179.991 122.29C179.321 130.702 180.109 139.881 179.991 148.389C179.519 146.27 179.806 143.998 179.991 141.857L149.696 141.879C131.769 141.909 130.288 138.345 130.313 158.37L130.335 183.209C124.403 183.224 118.16 182.735 112.265 183.209Z"/>
	<path fill="#FBAE38" transform="scale(0.195312 0.195312)" d="M130.335 183.209L130.313 158.37C130.288 138.345 131.769 141.909 149.696 141.879L179.991 141.857C179.806 143.998 179.519 146.27 179.991 148.389L179.991 183.209C174.577 183.479 169.011 183.212 163.583 183.212L130.335 183.209Z"/>
	<path fill="#50A2A8" transform="scale(0.195312 0.195312)" d="M99.522 422.252C104.659 421.835 110.172 422.236 115.338 422.241L250.216 422.253C256.416 422.256 282.542 422.952 286.206 421.524C290.333 419.916 292.277 416.305 294.013 412.539L294.336 412.68C294.674 424.806 291.065 433.132 277.841 433.283C240.461 433.712 203.016 433.294 165.631 433.296L129.637 433.309C117.422 433.316 104.94 436.437 99.522 422.252Z"/>
	<path fill="#617B9C" transform="scale(0.195312 0.195312)" d="M400.45 206.14C427.964 206.282 428.736 205.128 428.7 236.046L428.698 384.193C417.911 389.525 422.446 388.227 409.608 388.205L294.336 388.183L294.336 360.867L294.336 360.867C296.378 360.517 298.901 360.841 300.994 360.847L371.948 360.879C393.437 360.878 400.048 365.262 400.003 340.257L399.982 240.317C399.579 237.41 399.998 233.994 399.975 231.022L399.976 214.776C399.967 212.066 399.67 209.258 399.926 206.561L400.45 206.14Z"/>
	<path fill="#335987" transform="scale(0.195312 0.195312)" d="M399.982 224.029C405.684 225.496 408.752 228.127 408.976 234.096C409.314 243.078 408.98 252.179 408.974 261.174L408.973 344.867C408.98 368.757 411.237 374.154 382.96 374.134L294.336 374.119C294.434 369.702 294.327 365.285 294.336 360.867C296.378 360.517 298.901 360.841 300.994 360.847L371.948 360.879C393.437 360.878 400.048 365.262 400.003 340.257L399.982 240.317C400.134 234.894 399.966 229.454 399.982 224.029Z"/>
	<path fill="#4CB8F0" transform="scale(0.195312 0.195312)" d="M399.982 136.421C399.989 143.517 399.659 205.022 400.052 206.002L400.45 206.14L399.926 206.561C399.67 209.258 399.967 212.066 399.976 214.776L399.975 231.022C399.998 233.994 399.579 237.41 399.982 240.317L400.003 340.257C400.048 365.262 393.437 360.878 371.948 360.879L300.994 360.847C298.901 360.841 296.378 360.517 294.336 360.867L294.336 360.867L294.336 254.789L388.489 254.789L388.489 136.789C391.683 137.49 397.114 138.214 399.982 136.421Z"/>
	<path fill="#FEFEFE" transform="scale(0.195312 0.195312)" d="M336.009 73.8827C338.498 74.0531 350.476 87.376 352.733 89.6127L387.164 124.044C390.437 127.316 396.369 133.95 399.982 136.421C397.114 138.214 391.683 137.49 388.489 136.789L388.489 254.789L294.336 254.789L294.336 249.97C293.62 244.905 294.356 243.148 291.073 238.512C289.331 236.27 286.553 234.389 284.495 231.652C282.58 229.731 276.935 224.712 276.198 222.405C274.21 221.908 260.629 207.069 258.7 204.758C264.064 204.752 272.43 205.441 277.484 204.758C271.235 204.607 264.952 204.745 258.7 204.758C255.621 202.259 251.845 198.818 249.643 195.521C245.173 192.212 241.752 185.43 236.203 183.942C230.895 182.519 222.912 183.2 217.282 183.201L191.437 183.209L179.991 183.209L179.991 148.389C180.109 139.881 179.321 130.702 179.991 122.29C180.226 119.397 180.009 116.323 180.002 113.41L179.978 95.1273C179.991 72.9279 185.499 73.8592 206.846 73.8704L336.009 73.8827Z"/>
	<path fill="#617B9C" transform="scale(0.195312 0.195312)" d="M215.332 142.424C220.943 142.424 242.794 140.364 243.668 146.096C244.196 149.557 241.958 151.105 238.886 151.45L223.222 151.485C220.481 151.492 217.539 151.709 214.818 151.371C208.749 150.618 209.552 142.849 215.332 142.424Z"/>
	<path fill="#617B9C" transform="scale(0.195312 0.195312)" d="M259.469 142.424C266.55 142.498 273.642 142.404 280.725 142.397C284.598 142.393 297.348 140.696 294.285 148.545C293.656 150.158 292.588 150.776 291.073 151.45C287.6 151.72 260.471 151.622 258.802 151.111C253.672 149.542 255.619 144.07 259.469 142.424Z"/>
	<path fill="#617B9C" transform="scale(0.195312 0.195312)" d="M276.198 222.405C283.366 222.706 290.653 222.403 297.833 222.402L355.054 222.377C357.882 222.363 360.836 222.185 363.642 222.51C367.657 222.975 369.535 227.653 366.207 230.464C363.825 232.477 355.83 231.659 352.833 231.659L284.495 231.652C282.58 229.731 276.935 224.712 276.198 222.405Z"/>
	<path fill="#617B9C" transform="scale(0.195312 0.195312)" d="M249.643 195.521L351.418 195.511C354.431 195.507 363.926 194.375 366.142 196.497C369.573 199.782 367.236 204.297 362.991 204.691C359.787 204.989 356.404 204.782 353.183 204.779L277.484 204.758C271.235 204.607 264.952 204.745 258.7 204.758C255.621 202.259 251.845 198.818 249.643 195.521Z"/>
	<path fill="#617B9C" transform="scale(0.195312 0.195312)" d="M341.53 169.002C346.986 169.002 359.169 168.247 363.999 169.043C367.309 169.588 369.359 173.731 366.741 176.341C363.41 179.662 352.852 178.154 348.533 178.127L237.375 178.118L222.85 178.147C219.968 178.15 214.451 178.963 212.062 176.918C209.924 175.089 209.749 172.149 211.837 170.178C214.362 167.793 226.204 168.995 229.616 169L341.53 169.002Z"/>
	<path fill="#49BBA2" transform="scale(0.195312 0.195312)" d="M336.009 73.8827C338.498 74.0531 350.476 87.376 352.733 89.6127L387.164 124.044C390.437 127.316 396.369 133.95 399.982 136.421C397.114 138.214 391.683 137.49 388.489 136.789C381.41 137.046 374.284 136.786 367.2 136.797C339.289 136.839 336.055 136.409 336.011 109.494L336.009 90.6101C336.312 85.0582 335.609 79.4314 336.009 73.8827Z"/>
	<path fill="#4CB8F0" transform="scale(0.195312 0.195312)" d="M179.991 122.29C180.226 119.397 180.009 116.323 180.002 113.41L179.978 95.1273C179.991 72.9279 185.499 73.8592 206.846 73.8704L336.009 73.8827C335.609 79.4314 336.312 85.0582 336.009 90.6101C335.904 88.6032 335.926 86.6376 336.009 84.6301L191.437 84.6301L191.437 183.209L179.991 183.209L179.991 148.389C180.109 139.881 179.321 130.702 179.991 122.29Z"/>
	<path fill="#AEDDE6" transform="scale(0.195312 0.195312)" d="M112.265 183.209C118.16 182.735 124.403 183.224 130.335 183.209L163.583 183.212C169.011 183.212 174.577 183.479 179.991 183.209L191.437 183.209L217.282 183.201C222.912 183.2 230.895 182.519 236.203 183.942C241.752 185.43 245.173 192.212 249.643 195.521C251.845 198.818 255.621 202.259 258.7 204.758C264.952 204.745 271.235 204.607 277.484 204.758C272.43 205.441 264.064 204.752 258.7 204.758C260.629 207.069 274.21 221.908 276.198 222.405C276.935 224.712 282.58 229.731 284.495 231.652C286.553 234.389 289.331 236.27 291.073 238.512C294.356 243.148 293.62 244.905 294.336 249.97L294.336 254.789L294.336 360.867L294.336 388.183L294.336 398.987C294.345 403.545 294.45 408.124 294.336 412.68L294.013 412.539C292.277 416.305 290.333 419.916 286.206 421.524C282.542 422.952 256.416 422.256 250.216 422.253L115.338 422.241C110.172 422.236 104.659 421.835 99.522 422.252C88.966 421.343 85.0218 421.303 84.4763 408.982C83.8033 393.777 84.2751 378.378 84.2732 363.154L84.2786 208.148C84.2845 181.815 88.6422 184.022 112.265 183.209Z"/>
	<path fill="#49BBA2" transform="scale(0.195312 0.195312)" d="M277.484 238.512C282.013 238.503 286.544 238.464 291.073 238.512C294.356 243.148 293.62 244.905 294.336 249.97C294.218 251.596 294.247 253.161 294.336 254.789C288.701 254.776 283.054 254.708 277.484 253.752L277.484 253.752C277.27 248.943 277.119 243.299 277.484 238.512Z"/>
	<path fill="#50A2A8" transform="scale(0.195312 0.195312)" d="M238.886 234.337L239.262 234.483C255.733 241.002 259.663 238.114 277.484 238.512C277.119 243.299 277.27 248.943 277.484 253.752C264.034 250.724 245.754 247.988 238.886 234.337Z"/>
	<path fill="#FEFEFE" transform="scale(0.195312 0.195312)" d="M277.484 253.752C277.763 263.582 277.491 273.509 277.488 283.348L277.491 377.817C277.49 383.756 279.107 398.556 275.132 403.113C271.982 406.724 265.694 405.532 261.479 405.49L119.255 405.498C110.813 405.501 100.796 407.468 100.407 395.751C99.9781 382.822 100.357 369.767 100.358 356.822L100.353 218.26C100.286 198.025 105.927 201.741 123.601 201.736L235.731 201.739C235.714 209.751 234.411 228.288 238.886 234.337C245.754 247.988 264.034 250.724 277.484 253.752L277.484 253.752Z"/>
	<path fill="#FBAE38" transform="scale(0.195312 0.195312)" d="M114.741 385.904C119.3 385.644 123.963 385.9 128.537 385.901L153.214 385.904C153.294 390.023 153.716 393.039 148.862 393.378C143.694 393.74 117.45 394.27 115.474 392.026C114.327 390.722 114.719 387.581 114.741 385.904Z"/>
	<path fill="#923744" transform="scale(0.195312 0.195312)" d="M166.757 385.904L205.497 385.904C205.624 390.909 205.68 393.134 200.081 393.42C196.117 393.622 169.509 394.162 167.794 392.457C166.315 390.988 166.727 387.829 166.757 385.904Z"/>
	<path fill="#617B9C" transform="scale(0.195312 0.195312)" d="M120.139 253.752C124.692 253.658 148.834 253.249 151.541 254.166C156.212 255.748 155.665 260.475 151.455 261.982C148.111 262.227 121.569 262.254 119.845 261.698C114.94 260.116 115.944 255.242 120.139 253.752Z"/>
	<path fill="#617B9C" transform="scale(0.195312 0.195312)" d="M169.853 253.752C174.862 253.644 203.58 252.117 204.831 256.281C205.628 258.931 203.586 261.331 201.148 261.982C196.343 261.987 170.816 262.658 168.162 261.385C163.71 259.251 166.095 254.692 169.853 253.752Z"/>
	<path fill="#617B9C" transform="scale(0.195312 0.195312)" d="M120.139 332.366C126.166 332.132 132.294 332.359 138.331 332.359L192.817 332.362C196.8 332.362 207.257 330.827 205.562 338.035C205.165 339.725 204.167 340.619 202.752 341.517C199.801 341.8 196.668 341.548 193.697 341.539L175.177 341.511C167.999 341.511 122.926 342.559 119.631 341.052C115.819 339.31 116.173 333.583 120.139 332.366Z"/>
	<path fill="#FCC558" transform="scale(0.195312 0.195312)" d="M114.741 385.904L114.717 368.192C114.716 364.499 113.079 355.867 118.084 354.855C122.983 353.864 141.471 354.334 146.966 354.572C155.21 354.929 153.199 362.164 153.204 368.18L153.214 385.904L128.537 385.901C123.963 385.9 119.3 385.644 114.741 385.904Z"/>
	<path fill="#FEFEFE" transform="scale(0.195312 0.195312)" d="M128.036 364.75L142.198 364.75C142.213 368.064 143.827 378.757 140.563 378.692C135.611 378.692 130.659 378.767 125.707 378.692C125.685 373.977 123.584 365.053 128.036 364.75Z"/>
	<path fill="#F35F79" transform="scale(0.195312 0.195312)" d="M166.757 385.904C166.746 380.319 165.937 359.664 167.721 355.745C171.696 353.566 199.401 353.985 202.54 354.908C208.026 356.52 205.506 380.119 205.497 385.904L166.757 385.904Z"/>
	<path fill="#FEFEFE" transform="scale(0.195312 0.195312)" d="M177.817 364.75L194.528 364.75L194.528 378.692L177.817 378.692C177.762 374.047 177.816 369.396 177.817 364.75Z"/>
	<path fill="#617B9C" transform="scale(0.195312 0.195312)" d="M123.484 305.66L239.248 305.656C244.262 305.644 249.412 305.378 254.414 305.679C262.114 306.142 261.741 314.646 253.695 315.007L137.794 315.015C134.413 315.015 120.768 315.985 118.305 313.918C114.205 310.477 117.284 305.727 123.484 305.66Z"/>
	<path fill="#617B9C" transform="scale(0.195312 0.195312)" d="M120.139 279.001L240.533 278.993C244.169 278.993 254.206 278.44 257.076 279.429C262.115 281.165 260.19 287.111 256.147 288.63C251.123 289.024 245.815 288.646 240.754 288.639L154.032 288.632C149.094 288.631 122.753 289.49 119.633 288.125C115.532 286.33 115.846 280.182 120.139 279.001Z"/>
	<path fill="#49BBA2" transform="scale(0.195312 0.195312)" d="M219.725 389.331C218.884 383.399 219.455 365.697 219.743 359.567C220.118 351.593 230.98 354.575 237.465 354.569L248.831 354.549C260.583 354.522 258.701 356.243 258.707 367.368L258.714 381.772C258.718 384.379 259.209 387.759 258.7 390.276C256.83 395.38 247.505 393.439 243.254 393.432C236.279 393.422 229.301 393.506 222.327 393.424C220.63 392.336 219.807 391.482 219.725 389.331Z"/>
	<path fill="#FEFEFE" transform="scale(0.195312 0.195312)" d="M231.278 364.75L247.387 364.75L247.387 378.692L231.278 378.692L231.278 364.75Z"/>
	<path fill="#369676" transform="scale(0.195312 0.195312)" d="M219.725 385.904C232.691 385.909 245.745 386.228 258.7 385.904L258.7 390.276C256.83 395.38 247.505 393.439 243.254 393.432C236.279 393.422 229.301 393.506 222.327 393.424C220.63 392.336 219.807 391.482 219.725 389.331C219.753 388.185 219.776 387.051 219.725 385.904Z"/>
</svg>
