<?xml version="1.0" encoding="utf-8" ?>
<svg xmlns="http://www.w3.org/2000/svg" xmlns:xlink="http://www.w3.org/1999/xlink" width="100" height="100">
	<path fill="#69AFF7" transform="matrix(0.195312 0 0 0.195312 0.00012207 3.05176e-05)" d="M387.265 316.259L408.097 316.24C411.511 316.237 415.087 316.016 418.484 316.259L418.494 358.172C418.489 384.623 419.742 397.766 388.811 397.733L375.463 397.72C371.028 398.311 366.679 398.519 362.205 398.467C362.531 389.431 362.204 380.256 362.203 371.207L362.205 316.259C370.516 316.618 378.939 316.251 387.265 316.259L387.265 316.259Z"/>
	<path fill="#5693E9" transform="matrix(0.195312 0 0 0.195312 0.00012207 3.05176e-05)" d="M387.265 316.259L387.265 316.259L387.234 316.627C386.845 321.491 387.255 326.616 387.264 331.517L387.279 363.293C387.274 373.89 388.523 386.343 379.68 394.062C378.43 395.153 376.251 396.317 375.463 397.72C371.028 398.311 366.679 398.519 362.205 398.467C362.531 389.431 362.204 380.256 362.203 371.207L362.205 316.259C370.516 316.618 378.939 316.251 387.265 316.259Z"/>
	<path fill="#69AFF7" transform="matrix(0.195312 0 0 0.195312 0.00012207 3.05176e-05)" d="M113.85 414.282L353.453 414.285C356.338 414.286 359.33 414.45 362.205 414.282C362.567 417.401 362.239 420.694 362.231 423.833C362.181 444.343 356.229 452.481 335.301 452.626L122.661 452.631C102.71 452.585 94.2392 445.015 94.251 424.846L94.2743 414.282L113.85 414.282Z"/>
	<path fill="#FDFDFE" transform="matrix(0.195312 0 0 0.195312 0.00012207 3.05176e-05)" d="M215.567 427.002C219.515 426.916 231.99 426.44 234.872 427.719C240.869 430.38 238.664 437.817 233.163 439.303L221.542 439.301C218.488 439.328 214.886 440.037 212.233 438.125C207.416 434.652 210.246 427.754 215.567 427.002Z"/>
	<path fill="#89D6F9" transform="matrix(0.195312 0 0 0.195312 0.00012207 3.05176e-05)" d="M363.252 106.748L418.484 106.748L418.484 316.259C415.087 316.016 411.511 316.237 408.097 316.24L387.265 316.259L387.265 316.259C378.939 316.251 370.516 316.618 362.205 316.259L362.205 212.864C364.573 206.45 366.573 203.548 368.273 196.264C369.468 183.651 367.577 176.933 362.205 165.803C362.545 158.935 362.209 151.874 362.206 144.987C362.197 126.642 365.522 117.485 347.644 106.748C349.388 106.343 360.955 106.586 363.252 106.748Z"/>
	<path fill="#69AFF7" transform="matrix(0.195312 0 0 0.195312 0.00012207 3.05176e-05)" d="M347.644 106.748C349.388 106.343 360.955 106.586 363.252 106.748L363.255 107.148C365.083 108.019 367.356 108.129 369.298 108.801C391.102 116.347 387.267 132.87 387.264 151.228L387.265 316.259C378.939 316.251 370.516 316.618 362.205 316.259L362.205 212.864C364.573 206.45 366.573 203.548 368.273 196.264C369.468 183.651 367.577 176.933 362.205 165.803C362.545 158.935 362.209 151.874 362.206 144.987C362.197 126.642 365.522 117.485 347.644 106.748Z"/>
	<path fill="#69AFF7" transform="matrix(0.195312 0 0 0.195312 0.00012207 3.05176e-05)" d="M150.406 96.7287L150.391 85.3487C150.401 54.0957 167.962 55.54 192.992 55.548L394.003 55.548C416.192 55.7012 418.534 71.4161 418.494 89.3985C418.481 95.0123 418.801 100.733 418.484 106.332L418.484 106.748L363.252 106.748C360.955 106.586 349.388 106.343 347.644 106.748L167.478 106.748C161.878 106.4 156.032 106.713 150.406 106.748L150.406 96.7287Z"/>
	<path fill="#89D6F9" transform="matrix(0.195312 0 0 0.195312 0.00012207 3.05176e-05)" d="M389.424 74.5166C398.829 73.6421 401.405 85.433 392.61 88.4516C383.037 90.4308 380.246 76.9062 389.424 74.5166Z"/>
	<path fill="#F9C55E" transform="matrix(0.195312 0 0 0.195312 0.00012207 3.05176e-05)" d="M358.995 74.5166C368.417 75.2257 370.28 86.2139 360.862 89.9487C356.304 89.7282 353.381 86.8571 352.174 82.5104C353.154 78.6777 355.309 76.144 358.995 74.5166Z"/>
	<path fill="#F9C55E" transform="matrix(0.195312 0 0 0.195312 0.00012207 3.05176e-05)" d="M327.926 74.5166C337.749 73.8935 340.396 87.2371 330.815 89.9487C320.293 90.1976 317.197 77.5229 327.926 74.5166Z"/>
	<path fill="#5693E9" transform="matrix(0.195312 0 0 0.195312 0.00012207 3.05176e-05)" d="M418.484 96.7287L418.396 96.5763C418.446 99.0193 418.033 104.345 418.484 106.332L418.484 106.748L363.252 106.748C360.955 106.586 349.388 106.343 347.644 106.748L167.478 106.748C161.878 106.4 156.032 106.713 150.406 106.748L150.406 96.7287C171.547 96.9592 192.718 96.7229 213.861 96.7226L409.649 96.7217C412.569 96.7175 415.573 96.5669 418.484 96.7287Z"/>
	<path fill="#D4EAF7" transform="matrix(0.195312 0 0 0.195312 0.00012207 3.05176e-05)" d="M167.478 106.748L347.644 106.748C365.522 117.485 362.197 126.642 362.206 144.987C362.209 151.874 362.545 158.935 362.205 165.803C367.577 176.933 369.468 183.651 368.273 196.264C366.573 203.548 364.573 206.45 362.205 212.864L362.205 316.259L362.203 371.207C362.204 380.256 362.531 389.431 362.205 398.467C362.16 401.573 361.67 411.915 362.205 414.282C359.33 414.45 356.338 414.286 353.453 414.285L113.85 414.282L94.2743 414.282L94.2605 140.633C94.2564 131.841 93.6455 124.03 99.2663 116.621C108.78 104.081 127.196 106.6 141.631 106.774C144.545 106.809 147.511 107.24 150.406 106.748C156.032 106.713 161.878 106.4 167.478 106.748Z"/>
	<path fill="#89D6F9" transform="matrix(0.195312 0 0 0.195312 0.00012207 3.05176e-05)" d="M235.824 167.031C240.925 166.818 255.823 165.138 253.268 174.668C252.649 176.975 250.503 178.665 248.514 179.798C244.154 180.005 239.575 180.021 235.825 177.581C231.012 174.45 227.364 168.325 235.824 167.031Z"/>
	<path fill="#69AFF7" transform="matrix(0.195312 0 0 0.195312 0.00012207 3.05176e-05)" d="M142.106 198.743C145.856 198.699 151.73 197.862 155.007 199.991C160.544 203.589 156.79 210.434 150.406 211.047C146.701 211.038 140.775 211.726 137.62 209.63C132.392 206.156 135.317 199.376 142.106 198.743Z"/>
	<path fill="#69AFF7" transform="matrix(0.195312 0 0 0.195312 0.00012207 3.05176e-05)" d="M142.106 309.982C146.299 309.956 155.19 309.181 158.677 311.041C164.809 314.312 161.322 321.405 155.747 322.536C152.144 322.555 140.73 323.337 138.049 321.482C132.325 317.523 135.503 310.588 142.106 309.982Z"/>
	<path fill="#69AFF7" transform="matrix(0.195312 0 0 0.195312 0.00012207 3.05176e-05)" d="M140.933 277.98L156.493 277.983C159.982 277.99 165.306 277.142 168.335 279.346C172.827 282.614 170.145 289.82 164.946 290.331C160.465 290.739 145.153 290.788 140.977 290.288C132.821 289.31 133.649 279.304 140.933 277.98Z"/>
	<path fill="#69AFF7" transform="matrix(0.195312 0 0 0.195312 0.00012207 3.05176e-05)" d="M188.616 277.98L237.625 277.982C240.511 277.968 243.886 277.428 246.625 278.59C252.565 281.108 250.957 288.437 245.59 290.331C237.373 290.74 189.414 290.953 186.659 289.526C181.674 286.944 182.756 279.475 188.616 277.98Z"/>
	<path fill="#69AFF7" transform="matrix(0.195312 0 0 0.195312 0.00012207 3.05176e-05)" d="M179.196 309.982C186.52 309.756 242.519 309.193 246.491 310.461C253.106 312.573 250.728 320.354 245.59 322.536C241.288 322.755 236.916 322.552 232.604 322.548L190.45 322.527C186.999 322.524 182.871 322.949 179.516 322.143C172.681 320.501 173.828 312.575 179.196 309.982Z"/>
	<path fill="#69AFF7" transform="matrix(0.195312 0 0 0.195312 0.00012207 3.05176e-05)" d="M174.32 198.743L236.106 198.721C240.336 198.691 248.857 197.492 250.226 203.03C251.255 207.19 248.789 210.336 244.811 211.047L199.61 211.048C194.674 211.049 176.512 212.163 172.711 210.386C167.174 207.798 169.309 200.407 174.32 198.743Z"/>
	<path fill="#69AFF7" transform="matrix(0.195312 0 0 0.195312 0.00012207 3.05176e-05)" d="M142.106 167.031L202.403 167.025C210.905 167.026 217.836 165.186 217.495 175.944C216 178.253 213.523 179.371 210.877 179.798L163.398 179.797C155.537 179.798 147.584 180.068 139.732 179.798C132.489 175.362 133.774 167.796 142.106 167.031Z"/>
	<path fill="#F15A65" transform="matrix(0.195312 0 0 0.195312 0.00012207 3.05176e-05)" d="M143.462 351.055C144.742 352.749 144.644 355.504 145.203 357.51C150.176 375.379 160.831 375.06 175.291 375.032L193.495 375.034C193.498 378.473 192.985 389.718 193.495 392.133L193.495 392.833C182.468 391.794 169.178 393.405 157.503 392.741C135.168 391.471 127.211 365.238 143.462 351.055Z"/>
	<path fill="#F68585" transform="matrix(0.195312 0 0 0.195312 0.00012207 3.05176e-05)" d="M143.462 351.055C151.725 344.14 181.693 346.931 193.495 346.661L193.495 375.034C193.496 380.725 193.619 386.445 193.495 392.133C192.985 389.718 193.498 378.473 193.495 375.034L175.291 375.032C160.831 375.06 150.176 375.379 145.203 357.51C144.644 355.504 144.742 352.749 143.462 351.055Z"/>
	<path fill="#69AFF7" transform="matrix(0.195312 0 0 0.195312 0.00012207 3.05176e-05)" d="M139.732 247.219L232.263 247.206C238.672 247.206 246.534 245.19 250.236 251.593C250.471 255.621 249.644 258.456 245.59 259.992C241.84 260.388 237.694 260.002 233.91 259.991L166.299 260.004C161.385 260.004 142.928 260.986 139.235 259.305C133.665 256.769 134.088 249.139 139.732 247.219Z"/>
	<defs>
		<linearGradient id="gradient_0" gradientUnits="userSpaceOnUse" x1="300.78769" y1="358.84454" x2="324.81699" y2="258.6048">
			<stop offset="0" stop-color="#BEBDC1"/>
			<stop offset="1" stop-color="#E4E6EA"/>
		</linearGradient>
	</defs>
	<path fill="url(#gradient_0)" transform="matrix(0.195312 0 0 0.195312 0.00012207 3.05176e-05)" d="M356.787 339.667C359.77 356.808 341.982 356.062 330.919 356.075L296.496 356.079C273.572 356.058 270.946 350.732 270.996 327.158L270.989 280.602C270.964 268.424 269.237 257.357 281.191 250.061C282.956 248.983 284.276 248.53 286.302 249.01C277.251 256.237 276.781 265.197 276.792 275.707C277.538 281.555 284.301 299.59 286.955 306.449C288.536 310.535 290.643 314.401 292.305 318.45C287.546 323.178 287.072 329.557 291.402 334.718C294.602 337.744 297.577 338.725 301.957 338.897C313.264 350.293 348.424 360.046 356.787 339.667Z"/>
	<path fill="#D4EAF7" transform="matrix(0.195312 0 0 0.195312 0.00012207 3.05176e-05)" d="M276.792 275.707C277.538 281.555 284.301 299.59 286.955 306.449C288.536 310.535 290.643 314.401 292.305 318.45C287.546 323.178 287.072 329.557 291.402 334.718C288.759 335.73 284.411 330.982 282.919 329.177C276.138 320.978 275.748 313.947 275.716 304.175C275.684 294.557 275.961 285.263 276.792 275.707Z"/>
	<path fill="#FDFDFE" transform="matrix(0.195312 0 0 0.195312 0.00012207 3.05176e-05)" d="M193.495 346.661C196.503 346.369 199.606 346.591 202.631 346.631L215.936 346.681C221.241 346.679 227.916 345.771 232.998 346.684C246.577 349.125 252.806 361.97 251.218 375.034C245.512 394.987 231.662 392.849 214.958 392.817L199.844 392.87C197.831 392.882 195.45 393.179 193.495 392.833L193.495 392.133C193.619 386.445 193.496 380.725 193.495 375.034L193.495 346.661Z"/>
	<defs>
		<linearGradient id="gradient_1" gradientUnits="userSpaceOnUse" x1="307.7804" y1="228.46356" x2="343.65515" y2="150.02061">
			<stop offset="0" stop-color="#ED5624"/>
			<stop offset="1" stop-color="#FDDE85"/>
		</linearGradient>
	</defs>
	<path fill="url(#gradient_1)" transform="matrix(0.195312 0 0 0.195312 0.00012207 3.05176e-05)" d="M299.825 155.684C305.814 149.396 317.018 146.487 325.432 146.297C341.921 145.926 352.384 153.983 362.205 165.803C367.577 176.933 369.468 183.651 368.273 196.264C366.573 203.548 364.573 206.45 362.205 212.864C327.304 256.187 272.904 220.783 284.6 177.859C286.636 170.387 293.022 159.595 299.825 155.684Z"/>
	<defs>
		<linearGradient id="gradient_2" gradientUnits="userSpaceOnUse" x1="305.85419" y1="215.339" x2="345.22488" y2="161.98148">
			<stop offset="0" stop-color="#F9875B"/>
			<stop offset="1" stop-color="#FAAA9F"/>
		</linearGradient>
	</defs>
	<path fill="url(#gradient_2)" transform="matrix(0.195312 0 0 0.195312 0.00012207 3.05176e-05)" d="M307.231 160.776C318.839 155.758 325.416 152.911 337.773 157.82C356.111 165.104 363.171 183.527 356.787 201.833C336.046 241.727 285.312 218.06 293.307 181.452C295.252 172.548 299.523 165.728 307.231 160.776Z"/>
	<path fill="#FDFDFE" transform="matrix(0.195312 0 0 0.195312 0.00012207 3.05176e-05)" d="M309.116 169.027C314.135 168.317 322.305 179.324 325.866 182.643C330.016 177.769 344.069 159.065 345.991 175.944C343.927 179.56 336.346 186.318 332.992 189.72C337.452 194.22 351.059 203.432 343.178 209.282C336.387 211.547 330.663 201.929 325.866 197.095C323.176 199.723 315.488 209.189 312.408 209.72C309.441 210.232 306.413 207.883 306.16 204.88C305.802 200.623 315.11 193.357 317.863 190.025L318.113 189.72C312.811 184.705 297.626 174.528 309.116 169.027Z"/>
	<path fill="#FDFDFE" transform="matrix(0.195312 0 0 0.195312 0.00012207 3.05176e-05)" d="M286.302 249.01C290.973 246.652 310.715 248.043 316.756 248.05C332.513 248.069 355.304 243.052 357.137 265.324C357.727 272.491 356.895 279.71 356.805 286.875C356.674 297.355 355.111 330.46 356.787 339.667C348.424 360.046 313.264 350.293 301.957 338.897C297.577 338.725 294.602 337.744 291.402 334.718C287.072 329.557 287.546 323.178 292.305 318.45C290.643 314.401 288.536 310.535 286.955 306.449C284.301 299.59 277.538 281.555 276.792 275.707C276.781 265.197 277.251 256.237 286.302 249.01Z"/>
	<path fill="#F68585" transform="matrix(0.195312 0 0 0.195312 0.00012207 3.05176e-05)" d="M298.806 257.132C306.581 256.69 312.023 261.913 311.382 269.884C311.104 267.682 309.855 268.438 308.116 268.853C306.502 267.29 298.979 258.703 298.806 257.132Z"/>
	<path fill="#28B767" transform="matrix(0.195312 0 0 0.195312 0.00012207 3.05176e-05)" d="M291.402 288.293C293.168 290.339 289.301 295.661 293.954 301.11C300.21 308.438 305.215 301.759 309.116 303.812C297.887 315.953 280.788 301.129 291.402 288.293Z"/>
	<path fill="#FBDD8A" transform="matrix(0.195312 0 0 0.195312 0.00012207 3.05176e-05)" d="M324.855 287.067C332.017 282.403 345.249 286.8 344.116 296.562C342.172 296.806 340.559 298.775 338.972 299.862C334.418 298.339 327.698 291.016 324.855 287.067Z"/>
	<path fill="#F9C55E" transform="matrix(0.195312 0 0 0.195312 0.00012207 3.05176e-05)" d="M324.855 287.067C327.698 291.016 334.418 298.339 338.972 299.862C340.559 298.775 342.172 296.806 344.116 296.562C343.458 302.998 338.06 308.434 331.389 307.979C320.293 307.221 316.837 293.85 324.855 287.067Z"/>
	<path fill="#64E2AD" transform="matrix(0.195312 0 0 0.195312 0.00012207 3.05176e-05)" d="M296.017 285.406C308.012 282.355 316.453 295.271 309.116 303.812L309.116 303.812C305.215 301.759 300.21 308.438 293.954 301.11C289.301 295.661 293.168 290.339 291.402 288.293C292.579 286.744 294.276 286.087 296.017 285.406Z"/>
	<defs>
		<linearGradient id="gradient_3" gradientUnits="userSpaceOnUse" x1="293.45886" y1="276.97122" x2="304.09885" y2="261.7684">
			<stop offset="0" stop-color="#E44647"/>
			<stop offset="1" stop-color="#FE6D6F"/>
		</linearGradient>
	</defs>
	<path fill="url(#gradient_3)" transform="matrix(0.195312 0 0 0.195312 0.00012207 3.05176e-05)" d="M311.382 269.884C310.589 274.876 306.518 278.979 301.513 279.776C287.663 281.98 282.274 259.103 298.806 257.132C298.979 258.703 306.502 267.29 308.116 268.853C309.855 268.438 311.104 267.682 311.382 269.884Z"/>
	<defs>
		<linearGradient id="gradient_4" gradientUnits="userSpaceOnUse" x1="327.36465" y1="336.30566" x2="336.98642" y2="316.48615">
			<stop offset="0" stop-color="#E3505A"/>
			<stop offset="1" stop-color="#F5777D"/>
		</linearGradient>
	</defs>
	<path fill="url(#gradient_4)" transform="matrix(0.195312 0 0 0.195312 0.00012207 3.05176e-05)" d="M330.815 315.352C346.098 314.311 348.955 334.518 333.813 337.694C318.689 338.857 315.546 318.331 330.815 315.352Z"/>
	<defs>
		<linearGradient id="gradient_5" gradientUnits="userSpaceOnUse" x1="324.99088" y1="276.26614" x2="339.7673" y2="259.89377">
			<stop offset="0" stop-color="#25C162"/>
			<stop offset="1" stop-color="#5DE191"/>
		</linearGradient>
	</defs>
	<path fill="url(#gradient_5)" transform="matrix(0.195312 0 0 0.195312 0.00012207 3.05176e-05)" d="M331.38 257.132C343.461 252.953 350.538 276.494 333.813 279.697C318.548 280.576 316.259 258.113 331.38 257.132Z"/>
	<path fill="#F9C55E" transform="matrix(0.195312 0 0 0.195312 0.00012207 3.05176e-05)" d="M299.825 315.352C302.995 315.047 305.832 316.311 308.116 318.45C315.265 325.973 312.074 336.074 301.957 338.897C297.577 338.725 294.602 337.744 291.402 334.718C287.072 329.557 287.546 323.178 292.305 318.45C294.671 316.614 296.948 315.909 299.825 315.352Z"/>
	<path fill="#FBDD8A" transform="matrix(0.195312 0 0 0.195312 0.00012207 3.05176e-05)" d="M299.825 315.352C302.995 315.047 305.832 316.311 308.116 318.45L307.731 318.516L307.354 318.852L307.374 318.657C308.323 321.66 309.101 323.962 309.116 327.164C305.967 323.057 300.285 321.083 299.825 315.352Z"/>
	<path fill="#89D6F9" transform="matrix(0.195312 0 0 0.195312 0.00012207 3.05176e-05)" d="M150.406 106.748C156.032 106.713 161.878 106.4 167.478 106.748C169.78 112.835 179.365 124.22 184.264 130.276L154.49 130.266C143.1 130.26 130.162 128.64 121.337 137.484C110.801 148.042 113.835 165.109 113.846 178.728L113.851 352.294C113.851 372.946 114.117 393.635 113.85 414.282L94.2743 414.282L94.2605 140.633C94.2564 131.841 93.6455 124.03 99.2663 116.621C108.78 104.081 127.196 106.6 141.631 106.774C144.545 106.809 147.511 107.24 150.406 106.748Z"/>
</svg>
