<?xml version="1.0" encoding="utf-8" ?>
<svg xmlns="http://www.w3.org/2000/svg" xmlns:xlink="http://www.w3.org/1999/xlink" width="100" height="100">
	<path fill="#3963C9" transform="matrix(0.195313 0 0 0.195313 0 3.05176e-05)" d="M72.2576 150.974L72.2435 130.796C72.2369 107.672 76.726 89.4667 99.6785 77.6009C113.049 70.6889 126.365 72.7321 140.734 72.3212C141.116 74.5847 132.978 76.3299 131.231 77.0717C107.314 87.2284 103.672 106.796 103.729 129.104L103.73 150.974C93.2764 151.269 82.7208 150.977 72.2576 150.974Z"/>
	<path fill="#D2D9E7" transform="matrix(0.195313 0 0 0.195313 0 3.05176e-05)" d="M72.2576 150.974C82.7208 150.977 93.2764 151.269 103.73 150.974L103.73 150.974C103.352 153.614 103.694 156.516 103.715 159.196L103.727 358.019C103.721 364.95 103.495 371.965 104.242 378.865C106.31 397.972 121.671 413.173 140.65 415.847C148.925 417.012 157.682 416.463 166.029 416.463L424.37 416.441C426.852 416.434 429.486 416.241 431.95 416.464C420.615 432.541 402.89 438.774 383.719 438.919L143.165 438.924C132.464 438.924 120.11 439.714 109.631 437.888C90.7694 434.601 76.3748 418.214 73.1231 399.765C71.5058 390.589 72.2566 379.387 72.2609 369.968L72.2576 150.974Z"/>
	<path fill="#4998F0" transform="matrix(0.195313 0 0 0.195313 0 3.05176e-05)" d="M140.734 72.3212C146.768 72.0264 152.922 72.3103 158.972 72.3237L381.908 72.3156C387.603 72.3217 393.624 72.2267 399.262 73.073C420.04 76.1916 437.742 94.5858 438.64 115.897C438.765 118.878 438.768 150.659 438.627 150.974L103.73 150.974L103.73 150.974L103.729 129.104C103.672 106.796 107.314 87.2284 131.231 77.0717C132.978 76.3299 141.116 74.5847 140.734 72.3212Z"/>
	<path fill="#79D6F2" transform="matrix(0.195313 0 0 0.195313 0 3.05176e-05)" d="M130.947 104.324C134.884 104.171 142.312 103.516 145.805 105.415C153.284 109.483 149.503 119.678 142.245 121.238C115.694 123.017 121.883 105.832 130.947 104.324Z"/>
	<path fill="#79D6F2" transform="matrix(0.195313 0 0 0.195313 0 3.05176e-05)" d="M176.672 104.324C181.549 104.327 190.942 103.189 194.634 106.356C200.974 111.793 197.142 120.766 187.691 121.238C182.657 121.026 174.941 122.346 170.625 119.232C163.954 114.419 168.178 104.843 176.672 104.324Z"/>
	<path fill="#79D6F2" transform="matrix(0.195313 0 0 0.195313 0 3.05176e-05)" d="M223.863 104.324C229.101 104.77 238.84 102.956 243.277 105.811C250.168 110.247 247.026 120.058 239.514 121.238C235.201 121.414 223.479 121.988 219.973 119.877C212.892 115.614 216.122 105.711 223.863 104.324Z"/>
	<path fill="#FCFCFC" transform="matrix(0.195313 0 0 0.195313 0 3.05176e-05)" d="M103.73 150.974L438.627 150.974C438.155 153.748 438.664 159.152 438.662 162.203L438.617 375.144C438.615 390.89 439.894 401.96 431.95 416.464C429.486 416.241 426.852 416.434 424.37 416.441L166.029 416.463C157.682 416.463 148.925 417.012 140.65 415.847C121.671 413.173 106.31 397.972 104.242 378.865C103.495 371.965 103.721 364.95 103.727 358.019L103.715 159.196C103.694 156.516 103.352 153.614 103.73 150.974ZM280.258 231.256L280.258 231.256C237.988 259.199 238.329 326.579 277.19 359.014C309.309 383.209 354.117 383.646 383.043 354.07C395.202 344.091 404.739 321.576 406.063 306.142C411.518 242.555 347.531 194.529 290.109 224.894C286.611 226.744 283.293 228.692 280.258 231.256Z"/>
	<path fill="#FCC43C" transform="matrix(0.195313 0 0 0.195313 0 3.05176e-05)" d="M280.258 231.256C283.293 228.692 286.611 226.744 290.109 224.894C347.531 194.529 411.518 242.555 406.063 306.142C404.739 321.576 395.202 344.091 383.043 354.07C354.117 383.646 309.309 383.209 277.19 359.014C238.329 326.579 237.988 259.199 280.258 231.256L280.258 231.256ZM317.302 280.749C314.233 277.592 311.004 274.567 307.862 271.482C304.489 274.689 300.665 278.154 297.769 281.777C300.75 285.124 304.094 288.127 307.068 291.457C314.415 300.086 323.554 307.461 330.505 315.694C333.925 319.006 337.245 322.426 340.695 325.705C343.923 322.371 347.23 319.106 350.375 315.694C346.926 312.54 343.468 308.791 340.695 305.032C346.545 301.401 358.384 288.565 359.075 281.806C360.031 272.446 352.338 264.253 343.171 263.54C331.946 262.666 325.169 274.007 317.638 280.463L317.302 280.749Z"/>
	<path fill="#3963C9" transform="matrix(0.195313 0 0 0.195313 0 3.05176e-05)" d="M307.862 271.482C317.618 261.715 326.507 249.289 341.794 249.314C359.453 249.343 373.01 264.157 372.733 281.568C372.479 297.456 360.404 305.452 350.375 315.694C346.926 312.54 343.468 308.791 340.695 305.032C346.545 301.401 358.384 288.565 359.075 281.806C360.031 272.446 352.338 264.253 343.171 263.54C331.946 262.666 325.169 274.007 317.638 280.463L317.302 280.749C314.233 277.592 311.004 274.567 307.862 271.482Z"/>
	<path fill="#3963C9" transform="matrix(0.195313 0 0 0.195313 0 3.05176e-05)" d="M297.769 281.777C300.75 285.124 304.094 288.127 307.068 291.457C314.415 300.086 323.554 307.461 330.505 315.694C333.925 319.006 337.245 322.426 340.695 325.705C327.968 334.82 326.073 345.316 305.175 342.114C287.724 337.398 286.176 330.605 280.4 316.914L280.258 316.581L280.253 315.304C280.267 297.785 286.155 293.338 297.769 281.777Z"/>
	<path fill="#F69C38" transform="matrix(0.195313 0 0 0.195313 0 3.05176e-05)" d="M307.068 291.457C314.415 300.086 323.554 307.461 330.505 315.694C325.407 320.858 320.662 327.389 312.996 328.476C303.821 329.777 295.184 322.903 294.167 313.731C293 303.205 301.304 298.596 307.068 291.457Z"/>
	<path fill="#F69C38" transform="matrix(0.195313 0 0 0.195313 0 3.05176e-05)" d="M280.258 231.256C279.393 241.488 273.595 250.679 270.374 260.224C265.747 273.935 269.005 306.353 279.872 316.909L280.167 316.844L280.258 316.581L280.4 316.914C286.176 330.605 287.724 337.398 305.175 342.114C305.351 344.858 311.026 346.937 313.139 347.998C330.238 356.587 352.223 359.583 371.138 356.153C374.212 355.596 380.26 353.648 383.043 354.07C354.117 383.646 309.309 383.209 277.19 359.014C238.329 326.579 237.988 259.199 280.258 231.256Z"/>
	<path fill="#79D6F2" transform="matrix(0.195313 0 0 0.195313 0 3.05176e-05)" d="M277.19 359.014C269.56 370.365 246.627 367.439 234.316 367.431L170.847 367.447C161.189 367.468 152.074 368.244 144.554 360.952C133.673 350.402 137.382 326.971 137.38 312.356L137.383 220.902C137.389 197.975 140.387 182.972 167.245 182.816L246.076 182.83C272 182.876 280.271 190.126 280.278 216.358L280.258 231.256L280.258 231.256C237.988 259.199 238.329 326.579 277.19 359.014Z"/>
	<path fill="#4998F0" transform="matrix(0.195313 0 0 0.195313 0 3.05176e-05)" d="M176.672 288.551C188.195 288.167 207.785 287.586 219.041 288.596C228.967 289.487 230.286 303.246 218.727 305.032L189.679 305.016C184.73 305.034 175.114 306.587 170.898 303.487C163.662 298.165 169.248 289.246 176.672 288.551Z"/>
	<path fill="#4998F0" transform="matrix(0.195313 0 0 0.195313 0 3.05176e-05)" d="M174.888 320.723C187.677 320.228 205.304 320.051 218.114 320.723C228.482 321.266 230.055 333.995 220.261 337.489L190.68 337.478C184.476 337.477 171.156 339.776 168.371 332.233C166.397 326.886 169.962 322.404 174.888 320.723Z"/>
	<path fill="#4998F0" transform="matrix(0.195313 0 0 0.195313 0 3.05176e-05)" d="M176.672 247.027C179.522 246.874 182.465 247.013 185.321 247.013L202.3 247.014C208.63 247.015 217.437 246.516 223.392 247.228C233.776 248.47 232.856 263.268 222.381 263.752C219.443 264.045 216.392 263.783 213.438 263.773L183.187 263.747C180.627 263.764 177.761 264.033 175.237 263.652C165.316 262.153 164.844 247.88 176.672 247.027Z"/>
</svg>
