<?xml version="1.0" encoding="utf-8" ?>
<svg xmlns="http://www.w3.org/2000/svg" xmlns:xlink="http://www.w3.org/1999/xlink" width="100" height="100">
	<path fill="#E5ECF6" transform="scale(0.195312 0.195312)" d="M361.643 350.014L361.643 377.023C361.639 394.472 362.431 411.011 350.87 425.583C336.993 443.075 321.748 445.809 301.38 445.785L139.806 445.78C133.646 445.775 127.364 445.831 121.264 444.859C100.444 441.54 82.6435 423.133 80.4755 402.133C79.736 394.97 80.005 387.678 80.0099 380.486L80.0046 122.835C80.0126 116.203 79.8015 109.252 80.6326 102.672C82.9638 84.2176 96.2077 67.1374 114.43 62.0534C125.763 58.8915 142.152 59.9448 154.143 59.9485L253.869 59.958C257.668 59.9746 261.514 60.4107 265.3 59.9499C279.688 59.371 314.959 58.7408 326.548 61.7226C345.998 66.7274 359.947 85.0556 360.675 104.998C361.033 114.785 360.708 124.675 360.722 134.474L360.751 147.581C360.757 149.765 360.896 152.05 360.724 154.223C360.392 163.223 360.041 177.498 360.724 186.323C365.88 187.808 371.102 188.685 376.179 190.501C399.95 199.003 419.491 219.258 426.973 243.442C441.166 289.314 412.2 339.745 364.389 349.017L361.643 350.014ZM177.563 181.812C179.103 178.161 181.845 174.794 184.361 171.763C191.45 171.78 202.793 173.206 208.119 167.836C219.109 156.757 206.66 133.385 197.769 125.033C166.591 95.7439 117.289 120.944 119.273 162.998C120.475 188.472 143.729 209.153 169.21 207.587C204.783 205.4 194.004 178.959 177.563 181.812Z"/>
	<path fill="#F96B76" transform="scale(0.195312 0.195312)" d="M310.731 318.521C313.221 329.751 344.434 343.324 354.942 345.773C357.756 346.428 362.549 346.484 364.389 349.017L361.643 350.014C356.336 349.469 350.98 350.256 345.643 350.038C327.526 349.298 310.839 343.103 296.766 331.653C301.212 327.148 305.546 322.177 310.731 318.521Z"/>
	<path fill="#C2CEEF" transform="scale(0.195312 0.195312)" d="M136.365 275.969L228.351 275.964C232.135 275.949 240.773 274.694 243.781 277.347C246.643 279.87 247.155 284.916 244.446 287.746C241.82 290.491 236.792 289.903 233.312 289.913L142.678 289.921C137.824 289.92 132.793 290.115 127.972 289.473C122.484 288.742 114.653 275.683 136.365 275.969Z"/>
	<path fill="#C2CEEF" transform="scale(0.195312 0.195312)" d="M133.628 235.555L226.602 235.552C231.047 235.552 235.628 235.359 240.052 235.78C246.938 236.436 252.515 248.903 235.125 249.623L143.038 249.632C138.855 249.641 128.423 250.766 124.984 248.032C121.985 245.647 121.412 240.863 124.051 237.977C126.422 235.384 130.414 235.663 133.628 235.555Z"/>
	<path fill="#C2CEEF" transform="scale(0.195312 0.195312)" d="M127.847 316.009L228.101 316.01C231.938 316.009 235.911 315.753 239.73 315.975C248.536 316.488 249.295 327.417 241.502 330.017C236.809 330.439 231.746 330.023 227.003 330.022L152.501 330.021C142.473 330.021 124.618 334.008 121.868 322.85C122.701 319.484 124.166 316.753 127.847 316.009Z"/>
	<path fill="#5789EE" transform="scale(0.195312 0.195312)" d="M189.237 413.154L158.709 413.165C151.62 413.165 142.17 413.909 135.417 412.161C113.344 406.45 115.6 374.958 135.549 370.349C139.864 369.353 144.543 369.662 148.945 369.663L223.539 369.673L223.539 413.154L199.121 413.135C196.002 413.13 192.271 412.659 189.237 413.154Z"/>
	<path fill="#71A6F5" transform="scale(0.195312 0.195312)" d="M223.539 369.673L296.77 369.67C306.088 369.675 314.657 369.205 321.73 376.339C330.195 384.876 330.068 399.349 321.413 407.695C314.24 414.61 305.316 413.187 296.263 413.157L215.702 413.152C206.942 413.154 197.97 413.771 189.237 413.154C192.271 412.659 196.002 413.13 199.121 413.135L223.539 413.154L223.539 369.673Z"/>
	<path fill="#FAB633" transform="scale(0.195312 0.195312)" d="M285.106 320.34C251.131 277.405 266.984 212.17 319.046 191.407C323.173 189.761 327.485 188.298 331.868 187.526C340.169 187.52 324.898 193.854 323.961 194.374C321.783 195.581 319.763 197.311 317.746 198.775C316.044 201.068 313.607 203.12 311.562 205.116L311.797 205.323C313.184 206.567 313.488 207.023 312.434 208.635C312.179 212.14 320.478 217.333 322.023 220.307C319.307 224.637 331.056 224.411 327.403 228.5L327.5 228.854C328.682 229.519 336.727 232.507 333.907 234.022L333.59 235.012C335.43 235.027 337.441 230.162 339.904 229.954L340.108 230.065C334.574 234.375 329.806 239.885 324.886 244.873C308.636 261.349 299.21 271.338 310.731 294.529C314.427 299.028 317.784 302.545 322.575 305.861C319.833 309.133 312.184 315.92 310.731 318.521C305.546 322.177 301.212 327.148 296.766 331.653C292.788 328.266 288.304 324.476 285.106 320.34Z"/>
	<path fill="#87CFF7" transform="scale(0.195312 0.195312)" d="M310.731 294.529C314.427 299.028 317.784 302.545 322.575 305.861C319.833 309.133 312.184 315.92 310.731 318.521C305.546 322.177 301.212 327.148 296.766 331.653C292.788 328.266 288.304 324.476 285.106 320.34C289.697 315.349 294.746 310.67 299.536 305.861C303.219 302.306 307.892 298.776 310.731 294.529Z"/>
	<path fill="#55C7C0" transform="scale(0.195312 0.195312)" d="M177.563 181.812C194.004 178.959 204.783 205.4 169.21 207.587C143.729 209.153 120.475 188.472 119.273 162.998C117.289 120.944 166.591 95.7439 197.769 125.033C206.66 133.385 219.109 156.757 208.119 167.836C202.793 173.206 191.45 171.78 184.361 171.763C181.845 174.794 179.103 178.161 177.563 181.812ZM164.435 136.345C156.511 137.186 150.949 141.194 146.057 147.304L145.716 147.738L167.625 147.738L185.841 147.738C180.544 140.191 173.666 135.992 164.435 136.345Z"/>
	<path fill="#E5ECF6" transform="scale(0.195312 0.195312)" d="M145.716 171.763L184.361 171.763C181.845 174.794 179.103 178.161 177.563 181.812C164.633 185.639 153.384 183.875 145.716 171.763Z"/>
	<path fill="#C2CEEF" transform="scale(0.195312 0.195312)" d="M265.3 59.9499C279.688 59.371 314.959 58.7408 326.548 61.7226C345.998 66.7274 359.947 85.0556 360.675 104.998C361.033 114.785 360.708 124.675 360.722 134.474L360.751 147.581C360.757 149.765 360.896 152.05 360.724 154.223L309.417 154.219C296.428 154.113 286.371 152.48 276.822 142.679C263.083 128.577 265.316 114.316 265.304 96.2402C265.296 84.1464 265.178 72.0425 265.3 59.9499Z"/>
	<defs>
		<linearGradient id="gradient_0" gradientUnits="userSpaceOnUse" x1="305.63202" y1="210.94247" x2="412.1424" y2="319.54318">
			<stop offset="0" stop-color="#F9BC5C"/>
			<stop offset="1" stop-color="#FB8197"/>
		</linearGradient>
	</defs>
	<path fill="url(#gradient_0)" transform="scale(0.195312 0.195312)" d="M331.868 187.526C340.689 184.86 351.599 185.616 360.724 186.323C365.88 187.808 371.102 188.685 376.179 190.501C399.95 199.003 419.491 219.258 426.973 243.442C441.166 289.314 412.2 339.745 364.389 349.017C362.549 346.484 357.756 346.428 354.942 345.773C344.434 343.324 313.221 329.751 310.731 318.521C312.184 315.92 319.833 309.133 322.575 305.861C317.784 302.545 314.427 299.028 310.731 294.529C299.21 271.338 308.636 261.349 324.886 244.873C329.806 239.885 334.574 234.375 340.108 230.065L339.904 229.954C337.441 230.162 335.43 235.027 333.59 235.012L333.907 234.022C336.727 232.507 328.682 229.519 327.5 228.854L327.403 228.5C331.056 224.411 319.307 224.637 322.023 220.307C320.478 217.333 312.179 212.14 312.434 208.635C313.488 207.023 313.184 206.567 311.797 205.323L311.562 205.116C313.607 203.12 316.044 201.068 317.746 198.775C319.763 197.311 321.783 195.581 323.961 194.374C324.898 193.854 340.169 187.52 331.868 187.526Z"/>
	<path fill="#E5ECF6" transform="scale(0.195312 0.195312)" d="M340.108 230.065C374.757 209.585 407.002 247.581 387.037 275.836C382.583 282.14 361.969 302.31 355.527 305.95C344.866 311.973 333.164 311.158 322.575 305.861C317.784 302.545 314.427 299.028 310.731 294.529C299.21 271.338 308.636 261.349 324.886 244.873C329.806 239.885 334.574 234.375 340.108 230.065Z"/>
	<path fill="#FAB633" transform="scale(0.195312 0.195312)" d="M360.724 238.855C372.757 237.508 384.187 254.834 374.913 267.478C368.236 276.581 352.319 293.719 340.108 295.536C330.253 295.428 321.282 288.663 320.635 278.408C319.956 267.646 330.352 260.343 337.21 253.584C345.641 245.274 348.191 239.727 360.724 238.855Z"/>
</svg>
