<?xml version="1.0" encoding="utf-8" ?>
<svg xmlns="http://www.w3.org/2000/svg" xmlns:xlink="http://www.w3.org/1999/xlink" width="100" height="100">
	<path fill="#5573BB" transform="scale(0.195312 0.195312)" d="M350.117 251.287C360.518 250.865 362.257 261.872 353.491 265.313C344.803 267.551 341.014 254.553 350.117 251.287Z"/>
	<path fill="#5573BB" transform="scale(0.195312 0.195312)" d="M158.942 251.287C168.566 250.534 171.083 262.723 161.829 265.313C153.119 267.796 149.185 254.45 158.942 251.287Z"/>
	<path fill="#F5AD45" transform="scale(0.195312 0.195312)" d="M340.348 203.584C348.583 204.27 358.528 230.892 355.407 236.144C353.985 238.536 351.566 239.747 348.958 240.371C340.614 239.498 341.235 230.839 338.695 224.747C336.165 218.682 326.293 205.349 340.348 203.584Z"/>
	<path fill="#5573BB" transform="scale(0.195312 0.195312)" d="M248.126 155.147C253.83 154.844 260.286 157.827 257.024 164.761C254.059 171.065 246.078 169.419 240.386 170.408C235.476 171.261 230.82 172.891 226.13 174.524C218.839 176.326 214.335 168.172 218.665 162.826C222.231 158.423 241.95 155.583 248.126 155.147Z"/>
	<path fill="#F5AD45" transform="scale(0.195312 0.195312)" d="M272.048 156.299C279.726 155.434 306.999 164.325 309.955 170.886C311.879 175.156 309.127 179.666 305.169 181.353C299.618 182.884 293.72 176.847 288.803 174.877C283.285 172.665 271.067 170.923 268.464 166.916C265.668 162.611 268.019 158.477 272.048 156.299Z"/>
	<path fill="#5573BB" transform="scale(0.195312 0.195312)" d="M201.697 172.784C207.238 172.483 212.163 178.747 208.403 183.707C206.293 186.491 202.176 188.437 199.39 190.647C188.069 199.627 179.261 211.935 174.079 225.41C171.83 231.257 172.406 238.878 164.952 240.371C144.721 241.768 169.481 202.209 173.527 196.918C179.288 189.385 192.761 175.49 201.697 172.784Z"/>
	<path fill="#D56398" transform="scale(0.195312 0.195312)" d="M319.073 279.783C325.085 279.365 331.22 285.631 327.312 290.929C322.775 297.079 300.308 318.427 294.22 323.727C288.454 328.747 283.58 322.972 279.504 319.001C276.106 315.692 272.615 312.636 269.595 308.958C262.232 314.087 252.026 331.599 244.038 328.241C240.279 326.661 232.712 320.108 229.089 317.316C221.924 324.186 208.609 339.961 201.697 344.992C197.305 345.121 193.259 342.632 192.486 338.126C191.625 333.113 198.371 328.273 201.474 325.176L213.646 312.987C218.13 308.468 223.921 298.64 231.412 301.909C235.011 303.479 242.287 309.735 245.981 312.494C249.119 308.942 252.587 305.708 255.8 302.228C260.166 297.499 265.488 288.306 272.971 293.147C276.65 295.528 286.284 305.4 289.259 308.958C293.393 304.154 314.443 281.52 319.073 279.783Z"/>
	<path fill="#5573BB" transform="scale(0.195312 0.195312)" d="M402.846 78.2056C407.817 78.0448 412.84 78.1887 417.817 78.1712C424.262 78.1486 434.823 76.1798 435.294 85.485C435.525 90.0561 434.96 109.195 434.195 113.1C433.06 118.895 426.358 120.899 422.298 116.738C419.116 113.475 420.19 107.504 420.243 103.292C416.582 106.288 413.226 110.049 409.83 113.38L343.412 179.1C322.1 200.542 301.018 222.302 279.21 243.24C285.328 259.145 278.098 273.059 262.147 278.109C241.188 282.118 224.234 262.58 232.93 243.247C239.539 228.554 256.037 225.93 269.595 232.225C274.016 229.12 278.734 223.449 282.671 219.536L398.025 104.328C401.83 100.509 405.867 96.8334 409.438 92.7954C405.608 92.5818 400.31 93.8207 397.165 91.1359C392.012 86.7378 395.242 78.5041 402.846 78.2056Z"/>
	<path fill="#3DD7F3" transform="scale(0.195312 0.195312)" d="M254.207 243.24C267.72 239.13 273.064 261.718 257.64 265.313C241.447 264.306 241.057 244.533 254.207 243.24Z"/>
	<defs>
		<linearGradient id="gradient_0" gradientUnits="userSpaceOnUse" x1="366.58542" y1="317.548" x2="144.43881" y2="194.86079">
			<stop offset="0" stop-color="#6E5EAF"/>
			<stop offset="1" stop-color="#4880C3"/>
		</linearGradient>
	</defs>
	<path fill="url(#gradient_0)" transform="scale(0.195312 0.195312)" d="M184.611 150.769C227.171 123.033 288.044 121.502 329.149 153.172C325.948 156.825 322.4 160.172 319.073 163.709C313.911 160.546 308.769 157.182 303.295 154.582C252.776 130.587 189.065 147.791 159.636 196.12C112.302 273.853 170.901 374.448 263.968 368.119C301.162 365.59 334.458 344.553 353.583 312.505C372.281 281.175 374.765 237.822 356.529 205.635C354.436 201.94 351.824 198.308 350.117 194.434C353.096 190.603 356.945 187.282 360.43 183.918C374.759 204.313 383.973 230.881 382.802 256.008C386.246 351.047 277.05 413.168 195.428 367.89C193.278 366.697 188.077 363.204 186.048 362.742C185.442 362.438 185.055 361.933 184.611 361.437C182.171 359.597 179.562 357.99 177.14 356.107C146.99 332.659 128.994 294.068 129.049 256.008C125.238 216.165 152.873 172.604 184.611 150.769Z"/>
	<defs>
		<linearGradient id="gradient_1" gradientUnits="userSpaceOnUse" x1="391.37997" y1="392.39551" x2="121.23625" y2="118.50354">
			<stop offset="0" stop-color="#6F57AC"/>
			<stop offset="1" stop-color="#3B91CF"/>
		</linearGradient>
	</defs>
	<path fill="url(#gradient_1)" transform="scale(0.195312 0.195312)" d="M217.533 93.837L217.506 76.2585C217.487 57.9071 220.883 61.1187 237.183 61.1092L276.564 61.1093C293.47 61.1145 294.144 59.1168 294.104 76.5495L294.09 93.837C309.172 95.9141 333.811 107.425 345.924 115.468C349.848 111.682 360.498 99.2959 364.722 97.8135C373.651 94.6793 382.945 110.383 366.384 114.608C362.973 116.031 351.965 129.535 347.954 133.158C342.091 140.173 334.884 146.092 329.149 153.172C288.044 121.502 227.171 123.033 184.611 150.769C152.873 172.604 125.238 216.165 129.049 256.008C128.994 294.068 146.99 332.659 177.14 356.107C179.562 357.99 182.171 359.597 184.611 361.437C185.055 361.933 185.442 362.438 186.048 362.742C188.077 363.204 193.278 366.697 195.428 367.89C277.05 413.168 386.246 351.047 382.802 256.008C383.973 230.881 374.759 204.313 360.43 183.918C365.901 177.852 373.131 171.265 379.098 165.278L389.92 154.604C393.22 151.29 395.915 147.363 400.634 146.157C416.435 150.454 401.122 161.477 397.631 166.314L397.43 166.598C398.526 169.009 399.976 171.263 401.241 173.588C410.269 190.179 412.964 201.446 418.914 218.109C424.941 218.641 440.955 216.362 445.009 220.436C448.898 224.344 447.053 262.279 447.051 269.458C447.045 287.661 452.265 294.963 432.707 294.913L417.914 294.898C413.975 312.881 405.944 329.51 396.199 344.992C401.192 350.084 416.817 363.294 413.745 369.723C413.141 370.988 377.617 407.302 372.165 412.396C366.789 417.419 361.309 409.893 357.251 406.907C352.664 403.531 347.574 400.814 342.585 398.095C326.886 405.93 311.953 415.838 294.09 418.903C294.775 423.547 294.052 432.374 294.306 437.696C294.625 444.4 291.084 448.064 284.422 448.244C270.768 448.611 257.001 448.247 243.337 448.26C236.831 448.267 224.275 450.351 219.57 445.718C215.995 442.198 217.531 424.727 217.533 418.903C202.187 415.368 179.236 405.556 166.805 396.092C163.927 399.162 160.901 402.089 157.954 405.092C145.417 417.865 144.032 415.659 133.422 404.556L107.512 377.738C103.621 373.795 95.8 368.546 98.8401 362.067C101.059 357.337 110.703 349.747 114.69 345.55C105.115 329.233 98.1485 313.408 93.9372 294.898C88.7601 294.733 83.5223 294.918 78.3391 294.929C61.888 294.963 64.9515 289.264 64.947 275.277L64.9456 236.04C64.8974 219.499 62.7138 218.008 80.1277 218.08C84.7311 218.098 89.3339 218.046 93.9372 218.109C92.8386 205.792 109.025 174.926 115.466 165.278C112.523 162.075 109.393 158.996 106.265 155.973C93.7269 143.857 96.8157 142.878 107.208 132.685C111.073 128.895 114.829 124.981 118.637 121.134L134.967 104.661C138.784 100.855 142.328 95.1086 148.546 98.5586C152.543 100.776 161.402 110.782 166.03 114.608C184.693 105.802 195.526 98.5787 217.533 93.837Z"/>
	<path fill="#F5AD45" transform="scale(0.195312 0.195312)" d="M379.098 165.278C389.017 178.348 397.016 195.472 401.925 211.063C404.128 218.058 404.206 231.058 412.789 232.142C418.746 232.894 426.534 231.932 432.785 232.225L432.785 256.008L382.802 256.008C383.973 230.881 374.759 204.313 360.43 183.918C365.901 177.852 373.131 171.265 379.098 165.278Z"/>
	<path fill="#A3EACE" transform="scale(0.195312 0.195312)" d="M145.317 114.608C149.341 118.019 160.694 130.363 164.823 131.369C168.343 132.227 172.129 128.45 174.999 126.776C176.605 133.05 181.503 144.932 184.611 150.769C152.873 172.604 125.238 216.165 129.049 256.008C112.588 256.258 96.0865 256.01 79.6218 256.008L79.6218 232.225C85.2693 232.223 90.908 232.362 96.5521 232.398C106.468 232.46 105.758 225.846 107.511 218.375C111.023 203.41 116.818 189.765 124.73 176.581C126.846 173.055 132.191 167.61 131.8 163.216C131.477 159.581 118.059 147.647 114.69 144.758C125.535 135.395 134.563 123.927 145.317 114.608Z"/>
	<path fill="#3DD7F3" transform="scale(0.195312 0.195312)" d="M79.6218 256.008C96.0865 256.01 112.588 256.258 129.049 256.008C128.994 294.068 146.99 332.659 177.14 356.107C179.562 357.99 182.171 359.597 184.611 361.437C180.081 368.023 177.58 376.088 173.522 382.995C169.19 381.067 166.883 378.579 162.42 381.726C158.495 384.493 149.11 394.058 146.136 398.095C142.366 392.895 137.444 388.399 132.938 383.838L114.69 365.246C128.26 345.537 137.781 356.454 124.595 333.919C118.519 323.534 114.007 313.003 110.255 301.567C102.054 276.568 109.723 280.812 79.6218 280.885C79.6275 272.601 79.4304 264.288 79.6218 256.008Z"/>
	<path fill="#F9D46A" transform="scale(0.195312 0.195312)" d="M231.702 75.0595L279.742 75.0595L279.715 91.4067C279.708 107.48 280.605 104.714 296.151 108.773C315.57 113.843 330.711 123.253 347.954 133.158C342.091 140.173 334.884 146.092 329.149 153.172C288.044 121.502 227.171 123.033 184.611 150.769C181.503 144.932 176.605 133.05 174.999 126.776C182.589 119.58 204.488 111.85 214.157 109.283C221.388 107.364 231.423 107.58 231.728 97.9973C231.971 90.3827 231.704 82.6841 231.702 75.0595Z"/>
	<defs>
		<linearGradient id="gradient_2" gradientUnits="userSpaceOnUse" x1="368.82791" y1="394.52618" x2="274.23416" y2="286.32837">
			<stop offset="0" stop-color="#77AFE6"/>
			<stop offset="1" stop-color="#57BEEB"/>
		</linearGradient>
	</defs>
	<path fill="url(#gradient_2)" transform="scale(0.195312 0.195312)" d="M382.802 256.008L432.785 256.008C433.111 259.118 432.83 262.349 432.804 265.479L432.785 280.885C427.19 280.872 416.776 280.316 411.785 281.194C405.484 282.302 405.34 286.814 404.014 292.03C400.634 305.328 395.717 318.054 388.704 329.89C386.015 334.428 380.319 340.341 380.428 345.931C380.525 350.924 393.658 362.38 397.43 366.341L377.825 386.327C374.79 389.453 371.247 392.522 368.755 396.092C363.889 393.514 346.465 380.263 341.475 381.776C337.472 382.99 333.235 386.759 329.495 388.834C318.79 394.77 307.146 400.09 295.279 403.194C275.004 408.497 279.67 410.046 279.742 432.409C263.739 432.414 247.701 432.649 231.702 432.409C231.699 426.035 233.25 411.723 229.129 407.793C225.71 404.531 216.448 403.381 211.716 401.805C198.73 397.48 186.854 390.967 174.999 384.217C178.446 376.935 182.634 370.033 186.048 362.742C188.077 363.204 193.278 366.697 195.428 367.89C277.05 413.168 386.246 351.047 382.802 256.008Z"/>
</svg>
