<?xml version="1.0" encoding="utf-8" ?>
<svg xmlns="http://www.w3.org/2000/svg" xmlns:xlink="http://www.w3.org/1999/xlink" width="100" height="100">
	<path fill="#D96E9D" transform="matrix(0.195312 0 0 0.195312 0 3.05176e-05)" d="M150.766 334.577C153.696 334.458 155.151 335.49 156.747 337.99C156.883 341.743 156.235 345.552 157.772 349.121C161.763 358.389 170.366 354.078 174.727 355.948C179.831 358.137 177.76 363.024 173.537 364.435C155.122 370.128 138.678 342.814 150.766 334.577Z"/>
	<path fill="#D96E9D" transform="matrix(0.195312 0 0 0.195312 0 3.05176e-05)" d="M339.381 146.779C364.475 147.088 370.472 171.8 360.649 174.775C352.917 175.812 355.23 168.431 353.319 163.68C349.598 154.426 343.405 159.223 337.739 156.646C333.237 154.6 335.033 147.959 339.381 146.779Z"/>
	<path fill="#36598C" transform="matrix(0.195312 0 0 0.195312 0 3.05176e-05)" d="M194.55 391.05C197.055 391.237 202.661 394.301 205.383 395.321C216.86 399.623 228.049 402.293 240.227 403.752C244.698 404.288 259.164 403.264 254.987 412.03C254.254 413.569 253.1 414.21 251.554 414.761C231.564 413.184 212.973 410.24 194.686 401.422C189.158 398.757 188.269 392.767 194.55 391.05Z"/>
	<path fill="#D96E9D" transform="matrix(0.195312 0 0 0.195312 0 3.05176e-05)" d="M128.996 334.577C136.255 334.345 134.04 342.556 134.55 347.231C136.274 363.059 149.007 375.751 165.035 377.167C168.186 377.445 172.367 376.607 175.274 377.892C179.955 379.961 177.321 385.325 173.537 386.523C131.735 392.435 115.226 339.216 128.996 334.577Z"/>
	<path fill="#D96E9D" transform="matrix(0.195312 0 0 0.195312 0 3.05176e-05)" d="M339.381 124.627C382.739 123.466 394.725 170.772 382.424 174.775C375.866 175.134 376.628 170 376.384 165.249C375.311 144.368 357.905 134.536 338.532 134.625C334.32 131.91 333.337 125.915 339.381 124.627Z"/>
	<path fill="#36598C" transform="matrix(0.195312 0 0 0.195312 0 3.05176e-05)" d="M101.978 223.049C110.75 222.267 106.723 233.974 106.099 238.519C103.335 258.656 105.965 280.111 112.773 299.244C114.775 304.868 122.246 315.395 114.822 319.209C107.736 320.059 105.526 308.962 103.464 303.182C95.9363 282.09 93.4447 258.504 96.1242 236.282C96.7977 230.696 95.8319 225.135 101.978 223.049Z"/>
	<path fill="#D96E9D" transform="matrix(0.195312 0 0 0.195312 0 3.05176e-05)" d="M106.881 334.577C113.604 333.952 112.268 341.073 112.34 345.464C112.786 372.634 133.863 396.157 161.205 399.182C164.395 399.535 172.68 398.815 174.895 399.874C179.404 402.03 177.827 407.943 173.537 409.122C144.984 412.689 115.485 392.074 106.234 365.143C104.1 358.93 97.9019 337.456 106.881 334.577Z"/>
	<path fill="#D96E9D" transform="matrix(0.195312 0 0 0.195312 0 3.05176e-05)" d="M341.767 102.454C375.933 101.584 405.454 126.636 408.562 161.049C409.059 166.551 410.323 176.147 401.7 174.775C397.926 171.898 399.066 168.272 398.811 163.975C397.301 138.531 377.96 116.733 352.455 113.006C348.881 112.483 339.119 113.186 336.784 111.528C332.403 108.416 335.083 102.649 341.767 102.454Z"/>
	<path fill="#36598C" transform="matrix(0.195312 0 0 0.195312 0 3.05176e-05)" d="M398.994 191.563C403.329 191.466 404.74 195.416 406.056 198.945C417.27 229.025 419.825 262.975 410.986 294.001C409.508 299.189 408.471 309.04 402.644 311.185C385.928 310.332 419.364 277.401 400.678 214.036C398.982 208.284 396.325 202.811 394.767 197.048L394.653 196.616C395.293 193.877 396.329 192.715 398.994 191.563Z"/>
	<path fill="#3BBEF7" transform="matrix(0.195312 0 0 0.195312 0 3.05176e-05)" d="M240.967 137.5L241.454 137.545C245.578 137.904 249.812 137.527 253.951 137.476C336.074 136.465 396.122 220.408 365.856 297.769C364.737 300.628 363.602 303.564 361.814 306.077L354.793 300.107C355.928 295.888 357.983 291.825 359.243 287.599C381.658 212.451 319.117 136.486 240.967 147.83L240.967 137.5Z"/>
	<path fill="#3BBEF7" transform="matrix(0.195312 0 0 0.195312 0 3.05176e-05)" d="M167.25 180.273C171.494 180.396 175.858 179.956 180.071 180.273C158.766 202.629 148.48 228.753 149.265 259.683C150.622 313.148 194.985 359.306 248.069 363.976C255.795 364.655 263.501 364.201 271.233 364.435C271.082 367.571 271.153 370.644 271.233 373.779C234.942 373.818 212.837 371.109 182.671 346.236C131.527 304.066 125.124 231.056 167.25 180.273Z"/>
	<path fill="#36598C" transform="matrix(0.195312 0 0 0.195312 0 3.05176e-05)" d="M104.144 180.273L92.2392 180.293C65.574 180.312 67.7319 168.511 67.742 146.005L67.7234 90.6411C67.7012 77.4273 69.627 64.3299 87.0965 64.0191C96.9662 63.8435 106.872 64.0407 116.746 64.0401L208.525 64.0244C236.591 64.0292 240.623 66.4214 240.967 94.9855C263.404 92.3167 285.625 95.2776 306.707 103.251C310.258 104.594 323.95 108.184 319.723 114.499C316.314 119.592 311.622 115.706 307.622 113.954C288.62 105.63 261.866 101.796 240.967 105.268C240.782 115.998 240.965 126.766 240.967 137.5L240.967 147.83C241.046 176.702 236.376 180.264 208.05 180.268L180.071 180.273C175.858 179.956 171.494 180.396 167.25 180.273C161.372 179.826 155.15 180.258 149.239 180.273C137.986 187.56 125.986 199.053 115.059 207.402C110.799 210.657 107.514 211.876 104.144 206.889L104.144 180.273ZM80.9691 168.955C81.9974 166.422 80.2889 163.378 82.0822 160.375C85.2964 154.992 106.826 156.613 113.364 156.72L204.225 156.772C224.387 156.947 222.231 154.798 222.243 136.755L222.247 95.0181C222.248 89.1522 222.927 82.7052 221.263 76.9985L218.646 73.9361L100.097 73.927C80.8742 73.9118 77.7247 70.8968 77.7322 92.6657L77.7421 143.609C77.7348 149.649 75.9074 165.1 80.9691 168.955ZM218.646 73.9361L221.263 76.9985C222.927 82.7052 222.248 89.1522 222.247 95.0181L222.243 136.755C222.231 154.798 224.387 156.947 204.225 156.772L113.364 156.72C106.826 156.613 85.2964 154.992 82.0822 160.375C80.2889 163.378 81.9974 166.422 80.9691 168.955C89.5144 173.853 111.277 165.926 113.685 174.36C115.081 179.248 113.485 187.865 114.09 193.255C113.953 196.492 118.133 192.109 119.27 191.563C125.796 185.832 137.805 174.954 145.075 170.45L212.064 170.456C234.261 170.442 231.052 164.884 231.06 146.474L231.058 95.8455C231.057 85.7221 233.402 80.0852 224.665 73.9361C222.722 73.7429 220.611 73.9456 218.646 73.9361Z"/>
	<path fill="#EBEAEA" transform="matrix(0.195312 0 0 0.195312 0 3.05176e-05)" d="M218.646 73.9361C220.611 73.9456 222.722 73.7429 224.665 73.9361C233.402 80.0852 231.057 85.7221 231.058 95.8455L231.06 146.474C231.052 164.884 234.261 170.442 212.064 170.456L145.075 170.45C137.805 174.954 125.796 185.832 119.27 191.563C118.133 192.109 113.953 196.492 114.09 193.255C113.485 187.865 115.081 179.248 113.685 174.36C111.277 165.926 89.5144 173.853 80.9691 168.955C81.9974 166.422 80.2889 163.378 82.0822 160.375C85.2964 154.992 106.826 156.613 113.364 156.72L204.225 156.772C224.387 156.947 222.231 154.798 222.243 136.755L222.247 95.0181C222.248 89.1522 222.927 82.7052 221.263 76.9985L218.646 73.9361ZM114.09 193.255C113.953 196.492 118.133 192.109 119.27 191.563C120.58 188.393 116.717 185.031 114.981 184.707C113.434 184.419 114.337 191.962 114.09 193.255Z"/>
	<path fill="#31CBC9" transform="matrix(0.195312 0 0 0.195312 0 3.05176e-05)" d="M117.491 93.2694C152.656 88.8441 157.809 145.989 121.333 147.83C85.5783 150.58 81.38 94.4124 117.491 93.2694Z"/>
	<path fill="#B6E5F5" transform="matrix(0.195312 0 0 0.195312 0 3.05176e-05)" d="M101.978 122.277C101.698 93.8363 141.352 99.3611 136.967 123.179C135.962 121.975 134.957 121.255 133.607 120.487C131.751 122.328 130.474 124.627 128.339 126.215C119.54 132.76 110.933 128.594 105.212 120.487C104.302 121.253 103.423 122.034 102.403 122.654L101.978 122.277Z"/>
	<path fill="#F8936C" transform="matrix(0.195312 0 0 0.195312 0 3.05176e-05)" d="M184.923 92.3507C217.43 89.1037 228.268 141.661 189.495 147.83C151.236 147.884 150.602 97.043 184.923 92.3507Z"/>
	<path fill="#FDC03A" transform="matrix(0.195312 0 0 0.195312 0 3.05176e-05)" d="M170.355 124.627C170.888 123.603 170.575 122.469 171.194 121.432C172.915 120.679 178.283 126.016 180.091 127.121C192.404 134.642 201.546 117.773 204.691 123.179C200.605 142.053 175.99 143.15 170.355 124.627Z"/>
	<path fill="#FED859" transform="matrix(0.195312 0 0 0.195312 0 3.05176e-05)" d="M170.355 124.627C165.733 113.387 177.858 100.902 189.253 102.443C199.74 103.86 206.257 112.802 204.691 123.179C201.546 117.773 192.404 134.642 180.091 127.121C178.283 126.016 172.915 120.679 171.194 121.432C170.575 122.469 170.888 123.603 170.355 124.627Z"/>
	<path fill="#36598C" transform="matrix(0.195312 0 0 0.195312 0 3.05176e-05)" d="M340.762 323.504L340.722 306.812C340.667 289.571 344.009 291.111 354.793 300.107L361.814 306.077L373.735 316.29C376.569 318.748 379.345 321.353 382.424 323.504C386.897 323.812 391.318 323.552 395.793 323.512L417.031 323.483C421.32 323.484 426.214 323.023 430.394 324.109C445.393 328.005 444.698 341.341 444.706 353.199L444.717 407.73C444.722 421.81 446.306 441.82 426.781 444.521C420.899 445.334 413.597 444.753 407.55 444.75L299.125 444.76C287.56 444.783 274.165 444.35 271.452 429.515C270.577 424.732 271.254 417.913 271.253 412.874L271.233 373.779C271.153 370.644 271.082 367.571 271.233 364.435C271.292 352.991 268.616 337.782 277.124 329.244C284.988 321.351 297.322 323.498 307.437 323.497L340.762 323.504Z"/>
	<path fill="#31CBC9" transform="matrix(0.195312 0 0 0.195312 0 3.05176e-05)" d="M421.506 333.358C436.953 333.862 434.788 340.707 434.776 353.872L434.745 406.202C434.749 416.025 437.768 433.448 423.846 434.947C417.939 435.583 411.498 435.03 405.54 435.034L315.603 435.055C307.205 435.054 297.401 435.512 289.156 434.922C279.668 434.244 280.67 424.704 280.734 417.74C283.505 422.045 302.308 420.193 306.972 420.191L392.16 420.198C396.631 420.2 416.645 421.548 419.622 418.533C422.725 415.392 421.605 410.27 421.567 406.282L421.506 333.358Z"/>
	<path fill="#B6E5F5" transform="matrix(0.195312 0 0 0.195312 0 3.05176e-05)" d="M350.566 309.483C355.505 313.708 375.902 331.52 379.307 333.027C381.095 333.818 416.332 333.36 421.506 333.358L421.567 406.282C421.605 410.27 422.725 415.392 419.622 418.533C416.645 421.548 396.631 420.2 392.16 420.198L306.972 420.191C302.308 420.193 283.505 422.045 280.734 417.74L280.726 351.798C280.733 331.903 284.877 333.326 301.825 333.337L330.83 333.377C337.286 333.393 349.547 336.162 350.472 328.245C351.063 323.186 350.577 314.876 350.566 309.483Z"/>
	<path fill="#36598C" transform="matrix(0.195312 0 0 0.195312 0 3.05176e-05)" d="M323.476 348.301L323.737 348.281C340.617 347.157 350.021 366.011 337.296 379.838C353.242 382.422 351.716 399.208 351.307 411.764C347.593 417.178 334.888 414.777 328.375 414.761C324.167 414.769 303.765 415.53 301.432 413.974C297.522 411.367 296.316 382.855 313.577 379.838C311.295 376.495 308.792 373.18 308.006 369.12C305.997 358.733 313.543 350.078 323.476 348.301Z"/>
	<path fill="#EDADBC" transform="matrix(0.195312 0 0 0.195312 0 3.05176e-05)" d="M324.481 358.059C334.763 356.956 336.601 371.93 326.309 373.779C315.463 375.054 314.105 359.922 324.481 358.059Z"/>
	<path fill="#EDADBC" transform="matrix(0.195312 0 0 0.195312 0 3.05176e-05)" d="M323.476 388.108C339.433 386.731 341.811 391.659 341.767 405.042L328.375 405.042L308.79 405.042C308.633 392.134 310.128 388.772 323.476 388.108Z"/>
	<path fill="#36598C" transform="matrix(0.195312 0 0 0.195312 0 3.05176e-05)" d="M373.757 349.559L398.966 349.542C415.48 349.55 419.243 345.71 419.176 363.306L419.172 399.24C419.172 403.659 421.1 414.053 414.724 414.761C411.94 415.316 408.254 414.792 405.383 414.783L380.248 414.714C367.866 414.724 368.241 416.771 368.23 404.047L368.222 367.115C368.224 360.312 365.743 350.988 373.757 349.559Z"/>
	<path fill="#EBEAEA" transform="matrix(0.195312 0 0 0.195312 0 3.05176e-05)" d="M378.199 359.51L396.194 359.489C410.649 359.485 409.086 358.402 409.055 373.88L409.073 391.161C409.083 394.906 409.713 401.618 409.071 405.042C405.905 405.398 402.414 405.066 399.206 405.062L378.199 405.042L378.199 359.51Z"/>
	<path fill="#36598C" transform="matrix(0.195312 0 0 0.195312 0 3.05176e-05)" d="M387.941 370.729L398.002 370.729L398.002 394.067L387.941 394.067L387.941 370.729Z"/>
	<path fill="#B6E5F5" transform="matrix(0.195312 0 0 0.195312 0 3.05176e-05)" d="M240.967 147.83C319.117 136.486 381.658 212.451 359.243 287.599C357.983 291.825 355.928 295.888 354.793 300.107C344.009 291.111 340.667 289.571 340.722 306.812L340.762 323.504L307.437 323.497C297.322 323.498 284.988 321.351 277.124 329.244C268.616 337.782 271.292 352.991 271.233 364.435C263.501 364.201 255.795 364.655 248.069 363.976C194.985 359.306 150.622 313.148 149.265 259.683C148.48 228.753 158.766 202.629 180.071 180.273L208.05 180.268C236.376 180.264 241.046 176.702 240.967 147.83Z"/>
	<path fill="#36598C" transform="matrix(0.195312 0 0 0.195312 0 3.05176e-05)" d="M203.783 198.351C206.049 198.104 208.346 198.317 210.619 198.327L292.676 198.345C307.096 198.345 320.782 196.231 320.992 215.215C321.125 227.139 321.014 239.077 321.009 251.002C320.996 282.66 318.041 279.841 290.06 279.742L290.06 289.775C290.039 293.299 291.104 304.124 288.833 306.358C283.556 311.551 275.002 300.079 271.705 296.866C265.904 291.213 260.034 285.589 254.426 279.742L222.746 279.755C212.309 279.753 193.737 282.448 191.419 268.097C190.811 264.33 191.067 260.258 191.067 256.446L191.077 220.814C191.062 210.725 190.329 200.482 203.783 198.351Z"/>
	<path fill="#FDC03A" transform="matrix(0.195312 0 0 0.195312 0 3.05176e-05)" d="M200.74 256.53C203.373 257.048 206.802 256.56 209.528 256.551L280.505 256.527C290.646 256.525 301.544 258.116 311.27 254.772C311.275 258.871 311.373 262.991 311.27 267.087C305.54 275.027 283.692 266.517 280.583 271.642C279.279 273.79 280.196 288.188 280.029 291.761C275.335 286.704 262.883 273.973 257.58 270.117C251.193 270.007 205.208 271.416 202.128 268.667C199.785 266.575 200.744 259.525 200.74 256.53Z"/>
	<path fill="#FED859" transform="matrix(0.195312 0 0 0.195312 0 3.05176e-05)" d="M200.74 256.53L200.733 227.339C200.73 206.217 198.277 208.075 217.992 208.095L308.79 208.105C309.807 209.095 310.512 210.412 311.27 211.605C311.442 216.398 311.283 221.249 311.281 226.049L311.27 254.772C301.544 258.116 290.646 256.525 280.505 256.527L209.528 256.551C206.802 256.56 203.373 257.048 200.74 256.53Z"/>
	<path fill="#36598C" transform="matrix(0.195312 0 0 0.195312 0 3.05176e-05)" d="M213.006 218.498L255.693 218.498L255.693 228.254C241.469 228.405 227.231 228.263 213.006 228.254L213.006 218.498Z"/>
	<path fill="#36598C" transform="matrix(0.195312 0 0 0.195312 0 3.05176e-05)" d="M213.006 238.274L276.982 238.274L276.982 247.967L213.006 247.967L213.006 238.274Z"/>
</svg>
