<?xml version="1.0" encoding="utf-8" ?>
<svg xmlns="http://www.w3.org/2000/svg" xmlns:xlink="http://www.w3.org/1999/xlink" width="100" height="100">
	<path fill="#3361A4" transform="scale(0.195312 0.195312)" d="M104.366 73.2688C104.591 73.2525 104.817 73.2432 105.043 73.2429L397.227 73.2534C401.274 73.252 405.458 73.0526 409.476 73.5544C427.377 75.7903 429.682 90.8073 429.678 104.979L429.665 376.253C440.707 376.253 447.856 373.167 447.973 385.982L447.995 405.071C448.008 426.673 444.112 434.046 421.267 434.015L407.875 433.991L91.8672 434.001C79.7212 433.999 67.8402 434.425 64.1705 419.047C62.639 412.629 63.4675 390.738 63.5261 382.964C63.5968 373.584 76.2179 376.235 82.4789 376.253L82.4724 107.141C82.4776 90.2324 84.4193 76.1256 104.366 73.2688ZM95.0787 128.764L95.0787 376.253L417.166 376.253C417.393 375.804 417.135 151.276 417.166 128.764L95.0787 128.764Z"/>
	<path fill="#2E78E7" transform="scale(0.195312 0.195312)" d="M225.607 388.923C227.959 388.682 230.508 388.877 232.882 388.89L290.43 388.923C289.098 391.482 287.827 394.068 286.565 396.662L285.823 397.99L225.607 397.99C224.661 394.911 223.432 391.89 222.186 388.923L225.607 388.923Z"/>
	<path fill="#C6CAD2" transform="scale(0.195312 0.195312)" d="M112.213 86.1111L395.206 86.1045C402.775 86.1031 413.568 84.1857 416.318 93.5894C417.916 99.0557 417.183 110.597 417.166 116.537L401.062 116.537L95.0787 116.537C95.1128 98.6645 90.1643 86.3352 112.213 86.1111Z"/>
	<path fill="#23BE91" transform="scale(0.195312 0.195312)" d="M169.076 94.5522C177.858 95.5778 179.85 106.998 170.344 108.949C159.819 109.006 159.489 96.4147 169.076 94.5522Z"/>
	<path fill="#23BE91" transform="scale(0.195312 0.195312)" d="M143.627 94.5522C151.907 94.2056 154.805 107.262 144.519 108.949C136.23 110.092 133.099 96.9055 143.627 94.5522Z"/>
	<path fill="#23BE91" transform="scale(0.195312 0.195312)" d="M117.374 94.5522C127.192 94.553 128.934 105.954 120.149 108.949C110.156 109.672 107.811 96.8474 117.374 94.5522Z"/>
	<path fill="#EBEBEB" transform="scale(0.195312 0.195312)" d="M303.928 388.923L435.7 388.923L435.737 405.607C435.765 421.986 434.031 421.768 419.782 421.763L187.125 421.754L91.7759 421.789C77.5851 421.833 76.2405 422.319 76.2446 406.184L76.2667 388.923L208.717 388.923C217.591 407.729 212.673 410.156 231.536 410.157L274.752 410.159C298.27 410.15 293.335 412.365 303.928 388.923Z"/>
	<path fill="#60A9EB" transform="scale(0.195312 0.195312)" d="M286.565 235.321C290.691 234.55 321.783 235.189 323.173 235.848C329.468 238.833 327.517 247.245 321.318 248.733C313.243 248.396 282.635 251.934 281.082 243.094C280.357 238.974 282.463 235.813 286.565 235.321Z"/>
	<path fill="#60A9EB" transform="scale(0.195312 0.195312)" d="M347.867 235.321C353.602 235.231 383.928 234.3 387.256 236.579C392.361 240.076 390.05 247.754 382.22 248.733L357.991 248.753C354.019 248.767 349.353 249.244 345.442 248.552C338.204 247.272 336.161 236.026 347.867 235.321Z"/>
	<path fill="#3361A4" transform="scale(0.195312 0.195312)" d="M200.737 334.013C206.988 333.845 246.085 332.874 249.278 335.442C253.898 339.158 251.474 346.244 245.813 346.767L216.2 346.781C211.728 346.786 200.38 348.197 196.69 345.438C191.16 341.303 194.825 334.763 200.737 334.013Z"/>
	<path fill="#3361A4" transform="scale(0.195312 0.195312)" d="M130.314 334.013C141.33 333.837 164.5 332.697 174.924 334.079C183.618 335.232 182.94 346.61 173.71 346.767L141.94 346.765C138.358 346.767 132.439 347.232 129.221 346.894C120.924 346.021 121.289 335.075 130.314 334.013Z"/>
	<path fill="#60A9EB" transform="scale(0.195312 0.195312)" d="M286.565 175.501C301.213 174.939 322.272 174.655 336.82 175.535C345.397 176.053 347.396 185.291 339.203 188.823C325.025 189.356 302.572 189.839 288.501 188.775C279.744 188.112 278.021 177.599 286.565 175.501Z"/>
	<path fill="#60A9EB" transform="scale(0.195312 0.195312)" d="M287.743 207.937C294.532 207.775 301.349 207.934 308.143 207.936L370.672 207.924C375.821 207.89 388.87 205.732 389.827 213.303C390.431 218.079 387.664 220.674 383.249 221.145L300.102 221.157C296.231 221.165 286.76 222.233 283.487 219.92C278.709 216.543 280.767 208.556 287.743 207.937Z"/>
	<path fill="#8DCEFA" transform="scale(0.195312 0.195312)" d="M375.687 142.599C401.608 139.545 408.346 183.26 378.979 185.774C348.135 186.515 347.298 145.537 375.687 142.599Z"/>
	<path fill="#60A9EB" transform="scale(0.195312 0.195312)" d="M375.687 151.782C391.751 150.633 394.502 174.145 378.979 176.593C361.291 178.503 357.924 155.812 375.687 151.782Z"/>
	<path fill="#60A9EB" transform="scale(0.195312 0.195312)" d="M212.625 306.158L234.629 306.142C238.349 306.14 242.51 305.794 246.182 306.341C251.367 307.113 253.328 313.614 249.67 317.388C246.829 320.321 240.836 319.241 237.186 319.241L162.688 319.248L139.398 319.245C134.141 319.241 123.556 321.184 123.322 313.143C123.073 304.592 132.896 306.142 138.548 306.147L212.625 306.158Z"/>
	<path fill="#60A9EB" transform="scale(0.195312 0.195312)" d="M315.466 273.541L372.75 273.532C380.562 273.535 389.131 273.167 389.373 283.273C389.724 297.875 389.386 312.57 389.381 327.181L389.373 342.234C389.359 356.905 388.283 358.306 373.555 358.28L357.607 358.247L298.549 358.269C279.815 358.417 283.513 353.222 283.521 337.94L283.524 290.638C283.525 284.162 281.863 275.819 290.21 274.024C295.511 272.885 309.273 273.527 315.466 273.541Z"/>
	<path fill="#EBEBEB" transform="scale(0.195312 0.195312)" d="M328.15 293.529L342.023 293.529L342.023 309.806L359.755 309.806L359.755 324.196L342.023 324.196C342.012 329.655 342.202 335.14 342.023 340.594L328.15 340.594C328.066 335.133 328.147 329.658 328.15 324.196L311.255 324.196L311.255 309.806C316.86 309.615 322.538 309.798 328.15 309.806L328.15 293.529Z"/>
	<path fill="#2E78E7" transform="scale(0.195312 0.195312)" d="M187.919 150.606C224.083 146.858 257.109 178.25 260.109 213.406C263.513 253.297 234.986 283.64 195.812 287.062C157.995 289.596 125.493 260.412 122.676 222.916C119.773 184.279 149.951 153.304 187.919 150.606Z"/>
	<path fill="#EBEBEB" transform="scale(0.195312 0.195312)" d="M183.482 184.252C187.049 184.213 200.377 182.696 202.595 185.852C205.713 190.288 206.179 208.424 198.429 213.546C190.236 217.864 180.7 214.123 179.619 204.388C179.011 198.917 177.345 186.627 183.482 184.252Z"/>
	<path fill="#EBEBEB" transform="scale(0.195312 0.195312)" d="M154.98 261.417C154.855 253.531 154.05 244.649 160.036 238.564C169.612 228.83 181.435 232.801 192.945 232.775C202.321 232.755 206.847 229.95 216.019 234.76C228.902 241.517 227.914 247.932 228.025 261.417C226.698 262.655 225.27 263.933 223.678 264.823C206.002 278.557 178.349 276.3 160.07 264.823C158.42 263.623 156.801 262.347 154.98 261.417Z"/>
	<path fill="#E53E4E" transform="scale(0.195312 0.195312)" d="M160.07 256.64C181.251 256.311 202.491 256.64 223.678 256.64L223.678 264.823C206.002 278.557 178.349 276.3 160.07 264.823C159.739 262.007 159.692 259.452 160.07 256.64Z"/>
	<path fill="#8DCEFA" transform="scale(0.195312 0.195312)" d="M187.125 163.246C216.161 160.916 243.805 182.918 247.417 211.989C248.9 223.928 247.257 238.919 239.658 248.733C238.146 233.984 225.406 221.07 210.354 220.076C217.392 209.961 215.98 203.139 215.917 191.369C215.857 180.211 210.243 172.082 198.429 172.217C186.019 172.177 171.556 170.665 168.261 186.154C166.16 196.026 167.023 211.124 172.867 220.076C156.294 224.673 145.876 229.842 143.627 248.733C126.761 216.425 138.219 176.287 175.006 165.495C178.971 164.332 183.042 163.793 187.125 163.246Z"/>
</svg>
