<?xml version="1.0" encoding="utf-8" ?>
<svg xmlns="http://www.w3.org/2000/svg" xmlns:xlink="http://www.w3.org/1999/xlink" width="100" height="100">
	<path fill="#FB7372" transform="scale(0.195312 0.195312)" d="M154.391 85.7949C155.545 80.9789 158.109 88.9537 159.103 90.2697C166.254 99.7331 179.636 97.0481 190.002 97.0495C203.868 97.0514 226.385 101.122 228.423 81.6353C228.85 77.5493 226.818 75.4631 231.729 76.32C232.739 108.362 213.73 104.186 188.682 104.271C172.362 104.326 157.514 106.239 154.391 85.7949Z"/>
	<path fill="#FBFCFC" transform="scale(0.195312 0.195312)" d="M257.705 61.2697C277.491 61.1623 313.105 63.5882 330.628 74.1573C330.099 77.3118 328.156 80.9326 326.74 83.7957C324.992 82.9239 323.18 82.3302 321.314 81.767C293.988 72.3768 275.029 71.212 247.288 72.6972C247.543 68.94 247.31 65.0436 247.288 61.2697C250.906 61.8305 254.093 61.6163 257.705 61.2697Z"/>
	<path fill="#FBFCFC" transform="scale(0.195312 0.195312)" d="M143.705 105.457L143.891 105.705C142.825 127.651 145.217 117.143 130.288 132.665C112.58 151.077 99.9243 173.039 92.2388 197.297C89.6471 205.477 89.5927 204.858 81.0561 203.265C78.1552 202.944 80.519 197.137 80.9507 195.553C89.089 165.687 115.507 121.556 143.705 105.457Z"/>
	<path fill="#FBFCFC" transform="scale(0.195312 0.195312)" d="M447.813 197.577C451.08 197.195 451.68 198.337 452.703 201.286C464.253 234.554 464.578 279.538 454.142 312.583C452.833 316.728 451.11 329.678 445.351 326.384C442.664 325.464 440.463 324.039 438.319 322.207C450.433 292.826 451.904 258.816 446.944 227.776C445.587 219.288 441.741 208.197 441.733 200.11C443.493 198.421 445.464 197.871 447.813 197.577Z"/>
	<path fill="#526193" transform="scale(0.195312 0.195312)" d="M109.096 217.745L109.081 194.75C109.08 190.089 108.511 184.42 109.618 179.893C112.862 166.618 123.315 165.525 134.236 165.52L197.958 165.522C197.85 170.019 197.94 174.53 197.958 179.029L136.632 179.015C122.805 178.998 122.215 177.97 122.214 192.812L122.244 208.442C121.995 211.518 122.263 214.658 122.244 217.745C117.866 217.635 113.475 217.724 109.096 217.745Z"/>
	<path fill="#5B92F4" transform="scale(0.195312 0.195312)" d="M389.021 74.1573L389.299 74.2776C389.802 75.0143 398.371 130.509 398.91 134.1C381.439 128.732 361.55 123.986 343.656 119.757L346.91 116.667C350.77 112.982 354.41 109.07 358.338 105.457C353.553 99.7941 347.96 94.7236 342.896 89.286C345.892 86.4537 348.742 83.4656 351.613 80.5072C356.848 85.6636 362.794 91.1898 367.232 97.0336C372.06 90.4288 382.85 80.0652 389.021 74.1573Z"/>
	<path fill="#5575C0" transform="scale(0.195312 0.195312)" d="M207.568 434.08C210.335 434.59 213.765 434.106 216.622 434.093L302.734 434.115C313.434 434.113 324.278 433.672 334.964 434.08C335.105 434.214 362.268 434.079 364.476 434.08L364.476 445.327C357.618 445.519 350.703 445.33 343.838 445.33L178.18 445.327L178.18 434.08L201.151 434.077C202.969 434.086 206.01 435.044 207.568 434.08Z"/>
	<path fill="#FC9190" transform="scale(0.195312 0.195312)" d="M154.391 85.7949C153.121 75.7154 160.05 64.593 170.472 63.2222C177.029 62.3597 213.398 62.5077 218.103 63.6238C225.232 65.3146 228.202 70.5066 231.729 76.32C226.818 75.4631 228.85 77.5493 228.423 81.6353C226.385 101.122 203.868 97.0514 190.002 97.0495C179.636 97.0481 166.254 99.7331 159.103 90.2697C158.109 88.9537 155.545 80.9789 154.391 85.7949Z"/>
	<path fill="#526193" transform="scale(0.195312 0.195312)" d="M370.254 165.522L396.964 165.508C419.07 165.512 431.757 163.276 431.736 189.689L431.72 365.29C427.463 365.251 423.017 365.716 418.79 365.29L418.79 179.029C413.898 179.456 408.66 179.043 403.722 179.04L371.23 179.029L370.56 178.932C369.765 177.536 370.243 167.802 370.254 165.522Z"/>
	<path fill="#526193" transform="scale(0.195312 0.195312)" d="M219.729 397.257C225.728 397.709 231.812 397.609 237.827 397.665L304.032 397.578C310.078 397.555 316.238 397.773 322.265 397.257C323.41 401.091 324.963 404.835 325.734 408.764C328.425 412.634 333.302 428.898 334.964 434.08C324.278 433.672 313.434 434.113 302.734 434.115L216.622 434.093C213.765 434.106 210.335 434.59 207.568 434.08C209.477 425.861 212.656 417.665 215.581 409.751C216.998 405.597 218.4 401.441 219.729 397.257Z"/>
	<path fill="#364C8E" transform="scale(0.195312 0.195312)" d="M219.729 397.257C225.728 397.709 231.812 397.609 237.827 397.665L304.032 397.578C310.078 397.555 316.238 397.773 322.265 397.257C323.41 401.091 324.963 404.835 325.734 408.764C323.317 410.944 305.751 409.752 301.626 409.752L228.809 409.755C224.595 409.757 219.69 410.722 215.581 409.751C216.998 405.597 218.4 401.441 219.729 397.257Z"/>
	<path fill="#5575C0" transform="scale(0.195312 0.195312)" d="M108.52 354.713C113.635 354.994 118.857 354.721 123.986 354.713C123.978 358.23 123.871 361.777 123.986 365.29L418.79 365.29C423.017 365.716 427.463 365.251 431.72 365.29C431.778 392.095 428.526 397.255 400.482 397.27L322.265 397.257C316.238 397.773 310.078 397.555 304.032 397.578L237.827 397.665C231.812 397.609 225.728 397.709 219.729 397.257C212.105 397.091 204.445 397.264 196.818 397.266L136.803 397.268C112.146 397.284 108.46 393.19 108.502 370.747L108.52 354.713Z"/>
	<path fill="#5B92F4" transform="scale(0.195312 0.195312)" d="M265.749 372.81C275.5 371.718 278.875 383.467 269.985 386.697C260.6 388.039 256.955 376.982 265.749 372.81Z"/>
	<path fill="#E0E5F4" transform="scale(0.195312 0.195312)" d="M197.958 165.522C198.196 163.53 197.95 161.208 197.949 159.182L197.95 134.709C198.004 117.883 194.968 113.545 213.823 113.483L298.726 113.481C304.392 113.48 321.425 111.934 325.734 115.34C333.269 120.32 343.416 132.44 349.985 139.047L363.336 152.471C365.657 154.829 368.587 157.187 370.254 160.057C370.29 161.872 370.385 163.711 370.254 165.522C370.243 167.802 369.765 177.536 370.56 178.932L371.23 179.029L370.474 179.367C369.588 182.294 370.459 187.27 369.988 190.601L197.958 190.601C197.459 186.907 197.923 182.775 197.958 179.029C197.94 174.53 197.85 170.019 197.958 165.522Z"/>
	<path fill="#5B92F4" transform="scale(0.195312 0.195312)" d="M215.023 148.224L264.918 148.224L264.918 156.969L215.023 156.969L215.023 148.224Z"/>
	<path fill="#5B92F4" transform="scale(0.195312 0.195312)" d="M215.023 164.992L264.918 164.992L264.918 173.98C248.323 174.368 231.628 173.981 215.023 173.98L215.023 164.992Z"/>
	<path fill="#5B92F4" transform="scale(0.195312 0.195312)" d="M215.023 131.268L264.918 131.268L264.918 140.247L215.023 140.247L215.023 131.268Z"/>
	<path fill="#FB7372" transform="scale(0.195312 0.195312)" d="M294.318 134.857L302.269 134.857L302.269 146.11L313.74 146.11L313.74 162.142L302.269 162.142L302.269 173.98C300.313 173.628 298.661 173.573 296.707 173.98C293.566 174.011 289.52 173.241 286.515 173.98L286.515 162.142L275.583 162.142L275.583 146.11L286.515 146.11L286.515 134.857C289.114 134.949 291.719 134.884 294.318 134.857Z"/>
	<path fill="#C2CCE4" transform="scale(0.195312 0.195312)" d="M325.734 115.34C333.269 120.32 343.416 132.44 349.985 139.047L363.336 152.471C365.657 154.829 368.587 157.187 370.254 160.057C367.212 160.54 363.126 160.097 359.972 160.081L337.676 160.086C322.354 160.151 325.712 150.334 325.722 139.023C325.728 131.141 325.535 123.216 325.734 115.34Z"/>
	<path fill="#E0E5F4" transform="scale(0.195312 0.195312)" d="M122.244 208.442C122.505 211.519 122.222 214.657 122.244 217.745C125.725 217.686 132.159 216.969 135.255 218.149C139.419 219.736 150.095 233.071 153.495 236.733C160.397 244.166 170.412 250.694 170.506 260.681L170.516 335.523C170.509 344.499 170.755 354.855 159.034 354.794L123.986 354.713C118.857 354.721 113.635 354.994 108.52 354.713C105.877 354.25 102.807 354.647 100.112 354.676L78.821 354.726C71.6508 354.735 62.6332 356.162 56.7908 351.002C48.4405 343.627 51.2173 326.171 51.2167 315.648L51.2249 244.498C51.2259 236.012 48.7593 220.694 60.0722 218.373C71.2539 216.078 96.5316 218.103 109.096 217.745C113.475 217.724 117.866 217.635 122.244 217.745C122.263 214.658 121.995 211.518 122.244 208.442Z"/>
	<path fill="#5B92F4" transform="scale(0.195312 0.195312)" d="M88.643 245.11L116.331 245.11L116.331 254.029L98.8125 254.029L69.875 254.029L69.875 245.11L88.643 245.11Z"/>
	<path fill="#5B92F4" transform="scale(0.195312 0.195312)" d="M150.34 282.938L150.365 282.956C150.797 283.702 150.345 290.122 150.34 291.488L69.875 291.488C69.3871 290.558 69.844 284.406 69.875 282.938L150.34 282.938Z"/>
	<path fill="#5B92F4" transform="scale(0.195312 0.195312)" d="M69.875 301.501C78.6543 301.126 87.6117 301.497 96.4121 301.499L150.34 301.501C150.256 304.381 150.253 307.236 150.34 310.116L69.875 310.116L69.875 301.501Z"/>
	<path fill="#5B92F4" transform="scale(0.195312 0.195312)" d="M69.875 319.996L150.34 319.996L150.34 328.997C147.481 329.16 144.53 329.005 141.663 329.003L69.875 328.997C69.976 325.999 69.9045 322.995 69.875 319.996Z"/>
	<path fill="#5B92F4" transform="scale(0.195312 0.195312)" d="M69.875 263.957L150.34 263.957C150.225 266.979 150.279 269.987 150.34 273.01L69.875 273.01C69.953 269.994 69.8949 266.973 69.875 263.957Z"/>
	<path fill="#FBFCFC" transform="scale(0.195312 0.195312)" d="M122.244 208.442L122.214 192.812C122.215 177.97 122.805 178.998 136.632 179.015L197.958 179.029C197.923 182.775 197.459 186.907 197.958 190.601L369.988 190.601C370.459 187.27 369.588 182.294 370.474 179.367L371.23 179.029L403.722 179.04C408.66 179.043 413.898 179.456 418.79 179.029L418.79 365.29L123.986 365.29C123.871 361.777 123.978 358.23 123.986 354.713L159.034 354.794C170.755 354.855 170.509 344.499 170.516 335.523L170.506 260.681C170.412 250.694 160.397 244.166 153.495 236.733C150.095 233.071 139.419 219.736 135.255 218.149C132.159 216.969 125.725 217.686 122.244 217.745C122.222 214.657 122.505 211.519 122.244 208.442Z"/>
	<path fill="#C2CCE4" transform="scale(0.195312 0.195312)" d="M197.958 302.955C203.741 310.559 213.79 308.297 222.681 308.292L349.608 308.316C357.084 308.324 364.509 309.923 369.988 303.748C371.158 325.525 370.704 326.403 351.685 326.393L214.8 326.402C210.553 326.421 202.987 327.551 199.971 323.842C197.148 320.37 197.432 307.99 197.958 302.955Z"/>
	<path fill="#526193" transform="scale(0.195312 0.195312)" d="M197.958 190.601L369.988 190.601L370.005 292.61C370.012 296.239 370.37 300.159 369.988 303.748C364.509 309.923 357.084 308.324 349.608 308.316L222.681 308.292C213.79 308.297 203.741 310.559 197.958 302.955C197.741 298.352 197.931 293.711 197.95 289.102L197.958 190.601Z"/>
	<path fill="#FBFCFC" transform="scale(0.195312 0.195312)" d="M222.198 226.283L251.996 226.283C252.181 229.303 252.131 232.278 251.996 235.295C244.119 235.566 236.147 235.306 228.261 235.295L228.261 245.11C233.596 245.115 244.761 244.384 249.522 245.11L249.522 254.029C246.084 253.951 228.304 252.539 228.261 255.187L228.261 263.234L251.996 263.234C252.897 266.725 252.794 269.525 251.996 273.01C242.891 272.815 218.517 274.39 218.612 271.441L218.4 271.723C217.148 258.949 218.07 239.402 218.237 226.283C219.55 226.213 220.883 226.271 222.198 226.283Z"/>
	<path fill="#FBFCFC" transform="scale(0.195312 0.195312)" d="M313.74 226.283C319.452 226.048 332.341 225.599 337.303 226.82C352.607 230.584 355.101 249.101 340.602 257.219C342.588 259.594 350.608 268.686 349.58 271.977C348.604 272.833 344.979 272.86 343.656 273.01L340.602 273.01C337.187 268.699 333.284 263.209 330.628 258.416L322.265 258.416C322.264 263.28 322.36 268.146 322.265 273.01C318.95 272.736 315.802 272.841 312.488 273.01C312.528 267.902 312.051 227.811 312.713 226.53L313.74 226.283Z"/>
	<path fill="#526193" transform="scale(0.195312 0.195312)" d="M322.265 235.295C329.657 235.284 347.162 235.11 338.007 247.455C333.728 250.249 327.197 249.304 322.265 249.286C322.302 244.749 321.711 239.766 322.265 235.295Z"/>
	<path fill="#FBFCFC" transform="scale(0.195312 0.195312)" d="M260.184 226.283C262.771 226.142 265.397 226.258 267.988 226.283C271.784 233.574 276.911 240.381 281.149 247.455C284.928 240.101 289.923 233.288 294.318 226.283C297.727 226.331 301.133 226.308 304.542 226.283C304.651 241.843 304.727 257.451 304.542 273.01C301.098 272.781 297.767 272.814 294.318 273.01C294.196 267.758 294.31 262.474 294.318 257.219L294.318 244.295C291.969 247.81 285.426 258.672 282.95 260.961C278.931 264.678 270.553 248.557 267.988 245.11L267.988 273.01C264.462 272.646 261.223 272.731 257.705 273.01L257.696 241.356C257.696 236.418 255.39 226.652 260.184 226.283Z"/>
</svg>
