<?xml version="1.0" encoding="utf-8" ?>
<svg xmlns="http://www.w3.org/2000/svg" xmlns:xlink="http://www.w3.org/1999/xlink" width="100" height="100">
	<path fill="#FED12D" transform="scale(0.195312 0.195312)" d="M159.359 214.048C157.595 209.157 162.383 205.22 162.468 214.048L159.359 214.048Z"/>
	<path fill="#FED12D" transform="scale(0.195312 0.195312)" d="M346.783 214.048C345.646 207.377 350.001 202.673 350.253 214.048L346.783 214.048Z"/>
	<path fill="#FED12D" transform="scale(0.195312 0.195312)" d="M160.287 158.173L161.387 158.289C163.697 160.088 162.97 168.113 161.544 170C157.169 169.118 157.972 160.687 160.287 158.173Z"/>
	<path fill="#FED12D" transform="scale(0.195312 0.195312)" d="M159.359 173.807C165.174 173.778 162.515 183.968 161.544 185.426C156.968 185.69 158.212 176.266 159.359 173.807Z"/>
	<path fill="#FED12D" transform="scale(0.195312 0.195312)" d="M347.911 139.809C352.691 139.517 350.137 150.947 349.251 151.919C343.955 151.146 346.52 140.993 347.911 139.809Z"/>
	<path fill="#FED12D" transform="scale(0.195312 0.195312)" d="M347.911 189.947L349.298 190.042C351.543 191.651 350.544 202.542 349.251 204.437C344.173 202.027 346.548 191.213 347.911 189.947Z"/>
	<path fill="#FED12D" transform="scale(0.195312 0.195312)" d="M347.911 172.419C352.359 172.866 350.698 185.165 349.251 186.413C343.911 185.525 346.362 174.227 347.911 172.419Z"/>
	<path fill="#FED12D" transform="scale(0.195312 0.195312)" d="M347.911 155.735C352.459 155.645 350.897 167.084 349.251 169.183C344.257 167.503 345.884 157.246 347.911 155.735Z"/>
	<path fill="#FED12D" transform="scale(0.195312 0.195312)" d="M159.359 189.947C165.683 189.61 162.309 203.191 161.544 204.437C155.565 205.053 159.005 190.42 159.359 189.947Z"/>
	<path fill="#FED12D" transform="scale(0.195312 0.195312)" d="M166.417 143.142C173.332 143.263 170.328 146.862 162.468 146.793C162.55 149.268 162.777 151.836 162.468 154.297C156.711 155.437 158.056 146.892 159.938 143.949C161.552 142.86 164.487 143.176 166.417 143.142Z"/>
	<path fill="#425FA2" transform="scale(0.195312 0.195312)" d="M252.809 60.1446C280.226 59.1143 312.247 70.3029 327.404 94.1276C347.717 91.8889 343.657 94.4763 343.618 112.499C347.372 112.16 354.848 110.201 356.109 115.29C355.517 118.513 340.731 133.415 337.609 136.219C334.697 138.834 333.087 138.974 330.59 136.018C318.281 161.131 290.124 171.697 263.493 173.294C256.391 173.72 249.274 172.981 242.211 173.494C240.892 174.158 239.935 174.723 239.027 175.923C235.384 178.557 220.904 193.279 217.749 189.635C215.96 187.568 218.212 171.084 218.462 167.431C203.63 163.375 184.005 150.774 177.767 136.579C176.276 138.096 174.056 139.896 171.913 138.41C169.452 136.704 151.994 117.028 151.861 115.372C151.513 111.052 161.843 112.48 164.25 112.499C164.244 109.913 163.309 95.1538 165.313 94.3817C167.025 93.7217 180.423 93.9874 182.402 94.7344C190.362 72.3286 231.594 60.6681 252.809 60.1446ZM183.274 97.7801C183.221 101.961 181.25 112.179 185.721 112.499L187.629 112.374C188.368 111.736 188.254 110.87 188.452 109.928C190.863 98.4508 202.91 86.7085 212.471 80.4593C231.05 68.3153 256.466 65.4833 277.883 70.0503C291.991 73.0587 312.505 81.7457 320.5 94.1276C320.704 93.9592 320.947 93.8232 321.17 93.6796L322.255 94.1276C298.628 58.0882 235.936 56.9453 202.139 79.0281C193.322 84.7889 189.772 90.1557 183.274 97.7801Z"/>
	<path fill="#FDFDFC" transform="scale(0.195312 0.195312)" d="M194.462 116.752C195.925 120.659 188.387 126.733 187.072 130.535C194.944 153.825 217.1 159.509 219.451 164.018C198.376 155.535 193.192 150.702 179.74 134.413C184.189 128.201 190.374 123.216 194.462 116.752Z"/>
	<path fill="#FAA082" transform="scale(0.195312 0.195312)" d="M330.59 97.7801C333.645 97.8636 336.706 97.8037 339.762 97.7801C339.167 116.865 336.332 115.776 351.608 116.052C346.73 120.94 341.433 126.01 337.216 131.469L334.658 134.413C329.037 129.733 323.11 121.51 317.571 116.052C321.276 115.896 325.061 116.167 328.741 115.702C329.1 110.695 326.738 98.0739 330.59 97.7801Z"/>
	<path fill="#FAA082" transform="scale(0.195312 0.195312)" d="M167.757 97.7801L179.74 97.7801C179.689 115.119 175.521 116.159 190.204 116.052C186.043 121.395 181.293 126.498 176.689 131.469C175.677 132.727 174.707 133.905 173.48 134.965C168.242 129.714 161.381 122.108 157.112 116.052C171.924 115.516 167.812 117.147 167.757 97.7801Z"/>
	<path fill="#56DEE9" transform="scale(0.195312 0.195312)" d="M322.255 126.942C324.474 129.103 326.549 131.39 328.741 133.571L328.47 133.918C325.747 137.432 323.884 141.38 320.9 144.745C301.822 166.255 268.975 172.764 241.359 169.183C236.307 171.793 225.655 182.397 221.182 186.413C221.039 184.562 220.641 182.25 221.182 180.441C222.297 180.225 235.653 166.492 239.027 164.018C261.338 164.624 290.196 158.269 307.113 143.835C312.843 138.946 317.586 132.806 322.255 126.942Z"/>
	<path fill="#95E7F8" transform="scale(0.195312 0.195312)" d="M185.721 112.499L187.629 112.374C188.368 111.736 188.254 110.87 188.452 109.928C190.863 98.4508 202.91 86.7085 212.471 80.4593C231.05 68.3153 256.466 65.4833 277.883 70.0503C291.991 73.0587 312.505 81.7457 320.5 94.1276C320.704 93.9592 320.947 93.8232 321.17 93.6796L322.255 94.1276C323.347 95.2431 324.435 96.3138 325.052 97.7801L325.052 112.499C305.593 112.498 311.798 115.443 322.255 126.942C317.586 132.806 312.843 138.946 307.113 143.835C290.196 158.269 261.338 164.624 239.027 164.018C235.653 166.492 222.297 180.225 221.182 180.441C221.236 175.405 222.342 170.409 222.42 165.361L219.451 164.018C217.1 159.509 194.944 153.825 187.072 130.535C188.387 126.733 195.925 120.659 194.462 116.752C197.964 111.864 187.964 112.64 185.985 112.517L185.721 112.499Z"/>
	<defs>
		<linearGradient id="gradient_0" gradientUnits="userSpaceOnUse" x1="323.64578" y1="97.068359" x2="320.98395" y2="93.010536">
			<stop offset="0" stop-color="#E7FFFF"/>
			<stop offset="1" stop-color="white"/>
		</linearGradient>
	</defs>
	<path fill="url(#gradient_0)" transform="scale(0.195312 0.195312)" d="M320.5 94.1276C320.704 93.9592 320.947 93.8232 321.17 93.6796L322.255 94.1276C323.347 95.2431 324.435 96.3138 325.052 97.7801C324.224 99.6871 321.143 94.8887 320.5 94.1276Z"/>
	<path fill="#FDFDFC" transform="scale(0.195312 0.195312)" d="M303.416 134.413C310.763 138.83 304.587 142.518 302.178 136.579C302.729 135.922 303.05 135.184 303.416 134.413Z"/>
	<path fill="#FDFDFC" transform="scale(0.195312 0.195312)" d="M303.416 110.412C304.297 110.33 306.954 112.082 307.691 112.718C313.836 118.024 302.357 125.016 298.293 126.942C296.87 125.72 295.36 124.547 294.298 122.983C301.014 121.545 303.593 117.056 303.416 110.412Z"/>
	<path fill="#FDFDFC" transform="scale(0.195312 0.195312)" d="M231.021 134.413L231.227 133.805C232.108 134.179 233.093 134.57 233.942 134.965C234.227 135.5 234.493 136.067 234.815 136.579C234.088 145.42 208.489 140.773 208.302 140.657C207.028 139.867 207.03 137.335 206.933 136.018L220.85 136.055C223.683 136.06 229.21 137.159 231.021 134.413Z"/>
	<path fill="#FDFDFC" transform="scale(0.195312 0.195312)" d="M268.26 104.867C269.481 104.163 272.627 104.739 274.03 104.867C274.014 109.611 273.576 116.26 274.03 120.785L274.03 134.965C272.677 139.433 272.053 142.507 266.915 140.04L266.444 139.809C265.842 138.738 265.334 137.784 265.032 136.579C266.036 136.439 267.212 136.378 267.928 135.569C268.615 134.792 268.262 108.081 268.26 104.867Z"/>
	<path fill="#FDFDFC" transform="scale(0.195312 0.195312)" d="M279.001 122.983L287.975 122.983C291.031 126.515 296.646 135.31 299.931 137.546C298.288 148.866 286.304 130.515 284.977 128.486C285.179 148.846 277.143 138.351 277.103 136.579C280.862 134.868 278.964 127.025 279.001 122.983Z"/>
	<path fill="#425FA2" transform="scale(0.195312 0.195312)" d="M274.03 120.785C274.512 117.212 273.148 105.135 274.534 102.678C275.028 101.804 300.283 96.1094 303.416 110.412C303.593 117.056 301.014 121.545 294.298 122.983C295.36 124.547 296.87 125.72 298.293 126.942C299.322 130.09 301.599 131.797 303.416 134.413C303.05 135.184 302.729 135.922 302.178 136.579C301.434 136.963 300.725 137.279 299.931 137.546C296.646 135.31 291.031 126.515 287.975 122.983L279.001 122.983C278.964 127.025 280.862 134.868 277.103 136.579C275.816 136.259 275.005 135.892 274.03 134.965L274.03 120.785Z"/>
	<path fill="#FDFDFC" transform="scale(0.195312 0.195312)" d="M279.001 106.234C284.807 106.217 301.509 103.695 298.293 114.502C295.133 119.756 287.882 118.035 282.704 118.033L279.001 118.033L279.001 106.234Z"/>
	<path fill="#95E7F8" transform="scale(0.195312 0.195312)" d="M282.704 112.499C288.187 112.483 293.253 111.995 298.293 114.502C295.133 119.756 287.882 118.035 282.704 118.033C282.603 116.184 282.654 114.348 282.704 112.499Z"/>
	<path fill="#425FA2" transform="scale(0.195312 0.195312)" d="M233.942 112.499C234.127 110.524 232.515 98.7518 238.369 101.504C240.191 102.361 250.401 125.15 251.693 128.486C253.595 124.234 262.193 97.1176 267.39 102.016C268.265 102.84 268.236 103.746 268.26 104.867C268.262 108.081 268.615 134.792 267.928 135.569C267.212 136.378 266.036 136.439 265.032 136.579C263.831 135.664 263.57 135.056 263.28 133.571C260.796 134.447 260.012 137.88 258.443 139.809C254.787 140.729 249.383 141.455 249.756 136.018C248.551 133.883 247.494 131.811 246.839 129.439C243.765 131.085 245.533 136.805 243.716 139.809C240.553 140.762 237.71 140.749 238.074 136.579C236.937 136.73 235.954 136.711 234.815 136.579C234.493 136.067 234.227 135.5 233.942 134.965C234.504 131.854 234.06 122.324 233.942 118.965L233.942 116.752L233.942 112.499Z"/>
	<path fill="#FDFDFC" transform="scale(0.195312 0.195312)" d="M239.027 114.502C241.935 119.308 244.1 124.531 246.839 129.439C243.765 131.085 245.533 136.805 243.716 139.809C240.553 140.762 237.71 140.749 238.074 136.579C239.895 134.669 239.059 130.442 239.057 128.006L239.027 114.502Z"/>
	<path fill="#FDFDFC" transform="scale(0.195312 0.195312)" d="M263.28 114.502L263.28 133.571C260.796 134.447 260.012 137.88 258.443 139.809C254.787 140.729 249.383 141.455 249.756 136.018C254.677 138.337 256.397 130.386 257.807 127.097L263.28 114.502Z"/>
	<path fill="#425FA2" transform="scale(0.195312 0.195312)" d="M206.933 136.018C204.75 135.976 203.244 136.007 203.215 133.517C203.143 127.494 203.485 121.418 203.466 115.381C203.451 110.44 200.906 101.879 206.854 101.511C211.457 101.227 228.753 99.5394 230.498 103.806C235.732 105.822 233.385 107.628 233.942 112.499L233.942 116.752L233.942 118.965C234.06 122.324 234.504 131.854 233.942 134.965C233.093 134.57 232.108 134.179 231.227 133.805L231.021 134.413C229.21 137.159 223.683 136.06 220.85 136.055L206.933 136.018Z"/>
	<path fill="#FDFDFC" transform="scale(0.195312 0.195312)" d="M230.498 103.806C235.732 105.822 233.385 107.628 233.942 112.499L233.942 116.752C231.877 116.662 229.839 116.064 227.786 116.052C222.656 116.486 217.177 116.066 212.002 116.052L207.691 116.052L207.691 106.234C213.056 106.216 228.801 108.583 230.498 103.806Z"/>
	<path fill="#95E7F8" transform="scale(0.195312 0.195312)" d="M233.942 112.499L233.942 116.752C231.877 116.662 229.839 116.064 227.786 116.052C222.656 116.486 217.177 116.066 212.002 116.052L212.002 112.499L233.942 112.499Z"/>
	<path fill="#FDFDFC" transform="scale(0.195312 0.195312)" d="M227.786 116.052C229.839 116.064 231.877 116.662 233.942 116.752L233.942 118.965C234.06 122.324 234.504 131.854 233.942 134.965C233.093 134.57 232.108 134.179 231.227 133.805L231.021 134.413C229.932 130.272 227.053 131.425 223.531 131.434L212.002 131.469L207.691 131.469L207.691 120.785C212.928 120.794 233.034 124.277 227.786 116.052Z"/>
	<path fill="#95E7F8" transform="scale(0.195312 0.195312)" d="M233.942 118.965C234.06 122.324 234.504 131.854 233.942 134.965C233.093 134.57 232.108 134.179 231.227 133.805L231.021 134.413C229.932 130.272 227.053 131.425 223.531 131.434L212.002 131.469C211.87 124.052 227.942 126.487 233.942 126.942C233.776 124.274 233.727 121.63 233.942 118.965Z"/>
	<path fill="#425FA2" transform="scale(0.195312 0.195312)" d="M159.359 214.048L162.468 214.048L346.783 214.048L350.253 214.048C361.251 214.038 372.273 213.875 383.268 214.079C399.891 214.388 398.084 226.407 398.076 239.333C398.072 245.18 398.247 251.049 398.071 256.893L415.158 256.872C428.227 256.865 438.339 256.711 438.361 272.663L438.363 418.18C438.364 428.13 440.668 444.772 427.066 447.676C422.986 448.548 418.549 448.255 414.394 448.246L344.788 448.269C324.726 448.28 326.149 438.336 326.226 421.973C321.512 422.235 316.685 421.988 311.959 421.983L105.494 421.984C91.9543 422.004 76.2497 422.115 74.3509 403.681C74.1514 401.744 73.6064 396.767 74.9738 395.342C75.9762 394.296 104.47 394.703 108.214 394.706C107.603 382.406 108.214 369.948 108.215 357.63L108.22 242.95C108.211 218.784 103.717 214.026 132.253 214.039L159.359 214.048Z"/>
	<path fill="#CEDAF0" transform="scale(0.195312 0.195312)" d="M330.088 234.12C339.313 238.343 336.037 248.53 336.003 258.109C334.249 258.912 332.686 259.777 331.234 261.069C330.247 258.672 330.064 238.243 330.088 234.12Z"/>
	<path fill="#FDFDFC" transform="scale(0.195312 0.195312)" d="M292.33 382.771L326.226 382.771L326.226 394.706L322.255 394.706C311.086 394.698 299.832 395.024 288.675 394.706C292.639 391.338 292.375 387.655 292.33 382.771Z"/>
	<path fill="#64B6FD" transform="scale(0.195312 0.195312)" d="M339.762 236.809C352.302 236.81 364.871 236.613 377.408 236.809L377.408 256.893L339.762 256.893C340.036 250.235 339.741 243.48 339.762 236.809Z"/>
	<path fill="#FAA082" transform="scale(0.195312 0.195312)" d="M352.498 260.495L408.568 260.495C407.347 264.738 405.475 268.938 403.881 273.062C403.242 274.813 402.385 276.443 401.536 278.099L361.243 278.099C359.108 272.079 355.336 266.241 352.498 260.495Z"/>
	<path fill="#425FA2" transform="scale(0.195312 0.195312)" d="M365.779 266.485C370.13 266.486 395.412 266.054 396.896 266.634C398.419 267.229 397.905 269.228 397.236 270.257C393.592 270.413 367.585 270.665 365.511 269.829C364.468 268.637 364.875 267.706 365.779 266.485Z"/>
	<path fill="#7496D5" transform="scale(0.195312 0.195312)" d="M213.794 382.771L288.675 382.771C288.709 387.079 288.749 390.418 284.977 393.331C277.079 396.29 257.462 394.694 248.486 394.694C241.808 394.694 217.283 396.863 213.287 391.746C211.096 388.94 210.653 385.027 213.794 382.771Z"/>
	<path fill="#CEDAF0" transform="scale(0.195312 0.195312)" d="M326.226 360.97C326.11 358.961 325.9 356.861 326.226 354.868L326.226 369.262L202.741 369.273C192.889 369.285 181.786 372.932 181.562 360.97L326.226 360.97Z"/>
	<path fill="#83D3A2" transform="scale(0.195312 0.195312)" d="M412.154 260.495C422.892 260.555 434.251 257.331 434.491 271.837C434.693 284.071 434.507 296.343 434.509 308.58L434.508 416.998C434.504 440.363 437.736 444.95 409.618 444.935L359.567 444.931C352.703 444.935 337.322 446.727 332.448 441.18C329.168 437.446 330.059 432.461 330.066 427.885L330.08 282.627C330.081 275.176 328.496 268.479 334.658 263.071C339.009 260.274 344.288 260.765 349.251 260.495C351.267 266.668 354.938 272.036 357.053 278.099C336.605 278.022 337.151 274.098 337.206 292.512L337.211 384.079C337.206 395.061 336.774 406.245 337.273 417.207C337.795 428.667 346.336 427.344 355.353 427.286L403.384 427.264C408.481 427.268 413.773 427.586 418.849 427.229C431.015 426.374 427.777 411.215 427.748 402.763L427.741 315.053C427.741 310.321 429.069 283.058 426.558 280.242C423.291 276.577 410.137 278.638 405.209 278.099C407.619 272.228 410.094 266.509 412.154 260.495Z"/>
	<path fill="#425FA2" transform="scale(0.195312 0.195312)" d="M378.108 434.089C378.559 434.089 398.127 432.945 393.746 437.482C391.845 439.451 388.561 439.06 386.063 439.009C385.088 439.011 364.293 440.748 370.216 434.986C371.669 433.574 376.192 434.108 378.108 434.089Z"/>
	<path fill="#CEDAF0" transform="scale(0.195312 0.195312)" d="M78.3591 398.253L326.226 398.253C326.234 401.55 326.787 416.047 325.558 418.257L325.052 418.386C306.731 418.081 288.347 418.382 270.02 418.382L100.866 418.399C97.9928 418.401 95.0551 418.528 92.1933 418.251C81.6842 417.233 74.8087 402.427 78.3591 398.253Z"/>
	<path fill="#FDFDFC" transform="scale(0.195312 0.195312)" d="M238.074 217.636L371.015 217.615C390.235 217.601 394.792 214.172 394.788 237.167L394.769 256.893L381.134 256.893L381.144 244.707C381.148 239.485 382.447 233.488 375.462 233.142C363.969 232.573 351.643 233.732 339.804 233.261C334.839 233.064 331.143 229.872 326.021 229.604C320.276 229.304 314.368 229.568 308.607 229.572L209.217 229.586C202.224 229.596 183.006 226.682 179.74 233.277L148.665 233.269C144.333 233.269 130.718 232.7 127.33 233.861C125.89 236.601 126.89 256.377 126.89 260.702L126.889 309.516L126.89 356.195C126.89 359.617 125.93 380.415 127.477 382.148C130.855 383.376 153.613 382.777 159.204 382.777L207.691 382.771C208.062 387.646 208.292 390.459 211.055 394.706L148.932 394.711C144.791 394.711 114.575 395.637 112.893 394.04C110.397 391.671 111.519 383.717 111.519 380.614L111.495 234.714C111.411 215.177 115.11 217.625 131.714 217.629L238.074 217.636Z"/>
	<path fill="#64B6FD" transform="scale(0.195312 0.195312)" d="M164.25 236.809L177.767 236.809L177.751 351.715C177.742 373.382 176.965 372.963 200.913 372.94L326.226 372.924L326.226 379.094L293.481 379.094L130.276 379.094L130.276 236.809L164.25 236.809Z"/>
	<path fill="#FDFDFC" transform="scale(0.195312 0.195312)" d="M340.722 281.722C343.375 281.403 346.193 281.703 348.87 281.714L366.335 281.72C383.823 281.72 401.887 281.274 419.299 281.797C426.67 282.018 424.295 286.026 424.295 293.484L424.334 411.129C424.382 415.193 425.188 418.705 422.372 421.973C421.715 422.711 420.982 423.262 420.193 423.853L372.5 423.854C365.074 423.854 341.407 427.553 340.811 418.122C340.276 409.643 340.719 400.147 340.718 391.58L340.728 299.326C340.734 293.564 340.188 287.428 340.722 281.722Z"/>
	<path fill="#425FA2" transform="scale(0.195312 0.195312)" d="M385.196 356.769L406.048 356.742C408.177 356.739 419.513 355.049 417.93 359.279C410.918 360.199 394.342 359.506 386.9 359.372C384.728 359.332 384.794 358.786 385.196 356.769Z"/>
	<path fill="#425FA2" transform="scale(0.195312 0.195312)" d="M385.196 365.615C391.977 365.464 424.671 363.707 417.439 368.387C414.3 368.63 386.312 368.594 385.225 368.047C384.256 367.559 384.747 366.272 385.196 365.615Z"/>
	<path fill="#425FA2" transform="scale(0.195312 0.195312)" d="M386.89 306.667L406.043 306.653C409.529 306.65 413.321 306.376 416.767 306.876C419.125 307.217 418.395 309.081 416.563 309.516L395.125 309.511C392.64 309.516 386.127 310.759 384.465 308.347C384.225 307.125 386.04 306.769 386.89 306.667Z"/>
	<path fill="#425FA2" transform="scale(0.195312 0.195312)" d="M385.196 315.244C391.585 315.208 421.761 312.247 417.93 318.244C414.429 318.244 387.158 318.646 385.673 318.122C384.362 317.659 384.719 316.2 385.196 315.244Z"/>
	<path fill="#425FA2" transform="scale(0.195312 0.195312)" d="M385.196 347.744C391.026 347.512 422.577 344.893 417.93 350.699C412.597 351.227 388.602 351.145 385.031 350.429L384.711 349.876C384.703 349.059 384.9 348.5 385.196 347.744Z"/>
	<path fill="#425FA2" transform="scale(0.195312 0.195312)" d="M410.669 388.907C412.894 388.841 416.847 388.389 418.739 389.589C419.874 390.31 417.954 391.621 417.211 391.717C414.433 392.076 411.385 391.871 408.578 391.875L392.811 391.875C390.564 391.973 386.737 392.536 384.869 391.161C381.179 388.445 395.053 388.894 395.427 388.895L410.669 388.907Z"/>
	<path fill="#425FA2" transform="scale(0.195312 0.195312)" d="M388.135 323.817L408.132 323.817C410.586 323.81 413.63 323.386 416.002 323.781C419.997 324.447 418.432 326.781 414.518 326.857C409.507 326.84 385.218 328.274 384.708 325.6C384.33 323.614 386.875 323.863 388.135 323.817Z"/>
	<path fill="#425FA2" transform="scale(0.195312 0.195312)" d="M385.196 398.253C387.313 397.812 389.974 398.216 392.152 398.233L407.718 398.252C409.703 398.245 421.073 395.83 417.93 400.751C414.049 401.189 408.569 400.76 404.503 400.763L391.261 400.771C389.7 400.771 382.449 401.871 385.196 398.253Z"/>
	<path fill="#425FA2" transform="scale(0.195312 0.195312)" d="M385.196 406.44C390.354 406.134 421.634 403.496 417.93 409.713C415.48 409.982 386.898 409.892 385.614 409.497C384.02 409.007 384.663 407.487 385.196 406.44Z"/>
	<path fill="#425FA2" transform="scale(0.195312 0.195312)" d="M360.525 339.336C379.979 337.82 384.331 365.667 364.038 370C341.983 370.639 340.785 342.066 360.525 339.336Z"/>
	<path fill="#FDFDFC" transform="scale(0.195312 0.195312)" d="M360.525 342.544C375.805 340.881 380.165 362.416 364.038 366.699C347.445 368.702 343.508 346.828 360.525 342.544Z"/>
	<path fill="#FE4933" transform="scale(0.195312 0.195312)" d="M368.036 347.744C374.298 352.336 364.694 360.157 360.525 363.032C358.657 361.808 357.305 360.129 355.903 358.418C351.204 354.059 353.209 348.861 360.525 356.769C362.963 353.8 365.316 350.444 368.036 347.744Z"/>
	<path fill="#425FA2" transform="scale(0.195312 0.195312)" d="M361.243 298.848C380.083 297.549 384.296 326.415 364.038 329.74C342.298 330.272 339.897 300.796 361.243 298.848Z"/>
	<path fill="#FDFDFC" transform="scale(0.195312 0.195312)" d="M360.525 301.986C374.441 299.909 381.228 320.795 364.038 326.857C346.399 327.133 344.026 304.903 360.525 301.986Z"/>
	<path fill="#FE4933" transform="scale(0.195312 0.195312)" d="M368.036 308.268C374.524 311.218 363.442 320.686 360.525 322.956C358.874 321.539 357.406 319.821 355.903 318.244C353.651 315.738 351.824 314.239 355.903 312.233C357.626 313.492 359.048 314.958 360.525 316.486C362.773 313.443 364.942 310.498 368.036 308.268Z"/>
	<path fill="#425FA2" transform="scale(0.195312 0.195312)" d="M349.251 383.723C351.934 383.629 372.192 383.393 373.621 384.059C374.306 384.378 379.223 410.012 372.278 411.182C369.346 411.226 348.811 412.065 347.787 410.308C346.805 408.621 344.662 384.73 349.251 383.723Z"/>
	<path fill="#95E7F8" transform="scale(0.195312 0.195312)" d="M350.253 386.498L372.278 386.498L372.278 408.263L350.253 408.263L350.253 386.498Z"/>
	<path fill="#FDFDFC" transform="scale(0.195312 0.195312)" d="M181.562 360.97C181.835 350.547 181.567 340.042 181.567 329.612L181.533 247.194C181.524 239.067 178.948 233.528 188.422 233.279C196.409 233.069 204.454 233.263 212.446 233.266L301.891 233.275C308.411 233.274 324.242 232.194 330.088 234.12C330.064 238.243 330.247 258.672 331.234 261.069C325.487 267.032 326.2 273.439 326.208 281.194L326.226 354.868C325.9 356.861 326.11 358.961 326.226 360.97L181.562 360.97Z"/>
	<path fill="#7496D5" transform="scale(0.195312 0.195312)" d="M245.25 277.161C250.672 277.135 280.313 273.864 277.103 280.498C274.19 280.749 247.257 280.766 245.87 280.255C244.4 279.713 244.747 278.294 245.25 277.161Z"/>
	<path fill="#7496D5" transform="scale(0.195312 0.195312)" d="M252.809 315.244C257.103 315.243 261.412 315.329 265.705 315.26C268.009 315.222 278.277 313.323 276.894 317.837C275.358 319.145 271.604 318.379 269.688 318.244C264.418 318.235 259.138 318.18 253.869 318.273C252.125 318.304 242.927 320.075 245.275 315.638C246.496 314.664 251.144 315.204 252.809 315.244Z"/>
	<path fill="#7496D5" transform="scale(0.195312 0.195312)" d="M246.839 263.934C250.795 263.779 254.813 263.922 258.776 263.924L301.166 263.936C303.529 263.935 305.99 263.692 308.338 263.821C310.851 263.959 311.517 266.121 309.075 267.349L253.042 267.347C251.482 267.348 243.167 268.396 245.193 264.628C245.545 263.973 246.193 264.039 246.839 263.934Z"/>
	<path fill="#7496D5" transform="scale(0.195312 0.195312)" d="M292.33 301.986C298.132 301.981 314.576 300.469 311.176 304.274C308.944 306.773 296.527 305.511 293.218 305.509L263.28 305.52C260.437 305.514 242.488 307.804 245.166 302.622C247.186 301.129 259.99 301.981 263.044 301.982L292.33 301.986Z"/>
	<path fill="#425FA2" transform="scale(0.195312 0.195312)" d="M227.786 337.367L300.834 337.37C303.325 337.368 311.2 336.156 312.156 339.344L311.805 339.884C308.778 341.599 303.753 340.758 300.403 340.762L283.625 340.76C274.63 340.761 201.48 341.218 199.529 340.404C195.059 335.522 223.971 337.375 227.786 337.367Z"/>
	<path fill="#425FA2" transform="scale(0.195312 0.195312)" d="M203.435 296.507L218.946 296.472C230.204 296.464 231.018 295.398 230.998 308.054C230.991 312.535 231.199 317.045 231.021 321.522C230.129 323.043 229.405 324.154 227.786 324.948L212.396 324.98C208.724 324.985 200.683 326.43 200.187 321.074C199.679 315.588 197.821 299.331 203.435 296.507Z"/>
	<path fill="#F5ED9F" transform="scale(0.195312 0.195312)" d="M204.436 299.753C207.814 299.517 224.978 299.435 227.488 300.28C227.966 301.511 228.304 320.343 227.786 321.522C219.685 321.517 211.529 321.761 203.435 321.522C203.324 318.755 202.589 300.844 204.436 299.753Z"/>
	<path fill="#425FA2" transform="scale(0.195312 0.195312)" d="M204.436 256.497C208.229 256.405 225.872 255.938 228.594 257.062C230.659 257.915 235.472 282.923 226.977 285.82L211.121 285.813C206.92 285.838 201.615 287.423 200.4 281.965C199.929 279.85 199.965 263.467 200.209 260.828C200.457 258.156 201.873 257.011 204.436 256.497Z"/>
	<path fill="#F5ED9F" transform="scale(0.195312 0.195312)" d="M213.794 259.609C216.447 259.633 225.679 258.838 227.448 260.262C228.574 262.903 228.014 281.098 227.105 282.035C224.327 283.101 220.396 282.617 217.443 282.609C212.776 282.601 208.101 282.741 203.435 282.609C203.264 279.985 203.41 277.282 203.415 274.65L203.435 259.609C206.887 259.672 210.341 259.632 213.794 259.609Z"/>
	<path fill="#425FA2" transform="scale(0.195312 0.195312)" d="M215.695 271.936C216.886 270.88 217.959 269.766 219.706 269.94L219.924 270.5C219.516 271.097 219.011 271.474 218.462 271.936C217.57 272.907 216.648 273.823 215.695 274.733C214.569 273.645 212.531 272.296 211.776 271.004L212.002 270.257C213.625 270.179 214.608 270.716 215.695 271.936Z"/>
</svg>
