<?xml version="1.0" encoding="utf-8" ?>
<svg xmlns="http://www.w3.org/2000/svg" xmlns:xlink="http://www.w3.org/1999/xlink" width="100" height="100">
	<path fill="#477DF1" transform="scale(0.195312 0.195312)" d="M351.71 309.645C354.212 311.439 361.2 316.511 363.038 318.494C359.312 323.39 354.876 327.682 351.018 332.46C347.367 329.099 343.695 325.467 340.707 321.499C344.787 318.296 348.549 313.735 351.71 309.645Z"/>
	<path fill="#2D42C3" transform="scale(0.195312 0.195312)" d="M154.33 213.96C150.988 210.642 139.264 201.514 137.662 198.273C135.541 193.982 140.525 191.207 144.159 192.697L144.387 192.969C148.277 197.562 153.89 201.444 158.393 205.503C166.511 212.818 163.092 213.419 160.106 222.212C155.438 235.959 159.859 238.83 142.838 238.808L127.965 238.78C127.963 250.175 127.817 261.59 127.965 272.984L143.856 272.959C159.538 272.873 155.165 275.091 159.989 289.224C161.489 293.619 164.288 297.88 165.133 302.413C163.974 306.221 154.796 317.809 150.456 318.494C139.73 314.518 151.113 305.996 155.539 301.657C152.525 295.274 150.302 288.86 149.069 281.911C143.185 281.318 124.318 283.764 120.684 280.287C117.643 277.376 119.03 254.096 119.033 249.151C119.036 242.937 117.153 234.768 121.79 229.9C130.858 230.151 139.989 229.9 149.069 229.9C149.746 224.308 151.634 218.896 154.33 213.96Z"/>
	<path fill="#60A1F8" transform="scale(0.195312 0.195312)" d="M142.352 328.506L142.346 409.381C142.271 422.957 135.398 422.707 123.803 422.706L108.081 422.698C91.8638 422.683 75.6254 422.894 59.4115 422.683C44.4849 422.489 46.7997 412.369 46.8148 400.791L46.8281 331.422C46.8262 324.183 46.567 316.874 46.8298 309.645C47.0848 315.908 46.805 322.234 46.8298 328.506C49.6277 328.472 52.4531 328.356 55.2474 328.506L55.2474 413.862L133.525 413.862L133.525 328.506C131.684 328.55 129.799 328.677 127.965 328.506C132.687 328.148 137.6 328.582 142.352 328.506Z"/>
	<path fill="#09A3A1" transform="scale(0.195312 0.195312)" d="M370.043 116.535C370.041 111.793 370.072 107.048 370.007 102.307C369.912 95.3827 369.069 87.9586 377.99 87.5055C383.745 87.2133 389.578 87.4129 395.342 87.4158L446.633 87.4126C462.394 87.4105 465.825 86.2656 465.775 103.504L465.746 116.535C462.888 116.461 460.047 116.372 457.19 116.535L449.298 116.535C446.228 116.357 443.071 116.512 439.99 116.517L370.043 116.535Z"/>
	<path fill="#87DAA6" transform="scale(0.195312 0.195312)" d="M378.479 96.0276L457.19 96.0276L457.19 107.909C448.532 107.585 439.732 107.901 431.056 107.903L378.479 107.909C378.654 103.976 378.487 99.9685 378.479 96.0276Z"/>
	<path fill="#09A3A1" transform="scale(0.195312 0.195312)" d="M46.8298 309.645C47.4608 295.391 56.9929 298.247 68.1041 298.243L122.832 298.243C139.072 298.245 142.525 294.535 142.38 312.937L142.352 328.506C137.6 328.582 132.687 328.148 127.965 328.506L55.2474 328.506C52.4531 328.356 49.6277 328.472 46.8298 328.506C46.805 322.234 47.0848 315.908 46.8298 309.645Z"/>
	<path fill="#87DAA6" transform="scale(0.195312 0.195312)" d="M55.2474 307.248L133.525 307.248C133.481 311.44 133.757 315.596 133.525 319.79L55.2474 319.79C55.7587 315.577 55.5823 311.465 55.2474 307.248Z"/>
	<path fill="#2D42C3" transform="scale(0.195312 0.195312)" d="M159.444 319.056C164.052 318.498 168.78 318.381 173.418 318.494C176.153 320.086 178.469 322.694 178.671 325.968C173.063 331.676 168.461 338.455 162.88 344.242C169.251 351.796 178.662 359.551 185.746 367.303C191.614 361.897 200.28 350.766 206.275 346.756C210.411 343.989 214.234 347.54 217.988 349.299C223.231 351.754 229.093 352.739 234.468 354.822C240.084 356.999 238.549 362.637 238.548 367.528L238.527 383.766L272.593 383.766L272.579 367.209C272.551 349.802 276.135 356.64 292.133 349.255C295.995 347.472 301.465 342.269 305.498 345.683C310.391 349.824 323.147 362.76 326.409 367.303C333.539 359.116 341.858 351.539 349.902 344.242C345.137 339.581 336.962 332.107 334.556 325.968C336.941 324.697 338.78 323.406 340.707 321.499C343.695 325.467 347.367 329.099 351.018 332.46L351.233 332.748C363.867 349.464 364.338 342.202 345.225 360.874C342.62 363.418 329.378 378.18 326.308 377.533C322.991 376.835 318.673 370.573 315.344 368.586C308.009 366.374 301.135 362.213 294.958 357.722C292.356 359.482 284.807 361.601 281.513 362.615C281.524 368.541 284.169 390.378 278.351 392.056C276.459 392.601 239.405 392.484 235.355 392.246C227.898 391.809 229.763 383.556 229.76 377.491L229.773 362.615C223.769 361.266 215.836 358.988 211.062 354.983C206.413 358.556 190.069 376.536 187.057 377.445C182.879 378.707 178.282 372.038 175.775 369.54L160.746 354.407C157.612 351.214 153.884 348.712 152.622 344.242C154.128 339.85 159.686 334.748 162.88 331.242C163.812 330.003 164.907 328.855 165.934 327.693C163.697 324.88 161.341 322.114 159.444 319.056Z"/>
	<path fill="#477DF1" transform="scale(0.195312 0.195312)" d="M294.958 357.722C297.394 356.292 299.589 355.417 302.386 354.983C304.442 357.011 314.76 366.8 315.344 368.586C308.009 366.374 301.135 362.213 294.958 357.722Z"/>
	<path fill="#2D42C3" transform="scale(0.195312 0.195312)" d="M336.193 70.2579C343.57 69.9965 347.229 91.1448 348.553 97.3275C349.716 102.764 345.272 103.591 341.274 105.406C337.507 107.116 322.209 114.971 319.351 114.136C317.221 113.514 316.061 109.754 316.817 107.869C318.027 104.85 330.232 100.487 333.658 98.9263C313.129 87.3232 276.655 80.8618 254.009 81.2977C160.265 83.1019 80.8281 161.378 82.7127 255.812C82.3318 261.54 84.8398 281.194 84.2014 282.796C82.8252 286.249 77.4473 286.567 75.9897 283.036C74.4234 279.241 74.634 272.77 74.3923 268.575C69.8793 190.224 112.921 117.291 186.165 86.4597C237.703 64.7651 286.603 69.7103 337.007 90.1978C335.316 83.6495 329.271 73.907 336.193 70.2579Z"/>
	<path fill="#2D42C3" transform="scale(0.195312 0.195312)" d="M429.434 213.18C437.247 213.08 436.955 229.37 437.453 235.252C439.424 258.557 438.14 279.337 432.567 301.972C408.212 400.886 303.376 457.255 206.445 430.868C195.403 427.862 184.965 423.568 174.412 419.209C176.439 424.489 178.329 429.827 179.871 435.27C178.983 438.288 176.537 441.171 173.125 438.844C169.915 436.655 166.066 421.731 165.133 417.378C159.281 406.13 168.123 405.98 177.021 402.267C180.466 400.829 192.855 393.309 195.579 398.471C199.504 405.908 184.01 408.962 178.671 411.22C245.281 444.311 329.865 428.56 381.595 375.12C422.335 333.033 434.817 281.482 427.009 225.151C426.291 219.969 424.184 216.451 429.434 213.18Z"/>
	<path fill="#2D42C3" transform="scale(0.195312 0.195312)" d="M229.773 145.96L229.742 130.597C229.727 119.495 227.906 117.243 239.86 117.248L267.555 117.256C281.027 117.269 281.682 115.066 281.536 129.33L281.513 145.96C289.218 147.764 295.16 150.973 302.386 153.524L315.67 140.166C319.941 135.885 323.962 128.742 329.935 134.697L352.145 156.738C362.526 167.037 365.81 165.381 354.301 177.498C351.483 180.465 348.738 183.493 346.076 186.601C349.393 189.306 352.731 191.955 356.144 194.538C370.426 205.347 366.297 203.806 356.792 213.18C359.696 218.377 360.89 224.208 362.452 229.9L380.423 229.877C393.419 229.851 393.994 228.808 393.978 241.198L393.965 271.158C393.973 273.901 394.235 276.665 393.951 279.401C389.991 283.238 385.516 281.946 380.371 281.937L362.452 281.911C359.913 287.964 357.549 294.514 355.54 300.765C360.525 304.269 370.868 313.025 375.195 317.203C377.113 319.056 375.777 322.743 373.149 323.041C369.985 323.4 365.901 319.792 363.038 318.494C361.2 316.511 354.212 311.439 351.71 309.645C342.2 301.786 345.874 300.454 349.848 290.985C351.92 286.047 353.016 274.662 358.034 273.499C365.278 271.821 376.796 273.595 384.717 273.008L385.015 272.984L385.015 245.245L385.015 238.78L358.062 238.78L355.54 237.492C353.452 234.198 352.57 227.286 351.267 223.266C346.47 208.468 344.034 211.588 356.792 201.423C350.627 198.854 345.48 194.657 339.481 191.854C329.187 184.532 345.264 175.224 351.018 167.811C344.075 161.16 330.965 150.047 326.409 143.237C320.821 146.813 316.122 152.203 311.405 156.843C300.772 167.303 301.552 162.204 289.209 157.484C285.408 156.031 276.014 154.956 273.945 151.307C271.832 147.582 272.586 131.554 272.593 126.157L238.527 126.157L238.56 141.016C238.585 156.799 234.103 153.253 220.991 157.868C216.481 159.456 209.977 164.971 205.126 161.874C202.314 160.079 187.641 145.839 185.746 143.237C180.322 147.525 165.506 162.37 161.235 167.811C163.863 169.525 175.379 180.135 175.78 182.919C176.292 186.471 165.427 197.34 162.355 197.668C160.048 197.914 158.097 194.961 156.569 193.545C157.26 190.518 163.019 186.216 165.133 183.618L157.217 175.497C146.903 164.998 150.822 165.446 159.716 156.414C166.633 149.39 173.847 141.841 181.013 135.153C186.779 129.771 189.536 134.574 193.644 138.752C198.216 143.403 204.095 149.785 209.319 153.524C215.201 149.954 223.053 147.443 229.773 145.96Z"/>
	<path fill="#60A1F8" transform="scale(0.195312 0.195312)" d="M70.5103 344.242C84.8199 343.878 101.987 343.619 116.301 344.161C121.632 344.363 123.014 350.538 117.755 352.541C104.952 353.086 84.0808 353.442 71.4367 352.423C65.768 351.967 66.8766 346.603 70.5103 344.242Z"/>
	<path fill="#2D42C3" transform="scale(0.195312 0.195312)" d="M104.933 363.329C122.535 361.027 130.334 386.422 113.71 394.153C106.687 397.418 101.938 394.651 95.3251 392.268C92.9049 396.582 88.7238 399.662 83.9396 400.87C75.2493 402.595 66.3611 396.537 64.9146 387.735C62.3835 372.333 80.15 364.23 91.6601 372.764C94.7277 367.674 98.8292 364.25 104.933 363.329ZM105.69 372.764C101.161 373.03 100.152 375.925 98.7798 379.732C100.268 384.105 102.719 387.446 107.7 387.138C118.909 383.741 113.752 370.06 105.69 372.764ZM79.6546 377.78C70.2005 380.733 72.1676 392.546 82.1396 392.268C90.521 389.026 89.6273 377.45 79.6546 377.78Z"/>
	<path fill="#FEFEFE" transform="scale(0.195312 0.195312)" d="M457.19 116.535C460.047 116.372 462.888 116.461 465.746 116.535L465.759 182.701C465.756 198.883 463.715 202.301 445.719 202.307L429.218 202.297C413.535 202.281 397.776 202.665 382.105 202.318C369.894 202.048 370.028 191.361 370.034 182.133L370.043 116.535L439.99 116.517C443.071 116.512 446.228 116.357 449.298 116.535L457.19 116.535Z"/>
	<path fill="#CDCCD2" transform="scale(0.195312 0.195312)" d="M395.831 149.462L425.088 149.449C429.964 149.448 435.153 149.098 439.991 149.564C446.304 150.172 446.866 159.006 439.562 160.333C424.103 160.331 408.594 160.602 393.142 160.333C388.852 156.468 390.008 150.306 395.831 149.462Z"/>
	<path fill="#CDCCD2" transform="scale(0.195312 0.195312)" d="M401.037 130.516L426.181 130.504C430.818 130.505 435.909 130.138 440.489 130.851C446.612 131.804 445.661 138.25 442.099 141.548C439.798 141.743 437.378 141.541 435.062 141.548L408.215 141.561C403.944 141.562 399.175 142.002 394.985 141.372C390.797 140.743 388.79 135.305 391.87 132.193C393.788 130.255 398.462 130.621 401.037 130.516Z"/>
	<path fill="#CDCCD2" transform="scale(0.195312 0.195312)" d="M393.951 168.703L425.308 168.718C429.662 168.724 442.865 166.666 444.512 172.183C445.524 175.573 444.234 178.976 440.674 179.807C434.316 179.811 396.966 180.409 393.975 179.364C389.504 177.801 389.455 170.241 393.951 168.703Z"/>
	<path fill="#60A1F8" transform="scale(0.195312 0.195312)" d="M457.19 116.535C460.047 116.372 462.888 116.461 465.746 116.535L465.759 182.701C465.756 198.883 463.715 202.301 445.719 202.307L429.218 202.297C413.535 202.281 397.776 202.665 382.105 202.318C369.894 202.048 370.028 191.361 370.034 182.133L370.043 116.535L439.99 116.517C443.071 116.512 446.228 116.357 449.298 116.535C441.562 116.869 433.682 116.531 425.928 116.531L378.479 116.535L378.468 183.622C378.466 186.344 378.29 189.144 378.479 191.854C381.571 194.719 384.832 193.603 388.783 193.563L434.159 193.546C459.989 193.558 457.213 197.301 457.189 173.918L457.149 122.997C457.129 120.876 456.95 118.642 457.19 116.535Z"/>
	<path fill="#60A1F8" transform="scale(0.195312 0.195312)" d="M339.481 191.854C345.48 194.657 350.627 198.854 356.792 201.423C344.034 211.588 346.47 208.468 351.267 223.266C352.57 227.286 353.452 234.198 355.54 237.492L358.062 238.78L385.015 238.78L385.015 245.245L385.015 272.984L384.717 273.008C376.796 273.595 365.278 271.821 358.034 273.499C353.016 274.662 351.92 286.047 349.848 290.985C345.874 300.454 342.2 301.786 351.71 309.645C348.549 313.735 344.787 318.296 340.707 321.499C338.78 323.406 336.941 324.697 334.556 325.968C336.962 332.107 345.137 339.581 349.902 344.242C341.858 351.539 333.539 359.116 326.409 367.303C323.147 362.76 310.391 349.824 305.498 345.683C301.465 342.269 295.995 347.472 292.133 349.255C276.135 356.64 272.551 349.802 272.579 367.209L272.593 383.766L238.527 383.766L238.548 367.528C238.549 362.637 240.084 356.999 234.468 354.822C229.093 352.739 223.231 351.754 217.988 349.299C214.234 347.54 210.411 343.989 206.275 346.756C200.28 350.766 191.614 361.897 185.746 367.303C178.662 359.551 169.251 351.796 162.88 344.242C168.461 338.455 173.063 331.676 178.671 325.968C184.256 321.593 201.124 318.168 209.319 314.411C229.449 329.066 257.815 335.498 281.513 325.968C286.341 330.814 291.83 330.46 293.842 322.893C292.908 319.511 291.25 317.035 288.963 314.411C291.925 311.018 295.827 308.838 299.227 305.956C301.475 307.953 307.212 314.187 309.976 314.47C313.193 314.799 316.627 311.962 316.785 308.692C317.003 304.205 311.314 299.937 308.515 296.885C310.395 293.32 312.783 289.289 315.344 286.18C319.702 285.479 323.385 284.375 323.856 279.401C332.45 276.611 331.422 268.53 331.799 260.242C332.641 241.748 328.176 228.903 319.196 213.18C325.843 205.946 332.696 198.955 339.481 191.854ZM358.062 238.78C357.945 240.576 357.794 242.333 357.963 244.129L358.062 245.245C367.018 245.246 376.071 245.541 385.015 245.245L385.015 238.78L358.062 238.78Z"/>
	<path fill="#A4BCF8" transform="scale(0.195312 0.195312)" d="M238.527 126.157L272.593 126.157C272.586 131.554 271.832 147.582 273.945 151.307C276.014 154.956 285.408 156.031 289.209 157.484C301.552 162.204 300.772 167.303 311.405 156.843C316.122 152.203 320.821 146.813 326.409 143.237C330.965 150.047 344.075 161.16 351.018 167.811C345.264 175.224 329.187 184.532 339.481 191.854C332.696 198.955 325.843 205.946 319.196 213.18C306.805 195.569 289.838 183.923 268.235 180.194C195.118 167.569 147.366 262.527 209.319 314.411C201.124 318.168 184.256 321.593 178.671 325.968C178.469 322.694 176.153 320.086 173.418 318.494C168.78 318.381 164.052 318.498 159.444 319.056C161.341 322.114 163.697 324.88 165.934 327.693C164.907 328.855 163.812 330.003 162.88 331.242C159.164 328.053 153.662 318.486 150.456 318.494C154.796 317.809 163.974 306.221 165.133 302.413C164.288 297.88 161.489 293.619 159.989 289.224C155.165 275.091 159.538 272.873 143.856 272.959L127.965 272.984C127.817 261.59 127.963 250.175 127.965 238.78L142.838 238.808C159.859 238.83 155.438 235.959 160.106 222.212C163.092 213.419 166.511 212.818 158.393 205.503C153.89 201.444 148.277 197.562 144.387 192.969L144.159 192.697C147.481 191.745 153.264 192.55 156.569 193.545C158.097 194.961 160.048 197.914 162.355 197.668C165.427 197.34 176.292 186.471 175.78 182.919C175.379 180.135 163.863 169.525 161.235 167.811C165.506 162.37 180.322 147.525 185.746 143.237C187.641 145.839 202.314 160.079 205.126 161.874C209.977 164.971 216.481 159.456 220.991 157.868C234.103 153.253 238.585 156.799 238.56 141.016L238.527 126.157Z"/>
	<path fill="#2D42C3" transform="scale(0.195312 0.195312)" d="M308.515 251.483C317.786 243.698 320.638 263.274 308.515 258.543C307.604 256.086 307.31 253.929 308.515 251.483Z"/>
	<path fill="#2D42C3" transform="scale(0.195312 0.195312)" d="M201.438 258.543C194.522 256.962 196.261 248.146 203.06 248.854C209.538 250.378 208.923 258.743 201.438 258.543Z"/>
	<path fill="#2D42C3" transform="scale(0.195312 0.195312)" d="M209.319 314.411C147.366 262.527 195.118 167.569 268.235 180.194C289.838 183.923 306.805 195.569 319.196 213.18C328.176 228.903 332.641 241.748 331.799 260.242C331.422 268.53 332.45 276.611 323.856 279.401C322.284 278.101 321.303 276.742 320.607 274.823C325 254.916 323.564 236.8 312.332 219.211C280.046 168.653 202.853 183.834 190.961 239.954C180.226 290.612 226.233 333.872 276.692 318.494C277.952 321.122 279.929 323.515 281.513 325.968C257.815 335.498 229.449 329.066 209.319 314.411Z"/>
	<path fill="#60A1F8" transform="scale(0.195312 0.195312)" d="M203.06 248.854L203.541 248.784C205.723 220.792 232.786 200.282 260.103 202.34C282.514 204.028 303.862 222.337 307.669 244.789C307.993 246.704 307.714 249.821 308.515 251.483C307.31 253.929 307.604 256.086 308.515 258.543C306.432 288.719 281.67 310.237 251.591 307.952C226.817 306.071 205.509 285.61 203.367 260.72C203.224 259.066 203.077 258.742 201.438 258.543C208.923 258.743 209.538 250.378 203.06 248.854Z"/>
	<path fill="#FDD16C" transform="scale(0.195312 0.195312)" d="M253.987 210.607C289.407 207.477 314.512 251.972 291.891 282.144C282.842 294.212 271.895 298.68 257.479 300.765C254.327 300.315 251.141 300.131 248.002 299.573C197.277 290.546 198.502 214.947 253.987 210.607Z"/>
	<path fill="#2D42C3" transform="scale(0.195312 0.195312)" d="M277.974 233.543C282.282 233.377 285.261 237.133 282.443 241.098C277.876 247.524 252.007 275.651 249.34 275.517C246.352 275.367 237.727 265.612 235.18 263.061C224.598 252.795 234.412 250.975 237.149 253.021C238.665 254.156 240.044 255.856 241.376 257.21L248.965 264.818L266.503 245.357C269.836 241.623 273.379 235.747 277.974 233.543Z"/>
</svg>
