<?xml version="1.0" encoding="utf-8" ?>
<svg xmlns="http://www.w3.org/2000/svg" xmlns:xlink="http://www.w3.org/1999/xlink" width="100" height="100">
	<path fill="#5CD1BC" transform="scale(0.195312 0.195312)" d="M381.757 79.7731C402.921 63.2196 425.801 66.9288 445.742 82.5575C442.051 85.6556 439.401 89.8407 435.693 92.7495C423.677 80.8429 405.278 80.3942 391.583 89.6645C387.987 86.8636 385.312 82.7473 381.757 79.7731Z"/>
	<path fill="#4BAEF0" transform="scale(0.195312 0.195312)" d="M217.777 100.086C219.113 80.3478 210.876 73.1968 233.653 73.1639L247.954 73.1546C252.974 73.1545 266.687 71.5465 270.565 74.8865C275.014 78.718 272.704 93.9145 273.197 99.6068L273.243 100.086C270.549 114.459 277.874 113.647 288.343 117.152C296.106 119.751 305.801 124.501 312.508 129.156C315.313 126.341 318.073 123.257 321.204 120.811C323.428 117.171 333.635 106.396 337.456 105.366C345.365 103.235 358.948 122.522 365.533 128.092C368.115 135.865 370.155 140.798 375.359 147.527C371.609 152.992 365.645 156.789 361.566 161.99C358.668 164.911 355.463 167.791 353.007 171.095C360.142 182.902 363.325 194.049 366.878 207.012C368.635 207.015 378.257 207.542 379.232 207.012L379.505 207.262C384.852 207.07 390.164 207.045 395.512 206.981C400.954 206.915 408.223 205.351 408.437 213.077C408.788 225.691 409.346 244.325 408.343 256.767C407.67 265.113 401.469 262.761 394.827 262.743C389.639 262.729 384.414 262.977 379.232 262.769L366.878 262.769C364.953 273.481 360.061 284.424 354.827 293.904C353.111 297.013 343.213 310.413 342.958 312.176C340.418 313.789 337.782 315.465 335.079 316.785L334.321 316.187C329.164 312.174 321 303.666 316.686 298.503C318.87 295.802 321.222 293.257 323.293 290.459C345.279 260.75 346.278 218.93 328.537 186.885C285.651 109.426 174.615 124.056 150.366 209.04C140.211 201.303 137.363 182.42 140.605 171.095C139.857 170.032 139.181 169.164 138.213 168.28C135.12 165.371 132.256 162.189 129.268 159.169C126.223 157.266 123.549 153.55 121.02 150.977C116.357 146.231 110.261 142.246 116.49 135.55C121.967 129.661 127.83 124.138 133.419 118.358C136.754 114.911 146.424 101.329 152.44 104.701C155.801 106.585 165.749 117.366 169.18 120.811C172.101 123.432 175.178 126.119 177.671 129.156C186.521 123.784 195.779 119.194 205.66 116.053C216.796 112.513 218.26 113.41 217.777 100.086ZM244.164 108.805C230.548 113.263 234.137 130.15 248.438 129.156C261.641 120.794 256.038 108.047 244.164 108.805Z"/>
	<path fill="#29B9A2" transform="scale(0.195312 0.195312)" d="M365.533 128.092C362.067 108.61 366.289 93.3781 381.757 79.7731C385.312 82.7473 387.987 86.8636 391.583 89.6645C383.935 96.2617 378.831 103.826 378.092 114.173C375.624 148.736 419.007 164.629 440.436 135.597C443.437 137.814 448.235 142.459 450.709 145.139C435.009 166.162 405.321 171.47 384.03 155.46C380.895 153.102 378.155 150.268 375.359 147.527C370.155 140.798 368.115 135.865 365.533 128.092Z"/>
	<path fill="#29B9A2" transform="scale(0.195312 0.195312)" d="M435.693 92.7495C439.401 89.8407 442.051 85.6556 445.742 82.5575C447.835 85.4758 450.258 88.1597 452.224 91.1621C462.867 107.422 462.817 129.639 450.709 145.139C448.235 142.459 443.437 137.814 440.436 135.597C449.02 121.429 447.218 104.881 435.693 92.7495Z"/>
	<path fill="#FAB247" transform="scale(0.195312 0.195312)" d="M407.173 117.95C412.227 113.081 422.669 98.9059 429.217 98.0829C433.342 98.3934 435.644 101.982 435.781 105.962C435.886 108.999 422.554 121.049 420.142 123.448C409.816 133.72 408.877 137.302 397.599 125.64C395.371 123.561 391.43 120.666 391.259 117.442C391.063 113.762 394.521 110.146 398.242 110.336C401.489 110.501 405.092 115.66 407.173 117.95Z"/>
	<path fill="#217ACA" transform="scale(0.195312 0.195312)" d="M273.243 100.086C285.159 102.899 312.535 111.254 321.204 120.811C318.073 123.257 315.313 126.341 312.508 129.156C305.801 124.501 296.106 119.751 288.343 117.152C277.874 113.647 270.549 114.459 273.243 100.086Z"/>
	<path fill="#217ACA" transform="scale(0.195312 0.195312)" d="M169.18 120.811C184.491 109.708 199.915 104.647 217.777 100.086C218.26 113.41 216.796 112.513 205.66 116.053C195.779 119.194 186.521 123.784 177.671 129.156C175.178 126.119 172.101 123.432 169.18 120.811Z"/>
	<path fill="#424E85" transform="scale(0.195312 0.195312)" d="M150.366 209.04C174.615 124.056 285.651 109.426 328.537 186.885C346.278 218.93 345.279 260.75 323.293 290.459C321.222 293.257 318.87 295.802 316.686 298.503C321 303.666 329.164 312.174 334.321 316.187L335.079 316.785L334.231 318.165C330.88 320.994 328.592 323.789 326.994 327.904L325.085 326.377C318.754 320.873 312.444 313.274 306.256 308.4C292.867 318.967 283.939 323.101 267.504 327.904C264.784 328.259 262.077 329.002 259.362 329.452C228.717 334.538 196.434 322.849 174.883 300.771C154.174 279.555 147.113 255.562 147.481 226.954C148.203 220.915 149.094 214.987 150.366 209.04ZM238.586 149.766C233.021 150.413 227.607 151.153 222.187 152.602C182.736 163.154 156.625 202.168 161.364 242.757C166.409 285.967 204.522 319.621 248.438 316.785C321.72 314.525 354.217 222.042 300.616 172.164C283.779 156.497 261.785 148.82 238.898 149.752L238.586 149.766Z"/>
	<path fill="#217ACA" transform="scale(0.195312 0.195312)" d="M129.268 159.169C132.256 162.189 135.12 165.371 138.213 168.28C130.006 181.297 119.977 212.711 121.588 228.716C108.836 229.106 95.9866 228.185 83.2464 228.716C83.3026 211.948 79.3263 208.254 96.8895 208.302L110.613 208.343C111.058 194.404 122.949 171.201 129.268 159.169Z"/>
	<path fill="#217ACA" transform="scale(0.195312 0.195312)" d="M353.007 171.095C355.463 167.791 358.668 164.911 361.566 161.99C370.17 174.576 376.992 191.9 379.232 207.012C378.257 207.542 368.635 207.015 366.878 207.012C363.325 194.049 360.142 182.902 353.007 171.095Z"/>
	<path fill="#3494DF" transform="scale(0.195312 0.195312)" d="M121.588 228.716C119.977 212.711 130.006 181.297 138.213 168.28C139.181 169.164 139.857 170.032 140.605 171.095C137.363 182.42 140.211 201.303 150.366 209.04C149.094 214.987 148.203 220.915 147.481 226.954C138.854 227.558 130.244 228.67 121.588 228.716Z"/>
	<path fill="#CFF4FB" transform="scale(0.195312 0.195312)" d="M249.934 174.652C249.427 175.672 249.939 185.967 249.934 187.93L236.379 187.93C236.374 186.558 236.687 175.156 236.379 174.652C240.887 175.014 245.411 174.149 249.934 174.652Z"/>
	<path fill="#A2DBF8" transform="scale(0.195312 0.195312)" d="M249.934 187.93C249.939 185.967 249.427 175.672 249.934 174.652C277.825 179.725 297.618 197.692 301.771 226.024L289.222 226.024C289.223 230.678 289.271 235.337 289.222 239.991C291.707 239.983 300.031 239.482 301.771 239.991C299.618 247.686 297.354 254.844 293.459 261.878C291.079 259.459 288.355 257.235 285.65 255.191C282.609 258.729 279.384 261.92 275.963 265.088C278.725 267.835 281.492 270.708 284.583 273.09C275.11 282.476 263.827 287.179 250.986 289.846C250.836 286.081 250.984 282.25 250.986 278.477L236.379 278.477C236.364 280.406 237.059 288.887 236.379 289.846C224.414 287.147 213.976 282.85 204.626 274.69C207.476 272.824 210.409 268.967 212.904 266.486C209.16 263.498 205.792 259.959 202.407 256.576C200.183 258.504 196.276 261.223 195.036 263.874C190.108 256.625 187.801 248.395 185.752 239.991L186.212 239.702C190.017 240.48 194.516 240.132 198.401 239.991C198.05 235.432 198.381 230.612 198.401 226.024C194.187 226.035 189.965 225.883 185.752 226.024C187.385 218.113 189.423 209.74 194.13 203.041C195.924 205.905 199.765 208.308 202.407 210.353C204.792 207.652 206.985 204.714 209.288 201.935C206.688 199.195 203.377 196.137 199.719 194.94C209.534 182.147 221.763 178.261 236.379 174.652C236.687 175.156 236.374 186.558 236.379 187.93L249.934 187.93ZM274.353 201.935C268.218 202.973 264.75 208.781 260.612 212.972C254.593 219.067 248.319 224.883 242.752 231.41C238.712 227.533 229.993 217.783 225.847 215.422C220.702 212.492 214.309 217.369 215.041 223.134C215.589 227.445 220.723 231.196 223.715 234.091C243.294 253.62 240.803 254.77 259.2 236.111C266.075 229.137 273.172 222.337 279.817 215.143C286.727 207.662 283.136 199.436 274.353 201.935Z"/>
	<path fill="#CFF4FB" transform="scale(0.195312 0.195312)" d="M194.13 203.041C194.606 201.447 198.52 196.152 199.719 194.94C203.377 196.137 206.688 199.195 209.288 201.935C206.985 204.714 204.792 207.652 202.407 210.353C199.765 208.308 195.924 205.905 194.13 203.041Z"/>
	<path fill="#F57F65" transform="scale(0.195312 0.195312)" d="M242.752 231.41C248.319 224.883 254.593 219.067 260.612 212.972C264.75 208.781 268.218 202.973 274.353 201.935C283.136 199.436 286.727 207.662 279.817 215.143C273.172 222.337 266.075 229.137 259.2 236.111C240.803 254.77 243.294 253.62 223.715 234.091C220.723 231.196 215.589 227.445 215.041 223.134C214.309 217.369 220.702 212.492 225.847 215.422C229.993 217.783 238.712 227.533 242.752 231.41Z"/>
	<path fill="#CFF4FB" transform="scale(0.195312 0.195312)" d="M185.752 226.024C189.965 225.883 194.187 226.035 198.401 226.024C198.381 230.612 198.05 235.432 198.401 239.991C194.516 240.132 190.017 240.48 186.212 239.702L185.752 239.991C185.725 235.32 185.647 230.697 185.752 226.024Z"/>
	<path fill="#CFF4FB" transform="scale(0.195312 0.195312)" d="M289.222 226.024L301.771 226.024C301.864 230.545 301.27 235.538 301.771 239.991C300.031 239.482 291.707 239.983 289.222 239.991C289.271 235.337 289.223 230.678 289.222 226.024Z"/>
	<path fill="#217ACA" transform="scale(0.195312 0.195312)" d="M121.588 228.716C130.244 228.67 138.854 227.558 147.481 226.954C147.113 255.562 154.174 279.555 174.883 300.771C196.434 322.849 228.717 334.538 259.362 329.452C262.077 329.002 264.784 328.259 267.504 327.904C277.312 332.456 305.772 333.748 316.686 333.172C311.315 339.197 295.611 346.181 287.767 349.118C205.281 380.012 122.137 314.513 121.588 228.716Z"/>
	<path fill="#2167B4" transform="scale(0.195312 0.195312)" d="M83.2464 228.716C95.9866 228.185 108.836 229.106 121.588 228.716C122.137 314.513 205.281 380.012 287.767 349.118C295.611 346.181 311.315 339.197 316.686 333.172C319.716 331.586 322.517 328.623 325.085 326.377L326.994 327.904C322.449 332.925 322.374 339.979 322.508 346.36C307.745 357.197 291.295 366.054 273.243 369.948L273.243 398.506L238.788 398.495C234.714 398.495 227.929 399.014 224.242 398.343C212.358 396.181 221.3 377.335 215.358 369.084L215.16 368.814C198.039 363.021 188.079 360.426 171.485 350.345L159.59 362.609C149.02 373.701 147.349 368.053 138.969 359.595L120.865 341.466C117.512 338.11 115.492 336.85 115.493 331.787C118.408 327.039 123.35 322.944 127.245 318.972C136.111 309.929 130.608 310.07 125.224 300.216C118.796 288.451 113.353 275.931 110.613 262.769C108.022 262.593 105.349 262.752 102.748 262.756L87.3082 262.769C81.6161 259.759 83.216 253.83 83.2207 248.38L83.2464 228.716Z"/>
	<path fill="#CFF4FB" transform="scale(0.195312 0.195312)" d="M285.65 255.191C288.355 257.235 291.079 259.459 293.459 261.878C290.75 265.935 288.134 269.697 284.583 273.09C281.492 270.708 278.725 267.835 275.963 265.088C279.384 261.92 282.609 258.729 285.65 255.191Z"/>
	<path fill="#CFF4FB" transform="scale(0.195312 0.195312)" d="M195.036 263.874C196.276 261.223 200.183 258.504 202.407 256.576C205.792 259.959 209.16 263.498 212.904 266.486C210.409 268.967 207.476 272.824 204.626 274.69C200.98 271.41 197.964 267.786 195.036 263.874Z"/>
	<path fill="#217ACA" transform="scale(0.195312 0.195312)" d="M366.878 262.769L379.232 262.769C375.573 281.548 369.017 295.014 359.167 311.294C353.645 309.407 348.323 310.306 342.958 312.176C343.213 310.413 353.111 297.013 354.827 293.904C360.061 284.424 364.953 273.481 366.878 262.769Z"/>
	<path fill="#CFF4FB" transform="scale(0.195312 0.195312)" d="M236.379 289.846C237.059 288.887 236.364 280.406 236.379 278.477L250.986 278.477C250.984 282.25 250.836 286.081 250.986 289.846C246.131 289.948 241.231 290.091 236.379 289.846Z"/>
	<path fill="#4BAEF0" transform="scale(0.195312 0.195312)" d="M306.256 308.4C312.444 313.274 318.754 320.873 325.085 326.377C322.517 328.623 319.716 331.586 316.686 333.172C305.772 333.748 277.312 332.456 267.504 327.904C283.939 323.101 292.867 318.967 306.256 308.4Z"/>
	<path fill="#A5B0F4" transform="scale(0.195312 0.195312)" d="M342.958 312.176C348.323 310.306 353.645 309.407 359.167 311.294C370.144 316.283 373.026 322.028 381.358 330.529L398.582 347.933C404.392 353.744 410.975 359.219 415.063 366.431C398.759 372.465 399.554 383.781 381.279 365.466L334.231 318.165L335.079 316.785C337.782 315.465 340.418 313.789 342.958 312.176Z"/>
	<path fill="#8188E5" transform="scale(0.195312 0.195312)" d="M326.994 327.904C328.592 323.789 330.88 320.994 334.231 318.165L381.279 365.466C399.554 383.781 398.759 372.465 415.063 366.431C427.48 387.321 407.139 415.587 382.736 405.603C375.439 402.618 370.445 396.148 365.067 390.675C356.802 382.264 326.099 354.783 322.508 346.36C322.374 339.979 322.449 332.925 326.994 327.904Z"/>
	<path fill="#FACF74" transform="scale(0.195312 0.195312)" d="M103.274 408.753L103.262 379.866C103.261 374.99 103.065 370.034 103.274 365.169L128.296 365.169L128.296 408.753C121.157 408.445 110.391 408.304 103.274 408.753Z"/>
	<path fill="#F57F65" transform="scale(0.195312 0.195312)" d="M159.809 413.027C152.059 413.032 144.228 413.286 136.489 413.027L136.481 393.499C136.469 390.003 136.266 386.478 136.489 382.988C144.18 382.522 152.09 382.988 159.809 382.988C159.917 392.996 159.811 403.019 159.809 413.027Z"/>
	<path fill="#A2DBF8" transform="scale(0.195312 0.195312)" d="M71.4998 413.027L71.4998 393.303C77.8625 393.113 89.5605 392.663 95.6882 393.303C95.9419 397.34 95.6998 401.458 95.6874 405.507L95.6882 428.25L95.6882 428.25C95.5642 423.182 95.6692 418.097 95.6882 413.027L71.4998 413.027Z"/>
	<path fill="#5CD1BC" transform="scale(0.195312 0.195312)" d="M216.002 403.959L259.757 403.956C274.127 403.948 296.3 400.956 296.275 423.037L296.273 423.247L255.736 423.258C240.584 423.258 217.896 425.813 216.002 403.959Z"/>
	<path fill="#29B9A2" transform="scale(0.195312 0.195312)" d="M296.273 423.247C296.137 433.722 287.571 440.645 277.606 440.908C264.59 441.252 251.487 440.899 238.46 440.909L222.902 440.921C219.052 440.92 214.865 441.207 211.091 440.373C192.481 436.259 191.288 404.108 216.002 403.959C217.896 425.813 240.584 423.258 255.736 423.258L296.273 423.247Z"/>
	<path fill="#FAB247" transform="scale(0.195312 0.195312)" d="M103.274 408.753C110.391 408.304 121.157 408.445 128.296 408.753L128.32 421.735C128.325 423.872 128.486 426.127 128.296 428.25L103.274 428.25C103.479 421.895 103.692 415.082 103.274 408.753Z"/>
	<path fill="#4BAEF0" transform="scale(0.195312 0.195312)" d="M71.4998 413.027L95.6882 413.027C95.6692 418.097 95.5642 423.182 95.6882 428.25L71.4998 428.25L71.4998 413.027Z"/>
	<path fill="#DB554E" transform="scale(0.195312 0.195312)" d="M136.489 413.027C144.228 413.286 152.059 413.032 159.809 413.027L159.809 428.25L136.489 428.25L136.489 413.027Z"/>
	<path fill="#424E85" transform="scale(0.195312 0.195312)" d="M136.489 428.25L159.809 428.25C164.109 428.283 174.624 427.237 177.731 429.676C180.632 431.955 181.145 436.675 178.687 439.456C175.554 443 154.829 441.363 149.859 441.358L71.5277 441.33C66.7788 441.311 57.9543 443.12 54.1812 439.432C51.843 437.147 51.346 432.532 53.8176 430.159C56.943 427.158 67.1632 428.214 71.4998 428.25L95.6882 428.25L95.6882 428.25C98.2148 428.251 100.748 428.287 103.274 428.25L128.296 428.25L136.489 428.25Z"/>
</svg>
