<?xml version="1.0" encoding="utf-8" ?>
<svg xmlns="http://www.w3.org/2000/svg" xmlns:xlink="http://www.w3.org/1999/xlink" width="100" height="100">
	<path fill="#4E6B7D" transform="scale(0.195312 0.195312)" d="M407.018 152.217C417.551 151.542 427.621 155.864 435.197 163.058C453.67 181.04 447.947 215.425 447.953 239.902L447.959 376.907C447.962 385.071 448.657 394.271 447.231 402.288C443.811 421.529 426.628 435.565 407.142 435.754L115.907 435.757C110.406 435.752 104.677 435.848 99.2243 435.067C78.5011 432.098 64.345 414.444 64.2524 393.756L64.2515 209.402C64.2455 201.666 63.5781 193.257 64.8697 185.63C67.9765 167.282 84.9417 152.302 103.606 152.217C109.194 151.882 115.005 152.208 120.617 152.21L155.515 152.217C143.395 160.831 137.11 168.955 132.772 183.705C118.481 183.792 97.0486 180.314 94.8143 200.564C94.4232 204.109 94.5511 207.746 94.5509 211.309L94.554 370.876C94.5422 400.393 99.8646 405.667 128.708 405.673L374.901 405.67C401.866 405.69 418.107 408.045 417.988 375.818L417.976 209.91C418.012 202.161 419.809 195.048 413.267 189.513C413.675 176.305 410.899 164.682 407.018 152.217Z"/>
	<path fill="#E53922" transform="scale(0.195312 0.195312)" d="M282.238 124.396C281.18 143.252 299.417 168.724 295.968 143.266C291.192 108.015 313.624 80.4733 345.928 68.5764C327.391 104.536 360.885 117.863 362.103 150.2C371.51 140.507 374.542 137.792 377.898 124.396C384.059 129.523 391.032 143.002 394.087 150.422C412.572 195.324 392.235 241.804 347.415 260.089C346.329 260.344 345.197 260.545 344.149 260.927C342.092 261.552 340.044 262.224 337.926 262.609C332.357 263.043 321.01 264.312 316.061 262.609C313.702 262.293 311.401 261.587 309.121 260.927L306.831 260.089C279.873 255.103 260.412 226.419 257.578 200.609C254.982 176.966 264.444 141.377 282.238 124.396Z"/>
	<path fill="#FEA423" transform="scale(0.195312 0.195312)" d="M282.238 124.396C281.18 143.252 299.417 168.724 295.968 143.266C291.192 108.015 313.624 80.4733 345.928 68.5764C327.391 104.536 360.885 117.863 362.103 150.2C371.51 140.507 374.542 137.792 377.898 124.396C384.059 129.523 391.032 143.002 394.087 150.422C412.572 195.324 392.235 241.804 347.415 260.089C348.383 257.833 356.718 254.103 359.218 252.418C375.838 241.217 386.121 222.133 376.259 202.92C375.268 203.836 374.231 204.707 373.214 205.593C372.041 204.832 369.985 204.605 368.601 204.346C370.29 194.963 370.956 184.615 365.826 176.122C361.236 181.416 355.633 184.204 349.245 186.801C349.308 160.671 342.279 141.953 320.01 125.522C320.188 154.623 309.35 166.902 289.042 187.52C288.335 188.238 287.603 188.888 286.813 189.513C283.579 185.681 280.831 181.466 277.587 177.637C266.746 210.419 265.503 238.233 299.526 255.936C301.338 256.879 305.765 258.677 306.831 260.089C279.873 255.103 260.412 226.419 257.578 200.609C254.982 176.966 264.444 141.377 282.238 124.396Z"/>
	<path fill="#FEA423" transform="scale(0.195312 0.195312)" d="M328.822 163.946C339.39 178.855 340.216 188.846 337.926 207.304C343.645 202.083 344.895 198.872 348.424 192.17C365.158 214.962 368.356 239.762 344.45 258.533C343.135 259.565 342.68 259.849 344.149 260.927C342.092 261.552 340.044 262.224 337.926 262.609C332.357 263.043 321.01 264.312 316.061 262.609C313.702 262.293 311.401 261.587 309.121 260.927L309.864 260.138C309.784 258.829 308.041 257.902 307.13 257.069C289.965 241.367 287.803 219.279 303.788 201.137C313.677 189.913 328.792 180.883 328.822 163.946Z"/>
	<path fill="#FCD13E" transform="scale(0.195312 0.195312)" d="M327.924 215.04C332.801 227.629 357.491 242.746 340.345 259.21C339.406 260.111 337.773 261.013 337.366 262.215L337.926 262.609C332.357 263.043 321.01 264.312 316.061 262.609C314.783 260.119 311.442 258.274 309.665 255.951C299.4 242.537 317.995 222.506 327.924 215.04Z"/>
	<path fill="#FCD13E" transform="scale(0.195312 0.195312)" d="M368.601 204.346C369.985 204.605 372.041 204.832 373.214 205.593C371.272 207.219 369.221 208.487 366.951 209.602L368.601 204.346Z"/>
	<path fill="#E2ECF9" transform="scale(0.195312 0.195312)" d="M176.96 194.033C172.414 180.487 180 165.346 193.755 161.469C187.21 179.808 200.563 182.898 204.613 197.966C207.287 196.427 208.882 195.095 210.04 192.17C215.742 196.685 218.294 202.689 219.782 209.602C223.307 209.494 240.662 200.237 244.893 197.966C242.974 216.103 237.83 230.61 222.918 242.621C199.351 261.603 162.363 256.807 143.74 233.238C141.556 230.474 139.324 227.55 137.261 224.691C144.486 225.919 151.84 229.334 159.232 228.693C159.842 228.003 160.448 227.348 160.917 226.552C152.745 214.147 152.803 195.11 165.687 185.828C167.88 191.1 170.973 194.135 176.96 194.033Z"/>
	<path fill="#11AEFD" transform="scale(0.195312 0.195312)" d="M176.96 194.033C172.414 180.487 180 165.346 193.755 161.469C187.21 179.808 200.563 182.898 204.613 197.966C207.287 196.427 208.882 195.095 210.04 192.17C215.742 196.685 218.294 202.689 219.782 209.602L219.782 210.901C217.452 211.147 207.885 216.165 204.916 217.398C195.269 221.404 184.814 223.773 174.438 224.766C172.328 224.967 161.5 224.709 160.917 226.552L160.917 226.552C152.745 214.147 152.803 195.11 165.687 185.828C167.88 191.1 170.973 194.135 176.96 194.033Z"/>
	<path fill="#0599F9" transform="scale(0.195312 0.195312)" d="M160.917 226.552C161.5 224.709 172.328 224.967 174.438 224.766C184.814 223.773 195.269 221.404 204.916 217.398C207.885 216.165 217.452 211.147 219.782 210.901C218.15 243.626 175.244 249.085 160.917 226.552Z"/>
	<path fill="#3C5087" transform="scale(0.195312 0.195312)" d="M323.531 276.755C337.086 276.689 352.708 275.895 359.951 289.883C368.433 306.263 359.094 317.461 345.023 324.658C356.028 326.452 358.429 337.263 362.515 346.294C370.518 363.985 370.605 360.111 349.245 360.049C347.038 356.925 345.595 353.218 344.149 349.696C335.656 336.391 340.385 328.181 322.32 328.484L322.32 360.049C316.261 360.017 310.198 360.169 304.139 360.049L304.138 314.768C304.134 307.2 303.544 296.725 304.543 289.426C306.115 277.939 313.448 277.758 323.531 276.755Z"/>
	<path fill="#E2ECF9" transform="scale(0.195312 0.195312)" d="M327.924 292.658C345.528 289.071 348.878 308.303 337.142 313.611C332.35 315.192 327.294 314.874 322.32 314.815L322.32 292.658C324.19 292.285 326.04 292.515 327.924 292.658Z"/>
	<path fill="#3C5087" transform="scale(0.195312 0.195312)" d="M184.17 277.26C190.335 277.008 196.756 277.124 202.934 277.26L202.934 308.735L233.792 308.735L233.777 289.999C233.775 286.16 233.47 282.059 234.1 278.269L234.423 278.335L234.358 278.027L234.213 277.924C236.676 276.641 248.886 277.214 252.268 277.26L252.268 360.049C250.96 360.128 249.623 360.06 248.312 360.049L233.792 360.049L233.792 324.658L202.934 324.658L202.934 360.049L191.569 360.087C189.36 360.109 186.968 360.399 184.797 360.015C183.143 357.642 184.168 307.393 184.169 300.726L184.152 284.444C184.128 282.268 183.337 279.303 184.17 277.26Z"/>
	<path fill="#3C5087" transform="scale(0.195312 0.195312)" d="M128.966 277.26L154.189 277.264C157.139 277.255 167.25 276.171 169.402 277.989C170.126 279.74 170.009 289.952 169.303 291.783C167.408 293.455 159.095 292.665 156.625 292.666L137.261 292.658L137.261 311.733C141.454 311.727 162.815 311.086 165.194 312.424C166.229 314.932 166.409 324.61 164.861 326.165C163.226 327.808 157.833 327.025 155.515 326.977L137.261 326.977L137.218 349.984C137.197 353.114 138.993 359.769 134.457 360.374C117.325 362.659 118.731 355.797 118.763 342.555L118.768 298.666C118.756 289.65 116.568 278.219 128.966 277.26Z"/>
	<path fill="#3C5087" transform="scale(0.195312 0.195312)" d="M271.176 277.26C290.835 276.762 288.225 274.21 288.231 292.119L288.229 340.803C288.237 343.742 289.099 358.17 287.85 359.935L286.813 360.049L269.254 360.049C269.002 352.843 269.054 279.332 269.678 278.189C270.099 277.418 270.401 277.468 271.176 277.26Z"/>
	<path fill="#4E6B7D" transform="scale(0.195312 0.195312)" d="M221.217 152.217L252.268 152.217C248.969 160.428 247.589 169.762 244.893 176.122C245.02 178.701 245.084 181.118 244.893 183.705C236.72 169.07 237.716 164.067 221.217 152.217Z"/>
</svg>
