<?xml version="1.0" encoding="utf-8" ?>
<svg xmlns="http://www.w3.org/2000/svg" xmlns:xlink="http://www.w3.org/1999/xlink" width="100" height="100">
	<path fill="#4677F5" transform="scale(0.195312 0.195312)" d="M177.136 264.409C161.265 253.612 180.773 245.35 190.343 238.604L209.476 225.086C219.609 217.906 229.038 211.605 228.433 229.825C226.213 230.377 179.85 261.055 177.136 264.409Z"/>
	<path fill="#2ED78B" transform="scale(0.195312 0.195312)" d="M130.731 135.872C133.987 139.121 137.616 141.982 140.845 145.217C137.666 148.027 134.104 151.864 130.731 154.255C125.412 153.863 119.786 154.24 114.429 154.244L79.7125 154.24C75.6222 154.229 68.9875 154.795 65.1247 154.156C58.0419 152.984 54.5709 144.697 59.6106 139.06C63.8611 134.306 74.8953 135.876 81.067 135.875L114.254 135.869C119.726 135.873 125.27 136.124 130.731 135.872Z"/>
	<path fill="#2ED78B" transform="scale(0.195312 0.195312)" d="M373.298 377.002C376.419 373.917 379.472 370.379 383.022 367.8C388.31 368.012 393.661 367.807 398.956 367.805L430.615 367.804C435.14 367.804 442.85 367.207 446.918 368.077C457.533 370.346 458.181 386.473 447.143 388.17C443.09 388.793 436.926 388.248 432.656 388.252L400.954 388.256C395.781 388.252 390.393 387.917 385.241 388.268C384.323 387.968 374.899 378.483 373.298 377.002Z"/>
	<path fill="#46578F" transform="scale(0.195312 0.195312)" d="M72.8242 365.457C55.8383 358.827 57.5341 348.055 57.5249 332.817L57.524 285.746C57.5344 261.338 66.4795 259.525 86.919 259.593L118.929 259.588C125.083 259.588 134.094 257.925 135.708 265.988C135.154 271.418 125.213 268.986 119.596 268.988L89.3357 268.965C71.2509 268.916 69.3146 269.841 69.4682 289.996L69.4819 337.95C69.4815 343.289 68.8625 350.692 70.0656 355.737C70.8055 358.839 73.2685 362.315 72.8242 365.457Z"/>
	<path fill="#19B377" transform="scale(0.195312 0.195312)" d="M130.731 135.872C126.968 131.934 116.642 122.859 114.32 118.748C110.772 112.465 116.635 104.639 123.677 105.391C128.911 105.95 139.229 118.098 143.544 122.383L153.864 132.479C165.727 143.948 165.465 146.249 154.221 157.149L144.182 166.973C139.47 171.573 133.125 178.731 128.094 182.43C121.378 187.367 111.187 181.844 113.369 173.186C114.67 168.022 126.574 158.704 130.731 154.255C134.104 151.864 137.666 148.027 140.845 145.217C137.616 141.982 133.987 139.121 130.731 135.872Z"/>
	<path fill="#19B377" transform="scale(0.195312 0.195312)" d="M385.241 388.268C388.79 392.743 396.836 397.8 398.237 403.095C399.774 408.899 395.686 414.21 390.043 415.414C382.436 417.036 377.35 408.847 372.68 404.314L359.034 391.113C353.718 385.985 345.538 380.049 351.39 371.871C354.66 367.304 377.914 344.359 383.268 340.386C388.952 336.168 398.32 339.759 398.774 347.171C399.27 355.28 387.758 362.214 383.022 367.8C379.472 370.379 376.419 373.917 373.298 377.002C374.899 378.483 384.323 387.968 385.241 388.268Z"/>
	<path fill="#608FF7" transform="scale(0.195312 0.195312)" d="M323.739 306.381C331.752 308.336 335.853 313.626 333.746 321.832C313.95 398.938 217.437 431.187 155.673 381.489C158.086 378.04 160.483 374.474 163.223 371.277C171.239 380.083 192.589 388.325 204.189 390.553C252.441 399.818 303.314 374.062 319.22 326.201C321.341 319.82 322.476 312.984 323.739 306.381Z"/>
	<path fill="#4677F5" transform="scale(0.195312 0.195312)" d="M160.939 350.822C205.141 391.677 271.967 387.206 300.693 330.789C306.312 319.753 305.417 302.937 323.739 306.381C322.476 312.984 321.341 319.82 319.22 326.201C303.314 374.062 252.441 399.818 204.189 390.553C192.589 388.325 171.239 380.083 163.223 371.277C160.483 374.474 158.086 378.04 155.673 381.489C149.941 376.706 143.932 371.938 139.09 366.223C142.585 365.39 148.901 367.032 153.611 366.223C159.603 363.749 161.808 359.223 160.939 352.797L160.939 350.822Z"/>
	<path fill="#566DA8" transform="scale(0.195312 0.195312)" d="M135.708 265.988C136.015 267.916 135.662 269.826 135.708 271.76C135.424 275.471 135.736 279.297 135.708 283.023L120.987 283.023C110.676 288.203 100.603 290.538 99.9915 306.381C100.931 318.4 98.3639 331.997 100.849 343.664C98.2267 343.655 89.8028 343.173 87.8485 343.664L87.8485 343.664C92.5114 343.459 97.2352 343.655 101.905 343.667L142.487 343.64C147.815 343.629 152.756 342.753 157.032 346.499C158.544 347.798 159.715 349.257 160.939 350.822L160.939 352.797C161.808 359.223 159.603 363.749 153.611 366.223C148.901 367.032 142.585 365.39 139.09 366.223C136.204 365.725 128.907 366.228 125.56 366.23L94.6731 366.234C87.4609 366.232 79.9529 366.652 72.8242 365.457C73.2685 362.315 70.8055 358.839 70.0656 355.737C68.8625 350.692 69.4815 343.289 69.4819 337.95L69.4682 289.996C69.3146 269.841 71.2509 268.916 89.3357 268.965L119.596 268.988C125.213 268.986 135.154 271.418 135.708 265.988ZM82.4837 283.023L82.4837 343.664C84.2646 343.669 86.0706 343.737 87.8485 343.664C89.8028 343.173 98.2267 343.655 100.849 343.664C98.3639 331.997 100.931 318.4 99.9915 306.381C100.603 290.538 110.676 288.203 120.987 283.023C112.507 282.591 90.802 282.026 82.4837 283.023Z"/>
	<path fill="#46578F" transform="scale(0.195312 0.195312)" d="M87.8485 343.664C92.5114 343.459 97.2352 343.655 101.905 343.667L142.487 343.64C147.815 343.629 152.756 342.753 157.032 346.499C158.544 347.798 159.715 349.257 160.939 350.822L160.939 352.797C153.372 352.8 90.7191 353.903 86.4184 351.596C84.7815 350.718 81.4295 345.969 82.7769 343.98C84.1822 343.501 86.3114 343.799 87.8485 343.664Z"/>
	<path fill="#FEFEFE" transform="scale(0.195312 0.195312)" d="M135.708 283.023C135.736 279.297 135.424 275.471 135.708 271.76C135.882 275.505 135.693 279.274 135.708 283.023C143.419 283.013 161.724 282.243 168.304 284.036C177.996 286.677 185.676 296.047 184.484 306.381C184.595 313.406 185.617 341.544 182.948 345.923C179.635 348.466 157.823 344.732 157.032 346.499C152.756 342.753 147.815 343.629 142.487 343.64L101.905 343.667C97.2352 343.655 92.5114 343.459 87.8485 343.664L87.8485 343.664C89.8028 343.173 98.2267 343.655 100.849 343.664C98.3639 331.997 100.931 318.4 99.9915 306.381C100.603 290.538 110.676 288.203 120.987 283.023L135.708 283.023Z"/>
	<path fill="#B9CFD3" transform="scale(0.195312 0.195312)" d="M135.708 283.023C135.736 279.297 135.424 275.471 135.708 271.76C135.882 275.505 135.693 279.274 135.708 283.023C143.419 283.013 161.724 282.243 168.304 284.036C177.996 286.677 185.676 296.047 184.484 306.381L110.089 306.365C106.749 306.344 103.318 306.131 99.9915 306.381C100.603 290.538 110.676 288.203 120.987 283.023L135.708 283.023Z"/>
	<path fill="#FBC97A" transform="scale(0.195312 0.195312)" d="M387.589 145.217L420.558 145.207C425.613 145.208 433.901 144.615 438.582 145.73C457.253 150.176 453.968 169.642 453.972 183.775L453.959 229.72C453.764 253.78 432.15 251.75 414.643 251.72C403.972 251.703 393.266 251.912 382.6 251.742C372.346 251.578 373.05 242.564 373.298 234.61C373.263 232.318 373.297 230.02 373.298 227.727L411.868 227.727L409.766 227.245C412.657 220.5 412.968 197.09 410.939 192.512C417.453 185.171 405.606 172.584 400.924 167.357L400.924 167.357C397.22 163.214 388.652 149.246 387.589 145.217ZM400.924 167.357C405.606 172.584 417.453 185.171 410.939 192.512C412.968 197.09 412.657 220.5 409.766 227.245L411.868 227.727C423.941 227.787 428.841 231.164 428.322 219.073C427.817 215.016 428.327 207.932 428.332 203.453L428.322 167.357L400.924 167.357Z"/>
	<path fill="#F2A849" transform="scale(0.195312 0.195312)" d="M428.322 167.357C435.217 166.699 442.327 170.515 442.908 178.021C443.623 187.249 443.784 220.62 442.251 228.054C438.964 243.987 421.925 241.497 409.792 241.495C397.631 241.492 385.457 241.359 373.298 241.486C373.437 239.334 373.857 236.693 373.298 234.61C373.263 232.318 373.297 230.02 373.298 227.727L411.868 227.727C423.941 227.787 428.841 231.164 428.322 219.073C428.625 215.654 428.352 212.066 428.334 208.625L428.352 174.721C428.368 172.313 428.643 169.742 428.322 167.357Z"/>
	<path fill="#4677F5" transform="scale(0.195312 0.195312)" d="M204.91 198.511C197.044 212.222 177.742 205.84 179.736 192.463C183.135 169.653 202.423 142.548 220.394 129.138C264.444 96.2678 322.724 100.12 363.093 136.485C366.107 139.2 369.374 141.947 371.797 145.217C369.2 144.912 366.469 145.178 363.853 145.192L348.666 145.217C340.887 144.386 340.419 145.747 341.045 153.289C336.242 150.152 332.485 146.853 327.281 143.97C283.912 119.945 227.2 141.131 209.48 186.466C207.968 190.333 207.034 194.957 204.91 198.511Z"/>
	<path fill="#608FF7" transform="scale(0.195312 0.195312)" d="M195.984 188.814C198.317 184.071 199.817 178.902 202.121 174.12C222.338 132.169 273.375 110.913 317.486 126.324C326.34 129.417 343.596 137.484 348.666 145.217C340.887 144.386 340.419 145.747 341.045 153.289C336.242 150.152 332.485 146.853 327.281 143.97C283.912 119.945 227.2 141.131 209.48 186.466C207.968 190.333 207.034 194.957 204.91 198.511C203.328 198.051 202.001 198.282 200.403 198.511C200.566 193.715 200.324 191.57 195.984 188.814Z"/>
	<path fill="#B9CFD3" transform="scale(0.195312 0.195312)" d="M348.666 145.217L363.853 145.192C366.469 145.178 369.2 144.912 371.797 145.217C377.041 145.19 382.355 144.961 387.589 145.217C388.652 149.246 397.22 163.214 400.924 167.357L400.924 167.357C405.606 172.584 417.453 185.171 410.939 192.512C412.968 197.09 412.657 220.5 409.766 227.245L411.868 227.727L373.298 227.727L351.063 227.739C344.228 227.731 332.336 230.005 330.42 220.974C329.725 217.695 329.613 194.638 331.009 192.512C325.676 184.465 336.929 173.822 340.895 167.596L341.045 167.357C340.85 162.678 341.265 157.979 341.045 153.289C340.419 145.747 340.887 144.386 348.666 145.217Z"/>
	<path fill="#F2A849" transform="scale(0.195312 0.195312)" d="M348.666 145.217L363.853 145.192C366.469 145.178 369.2 144.912 371.797 145.217C377.041 145.19 382.355 144.961 387.589 145.217C388.652 149.246 397.22 163.214 400.924 167.357L341.045 167.357C340.85 162.678 341.265 157.979 341.045 153.289C340.419 145.747 340.887 144.386 348.666 145.217Z"/>
	<path fill="#FEFEFE" transform="scale(0.195312 0.195312)" d="M331.009 192.512C336.143 195.438 341.063 194.656 346.831 194.656L392.408 194.652C398.558 194.655 405.585 196.066 410.939 192.512C412.968 197.09 412.657 220.5 409.766 227.245L411.868 227.727L373.298 227.727L351.063 227.739C344.228 227.731 332.336 230.005 330.42 220.974C329.725 217.695 329.613 194.638 331.009 192.512Z"/>
	<path fill="#608FF7" transform="scale(0.195312 0.195312)" d="M283.544 238.137C283.777 233.258 282.147 223.36 285.964 219.889C293.02 213.473 310.441 230.398 317.066 234.937C324.741 240.196 333.034 244.918 340.268 250.76C343.101 253.048 341.803 258.04 339.913 260.438C328.965 270.1 309.401 281.532 296.486 291.199C283.044 300.449 283.443 287.529 283.544 278.134C283.401 275.103 283.524 272.015 283.544 268.979L228.433 268.979C228.399 273.768 229.38 288.358 227.079 291.726C221.909 299.294 209.948 287.336 205.169 283.973L177.136 264.409C179.85 261.055 226.213 230.377 228.433 229.825L228.433 238.137C229.541 238.125 230.669 238.067 231.774 238.137L283.544 238.137Z"/>
	<path fill="#4677F5" transform="scale(0.195312 0.195312)" d="M283.544 271.76L296.486 271.76C296.232 274.79 296.029 288.684 296.486 291.199C283.044 300.449 283.443 287.529 283.544 278.134C283.889 276.055 283.676 273.855 283.544 271.76Z"/>
	<path fill="#4677F5" transform="scale(0.195312 0.195312)" d="M283.544 238.137C283.777 233.258 282.147 223.36 285.964 219.889C293.02 213.473 310.441 230.398 317.066 234.937C324.741 240.196 333.034 244.918 340.268 250.76C343.101 253.048 341.803 258.04 339.913 260.438C334.161 259.083 305.95 236.108 296.486 229.825L296.486 252.469C291.809 252.651 287.062 252.482 282.379 252.478L254.874 252.462C246.172 252.459 237.071 253.235 228.433 252.469C228.001 247.713 228.276 242.902 228.433 238.137C229.572 238.246 230.636 238.21 231.774 238.137L283.544 238.137Z"/>
</svg>
