<?xml version="1.0" encoding="utf-8" ?>
<svg xmlns="http://www.w3.org/2000/svg" xmlns:xlink="http://www.w3.org/1999/xlink" width="100" height="100">
	<path fill="#E7EBEF" transform="scale(0.195312 0.195312)" d="M240.49 334.245C244.795 339.508 239.428 340.956 234.826 341.161C226.123 341.547 217.295 341.241 208.573 341.241L129.522 341.246C123.235 341.248 116.482 341.778 110.307 340.595C86.1657 335.966 86.0848 314.262 86.0902 295.647L86.0842 89.5897C86.0828 85.0411 85.8104 80.228 86.6819 75.7464C91.4821 51.0622 112.229 50.4854 131.625 50.4877L316.993 50.4866C334.691 50.4363 352.025 56.2065 354.498 76.9584C355.2 82.8466 354.706 89.2564 354.69 95.2043L354.705 172.179C354.712 178.723 358.394 197.044 348.101 193.333L347.795 193.22C348.257 198.186 348.328 203.06 348.29 208.042C380.034 218.501 379.285 234.182 379.248 263.027L403.095 263.001C421.025 262.977 426.652 263.024 426.516 282.849L426.482 350.08C426.079 398.297 382.989 444.764 338.001 457.463C297.459 441.193 257.873 404.457 255.665 358.393C255.155 356.439 255.541 336.482 255.665 333.518C250.635 334.122 245.445 333.153 240.49 334.245ZM346.948 85.0974C346.354 65.4384 337.41 58.2513 318.3 58.2381L132.25 58.2393C120.833 58.231 108.954 56.291 100.325 65.5902C95.2798 71.0282 94.0011 77.8957 94.3197 85.0974C95.3666 84.2612 95.7215 82.7199 96.3975 81.5819C105.356 66.5026 122.936 69.4363 137.9 69.4447L312.057 69.4224C326.043 69.4351 337.715 70.1325 345.866 84.1871C346.101 84.593 346.315 84.9098 346.643 85.2547L346.948 85.0974Z"/>
	<path fill="#385EA4" transform="scale(0.195312 0.195312)" d="M305.264 229.557C313.839 211.462 329.25 207.085 348.29 208.042C380.034 218.501 379.285 234.182 379.248 263.027L403.095 263.001C421.025 262.977 426.652 263.024 426.516 282.849L426.482 350.08C426.079 398.297 382.989 444.764 338.001 457.463C297.459 441.193 257.873 404.457 255.665 358.393L255.664 313.734C255.663 305.713 255.874 297.65 255.665 289.636L255.665 280.605L255.047 280.503C249.124 279.575 250.748 275.444 251.852 270.974C246.183 263.264 250.021 262.362 257.611 262.063C260.32 259.337 261.819 248.691 267.206 257.043C267.766 258.432 268.51 259.74 269.211 261.061C279.858 263.772 291.154 263.172 302.068 263.027L302.068 251.189C299.417 249.817 297.061 247.956 294.374 246.61C286.214 249.922 283.737 253.772 285.946 239.344L284.837 237.531C278.807 230.869 283.352 229.835 290.08 229.557C291.566 218.54 297.286 218.75 300.012 228.612C301.849 228.747 303.495 229.065 305.264 229.557Z"/>
	<path fill="#FECC25" transform="scale(0.195312 0.195312)" d="M257.611 262.063C260.091 261.56 274.339 259.212 263.544 263.027C260.977 264.171 258.674 265.545 256.492 267.323C256.651 265.929 256.693 263.147 257.611 262.063Z"/>
	<path fill="#33C9A2" transform="scale(0.195312 0.195312)" d="M336.661 448.371C329.904 445.016 323.483 442.387 316.986 438.374C288.11 420.541 265.204 389.94 263.616 355.223C263.387 350.228 263.534 345.172 263.534 340.17L263.536 289.109C263.535 285.263 262.57 274.696 264.589 271.462C267.215 270.024 286.897 270.964 290.988 270.965L336.661 270.974L404.265 270.971C413.332 270.975 418.729 268.608 418.622 279.909L418.56 326.606C418.563 335.664 419.112 345.136 418.243 354.14C414.215 395.882 384.347 430.632 346.334 446.304C343.691 447.394 339.501 449.915 336.661 448.371Z"/>
	<path fill="#385EA4" transform="scale(0.195312 0.195312)" d="M336.661 296.522L354.691 296.522C358.152 298.566 382.31 323.65 384.171 326.698C384.399 336.568 384.176 346.49 384.177 356.366C384.178 369.447 387.776 391.259 368.005 391.483C357.563 391.602 347.104 391.446 336.661 391.453C334.331 391.283 331.901 391.436 329.56 391.441L315.029 391.492C310.335 391.514 304.657 392.184 301.044 388.48C295.143 382.43 297.268 366.725 297.265 358.995L297.265 323.355C297.273 302.041 294.068 296.503 317.192 296.505L336.661 296.522Z"/>
	<path fill="#E7EBEF" transform="scale(0.195312 0.195312)" d="M308.452 304.294C321.724 304.131 335.016 304.288 348.29 304.294L348.266 313.376C348.239 335.387 358.581 333.494 376.274 333.518L376.288 363.623C376.296 370.216 378.329 377.765 372.346 382.293C366.908 385.422 347.403 383.824 340.66 383.828C330.505 383.835 320.236 384.18 310.095 383.799C302.208 383.503 305.243 372.91 305.265 366.243L305.312 316.746C305.309 312.789 303.363 305.573 308.452 304.294Z"/>
	<path fill="#385EA4" transform="scale(0.195312 0.195312)" d="M321.191 345.211L347.593 345.192C351.318 345.185 356.314 344.728 359.848 345.323C364.146 346.046 363.273 351.466 360.246 353.233C355.834 353.496 322.386 353.511 320.598 352.906C316.617 351.558 318.251 346.664 321.191 345.211Z"/>
	<path fill="#385EA4" transform="scale(0.195312 0.195312)" d="M321.191 362.941C326.926 362.821 356.555 362.25 360.153 363.274C364.115 364.403 363.811 369.103 360.246 370.782C354.741 371.157 324.742 371.298 321.384 370.451C317.234 369.404 317.442 364.672 321.191 362.941Z"/>
	<path fill="#33C9A2" transform="scale(0.195312 0.195312)" d="M356.059 308.575C357.791 309.657 371.831 323.817 373.348 325.803C355.99 326.316 355.978 325.251 356.059 308.575Z"/>
	<path fill="#E7EBEF" transform="scale(0.195312 0.195312)" d="M310.266 263.027C310.232 246.908 307.408 232.047 322.357 221.326C330.271 215.651 338.983 215.075 348.29 216.56C372.97 222.56 371.265 242.997 371.229 263.027L348.29 263.027L310.266 263.027Z"/>
	<path fill="#DDDEDF" transform="scale(0.195312 0.195312)" d="M348.29 216.56C372.97 222.56 371.265 242.997 371.229 263.027L348.29 263.027C348.231 256.124 347.892 247.619 348.29 241.018C345.32 237.812 345.692 228.196 348.29 225.204C347.634 223.912 348.024 218.319 348.29 216.56Z"/>
	<path fill="#385EA4" transform="scale(0.195312 0.195312)" d="M348.29 225.204C356.706 220.351 355.618 236.409 353.798 240.308C352.612 242.848 350.359 242.107 348.29 241.018C345.32 237.812 345.692 228.196 348.29 225.204Z"/>
	<path fill="#FECC25" transform="scale(0.195312 0.195312)" d="M295.288 230.95C295.955 231.99 296.403 233.25 296.906 234.38C300.698 234.608 300.416 235.102 298.064 237.531C297.971 238.68 298.048 239.865 298.064 241.018C297.176 240.574 296.213 240.246 295.288 239.886C294.003 240.141 292.797 240.583 291.565 241.018C291.956 239.869 292.279 238.696 292.62 237.531L290.08 235.199C291.323 235.001 292.46 234.744 293.665 234.38L295.288 230.95Z"/>
	<path fill="#385EA4" transform="scale(0.195312 0.195312)" d="M240.49 334.245C244.795 339.508 239.428 340.956 234.826 341.161C226.123 341.547 217.295 341.241 208.573 341.241L129.522 341.246C123.235 341.248 116.482 341.778 110.307 340.595C86.1657 335.966 86.0848 314.262 86.0902 295.647L86.0842 89.5897C86.0828 85.0411 85.8104 80.228 86.6819 75.7464C91.4821 51.0622 112.229 50.4854 131.625 50.4877L316.993 50.4866C334.691 50.4363 352.025 56.2065 354.498 76.9584C355.2 82.8466 354.706 89.2564 354.69 95.2043L354.705 172.179C354.712 178.723 358.394 197.044 348.101 193.333L347.795 193.22C346.223 189.08 346.94 184.089 346.939 179.751L346.937 108.029C346.925 100.408 347.221 92.7083 346.948 85.0974C346.354 65.4384 337.41 58.2513 318.3 58.2381L132.25 58.2393C120.833 58.231 108.954 56.291 100.325 65.5902C95.2798 71.0282 94.0011 77.8957 94.3197 85.0974L94.3223 267.676C94.3162 277.727 94.1266 287.806 94.3197 297.854C94.1976 317.439 95.0889 333.475 119.554 333.537L197.563 333.519C204.274 333.52 236.618 332.822 240.49 334.245Z"/>
	<path fill="#DDDEDF" transform="scale(0.195312 0.195312)" d="M255.665 289.636C255.874 297.65 255.663 305.713 255.664 313.734L255.665 358.393C255.155 356.439 255.541 336.482 255.665 333.518C250.635 334.122 245.445 333.153 240.49 334.245C236.618 332.822 204.274 333.52 197.563 333.519L119.554 333.537C95.0889 333.475 94.1976 317.439 94.3197 297.854C99.6036 319.348 116.029 318.21 134.119 318.213L224.749 318.211C235.045 318.211 245.373 318.399 255.665 318.212L255.65 299.376C255.637 296.178 255.305 292.804 255.665 289.636Z"/>
	<path fill="#4CA2EF" transform="scale(0.195312 0.195312)" d="M218.148 130.896C250.117 128.662 278.084 154.819 281.91 185.872C286.505 223.17 259.288 251.936 223.379 256.225C206.939 256.556 191.644 251.527 179.325 240.446C138.115 203.381 160.927 133.671 218.148 130.896Z"/>
	<path fill="#385EA4" transform="scale(0.195312 0.195312)" d="M217.408 140.585C224.788 138.406 234.374 143.624 239.386 148.613C248.831 158.016 247.616 169.667 247.586 181.87C254.014 186.102 256.483 190.189 256.508 198.202L256.502 215.136C256.511 244.78 248.931 241.079 223.379 241.018C210.786 241.038 189.227 245.425 184.027 231.249C182.691 227.608 182.917 199.692 183.484 194.694C184.034 189.839 186.323 184.709 191.279 183.014C191.235 164.008 192.418 141.577 217.408 140.585Z"/>
	<path fill="#FECC25" transform="scale(0.195312 0.195312)" d="M202.268 186.919L227.806 186.906C233.968 186.905 247.125 184.924 249.218 193.165C250.471 198.099 249.74 217.884 249.656 223.811C249.529 232.674 246.183 233.929 238.026 233.771L209.802 233.782C200.966 233.784 190.621 236.833 190.307 224.491C190.159 218.687 190.278 212.848 190.284 207.041C190.293 196.681 188.275 187.179 202.268 186.919Z"/>
	<path fill="#385EA4" transform="scale(0.195312 0.195312)" d="M218.906 196.3C228.958 195.617 231.621 208.086 223.379 213.422C223.309 216.982 224.418 220.626 220.846 222.76C214.807 222.963 215.911 217.891 216.032 213.422C207.586 208.048 209.488 198.26 218.906 196.3Z"/>
	<path fill="#4CA2EF" transform="scale(0.195312 0.195312)" d="M218.906 202.462C223.055 202.92 223.596 206.762 220.198 208.63C215.948 208.731 215.719 204.171 218.906 202.462Z"/>
	<path fill="#4CA2EF" transform="scale(0.195312 0.195312)" d="M218.906 147.608C239.458 147.239 240.524 164.323 240.49 180.051L220.846 180.051L198.603 180.051C198.583 164.345 199.017 148.871 218.906 147.608Z"/>
	<path fill="#385EA4" transform="scale(0.195312 0.195312)" d="M133.293 172.781C135.706 173.353 137.229 178.032 138.257 180.051C146.995 183.662 155.08 180.478 141.805 191.525C143.149 201.003 146.553 208.108 133.293 198.809C124.276 205.018 120.754 204.495 124.085 192.351C113.135 184.152 116.563 181.593 127.616 180.973C128.951 177.441 129.018 173.734 133.293 172.781Z"/>
	<path fill="#FAC613" transform="scale(0.195312 0.195312)" d="M133.293 183.014C133.773 184.34 134.201 185.691 134.904 186.919C136.286 186.867 137.636 186.842 139.019 186.919C138.051 187.748 136.977 188.554 136.135 189.51C135.576 191.306 136.237 192.378 136.984 193.988C135.679 193.323 134.489 192.369 133.293 191.525C132.048 192.557 130.845 193.553 129.448 194.378C129.846 192.767 130.061 191.152 130.279 189.51C129.361 188.669 128.478 187.818 127.616 186.919L131.054 186.919C131.856 185.651 132.565 184.326 133.293 183.014Z"/>
	<path fill="#385EA4" transform="scale(0.195312 0.195312)" d="M141.805 219.477C146.218 219.927 146.147 225.032 147.779 228.248L147.966 228.612C163.96 230.644 156.604 231.415 151.635 239.344C154.463 250.308 154.534 252.901 143.393 246.61C141.346 245.641 137.961 249.921 135.198 249.778C130.14 249.515 132.706 242.265 133.293 239.344C128.539 233.48 120.172 227.649 136.984 228.612C138.046 225.374 138.782 221.451 141.805 219.477Z"/>
	<path fill="#FECC25" transform="scale(0.195312 0.195312)" d="M142.856 229.557L144.217 233.771C145.465 233.969 146.727 234.136 147.966 234.38C146.972 235.395 145.947 236.388 145.099 237.531C145.322 238.689 145.498 239.883 145.814 241.018C144.828 240.464 143.824 239.93 142.856 239.344C141.519 239.629 140.24 240.413 139.019 241.018L139.905 237.531C138.836 236.35 137.387 235.37 136.135 234.38C137.41 234.265 138.65 234.012 139.905 233.771C141.052 232.492 141.93 230.997 142.856 229.557Z"/>
	<path fill="#FAC613" transform="scale(0.195312 0.195312)" d="M142.856 229.557L144.217 233.771C142.802 233.736 141.302 233.885 139.905 233.771C141.052 232.492 141.93 230.997 142.856 229.557Z"/>
	<path fill="#FAC613" transform="scale(0.195312 0.195312)" d="M142.856 239.344C143.931 238.056 143.07 237.538 145.099 237.531C145.322 238.689 145.498 239.883 145.814 241.018C144.828 240.464 143.824 239.93 142.856 239.344Z"/>
	<path fill="#385EA4" transform="scale(0.195312 0.195312)" d="M295.774 131.497C300.03 131.516 300.261 135.344 301.921 138.464L302.068 138.735C309.832 141.107 318.807 139.362 306.145 149.323C306.814 159.275 311.283 164.798 296.906 156.753C285.744 161.608 285.904 164.471 287.909 150.725L287.961 150.357C281.622 142.791 273.725 140.928 291.565 138.735C292.555 135.97 293.309 133.31 295.774 131.497Z"/>
	<path fill="#FAC613" transform="scale(0.195312 0.195312)" d="M296.906 141.404C299.066 143.994 298.014 145.252 302.068 145.589C301.223 146.563 300.61 147.428 300.012 148.579C299.941 149.485 299.992 150.405 300.012 151.314C298.955 151.046 297.936 150.715 296.906 150.357C296.026 150.173 294.515 150.99 293.665 151.314L293.665 148.579L291.565 145.589C292.802 145.296 294.047 145.034 295.288 144.761C295.848 143.653 296.37 142.524 296.906 141.404Z"/>
	<path fill="#385EA4" transform="scale(0.195312 0.195312)" d="M141.805 130.896C145.965 130.599 146.763 135.62 147.966 138.735C162.711 138.923 158.405 142.435 151.857 149.093L151.635 149.323C155.041 161.496 154.131 160.174 143.393 156.753C133.117 158.838 131.627 165.861 133.293 149.323C126.802 142.332 122.035 138.418 136.984 138.735C138.113 135.702 138.737 132.512 141.805 130.896Z"/>
	<path fill="#FAC613" transform="scale(0.195312 0.195312)" d="M142.856 140.585L144.217 144.228C145.852 144.198 147.663 143.971 149.27 144.228C147.984 145.269 146.837 146.295 145.814 147.608C145.79 148.842 145.736 150.081 145.814 151.314L142.856 149.323C141.561 149.951 140.235 150.541 139.019 151.314C139.334 149.784 139.705 148.24 139.905 146.691C138.918 145.885 137.927 145.087 136.984 144.228C138.237 144.153 139.487 144.014 140.731 144.228C141.478 143.044 142.153 141.797 142.856 140.585Z"/>
	<path fill="#385EA4" transform="scale(0.195312 0.195312)" d="M262.221 97.4919C266.945 96.9976 267.92 102.549 269.211 106.076C282.371 105.051 280.284 109.857 272.509 116.338C273.248 119.15 273.766 121.607 273.738 124.519C272.68 125.569 271.572 126.226 270.209 126.82C268.392 125.963 266.859 124.867 265.254 123.668C260.062 122.139 250.729 135.185 254.66 116.338C249.053 110.379 241.277 106.856 257.611 105.426C258.744 102.522 259.645 99.4558 262.221 97.4919Z"/>
	<path fill="#FAC613" transform="scale(0.195312 0.195312)" d="M263.544 108.349C264.073 108.633 264.923 110.964 265.254 111.668C266.604 111.769 267.898 111.859 269.211 112.216C266.927 114.385 266.518 115.178 267.206 118.382L263.544 116.338C262.435 116.967 261.386 117.735 260.278 118.382L260.278 114.552C259.343 113.642 258.489 112.635 257.611 111.668C260.854 111.54 261.829 111.357 263.544 108.349Z"/>
	<path fill="#385EA4" transform="scale(0.195312 0.195312)" d="M307.364 172.781C311.416 172.66 312 177.951 313.001 180.973C325.416 182.235 325.945 182.995 316.903 191.525C318.487 203.381 317.791 203.242 308.452 198.809C305.504 197.949 303.238 200.892 300.492 201.622C295.902 202.842 297.791 193.694 298.064 191.525C287.431 183.562 291.897 182.157 302.068 180.973C303.376 177.608 303.517 174.113 307.364 172.781Z"/>
	<path fill="#FAC613" transform="scale(0.195312 0.195312)" d="M307.364 183.014C307.857 184.134 308.305 185.317 308.915 186.376C310.283 186.515 311.66 186.612 313.001 186.919L310.266 188.735C310.453 190.225 310.573 191.758 310.924 193.22C309.747 192.647 308.574 192.023 307.364 191.525C306.229 192.222 305.511 193.272 304.44 193.988C304.419 192.519 304.312 190.971 304.44 189.51C303.725 188.503 302.978 187.741 302.068 186.919L305.264 186.376C306.21 185.38 306.56 184.103 307.364 183.014Z"/>
	<path fill="#FECC25" transform="scale(0.195312 0.195312)" d="M302.068 186.919L305.264 186.376C305.297 187.659 304.774 188.347 304.44 189.51C303.725 188.503 302.978 187.741 302.068 186.919Z"/>
	<path fill="#385EA4" transform="scale(0.195312 0.195312)" d="M218.906 265.335C222.855 265.642 223.311 269.363 224.937 272.351C232.759 274.937 241.02 272.75 229.094 283.111C230.47 292.305 231.798 296.381 220.846 290.589C217.625 289.544 214.86 293.692 211.566 293.496C207.862 293.275 210.013 286.385 210.267 284.24C206.612 278.202 197.319 274 213.779 273.186C215.097 270.636 216.128 266.569 218.906 265.335Z"/>
	<path fill="#FAC613" transform="scale(0.195312 0.195312)" d="M219.772 274.363C220.045 275.815 220.263 277.263 220.846 278.631C222.202 278.952 223.565 279.323 224.937 279.566C223.952 280.076 223.187 280.622 222.415 281.423C222.689 282.882 222.937 284.338 223.379 285.757C221.924 284.965 220.554 284.475 218.906 284.24C217.936 284.726 216.962 285.198 216.032 285.757C216.247 284.313 216.502 282.848 216.032 281.423C215.264 280.927 214.404 279.391 213.779 278.631C214.985 278.585 216.201 278.624 217.408 278.631C218.228 277.225 219 275.795 219.772 274.363Z"/>
	<path fill="#FECC25" transform="scale(0.195312 0.195312)" d="M213.779 278.631C214.985 278.585 216.201 278.624 217.408 278.631C217.159 279.731 216.652 280.503 216.032 281.423C215.264 280.927 214.404 279.391 213.779 278.631Z"/>
	<path fill="#385EA4" transform="scale(0.195312 0.195312)" d="M219.772 90.0424C223.794 90.482 224.764 95.0617 226.317 98.1717C237.501 99.003 239.442 101.181 229.094 108.349C232.306 118.53 228.804 119.188 220.846 114.552C216.55 116.267 214.129 120.184 210.267 115.533C210.25 113.109 210.456 110.789 210.267 108.349C203.832 100.881 201.607 97.6708 214.957 98.1717C215.551 95.077 216.251 91.0013 219.772 90.0424Z"/>
	<path fill="#FECC25" transform="scale(0.195312 0.195312)" d="M220.846 98.9833C221.072 100.473 221.282 101.962 221.468 103.457C222.646 103.568 223.852 103.763 224.937 104.262C223.162 106.292 222.864 107.049 223.379 109.602L220.846 108.349C216.067 110.321 219.151 107.397 214.957 104.262C216.266 104.009 217.624 103.816 218.906 103.457C219.328 101.837 219.994 100.414 220.846 98.9833Z"/>
	<path fill="#FAC613" transform="scale(0.195312 0.195312)" d="M220.846 98.9833C221.072 100.473 221.282 101.962 221.468 103.457C220.587 103.526 219.782 103.591 218.906 103.457C219.328 101.837 219.994 100.414 220.846 98.9833Z"/>
	<path fill="#385EA4" transform="scale(0.195312 0.195312)" d="M175.319 253.769C179.32 254.463 179.949 258.803 181.232 262.063C196.836 262.182 190.274 265.249 185.033 272.351C187.053 280.782 186.371 284.332 176.844 279.566C171.433 278.825 162.63 289.33 166.747 272.351C162.225 267.15 155.702 260.573 169.711 262.063C171.188 259.104 171.882 255.027 175.319 253.769Z"/>
	<path fill="#FECC25" transform="scale(0.195312 0.195312)" d="M173.863 267.323L175.319 263.027C176.868 266.263 177.611 267.287 181.232 267.323C180.112 268.421 179.638 269.541 179.073 270.974L179.073 274.363L175.319 272.351L172.752 274.363C172.801 273.232 172.772 272.105 172.752 270.974C171.808 269.612 170.925 268.46 169.711 267.323L173.863 267.323Z"/>
	<path fill="#FAC613" transform="scale(0.195312 0.195312)" d="M172.752 270.974C173.596 271.305 174.681 271.672 175.319 272.351L172.752 274.363C172.801 273.232 172.772 272.105 172.752 270.974Z"/>
	<path fill="#385EA4" transform="scale(0.195312 0.195312)" d="M173.863 98.1717C178.884 98.0568 179.42 102.154 181.232 106.076C195.622 106.384 189.908 109.881 184.301 116.071L184.063 116.338C186.652 126.732 186.269 127.53 176.092 123.668C173.627 122.934 170.825 126.761 168.054 126.296C163.633 125.553 166.167 118.945 166.747 116.338L164.955 114.773C156.68 107.476 161.689 105.935 169.711 106.076C171.244 103.587 171.736 100.204 173.863 98.1717Z"/>
	<path fill="#FAC613" transform="scale(0.195312 0.195312)" d="M175.319 109.602C175.884 110.193 176.359 111.002 176.844 111.668C178.278 111.974 179.775 112.062 181.232 112.216C178.935 113.421 177.873 114.208 178.006 117.056L177.696 117.157L176.092 116.338C175.014 116.308 173.583 117.735 172.752 118.382C172.787 117.101 172.786 115.833 172.752 114.552C172.18 113.711 171.512 112.973 170.836 112.216L173.863 111.668C174.323 110.955 174.805 110.278 175.319 109.602Z"/>
</svg>
