<?xml version="1.0" encoding="utf-8" ?>
<svg xmlns="http://www.w3.org/2000/svg" xmlns:xlink="http://www.w3.org/1999/xlink" width="100" height="100">
	<path fill="#294894" transform="scale(0.195312 0.195312)" d="M54.8241 239.514C61.6373 239.51 57.113 261.501 56.6794 261.937C50.283 262.446 54.5646 239.886 54.8241 239.514Z"/>
	<path fill="#294894" transform="scale(0.195312 0.195312)" d="M140.674 411.928C144.053 412.363 147.147 415.739 149.949 417.532C153.337 419.7 162.617 422.722 158.63 426.787C155.895 426.047 135.948 416.972 140.674 411.928Z"/>
	<path fill="#294894" transform="scale(0.195312 0.195312)" d="M56.6794 278.152C57.608 278.147 58.15 278.193 58.8388 278.84C60.0242 281.915 64.7211 299.8 61.3789 302.049C60.8852 302.052 60.5261 302.012 60.0546 301.864C58.6984 299.577 53.3486 280.781 56.6794 278.152Z"/>
	<path fill="#294894" transform="scale(0.195312 0.195312)" d="M442.115 321.986C449.931 322.743 436.098 343.473 435.1 344.299C428.418 343.125 441.24 322.793 442.115 321.986Z"/>
	<path fill="#294894" transform="scale(0.195312 0.195312)" d="M84.3398 353.911C87.2162 354.367 91.0687 362.26 92.8072 364.715C95.1753 368.058 100.796 372.285 97.102 375.164C93.7136 375.436 82.4965 357.518 82.6914 355.613C83.0211 354.737 83.5875 354.424 84.3398 353.911Z"/>
	<path fill="#294894" transform="scale(0.195312 0.195312)" d="M109.264 386.604C112.251 386.716 116.225 392.407 118.392 394.427C121.34 397.175 129.975 402.034 126.435 405.24C122.563 405.493 107.985 390.175 107.829 388.781C107.741 388.001 108.771 387.117 109.264 386.604Z"/>
	<path fill="#294894" transform="scale(0.195312 0.195312)" d="M66.216 316.735C70.016 316.784 70.5133 322.628 71.9989 326.198C73.7513 330.409 79.0881 337.394 75.84 340.573C73.5391 340.416 62.1901 320.432 66.216 316.735Z"/>
	<path fill="#294894" transform="scale(0.195312 0.195312)" d="M326.286 436.267C327.942 436.325 329.465 437.302 328.989 439.096C327.159 441.39 310.902 445.437 307.24 446.356C305.004 446.037 303.091 443.736 306.012 442.515C311.355 440.282 320.081 438.452 326.286 436.267Z"/>
	<path fill="#294894" transform="scale(0.195312 0.195312)" d="M223.652 445.227C227.163 445.312 230.929 446.375 234.436 446.863C235.256 446.977 252.762 447.523 246.496 451.794C244.369 451.833 214.946 451.461 223.652 445.227Z"/>
	<path fill="#294894" transform="scale(0.195312 0.195312)" d="M448.575 198.701C449.448 198.716 450.021 198.695 450.759 199.193C452.642 201.774 457.72 220.739 454.111 224.848C450.541 224.483 450.297 213.618 449.638 210.146C449.09 207.257 446.105 200.965 448.575 198.701Z"/>
	<path fill="#294894" transform="scale(0.195312 0.195312)" d="M249.204 56.2541C251.256 56.1811 263.685 54.3432 261.372 59.5313C259.898 60.981 250.502 60.3802 247.978 60.3652C244.852 60.7641 235.313 63.9273 236.339 58.0399C237.671 56.5193 246.716 56.4906 249.204 56.2541Z"/>
	<path fill="#294894" transform="scale(0.195312 0.195312)" d="M287.009 446.356C288.797 446.384 290.314 448.458 288.535 449.742C285.737 451.761 269.988 452.167 266.247 451.794C264.318 452.377 258.344 448.995 272.042 447.894C277.045 447.491 282.025 446.953 287.009 446.356Z"/>
	<path fill="#294894" transform="scale(0.195312 0.195312)" d="M423.854 356.795C433.049 357.741 415.165 376.478 412.718 379.297C405.469 378.575 414.757 370.279 416.596 367.723C419.15 364.175 421.523 360.493 423.854 356.795Z"/>
	<path fill="#294894" transform="scale(0.195312 0.195312)" d="M364.69 417.204C374.279 419.942 348.274 430.989 346.096 431.919C345.094 432.031 344.198 432.017 343.625 430.996C341.967 428.041 353.285 423.878 355.148 422.851C358.388 421.065 361.262 418.703 364.69 417.204Z"/>
	<path fill="#294894" transform="scale(0.195312 0.195312)" d="M178.999 73.4703C181.709 73.4144 182.579 75.9837 180.096 77.5414C175.134 80.6548 166.02 84.9745 160.485 87.9293C158.895 87.9689 157.358 86.7876 157.898 85.0385C158.519 83.0275 175.979 74.889 178.999 73.4703Z"/>
	<path fill="#294894" transform="scale(0.195312 0.195312)" d="M217.61 60.3652C218.905 60.2212 220.663 59.9397 221.26 61.4875C222.604 64.9685 213.196 65.5336 211.414 65.939C207.136 66.9123 202.955 68.3199 198.837 69.8206C197.022 70.2991 193.273 70.167 195.09 67.4527C196.951 64.6737 214.033 61.1608 217.61 60.3652Z"/>
	<path fill="#294894" transform="scale(0.195312 0.195312)" d="M452.724 281.642C459.536 282.703 451.282 306.188 449.384 307.742C448.392 307.545 447.057 307.008 446.909 305.837C446.819 305.128 450.396 283.282 452.724 281.642Z"/>
	<path fill="#294894" transform="scale(0.195312 0.195312)" d="M455.117 239.514C461.629 240.006 458.085 265.586 456.565 267.279C451.756 266.071 454.181 256.297 454.137 251.408C454.108 248.287 452.3 241.56 455.117 239.514Z"/>
	<path fill="#294894" transform="scale(0.195312 0.195312)" d="M277.653 57.5105C281.599 57.4292 305.261 58.8985 303.128 65.5315C299.217 66.5146 294.028 64.1549 290.133 63.4385C285.895 62.6589 274.177 63.2573 277.653 57.5105Z"/>
	<path fill="#294894" transform="scale(0.195312 0.195312)" d="M397.227 389.722C408.707 389.707 383.686 408.06 381.941 409.243C380.698 409.398 379.449 408.51 379.383 407.196C379.305 405.642 395.036 391.986 397.227 389.722Z"/>
	<path fill="#294894" transform="scale(0.195312 0.195312)" d="M318.718 67.6108C320.237 67.6763 347.763 75.7724 341.543 81.8553C340.173 81.6737 319.072 71.6811 318.116 71.0327C316.735 70.0962 317.912 68.5436 318.718 67.6108Z"/>
	<path fill="#294894" transform="scale(0.195312 0.195312)" d="M111.429 253.336C98.502 250.661 82.3566 237.299 74.2554 227.58C47.3022 195.246 53.5321 145.108 85.5938 118.655C121.985 88.631 170.651 97.0943 199.871 132.763C212.411 152.258 218.288 171.514 213.204 195.059C207.741 220.36 188.743 241.964 164.786 251.546C162.02 252.652 158.338 253.245 155.897 254.908C152.856 256.98 139.732 279.845 135.211 284.747C129.961 278.427 123.012 266.58 118.489 259.391L117.933 258.464C116.66 256.364 115.87 254.765 113.352 254.144C112.778 253.782 112.063 253.58 111.429 253.336ZM130.076 104.733C126.097 105.207 122.15 105.668 118.249 106.621C47.9781 123.774 40.8532 221.165 109.445 248.431C112.409 249.609 115.639 250.3 118.489 251.716C124.368 260.268 129.523 269.448 135.211 278.152C136.382 276.679 137.394 275.222 138.229 273.529C143.225 266.439 147.913 259.026 152.584 251.716L152.875 251.583C157.455 249.527 162.42 248.393 166.978 246.247C227.042 217.963 224.937 133.479 162.884 109.706C151.4 105.307 142.274 104.527 130.076 104.733Z"/>
	<path fill="#294894" transform="scale(0.195312 0.195312)" d="M150.583 131.784C165.335 130.905 169.231 140.328 164.775 140.26C160.035 140.188 158.808 133.898 149.063 136.447C144.33 138.017 141.029 146.52 138.481 145.108C133.236 142.202 145.752 133.056 150.583 131.784Z"/>
	<path fill="#294894" transform="scale(0.195312 0.195312)" d="M155.116 147.009C177.522 143.738 191.227 172.075 176.047 190.041C171.964 194.873 166.121 200.026 161.581 204.652L147.042 219.347C143.603 222.842 139.824 228.162 135.211 230.158C131.409 226.876 123.489 218.917 120.589 214.993C115.941 211.481 112.068 206.75 107.974 202.607C97.7178 192.227 87.0224 184.736 89.1733 168.223C92.0916 145.817 120.52 139.375 135.211 158.794C139.906 152.071 146.804 147.699 155.116 147.009ZM156.068 150.867C145.594 151.231 142.209 157.382 135.211 163.774C129.628 159.596 126.411 153.772 119.233 151.865C105.278 148.158 90.9473 159.937 92.9777 174.715C94.261 184.056 99.7231 188.712 106.067 195.107L119.464 208.625C124.761 213.959 130.185 219.257 135.211 224.848C140.921 221.256 146.669 213.713 151.618 208.796C158.774 201.688 176.048 187.121 178.108 177.896C181.147 164.287 169.712 148.097 156.068 150.867Z"/>
	<path fill="#FD9180" transform="scale(0.195312 0.195312)" d="M156.068 150.867C169.712 148.097 181.147 164.287 178.108 177.896C176.048 187.121 158.774 201.688 151.618 208.796C146.669 213.713 140.921 221.256 135.211 224.848C130.185 219.257 124.761 213.959 119.464 208.625L106.067 195.107C99.7231 188.712 94.261 184.056 92.9777 174.715C90.9473 159.937 105.278 148.158 119.233 151.865C126.411 153.772 129.628 159.596 135.211 163.774C142.209 157.382 145.594 151.231 156.068 150.867ZM155.116 158.794C146.724 160.977 147.738 167.773 155.319 165.812C161.377 164.245 165.242 168.549 168.789 172.707C171.567 174.28 172.714 172.007 173.772 169.595C170.218 162.258 163.208 158.092 155.116 158.794Z"/>
	<path fill="#D7EEF7" transform="scale(0.195312 0.195312)" d="M104.755 162.77C107.106 162.579 107.856 162.943 109.264 164.961C109.586 168.794 110.277 174.2 107.528 177.208C101.402 177.498 101.595 165.816 104.755 162.77Z"/>
	<path fill="#D7EEF7" transform="scale(0.195312 0.195312)" d="M199.871 132.763C201.659 128.266 224.814 120.783 230.186 119.327C245.796 115.098 262.019 114.485 277.847 117.513C279.566 117.841 282.193 117.881 283.696 118.743C249.924 163.392 275.3 221.883 327.691 235.148L327.672 246.144C327.66 271.258 338.973 267.291 358.301 267.289L400.196 267.279C398.551 303.644 372.169 346.089 343.587 367.186C337.911 371.376 322.245 382.1 315.439 381.654C315.004 373.512 315.429 364.464 315.439 356.215C321.966 356.242 336.751 356.908 333.062 344.935C330.984 338.191 320.341 322.808 316.48 315.819C316.967 276.256 286.611 242.29 246.685 240.363C193.266 237.784 156.815 292.086 176.785 341.509C182.992 356.869 191.425 360.361 190.566 379.297C187.769 379.813 185.348 377.877 183.025 376.554C152.921 359.416 129.681 331.318 118.983 298.307C114.887 285.669 110.892 266.616 111.429 253.336C112.063 253.58 112.778 253.782 113.352 254.144C115.87 254.765 116.66 256.364 117.933 258.464L118.489 259.391C123.012 266.58 129.961 278.427 135.211 284.747C139.732 279.845 152.856 256.98 155.897 254.908C158.338 253.245 162.02 252.652 164.786 251.546C188.743 241.964 207.741 220.36 213.204 195.059C218.288 171.514 212.411 152.258 199.871 132.763ZM113.352 254.144C113.388 256.091 116.087 260.387 118.489 259.391L117.933 258.464C116.66 256.364 115.87 254.765 113.352 254.144Z"/>
	<path fill="#68BFFA" transform="scale(0.195312 0.195312)" d="M190.566 379.297C191.425 360.361 182.992 356.869 176.785 341.509C156.815 292.086 193.266 237.784 246.685 240.363C286.611 242.29 316.967 276.256 316.48 315.819C320.341 322.808 330.984 338.191 333.062 344.935C336.751 356.908 321.966 356.242 315.439 356.215C315.429 364.464 315.004 373.512 315.439 381.654C310.249 406.536 289.31 402.972 270.206 402.944C270.211 407.703 270.783 426.652 269.834 429.893C268.697 430.832 267.52 430.4 266.247 429.911L176.412 429.911C169.295 429.772 176.947 420.838 178.435 418.221C184.948 406.76 189.971 392.502 190.566 379.297Z"/>
	<path fill="#294894" transform="scale(0.195312 0.195312)" d="M190.566 379.297C191.425 360.361 182.992 356.869 176.785 341.509C156.815 292.086 193.266 237.784 246.685 240.363C286.611 242.29 316.967 276.256 316.48 315.819C320.341 322.808 330.984 338.191 333.062 344.935C336.751 356.908 321.966 356.242 315.439 356.215C315.429 364.464 315.004 373.512 315.439 381.654C310.249 406.536 289.31 402.972 270.206 402.944C270.211 407.703 270.783 426.652 269.834 429.893C268.697 430.832 267.52 430.4 266.247 429.911C265.497 421.689 265.979 407.372 266.247 398.989L282.386 399.007C302.446 399.008 311.33 394.409 311.242 372.383L311.185 360.549C311.174 358.198 310.981 355.66 311.424 353.346C313.94 349.986 331.349 355.698 329.382 347.042C328.512 343.212 319.44 328.593 316.851 324.346C309.784 312.759 313.982 310.976 311.302 299.85C302.302 262.478 265.486 236.776 227.296 246.282C184.321 256.98 163.177 304.746 182.451 344.375C186.62 352.947 191.1 357.098 193.603 367.139C198.699 387.572 186.714 412.691 176.412 429.911C169.295 429.772 176.947 420.838 178.435 418.221C184.948 406.76 189.971 392.502 190.566 379.297Z"/>
	<path fill="#294894" transform="scale(0.195312 0.195312)" d="M236.797 269.696C243.86 269.456 261.395 267.332 263.272 274.903C264.352 279.257 263.764 291.572 263.758 296.503C272.32 296.475 290.516 292.707 290.803 304.666C291.219 321.998 294.833 328.275 276.271 328.249L263.758 328.215L263.79 342.581C263.797 347.665 265.122 354.954 258.431 356.215C253.74 357.238 248.68 356.729 243.914 356.785C229.991 356.947 231.321 354.622 231.308 342.141L231.317 328.215C225.815 328.119 215.462 328.884 210.522 327.917C202.954 326.434 204.594 318.671 204.584 312.951C204.559 299.284 202.173 296.45 217.8 296.47L231.317 296.503C231.344 288.121 228.149 273.528 236.797 269.696Z"/>
	<path fill="#FDE47C" transform="scale(0.195312 0.195312)" d="M238.525 273.529C268.514 272.559 257.946 272.671 259.868 299.917L259.896 300.295C265.847 300.792 283.58 298.508 286.163 301.693C287.603 303.467 288.003 322.103 285.54 323.453C281.449 325.694 263.265 322.728 260.357 324.751C258.17 330.79 262.297 349.773 258.431 352.98C251.197 353.487 242.555 353.116 235.269 352.98C234.951 350.067 235.244 346.884 235.253 343.935L235.269 324.142C231.875 323.918 210.181 325.109 208.94 322.997C208.011 321.417 208.234 302.678 208.882 301.148C212.389 298.237 233.318 302.078 234.842 299.696C238.297 294.295 230.482 274.826 238.525 273.529Z"/>
	<path fill="#294894" transform="scale(0.195312 0.195312)" d="M283.696 118.743C287.404 114.508 291.287 110.322 295.649 106.752C340.122 70.363 408.234 100.583 415.018 156.619C415.285 158.823 414.323 164.006 417.486 163.642C418.396 162.31 417.745 133.478 417.737 128.945C417.733 126.703 416.208 116.055 421.447 119.059C422.841 120.628 421.88 132.178 421.878 134.721L421.877 163.774C439.558 164.06 440.211 168.213 440.187 184.796L440.181 236.899C440.189 245.236 442.317 258.254 435.421 264.422C430.395 268.918 407.777 267.379 400.196 267.279L358.301 267.289C338.973 267.291 327.66 271.258 327.672 246.144L327.691 235.148C275.3 221.883 249.924 163.392 283.696 118.743ZM411.791 167.844C406.938 167.865 402.076 168.062 397.227 167.844C397.208 169.444 397.089 171.116 397.227 172.707C396.977 175.928 396.024 176.915 395.248 179.527L395.62 179.75C394.04 181.827 387.841 181.609 386.921 184.279C387.244 185.304 389.018 188.595 386.627 187.478C387.871 189.198 390.166 191.739 389.954 193.981C389.862 194.943 374.69 213.805 369.596 212.366C367.941 214.68 364.159 212.192 362.308 211.145C360.581 211.662 359.371 212.933 357.705 213.396C356.395 222.266 345.549 218.422 338.622 218.933C337.973 221.163 333.57 221.248 331.712 221.069C331.886 223.451 332.473 229.816 331.712 231.89C331.052 236.205 331.173 252.083 332.128 256.13C334.58 266.52 353.853 263.432 362.372 263.429L417.428 263.448C435.096 263.496 436.158 262.395 436.093 246.141L436.071 230.323C436.073 213.065 436.33 195.771 436.096 178.517C435.903 164.268 422.956 167.386 411.791 167.844ZM331.712 113.641C328.479 115.438 332.738 127.007 329.302 129.369C327.042 130.923 317.315 122.305 313.693 120.748C310.224 123.083 300.607 132.858 298.21 136.447C300.17 139.104 307.827 145.421 307.797 148.348C307.751 152.941 294.654 149.745 291.65 151.39C290.155 152.208 291.049 173.166 290.767 176.002C293.737 176.151 309.567 174.077 308.497 179.431C307.669 183.568 300.45 187.939 298.21 191.877C301.289 196.06 310.352 205.014 314.548 208.625C326.737 199.396 330.965 190.057 330.619 214.993L348.588 214.993L353.29 214.993C353.623 212.391 353.844 200.701 355.447 199.497C358.823 196.958 367.671 206.867 370.276 208.625C374.627 204.831 382.17 197.835 385.789 193.361C375.014 178.005 371.918 175.76 393.255 176.002C393.262 172.594 393.832 153.827 392.547 152.175C390.638 149.718 377.859 153.988 377.44 149.224C377.231 146.842 384.032 138.96 385.789 136.447C380.99 130.739 375.08 125.798 369.596 120.748L369.271 120.962C366.387 122.878 359.712 129.906 356.453 129.396C352.122 128.718 355.788 114.529 352.858 113.779C350.867 113.269 334.837 113.55 331.712 113.641ZM331.712 231.89C332.473 229.816 331.886 223.451 331.712 221.069C333.57 221.248 337.973 221.163 338.622 218.933C335.79 218.958 332.912 219.094 330.086 218.933C325.233 215.972 326.206 209.479 326.286 204.567C323.666 206.347 317.232 212.452 314.277 211.947C309.705 211.167 297.649 198.281 295.445 194.897C291.578 188.961 299.161 185.077 303.128 179.972C299.06 180.004 294.01 180.424 290.067 179.527C284.91 175.464 286.379 156.791 287.2 151.206C288.072 145.281 297.849 147 301.967 147.009C299.668 143.689 291.524 137.842 294.938 133.338C296.183 131.695 310.091 117.856 311.59 116.859C315.755 114.088 322.811 121.989 326.286 124.041C326.275 108.926 325.722 109.408 340.777 109.46C358.344 109.519 357.854 107.051 358.245 124.041C360.788 122.825 367.403 115.85 369.866 116.666C374.07 118.059 388.367 132.151 389.753 135.148C391.218 138.313 384.644 144.852 382.865 147.009C398.82 147.741 397.206 147.836 397.227 163.774L411.791 163.774C409.878 103.574 333.707 70.6095 291.01 116.733C265.362 144.439 267.113 188.208 294.997 213.739C305.447 223.307 318.12 228.542 331.712 231.89ZM358.245 204.567C357.971 207.505 357.844 210.449 357.705 213.396C359.371 212.933 360.581 211.662 362.308 211.145C364.159 212.192 367.941 214.68 369.596 212.366C364.661 210.285 362.43 206.67 358.245 204.567ZM395.248 179.527C392.13 180.672 385.406 179.921 381.941 179.972C382.969 182.809 384.837 185.09 386.627 187.478C389.018 188.595 387.244 185.304 386.921 184.279C387.841 181.609 394.04 181.827 395.62 179.75L395.248 179.527Z"/>
	<path fill="#FD9180" transform="scale(0.195312 0.195312)" d="M353.29 141.337C365.93 140.012 371.718 153.055 369.034 163.64C365.625 177.083 352.673 185.209 341.543 191.877C337.819 189.787 334.317 187.317 330.619 185.173C323.101 177.357 313.814 171.455 313.962 158.543C314.143 142.649 329.943 135.307 342.35 148.274C345.035 144.232 348.488 142.053 353.29 141.337Z"/>
	<path fill="#D7EEF7" transform="scale(0.195312 0.195312)" d="M411.791 167.844C422.956 167.386 435.903 164.268 436.096 178.517C436.33 195.771 436.073 213.065 436.071 230.323L436.093 246.141C436.158 262.395 435.096 263.496 417.428 263.448L362.372 263.429C353.853 263.432 334.58 266.52 332.128 256.13C331.173 252.083 331.052 236.205 331.712 231.89C332.473 229.816 331.886 223.451 331.712 221.069C333.57 221.248 337.973 221.163 338.622 218.933C345.549 218.422 356.395 222.266 357.705 213.396C359.371 212.933 360.581 211.662 362.308 211.145C364.159 212.192 367.941 214.68 369.596 212.366C374.69 213.805 389.862 194.943 389.954 193.981C390.166 191.739 387.871 189.198 386.627 187.478C389.018 188.595 387.244 185.304 386.921 184.279C387.841 181.609 394.04 181.827 395.62 179.75L395.248 179.527C396.024 176.915 396.977 175.928 397.227 172.707C397.089 171.116 397.208 169.444 397.227 167.844C402.076 168.062 406.938 167.865 411.791 167.844ZM397.227 167.844C397.208 169.444 397.089 171.116 397.227 172.707C397.367 175.822 398.623 172.758 399.347 171.595C403.51 170.072 408.031 170.299 412.12 168.862L411.83 168.692L411.816 169.076L411.567 169.165L411.191 168.636L407.238 168.441C412.227 168.387 414.747 168.216 411.791 167.844C406.938 167.865 402.076 168.062 397.227 167.844Z"/>
</svg>
