<?xml version="1.0" encoding="utf-8" ?>
<svg xmlns="http://www.w3.org/2000/svg" xmlns:xlink="http://www.w3.org/1999/xlink" width="100" height="100">
	<path fill="#7FE3EF" transform="scale(0.195312 0.195312)" d="M407.863 326.157L410.95 326.157L410.96 372.226C410.931 390.648 406.106 392.851 388.437 392.744C386.442 392.735 385.276 391.444 385.512 389.391C386.113 384.169 398.522 388.292 402.462 385.046C406.617 381.623 405.268 371.407 405.265 366.739L405.236 339.74C405.233 334.596 402.967 326.438 407.863 326.157Z"/>
	<path fill="#7FE3EF" transform="scale(0.195312 0.195312)" d="M105.404 326.157C109.067 325.825 107.983 328.136 107.947 330.895C107.905 334.008 107.953 337.128 107.957 340.242L107.878 376.864C107.925 387.788 119.591 386.11 127.543 385.881C127.625 387.684 127.592 389.472 127.543 391.276L124.795 391.276C116.743 391.057 104.175 393.133 102.43 381.279C101.709 376.379 102.485 366.869 102.49 361.325L102.488 337.752C102.482 333.919 102.167 329.97 102.487 326.157L105.404 326.157Z"/>
	<path fill="#37498E" transform="scale(0.195312 0.195312)" d="M185.068 312.362C204.48 310.835 218.356 326.731 218.22 345.335C216.581 345.506 214.935 345.397 213.293 345.335C212.913 330.376 203.954 319.505 188.807 317.504C171.699 316.383 160.754 328.818 160.256 345.335C158.598 345.402 156.927 345.35 155.268 345.335C154.337 326.805 167.044 314.136 185.068 312.362Z"/>
	<path fill="#7FE3EF" transform="scale(0.195312 0.195312)" d="M367.807 128.778C374.549 128.127 384.189 128.735 391.229 128.74C412.519 128.756 410.99 134.791 410.959 153.823L410.944 180.877C410.942 186.947 410.746 193.079 411.265 199.129L411.639 199.255L411.284 199.308C411.31 199.71 411.289 200.098 411.271 200.5L410.95 200.751L406.032 200.751L406.044 159.428C406.045 142.195 410.898 134.209 390.897 134.217C383.837 134.22 376.591 134.653 369.56 134.261L369.238 134.241C367.648 132.759 365.35 130.451 367.807 128.778Z"/>
	<path fill="#7FE3EF" transform="scale(0.195312 0.195312)" d="M146.744 128.778C149.244 128.703 161.88 128.283 163.114 129.282C164.149 130.121 164.468 133.075 163.069 133.74C161.003 134.723 155.161 134.263 152.719 134.256L126.689 134.234C104.443 134.239 107.965 135.346 107.955 156.588L107.966 187.627L107.966 199.996L102.487 199.996L102.484 158.346C102.473 139.187 97.9248 128.839 122.107 128.765L137.131 128.791C140.193 128.823 143.282 129.019 146.338 128.808L146.744 128.778Z"/>
	<path fill="#3E6EB7" transform="scale(0.195312 0.195312)" d="M174.15 222.873L190.209 222.873L190.209 296.94L174.15 296.94L174.15 222.873Z"/>
	<path fill="#37498E" transform="scale(0.195312 0.195312)" d="M194.081 69.5347L295.949 69.5234C312.697 69.5055 329.022 71.3853 331.132 93.112C331.465 96.5403 333.406 110.875 328.238 110.58C323.253 110.296 330.068 91.0738 320.441 80.9994C316.627 77.0092 311.211 74.7876 305.748 74.7273C279.64 74.4388 253.495 74.7408 227.382 74.7378L205.914 74.7218C202.017 74.7061 197.599 74.2775 193.77 74.8937C174.492 77.9959 176.993 98.3265 176.99 112.299L176.997 147.7L176.981 165.951C177.008 189.789 186.555 194.136 208.973 194.145L287.462 194.143C289.208 195.851 290.863 197.677 292.553 199.442C286.307 199.782 279.874 199.449 273.607 199.446L209.733 199.455C204.685 199.459 199.317 199.814 194.323 199.103C170.489 195.711 172.054 174.074 172.053 156.669L172.042 101.885C171.904 86.4889 174.826 71.8659 194.081 69.5347Z"/>
	<path fill="#3E6EB7" transform="scale(0.195312 0.195312)" d="M153.937 222.873L156.369 222.873C156.567 231.203 156.376 239.587 156.375 247.922L156.369 296.94L139.749 296.94L139.749 266.248L107.631 266.248C107.427 276.459 107.63 286.724 107.631 296.94L96.5625 296.94L91.2483 296.94L91.2483 222.873C96.685 222.837 102.22 223.311 107.631 222.873L107.631 252.263L139.749 252.263L139.749 222.873C144.472 222.847 149.218 223.077 153.937 222.873Z"/>
	<path fill="#3E6EB7" transform="scale(0.195312 0.195312)" d="M374.44 222.873C379.463 223.079 384.559 222.891 389.589 222.873C396.37 237.481 402.177 252.528 408.501 267.332L415.813 284.598C417.535 288.615 419.602 292.719 420.734 296.94C415.319 297.529 409.064 297.219 403.59 296.94C401.216 292.451 399.375 287.392 397.51 282.665C395.197 282.554 392.853 282.648 390.537 282.665C387.748 282.5 384.906 282.641 382.111 282.646L366.154 282.665C364.383 287.459 362.437 292.193 360.544 296.94C354.612 297.047 348.663 296.955 342.73 296.94C345.253 293.008 346.927 288.672 348.753 284.391C355.125 269.447 361.286 254.328 367.395 239.274C369.596 233.849 371.463 227.922 374.44 222.873ZM381.612 239.612C378.377 248.143 373.614 260.993 371.631 269.738L382.687 269.738C386.155 269.679 389.611 269.67 393.078 269.738L385.181 247.974C384.409 245.909 383.52 240.815 381.612 239.612Z"/>
	<path fill="#3E6EB7" transform="scale(0.195312 0.195312)" d="M294.471 222.873L310.258 222.873C321.307 245.309 332.052 273.586 341.35 296.94L323.676 296.94C322.014 292.101 319.795 287.456 317.985 282.665C315.398 282.744 312.845 282.769 310.258 282.665L285.516 282.665C283.736 287.337 281.357 291.888 281.012 296.94C274.961 297.141 268.838 296.945 262.78 296.94C263.905 293.29 265.872 289.71 267.364 286.174L289.579 234.16C291.157 230.454 292.449 226.354 294.471 222.873ZM301.793 239.612C298.404 245.262 294.085 262.456 291.261 269.738L303.564 269.738C306.834 269.758 310.112 269.819 313.381 269.738L306.395 251.013C305.425 248.341 303.92 241.319 301.793 239.612Z"/>
	<path fill="#3E6EB7" transform="scale(0.195312 0.195312)" d="M208.77 222.873L224.36 222.86C233.946 222.817 247.284 221.826 255.559 227.317C266.389 234.504 268.508 252.025 261.403 262.453C256.412 269.777 247.701 271.691 239.561 273.259C234.231 273.057 228.831 273.233 223.495 273.259L223.495 296.94L206.803 296.94L206.817 232.737C206.822 229.882 205.524 223.259 208.77 222.873ZM223.495 235.763L223.495 260.55C229.875 260.664 240.08 261.658 245.102 257.074C247.603 254.58 248.798 252.079 248.801 248.479C248.813 233.694 234.868 235.665 223.917 235.757L223.495 235.763Z"/>
	<path fill="#37498E" transform="scale(0.195312 0.195312)" d="M323.676 118.387C376.78 115.914 389.68 198.529 328.563 205.737C269.37 206.582 265.439 122.112 323.676 118.387ZM321.282 124.012C271.752 129.109 278.844 204.017 330.062 199.996C381.644 193.373 369.689 118.417 321.282 124.012Z"/>
	<path fill="#FEBE3A" transform="scale(0.195312 0.195312)" d="M323.676 127.494C332.479 126.873 340.102 129.389 346.98 134.956C371.486 154.791 359.21 193.848 328.563 196.5C277.825 197.184 281.763 127.906 323.676 127.494Z"/>
	<path fill="#EAECF3" transform="scale(0.195312 0.195312)" d="M342.73 144.52C347.405 144.222 351.624 147.891 351.774 152.652C351.929 157.627 340.298 167.269 336.911 170.714C326.216 181.588 323.758 188.414 311.133 175.998C308.447 173.407 302.43 169.001 302.208 165.218C301.969 161.151 306.439 156.635 310.454 156.597C314.558 156.559 318.597 161.256 321.282 163.953C326.761 159.074 336.793 147.017 342.73 144.52Z"/>
	<path fill="#268CE6" transform="scale(0.195312 0.195312)" d="M342.73 147.7C348.447 147.241 350.641 152.777 345.592 157.828L333.853 169.424C322.274 181.017 323.306 184.007 311.133 171.894C309.221 170.335 305.633 168.049 305.318 165.482C304.993 162.825 307.685 159.963 310.267 159.773C313.619 159.527 318.797 165.833 321.282 168.114C327.427 162.299 336.108 152.352 342.73 147.7Z"/>
	<path fill="#EAECF3" transform="scale(0.195312 0.195312)" d="M281.012 187.627L279.397 187.675C275.325 187.765 271.241 187.5 267.166 187.517L231.385 187.628C221.973 187.627 206.464 188.575 197.394 186.844C181.181 183.748 184.563 165.49 184.416 153.023L184.226 100.843C184.004 82.1787 191.101 81.2953 207.091 81.3635L277.126 81.4257C285.53 81.4265 293.954 81.1969 302.355 81.4397C320.959 81.9774 319.66 96.0773 318.937 110.434C316.445 112.278 312.79 112.432 309.868 113.286C299.079 116.442 290.813 122.958 283.545 131.286C276.749 143.369 271.202 156.424 275.135 170.583L275.51 171.894C275.086 176.947 278.899 183.083 281.012 187.627Z"/>
	<path fill="#F4ECF7" transform="scale(0.195312 0.195312)" d="M274.209 117.25C275.811 119.312 277.058 121.332 275.51 124.012L274.209 124.012L274.209 117.25Z"/>
	<path fill="#268CE6" transform="scale(0.195312 0.195312)" d="M229.761 124.012C229.713 114.988 228.988 107.909 235.324 100.659C249.479 84.4654 272.938 94.1801 274.209 117.25L274.209 124.012C271.7 123.951 269.19 123.993 266.681 124.012C266.701 117.648 267.529 109.874 262.761 104.904C256.694 98.5793 247.315 98.9184 241.29 105.039C236.265 110.143 236.986 117.425 236.999 124.012C234.63 123.859 232.141 124.023 229.761 124.012Z"/>
	<path fill="#EAECF3" transform="scale(0.195312 0.195312)" d="M236.999 124.012C236.986 117.425 236.265 110.143 241.29 105.039C247.315 98.9184 256.694 98.5793 262.761 104.904C267.529 109.874 266.701 117.648 266.681 124.012C263.487 123.862 260.219 124.006 257.019 124.01L236.999 124.012Z"/>
	<path fill="#6BC4F4" transform="scale(0.195312 0.195312)" d="M236.999 124.012L257.019 124.01C260.219 124.006 263.487 123.862 266.681 124.012C269.19 123.993 271.7 123.951 274.209 124.012L275.51 124.012C279.999 124.273 282.245 127.338 283.545 131.286C276.749 143.369 271.202 156.424 275.135 170.583L275.51 171.894C273.738 173.084 268.303 171.909 266.077 171.897L242.54 171.915C237.218 171.932 228.607 173.396 224.357 169.328C219.982 165.14 221.617 149.177 221.591 143.32C221.557 135.878 218.873 124.054 229.761 124.012C232.141 124.023 234.63 123.859 236.999 124.012Z"/>
	<path fill="#37498E" transform="scale(0.195312 0.195312)" d="M251.783 136.825C260.706 137.2 260.473 143.985 256.333 149.95C256.271 154.296 258.348 161.456 252.722 162.895C245.715 162.46 247.511 155.128 247.568 149.95C242.741 144.696 243.772 138.133 251.783 136.825Z"/>
	<path fill="#37498E" transform="scale(0.195312 0.195312)" d="M183.851 322.326C190.6 321.307 198.075 323.904 202.829 328.73C209.305 335.304 208.794 343.174 208.77 351.719L225.322 351.688C242.031 351.612 238.228 353.252 238.244 370.057L238.233 398.04C241.934 398.108 245.647 398.041 249.348 398.04L249.351 359.324C249.339 348.613 245.403 332.888 259.965 332.333C267.594 332.042 275.336 332.327 282.976 332.328L354.412 332.309C373.744 332.253 377.259 331.352 377.27 350.776L377.365 419.136C377.447 437.044 359.8 432.721 346.772 432.722L304.983 432.713L263.068 432.733C245.221 432.744 249.312 416.237 249.348 403.237L238.233 403.237C238.546 411.109 238.972 426.437 238.11 434.083C237.327 441.023 224.557 438.001 218.182 438.004L150.079 438.007C134.265 438.025 137.502 439.694 137.495 422.592L137.489 369.559C137.49 364.044 137.013 358.099 138.035 352.675C139.802 350.91 144.938 351.714 147.247 351.712L203.778 351.719C203.812 345.176 204.596 338.661 200.06 333.292C189.529 320.828 170.862 327.464 169.506 345.335L164.739 345.335C164.547 332.986 171.436 324.346 183.851 322.326ZM259.308 337.972C255.587 338.658 254.64 339.786 254.532 343.372C254.247 352.781 253.712 419.092 255.159 423.363C257.279 429.619 275.631 427.011 281.77 427.01L353.007 427.01C357.886 427.014 362.953 427.321 367.807 427.002C373.684 424.762 371.637 413.822 371.61 408.38L371.622 360.494C371.628 355.939 373.434 340.432 368.516 338.606C364.959 337.285 333.462 337.967 327.346 337.969L259.308 337.972ZM155.268 356.861L142.406 356.861L142.406 433.246L219.875 433.246L233.122 433.246L233.122 356.861C207.193 356.522 181.203 356.862 155.268 356.861Z"/>
	<path fill="#64D7B3" transform="scale(0.195312 0.195312)" d="M149.248 362.315L200.993 362.313C209.548 362.314 218.196 362.621 226.739 362.315L226.739 426.083L149.248 426.083L149.248 362.315Z"/>
	<path fill="#37498E" transform="scale(0.195312 0.195312)" d="M183.851 379.495C185.97 379.473 188.09 379.495 190.209 379.495C189.273 384.742 190.101 403.348 190.209 409.21L183.851 409.21L183.851 379.495Z"/>
	<path fill="#37498E" transform="scale(0.195312 0.195312)" d="M157.239 379.495C159.097 379.386 160.899 379.396 162.757 379.495L162.757 391.276L174.15 391.276L174.15 379.495L179.732 379.495L179.732 409.21L174.15 409.21L174.15 396.936C170.365 396.819 166.546 396.929 162.757 396.936L162.757 409.21C160.915 409.113 159.082 409.165 157.239 409.21L157.239 379.495Z"/>
	<path fill="#37498E" transform="scale(0.195312 0.195312)" d="M194.081 379.495C199.583 379.499 207.364 378.388 212.109 381.604C220.092 387.014 216.513 398.56 206.803 399.968C204.687 400.273 202.621 400.095 200.5 399.968L200.5 409.21C198.337 409.417 196.247 409.354 194.081 409.21L194.081 379.495Z"/>
	<path fill="#64D7B3" transform="scale(0.195312 0.195312)" d="M200.5 385.881C206.203 385.032 213.423 386.77 208.77 393.73C206.04 395.088 203.481 395.042 200.5 395.063L200.5 385.881Z"/>
	<path fill="#FD918B" transform="scale(0.195312 0.195312)" d="M259.308 337.972L327.346 337.969C333.462 337.967 364.959 337.285 368.516 338.606C373.434 340.432 371.628 355.939 371.622 360.494L371.61 408.38C371.637 413.822 373.684 424.762 367.807 427.002C362.953 427.321 357.886 427.014 353.007 427.01L281.77 427.01C275.631 427.011 257.279 429.619 255.159 423.363C253.712 419.092 254.247 352.781 254.532 343.372C254.64 339.786 255.587 338.658 259.308 337.972ZM269.513 390.239L269.513 399.968L358.992 399.968C359.096 396.731 359.014 393.477 358.992 390.239L269.513 390.239ZM269.513 403.954C269.517 407.049 269.579 410.156 269.513 413.25L358.992 413.25C358.981 410.172 358.831 407.024 358.992 403.954L269.513 403.954ZM277.91 348.336C258.083 350.791 267.084 369.349 275.338 379.833C276.089 380.788 276.796 382.311 277.91 382.856C283.156 377.947 289.983 368.496 290.304 361.043C290.595 354.291 284.967 348.314 278.208 348.333L277.91 348.336ZM300.812 357.781L300.812 365.151L357.791 365.151C358.004 362.692 357.925 360.242 357.791 357.781C338.801 357.955 319.801 357.573 300.812 357.781ZM300.812 369.971C300.795 372.302 300.742 374.638 300.812 376.969C319.779 376.626 338.817 376.97 357.791 376.969C357.995 374.661 357.742 372.29 357.791 369.971L300.812 369.971Z"/>
	<path fill="#FD918B" transform="scale(0.195312 0.195312)" d="M277.91 356.861C281.461 357.546 281.885 360.815 278.796 362.315C274.475 362.475 274.974 358.473 277.91 356.861Z"/>
</svg>
