<?xml version="1.0" encoding="utf-8" ?>
<svg xmlns="http://www.w3.org/2000/svg" xmlns:xlink="http://www.w3.org/1999/xlink" width="100" height="100">
	<defs>
		<linearGradient id="gradient_0" gradientUnits="userSpaceOnUse" x1="284.87234" y1="455.96185" x2="196.07346" y2="93.653908">
			<stop offset="0" stop-color="#574FAD"/>
			<stop offset="1" stop-color="#A86AB9"/>
		</linearGradient>
	</defs>
	<path fill="url(#gradient_0)" transform="scale(0.195312 0.195312)" d="M135.065 154.503C134.886 151.481 135.054 148.353 135.058 145.322L135.049 113.405C135.047 100.191 139.117 88.2761 154.514 85.9844C158.038 85.4598 161.751 85.676 165.309 85.6755L193.179 85.6927C195.798 85.6987 201.79 84.8069 201.763 88.9615C201.724 94.7969 174.172 92.4781 169.076 92.4823C146.267 92.5011 141.763 94.4846 141.767 118.387C142.581 120.093 142.352 123.301 142.536 125.232C141.935 122.732 145.486 114.554 147.335 113.246C148.946 112.106 152.007 112.83 153.93 112.832L154.225 113.035C155.446 121.732 154.362 135.633 154.55 144.865C154.838 158.937 158.257 230.736 156.339 234.859C156.161 235.241 155.769 235.644 155.48 235.969C174.709 246.342 183.509 245.187 203.789 245.212C214.001 245.225 209.966 257.522 209.956 266.857L209.946 288.806C209.951 307.529 209.15 322.21 199.91 339.159L199.775 339.406C202.337 338.249 202.059 332.936 207.915 334.52C217.392 337.083 222.923 340.223 233.641 341.958L232.672 342.274C232.917 342.723 235.021 342.426 235.682 342.955L235.574 343.322C233.807 344.281 229.627 343.795 228.94 347.536C231.026 347.565 234.406 346.981 236.287 347.735L351.652 347.726C356.677 347.726 365.534 346.585 370.053 348.725C374.459 347.985 385.27 348.802 390.284 348.725L390.284 147.748L376.374 147.767C354.28 147.776 347.322 142.251 347.469 119.757L347.492 106.383C348.522 101.855 348.071 96.5296 348.085 91.8775C340.922 91.736 338.456 94.7083 338.94 86.8741C357.345 83.0205 353.136 91.4853 358.964 92.4936C362.475 95.3588 365.696 98.9309 368.947 102.107L405.225 137.534C407.147 139.417 409.294 141.2 410.794 143.445L410.794 163.606C421.521 163.576 431.732 162.308 440.022 170.537C449.496 179.941 448.08 190.408 448.059 202.647L448.045 344.52C448.033 349.161 447.792 353.897 442.03 350.256C442.057 354.312 442.403 358.613 442.03 362.644C451.273 357.431 447.992 377.68 448.019 382.429C448.067 390.796 449.315 398.935 445.932 406.866C438.574 424.118 421.852 422.322 406.836 422.318L166.006 422.309C150.216 422.328 134.835 424.455 127.704 405.818C126.585 402.891 122.396 385.132 130.979 390.288C133.399 391.742 132.654 397.029 132.988 399.422C135.733 419.098 157.577 415.506 171.841 415.507L414.973 415.509C442.279 415.498 441.002 404.09 441.048 381.747C437.519 381.736 428.681 381.297 425.895 381.747C424.499 382.003 423.085 381.843 421.679 381.747C422.177 396.208 416.383 392.159 404.825 392.013C394.272 391.879 383.697 392.004 373.142 391.995L347.378 392.009C344.334 392.009 334.436 393.313 332.646 390.791C325.248 399.381 316.251 397.891 306.1 397.874L263.304 397.862C255.077 397.856 249.182 398.373 242.956 391.999L242.389 392.055L241.273 390.942L240.94 391.005C240.524 392.561 241.747 393.453 241.608 394.641C237.151 394.985 232.618 394.556 228.151 394.553L195.918 394.551C187.298 394.551 168.636 395.603 160.596 393.968C156.739 393.184 148.502 388.776 148.788 383.872C148.888 382.159 151.504 382.691 152.457 381.865L152.298 380.767C152.21 380.138 151.691 379.386 151.387 378.814C146.275 380.9 141.82 384.47 136.656 386.397C128.74 384.233 102.381 368.734 95.7908 364.221C61.378 340.656 64.1366 308.928 64.165 273.384L64.1415 258.077C64.0242 243.024 62.1857 245.24 76.867 245.24C83.3462 245.24 89.9654 245.277 96.3801 244.245L96.3721 208.456C96.3675 195.445 94.3012 181.1 104.383 171.014C113.825 161.569 123.088 163.638 135.065 163.606L135.065 154.503ZM140.593 343.743C164.85 339.152 181.737 319.304 176.839 294.245C172.853 273.854 152.491 258.541 131.686 261.003C79.1324 268.085 84.2473 346.577 140.593 343.743Z"/>
	<path fill="#88E8F7" transform="scale(0.195312 0.195312)" d="M338.94 86.8741C357.345 83.0205 353.136 91.4853 358.964 92.4936C362.475 95.3588 365.696 98.9309 368.947 102.107L405.225 137.534C407.147 139.417 409.294 141.2 410.794 143.445L410.794 163.606C421.521 163.576 431.732 162.308 440.022 170.537C449.496 179.941 448.08 190.408 448.059 202.647L448.045 344.52C448.033 349.161 447.792 353.897 442.03 350.256C442.057 354.312 442.403 358.613 442.03 362.644C440.069 366.062 440.914 371.351 441.048 375.152C438.171 374.67 434.788 375.123 431.838 375.135L410.794 375.152L410.812 355.772C410.814 351.464 412.591 344.173 408.317 341.547C407.941 337.747 408.547 334.222 408.317 330.486C401.171 330.92 404.077 314.125 404.076 309.006L404.073 147.748C399.479 147.691 394.878 147.745 390.284 147.748L376.374 147.767C354.28 147.776 347.322 142.251 347.469 119.757L347.492 106.383C348.522 101.855 348.071 96.5296 348.085 91.8775C340.922 91.736 338.456 94.7083 338.94 86.8741Z"/>
	<path fill="#6E56AF" transform="scale(0.195312 0.195312)" d="M338.94 86.8741C357.345 83.0205 353.136 91.4853 358.964 92.4936C362.475 95.3588 365.696 98.9309 368.947 102.107L405.225 137.534C407.147 139.417 409.294 141.2 410.794 143.445L410.794 163.606C421.521 163.576 431.732 162.308 440.022 170.537C449.496 179.941 448.08 190.408 448.059 202.647L448.045 344.52C448.033 349.161 447.792 353.897 442.03 350.256C439.904 346.515 441.038 335.469 441.046 331.086L441.055 199.808C441.053 173.825 436.255 170.357 410.794 170.428L410.752 318.923C410.733 322.718 412.608 328.5 408.317 330.486C401.171 330.92 404.077 314.125 404.076 309.006L404.073 147.748C399.479 147.691 394.878 147.745 390.284 147.748L376.374 147.767C354.28 147.776 347.322 142.251 347.469 119.757L347.492 106.383C348.522 101.855 348.071 96.5296 348.085 91.8775C340.922 91.736 338.456 94.7083 338.94 86.8741Z"/>
	<path fill="#88E8F7" transform="scale(0.195312 0.195312)" d="M354.253 97.6571C356.769 99.4018 359.047 102.128 361.252 104.267L391.471 133.651C393.942 136.01 396.768 138.346 398.908 141.004C393.119 141.233 387.283 141.023 381.489 141.019C358.493 141.004 354.267 141.218 354.243 117.304L354.253 97.6571Z"/>
	<path fill="#D8DDF4" transform="scale(0.195312 0.195312)" d="M390.284 147.748C394.878 147.745 399.479 147.691 404.073 147.748L404.076 309.006C404.077 314.125 401.171 330.92 408.317 330.486C408.547 334.222 407.941 337.747 408.317 341.547C407.158 341.661 405.553 341.802 404.804 342.838C403.476 344.676 404.069 371.003 404.073 375.152L167.414 375.152C172.533 370.538 187.2 361.758 188.453 354.847C192.593 349.855 196.053 344.661 199.775 339.406C202.337 338.249 202.059 332.936 207.915 334.52C217.392 337.083 222.923 340.223 233.641 341.958L232.672 342.274C232.917 342.723 235.021 342.426 235.682 342.955L235.574 343.322C233.807 344.281 229.627 343.795 228.94 347.536C231.026 347.565 234.406 346.981 236.287 347.735L351.652 347.726C356.677 347.726 365.534 346.585 370.053 348.725C374.459 347.985 385.27 348.802 390.284 348.725L390.284 147.748Z"/>
	<path fill="#6E56AF" transform="scale(0.195312 0.195312)" d="M236.287 347.735L351.652 347.726C356.677 347.726 365.534 346.585 370.053 348.725C372.742 358.38 358.888 354.849 351.592 354.85L259.59 354.844C255.001 354.839 231.512 356.126 228.906 353.832C223.164 348.779 233.411 347.769 236.287 347.735Z"/>
	<path fill="#F7FCFC" transform="scale(0.195312 0.195312)" d="M141.767 118.387C142.581 120.093 142.352 123.301 142.536 125.232C141.935 122.732 145.486 114.554 147.335 113.246C148.946 112.106 152.007 112.83 153.93 112.832L154.225 113.035C155.446 121.732 154.362 135.633 154.55 144.865C154.838 158.937 158.257 230.736 156.339 234.859C156.161 235.241 155.769 235.644 155.48 235.969C150.657 233.78 145.823 230.607 141.767 227.23L141.767 142.653C142.035 140.109 141.794 137.31 141.786 134.742L141.767 118.387Z"/>
	<path fill="#F7FCFC" transform="scale(0.195312 0.195312)" d="M152.298 380.767C155.63 383.414 161.317 382.278 165.317 382.274L238.503 382.258C239.162 386.108 240.418 389.001 242.956 391.999L242.389 392.055L241.273 390.942L240.94 391.005C240.524 392.561 241.747 393.453 241.608 394.641C237.151 394.985 232.618 394.556 228.151 394.553L195.918 394.551C187.298 394.551 168.636 395.603 160.596 393.968C156.739 393.184 148.502 388.776 148.788 383.872C148.888 382.159 151.504 382.691 152.457 381.865L152.298 380.767Z"/>
	<path fill="#D8DDF4" transform="scale(0.195312 0.195312)" d="M337.157 381.747C344.514 381.988 351.957 381.752 359.324 381.749L402.348 381.756C410.058 381.756 418.277 380.905 425.895 381.747C424.499 382.003 423.085 381.843 421.679 381.747C422.177 396.208 416.383 392.159 404.825 392.013C394.272 391.879 383.697 392.004 373.142 391.995L347.378 392.009C344.334 392.009 334.436 393.313 332.646 390.791C334.347 387.88 335.773 384.818 337.157 381.747Z"/>
	<path fill="#BA75B8" transform="scale(0.195312 0.195312)" d="M135.065 154.503C134.886 151.481 135.054 148.353 135.058 145.322L135.049 113.405C135.047 100.191 139.117 88.2761 154.514 85.9844C158.038 85.4598 161.751 85.676 165.309 85.6755L193.179 85.6927C195.798 85.6987 201.79 84.8069 201.763 88.9615C201.724 94.7969 174.172 92.4781 169.076 92.4823C146.267 92.5011 141.763 94.4846 141.767 118.387L141.786 134.742C141.794 137.31 142.035 140.109 141.767 142.653C140.042 140.578 143.203 113.539 141.035 111.015C139.622 109.371 136.199 110.757 135.583 108.658C135.047 114.374 135.932 153.379 135.065 154.503Z"/>
	<path fill="#66C0F7" transform="scale(0.195312 0.195312)" d="M158.524 375.688C164.321 371.496 171.017 368.456 176.96 364.396C181.087 361.577 184.38 357.734 188.453 354.847C187.2 361.758 172.533 370.538 167.414 375.152C165.771 376.075 160.561 375.713 158.524 375.688Z"/>
	<defs>
		<linearGradient id="gradient_1" gradientUnits="userSpaceOnUse" x1="121.32867" y1="375.90784" x2="143.98567" y2="233.98494">
			<stop offset="0" stop-color="#F57AB6"/>
			<stop offset="1" stop-color="#FFD4D3"/>
		</linearGradient>
	</defs>
	<path fill="url(#gradient_1)" transform="scale(0.195312 0.195312)" d="M136.656 232.444C137.744 232.635 144.302 237.737 145.868 238.695C168.573 252.599 178.686 252.002 203.244 251.949L203.25 282.609C203.267 313.562 200.998 338.435 173.11 358.642C162.096 366.622 148.93 371.051 137.834 378.814C134.059 379.55 104.715 361.987 99.7943 358.673C71.8544 339.854 70.9818 315.94 70.9794 286.564L70.9883 251.949C95.325 250.621 101.158 253.307 125.59 239.534C129.28 237.453 132.523 234.65 136.262 232.651L136.656 232.444ZM140.593 343.743C164.85 339.152 181.737 319.304 176.839 294.245C172.853 273.854 152.491 258.541 131.686 261.003C79.1324 268.085 84.2473 346.577 140.593 343.743Z"/>
	<path fill="#6E56AF" transform="scale(0.195312 0.195312)" d="M132.467 254.555C143.636 252.802 156.817 257.606 165.621 264.36C200.128 290.831 184.58 344.791 140.593 350.256C126.294 350.606 115.157 348.328 104.325 338.291C72.6943 308.983 90.8278 255.996 132.467 254.555ZM140.593 343.743C164.85 339.152 181.737 319.304 176.839 294.245C172.853 273.854 152.491 258.541 131.686 261.003C79.1324 268.085 84.2473 346.577 140.593 343.743Z"/>
	<path fill="#6E56AF" transform="scale(0.195312 0.195312)" d="M127.416 276.752C129.686 276.63 144.576 276.191 145.807 277.416C147.703 279.3 147.002 287.895 146.976 290.756C149.611 290.823 160.312 289.35 161.373 292.277C162.43 295.196 162.413 310.527 161.036 313.325C158.879 314.933 149.981 314.232 146.976 314.209C147.203 317.867 148.677 326.078 145.139 328.558C140.123 329 133.89 329.253 128.938 328.479C123.036 327.557 125.239 318.454 125.237 314.209C121.963 314.218 114.129 314.764 111.28 313.475C109.571 311.216 110.3 292.799 111.437 291.372C114.631 289.991 121.535 290.724 125.237 290.756C125.283 286.432 123.119 277.955 127.416 276.752Z"/>
	<path fill="#88E8F7" transform="scale(0.195312 0.195312)" d="M131.686 283.008L140.593 283.008C140.636 299.887 138.871 297.101 155.48 297.074L155.48 307.706C138.62 307.707 141.212 305.946 140.593 322.588C137.624 322.544 134.655 322.576 131.686 322.588C131.695 305.466 133.926 307.653 116.831 307.706L116.831 297.074C121.456 297.048 126.182 297.445 130.787 297.074C132.156 292.768 131.693 287.479 131.686 283.008Z"/>
	<path fill="#88E8F7" transform="scale(0.195312 0.195312)" d="M125.755 170.428C128.772 170.133 131.73 170.249 134.747 170.428L134.747 224.428C125.447 230.205 121.36 233.925 110.534 239.354C107.95 240.212 105.636 241.234 103.216 242.495L103.207 209.021C103.188 191.949 101.121 168.835 125.755 170.428Z"/>
	<path fill="#D8DDF4" transform="scale(0.195312 0.195312)" d="M272.643 382.258L328.881 382.258C323.12 394.41 314.338 390.805 302.312 390.791L271.876 390.797C261.144 390.803 249.528 394.053 245.287 382.258C248.373 382.075 251.545 382.236 254.641 382.24L272.643 382.258Z"/>
	<path fill="#6E56AF" transform="scale(0.195312 0.195312)" d="M291.616 191.748C312.076 189.764 335.296 197.941 351.977 209.271C358.024 213.378 357.874 213.283 357.345 220.639C354.463 260.766 336.183 291.575 300.117 311.792C298.824 312.416 297.588 312.895 296.208 313.291C280.534 310.107 256.851 283.104 248.64 268.28C240.414 253.43 233.877 231.196 235.242 214.037C247.682 200.878 274.425 193.469 291.616 191.748ZM296.208 305.997C297.09 305.48 297.98 304.973 298.851 304.435C330.628 285.79 350.079 253.852 350.261 217.159C338.442 204.487 309.364 197.279 291.616 198.494C273.756 200.323 255.954 205.626 241.792 217.159C242.384 250.538 264.78 291.746 296.208 305.997Z"/>
	<defs>
		<linearGradient id="gradient_2" gradientUnits="userSpaceOnUse" x1="291.67703" y1="285.05228" x2="298.55328" y2="228.89925">
			<stop offset="0" stop-color="#16A0B1"/>
			<stop offset="1" stop-color="#51D7D8"/>
		</linearGradient>
	</defs>
	<path fill="url(#gradient_2)" transform="scale(0.195312 0.195312)" d="M270.684 221.829C283.538 207.873 309.063 209.231 322.611 221.893C323.898 223.096 326.594 225.527 327.12 227.23C345.438 247.01 326.647 287.68 293.625 285.794C261.526 283.96 246.361 242.809 270.684 221.829ZM272.643 237.424C262.143 254.006 280.886 279.575 302.82 274.146C316.342 270.799 324.917 255.878 322.033 242.495C321.27 237.443 318.609 232.871 314.543 229.796C305.429 219.03 289.495 220.121 279.037 228.162C276.14 231.008 273.866 233.467 272.643 237.424Z"/>
	<defs>
		<linearGradient id="gradient_3" gradientUnits="userSpaceOnUse" x1="292.86029" y1="274.38889" x2="299.40506" y2="221.98814">
			<stop offset="0" stop-color="#D76F92"/>
			<stop offset="1" stop-color="#F6DDD3"/>
		</linearGradient>
	</defs>
	<path fill="url(#gradient_3)" transform="scale(0.195312 0.195312)" d="M279.037 228.162C289.495 220.121 305.429 219.03 314.543 229.796C318.609 232.871 321.27 237.443 322.033 242.495C324.917 255.878 316.342 270.799 302.82 274.146C280.886 279.575 262.143 254.006 272.643 237.424C273.866 233.467 276.14 231.008 279.037 228.162ZM291.616 232.444C291.474 236.374 291.681 240.311 291.616 244.245C289.114 244.277 285.688 244.733 283.312 244.245C278.731 244.816 274.957 248.32 278.8 252.261C281.17 254.691 288.277 253.791 291.616 253.761C291.391 259.402 289.748 264.677 296.208 266.812C302.499 265.578 301.235 258.685 301.036 253.761C304.987 253.791 315.752 255.556 314.743 248.734C313.619 241.138 303.879 245.974 301.043 243.985L301.036 243.148C300.972 237.714 302.294 231.985 296.208 229.796C294.325 230.424 293.085 231.053 291.616 232.444Z"/>
	<path fill="#88E8F7" transform="scale(0.195312 0.195312)" d="M270.684 221.829C283.538 207.873 309.063 209.231 322.611 221.893C323.898 223.096 326.594 225.527 327.12 227.23C327.048 229.643 330.335 231.069 329.9 233.475C326.829 235.891 317.469 230.259 314.967 229.531L314.543 229.796C305.429 219.03 289.495 220.121 279.037 228.162L278.904 227.757L278.157 228.413C276.719 229.685 275.089 228.915 273.469 228.724C265.538 227.789 264.676 229.089 270.8 222.345L270.684 221.829Z"/>
	<defs>
		<linearGradient id="gradient_4" gradientUnits="userSpaceOnUse" x1="301.5296" y1="187.24469" x2="291.81949" y2="133.05835">
			<stop offset="0" stop-color="#6856AE"/>
			<stop offset="1" stop-color="#B76AB0"/>
		</linearGradient>
	</defs>
	<path fill="url(#gradient_4)" transform="scale(0.195312 0.195312)" d="M294.685 132.552C324.643 127.609 341.817 177.892 300.117 188.218C258.958 189.98 259.308 134.464 294.685 132.552Z"/>
	<defs>
		<linearGradient id="gradient_5" gradientUnits="userSpaceOnUse" x1="294.47702" y1="180.74771" x2="298.57458" y2="139.48257">
			<stop offset="0" stop-color="#FFB9B9"/>
			<stop offset="1" stop-color="#FDD9D6"/>
		</linearGradient>
	</defs>
	<path fill="url(#gradient_5)" transform="scale(0.195312 0.195312)" d="M296.208 139.11C325.239 139.054 324.839 179.901 297.99 181.018C269.982 183.057 266.215 140.972 296.208 139.11Z"/>
	<path fill="#BA75B8" transform="scale(0.195312 0.195312)" d="M347.492 92.4936L232.255 92.4617C227.16 92.4874 221.93 92.8212 216.849 92.5566C210.889 92.2462 209.818 86.0724 216 85.6169C220.563 85.2806 225.486 85.6946 230.082 85.6941L262.219 85.6934C292.081 85.6933 321.978 85.3728 351.836 85.6895C354.44 87.5436 356.935 90.03 358.964 92.4936C353.136 91.4853 357.345 83.0205 338.94 86.8741C338.456 94.7083 340.922 91.736 348.085 91.8775C348.071 96.5296 348.522 101.855 347.492 106.383C347.286 101.787 347.485 97.0992 347.492 92.4936Z"/>
	<path fill="#6E56AF" transform="scale(0.195312 0.195312)" d="M231.183 327.309L317.477 327.315C320.5 327.317 340.821 325.362 334.983 333.35C334.345 334.223 333.638 334.318 332.646 334.465L264.548 334.45C259.239 334.449 232.531 335.522 229.469 334.046C225.631 332.195 227.684 328.292 231.183 327.309Z"/>
	<path fill="#6E56AF" transform="scale(0.195312 0.195312)" d="M171.674 174.11L237.055 174.095C240.36 174.07 245.934 173.099 248.886 174.947C252.445 180.355 246.788 181.004 242.956 181.018L194.055 181.023C190.094 181.023 168.322 182.157 166.147 180.283C161.054 175.895 168.225 174.228 171.674 174.11Z"/>
	<path fill="#BA75B8" transform="scale(0.195312 0.195312)" d="M171.674 112.81C188.78 111.968 191.386 135.637 174.06 139.11C155.811 139.336 152.996 115.977 171.674 112.81Z"/>
	<path fill="#F2D2D3" transform="scale(0.195312 0.195312)" d="M172.121 119.328C180.609 119.874 182.085 129.244 174.06 132.552C169.401 132.379 166.978 130.636 165.652 126.076C166.371 122.238 168.043 119.845 172.121 119.328Z"/>
	<path fill="#6E56AF" transform="scale(0.195312 0.195312)" d="M169.835 193.601L199.967 193.613C203.23 193.62 215.055 191.882 216.584 195.722C217.999 199.274 215.256 200.408 212.285 200.706L181.69 200.701C177.595 200.701 172.32 201.131 168.41 200.737C163.719 200.265 163.421 193.931 169.835 193.601Z"/>
	<path fill="#6E56AF" transform="scale(0.195312 0.195312)" d="M203.244 154.503C210.435 154.166 217.798 154.526 225.007 154.511C229.194 154.502 248.813 152.405 249.735 157.068C250.299 159.918 248.512 160.828 246.067 161.238C236.945 161.387 227.787 161.234 218.662 161.23C215.619 161.228 199.677 163.018 199.219 158.425C198.945 155.675 201.014 154.899 203.244 154.503Z"/>
	<path fill="#6E56AF" transform="scale(0.195312 0.195312)" d="M212.285 123.04C216.117 123.014 236.228 122.362 238.358 123.793C241.131 125.655 238.936 129.174 236.287 129.618C232.234 129.621 213.364 130.249 210.99 129.034C207.773 127.387 209.247 123.63 212.285 123.04Z"/>
	<path fill="#6E56AF" transform="scale(0.195312 0.195312)" d="M168.292 154.503C171.819 154.442 184.723 153.923 186.982 155.095C190.306 156.819 188.33 160.399 185.554 161.238C181.608 161.266 169.902 161.976 166.858 160.56C163.212 158.864 165.176 155.149 168.292 154.503Z"/>
	<path fill="#BA75B8" transform="scale(0.195312 0.195312)" d="M195.301 116.59C196.599 116.342 198.013 116.29 198.956 117.412C199.795 118.412 201.859 133.586 197.846 136.644C190.709 138.166 191.883 118.842 195.301 116.59Z"/>
	<path fill="#6E56AF" transform="scale(0.195312 0.195312)" d="M364.968 327.309C371.668 327.672 372.354 334.116 365.765 334.465C358.895 334.127 358.591 328.105 364.968 327.309Z"/>
</svg>
