<?xml version="1.0" encoding="utf-8" ?>
<svg xmlns="http://www.w3.org/2000/svg" xmlns:xlink="http://www.w3.org/1999/xlink" width="100" height="100">
	<path fill="#1BD7C5" transform="scale(0.195312 0.195312)" d="M213.143 111.296C226.002 87.1161 251.817 73.706 277.8 87.598C288.747 93.4513 294.015 100.674 299.703 111.296C303.205 111.482 306.643 111.441 310.142 111.296L319.46 111.291C340.28 111.321 338.876 120.962 338.871 138.349L338.866 165.492L359.912 165.492C365.12 164.608 379.212 165.496 385.233 165.494L423.096 165.482C429.955 165.486 437.086 165.128 443.909 165.751C457.796 167.02 454.694 186.495 454.686 195.796L454.683 394.599C454.677 400.997 454.266 407.53 454.686 413.906L454.686 425.277L366.264 425.277L350.296 425.277C344.553 425.642 338.635 425.32 332.876 425.293L303.814 425.277L208.556 425.277L173.742 425.277L162.051 425.277L58.1437 425.277C58.0714 423.25 58.1211 421.218 58.1437 419.191C57.846 414.706 58.1391 410.032 58.1399 405.525L58.1422 233.094C58.1435 204.589 53.0117 207.382 82.0177 195.238C81.667 191.365 81.9007 155.575 82.6037 153.765C84.9381 151.439 88.9905 152.277 91.9968 152.276L144.972 152.288C156.126 152.307 155.812 152.539 155.825 163.426L155.841 189.012C155.846 191.078 156.099 193.182 155.824 195.238C158.089 196.589 160.471 197.783 162.713 199.158C165.943 200.862 169.042 202.663 171.997 204.821L171.991 134.267C171.997 125.005 171.88 115.096 183.349 111.916C189.074 110.329 206.286 111.382 213.143 111.296Z"/>
	<path fill="#DCE3E8" transform="scale(0.195312 0.195312)" d="M359.912 165.492C365.12 164.608 379.212 165.496 385.233 165.494L423.096 165.482C429.955 165.486 437.086 165.128 443.909 165.751C457.796 167.02 454.694 186.495 454.686 195.796L454.683 394.599C454.677 400.997 454.266 407.53 454.686 413.906L454.686 425.277L366.264 425.277L350.296 425.277C346.5 425.155 342.665 425.272 338.866 425.277L338.866 416.318L338.866 413.906C339.141 404.805 338.869 395.604 338.868 386.493L338.866 165.492L359.912 165.492Z"/>
	<path fill="#9AB3CE" transform="scale(0.195312 0.195312)" d="M359.912 165.492C362.03 165.523 364.145 165.517 366.264 165.492L366.279 187.873C366.279 191.998 366.85 198.05 365.828 201.998L366.264 201.998C366.037 205.092 365.993 208.046 366.264 211.144L366.264 211.144C366.467 213.014 366.566 227.235 366.264 228.809C366.14 231.235 365.61 235.102 366.264 237.389L366.264 237.389C366.246 243.542 366.142 249.709 366.264 255.86C370.301 255.842 376.558 255.403 380.316 255.86C375.711 256.239 370.896 255.831 366.264 255.86C366.112 258.947 365.825 262.165 366.264 265.235L366.743 265.235C366.741 267.477 367.184 281.125 366.801 281.971L365.828 282.308L366.264 282.308C367.018 285.059 366.158 288.008 366.743 290.769L366.264 290.769C366.53 297.226 366.303 303.809 366.264 310.276C366.473 313.048 366.311 316.117 366.743 318.835L366.264 318.835C367.315 320.514 367.162 333.365 366.264 335.459L366.743 335.459C366.095 338.091 366.431 341.63 366.264 344.386L366.264 344.386C366.353 351.355 366.185 358.327 366.264 365.295C366.283 368.133 366.319 370.971 366.264 373.809L366.264 373.809C366.649 374.532 366.264 387.935 366.264 390.065C366.332 392.982 366.324 395.885 366.264 398.803L366.264 398.803C366.843 401.756 366.222 410.235 366.264 413.906L366.264 413.906C366.242 417.691 366.144 421.494 366.264 425.277L350.296 425.277C346.5 425.155 342.665 425.272 338.866 425.277L338.866 416.318L338.866 413.906C339.141 404.805 338.869 395.604 338.868 386.493L338.866 165.492L359.912 165.492Z"/>
	<path fill="#DCE3E8" transform="scale(0.195312 0.195312)" d="M366.264 255.86C370.301 255.842 376.558 255.403 380.316 255.86C375.711 256.239 370.896 255.831 366.264 255.86C366.112 258.947 365.825 262.165 366.264 265.235L366.743 265.235C366.741 267.477 367.184 281.125 366.801 281.971L365.828 282.308L366.264 282.308C367.018 285.059 366.158 288.008 366.743 290.769L366.264 290.769C361.932 290.706 357.978 291.544 354.505 288.173C354.24 285.107 354.482 281.868 354.486 278.782L354.505 259.271C357.078 254.618 361.626 255.695 366.264 255.86Z"/>
	<path fill="#1870BF" transform="scale(0.195312 0.195312)" d="M362.579 265.235L366.264 265.235L366.743 265.235C366.741 267.477 367.184 281.125 366.801 281.971L365.828 282.308L362.579 282.308L362.579 265.235Z"/>
	<path fill="#DCE3E8" transform="scale(0.195312 0.195312)" d="M357.649 201.998C360.365 201.767 363.107 201.922 365.828 201.998L366.264 201.998C366.037 205.092 365.993 208.046 366.264 211.144L366.264 211.144C366.467 213.014 366.566 227.235 366.264 228.809C366.14 231.235 365.61 235.102 366.264 237.389L366.264 237.389C352.701 239.697 354.465 234.742 354.482 223.538L354.505 204.821C355.426 203.581 356.364 202.83 357.649 201.998Z"/>
	<path fill="#1870BF" transform="scale(0.195312 0.195312)" d="M362.579 211.144L366.264 211.144L366.264 211.144C366.467 213.014 366.566 227.235 366.264 228.809L362.579 228.809L362.579 211.144Z"/>
	<path fill="#DCE3E8" transform="scale(0.195312 0.195312)" d="M354.505 312.849C357.895 309.815 362.034 310.283 366.264 310.276C366.473 313.048 366.311 316.117 366.743 318.835L366.264 318.835C367.315 320.514 367.162 333.365 366.264 335.459L366.743 335.459C366.095 338.091 366.431 341.63 366.264 344.386L366.264 344.386C353.245 343.73 354.448 345.448 354.477 330.924C354.489 324.901 354.58 318.871 354.505 312.849Z"/>
	<path fill="#3784D4" transform="scale(0.195312 0.195312)" d="M363.282 318.835L366.264 318.835C367.315 320.514 367.162 333.365 366.264 335.459L363.282 335.459C363.3 329.919 363.371 324.374 363.282 318.835Z"/>
	<path fill="#DCE3E8" transform="scale(0.195312 0.195312)" d="M354.505 368.242C357.445 364.482 362.026 365.341 366.264 365.295C366.283 368.133 366.319 370.971 366.264 373.809L366.264 373.809C366.649 374.532 366.264 387.935 366.264 390.065C366.332 392.982 366.324 395.885 366.264 398.803L366.264 398.803C363.409 398.981 360.5 399.055 357.649 398.803C352.979 396.089 354.487 390.029 354.486 385.388L354.505 368.242Z"/>
	<path fill="#3784D4" transform="scale(0.195312 0.195312)" d="M363.282 373.809L366.264 373.809C366.649 374.532 366.264 387.935 366.264 390.065L363.282 390.065C363.258 384.651 363.461 379.218 363.282 373.809Z"/>
	<path fill="#25488F" transform="scale(0.195312 0.195312)" d="M338.866 413.906L366.264 413.906L366.264 413.906C366.242 417.691 366.144 421.494 366.264 425.277L350.296 425.277C346.5 425.155 342.665 425.272 338.866 425.277L338.866 416.318L338.866 413.906Z"/>
	<path fill="#3D70C0" transform="scale(0.195312 0.195312)" d="M366.264 413.906L454.686 413.906L454.686 425.277L366.264 425.277C366.144 421.494 366.242 417.691 366.264 413.906Z"/>
	<path fill="#FEFEFE" transform="scale(0.195312 0.195312)" d="M366.264 201.998C382.62 201.944 387.639 197.732 387.689 213.776L387.71 226.176C387.71 231.05 388.751 234.947 383.66 237.389C382.104 237.623 368.15 237.673 366.264 237.389C365.61 235.102 366.14 231.235 366.264 228.809C366.566 227.235 366.467 213.014 366.264 211.144L366.264 211.144C365.993 208.046 366.037 205.092 366.264 201.998Z"/>
	<path fill="#50B1F7" transform="scale(0.195312 0.195312)" d="M366.264 211.144L378.527 211.144L378.527 228.809L366.264 228.809C366.566 227.235 366.467 213.014 366.264 211.144Z"/>
	<path fill="#FEFEFE" transform="scale(0.195312 0.195312)" d="M380.316 255.86C381.985 255.906 383.648 255.895 385.281 256.283C389.574 261.768 387.761 279.739 387.687 287.024C383.718 293.125 372.875 290.764 366.743 290.769C366.158 288.008 367.018 285.059 366.264 282.308L365.828 282.308L366.801 281.971C367.184 281.125 366.741 267.477 366.743 265.235L366.264 265.235C365.825 262.165 366.112 258.947 366.264 255.86C370.896 255.831 375.711 256.239 380.316 255.86Z"/>
	<path fill="#50B1F7" transform="scale(0.195312 0.195312)" d="M366.743 265.235L378.527 265.235L378.527 282.308C374.443 282.286 370.346 282.193 366.264 282.308L365.828 282.308L366.801 281.971C367.184 281.125 366.741 267.477 366.743 265.235Z"/>
	<path fill="#FEFEFE" transform="scale(0.195312 0.195312)" d="M366.264 310.276C387.012 310.19 387.741 306.058 387.724 325.646C387.706 347.221 389.806 344.478 366.264 344.386C366.431 341.63 366.095 338.091 366.743 335.459L366.264 335.459C367.162 333.365 367.315 320.514 366.264 318.835L366.743 318.835C366.311 316.117 366.473 313.048 366.264 310.276Z"/>
	<path fill="#50B1F7" transform="scale(0.195312 0.195312)" d="M366.743 318.835L378.527 318.835L378.527 335.459C374.638 335.81 370.651 335.453 366.743 335.459L366.264 335.459C367.162 333.365 367.315 320.514 366.264 318.835L366.743 318.835Z"/>
	<path fill="#FEFEFE" transform="scale(0.195312 0.195312)" d="M366.264 365.295C371.646 365.271 384.138 363.223 387.687 368.242L387.697 384.045C387.683 402.645 386.534 399.252 366.264 398.803C366.324 395.885 366.332 392.982 366.264 390.065C366.264 387.935 366.649 374.532 366.264 373.809L366.264 373.809C366.319 370.971 366.283 368.133 366.264 365.295Z"/>
	<path fill="#50B1F7" transform="scale(0.195312 0.195312)" d="M366.264 373.809L378.527 373.809C378.604 379.226 378.543 384.647 378.527 390.065L366.264 390.065C366.264 387.935 366.649 374.532 366.264 373.809L366.264 373.809Z"/>
	<path fill="#FEFEFE" transform="scale(0.195312 0.195312)" d="M407.955 201.998C412.969 201.991 428.239 201.359 432.438 202.493C435.159 204.949 434.301 234.092 432.807 235.926C431.542 237.48 428.599 237.293 426.813 237.389L404.272 237.389C402.431 236.208 401.328 235.23 401.007 232.992C400.292 228.003 400.318 210.824 401.135 206.041C401.471 204.076 402.731 203.092 404.272 201.998L407.955 201.998Z"/>
	<path fill="#50B1F7" transform="scale(0.195312 0.195312)" d="M409.69 211.144C414.891 211.279 420.137 211.149 425.341 211.144L425.341 228.809L409.69 228.809L409.69 211.144Z"/>
	<path fill="#FEFEFE" transform="scale(0.195312 0.195312)" d="M405.864 256.283C410.176 256.276 431.983 254.478 433.559 258.76C434.342 260.884 434.099 281.948 433.862 285.439C433.614 289.091 432.636 290.174 428.874 290.769L414.534 290.787C408.996 290.797 404.097 292.223 400.742 287.024C400.243 281.294 400.292 266.691 400.872 261.174C401.194 258.117 402.884 256.848 405.864 256.283Z"/>
	<path fill="#50B1F7" transform="scale(0.195312 0.195312)" d="M409.69 265.235L425.341 265.235L425.341 282.308C420.128 282.377 414.905 282.313 409.69 282.308L409.69 265.235Z"/>
	<path fill="#FEFEFE" transform="scale(0.195312 0.195312)" d="M405.864 310.276C412.383 310.263 426.247 309.578 431.781 310.929C435.287 314.696 435.247 340.197 431.781 344.386L428.874 344.386C425.703 344.501 404.854 344.923 403.075 343.658C398.514 340.416 400.766 313.963 401.941 312.247C402.899 310.847 404.279 310.525 405.864 310.276Z"/>
	<path fill="#50B1F7" transform="scale(0.195312 0.195312)" d="M409.69 318.835L425.341 318.835L425.341 335.459L409.69 335.459L409.69 318.835Z"/>
	<path fill="#FEFEFE" transform="scale(0.195312 0.195312)" d="M406.531 365.295L420.514 365.281C433.688 365.287 433.896 364.217 433.897 378.382L433.987 391.054C434.002 394.152 434.055 395.98 431.781 398.282L428.874 398.803L407.329 398.925C399.207 398.94 400.766 392.162 400.756 386.175C400.745 380.198 400.673 374.218 400.742 368.242C402.28 366.211 404.077 365.583 406.531 365.295Z"/>
	<path fill="#50B1F7" transform="scale(0.195312 0.195312)" d="M409.69 373.809L425.341 373.809C425.684 379.152 425.356 384.699 425.341 390.065L409.69 390.065L409.69 373.809Z"/>
	<path fill="#3D70C0" transform="scale(0.195312 0.195312)" d="M82.0177 195.238C81.667 191.365 81.9007 155.575 82.6037 153.765C84.9381 151.439 88.9905 152.277 91.9968 152.276L144.972 152.288C156.126 152.307 155.812 152.539 155.825 163.426L155.841 189.012C155.846 191.078 156.099 193.182 155.824 195.238C158.089 196.589 160.471 197.783 162.713 199.158C165.943 200.862 169.042 202.663 171.997 204.821L173.742 205.292L173.742 416.318L173.742 425.277L162.051 425.277L58.1437 425.277C58.0714 423.25 58.1211 421.218 58.1437 419.191C57.846 414.706 58.1391 410.032 58.1399 405.525L58.1422 233.094C58.1435 204.589 53.0117 207.382 82.0177 195.238Z"/>
	<path fill="#25488F" transform="scale(0.195312 0.195312)" d="M162.713 199.158C165.943 200.862 169.042 202.663 171.997 204.821L173.742 205.292L173.742 416.318L173.742 425.277L162.051 425.277C161.952 421.7 162.041 418.102 162.051 414.523L162.05 229.018C162.049 225.748 161.574 201.102 162.713 199.158Z"/>
	<path fill="#F9B788" transform="scale(0.195312 0.195312)" d="M82.0177 195.238C81.667 191.365 81.9007 155.575 82.6037 153.765C84.9381 151.439 88.9905 152.277 91.9968 152.276L144.972 152.288C156.126 152.307 155.812 152.539 155.825 163.426L155.841 189.012C155.846 191.078 156.099 193.182 155.824 195.238C143.379 189.429 131.554 182.247 119.336 175.998C107.256 181.999 93.5674 188.726 82.0177 195.238Z"/>
	<path fill="#25488F" transform="scale(0.195312 0.195312)" d="M58.1437 413.906C71.0809 415.106 84.3079 414.527 97.3041 414.527L162.051 414.523C162.041 418.102 161.952 421.7 162.051 425.277L58.1437 425.277C58.0714 423.25 58.1211 421.218 58.1437 419.191C58.6865 418.352 58.2034 415.022 58.1437 413.906Z"/>
	<path fill="#FEFEFE" transform="scale(0.195312 0.195312)" d="M81.0481 212.69C85.5437 213.053 107.616 210.668 109.213 215.165C109.751 216.682 110.827 245.079 107.443 246.733C102.953 246.737 81.135 247.277 78.9013 246.138C76.639 244.986 77.9429 229.104 77.9332 226.135C77.9206 222.308 75.9518 213.76 81.0481 212.69Z"/>
	<path fill="#F24558" transform="scale(0.195312 0.195312)" d="M85.5448 220.513L101.674 220.513L101.674 238.825L85.5448 238.825L85.5448 220.513Z"/>
	<path fill="#FEFEFE" transform="scale(0.195312 0.195312)" d="M125.174 212.69C131.469 213.852 145.86 210.999 151.012 213.676C153.347 214.89 152.468 240.148 152.226 243.527C152.065 245.77 151.861 246.528 149.563 246.733C145.461 246.737 124.06 248.15 121.876 245.621C121.183 243.06 121.232 214.957 122.07 213.665C122.582 212.876 124.326 212.817 125.174 212.69Z"/>
	<path fill="#50B1F7" transform="scale(0.195312 0.195312)" d="M129.023 220.513C134.015 220.923 139.467 220.524 144.498 220.513L144.498 238.825L129.023 238.825L129.023 220.513Z"/>
	<path fill="#FEFEFE" transform="scale(0.195312 0.195312)" d="M81.0481 360.615L97.9306 360.595C101.148 360.598 104.783 360.283 107.94 360.873C110.554 362.845 109.684 390.729 108.9 392.009C108.429 392.778 107.103 393.004 106.304 393.182C102.285 393.195 80.5793 394.385 78.0923 391.76C77.6133 390.05 77.535 363.049 78.1342 361.14C78.9958 360.631 80.0717 360.681 81.0481 360.615Z"/>
	<path fill="#6BD4FD" transform="scale(0.195312 0.195312)" d="M85.5448 368.242C90.9131 368.34 96.3032 368.242 101.674 368.242C102.091 373.708 101.688 379.499 101.674 384.996C96.3298 385.2 90.8965 385.011 85.5448 384.996L85.5448 368.242Z"/>
	<path fill="#FEFEFE" transform="scale(0.195312 0.195312)" d="M79.3399 310.929C84.8651 310.845 90.3977 310.908 95.9236 310.918C113.056 310.948 109.32 310.645 109.341 326.696C109.346 330.995 110.98 340.606 107.443 343.021L107.107 343.05C101.736 343.473 95.6448 343.022 90.2162 343.001C86.1521 342.985 78.3668 345.209 77.8768 339.413C77.5343 335.362 76.3414 312.208 79.3399 310.929Z"/>
	<path fill="#F77272" transform="scale(0.195312 0.195312)" d="M85.5448 318.835C90.8303 319.169 96.3642 318.846 101.674 318.835L101.674 335.459C96.3763 335.48 90.8094 335.025 85.5448 335.459L85.5448 318.835Z"/>
	<path fill="#FEFEFE" transform="scale(0.195312 0.195312)" d="M83.5999 294.8C81.9163 294.664 80.0543 295.107 78.604 294.052C77.1776 291.768 77.7181 267.102 78.4205 263.416L78.7291 263.649L78.5577 263.093C81.7245 262.23 86.1314 262.737 89.4486 262.733L107.443 262.746C108.16 263.523 108.73 264.364 109.324 265.235L109.324 290.769C108.965 296.813 102.988 294.875 98.3254 294.83L83.5999 294.8Z"/>
	<path fill="#50B1F7" transform="scale(0.195312 0.195312)" d="M85.5448 270.253L101.674 270.253L101.674 287.024L85.5448 287.024L85.5448 270.253Z"/>
	<path fill="#FEFEFE" transform="scale(0.195312 0.195312)" d="M125.174 360.615C128.392 360.617 149.93 360.02 151.673 361.227C152.722 361.953 152.59 386.631 152.328 389.906C152.104 392.714 151.274 392.985 148.628 393.182C144.07 393.188 125.126 393.858 121.952 392.372C120.942 389.25 120.981 363.048 122.175 361.029C123.109 360.614 124.167 360.664 125.174 360.615Z"/>
	<path fill="#6BD4FD" transform="scale(0.195312 0.195312)" d="M129.023 368.242L144.498 368.242L144.498 384.996C139.34 384.981 134.18 384.934 129.023 384.996L129.023 368.242Z"/>
	<path fill="#FEFEFE" transform="scale(0.195312 0.195312)" d="M125.174 310.929C128.965 310.65 151.36 310.09 151.963 312.192C152.564 314.284 152.685 335.438 152.4 339.816C152.252 342.082 151.815 342.829 149.563 343.021C145.414 343.091 121.775 344.154 121.472 341.178C120.831 334.875 121.173 320.217 121.509 313.85C121.646 311.265 122.8 311.177 125.174 310.929Z"/>
	<path fill="#F24558" transform="scale(0.195312 0.195312)" d="M129.023 318.835C134.153 319.048 139.36 318.853 144.498 318.835C144.525 324.35 144.191 329.96 144.498 335.459L129.023 335.459L129.023 318.835Z"/>
	<path fill="#FEFEFE" transform="scale(0.195312 0.195312)" d="M124.156 262.746C129.066 262.739 148.944 262.003 151.854 263.678C152.545 265.389 154.216 293.621 150.313 294.8C146.398 294.854 122.493 295.611 121.762 293.743C121.262 292.468 121.384 269.089 121.513 266.226C121.617 263.892 121.862 263.215 124.156 262.746Z"/>
	<path fill="#50B1F7" transform="scale(0.195312 0.195312)" d="M129.023 270.253L144.498 270.253L144.498 287.024L129.023 287.024L129.023 270.253Z"/>
	<path fill="#1870BF" transform="scale(0.195312 0.195312)" d="M109.324 290.769C110.324 286.58 108.066 269.93 110.077 267.291C114.329 266.723 112.786 296.392 109.992 297.817C108.859 298.395 83.7673 298.14 81.4876 297.888C79.3956 295.362 81.9348 294.983 83.5999 294.8L98.3254 294.83C102.988 294.875 108.965 296.813 109.324 290.769Z"/>
	<path fill="#3D70C0" transform="scale(0.195312 0.195312)" d="M208.556 416.318L208.549 356.579C208.551 342.193 209.496 340.138 224.364 340.1L288.718 340.085C302.325 340.09 303.832 341.038 303.826 356.141L303.814 416.318C303.534 419.37 303.542 422.227 303.814 425.277L208.556 425.277C208.691 422.267 208.739 419.326 208.556 416.318Z"/>
	<path fill="#DCE3E8" transform="scale(0.195312 0.195312)" d="M260.027 348.751L294.968 348.751L294.968 353.488L294.968 416.318C283.356 416.31 271.625 415.971 260.027 416.318C260.118 410.477 260.066 404.643 260.027 398.803L260.026 364.947C260.022 359.593 259.654 354.078 260.027 348.751Z"/>
	<defs>
		<linearGradient id="gradient_0" gradientUnits="userSpaceOnUse" x1="277.64206" y1="347.71194" x2="273.55252" y2="398.06018">
			<stop offset="0" stop-color="#9CD7FC"/>
			<stop offset="1" stop-color="#EDF9FD"/>
		</linearGradient>
	</defs>
	<path fill="url(#gradient_0)" transform="scale(0.195312 0.195312)" d="M260.027 348.751L294.968 348.751L294.968 353.488L262.253 353.488C262.258 357.98 261.462 381.163 262.765 383.647L262.764 383.52C263.222 384.942 264.297 389.098 264.814 390.065L266.614 391.943C268.106 391.963 269.594 391.971 271.086 391.943C266.07 394.825 264.192 389.765 260.027 398.803L260.026 364.947C260.022 359.593 259.654 354.078 260.027 348.751Z"/>
	<path fill="#FEFEFE" transform="scale(0.195312 0.195312)" d="M265.462 372.018L272.815 372.018C272.867 376.409 272.712 380.837 272.875 385.22C272.959 387.504 274.548 391.78 271.086 391.943C269.594 391.971 268.106 391.963 266.614 391.943L264.814 390.065C264.359 385.832 264.609 376.087 265.462 372.018Z"/>
	<path fill="#DCE3E8" transform="scale(0.195312 0.195312)" d="M217.737 348.751L251.74 348.751L251.74 370.632L251.74 416.318L221.395 416.318L217.737 416.318L217.737 348.751Z"/>
	<defs>
		<linearGradient id="gradient_1" gradientUnits="userSpaceOnUse" x1="257.9332" y1="364.47672" x2="205.70883" y2="388.25613">
			<stop offset="0" stop-color="#9BD4FC"/>
			<stop offset="1" stop-color="#D2E6FE"/>
		</linearGradient>
	</defs>
	<path fill="url(#gradient_1)" transform="scale(0.195312 0.195312)" d="M217.737 348.751L251.74 348.751L251.74 370.632C251.195 367.001 251.751 357.642 251.74 353.488L220.385 353.488C220.299 356.707 219.963 415.695 220.13 415.935L221.395 416.318L217.737 416.318L217.737 348.751Z"/>
	<path fill="#FEFEFE" transform="scale(0.195312 0.195312)" d="M243.201 372.018C244.623 371.949 246.044 371.993 247.466 372.018C247.282 378.637 247.415 385.32 247.466 391.943L243.991 391.943L239.853 391.943C239.766 385.3 240.039 378.659 239.853 372.018C240.964 372.057 242.088 372.02 243.201 372.018Z"/>
	<path fill="#F77272" transform="scale(0.195312 0.195312)" d="M213.143 111.296C226.002 87.1161 251.817 73.706 277.8 87.598C288.747 93.4513 294.015 100.674 299.703 111.296C315.003 153.119 272.987 191.032 233.925 170.852C212.524 158.484 204.441 134.406 213.143 111.296Z"/>
	<path fill="#DCE3E8" transform="scale(0.195312 0.195312)" d="M248.654 121.829C248.667 116.804 247.718 106.985 250.083 102.861C253.174 97.4714 261.27 98.7521 262.253 104.814C269.835 103.547 267.525 117.621 267.66 121.829C266.129 121.785 264.514 121.636 262.995 121.829C271.872 122.696 282.999 117.92 285.36 129.999C285.327 123.818 293.18 134.006 287.038 139.25C283.156 142.565 272.719 141.487 267.66 141.472C267.681 145.687 268.25 153.657 267.352 157.504C265.415 165.8 254.001 163.953 253.312 159.013L253.514 158.327C247.062 154.668 248.597 147.9 248.654 141.472C247.263 142.694 230.934 142.341 232.18 136.769C229.706 135.479 226.88 132.777 226.843 129.848C226.71 119.118 242.138 121.819 248.654 121.829Z"/>
	<path fill="#F24558" transform="scale(0.195312 0.195312)" d="M285.36 129.999C285.327 123.818 293.18 134.006 287.038 139.25C283.156 142.565 272.719 141.487 267.66 141.472C267.681 145.687 268.25 153.657 267.352 157.504C265.415 165.8 254.001 163.953 253.312 159.013L253.514 158.327C266.08 161.65 263.028 143.628 262.995 136.769C272.664 136.693 280.412 139.98 285.36 129.999Z"/>
	<path fill="#F24558" transform="scale(0.195312 0.195312)" d="M262.253 104.814C269.835 103.547 267.525 117.621 267.66 121.829C266.129 121.785 264.514 121.636 262.995 121.829C263.017 116.309 263.522 110.211 262.253 104.814Z"/>
	<path fill="#F24558" transform="scale(0.195312 0.195312)" d="M232.18 136.769C237.662 136.943 243.168 136.751 248.654 136.769L248.654 141.472C247.263 142.694 230.934 142.341 232.18 136.769Z"/>
	<defs>
		<linearGradient id="gradient_2" gradientUnits="userSpaceOnUse" x1="308.44434" y1="152.64851" x2="241.24834" y2="136.89134">
			<stop offset="0" stop-color="#07C6B5"/>
			<stop offset="1" stop-color="#00ADB9"/>
		</linearGradient>
	</defs>
	<path fill="url(#gradient_2)" transform="scale(0.195312 0.195312)" d="M299.703 111.296C303.205 111.482 306.643 111.441 310.142 111.296C313.479 128.486 314.597 144.153 304.084 159.685C288.392 182.87 258.292 189.261 235.021 173.358C234.347 172.898 233.793 172.428 233.386 171.719L233.441 171.135L233.925 170.852C272.987 191.032 315.003 153.119 299.703 111.296Z"/>
	<path fill="#0CC3BA" transform="scale(0.195312 0.195312)" d="M303.814 416.318C304.647 416.726 335.025 416.355 338.866 416.318L338.866 425.277C342.665 425.272 346.5 425.155 350.296 425.277C344.553 425.642 338.635 425.32 332.876 425.293L303.814 425.277C303.542 422.227 303.534 419.37 303.814 416.318Z"/>
	<path fill="#0CC3BA" transform="scale(0.195312 0.195312)" d="M173.742 416.318C178.042 417.292 203.172 416.433 208.556 416.318C208.739 419.326 208.691 422.267 208.556 425.277L173.742 425.277L173.742 416.318Z"/>
	<path fill="#3784D4" transform="scale(0.195312 0.195312)" d="M282.294 189.604L314.226 189.604L314.226 193.464C315.818 193.408 317.39 193.411 318.983 193.464L318.983 216.523L318.983 227.393L318.983 252.856L318.983 265.235L318.983 288.649L318.983 300.01L319.004 316.221C319.011 318.961 319.221 321.809 318.983 324.535L285.36 324.535C285.274 323.004 285.267 321.527 285.36 319.996L282.294 319.996C280.773 322.762 277.362 320.697 276.987 324.535L254.998 324.546C251.397 324.557 247.568 324.859 243.991 324.535C240.831 324.455 237.682 324.453 234.522 324.535C223.965 324.921 213.065 324.817 202.506 324.535C201.361 323.127 200.526 321.58 199.652 319.996C196.664 319.204 198.234 300.924 198.244 296.95L201.528 296.95L201.528 288.649C198.308 288.767 198.986 286.955 198.244 284.28C197.85 281.856 198.174 278.928 198.198 276.453L198.244 261.611C199.339 261.65 200.432 261.627 201.528 261.611C201.47 258.702 201.806 255.751 201.528 252.856L200.62 252.295C200.202 251.208 200.635 249.831 200.82 248.709C200.012 248.692 199.162 248.791 198.468 248.321C197.698 245.132 198.234 230.343 198.244 225.975L201.528 225.975C201.534 222.843 201.743 219.644 201.528 216.523C199.238 216.201 199.626 214.639 199.652 212.69C196.502 212.282 198.236 193.597 198.244 189.604C208.744 189.981 219.383 189.612 229.896 189.604L229.896 193.464L234.522 193.464C236.638 193.359 238.759 193.428 240.876 193.464L240.876 189.604L272.815 189.604L272.815 193.464L276.987 193.464L282.294 193.464L282.294 189.604Z"/>
	<path fill="#DCE3E8" transform="scale(0.195312 0.195312)" d="M282.294 296.95L314.226 296.95L314.226 300.01C315.809 300.126 317.397 300.051 318.983 300.01L319.004 316.221C319.011 318.961 319.221 321.809 318.983 324.535L285.36 324.535C285.274 323.004 285.267 321.527 285.36 319.996L282.294 319.996C282.106 317.464 282.265 314.808 282.269 312.262L282.294 296.95Z"/>
	<path fill="#1870BF" transform="scale(0.195312 0.195312)" d="M318.983 300.01L319.004 316.221C319.011 318.961 319.221 321.809 318.983 324.535L285.36 324.535C285.274 323.004 285.267 321.527 285.36 319.996L314.226 319.996L314.226 300.01C315.809 300.126 317.397 300.051 318.983 300.01Z"/>
	<path fill="#DCE3E8" transform="scale(0.195312 0.195312)" d="M198.244 296.95L201.528 296.95C210.979 296.95 220.446 296.837 229.896 296.95C229.865 298.284 229.811 299.615 229.896 300.947L234.522 300.947C234.526 308.456 234.994 317.159 234.522 324.535C223.965 324.921 213.065 324.817 202.506 324.535C201.361 323.127 200.526 321.58 199.652 319.996C196.664 319.204 198.234 300.924 198.244 296.95Z"/>
	<path fill="#1870BF" transform="scale(0.195312 0.195312)" d="M229.896 300.947L234.522 300.947C234.526 308.456 234.994 317.159 234.522 324.535C223.965 324.921 213.065 324.817 202.506 324.535C201.361 323.127 200.526 321.58 199.652 319.996L229.896 319.996C229.908 313.647 229.96 307.295 229.896 300.947Z"/>
	<path fill="#DCE3E8" transform="scale(0.195312 0.195312)" d="M282.294 225.975C286.434 225.975 313.004 225.49 314.126 226.281L314.226 227.393C315.858 227.211 317.354 227.259 318.983 227.393L318.983 252.856C308.739 253.069 295.52 253.465 285.36 252.856L285.36 248.709L282.294 248.709L282.294 225.975Z"/>
	<path fill="#1870BF" transform="scale(0.195312 0.195312)" d="M314.226 227.393C315.858 227.211 317.354 227.259 318.983 227.393L318.983 252.856C308.739 253.069 295.52 253.465 285.36 252.856L285.36 248.709L314.226 248.709L314.226 227.393Z"/>
	<path fill="#6BD4FD" transform="scale(0.195312 0.195312)" d="M282.294 261.611L314.226 261.611L314.226 265.235L318.983 265.235L318.983 288.649L285.36 288.649C285.459 287.191 285.401 285.739 285.36 284.28L282.294 284.28L282.294 261.611Z"/>
	<path fill="#1870BF" transform="scale(0.195312 0.195312)" d="M318.983 265.235L318.983 288.649L285.36 288.649C285.459 287.191 285.401 285.739 285.36 284.28L314.226 284.28L314.226 265.235L318.983 265.235Z"/>
	<path fill="#DCE3E8" transform="scale(0.195312 0.195312)" d="M240.876 189.604L272.815 189.604L272.815 193.464L272.815 212.69C263.213 212.48 253.592 212.901 243.991 212.69L240.876 212.69C240.346 208.001 240.724 198.35 240.876 193.464L240.876 189.604Z"/>
	<path fill="#DCE3E8" transform="scale(0.195312 0.195312)" d="M240.876 296.95C244.388 296.703 248.033 296.933 251.561 296.936L272.815 296.95C272.441 301.035 272.494 306.18 272.815 310.276C272.668 313.505 272.815 316.763 272.815 319.996L243.991 319.996L240.876 319.996L240.876 296.95Z"/>
	<path fill="#DCE3E8" transform="scale(0.195312 0.195312)" d="M282.294 189.604L314.226 189.604L314.226 193.464L314.226 212.69C311.191 212.205 307.569 212.66 304.463 212.673L282.294 212.69L282.294 193.464L282.294 189.604Z"/>
	<path fill="#DCE3E8" transform="scale(0.195312 0.195312)" d="M198.244 189.604C208.744 189.981 219.383 189.612 229.896 189.604L229.896 193.464L229.896 212.69L199.652 212.69C196.502 212.282 198.236 193.597 198.244 189.604Z"/>
	<path fill="#6BD4FD" transform="scale(0.195312 0.195312)" d="M201.528 261.611L229.896 261.611L229.896 265.235L229.896 284.28L200.82 284.28L198.244 284.28C197.85 281.856 198.174 278.928 198.198 276.453L198.244 261.611C199.339 261.65 200.432 261.627 201.528 261.611Z"/>
	<path fill="#DCE3E8" transform="scale(0.195312 0.195312)" d="M201.528 225.975L229.896 225.975L229.896 228.809L229.896 248.709L200.82 248.709C200.012 248.692 199.162 248.791 198.468 248.321C197.698 245.132 198.234 230.343 198.244 225.975L201.528 225.975Z"/>
	<path fill="#1870BF" transform="scale(0.195312 0.195312)" d="M229.896 265.235L234.522 265.235L234.548 281.128C234.555 283.587 234.793 286.211 234.522 288.649L201.528 288.649L201.528 288.649C198.308 288.767 198.986 286.955 198.244 284.28L200.82 284.28L229.896 284.28L229.896 265.235Z"/>
	<path fill="#009CB9" transform="scale(0.195312 0.195312)" d="M198.244 284.28L200.82 284.28C200.85 285.754 201.19 287.217 201.528 288.649L201.528 288.649C198.308 288.767 198.986 286.955 198.244 284.28Z"/>
	<path fill="#1870BF" transform="scale(0.195312 0.195312)" d="M272.815 300.01L276.987 300.01C276.983 308.167 276.76 316.385 276.987 324.535L254.998 324.546C251.397 324.557 247.568 324.859 243.991 324.535C244.063 323.007 244.124 321.523 243.991 319.996L272.815 319.996C272.815 316.763 272.668 313.505 272.815 310.276C273.058 306.873 272.796 303.422 272.815 300.01Z"/>
	<path fill="#1870BF" transform="scale(0.195312 0.195312)" d="M229.896 228.809C231.438 228.829 232.981 228.869 234.522 228.809L234.548 243.109C234.574 246.36 234.73 249.609 234.522 252.856L212.417 252.835C208.871 252.821 205.047 252.528 201.528 252.856L200.62 252.295C200.202 251.208 200.635 249.831 200.82 248.709L229.896 248.709L229.896 228.809Z"/>
	<path fill="#1870BF" transform="scale(0.195312 0.195312)" d="M229.896 193.464L234.522 193.464L234.522 216.523L210.626 216.503C207.911 216.499 204.089 216.033 201.528 216.523C199.238 216.201 199.626 214.639 199.652 212.69L229.896 212.69L229.896 193.464Z"/>
	<path fill="#1870BF" transform="scale(0.195312 0.195312)" d="M314.226 193.464C315.818 193.408 317.39 193.411 318.983 193.464L318.983 216.523C308.779 215.643 295.963 216.761 285.36 216.523L285.36 212.69L304.128 212.706C307.456 212.721 310.921 212.994 314.226 212.69L314.226 193.464Z"/>
	<path fill="#1870BF" transform="scale(0.195312 0.195312)" d="M272.815 193.464L276.987 193.464C276.476 201.039 276.999 208.915 276.987 216.523L255.462 216.538C251.681 216.546 247.759 216.763 243.991 216.523L243.991 212.69C253.592 212.901 263.213 212.48 272.815 212.69L272.815 193.464Z"/>
	<path fill="#DCE3E8" transform="scale(0.195312 0.195312)" d="M240.876 225.975L264.757 225.976C267.17 225.973 270.577 225.505 272.824 225.936L272.815 227.393C274.222 227.464 275.58 227.53 276.987 227.393L276.987 252.856L255.038 252.871C251.373 252.875 247.646 253.059 243.991 252.856C243.976 251.481 243.902 250.08 243.991 248.709L240.876 248.709L240.876 225.975Z"/>
	<path fill="#1870BF" transform="scale(0.195312 0.195312)" d="M272.815 227.393C274.222 227.464 275.58 227.53 276.987 227.393L276.987 252.856L255.038 252.871C251.373 252.875 247.646 253.059 243.991 252.856C243.976 251.481 243.902 250.08 243.991 248.709L272.815 248.709L272.815 227.393Z"/>
	<path fill="#6BD4FD" transform="scale(0.195312 0.195312)" d="M240.876 261.611C250.615 261.418 263.027 261.056 272.658 261.656C273.005 262.333 272.855 262.894 272.815 263.645C274.196 263.666 275.609 263.75 276.987 263.645C276.787 271.965 276.995 280.324 276.987 288.649L254.72 288.665C251.196 288.669 247.491 288.949 243.991 288.649C243.987 287.203 243.915 285.722 243.991 284.28L240.876 284.28L240.876 261.611Z"/>
	<path fill="#1870BF" transform="scale(0.195312 0.195312)" d="M272.815 263.645C274.196 263.666 275.609 263.75 276.987 263.645C276.787 271.965 276.995 280.324 276.987 288.649L254.72 288.665C251.196 288.669 247.491 288.949 243.991 288.649C243.987 287.203 243.915 285.722 243.991 284.28L272.815 284.28L272.815 263.645Z"/>
</svg>
