<?xml version="1.0" encoding="utf-8" ?>
<svg xmlns="http://www.w3.org/2000/svg" xmlns:xlink="http://www.w3.org/1999/xlink" width="100" height="100">
	<path fill="#F8C685" transform="matrix(0.195313 0 0 0.195313 0.00012207 3.05176e-05)" d="M102.759 345.354L118.238 345.354L118.226 371.052C118.227 380.55 116.687 391.356 124.031 398.745C133.039 407.808 150.827 405.045 162.536 405.046L369.903 405.065C392.938 404.954 393.269 387.941 393.213 370.039L393.162 351.272C393.147 349.321 392.999 347.292 393.198 345.354C398.496 345.416 403.797 345.366 409.096 345.354L409.103 369.6C409.114 384.163 409.837 397.547 398.81 408.767C390.69 417.029 381.567 420.146 370.191 420.253L158.168 420.26C136.238 420.274 111.592 422.333 104.174 394.443C102.075 386.551 102.752 377.746 102.751 369.62L102.759 345.354Z"/>
	<path fill="#D9D9DD" transform="matrix(0.195313 0 0 0.195313 0.00012207 3.05176e-05)" d="M118.238 345.354L243.797 345.357C247.857 345.36 253.394 344.903 257.32 345.354L277.851 345.354L289.699 345.354L298.486 345.354L309.946 345.354L326.755 345.354L327.494 345.354C334.676 344.913 342.136 345.347 349.341 345.356L393.198 345.354C392.999 347.292 393.147 349.321 393.162 351.272L393.213 370.039C393.269 387.941 392.938 404.954 369.903 405.065L162.536 405.046C150.827 405.045 133.039 407.808 124.031 398.745C116.687 391.356 118.227 380.55 118.226 371.052L118.238 345.354Z"/>
	<path fill="#FEFEFE" transform="matrix(0.195313 0 0 0.195313 0.00012207 3.05176e-05)" d="M218.256 345.354C222.367 345.525 226.522 345.386 230.637 345.354C230.72 352.156 230.639 358.97 230.637 365.773L218.256 365.773L218.256 345.354Z"/>
	<path fill="#FEFEFE" transform="matrix(0.195313 0 0 0.195313 0.00012207 3.05176e-05)" d="M174.998 345.354C179.49 345.37 183.985 345.417 188.477 345.354C188.493 352.151 188.261 358.981 188.477 365.773C183.983 365.75 179.491 365.935 174.998 365.773L174.998 345.354Z"/>
	<path fill="#FEFEFE" transform="matrix(0.195313 0 0 0.195313 0.00012207 3.05176e-05)" d="M298.486 345.354L309.946 345.354L326.755 345.354L327.494 345.354C330.784 345.833 337.29 345.367 340.857 345.354C340.259 350.923 339.159 356.944 335.138 361.133C322.726 374.063 298.806 365.865 298.486 345.354Z"/>
	<path fill="#D9D9DD" transform="matrix(0.195313 0 0 0.195313 0.00012207 3.05176e-05)" d="M309.946 345.354L326.755 345.354C326.47 348.489 326.577 352.2 324.472 354.782C319.229 361.213 310.404 354.338 309.946 345.354Z"/>
	<path fill="#FEFEFE" transform="matrix(0.195313 0 0 0.195313 0.00012207 3.05176e-05)" d="M257.32 345.354L277.851 345.354L289.699 345.354C288.172 370.836 249.789 378.324 245.953 345.354C249.614 345.312 253.727 345.871 257.32 345.354Z"/>
	<path fill="#D9D9DD" transform="matrix(0.195313 0 0 0.195313 0.00012207 3.05176e-05)" d="M257.32 345.354L277.851 345.354C276.849 359.531 260.941 361.959 257.32 345.354Z"/>
	<path fill="#D9D9DD" transform="matrix(0.195313 0 0 0.195313 0.00012207 3.05176e-05)" d="M103.261 188.241L103.255 141.194C103.249 133.158 102.525 120.03 104.086 112.643C109.461 87.2016 131.326 88.1269 150.829 88.1253L329.715 88.1224C341.264 87.7765 345.073 94.6755 352.296 101.954L393.889 143.721C399.02 148.757 407.263 154.797 407.983 162.517C407.643 171.074 408.281 179.682 407.983 188.241L393.198 188.241L118.238 188.241L103.261 188.241Z"/>
	<path fill="#F8C685" transform="matrix(0.195313 0 0 0.195313 0.00012207 3.05176e-05)" d="M389.907 162.517C394.849 162.456 403.412 163.186 407.983 162.517C407.643 171.074 408.281 179.682 407.983 188.241L393.198 188.241L393.187 172.86C393.16 169.413 392.976 165.959 393.198 162.517C392.101 162.534 391.004 162.52 389.907 162.517Z"/>
	<path fill="#F0A446" transform="matrix(0.195313 0 0 0.195313 0.00012207 3.05176e-05)" d="M329.715 88.1224C341.264 87.7765 345.073 94.6755 352.296 101.954L393.889 143.721C399.02 148.757 407.263 154.797 407.983 162.517C403.412 163.186 394.849 162.456 389.907 162.517L369.714 162.534C340.353 162.543 329.69 155.932 329.698 125.487L329.715 107.319C330.188 101.01 329.463 94.4746 329.715 88.1224Z"/>
	<path fill="#F8C685" transform="matrix(0.195313 0 0 0.195313 0.00012207 3.05176e-05)" d="M103.261 188.241L103.255 141.194C103.249 133.158 102.525 120.03 104.086 112.643C109.461 87.2016 131.326 88.1269 150.829 88.1253L329.715 88.1224C329.463 94.4746 330.188 101.01 329.715 107.319C329.607 105.718 329.655 104.144 329.715 102.541L160.544 102.538C147.345 102.541 122.266 98.5417 118.747 115.844C118.003 119.5 118.223 123.482 118.225 127.203L118.235 187.989L118.238 188.241L103.261 188.241Z"/>
	<path fill="#396FB7" transform="matrix(0.195313 0 0 0.195313 0.00012207 3.05176e-05)" d="M393.198 188.241L407.983 188.241C438.739 188.524 446.636 189.947 446.608 222.551L446.607 297.275C446.614 306.07 446.766 314.887 446.627 323.679C446.366 340.133 435.024 345.382 420.367 345.374L409.096 345.354C403.797 345.366 398.496 345.416 393.198 345.354L349.341 345.356C342.136 345.347 334.676 344.913 327.494 345.354L326.755 345.354L309.946 345.354L298.486 345.354L289.699 345.354L277.851 345.354L257.32 345.354C253.394 344.903 247.857 345.36 243.797 345.357L118.238 345.354L102.759 345.354L92.4833 345.362C78.2632 345.352 66.3502 340.661 66.2215 324.386L66.2249 219.909C66.1582 190.183 76.1147 188.209 103.261 188.241L118.238 188.241L393.198 188.241Z"/>
	<path fill="#FEFEFE" transform="matrix(0.195313 0 0 0.195313 0.00012207 3.05176e-05)" d="M332.246 225.079L335.404 225.079L335.404 303.748L326.755 303.748L326.755 278.125L326.755 241.195C324.428 243.394 315.185 251.201 312.352 251.869C309.316 252.585 307.316 248.021 309.254 245.815C311.238 243.557 314.349 241.901 316.753 240.088C321.466 236.533 329.839 225.416 332.246 225.079Z"/>
	<path fill="#FEFEFE" transform="matrix(0.195313 0 0 0.195313 0.00012207 3.05176e-05)" d="M122.453 223.038C126.902 222.705 131.364 224.192 133.016 228.75C133.969 231.377 134.119 286.194 133.573 295.484C133.307 300.013 131.38 302.827 126.884 304.242C112.3 305.343 115.273 291.74 115.277 281.966L115.279 242.756C115.284 235.488 113.398 225.382 122.453 223.038Z"/>
	<path fill="#FEFEFE" transform="matrix(0.195313 0 0 0.195313 0.00012207 3.05176e-05)" d="M176.41 223.038C186.547 218.842 211.041 229.316 210.751 243.848C210.653 248.732 207.203 252.451 202.174 251.949C197.107 251.442 195.429 245.627 192.559 242.253C187.391 236.179 176.434 235.329 170.452 240.712C160.869 249.335 159.224 289.589 179.994 290.276C192.072 290.676 191.446 283.431 197.357 278.125C205.708 269.029 218.76 282.297 204.133 296.69C191.79 308.837 166.804 307.681 154.977 295.418C137.189 276.974 142.417 222.261 176.41 223.038Z"/>
	<path fill="#FEFEFE" transform="matrix(0.195313 0 0 0.195313 0.00012207 3.05176e-05)" d="M372.363 225.079C384.202 220.957 395.699 233.146 397.781 244.476C398.671 249.323 398.666 280.079 397.797 285.014C395.966 295.416 388.328 301.991 378.034 303.748C353.321 304.946 351.246 289.012 351.223 269.031L351.229 251.794C351.34 238.626 357.328 224.879 372.363 225.079Z"/>
	<path fill="#396FB7" transform="matrix(0.195313 0 0 0.195313 0.00012207 3.05176e-05)" d="M373.858 232.336C392.572 231.388 389.9 252.358 389.904 264.231C389.908 276.44 393.031 293.409 376.751 296.244C357.646 296.647 359.734 280.391 359.716 266.353C359.7 254.038 356.374 234.028 373.858 232.336Z"/>
	<path fill="#FEFEFE" transform="matrix(0.195313 0 0 0.195313 0.00012207 3.05176e-05)" d="M232.426 223.038C250.029 223.019 271.687 219.802 283.368 236.317C294.165 251.582 292.675 285.907 275.399 297.941C264.796 304.566 254.126 303.665 242.125 303.75C223.531 303.881 223.284 304.02 223.269 286.788L223.266 246.404C223.265 237.33 220.542 224.015 232.426 223.038Z"/>
	<path fill="#396FB7" transform="matrix(0.195313 0 0 0.195313 0.00012207 3.05176e-05)" d="M241.176 237.702C265.154 237.604 272.175 238.007 272.032 264.742C271.994 271.809 271.815 279.033 266.909 284.616C260.333 290.741 249.504 289.481 241.176 289.464L241.176 237.702Z"/>
</svg>
