<?xml version="1.0" encoding="utf-8" ?>
<svg xmlns="http://www.w3.org/2000/svg" xmlns:xlink="http://www.w3.org/1999/xlink" width="100" height="100">
	<path fill="#5760FB" transform="scale(0.195312 0.195312)" d="M286.68 350.866L379.204 350.849C383.397 350.846 387.814 350.602 391.978 351.091C398.974 351.914 400.509 362.709 389.263 362.071L293.954 362.074C290.484 362.078 286.857 362.375 283.404 362.086C277.925 361.627 273.549 351.252 286.68 350.866Z"/>
	<path fill="#5760FB" transform="scale(0.195312 0.195312)" d="M282.241 226.792L378.119 226.781C382.964 226.776 395.636 224.633 396.758 231.377C397.459 235.589 395.161 237.637 391.184 238.011C387.268 238.383 382.96 238.014 379.005 238.013L305.408 238.009C300.798 238.009 282.464 239.155 279.133 237.242C274.024 234.309 276.964 227.739 282.241 226.792Z"/>
	<path fill="#5760FB" transform="scale(0.195312 0.195312)" d="M283.828 250.147L378.273 250.141C382.031 250.133 391.406 248.986 394.556 251.196C399.852 254.911 396.899 261.07 390.364 261.372L295.209 261.377C291.321 261.387 282.293 262.549 279.035 260.191C274.77 257.103 275.959 250.295 283.828 250.147Z"/>
	<path fill="#3C47B3" transform="scale(0.195312 0.195312)" d="M372.258 280.181C382.784 280.197 397.915 276.535 398.358 291.743C398.566 298.883 398.361 306.068 398.38 313.213C398.435 333.35 400.903 338.129 380.547 338.086L302.013 338.066C291.344 338.089 275.657 341.812 275.494 327.009C275.408 319.197 275.548 311.376 275.517 303.562C275.438 283.87 273.252 280.118 293.014 280.16L372.258 280.181Z"/>
	<path fill="#9CE4EE" transform="scale(0.195312 0.195312)" d="M286.68 290.98L387.229 290.98L387.229 327.238L379.123 327.238C378.974 321.564 375.959 312.04 369.467 318.696C367.449 320.765 367.89 324.555 367.869 327.238L360.099 327.238C360.1 319.954 362.974 308.542 355.918 305.382C346.154 304.597 349.227 320.972 349.258 327.238L342.034 327.238C342.079 320.996 338.444 312.213 332.447 318.476C330.457 320.555 330.982 324.568 331.006 327.238L323.965 327.238L323.965 309.092C320.697 304.247 316.643 304.607 313.368 309.092C313.232 315.132 313.354 321.196 313.368 327.238C310.873 327.09 308.442 327.116 305.945 327.238C305.974 324.622 306.509 320.942 304.512 318.908C298.067 312.34 294.922 320.985 294.993 327.238L286.68 327.238L286.68 290.98Z"/>
	<path fill="#3C47B3" transform="scale(0.195312 0.195312)" d="M301.171 80.1867C305.099 81.2682 309.292 84.3461 312.869 86.3824L327.161 94.43C332.387 97.3803 348.592 105.081 350.752 109.54L350.766 162.457C350.767 164.738 351.599 168.905 349.861 170.653C347.69 172.837 304.34 198.866 300.256 199.777C296.319 198.541 252.623 173.056 249.794 169.863C248.601 166.464 249.23 152.321 249.238 148.009C249.457 139.518 249.244 130.959 249.214 122.462C249.155 105.817 248.563 110.159 263.765 100.92L268.467 98.1869C276.403 94.1461 293.616 81.8431 301.171 80.1867Z"/>
	<path fill="#9CE4EE" transform="scale(0.195312 0.195312)" d="M300.042 92.705C301.741 92.6272 335.352 112.013 339.545 114.413C339.953 130.884 339.55 147.466 339.545 163.948C332.191 168.48 307.196 184.768 300.042 187.12C296.946 185.824 294.002 183.707 291.095 182.005L272.197 170.835C268.346 168.515 264.536 165.894 260.488 163.948L260.488 116.268C273.141 108.102 287.097 100.92 300.042 92.705Z"/>
	<path fill="#3C47B3" transform="scale(0.195312 0.195312)" d="M300.042 109.54C305.462 109.828 306.066 114.248 305.945 118.761C307.988 119.438 309.884 120.425 311.803 121.386C318.315 114.167 328.331 121.414 319.508 128.786C320.346 130.65 321.031 132.591 321.758 134.5C334.691 133.957 335.237 146.997 321.758 145.428C321.196 147.7 320.299 149.913 319.508 152.115C326.379 160.757 318.04 166.894 310.987 159.364C309.283 160.103 307.618 160.937 305.945 161.743C305.836 166.11 305.864 169.567 301.171 171.184C294.931 171.696 294.346 166.596 294.993 161.743C292.981 161.193 291.135 160.287 289.275 159.364C284.564 167.776 273.416 160.051 281.152 152.115C279.949 149.942 278.993 147.819 278.301 145.428C265.142 145.697 266.524 133.195 278.301 134.5C278.856 132.174 279.713 130.685 281.152 128.786C273.842 122.369 281.709 113.827 289.275 121.386C291.156 120.19 292.855 119.383 294.993 118.761C294.14 113.68 294.661 111.015 300.042 109.54Z"/>
	<path fill="#FEFEFE" transform="scale(0.195312 0.195312)" d="M298.745 128.786C312.581 127.545 316.108 147.147 302.013 150.725C288.002 152.493 283.002 133.484 298.745 128.786Z"/>
	<path fill="#D9E3F0" transform="scale(0.195312 0.195312)" d="M76.412 200.772C69.0523 199.037 79.1343 164.816 81.4927 159.195C99.0583 117.334 134.305 94.8777 176.619 83.2712C214.861 72.7817 231.029 81.4599 263.765 95.3793C265.352 96.2746 266.978 97.1344 268.467 98.1869L263.765 100.92C248.563 110.159 249.155 105.817 249.214 122.462C249.244 130.959 249.457 139.518 249.238 148.009C248.487 142.415 233.219 149.264 228.49 145.428C237.06 132.395 213.007 135.276 207.026 135.307C172.842 135.481 167.271 135.999 167.305 170.275L167.358 198.092C167.368 201.134 167.691 204.568 167.332 207.575C163.651 207.848 160.12 207.875 156.434 207.575C154.679 207.246 144.164 199.354 142.28 197.481C144.915 195.156 145.473 192.748 143.864 189.515C141.792 187.397 123.413 174.181 121.247 173.16L121.261 142.506C121.262 138.426 121.736 132.297 121.106 128.514C120.112 122.545 111.029 122.659 110.153 128.566C109.473 133.143 109.972 138.448 109.974 143.096L109.979 173.16C103.188 177.582 80.59 195.533 76.412 200.772ZM263.765 95.3793C264.905 97.5391 263.466 98.7315 263.765 100.92L268.467 98.1869C266.978 97.1344 265.352 96.2746 263.765 95.3793Z"/>
	<path fill="#FEFEFE" transform="scale(0.195312 0.195312)" d="M143.864 189.515C147.917 189.624 160.85 203.333 166.483 206.102L166.907 205.989L167.077 205.14C167.155 205.948 167.205 206.774 167.332 207.575C163.651 207.848 160.12 207.875 156.434 207.575C154.679 207.246 144.164 199.354 142.28 197.481C144.915 195.156 145.473 192.748 143.864 189.515Z"/>
	<path fill="#9CE4EE" transform="scale(0.195312 0.195312)" d="M109.979 173.16L109.974 143.096C109.972 138.448 109.473 133.143 110.153 128.566C111.029 122.659 120.112 122.545 121.106 128.514C121.736 132.297 121.262 138.426 121.261 142.506L121.247 173.16C123.413 174.181 141.792 187.397 143.864 189.515C145.473 192.748 144.915 195.156 142.28 197.481C144.164 199.354 154.679 207.246 156.434 207.575C136.825 208.505 134.458 222.406 134.566 238.681C134.674 254.963 132.957 257.355 150.544 257.151L150.544 274.434C137.963 275.615 138.35 287.798 138.356 296.947L138.372 361.772C138.371 364.691 138.83 373.963 138.377 376.188L138.199 375.719C136.69 375.182 127.406 375.528 124.977 375.517C123.249 382.816 111.343 380.349 105.792 380.338L105.777 402.637C105.774 406.273 105.385 410.395 105.99 413.952C106.841 418.959 118.712 413.363 119.131 421.86C119.538 430.13 103.893 427.454 99.3861 422.944C93.3348 416.889 94.8709 407.845 94.8702 400.046L94.8817 380.338C69.5133 374.286 72.6 353.669 72.5967 333.887L72.5859 220.786C72.5774 213.686 71.9344 206.805 76.412 200.772C80.59 195.533 103.188 177.582 109.979 173.16Z"/>
	<path fill="#3C47B3" transform="scale(0.195312 0.195312)" d="M109.979 173.16L109.974 143.096C109.972 138.448 109.473 133.143 110.153 128.566C111.029 122.659 120.112 122.545 121.106 128.514C121.736 132.297 121.262 138.426 121.261 142.506L121.247 173.16C123.413 174.181 141.792 187.397 143.864 189.515C145.473 192.748 144.915 195.156 142.28 197.481C135.557 199.491 122.454 186.686 115.604 182.723C109.505 187.329 89.3711 202.206 85.1691 207.633C82.321 211.311 83.7536 218.268 83.707 222.563L102.34 222.537C105.568 222.533 112.337 221.437 114.925 223.884C118.394 227.166 116.251 232.322 111.885 233.039C108.708 233.561 105.167 233.269 101.947 233.267L83.707 233.24C83.6982 241.417 83.2915 249.803 83.707 257.953L101.974 257.936C105.447 257.936 112.637 256.827 115.315 259.671C118.386 262.93 116.006 267.822 111.978 268.527C108.869 269.072 105.319 268.758 102.161 268.755L83.707 268.725L83.707 293.543L102.778 293.51C107.932 293.494 117.154 291.869 116.878 299.921C116.668 306.045 105.467 304.554 101.64 304.53L83.707 304.532L83.707 330.256L102.879 330.239C106.102 330.231 109.645 329.882 112.816 330.412C117.046 331.118 118.328 336.678 115.13 339.478C112.313 341.945 106.672 340.873 103.245 340.88L83.707 340.877L83.6833 349.982C83.6668 375.438 103.131 369.127 121.247 369.802C123.695 371.249 124.568 372.818 124.977 375.517C123.249 382.816 111.343 380.349 105.792 380.338L105.777 402.637C105.774 406.273 105.385 410.395 105.99 413.952C106.841 418.959 118.712 413.363 119.131 421.86C119.538 430.13 103.893 427.454 99.3861 422.944C93.3348 416.889 94.8709 407.845 94.8702 400.046L94.8817 380.338C69.5133 374.286 72.6 353.669 72.5967 333.887L72.5859 220.786C72.5774 213.686 71.9344 206.805 76.412 200.772C80.59 195.533 103.188 177.582 109.979 173.16Z"/>
	<path fill="#3C47B3" transform="scale(0.195312 0.195312)" d="M251.505 386.515L403.173 386.523C424.432 386.529 428.632 391.02 428.537 366.979L428.543 171.363C428.54 151.543 432.475 146.195 411.627 146.233L387.818 146.264C384.075 146.269 377.325 147.281 373.909 145.703C368.979 143.426 370.178 135.457 377.361 135.277C387.094 135.034 420.683 134.377 427.002 136.52C435.801 139.505 439.565 149.108 439.698 157.647C439.966 174.82 439.717 192.031 439.713 209.21L439.72 371.232C439.716 387.136 435.808 397.639 417.827 397.732L266.78 397.723C270.078 402.271 268.246 406.26 266.923 411.149C263.073 425.381 259.953 427.516 245.074 427.343L151.078 427.309C142.683 427.321 134.031 429.422 128.912 420.94C126.414 416.803 123.614 406.207 124.868 401.613C126.657 395.055 132.648 394.608 138.377 394.757L138.377 376.188C138.83 373.963 138.371 364.691 138.372 361.772L138.356 296.947C138.35 287.798 137.963 275.615 150.544 274.434L150.544 257.151C132.957 257.355 134.674 254.963 134.566 238.681C134.458 222.406 136.825 208.505 156.434 207.575C160.12 207.875 163.651 207.848 167.332 207.575C167.691 204.568 167.368 201.134 167.358 198.092L167.305 170.275C167.271 135.999 172.842 135.481 207.026 135.307C213.007 135.276 237.06 132.395 228.49 145.428C225.295 147.36 220.269 146.289 216.736 146.266L196.902 146.228C173.878 146.241 178.287 154.508 178.292 173.884L178.287 207.575C191.759 207.725 205.248 207.568 218.722 207.567C229.476 207.566 242.003 205.504 250.274 214.044C257.577 221.586 256.081 238.272 255.861 248.787C255.669 257.931 246.369 257.252 239.47 257.151L239.47 274.434C254.818 278.249 251.528 291.239 251.518 303.443L251.509 369.918C251.511 375.371 251.891 381.094 251.505 386.515ZM135.781 405.779C137.666 418.283 137.188 416.847 148.494 416.798L232.773 416.799C237.738 416.803 251.538 418.613 254.089 414.709C255.417 411.879 256.035 408.806 256.75 405.779L135.781 405.779Z"/>
	<path fill="#FEFEFE" transform="scale(0.195312 0.195312)" d="M198.593 257.151L228.49 257.151C228.115 262.85 228.477 268.71 228.49 274.434L192.376 274.434L161.92 274.434C161.796 268.682 161.906 262.905 161.92 257.151L198.593 257.151Z"/>
	<path fill="#5499FB" transform="scale(0.195312 0.195312)" d="M221.543 218.7C229.252 218.732 241.862 216.146 244.454 225.695C245.66 230.138 245.023 241.057 245.008 246.234L169.177 246.234L145.73 246.234C145.777 228.961 140.834 218.641 161.834 218.682L221.543 218.7Z"/>
	<path fill="#FEFEFE" transform="scale(0.195312 0.195312)" d="M152.677 285.011C158.168 284.805 163.727 284.998 169.227 285.001L223.592 285C244.493 285.004 240.382 283.183 240.322 304.532C235.854 304.541 220.588 303.368 217.957 305.728C215.909 307.564 215.68 311.549 217.68 313.495C220.285 316.031 224.649 315.347 227.934 315.335L240.322 315.287L240.322 335.567C235.767 335.586 225.308 334.931 221.416 335.749C217.138 336.648 214.543 341.588 218.117 345.065C220.848 347.723 225.366 347.062 228.82 347.051L240.322 347.005L240.322 367.196L234.83 367.196C230.838 367.199 220.813 366.129 217.966 368.8C214.396 372.15 217.385 377.309 221.467 378.221C225.126 379.038 235.927 378.497 240.322 378.478L240.322 394.757L149.274 394.757L149.28 325.022C149.28 317.854 146.123 287.038 152.677 285.011Z"/>
</svg>
