<?xml version="1.0" encoding="utf-8" ?>
<svg xmlns="http://www.w3.org/2000/svg" xmlns:xlink="http://www.w3.org/1999/xlink" width="100" height="100">
	<path fill="#F6CB57" transform="scale(0.195312 0.195312)" d="M138.001 190.263C81.0741 194.026 47.3421 133.325 80.5867 88.7308C91.1399 74.575 107.272 66.7532 124.41 64.1891C140.695 63.935 154.367 65.4791 167.888 75.6441C213.926 110.255 197.276 182.172 138.001 190.263ZM126.322 76.5129C98.5202 80.1955 77.3436 104.84 81.0359 133.048C84.6228 160.451 108.254 179.67 135.812 177.483C149.982 175.6 162.278 170.128 171.114 158.491C198.417 122.537 168.068 71.3048 126.322 76.5129Z"/>
	<defs>
		<linearGradient id="gradient_0" gradientUnits="userSpaceOnUse" x1="244.94543" y1="141.8533" x2="238.73932" y2="66.239563">
			<stop offset="0" stop-color="#57B7EA"/>
			<stop offset="1" stop-color="#50CCE7"/>
		</linearGradient>
	</defs>
	<path fill="url(#gradient_0)" transform="scale(0.195312 0.195312)" d="M241.517 80.8835C241.498 74.7965 239.958 66.0905 248.133 65.0907C254.323 65.3436 258.82 72.785 262.829 76.81C269.416 83.4227 287.127 97.2 286.72 106.083L286.572 106.314C283.188 111.71 259.165 134.097 253.786 139.336C247.182 145.77 240.658 140.833 241.517 132.299C233.561 132.967 219.344 136.204 212.346 135.882C205.627 135.573 203.55 125.223 210.198 122.831C213.432 121.667 226.561 120.21 230.473 120.046C237.173 118.918 247.436 115.475 253.327 120.046C258.851 114.904 263.949 109.309 269.756 104.479C265.533 98.263 259.027 93.961 254.56 87.9615C250.074 95.6527 244.752 94.0041 236.37 95.8326C229.807 97.2642 223.225 98.5399 216.652 99.9166C207.606 101.812 199.129 106.806 196.164 95.742C198.261 86.6477 208.997 87.4244 217.307 85.7189C225.341 84.0702 233.41 82.116 241.517 80.8835Z"/>
	<defs>
		<linearGradient id="gradient_1" gradientUnits="userSpaceOnUse" x1="327.70496" y1="274.24976" x2="400.74396" y2="115.62505">
			<stop offset="0" stop-color="#6C8CEF"/>
			<stop offset="1" stop-color="#4ED0E9"/>
		</linearGradient>
	</defs>
	<path fill="url(#gradient_1)" transform="scale(0.195312 0.195312)" d="M385.256 125.944C377.987 125.403 368.428 126.165 360.969 126.469C348.462 126.978 348.456 126.578 338.901 119.617C329.84 113.017 319.422 107.664 308.913 103.864C304.478 102.26 294.878 101.165 293.119 95.9701C291.745 91.9142 293.711 87.7246 297.861 86.5551C307.082 86.2289 332.923 99.3382 341.138 104.431C345.179 106.936 348.933 110.641 353.192 112.648C362.966 112.955 374.184 112.11 384.293 112.042C392.18 111.988 398.732 109.92 398.535 120.232C398.377 128.463 398.511 136.711 398.482 144.945C398.432 159.381 396.543 154.488 403.616 166.086C419.179 191.604 427.746 218.116 429.497 248.137C436.558 248.602 456.162 244.406 454.854 256.656C454.165 263.102 434.332 277.296 429.738 283.343C426.199 288 427.218 305.568 421.731 309.662C419.122 311.607 414.489 310.925 412.726 308.136C410.579 304.738 412.522 299.351 413.302 295.683C411.283 295.425 409.997 295.04 408.281 293.859C402.484 288.933 396.891 283.785 390.994 278.966C391.012 283.567 392.121 295.394 388.888 298.557C385.277 302.09 378.175 299.694 377.39 294.699C376.14 286.74 376.756 263.408 377.117 254.889C377.426 247.623 388.396 249.904 393.302 249.797C400.915 249.632 408.477 249.124 416.094 249.505C414.765 223.112 406.961 195.513 392.129 173.615C384.185 161.887 385.228 164.155 385.235 150.054L385.256 125.944ZM431.003 261.869C418.46 261.438 405.852 263.405 393.332 262.464C395.986 266.013 400.361 270.12 404.154 272.477C406.764 275.36 410.066 278.661 413.302 280.827C415.727 278.39 433.085 262.789 433.327 261.684C432.52 261.653 431.799 261.741 431.003 261.869Z"/>
	<path fill="#E362B0" transform="scale(0.195312 0.195312)" d="M144.734 150.375C132.094 163.065 133.031 165.221 119.867 152.174L108.877 141.255C105.1 137.475 100.468 133.767 97.4021 129.409C88.6921 117.029 98.1699 99.9652 113.308 98.0948C120.224 97.2546 126.145 99.6501 131.132 104.479C143.754 91.0687 167.505 100.071 167.566 118.913C167.598 128.983 161.82 133.459 155.176 139.978L144.734 150.375ZM114.05 110.29C107.922 111.875 104.258 118.377 108.414 123.635C114.513 131.351 124.252 138.853 131.132 146.747C135.605 142.172 140.096 137.472 144.734 133.07C148.025 129.704 155.508 123.937 155.347 119.036C155.171 113.691 150.766 109.795 145.496 110.141C138.145 110.624 134.527 124.59 127.833 118.902C122.773 114.603 121.856 109.94 114.05 110.29Z"/>
	<path fill="#F4C2C3" transform="scale(0.195312 0.195312)" d="M131.132 146.747C124.252 138.853 114.513 131.351 108.414 123.635C104.258 118.377 107.922 111.875 114.05 110.29C121.856 109.94 122.773 114.603 127.833 118.902C134.527 124.59 138.145 110.624 145.496 110.141C150.766 109.795 155.171 113.691 155.347 119.036C155.508 123.937 148.025 129.704 144.734 133.07C140.096 137.472 135.605 142.172 131.132 146.747Z"/>
	<path fill="#54C6E7" transform="scale(0.195312 0.195312)" d="M350.688 198.558C340.507 198.556 343.33 195.562 338.839 187.91C328.317 169.976 313.283 180.058 313.078 166.401C312.977 159.679 313.077 152.94 313.078 146.216C313.082 124.65 316.264 129.512 337.468 129.553L357.381 129.537C364.802 129.535 374.407 127.175 374.831 136.759C375.525 152.471 374.616 168.211 374.937 183.931C375.211 197.298 376.214 198.734 362.542 198.594L350.688 198.558ZM326.301 143.445C326.289 149.941 326.191 156.451 326.301 162.945C339.437 165.588 347.23 174.608 353.192 185.751C355.962 185.747 358.743 185.693 361.512 185.751L361.512 143.445L326.301 143.445Z"/>
	<path fill="#94F0E4" transform="scale(0.195312 0.195312)" d="M326.301 162.945C326.191 156.451 326.289 149.941 326.301 143.445L361.512 143.445L361.512 185.751C358.743 185.693 355.962 185.747 353.192 185.751C347.23 174.608 339.437 165.588 326.301 162.945Z"/>
	<defs>
		<linearGradient id="gradient_2" gradientUnits="userSpaceOnUse" x1="273.78256" y1="340.08224" x2="237.55138" y2="171.06053">
			<stop offset="0" stop-color="#6B85F1"/>
			<stop offset="1" stop-color="#59B8EB"/>
		</linearGradient>
	</defs>
	<path fill="url(#gradient_2)" transform="scale(0.195312 0.195312)" d="M257.632 342.504L256.784 342.512C233.686 342.668 211.309 334.071 194.768 317.636C140.687 263.902 179.41 169.223 253.327 169.112C274.186 166.288 300.413 177.709 315.085 192.048C371.585 247.265 333.337 342.167 257.632 342.504ZM253.327 181.98C212.759 183.312 180.71 218.615 182.285 259.005C183.895 300.321 217.699 330.06 258.407 329.491C300.707 326.953 331.759 292.761 329.183 250.201C326.944 213.192 292.227 179.256 254.444 181.892L253.327 181.98Z"/>
	<path fill="#54C6E7" transform="scale(0.195312 0.195312)" d="M120.683 235.974L120.027 236.046C113.684 230.675 107.167 224.161 101.407 218.213C89.9791 215.514 82.672 234.428 73.8695 238.783L73.5261 238.656C77.4234 233.968 82.6864 230.525 86.3151 225.6C86.2585 218.659 88.5087 199.583 92.9508 195.817C96.8707 192.494 103.996 194.7 104.183 200.223C104.286 203.285 101.927 213.221 101.407 217.56C107.222 223.206 115.648 230.194 120.683 235.974Z"/>
	<defs>
		<linearGradient id="gradient_3" gradientUnits="userSpaceOnUse" x1="246.24815" y1="200.43147" x2="265.58072" y2="311.33688">
			<stop offset="0" stop-color="#4FB6E3"/>
			<stop offset="1" stop-color="#5C8CED"/>
		</linearGradient>
	</defs>
	<path fill="url(#gradient_3)" transform="scale(0.195312 0.195312)" d="M233.244 204.148L233.425 203.96C235.879 201.455 238.2 201.424 241.517 201.378L263.826 201.39C279.542 201.381 278.559 200.718 278.543 215.377L278.515 233.042C291.093 234.564 310.872 226.745 310.98 241.719L310.993 263.116C310.982 278.27 313.117 278.99 296.338 278.987L278.515 278.966L278.537 296.912C278.556 302.938 280.287 310.239 271.907 310.677C261.633 310.68 251.327 310.475 241.058 310.736C231.244 310.986 233.21 303.319 233.215 296.338L233.244 278.966C225.586 277.48 207.931 281.596 202.781 276.94C199.654 274.112 201.031 254.481 201.022 250.078C200.988 232.883 197.997 233.01 215.197 233.017L233.244 233.042L233.226 215.061C233.191 211.48 232.82 207.698 233.244 204.148ZM265.497 217.56C265.623 212.827 263.108 214.484 258.104 214.488L246.3 214.5L246.317 232.535C246.326 239.354 248.017 246.258 238.628 246.257C230.45 246.256 222.176 245.893 214.007 246.209C214.008 252.589 214.127 258.993 214.007 265.371L232.27 265.351C247.116 265.336 246.218 264.326 246.282 280.172C246.306 285.811 246.627 291.597 246.319 297.221L246.3 297.541C252.637 297.528 259.181 297.159 265.497 297.541C265.08 292.483 265.495 287.264 265.511 282.186C265.539 273.455 262.581 265.51 274.491 265.346C282.234 265.24 290.148 265.827 297.861 265.371L297.861 246.209L281.093 246.226C272.701 246.227 266.08 248.373 265.497 237.511L265.497 217.56Z"/>
	<path fill="#6594F0" transform="scale(0.195312 0.195312)" d="M101.407 218.213C107.167 224.161 113.684 230.675 120.027 236.046L120.683 235.974L121.514 236.841L121.884 236.845C123.442 229.437 123.969 211.048 129.5 207.344C132.853 205.098 137.56 206.471 139.395 209.99C141.083 213.226 138.467 219.091 137.518 222.438C135.211 230.57 134.169 239.524 134.854 247.987C136.158 264.124 134.362 262.525 117.375 262.479L96.2368 262.464C95.9639 287.773 102.725 312.727 116.893 333.858C127.339 349.438 127.392 341.988 127.398 360.636L127.384 385.039C134.474 385.109 155.455 383.998 161.371 385.431C163.827 386.026 165.47 388.275 167.384 389.761C175.186 395.819 189.623 403.763 198.871 407.332C203.707 409.198 229.15 413.739 217.053 424.329C210.027 430.48 174.097 410.365 167.672 406.368C157.28 399.903 160.013 398.167 147.57 398.211L128.696 398.292C113.198 398.362 114.033 397.8 114.052 381.324L114.07 361.996C114.171 350.34 113.856 352.895 107.124 343.381C90.4976 319.879 82.3565 291.112 82.2554 262.464C79.1033 262.452 65.3874 263.827 64.2007 263.636C59.6617 262.903 56.5355 257.548 59.0852 253.406C61.4273 249.602 69.8395 241.419 73.5261 238.656L73.8695 238.783C82.672 234.428 89.9791 215.514 101.407 218.213ZM97.9741 233.042L88.5946 242.485C86.2867 244.777 83.8092 247.017 81.7172 249.505C87.6247 249.792 93.5773 249.467 99.4931 249.505L115.654 249.505C113.479 247.428 99.2702 233.603 97.9741 233.042Z"/>
	<path fill="#EBE0AF" transform="scale(0.195312 0.195312)" d="M246.3 214.5L258.104 214.488C263.108 214.484 265.623 212.827 265.497 217.56L265.497 237.511C266.08 248.373 272.701 246.227 281.093 246.226L297.861 246.209L297.861 265.371C290.148 265.827 282.234 265.24 274.491 265.346C262.581 265.51 265.539 273.455 265.511 282.186C265.495 287.264 265.08 292.483 265.497 297.541C259.181 297.159 252.637 297.528 246.3 297.541L246.319 297.221C246.627 291.597 246.306 285.811 246.282 280.172C246.218 264.326 247.116 265.336 232.27 265.351L214.007 265.371C214.127 258.993 214.008 252.589 214.007 246.209C222.176 245.893 230.45 246.256 238.628 246.257C248.017 246.258 246.326 239.354 246.317 232.535L246.3 214.5Z"/>
	<path fill="#6594F0" transform="scale(0.195312 0.195312)" d="M182.247 374.8L156.486 374.822C141.698 374.833 138.012 378.001 137.943 362.134L138.001 326.929C138.015 312.226 139.396 313.031 154.54 313.13L161.508 313.048C173.696 313.018 171.015 317.474 175.905 326.743C182.94 340.074 197.872 338.173 199.235 347.424C199.808 351.316 199.346 359.838 199.315 364.153C199.221 377.145 193.046 374.884 182.247 374.8ZM151.303 325.984L151.303 361.775C162.859 361.774 174.431 361.642 185.986 361.775C185.993 358.435 186.115 355.051 185.986 351.716C174.266 346.889 165.178 338.137 161.304 325.984L151.303 325.984Z"/>
	<defs>
		<linearGradient id="gradient_4" gradientUnits="userSpaceOnUse" x1="406.89651" y1="446.66803" x2="365.00763" y2="324.84912">
			<stop offset="0" stop-color="#EF1F95"/>
			<stop offset="1" stop-color="#E560B9"/>
		</linearGradient>
	</defs>
	<path fill="url(#gradient_4)" transform="scale(0.195312 0.195312)" d="M353.192 348.299C350.023 343.306 344.954 335.614 351.37 331.159C354.613 328.907 364.778 324.296 368.562 323.285C376.425 322.865 378.205 329.293 379.389 336.165L389.872 336.165C393.647 329.231 394.066 320.255 404.311 324.237C424.684 332.153 425.758 331.123 418.555 348.299C421.022 350.488 423.136 353 425.322 355.464C429.117 354.576 436.176 349.458 440.014 351.528C444.016 353.687 453.06 372.807 449.766 378.166C447.991 381.053 439.199 383.15 435.873 384.04L435.873 391.007C439.464 392.091 447.957 393.728 449.276 397.915C450.498 401.794 443.628 421.426 438.32 422.734C434.773 423.609 428.22 419.815 425.322 417.977C422.891 420.402 420.683 423.075 418.555 425.767C427.077 441.421 420.98 441.29 405.102 448.111C395.532 451.296 394.674 443.823 390.994 436.74L380.841 436.74C376.072 448.833 375.72 451.774 362.513 446.426C346.303 439.862 346.604 439.559 353.192 425.767C350.554 423.826 348.36 421.309 346.361 418.738C343.064 420.191 337.724 424.916 333.959 423.248C329.446 421.249 325.708 410.997 324.096 406.477C320.27 395.745 326.137 394.666 335.249 391.862C335.183 388.877 335.182 385.907 335.249 382.922C331.164 381.512 323.127 380.652 322.202 375.318C321.547 371.542 326.848 356.491 329.166 353.3C333.235 347.699 341.335 352.296 345.531 355.464C347.794 352.311 349.55 349.979 353.192 348.299ZM365.518 337.907C363.814 338.72 361.308 340.405 364.399 341.398C365.728 340.492 367.507 339.323 365.518 337.907ZM404.154 337.907C403.008 339.966 404.056 341.897 406.639 341.398L408.281 339.194C406.924 338.725 405.565 338.188 404.154 337.907ZM382.7 349.846C371.854 351.064 363.392 355.429 356.538 364.019C336.79 388.767 357.385 426.44 388.061 422.787C436.051 419.832 429.524 346.034 383.187 349.802L382.7 349.846ZM337.468 366.273C335.851 368.489 336.558 369.071 339.067 369.74C339.66 367.535 340.003 366.655 337.468 366.273ZM433.53 366.273L431.003 367.258C431.395 368.467 431.824 371.321 433.53 370.97L435.873 369.74C435.234 368.529 434.655 367.106 433.53 366.273ZM432.498 403.345C431.962 404.491 431.451 405.629 431.003 406.814C431.808 407.253 432.669 407.837 433.53 408.139C434.349 407.131 435.174 406.144 435.873 405.049C434.762 404.384 433.706 403.824 432.498 403.345ZM337.468 405.049L336.938 405.671C337.196 406.693 338.212 407.556 339.067 408.139C339.89 406.525 339.716 404.87 337.468 405.049ZM406.639 431.875C405.674 432.136 404.708 432.295 403.941 432.971L403.879 433.415C404.257 433.91 404.56 434.139 405.102 434.443C406.054 433.977 406.781 433.582 407.538 432.834L407.621 432.306C407.265 432.087 407.062 431.913 406.639 431.875ZM364.399 431.875C364.504 433.998 365.372 435.105 367.651 434.443C367.581 432.583 366.166 431.927 364.399 431.875Z"/>
	<path fill="#94F0E4" transform="scale(0.195312 0.195312)" d="M151.303 361.775L151.303 325.984L161.304 325.984C165.178 338.137 174.266 346.889 185.986 351.716C186.115 355.051 185.993 358.435 185.986 361.775C174.431 361.642 162.859 361.774 151.303 361.775Z"/>
	<path fill="#F6CB57" transform="scale(0.195312 0.195312)" d="M388.061 408.969C381.834 408.65 376.779 408.391 371.614 404.465C355.44 392.166 363.201 366.523 382.7 364.088C409.879 360.039 418.64 404.208 388.061 408.969ZM382.7 377.819C371.622 382.557 376.881 397.601 388.061 395.114C398.499 389.093 395.155 376.559 382.7 377.819Z"/>
	<path fill="#716CF1" transform="scale(0.195312 0.195312)" d="M269.756 429.011C269.734 433.826 271.929 452.475 260.784 448.382C258.715 447.622 229.373 417.899 225.437 413.563C222.498 410.325 223.21 407.44 225.835 404.493C230.096 399.708 259.126 369.796 262.758 368.299C267.824 367.657 270.403 370.058 271.907 374.8C271.396 376.741 270.723 378.489 269.756 380.247C276.231 380.34 283.284 379.738 289.644 378.493C294.75 377.494 305.025 373.192 307.05 381.056C308.699 387.464 301.84 389.337 296.989 390.403C289.989 391.942 263.997 395.938 257.632 391.862C251.766 397.173 245.972 403.168 240.589 408.969C246.536 414.287 251.438 420.778 257.632 425.767C256.182 412.908 268.591 416.041 277.079 415.397C284.549 414.83 291.642 413.399 298.94 411.788C308.97 409.401 314.297 416.916 308.585 422.211C303.309 427.103 277.317 429.402 269.756 429.011Z"/>
</svg>
