<?xml version="1.0" encoding="utf-8" ?>
<svg xmlns="http://www.w3.org/2000/svg" xmlns:xlink="http://www.w3.org/1999/xlink" width="100" height="100">
	<path fill="#3A66A7" transform="scale(0.195312 0.195312)" d="M140.68 182.493L150.751 182.493L150.751 192.1L140.68 192.1L140.68 182.493Z"/>
	<path fill="#3A66A7" transform="scale(0.195312 0.195312)" d="M105.969 182.493L108.341 182.493L108.341 192.1C105.987 192.021 103.668 191.996 101.312 192.1L98.0314 192.1L98.0314 182.493C100.757 182.168 103.232 182.247 105.969 182.493Z"/>
	<path fill="#3A66A7" transform="scale(0.195312 0.195312)" d="M119.259 182.493L129.728 182.493L129.728 192.1C126.247 192.002 122.743 192.089 119.259 192.1L119.259 182.493Z"/>
	<path fill="#3A66A7" transform="scale(0.195312 0.195312)" d="M175.782 182.493C179.871 182.232 184.135 182.483 188.241 182.485L245.041 182.5C249.294 182.499 253.661 182.226 257.899 182.394C264.556 182.657 266.529 190.196 260.007 192.1L198.807 192.093C194.713 192.093 178.19 192.713 175.628 191.852C170.837 190.241 171.715 184.286 175.782 182.493Z"/>
	<path fill="#3A66A7" transform="scale(0.195312 0.195312)" d="M225.658 97.0883C231.976 96.7037 245.577 113.554 245.744 115.176C245.996 117.625 229.471 139.208 224.21 134.05C219.306 129.243 226.852 124.256 230.02 121.09C214.486 122.081 204.179 118.777 188.875 127.557C185.271 129.862 173.532 140.855 172.972 140.885C163.91 141.373 168.471 132.506 172.189 128.552C190.671 108.897 207.065 111.989 230.02 111.263C226.229 107.906 217.171 101.079 225.658 97.0883Z"/>
	<path fill="#3A66A7" transform="scale(0.195312 0.195312)" d="M108.341 239.258C110.432 239.083 112.651 239.233 114.754 239.239L126.958 239.273C132.161 239.284 150.597 236.912 152.458 242.421C153.15 244.469 152.94 271.349 152.691 275.112C152.518 277.728 151.888 278.912 149.274 279.763L123.939 279.778C117.427 279.776 104.858 282.488 104.476 274.335C104.088 266.064 104.125 252.372 104.542 244.219C104.685 241.427 105.634 240.12 108.341 239.258Z"/>
	<path fill="#87CFF5" transform="scale(0.195312 0.195312)" d="M116.314 249.037L142.999 249.037L143.014 261.929C143.017 265.694 144.527 270.215 140.68 270.005L114.244 270.005C114.255 263.169 113.945 256.27 114.108 249.448C114.711 248.998 115.565 249.087 116.314 249.037Z"/>
	<path fill="#3A66A7" transform="scale(0.195312 0.195312)" d="M351.216 249.037C353.196 249.514 353.935 249.864 355.241 251.473C355.356 254.678 355.247 257.923 355.241 261.132C359.739 262.235 364.39 262.418 368.902 263.496C386.621 267.729 399.031 275.938 412.015 288.337C412.127 283.881 410.334 277.232 415.2 274.658C425.974 268.96 422.159 301.389 421.55 302.557C420.762 304.069 419.452 304.802 417.887 305.315C412.391 305.392 400.365 306.019 395.241 305.178C388.041 303.997 387.423 295.764 398.174 295.288C398.39 293.861 398.459 291.132 399.461 290.195C383.492 271.288 345.601 268.416 323.324 274.663C295.17 284.202 293.134 293.081 277.224 312.533C280.287 311.887 286.103 309.803 288.857 311.504C291.151 312.921 291.944 316.141 290.43 318.405C288.253 321.66 276.426 322.338 272.486 323.825C269.639 324.502 267.143 325.322 264.492 323.497C262.092 319.302 261.07 303.421 261.459 299.223C262.111 292.176 271.239 291.239 271.259 303.923C273.582 301.469 275.218 298.36 277.27 295.672C293.672 274.178 318.564 261.136 345.922 261.132C345.982 255.271 343.723 249.863 351.216 249.037ZM399.461 290.195C398.459 291.132 398.39 293.861 398.174 295.288L404.407 295.288C402.896 293.474 401.14 291.852 399.461 290.195Z"/>
	<path fill="#3A66A7" transform="scale(0.195312 0.195312)" d="M166.037 216.12L205.145 216.12C209.478 219.255 207.866 227.088 207.868 231.99L207.858 267.786C207.856 272.221 209.244 279.442 202.813 279.763L178.307 279.776C160.071 279.812 160.856 282.881 160.859 266.114L160.856 229.191C160.807 223.703 158.463 216.602 166.037 216.12Z"/>
	<path fill="#7FDED0" transform="scale(0.195312 0.195312)" d="M170.751 225.72L198.262 225.72L198.262 270.005C189.13 269.707 179.894 269.997 170.751 270.005L170.751 225.72Z"/>
	<path fill="#3A66A7" transform="scale(0.195312 0.195312)" d="M164.127 290.195L189.011 290.179C193.459 290.179 198.05 289.949 202.478 290.271C210.693 290.869 207.849 303.455 207.847 309.775L207.82 361.101C207.825 365.78 209.302 370.395 205.145 373.731C198.818 374.192 166.433 374.076 164.142 373.371C160.563 372.268 160.975 367.17 160.888 364.288C160.278 344.096 161.077 323.86 160.856 303.656C160.803 298.808 158.896 292.922 164.127 290.195Z"/>
	<path fill="#87CFF5" transform="scale(0.195312 0.195312)" d="M173.704 299.874L198.262 299.874L198.262 363.991L195.125 363.991L170.751 363.991L170.751 299.874L173.704 299.874Z"/>
	<path fill="#3A66A7" transform="scale(0.195312 0.195312)" d="M108.341 290.195C115.65 289.962 123.038 290.184 130.356 290.189C135.386 290.192 152.597 287.577 152.744 294.499C152.893 301.555 153.693 366.571 152.378 370.602C151.898 372.073 150.558 373.009 149.274 373.731C144.432 374.161 138.98 373.743 134.07 373.743L119.355 373.739C114.547 373.738 104.882 375.537 104.653 368.606C104.443 362.248 104.4 294.063 104.627 293.373C105.252 291.47 106.654 290.953 108.341 290.195Z"/>
	<path fill="#7FDED0" transform="scale(0.195312 0.195312)" d="M123.513 299.874L142.999 299.874L142.999 363.991L133.402 363.991L114.244 363.991L114.244 299.874L123.513 299.874Z"/>
	<path fill="#F7CF78" transform="scale(0.195312 0.195312)" d="M253.613 211.599C273.623 209.457 291.677 224.222 293.978 244.054C296.327 264.3 282.405 284.086 261.623 286.245C209.245 289.164 204.896 215.958 253.613 211.599ZM276.082 229.773C271.244 230.842 258.563 246.11 253.613 250.324C250.828 247.408 248.26 244.358 244.698 242.374C233.563 247.63 238.052 252.397 244.698 258.103C247.258 260.939 250.002 264.464 253.613 265.935C259.206 263.913 280.135 241.857 281.56 238.866C283.584 234.617 280.756 230.074 276.082 229.773Z"/>
	<path fill="#3A66A7" transform="scale(0.195312 0.195312)" d="M396.427 224.52C394.699 229.676 388.876 231.185 384.3 233.098C340.888 251.251 291.697 229.454 273.926 186.291C255.856 142.405 277.492 92.8311 321.121 74.986C390.37 46.6618 460.436 118.947 431.637 185.84C428.636 192.811 419.053 210.744 412.315 213.382L412.015 213.496C400.03 213.054 409.625 203.548 412.076 200.536C432.414 175.538 433.441 138.121 415.118 111.804C390.554 76.5252 342.876 68.5371 307.796 93.1661C274.994 116.196 267.549 164.832 290.835 197.408C312.275 227.402 347.506 237.274 381.239 223.742C387.726 221.14 392.766 214.874 396.427 224.52Z"/>
	<path fill="#3A66A7" transform="scale(0.195312 0.195312)" d="M279.635 408.257L110.879 408.266C104.909 408.268 97.8197 408.813 92.0147 407.963C70.8317 404.861 74.0246 382.646 74.0256 367.658L74.0328 174.678C74.1784 150.233 92.5287 150.715 111.158 150.74L253.924 150.668C258.587 150.706 263.264 155.573 258.443 159.195C255.328 161.535 244.425 160.24 240.577 160.237L109.148 160.254C92.4324 160.216 83.6701 158.062 83.5792 179.208L83.5775 371.645C83.5674 380.093 80.858 396.574 92.9843 398.147C95.4144 398.462 98.1039 398.275 100.558 398.276L260.478 398.267C264.458 398.268 268.519 398.477 272.486 398.264C268.736 392.001 262.867 381.907 261.781 374.74L261.623 373.731L234.22 373.739C228.339 373.744 217.912 376.28 217.138 368.816C216.252 360.267 216.772 346.001 216.995 337.237C217.186 329.712 236.796 332.752 242.666 332.749C250.782 332.744 265.524 329.54 267.622 339.722C267.447 346.384 267.406 353.048 268.263 359.67C275.298 414.001 336.574 445.702 383.581 420.944C417.188 405.625 435.004 364.112 424.539 329.013C423.376 325.111 421.194 321.422 421.359 317.233C421.923 315.808 422.699 314.582 424.178 313.976C430.879 311.232 432.668 321.262 433.901 325.579C455.863 402.452 372.7 466.792 303.154 427.459C294.224 422.409 286.549 415.786 279.635 408.257Z"/>
	<path fill="#7FDED0" transform="scale(0.195312 0.195312)" d="M244.698 342.412C249.13 342.394 253.565 342.342 257.997 342.412C257.987 349.665 258.101 356.766 258.832 363.991L240.625 363.991L226.688 363.991L226.688 342.412L244.698 342.412Z"/>
	<path fill="#87CFF5" transform="scale(0.195312 0.195312)" d="M396.427 224.52C392.766 214.874 387.726 221.14 381.239 223.742C347.506 237.274 312.275 227.402 290.835 197.408C267.549 164.832 274.994 116.196 307.796 93.1661C342.876 68.5371 390.554 76.5252 415.118 111.804C433.441 138.121 432.414 175.538 412.076 200.536C409.625 203.548 400.03 213.054 412.015 213.496C409.784 213.608 397.491 222.821 396.427 224.52ZM348.408 95.1047C295.066 99.1891 274.059 166.331 314.587 200.258C326.965 210.62 341.884 213.95 357.664 213.496C373.695 211.68 388.249 204.736 398.483 191.988C430.829 151.693 399.499 90.4961 348.408 95.1047Z"/>
	<path fill="#3A66A7" transform="scale(0.195312 0.195312)" d="M348.408 95.1047C399.499 90.4961 430.829 151.693 398.483 191.988C388.249 204.736 373.695 211.68 357.664 213.496C341.884 213.95 326.965 210.62 314.587 200.258C274.059 166.331 295.066 99.1891 348.408 95.1047ZM347.264 104.746C301.378 111.958 287.35 169.082 323.481 194.695C333.745 201.971 345.311 204.242 357.664 203.752C424.308 193.962 410.864 99.1992 347.264 104.746Z"/>
	<path fill="#3A66A7" transform="scale(0.195312 0.195312)" d="M376.28 131.247C379.271 131.152 381.959 132.731 382.072 136.001C382.223 140.33 366.395 154.453 362.923 157.954C349.114 171.879 352.54 170.471 337.368 156.005C326.912 145.812 335.328 141.852 339.149 144.275C341.83 145.976 348.49 153.299 351.216 156.005C354.934 151.808 372.768 133.133 376.28 131.247Z"/>
	<path fill="#3A66A7" transform="scale(0.195312 0.195312)" d="M323.324 274.663C345.601 268.416 383.492 271.288 399.461 290.195C398.459 291.132 398.39 293.861 398.174 295.288C387.423 295.764 388.041 303.997 395.241 305.178C400.365 306.019 412.391 305.392 417.887 305.315C418.918 306.975 420.287 308.327 421.359 309.943C420.918 312.216 419.873 315.153 421.359 317.233C421.194 321.422 423.376 325.111 424.539 329.013C435.004 364.112 417.188 405.625 383.581 420.944C336.574 445.702 275.298 414.001 268.263 359.67C267.406 353.048 267.447 346.384 267.622 339.722L268.028 339.86C268.988 338.637 271.76 326.602 272.486 323.825C276.426 322.338 288.253 321.66 290.43 318.405C291.944 316.141 291.151 312.921 288.857 311.504C286.103 309.803 280.287 311.887 277.224 312.533C293.134 293.081 295.17 284.202 323.324 274.663ZM341.245 313.753C340.48 316.878 339.798 320.276 338.47 323.211C335.865 324.454 332.934 325.617 330.098 326.185C327.293 324.248 324.506 322.27 321.66 320.393C318.881 323.24 315.613 325.971 313.294 329.197C315.225 331.876 317.17 334.455 318.473 337.511C316.895 341.115 315.077 344.808 313.294 348.318C309.966 348.923 306.585 349.131 303.254 349.708C303.352 353.745 303.568 357.787 303.254 361.817C315.611 361.62 314.153 364.221 318.473 374.655C317.133 377.562 314.971 379.889 313.294 382.584C316.395 385.002 319.138 387.609 321.66 390.627C324.282 388.02 326.684 386.625 330.098 385.264C333.004 386.158 335.938 387.067 338.47 388.796C340.222 391.709 340.317 395.069 341.245 398.264C342.926 398.255 351.81 398.879 352.482 398.506L352.586 398.264C353.033 394.852 353.325 391.779 355.241 388.796C364.425 381.743 366.027 386.897 372.896 390.627C375.761 388.009 378.425 385.182 381.308 382.584C379.39 379.948 377.331 377.362 375.522 374.655C376.355 371.321 378.393 366.741 380.423 363.991C383.5 362.582 386.479 362.236 389.795 361.817L389.795 349.708C386.677 349.086 383.534 348.876 380.423 348.318C375.583 337.593 374.305 338.385 381.308 329.197C378.341 326.495 375.049 323.819 372.896 320.393C369.637 322.246 366.67 324.926 363.133 326.185C360.539 325.184 357.769 324.337 355.241 323.211C354.054 320.163 353.342 316.93 352.586 313.753L341.245 313.753Z"/>
	<path fill="#F7CF78" transform="scale(0.195312 0.195312)" d="M341.245 313.753L352.586 313.753C353.342 316.93 354.054 320.163 355.241 323.211C357.769 324.337 360.539 325.184 363.133 326.185C366.67 324.926 369.637 322.246 372.896 320.393C375.049 323.819 378.341 326.495 381.308 329.197C374.305 338.385 375.583 337.593 380.423 348.318C383.534 348.876 386.677 349.086 389.795 349.708L389.795 361.817C386.479 362.236 383.5 362.582 380.423 363.991C378.393 366.741 376.355 371.321 375.522 374.655C377.331 377.362 379.39 379.948 381.308 382.584C378.425 385.182 375.761 388.009 372.896 390.627C366.027 386.897 364.425 381.743 355.241 388.796C353.325 391.779 353.033 394.852 352.586 398.264L352.482 398.506C351.81 398.879 342.926 398.255 341.245 398.264C340.317 395.069 340.222 391.709 338.47 388.796C335.938 387.067 333.004 386.158 330.098 385.264C326.684 386.625 324.282 388.02 321.66 390.627C319.138 387.609 316.395 385.002 313.294 382.584C314.971 379.889 317.133 377.562 318.473 374.655C314.153 364.221 315.611 361.62 303.254 361.817C303.568 357.787 303.352 353.745 303.254 349.708C306.585 349.131 309.966 348.923 313.294 348.318C315.077 344.808 316.895 341.115 318.473 337.511C317.17 334.455 315.225 331.876 313.294 329.197C315.613 325.971 318.881 323.24 321.66 320.393C324.506 322.27 327.293 324.248 330.098 326.185C332.934 325.617 335.865 324.454 338.47 323.211C339.798 320.276 340.48 316.878 341.245 313.753ZM343.909 333.803C313.15 340.184 322.803 382.558 349.894 377.671C378.525 371.271 373.736 331.903 343.909 333.803Z"/>
	<path fill="#3A66A7" transform="scale(0.195312 0.195312)" d="M343.909 333.803C373.736 331.903 378.525 371.271 349.894 377.671C322.803 382.558 313.15 340.184 343.909 333.803ZM345.922 343.309C329.203 346.54 330.974 368.831 348.408 367.982C364.566 364.339 360.306 341.521 345.922 343.309Z"/>
	<path fill="#87CFF5" transform="scale(0.195312 0.195312)" d="M277.224 312.533C293.134 293.081 295.17 284.202 323.324 274.663C323.729 286.206 323.319 298.334 323.324 309.943C316.749 307.574 302.437 325.604 301.847 327.621C301.015 330.462 305.542 334.86 307.266 336.633C306.701 337.392 306.158 338.189 305.554 338.916L305.228 339.017C302.646 339.798 295.574 340.095 294.349 342.606C293.249 344.858 293.582 361.327 293.906 364.382C294.734 372.199 299.709 370.09 305.554 371.352C306.215 372.431 306.854 373.449 307.266 374.655C305.712 376.483 301.384 380.797 301.93 383.319C302.374 385.367 317.666 400.31 319.665 401.156C321.56 401.957 328.179 397.322 330.098 396.559L330.243 396.965C331.071 399.323 331.872 406.175 334.001 407.301C337.446 409.124 356.497 408.81 358.602 407.808C360.525 406.894 361.252 403.959 361.607 402.001C365.333 403.42 380.42 417.473 383.581 420.944C336.574 445.702 275.298 414.001 268.263 359.67C267.406 353.048 267.447 346.384 267.622 339.722L268.028 339.86C268.988 338.637 271.76 326.602 272.486 323.825C276.426 322.338 288.253 321.66 290.43 318.405C291.944 316.141 291.151 312.921 288.857 311.504C286.103 309.803 280.287 311.887 277.224 312.533Z"/>
	<path fill="#E1ECF7" transform="scale(0.195312 0.195312)" d="M323.324 274.663C345.601 268.416 383.492 271.288 399.461 290.195C398.459 291.132 398.39 293.861 398.174 295.288C387.423 295.764 388.041 303.997 395.241 305.178C400.365 306.019 412.391 305.392 417.887 305.315C418.918 306.975 420.287 308.327 421.359 309.943C420.918 312.216 419.873 315.153 421.359 317.233C421.194 321.422 423.376 325.111 424.539 329.013C435.004 364.112 417.188 405.625 383.581 420.944C380.42 417.473 365.333 403.42 361.607 402.001L363.133 396.559C365.936 398.025 371.807 402.446 374.971 401.473C377.407 400.724 391.11 386.905 392.202 384.32C393.338 381.629 388.077 375.946 387.001 373.133L386.86 372.759C390.559 371.664 397.992 371.805 399.083 367.249C399.77 364.381 400.581 344.386 398.496 341.907C396.371 339.381 389.92 339.343 386.86 338.916C388.401 336.679 393.852 330.662 392.13 327.727C390.617 325.149 375.64 309.557 373.265 309.365C370.844 309.17 365.319 313.249 363.133 314.635C362.145 311.893 361.607 305.407 358.383 304.377C355.452 303.44 336.588 303.526 334.368 304.97C332.527 306.167 331.615 311.707 331.026 313.753C328.323 312.804 325.915 311.166 323.324 309.943C323.319 298.334 323.729 286.206 323.324 274.663Z"/>
</svg>
