<?xml version="1.0" encoding="utf-8" ?>
<svg xmlns="http://www.w3.org/2000/svg" xmlns:xlink="http://www.w3.org/1999/xlink" width="100" height="100">
	<path fill="#3C56A5" transform="scale(0.195312 0.195312)" d="M423.953 278.287C428.615 272.894 436.579 276.348 432.702 283.281L431.536 284.225C426.739 286.792 422.911 283.156 423.953 278.287Z"/>
	<path fill="#3C56A5" transform="scale(0.195312 0.195312)" d="M262.47 209.807C270.653 209.097 278.917 215.544 277.214 224.412C276.363 228.843 261.537 244.139 257.405 246.895C259.275 266.554 247.032 280.45 227.366 275.643C198.577 265.753 210.966 223.328 239.617 230.176C245.516 225.031 256.314 211.405 262.47 209.807Z"/>
	<path fill="#32B7F3" transform="scale(0.195312 0.195312)" d="M264.249 218.644C265.936 219.083 268.246 220.299 268.046 222.378C267.904 223.853 249.766 243.157 246.474 246.208C251.993 261.291 237.388 272.233 227.366 264.572C215.082 257.655 219.732 233.714 241.699 241.49C248.707 233.44 257.005 226.521 264.249 218.644Z"/>
	<path fill="#3C56A5" transform="scale(0.195312 0.195312)" d="M232.46 155.638C280.758 153.682 324.474 190.807 332.202 238.227C333.748 247.709 334.656 257.499 322.614 258.855C319.155 259.245 310.433 259.851 307.755 257.551C305.656 255.749 305.532 252.404 307.479 250.414C309.619 248.228 319.924 248.996 323.262 249.001C323.546 229.716 312.936 208.495 300.534 194.402C297.663 197.204 290.509 205.541 286.719 205.384C284.333 205.285 282.17 202.868 282.47 200.473C282.926 196.835 290.419 190.602 293.26 188.246C282.177 175.275 255.843 166.134 239.617 165.678C239.638 169.648 240.65 181.282 238.005 184.02C234.851 187.285 230.646 184.693 230.093 180.854C229.52 176.878 230.027 169.9 230.033 165.678C215.297 166.115 184.969 175.328 176.214 188.246C179.749 193.124 195.342 202.572 181.599 206.399C176.937 204.073 172.307 198.587 169.304 194.402C155.504 207.37 146.254 230.152 146.245 249.001C152.376 248.974 169.421 245.455 166.46 255.767C163.516 259.865 150.957 258.252 146.245 258.237C148.042 278.771 155.05 296.794 169.304 311.992C172.239 309.316 179.364 300.472 182.998 300.384C187.299 300.28 189.034 304.876 186.811 308.084C184.827 310.945 178.973 315.981 176.214 318.663C193.295 334.365 208.775 337.55 230.033 341.11C230.068 332.976 226.797 323.95 235.109 321.646C242.079 323.247 239.64 335.172 239.617 341.11C250.587 340.73 257.008 337.248 265.984 336.233C269.651 335.818 271.571 341.483 269.306 344.05C265.879 347.933 246.167 350.436 240.491 350.683C186.848 353.017 138.791 311.46 136.529 257.2C134.214 201.665 177.555 157.928 232.46 155.638Z"/>
	<path fill="#3C56A5" transform="scale(0.195312 0.195312)" d="M203.745 102.909L203.712 85.9594C203.699 81.3712 202.005 72.1061 208.743 71.7235C218.778 71.1539 229.09 71.6018 239.154 71.6052L252.51 71.6246C264.426 71.6847 264.308 71.4888 264.271 84.3249L264.249 102.909C277.798 104.636 307.953 116.028 318.787 125.822C322.574 121.291 335.277 109.21 340.048 105.648C346.464 100.858 356.699 115.761 361.915 120.721L376.536 134.759C379.81 137.965 385.95 141.625 382.196 146.682C378.155 152.123 367.029 162.068 361.698 167.388C372.475 184.166 382.461 202.993 385.895 222.901L404.465 222.879C407.564 222.874 416.128 221.855 418.391 224.648C419.886 226.494 419.275 247.913 419.266 251.507C416.357 256.239 412.236 255.467 409.164 251.507C396.919 248.448 391.34 246.829 377.913 246.895C378.024 242.248 377.988 237.321 377.214 232.735L377.214 232.735C370.65 207.707 369.074 195.395 352.847 172.094C347.444 164.335 352.385 162.696 358.02 157.099C362.511 152.637 367.08 148.231 371.504 143.705C361.603 135.102 352.752 125.27 343.166 116.323C338.395 119.508 323.146 137.625 318.908 137.098C317.914 136.975 305.902 129.035 303.459 127.69C292.128 121.448 279.88 116.673 267.264 113.795C264.49 113.162 257.359 112.909 255.619 110.297C253.726 107.456 254.549 86.416 254.558 81.7413L213.671 81.7413L213.695 98.6324C213.711 112.392 214.473 111.117 202.052 113.872C187.453 117.111 173.334 123.499 160.683 131.403C157.36 133.479 151.902 139.411 147.82 136.268C141.824 131.651 132.113 120.68 126.688 115.008C120.633 120.876 102.767 137.194 98.4845 143.705L111.635 156.746C118.004 163.101 122.942 164.636 116.431 172.649C106.198 185.241 99.1285 202.754 95.1198 218.422C91.3244 233.257 95.6488 233.761 77.6926 233.754L59.0782 233.737L59.0782 272.486L78.4884 272.463C95.5536 272.445 91.0042 271.767 95.0393 287.606C97.4967 297.253 100.855 306.566 105.518 315.371C108.833 321.632 112.079 323.709 108.128 330.714C102.347 333.46 100.172 326.824 98.0746 322.675C91.3597 309.392 86.9984 296.966 83.6533 282.467L62.2418 282.486C47.3941 282.498 48.6245 283.188 48.6322 267.139L48.6452 235.147C48.671 221.166 51.7533 223.688 64.0371 223.722L83.6533 223.738C87.1083 209.036 97.022 178.624 108.128 167.388C103.972 163.898 100.337 159.732 96.5354 155.863C93.6542 152.931 83.4595 145.497 86.8264 140.753C90.0382 136.227 100.285 127.16 105 122.38L117.236 110.127C120.83 106.541 124.713 100.249 130.203 104.524C135.811 108.891 146.878 120.57 151.29 125.822C163.031 116.132 188.904 105.377 203.745 102.909Z"/>
	<path fill="#7BDDF5" transform="scale(0.195312 0.195312)" d="M377.214 232.735L409.164 232.735L409.13 244.481C409.103 246.714 408.787 249.315 409.164 251.507C396.919 248.448 391.34 246.829 377.913 246.895C378.024 242.248 377.988 237.321 377.214 232.735Z"/>
	<path fill="#3C56A5" transform="scale(0.195312 0.195312)" d="M279.145 360.949C266.85 290.98 332.463 232.475 399.553 257.659C406.127 260.127 425.808 267.299 422.01 276.615C417.065 280.339 412.565 274.941 408.396 272.524C359.447 244.145 298.426 274.101 288.709 328.924C282.707 362.784 298.442 398.535 328.993 414.978C332.83 414.319 337.987 416.701 341.91 417.158C374.384 420.94 405.911 403.959 423.644 376.92C439.228 353.158 441.489 321.469 435.826 294.039C434.483 290.693 433.142 287.458 431.536 284.225L432.702 283.281C434.15 285.055 435.229 287.102 436.667 288.865C440.983 285.52 444.035 287.596 446.769 291.565C475.313 333.012 464.64 391.866 422.813 420.108C381.932 447.713 322.208 438.658 294.759 396.869C294.169 395.971 293.697 395.049 293.26 394.068C282.918 396.834 275.558 400.409 264.249 402.193L264.269 420.774C264.272 425.631 265.679 431.388 261.611 434.9C258.301 435.13 254.944 434.923 251.626 434.909L217.464 434.911C210.111 434.924 204.144 437.138 203.803 428.352C203.465 419.673 203.735 410.885 203.745 402.193C185.584 399.009 165.203 390.577 150.431 379.472C146.176 383.703 141.927 387.938 137.74 392.236C134.635 395.424 128.219 404.874 123.182 400.992C115.26 394.888 106.511 384.912 99.3691 377.764C94.5832 372.973 81.9862 365.11 87.7934 358.451C95.0905 350.085 103.956 343.101 111.299 334.694C115.223 332.881 121.168 335.748 119.032 340.619C116.969 345.323 102.977 357.509 98.4845 362.868C107.661 371.847 116.878 380.757 125.819 389.975C128.781 386.773 145.338 368.261 148.983 368.196C151.661 368.149 162.553 375.892 165.753 377.702C177.287 384.225 190.245 388.898 203.129 392.016C215.778 395.077 213.663 394.745 213.673 407.3L213.671 425.123L254.558 425.123L254.537 406.55C254.497 390.257 256.4 394.993 270.097 391.279C276.032 389.67 281.72 387.443 287.545 385.504C284.169 377.583 280.685 369.474 279.145 360.949Z"/>
	<path fill="#1AE6AE" transform="scale(0.195312 0.195312)" d="M431.536 284.225L432.702 283.281C434.15 285.055 435.229 287.102 436.667 288.865C435.826 290.886 435.658 292.119 436.667 294.039C480.477 355.446 429.17 437.716 355.504 424.996C346.399 423.424 336.667 420.175 328.993 414.978C332.83 414.319 337.987 416.701 341.91 417.158C374.384 420.94 405.911 403.959 423.644 376.92C439.228 353.158 441.489 321.469 435.826 294.039C434.483 290.693 433.142 287.458 431.536 284.225Z"/>
	<path fill="#8AF6CE" transform="scale(0.195312 0.195312)" d="M328.993 414.978C298.442 398.535 282.707 362.784 288.709 328.924C298.426 274.101 359.447 244.145 408.396 272.524C412.565 274.941 417.065 280.339 422.01 276.615C422.537 277.477 422.959 277.952 423.953 278.287C422.911 283.156 426.739 286.792 431.536 284.225C433.142 287.458 434.483 290.693 435.826 294.039C441.489 321.469 439.228 353.158 423.644 376.92C405.911 403.959 374.384 420.94 341.91 417.158C337.987 416.701 332.83 414.319 328.993 414.978ZM421.255 296.576C415.834 296.528 410.416 296.757 404.999 296.94C401.188 297.068 391.753 295.938 392.264 302.074C392.508 305.014 395.545 306.359 397.917 307.273C384.89 319.981 369.44 334.332 357.363 347.626C349.546 340.521 337.796 324.28 327.342 324.815C317.4 325.324 308.369 335.46 309.049 345.371C309.602 353.433 315.896 358.093 321.231 363.353C326.227 368.217 331.105 373.193 335.998 378.16C353.617 396.048 357.794 398.371 376.043 380.059L418.174 337.894C420.534 335.554 429.744 327.586 430.708 325.124C431.602 322.843 431.922 299.81 429.444 297.288C427.74 295.554 423.431 296.067 421.255 296.576Z"/>
	<path fill="#3C56A5" transform="scale(0.195312 0.195312)" d="M421.255 296.576C423.431 296.067 427.74 295.554 429.444 297.288C431.922 299.81 431.602 322.843 430.708 325.124C429.744 327.586 420.534 335.554 418.174 337.894L376.043 380.059C357.794 398.371 353.617 396.048 335.998 378.16C331.105 373.193 326.227 368.217 321.231 363.353C315.896 358.093 309.602 353.433 309.049 345.371C308.369 335.46 317.4 325.324 327.342 324.815C337.796 324.28 349.546 340.521 357.363 347.626C369.44 334.332 384.89 319.981 397.917 307.273C395.545 306.359 392.508 305.014 392.264 302.074C391.753 295.938 401.188 297.068 404.999 296.94C410.416 296.757 415.834 296.528 421.255 296.576ZM419.266 306.283L410.455 306.283C408.75 311.119 387.246 331.419 382.677 335.935L366.279 352.067C363.31 355.008 360.455 358.143 357.363 360.949C355.014 359.241 352.946 356.92 350.873 354.883L338.158 342.201C335.144 339.184 332.261 335.38 327.817 334.694C323.093 335.36 317.866 339.941 318.746 345.146C319.282 348.316 322.394 350.868 324.592 352.978L342.749 371.189C355.589 384.113 354.859 387.556 368.848 373.496L408.385 333.772C412.702 329.426 417.253 325.252 421.255 320.607C421.365 317.813 422.93 305.616 419.266 306.283Z"/>
	<path fill="#7BDDF5" transform="scale(0.195312 0.195312)" d="M213.671 81.7413L254.558 81.7413C254.549 86.416 253.726 107.456 255.619 110.297C257.359 112.909 264.49 113.162 267.264 113.795C279.88 116.673 292.128 121.448 303.459 127.69C305.902 129.035 317.914 136.975 318.908 137.098C323.146 137.625 338.395 119.508 343.166 116.323C352.752 125.27 361.603 135.102 371.504 143.705C367.08 148.231 362.511 152.637 358.02 157.099C352.385 162.696 347.444 164.335 352.847 172.094C369.074 195.395 370.65 207.707 377.214 232.735C369.283 232.741 361.238 232.39 353.323 232.735C352.359 237.094 346.874 238.4 344.417 234.315C342.45 231.046 342.11 226.281 340.959 222.63C322.157 162.979 256.146 128.02 197.045 150.022C164.129 162.275 137.748 190.665 128.349 224.537C108.976 294.35 163.305 360.406 233.809 362.854C240.523 363.087 249.922 359.89 250.971 368.178C255.913 366.556 276.734 362.885 279.145 360.949C280.685 369.474 284.169 377.583 287.545 385.504C281.72 387.443 276.032 389.67 270.097 391.279C256.4 394.993 254.497 390.257 254.537 406.55L254.558 425.123L213.671 425.123L213.673 407.3C213.663 394.745 215.778 395.077 203.129 392.016C190.245 388.898 177.287 384.225 165.753 377.702C162.553 375.892 151.661 368.149 148.983 368.196C145.338 368.261 128.781 386.773 125.819 389.975C116.878 380.757 107.661 371.847 98.4845 362.868C102.977 357.509 116.969 345.323 119.032 340.619C121.168 335.748 115.223 332.881 111.299 334.694C110.283 333.322 109.271 331.983 108.128 330.714C112.079 323.709 108.833 321.632 105.518 315.371C100.855 306.566 97.4967 297.253 95.0393 287.606C91.0042 271.767 95.5536 272.445 78.4884 272.463L59.0782 272.486L59.0782 233.737L77.6926 233.754C95.6488 233.761 91.3244 233.257 95.1198 218.422C99.1285 202.754 106.198 185.241 116.431 172.649C122.942 164.636 118.004 163.101 111.635 156.746L98.4845 143.705C102.767 137.194 120.633 120.876 126.688 115.008C132.113 120.68 141.824 131.651 147.82 136.268C151.902 139.411 157.36 133.479 160.683 131.403C173.334 123.499 187.453 117.111 202.052 113.872C214.473 111.117 213.711 112.392 213.695 98.6324L213.671 81.7413Z"/>
	<path fill="#3C56A5" transform="scale(0.195312 0.195312)" d="M250.971 368.178C248.807 374.724 239.962 372.789 234.661 372.681C135.875 370.662 78.7461 257.93 140.126 179.975C201.049 102.602 322.273 126.43 350.967 222.428C351.984 225.832 352.519 229.288 353.323 232.735C352.359 237.094 346.874 238.4 344.417 234.315C342.45 231.046 342.11 226.281 340.959 222.63C322.157 162.979 256.146 128.02 197.045 150.022C164.129 162.275 137.748 190.665 128.349 224.537C108.976 294.35 163.305 360.406 233.809 362.854C240.523 363.087 249.922 359.89 250.971 368.178Z"/>
</svg>
