<?xml version="1.0" encoding="utf-8" ?>
<svg xmlns="http://www.w3.org/2000/svg" xmlns:xlink="http://www.w3.org/1999/xlink" width="100" height="100">
	<defs>
		<linearGradient id="gradient_0" gradientUnits="userSpaceOnUse" x1="173.62709" y1="39.201824" x2="335.4216" y2="463.33826">
			<stop offset="0" stop-color="#12D2CB"/>
			<stop offset="1" stop-color="#0170E6"/>
		</linearGradient>
	</defs>
	<path fill="url(#gradient_0)" transform="scale(0.195312 0.195312)" d="M89.0454 72.2482L291.002 72.2478C306.858 72.2318 330.162 69.026 334.409 90.453C335.149 94.1834 334.851 98.2666 334.84 102.062L334.814 176.3C337.358 176.465 339.949 176.316 342.499 176.311L418.812 176.283C436.434 176.277 442.568 179.796 442.698 198.621L442.704 358.498C442.724 369.747 445.623 387.6 430.271 390.625C424.45 391.773 414.697 391.115 408.493 391.113L366.129 391.123C368.264 404.601 376.417 415.152 386.216 424.116C391.711 424.31 399.054 422.901 404.048 425.429C407.534 427.722 408.596 432.745 405.972 436.123C403.232 439.651 397.96 438.808 394.041 438.789L265.314 438.792C261.905 438.791 258.402 438.938 255 438.745C249.177 438.415 246.341 430.475 250.302 426.298C253.474 422.952 264.963 424.205 269.634 424.116C280.763 417.346 287.49 403.847 288.052 391.123L243.008 391.129C214.018 391.128 208.754 394.846 208.745 361.165L208.757 334.822L99.9599 334.835C95.6115 334.838 90.9432 335.184 86.6391 334.614C70.1731 332.435 68.1865 318.035 68.2032 304.997L68.2108 108.107C68.2098 90.1641 66.9853 75.3521 89.0454 72.2482ZM83.2099 302.751C83.266 323.581 85.6616 320.642 103.95 320.629L208.216 320.609C209.255 319.383 208.764 305.588 208.757 302.751L83.2099 302.751ZM307.617 391.123C306.223 391.188 304.858 391.172 303.465 391.123C301.297 410.3 297.885 410.066 291.658 424.116L350.263 424.116C355.542 424.134 360.853 424.27 366.129 424.116C356.838 415.108 353.536 403.208 350.263 391.123L307.617 391.123Z"/>
	<path fill="#FEFEFE" transform="scale(0.195312 0.195312)" d="M92.7149 86.7021L282.205 86.6947C290.978 86.6951 299.788 86.532 308.557 86.7743C322.954 87.1721 321.203 101.704 320.746 112.004L311.844 112.004L83.2099 112.004C83.2669 101.902 79.0216 86.7505 92.7149 86.7021Z"/>
	<path fill="#0CC5D0" transform="scale(0.195312 0.195312)" d="M92.7149 92.1938C96.7289 92.1778 104.347 91.6176 107.878 92.3977C115.369 94.0523 113.676 103.192 107.818 106.004C105.457 106.215 94.6883 106.314 92.6245 105.615C86.3492 103.488 87.0579 94.5798 92.7149 92.1938Z"/>
	<path fill="#0CC5D0" transform="scale(0.195312 0.195312)" d="M160.071 92.1938C167.232 91.932 173.772 90.7989 175.547 99.2925C174.122 104.388 171.982 106.032 166.604 106.004C162.733 106.178 155.791 107.163 152.753 104.353C147.19 99.2057 151.575 92.2576 160.071 92.1938Z"/>
	<path fill="#0CC5D0" transform="scale(0.195312 0.195312)" d="M124.905 92.1938C128.673 92.1986 138.219 91.3914 141.345 93.1958C147.455 96.722 144.779 104.583 138.541 106.004C134.389 106.158 126.267 107.064 122.557 105.264C115.989 102.078 118.755 93.7254 124.905 92.1938Z"/>
	<path fill="#FEFEFE" transform="scale(0.195312 0.195312)" d="M83.2099 126.314L320.746 126.314L320.746 263.349L334.814 263.349L334.814 191.221L428.08 191.221L428.08 304.529L428.086 366.126C428.085 369.268 428.239 372.51 427.773 375.625C425.228 377.985 400.866 376.99 396.924 376.99L223.213 376.994C223.46 373.57 223.254 370.113 223.235 366.683L223.213 288.244L83.2099 288.244L83.2099 126.314Z"/>
	<path fill="#0EA6DB" transform="scale(0.195312 0.195312)" d="M192.043 240.482L207.165 240.482L207.165 254.76C202.196 255.024 197.029 254.766 192.043 254.76L192.043 240.482Z"/>
	<path fill="#0EA6DB" transform="scale(0.195312 0.195312)" d="M277.42 304.529L292.417 304.529L292.417 319.324L277.42 319.324L277.42 304.529Z"/>
	<path fill="#0EA6DB" transform="scale(0.195312 0.195312)" d="M345.285 281.241L383.997 281.241L383.997 295.528L345.285 295.528L345.285 281.241Z"/>
	<path fill="#0EA6DB" transform="scale(0.195312 0.195312)" d="M305.282 304.529L357.917 304.526C366.591 304.527 375.331 304.791 383.997 304.529L383.997 319.324C375.295 319.633 366.482 319.329 357.763 319.328L305.282 319.324L305.282 304.529Z"/>
	<path fill="#0EA6DB" transform="scale(0.195312 0.195312)" d="M295.428 328.616L383.997 328.616L383.997 343.216L361.625 343.216L272.713 343.216L272.713 328.616L295.428 328.616Z"/>
	<path fill="#0EA6DB" transform="scale(0.195312 0.195312)" d="M274.765 215.678C281.119 221.443 296.352 235.656 301.607 242.211C307.367 249.397 299.184 254.984 294.478 259.677C287.9 266.236 280.809 272.66 274.765 279.698C271.168 276.5 267.537 272.91 264.555 269.127C269.357 264.363 274.213 259.787 278.757 254.76L274.765 254.76L221.244 254.76L221.244 240.482L278.757 240.482C274.812 235.495 268.961 230.844 264.555 225.974C267.983 222.559 271.462 219.215 274.765 215.678Z"/>
	<path fill="#0EA6DB" transform="scale(0.195312 0.195312)" d="M141.098 142.263C155.752 140.289 167.822 154.45 168.801 168.434C180.454 173.727 192.51 178.157 203.927 183.979C219.082 158.933 255.379 169.87 255.291 197.872C255.209 223.611 224.893 234.845 205.519 214.73C196.198 221.357 179.8 224.621 168.801 232.179C169.138 248.447 161.936 260.999 144.941 263.985C104.611 267.16 104.19 212.141 138.59 209.157C148.898 208.262 154.604 211.647 162.256 218.036C166.162 216.577 199.349 202.141 200.631 200.339C200.118 197.355 169.719 185.178 164.9 183.155C156.545 198.4 134.855 200.315 122.611 188.973C104.16 171.882 117.175 142.691 141.098 142.263Z"/>
	<path fill="#FEFEFE" transform="scale(0.195312 0.195312)" d="M141.098 156.807C156.368 155.986 158.946 179.766 141.833 181.691C127.49 181.894 122.676 160.465 141.098 156.807Z"/>
	<path fill="#FEFEFE" transform="scale(0.195312 0.195312)" d="M225.91 184.791C242.32 182.842 245.478 208.018 229.357 209.271C214.526 211.827 208.123 190.978 225.91 184.791Z"/>
	<path fill="#FEFEFE" transform="scale(0.195312 0.195312)" d="M139.38 224.042C157.035 222.714 159.103 244.089 143.412 249.168C127.043 251.924 121.756 227.626 139.38 224.042Z"/>
</svg>
