<?xml version="1.0" encoding="utf-8" ?>
<svg xmlns="http://www.w3.org/2000/svg" xmlns:xlink="http://www.w3.org/1999/xlink" width="100" height="100">
	<path fill="#3B76E3" transform="scale(0.195312 0.195312)" d="M93.0354 244.763C95.6783 245.586 106.961 248.046 108.09 249.713L108.088 352.657C108.089 357.594 107.753 362.831 108.591 367.703C111.265 383.235 130.771 380.771 142.047 380.759L286.883 380.742C289.982 380.737 296.978 380.265 299.523 380.75C302.557 389.12 305.703 390.058 309.075 395.814C303.852 395.665 298.601 395.809 293.375 395.811L138.201 395.822C132.231 395.823 125.698 396.353 119.823 395.308C96.5061 391.163 93.0274 373.243 93.0289 354.078L93.0354 244.763Z"/>
	<path fill="#3B76E3" transform="scale(0.195312 0.195312)" d="M94.0353 118.772L94.0174 100.469C94.0108 88.5587 93.528 78.1996 102.646 69.103C113.774 58.001 127.551 60.216 141.9 60.2284L283.778 60.2253C298.563 60.2259 313.395 59.9515 328.174 60.1527C334.833 60.2434 338.85 66.1413 343.16 70.4662L353.987 81.1263C365.855 92.9241 378.029 104.444 389.643 116.497C396.68 123.801 394.781 130.786 394.772 140.164L394.759 237.603C394.759 248.124 395.487 258.985 394.761 269.466C390.383 268.396 384.504 260.159 379.733 259.048L379.733 136.434L357.457 136.442C351.766 136.445 345.148 137.099 339.623 135.655C321.108 130.817 322.258 112.56 322.262 97.88L322.275 75.0604L142.149 75.0516C117.913 75.0539 108.645 72.0877 108.665 98.7044L108.689 113.766C103.959 115.891 98.7493 116.41 94.0353 118.772Z"/>
	<path fill="#79DDF9" transform="scale(0.195312 0.195312)" d="M337.247 85.8483C340.083 87.6537 342.511 90.7059 344.858 93.1053L365.643 113.789C368.17 116.255 371.225 118.85 373.169 121.806L355.661 121.826C338.704 121.838 337.175 121.236 337.232 102.606C337.249 97.0205 337.177 91.4337 337.247 85.8483Z"/>
	<path fill="#45CDCD" transform="scale(0.195312 0.195312)" d="M108.689 113.766C114.003 114.526 120.027 113.529 125.785 114.072C149.085 116.269 163.891 128.347 176.845 146.313C178.488 151.162 181.294 155.525 182.926 160.383C192.458 188.762 182.155 221.233 157.442 238.386C146.098 245.352 133.57 249.914 120.127 250.011C117.796 250.028 109.521 248.545 108.09 249.713C106.961 248.046 95.6783 245.586 93.0354 244.763C60.2731 231.599 44.6595 190.922 56.8574 158.527C63.423 141.09 76.9924 126.41 94.0353 118.772C98.7493 116.41 103.959 115.891 108.689 113.766ZM116.032 128.75C65.6585 135.76 50.1435 196.682 88.9463 225.194C98.8806 232.494 111.297 235.312 123.471 235.443L123.761 235.346C127.629 234.079 131.718 233.622 135.603 232.344C163.205 223.258 177.892 192.832 168.961 165.365C161.894 143.63 139.295 126.798 116.032 128.75Z"/>
	<path fill="#45CDCD" transform="scale(0.195312 0.195312)" d="M128.177 149.196C147.683 148.564 142.322 161.935 136.181 163.14C133.382 163.69 130.215 163.345 127.364 163.336L110.465 163.31C90.7805 163.743 95.5404 150.823 101.417 149.474C104.405 148.788 108.132 149.176 111.204 149.176L128.177 149.196Z"/>
	<path fill="#45CDCD" transform="scale(0.195312 0.195312)" d="M146.255 168.063C151.723 167.945 156.15 174.513 152.903 179.261C150.218 183.186 146.011 186.379 142.692 189.767L128.742 204.008C125.468 207.347 119.954 214.432 115.11 215.274C109.51 216.246 101.515 203.861 96.9 200.776C94.3981 197.463 89.3218 194.048 88.8342 189.727C88.4035 185.909 91.1739 182.081 95.1342 181.758C101.074 181.273 109.852 193.083 114.327 196.859L114.623 197.106C120.1 191.043 126.245 185.543 132.014 179.764C136.091 175.68 140.13 169.009 146.255 168.063Z"/>
	<path fill="#45CDCD" transform="scale(0.195312 0.195312)" d="M379.733 259.048C384.504 260.159 390.383 268.396 394.761 269.466C395.778 271.122 398.225 272.033 399.866 272.955C412.655 280.145 426.432 283.468 441.027 282.404C446.442 282.009 453.299 279.34 457.516 284.025C461.016 287.914 459.589 297.228 459.589 302.034L459.583 354.096C459.581 368.478 460.585 383.099 448.56 393.647C432.189 408.007 414.216 420.545 397.355 434.337C390.373 440.048 381.563 451.406 372.997 445.73C366.878 441.677 361.323 436.517 355.541 431.999L317.103 402.082C314.459 400.041 311.926 397.522 309.075 395.814C305.703 390.058 302.557 389.12 299.523 380.75C297.198 373.769 297.253 367.512 297.251 360.235L297.254 341.801C297.26 324.841 297.003 307.843 297.245 290.887C297.424 278.353 306.59 281.386 315.786 282.16C335.365 283.807 352.629 278.537 367.847 265.916C372.275 262.244 373.542 258.893 379.733 259.048ZM378.472 275.941C361.941 288.602 349.683 295.783 327.632 297.202C322.428 297.537 317.209 296.685 312.035 297.238L312.025 363.875C312.014 379.554 314.003 380.205 326.748 390.224L366.422 421.114C370.247 424.061 374.183 427.542 378.472 429.768C384.386 426.939 396.004 416.231 401.935 411.583L429.221 390.11C435.862 384.805 443.766 381.046 444.416 371.614C444.984 363.364 444.501 354.76 444.498 346.479L444.501 297.238C440.326 296.747 436.267 297.366 432.098 297.134C414.008 296.129 396.69 290.151 382.382 279.028C381.366 278.238 379.608 276.25 378.472 275.941Z"/>
	<path fill="#45CDCD" transform="scale(0.195312 0.195312)" d="M413.477 318.769C417.787 318.529 422.202 321.617 422.202 326.249C422.202 330.238 418.253 333.005 415.691 335.528C400.945 350.047 386.639 365.053 372.009 379.697C361.414 390.301 352.753 375.813 345.323 368.139C342.525 364.886 337.639 361.352 337.369 356.79C337.125 352.675 340.416 349.382 344.472 349.31C349.809 349.215 359.367 361.932 363.968 366.301C374.509 358.034 388.679 341.3 398.728 331.35C403.04 327.081 407.419 320.575 413.477 318.769Z"/>
	<path fill="#3B76E3" transform="scale(0.195312 0.195312)" d="M144.795 329.998C149.798 329.821 154.869 329.986 159.878 329.987L208.377 330.03C212.982 329.996 219.569 328.765 223.842 330.923C230.84 334.457 227.893 343.032 221.382 344.8L154.723 344.821C151.078 344.836 145.096 345.784 141.866 343.698C135.796 339.776 138.035 331.163 144.795 329.998Z"/>
	<path fill="#3B76E3" transform="scale(0.195312 0.195312)" d="M144.795 301.244C149.645 300.87 154.775 301.237 159.665 301.242L240.678 301.24C249.411 301.236 258.191 301.028 266.916 301.249C276.22 301.486 277.811 313.437 268.893 316.098C266.342 316.373 263.609 316.143 261.042 316.113L152.248 316.105C149.854 316.114 147.371 316.28 144.992 315.973L144.488 315.904C136.67 314.91 136.216 303.669 144.795 301.244Z"/>
	<path fill="#79DDF9" transform="scale(0.195312 0.195312)" d="M211.588 127.145C216.121 125.002 219.796 121.962 224.655 120.304C238.613 115.541 246.442 120.07 258.162 125.746C260.328 125.673 262.864 126.721 264.871 127.492C295.541 139.276 317.102 170.128 318.19 202.934C319.745 249.859 285.446 288.104 238.334 289.728C203.802 290.918 170.312 270.8 157.442 238.386C182.155 221.233 192.458 188.762 182.926 160.383C181.294 155.525 178.488 151.162 176.845 146.313C185.942 137.184 199.156 130.137 211.588 127.145ZM213.361 186.248C189.493 189.229 183.906 206.327 183.938 226.52L183.941 240.754C183.924 248.808 180.775 260.962 191.237 261.753C198.928 262.335 206.949 261.905 214.668 261.905L259.312 261.896L273.066 261.911C291.492 261.912 287.788 255.767 287.699 240.198C287.61 224.595 290.285 206.728 277.807 194.872C266.146 183.791 251.473 186.265 236.629 186.253C228.886 186.246 221.096 185.837 213.361 186.248ZM211.588 127.145C208.128 133.927 209.359 135.836 209.884 143.502C210.657 154.788 212.589 166.433 221.641 174.225C231.747 182.924 246.27 179.971 254.37 170.149C261.66 161.308 263.441 142.178 262.288 130.519C261.291 128.582 259.656 127.277 258.162 125.746C246.442 120.07 238.613 115.541 224.655 120.304C219.796 121.962 216.121 125.002 211.588 127.145Z"/>
	<path fill="#3B76E3" transform="scale(0.195312 0.195312)" d="M211.588 127.145C216.121 125.002 219.796 121.962 224.655 120.304C238.613 115.541 246.442 120.07 258.162 125.746C259.656 127.277 261.291 128.582 262.288 130.519C263.441 142.178 261.66 161.308 254.37 170.149C246.27 179.971 231.747 182.924 221.641 174.225C212.589 166.433 210.657 154.788 209.884 143.502C209.359 135.836 208.128 133.927 211.588 127.145ZM234.893 133.608C230.92 133.846 227.983 134.761 224.382 136.434C224.335 144.053 224.745 166.11 237.074 164.67C248.175 160.051 247.778 146.675 247.381 136.434C243.12 134.506 239.585 133.502 234.893 133.608Z"/>
	<path fill="#3B76E3" transform="scale(0.195312 0.195312)" d="M213.361 186.248C221.096 185.837 228.886 186.246 236.629 186.253C251.473 186.265 266.146 183.791 277.807 194.872C290.285 206.728 287.61 224.595 287.699 240.198C287.788 255.767 291.492 261.912 273.066 261.911L259.312 261.896L214.668 261.905C206.949 261.905 198.928 262.335 191.237 261.753C180.775 260.962 183.924 248.808 183.941 240.754L183.938 226.52C183.906 206.327 189.493 189.229 213.361 186.248ZM216.598 200.776C197.864 202.407 199.214 215.97 199.24 230.473C199.251 236.045 199.066 241.656 199.247 247.222C217.945 247.447 236.674 247.221 255.375 247.222L272.79 247.222L272.811 228.625C273.021 203.499 269.965 200.729 242.589 200.767L216.598 200.776Z"/>
	<path fill="#79DDF9" transform="scale(0.195312 0.195312)" d="M245.352 220.493C249.784 220.267 255.225 219.453 258.873 222.577C261.987 225.246 260.984 230.434 258.403 233.084C255.026 236.55 248.128 235.459 243.792 235.459L227.125 235.443C223.03 235.429 217.243 236.255 213.998 233.276C211.068 230.586 211.285 225.449 213.976 222.677C217.173 219.382 224.069 220.475 228.173 220.476L245.352 220.493Z"/>
</svg>
