<?xml version="1.0" encoding="utf-8" ?>
<svg xmlns="http://www.w3.org/2000/svg" xmlns:xlink="http://www.w3.org/1999/xlink" width="100" height="100">
	<path fill="#629CE4" transform="scale(0.195312 0.195312)" d="M279.954 55.8255C286.239 40.5514 288.74 41.3082 296.013 55.8255C350.896 61.4787 401.592 101.085 409.569 157.524C411.571 171.689 405.982 177.3 396.138 164.289C382.297 145.997 354.321 146.845 339.128 162.964C329.945 172.706 331.873 176.527 320.221 163.252C312.665 154.643 305.242 151.987 294.35 148.985C291.485 148.371 285.212 148.628 282.236 148.985C272.552 151.204 261.367 155.177 255.507 163.811L259.831 163.811C256.079 164.519 251.574 163.841 247.753 163.837L202.745 163.819C200.179 163.836 197.403 164.184 194.868 163.811L180.412 163.811C177.927 164.03 175.378 163.826 172.884 163.834L157.716 163.823C154.521 163.807 151.015 164.256 147.868 163.811C153.817 163.506 159.934 163.802 165.901 163.811C170.025 113.231 214.1 71.1494 261.807 59.041C267.64 57.5607 273.924 55.9563 279.954 55.8255ZM180.412 163.811L194.868 163.811C209.933 163.638 225.014 163.843 240.081 163.811C227.539 153.161 216.563 147.111 199.015 151.774C193.041 153.362 183.585 158.303 180.412 163.811ZM255.507 142.969C255.219 144.612 254.837 146.294 254.683 147.952C255.745 147.261 256.818 146.45 257.953 145.89L257.907 145.161C257.317 144.216 256.384 143.63 255.507 142.969Z"/>
	<path fill="#60E4D5" transform="scale(0.195312 0.195312)" d="M262.17 71.6303L262.281 71.7118C262.465 72.5907 259.471 77.068 258.886 78.1409C250.598 93.3374 242.346 130.725 243.273 149.635C228.094 140.064 207.998 132.736 190.806 142.139C187.516 142.45 185.336 144.193 182.665 145.89C192.081 110.37 227.9 81.175 262.17 71.6303Z"/>
	<path fill="#60E4D5" transform="scale(0.195312 0.195312)" d="M313.727 71.6303C319.588 72.1383 329.021 76.6296 334.371 79.072C364.282 92.7263 383.467 115.807 394.717 145.89C392.161 144.434 389.566 143.17 386.81 142.139C367.948 134.664 351.163 138.446 335.341 149.635C331.499 120.915 328.045 97.1477 313.727 71.6303Z"/>
	<path fill="#E0D1F3" transform="scale(0.195312 0.195312)" d="M255.507 142.969C256.046 123.306 266.182 69.2112 288.732 69.9508C313.004 70.7469 321.657 132.206 323.508 149.635C303.948 134.416 278.832 132.605 257.953 145.89L257.907 145.161C257.317 144.216 256.384 143.63 255.507 142.969Z"/>
	<path fill="#629CE4" transform="scale(0.195312 0.195312)" d="M294.35 272.268C303.671 268.082 312.279 262.825 320.47 256.722C337.304 244.179 330.124 245.753 347.713 258.567C365.816 271.754 389.434 281.296 412.094 282.053C434.162 282.791 431.018 280.985 430.953 304.072C430.877 331.187 432.506 351.426 421.831 377.292C406.904 413.462 374.262 439.343 341.107 458.344C330.823 464.238 332.698 462.326 323.581 457.196C296.093 441.729 268.503 420.292 251.952 392.852C251.113 391.461 249.763 388.27 248.33 387.773C248.936 386.622 244.031 377.823 243.273 376.024C233.304 352.18 234.725 331.147 234.718 305.992C234.709 273.677 233.509 283.17 262.757 280.889C265.528 280.673 280.256 278.567 282.236 276.6C286.097 276.161 290.681 273.687 294.35 272.268ZM333.134 261.92C306.485 282.695 281.502 293.612 246.561 293.244L246.55 320.544C246.543 327.132 246.307 333.818 246.88 340.385C250.887 386.337 284.667 419.463 321.945 442.409C325.586 444.651 329.227 446.96 333.134 448.719C340.457 445.732 347.261 441.001 353.749 436.522C400.333 404.363 419.233 373.982 419.238 318.197L419.228 294.296C392.522 294.278 367.698 286.706 345.618 271.556C340.989 268.38 337.097 264.683 333.134 261.92Z"/>
	<path fill="#4159AB" transform="scale(0.195312 0.195312)" d="M331.435 285.979C335.327 285.803 338.241 288.943 341.222 290.967C353.306 299.17 368.374 303.959 382.409 307.319C402.434 312.113 399.502 306.068 399.507 329.614C399.512 349.989 400.315 363.744 388.083 381.449C380.702 392.133 347.003 426.926 333.684 429.316C325.568 427.69 318.422 420.73 312.088 415.829C291.108 399.596 272.41 380.115 266.604 353.425C264.858 345.399 264.365 323.349 265.15 314.228C265.722 307.583 272.688 308.906 277.624 308.185C292.847 305.962 308.591 300.412 321.443 291.754C324.705 289.557 327.444 286.645 331.435 285.979Z"/>
	<path fill="#60E4D5" transform="scale(0.195312 0.195312)" d="M332.227 298.97C336.047 300.818 339.468 303.831 343.239 305.883C355.466 312.54 373.692 319.387 387.628 320.512C387.611 339.785 389.792 356.051 379.259 373.138C369.192 389.468 349.482 406.021 333.134 416.734C309.341 398.714 280.478 377.704 277.303 345.488C276.497 337.31 276.979 328.739 276.991 320.512C295.908 318.897 316.68 309.135 332.227 298.97Z"/>
	<path fill="#4159AB" transform="scale(0.195312 0.195312)" d="M362.586 331.281C365.614 330.999 368.424 332.468 369.548 335.432C371.456 340.468 365.049 344.935 362.125 347.995C357.657 352.67 330.344 381.643 326.047 382.857C320.818 384.335 311.921 370.665 307.006 368.243C304.927 365.542 299.885 361.685 299.69 358.248C299.452 354.061 304.801 350.366 308.524 352.591C312.903 355.208 320.699 364.282 325.004 368.243C336.217 358.812 352.437 336.89 362.586 331.281Z"/>
	<path fill="#4159AB" transform="scale(0.195312 0.195312)" d="M188.582 283.47C189.942 283.082 192.311 284.139 193.801 284.242C195.687 284.372 197.552 283.519 199.462 283.47C198.097 286.147 196.347 287.255 193.527 287.859C190.689 287.069 189.647 286.094 188.582 283.47Z"/>
	<path fill="#60E4D5" transform="scale(0.195312 0.195312)" d="M134.148 322.237C137.114 320.067 140.731 320.489 144.212 320.512C144.307 322.756 144.22 325.001 144.212 327.246C142.783 327.242 134.721 326.874 134.246 326.981L134.148 327.246C133.274 326.054 133.805 323.557 134.148 322.237Z"/>
	<path fill="#0C81B9" transform="scale(0.195312 0.195312)" d="M152.785 289.963C153.876 288.353 154.947 286.604 157.002 286.164C164.024 284.66 176.03 285.233 182.397 289.77L182.665 289.963C180.476 290.18 153.379 290.16 152.785 289.963Z"/>
	<path fill="#60E4D5" transform="scale(0.195312 0.195312)" d="M159.517 344.745C163.571 344.94 167.546 344.934 171.602 344.745C171.417 348.221 171.691 351.747 171.602 355.238L159.517 355.238C159.408 351.753 159.514 348.233 159.517 344.745Z"/>
	<path fill="#60E4D5" transform="scale(0.195312 0.195312)" d="M152.785 289.963C153.379 290.16 180.476 290.18 182.665 289.963C199.364 298.064 206.745 324.326 192.281 336.201C191.711 331.793 191.142 323.704 186.061 325.957C190.172 318.726 189.118 309.495 183.162 303.569C178.445 298.876 172.73 298.943 166.506 298.946L156.608 298.97C154.739 297.276 150.851 292.611 152.785 289.963Z"/>
	<path fill="#38BDCA" transform="scale(0.195312 0.195312)" d="M186.061 325.957C191.142 323.704 191.711 331.793 192.281 336.201C186.807 342.925 179.829 344.807 171.602 344.745C167.546 344.934 163.571 344.94 159.517 344.745C148.167 344.739 134.301 341.048 134.148 327.246L134.246 326.981C134.721 326.874 142.783 327.242 144.212 327.246C146.47 329.622 148.276 331.419 151.332 332.698C158.648 333.163 174.451 333.192 180.412 331.281C182.374 329.571 184.468 328.036 186.061 325.957Z"/>
	<path fill="#0C81B9" transform="scale(0.195312 0.195312)" d="M151.332 332.698C158.648 333.163 174.451 333.192 180.412 331.281C180.572 338.592 152.004 337.648 151.332 332.698Z"/>
	<path fill="#60E4D5" transform="scale(0.195312 0.195312)" d="M162.019 256.237L172.752 256.237C172.727 258.993 172.71 261.746 172.752 264.502C181.826 264.715 202.235 271.935 199.462 283.47C197.552 283.519 195.687 284.372 193.801 284.242C192.311 284.139 189.942 283.082 188.582 283.47C182.417 273.633 163.679 274.289 154.008 276.076C137.38 279.148 138.652 300.075 151.332 308.091C160.495 311.128 175.072 305.33 178.167 314.652C179.347 324.388 163.055 322.494 157.41 322.225C124.971 320.681 118.507 261.91 162.019 264.502C162.203 261.73 162.161 259.007 162.019 256.237Z"/>
	<path fill="#0C81B9" transform="scale(0.195312 0.195312)" d="M151.332 308.091C160.495 311.128 175.072 305.33 178.167 314.652C178.084 318.096 175.206 313.682 172.904 313.397C169.2 312.939 152.74 314.83 151.332 308.091Z"/>
	<path fill="#B6CAF1" transform="scale(0.195312 0.195312)" d="M109.217 219.643C115.206 219.953 121.386 219.648 127.394 219.647L267.176 219.643C266.83 226.79 267.164 234.097 267.176 241.261L157.111 241.257C141.158 241.258 125.164 241.528 109.217 241.261L109.217 219.643Z"/>
	<path fill="#4159AB" transform="scale(0.195312 0.195312)" d="M282.236 148.985C285.212 148.628 291.485 148.371 294.35 148.985L294.35 272.268C290.681 273.687 286.097 276.161 282.236 276.6L282.25 201.087C282.253 191.282 282.785 179.69 270.831 176.546C264.987 175.009 246.219 176.044 239.248 175.974L239.272 184.794C239.368 201.795 232.893 204.855 216.952 204.774L203.84 204.744C187.684 204.748 171.509 204.935 155.354 204.767C137.867 204.585 139.45 188.371 139.508 175.974L116.716 175.958C110.17 175.958 101.759 174.559 96.6229 179.649C90.8677 185.352 92.9014 200.3 92.9105 207.745L92.9028 362.395C92.9575 376.182 101.343 376.056 112.596 376.043L233.002 376.009C236.31 375.996 240.026 375.573 243.273 376.024C244.031 377.823 248.936 386.622 248.33 387.773C236.463 387.56 224.554 387.772 212.682 387.772L114.003 387.786C93.3035 387.792 81.2371 384.154 81.0677 360.765L81.0574 202.074C81.0584 187.006 78.9864 170.526 98.1817 164.983C105.041 163.002 114.409 163.799 121.64 163.799L147.868 163.811C151.015 164.256 154.521 163.807 157.716 163.823L172.884 163.834C175.378 163.826 177.927 164.03 180.412 163.811L194.868 163.811C197.403 164.184 200.179 163.836 202.745 163.819L247.753 163.837C251.574 163.841 256.079 164.519 259.831 163.811L255.507 163.811C261.367 155.177 272.552 151.204 282.236 148.985ZM151.74 175.974C151.719 179.135 150.909 189.811 152.895 191.973C154.476 193.695 222.912 193.514 226.019 191.966C227.944 189.336 227.11 179.483 227.093 175.974L151.74 175.974ZM255.507 163.811L259.831 163.811C270.196 163.67 273.347 163.342 282.236 169.013L282.236 148.985C272.552 151.204 261.367 155.177 255.507 163.811Z"/>
</svg>
