<?xml version="1.0" encoding="utf-8" ?>
<svg xmlns="http://www.w3.org/2000/svg" xmlns:xlink="http://www.w3.org/1999/xlink" width="100" height="100">
	<path fill="#9AC2ED" transform="scale(0.195312 0.195312)" d="M75.2675 364.715C76.1183 365.723 76.6146 367.15 77.2151 368.327C86.5465 386.618 105.474 382.081 123.22 382.083L402.736 382.083C416.046 382.08 427.003 381.878 435.073 369.007C436.188 367.229 436.675 365.164 437.893 363.426C437.952 382.735 435.911 400.265 411.877 400.112L107.578 400.055C77.6069 400.041 75.1583 392.924 75.2675 364.715Z"/>
	<path fill="#466CBF" transform="scale(0.195312 0.195312)" d="M75.2675 159.466L75.247 141.413C75.1423 115.269 81.1638 107.007 108.063 106.99L410.242 106.997C433.656 107.183 437.905 122.893 437.914 142.817L437.893 159.466C424.75 159.064 411.333 159.464 398.161 159.465L75.2675 159.466Z"/>
	<path fill="#30BB6E" transform="scale(0.195312 0.195312)" d="M165.59 126.535C175.562 125.211 177.933 137.646 168.799 142.132C158.693 141.587 156.123 129.836 165.59 126.535Z"/>
	<path fill="#E38194" transform="scale(0.195312 0.195312)" d="M111.426 126.535C121.111 127.754 120.8 140.849 111.426 142.132C100.872 141.558 101.066 128.078 111.426 126.535Z"/>
	<path fill="#F2C74E" transform="scale(0.195312 0.195312)" d="M139.824 126.535C148.457 126.062 150.496 139.791 139.824 142.132C130.382 141.862 127.447 127.924 139.824 126.535Z"/>
	<path fill="#FEFEFE" transform="scale(0.195312 0.195312)" d="M376.974 127.166L392.283 127.151C395.751 127.12 399.257 126.932 402.717 127.166C404.495 128.766 405.87 130.618 405.966 133.101C406.252 140.498 397.073 139.074 392.373 139.063L374.283 139.042L358.142 139.076C355.161 139.079 349.603 139.947 347.064 137.97C343.457 135.163 344.728 128.429 349.298 127.494C352.614 126.816 356.42 127.151 359.801 127.151L376.974 127.166Z"/>
	<path fill="#C8E0F7" transform="scale(0.195312 0.195312)" d="M75.2675 159.466L398.161 159.465C411.333 159.464 424.75 159.064 437.893 159.466C437.464 164.481 437.924 169.801 437.916 174.851L437.906 349.958C437.909 354.351 438.285 359.068 437.893 363.426C436.675 365.164 436.188 367.229 435.073 369.007C427.003 381.878 416.046 382.08 402.736 382.083L123.22 382.083C105.474 382.081 86.5465 386.618 77.2151 368.327C76.6146 367.15 76.1183 365.723 75.2675 364.715L75.2675 159.466Z"/>
	<path fill="#466CBF" transform="scale(0.195312 0.195312)" d="M354.223 196.779L386.411 196.793C390.562 196.797 396.841 196.396 400.718 196.779C408.125 197.51 407.382 207.212 400.313 207.799L367.192 207.785C362.685 207.779 357.188 208.227 352.815 207.768C345.077 206.957 346.093 197.404 354.223 196.779Z"/>
	<path fill="#466CBF" transform="scale(0.195312 0.195312)" d="M261.141 196.779C267.49 196.706 329.906 196.025 332.609 197.339C338.096 200.006 335.909 206.312 330.957 207.799L282.26 207.795C274.959 207.794 267.208 208.422 259.953 207.799C255.446 204.505 254.503 198.457 261.141 196.779Z"/>
	<path fill="#466CBF" transform="scale(0.195312 0.195312)" d="M261.141 227.022C268.057 226.682 275.174 227.014 282.114 227.014L350.789 227.018C355.166 227.019 373.216 224.606 369.836 233.968C369.134 235.913 367.781 237.076 365.974 237.983C361.374 238.306 356.534 237.999 351.912 237.991L273.694 237.957C268.9 237.923 258.04 240.231 256.416 233.901C255.485 230.272 257.679 227.833 261.141 227.022Z"/>
	<path fill="#30BB6E" transform="scale(0.195312 0.195312)" d="M163.949 179.575C193.868 179.807 219.86 204.944 219.688 234.844C219.671 237.59 219.601 240.347 219.688 243.092L201.874 243.092C202.03 240.374 201.883 237.571 201.874 234.844L201.874 234.844C201.52 232.507 201.698 230.088 201.342 227.726C198.669 209.974 181.33 197.161 163.949 196.779L163.949 179.575Z"/>
	<path fill="#DE8143" transform="scale(0.195312 0.195312)" d="M219.688 234.844C219.671 237.59 219.601 240.347 219.688 243.092L201.874 243.092C202.03 240.374 201.883 237.571 201.874 234.844L201.874 234.844C203.256 234.569 218.156 234.602 219.688 234.844Z"/>
	<path fill="#0BAAF3" transform="scale(0.195312 0.195312)" d="M274.375 342.007L285.078 342.007L285.078 352.068C289.549 351.811 294.335 351.754 298.803 352.068C304.324 352.055 309.999 351.785 315.504 352.068L332.007 352.068C337.186 353.293 343.441 352.705 348.759 352.681C353.842 352.719 359.13 352.254 364.18 352.681C369.659 352.699 375.625 353.144 381.007 352.068C389.506 352.064 398.038 352.236 406.532 352.068C406.467 367.585 396.132 366.446 384.188 366.444L277.018 366.436C272.356 361.344 274.36 348.705 274.375 342.007Z"/>
	<path fill="#0BAAF3" transform="scale(0.195312 0.195312)" d="M237.016 352.681C236.822 357.842 238.644 364.738 231.627 365.63C226.664 366.261 220.566 365.792 215.513 365.793L136.447 365.794C128.998 365.794 120.077 366.259 112.794 365.666C104.693 365.006 105.941 355.507 106.001 349.807L105.962 325.06C105.835 313.069 106.013 311.483 118.437 311.073L118.42 332.094C118.418 347.816 116.866 352.752 135.913 352.707L228.408 352.656C231.17 352.648 234.285 352.357 237.016 352.681Z"/>
	<path fill="#9AC2ED" transform="scale(0.195312 0.195312)" d="M219.688 243.092C216.732 270.501 190.387 291.527 163.414 291.175C132.195 290.768 107.48 264.747 108.252 233.606C108.983 204.125 134.047 178.731 163.949 179.575L163.949 196.779L163.949 196.779C127.28 199.263 112.397 241.698 139.392 264.552C159.849 281.871 191.523 273.736 200.242 247.866C200.753 246.35 201.125 244.478 201.874 243.092L219.688 243.092Z"/>
	<path fill="#FEFEFE" transform="scale(0.195312 0.195312)" d="M163.949 196.779C181.33 197.161 198.669 209.974 201.342 227.726C201.698 230.088 201.52 232.507 201.874 234.844L201.874 234.844C201.883 237.571 202.03 240.374 201.874 243.092C201.125 244.478 200.753 246.35 200.242 247.866C191.523 273.736 159.849 281.871 139.392 264.552C112.397 241.698 127.28 199.263 163.949 196.779L163.949 196.779Z"/>
	<path fill="#466CBF" transform="scale(0.195312 0.195312)" d="M163.949 227.022C166.594 228.31 168.631 230.071 169.772 232.861C168.939 235.655 159.314 245.962 156.625 247.474C152.575 249.752 147.398 245.618 149.302 241.135C150.932 237.297 160.058 228.468 163.949 227.022Z"/>
	<path fill="#F2C74E" transform="scale(0.195312 0.195312)" d="M163.949 196.779C181.33 197.161 198.669 209.974 201.342 227.726C201.698 230.088 201.52 232.507 201.874 234.844L201.874 234.844C198.966 234.346 195.19 234.804 192.188 234.821L169.772 234.844C169.809 234.173 169.802 233.532 169.772 232.861C168.631 230.071 166.594 228.31 163.949 227.022C163.721 223.726 163.93 220.263 163.932 216.95L163.949 196.779L163.949 196.779Z"/>
	<path fill="#50D5EC" transform="scale(0.195312 0.195312)" d="M118.437 311.073L218.604 311.053C236.429 311.022 237.046 309.168 237.038 329.244L237.016 352.681C234.285 352.357 231.17 352.648 228.408 352.656L135.913 352.707C116.866 352.752 118.418 347.816 118.42 332.094L118.437 311.073Z"/>
	<path fill="#466CBF" transform="scale(0.195312 0.195312)" d="M183.093 320.57C185.707 320.476 188.773 322.02 188.952 324.931C189.192 328.829 180.634 336.025 178.133 338.75C169.836 347.791 168.729 354.372 158.663 345.698C155.146 342.612 148.113 334.285 157.487 333.107C160.581 332.718 163.282 335.901 165.59 337.595C169.074 333.169 177.599 321.888 183.093 320.57Z"/>
	<path fill="#50D5EC" transform="scale(0.195312 0.195312)" d="M274.375 342.007L274.356 277.259C274.349 273.263 273.474 267.774 276.531 264.605C278.754 262.3 299.877 263.432 303.5 263.435L380.142 263.445C386.908 263.443 393.761 263.202 400.515 263.491C409.329 263.868 406.547 277.526 406.544 283.808L406.546 340.225C406.552 344.13 407.065 348.188 406.532 352.068C398.038 352.236 389.506 352.064 381.007 352.068C375.625 353.144 369.659 352.699 364.18 352.681C359.13 352.254 353.842 352.719 348.759 352.681C343.441 352.705 337.186 353.293 332.007 352.068L315.504 352.068C309.999 351.785 304.324 352.055 298.803 352.068C294.335 351.754 289.549 351.811 285.078 352.068L285.078 342.007L274.375 342.007Z"/>
	<path fill="#466CBF" transform="scale(0.195312 0.195312)" d="M298.803 342.007L315.504 342.007L315.504 352.068C309.999 351.785 304.324 352.055 298.803 352.068L298.803 342.007Z"/>
	<path fill="#466CBF" transform="scale(0.195312 0.195312)" d="M381.007 342.007C380.825 345.385 380.737 348.687 381.007 352.068C375.625 353.144 369.659 352.699 364.18 352.681L364.18 342.007L381.007 342.007Z"/>
	<path fill="#466CBF" transform="scale(0.195312 0.195312)" d="M332.007 342.007L348.759 342.007L348.759 352.681C343.441 352.705 337.186 353.293 332.007 352.068L332.007 342.007Z"/>
	<path fill="#8289DC" transform="scale(0.195312 0.195312)" d="M332.007 313.016L348.759 313.016L348.759 342.007L332.007 342.007C332.008 332.353 332.161 322.667 332.007 313.016Z"/>
	<path fill="#8289DC" transform="scale(0.195312 0.195312)" d="M298.803 301.47L315.504 301.47L315.504 342.007L298.803 342.007L298.803 301.47Z"/>
	<path fill="#8289DC" transform="scale(0.195312 0.195312)" d="M364.18 282.774L381.007 282.774L381.007 342.007L364.18 342.007L364.188 302.64C364.189 296.041 364.397 289.368 364.18 282.774Z"/>
</svg>
