<?xml version="1.0" encoding="utf-8" ?>
<svg xmlns="http://www.w3.org/2000/svg" xmlns:xlink="http://www.w3.org/1999/xlink" width="100" height="100">
	<path fill="#88D7E0" transform="scale(0.195312 0.195312)" d="M369.524 238.804C371.851 238.627 373.647 239.009 375.766 239.907C377.575 243.181 376.891 247.222 376.864 250.81L376.833 263.749C389.565 263.81 397.417 261.58 385.236 274.391C381.346 278.483 377.324 282.744 373.989 287.299C373.185 287.641 371.959 288.281 371.141 287.833C368.899 286.608 353.67 268.7 353.243 266.717C352.195 261.848 363.244 263.689 365.73 263.749L365.713 249.91C365.683 246.877 365.428 243.754 365.73 240.741C366.967 239.943 368.156 239.348 369.524 238.804Z"/>
	<path fill="#FDBB67" transform="scale(0.195312 0.195312)" d="M140.202 228.185C144.568 227.358 156.765 241.556 158.46 244.377C159.968 246.887 156.962 257.825 146.494 247.218L146.494 295.289C144.938 297.541 143.043 298.779 140.202 298.779C132.875 296.669 135.531 284.132 135.535 277.511L135.54 246.382C133.485 248.378 131.432 250.584 128.914 251.987C127.858 252.052 126.785 252.001 125.727 251.987C123.369 250.702 122.466 249.832 121.64 247.218C122.715 242.08 134.359 229.283 140.202 228.185Z"/>
	<path fill="#F98354" transform="scale(0.195312 0.195312)" d="M197.304 366.273C200.602 366.038 208.452 365.869 211.485 366.568C215.042 367.387 217.692 372.366 214.894 375.31C212.216 378.129 205.902 377.32 202.289 377.285C202.286 381.867 202.056 384.845 206.427 387.507C225.482 387.852 244.569 387.282 263.628 387.507C265.065 388.281 265.768 388.991 266.623 390.393C267.397 393.95 266.88 396.22 263.628 398.242L226.941 398.248C214.283 398.245 197.841 401.631 192.432 386.571C190.299 380.632 189.343 368.781 197.304 366.273Z"/>
	<path fill="#10B9CD" transform="scale(0.195312 0.195312)" d="M253.917 110.741C256.498 110.506 259.103 110.723 261.69 110.727L292.727 110.738C300.732 110.745 308.456 109.759 314.718 115.654C321.625 122.157 323.019 133.514 316.197 140.61C311.286 145.718 305.411 145.741 298.784 145.851C294.202 145.116 289.094 139.979 293.243 135.576C296.133 132.508 302.917 133.917 306.789 133.761L307.122 133.745C314.136 120.172 296.358 122.488 288.543 122.491C276.296 122.494 263.924 122.896 251.695 122.51C245.716 118.995 247.114 111.4 253.917 110.741Z"/>
	<path fill="#5978B6" transform="scale(0.195312 0.195312)" d="M169.182 404.244L179.905 404.244L179.935 422.365C179.942 428.872 181.322 438.1 172.712 439.687C162.24 441.619 129.442 440.615 117.864 440.222C103.23 439.725 104.117 433.651 104.119 420.967L104.139 404.244C107.661 404.375 111.222 404.257 114.747 404.244L169.182 404.244Z"/>
	<path fill="#34598C" transform="scale(0.195312 0.195312)" d="M134.548 416.171C140.9 416.78 150.267 413.322 153.985 420.073C154.164 424.121 153.401 426.862 149.004 427.169C144.627 427.193 135.135 428.007 131.56 425.953C126.663 423.138 130.161 417.087 134.548 416.171Z"/>
	<path fill="#68A0ED" transform="scale(0.195312 0.195312)" d="M104.139 404.244L104.119 329.621C104.105 321.057 103.185 311.989 114.898 311.737C126.84 311.48 138.844 311.782 150.792 311.757L163.377 311.732C179.566 311.705 179.966 314.425 179.92 330.074L179.905 404.244L169.182 404.244L169.182 334.286L114.747 334.286L114.747 404.244C111.222 404.257 107.661 404.375 104.139 404.244Z"/>
	<path fill="#FDFDFE" transform="scale(0.195312 0.195312)" d="M114.747 334.286L169.182 334.286L169.182 404.244L114.747 404.244L114.747 334.286Z"/>
	<path fill="#F98354" transform="scale(0.195312 0.195312)" d="M125.727 393.55C114.929 391.03 122.135 376.576 130.342 384.897C131.054 387.016 131.06 389.131 130.342 391.25C128.872 392.383 127.503 393.063 125.727 393.55Z"/>
	<path fill="#F98354" transform="scale(0.195312 0.195312)" d="M130.342 375.209C117.652 387.296 116.859 357.334 130.342 368.903C130.951 371.053 131.056 373.067 130.342 375.209Z"/>
	<path fill="#B5CBEE" transform="scale(0.195312 0.195312)" d="M130.342 368.903C133.53 368.528 137.006 368.882 140.23 368.888L162.263 368.903C162.26 371.004 162.228 373.109 162.263 375.209L140.397 375.229C137.137 375.233 133.562 375.557 130.342 375.209C131.056 373.067 130.951 371.053 130.342 368.903Z"/>
	<path fill="#B5CBEE" transform="scale(0.195312 0.195312)" d="M130.342 384.897L162.263 384.897C162.148 387.035 162.141 389.112 162.263 391.25L139.51 391.265C136.655 391.272 133.09 391.754 130.342 391.25C131.06 389.131 131.054 387.016 130.342 384.897Z"/>
	<path fill="#34598C" transform="scale(0.195312 0.195312)" d="M136.487 345.319L162.263 345.319L162.263 356.873L136.487 356.873L136.487 345.319Z"/>
	<path fill="#68A0ED" transform="scale(0.195312 0.195312)" d="M276.26 416.171L334.524 416.171L373.989 416.171L436.873 416.171C439.93 416.104 442.968 416.06 446.025 416.171C446.07 427.047 446.983 440.069 432.47 440.282C421.306 440.446 410.11 440.249 398.942 440.249L294.36 440.26C270.42 440.256 267.828 441.306 267.757 416.171L276.26 416.171Z"/>
	<path fill="#B5CBEE" transform="scale(0.195312 0.195312)" d="M334.524 416.171L373.989 416.171C374.073 422.93 371.971 428.313 364.473 428.537C351.162 428.934 334.504 432.998 334.524 416.171Z"/>
	<path fill="#68A0ED" transform="scale(0.195312 0.195312)" d="M74.2471 170.231L74.2471 173.203L142.881 173.164C144.891 173.179 147.01 173.015 149.004 173.203L175.083 173.203L223.128 173.194C225.416 173.195 233.003 174.214 234.499 173.203C235.993 174.066 239.181 172.965 242.546 175.026C245.497 180.069 246.034 186.683 244.555 192.316C242.259 201.054 231.881 198.787 225.151 198.734C216.985 198.669 208.781 198.636 200.616 198.754C197.387 198.422 193.836 198.728 190.576 198.735L82.8658 198.77C60.9831 198.837 65.2999 191.744 65.246 173.203C68.2432 173.106 71.2488 173.178 74.2471 173.203C74.1674 172.221 74.229 171.215 74.2471 170.231Z"/>
	<path fill="#B5CBEE" transform="scale(0.195312 0.195312)" d="M149.004 173.203L175.083 173.203C174.73 179.58 174.227 184.242 167.084 185.65C163.266 186.403 148.288 186.298 144.202 185.766C137.373 184.876 136.36 179.198 135.54 173.203C139.974 173.17 144.597 173.584 149.004 173.203Z"/>
	<path fill="#5978B6" transform="scale(0.195312 0.195312)" d="M337.71 101.718L380.422 101.736C388.806 101.734 406.388 98.0438 406.764 110.145C406.981 117.107 406.77 124.128 406.762 131.096L406.742 199.914C406.757 207.53 409.427 219.887 401.44 223.497C398.439 223.731 395.353 223.53 392.341 223.519L352.561 223.509C344.063 223.512 332.412 226.026 331.857 213.971C331.586 208.096 331.81 202.133 331.819 196.247L331.822 127.615C331.819 119.225 328.707 104.954 337.71 101.718Z"/>
	<path fill="#34598C" transform="scale(0.195312 0.195312)" d="M368.665 201.817C374.563 201.895 380.427 199.82 381.851 207.198C380.131 212.587 377.01 211.905 371.905 211.877C369.031 211.908 362.812 212.679 360.527 210.733C353.432 204.689 363.442 201.967 368.665 201.817Z"/>
	<path fill="#FDFDFE" transform="scale(0.195312 0.195312)" d="M342.103 118.578L396.884 118.578L396.884 190.193L396.674 190.357L395.902 190.24L395.835 190.486C390.002 189.669 383.192 190.194 377.272 190.192L342.103 190.193L342.103 118.578Z"/>
	<path fill="#DB852B" transform="scale(0.195312 0.195312)" d="M347.972 151.631L358.071 151.631C358.084 154.68 358.169 157.752 358.071 160.799C354.652 160.494 351.385 160.534 347.972 160.799L347.972 151.631Z"/>
	<path fill="#DB852B" transform="scale(0.195312 0.195312)" d="M347.972 169.053C351.521 168.571 354.505 168.531 358.071 169.053L358.071 177.802L347.972 177.802C347.884 174.89 347.956 171.966 347.972 169.053Z"/>
	<path fill="#B5CBEE" transform="scale(0.195312 0.195312)" d="M358.071 151.631C363.257 152.497 368.679 152.28 373.921 152.281L391.767 152.268L391.767 160.799L369.749 160.822C365.892 160.853 361.902 161.27 358.071 160.799C358.169 157.752 358.084 154.68 358.071 151.631Z"/>
	<path fill="#B5CBEE" transform="scale(0.195312 0.195312)" d="M358.071 169.053C362.236 168.873 366.435 169.031 370.604 169.045L391.767 169.053C391.899 171.978 391.845 174.876 391.767 177.802L370.15 177.821C366.129 177.842 362.081 178.131 358.071 177.802L358.071 169.053Z"/>
	<path fill="#5978B6" transform="scale(0.195312 0.195312)" d="M363.257 131.271L391.767 131.271L391.767 142.343L363.257 142.343L363.257 131.271Z"/>
	<path fill="#34598C" transform="scale(0.195312 0.195312)" d="M74.2471 170.231L74.2266 89.6391C74.1809 67.4873 78.9005 68.4412 100.906 68.4556L221.283 68.3637C234.93 68.4611 234.527 79.9505 234.516 89.983L234.499 173.203C233.003 174.214 225.416 173.195 223.128 173.194L175.083 173.203L149.004 173.203C147.01 173.015 144.891 173.179 142.881 173.164L74.2471 173.203L74.2471 170.231Z"/>
	<path fill="#44C2F9" transform="scale(0.195312 0.195312)" d="M85.7373 79.6864L223.493 79.6864L223.493 163.228L85.7373 163.228L85.7373 79.6864Z"/>
	<path fill="#68A0ED" transform="scale(0.195312 0.195312)" d="M130.342 100.775L163.993 100.764C170.348 100.766 177.423 100.164 183.662 101.283C204.609 105.038 209.059 140.91 179.905 145.851L147.923 145.855C141.142 145.862 133.066 146.548 126.454 145.16C101.633 139.946 102.483 103.152 130.342 100.775Z"/>
	<path fill="#FDFDFE" transform="scale(0.195312 0.195312)" d="M150.337 117.527C158.065 117.302 158.669 125.924 152.331 128.678C145.031 129.624 143.897 119.915 150.337 117.527Z"/>
	<path fill="#FDFDFE" transform="scale(0.195312 0.195312)" d="M131.282 117.527C138.939 117.689 140.919 126.201 133.627 128.678C126.015 129.09 125.097 120.747 131.282 117.527Z"/>
	<path fill="#FDFDFE" transform="scale(0.195312 0.195312)" d="M170.345 117.527C174.093 117.439 175.894 118.965 177.199 122.51C176.346 125.656 175.588 127.344 172.343 128.678C164.882 129.697 163.758 119.856 170.345 117.527Z"/>
	<path fill="#34598C" transform="scale(0.195312 0.195312)" d="M316.81 309.27L416.812 309.257C434.735 309.227 436.881 307.987 436.877 328.708L436.873 416.171L373.989 416.171L334.524 416.171L276.26 416.171L276.26 334.286C276.815 315.038 271.952 309.256 294.162 309.248C301.651 309.246 309.36 309.729 316.81 309.27Z"/>
	<path fill="#44C2F9" transform="scale(0.195312 0.195312)" d="M288.254 321.01L425.258 321.01L425.258 405.1L288.254 405.1L288.254 321.01Z"/>
	<path fill="#68A0ED" transform="scale(0.195312 0.195312)" d="M340.646 338.823L364.727 338.814C370.754 338.816 379.054 338.238 384.802 339.81C402.088 344.537 407.114 368.021 394.707 380.198C387.454 387.316 379.015 386.88 369.524 386.769L346.015 386.782C339.198 386.782 331.25 387.418 324.617 385.685C306.945 381.068 302.696 357.942 314.919 345.673C322.179 338.384 331.065 338.807 340.646 338.823Z"/>
	<path fill="#FDFDFE" transform="scale(0.195312 0.195312)" d="M373.136 356.873C376.535 357.468 377.938 359.391 378.913 362.64C378.046 365.607 377.249 367.238 373.989 368.012C365.977 367.661 366.611 358.943 373.136 356.873Z"/>
	<path fill="#FDFDFE" transform="scale(0.195312 0.195312)" d="M354.951 356.873C360.247 357.065 362.394 366.361 354.951 368.012C346.881 367.155 347.347 359.047 354.951 356.873Z"/>
	<path fill="#FDFDFE" transform="scale(0.195312 0.195312)" d="M334.524 356.873C340.744 357.036 343.257 364.549 337.71 368.012C328.946 368.369 327.248 360.626 334.524 356.873Z"/>
	<path fill="#88D7E0" transform="scale(0.195312 0.195312)" d="M242.546 175.026C246.518 173.143 263.233 173.948 267.649 174.642C293.444 178.696 314.386 196.468 325.382 219.888C329.808 229.315 334.206 247.548 331.82 257.984C333.395 269.341 328.368 286.191 323.193 296.332C321.783 299.095 313.654 309.45 316.81 309.27C309.36 309.729 301.651 309.246 294.162 309.248C271.952 309.256 276.815 315.038 276.26 334.286C273.252 334.699 255.558 334.696 252.83 334.286C221.368 332.753 190.89 304.55 182.919 274.736C181.513 269.478 180.959 264.112 179.905 258.79C180.144 257.261 179.941 255.456 179.999 253.889C180.777 232.794 187.117 215.278 200.616 198.754C208.781 198.636 216.985 198.669 225.151 198.734C231.881 198.787 242.259 201.054 244.555 192.316C246.034 186.683 245.497 180.069 242.546 175.026ZM218.624 258.79C208.158 257.5 191.222 259.092 179.905 258.79C180.959 264.112 181.513 269.478 182.919 274.736C190.89 304.55 221.368 332.753 252.83 334.286C255.558 334.696 273.252 334.699 276.26 334.286C276.815 315.038 271.952 309.256 294.162 309.248C301.651 309.246 309.36 309.729 316.81 309.27C313.654 309.45 321.783 299.095 323.193 296.332C328.368 286.191 333.395 269.341 331.82 257.984C318.931 257.62 304.791 257.669 291.894 257.984C287.238 267.197 281.431 274.407 271.268 277.776C266.584 279.328 253.438 280.674 249.173 278.41C246.134 276.797 244.943 272.247 246.693 269.286C250.705 262.499 267.753 270.783 276.26 258.79C275.237 258.233 246.98 258.77 244.107 258.79C240.095 258.592 236.063 259.105 232.075 258.79C247.043 231.59 272.244 257.247 269.718 237.214C266.466 233.395 261.826 232.271 256.995 231.886C239.026 230.454 223.987 241.996 218.624 258.79ZM281.781 233.688C282.241 244.595 281.927 249.206 276.26 258.79C267.753 270.783 250.705 262.499 246.693 269.286C244.943 272.247 246.134 276.797 249.173 278.41C253.438 280.674 266.584 279.328 271.268 277.776C281.431 274.407 287.238 267.197 291.894 257.984C294.955 249.194 295.279 244.367 295.205 235.124C296.376 235.903 297.495 236.638 298.784 237.214C304.276 235.538 305.946 233.961 305.706 228.185C304.405 225.959 291.279 212.316 289.541 211.881C285.02 210.746 273.675 222.459 270.587 226.515C265.169 233.632 274.762 240.67 281.781 233.688Z"/>
	<path fill="#10B9CD" transform="scale(0.195312 0.195312)" d="M218.624 258.79C223.987 241.996 239.026 230.454 256.995 231.886C261.826 232.271 266.466 233.395 269.718 237.214C272.244 257.247 247.043 231.59 232.075 258.79C236.063 259.105 240.095 258.592 244.107 258.79C246.98 258.77 275.237 258.233 276.26 258.79C267.753 270.783 250.705 262.499 246.693 269.286C244.943 272.247 246.134 276.797 249.173 278.41C253.438 280.674 266.584 279.328 271.268 277.776C281.431 274.407 287.238 267.197 291.894 257.984C304.791 257.669 318.931 257.62 331.82 257.984C333.395 269.341 328.368 286.191 323.193 296.332C321.783 299.095 313.654 309.45 316.81 309.27C309.36 309.729 301.651 309.246 294.162 309.248C271.952 309.256 276.815 315.038 276.26 334.286C273.252 334.699 255.558 334.696 252.83 334.286C221.368 332.753 190.89 304.55 182.919 274.736C181.513 269.478 180.959 264.112 179.905 258.79C191.222 259.092 208.158 257.5 218.624 258.79ZM218.624 258.79C216.815 265.824 216.815 273.137 217.009 280.353C211.132 276.002 204.522 278.951 205.961 284.891C206.767 288.221 221.161 302.533 223.028 303.474C226.4 305.173 237.906 290.83 241.902 287.299C242.829 284.507 243.092 281.261 240.384 279.444C236.642 276.726 233.697 278.378 229.987 280.353C229.96 273.289 228.827 265.306 232.075 258.79C247.043 231.59 272.244 257.247 269.718 237.214C266.466 233.395 261.826 232.271 256.995 231.886C239.026 230.454 223.987 241.996 218.624 258.79Z"/>
</svg>
