<?xml version="1.0" encoding="utf-8" ?>
<svg xmlns="http://www.w3.org/2000/svg" xmlns:xlink="http://www.w3.org/1999/xlink" width="100" height="100">
	<path fill="#365898" transform="scale(0.195312 0.195312)" d="M124.777 313.794L124.765 294.208C124.763 290.829 123.637 283.364 125.958 280.536C128.894 276.96 134.789 278.391 135.582 282.902C136.15 286.133 135.757 289.903 135.753 293.196L135.732 313.794L154.212 313.794C171.271 314.013 198.75 310.553 198.335 336.476L198.009 374.579L250.976 374.579L250.954 355.765C250.953 352.37 249.845 345.172 252.489 342.478C254.282 340.65 258.492 340.58 260.199 342.582C262.727 345.548 262.024 351.165 262.026 354.745L262.007 367.81C262.315 368.706 262.073 369.887 262.007 370.836C277.893 367.939 293.508 364.821 307.601 356.348C309.943 354.94 312.129 353.199 314.713 352.242L314.703 340.948C314.721 312.294 329.157 314.923 351.748 313.794L365.425 313.794C370.143 305.524 372.343 298.191 375.951 289.695C375.852 290.696 375.878 291.636 375.951 292.638C376.207 287.849 374.537 283.915 378.114 279.89C392.611 273.967 387.359 305.249 387.452 313.794C412.733 314.841 428.793 310.426 428.805 342.425L428.811 389.277C428.807 403.113 430.832 420.869 411.96 424.037C408.19 424.67 404.076 424.316 400.253 424.291L350.617 424.276C340.582 424.28 327.641 426.468 320.15 418.181C312.839 410.092 314.569 395.885 314.713 385.492L198.009 385.492C197.981 397.071 200.666 410.074 192.144 418.522C186.574 424.044 165.232 429.02 163.579 418.742C157.241 418.197 149.392 418.646 142.649 418.31L142.396 418.742C140.62 427.215 125.039 424.242 117.72 424.256C101.664 424.289 83.3498 424.651 83.1082 403.147C82.9246 386.81 83.0869 370.45 83.0925 354.111L83.0998 340.514C83.1166 320.001 90.7631 313.733 110.877 313.768L124.777 313.794Z"/>
	<path fill="#E3EBF2" transform="scale(0.195312 0.195312)" d="M375.951 289.695C375.852 290.696 375.878 291.636 375.951 292.638L375.951 313.794C372.441 313.891 368.934 313.793 365.425 313.794C370.143 305.524 372.343 298.191 375.951 289.695Z"/>
	<path fill="#C5C6D1" transform="scale(0.195312 0.195312)" d="M262.007 370.836C277.893 367.939 293.508 364.821 307.601 356.348C309.943 354.94 312.129 353.199 314.713 352.242L314.713 374.579L279.493 374.59C273.698 374.591 267.791 374.831 262.007 374.579C261.891 372.356 261.714 370.026 262.007 367.81C262.315 368.706 262.073 369.887 262.007 370.836Z"/>
	<path fill="#E3EBF2" transform="scale(0.195312 0.195312)" d="M106.015 413.498C97.0487 413.302 93.974 409.283 93.9388 400.508L93.907 340.477C93.8712 322.552 99.1758 324.522 115.887 324.674C115.324 325.495 114.039 325.582 113.206 326.036C103.035 331.582 106 347.778 106.003 357.964L106.019 395.346C106.023 401.343 106.361 407.524 106.015 413.498Z"/>
	<path fill="#E3EBF2" transform="scale(0.195312 0.195312)" d="M340.619 413.498C325.199 414.872 325.52 408.458 325.524 395.813L325.527 347.952C325.498 326.548 323.26 324.641 347.872 324.658L395.487 324.67C404.629 324.631 417.054 322.979 418 335.724L345.141 335.724C342.284 338.031 339.156 340.845 336.763 343.629C336.548 357.546 336.756 371.501 336.755 385.422L336.757 399.702C336.759 404.898 335.639 410.282 340.619 413.498Z"/>
	<path fill="#72CCE9" transform="scale(0.195312 0.195312)" d="M345.141 335.724L418 335.724C417.913 340.695 417.717 345.809 418 350.769L395.006 350.757C378.264 350.762 360.06 350.864 354.578 371.402C353.784 374.376 352.436 412.227 353.479 413.498L340.619 413.498C335.639 410.282 336.759 404.898 336.757 399.702L336.755 385.422C336.756 371.501 336.548 357.546 336.763 343.629C339.156 340.845 342.284 338.031 345.141 335.724Z"/>
	<path fill="#89DAE8" transform="scale(0.195312 0.195312)" d="M353.479 413.498C352.436 412.227 353.784 374.376 354.578 371.402C360.06 350.864 378.264 350.762 395.006 350.757L418 350.769L418.006 387.427C418.006 392.777 418.521 400.234 417.73 405.379C415.989 416.693 401.203 413.47 393.166 413.479L353.479 413.498Z"/>
	<path fill="#72CCE9" transform="scale(0.195312 0.195312)" d="M115.887 324.674L159.037 324.669C167.719 324.668 185.444 321.285 187.222 333.685C187.667 336.79 187.275 340.152 187.254 343.297L187.25 393.794C187.264 398.973 189.234 406.813 185.031 410.785C178.491 416.966 165.726 408.652 163.579 418.742C157.241 418.197 149.392 418.646 142.649 418.31L142.396 418.742C141.087 411.612 133.055 413.477 127.741 413.478L106.015 413.498C106.361 407.524 106.023 401.343 106.019 395.346L106.003 357.964C106 347.778 103.035 331.582 113.206 326.036C114.039 325.582 115.324 325.495 115.887 324.674Z"/>
	<path fill="#365898" transform="scale(0.195312 0.195312)" d="M147.436 343.629L160.665 343.606C164.737 343.583 173.367 342.376 173.722 348.549C174.147 355.929 162.853 354.228 158.458 354.226L135.732 354.22L122.365 354.267C118.824 354.274 113.948 355.017 111.075 352.397C109.159 350.651 109.009 347.453 110.917 345.646C114.459 342.291 122.345 343.607 126.744 343.622L147.436 343.629Z"/>
	<path fill="#365898" transform="scale(0.195312 0.195312)" d="M114.296 362.752C130.645 362.278 151.386 361.971 167.655 362.799C174.753 363.16 175.705 371.808 169.063 373.446L131.385 373.445C125.113 373.446 118.784 373.658 112.519 373.446C108.481 369.284 108.668 364.934 114.296 362.752Z"/>
	<path fill="#365898" transform="scale(0.195312 0.195312)" d="M115.887 382.304L160.756 382.301C164.034 382.272 168.461 381.565 171.374 383.45C176.493 386.764 172.8 392.498 168.011 393.234L121.517 393.213C103.607 393.314 108.997 382.984 115.887 382.304Z"/>
	<path fill="#365898" transform="scale(0.195312 0.195312)" d="M124.777 196.506L111.103 196.524C81.5 196.564 83.1062 183.494 83.1026 158.192L83.0817 108.968C82.9403 80.9253 98.0123 83.4702 121.012 83.4682L172.529 83.4744C201.53 83.4911 197.679 99.6967 198.009 122.752L314.713 122.752L314.682 110.258C314.653 106.532 314.353 102.593 315.099 98.9284C318.473 82.3567 332.969 83.4694 345.435 83.4668L397.76 83.4718C429.845 83.4862 428.862 92.9365 428.786 123.255C428.769 129.941 431.378 143.007 421.868 143.98C421.864 151.605 421.585 159.334 421.868 166.95C428.663 167.546 428.86 172.967 428.193 178.719C426.428 193.928 413.157 195.556 400.866 195.537L387.452 195.525L387.448 215.177C387.501 221.254 389.094 235.377 378.114 230.435C377.325 229.542 376.605 228.67 375.951 227.669C375.663 225.539 375.819 223.45 375.951 221.315C375.621 220.866 364.664 196.265 364.441 195.525C359.794 195.173 354.874 195.515 350.197 195.525L339.992 195.528C320.63 195.56 314.683 187.112 314.693 168.358L314.713 156.032L314.53 155.916C300.006 146.486 278.653 138.207 261.351 138.936C261.351 141.612 261.646 163.414 261.351 163.94C261.183 170.104 254.21 172.703 250.976 166.95C250.419 164.23 250.915 160.769 250.945 157.96L250.976 142.19C250.292 141.412 250.212 139.955 249.974 138.936C225.08 141.236 218.869 145.198 198.009 156.032L198.021 168.446C198.014 185.933 193.397 196.795 173.755 196.585L153.379 196.506L135.732 196.506L135.75 215.778C135.751 220.145 137.491 231.24 130.632 231.481C123.166 231.744 124.784 220.442 124.778 215.76L124.777 196.506ZM108.159 185.572C108.957 185.595 109.628 185.568 110.409 185.4L110.481 185.138C102.844 178.03 105.503 168.392 105.521 158.465L105.425 123.212C105.366 107.81 112.638 105.944 126.357 105.94L140.155 105.939C155.846 105.94 171.556 105.757 187.244 105.942C187.36 93.0828 179.12 94.2347 168.974 94.2344L118.039 94.2316C98.2476 94.2301 93.9123 90.0708 93.9162 113.453L93.9419 160.771C93.9471 174.288 90.3747 186.555 108.159 185.572Z"/>
	<path fill="#E3EBF2" transform="scale(0.195312 0.195312)" d="M364.441 195.525C368.267 195.547 372.128 195.659 375.951 195.525L375.951 221.315C375.621 220.866 364.664 196.265 364.441 195.525Z"/>
	<path fill="#C5C6D1" transform="scale(0.195312 0.195312)" d="M198.009 133.665L250.976 133.665C250.42 136.822 250.471 139.018 250.976 142.19C250.292 141.412 250.212 139.955 249.974 138.936C225.08 141.236 218.869 145.198 198.009 156.032L198.009 133.665Z"/>
	<path fill="#C5C6D1" transform="scale(0.195312 0.195312)" d="M261.351 133.665C267.115 133.314 273.123 133.654 278.911 133.656L314.713 133.665L314.713 156.032L314.53 155.916C300.006 146.486 278.653 138.207 261.351 138.936C261.351 141.612 261.646 163.414 261.351 163.94C261.095 153.877 261.34 143.735 261.351 133.665Z"/>
	<path fill="#E3EBF2" transform="scale(0.195312 0.195312)" d="M341.69 184.952C331.012 185.016 325.579 183.743 325.539 171.885L325.536 110.307C325.539 93.834 328.505 94.2399 344.323 94.2391C343.345 97.4424 339.595 99.8808 338.222 103.159C336.255 107.854 336.298 132.901 337.493 137.749C337.484 138.763 337.451 139.783 337.493 140.796C336.644 146.501 336.346 152.221 337.493 157.917L337.493 160.495C336.883 164.556 336.325 177.614 338.728 180.94C339.409 181.883 341.518 183.905 341.69 184.952Z"/>
	<path fill="#72CCE9" transform="scale(0.195312 0.195312)" d="M108.159 185.572C108.957 185.595 109.628 185.568 110.409 185.4L110.481 185.138C102.844 178.03 105.503 168.392 105.521 158.465L105.425 123.212C105.366 107.81 112.638 105.944 126.357 105.94L140.155 105.939C155.846 105.94 171.556 105.757 187.244 105.942C187.088 110.121 187.249 114.29 187.244 118.47L167.875 118.458C128.449 118.393 119.756 135.487 119.801 172.336L119.806 185.572C123.578 185.553 127.85 185.107 131.572 185.572C125.448 185.822 114.098 186.136 108.159 185.572Z"/>
	<path fill="#89DAE8" transform="scale(0.195312 0.195312)" d="M119.806 185.572L119.801 172.336C119.756 135.487 128.449 118.393 167.875 118.458L187.244 118.47L187.253 157.456C187.254 163.559 187.862 171.869 186.765 177.713C184.785 188.259 170.761 185.581 163.162 185.583L131.572 185.572C127.85 185.107 123.578 185.553 119.806 185.572Z"/>
	<path fill="#72CCE9" transform="scale(0.195312 0.195312)" d="M344.323 94.2391L387.583 94.2289C394.601 94.23 404.038 93.609 410.865 94.7468C418.831 96.0745 417.247 106.961 417.239 112.764L417.186 131.911C417.176 136.989 415.998 142.156 421.868 143.98C421.864 151.605 421.585 159.334 421.868 166.95L421.549 167.069C413.331 170.211 420.717 180.81 412.744 183.974C406.768 186.345 391.137 184.961 384.32 184.962L341.69 184.952C341.518 183.905 339.409 181.883 338.728 180.94C336.325 177.614 336.883 164.556 337.493 160.495L337.493 157.917C336.346 152.221 336.644 146.501 337.493 140.796C337.451 139.783 337.484 138.763 337.493 137.749C336.298 132.901 336.255 107.854 338.222 103.159C339.595 99.8808 343.345 97.4424 344.323 94.2391Z"/>
	<path fill="#365898" transform="scale(0.195312 0.195312)" d="M385.102 113.662C388.869 113.662 396.57 112.674 399.442 115.139C401.65 117.035 401.792 121.264 399.716 123.299C396.548 126.404 385.699 125.051 381.546 125.052L354.125 125.043C347.215 124.953 339.956 127.475 337.493 119.23C340.175 111.133 350.155 113.654 357.409 113.653L385.102 113.662Z"/>
	<path fill="#365898" transform="scale(0.195312 0.195312)" d="M337.493 137.749C341.924 130.694 351.121 133.659 359.089 133.667L384.172 133.659C388.1 133.651 392.123 133.407 396.037 133.604C400.607 133.834 408.584 144.892 389.23 144.766L355.601 144.743C349.859 144.745 340.891 146.566 337.493 140.796C337.451 139.783 337.484 138.763 337.493 137.749Z"/>
	<path fill="#365898" transform="scale(0.195312 0.195312)" d="M337.493 157.917C341.879 151.121 348.894 153.271 356.126 153.27L380.444 153.295C385.131 153.301 400.194 150.748 401.247 157.658C402.534 166.1 392.057 164.791 386.84 164.753L352.78 164.752C346.711 164.754 341.055 166.47 337.493 160.495L337.493 157.917Z"/>
	<path fill="#E3EBF2" transform="scale(0.195312 0.195312)" d="M261.351 138.936C278.653 138.207 300.006 146.486 314.53 155.916L314.713 156.032L314.693 168.358C314.683 187.112 320.63 195.56 339.992 195.528L350.197 195.525C354.874 195.515 359.794 195.173 364.441 195.525C364.664 196.265 375.621 220.866 375.951 221.315C375.819 223.45 375.663 225.539 375.951 227.669C376.605 228.67 377.325 229.542 378.114 230.435C377.778 233.86 378.908 237.432 379.373 240.817C379.56 242.177 379.315 248.756 380.249 249.472C388.409 250.151 387.038 260.482 379.748 260.747C379.78 267.305 379.547 273.45 378.114 279.89C374.537 283.915 376.207 287.849 375.951 292.638C375.878 291.636 375.852 290.696 375.951 289.695C372.343 298.191 370.143 305.524 365.425 313.794L351.748 313.794C329.157 314.923 314.721 312.294 314.703 340.948L314.713 352.242C312.129 353.199 309.943 354.94 307.601 356.348C293.508 364.821 277.893 367.939 262.007 370.836C262.073 369.887 262.315 368.706 262.007 367.81L262.026 354.745C262.024 351.165 262.727 345.548 260.199 342.582C258.492 340.58 254.282 340.65 252.489 342.478C249.845 345.172 250.953 352.37 250.954 355.765L250.976 374.579L198.009 374.579L198.335 336.476C198.75 310.553 171.271 314.013 154.212 313.794C153.784 311.879 150.473 308.569 149.352 306.534C142.221 293.587 135.121 275.681 135.218 260.747C130.376 260.855 128.014 260.151 126.659 255.208C127.667 250.535 129.829 249.669 134.455 249.472L134.866 249.11L134.876 248.618C135.238 233.49 143.321 206.155 153.379 196.506L173.755 196.585C193.397 196.795 198.014 185.933 198.021 168.446L198.009 156.032C218.869 145.198 225.08 141.236 249.974 138.936C250.212 139.955 250.292 141.412 250.976 142.19L250.945 157.96C250.915 160.769 250.419 164.23 250.976 166.95C254.21 172.703 261.183 170.104 261.351 163.94C261.646 163.414 261.351 141.612 261.351 138.936Z"/>
	<path fill="#365898" transform="scale(0.195312 0.195312)" d="M134.455 249.472L155.035 249.447C158.193 249.445 161.935 249.06 165.021 249.652C169.389 250.49 171.009 256.448 167.695 259.369C164.892 261.84 156.985 260.764 153.559 260.764L135.218 260.747C130.376 260.855 128.014 260.151 126.659 255.208C127.667 250.535 129.829 249.669 134.455 249.472Z"/>
	<path fill="#365898" transform="scale(0.195312 0.195312)" d="M368.519 260.747L355.194 260.78C352.068 260.786 346.997 261.622 344.464 259.287C341.378 256.442 342.28 250.516 346.598 249.6C349.028 249.084 351.867 249.428 354.354 249.441L368.519 249.472C372.33 249.486 376.479 249.85 380.249 249.472C388.409 250.151 387.038 260.482 379.748 260.747C376.046 260.543 372.233 260.739 368.519 260.747Z"/>
	<path fill="#C5C6D1" transform="scale(0.195312 0.195312)" d="M368.519 260.747C372.233 260.739 376.046 260.543 379.748 260.747C379.78 267.305 379.547 273.45 378.114 279.89C374.537 283.915 376.207 287.849 375.951 292.638C375.878 291.636 375.852 290.696 375.951 289.695C372.343 298.191 370.143 305.524 365.425 313.794L351.748 313.794C361.564 295.426 368.404 283.354 368.519 260.747Z"/>
	<path fill="#C5C6D1" transform="scale(0.195312 0.195312)" d="M350.197 195.525C354.874 195.515 359.794 195.173 364.441 195.525C364.664 196.265 375.621 220.866 375.951 221.315C375.819 223.45 375.663 225.539 375.951 227.669C376.605 228.67 377.325 229.542 378.114 230.435C377.778 233.86 378.908 237.432 379.373 240.817C379.56 242.177 379.315 248.756 380.249 249.472C376.479 249.85 372.33 249.486 368.519 249.472C367.974 230.015 360.508 211.776 350.197 195.525Z"/>
	<path fill="#365898" transform="scale(0.195312 0.195312)" d="M243.658 182.52C252.299 182.342 261.839 182.233 270.437 182.52C275.003 187.011 273.201 194.536 273.174 200.361C276.448 201.525 279.445 202.968 282.443 204.723C293.84 189.928 293.865 193.487 304.936 204.525C320.947 220.488 317.921 214.62 306.928 228.853L306.645 229.224C308.38 232.109 309.65 235.002 310.691 238.205C325.119 238.218 327.026 235.749 327.588 250.893C328.463 274.492 327.785 271.667 310.691 272.16C309.679 275.798 308.199 279.147 306.645 282.574C317.725 295.285 321.928 290.616 308.602 304.302C294.09 319.206 297.37 321.538 282.443 306.735C279.364 308.125 276.285 309.51 273.174 310.827C273.165 315.525 274.468 324.351 270.437 327.743C265.904 328.428 260.885 327.746 256.291 327.754C237.844 327.786 239.227 329.947 239.246 310.827C236.292 309.501 233.345 308.175 230.444 306.735C227.301 309.962 220.819 320.044 215.356 316.637C212.624 314.933 195.403 298.889 195.674 294.365C195.874 291.031 202.814 284.749 205.461 282.574C203.758 279.45 202.19 276.365 201.459 272.862C194.966 272.917 186.171 275.298 185.322 267.42C184.845 262.995 184.751 245.677 185.439 241.69C185.74 239.942 186.943 239.142 188.321 238.205C192.689 238.063 197.088 238.182 201.459 238.205C202.509 234.926 203.617 232.145 205.461 229.224C202.294 226.591 192.518 219.73 195.946 214.676C197.799 211.944 211.418 198.482 214.762 195.857C219.848 191.866 226.986 202.194 230.444 204.723C233.177 202.546 235.825 201.208 239.246 200.361C239.289 195.332 236.64 183.601 243.658 182.52Z"/>
	<path fill="#FAC283" transform="scale(0.195312 0.195312)" d="M249.974 193.695L262.007 193.695C262.984 202.791 258.329 207.527 267.975 210.14C275.342 212.136 278.416 215.964 283.925 217.947C287.592 216.126 290.882 211.649 293.583 208.577C296.868 211.655 299.976 214.911 303.303 217.947C288.63 231.15 294.122 224.388 299.272 237.72C304.913 252.32 297.62 248.544 316.44 249.453L316.775 249.472C316.89 253.558 316.809 257.655 316.775 261.742C295.69 262.024 305.943 259.223 298.91 274.568C297.563 277.507 294.43 280.958 294.052 284.133C293.674 287.308 300.814 291.914 303.303 295.117C300.023 297.571 297.112 300.932 294.577 304.139C281.651 287.559 285.632 295.252 273.497 299.396C270.505 300.417 265.846 300.863 263.247 302.343C261.137 303.545 262.705 314.163 261.967 316.693L261.351 316.9L249.974 316.9C248.998 296.185 253.054 305.723 237.461 298.737C223.515 292.488 230.926 291.088 217.76 304.139C214.749 301.1 211.683 298.115 208.632 295.117C226.075 276.088 215.104 287.132 211.27 268.71C209.209 258.806 207.271 261.658 196.179 261.742L196.179 249.472C205.24 248.722 208.645 252.932 210.954 243.869C212.611 237.369 216.332 233.433 218.446 227.669C216.828 223.731 211.763 219.968 208.632 217.107C211.576 214.388 214.36 210.662 217.76 208.577C220.276 210.163 226.111 217.69 228.484 217.599C231.442 217.485 235.295 213.284 238.349 212.078C252.67 206.424 250.06 212.424 249.974 193.695Z"/>
	<path fill="#72CCE9" transform="scale(0.195312 0.195312)" d="M253.419 233.332C280.503 231.362 289.727 269.721 259.171 277.543C253.317 278.495 246.955 276.422 242.271 272.912C226.028 260.737 234.464 235.953 253.419 233.332Z"/>
</svg>
