<?xml version="1.0" encoding="utf-8" ?>
<svg xmlns="http://www.w3.org/2000/svg" xmlns:xlink="http://www.w3.org/1999/xlink" width="100" height="100">
	<path fill="#45454B" transform="scale(0.195312 0.195312)" d="M117.035 175.694C121.41 175.786 122.119 185.607 118.81 187.801C112.763 188.047 114.063 177.608 117.035 175.694Z"/>
	<path fill="#45454B" transform="scale(0.195312 0.195312)" d="M393.164 214.514C400.366 214.23 396.269 228.743 395.259 229.319C387.816 231.27 391.637 215.675 393.164 214.514Z"/>
	<path fill="#45454B" transform="scale(0.195312 0.195312)" d="M393.164 238.037C400.627 237.75 396.31 255.984 395.259 256.81C387.544 257.263 392.033 238.892 393.164 238.037Z"/>
	<path fill="#45454B" transform="scale(0.195312 0.195312)" d="M206.576 104.679C209.3 104.659 229.659 102.089 223.452 109.801C222.185 109.808 198.538 111.496 206.576 104.679Z"/>
	<path fill="#45454B" transform="scale(0.195312 0.195312)" d="M392.619 178.24C395.926 177.877 396.471 179.449 396.686 182.344C396.983 186.334 398.24 204.243 395.259 206.374C389.081 207.454 391.444 194.496 391.451 190.097C391.456 186.748 390.269 180.984 392.619 178.24Z"/>
	<path fill="#45454B" transform="scale(0.195312 0.195312)" d="M309.231 144.746C311.652 144.558 319.427 143.495 319.349 147.608C319.288 150.829 311.986 149.617 309.749 150.077C300.254 152.029 299.713 161.753 299.723 169.718L299.75 180.062L299.751 180.879C299.754 182.701 298.651 185.717 296.193 184.626C292.878 183.154 294.236 161.744 294.763 158.899C296.122 151.562 302.109 146.383 309.231 144.746Z"/>
	<path fill="#45454B" transform="scale(0.195312 0.195312)" d="M237.21 104.679C255.258 103.787 257.741 115.481 257.702 129.434L257.693 143.595C257.688 156.115 257.939 168.678 257.722 181.192C257.673 183.997 256.446 186.12 253.553 184.612C251.118 180.663 252.425 170.524 252.427 165.844L252.45 134.5C252.455 127.294 254.072 119.043 248.636 113.39C243.101 107.635 234.152 111.712 232.391 107.536C232.638 105.129 235.291 104.785 237.21 104.679Z"/>
	<path fill="#45454B" transform="scale(0.195312 0.195312)" d="M158.783 87.1381C193.774 86.7679 211.078 123.834 190.292 148.633C177.014 164.474 153.536 166.275 137.835 152.912C135.255 150.365 133.211 147.718 131.166 144.746C115.74 150.693 122.788 166.35 118.789 168.501C112.799 171.724 115.434 156.288 115.972 154.364C118.097 146.777 122.324 143.704 128.895 140.037C118.242 115.695 133.428 91.2927 158.783 87.1381ZM131.166 128.136C132.118 127.08 133.347 120.826 134.128 118.965C143.318 97.072 172.475 91.0473 187.936 110.396C189.388 112.212 191.518 117.289 193.235 118.001C181.549 75.5702 126.677 91.0898 131.166 128.136Z"/>
	<path fill="#FCB000" transform="scale(0.195312 0.195312)" d="M131.166 131.049L132.127 131.143C133.721 132.25 134.865 135.12 136.14 136.722C148.723 152.532 175.064 153.48 187.548 136.918C189.431 134.42 190.59 130.95 193.235 129.14C188.567 161.692 143.007 169.091 131.166 131.049Z"/>
	<path fill="#FEC949" transform="scale(0.195312 0.195312)" d="M131.166 128.136C132.118 127.08 133.347 120.826 134.128 118.965C143.318 97.072 172.475 91.0473 187.936 110.396C189.388 112.212 191.518 117.289 193.235 118.001C193.67 121.662 193.676 125.48 193.235 129.14C190.59 130.95 189.431 134.42 187.548 136.918C175.064 153.48 148.723 152.532 136.14 136.722C134.865 135.12 133.721 132.25 132.127 131.143L131.166 131.049C131.109 130.084 131.156 129.103 131.166 128.136Z"/>
	<path fill="#45454B" transform="scale(0.195312 0.195312)" d="M156.619 103.999C160.7 103.663 176.407 121.163 176.726 123.45C177.077 125.972 168.129 133.608 166.317 136.004C164.168 137.368 154.618 149.625 154.054 139.374C153.685 132.66 151.522 107.298 156.619 103.999Z"/>
	<path fill="#09B6F4" transform="scale(0.195312 0.195312)" d="M158.783 111.64C162.896 114.439 167.354 119.773 171.112 123.349C168.922 125.486 166.825 127.71 164.718 129.929C162.899 132.093 160.914 134.146 158.783 136.004C158.788 127.909 158.475 119.722 158.783 111.64Z"/>
	<path fill="#45454B" transform="scale(0.195312 0.195312)" d="M342.482 70.7564L427.966 70.747C431.365 70.7469 435.235 70.4216 438.579 71.0368C456.477 74.3288 453.274 92.5305 453.28 105.787L453.275 146.232C453.247 164.3 447.046 168.985 429.503 168.963L417.531 168.937L379.418 168.939C373.055 168.94 366.658 169.119 360.3 168.937C356.018 172.487 351.785 176.113 347.605 179.784C331.207 194.191 334.37 185.759 334.732 168.937C324.964 164.011 326.498 156.577 326.512 147.357L326.517 97.4326C326.496 84.307 326.425 73.6955 342.482 70.7564Z"/>
	<path fill="#E1F1F8" transform="scale(0.195312 0.195312)" d="M331.751 87.9925C334.064 72.6548 348.129 76.1103 359.717 76.1049L420.631 76.1025C432.125 76.1047 444.026 73.0569 448 87.1381C440.496 78.2241 433.432 81.2202 422.48 81.223L356.673 81.2187C345.133 81.2141 340.136 78.7314 331.751 87.9925Z"/>
	<path fill="#09B6F4" transform="scale(0.195312 0.195312)" d="M400.169 146.017C410.423 146.674 425.017 146.351 435.301 145.98C441.902 145.742 443.884 143.128 448 138.707C448.076 150.82 449.822 163.66 433.867 163.732L366.526 163.683C363.886 163.677 361.163 163.528 358.534 163.703C355.963 165.4 353.684 167.588 351.344 169.586L339.995 179.214L339.995 164.479C328.467 161.038 331.728 153.406 331.751 142.726C341.853 147.198 341.746 146.03 353.129 146.028L378.658 146.017C384.329 151.81 394.429 151.425 400.169 146.017Z"/>
	<path fill="#54C7F9" transform="scale(0.195312 0.195312)" d="M331.751 87.9925C340.136 78.7314 345.133 81.2141 356.673 81.2187L422.48 81.223C433.432 81.2202 440.496 78.2241 448 87.1381C447.618 104.31 448.238 121.528 448 138.707C443.884 143.128 441.902 145.742 435.301 145.98C425.017 146.351 410.423 146.674 400.169 146.017C394.429 151.425 384.329 151.81 378.658 146.017L353.129 146.028C341.746 146.03 341.853 147.198 331.751 142.726L331.779 103.873C331.792 98.6775 331.248 93.138 331.751 87.9925Z"/>
	<path fill="#45454B" transform="scale(0.195312 0.195312)" d="M377.286 108.705C377.484 104.195 376.635 98.4565 379.938 94.8567C383.719 90.7362 395.486 91.0527 399.224 94.6662C402.719 98.0453 402.146 104.214 402.241 108.705C409.867 108.566 418.022 108.933 418.365 118.466C418.857 132.129 415.261 133.875 402.241 133.777C402.306 138.209 402.649 142.085 400.169 146.017C394.429 151.425 384.329 151.81 378.658 146.017C376.657 142.37 377.234 137.795 377.286 133.777C372.863 133.763 367.426 134.3 364.032 130.881C359.51 126.325 360.257 115.306 364.765 111.024C368.059 107.895 373.105 108.662 377.286 108.705Z"/>
	<path fill="#FEC949" transform="scale(0.195312 0.195312)" d="M386.461 97.3287C404.857 96.3435 392.616 106.9 397.433 112.658C399.966 115.686 407.027 113.823 410.564 114.092C413.869 116.618 414.092 121.513 412.742 125.245C410.582 131.219 402.245 126.232 398.262 128.485C393.242 131.325 400.83 140.983 393.164 144.746C374.766 145.548 386.431 134.589 382.419 129.672C380.318 127.097 372.585 128.642 369.407 128.136C366.305 125.34 365.619 119.998 367.504 116.306C369.906 111.602 376.854 115.363 380.724 114.038C386.615 112.022 379.029 99.7429 386.461 97.3287Z"/>
	<path fill="#45454B" transform="scale(0.195312 0.195312)" d="M264.38 194.415L335.263 194.396C349.571 194.386 363.127 196.505 367.61 213.302C369.503 220.396 368.705 229.485 368.706 236.882L368.7 265.747L420.509 265.697C437.686 265.57 437.037 272.339 437 288.184L437.002 408.821C437.014 418.538 440.232 437.789 426.658 440.276C423.8 440.8 420.637 440.568 417.731 440.569L358.651 440.752C343.081 440.791 344.746 425.773 344.745 415.512L344.755 394.921L280.439 394.921C282.085 403.481 286.181 417.063 295.992 419.434C301.451 420.753 323.441 417.369 323.739 422.052C324.068 427.202 310.364 425.004 306.689 425.002L275.031 424.994L197.623 425.164C191.837 425.155 189.884 419.685 202.603 419.722L214.503 419.768C231.972 419.966 234.36 411.881 238.464 394.921C232.631 394.699 226.721 394.909 220.878 394.912L185.672 394.931C178.853 394.935 169.493 395.65 163.014 394.213C139.547 389.01 142.233 366.134 142.231 348.359L142.23 299.998L91.1568 299.987C86.1523 299.984 77.6311 300.774 73.1379 299.948C64.9206 298.437 59.2869 291.028 59.1885 282.775C58.9982 266.816 59.1919 250.836 59.1881 234.875L59.188 220.555C59.2082 199.95 65.807 197.196 85.5014 197.192L159.998 197.187C168.404 197.147 173.218 194.673 179.689 194.497C189.781 194.223 199.922 194.41 210.019 194.409L264.38 194.415ZM183.971 199.705C195.247 211.596 191.651 222.267 191.653 238.169C191.655 253.389 191.961 268.673 191.665 283.886C191.491 292.852 186.403 298.188 177.906 299.998C178.616 303.571 178.929 306.657 180.258 310.119C184.759 313.137 204.46 321.561 210.449 322.195L210.691 322.057L211.009 320.362L211.001 320.766C210.85 329.594 215.69 334.571 224.451 334.636L283.231 334.599C300.008 334.539 300.833 329.62 300.793 314.051C300.735 304.043 296.46 295.985 288.084 290.185C288.661 286.653 292.164 285.345 294.934 283.637C315.401 271.019 338.657 251.634 349.994 230.147C352.415 225.558 356.986 211.971 360.3 209.399C350.269 197.041 342.561 199.691 328.342 199.697L183.971 199.705ZM352.021 297.831C348.361 298.039 350.007 302.969 350.003 306.788L349.993 378.523C349.996 387.226 350.42 396.014 349.994 404.701L429.563 404.701C433.357 404.563 431.588 397.7 431.586 393.851L431.569 297.831L352.021 297.831ZM64.4033 212.132C64.1141 219.112 64.4029 226.215 64.4033 233.211L64.4033 276.306C75.1491 276.301 86.0256 275.921 96.7568 276.306C96.0673 278.61 94.9067 281.086 96.3517 283.346C100.862 290.399 108.768 279.576 118.948 281.879C127.835 283.889 136.606 280.651 144.035 275.963C145.615 276.658 181.022 276.504 186.027 276.306L186.036 235.308C186.036 227.545 187.758 214.807 183.971 207.783C177.92 207.287 171.266 207.788 165.152 207.786L89.7438 207.79C80.8139 207.786 72.0469 205.642 64.9002 211.706L64.4033 212.132ZM147.502 362.246C147.179 378.644 153.728 389.258 171.112 389.588C191.323 389.971 211.605 389.644 231.823 389.64L344.755 389.636C344.928 380.51 344.644 371.373 344.755 362.246L147.502 362.246ZM64.4033 212.132L64.9002 211.706C72.0469 205.642 80.8139 207.786 89.7438 207.79L165.152 207.786C171.266 207.788 177.92 207.287 183.971 207.783C178.093 199.988 166.562 202.338 157.99 202.336L92.424 202.33C81.2587 202.33 69.2083 199.058 64.4033 212.132Z"/>
	<path fill="#BAE7F8" transform="scale(0.195312 0.195312)" d="M244.2 394.921L275.031 394.921C276.333 405.206 279.42 412.071 286.219 419.758L275.031 419.758L233.279 419.758C239.954 408.861 240.834 408.794 244.2 394.921Z"/>
	<path fill="#54C7F9" transform="scale(0.195312 0.195312)" d="M355.49 271.263C359.672 270.617 364.061 271.243 368.277 271.257L416.434 271.254C435.544 271.253 431.656 275.199 431.569 292.455L426.752 292.455L349.994 292.455C349.972 285.747 347.489 274.092 355.49 271.263Z"/>
	<path fill="#45454B" transform="scale(0.195312 0.195312)" d="M382.964 278.408C384.132 278.415 406.361 276.411 400.629 282.744C399.639 283.838 398.072 283.709 396.727 283.733C393.476 283.752 383.15 284.445 380.737 283.224C377.688 281.682 379.217 278.546 382.964 278.408Z"/>
	<path fill="#3FC75C" transform="scale(0.195312 0.195312)" d="M144.035 275.963C145.615 276.658 181.022 276.504 186.027 276.306C186.039 283.25 187.229 292.102 178.589 294.381C169.247 296.846 172.041 295.613 173.712 307.226L164.842 299.66C162.871 297.974 161.026 296.122 158.783 294.794L79.1682 294.881C65.8862 294.935 64.4292 287.737 64.4033 276.306C75.1491 276.301 86.0256 275.921 96.7568 276.306C96.0673 278.61 94.9067 281.086 96.3517 283.346C100.862 290.399 108.768 279.576 118.948 281.879C127.835 283.889 136.606 280.651 144.035 275.963Z"/>
	<path fill="#54C7F9" transform="scale(0.195312 0.195312)" d="M349.994 410.092L431.569 410.092C431.59 416.667 432.641 427.449 429.563 433.064C424.049 436.854 413.746 435.456 407.335 435.451L365.875 435.463C359.52 435.467 352.309 436.96 350.377 428.984C349.361 424.79 349.976 414.837 349.994 410.092Z"/>
	<path fill="#45454B" transform="scale(0.195312 0.195312)" d="M390.222 415.566C400.477 415.453 401.121 429.824 391.467 431.472C380.972 430.897 379.981 417.319 390.222 415.566Z"/>
	<path fill="#E1F1F8" transform="scale(0.195312 0.195312)" d="M360.3 209.399C364.538 217.888 363.525 225.001 363.519 234.249L363.51 265.747C348.811 265.305 344.759 268.967 344.747 284.045L344.755 318.75C340.516 321.489 306.372 323.084 300.793 323.008C300.944 320.568 301.555 316.316 300.793 314.051C300.735 304.043 296.46 295.985 288.084 290.185C288.661 286.653 292.164 285.345 294.934 283.637C315.401 271.019 338.657 251.634 349.994 230.147C352.415 225.558 356.986 211.971 360.3 209.399Z"/>
	<path fill="#45454B" transform="scale(0.195312 0.195312)" d="M256.08 369.297C266.534 368.262 270.136 381.438 260.705 384.699C249.359 386.297 246.108 373.26 256.08 369.297Z"/>
	<path fill="#BAE7F8" transform="scale(0.195312 0.195312)" d="M147.502 299.998L156.619 299.998L169.065 310.739C171.935 313.189 174.344 315.638 177.906 317.011C178.866 316.492 179.512 315.774 180.258 314.998C179.82 313.375 180.07 311.758 180.258 310.119C184.759 313.137 204.46 321.561 210.449 322.195L210.691 322.057L211.009 320.362L211.001 320.766C210.85 329.594 215.69 334.571 224.451 334.636L283.231 334.599C300.008 334.539 300.833 329.62 300.793 314.051C301.555 316.316 300.944 320.568 300.793 323.008C306.372 323.084 340.516 321.489 344.755 318.75L344.755 356.858L147.502 356.858L147.5 319.142C147.498 312.767 147.35 306.37 147.502 299.998Z"/>
	<path fill="#54E58A" transform="scale(0.195312 0.195312)" d="M64.4033 212.132L64.9002 211.706C72.0469 205.642 80.8139 207.786 89.7438 207.79L165.152 207.786C171.266 207.788 177.92 207.287 183.971 207.783C187.758 214.807 186.036 227.545 186.036 235.308L186.027 276.306C181.022 276.504 145.615 276.658 144.035 275.963C136.606 280.651 127.835 283.889 118.948 281.879C108.768 279.576 100.862 290.399 96.3517 283.346C94.9067 281.086 96.0673 278.61 96.7568 276.306C86.0256 275.921 75.1491 276.301 64.4033 276.306L64.4033 233.211C64.4029 226.215 64.1141 219.112 64.4033 212.132ZM98.1682 270.434C97.8016 272.353 97.5404 274.513 96.7568 276.306C96.0673 278.61 94.9067 281.086 96.3517 283.346C100.862 290.399 108.768 279.576 118.948 281.879C127.835 283.889 136.606 280.651 144.035 275.963C168.846 255.937 157.568 217.051 127.377 214.347C96.1197 211.549 79.0157 245.464 98.1682 270.434Z"/>
	<path fill="#45454B" transform="scale(0.195312 0.195312)" d="M98.1682 270.434C79.0157 245.464 96.1197 211.549 127.377 214.347C157.568 217.051 168.846 255.937 144.035 275.963C136.606 280.651 127.835 283.889 118.948 281.879C108.768 279.576 100.862 290.399 96.3517 283.346C94.9067 281.086 96.0673 278.61 96.7568 276.306C97.5404 274.513 97.8016 272.353 98.1682 270.434ZM122.988 219.366C97.3464 221.195 85.412 252.643 103.939 268.332L104.2 268.55L101.828 279.562C106.095 278.617 109.817 276.776 113.824 275.143C115.452 275.698 117.07 276.263 118.81 276.306C142.864 281.88 161.27 253.302 148.056 232.709C142.625 224.244 132.989 219.212 122.988 219.366Z"/>
	<path fill="#54C7F9" transform="scale(0.195312 0.195312)" d="M137.835 242.249C143.569 241.98 144.627 250.041 139.026 252.087C131.881 252.146 130.929 245.138 137.835 242.249Z"/>
	<path fill="#54C7F9" transform="scale(0.195312 0.195312)" d="M123.821 242.249C130.413 241.713 131.83 249.215 126.374 252.087C119.597 253.308 117.46 245.641 123.821 242.249Z"/>
	<path fill="#54C7F9" transform="scale(0.195312 0.195312)" d="M111.388 242.249C117.289 241.974 118.73 251.327 111.388 252.087C107.999 251.748 107.107 250.2 106.148 246.98C106.991 244.064 108.23 242.722 111.388 242.249Z"/>
	<path fill="#FB7D50" transform="scale(0.195312 0.195312)" d="M388.92 363.551C401.982 362.287 405.971 379.802 393.164 383.386C378.023 384.926 376.958 366.943 388.92 363.551Z"/>
	<path fill="#198FDB" transform="scale(0.195312 0.195312)" d="M390.222 339.08C401.535 337.811 408.953 351.201 399.057 360.743C397.125 359.852 395.257 359.166 393.164 358.775C389.455 358.655 386.44 359.491 382.964 360.743C375.945 351.537 378.183 340.559 390.222 339.08Z"/>
	<path fill="#E1F1F8" transform="scale(0.195312 0.195312)" d="M391.467 344.136C392.344 345.149 392.708 346.609 393.164 347.856L396.089 347.856C394.967 353.755 394.839 351.314 391.741 355.008L391.467 355.336L390.993 355.394C384.461 348.436 385.946 350.541 391.467 344.136Z"/>
	<path fill="#198FDB" transform="scale(0.195312 0.195312)" d="M390.222 329.24C413.144 328.432 421.446 354.954 406.035 368.764C405.052 367.043 404.12 365.292 403.173 363.551C412.539 352.301 408.174 337.097 393.164 334.599C375.374 334.077 368.261 353.108 379.669 363.551C378.072 365.183 376.746 366.904 375.427 368.764C371.748 363.387 368.582 358.395 368.495 351.667C368.335 339.371 378.053 329.397 390.222 329.24Z"/>
	<path fill="#45454B" transform="scale(0.195312 0.195312)" d="M387.684 318.75C419.697 315.444 436.83 357.656 412.676 376.808C408.1 380.436 403.453 378.496 410.364 371.507C426.515 355.172 416.922 328.764 395.259 324.495C370.603 320.458 354.551 349.062 370.097 368.934C372.076 371.464 376.224 373.969 375.469 377.716C370.914 383.798 360.064 363.891 358.927 357.68C355.292 337.809 368.475 322.202 387.684 318.75Z"/>
	<path fill="#45454B" transform="scale(0.195312 0.195312)" d="M243.298 229.319C249.66 221.427 259.273 224.606 268.147 223.923C270.243 223.762 276.555 221.155 278.203 222.859C281.371 226.133 277.514 243.792 277.384 248.861C287.446 251.893 285.839 264.107 277.384 268.55C275.027 275.231 273.314 277.42 268.177 282.227C268.07 283.765 268.064 285.22 268.177 286.757C275.67 286.712 281.331 286.222 288.084 290.185C296.46 295.985 300.735 304.043 300.793 314.051C300.833 329.62 300.008 334.539 283.231 334.599L224.451 334.636C215.69 334.571 210.85 329.594 211.001 320.766L211.009 320.362C211.058 295.897 219.305 285.63 244.2 285.629C244.147 284.502 244.195 283.357 244.2 282.227C238.506 279.457 235.743 274.052 233.279 268.55C223.677 263.112 223.284 255.334 231.74 248.861C230.536 238.698 233.801 233.385 243.298 229.319ZM245.265 245.692C240.921 248.878 238.319 249.976 235.798 255.005C227.432 254.94 230.9 263.346 236.714 261.839C241.157 274.764 244.972 280.812 259.505 279.562C275.574 274.653 272.113 262.508 272.345 248.861C265.386 251.195 256.731 252.249 249.991 248.752C248.484 247.97 246.793 246.095 245.265 245.692ZM216.394 311.479C220.935 305.148 225.276 299.306 233.533 297.927C249.435 295.272 247.947 304.801 257.242 303.705C261.558 303.196 263.801 300.47 266.829 297.831C286.854 296.07 285.914 300.677 295.393 312.496C294.901 296.228 282.164 291.694 268.177 292.455C264.064 306.732 246.327 306.848 244.2 291.239C230.522 291.123 217.61 295.719 216.394 311.479ZM249.926 285.629C247.48 293.12 254.398 301.672 260.705 294.794C263.609 292.49 262.854 288.929 262.786 285.629C258.541 285.574 254.157 285.288 249.926 285.629ZM277.384 255.005C277.334 257.263 277.009 259.918 277.562 262.095L277.925 262.467C278.381 262.309 278.653 262.15 279.022 261.839C280.69 259.246 280.557 256.056 277.384 255.005Z"/>
	<path fill="#54E58A" transform="scale(0.195312 0.195312)" d="M272.345 228.602C273.378 228.493 273.801 228.433 273.999 229.559C277.655 250.297 257.194 248.775 245.265 238.946C244.129 239.614 243.12 240.429 242.087 241.242C240.304 242.735 238.521 244.228 236.714 245.692C236.692 238.474 239.592 235.135 246.892 235.283C250.589 226.031 262.725 229.747 272.345 228.602Z"/>
	<path fill="#FB7D50" transform="scale(0.195312 0.195312)" d="M266.829 297.831C286.854 296.07 285.914 300.677 295.393 312.496C296.238 325.989 295.879 330.063 280.439 329.24C280.357 325.614 281.406 316.371 279.582 313.625C274.45 305.901 275.012 325.833 275.031 329.24L237.21 329.24C237.211 328.991 238.715 307.281 232.658 313.281C231.052 314.872 231.726 326.288 231.74 329.24C216.563 329.165 214.725 327.765 216.394 311.479C220.935 305.148 225.276 299.306 233.533 297.927C249.435 295.272 247.947 304.801 257.242 303.705C261.558 303.196 263.801 300.47 266.829 297.831Z"/>
</svg>
