<?xml version="1.0" encoding="utf-8" ?>
<svg xmlns="http://www.w3.org/2000/svg" xmlns:xlink="http://www.w3.org/1999/xlink" width="100" height="100">
	<path fill="#3B4E79" transform="scale(0.195312 0.195312)" d="M134.711 139.268C138.459 139.559 161.203 137.353 153.856 148.884C149.377 155.913 136.514 147.018 131.907 154.576L131.736 154.86C131.462 159.014 131.718 163.321 131.727 167.493L131.736 267.063C131.65 270.384 130.664 273.616 127.003 274.533C116.745 277.103 119.583 257.652 119.592 252.612L119.593 176.748C119.591 162.592 115.781 142.84 134.711 139.268Z"/>
	<path fill="#3B4E79" transform="scale(0.195312 0.195312)" d="M363.004 139.268C397.132 137.544 392.412 151.548 392.409 178.079L392.391 253.687C392.397 261.255 395.411 273.935 386.984 276.404C378.544 276.239 380.499 266.207 380.497 260.474L380.509 175.089C380.511 170.492 381.134 157.596 379.899 153.797C377.764 147.234 360.94 158.306 357.624 145.262C358.402 142.245 359.87 140.235 363.004 139.268Z"/>
	<path fill="#3B4E79" transform="scale(0.195312 0.195312)" d="M255.041 267.063C258.716 266.353 260.456 268.068 262.224 271.193L262.224 345.623L281.849 345.611C285.381 345.607 289.573 345.192 293.022 345.91C299.379 347.232 299.38 357.091 292.734 358.045C289.258 358.543 285.236 358.152 281.707 358.149L257.813 358.132L231.251 358.098C227.649 358.093 223.78 358.579 220.226 358.128C215.296 357.503 212.318 351.315 216.092 347.486C219.122 344.413 225.223 345.634 229.067 345.636L250.053 345.623L250.04 280.472C250.027 275.304 248.36 268.38 255.041 267.063Z"/>
	<path fill="#3B4E79" transform="scale(0.195312 0.195312)" d="M165.555 286.862C171.644 286.847 188.217 286.158 193.168 287.49C203.101 290.161 201.985 299.49 201.968 307.49L201.944 396.28C209.388 396.76 214.698 395.322 214.746 404.691C214.86 427.012 197.527 433.57 179.026 433.488L102.625 433.471C95.9079 433.468 89.066 433.833 82.3671 433.628C66.8277 433.152 52.2187 418.996 53.0633 403.082C53.4316 396.142 58.8507 395.915 64.5175 396.28L64.5018 308.517C64.4562 290.254 65.4562 286.847 86.3368 286.853L165.555 286.862ZM178.575 409.139C175.5 410.03 177.869 411.42 177.658 416.461C176.182 418.177 174.542 419.367 172.925 420.908C186.612 420.867 194.809 423.138 201.944 409.139L178.575 409.139Z"/>
	<path fill="#E3E6E9" transform="scale(0.195312 0.195312)" d="M66.3491 409.139L178.575 409.139C175.5 410.03 177.869 411.42 177.658 416.461C176.182 418.177 174.542 419.367 172.925 420.908L92.2479 420.913C80.1819 420.943 72.1271 421.994 66.3491 409.139Z"/>
	<path fill="#0DA0FB" transform="scale(0.195312 0.195312)" d="M189.591 333.219L189.591 396.28L76.9961 396.28L76.9961 366.24C90.436 369.385 105.086 371.624 118.412 366.83C122.916 365.209 126.911 362.49 131.377 360.89L131.736 360.764C124.403 369.96 132.905 375.166 137.793 372.134C142.092 369.467 153.771 357.086 157.759 352.833C159.682 350.783 160.092 349.264 160.011 346.536C173.276 344.267 180.838 343.909 189.591 333.219Z"/>
	<path fill="#6BC4F7" transform="scale(0.195312 0.195312)" d="M76.9961 299.01L176.271 299.018C180.702 299.027 185.163 299.164 189.591 299.01L189.591 333.219C180.838 343.909 173.276 344.267 160.011 346.536C160.092 349.264 159.682 350.783 157.759 352.833C153.771 357.086 142.092 369.467 137.793 372.134C132.905 375.166 124.403 369.96 131.736 360.764L131.377 360.89C126.911 362.49 122.916 365.209 118.412 366.83C105.086 371.624 90.436 369.385 76.9961 366.24L76.9961 299.01Z"/>
	<path fill="#3B4E79" transform="scale(0.195312 0.195312)" d="M107.483 342.563C111.515 342.548 120.134 341.591 123.172 344.303C127.694 348.341 124.212 354.725 118.063 355.045C113.767 355.057 105.467 356.001 102.094 353.285C97.1524 349.305 100.639 342.976 107.483 342.563Z"/>
	<path fill="#3B4E79" transform="scale(0.195312 0.195312)" d="M144.566 347.72C141.987 345.176 130.422 333.893 129.405 331.772C127.302 327.386 132.495 321.194 137.146 323.185C139.844 324.339 158.138 342.284 160.011 346.536C160.092 349.264 159.682 350.783 157.759 352.833C153.771 357.086 142.092 369.467 137.793 372.134C132.905 375.166 124.403 369.96 131.736 360.764C135.851 356.277 140.846 352.594 144.566 347.72Z"/>
	<path fill="#3B4E79" transform="scale(0.195312 0.195312)" d="M322.597 286.862C325.725 286.308 329.668 286.813 332.878 286.846L351.461 286.87C378.663 286.872 405.959 287.319 433.149 286.661C447.281 286.319 447.299 298.405 447.265 308.919L447.248 395.757C462.285 395.455 460.321 409.01 454.483 418.904C449.057 428.101 442.708 430.9 432.809 433.471L334.512 433.479C330.02 433.478 324.889 433.824 320.472 432.97C305.774 430.126 297.418 417.064 297.186 402.6C297.067 395.178 303.562 396.201 309.089 396.28L309.086 310.376C309.099 300.048 308.515 287.265 322.597 286.862ZM422.433 408.7L310.051 408.7C315.255 421.133 322.3 420.943 334.236 420.908L416.734 420.912C429.497 420.907 439.235 422.059 445.7 408.7C442.605 408.451 439.448 408.658 436.342 408.684L422.433 408.7Z"/>
	<path fill="#65D0E1" transform="scale(0.195312 0.195312)" d="M321.613 396.28L321.613 303.912C321.91 311.316 321.609 318.826 321.608 326.244L321.613 371.022C328.462 369.507 335.179 367.575 342.129 366.53L367.067 363.005C369.895 362.597 373.017 362.461 375.78 361.863C366.97 371.284 377.027 377.209 382.291 373.174C387.069 369.512 402.612 354.652 405.232 350.735C405.341 349.296 405.415 347.975 405.232 346.536C412.911 346.649 433.889 339.377 434.719 331.365L434.719 396.28L321.613 396.28Z"/>
	<path fill="#A9E3F1" transform="scale(0.195312 0.195312)" d="M321.613 299.01L434.719 299.01L434.719 331.365C433.889 339.377 412.911 346.649 405.232 346.536C405.415 347.975 405.341 349.296 405.232 350.735C402.612 354.652 387.069 369.512 382.291 373.174C377.027 377.209 366.97 371.284 375.78 361.863C373.017 362.461 369.895 362.597 367.067 363.005L342.129 366.53C335.179 367.575 328.462 369.507 321.613 371.022L321.608 326.244C321.609 318.826 321.91 311.316 321.613 303.912L321.613 299.01Z"/>
	<path fill="#3B4E79" transform="scale(0.195312 0.195312)" d="M351.105 342.563C355.039 342.58 361.623 341.561 364.931 343.776C370.582 347.561 366.719 354.577 360.789 355.045C356.367 355.011 349.752 356.249 346.101 353.41C341.267 349.649 344.107 343.006 351.105 342.563Z"/>
	<path fill="#3B4E79" transform="scale(0.195312 0.195312)" d="M390.215 348.785C386.011 344.719 376.098 336.766 373.172 332.441C369.902 327.607 375.949 320.046 381.067 323.744C386.251 327.489 400.637 341.532 405.232 346.536C405.415 347.975 405.341 349.296 405.232 350.735C402.612 354.652 387.069 369.512 382.291 373.174C377.027 377.209 366.97 371.284 375.78 361.863C380.518 357.783 385.458 353.032 390.215 348.785Z"/>
	<path fill="#3B4E79" transform="scale(0.195312 0.195312)" d="M189.591 75.3673C198.902 75.0193 208.357 75.3613 217.68 75.3628L307.06 75.3588C313.614 75.3602 320.617 74.925 327.107 75.8982C343.121 78.3 344.285 92.4281 344.285 104.858L344.277 218.853C344.279 236.841 345.421 254.727 321.613 256.24L201.259 256.246C196.307 256.249 190.969 256.643 186.073 255.911C168.837 253.332 167.11 238.502 167.106 224.882L167.108 114.634C167.108 96.4531 165.334 77.1774 189.591 75.3673Z"/>
	<path fill="#CBD4DB" transform="scale(0.195312 0.195312)" d="M179.152 174.857C179.31 176.001 179.257 177.001 179.152 178.142L193.95 178.121C214.231 178.079 216.09 180.661 215.943 200.981L188.621 201.123C175.672 201.258 179.106 183.091 179.152 174.857Z"/>
	<path fill="#7590F5" transform="scale(0.195312 0.195312)" d="M332.017 211.202C332.967 213.532 333.254 237.119 329.024 241.063C323.875 245.864 309.87 243.934 303.264 243.927L215.595 243.923C207.117 243.924 187.082 246.579 181.475 240.273C178.604 235.651 179.125 230.339 179.128 225.119L179.152 211.202C188.308 214.93 199.152 213.212 208.817 213.21L299.884 213.22C310.509 213.227 321.826 214.785 332.017 211.202Z"/>
	<path fill="#3B4E79" transform="scale(0.195312 0.195312)" d="M245.226 222.976C254.229 222.972 269.683 219.234 272.355 228.748C271.673 231.858 270.171 234.041 267.021 235.147C262.812 235.466 245.071 235.757 242.226 234.013C236.994 230.805 239.941 223.848 245.226 222.976Z"/>
	<path fill="#E3E6E9" transform="scale(0.195312 0.195312)" d="M179.152 174.857L179.127 106.345C179.103 86.9473 181.386 87.5854 201.356 87.589L318.831 87.594C333.596 87.6799 332.016 93.727 332.021 106.289L332.026 168.661C332.024 175.895 332.179 183.17 331.997 190.4C331.683 202.942 322.193 200.994 312.715 200.989L215.943 200.981C216.09 180.661 214.231 178.079 193.95 178.121L179.152 178.142C179.257 177.001 179.31 176.001 179.152 174.857Z"/>
	<path fill="#3B4E79" transform="scale(0.195312 0.195312)" d="M278.171 111.354C303.845 107.926 323.732 137.85 310.159 161.17C299.477 179.522 276.918 182.717 259.293 172.194C251.735 178.481 244.473 181.604 234.606 181.893C206.106 181.199 188.166 148.23 207.21 124.988C219.466 110.03 242.754 107.069 257.813 119.509C264.247 115.085 270.288 112.077 278.171 111.354Z"/>
	<path fill="#6BC4F7" transform="scale(0.195312 0.195312)" d="M267.021 128.272C275.64 119.741 288.7 123.102 297.252 129.778C294.469 133.841 292.644 138.193 290.688 142.68C288.233 134.84 283.651 136.565 278.925 141.083C275.968 138.396 268.746 131.612 267.021 128.272Z"/>
	<path fill="#6BC4F7" transform="scale(0.195312 0.195312)" d="M251.02 163.58C222.964 184.375 200.14 146.273 217.516 132.377C221.346 135.435 224.507 139.285 228.028 142.68C220.807 149.101 226.449 162.238 237.611 150.535C241.91 154.201 247.218 159.409 251.02 163.58Z"/>
	<path fill="#E3E6E9" transform="scale(0.195312 0.195312)" d="M217.516 132.377C224.183 123.125 239.195 120.955 248.328 127.694C256.31 133.583 264.184 146.894 272.865 151.259C282.511 156.109 286.518 149.351 290.688 143.52L290.688 142.68C292.644 138.193 294.469 133.841 297.252 129.778C297.79 130.635 298.329 131.485 298.808 132.377C309.798 150.755 292.94 170.548 273.923 165.588C266.976 163.776 262.507 158.71 257.783 153.678L250.079 145.482C242.394 137.337 237.997 135.139 228.028 142.68C224.507 139.285 221.346 135.435 217.516 132.377Z"/>
	<path fill="#CBD4DB" transform="scale(0.195312 0.195312)" d="M297.252 129.778C297.79 130.635 298.329 131.485 298.808 132.377C298.735 132.632 291.879 145.219 291.339 145.849L291.036 145.786C291.177 145.168 291.31 144.551 291.431 143.928L290.688 143.52L290.688 142.68C292.644 138.193 294.469 133.841 297.252 129.778Z"/>
</svg>
