<?xml version="1.0" encoding="utf-8" ?>
<svg xmlns="http://www.w3.org/2000/svg" xmlns:xlink="http://www.w3.org/1999/xlink" width="100" height="100">
	<path fill="#4E678F" transform="matrix(0.195313 0 0 0.195313 0 3.05176e-05)" d="M438.787 174.342C439.748 175.435 440.718 176.515 441.716 177.575C444.407 180.524 447.155 183.209 450.264 185.721C446.819 188.977 441.41 195.203 437.781 197.589C436.712 197.002 435.607 196.447 434.6 195.757C433.201 193.838 431.225 192.168 429.647 190.354C430.921 189.464 432.198 188.872 433.618 188.259C432.517 185.793 431.402 183.831 429.647 181.769C433.009 179.665 435.914 177.055 438.787 174.342Z"/>
	<path fill="#4E678F" transform="matrix(0.195313 0 0 0.195313 0 3.05176e-05)" d="M429.647 90.0045C432.104 87.1041 434.82 84.3184 437.781 81.9286C440.913 85.2311 450.039 93.3017 451.779 96.4021L451.53 96.604L451.801 96.6266C450.083 99.3098 446.816 101.43 444.538 103.687C443.499 104.82 442.612 106.107 441.716 107.355C438.428 105.169 434.977 101.672 432.685 98.4404L435.981 94.8043C434.05 92.7288 432.247 91.1782 429.647 90.0045Z"/>
	<path fill="#FEFEFE" transform="matrix(0.195313 0 0 0.195313 0 3.05176e-05)" d="M353.655 93.2023C358.089 89.2148 362.372 85.0492 366.701 80.9483C368.968 83.0952 371.741 85.3892 373.486 87.967C374.526 89.8308 380.03 86.4785 381.682 85.9506C394.924 81.7184 411.588 81.4469 424.47 87.1333C425.849 87.7419 428.372 89.8226 429.647 90.0045C432.247 91.1782 434.05 92.7288 435.981 94.8043L432.685 98.4404C434.977 101.672 438.428 105.169 441.716 107.355C442.612 106.107 443.499 104.82 444.538 103.687C451.018 107.732 454.767 119.998 456.4 127.129C459.431 140.359 455.003 171.246 441.716 177.575C440.718 176.515 439.748 175.435 438.787 174.342C435.914 177.055 433.009 179.665 429.647 181.769C431.402 183.831 432.517 185.793 433.618 188.259C432.198 188.872 430.921 189.464 429.647 190.354C413.922 198.82 388.936 200.59 373.486 190.354C371.027 189.037 369.385 187.779 367.499 185.721C369.21 183.96 370.774 182.035 372.377 180.177C369.521 178.334 367.195 175.705 364.826 173.296C363.215 175.096 360.19 179.141 358.213 180.177C356.759 177.195 354.383 174.813 352.548 172.071C337.763 149.986 340.849 120.305 357.717 100.104C355.907 98.4445 351.287 95.7357 353.655 93.2023Z"/>
	<path fill="#C9D5E4" transform="matrix(0.195313 0 0 0.195313 0 3.05176e-05)" d="M353.655 93.2023C358.089 89.2148 362.372 85.0492 366.701 80.9483C368.968 83.0952 371.741 85.3892 373.486 87.967C374.526 89.8308 380.03 86.4785 381.682 85.9506C394.924 81.7184 411.588 81.4469 424.47 87.1333C425.849 87.7419 428.372 89.8226 429.647 90.0045C432.247 91.1782 434.05 92.7288 435.981 94.8043L432.685 98.4404C434.977 101.672 438.428 105.169 441.716 107.355C442.612 106.107 443.499 104.82 444.538 103.687C451.018 107.732 454.767 119.998 456.4 127.129C459.431 140.359 455.003 171.246 441.716 177.575C440.718 176.515 439.748 175.435 438.787 174.342C435.914 177.055 433.009 179.665 429.647 181.769C431.402 183.831 432.517 185.793 433.618 188.259C432.198 188.872 430.921 189.464 429.647 190.354C413.922 198.82 388.936 200.59 373.486 190.354C371.027 189.037 369.385 187.779 367.499 185.721C369.21 183.96 370.774 182.035 372.377 180.177C374.163 180.787 375.87 182.031 377.576 182.871C420.896 204.207 466.443 159.618 445.928 118.785C432.887 92.8279 404.213 82.1928 378.047 95.8396C353.199 108.799 345.023 141.633 359.154 165.616C360.781 168.378 363.436 170.363 364.826 173.296C363.215 175.096 360.19 179.141 358.213 180.177C356.759 177.195 354.383 174.813 352.548 172.071C337.763 149.986 340.849 120.305 357.717 100.104C355.907 98.4445 351.287 95.7357 353.655 93.2023Z"/>
	<path fill="#4E678F" transform="matrix(0.195313 0 0 0.195313 0 3.05176e-05)" d="M353.655 93.2023C358.089 89.2148 362.372 85.0492 366.701 80.9483C368.968 83.0952 371.741 85.3892 373.486 87.967C371.852 89.6104 370.48 91.2645 369.211 93.2023C370.873 94.1598 372.142 95.1998 373.486 96.5794C369.737 99.1429 366.114 101.895 363.521 105.686C361.615 103.792 359.686 101.933 357.717 100.104C355.907 98.4445 351.287 95.7357 353.655 93.2023Z"/>
	<path fill="#F48A78" transform="matrix(0.195313 0 0 0.195313 0 3.05176e-05)" d="M400.865 101.098C410.135 100.603 406.655 105.127 406.319 113.129C410.636 113.576 414.327 115.137 417.917 117.552C425.842 110.436 424.036 107.349 432.685 115.986C430.192 118.686 427.015 121.048 424.206 123.415C426.926 127.444 428.568 131.283 429.647 136.024C433.138 136.284 436.646 135.86 440.149 136.024C440.498 138.946 440.415 141.911 440.149 144.835C436.729 145.106 433.025 144.784 429.647 144.228C428.652 149.288 426.692 152.983 424.206 157.448C426.071 160.153 428.48 162.001 430.861 164.217C428.858 166.472 426.818 168.373 424.206 169.895C421.971 167.933 419.803 165.663 417.917 163.367C413.935 165.783 410.505 167.187 405.939 168.109C406.29 172.303 408.718 178.272 402.888 178.63C394.144 178.272 397.368 174.988 397.227 168.109C393.033 167.406 389.377 165.726 385.872 163.367C383.734 165.761 382.322 168.641 380.264 171.095C370.109 166.531 371.2 163.026 380.264 157.448C376.756 153.54 375.271 149.735 373.486 144.835C368.067 144.725 362.677 147.335 363.265 139.111C363.662 133.571 369.669 135.71 373.486 136.024C375.427 132.406 376.53 128.524 378.675 124.976C376.148 122.61 373.378 120.296 371.266 117.552C373.162 114.731 376.026 112.42 378.675 110.335C380.999 112.826 383.41 115.198 385.872 117.552C389.448 115.32 392.975 113.528 397.227 113.129C397.179 108.218 394.158 101.491 400.865 101.098Z"/>
	<path fill="#FEFEFE" transform="matrix(0.195313 0 0 0.195313 0 3.05176e-05)" d="M394.869 129.984C398.803 129.782 407.854 129.463 411.198 130.835C412.429 133.404 414.771 149.501 409.43 150.437C406.179 150.451 395.715 150.961 393.178 150.111C392.995 150.05 387.683 131.835 394.869 129.984Z"/>
	<path fill="#92D7A4" transform="matrix(0.195313 0 0 0.195313 0 3.05176e-05)" d="M81.0685 190.354C112.852 97.8287 213.181 46.9739 306.176 72.7891C321.152 76.9464 341.491 84.3083 353.655 93.2023C351.287 95.7357 355.907 98.4445 357.717 100.104C340.849 120.305 337.763 149.986 352.548 172.071C354.383 174.813 356.759 177.195 358.213 180.177C360.19 179.141 363.215 175.096 364.826 173.296C367.195 175.705 369.521 178.334 372.377 180.177C370.774 182.035 369.21 183.96 367.499 185.721C369.385 187.779 371.027 189.037 373.486 190.354C388.936 200.59 413.922 198.82 429.647 190.354C431.225 192.168 433.201 193.838 434.6 195.757C441.235 218.252 445.327 240.003 444.442 263.492C441.443 343.039 386.581 412.668 310.456 435.058C263.768 448.79 207.849 443.624 165.113 420.153C117.23 393.856 88.8649 353.98 73.1301 303.097C52.6897 301.837 53.2234 305.557 53.2416 284.975L53.2771 217.465C53.2757 210.059 53.1072 202.621 53.2756 195.218C54.1685 194.161 55.2491 192.619 56.4787 191.958C60.2778 189.917 79.8547 192.556 81.0685 190.354Z"/>
	<path fill="#4E678F" transform="matrix(0.195313 0 0 0.195313 0 3.05176e-05)" d="M358.213 180.177C360.19 179.141 363.215 175.096 364.826 173.296C367.195 175.705 369.521 178.334 372.377 180.177C370.774 182.035 369.21 183.96 367.499 185.721C369.385 187.779 371.027 189.037 373.486 190.354C371.373 192.917 369.345 195.546 366.701 197.589C363.038 195.823 355.154 189.15 352.9 185.721C353.965 183.473 355.585 180.695 358.213 180.177Z"/>
	<path fill="#4E678F" transform="matrix(0.195313 0 0 0.195313 0 3.05176e-05)" d="M228.534 409.121C228.959 412.935 228.5 417.088 228.534 420.942C266.269 421.898 282.312 421.463 282.745 420.08C283.449 422.368 296.483 419.255 299.708 421.762C302.673 424.066 300.674 428.438 297.251 428.679C292.286 429.029 287.142 428.742 282.154 428.74L226.854 428.726C223.624 428.729 220.128 429.087 216.935 428.839C213.821 428.598 209.257 424.949 212.67 421.931C214.557 420.262 225.351 420.638 228.534 420.942C228.52 417.001 228.493 413.061 228.534 409.121Z"/>
	<path fill="#3B465B" transform="matrix(0.195313 0 0 0.195313 0 3.05176e-05)" d="M228.534 400.482L282.745 400.482C282.759 407.012 282.843 413.551 282.745 420.08C282.312 421.463 266.269 421.898 228.534 420.942C228.5 417.088 228.959 412.935 228.534 409.121L228.534 400.482Z"/>
	<path fill="#4E678F" transform="matrix(0.195313 0 0 0.195313 0 3.05176e-05)" d="M259.028 121.912C249.953 95.6029 284.701 87.9758 291.088 108.212C296.936 126.739 275.487 138.53 264.325 128.055C255.092 133.692 245.913 139.717 236.388 144.835C236.669 147.027 236.618 149.053 236.388 151.247C241.829 154.83 247.772 157.699 253.449 160.896C263.157 166.363 261.521 165.668 261.514 176.223L261.495 195.218C260.013 195.178 258.445 195.033 256.977 195.218L253.336 195.218L253.336 169.895C247.268 166.12 239.168 163.208 233.796 158.97C225.359 167.174 215.567 169.866 206.456 160.885C198.457 165.689 190.65 170.836 182.675 175.69C185.425 184.532 181.979 194.55 172.544 197.434C150.361 204.215 141.332 171.02 162.403 165.437C168.425 163.842 173.572 165.388 178.397 168.936C186.017 163.563 194.198 159.112 202.072 154.157C198.861 136.395 215.405 124.959 228.344 134.042C230.011 135.212 231.509 136.68 233.011 138.052C240.696 132.162 250.734 127.371 259.028 121.912Z"/>
	<path fill="#57C0E6" transform="matrix(0.195313 0 0 0.195313 0 3.05176e-05)" d="M165.848 173.296C176.975 172.122 178.936 187.052 168.572 189.759C157.075 190.043 155.526 177.053 165.848 173.296Z"/>
	<path fill="#57C0E6" transform="matrix(0.195313 0 0 0.195313 0 3.05176e-05)" d="M217.757 139.809C229.777 139.972 231.354 154.916 220.014 157.448C208.176 158.437 206.175 141.727 217.757 139.809Z"/>
	<path fill="#57C0E6" transform="matrix(0.195313 0 0 0.195313 0 3.05176e-05)" d="M272.624 105.686C284.104 103.691 287.932 117.211 276.979 123.415C264.502 124.007 261.825 108.954 272.624 105.686Z"/>
	<path fill="#FEFEFE" transform="matrix(0.195313 0 0 0.195313 0 3.05176e-05)" d="M354.407 370.97C355.792 371.427 368.828 370.975 370.914 370.96C378.975 370.9 385.398 368.461 382.534 379.852C377.941 398.125 365.569 400.479 350.06 400.488L282.745 400.482L228.534 400.482C225.495 399.988 217.228 400.477 213.622 400.484L171.802 400.491C165.742 400.489 155.104 401.053 149.561 399.893C137.546 397.378 123.353 378.069 129.26 371.933C131.074 370.05 154.207 371.232 159.07 370.97C166.063 370.613 173.273 370.968 180.283 370.969L354.407 370.97Z"/>
	<path fill="#C9D5E4" transform="matrix(0.195313 0 0 0.195313 0 3.05176e-05)" d="M254.502 377.554C263.866 377.103 265.628 389.56 256.977 391.678C247.139 391.604 246.24 380.729 254.502 377.554Z"/>
	<path fill="#C9D5E4" transform="matrix(0.195313 0 0 0.195313 0 3.05176e-05)" d="M81.0685 190.354C83.4065 190.911 85.8264 190.398 88.1943 190.383L112.498 190.34C119.732 190.339 132.633 187.995 133.371 198.323C133.898 205.69 133.506 213.33 133.5 220.724L133.513 285.385C133.539 304.905 134.231 303.052 113.404 303.108L81.8475 303.105C79.3075 303.093 75.4851 302.237 73.1301 303.097C52.6897 301.837 53.2234 305.557 53.2416 284.975L53.2771 217.465C53.2757 210.059 53.1072 202.621 53.2756 195.218C54.1685 194.161 55.2491 192.619 56.4787 191.958C60.2778 189.917 79.8547 192.556 81.0685 190.354Z"/>
	<path fill="#4E678F" transform="matrix(0.195313 0 0 0.195313 0 3.05176e-05)" d="M85.3128 290.969L96.9165 290.92C99.9615 290.915 108.487 289.89 106.742 295.438C106.431 296.426 105.595 296.94 104.713 297.36C101.614 297.357 87.5609 297.776 85.5054 297.252C82.1854 296.406 82.6208 292.271 85.3128 290.969Z"/>
	<path fill="#FEFEFE" transform="matrix(0.195313 0 0 0.195313 0 3.05176e-05)" d="M88.8977 198.82C101.257 198.692 113.626 198.842 125.987 198.82L125.987 284.975C117.091 284.226 107.695 284.973 98.7428 284.975L61.7019 284.975L61.7019 198.82L88.8977 198.82Z"/>
	<path fill="#F48A78" transform="matrix(0.195313 0 0 0.195313 0 3.05176e-05)" d="M101.991 258.31L111.097 258.31C109.732 258.58 108.368 258.826 106.995 259.047C101.957 265.431 103.683 267.941 101.991 273.396L101.991 258.31Z"/>
	<path fill="#C9D5E4" transform="matrix(0.195313 0 0 0.195313 0 3.05176e-05)" d="M94.9317 258.31L95.879 258.243L96.1837 258.508C96.0464 263.945 96.668 277.901 95.8493 281.702L94.9317 282.022C94.2146 281.936 93.3217 281.941 92.8603 281.311C92.5647 277.199 90.8076 259.225 94.9317 258.31Z"/>
	<path fill="#C9D5E4" transform="matrix(0.195313 0 0 0.195313 0 3.05176e-05)" d="M92.7571 204.105C98.6662 203.808 103.411 205.887 95.9817 207.222L95.9817 249.022L95.622 249.463C90.5078 250.064 92.7627 238.763 92.7614 234.47L92.7571 207.222C90.2823 206.006 88.6219 204.488 92.7571 204.105Z"/>
	<path fill="#F8CD63" transform="matrix(0.195313 0 0 0.195313 0 3.05176e-05)" d="M78.2992 219.748C80.8926 219.747 83.4904 219.717 86.0834 219.748L86.0834 249.807L75.7987 249.807C78.252 247.944 76.3274 226.155 78.2992 219.748Z"/>
	<path fill="#F5D48D" transform="matrix(0.195313 0 0 0.195313 0 3.05176e-05)" d="M68.1262 219.748L78.2992 219.748C76.3274 226.155 78.252 247.944 75.7987 249.807C73.2652 249.933 70.666 249.815 68.1262 249.807L68.1262 219.748Z"/>
	<defs>
		<linearGradient id="gradient_0" gradientUnits="userSpaceOnUse" x1="118.38513" y1="272.22775" x2="103.47173" y2="264.82529">
			<stop offset="0" stop-color="#E67447"/>
			<stop offset="1" stop-color="#F4AF95"/>
		</linearGradient>
	</defs>
	<path fill="url(#gradient_0)" transform="matrix(0.195313 0 0 0.195313 0 3.05176e-05)" d="M111.097 258.31L119.741 258.31C119.744 273.524 119.637 280.162 101.991 278.571C101.964 276.844 101.951 275.123 101.991 273.396C103.683 267.941 101.957 265.431 106.995 259.047C108.368 258.826 109.732 258.58 111.097 258.31Z"/>
	<defs>
		<linearGradient id="gradient_1" gradientUnits="userSpaceOnUse" x1="85.371849" y1="271.14365" x2="66.787636" y2="261.2457">
			<stop offset="0" stop-color="#ED6F50"/>
			<stop offset="1" stop-color="#FDAA9A"/>
		</linearGradient>
	</defs>
	<path fill="url(#gradient_1)" transform="matrix(0.195313 0 0 0.195313 0 3.05176e-05)" d="M68.1262 258.31L86.0834 258.31C86.0834 264.312 87.2325 270.294 83.4955 275.42C79.957 279.077 74.5074 279.624 70.6794 275.946C66.5062 271.936 68.1356 263.678 68.1262 258.31Z"/>
	<defs>
		<linearGradient id="gradient_2" gradientUnits="userSpaceOnUse" x1="119.01152" y1="232.38065" x2="102.23865" y2="232.36919">
			<stop offset="0" stop-color="#EA7C5A"/>
			<stop offset="1" stop-color="#F8B197"/>
		</linearGradient>
	</defs>
	<path fill="url(#gradient_2)" transform="matrix(0.195313 0 0 0.195313 0 3.05176e-05)" d="M101.991 215.239L119.741 215.239L119.741 249.807L101.991 249.807L101.991 215.239Z"/>
	<path fill="#FEFEFE" transform="matrix(0.195313 0 0 0.195313 0 3.05176e-05)" d="M256.977 195.218C265.075 195.397 290.465 193.154 295.496 198.249C302.646 205.489 298.259 215.57 289.265 217.685C289.253 222.543 288.836 227.758 289.265 232.566C289.444 229.407 289.25 226.228 289.265 223.066L331.376 223.074C344.35 223.071 363.954 219.853 367.149 237.315C367.907 241.458 367.502 246.152 367.502 250.373L367.504 273.446C367.505 299.747 367.795 326.081 367.531 352.379C367.435 361.995 362.561 366.986 354.407 370.97L180.283 370.969C173.273 370.968 166.063 370.613 159.07 370.97C145.131 365.549 146.129 356.739 146.124 344.261L146.129 246.785C146.214 220.129 160.837 223.952 182.266 223.958L222.04 223.961C222.107 221.875 222.046 219.772 222.04 217.685C214.284 214.77 209.205 205.843 215.905 198.775C221.421 192.957 244.697 195.537 253.336 195.218L256.977 195.218Z"/>
	<path fill="#4E678F" transform="matrix(0.195313 0 0 0.195313 0 3.05176e-05)" d="M223.795 202.791L280.448 202.799C283.46 202.8 290.061 201.633 291.189 205.523C291.852 207.809 290.611 209.198 288.508 209.722L245.271 209.724C241.197 209.723 224.932 210.192 222.583 209.353C218.651 207.949 220.654 203.63 223.795 202.791Z"/>
	<path fill="#4E678F" transform="matrix(0.195313 0 0 0.195313 0 3.05176e-05)" d="M274.437 217.685C276.786 217.625 279.145 217.677 281.495 217.685C281.596 219.795 281.618 221.852 281.495 223.961L281.471 247.65C281.438 266.332 281.144 264.426 291.872 280.396C298.448 290.185 312.979 310.524 317.642 320.959C324.27 335.789 313.325 349.658 298.018 349.796L220.584 349.801C216.934 349.802 212.866 350.105 209.277 349.399C196.074 346.799 189.557 332.853 195.519 321.174C198.009 316.296 201.229 311.653 204.05 306.949L222.892 275.772C224.718 272.775 227.642 269.67 228.815 266.401C230.008 263.076 229.366 224.437 229.362 217.685L236.388 217.685L236.4 251.398C236.4 255.797 236.939 264.182 235.992 268.074C235.119 271.663 215.041 302.675 212.157 307.304C206.416 316.521 194.406 328.921 204.045 338.788C208.182 343.023 212.971 342.909 218.444 342.965L291.645 342.99C301.545 342.993 315.43 341.244 312.372 326.707C311.059 320.467 293.217 294.9 289.24 288.87C274.03 265.807 274.43 270.276 274.429 243.146L274.437 217.685Z"/>
	<path fill="#F8CD63" transform="matrix(0.195313 0 0 0.195313 0 3.05176e-05)" d="M243.977 246.518L266.753 246.518C266.703 269.157 267.454 268.703 279.58 287.673L297.047 315.606C300.157 320.587 309.819 330.278 301.252 334.821C297.923 335.189 294.294 334.842 290.925 334.837L268.625 334.821L229.919 334.821C223.451 334.823 211.63 336.592 207.67 331.674C208.896 324.401 215.925 316.141 219.756 309.898C222.44 305.524 242.663 274.13 243.547 271.049C244.585 267.429 243.983 251.088 243.977 246.518Z"/>
	<path fill="#4E678F" transform="matrix(0.195313 0 0 0.195313 0 3.05176e-05)" d="M269.135 317.577C270.295 318.631 271.502 319.659 272.624 320.752C271.269 322.785 269.843 324.787 268.625 326.905C267.244 325.787 265.822 324.38 264.325 323.445C264.485 322.36 268.287 318.823 269.135 317.577Z"/>
	<path fill="#4E678F" transform="matrix(0.195313 0 0 0.195313 0 3.05176e-05)" d="M233.796 303.984C235.612 304.131 237.48 304.017 239.303 303.984C238.713 306.484 238.522 308.681 238.569 311.238C236.728 311.165 234.863 311.297 233.011 311.238C232.973 308.804 233.348 306.371 233.796 303.984Z"/>
	<path fill="#4E678F" transform="matrix(0.195313 0 0 0.195313 0 3.05176e-05)" d="M270.781 303.984C272.833 303.72 274.918 303.891 276.979 303.984C277.122 306.397 277.024 308.823 276.979 311.238C275.207 311.245 273.434 311.263 271.662 311.238C271.634 308.825 271.24 306.352 270.781 303.984Z"/>
	<path fill="#4E678F" transform="matrix(0.195313 0 0 0.195313 0 3.05176e-05)" d="M244.748 290.03C246.496 291.33 248.087 292.875 249.679 294.359C246.753 295.562 244.431 296.812 242.192 299.101C241.288 297.469 240.35 295.903 239.303 294.359C240.97 292.666 242.735 291.288 244.748 290.03Z"/>
	<path fill="#4E678F" transform="matrix(0.195313 0 0 0.195313 0 3.05176e-05)" d="M251.536 288.197C254.353 288.189 257.17 288.164 259.986 288.197C259.931 289.932 259.726 291.858 259.986 293.57C257.357 293.105 254.178 293.188 251.536 293.57L251.536 288.197Z"/>
	<path fill="#4E678F" transform="matrix(0.195313 0 0 0.195313 0 3.05176e-05)" d="M261.495 294.359C264.003 293.293 265.541 291.792 267.55 290.03C269.25 291.729 271.044 293.391 272.624 295.201C270.937 296.428 269.017 297.621 267.55 299.101C265.556 297.439 263.645 295.829 261.495 294.359Z"/>
	<path fill="#4E678F" transform="matrix(0.195313 0 0 0.195313 0 3.05176e-05)" d="M240.323 317.577C242.263 319.757 244.523 321.42 246.569 323.445C244.785 324.577 243.149 325.864 241.297 326.905C239.435 325 237.856 322.974 236.388 320.752C237.748 319.742 239.109 318.763 240.323 317.577Z"/>
	<path fill="#4E678F" transform="matrix(0.195313 0 0 0.195313 0 3.05176e-05)" d="M250.807 325.162C253.656 325.434 256.19 325.505 259.028 325.162C258.878 327.323 258.986 329.51 259.028 331.674C256.296 331.777 253.541 331.709 250.807 331.674C250.764 329.5 250.757 327.336 250.807 325.162Z"/>
	<path fill="#57C0E6" transform="matrix(0.195313 0 0 0.195313 0 3.05176e-05)" d="M251.536 293.57C254.178 293.188 257.357 293.105 259.986 293.57C260.483 293.868 260.941 294.181 261.495 294.359C263.645 295.829 265.556 297.439 267.55 299.101C268.927 300.556 269.874 302.21 270.781 303.984C271.24 306.352 271.634 308.825 271.662 311.238C271.208 312.08 268.976 316.86 269.135 317.577C268.287 318.823 264.485 322.36 264.325 323.445C262.686 324.301 260.764 324.542 259.028 325.162C256.19 325.505 253.656 325.434 250.807 325.162C249.367 324.691 247.966 324.034 246.569 323.445C244.523 321.42 242.263 319.757 240.323 317.577C239.134 315.571 238.569 313.581 238.569 311.238C238.522 308.681 238.713 306.484 239.303 303.984C239.937 301.892 240.778 300.707 242.192 299.101C244.431 296.812 246.753 295.562 249.679 294.359L251.536 293.57Z"/>
	<path fill="#FEFEFE" transform="matrix(0.195313 0 0 0.195313 0 3.05176e-05)" d="M253.336 301.791C264.177 301.389 265.457 314.042 255.712 317.577C246.126 318.924 242.807 304.423 253.336 301.791Z"/>
	<path fill="#4E678F" transform="matrix(0.195313 0 0 0.195313 0 3.05176e-05)" d="M289.265 223.066L331.376 223.074C344.35 223.071 363.954 219.853 367.149 237.315C367.907 241.458 367.502 246.152 367.502 250.373L367.504 273.446C367.505 299.747 367.795 326.081 367.531 352.379C367.435 361.995 362.561 366.986 354.407 370.97L180.283 370.969C173.273 370.968 166.063 370.613 159.07 370.97C145.131 365.549 146.129 356.739 146.124 344.261L146.129 246.785C146.214 220.129 160.837 223.952 182.266 223.958L222.04 223.961L222.04 232.566L168.174 232.553C151.399 232.55 154.632 237.728 154.664 253.157L154.659 327.898C154.652 335.994 154.405 344.161 154.672 352.25C155.033 363.187 164.952 361.554 172.754 361.541L313.172 361.533C325.254 361.533 337.594 361.964 349.653 361.479C361.367 361.008 358.219 343.843 358.215 336.185L358.205 262.856C358.205 255.464 358.568 247.905 358.029 240.539C357.222 229.522 341.934 232.576 333.328 232.573L289.265 232.566C289.444 229.407 289.25 226.228 289.265 223.066Z"/>
</svg>
