<?xml version="1.0" encoding="utf-8" ?>
<svg xmlns="http://www.w3.org/2000/svg" xmlns:xlink="http://www.w3.org/1999/xlink" width="100" height="100">
	<path fill="#3AA0FB" transform="matrix(0.195312 0 0 0.195312 0.00012207 3.05176e-05)" d="M171.768 425.273C176.36 424.324 196.222 425.282 201.923 425.279L327.023 425.276C329.068 425.281 336.149 424.985 337.696 425.273C329.598 431.48 308.098 437.963 297.625 440.335C262.128 448.375 224.937 446.004 190.754 433.5C184.412 431.18 177.501 428.888 171.768 425.273Z"/>
	<defs>
		<linearGradient id="gradient_0" gradientUnits="userSpaceOnUse" x1="236.11929" y1="462.45822" x2="259.72144" y2="372.87427">
			<stop offset="0" stop-color="#4E42A2"/>
			<stop offset="1" stop-color="#535DB2"/>
		</linearGradient>
	</defs>
	<path fill="url(#gradient_0)" transform="matrix(0.195312 0 0 0.195312 0.00012207 3.05176e-05)" d="M66.2134 392.668L85.9749 392.668C86.4297 414.841 99.0879 416.852 117.698 416.786L332.51 416.785C335.442 416.786 340.058 417.89 342.743 416.78C351.453 417.955 360.492 417.468 369.27 417.466L411.256 417.454L411.644 417.49C415.704 417.832 431.318 416.218 433.607 418.831C442.657 429.162 409.344 425.264 407.139 425.269L356.342 425.264C352.32 425.263 341.056 425.986 337.696 425.273C336.149 424.985 329.068 425.281 327.023 425.276L201.923 425.279C196.222 425.282 176.36 424.324 171.768 425.273C169.632 425.02 167.295 425.22 165.141 425.236L110.14 425.274C83.4425 425.33 69.7187 422.232 66.2134 392.668Z"/>
	<path fill="#6B71CD" transform="matrix(0.195312 0 0 0.195312 0.00012207 3.05176e-05)" d="M85.9749 392.668C91.7803 392.005 97.764 392.489 103.597 392.668C113.121 392.695 185.618 391.661 187.369 393.2C212.497 393.297 237.64 392.946 262.765 393.2C271.509 392.741 280.495 393.302 289.25 393.458C303.546 393.713 319.014 394.026 333.142 393.706C333.362 394.188 333.371 394.32 333.367 394.828L333.71 395.358C333.688 406.016 333.544 410.781 342.743 416.78C340.058 417.89 335.442 416.786 332.51 416.785L117.698 416.786C99.0879 416.852 86.4297 414.841 85.9749 392.668Z"/>
	<path fill="#2B1682" transform="matrix(0.195312 0 0 0.195312 0.00012207 3.05176e-05)" d="M187.369 393.2C212.497 393.297 237.64 392.946 262.765 393.2C261.428 397.531 259.06 401.849 254.698 403.685C249.39 405.92 210.251 405.563 201.352 404.941C194.015 404.429 189.993 399.964 187.369 393.2Z"/>
	<path fill="#7CECCB" transform="matrix(0.195312 0 0 0.195312 0.00012207 3.05176e-05)" d="M351.113 311.536L421.332 311.536L421.332 311.536C421.773 322.965 420.517 335.498 421.332 346.556C421.174 359.122 421.343 371.708 421.348 384.276C421.35 392.655 423.387 406.244 416.975 412.96C415.187 414.667 413.328 416.11 411.256 417.454L369.27 417.466C360.492 417.468 351.453 417.955 342.743 416.78C333.544 410.781 333.688 406.016 333.71 395.358L333.71 379.266C333.898 362.787 333.672 346.293 333.717 329.812L333.665 318.648C333.635 316.331 333.412 313.828 333.71 311.536L351.113 311.536L351.113 311.536Z"/>
	<path fill="#F57D7B" transform="matrix(0.195312 0 0 0.195312 0.00012207 3.05176e-05)" d="M351.896 393.2C361.191 390.814 362.943 400.813 356.623 402.238C351.66 402.083 350.133 398.292 351.896 394.062L351.896 393.2Z"/>
	<path fill="#F57D7B" transform="matrix(0.195312 0 0 0.195312 0.00012207 3.05176e-05)" d="M351.896 352.544C365.18 346.239 360.685 366.76 353.537 361.684C352.917 357.968 350.724 359.961 351.896 352.544L351.896 352.544Z"/>
	<path fill="#F57D7B" transform="matrix(0.195312 0 0 0.195312 0.00012207 3.05176e-05)" d="M351.896 373.151C361.257 369.316 365.261 380.135 355.767 382.781L355.534 382.848C354.194 382.466 353.108 382.032 351.896 381.322L351.896 381.322C351.676 378.547 351.638 375.929 351.896 373.151L351.896 373.151Z"/>
	<path fill="#F57D7B" transform="matrix(0.195312 0 0 0.195312 0.00012207 3.05176e-05)" d="M351.113 333.234C352.517 331.984 353.865 331.285 355.785 331.355C365.109 331.699 360.057 345.77 351.896 340.593C350.316 338.034 349.626 336.105 351.113 333.234Z"/>
	<path fill="#31C6F4" transform="matrix(0.195312 0 0 0.195312 0.00012207 3.05176e-05)" d="M371.871 333.234C377.546 333.17 404.376 332.578 407.937 333.969C411.967 335.542 410.188 340.16 406.946 341.34C399.546 341.543 392.109 341.317 384.705 341.319C381.553 341.321 365.315 343.324 368.338 335.569C368.872 334.201 370.62 333.726 371.871 333.234Z"/>
	<path fill="#31C6F4" transform="matrix(0.195312 0 0 0.195312 0.00012207 3.05176e-05)" d="M373.645 373.923L407.695 373.923C411.891 377.944 410.075 382.055 404.612 382L385.079 382.018C380.249 382.02 374.508 382.589 369.837 381.322C366.319 379.082 368.159 376.129 370.616 373.923L373.645 373.923Z"/>
	<path fill="#31C6F4" transform="matrix(0.195312 0 0 0.195312 0.00012207 3.05176e-05)" d="M371.871 394.062C383.79 393.8 395.768 394.074 407.695 394.062C410.289 396.338 411.312 401.129 406.946 402.238C401.888 402.23 371.987 402.777 370.052 401.763C366.286 399.79 366.943 394.649 371.871 394.062Z"/>
	<path fill="#31C6F4" transform="matrix(0.195312 0 0 0.195312 0.00012207 3.05176e-05)" d="M370.616 353.473C381.174 353.091 391.935 353.359 402.5 353.483C409.236 353.561 413.612 357.185 407.695 361.684C401.683 361.977 375.928 362.422 371.26 361.395C367.432 360.553 367.494 355.18 370.616 353.473Z"/>
	<path fill="#21D8AB" transform="matrix(0.195312 0 0 0.195312 0.00012207 3.05176e-05)" d="M333.71 311.536L351.113 311.536C351.609 316.994 351.392 327.555 351.113 333.234C349.626 336.105 350.316 338.034 351.896 340.593C351.725 344.575 351.974 348.561 351.896 352.544L351.896 352.544C350.724 359.961 352.917 357.968 353.537 361.684L351.896 360.795C351.908 364.876 352.143 369.085 351.896 373.151L351.896 373.151C351.638 375.929 351.676 378.547 351.896 381.322L351.896 381.322C351.888 385.254 352.104 389.282 351.896 393.2L351.896 394.062C350.133 398.292 351.66 402.083 356.623 402.238L354.772 403.154C364.515 415.17 368.881 412.972 383.247 412.973L405.704 412.948C409.01 412.938 413.882 412.49 416.975 412.96C415.187 414.667 413.328 416.11 411.256 417.454L369.27 417.466C360.492 417.468 351.453 417.955 342.743 416.78C333.544 410.781 333.688 406.016 333.71 395.358L333.71 379.266C333.898 362.787 333.672 346.293 333.717 329.812L333.665 318.648C333.635 316.331 333.412 313.828 333.71 311.536Z"/>
	<path fill="#9D373B" transform="matrix(0.195312 0 0 0.195312 0.00012207 3.05176e-05)" d="M351.896 373.151C351.638 375.929 351.676 378.547 351.896 381.322C348.903 378.63 349.155 375.882 351.896 373.151Z"/>
	<path fill="#9D373B" transform="matrix(0.195312 0 0 0.195312 0.00012207 3.05176e-05)" d="M351.896 352.544C350.724 359.961 352.917 357.968 353.537 361.684L351.896 360.795C348.753 357.902 348.993 355.464 351.896 352.544Z"/>
	<path fill="#9D373B" transform="matrix(0.195312 0 0 0.195312 0.00012207 3.05176e-05)" d="M354.772 403.154C349.382 402.433 346.355 396.796 351.896 394.062C350.133 398.292 351.66 402.083 356.623 402.238L354.772 403.154Z"/>
	<defs>
		<linearGradient id="gradient_1" gradientUnits="userSpaceOnUse" x1="401.94019" y1="369.95306" x2="111.68784" y2="129.90685">
			<stop offset="0" stop-color="#8BA1F2"/>
			<stop offset="1" stop-color="#DCEAF8"/>
		</linearGradient>
	</defs>
	<path fill="url(#gradient_1)" transform="matrix(0.195312 0 0 0.195312 0.00012207 3.05176e-05)" d="M100.71 362.643C99.9511 359.481 99.0215 359.401 97.2654 356.822C59.8031 301.807 56.8429 228.759 86.1333 169.372C119.433 101.854 187.57 62.4367 262.294 64.3371C280.031 64.7882 297.9 68.4504 314.825 73.5966C322.684 75.7605 329.99 79.1856 337.325 82.6751C430.524 127.013 470.437 237.996 428.708 332.636C426.648 337.307 424.391 342.456 421.332 346.556C420.517 335.498 421.773 322.965 421.332 311.536L421.332 311.536L351.113 311.536L351.113 311.536L333.71 311.536C333.412 313.828 333.635 316.331 333.665 318.648L333.717 329.812C333.672 346.293 333.898 362.787 333.71 379.266L333.71 395.358L333.367 394.828C333.371 394.32 333.362 394.188 333.142 393.706C319.014 394.026 303.546 393.713 289.25 393.458C280.495 393.302 271.509 392.741 262.765 393.2C237.64 392.946 212.497 393.297 187.369 393.2C185.618 391.661 113.121 392.695 103.597 392.668C98.652 383.893 100.86 372.297 100.71 362.643Z"/>
	<path fill="#FEFEFE" transform="matrix(0.195312 0 0 0.195312 0.00012207 3.05176e-05)" d="M384.818 229.628C387.375 229.842 391.63 235.688 393.381 237.655C390.697 240.086 388.352 242.856 385.65 245.261L385.02 245.191C382.371 243.482 379.233 240.27 377.424 237.655L377.553 237.487C379.674 234.664 382.275 232.076 384.818 229.628Z"/>
	<path fill="#FEFEFE" transform="matrix(0.195312 0 0 0.195312 0.00012207 3.05176e-05)" d="M407.695 201.653C410.452 203.641 414.548 207.894 416.975 210.456C413.752 213.045 410.753 215.567 407.695 218.381C405.834 217.514 401.446 212.227 399.425 210.456C401.607 207.186 404.85 204.36 407.695 201.653Z"/>
	<path fill="#CFEDF6" transform="matrix(0.195312 0 0 0.195312 0.00012207 3.05176e-05)" d="M206.019 135.072C208.153 135.305 210.247 135.217 212.382 135.072C212.257 146.086 213.333 160.395 212.382 171.011L206.019 171.011L206.019 135.072Z"/>
	<path fill="#2B1682" transform="matrix(0.195312 0 0 0.195312 0.00012207 3.05176e-05)" d="M212.382 171.011L227.487 171.011C227.638 173.337 227.616 175.588 227.487 177.913C226.041 177.852 224.583 177.727 223.143 177.913C220.401 177.842 217.679 177.84 214.936 177.913C211.963 177.873 208.992 177.894 206.019 177.913C204.118 177.602 201.691 177.877 199.738 177.886L185.167 177.913C185.464 175.69 185.66 173.214 185.167 171.011L206.019 171.011L212.382 171.011Z"/>
	<path fill="#31C6F4" transform="matrix(0.195312 0 0 0.195312 0.00012207 3.05176e-05)" d="M290.38 170.328C291.939 169.911 298.231 170.317 300.351 170.318L333.71 170.328C333.188 173.242 333.296 175.509 333.71 178.446C329.325 178.241 291.149 178.783 290.487 178.476L290.38 177.913C290.669 175.298 290.798 172.935 290.38 170.328Z"/>
	<path fill="#2B1682" transform="matrix(0.195312 0 0 0.195312 0.00012207 3.05176e-05)" d="M200.215 126.764L209.279 126.764L209.279 126.764L246.988 126.764C247.018 129.423 247.336 132.457 246.988 135.072L244.027 135.072L227.487 135.072C224.553 134.873 221.478 135.059 218.53 135.067L200.215 135.072L200.215 126.764Z"/>
	<path fill="#4746B9" transform="matrix(0.195312 0 0 0.195312 0.00012207 3.05176e-05)" d="M209.279 126.764L246.988 126.764C247.018 129.423 247.336 132.457 246.988 135.072C246.579 132.715 246.783 130.249 246.988 127.881C241.679 133.698 218.986 132.55 212.444 131.437C209.82 130.991 208.733 129.452 209.279 126.764Z"/>
	<path fill="#3AA0FB" transform="matrix(0.195312 0 0 0.195312 0.00012207 3.05176e-05)" d="M200.215 126.764C193.784 126.383 189.113 129.054 188.866 120.648C188.191 97.6672 188.738 101.912 210.532 101.987C205.462 107.041 203.787 124.24 209.279 126.764L200.215 126.764Z"/>
	<path fill="#F57D7B" transform="matrix(0.195312 0 0 0.195312 0.00012207 3.05176e-05)" d="M261.462 153.131C263.154 152.735 264.814 152.401 266.538 152.185C256.742 161.266 253.455 179.442 262.81 189.441C267.07 193.994 279.044 191.289 284.2 189.982C272.662 202.008 247.371 195.852 246.988 177.913C246.33 175.267 246.322 173.635 246.988 171.011C246.717 162.057 253.813 156.37 261.462 153.131Z"/>
	<path fill="#FEA337" transform="matrix(0.195312 0 0 0.195312 0.00012207 3.05176e-05)" d="M174.232 193.579C159.546 201.836 141.333 194.692 138.122 177.8C135.797 165.574 145.694 153.236 157.572 151.126C156.976 153.226 154.939 154.737 153.793 156.549C146.715 167.749 151.505 187.502 164.727 192.15C167.307 193.057 173.245 193.037 174.232 193.579Z"/>
	<path fill="#157FFD" transform="matrix(0.195312 0 0 0.195312 0.00012207 3.05176e-05)" d="M333.71 170.328C334.493 154.069 351.023 143.372 366.276 144.492C344.444 148.375 335.602 181.156 354.361 193.937C363.402 200.097 375.264 200.161 384.818 195.128C366.775 213.369 333.601 201.536 333.71 178.446C333.296 175.509 333.188 173.242 333.71 170.328Z"/>
	<defs>
		<linearGradient id="gradient_2" gradientUnits="userSpaceOnUse" x1="288.37872" y1="166.2187" x2="257.62445" y2="177.29013">
			<stop offset="0" stop-color="#FFD970"/>
			<stop offset="1" stop-color="#FDA78E"/>
		</linearGradient>
	</defs>
	<path fill="url(#gradient_2)" transform="matrix(0.195312 0 0 0.195312 0.00012207 3.05176e-05)" d="M266.538 152.185C278.802 152.044 286.831 159.046 290.38 170.328C290.798 172.935 290.669 175.298 290.38 177.913L290.145 179.033C289.155 183.752 287.649 186.664 284.2 189.982C279.044 191.289 267.07 193.994 262.81 189.441C253.455 179.442 256.742 161.266 266.538 152.185Z"/>
	<path fill="#FEFEFE" transform="matrix(0.195312 0 0 0.195312 0.00012207 3.05176e-05)" d="M274.506 170.328C278.44 169.783 279.866 171.429 281.675 174.871C280.558 177.267 279.41 179.05 276.857 180.022C270.138 181.143 268.168 172.486 274.506 170.328Z"/>
	<path fill="#CFEDF6" transform="matrix(0.195312 0 0 0.195312 0.00012207 3.05176e-05)" d="M206.019 177.913C208.992 177.894 211.963 177.873 214.936 177.913C214.154 178.271 212.862 177.986 212.013 177.913C212.398 186.143 212.376 194.327 212.374 202.563C212.37 218.493 214.955 227.448 219.176 242.218C209.968 243.62 203.952 244.705 195.424 248.768C188.333 246.309 180.089 249.272 172.817 248.076C175.72 241.63 180.314 236.986 185.167 232.007C189.599 229.812 200.706 220.29 206.019 216.787C206.003 212.881 205.723 178.618 206.019 177.913Z"/>
	<path fill="#FEFEFE" transform="matrix(0.195312 0 0 0.195312 0.00012207 3.05176e-05)" d="M227.487 135.072L244.027 135.072L244.006 160.655C244.003 163.934 243.582 167.793 244.027 171.011L227.487 171.011L212.382 171.011C213.333 160.395 212.257 146.086 212.382 135.072C214.761 135.071 226.52 135.515 227.487 135.072Z"/>
	<path fill="#FCC569" transform="matrix(0.195312 0 0 0.195312 0.00012207 3.05176e-05)" d="M157.572 151.126C170.218 147.538 182.211 159.17 185.167 171.011C185.66 173.214 185.464 175.69 185.167 177.913C181.862 182.399 183.44 188.289 174.232 193.579C173.245 193.037 167.307 193.057 164.727 192.15C151.505 187.502 146.715 167.749 153.793 156.549C154.939 154.737 156.976 153.226 157.572 151.126Z"/>
	<path fill="#FEFEFE" transform="matrix(0.195312 0 0 0.195312 0.00012207 3.05176e-05)" d="M170.298 168.087C176.655 167.74 177.204 177.184 170.298 178.446C162.576 178.009 163.117 168.84 170.298 168.087Z"/>
	<path fill="#31C6F4" transform="matrix(0.195312 0 0 0.195312 0.00012207 3.05176e-05)" d="M210.532 101.987L241.469 101.972C247.521 101.972 256.246 99.7944 259.989 105.881C260.062 127.032 263.611 125.53 246.988 126.764L209.279 126.764L209.279 126.764C203.787 124.24 205.462 107.041 210.532 101.987Z"/>
	<path fill="#6B71CD" transform="matrix(0.195312 0 0 0.195312 0.00012207 3.05176e-05)" d="M262.765 232.007C280.158 231.799 297.58 232.003 314.976 232.004C335.287 232.006 353.528 227.073 353.579 254.724L353.584 265.941C353.582 266.68 353.568 267.414 353.537 268.151L341.411 268.151C341.525 243.203 342.483 248.1 317.405 248.086L274.506 248.076C270.316 242.926 267.077 237.145 262.765 232.007Z"/>
	<path fill="#CFEDF6" transform="matrix(0.195312 0 0 0.195312 0.00012207 3.05176e-05)" d="M341.411 268.151L353.537 268.151C359.206 268.314 364.909 268.154 370.581 268.15L404.339 268.142C410.673 268.142 418.971 267.65 425.121 268.337C429.992 268.881 429.904 272.841 429.469 276.999C428.985 281.629 424.911 280.887 421.332 280.83C421.343 291.034 421.627 301.341 421.332 311.536L421.332 311.536L421.332 280.83L351.113 280.83C350.805 284.063 351.091 287.49 351.097 290.749L351.113 311.536L351.113 311.536L333.71 311.536C333.929 308.148 333.733 304.613 333.73 301.213L333.71 280.83C332.053 280.792 328.771 281.08 327.451 280.055C325.289 278.373 325.396 270.556 327.486 268.933C329.376 267.465 338.722 268.131 341.411 268.151Z"/>
	<defs>
		<linearGradient id="gradient_3" gradientUnits="userSpaceOnUse" x1="393.552" y1="174.8777" x2="344.85455" y2="168.67863">
			<stop offset="0" stop-color="#16DAF3"/>
			<stop offset="1" stop-color="#0BACFF"/>
		</linearGradient>
	</defs>
	<path fill="url(#gradient_3)" transform="matrix(0.195312 0 0 0.195312 0.00012207 3.05176e-05)" d="M366.276 144.492C393.943 145.96 402.342 183.048 384.818 195.128C375.264 200.161 363.402 200.097 354.361 193.937C335.602 181.156 344.444 148.375 366.276 144.492Z"/>
	<path fill="#6EEAE8" transform="matrix(0.195312 0 0 0.195312 0.00012207 3.05176e-05)" d="M377.424 168.087C379.66 167.88 381.977 167.941 384.216 168.087C386.218 172.168 385.583 176.611 384.818 180.914L382.87 180.914C371.779 180.415 371.342 170.431 377.424 168.087Z"/>
	<path fill="#FEFEFE" transform="matrix(0.195312 0 0 0.195312 0.00012207 3.05176e-05)" d="M351.113 280.83L421.332 280.83L421.332 311.536L351.113 311.536L351.097 290.749C351.091 287.49 350.805 284.063 351.113 280.83Z"/>
	<path fill="#FEFEFE" transform="matrix(0.195312 0 0 0.195312 0.00012207 3.05176e-05)" d="M244.027 171.011L246.988 171.011C246.322 173.635 246.33 175.267 246.988 177.913L244.027 177.913C244.799 190.284 243.728 204.134 244.027 216.787C249.086 221.305 257.155 227.46 262.765 232.007C267.077 237.145 270.316 242.926 274.506 248.076C266.958 248.674 259.338 247.39 251.81 248.768C239.244 243.536 232.848 242.003 219.176 242.218C214.955 227.448 212.37 218.493 212.374 202.563C212.376 194.327 212.398 186.143 212.013 177.913C212.862 177.986 214.154 178.271 214.936 177.913C217.679 177.84 220.401 177.842 223.143 177.913C224.583 177.727 226.041 177.852 227.487 177.913C227.616 175.588 227.638 173.337 227.487 171.011L244.027 171.011Z"/>
	<path fill="#6B71CD" transform="matrix(0.195312 0 0 0.195312 0.00012207 3.05176e-05)" d="M244.027 171.011L246.988 171.011C246.322 173.635 246.33 175.267 246.988 177.913L244.027 177.913C237.077 177.882 230.084 178.163 223.143 177.913C224.583 177.727 226.041 177.852 227.487 177.913C227.616 175.588 227.638 173.337 227.487 171.011L244.027 171.011Z"/>
	<path fill="#6EEAE8" transform="matrix(0.195312 0 0 0.195312 0.00012207 3.05176e-05)" d="M100.71 362.643L100.701 255.965C100.621 233.098 102.5 231.943 127.051 231.999L176.913 231.995C179.524 231.981 182.643 231.485 185.167 232.007C180.314 236.986 175.72 241.63 172.817 248.076C180.089 249.272 188.333 246.309 195.424 248.768C203.952 244.705 209.968 243.62 219.176 242.218C232.848 242.003 239.244 243.536 251.81 248.768C259.338 247.39 266.958 248.674 274.506 248.076L317.405 248.086C342.483 248.1 341.525 243.203 341.411 268.151C338.722 268.131 329.376 267.465 327.486 268.933C325.396 270.556 325.289 278.373 327.451 280.055C328.771 281.08 332.053 280.792 333.71 280.83L333.73 301.213C333.733 304.613 333.929 308.148 333.71 311.536C333.412 313.828 333.635 316.331 333.665 318.648L333.717 329.812C333.672 346.293 333.898 362.787 333.71 379.266L333.71 395.358L333.367 394.828C333.371 394.32 333.362 394.188 333.142 393.706C319.014 394.026 303.546 393.713 289.25 393.458C280.495 393.302 271.509 392.741 262.765 393.2C237.64 392.946 212.497 393.297 187.369 393.2C185.618 391.661 113.121 392.695 103.597 392.668C98.652 383.893 100.86 372.297 100.71 362.643Z"/>
	<defs>
		<linearGradient id="gradient_4" gradientUnits="userSpaceOnUse" x1="101.16669" y1="387.59937" x2="271.79117" y2="281.40482">
			<stop offset="0" stop-color="#4341A4"/>
			<stop offset="1" stop-color="#666CC4"/>
		</linearGradient>
	</defs>
	<path fill="url(#gradient_4)" transform="matrix(0.195312 0 0 0.195312 0.00012207 3.05176e-05)" d="M100.71 362.643L100.701 255.965C100.621 233.098 102.5 231.943 127.051 231.999L176.913 231.995C179.524 231.981 182.643 231.485 185.167 232.007C180.314 236.986 175.72 241.63 172.817 248.076L148.879 248.076L131.124 248.046C113.168 248.013 116.148 251.714 116.143 267.039L116.142 346.164C116.141 354.308 115.948 362.499 116.099 370.638C116.28 380.373 123.871 379.31 131.527 379.301L147.003 379.266L333.71 379.266L333.71 395.358L333.367 394.828C333.371 394.32 333.362 394.188 333.142 393.706C319.014 394.026 303.546 393.713 289.25 393.458C280.495 393.302 271.509 392.741 262.765 393.2C237.64 392.946 212.497 393.297 187.369 393.2C185.618 391.661 113.121 392.695 103.597 392.668C98.652 383.893 100.86 372.297 100.71 362.643Z"/>
	<path fill="#3AA0FB" transform="matrix(0.195312 0 0 0.195312 0.00012207 3.05176e-05)" d="M219.176 242.218C232.848 242.003 239.244 243.536 251.81 248.768C279.425 267.068 292.292 300.671 272.691 330.171C270.71 333.153 268.143 335.933 266.538 339.123L266.144 339.398C261.913 342.381 258.316 346.102 253.989 349.002C234.831 361.842 207.129 361.954 188.909 347.42C183.698 344.294 178.411 337.653 175.124 332.642C154.713 301.517 165.993 268.011 195.424 248.768C203.952 244.705 209.968 243.62 219.176 242.218Z"/>
	<path fill="#157FFD" transform="matrix(0.195312 0 0 0.195312 0.00012207 3.05176e-05)" d="M266.538 339.123L266.144 339.398C261.913 342.381 258.316 346.102 253.989 349.002C234.831 361.842 207.129 361.954 188.909 347.42L189.247 347.229C205.315 358.439 223.479 361.836 242.154 354.167C243.883 353.457 247.261 353.28 247.707 351.032C246.418 349.122 239.813 351.891 237.876 352.195C231.571 353.182 217.033 353.135 211.051 350.085L211.035 350.126L211.455 350.118C211.798 349.795 211.952 349.967 212.363 350.101C227.916 355.176 244.355 352.094 258.385 344.083C261.25 342.447 263.35 340.3 266.538 339.123Z"/>
	<path fill="#157FFD" transform="matrix(0.195312 0 0 0.195312 0.00012207 3.05176e-05)" d="M194.426 323.57L195.9 323.759C195.132 326.341 190.817 327.33 188.592 326.59C181.185 324.128 185.401 309.902 191.18 312.047C187.041 316.679 189.31 321.004 194.426 323.57Z"/>
	<path fill="#157FFD" transform="matrix(0.195312 0 0 0.195312 0.00012207 3.05176e-05)" d="M239.922 314.309C241.602 315.586 243.301 316.829 244.804 318.315C246.395 322.051 247.907 323.212 251.81 323.57L252.326 323.833L252.252 324.312C246.715 330.404 241.548 327.279 240.952 320.064C238.846 319.82 236.965 319.558 235.186 318.315C236.907 317.123 238.416 315.759 239.922 314.309Z"/>
	<path fill="#157FFD" transform="matrix(0.195312 0 0 0.195312 0.00012207 3.05176e-05)" d="M216.532 274.308C206.623 269.533 215.323 258.116 219.176 260.008C217.768 261.458 217.137 262.996 216.532 264.879C217.297 267.528 218.273 269.103 220.435 270.884C220.413 273.144 220.487 275.412 220.435 277.67C219.38 279.395 218.088 280.676 216.532 281.948C215.266 280.556 216.42 276.103 216.532 274.308Z"/>
	<path fill="#FEFEFE" transform="matrix(0.195312 0 0 0.195312 0.00012207 3.05176e-05)" d="M219.176 260.008C228.888 255.971 233.535 263.389 227.487 270.884L227.487 280.087C231.719 282.292 235.832 284.576 239.922 287.036C244.428 285.038 244.453 284.855 246.827 280.824C250.002 275.436 256.924 279.521 258.064 284.738C257.405 287.603 256.329 289.236 253.838 290.892C251.236 295.442 248.836 295.636 244.027 295.711C244.659 299.578 244.516 303.311 244.027 307.191C245.3 308.834 246.437 310.29 248.121 311.536C261.758 309.646 258.66 323.052 251.81 323.57C247.907 323.212 246.395 322.051 244.804 318.315C243.301 316.829 241.602 315.586 239.922 314.309C238.416 315.759 236.907 317.123 235.186 318.315C232.702 319.762 229.943 320.667 227.487 322.12L227.487 327.604C230.917 332.502 231.044 335.975 225.523 339.123C223.888 343.306 217.731 344.761 214.24 342.072C209.346 338.302 215.078 332.31 213.932 324.785C208.122 322.792 207.438 322.717 201.855 318.996C199.886 321.732 197.784 323.331 194.426 323.57C189.31 321.004 187.041 316.679 191.18 312.047C192.565 311.071 193.738 310.591 195.424 310.354C195.543 309.682 197.709 307.858 198.265 307.191C198.687 302.832 199.091 298.784 195.424 295.711C192.343 295.45 188.142 296.626 185.846 293.932C182.772 290.324 184.729 280.398 190.418 280.83C195.73 276.405 199.2 279.167 201.855 284.738C203.472 285.533 205.085 286.319 206.738 287.036C209.977 285.752 213.763 284.057 216.532 281.948C218.088 280.676 219.38 279.395 220.435 277.67C220.487 275.412 220.413 273.144 220.435 270.884C218.273 269.103 217.297 267.528 216.532 264.879C217.137 262.996 217.768 261.458 219.176 260.008Z"/>
	<path fill="#157FFD" transform="matrix(0.195312 0 0 0.195312 0.00012207 3.05176e-05)" d="M248.121 290.406C250.127 290.939 251.747 291.269 253.838 290.892C251.236 295.442 248.836 295.636 244.027 295.711L243.674 294.623C244.07 292.979 246.79 291.394 248.121 290.406Z"/>
	<path fill="#F57D7B" transform="matrix(0.195312 0 0 0.195312 0.00012207 3.05176e-05)" d="M212.903 293.532C214.661 294.835 215.755 296.95 217.324 298.479C216.449 303.446 219.332 308.639 224.54 309.365C226.15 310.119 228.109 311.582 229.032 313.114C216.333 318.678 204.321 304.364 212.903 293.532Z"/>
	<path fill="#157FFD" transform="matrix(0.195312 0 0 0.195312 0.00012207 3.05176e-05)" d="M195.424 295.711C192.343 295.45 188.142 296.626 185.846 293.932C182.772 290.324 184.729 280.398 190.418 280.83C186.038 286.071 189.896 293.711 198.265 290.406C200.036 291.751 201.792 293.238 203.676 294.416C202.224 298.743 202.43 302.847 203.676 307.191L198.265 311.536C197.325 311.134 196.388 310.694 195.424 310.354C195.543 309.682 197.709 307.858 198.265 307.191C198.687 302.832 199.091 298.784 195.424 295.711Z"/>
	<path fill="#157FFD" transform="matrix(0.195312 0 0 0.195312 0.00012207 3.05176e-05)" d="M206.019 314.309C210.182 317.875 214.133 320.009 219.176 322.12C219.545 323.953 219.862 325.822 220.435 327.604C213.054 333.861 217.293 340.467 225.523 339.123C223.888 343.306 217.731 344.761 214.24 342.072C209.346 338.302 215.078 332.31 213.932 324.785C208.122 322.792 207.438 322.717 201.855 318.996L202.432 316.539C203.68 315.854 204.846 315.113 206.019 314.309Z"/>
	<path fill="#F59E72" transform="matrix(0.195312 0 0 0.195312 0.00012207 3.05176e-05)" d="M212.903 293.532C226.937 277.195 248.222 301.891 229.032 313.114C228.109 311.582 226.15 310.119 224.54 309.365C219.332 308.639 216.449 303.446 217.324 298.479C215.755 296.95 214.661 294.835 212.903 293.532Z"/>
	<path fill="#FCC569" transform="matrix(0.195312 0 0 0.195312 0.00012207 3.05176e-05)" d="M217.324 298.479C224.551 281.764 241.485 305.86 224.54 309.365C219.332 308.639 216.449 303.446 217.324 298.479Z"/>
</svg>
