<?xml version="1.0" encoding="utf-8" ?>
<svg xmlns="http://www.w3.org/2000/svg" xmlns:xlink="http://www.w3.org/1999/xlink" width="100" height="100">
	<path fill="#4769A6" transform="scale(0.195312 0.195312)" d="M367.518 232.187C370.571 232.161 373.81 231.91 376.844 232.187L376.844 253.249L367.518 253.249L367.518 232.187Z"/>
	<path fill="#9CAFE5" transform="scale(0.195312 0.195312)" d="M44.9873 295.673C45.1425 297.468 44.6608 299.147 46.9381 298.977C50.7574 299.001 54.6684 299.179 58.4773 298.977L58.454 311.042C58.43 323.405 60.1707 327.982 70.0889 334.841C42.0294 334.508 44.4303 317.582 44.9873 295.673Z"/>
	<path fill="#606060" transform="scale(0.195312 0.195312)" d="M218.746 113.156L260.866 113.156L260.866 122.21L233.875 122.21L225.373 122.21L225.373 146.398L216.443 146.398L216.418 126.179C216.395 122.069 214.555 115.591 218.746 113.156Z"/>
	<path fill="#D5DCE9" transform="scale(0.195312 0.195312)" d="M101.714 375.931C99.2447 374.328 97.6484 370.316 100.235 368.025C102.668 365.869 117.482 366.898 121.276 366.986C122.851 367.415 134.781 366.986 137.713 366.984L192.001 366.986C196.801 367.468 224.713 363.545 213.156 375.931C206.638 376.31 199.847 375.929 193.304 375.929L118.132 375.931C112.71 375.936 107.105 376.349 101.714 375.931Z"/>
	<path fill="#B8CEF3" transform="scale(0.195312 0.195312)" d="M130.948 334.841C135.239 335.366 141.588 334.814 146.08 334.817L182.068 334.841C182.91 338.762 184.372 342.506 185.451 346.362C188.248 352.948 189.583 360.242 192.001 366.986L137.713 366.984C134.781 366.986 122.851 367.415 121.276 366.986C123.127 360.063 125.214 353.186 127.401 346.362C128.914 342.674 129.447 338.569 130.948 334.841Z"/>
	<path fill="#9CAFE5" transform="scale(0.195312 0.195312)" d="M130.948 334.841C135.239 335.366 141.588 334.814 146.08 334.817L182.068 334.841C182.91 338.762 184.372 342.506 185.451 346.362C181.236 346.79 176.689 346.355 172.439 346.337L142.434 346.352C137.543 346.348 132.259 345.932 127.401 346.362C128.914 342.674 129.447 338.569 130.948 334.841Z"/>
	<path fill="#6088BC" transform="scale(0.195312 0.195312)" d="M172.573 167.754L238.75 167.735C262.348 167.692 264.96 175.567 264.942 197.224L264.932 264.089C264.934 271.746 265.255 279.482 264.925 287.129C264.711 285.472 264.872 283.713 264.925 282.043L248.49 282.043L248.49 184.904C241.923 184.903 173.879 184.541 172.938 185.001C172.59 185.171 172.642 185.601 172.573 185.947C172.142 181.514 172.563 176.644 172.573 172.164C172.625 170.685 172.639 169.233 172.573 167.754Z"/>
	<path fill="#D5DCE9" transform="scale(0.195312 0.195312)" d="M58.4773 298.977L264.925 298.977L264.905 299.216C264.098 309.803 267.757 322.235 258.603 330.213C250.976 336.86 240.566 334.857 231.208 334.851L193.226 334.852C190.532 334.856 184.371 334.309 182.068 334.841L146.08 334.817C141.588 334.814 135.239 335.366 130.948 334.841C128.486 334.391 120.441 334.826 117.284 334.828L80.7938 334.848C78.1438 334.852 72.3108 335.366 70.0889 334.841C60.1707 327.982 58.43 323.405 58.454 311.042L58.4773 298.977Z"/>
	<path fill="#6ED0F6" transform="scale(0.195312 0.195312)" d="M139.316 156.056C134.93 155.633 131.769 149.23 135.83 146.29C138.882 144.08 147.098 145.233 150.761 145.238L175.829 145.251C180.892 149.245 178.609 154.668 172.573 156.056C172.504 159.807 171.819 164.107 172.573 167.754C172.639 169.233 172.625 170.685 172.573 172.164C172.563 176.644 172.142 181.514 172.573 185.947C172.642 185.601 172.59 185.171 172.938 185.001C173.879 184.541 241.923 184.903 248.49 184.904L248.49 282.043L264.925 282.043C264.872 283.713 264.711 285.472 264.925 287.129C264.946 291.048 265.144 295.067 264.925 298.977L58.4773 298.977C54.6684 299.179 50.7574 299.001 46.9381 298.977C44.6608 299.147 45.1425 297.468 44.9873 295.673L44.9873 282.043L44.9484 187.781C45.0708 172.072 56.2303 167.591 70.0889 167.754L139.316 167.754C140.069 164.04 139.149 160.647 139.316 156.957L139.316 156.056Z"/>
	<path fill="#FEFEFE" transform="scale(0.195312 0.195312)" d="M74.7423 222.4C78.1223 222.224 93.8865 221.994 96.1927 222.882C98.0908 224.965 96.8014 229.163 95.6987 231.359L74.7423 231.359C71.6086 229.027 71.741 224.748 74.7423 222.4Z"/>
	<path fill="#FEFEFE" transform="scale(0.195312 0.195312)" d="M76.3944 204.025C86.8324 203.429 97.5258 204.138 107.994 204.025L107.994 212.663C106.906 212.721 105.851 212.723 104.763 212.663L86.2514 212.691C74.7944 212.695 72.1065 215.612 72.7946 204.025C73.9804 203.931 75.2044 204.009 76.3944 204.025Z"/>
	<path fill="#6088BC" transform="scale(0.195312 0.195312)" d="M70.0889 167.754L139.316 167.754L139.316 184.904L61.7152 184.904L61.7152 282.043C60.629 281.968 59.5635 282.005 58.4773 282.043C58.1276 277.557 58.4703 272.774 58.4711 268.26L58.475 201.459C58.4754 185.429 55.1856 177.584 70.0889 167.754Z"/>
	<path fill="#F48787" transform="scale(0.195312 0.195312)" d="M151.705 232.187L180.565 232.18C185.54 232.176 190.531 232.011 195.503 232.187C197.311 267.508 155.935 287.584 129.299 262.951C120.681 254.981 116.601 243.762 116.769 232.187C120.636 232.018 124.589 232.177 128.466 232.179L151.705 232.187Z"/>
	<path fill="#E4E8ED" transform="scale(0.195312 0.195312)" d="M139.316 156.056C134.93 155.633 131.769 149.23 135.83 146.29C138.882 144.08 147.098 145.233 150.761 145.238L175.829 145.251C180.892 149.245 178.609 154.668 172.573 156.056C172.504 159.807 171.819 164.107 172.573 167.754C172.639 169.233 172.625 170.685 172.573 172.164C172.563 176.644 172.142 181.514 172.573 185.947C172.6 190.359 173.041 195.213 172.573 199.57C185.101 207.154 194.857 216.901 195.503 232.187C190.531 232.011 185.54 232.176 180.565 232.18L151.705 232.187L128.466 232.179C124.589 232.177 120.636 232.018 116.769 232.187C118.987 216.831 125.395 207.411 139.316 199.57C139.107 194.711 139.304 189.771 139.316 184.904L139.316 167.754C140.069 164.04 139.149 160.647 139.316 156.957L139.316 156.056Z"/>
	<path fill="#D5DCE9" transform="scale(0.195312 0.195312)" d="M139.316 156.056C145.599 154.78 164.608 156.432 172.573 156.056C172.389 158.059 172.32 160.013 172.573 162.015L139.316 162.015C139.452 160.38 139.613 158.577 139.316 156.957L139.316 156.056Z"/>
	<path fill="#FEFEFE" transform="scale(0.195312 0.195312)" d="M151.705 172.164C158.623 172.189 165.678 171.723 172.573 172.164C172.563 176.644 172.142 181.514 172.573 185.947C172.6 190.359 173.041 195.213 172.573 199.57C185.101 207.154 194.857 216.901 195.503 232.187C190.531 232.011 185.54 232.176 180.565 232.18L151.705 232.187C151.477 229.82 151.65 227.35 151.673 224.969L151.705 172.164Z"/>
	<path fill="#4769A6" transform="scale(0.195312 0.195312)" d="M44.9873 282.043L44.9484 187.781C45.0708 172.072 56.2303 167.591 70.0889 167.754C55.1856 177.584 58.4754 185.429 58.475 201.459L58.4711 268.26C58.4703 272.774 58.1276 277.557 58.4773 282.043C59.5635 282.005 60.629 281.968 61.7152 282.043C73.5279 282.286 85.392 282.039 97.2099 282.038L221.819 282.043C230.669 282.044 239.653 282.375 248.49 282.043L264.925 282.043C264.872 283.713 264.711 285.472 264.925 287.129C264.946 291.048 265.144 295.067 264.925 298.977L58.4773 298.977C54.6684 299.179 50.7574 299.001 46.9381 298.977C44.6608 299.147 45.1425 297.468 44.9873 295.673L44.9873 282.043Z"/>
	<path fill="#27428A" transform="scale(0.195312 0.195312)" d="M44.9873 282.043C49.4673 281.652 53.9896 281.896 58.4773 282.043L58.4773 298.977C54.6974 298.807 50.6964 298.459 46.9381 298.977C44.6608 299.147 45.1425 297.468 44.9873 295.673L44.9873 282.043Z"/>
	<path fill="#FECB5B" transform="scale(0.195312 0.195312)" d="M367.518 232.187C359.313 230.597 352.748 229.836 344.531 227.436C268.979 205.372 256.969 105.755 317.787 60.922C339.832 44.672 363.521 39.4981 390.493 43.617C425.693 50.946 455.771 77.5872 464.567 112.808C465.944 118.321 466.738 124.084 467.721 129.681C467.721 134.589 467.865 139.52 467.452 144.415C463.899 186.62 433.411 221.315 391.983 229.953C386.949 231.002 381.92 231.459 376.844 232.187C373.81 231.91 370.571 232.161 367.518 232.187ZM367.518 117.69C372.91 117.688 378.471 117.396 383.84 117.821C384.262 120.07 375.661 123.893 378.708 128.57C383.999 136.693 392.175 124.236 395.762 120.523C397.97 118.237 404.23 114.103 401.456 110.394C399.582 107.89 388.539 96.4093 386.066 94.6396C382.748 92.2649 372.373 95.4173 384.355 107.25L367.518 107.25C363.908 82.7654 330.873 73.607 315.965 94.3419C292.382 127.141 341.706 157.394 362.345 127.599C364.415 124.61 366.01 121.002 367.518 117.69ZM401.13 162.989C391.416 162.982 381.633 163.271 371.93 162.989L357.533 162.989C359.574 160.732 362.21 158.711 363.724 156.056C363.73 154.89 363.763 153.718 363.724 152.553C357.91 144.417 350.8 155.93 346.691 160.023C343.042 163.659 337.585 166.252 342.242 171.763C345.243 175.315 355.308 185.795 358.885 187.378C369.854 182.321 360.768 177.992 357.533 173.405C364.157 172.768 381.688 172.871 388.299 173.405C392.575 173.32 396.857 173.594 401.13 173.405C399.263 175.399 393.239 179.876 394.712 183.17C399.528 193.942 414.106 174.743 417.064 170.766C420.79 165.757 412.758 160.48 409.698 157.295C407.567 155.077 403.805 149.504 400.493 149.152C398.142 148.901 394.875 151.239 394.723 153.685C394.527 156.833 399.171 160.834 401.13 162.989Z"/>
	<path fill="#FEB647" transform="scale(0.195312 0.195312)" d="M371.93 162.989C378.514 128.25 433.548 138.875 425.778 175.587C419.071 207.272 374.257 205.273 371.93 173.405L382.157 173.441C384.122 173.461 386.363 173.712 388.299 173.405C392.575 173.32 396.857 173.594 401.13 173.405C399.263 175.399 393.239 179.876 394.712 183.17C399.528 193.942 414.106 174.743 417.064 170.766C420.79 165.757 412.758 160.48 409.698 157.295C407.567 155.077 403.805 149.504 400.493 149.152C398.142 148.901 394.875 151.239 394.723 153.685C394.527 156.833 399.171 160.834 401.13 162.989C391.416 162.982 381.633 163.271 371.93 162.989Z"/>
	<path fill="#FEB647" transform="scale(0.195312 0.195312)" d="M367.518 117.69C366.01 121.002 364.415 124.61 362.345 127.599C341.706 157.394 292.382 127.141 315.965 94.3419C330.873 73.607 363.908 82.7654 367.518 107.25L384.355 107.25C372.373 95.4173 382.748 92.2649 386.066 94.6396C388.539 96.4093 399.582 107.89 401.456 110.394C404.23 114.103 397.97 118.237 395.762 120.523C392.175 124.236 383.999 136.693 378.708 128.57C375.661 123.893 384.262 120.07 383.84 117.821C378.471 117.396 372.91 117.688 367.518 117.69ZM384.355 107.25L367.518 107.25C358.336 107.241 349.097 107.011 339.921 107.25C350.383 96.1224 341.851 92.4316 337.523 95.6718C334.395 98.0139 321.663 110.624 322.211 113.541C322.631 115.778 336.422 129.22 338.994 130.773C342.215 132.717 344.936 128.571 345.974 126.015C344.355 122.752 341.844 120.663 339.921 117.69C349.078 117.351 358.35 117.697 367.518 117.69C372.91 117.688 378.471 117.396 383.84 117.821C384.262 120.07 375.661 123.893 378.708 128.57C383.999 136.693 392.175 124.236 395.762 120.523C397.97 118.237 404.23 114.103 401.456 110.394C399.582 107.89 388.539 96.4093 386.066 94.6396C382.748 92.2649 372.373 95.4173 384.355 107.25Z"/>
	<path fill="#FEDD8D" transform="scale(0.195312 0.195312)" d="M390.493 43.617C425.693 50.946 455.771 77.5872 464.567 112.808C465.944 118.321 466.738 124.084 467.721 129.681C454.719 130.509 447.389 131.889 433.775 128.151C404.295 120.056 383.191 89.3432 386.891 58.8112C387.535 53.4911 389.075 48.737 390.493 43.617Z"/>
	<path fill="#6ED0F6" transform="scale(0.195312 0.195312)" d="M369.167 274.505L371.484 274.452C433.898 273.311 479.035 334.296 464.229 394.228C454.342 434.248 418.216 464.185 376.844 464.788C351.797 464.892 332.643 459.505 312.516 443.149C265.334 404.805 268.957 333.06 315.116 295.462C331.417 282.185 348.561 276.481 369.167 274.505Z"/>
	<path fill="#E4E8ED" transform="scale(0.195312 0.195312)" d="M353.115 317.849C352.824 315.267 352.992 311.402 354.707 309.325C356.85 306.73 385.895 307.369 391.975 307.721C394.774 310.698 396.427 316.205 393.319 319.599C384.16 316.747 361.504 322.348 353.741 315.794C353.349 315.462 353.202 317.428 353.115 317.849Z"/>
	<path fill="#D5DCE9" transform="scale(0.195312 0.195312)" d="M353.115 317.849C353.202 317.428 353.349 315.462 353.741 315.794C361.504 322.348 384.16 316.747 393.319 319.599C392.297 320.558 390.42 322.098 390.493 323.634C382.239 330.405 367.709 328.853 366.433 341.906C365.804 348.334 367.077 361.881 365.261 366.938C360.983 378.85 341.625 397.553 339.663 408.057C338.601 413.747 341.482 418.346 345.217 422.282C345.847 422.042 346.96 422.198 347.637 422.282C342.395 422.134 329.924 424 326.157 420.376C316.658 411.237 330.762 398.778 336.303 390.963C340.069 385.65 353.522 368.512 355.424 364.085C356.904 360.64 356.201 327.171 356.202 320.436C354.764 319.856 353.745 319.367 353.115 317.849Z"/>
	<path fill="#FEFEFE" transform="scale(0.195312 0.195312)" d="M345.217 422.282C341.482 418.346 338.601 413.747 339.663 408.057C341.625 397.553 360.983 378.85 365.261 366.938C367.077 361.881 365.804 348.334 366.433 341.906C367.709 328.853 382.239 330.405 390.493 323.634C390.767 332.465 390.476 341.378 390.477 350.217C390.477 367.673 391.874 365.688 402.069 378.877C406.124 384.123 409.875 389.609 413.878 394.901C422.986 406.943 437.673 422.263 411.485 422.286L347.637 422.282C346.96 422.198 345.847 422.042 345.217 422.282Z"/>
	<path fill="#F48787" transform="scale(0.195312 0.195312)" d="M359.803 388.797C369.595 388.173 370.545 397.243 363.724 402.381C353.936 402.382 351.017 392.17 359.803 388.797Z"/>
	<path fill="#F48787" transform="scale(0.195312 0.195312)" d="M371.93 371.332C381.014 372.094 380.65 383.165 371.93 385.336C362.323 384.676 362.501 372.907 371.93 371.332Z"/>
	<path fill="#6ED0F6" transform="scale(0.195312 0.195312)" d="M382.146 388.797C385.411 387.956 387.736 389.865 389.785 392.248C390.683 397.257 389.812 401.114 384.355 402.381C375.04 402.67 372.306 390.898 382.146 388.797Z"/>
</svg>
