<?xml version="1.0" encoding="utf-8" ?>
<svg xmlns="http://www.w3.org/2000/svg" xmlns:xlink="http://www.w3.org/1999/xlink" width="100" height="100">
	<path fill="#B4C5DA" transform="scale(0.195312 0.195312)" d="M266.939 224.962L327.313 224.962C330.659 227.591 331.043 231.905 326.025 232.943L285.517 232.934C278.619 232.938 271.631 233.226 264.747 232.943C260.057 229.512 261.738 225.517 266.939 224.962Z"/>
	<path fill="#B4C5DA" transform="scale(0.195312 0.195312)" d="M265.513 159.893L303.82 159.886C307.848 159.886 326.658 158.554 328.966 161.239C330.752 163.316 329.264 166.647 327.313 168.024C324.467 168.235 321.532 168.047 318.674 168.043L279.735 168.003C276.07 168.006 264.044 169.679 262.339 165.361C261.342 162.835 263.256 160.694 265.513 159.893Z"/>
	<path fill="#B4C5DA" transform="scale(0.195312 0.195312)" d="M266.939 135.784C279.898 135.548 292.914 135.771 305.877 135.81C309.672 135.822 329.267 133.586 330.097 138.965C330.468 141.37 328.231 143.632 326.025 144.013L284.912 144.013C278.23 144.015 271.412 144.33 264.747 144.013C261.16 140.801 261.402 136.433 266.939 135.784Z"/>
	<path fill="#B4C5DA" transform="scale(0.195312 0.195312)" d="M172.263 224.962C175.234 224.655 178.472 224.934 181.47 224.948L231.417 224.964C235.241 224.963 249.161 223.224 250.734 227.725C251.524 229.985 249.677 232.344 247.563 232.943C238.864 232.976 173.521 233.53 171.138 232.356C167.619 230.623 168.649 225.706 172.263 224.962Z"/>
	<path fill="#B4C5DA" transform="scale(0.195312 0.195312)" d="M172.263 278.512C184.837 278.344 197.425 278.549 210.001 278.567L280.941 278.512C283.973 280.545 284.925 284.703 280.941 286.509C274.841 286.848 268.569 286.513 262.45 286.51L190.199 286.492C186.173 286.495 175.126 287.158 171.969 286.193C167.329 284.774 168.382 279.941 172.263 278.512Z"/>
	<path fill="#B4C5DA" transform="scale(0.195312 0.195312)" d="M172.263 251.733L311.021 251.731C316.642 251.727 322.44 251.351 328.038 251.733C330.612 254.565 330.918 257.475 327.313 259.482C323.86 259.86 320.092 259.504 316.596 259.497L216.496 259.475C211.699 259.475 173.733 259.958 171.688 259.186C167.48 257.598 168.681 253.037 172.263 251.733Z"/>
	<path fill="#B4C5DA" transform="scale(0.195312 0.195312)" d="M171.627 198.285L307.615 198.283C311.565 198.283 338.671 195.524 327.313 206.513C324.374 207.044 316.939 206.526 313.436 206.52L183.378 206.503C179.323 206.504 167.12 208.585 169.203 201.193C169.609 199.75 170.37 199.032 171.627 198.285Z"/>
	<path fill="#3ED392" transform="scale(0.195312 0.195312)" d="M84.0216 434.991C70.0895 435.035 61.3116 435.504 61.1059 419.028C60.8696 400.102 61.099 381.14 61.0966 362.211L61.0919 343.854C61.0788 324.362 63.6798 323.637 82.7368 323.533L84.0193 323.763L84.114 323.988C72.2979 332.169 74.7919 339.117 74.7854 352.451L74.7845 405.085C74.7905 417.757 72.4424 426.683 84.0216 434.991Z"/>
	<path fill="#B4C5DA" transform="scale(0.195312 0.195312)" d="M369.235 72.2749L369.495 72.2881C372.119 72.3962 374.668 71.6343 377.259 71.3389C387.301 70.194 397.058 77.6253 399.389 87.2916C400.858 93.3826 400.261 101.832 400.261 108.161L400.25 137.916L356.496 137.916L356.496 102.633C356.418 82.7936 357.602 84.8014 369.235 72.2749Z"/>
	<path fill="#FEB452" transform="scale(0.195312 0.195312)" d="M197.636 120.587C234.853 117.19 242.446 174.803 203.563 179.76C163.161 181.855 159.058 125.591 197.636 120.587Z"/>
	<path fill="#FEFEFE" transform="scale(0.195312 0.195312)" d="M192.083 145.858C196.6 145.843 207.269 145.337 211.093 146.042C217.243 147.176 217.506 154.44 208.027 154.265C204.436 154.269 187.908 155.053 185.868 153.35C179.861 148.336 187.242 145.927 192.083 145.858Z"/>
	<path fill="#597AA1" transform="scale(0.195312 0.195312)" d="M356.496 172.877L369.138 172.85C384.513 172.824 386.824 174.512 386.773 190.005L386.746 258.693L386.746 264.389L386.746 269.499C382.02 269.317 377.258 269.421 372.529 269.499L356.496 269.499L356.496 263.743L356.491 211.2C356.492 202.453 356.728 193.66 356.496 184.919L356.496 172.877Z"/>
	<path fill="#4A6C97" transform="scale(0.195312 0.195312)" d="M372.529 258.693C377.234 258.73 382.059 258.358 386.746 258.693L386.746 264.389C383.141 263.033 376.527 263.718 372.529 263.743C372.621 262.039 372.655 260.395 372.529 258.693Z"/>
	<path fill="#375987" transform="scale(0.195312 0.195312)" d="M372.529 263.743C376.527 263.718 383.141 263.033 386.746 264.389L386.746 269.499C382.02 269.317 377.258 269.421 372.529 269.499C372.586 267.789 372.586 266.1 372.529 264.389L372.529 263.743Z"/>
	<path fill="#59CCF7" transform="scale(0.195312 0.195312)" d="M356.496 184.919C356.963 189.265 367.682 187.001 372.529 187.123L372.529 263.743L372.529 264.389C372.586 266.1 372.586 267.789 372.529 269.499L356.496 269.499L356.496 263.743L356.491 211.2C356.492 202.453 356.728 193.66 356.496 184.919Z"/>
	<path fill="#2EAEDF" transform="scale(0.195312 0.195312)" d="M356.496 263.743C361.838 263.761 367.188 263.845 372.529 263.743L372.529 264.389C372.586 266.1 372.586 267.789 372.529 269.499L356.496 269.499L356.496 263.743Z"/>
	<path fill="#E4E8EC" transform="scale(0.195312 0.195312)" d="M279.857 319.282C286.764 317.178 284.665 321.577 284.475 308.453C284.309 296.906 284.733 287.269 298.865 287.175C297.752 292.223 298.758 317.893 297.53 319.224L297.291 319.282L297.78 319.568C298.278 322.504 297.886 328.557 297.894 331.78L297.902 361.495C293.542 361.161 288.912 361.489 284.523 361.495L284.523 361.495L217.071 361.495C216.781 353.029 217.264 344.512 217.206 336.044C217.097 319.833 197.509 323.525 186.885 323.528C175.599 323.533 164.217 323.196 152.945 323.533C153.693 322.946 156.424 323.456 157.388 323.533C163.057 316.923 169.376 319.328 177.681 319.323L257.438 319.296C264.893 319.289 272.409 319.05 279.857 319.282Z"/>
	<path fill="#B4C5DA" transform="scale(0.195312 0.195312)" d="M297.291 319.282L297.78 319.568C298.278 322.504 297.886 328.557 297.894 331.78L297.902 361.495C293.542 361.161 288.912 361.489 284.523 361.495L284.523 361.495C285.336 358.584 284.624 323.513 284.523 319.282C288.779 319.297 293.036 319.338 297.291 319.282Z"/>
	<path fill="#597AA1" transform="scale(0.195312 0.195312)" d="M110.287 323.533L110.274 197.515C110.273 179.295 107.541 173.635 128.171 173.662L142.685 173.696L142.685 187.92L142.685 323.533C139.635 323.917 128.322 323.872 125.3 323.533C121.448 323.182 114.06 323.104 110.287 323.533Z"/>
	<path fill="#59CCF7" transform="scale(0.195312 0.195312)" d="M142.685 187.92L142.685 323.533C139.635 323.917 128.322 323.872 125.3 323.533C124.966 308.486 125.295 293.363 125.295 278.305L125.3 187.92L142.685 187.92Z"/>
	<path fill="#597AA1" transform="scale(0.195312 0.195312)" d="M284.523 361.495L284.523 361.495C288.912 361.489 293.542 361.161 297.902 361.495L297.902 399.8L297.902 409.299L284.523 409.299L284.523 409.299C284.514 416.641 283.67 425.909 289.369 431.607C290.491 432.728 292.014 433.622 292.825 434.991L208.027 434.991C221.109 427.323 217.058 413.554 217.071 399.8L217.071 361.495L284.523 361.495Z"/>
	<path fill="#183D6C" transform="scale(0.195312 0.195312)" d="M248.951 415.018L264.601 414.982C271.049 414.973 283.638 415.258 275.054 425.006C274.028 425.091 273.086 425.144 272.063 425.006C268.106 425.047 246.731 425.668 244.606 424.132C240.459 421.131 241.936 415.553 248.951 415.018Z"/>
	<path fill="#4A6C97" transform="scale(0.195312 0.195312)" d="M284.523 361.495C288.912 361.489 293.542 361.161 297.902 361.495L297.902 399.8C296.24 399.671 294.496 399.787 292.825 399.8C290.099 399.547 287.26 399.717 284.523 399.8L284.523 361.495Z"/>
	<path fill="#375987" transform="scale(0.195312 0.195312)" d="M284.523 399.8C287.26 399.717 290.099 399.547 292.825 399.8C294.496 399.787 296.24 399.671 297.902 399.8L297.902 409.299L284.523 409.299L284.523 409.299L239.623 409.301C232.131 409.301 224.553 409.026 217.071 409.299L217.071 399.8C219.448 399.598 221.967 399.764 224.359 399.774L284.523 399.8Z"/>
	<path fill="#183D6C" transform="scale(0.195312 0.195312)" d="M292.825 399.8C294.496 399.787 296.24 399.671 297.902 399.8L297.902 409.299L284.523 409.299C283.987 407.057 284.483 402.303 284.523 399.8C287.283 399.941 290.069 400.008 292.825 399.8Z"/>
	<path fill="#E4E8EC" transform="scale(0.195312 0.195312)" d="M143.431 101.373C143.221 76.8452 151.262 72.8704 174.208 72.4379C187.266 72.1918 200.312 72.3509 213.37 72.3245L351.813 72.2762C357.808 72.2846 363.206 72.5411 369.235 72.2749C357.602 84.8014 356.418 82.7936 356.496 102.633L356.186 101.967C354.114 100.386 316.827 101.494 311.797 101.463L191.802 101.371C175.682 101.37 159.549 101.601 143.431 101.373Z"/>
	<path fill="#E4E8EC" transform="scale(0.195312 0.195312)" d="M405.852 276.315C406.617 277.648 405.426 278.366 407.562 278.308C413.417 278.148 419.211 278.569 425.076 278.547C440.759 278.488 449.692 277.906 449.805 297.493L449.826 410.429C449.849 423.267 450.504 435.632 433.728 435.135C420.253 434.736 406.716 434.987 393.234 434.99L324.242 434.984C321.81 434.984 305.007 435.394 304.065 434.991C300.399 434.688 296.514 434.969 292.825 434.991C292.014 433.622 290.491 432.728 289.369 431.607C283.67 425.909 284.514 416.641 284.523 409.299L284.523 409.299L297.902 409.299L297.902 399.8L297.902 361.495L297.894 331.78C297.886 328.557 298.278 322.504 297.78 319.568L297.291 319.282L297.53 319.224C298.758 317.893 297.752 292.223 298.865 287.175C303.497 277.906 310.008 278.081 318.972 278.457C325.808 278.744 336.833 277.586 342.817 278.512L342.817 294.276C338.732 294.005 315.551 293.943 312.578 294.761C310.905 296.99 311.961 315.883 311.952 319.276L311.954 401.436C311.949 406.575 311.565 412.228 312.323 417.313C313.24 423.473 325.544 421.207 330.792 421.205L437.556 421.203L437.567 307.949C437.577 303.022 439.712 295.4 433.957 294.558C426.031 293.399 414.244 294.545 405.852 294.276L405.852 276.315Z"/>
	<path fill="#4A6C97" transform="scale(0.195312 0.195312)" d="M284.523 409.299L297.902 409.299C297.843 421.32 296.91 430.759 310.212 434.991C308.178 434.949 306.093 434.812 304.065 434.991C300.399 434.688 296.514 434.969 292.825 434.991C292.014 433.622 290.491 432.728 289.369 431.607C283.67 425.909 284.514 416.641 284.523 409.299L284.523 409.299Z"/>
	<path fill="#7CE2AB" transform="scale(0.195312 0.195312)" d="M110.287 323.533C114.06 323.104 121.448 323.182 125.3 323.533C128.322 323.872 139.635 323.917 142.685 323.533L152.945 323.533C164.217 323.196 175.599 323.533 186.885 323.528C197.509 323.525 217.097 319.833 217.206 336.044C217.264 344.512 216.781 353.029 217.071 361.495L217.071 399.8C217.058 413.554 221.109 427.323 208.027 434.991L97.4186 434.996C93.0058 435.001 88.4128 435.315 84.0216 434.991C72.4424 426.683 74.7905 417.757 74.7845 405.085L74.7854 352.451C74.7919 339.117 72.2979 332.169 84.114 323.988L84.0193 323.763L82.7368 323.533C85.9625 322.982 89.5545 323.456 92.8232 323.493L110.287 323.533Z"/>
	<path fill="#3ED392" transform="scale(0.195312 0.195312)" d="M152.945 391.745C155.477 392.005 158.151 391.811 160.699 391.786L173.008 391.745C172.865 393.831 172.958 395.924 173.008 398.012C171.142 398.011 153.342 398.296 153.005 398.197L153.432 398.085L153.012 398.084L152.945 398.012C152.878 395.917 152.883 393.84 152.945 391.745Z"/>
	<path fill="#3ED392" transform="scale(0.195312 0.195312)" d="M101.778 398.012C101.868 396.25 101.386 393.206 102.538 391.809L103.449 391.745C110.052 392.073 116.779 391.723 123.399 391.745C123.375 393.828 123.289 395.933 123.399 398.012L101.778 398.012Z"/>
	<path fill="#3ED392" transform="scale(0.195312 0.195312)" d="M122.143 419.774C122.109 418.109 121.597 412.387 123.399 411.675C132.938 412.109 142.682 411.673 152.248 411.675C151.172 413.835 151.62 417.377 151.719 419.774L134.437 419.781C130.339 419.806 126.239 419.965 122.143 419.774Z"/>
	<path fill="#FEFEFE" transform="scale(0.195312 0.195312)" d="M123.399 342.414C133.232 342.406 143.118 342.175 152.945 342.414L152.945 363.291L173.934 363.291C173.928 372.754 173.664 382.29 173.934 391.745C170.881 391.745 154.64 391.296 152.945 391.745C152.883 393.84 152.878 395.917 152.945 398.012C152.94 399.915 153.219 410.662 152.248 411.675C142.682 411.673 132.938 412.109 123.399 411.675C123.908 409.542 123.404 400.835 123.399 398.012C123.289 395.933 123.375 393.828 123.399 391.745C116.779 391.723 110.052 392.073 103.449 391.745C103.486 382.27 103.225 372.76 103.449 363.291L123.399 363.291C123.395 356.338 123.269 349.364 123.399 342.414Z"/>
	<path fill="#FEFEFE" transform="scale(0.195312 0.195312)" d="M372.529 269.499C377.258 269.421 382.02 269.317 386.746 269.499L405.852 269.499C405.844 271.766 405.777 274.05 405.852 276.315L405.852 294.276C414.244 294.545 426.031 293.399 433.957 294.558C439.712 295.4 437.577 303.022 437.567 307.949L437.556 421.203L330.792 421.205C325.544 421.207 313.24 423.473 312.323 417.313C311.565 412.228 311.949 406.575 311.954 401.436L311.952 319.276C311.961 315.883 310.905 296.99 312.578 294.761C315.551 293.943 338.732 294.005 342.817 294.276L342.817 278.512C342.952 275.511 342.86 272.501 342.817 269.499L356.496 269.499L372.529 269.499Z"/>
	<path fill="#F39962" transform="scale(0.195312 0.195312)" d="M324.303 393.177C326.79 393.094 338.776 392.624 340.198 393.891C341.517 396.37 342.536 408.466 339.728 410.417C336.54 410.434 325.605 411.603 323.386 409.1C322.481 406.321 321.554 395.474 324.303 393.177Z"/>
	<path fill="#E4E8EC" transform="scale(0.195312 0.195312)" d="M354.405 393.177C356.965 392.875 366.801 392.408 368.482 393.81C369.401 395.799 371.279 409.745 367.297 410.417C365.228 410.722 354.808 410.903 353.134 410.516C351.473 409.369 348.075 393.832 354.405 393.177Z"/>
	<path fill="#E4E8EC" transform="scale(0.195312 0.195312)" d="M354.405 364.895C356.62 364.637 366.982 363.82 368.446 365.914C369.412 367.297 370.726 381.4 367.297 383.242C364.304 383.485 353.174 384.722 351.757 381.238C350.945 379.239 351.035 367.37 351.818 365.37C352.565 364.869 353.531 364.936 354.405 364.895Z"/>
	<path fill="#E4E8EC" transform="scale(0.195312 0.195312)" d="M324.303 364.895C327.264 364.881 338.679 364.202 340.558 365.832C342.279 367.325 342.047 380.488 339.728 383.242C337.326 383.107 324.711 383.235 323.602 381.816C322.197 380.019 322.088 366.943 324.303 364.895Z"/>
	<path fill="#E4E8EC" transform="scale(0.195312 0.195312)" d="M386.746 392.491C388.652 392.463 395.963 391.372 396.515 393.594C397.071 395.829 397.336 409.057 396.31 410.719C394.247 411.392 391.812 411.44 389.653 411.675C386.835 411.288 382.396 411.785 380.03 410.122C378.649 407.05 378.359 395.228 379.793 393.237C381.742 392.476 384.614 392.633 386.746 392.491Z"/>
	<path fill="#E4E8EC" transform="scale(0.195312 0.195312)" d="M384.598 364.895C386.132 364.801 395.4 363.905 396.127 365.204C397.287 367.275 397.08 380.536 396.406 383.093C395.288 384.115 391.918 383.918 390.373 384.002C386.476 383.721 380.087 385.222 379.133 380.187C378.729 378.053 378.268 366.87 379.449 365.388C379.964 364.742 383.621 364.909 384.598 364.895Z"/>
	<path fill="#E4E8EC" transform="scale(0.195312 0.195312)" d="M409.536 364.895C412.178 364.721 423.556 364.326 425.177 365.45C427.61 367.136 426.857 382.507 425.902 383.86L425.063 384.002C419.457 384.442 413.59 384.042 407.955 384.002C407.879 381.298 407.547 366.365 408.402 365.092L409.536 364.895Z"/>
	<path fill="#183D6C" transform="scale(0.195312 0.195312)" d="M372.529 269.499C377.258 269.421 382.02 269.317 386.746 269.499L405.852 269.499C405.844 271.766 405.777 274.05 405.852 276.315L405.852 294.276C403.882 294.557 401.636 294.322 399.631 294.312L342.817 294.276L342.817 278.512C342.952 275.511 342.86 272.501 342.817 269.499L356.496 269.499L372.529 269.499Z"/>
	<path fill="#375987" transform="scale(0.195312 0.195312)" d="M349.411 277.284L398.978 277.284L398.978 285.009C382.461 285.007 365.927 285.18 349.411 285.009C349.348 282.426 349.335 279.867 349.411 277.284Z"/>
	<path fill="#3ED392" transform="scale(0.195312 0.195312)" d="M322.676 305.267L426.498 305.267L426.498 353.252L322.676 353.252L322.676 305.267Z"/>
	<path fill="#FEFEFE" transform="scale(0.195312 0.195312)" d="M357.51 324.046C361.439 323.592 363.781 325.668 364.839 329.383L364.75 329.725C364.06 332.286 363.034 333.45 360.731 334.746C353.395 335.988 351.057 327.62 357.51 324.046Z"/>
	<path fill="#FEFEFE" transform="scale(0.195312 0.195312)" d="M342.817 324.046C350.269 323.453 353.844 331.839 346.061 334.746C338.735 335.755 336.757 327.014 342.817 324.046Z"/>
	<path fill="#FEFEFE" transform="scale(0.195312 0.195312)" d="M387.604 324.046C395.402 323.937 396.521 332.377 389.653 335.145C385.612 335.582 383.744 332.953 382.839 329.383C383.663 326.656 384.687 324.95 387.604 324.046Z"/>
	<path fill="#FEFEFE" transform="scale(0.195312 0.195312)" d="M402.576 323.533C406.476 323.777 408.084 325.854 409.536 329.383C408.512 332.323 407.144 333.99 404.11 335.145C396.599 334.754 395.669 326.304 402.576 323.533Z"/>
	<path fill="#FEFEFE" transform="scale(0.195312 0.195312)" d="M374.08 323.533C377.23 324.401 378.614 326.293 379.653 329.383C378.701 332.594 377.42 334.07 374.08 335.145C366.309 335.045 365.829 325.276 374.08 323.533Z"/>
</svg>
