<?xml version="1.0" encoding="utf-8" ?>
<svg xmlns="http://www.w3.org/2000/svg" xmlns:xlink="http://www.w3.org/1999/xlink" width="100" height="100">
	<path fill="#A4CDF5" transform="scale(0.195312 0.195312)" d="M256.547 236.431C258.131 237.084 273.6 253.211 275.287 255.398C274.744 256.327 258.063 273.633 256.547 274.242C251.655 271.346 240.085 260.005 236.642 255.398C241.376 250.173 250.612 240.403 256.547 236.431Z"/>
	<path fill="#A4CDF5" transform="scale(0.195312 0.195312)" d="M103.023 142.167L103.016 97.2322C103.013 90.34 102.358 78.9923 103.687 72.5213C105.869 61.8964 118.014 63.7334 125.937 63.7406L150.363 63.7576C147.046 68.2492 143.307 66.2141 139.321 76.2202L139.321 76.2202C114.902 76.1111 115.007 75.1948 115.06 101.994L115.032 137.315C115.012 142.06 115.46 147.151 115.052 151.853C114.579 148.891 115.028 145.204 115.052 142.167C111.045 142.116 107.031 142.166 103.023 142.167Z"/>
	<path fill="#A4CDF5" transform="scale(0.195312 0.195312)" d="M103.023 349.988L103.016 299.708C103.006 277.913 97.3976 266.834 123.486 266.81C126.347 267.097 129.325 266.861 132.205 266.834L145.855 266.81C142.03 272.725 142.765 274.367 141.967 280.75L141.967 280.75C114.656 277.619 115.046 284.056 115.042 307.656L115.054 336.027C115.059 340.657 115.299 345.373 115.052 349.988C111.06 350.031 107.009 350.174 103.023 349.988Z"/>
	<path fill="#C1DAF5" transform="scale(0.195312 0.195312)" d="M150.363 63.7576C167.262 63.5734 184.179 63.7761 201.08 63.7731L216.337 63.75C238.118 63.7178 241.226 67.6134 241.223 89.572L241.109 140.764C241.101 142.191 241.323 143.572 241.217 145.011C241.184 144.057 241.144 143.12 241.217 142.167L227.974 142.167C227.986 145.212 228.113 148.309 227.974 151.348C227.097 146.023 227.918 140.029 227.963 134.623L227.985 103.403C227.987 97.37 228.548 90.6813 227.513 84.7454C225.823 75.048 217.565 76.1793 210.032 76.2015L139.321 76.2202C143.307 66.2141 147.046 68.2492 150.363 63.7576Z"/>
	<path fill="#C1DAF5" transform="scale(0.195312 0.195312)" d="M286.143 63.7576C293.097 63.4248 300.187 63.7589 307.157 63.7545L352.037 63.7647C363.202 63.7682 374.387 63.62 385.549 63.8299C402.108 64.1412 408.75 63.2372 409.247 82.5247C409.45 90.412 409.275 98.3402 409.275 106.232L409.266 168.502C409.259 171.311 409.057 174.268 409.278 177.063L397.346 177.063C397.674 150.217 397.892 122.138 397.329 95.3064C396.892 74.48 394.803 75.9026 375.191 75.9648L330.375 76.2243C322.777 76.2197 315.108 75.9643 307.519 76.2202C309.719 71.5883 312.896 67.1104 316.773 63.7576C309.417 64.3094 293.544 64.3299 286.143 63.7576Z"/>
	<path fill="#C1DAF5" transform="scale(0.195312 0.195312)" d="M123.486 266.81C131.3 266.668 139.137 266.809 146.952 266.815L212.957 266.785C227.765 266.756 241.09 267.989 241.242 286.48L241.217 378.24L228.315 378.24C228.505 381.085 228.801 391.329 228.315 394.041C227.713 391.393 228.461 381.927 228.466 378.744L228.332 299.811C228.373 281.665 228.507 280.762 211.736 280.749L141.967 280.75C142.765 274.367 142.03 272.725 145.855 266.81L132.205 266.834C129.325 266.861 126.347 267.097 123.486 266.81Z"/>
	<path fill="#4C9AF3" transform="scale(0.195312 0.195312)" d="M397.346 177.063L409.278 177.063C409.559 188.512 409.283 200.032 409.282 211.49L409.278 222.929C409.266 236.658 405.475 242.277 391.006 242.453C367.623 242.738 344.203 242.477 320.816 242.474L299.919 242.469C279.594 242.46 270.612 239.94 270.54 217.399L270.55 184.429L283.743 184.429L283.728 210.67C283.724 214.141 283.267 218.184 283.743 221.583C284.975 231.059 294.057 229.306 301.013 229.289L333.278 229.288C335.332 229.291 337.67 229.522 339.691 229.27L383.999 229.638C399.202 229.725 397.366 213.559 397.362 203.854L397.346 177.063Z"/>
	<path fill="#A4CDF5" transform="scale(0.195312 0.195312)" d="M270.55 417.006C269.588 408.33 270.55 398.246 270.551 389.413L270.549 301.009C270.544 295.563 270.044 289.691 270.774 284.316C273.346 265.37 293.872 268.085 307.469 268.085L381.434 268.091C391.439 268.095 405.799 265.672 408.738 278.751C409.881 283.836 409.281 296.37 409.281 302.143L409.278 349.988L397.346 349.988L397.426 294.089C397.472 280.577 388.425 281.016 377.75 281.139L306.957 281.157C299.137 281.928 285.002 277.99 283.772 289.536C283.196 294.947 283.762 302.801 283.76 308.518L283.743 351.263L270.55 351.263L270.581 410.364C270.59 412.51 270.804 414.884 270.55 417.006Z"/>
	<path fill="#4C9AF3" transform="scale(0.195312 0.195312)" d="M103.023 349.988C107.009 350.174 111.06 350.031 115.052 349.988C115.243 355.858 115.056 361.777 115.055 367.653L115.056 402.4C115.056 409.26 114.362 418.404 115.678 425.005C117.827 435.786 127.756 434.184 135.94 434.193C140.29 434.198 144.632 434.462 148.98 434.179L212.254 434.218C229.934 434.386 228.372 430.321 228.328 415.815L228.315 394.041C228.801 391.329 228.505 381.085 228.315 378.24L241.217 378.24L241.23 416.593C241.231 428.051 244.435 446.917 227.578 447.407C219.945 447.629 212.2 447.329 204.554 447.329L127.638 447.319C107.922 447.402 102.783 447.693 102.997 427.71L103.023 349.988Z"/>
	<path fill="#4C9AF3" transform="scale(0.195312 0.195312)" d="M397.346 349.988L409.278 349.988L409.301 425.843C409.316 437.819 407.673 447.559 393.098 447.42L293.543 447.349C290.01 447.379 285.96 447.82 282.474 447.293C267.892 445.086 270.511 427.587 270.55 417.006C270.804 414.884 270.59 412.51 270.581 410.364L270.55 351.263L283.743 351.263L283.722 417.601C283.61 432.949 284.873 434.203 301.55 434.193L317.967 434.179L380.411 434.198C396.373 434.229 397.394 431.052 397.364 415.497L397.346 349.988Z"/>
	<path fill="#4C9AF3" transform="scale(0.195312 0.195312)" d="M103.023 142.167C107.031 142.166 111.045 142.116 115.052 142.167C115.028 145.204 114.579 148.891 115.052 151.853L115.041 197.295C115.041 208.073 111.363 225.86 125.243 228.887C131.75 230.306 145.579 228.917 152.993 229.27C168.611 229.511 184.266 229.243 199.887 229.256L213.718 229.309C226.682 229.369 228.021 228.47 227.996 214.211L227.974 151.348C228.113 148.309 227.986 145.212 227.974 142.167L241.217 142.167C241.144 143.12 241.184 144.057 241.217 145.011L241.237 217.716C241.257 225.299 241.767 231.73 236.135 237.643C228.382 245.781 208.25 243.116 197.449 243.117L126.5 243.101C104.931 243.223 103.016 242.482 103.014 222.089L103.023 142.167Z"/>
	<path fill="#C1DAF5" transform="scale(0.195312 0.195312)" d="M286.143 63.7576C293.544 64.3299 309.417 64.3094 316.773 63.7576C312.896 67.1104 309.719 71.5883 307.519 76.2202L306.957 76.2202C306.844 79.968 306.256 106.412 307.519 108.49C299.854 125.458 303.511 128.986 307.519 143.751C306.869 144.719 306.177 175.84 306.957 180.53C309.957 183.226 308.942 186.015 307.519 189.252C307.605 193.101 307.53 196.947 307.519 200.795C309.578 203.204 309.422 206.626 307.519 209.084C306.294 215.354 306.946 222.844 306.957 229.27C310.061 229.271 339.174 228.99 339.691 229.27C337.67 229.522 335.332 229.291 333.278 229.288L301.013 229.289C294.057 229.306 284.975 231.059 283.743 221.583C283.267 218.184 283.724 214.141 283.728 210.67L283.743 184.429L270.55 184.429C270.219 177.428 270.54 170.25 270.545 163.235L270.543 92.5566C270.545 79.2523 268.224 65.5248 286.143 63.7576Z"/>
	<path fill="#1B49A5" transform="scale(0.195312 0.195312)" d="M307.519 189.252C302.251 189.962 293.914 187.728 298.954 181.688C300.122 180.288 305.089 180.589 306.957 180.53C309.957 183.226 308.942 186.015 307.519 189.252Z"/>
	<path fill="#1B49A5" transform="scale(0.195312 0.195312)" d="M307.519 209.084C292.05 209.838 295.844 198.062 307.519 200.795C309.578 203.204 309.422 206.626 307.519 209.084Z"/>
	<path fill="#A4CDF5" transform="scale(0.195312 0.195312)" d="M286.143 63.7576C293.544 64.3299 309.417 64.3094 316.773 63.7576C312.896 67.1104 309.719 71.5883 307.519 76.2202L306.957 76.2202C297.602 75.1649 284.874 73.8535 284.029 85.8538C283.203 97.5973 283.73 110.628 283.733 122.479L283.769 212.38C283.786 215.301 284.207 218.733 283.743 221.583C283.267 218.184 283.724 214.141 283.728 210.67L283.743 184.429L270.55 184.429C270.219 177.428 270.54 170.25 270.545 163.235L270.543 92.5566C270.545 79.2523 268.224 65.5248 286.143 63.7576Z"/>
	<path fill="#E6EDF7" transform="scale(0.195312 0.195312)" d="M307.519 76.2202C315.108 75.9643 322.777 76.2197 330.375 76.2243L375.191 75.9648C394.803 75.9026 396.892 74.48 397.329 95.3064C397.892 122.138 397.674 150.217 397.346 177.063L397.362 203.854C397.366 213.559 399.202 229.725 383.999 229.638L339.691 229.27C339.174 228.99 310.061 229.271 306.957 229.27C306.946 222.844 306.294 215.354 307.519 209.084C309.422 206.626 309.578 203.204 307.519 200.795C307.53 196.947 307.605 193.101 307.519 189.252C308.942 186.015 309.957 183.226 306.957 180.53C306.177 175.84 306.869 144.719 307.519 143.751C303.511 128.986 299.854 125.458 307.519 108.49C306.256 106.412 306.844 79.968 306.957 76.2202L307.519 76.2202Z"/>
	<path fill="#8FA5C9" transform="scale(0.195312 0.195312)" d="M319.265 180.53C333.504 180.383 347.764 180.503 362.004 180.548C366.258 180.561 383.006 177.728 380.395 186.531C379.883 188.259 378.559 189.092 377.04 189.878L336.015 189.881C332.124 189.882 321.894 190.381 318.763 189.589C313.325 188.214 315.115 182.375 319.265 180.53Z"/>
	<path fill="#8FA5C9" transform="scale(0.195312 0.195312)" d="M347.688 200.07L367.305 200.082C370.324 200.085 373.649 199.796 376.636 200.148C380.241 200.573 382.412 205.491 379.639 208.153C377.073 210.614 369.48 209.49 366.266 209.481L347.688 209.466L328.506 209.485C325.275 209.485 321.623 209.818 318.441 209.285C315.113 208.727 314.122 204.038 316.311 201.73C318.974 198.921 326.213 200.064 329.676 200.062L347.688 200.07Z"/>
	<path fill="#536ED6" transform="scale(0.195312 0.195312)" d="M307.519 108.49C313.546 97.1994 325.124 90.0962 337.988 89.6574C338.012 93.7975 338.156 97.9778 337.988 102.113L337.988 102.113C337.608 112.65 338.008 123.325 338.003 133.878L337.949 144.986C337.926 147.066 337.732 149.292 337.988 151.348C338.434 153.099 338.255 160.445 337.988 162.536C324.296 162.508 315.365 154.084 307.519 143.751C303.511 128.986 299.854 125.458 307.519 108.49Z"/>
	<path fill="#FE9C78" transform="scale(0.195312 0.195312)" d="M337.988 102.113L337.988 102.113C337.608 112.65 338.008 123.325 338.003 133.878L337.949 144.986C337.926 147.066 337.732 149.292 337.988 151.348C326.821 151.7 329.151 145.758 328.295 137.012C322.824 136.872 314.862 138.552 314.469 130.909C313.746 116.883 315.152 117.181 328.295 117.232C328.212 108.901 326.524 101.858 337.988 102.113Z"/>
	<path fill="#4C9AF3" transform="scale(0.195312 0.195312)" d="M337.988 89.6574C389.69 91.1982 384.627 163.097 337.988 162.536C338.255 160.445 338.434 153.099 337.988 151.348C337.732 149.292 337.926 147.066 337.949 144.986L338.003 133.878C338.008 123.325 337.608 112.65 337.988 102.113L337.988 102.113C338.156 97.9778 338.012 93.7975 337.988 89.6574Z"/>
	<path fill="#FBC4A2" transform="scale(0.195312 0.195312)" d="M337.988 102.113C351.631 102.064 349.869 104.618 349.787 117.232C363.391 117.214 365.079 116.196 364.538 130.793C364.23 139.093 355.813 137.089 349.787 137.012C349.915 145.621 351.662 151.363 341.06 151.353L337.988 151.348C337.732 149.292 337.926 147.066 337.949 144.986L338.003 133.878C338.008 123.325 337.608 112.65 337.988 102.113Z"/>
	<path fill="#E6EDF7" transform="scale(0.195312 0.195312)" d="M139.321 76.2202L210.032 76.2015C217.565 76.1793 225.823 75.048 227.513 84.7454C228.548 90.6813 227.987 97.37 227.985 103.403L227.963 134.623C227.918 140.029 227.097 146.023 227.974 151.348L227.996 214.211C228.021 228.47 226.682 229.369 213.718 229.309L199.887 229.256C184.266 229.243 168.611 229.511 152.993 229.27C145.579 228.917 131.75 230.306 125.243 228.887C111.363 225.86 115.041 208.073 115.041 197.295L115.052 151.853C115.46 147.151 115.012 142.06 115.032 137.315L115.06 101.994C115.007 75.1948 114.902 76.1111 139.321 76.2202L139.321 76.2202ZM160.684 94.1492C150.522 97.5894 143.338 105.253 139.321 114.979C136.804 122.68 136 131.651 139.321 139.268C150.333 167.01 187.687 169.631 201.72 146.053C203.52 144.636 204.884 140.372 205.59 138.261C215.301 109.218 184.847 81.9829 160.684 94.1492Z"/>
	<path fill="#8FA5C9" transform="scale(0.195312 0.195312)" d="M153.78 179.956C163.036 179.548 172.925 179.947 182.255 179.948C187.088 179.949 208.266 178.233 211.093 181.753C213.119 184.276 211.599 187.494 209.38 189.252C201.714 190.36 186.059 189.257 177.512 189.256C173.164 189.256 155.96 190.643 153.105 187.82C151.056 185.793 151.829 181.764 153.78 179.956Z"/>
	<path fill="#8FA5C9" transform="scale(0.195312 0.195312)" d="M158.56 200.07L193.742 200.071C198.291 200.067 203.306 199.627 207.765 199.892C212.261 200.158 215.866 208.68 205.052 209.084L172.89 209.084C169.296 209.084 155.015 210.327 152.758 207.678C149.446 203.789 152.501 199.401 158.56 200.07Z"/>
	<path fill="#C1DAF5" transform="scale(0.195312 0.195312)" d="M115.052 151.853C115.46 147.151 115.012 142.06 115.032 137.315L115.06 101.994C115.007 75.1948 114.902 76.1111 139.321 76.2202C137.922 80.6987 136.761 112.446 139.321 114.979C136.804 122.68 136 131.651 139.321 139.268C137.127 142.85 138.212 151.222 138.212 155.429L138.223 179.956C144.608 180.658 144.241 188.712 138.223 189.252C137.641 192.562 138.309 196.661 138.223 200.07C145.19 200.333 144.379 208.254 138.223 209.084C138.264 214.574 146.151 226.175 151.51 228.943C151.94 229.165 152.534 228.954 152.993 229.27C145.579 228.917 131.75 230.306 125.243 228.887C111.363 225.86 115.041 208.073 115.041 197.295L115.052 151.853Z"/>
	<path fill="#1B49A5" transform="scale(0.195312 0.195312)" d="M138.223 179.956C144.608 180.658 144.241 188.712 138.223 189.252C126.677 188.632 130.071 179.374 138.223 179.956Z"/>
	<path fill="#1B49A5" transform="scale(0.195312 0.195312)" d="M138.223 200.07C145.19 200.333 144.379 208.254 138.223 209.084C127.266 208.934 129.116 199.262 138.223 200.07Z"/>
	<path fill="#FB9CAB" transform="scale(0.195312 0.195312)" d="M160.684 94.1492C184.847 81.9829 215.301 109.218 205.59 138.261C204.884 140.372 203.52 144.636 201.72 146.053C187.687 169.631 150.333 167.01 139.321 139.268C136 131.651 136.804 122.68 139.321 114.979C143.338 105.253 150.522 97.5894 160.684 94.1492ZM165.82 108.49C165.903 110.667 165.937 112.804 165.82 114.979C165.958 116.901 165.908 118.775 165.82 120.699L153.78 120.699L153.78 133.57L165.82 133.57L165.82 146.053C167.961 146.069 177.459 146.621 178.713 145.719L178.763 145.011C178.235 141.904 178.63 136.834 178.763 133.57C182.771 133.402 186.729 133.444 190.737 133.57L190.737 120.699C186.777 120.46 182.731 120.667 178.763 120.699C178.488 116.697 178.742 112.512 178.763 108.49L165.82 108.49Z"/>
	<path fill="#F77083" transform="scale(0.195312 0.195312)" d="M139.321 114.979C143.338 105.253 150.522 97.5894 160.684 94.1492C161.674 98.8137 164.443 102.851 165.521 107.465C166.094 109.918 165.464 112.502 165.82 114.979C165.958 116.901 165.908 118.775 165.82 120.699L153.78 120.699L153.78 133.57L165.82 133.57L165.82 146.053C167.961 146.069 177.459 146.621 178.713 145.719L178.763 145.011C178.89 141.52 178.792 138.009 178.763 134.516C187.217 143.384 192.689 142.26 201.72 146.053C187.687 169.631 150.333 167.01 139.321 139.268C136 131.651 136.804 122.68 139.321 114.979Z"/>
	<path fill="#E6EDF7" transform="scale(0.195312 0.195312)" d="M115.052 349.988C115.299 345.373 115.059 340.657 115.054 336.027L115.042 307.656C115.046 284.056 114.656 277.619 141.967 280.75L141.967 280.75L211.736 280.749C228.507 280.762 228.373 281.665 228.332 299.811L228.466 378.744C228.461 381.927 227.713 391.393 228.315 394.041L228.328 415.815C228.372 430.321 229.934 434.386 212.254 434.218L148.98 434.179C144.632 434.462 140.29 434.198 135.94 434.193C127.756 434.184 117.827 435.786 115.678 425.005C114.362 418.404 115.056 409.26 115.056 402.4L115.055 367.653C115.056 361.777 115.243 355.858 115.052 349.988Z"/>
	<path fill="#8FA5C9" transform="scale(0.195312 0.195312)" d="M194.747 385.832C198.18 385.867 205.671 384.87 208.296 387.045C211.365 389.59 210.564 395.335 206.381 395.98C201.96 396.662 197.013 396.243 192.517 396.244L165.82 396.237C161.536 396.26 157.216 396.361 152.993 395.544L152.76 395.34C149.363 392.317 149.663 386.937 154.814 386.118C159.241 385.415 164.164 385.824 168.659 385.823L194.747 385.832Z"/>
	<path fill="#8FA5C9" transform="scale(0.195312 0.195312)" d="M191.904 404.347C196.669 404.332 209.602 401.978 210.218 409.314C210.882 417.226 199.577 414.924 194.891 414.921L169.428 414.907C163.962 414.884 158.45 415.14 152.993 414.907C142.533 402.898 162.623 404.338 168.247 404.337L191.904 404.347Z"/>
	<path fill="#78BD78" transform="scale(0.195312 0.195312)" d="M148.187 310.985C150.658 316.662 148.402 323.617 155.403 329.736C151.567 331.581 152.152 340.037 156.158 341.108C159.04 341.878 163.685 341.226 166.78 341.265C166.771 344.422 165.465 353.176 169.428 354.167C170.326 354.297 171.199 354.22 172.102 354.167C179.248 362.725 187.789 362.434 197.204 356.807C199.097 355.676 200.842 354.057 202.945 353.33C189.683 376.354 153.861 374.095 141.491 351.614C139.898 348.718 138.72 345.524 137.287 342.535C137.512 338.607 137.625 332.807 137.287 328.993C139.804 322.22 143.019 316.106 148.187 310.985Z"/>
	<path fill="#9CDA9A" transform="scale(0.195312 0.195312)" d="M148.187 310.985C169.707 289.617 208.965 305.148 208.269 336.716C208.166 341.408 206.599 350.039 202.945 353.33C200.842 354.057 199.097 355.676 197.204 356.807C187.789 362.434 179.248 362.725 172.102 354.167C171.199 354.22 170.326 354.297 169.428 354.167C165.465 353.176 166.771 344.422 166.78 341.265C163.685 341.226 159.04 341.878 156.158 341.108C152.152 340.037 151.567 331.581 155.403 329.736C148.402 323.617 150.658 316.662 148.187 310.985Z"/>
	<path fill="#78BD78" transform="scale(0.195312 0.195312)" d="M178.763 341.265C182.763 341.164 186.734 341.573 190.737 341.265C189.896 346.586 180.267 342.926 178.763 341.265Z"/>
	<path fill="#E6EDF7" transform="scale(0.195312 0.195312)" d="M166.78 317.519C170.545 317.243 175.013 317.109 178.763 317.519C179.304 321.453 179.075 325.788 178.763 329.736C183.11 329.715 187.672 329.351 191.904 330.46C192.361 332.622 193.433 340.402 190.737 341.265C186.734 341.573 182.763 341.164 178.763 341.265C178.727 352.957 182.185 353.416 169.428 354.167C165.465 353.176 166.771 344.422 166.78 341.265C163.685 341.226 159.04 341.878 156.158 341.108C152.152 340.037 151.567 331.581 155.403 329.736L155.856 329.684C157.477 329.49 159.06 329.629 160.684 329.736C161.201 328.024 164.35 319.857 166.536 320.424L166.78 321.527C166.761 320.198 166.686 318.843 166.78 317.519Z"/>
	<path fill="#78BD78" transform="scale(0.195312 0.195312)" d="M160.684 329.736C161.201 328.024 164.35 319.857 166.536 320.424L166.78 321.527C166.514 324.31 166.503 326.955 166.78 329.736C164.736 329.648 162.727 329.652 160.684 329.736Z"/>
	<path fill="#C1DAF5" transform="scale(0.195312 0.195312)" d="M115.052 349.988C115.299 345.373 115.059 340.657 115.054 336.027L115.042 307.656C115.046 284.056 114.656 277.619 141.967 280.75C140.218 280.76 138.469 280.778 136.72 280.75C136.719 285.703 136.291 327.821 136.941 328.899L137.287 328.993C137.625 332.807 137.512 338.607 137.287 342.535C137.064 342.923 135.52 382.465 136.72 385.832C145.438 385.582 146.188 395.364 136.72 396.237C136.773 398.469 136.245 402.333 136.72 404.347C145.16 405.1 144.378 413.317 138.223 414.907C137.463 414.978 137.159 414.885 136.596 415.423C135.72 426.187 141.261 429.13 148.98 434.179C144.632 434.462 140.29 434.198 135.94 434.193C127.756 434.184 117.827 435.786 115.678 425.005C114.362 418.404 115.056 409.26 115.056 402.4L115.055 367.653C115.056 361.777 115.243 355.858 115.052 349.988Z"/>
	<path fill="#536ED6" transform="scale(0.195312 0.195312)" d="M138.223 414.907C123.913 413.569 128.093 403.93 136.72 404.347C145.16 405.1 144.378 413.317 138.223 414.907Z"/>
	<path fill="#536ED6" transform="scale(0.195312 0.195312)" d="M136.72 385.832C145.438 385.582 146.188 395.364 136.72 396.237C126.799 396.581 125.917 385.278 136.72 385.832Z"/>
	<path fill="#E6EDF7" transform="scale(0.195312 0.195312)" d="M306.957 281.157L377.75 281.139C388.425 281.016 397.472 280.577 397.426 294.089L397.346 349.988L397.364 415.497C397.394 431.052 396.373 434.229 380.411 434.198L317.967 434.179L301.55 434.193C284.873 434.203 283.61 432.949 283.722 417.601L283.743 351.263L283.76 308.518C283.762 302.801 283.196 294.947 283.772 289.536C285.002 277.99 299.137 281.928 306.957 281.157Z"/>
	<path fill="#8FA5C9" transform="scale(0.195312 0.195312)" d="M352.433 385.832L366.999 385.822C370.344 385.796 373.699 385.617 377.04 385.832C381.527 388.626 380.456 393.114 377.04 396.237C373.69 396.534 370.155 396.259 366.781 396.254L345.375 396.237L329.461 396.267C326.641 396.272 323.638 396.489 320.847 396.146C317.176 395.695 315.939 390.228 318.363 387.767C321.666 384.415 329.602 385.811 333.788 385.838L352.433 385.832Z"/>
	<path fill="#8FA5C9" transform="scale(0.195312 0.195312)" d="M371.663 404.347C379.735 403.398 383.053 409.737 377.04 414.907L325.688 414.907C323.862 414.943 322.046 414.957 320.22 414.907C317.04 411.592 315.472 405.271 321.304 404.422C324.937 403.893 332.723 404.338 336.806 404.339L371.663 404.347Z"/>
	<path fill="#F77083" transform="scale(0.195312 0.195312)" d="M339.691 313.593C355.402 291.28 388.622 316.789 372.914 338.051C370.045 341.935 366.02 345.326 362.553 348.701C358.488 352.943 345.917 366.781 341.75 369.48C335.133 372.264 330.16 363.666 326.279 359.573C323.954 357.12 321.395 354.797 319.265 352.179C315.233 348.059 311.43 343.643 307.519 339.4C301.071 332.821 300.539 320.418 306.957 313.593C308.599 311.354 310.093 309.799 312.437 308.283C322.884 301.986 331.723 305.968 339.691 313.593Z"/>
	<path fill="#FB9CAB" transform="scale(0.195312 0.195312)" d="M364.522 315.305C367.895 315.691 368.835 318.608 369.602 321.527C368.731 324.174 367.387 326.166 364.522 326.975C356.682 326.364 356.852 316.549 364.522 315.305Z"/>
	<path fill="#EB5E5E" transform="scale(0.195312 0.195312)" d="M312.437 308.283C314.02 311.419 314.407 315.914 315.393 319.344C318.066 328.647 322.659 334.968 328.295 342.535L327.547 343.302C324.694 346.161 321.859 349.082 319.265 352.179C315.233 348.059 311.43 343.643 307.519 339.4C301.071 332.821 300.539 320.418 306.957 313.593C308.599 311.354 310.093 309.799 312.437 308.283Z"/>
	<path fill="#FBC4A2" transform="scale(0.195312 0.195312)" d="M349.787 336.518C354.512 340.07 358.229 344.709 362.553 348.701C358.488 352.943 345.917 366.781 341.75 369.48C335.133 372.264 330.16 363.666 326.279 359.573C323.954 357.12 321.395 354.797 319.265 352.179C321.859 349.082 324.694 346.161 327.547 343.302L328.295 342.535C330.724 345.136 333.424 347.707 336.156 349.988C340.101 346.506 346.163 341.074 349.358 337.058L349.628 336.723C349.682 336.655 349.734 336.586 349.787 336.518Z"/>
	<path fill="#C1DAF5" transform="scale(0.195312 0.195312)" d="M283.743 351.263L283.76 308.518C283.762 302.801 283.196 294.947 283.772 289.536C285.002 277.99 299.137 281.928 306.957 281.157C306.61 286.936 306.114 308.253 306.957 313.593C300.539 320.418 301.071 332.821 307.519 339.4C306.586 345.686 306.94 352.05 306.944 358.386L306.957 385.832C311.935 387.664 312.338 394.449 306.957 396.237C306.522 398.799 306.185 401.814 306.957 404.347C311.973 406.451 312.118 413.138 306.957 414.907C304.028 421.679 311.419 432.665 317.967 434.179L301.55 434.193C284.873 434.203 283.61 432.949 283.722 417.601L283.743 351.263Z"/>
	<path fill="#536ED6" transform="scale(0.195312 0.195312)" d="M306.957 404.347C311.973 406.451 312.118 413.138 306.957 414.907C304.119 414.693 299.204 415.717 296.789 413.884C294.563 412.194 294.649 408.093 296.387 406.111C298.489 403.715 304.048 404.467 306.957 404.347Z"/>
	<path fill="#536ED6" transform="scale(0.195312 0.195312)" d="M298.294 396.237C295.565 394.322 293.395 390.385 296.13 387.437C298.27 385.131 303.956 385.878 306.957 385.832C311.935 387.664 312.338 394.449 306.957 396.237C304.07 396.377 301.183 396.291 298.294 396.237Z"/>
</svg>
