<?xml version="1.0" encoding="utf-8" ?>
<svg xmlns="http://www.w3.org/2000/svg" xmlns:xlink="http://www.w3.org/1999/xlink" width="100" height="100">
	<path fill="#929BCB" transform="scale(0.195312 0.195312)" d="M121.592 60.7685L385.069 60.7537C414.805 60.7448 421.505 73.4787 421.493 101.346L421.481 398.375C421.482 404.579 421.66 410.814 421.58 417.013C421.364 433.811 407.495 446.395 390.94 446.248L128.136 446.265C110.719 446.286 93.4604 440.958 91.3073 420.215C90.6338 413.727 91.0149 406.917 91.015 400.388L91.0097 105.891C91.0038 81.5867 92.5495 63.6257 121.592 60.7685Z"/>
	<path fill="#B9E9F6" transform="scale(0.195312 0.195312)" d="M147.194 432.998C131.011 432.846 104.579 437.782 104.255 415.412C103.894 390.508 104.243 365.547 104.243 340.636L104.233 100.749C104.099 78.3754 108.389 73.6647 131.038 73.7053L149.269 73.729C135.779 78.0519 138.74 98.583 138.69 109.275C138.674 112.64 138.181 118.068 138.677 121.214C138.002 123.948 137.692 126.751 138.677 129.47C138.206 130.414 138.649 160.581 138.677 160.674C138.377 163.363 138.058 166.536 139.264 169.039C139.044 169.229 139.168 169.093 138.981 169.515L138.927 169.366C138.602 171.652 138.353 200.573 138.677 201.939C138.271 204.627 138.242 207.006 138.677 209.696C137.904 211.994 138.644 215.129 138.664 217.545L138.665 234.628C138.654 236.368 138.103 240.929 138.677 242.297C137.722 245.06 137.94 247.534 138.677 250.302C137.765 252.489 138.558 282.6 138.677 282.969C138.137 285.837 138.221 288.013 139.264 290.78C138.881 291.299 137.535 328.527 138.677 332.698C136.351 334.728 133.773 336.527 131.583 338.703C116.98 353.214 122.143 376.504 138.677 387.587C138.357 388.967 138.58 418.129 138.899 420.581C140.085 429.671 144.05 428.169 147.194 432.998Z"/>
	<path fill="#E7EFF4" transform="scale(0.195312 0.195312)" d="M149.269 73.729L386.054 73.7164C407.866 73.71 408.744 81.2379 408.666 102.414L408.685 414.15C408.54 435.975 390.86 433.009 376.011 433.007L154.097 432.967C151.821 432.956 149.458 432.801 147.194 432.998C144.05 428.169 140.085 429.671 138.899 420.581C138.58 418.129 138.357 388.967 138.677 387.587C122.143 376.504 116.98 353.214 131.583 338.703C133.773 336.527 136.351 334.728 138.677 332.698C137.535 328.527 138.881 291.299 139.264 290.78C138.221 288.013 138.137 285.837 138.677 282.969C138.558 282.6 137.765 252.489 138.677 250.302C137.94 247.534 137.722 245.06 138.677 242.297C138.103 240.929 138.654 236.368 138.665 234.628L138.664 217.545C138.644 215.129 137.904 211.994 138.677 209.696C138.242 207.006 138.271 204.627 138.677 201.939C138.353 200.573 138.602 171.652 138.927 169.366L138.981 169.515C139.168 169.093 139.044 169.229 139.264 169.039C138.058 166.536 138.377 163.363 138.677 160.674C138.649 160.581 138.206 130.414 138.677 129.47C137.692 126.751 138.002 123.948 138.677 121.214C138.181 118.068 138.674 112.64 138.69 109.275C138.74 98.583 135.779 78.0519 149.269 73.729Z"/>
	<path fill="#929BCB" transform="scale(0.195312 0.195312)" d="M138.677 121.214C143.161 116.972 148.673 118.171 154.449 118.169L211.403 118.19C216.274 118.192 226.79 116.471 230.379 120.401C233.081 123.36 232.067 128.392 229.143 130.809C225.823 133.554 212.305 132.276 207.972 132.277L154.57 132.281C148.829 132.28 143.26 133.604 138.677 129.47C137.692 126.751 138.002 123.948 138.677 121.214Z"/>
	<path fill="#929BCB" transform="scale(0.195312 0.195312)" d="M138.677 160.674C142.871 156.668 148.718 157.727 154.061 157.726L171.899 157.737C189.508 157.749 207.195 157.348 224.794 157.74C231.448 157.888 234.964 165.92 229.928 170.219C226.039 173.537 214.918 172.031 210.102 172.03L157.451 172.041C151.973 172.068 143.233 173.829 139.264 169.039C138.058 166.536 138.377 163.363 138.677 160.674Z"/>
	<path fill="#929BCB" transform="scale(0.195312 0.195312)" d="M138.677 201.939C141.401 199.204 144.051 198.786 147.736 198.778L216.945 198.838C220.826 198.841 226.834 197.839 229.893 200.871C232.882 203.834 232.756 208.952 229.588 211.765C226.285 214.7 213.839 213.285 209.582 213.283L156.587 213.293C150.772 213.293 142.63 215.091 138.677 209.696C138.242 207.006 138.271 204.627 138.677 201.939Z"/>
	<path fill="#929BCB" transform="scale(0.195312 0.195312)" d="M138.677 242.297C143.868 236.766 154.578 238.876 162.022 238.877L214.586 238.878C218.536 238.879 222.66 238.679 226.583 239.143C232.012 239.784 233.958 247.628 230.147 251.258C226.542 254.693 218.201 253.306 213.695 253.305L160.261 253.318C154.103 253.325 143.25 255.208 138.677 250.302C137.94 247.534 137.722 245.06 138.677 242.297Z"/>
	<path fill="#929BCB" transform="scale(0.195312 0.195312)" d="M138.677 282.969C143.895 277.561 156.353 279.536 163.683 279.537L216.362 279.527C220.407 279.52 226.855 278.359 230.008 281.595C234.389 286.092 231.755 293.722 225.558 294.23C221.186 294.589 216.62 294.277 212.229 294.273L159.358 294.28C153.152 294.281 143.698 296.26 139.264 290.78C138.221 288.013 138.137 285.837 138.677 282.969Z"/>
	<path fill="#4B6BA4" transform="scale(0.195312 0.195312)" d="M315.417 120.532L346.277 120.529C352.719 120.524 360.01 119.701 366.282 121.199C390.223 126.92 397.059 157.123 380.249 173.853C369.125 184.925 356.451 183.089 342.125 183.059L312.609 183.067C305.838 183.068 297.736 183.815 291.194 182.215C267.831 176.5 259.174 146.412 276.574 129.079C287.093 118.6 301.809 120.503 315.417 120.532Z"/>
	<path fill="#F18987" transform="scale(0.195312 0.195312)" d="M297.518 132.271C322.609 129.564 326.499 168.426 302.219 170.507L301.912 170.569C278.656 175.115 268.773 137.04 297.518 132.271Z"/>
	<path fill="#EFD1A7" transform="scale(0.195312 0.195312)" d="M350.393 132.271L350.871 132.267C358.153 132.218 365.751 132.396 371.222 137.881C378.639 145.317 378.611 157.721 371.086 165.095C363.952 172.084 354.527 170.545 345.375 170.507L325.384 170.507C331.006 160.992 333.812 151.277 329.269 140.425C328.1 137.632 326.481 135.116 325.384 132.271L350.393 132.271Z"/>
	<path fill="#4B6BA4" transform="scale(0.195312 0.195312)" d="M313.055 224.097L343.685 224.086C350.592 224.084 358.314 223.332 365.045 224.907C388.714 230.447 397.013 261.024 380.114 277.954C369.323 288.766 357.792 287.25 343.812 287.228L314.471 287.237C306.676 287.237 297.914 287.999 290.344 286.093C266.982 280.209 259.999 250.019 276.453 233.49C287.057 222.837 299.206 224.069 313.055 224.097Z"/>
	<path fill="#F18987" transform="scale(0.195312 0.195312)" d="M297.518 236.739C302.12 235.389 307.461 237.726 311.078 240.473C325.122 251.134 318.882 273.375 301.06 275.422C275.402 277.617 271.711 238.058 297.518 236.739Z"/>
	<path fill="#2ABFFA" transform="scale(0.195312 0.195312)" d="M325.384 236.739L348.232 236.738C352.562 236.728 357.429 236.234 361.677 237.099C378.287 240.479 381.633 262.674 367.802 271.668C361.81 275.557 353.711 274.645 346.933 274.646L325.384 274.636C333.88 260.627 332.097 250.911 325.384 236.739Z"/>
	<path fill="#4B6BA4" transform="scale(0.195312 0.195312)" d="M299.347 328.573L342.611 328.583C349.391 328.581 360.021 327.835 366.353 329.198C397.095 335.819 402.425 388.033 356.667 390.987L314.123 390.977C300.205 390.973 286.647 392.963 275.456 382.931C262.853 371.634 262.545 350.663 273.864 338.408C280.693 331.015 289.672 328.919 299.347 328.573Z"/>
	<path fill="#EF981D" transform="scale(0.195312 0.195312)" d="M329.334 340.993C338.035 341.309 357.711 339.834 365.054 342.165C382.256 347.623 381.173 372.608 364.353 377.726C352.907 381.209 339.311 377.318 329.334 379.026L329.334 340.993Z"/>
	<path fill="#2ABFFA" transform="scale(0.195312 0.195312)" d="M320.685 379.026C308.569 379.048 290.694 382.163 282.272 371.779C272.499 359.728 280.845 341.742 295.915 340.937C301.129 340.658 315.698 340.366 320.685 340.993L329.334 340.993L329.334 379.026L320.685 379.026Z"/>
	<path fill="#E7EFF4" transform="scale(0.195312 0.195312)" d="M320.685 340.993L329.334 340.993L329.334 379.026L320.685 379.026L320.685 340.993Z"/>
	<path fill="#4B6BA4" transform="scale(0.195312 0.195312)" d="M138.677 332.698C147.465 328.537 153.813 328.559 163.3 328.56L204.952 328.571C209.292 328.562 213.721 328.357 218.045 328.668C238.972 330.171 252.663 351.346 245.394 370.957C238.442 389.713 223.599 391.735 206.848 391.72L163.724 391.725C154.536 391.74 147.148 391.973 138.677 387.587C122.143 376.504 116.98 353.214 131.583 338.703C133.773 336.527 136.351 334.728 138.677 332.698Z"/>
	<path fill="#2ABFFA" transform="scale(0.195312 0.195312)" d="M178.908 379.026C176.796 379.543 169.214 378.999 166.537 378.994C157.32 378.978 148.166 380.621 141.063 373.103C133.931 365.556 134.506 353.115 142.104 346.118C149.478 339.328 168.411 340.506 178.908 340.993L178.908 379.026Z"/>
	<path fill="#60C4B3" transform="scale(0.195312 0.195312)" d="M186.749 340.993L205.118 340.983C210.297 340.988 216.095 340.517 221.132 341.834C239.715 346.693 239.128 373.671 220.835 378.393C216.202 379.59 210.67 379.045 205.895 379.043L186.749 379.026C184.137 379.172 181.523 379.04 178.908 379.026L178.908 340.993C181.543 340.844 184.115 340.764 186.749 340.993Z"/>
	<path fill="#E7EFF4" transform="scale(0.195312 0.195312)" d="M178.908 340.993C181.543 340.844 184.115 340.764 186.749 340.993L186.749 379.026C184.137 379.172 181.523 379.04 178.908 379.026L178.908 340.993Z"/>
</svg>
