<?xml version="1.0" encoding="utf-8" ?>
<svg xmlns="http://www.w3.org/2000/svg" xmlns:xlink="http://www.w3.org/1999/xlink" width="100" height="100">
	<path fill="#F4B676" transform="scale(0.195312 0.195312)" d="M368.556 291.505L402.547 291.496C421.711 291.5 430.958 288.34 430.973 309.887L430.976 323.844C430.978 338.45 431.386 353.182 430.903 367.774C430.47 380.856 423.3 382.681 411.909 382.667L364.759 382.662C359.693 382.67 354.543 383.044 349.488 382.652C351.718 382.322 354.202 382.6 356.463 382.623L368.556 382.652C368.248 378.01 368.539 373.268 368.549 368.612L368.556 343.686C368.913 338.614 368.575 333.295 368.556 328.199C369.433 317.8 368.736 302.139 368.556 291.505ZM388.975 328.787C387.317 329.011 385.8 329.403 384.208 329.913C384.188 334.486 384.009 339.12 384.208 343.686L409.184 343.686C418.294 343.105 412.791 329.953 412.655 329.855C410.591 328.372 392.348 328.576 388.975 328.787Z"/>
	<path fill="#F6AA38" transform="scale(0.195312 0.195312)" d="M303.827 292.215C308.604 290.88 314.457 291.496 319.415 291.493L336.288 291.505L368.556 291.505C368.736 302.139 369.433 317.8 368.556 328.199C368.575 333.295 368.913 338.614 368.556 343.686L368.549 368.612C368.539 373.268 368.248 378.01 368.556 382.652L356.463 382.623C354.202 382.6 351.718 382.322 349.488 382.652C344.575 382.631 339.661 382.589 334.748 382.652C325.633 382.388 312.399 383.811 303.827 381.831C294.966 375.022 296.754 370.641 296.747 360.473L296.751 315.494C296.758 304.849 294.599 299.328 303.827 292.215Z"/>
	<path fill="#FEFEFE" transform="scale(0.195312 0.195312)" d="M336.288 312.27C341.62 312.18 346.97 312.228 352.303 312.27L352.303 328.199L368.556 328.199C368.575 333.295 368.913 338.614 368.556 343.686L352.303 343.686L352.303 353.451C352.293 355.035 352.366 356.63 352.001 358.18L351.608 358.523C347.587 359.141 340.49 358.6 336.288 358.523L336.288 343.686C316.255 343.647 318.894 347.955 318.916 328.199C324.7 328.102 330.502 328.197 336.288 328.199L336.288 312.27Z"/>
	<path fill="#9DDDED" transform="scale(0.195312 0.195312)" d="M303.827 381.831C312.399 383.811 325.633 382.388 334.748 382.652L334.748 400.211L334.766 412.24C334.762 441.439 318.609 440.621 294.956 440.598L169.962 440.601C155.757 440.601 141.408 441.132 127.219 440.6C110.065 429.615 111.981 425.537 112.042 405.111C112.059 399.56 111.891 393.995 112.026 388.447C112.549 391.999 112.041 396.549 112.026 400.211L303.827 400.211C304.163 394.831 303.846 389.261 303.827 383.863L303.827 381.831Z"/>
	<path fill="#FEFEFE" transform="scale(0.195312 0.195312)" d="M199.184 415.801C204.028 415.815 218.591 414.808 222.255 417.143C228.21 420.936 224.051 428.754 218.159 429.5L205.914 429.545C201.651 429.556 196.245 430.376 193.237 426.594C190.186 422.76 192.171 418.611 195.529 415.801L199.184 415.801Z"/>
	<path fill="#4EC2CC" transform="scale(0.195312 0.195312)" d="M303.827 381.831C312.399 383.811 325.633 382.388 334.748 382.652L334.748 400.211C324.637 400.389 313.936 400.502 303.827 400.211C303.818 397.116 304.38 385.857 303.827 383.863L303.827 381.831Z"/>
	<path fill="#4EC2CC" transform="scale(0.195312 0.195312)" d="M127.219 440.6C108.134 440.64 82.3741 445.129 80.4254 418.259C79.8861 410.823 80.2396 403.162 80.2422 395.705L80.2388 105.447C80.2402 94.2457 78.974 83.3469 89.0411 75.542C95.7174 70.3659 115.773 69.9788 124.772 71.0857C109.188 77.0268 112.029 90.6104 112.022 104.126L112.016 154.367C112.016 157.738 111.759 161.281 112.026 164.628L112.026 388.447C111.891 393.995 112.059 399.56 112.042 405.111C111.981 425.537 110.065 429.615 127.219 440.6Z"/>
	<defs>
		<linearGradient id="gradient_0" gradientUnits="userSpaceOnUse" x1="288.4624" y1="224.02885" x2="409.52487" y2="165.98752">
			<stop offset="0" stop-color="#2AABE7"/>
			<stop offset="1" stop-color="#57CDFB"/>
		</linearGradient>
	</defs>
	<path fill="url(#gradient_0)" transform="scale(0.195312 0.195312)" d="M303.231 121.711L335.469 121.711L335.469 127.59C341.547 127.809 347.568 127.333 353.655 127.844C391.212 130.996 418.159 161.35 416.711 198.999C415.346 234.496 384.866 265.169 348.776 263.548C344.609 263.36 340.459 262.799 336.288 262.764L336.288 271.17L336.288 291.505L319.415 291.493C314.457 291.496 308.604 290.88 303.827 292.215C304.114 280.925 303.831 269.56 303.827 258.262L303.827 245.708C300.913 242.304 297.662 239.268 294.886 235.708C276.045 211.541 277.231 176.579 295.463 152.496C297.819 149.384 300.783 146.789 303.231 143.746C303.023 141.317 303.199 138.739 303.204 136.297L303.231 121.711Z"/>
	<path fill="#6E96C3" transform="scale(0.195312 0.195312)" d="M303.827 245.708C314.187 255.281 322.945 259.164 336.288 262.764L336.288 271.17C328.123 270.4 319.565 267.539 312.541 263.296C309.935 261.722 306.73 259.041 303.827 258.262L303.827 245.708Z"/>
	<path fill="#6E96C3" transform="scale(0.195312 0.195312)" d="M303.231 121.711L335.469 121.711L335.469 127.59C331.397 129.116 327.128 130.035 323.084 131.598C315.246 134.628 309.851 139.064 303.231 143.746C303.023 141.317 303.199 138.739 303.204 136.297L303.231 121.711Z"/>
	<path fill="#AFC0CE" transform="scale(0.195312 0.195312)" d="M303.827 258.262C306.73 259.041 309.935 261.722 312.541 263.296C319.565 267.539 328.123 270.4 336.288 271.17L336.288 291.505L319.415 291.493C314.457 291.496 308.604 290.88 303.827 292.215C304.114 280.925 303.831 269.56 303.827 258.262Z"/>
	<path fill="#FEFEFE" transform="scale(0.195312 0.195312)" d="M367.998 159.345C378.141 157.929 387.877 166.458 389.338 176.211C391.265 189.079 379.739 197.544 371.818 205.746L358.819 219.143C352.225 225.84 347.269 231.302 337.61 232.744C327.322 233.592 317.617 226.986 316.144 216.435C314.541 204.952 321.408 198.285 328.81 190.975L339.344 180.513C348.448 171.43 354.49 161.187 367.998 159.345Z"/>
	<path fill="#3598BF" transform="scale(0.195312 0.195312)" d="M345.629 185.263C350.482 185.142 363.088 199.746 363.861 201.837C365.049 205.051 362.499 207.377 359.723 208.444C356.494 208.466 331.44 189.92 345.629 185.263Z"/>
	<path fill="#6E96C3" transform="scale(0.195312 0.195312)" d="M190.817 280.179C200.241 279.056 201.33 289.022 194.079 293.845C184.849 293.791 182.039 283.303 190.817 280.179Z"/>
	<path fill="#48B87B" transform="scale(0.195312 0.195312)" d="M130.113 354.74C135.447 359.711 153.649 376.086 159.926 379.634C143.512 393.007 120.589 373.792 130.113 354.74Z"/>
	<path fill="#48B87B" transform="scale(0.195312 0.195312)" d="M159.926 315.439C142.747 328.635 120.654 308.309 131.309 289.47C135.279 290.716 156.868 311.3 159.46 314.801L159.755 315.197C159.813 315.276 159.869 315.358 159.926 315.439Z"/>
	<path fill="#53D294" transform="scale(0.195312 0.195312)" d="M131.309 289.47C149.814 263.13 183.246 297.784 159.926 315.439C159.869 315.358 159.813 315.276 159.755 315.197L159.46 314.801C156.868 311.3 135.279 290.716 131.309 289.47Z"/>
	<path fill="#53D294" transform="scale(0.195312 0.195312)" d="M130.113 354.74C146.354 326.737 183.949 360.562 159.926 379.634C153.649 376.086 135.447 359.711 130.113 354.74Z"/>
	<path fill="#6E96C3" transform="scale(0.195312 0.195312)" d="M212.762 280.179C220.258 280.068 260.166 279.09 265.731 280.605C273.019 282.59 271.965 291.062 266.056 293.845C259.467 294.034 216.725 294.716 212.421 293.49C206.601 291.831 206 283.722 212.762 280.179Z"/>
	<path fill="#6E96C3" transform="scale(0.195312 0.195312)" d="M194.079 363.316L226.266 363.31C231.633 363.31 237.609 362.823 242.904 363.614C250.218 364.707 253.059 377.11 239.474 376.905L205.9 376.908C201.218 376.912 195.25 377.442 190.707 376.791C184.277 375.869 181.041 363.94 194.079 363.316Z"/>
	<path fill="#6E96C3" transform="scale(0.195312 0.195312)" d="M219.11 338.132L233.783 338.092C237.415 338.066 243.895 337.094 246.856 339.796C250.951 343.531 249.16 350.186 243.695 351.395C240.249 352.158 236.205 351.776 232.685 351.776L215.189 351.759L199.649 351.79C195.491 351.799 190.198 352.631 186.921 349.407C183.22 345.768 185.85 339.261 190.676 338.374C193.867 337.788 197.547 338.117 200.791 338.117L219.11 338.132Z"/>
	<path fill="#6E96C3" transform="scale(0.195312 0.195312)" d="M200.94 304.501L257.064 304.503C260.847 304.508 265.877 303.782 268.861 306.674C271.516 309.247 271.603 313.564 268.963 316.19C266.039 319.097 259.456 318.171 255.563 318.154L213.027 318.167C206.619 318.173 197.952 318.655 191.897 318.017C186.515 317.449 182.963 311.561 187.071 307.042C190.049 303.766 196.831 304.612 200.94 304.501Z"/>
	<path fill="#E54140" transform="scale(0.195312 0.195312)" d="M152.844 200.033L176.492 200.033C177.749 222.715 191.837 240.7 213.287 247.534C215.44 248.22 218.972 248.62 220.286 250.65C184.91 258.046 155.259 236.176 152.844 200.033Z"/>
	<path fill="#F4756C" transform="scale(0.195312 0.195312)" d="M263.001 200.033C264.251 224.804 243.215 245.464 220.286 250.65C218.972 248.62 215.44 248.22 213.287 247.534C191.837 240.7 177.749 222.715 176.492 200.033C184.92 200.033 262.261 200.336 263.001 200.033Z"/>
	<path fill="#F6AA38" transform="scale(0.195312 0.195312)" d="M152.844 200.033L152.825 198.944C152.461 169.464 177.683 144.291 207.057 144.227C238.397 144.159 263.163 168.814 263.001 200.033C262.261 200.336 184.92 200.033 176.492 200.033L152.844 200.033Z"/>
	<path fill="#9DDDED" transform="scale(0.195312 0.195312)" d="M124.772 71.0857C129.875 70.3551 140.509 71.0975 146.29 71.0948L300.937 71.0762C305.83 71.0755 310.871 70.87 315.742 71.3598C334.068 73.2024 335.485 89.5508 335.486 103.559L335.469 121.711L303.231 121.711L303.231 95.1981L276.248 95.1988C271.602 95.1933 266.95 95.0085 262.307 95.1981C262.311 98.4847 262.943 102.993 262.307 106.094C261.933 123.46 240.955 120.546 229.323 120.55L175.62 120.543C163.371 120.535 152.582 119.922 152.226 104.318C151.784 101.368 152.27 98.19 152.226 95.1981C147.832 94.9067 143.297 95.1866 138.885 95.1904L112.026 95.1981L112.06 158.167C112.071 160.232 112.322 162.596 112.026 164.628C111.759 161.281 112.016 157.738 112.016 154.367L112.022 104.126C112.029 90.6104 109.188 77.0268 124.772 71.0857Z"/>
	<path fill="#1BB8A9" transform="scale(0.195312 0.195312)" d="M152.226 95.1981L225.385 95.1947C237.68 95.1932 250.021 94.9356 262.307 95.1981C262.302 98.8182 262.178 102.479 262.307 106.094C261.933 123.46 240.955 120.546 229.323 120.55L175.62 120.543C163.371 120.535 152.582 119.922 152.226 104.318C152.266 101.278 152.245 98.2385 152.226 95.1981Z"/>
</svg>
