<?xml version="1.0" encoding="utf-8" ?>
<svg xmlns="http://www.w3.org/2000/svg" xmlns:xlink="http://www.w3.org/1999/xlink" width="100" height="100">
	<path fill="#4E84DF" transform="matrix(0.195313 0 0 0.195313 0 3.05176e-05)" d="M254.548 302.772C261.626 302.682 307.068 301.453 310.806 304.348C316.594 308.83 314.17 317.95 305.807 318.291C303.546 318.545 301.025 318.304 298.738 318.302L263.929 318.296C260.373 318.295 256.592 318.552 253.066 318.142C245.507 317.263 243.498 303.984 254.548 302.772Z"/>
	<path fill="#4E84DF" transform="matrix(0.195313 0 0 0.195313 0 3.05176e-05)" d="M253.714 229.676L287.866 229.666C292.404 229.666 305.852 228.639 309.596 230.405C316.103 233.474 314.791 243.093 307.69 245.325C305.274 245.598 302.728 245.383 300.296 245.359L266.429 245.334C260.964 245.337 249.292 247.256 247.53 240.08C246.256 234.891 248.401 230.824 253.714 229.676Z"/>
	<path fill="#4852A7" transform="matrix(0.195313 0 0 0.195313 0 3.05176e-05)" d="M286.847 402.668L287.69 402.68C290.922 407.87 291.511 411.675 296.458 418.441C289.926 418.61 283.359 418.443 276.823 418.444L223.802 418.413C221.238 418.396 218.548 418.159 216.001 418.441C225.08 411.817 226.567 413.136 235.306 402.668L269.938 402.652C275.523 402.654 281.285 403.028 286.847 402.668Z"/>
	<path fill="#B6B3ED" transform="matrix(0.195313 0 0 0.195313 0 3.05176e-05)" d="M258.276 278.873L315.518 278.866C322.377 278.866 354.146 278.191 358.066 279.676C360.474 280.588 361.506 282.622 362.497 284.831C359.569 287.963 355.807 293.448 351.362 294.232L262.303 294.23C258.201 294.233 252.809 295.376 249.456 292.34C246.508 289.671 246.234 284.046 248.996 281.149C251.344 278.687 255.144 278.955 258.276 278.873Z"/>
	<path fill="#B6B3ED" transform="matrix(0.195313 0 0 0.195313 0 3.05176e-05)" d="M256.321 181.747L341.977 181.742C346.485 181.741 355.347 180.534 359.249 183.305C365.038 187.416 362.387 195.955 354.066 196.835L265.385 196.855C261.358 196.878 257.099 197.165 253.103 196.686C245.911 195.825 242.893 181.682 256.321 181.747Z"/>
	<path fill="#4E84DF" transform="matrix(0.195313 0 0 0.195313 0 3.05176e-05)" d="M255.426 205.307L342.372 205.282C346.563 205.277 350.902 205.048 355.074 205.455C365.036 206.427 364.255 220.139 354.066 220.969L265.765 220.972C262.053 220.973 258.152 221.209 254.458 220.839C243.873 219.78 244.254 206.092 255.426 205.307Z"/>
	<path fill="#F36B3F" transform="matrix(0.195313 0 0 0.195313 0 3.05176e-05)" d="M426.497 278.07C446.709 286.703 455.634 309.059 446.84 329.291C442.524 339.221 429.857 349.971 421.706 358.113C416.065 351.067 405.336 341.708 398.671 334.737C411.806 320.559 430.725 308.576 427.749 286.588C427.415 284.122 425.671 280.444 426.497 278.07Z"/>
	<path fill="#F69848" transform="matrix(0.195313 0 0 0.195313 0 3.05176e-05)" d="M368.189 304.68C384.534 287.432 399.62 267.469 426.497 278.07C425.671 280.444 427.415 284.122 427.749 286.588C430.725 308.576 411.806 320.559 398.671 334.737L398.671 334.737C390.715 325.965 376.741 312.375 368.189 304.68Z"/>
	<path fill="#08BEE2" transform="matrix(0.195313 0 0 0.195313 0 3.05176e-05)" d="M186.21 174.063C202.783 172.215 201.804 187.217 201.758 198.425C208.535 198.523 217.892 196.856 223.23 201.84C228.341 206.611 228.491 214.846 223.562 219.819C218.431 224.995 208.499 223.711 201.758 223.691C201.808 233.168 203.857 243.902 192.957 247.85C176.388 250.696 175.71 235.138 175.783 223.691C169.406 224.097 160.368 225.008 155.522 220.407C150.397 215.54 150.461 206.743 155.558 201.878C160.732 196.94 169.248 198.401 175.783 198.425C175.735 188.298 174.151 177.24 186.21 174.063Z"/>
	<path fill="#4E84DF" transform="matrix(0.195313 0 0 0.195313 0 3.05176e-05)" d="M70.1385 349.996C72.1458 352.947 72.1057 357.29 73.0248 360.681C81.5616 392.172 110.537 387.994 135.656 387.996C141.363 387.997 147.174 388.435 152.86 387.996L152.86 421.154C147.691 421.136 142.323 420.808 137.175 421.154L118.045 421.162C106.097 421.169 94.3555 421.094 83.9787 414.335C62.631 400.431 56.051 371.416 70.1385 349.996Z"/>
	<path fill="#C1D0E6" transform="matrix(0.195313 0 0 0.195313 0 3.05176e-05)" d="M232.745 346.75C244.889 363.898 247.064 384.914 235.306 402.668C238.692 402.37 242.218 402.643 245.625 402.657L279.811 402.635C282.086 402.624 284.601 402.37 286.847 402.668C281.285 403.028 275.523 402.654 269.938 402.652L235.306 402.668C226.567 413.136 225.08 411.817 216.001 418.441C206.606 421.384 197.9 421.168 188.158 421.161L144.293 421.176C141.982 421.168 139.461 421.422 137.175 421.154C142.323 420.808 147.691 421.136 152.86 421.154L152.86 387.996L152.86 387.996L154.501 388.02L179.938 387.989C195.885 387.973 209.194 389.695 221.449 377.481C230.008 368.95 232.721 358.476 232.745 346.75Z"/>
	<path fill="#FEFCFE" transform="matrix(0.195313 0 0 0.195313 0 3.05176e-05)" d="M336.695 335.556C338.684 331.923 364.059 308.403 368.189 304.68C376.741 312.375 390.715 325.965 398.671 334.737L398.671 334.737C405.336 341.708 416.065 351.067 421.706 358.113C412.251 367.914 401.098 379.141 390.823 387.996C387.416 385.478 384.395 382.2 381.375 379.236L367.11 365.26L367.11 365.26C357.61 356.904 345.434 344.897 336.695 335.556Z"/>
	<path fill="#C1D0E6" transform="matrix(0.195313 0 0 0.195313 0 3.05176e-05)" d="M398.671 334.737L398.671 334.737C405.336 341.708 416.065 351.067 421.706 358.113C412.251 367.914 401.098 379.141 390.823 387.996C387.416 385.478 384.395 382.2 381.375 379.236L367.11 365.26L367.11 365.26C372.769 362.216 392.283 340.415 398.671 334.737Z"/>
	<path fill="#B6B3ED" transform="matrix(0.195313 0 0 0.195313 0 3.05176e-05)" d="M175.783 263.037L203.209 263.031C209.643 263.027 225.675 260.264 226.822 269.948C227.672 277.117 227.655 309.687 226.329 314.731L226.205 315.195C224.443 321.929 208.569 319.661 203.875 319.643L174.812 319.658C155.674 319.698 152.827 323.027 152.849 301.565C152.858 292.841 153.048 284.073 152.736 275.356C152.185 259.971 163.526 263.015 175.783 263.037Z"/>
	<path fill="#FEFCFE" transform="matrix(0.195313 0 0 0.195313 0 3.05176e-05)" d="M167.249 278.873L211.537 278.873L211.537 303.552L167.249 303.552L167.249 278.873Z"/>
	<path fill="#FEFCFE" transform="matrix(0.195313 0 0 0.195313 0 3.05176e-05)" d="M152.86 328.96C157.734 328.544 162.788 328.986 167.683 328.972L188.375 328.955C205.159 328.964 222.545 330.527 232.745 346.75C232.721 358.476 230.008 368.95 221.449 377.481C209.194 389.695 195.885 387.973 179.938 387.989L154.501 388.02L152.86 387.996C152.698 385.954 152.843 383.804 152.845 381.752L152.86 328.96Z"/>
	<path fill="#17A3ED" transform="matrix(0.195313 0 0 0.195313 0 3.05176e-05)" d="M110.248 328.96C112.752 328.789 123.704 328.57 125.704 328.96C128.784 329.277 132.107 329.002 135.215 328.981L152.86 328.96L152.845 381.752C152.843 383.804 152.698 385.954 152.86 387.996L152.86 387.996C147.174 388.435 141.363 387.997 135.656 387.996C110.537 387.994 81.5616 392.172 73.0248 360.681C72.1057 357.29 72.1458 352.947 70.1385 349.996C74.9173 340.458 89.5057 331.276 99.9617 329.66C103.374 329.133 106.841 329.644 110.248 328.96Z"/>
	<path fill="#4E84DF" transform="matrix(0.195313 0 0 0.195313 0 3.05176e-05)" d="M336.695 335.556C345.434 344.897 357.61 356.904 367.11 365.26L367.11 365.26L381.375 379.236C384.395 382.2 387.416 385.478 390.823 387.996C387.397 392.918 379.196 400.191 374.596 404.707C365.851 413.292 360.981 418.719 347.892 421.071C327.862 424.67 306.104 411.118 303.511 390.174C301.338 364.063 319.891 352.298 336.695 335.556Z"/>
	<path fill="#17A3ED" transform="matrix(0.195313 0 0 0.195313 0 3.05176e-05)" d="M336.695 335.556C345.434 344.897 357.61 356.904 367.11 365.26L367.11 365.26C352.436 380.51 337.225 398.463 313.589 392.952C310.75 392.289 306.197 389.851 303.511 390.174C301.338 364.063 319.891 352.298 336.695 335.556Z"/>
	<path fill="#4852A7" transform="matrix(0.195313 0 0 0.195313 0 3.05176e-05)" d="M110.248 328.96L110.25 130.777C110.244 123.276 109.606 113.737 110.726 106.486C113.933 85.7188 129.743 79.2455 148.142 79.2419L368.678 79.2189C384.053 79.3391 398.541 91.4375 401.33 106.597C402.4 112.411 401.877 118.936 401.876 124.846L401.867 223.481C401.868 234.58 402.31 245.806 401.863 256.89C396.208 258.332 390.961 259.802 386.039 263.037L386.039 151.432L125.704 151.432L125.704 328.96C123.704 328.57 112.752 328.789 110.248 328.96ZM141.629 94.7891C126.008 96.3506 125.67 108.638 125.687 121.095L125.704 135.788L370.125 135.788L386.039 135.788C386.083 116.103 390.511 94.8079 363.023 94.7802L166.389 94.7873C158.165 94.7869 149.844 94.5153 141.629 94.7891Z"/>
	<path fill="#B6B3ED" transform="matrix(0.195313 0 0 0.195313 0 3.05176e-05)" d="M141.629 94.7891C149.844 94.5153 158.165 94.7869 166.389 94.7873L363.023 94.7802C390.511 94.8079 386.083 116.103 386.039 135.788L370.125 135.788L125.704 135.788L125.687 121.095C125.67 108.638 126.008 96.3506 141.629 94.7891ZM192.957 109.763C185.421 111.027 184.197 119.016 189.631 122.083C193.182 124.088 199.817 123.175 203.875 123.132C209.247 122.067 212.274 114.152 206.97 110.983C203.954 109.181 196.596 109.538 192.957 109.763ZM225.495 109.763C218.13 110.572 216.06 118.072 221.141 121.66C224.4 123.961 231.369 123.147 235.306 123.132C241.388 122.108 245.38 114.956 239.091 111.081C235.641 108.955 229.506 109.736 225.495 109.763ZM162.093 109.763C154.54 110.501 151.888 117.927 157.159 121.612C160.562 123.993 166.721 123.175 170.685 123.132C177.604 122.416 180.48 114.694 175.609 111.3C172.311 109.002 166.011 109.747 162.093 109.763Z"/>
</svg>
