<?xml version="1.0" encoding="utf-8" ?>
<svg xmlns="http://www.w3.org/2000/svg" xmlns:xlink="http://www.w3.org/1999/xlink" width="100" height="100">
	<path fill="#3F5186" transform="scale(0.195312 0.195312)" d="M278.753 103.632C320.916 101.579 356.27 129.807 367.7 169.973C379.292 210.705 358.158 254.83 318.915 270.753C314.596 272.505 310.082 273.691 305.601 274.949C301.666 281.191 290.351 303.108 284.762 305.763C277.134 308.224 273.597 301.256 270.41 295.756L262.737 282.384C261.285 279.866 260.004 277.217 258.164 274.949C221.263 262.629 196.135 239.169 193.647 197.789C190.607 147.246 229.449 106.489 278.753 103.632ZM281.981 296.524L283.322 294.146C285.971 289.689 297.256 269.423 299.972 267.102C302.488 264.952 308.733 264.345 312.041 263.158C348.592 250.042 368.765 211.138 359.062 173.246C350.389 139.373 321.359 114.886 286.538 112.871C284.063 112.728 281.201 112.533 278.753 112.981C236.137 114.749 200.939 152.594 202.796 195.24C204.115 225.513 222.995 252.976 251.814 263.039C265.799 267.922 262.632 263.164 270.168 276.618C273.896 283.273 277.476 290.362 281.981 296.524Z"/>
	<path fill="#BAE3F9" transform="scale(0.195312 0.195312)" d="M278.753 112.981C281.201 112.533 284.063 112.728 286.538 112.871C321.359 114.886 350.389 139.373 359.062 173.246C368.765 211.138 348.592 250.042 312.041 263.158C308.733 264.345 302.488 264.952 299.972 267.102C297.256 269.423 285.971 289.689 283.322 294.146L281.981 296.524C277.476 290.362 273.896 283.273 270.168 276.618C262.632 263.164 265.799 267.922 251.814 263.039C222.995 252.976 204.115 225.513 202.796 195.24C200.939 152.594 236.137 114.749 278.753 112.981ZM256.845 153.279C244.678 155.732 238.043 164.515 238.251 176.784C219.844 183.119 220.217 208.578 240.426 217.846L242.286 218.693C248.372 227.278 255.707 231.647 266.214 230.989C266.196 237.98 263.538 251.678 269.702 255.245L286.631 255.274C296.409 255.287 299.815 257.488 299.546 246.19L299.546 230.989C310.366 231.736 317.546 227.852 322.73 218.693C330.51 215.422 336.044 212.495 339.359 204.207C343.862 192.947 337.373 179.969 325.664 176.784C324.604 163.996 319.571 155.729 306.557 153.279C314.943 140.105 305.368 127.588 292.734 130.572C287.901 131.714 285.746 135.68 281.981 138.408C276.531 133.866 274.113 129.786 266.214 130.342C254.828 132.387 250.275 144.316 256.845 153.279Z"/>
	<path fill="#3F5186" transform="scale(0.195312 0.195312)" d="M281.981 138.408C285.746 135.68 287.901 131.714 292.734 130.572C305.368 127.588 314.943 140.105 306.557 153.279C319.571 155.729 324.604 163.996 325.664 176.784C337.373 179.969 343.862 192.947 339.359 204.207C336.044 212.495 330.51 215.422 322.73 218.693C317.546 227.852 310.366 231.736 299.546 230.989L299.546 246.19C299.815 257.488 296.409 255.287 286.631 255.274L269.702 255.245C263.538 251.678 266.196 237.98 266.214 230.989C255.707 231.647 248.372 227.278 242.286 218.693L240.426 217.846C220.217 208.578 219.844 183.119 238.251 176.784C238.043 164.515 244.678 155.732 256.845 153.279C250.275 144.316 254.828 132.387 266.214 130.342C274.113 129.786 276.531 133.866 281.981 138.408ZM278.753 161.588L278.753 201.875L278.753 221.77L286.748 221.77L286.736 179.296C286.735 175.488 286.242 164.822 287 161.605C288.465 155.394 300.631 150.454 300.845 143.757C300.953 140.403 297.93 139.152 295.007 139.23C291.525 141.425 285.199 150.827 281.321 149.793C276.747 148.573 271.101 137.427 265.958 140.045C256.126 145.049 274.876 155.839 278.753 161.588ZM295.984 164.607C295.83 167.077 295.95 169.585 295.984 172.059C302.466 169.431 309.567 171.963 312.115 178.805C314.872 186.21 308.441 190.401 320.88 193.748C325.897 195.098 328.487 196.954 330.579 201.875C334.116 191.862 329.009 186.937 319.832 184.667C312.85 182.94 316.536 178.349 316.242 173.406C315.653 163.503 303.853 159.485 295.984 164.607ZM290.141 230.989L275.477 230.989C275.393 233.181 275.41 235.35 275.477 237.542C280.343 237.355 285.271 237.489 290.141 237.542C290.301 235.367 290.19 233.169 290.141 230.989ZM269.702 165.43C262.009 158.16 247.203 163.763 247.671 174.933C247.779 177.514 248.641 180.219 247.808 182.734C239.804 185.989 229.601 191.13 235.916 201.875C240.266 188.906 246.507 195.329 250.743 187.693C250.846 185.282 250.26 182.905 250.419 180.499C251.002 171.629 263.971 167.308 269.702 174.143L269.702 165.43Z"/>
	<path fill="#FE8A8B" transform="scale(0.195312 0.195312)" d="M250.743 187.693C250.846 185.282 250.26 182.905 250.419 180.499C251.002 171.629 263.971 167.308 269.702 174.143L269.702 221.77C248.267 223.016 254.977 215.609 249.604 210.857C245.616 207.33 239.902 211.996 235.916 201.875C240.266 188.906 246.507 195.329 250.743 187.693Z"/>
	<path fill="#FE8A8B" transform="scale(0.195312 0.195312)" d="M295.984 172.059C302.466 169.431 309.567 171.963 312.115 178.805C314.872 186.21 308.441 190.401 320.88 193.748C325.897 195.098 328.487 196.954 330.579 201.875C327.23 207.633 321.802 208.831 315.75 209.873C310.698 219.823 311.028 223.698 295.984 221.77L295.984 172.059Z"/>
	<path fill="#FE8A8B" transform="scale(0.195312 0.195312)" d="M275.477 237.542C280.343 237.355 285.271 237.489 290.141 237.542L290.141 246.19C285.258 246.259 280.361 246.191 275.477 246.19L275.477 237.542Z"/>
	<path fill="#BAE3F9" transform="scale(0.195312 0.195312)" d="M205.084 276.213C206.181 279.263 208.395 282.113 210.329 284.705C225.49 305.026 244.526 299.238 248.984 329.499C252.242 351.61 243.821 369.853 257.892 390.42C271.784 410.723 289.673 410.834 312.471 410.811C315.777 410.808 338.774 411.474 339.263 410.813C339.179 405.732 338.633 402.085 344.271 400.44C346.449 400.969 347.545 401.713 348.959 403.459C349.366 409.205 348.984 415.123 348.994 420.89C349.021 436.584 350.011 435.833 335.585 435.817L216.382 435.804C208.059 435.808 198.909 436.269 190.664 435.744C185.546 435.419 186.903 430.103 188.714 427.065C201.125 406.253 201.865 388.628 203.501 365.944C166.577 366.209 132.391 342.621 126.804 304.705C126.433 302.185 126.008 299.42 126.258 296.869C126.845 290.854 132.886 291.26 135.544 295.496L156.517 295.505C170.292 295.498 177.781 298.289 176.82 281.697C192.357 292.595 194.035 295.845 205.084 276.213Z"/>
	<path fill="#3F5186" transform="scale(0.195312 0.195312)" d="M203.501 365.944C166.577 366.209 132.391 342.621 126.804 304.705C126.433 302.185 126.008 299.42 126.258 296.869C126.845 290.854 132.886 291.26 135.544 295.496C135.4 330.011 165.95 356.152 199.364 356.264C214.843 356.316 213.26 356.126 212.724 372.128C211.927 395.945 206.789 405.703 201.074 426.221L339.263 426.221C339.254 421.12 339.04 415.902 339.263 410.813C339.179 405.732 338.633 402.085 344.271 400.44C346.449 400.969 347.545 401.713 348.959 403.459C349.366 409.205 348.984 415.123 348.994 420.89C349.021 436.584 350.011 435.833 335.585 435.817L216.382 435.804C208.059 435.808 198.909 436.269 190.664 435.744C185.546 435.419 186.903 430.103 188.714 427.065C201.125 406.253 201.865 388.628 203.501 365.944Z"/>
	<path fill="#7AF3DF" transform="scale(0.195312 0.195312)" d="M129.38 138.408C129.748 128.723 127.713 121.344 141.001 121.046C145.592 120.943 163.066 120.483 166.599 121.362C177.348 124.034 171.076 141.299 176.687 139.793C181.02 138.629 184.927 126.649 196.76 138.408C195.067 140.791 193.72 143.405 192.344 145.978C184.28 157.946 185.043 168.278 182.057 180.741C182.712 185.616 181.89 192.102 175.945 187.581C159.491 175.067 158.25 191.533 150.022 188.503C144.131 186.334 142.709 179.37 131.831 184.067C124.382 187.284 121.414 195.964 124.7 203.242C127.959 210.461 145.599 224.758 152.375 229.901C158.175 224.855 164.028 219.852 169.637 214.593C173.209 211.244 184.234 197.16 183.771 213.244C185.549 220.63 187.616 229.608 191.769 236.004L192.344 236.9C194.529 242.439 198.333 246.765 201.074 251.948C216.342 252.798 194.962 272.038 191.335 273.036C185.377 274.675 181.336 266.329 176.82 263.861C175.878 264.697 175.102 265.654 174.3 266.62C173.89 272.705 176.48 282.813 167.283 283.295C161.901 283.577 156.338 283.289 150.937 283.289C132.867 283.29 129.07 286.979 129.38 266.62C127.468 265.951 125.676 264.831 123.903 263.861C113.103 275.067 112.69 276.005 101.864 265.227L92.9147 256.329C90.131 253.571 86.8995 250.931 84.4292 247.908C79.0338 241.306 89.3293 235.302 92.365 230.691C91.7352 228.812 91.3341 226.951 91.0226 224.997C86.2884 224.71 79.6415 226.669 75.8905 222.999C72.2485 219.436 72.5534 191.563 73.4698 187.624C75.3556 179.518 84.597 180.655 91.0226 180.741C91.4436 178.179 92.0802 176.388 93.3778 174.143C89.831 170.329 81.9448 165.692 84.9479 159.332C86.6938 155.634 102.956 139.348 106.832 136.302C114.376 130.372 118.046 137.791 124.519 141.138C126.103 140.167 127.798 139.395 129.38 138.408Z"/>
	<path fill="#3F5186" transform="scale(0.195312 0.195312)" d="M129.38 138.408C129.748 128.723 127.713 121.344 141.001 121.046C145.592 120.943 163.066 120.483 166.599 121.362C177.348 124.034 171.076 141.299 176.687 139.793C181.02 138.629 184.927 126.649 196.76 138.408C195.067 140.791 193.72 143.405 192.344 145.978C190.823 144.66 189.321 143.459 187.583 142.436L187.372 142.606C184.231 145.167 182.011 148.196 178.093 149.718C163.055 146.952 164.259 142.69 164.056 130.342C155.619 130.253 147.177 130.34 138.74 130.342C138.776 134.603 139.842 141.564 136.67 144.886C134.377 147.286 126.284 151.185 123.056 151.247C110.273 159.573 111.06 164.052 103.455 172.059C101.17 177.766 100.586 186.777 94.4061 189.735C93.9936 197.85 94.3994 207.145 94.9735 215.337C101.325 217.948 104.242 222.24 101.767 229.075C101.841 230.261 101.412 232.432 101.767 233.436C102.723 233.947 108.968 242.338 110.54 243.985C114.764 248.406 119.657 250.199 123.903 253.815C128.132 255.661 132.262 257.81 136.289 260.063C151.993 260.874 150.851 261.346 167.399 258.583L167.694 258.536C169.897 256.741 171.354 255.516 174.3 255.245C175.256 252.219 178.083 250.974 180.503 249.21C185.96 245.233 188.231 240.117 192.344 236.9C194.529 242.439 198.333 246.765 201.074 251.948C216.342 252.798 194.962 272.038 191.335 273.036C185.377 274.675 181.336 266.329 176.82 263.861C175.878 264.697 175.102 265.654 174.3 266.62C173.89 272.705 176.48 282.813 167.283 283.295C161.901 283.577 156.338 283.289 150.937 283.289C132.867 283.29 129.07 286.979 129.38 266.62C127.468 265.951 125.676 264.831 123.903 263.861C113.103 275.067 112.69 276.005 101.864 265.227L92.9147 256.329C90.131 253.571 86.8995 250.931 84.4292 247.908C79.0338 241.306 89.3293 235.302 92.365 230.691C91.7352 228.812 91.3341 226.951 91.0226 224.997C86.2884 224.71 79.6415 226.669 75.8905 222.999C72.2485 219.436 72.5534 191.563 73.4698 187.624C75.3556 179.518 84.597 180.655 91.0226 180.741C91.4436 178.179 92.0802 176.388 93.3778 174.143C89.831 170.329 81.9448 165.692 84.9479 159.332C86.6938 155.634 102.956 139.348 106.832 136.302C114.376 130.372 118.046 137.791 124.519 141.138C126.103 140.167 127.798 139.395 129.38 138.408Z"/>
	<path fill="#56E2DE" transform="scale(0.195312 0.195312)" d="M136.289 260.063C151.993 260.874 150.851 261.346 167.399 258.583L167.694 258.536C164.105 263.275 164.707 268.182 164.761 273.78L138.74 273.78C138.827 269.008 139.814 263.818 136.289 260.063Z"/>
	<path fill="#56E2DE" transform="scale(0.195312 0.195312)" d="M101.767 233.436C102.723 233.947 108.968 242.338 110.54 243.985C114.764 248.406 119.657 250.199 123.903 253.815C118.627 254.539 115.226 258.805 112.424 262.937C109.95 259.404 106.69 256.628 103.617 253.635L93.3778 243.494C96.1742 240.567 100.995 237.641 101.767 233.436Z"/>
	<path fill="#56E2DE" transform="scale(0.195312 0.195312)" d="M94.4061 162.715C96.3532 159.794 109.662 146.464 112.424 144.475C115.172 147.432 119.102 150.232 123.056 151.247C110.273 159.573 111.06 164.052 103.455 172.059C101.09 168.457 97.5727 165.595 94.4061 162.715Z"/>
	<path fill="#56E2DE" transform="scale(0.195312 0.195312)" d="M94.4061 189.735C93.9936 197.85 94.3994 207.145 94.9735 215.337C90.9325 215.515 86.807 215.34 82.7569 215.337L82.7569 189.735L94.4061 189.735Z"/>
	<path fill="#56E2DE" transform="scale(0.195312 0.195312)" d="M192.344 236.9C194.529 242.439 198.333 246.765 201.074 251.948C197.076 254.06 193.066 259.499 189.964 262.937C185.768 258.639 181.614 253.373 175.059 255.051L174.3 255.245C175.256 252.219 178.083 250.974 180.503 249.21C185.96 245.233 188.231 240.117 192.344 236.9Z"/>
	<path fill="#3F5186" transform="scale(0.195312 0.195312)" d="M183.771 213.244C179.476 218.887 159.683 238.426 153.047 240.071C147.352 241.482 121.699 216.04 118.376 211.362C103.595 190.552 127.707 162.164 152.375 178.32C161.389 170.743 174.176 172.514 182.057 180.741C182.712 185.616 181.89 192.102 175.945 187.581C159.491 175.067 158.25 191.533 150.022 188.503C144.131 186.334 142.709 179.37 131.831 184.067C124.382 187.284 121.414 195.964 124.7 203.242C127.959 210.461 145.599 224.758 152.375 229.901C158.175 224.855 164.028 219.852 169.637 214.593C173.209 211.244 184.234 197.16 183.771 213.244Z"/>
	<path fill="#3F5186" transform="scale(0.195312 0.195312)" d="M277.913 71.2852L279.985 71.2475C349.614 70.5926 409.799 123.758 409.757 195.124C409.746 212.983 406.57 215.272 415.298 229.771L430.306 254.632C435.935 263.856 444.569 273.907 433.921 284.31C427.534 290.55 417.934 289.261 409.756 289.231L409.76 332.247C409.767 340.611 410.577 353.369 408.707 361.169C402.267 388.029 378.962 387.531 357.921 387.533L308.011 387.545C303.936 387.585 299.787 387.921 295.75 387.238C278.89 384.386 278.657 359.289 294.86 354.787C299.061 353.62 304.186 354.135 308.536 354.134L324.745 354.139L324.745 340.004C318.036 340.212 310.7 341.075 305.462 335.909C298.753 329.294 298.367 318.516 305.151 311.789C310.56 306.424 317.755 307.207 324.745 307.249C324.68 300.97 324.27 292.737 329.001 287.951C335.236 281.642 345.852 281.375 352.154 287.739C357.547 293.185 356.753 300.221 356.679 307.249C363.667 307.185 369.991 306.556 375.47 311.703C382.176 318.002 382.241 328.951 375.805 335.461C370.453 340.873 363.6 339.968 356.679 340.004L356.679 343.688L356.679 354.139C359.814 354.292 367.535 353.59 369.955 354.336C374.249 355.66 375.393 361.784 370.374 363.137C366.864 364.083 359.764 363.478 355.891 363.477L320.696 363.474C312.9 363.475 294.998 360.51 292.525 369.5C289.545 380.336 307.01 378.238 312.427 378.239L364.902 378.246C379.282 378.244 393.672 378.246 399.186 360.931C401.748 352.888 400.476 343.517 400.472 335.221L400.457 297C400.453 293.688 399.819 286.31 400.626 283.469C403.831 272.19 425.653 288.99 429.686 272.34C427.203 264.269 410.702 240.178 405.783 231.604C404.275 228.976 402.11 226.43 401.14 223.544C399.558 218.837 400.749 198.8 400.549 191.515C397.934 96.5213 278.598 44.4202 207.872 109.654C205.351 111.98 202.793 115.68 199.206 116.35C197.084 116.746 194.262 115.267 194.023 112.964C193.45 107.435 206.657 98.1662 210.504 95.351C231.189 80.2114 252.871 73.4787 277.913 71.2852Z"/>
	<path fill="#7AF3DF" transform="scale(0.195312 0.195312)" d="M339.263 292.795C349.633 291.767 346.797 304.296 346.883 310.898C346.993 319.328 356.924 316.824 362.62 316.684C368.744 316.533 373.589 322.488 369.542 328.105C362.659 337.658 347.013 320.061 346.995 341.358L347.007 354.139C345.362 354.213 343.709 354.161 342.062 354.139C339.466 354.209 336.886 354.194 334.29 354.139C334.276 347.532 334.401 340.92 334.29 334.315C333.227 332.646 332.267 331.733 330.579 330.733C324.698 330.457 305.266 333.621 310.319 320.587C313.094 313.429 325.934 318.94 331.351 316.358C339.18 312.627 328.723 297.418 339.263 292.795Z"/>
</svg>
