<?xml version="1.0" encoding="utf-8" ?>
<svg xmlns="http://www.w3.org/2000/svg" xmlns:xlink="http://www.w3.org/1999/xlink" width="100" height="100">
	<path fill="#4589F0" transform="scale(0.195312 0.195312)" d="M93.7598 317.511L93.7617 229.037C93.7608 214.205 93.5463 199.344 93.7645 184.516C94.1326 159.502 112.369 158.721 131.863 158.733L228.991 158.745C239.978 158.744 251.02 158.5 262.002 158.744L261.969 171.422C261.958 173.736 261.813 176.082 262.002 178.389C262.468 184.845 266.232 188.094 271.318 191.235L147.23 191.227C124.848 191.197 126.961 190.889 126.961 211.72L126.973 318.251L126.973 318.251L126.973 326.973C119.423 327.358 101.215 327.829 93.7598 326.973C93.8112 323.821 93.7685 320.663 93.7598 317.511Z"/>
	<path fill="#4589F0" transform="scale(0.195312 0.195312)" d="M386.076 191.235C396.655 191.65 407.416 191.233 418.02 191.235L418.028 342.223C418.04 355.506 419.24 372.26 400.912 375.269C396.271 376.031 391.313 375.515 386.611 375.692C369.348 376.34 352.91 376.274 335.624 376.272L200.861 376.272C200.123 376.306 199.468 376.306 198.737 376.19C195.948 366.071 204.818 348.595 213.828 344.256L363.184 344.265C386.714 344.275 386.087 348.554 386.08 327.043L386.076 191.235Z"/>
	<path fill="#E4EDF5" transform="scale(0.195312 0.195312)" d="M200.861 376.272C197.514 377.052 198.758 378.359 199.701 381.051C204.698 395.33 222.349 404.114 224.209 409.527C228.783 422.838 193.494 417.943 186.5 417.926L96.9712 418.028C81.7318 418.025 57.796 421.676 52.6919 402.037C51.2157 396.357 51.6069 389.8 51.6131 383.957L51.6382 367.596C51.645 358.875 49.7086 345.003 54.415 337.184C64.8578 319.835 86.5971 330.101 93.7598 326.973C101.215 327.829 119.423 327.358 126.973 326.973L127.251 326.995C130.067 327.199 132.945 327.004 135.771 326.985L211.25 326.959C215.664 326.951 225.699 325.783 224.961 332.931C224.385 338.522 216.791 340.278 213.828 344.256C204.818 348.595 195.948 366.071 198.737 376.19C199.468 376.306 200.123 376.306 200.861 376.272Z"/>
	<path fill="#7CCDF9" transform="scale(0.195312 0.195312)" d="M143.06 358.33C161.659 356.163 167.928 383.849 147.558 387.463C129.024 389.202 123.069 361.216 143.06 358.33Z"/>
	<path fill="#7CCDF9" transform="scale(0.195312 0.195312)" d="M108.14 358.33C123.94 355.201 132.259 385.417 109.861 387.463C89.9777 386.701 88.3936 358.907 108.14 358.33Z"/>
	<defs>
		<linearGradient id="gradient_0" gradientUnits="userSpaceOnUse" x1="260.97058" y1="113.25698" x2="445.62277" y2="158.53403">
			<stop offset="0" stop-color="#FFB145"/>
			<stop offset="1" stop-color="#FC7770"/>
		</linearGradient>
	</defs>
	<path fill="url(#gradient_0)" transform="scale(0.195312 0.195312)" d="M262.002 158.744C262.188 154.592 262.015 150.361 262.011 146.199L261.99 121.551C261.973 93.2835 265.935 91.2399 293.825 91.2464L434.763 91.2567C442.294 91.2121 450.471 89.9014 456.294 95.7426C463.989 103.462 461.435 117.666 461.437 127.609L461.419 169.955C461.298 183.605 455.482 191.548 441.161 191.35C433.475 191.244 425.686 191.573 418.02 191.235C407.416 191.233 396.655 191.65 386.076 191.235C378.964 191.048 371.809 191.22 364.692 191.235L347.239 191.236C344.681 191.236 341.913 191.007 339.382 191.235C325.188 191.942 308.439 191.408 294.143 191.235L271.318 191.235C266.232 188.094 262.468 184.845 262.002 178.389C261.813 176.082 261.958 173.736 261.969 171.422L262.002 158.744ZM305.033 123.785C296.951 128.249 307.961 134.701 303.701 137.409C300.776 139.268 295.718 135.942 294.451 140.773C292.031 150.003 306.606 143.362 304.377 149.843C303.634 152.004 300.517 155.263 301.85 157.648C306.27 165.556 311.457 153.005 314.468 153.339C318.895 153.83 318.388 161.646 324.633 160.025C331.52 155.329 322.767 152.728 323.553 148.094C324.257 143.943 332.165 148.721 333.751 144.062C337.073 134.305 322.145 140.474 323.937 134.711C324.705 132.238 328.416 129.12 327.08 126.361C323.214 118.37 317.563 130.872 314.268 131.113C310.268 129.956 310.532 123.878 305.033 123.785Z"/>
	<path fill="#E4EDF5" transform="scale(0.195312 0.195312)" d="M355.622 123.785C360.973 123.82 360.557 129.731 364.293 131.122C368.622 131.02 369.334 122.194 374.39 124.16C380.199 126.419 375.826 130.883 374.235 134.411C371.293 140.938 382.266 134.122 384.907 141.856C382.644 149.826 376.941 144.379 373.889 147.108C373.242 149.602 376.824 153.862 377.949 156.133C377.05 158.136 376.236 159.201 374.17 160.025C368.207 160.142 369.434 156.161 365.977 153.444C361.282 149.756 360.334 164.803 352.92 158.704C349.468 155.864 355.794 151.261 355.588 148.023C353.91 144.95 340.472 147.957 345.252 139.826C347.481 136.033 353.308 139.477 355.492 135.96C355.884 132.114 346.969 126.311 355.622 123.785Z"/>
	<path fill="#E4EDF5" transform="scale(0.195312 0.195312)" d="M422.21 123.785C433.389 123.578 424.548 132.399 424.691 135.872C424.85 139.72 435.98 135.225 435.403 142.002C434.802 149.069 427.682 144.472 425.046 147.144C423.276 148.939 427.586 154.122 427.717 156.362C423.567 167.223 418.627 154.482 415.595 153.393C412.935 152.438 411.749 158.637 408.053 160.025C396.446 160.226 407.502 151.516 405.997 148.033C404.709 145.052 391.715 147.273 395.761 139.823C397.412 136.784 401.988 138.393 404.607 137.348C407.757 136.091 403.087 129.588 402.22 127.849C407.397 116.588 411.566 130.135 414.772 131.025C417.042 131.655 419.835 124.857 422.21 123.785Z"/>
	<path fill="#F75852" transform="scale(0.195312 0.195312)" d="M434.763 91.2567C442.294 91.2121 450.471 89.9014 456.294 95.7426C463.989 103.462 461.435 117.666 461.437 127.609L461.419 169.955C461.298 183.605 455.482 191.548 441.161 191.35C433.475 191.244 425.686 191.573 418.02 191.235C407.416 191.233 396.655 191.65 386.076 191.235C378.964 191.048 371.809 191.22 364.692 191.235L347.239 191.236C344.681 191.236 341.913 191.007 339.382 191.235C325.188 191.942 308.439 191.408 294.143 191.235L271.318 191.235C266.232 188.094 262.468 184.845 262.002 178.389C275.328 180.219 286.657 179.586 300.1 179.588L403.647 179.591C413.071 179.59 422.599 179.861 432.01 179.323C447.755 178.423 443.713 157.926 443.715 147.108C443.718 134.02 444.147 120.77 443.597 107.699C443.135 96.7184 438.507 97.4892 434.763 91.2567Z"/>
	<path fill="#E4EDF5" transform="scale(0.195312 0.195312)" d="M271.318 191.235L294.143 191.235C308.439 191.408 325.188 191.942 339.382 191.235C341.913 191.007 344.681 191.236 347.239 191.236L364.692 191.235C371.809 191.22 378.964 191.048 386.076 191.235L386.08 327.043C386.087 348.554 386.714 344.275 363.184 344.265L213.828 344.256C216.791 340.278 224.385 338.522 224.961 332.931C225.699 325.783 215.664 326.951 211.25 326.959L135.771 326.985C132.945 327.004 130.067 327.199 127.251 326.995L126.973 326.973L126.973 318.251L126.973 318.251L126.961 211.72C126.961 190.889 124.848 191.197 147.23 191.227L271.318 191.235Z"/>
	<path fill="#FAA93B" transform="scale(0.195312 0.195312)" d="M294.143 191.235C308.439 191.408 325.188 191.942 339.382 191.235C334.066 198.249 303.941 228.142 298.729 230.928C292.078 227.063 294.121 221.201 294.123 214.481L294.143 191.235Z"/>
	<path fill="#C7D8E9" transform="scale(0.195312 0.195312)" d="M364.692 191.235C371.809 191.22 378.964 191.048 386.076 191.235L386.08 327.043C386.087 348.554 386.714 344.275 363.184 344.265L213.828 344.256C216.791 340.278 224.385 338.522 224.961 332.931C225.699 325.783 215.664 326.951 211.25 326.959L135.771 326.985C132.945 327.004 130.067 327.199 127.251 326.995L126.973 326.973L126.973 318.251L327.537 318.249C338.3 318.251 360.39 321.939 363.675 307.613C365.634 299.07 364.507 286.767 364.54 277.965L364.675 202.689C364.652 199.001 364.465 195.25 364.671 191.569L364.692 191.235Z"/>
	<path fill="#7CCDF9" transform="scale(0.195312 0.195312)" d="M173.595 230.928C177.561 230.473 183.557 230.909 187.762 230.92L331.827 230.911C349.095 230.841 349.974 230.353 349.992 249.995L350 268.025C350.001 279.547 354.181 295.966 343.669 301.786C341.611 302.035 339.392 301.834 337.314 301.819L213.369 301.782C201.256 301.787 188.96 302.217 176.866 301.752C164.35 301.27 166.536 290.981 166.529 281.775L166.53 262.761C166.534 253.702 162.972 233.649 173.595 230.928Z"/>
	<path fill="#4589F0" transform="scale(0.195312 0.195312)" d="M188.981 271.735C193.222 271.469 197.629 271.716 201.889 271.724L259.334 271.729C263.252 271.729 276.391 270.719 279.439 272.453C284.379 275.262 282.268 281.3 277.166 282.246L200.146 282.263C195.975 282.273 184.503 283.749 183.768 277.661C183.348 274.191 185.778 272.041 188.981 271.735Z"/>
	<path fill="#4589F0" transform="scale(0.195312 0.195312)" d="M212.649 248.568L314.447 248.561C318.651 248.549 327.035 247.088 330.531 249.994C334.069 252.936 332.523 258.195 328.215 259.061C325.476 259.612 322.196 259.218 319.382 259.202L303.687 259.182L203.073 259.191C199.351 259.196 188.408 260.372 185.541 257.906C182.527 255.315 183.406 249.624 187.6 248.849C190.585 248.298 193.976 248.559 197.019 248.558L212.649 248.568Z"/>
</svg>
