<?xml version="1.0" encoding="utf-8" ?>
<svg xmlns="http://www.w3.org/2000/svg" xmlns:xlink="http://www.w3.org/1999/xlink" width="100" height="100">
	<path fill="#2B58A8" transform="scale(0.195312 0.195312)" d="M146.972 111.372L147.016 110.892C148.024 98.7249 144.353 85.9444 155.629 76.1302C162.559 70.0981 169.404 69.7561 177.998 69.7572L328.134 69.7607C340.604 69.7598 349.628 68.8241 358.731 79.4326C367.539 89.6962 364.894 102.937 365.259 115.459C366.768 117.707 370.56 119.346 372.696 121.119C412.197 153.916 438.433 200.499 436.352 253.127C436.238 256 436.146 259.39 435.198 262.123C442.708 287.182 440.038 312.03 420.792 331.663C418.676 333.821 416.148 335.744 414.206 338.038C409.04 354.8 379.663 384.975 366.282 395.38C366.195 407.433 368.003 420.214 358.637 429.547C349.271 438.88 338.179 437.246 326.035 437.242L173.994 437.236C145.57 437.051 147.357 416.715 146.972 395.38C146.726 395.049 146.503 394.954 146.157 394.751C136.407 389.041 117.125 367.625 110.289 358.643C83.5331 323.489 71.9198 277.749 77.2794 234.015C77.6029 231.375 77.667 226.894 79.0341 224.617C78.0351 222.027 76.9552 219.447 76.0306 216.831C64.0847 183.028 83.2221 144.778 116.237 132.054C120.293 130.491 124.66 129.991 128.738 128.496C133.138 124.485 142.421 113.798 146.972 111.372ZM153.277 129.452C213.191 141.193 227.265 226.785 167.63 254.347C162.987 256.493 158.102 258.073 153.277 259.75L153.277 386.203C153.517 389.265 153.418 392.317 153.277 395.38C157.822 395.71 162.388 395.397 166.942 395.383L348.402 395.39C352.226 395.429 356.13 395.759 359.939 395.38L359.939 350.731C347.763 349.257 337.473 342.37 327.932 335.184C327.714 344.515 327.939 353.901 327.942 363.238C327.944 371.085 329.754 384.182 318.386 384.816C309.598 385.306 300.564 384.881 291.753 384.879L208.416 384.881C198.512 384.905 184.782 387.471 184.228 373.166C183.995 367.149 184.201 361.046 184.208 355.022L184.201 301.36C184.202 293.222 182.796 282.655 192.73 279.502C197.356 278.033 218.695 278.747 224.997 278.755C224.887 261.094 235.524 246.802 254.007 246.674C276.336 246.519 286.569 256.637 286.541 278.755C293.325 278.834 300.116 278.767 306.901 278.755C309.805 252.61 332.145 225.173 358.747 221.092L358.759 106.536C358.766 79.4176 353.917 76.5678 327.829 76.4822L184.902 76.4664C172.533 76.4668 158.355 74.2747 154.2 90.2695C152.669 96.1634 153.261 103.132 153.261 109.185L153.277 129.452ZM314.771 273.062L315.621 272.806C315.868 274.892 315.235 278.512 315.558 281.814C319.169 318.801 356.736 343.456 391.726 330.01C419.794 319.223 429.293 293.121 426.151 265.426C426.777 264.728 427.89 263.054 428.184 262.123C427.199 259.751 426.074 257.433 424.993 255.104C415.725 240.751 403.681 230.148 386.499 226.496C355.324 219.871 319.96 240.576 314.771 273.062ZM88.9473 228.68C95.4529 216.389 108.537 213.836 121.135 208.561C127.549 214.948 130.745 217.214 138.932 222.016C141.92 220.156 150.278 214.923 152.371 212.565C157.671 206.591 154.551 208.118 164.73 212.722C171.287 215.688 180.603 218.395 185.726 223.629C186.721 219.78 188.957 216.313 190.465 212.649C195.038 201.541 195.792 193.233 196.21 181.424C195.196 180.14 194.799 176.955 194.419 175.304L194.585 175.224C195.263 175.606 195.702 175.938 196.145 176.569L196.269 176.408C196.124 175.616 196.052 174.973 196.21 174.186C195.352 172.299 194.582 170.175 193.434 168.452C169.866 119.148 99.3572 125.033 82.3008 175.547C76.1262 193.833 78.983 212.448 88.9473 228.68ZM268.256 315.757C259.629 319.726 252.257 319.984 243.498 316.529C243.518 319.404 243.605 322.296 243.498 325.169C245.702 327.224 247.56 329.555 249.417 331.921C251.782 334.72 254.049 337.57 256.269 340.485C260.024 335.264 264.797 330.528 268.256 325.169C268.273 322.145 268.611 318.737 268.256 315.757Z"/>
	<path fill="#83DDD0" transform="scale(0.195312 0.195312)" d="M146.972 111.372C147.187 115.239 147.458 123.91 146.972 127.746C140.329 127.637 134.924 128.403 128.738 128.496C133.138 124.485 142.421 113.798 146.972 111.372Z"/>
	<path fill="#C2D6F7" transform="scale(0.195312 0.195312)" d="M194.419 175.304L194.585 175.224C195.263 175.606 195.702 175.938 196.145 176.569L196.269 176.408C196.124 175.616 196.052 174.973 196.21 174.186C196.962 176.516 197.188 179.008 197.551 181.424C202.939 190.177 198.306 211.686 193.594 221.25C192.377 223.72 190.949 226.099 189.975 228.68C188.412 227.078 186.967 225.498 185.726 223.629C186.721 219.78 188.957 216.313 190.465 212.649C195.038 201.541 195.792 193.233 196.21 181.424C195.196 180.14 194.799 176.955 194.419 175.304Z"/>
	<path fill="#FEBE76" transform="scale(0.195312 0.195312)" d="M158.892 215.604C164.634 218.335 176.773 222.212 180.667 225.971C180.26 227.755 179.508 229.506 178.643 231.115C172.658 228.69 166.524 226.417 160.698 223.629C154.442 225.723 148.504 229.708 142.036 231.115L142.036 226.798C146.501 222.466 153.464 218.733 158.892 215.604Z"/>
	<path fill="#FEBE76" transform="scale(0.195312 0.195312)" d="M118.733 215.604C124.637 218.974 130.387 222.911 135.962 226.798L135.962 231.115C129.133 230.15 123.39 225.785 116.93 223.629C108.629 225.404 100.966 229.973 92.8084 232.269C98.5625 222.018 107.043 218.456 118.733 215.604Z"/>
	<path fill="#8DB8F9" transform="scale(0.195312 0.195312)" d="M310.62 351.779C310.607 358.463 309.982 365.265 312.309 371.639C311.432 373.499 310.568 376.925 310.62 378.974C295.185 378.944 279.737 379.138 264.304 378.974C264.757 378.712 290.246 378.975 293.631 378.974C291.634 377.993 283.192 374.6 287.786 372.882L289.472 374.081C296.209 368.931 303.895 363.816 304.829 354.767C306.774 355.206 309.095 352.765 310.62 351.779Z"/>
	<path fill="#8DB8F9" transform="scale(0.195312 0.195312)" d="M230.68 273.062C230.989 252.929 262.112 245.6 274.822 258.9C282.189 266.608 280.83 274.302 281.189 283.95C279.827 283.727 276.715 271.456 272.006 266.926C262.628 257.907 244.993 259.533 235.663 267.817C233.843 269.433 232.363 271.319 230.68 273.062Z"/>
	<path fill="#F89A42" transform="scale(0.195312 0.195312)" d="M92.8084 232.269C100.966 229.973 108.629 225.404 116.93 223.629C123.39 225.785 129.133 230.15 135.962 231.115L135.962 255.104C119.859 252.264 102.812 247.29 92.944 233.084C92.7124 232.75 92.7898 232.659 92.8084 232.269Z"/>
	<path fill="#F89A42" transform="scale(0.195312 0.195312)" d="M160.698 223.629C166.524 226.417 172.658 228.69 178.643 231.115C179.508 229.506 180.26 227.755 180.667 225.971C182.72 228.178 183.885 230.896 185.726 233.241C173.895 246.418 159.023 252.505 142.036 255.104L142.036 231.115C148.504 229.708 154.442 225.723 160.698 223.629Z"/>
	<path fill="#83DDD0" transform="scale(0.195312 0.195312)" d="M366.282 351.779C380.941 352.037 392.349 350.68 405.529 343.572C408.555 341.941 411.109 339.545 414.206 338.038C409.04 354.8 379.663 384.975 366.282 395.38C365.897 390.872 366.264 386.041 366.266 381.49L366.282 351.779Z"/>
	<path fill="#8CDBF0" transform="scale(0.195312 0.195312)" d="M286.541 284.541L306.043 284.541C305.802 303.939 311.341 315.747 322.65 330.383L322.659 359.92C322.657 374.989 326.614 379.231 310.62 378.974C310.568 376.925 311.432 373.499 312.309 371.639C318.542 370.539 315.947 364.242 315.782 359.545C315.439 349.755 316.88 339.56 307.249 333.479C300.539 329.243 281.13 323.913 273.033 321.019L273.033 312.206C282.297 304.912 285.605 295.835 286.541 284.541Z"/>
	<path fill="#D5E3F4" transform="scale(0.195312 0.195312)" d="M428.184 262.123C433.932 279.615 435.118 295.7 426.451 312.919C402.387 360.726 331.049 354.931 314.894 304.586C312.14 296.005 310.577 281.35 314.771 273.062L315.621 272.806C315.868 274.892 315.235 278.512 315.558 281.814C319.169 318.801 356.736 343.456 391.726 330.01C419.794 319.223 429.293 293.121 426.151 265.426C426.777 264.728 427.89 263.054 428.184 262.123Z"/>
	<path fill="#D5E3F4" transform="scale(0.195312 0.195312)" d="M273.81 326.903C277.912 327.966 281.898 329.669 285.89 331.095C296.239 334.791 307.219 336.057 310.62 347.942L310.62 351.779C309.095 352.765 306.774 355.206 304.829 354.767C303.895 363.816 296.209 368.931 289.472 374.081L287.786 372.882C283.192 374.6 291.634 377.993 293.631 378.974C290.246 378.975 264.757 378.712 264.304 378.974C262.51 379.036 260.743 379.065 258.95 378.974L258.78 378.843C258.544 375.741 258.934 372.349 258.95 369.209C258.746 366.687 258.928 364.005 258.931 361.465L258.95 345.755C260.542 343.259 262.566 341.03 264.413 338.721L273.81 326.903Z"/>
	<path fill="#C2D6F7" transform="scale(0.195312 0.195312)" d="M258.95 369.209C259.51 371.237 259.107 373.703 258.95 375.778C260.701 376.231 262.386 376.396 262.718 378.46C261.954 378.962 260.004 378.743 258.95 378.974L258.78 378.843C258.544 375.741 258.934 372.349 258.95 369.209Z"/>
	<path fill="#C2D6F7" transform="scale(0.195312 0.195312)" d="M310.62 347.942L310.62 351.779C309.095 352.765 306.774 355.206 304.829 354.767C304.45 353.232 303.776 352.032 302.915 350.731C305.756 349.158 307.221 347.941 310.62 347.942Z"/>
	<path fill="#2B58A8" transform="scale(0.195312 0.195312)" d="M287.786 372.882C283.369 369.221 276.459 364.465 274.492 358.872C271.308 349.82 279.782 342.886 289.472 347.942C293.038 343.596 299.907 347.054 302.915 350.731C303.776 352.032 304.45 353.232 304.829 354.767C303.895 363.816 296.209 368.931 289.472 374.081L287.786 372.882Z"/>
	<path fill="#F27D83" transform="scale(0.195312 0.195312)" d="M282.83 350.731C285.841 350.649 287.52 352.838 289.472 354.767C291.06 352.331 292.045 351.448 294.882 350.731C302.777 353.305 298.766 359.057 294.882 363.235C293.139 364.844 291.436 366.479 289.472 367.82C284.455 364.023 273.259 355.94 282.83 350.731Z"/>
	<path fill="#4587F0" transform="scale(0.195312 0.195312)" d="M230.68 273.062C232.363 271.319 233.843 269.433 235.663 267.817C244.993 259.533 262.628 257.907 272.006 266.926C276.715 271.456 279.827 283.727 281.189 283.95C280.424 286.504 280.041 289.204 279.441 291.806C274.482 313.305 250.625 320.637 236.965 302.795C231.914 296.197 229.516 281.523 230.68 273.062Z"/>
	<path fill="#8CDBF0" transform="scale(0.195312 0.195312)" d="M196.21 378.974C186.759 379.681 189.986 366.2 189.985 359.097L189.964 304.501C189.948 285.97 187.306 284.531 207.917 284.526L224.997 284.541C225.929 295.797 229.641 305.833 238.496 313.226L238.496 321.019C232.12 322.735 208.329 331.136 204.299 334.592C196.422 341.348 197.319 351.567 196.555 360.965C196.133 366.818 195.949 373.115 196.21 378.974Z"/>
	<path fill="#4587F0" transform="scale(0.195312 0.195312)" d="M237.731 326.903C239.181 326.672 252.011 343.657 253.43 345.755L253.43 378.974L215.463 378.977C209.058 378.978 202.61 379.141 196.21 378.974C195.949 373.115 196.133 366.818 196.555 360.965L196.555 364.664C205.909 372.927 200.344 347.215 205.984 342.481L206.271 341.897C208.966 336.354 216.301 334.854 221.555 332.921L237.731 326.903Z"/>
	<path fill="#8DB8F9" transform="scale(0.195312 0.195312)" d="M237.731 326.903C234.541 338.127 214.911 339.778 208.394 347.089C206.92 348.741 205.831 350.922 204.726 352.827C205.248 350.037 207.271 345.08 205.984 342.481L206.271 341.897C208.966 336.354 216.301 334.854 221.555 332.921L237.731 326.903Z"/>
	<path fill="#83DDD0" transform="scale(0.195312 0.195312)" d="M365.259 115.459C366.768 117.707 370.56 119.346 372.696 121.119C412.197 153.916 438.433 200.499 436.352 253.127C436.238 256 436.146 259.39 435.198 262.123C419.423 228.958 403.154 219.076 365.259 219.218L365.259 115.459Z"/>
	<path fill="#83DDD0" transform="scale(0.195312 0.195312)" d="M79.0341 224.617L79.171 224.803C82.2031 228.987 84.6164 233.557 87.8815 237.606C103.595 257.089 123.635 261.589 146.972 261.253L146.978 380.374C146.982 385.343 147.205 390.423 146.972 395.38C146.726 395.049 146.503 394.954 146.157 394.751C136.407 389.041 117.125 367.625 110.289 358.643C83.5331 323.489 71.9198 277.749 77.2794 234.015C77.6029 231.375 77.667 226.894 79.0341 224.617Z"/>
	<path fill="#D5E3F4" transform="scale(0.195312 0.195312)" d="M153.277 386.203C153.517 389.265 153.418 392.317 153.277 395.38C157.822 395.71 162.388 395.397 166.942 395.383L348.402 395.39C352.226 395.429 356.13 395.759 359.939 395.38C359.127 417.217 361.823 431.102 334.227 431.136L187.268 431.14C160.459 431.146 153.235 430.885 153.248 403.656L153.277 386.203Z"/>
	<path fill="#8DB8F9" transform="scale(0.195312 0.195312)" d="M255.174 400.093C268.811 399.609 271.958 420.16 256.269 422.699C241.437 423.537 240.356 401.668 255.174 400.093Z"/>
	<path fill="#2B58A8" transform="scale(0.195312 0.195312)" d="M137.743 146.777C149.023 146.414 164.738 152.617 165.38 165.774C166.241 183.436 162.391 208.288 140.198 209.249C115.073 210.345 112.698 184.122 112.779 165.139C112.83 153.203 127.558 146.698 137.743 146.777Z"/>
	<path fill="#FCD499" transform="scale(0.195312 0.195312)" d="M117.783 170.117C117.717 165.767 117.25 162.119 120.557 158.708C130.992 147.947 160.235 150.638 159.925 166.809C159.903 167.912 159.849 169.014 159.806 170.117C158.931 165.231 149.101 160.016 144.776 158.906C136.132 156.688 120.256 160.417 117.783 170.117Z"/>
	<path fill="#FEBE76" transform="scale(0.195312 0.195312)" d="M117.783 170.117C120.256 160.417 136.132 156.688 144.776 158.906C149.101 160.016 158.931 165.231 159.806 170.117C160.394 179.262 159.551 189.953 153.468 197.248C146.381 205.748 134.618 206.611 126.297 199.379C117.731 191.934 118.524 180.416 117.783 170.117Z"/>
	<path fill="#2B58A8" transform="scale(0.195312 0.195312)" d="M363.006 251.751L377.773 251.721C393.338 251.693 389.263 251.82 389.223 269.373C408.292 269.582 406.871 264.787 406.86 282.41C406.848 304.219 410.499 300.598 389.223 300.642C389.252 305.547 391.384 316.63 386.275 317.472C381.768 317.606 377.223 317.471 372.711 317.489C355.572 317.558 358.732 319.366 358.747 300.642C356.269 300.661 343.945 301.905 342.943 299.522C341.7 296.563 341.268 273.129 343.262 268.787C345.027 267.547 356.054 268.231 358.747 268.247C358.712 262.085 356.26 252.395 363.006 251.751Z"/>
	<path fill="#F89A42" transform="scale(0.195312 0.195312)" d="M364.069 299.862C371.314 301.215 376.023 301.9 383.515 301.738C383.755 305.211 383.586 308.727 383.515 312.206L364.069 312.206L364.069 299.862Z"/>
	<path fill="#FCD499" transform="scale(0.195312 0.195312)" d="M364.069 256.88C370.538 256.743 377.057 257.127 383.515 256.88C383.504 260.588 383.057 268.618 383.548 271.84C384.257 276.48 397.038 274.463 401.487 274.521C401.474 281.386 401.212 288.36 401.487 295.213C390.802 295.161 383.776 291.324 383.515 301.738C376.023 301.9 371.314 301.215 364.069 299.862C364.789 292.35 354.347 295.25 347.943 295.213L347.943 295.213C347.349 289.307 347.853 279.962 347.943 273.83C370.205 273.511 362.098 276.337 364.069 256.88Z"/>
	<path fill="#D5E3F4" transform="scale(0.195312 0.195312)" d="M268.256 201.031C271.811 200.88 287.681 200.487 290.194 201.854C294.169 204.016 291.907 209.078 287.786 210.213C281.458 210.232 272.838 210.617 266.74 210.213C262.992 207.207 262.433 202.069 268.256 201.031Z"/>
	<path fill="#D5E3F4" transform="scale(0.195312 0.195312)" d="M226.283 201.031C230.014 200.795 250.283 200.794 252.362 201.587C256.86 203.305 255.099 209.045 250.951 210.213L235.528 210.244C232.427 210.251 223.565 211.314 222.512 207.13C221.788 204.251 223.542 201.723 226.283 201.031Z"/>
	<path fill="#D5E3F4" transform="scale(0.195312 0.195312)" d="M228.013 176.757C239.552 176.594 253.088 177.582 264.304 176.757C268.203 181.049 266.571 186.006 260.777 186.013L224.997 186.013C220.06 181.981 222.445 177.425 228.013 176.757Z"/>
	<path fill="#D5E3F4" transform="scale(0.195312 0.195312)" d="M281.189 176.757L281.517 176.739C284.197 176.6 286.946 176.767 289.633 176.772L320.167 176.749C325.505 176.747 340.983 177.063 331.647 186.013L327.932 186.013C325.317 186.239 322.587 186.062 319.958 186.041L290.043 186.091C287.038 186.119 283.934 186.287 280.943 186.136C273.68 185.771 275.047 178.346 281.189 176.757Z"/>
	<path fill="#D5E3F4" transform="scale(0.195312 0.195312)" d="M314.771 151.738C318.786 151.759 330.435 150.584 333.218 153.321C334.834 154.91 334.486 157.961 332.906 159.452C330.364 161.853 324.801 160.798 321.648 160.805L241.462 160.82C236.937 160.832 232.315 161.132 227.802 160.964C221.677 160.735 220.495 155.69 224.997 152.308C229.395 151.206 234.694 151.724 239.237 151.729L295.393 151.741C301.849 151.736 308.317 151.581 314.771 151.738Z"/>
	<path fill="#2B58A8" transform="scale(0.195312 0.195312)" d="M253.43 86.832C286.146 84.0572 293.398 132.74 258.95 137.472C224.6 139.442 220.011 92.5055 253.43 86.832ZM255.174 92.5934C227.418 95.3442 233.528 134.34 257.445 131.898C274.857 130.424 282.47 108.371 268.293 97.001C264.893 94.2742 259.611 91.962 255.174 92.5934Z"/>
	<path fill="#F27D83" transform="scale(0.195312 0.195312)" d="M255.174 92.5934C259.611 91.962 264.893 94.2742 268.293 97.001C282.47 108.371 274.857 130.424 257.445 131.898C233.528 134.34 227.418 95.3442 255.174 92.5934ZM255.174 100.013C251.54 101.128 252.799 105.625 252.874 108.65C250.912 108.674 247.166 108.111 245.736 109.645C240.572 115.184 249.969 115.531 252.874 115.459C252.619 119.924 251.645 124.021 257.445 123.732C260.458 122.054 259.222 118.357 258.95 115.459C261.525 115.481 264.174 115.638 266.74 115.459C269.713 108.435 264.634 108.415 258.95 108.65C259.264 104.892 260.613 99.6982 255.174 100.013Z"/>
</svg>
