<?xml version="1.0" encoding="utf-8" ?>
<svg xmlns="http://www.w3.org/2000/svg" xmlns:xlink="http://www.w3.org/1999/xlink" width="100" height="100">
	<defs>
		<linearGradient id="gradient_0" gradientUnits="userSpaceOnUse" x1="450.93472" y1="345.02521" x2="296.09671" y2="320.19211">
			<stop offset="0" stop-color="#FCBF41"/>
			<stop offset="1" stop-color="#FF6F61"/>
		</linearGradient>
	</defs>
	<path fill="url(#gradient_0)" transform="scale(0.195312 0.195312)" d="M356.422 239.736C378.636 239.469 394.669 238.212 412.422 255.093C433.984 275.597 431.772 294.874 431.731 321.888C431.7 342.571 431.333 336.677 442.737 355.236C447.634 363.206 451.525 368.864 443.04 377.447C436.072 384.495 427.418 382.957 418.424 383.023C416.84 385.801 415.862 388.889 414.666 391.847C407.168 410.378 396.533 416.854 377.058 421.592C369.263 423.658 361.242 426.099 353.514 422.653C333.227 413.607 324.166 403.771 316.542 383.997C308.808 383.518 300.972 386.57 293.972 381.66C281.8 373.125 291.052 354.575 297.6 345.501C305.1 335.108 303.082 338.295 303.072 324.854L303.053 306.918C303.019 270.837 318.881 245.527 356.422 239.736ZM356.422 383.997C356.37 384.561 356.2 384.945 356.541 385.419C363.373 385.557 373.509 385.944 380.178 385.4L380.145 384.704C378.238 383.048 372.938 383.945 370.578 383.96L356.422 383.997Z"/>
	<defs>
		<linearGradient id="gradient_1" gradientUnits="userSpaceOnUse" x1="364.30731" y1="70.134857" x2="59.777847" y2="375.35153">
			<stop offset="0" stop-color="#C53EEA"/>
			<stop offset="1" stop-color="#0B90FA"/>
		</linearGradient>
	</defs>
	<path fill="url(#gradient_1)" transform="scale(0.195312 0.195312)" d="M110.75 343.376C110.824 374.861 111.209 384.776 144.256 384.755L223.627 384.75C229.677 384.749 240.978 384.144 246.428 385.224C265.452 388.996 267.699 423.324 236.864 423.741C213.959 424.05 191.009 423.748 168.099 423.749L145.229 423.754C124.251 423.747 107.292 422.587 91.1389 406.711C77.1849 392.996 72.4371 377.961 72.2751 358.859L72.2615 172.693C72.2588 161.481 71.5264 149.827 73.8107 138.799C78.8254 114.59 98.2017 94.8918 122.306 89.4806C132.049 87.2935 143.588 88.2247 153.614 88.2258L198.222 88.2234L342.683 88.2172C372.17 88.2101 396.4 92.4261 412.601 121.667C421.418 137.581 420.371 153.023 420.353 170.468L420.372 205.091C420.303 224.054 400.57 232.885 388.72 220.47C382.719 214.183 383.729 206.841 383.731 198.79L383.758 169.745C383.765 162.801 384.515 154.433 382.81 147.754C376.751 124.01 351.963 127.948 333.372 127.95L146.606 127.947C116.985 127.973 110.694 132.388 110.753 162.881L110.75 304.241L247.049 304.227C252.303 304.225 258.014 303.76 263.2 304.544C285.349 307.888 285.908 339.986 263.461 343.171C258.594 343.862 253.226 343.382 248.296 343.381L110.75 343.376Z"/>
	<path fill="#775BED" transform="scale(0.195312 0.195312)" d="M173.846 93.1861C175.34 94.325 175.831 94.8366 176.099 96.7177C174.958 95.7934 173.847 94.7849 173.846 93.1861Z"/>
</svg>
