<?xml version="1.0" encoding="utf-8" ?>
<svg xmlns="http://www.w3.org/2000/svg" xmlns:xlink="http://www.w3.org/1999/xlink" width="100" height="100">
	<path fill="#A283DE" transform="scale(0.195312 0.195312)" d="M83.9791 209.353C92.7815 208.436 96.1705 219.43 87.4996 223.206C77.8881 224.374 75.4264 212.692 83.9791 209.353Z"/>
	<path fill="#F19D9F" transform="scale(0.195312 0.195312)" d="M146.922 129.288C157.498 128.422 159.511 139.271 150.894 142.824C142.095 145.094 138.43 132.461 146.922 129.288Z"/>
	<path fill="#A283DE" transform="scale(0.195312 0.195312)" d="M111.253 190.75C117.104 190.427 155.246 189.968 158.262 191.668C163.321 194.522 160.805 202.83 155.586 203.997C150.295 204.419 144.779 204.005 139.459 203.999L122.61 203.999C118.999 204.005 114.517 204.549 111.039 203.613C103.803 201.666 106.006 193.502 111.253 190.75Z"/>
	<path fill="#A283DE" transform="scale(0.195312 0.195312)" d="M148.971 215.248C166.852 214.403 161.343 227.102 156.054 228.271C152.06 229.153 147.11 228.603 143.007 228.6L118.938 228.583C100.427 228.936 106.555 216.445 111.643 215.444C115.298 214.726 119.81 215.226 123.56 215.227L148.971 215.248Z"/>
	<path fill="#F19D9F" transform="scale(0.195312 0.195312)" d="M144.935 103.854C156.334 103.056 167.449 107.335 175.017 116.036C177.493 118.883 177.617 123.257 174.401 125.635C167.607 130.659 161.935 118.589 150.894 116.775C142.571 116.486 138.677 118.451 132.321 123.602C127.118 127.819 120.259 129.184 118.938 121.07C120.684 110.395 135.795 105.159 144.935 103.854Z"/>
	<path fill="#F19D9F" transform="scale(0.195312 0.195312)" d="M146.922 78.0814C160.752 76.5021 191.874 87.6537 195.402 102.43C194.601 105.468 192.985 108.396 189.512 108.823C182.61 109.67 170.623 88.5479 148.971 91.5089C125.189 88.7746 118.442 106.293 106.231 109.494C99.747 107.4 98.0156 102.551 102.775 97.4944C113.942 85.6305 130.743 78.483 146.922 78.0814Z"/>
	<path fill="#D77BC7" transform="scale(0.195312 0.195312)" d="M401.506 112.767L401.787 112.569C400.485 109.693 392.562 104.648 390.037 102.216C390.038 99.9401 388.837 100.01 387.588 98.4247C387.046 95.247 391.673 98.19 390.786 92.8209L391.058 92.4981C395.535 91.3024 396.831 93.4822 400.056 95.6858C402.297 97.2171 405.018 98.0497 407.034 99.8964C409.781 102.413 413.252 108.072 416.428 109.494C428.011 123.896 434.052 146.783 432.1 164.77C431.384 171.363 425.103 201.975 415.096 201.096C402.331 199.975 412.846 185.051 414.47 180.616C421.19 162.262 420.284 140.089 409.479 123.415C407.056 119.676 404.102 116.371 401.506 112.767Z"/>
	<path fill="#F19D9F" transform="scale(0.195312 0.195312)" d="M401.506 112.767C400.638 112.352 395.168 106.972 393.718 105.82C365.456 83.3611 325.104 87.7832 301.728 115.407C297.961 119.858 293.882 130.149 287.721 129.237C272.813 127.03 294.277 102.581 297.929 99.0029C331.977 65.6448 388.521 71.5828 416.428 109.494C413.252 108.072 409.781 102.413 407.034 99.8964C405.018 98.0497 402.297 97.2171 400.056 95.6858C396.831 93.4822 395.535 91.3024 391.058 92.4981L390.786 92.8209C391.673 98.19 387.046 95.247 387.588 98.4247C388.837 100.01 390.038 99.9401 390.037 102.216C392.562 104.648 400.485 109.693 401.787 112.569L401.506 112.767Z"/>
	<path fill="#A283DE" transform="scale(0.195312 0.195312)" d="M176.167 174.57L201.953 177.058C206.13 177.443 215.969 177.179 219.205 179.727C221.212 181.307 232.201 192.051 232.905 193.831C235.778 201.093 228.098 204.987 220.963 201.271C220.949 207.498 221.017 213.693 221.266 219.916C221.512 226.082 224.253 237.893 217.025 240.815C211.194 242.11 200.333 229.487 196.516 224.993C194.263 228.188 184.219 238.742 180.961 239.917C169.884 243.913 172.717 221.923 172.727 217.068L172.738 190.492C172.695 185.628 169.883 176.356 176.167 174.57Z"/>
	<path fill="#C2A6E2" transform="scale(0.195312 0.195312)" d="M186.218 189.702C192.24 189.8 202.164 190.312 207.697 192.233C207.574 200.582 207.688 208.948 207.697 217.298L204.077 213.64C196.167 205.506 192.777 209.253 186.218 216.529L186.218 189.702Z"/>
	<path fill="#D77BC7" transform="scale(0.195312 0.195312)" d="M347.53 111.751C357.099 111.772 359.789 110.429 360.253 121.07L360.829 121.199C364.536 122.01 367.997 124.026 371.235 125.942C378.272 118.755 384.305 117.534 387.679 129.288L387.533 129.755C386.673 132.563 384.182 134.566 382.564 136.978C384.614 140.978 386.451 144.905 387.679 149.249C390.068 149.227 395.016 148.568 396.905 150.195C399.627 152.54 398.586 162.028 396.665 164.24C395.025 166.128 390.025 165.344 387.679 165.486C386.372 169.572 384.383 172.933 382.564 176.771C385.224 179.243 389.278 182.728 386.327 186.364C380.33 193.755 377.13 195.107 371.235 187.789C367.6 189.525 364.173 191.223 360.253 192.233C360.175 195.411 360.377 199.049 357.663 201.271C347.26 203.288 344.1 201.638 343.767 192.233C339.615 191.518 336.332 189.885 332.713 187.789C326.493 192.787 324.256 195.148 318.408 187.871C314.729 183.292 317.693 179.78 321.674 176.771C319.308 172.983 317.553 169.884 316.619 165.486C314.235 165.598 309.701 166.277 307.999 164.495C305.664 162.052 305.63 151.991 308.155 149.72C309.733 148.3 314.546 149.184 316.619 149.249C316.61 144.117 318.82 140.307 321.674 136.195C319.914 134.709 315.841 131.957 316.042 129.302C316.287 126.046 322.408 119.822 325.956 120.188C328.681 120.469 331.125 123.997 332.713 125.942C336.548 123.706 339.436 122.245 343.767 121.07C343.592 117.256 343.091 112.967 347.53 111.751ZM348.56 134.31C317.12 140.551 327.366 183.234 355.496 178.988C384.508 173.382 378.295 131.223 348.56 134.31Z"/>
	<path fill="#A283DE" transform="scale(0.195312 0.195312)" d="M290.962 251.258L354.994 251.24C377.374 251.229 378.566 257.535 378.472 278.239L378.505 292.326C378.535 304.757 377.584 313.977 362.85 314.988L296.16 314.988C273.123 314.944 274.937 306.474 274.999 285.337L274.923 267.616C274.938 257.914 281.169 251.14 290.962 251.258ZM350.39 264.459L288.384 264.459L288.384 301.25L302.875 301.25L364.902 301.25C364.909 289.023 365.275 276.672 364.902 264.459C360.103 264.118 355.205 264.503 350.39 264.459Z"/>
	<path fill="#A283DE" transform="scale(0.195312 0.195312)" d="M312.587 276.258L335.777 276.246C339.974 276.237 348.288 274.868 351.777 277.853C354.25 279.969 354.548 284.853 352.206 287.177C349.751 289.613 344.426 288.93 341.223 288.921L317.704 288.929C313.605 288.941 309.179 289.314 305.121 288.849C300.508 288.32 298.275 282.257 301.248 278.711C303.726 275.756 309.11 276.474 312.587 276.258Z"/>
	<defs>
		<linearGradient id="gradient_0" gradientUnits="userSpaceOnUse" x1="174.39789" y1="325.61841" x2="157.22697" y2="249.68375">
			<stop offset="0" stop-color="#88E7EF"/>
			<stop offset="1" stop-color="#D9F4F4"/>
		</linearGradient>
	</defs>
	<path fill="url(#gradient_0)" transform="scale(0.195312 0.195312)" d="M157.921 316.096L126.96 316.105C103.383 316.099 106.156 318.444 106.238 293.17C106.367 253.958 100.081 259.496 138.199 259.51L209.842 259.518C214.195 259.483 218.808 258.629 223.109 259.52C226.406 263.662 225.678 268.674 225.662 273.646L225.671 302.839C225.776 320.212 219.386 316.105 204.316 316.105L171.84 316.096L157.921 316.096Z"/>
	<path fill="#6B9DE6" transform="scale(0.195312 0.195312)" d="M157.921 316.096L157.911 292.503C157.913 287.867 157.47 282.66 158.403 278.119C159.95 270.595 170.633 271.947 171.679 278.91C172.268 282.835 171.87 287.282 171.867 291.256L171.84 316.096L157.921 316.096Z"/>
	<path fill="#A283DE" transform="scale(0.195312 0.195312)" d="M269.743 164.877L122.11 164.864C116.226 164.856 109.897 164.402 104.058 165.055C84.8591 167.203 97.2517 190.12 89.6005 196.08C85.6894 199.126 80.443 197.118 79.4301 192.437C75.7798 175.568 81.709 154.376 101.782 151.798C107.393 151.077 116.747 151.669 122.741 151.658L264.594 151.635C279.924 151.626 283.191 148.365 284.324 163.753C287.913 212.533 343.483 239.737 386.268 216.002C391.222 213.253 397.409 206.847 402.811 212.887C405.827 216.26 404.77 223.892 404.772 228.026L404.774 265.25C404.774 268.23 405.001 271.367 404.763 274.326C404.18 275.059 404.452 341.673 404.414 347.7C404.378 353.275 405.133 360.695 403.896 366.05C402.268 367.084 402.054 367.702 401.552 369.431C399.423 370.558 394.237 372.168 391.664 371.53C390.848 370.202 392.326 346.62 391.062 342.195C389.574 341.93 387.897 342.139 386.379 342.147L361.996 342.399C359.322 342.442 356.703 342.854 354.017 342.757C349.057 342.577 337.836 339.408 333.859 340.541L333.635 340.132L333.32 340.195C331.854 339.714 329.239 337.481 328.444 336.158C331.833 330.527 327.931 332.474 329.254 329.724C341.586 328.026 365.478 328.999 378.426 329.285C395.997 329.673 391.512 334.656 391.502 311.919L391.501 239.953C391.5 237.404 391.877 234.706 391.377 232.189L391.82 232.396L391.271 232.358C391.429 233.223 391.584 234.416 391.059 235.173L391.059 228.583C387.532 231.017 383.692 232.524 379.654 233.891C333.244 249.599 283.987 221.652 272.207 174.964C271.36 171.607 270.777 168.184 269.743 164.877Z"/>
	<defs>
		<linearGradient id="gradient_1" gradientUnits="userSpaceOnUse" x1="294.25891" y1="255.39767" x2="127.97498" y2="425.37311">
			<stop offset="0" stop-color="#8E76E6"/>
			<stop offset="1" stop-color="#3DBCE9"/>
		</linearGradient>
	</defs>
	<path fill="url(#gradient_1)" transform="scale(0.195312 0.195312)" d="M391.059 235.173C391.584 234.416 391.429 233.223 391.271 232.358L391.82 232.396L391.377 232.189C391.877 234.706 391.5 237.404 391.501 239.953L391.502 311.919C391.512 334.656 395.997 329.673 378.426 329.285C365.478 328.999 341.586 328.026 329.254 329.724C327.931 332.474 331.833 330.527 328.444 336.158C329.239 337.481 331.854 339.714 333.32 340.195L333.635 340.132L333.859 340.541C337.836 339.408 349.057 342.577 354.017 342.757C356.703 342.854 359.322 342.442 361.996 342.399L386.379 342.147C387.897 342.139 389.574 341.93 391.062 342.195C392.326 346.62 390.848 370.202 391.664 371.53C394.237 372.168 399.423 370.558 401.552 369.431C402.054 367.702 402.268 367.084 403.896 366.05C405.133 360.695 404.378 353.275 404.414 347.7C404.452 341.673 404.18 275.059 404.763 274.326C405.227 281.096 404.756 288.064 404.753 294.855L404.78 358.76C404.793 373.814 403.613 389.765 384.754 393.294C380.547 394.082 376.076 393.785 371.807 393.781L283.757 393.766C283.39 403.437 286.122 409.886 292.593 417.016C296.326 416.777 312.879 416.277 315.453 418.07C320.997 421.933 317.622 430.051 311.552 430.799C306.779 431.387 299.836 430.933 294.886 430.934L182.794 430.927C179.046 430.925 171.623 432.101 168.546 429.475C165.946 427.256 165.269 421.909 167.654 419.321C171.802 414.822 186.891 417.382 192.796 417.016C199.859 410.708 201.725 402.892 201.843 393.766L115.052 393.782C110.289 393.785 105.412 394.006 100.699 393.229C76.1741 389.183 79.1465 364.57 79.1508 346.634L79.1409 248.715C79.1111 245.315 78.1784 240.127 80.7019 237.378C84.4856 233.255 91.5112 235.525 92.2041 240.963C92.6026 244.09 92.3514 247.497 92.3483 250.657L92.3317 329.268C106.473 329.617 120.713 329.271 134.862 329.271L333.981 329.267C352.997 329.267 372.046 329.516 391.059 329.268L391.059 235.173ZM387.679 342.733L92.3317 342.733L92.3058 357.481C92.2712 365.363 91.2636 372.411 98.2667 377.799C105.338 381.695 118.831 380.046 126.942 380.045L354.719 380.039C360.877 380.039 378.788 380.716 383.531 379.439C392.349 377.064 391.081 366.754 391.079 359.708L391.059 342.733L387.679 342.733ZM215.983 393.766C215.991 403.57 214.994 408.39 210.281 417.016L269.743 417.016L274.986 417.016C270.752 408.054 269.667 403.782 269.743 393.766L215.983 393.766Z"/>
	<path fill="#6B9DE6" transform="scale(0.195312 0.195312)" d="M231.869 355.234C236.155 355.151 251.547 354.641 254.644 355.98C261.969 359.148 259.534 367.486 253.077 369.848C248.651 369.914 233.691 370.48 230.468 369.075C223.231 365.919 225.318 357.606 231.869 355.234Z"/>
</svg>
