<?xml version="1.0" encoding="utf-8" ?>
<svg xmlns="http://www.w3.org/2000/svg" xmlns:xlink="http://www.w3.org/1999/xlink" width="100" height="100">
	<path fill="#50B6D7" transform="scale(0.195312 0.195312)" d="M257.638 132.62C269.732 115.223 284.034 100.555 305.822 96.629C324.289 93.3014 346.556 98.8 359.686 112.879C351.662 121.581 340.67 132.723 331.83 140.141C318.863 132.848 302.968 131.453 290.854 140.933C300.358 144.988 311.287 149.593 319.88 155.3C329.418 158.445 339.242 167.543 347.257 173.832C347.393 166.79 347.55 159.545 344.301 153.076C352.003 144.506 362.47 134.678 371.025 126.629C379.924 142.988 381.558 162.518 376.385 180.368C374.957 185.297 372.286 189.882 371.025 194.79C374.323 198.05 378.504 201.3 381.237 205.017C385.393 208.408 392.064 217.789 393.705 222.671C398.042 235.568 385.763 247.852 378.008 256.636C298.716 346.446 167.879 349.85 87.2038 262.433C80.2831 254.934 67.439 239.954 64.6256 230.983C62.1616 223.127 68.9673 216.434 73.2635 210.63C95.5287 180.552 134.744 153.145 170.741 141.685C207.865 129.446 220.244 128.878 257.638 132.62ZM226.57 150.588Q224.647 150.686 222.731 150.878Q220.815 151.071 218.911 151.357Q217.006 151.642 215.118 152.021Q213.23 152.4 211.363 152.871Q209.496 153.342 207.654 153.903Q205.812 154.465 204 155.116Q202.188 155.767 200.41 156.507Q198.632 157.246 196.892 158.071Q195.152 158.896 193.455 159.806Q191.758 160.716 190.107 161.707Q188.457 162.699 186.857 163.77Q185.257 164.841 183.711 165.99Q182.165 167.138 180.677 168.361Q179.19 169.584 177.764 170.878Q176.338 172.172 174.977 173.534Q173.616 174.896 172.324 176.324Q171.031 177.751 169.81 179.24Q168.589 180.729 167.443 182.276Q166.296 183.823 165.226 185.424Q164.157 187.026 163.167 188.677Q162.177 190.329 161.27 192.027Q160.362 193.726 159.538 195.466Q158.715 197.207 157.978 198.986Q157.24 200.765 156.591 202.577Q155.942 204.39 155.382 206.233Q154.823 208.075 154.354 209.943Q153.885 211.811 153.509 213.699Q153.132 215.587 152.848 217.492Q152.564 219.397 152.374 221.313Q152.184 223.229 152.088 225.152Q151.992 227.075 151.99 229.001Q151.988 230.927 152.081 232.85Q152.174 234.773 152.36 236.69Q152.547 238.606 152.827 240.511Q153.107 242.417 153.481 244.306Q153.854 246.195 154.319 248.063Q154.784 249.932 155.341 251.775Q155.897 253.619 156.543 255.433Q157.189 257.247 157.923 259.027Q158.657 260.807 159.477 262.549Q160.297 264.292 161.202 265.991Q162.106 267.691 163.093 269.345Q164.08 270.998 165.146 272.602Q166.213 274.205 167.357 275.754Q168.501 277.303 169.719 278.794Q170.937 280.285 172.227 281.715Q173.517 283.145 174.875 284.51Q176.234 285.874 177.657 287.171Q179.081 288.468 180.566 289.693Q182.051 290.919 183.595 292.07Q185.138 293.221 186.737 294.295Q188.335 295.369 189.984 296.364Q191.632 297.359 193.328 298.271Q195.023 299.184 196.762 300.013Q198.5 300.841 200.277 301.584Q202.053 302.326 203.864 302.981Q205.675 303.635 207.516 304.2Q209.357 304.765 211.223 305.239Q213.089 305.714 214.977 306.096Q216.864 306.478 218.768 306.768Q220.671 307.057 222.587 307.253Q224.502 307.448 226.425 307.55Q228.348 307.652 230.274 307.659Q232.199 307.667 234.123 307.58Q236.054 307.493 237.978 307.311Q239.902 307.129 241.815 306.852Q243.728 306.576 245.625 306.206Q247.522 305.836 249.399 305.373Q251.276 304.91 253.127 304.355Q254.979 303.801 256.801 303.156Q258.623 302.511 260.411 301.777Q262.199 301.043 263.949 300.223Q265.699 299.402 267.406 298.496Q269.114 297.59 270.775 296.602Q272.436 295.613 274.046 294.544Q275.656 293.475 277.212 292.328Q278.768 291.181 280.265 289.959Q281.763 288.737 283.198 287.443Q284.634 286.149 286.004 284.785Q287.374 283.422 288.676 281.993Q289.977 280.564 291.207 279.073Q292.437 277.582 293.592 276.032Q294.747 274.482 295.824 272.878Q296.901 271.273 297.899 269.617Q298.896 267.962 299.81 266.259Q300.725 264.556 301.555 262.81Q302.384 261.065 303.127 259.28Q303.87 257.496 304.525 255.677Q305.179 253.859 305.743 252.01Q306.307 250.161 306.78 248.287Q307.252 246.413 307.632 244.518Q308.012 242.623 308.298 240.711Q308.585 238.8 308.776 236.876Q308.968 234.953 309.066 233.023Q309.163 231.092 309.165 229.159Q309.167 227.227 309.074 225.296Q308.981 223.365 308.793 221.442Q308.606 219.518 308.324 217.606Q308.042 215.694 307.666 213.798Q307.29 211.902 306.822 210.027Q306.354 208.151 305.793 206.302Q305.233 204.452 304.583 202.632Q303.933 200.811 303.194 199.025Q302.455 197.24 301.629 195.492Q300.803 193.745 299.892 192.04Q298.981 190.335 297.988 188.677Q296.994 187.019 295.921 185.412Q294.847 183.805 293.695 182.253Q292.544 180.7 291.317 179.206Q290.091 177.713 288.792 176.281Q287.494 174.849 286.127 173.483Q284.76 172.117 283.327 170.819Q281.894 169.522 280.399 168.297Q278.905 167.071 277.351 165.921Q275.798 164.771 274.19 163.698Q272.582 162.625 270.924 161.633Q269.265 160.641 267.56 159.731Q265.854 158.822 264.106 157.997Q262.358 157.172 260.572 156.435Q258.785 155.697 256.964 155.048Q255.144 154.399 253.294 153.84Q251.443 153.282 249.568 152.815Q247.692 152.348 245.796 151.973Q243.9 151.599 241.987 151.318Q240.075 151.038 238.151 150.852Q236.227 150.665 234.297 150.574Q232.366 150.482 230.433 150.486Q228.5 150.489 226.57 150.588ZM84.0952 228.952C87.3177 232.292 89.5743 236.666 92.5423 240.267C101.401 251.013 112.113 261.486 123.372 269.691C130.438 275.184 145.234 285.031 153.737 288.559C130.229 257.314 126.366 211.882 146.861 178.203C147.822 176.624 149.96 174.13 150.177 172.381L149.808 172.196C126.555 183.225 96.9168 206.445 84.0952 228.952ZM307.953 287.744C318.418 281.817 328.28 275.252 337.835 267.973C355.331 254.367 361.737 243.202 375.605 228.952C365.198 215.741 325.95 176.185 308.977 171.369C333.842 204.727 333.666 254.922 307.953 287.744Z"/>
	<defs>
		<linearGradient id="gradient_0" gradientUnits="userSpaceOnUse" x1="320.92197" y1="94.404358" x2="308.49545" y2="135.04802">
			<stop offset="0" stop-color="#8E74EC"/>
			<stop offset="1" stop-color="#7196EC"/>
		</linearGradient>
	</defs>
	<path fill="url(#gradient_0)" transform="scale(0.195312 0.195312)" d="M257.638 132.62C269.732 115.223 284.034 100.555 305.822 96.629C324.289 93.3014 346.556 98.8 359.686 112.879C351.662 121.581 340.67 132.723 331.83 140.141C318.863 132.848 302.968 131.453 290.854 140.933C300.358 144.988 311.287 149.593 319.88 155.3L319.88 155.3C313.973 153.061 305.269 148.021 299.267 145.133C296.78 143.936 293.649 143.18 291.376 141.693C287.297 139.025 303.163 134.361 306.013 134.286L306.232 134.282L306.26 134.104C301 132.389 300.115 130.107 296.754 128.78C290.521 126.318 271.116 122.837 270.851 117.293C268.235 117.638 259.093 132.725 257.486 133.077C256.116 133.377 230.742 130.898 227.103 130.78C209.39 130.206 190.336 136.076 173.636 141.37C172.607 141.696 171.719 142.195 170.741 141.685C207.865 129.446 220.244 128.878 257.638 132.62Z"/>
	<defs>
		<linearGradient id="gradient_1" gradientUnits="userSpaceOnUse" x1="362.98648" y1="156.75957" x2="373.14594" y2="128.35701">
			<stop offset="0" stop-color="#7196EC"/>
			<stop offset="1" stop-color="#8778F0"/>
		</linearGradient>
	</defs>
	<path fill="url(#gradient_1)" transform="scale(0.195312 0.195312)" d="M344.301 153.076C352.003 144.506 362.47 134.678 371.025 126.629C379.924 142.988 381.558 162.518 376.385 180.368C374.957 185.297 372.286 189.882 371.025 194.79C374.323 198.05 378.504 201.3 381.237 205.017L380.51 204.872C378.486 203.032 376.74 200.979 374.778 199.093C368.086 192.658 369.608 195.93 373.562 186.913C375.602 182.259 380.475 164.556 378.622 159.808C377.823 159.772 377.253 160.455 376.528 160.759C375.951 161.001 345.868 153.372 349.773 148.425L349.683 148.375C348.129 149.367 345.8 151.78 345.126 153.528C347.314 157.787 349.339 170.834 347.24 174.382C345.918 174.139 339.549 167.9 338.025 166.824C332.177 162.695 325.916 159.137 319.88 155.3L319.88 155.3C329.418 158.445 339.242 167.543 347.257 173.832C347.393 166.79 347.55 159.545 344.301 153.076Z"/>
	<path fill="#50B6D7" transform="scale(0.195312 0.195312)" d="M229.735 184.134Q230.826 184.124 231.917 184.168Q233.007 184.211 234.094 184.308Q235.181 184.406 236.262 184.556Q237.343 184.707 238.415 184.911Q239.487 185.114 240.548 185.37Q241.608 185.627 242.655 185.935Q243.702 186.243 244.733 186.602Q245.763 186.961 246.775 187.371Q247.786 187.78 248.776 188.239Q249.766 188.698 250.733 189.205Q251.699 189.712 252.639 190.266Q253.58 190.819 254.491 191.419Q255.403 192.019 256.285 192.662Q257.166 193.306 258.014 193.992Q258.863 194.678 259.676 195.406Q260.49 196.133 261.267 196.899Q262.044 197.666 262.782 198.469Q263.52 199.273 264.218 200.112Q264.916 200.951 265.571 201.823Q266.227 202.696 266.839 203.599Q267.451 204.503 268.018 205.435Q268.584 206.368 269.104 207.327Q269.625 208.287 270.097 209.271Q270.569 210.254 270.992 211.26Q271.416 212.266 271.789 213.292Q272.162 214.317 272.484 215.36Q272.807 216.402 273.077 217.459Q273.348 218.517 273.566 219.586Q273.784 220.655 273.95 221.734Q274.115 222.812 274.227 223.898Q274.339 224.983 274.398 226.073Q274.456 227.163 274.461 228.254Q274.466 229.345 274.417 230.435Q274.368 231.526 274.265 232.612Q274.163 233.698 274.007 234.778Q273.851 235.859 273.642 236.93Q273.433 238.001 273.172 239.06Q272.911 240.12 272.598 241.165Q272.284 242.21 271.92 243.239Q271.556 244.268 271.142 245.277Q270.727 246.287 270.264 247.275Q269.8 248.263 269.288 249.227Q268.777 250.19 268.218 251.128Q267.66 252.065 267.056 252.974Q266.452 253.883 265.804 254.761Q265.156 255.639 264.466 256.485Q263.775 257.33 263.044 258.14Q262.313 258.95 261.543 259.723Q260.773 260.496 259.966 261.231Q259.158 261.965 258.316 262.659Q257.474 263.352 256.598 264.004Q255.723 264.655 254.816 265.263Q253.909 265.87 252.974 266.432Q252.039 266.994 251.077 267.51Q250.115 268.025 249.129 268.493Q248.143 268.96 247.135 269.379Q246.127 269.797 245.1 270.165Q244.073 270.534 243.029 270.851Q241.985 271.168 240.926 271.434Q239.868 271.699 238.797 271.912Q237.727 272.125 236.648 272.285Q235.568 272.445 234.482 272.552Q233.396 272.659 232.306 272.712Q231.216 272.765 230.125 272.765Q229.04 272.764 227.957 272.711Q226.874 272.657 225.795 272.551Q224.715 272.444 223.643 272.285Q222.57 272.126 221.506 271.915Q220.442 271.703 219.39 271.44Q218.338 271.177 217.3 270.863Q216.262 270.548 215.241 270.183Q214.219 269.819 213.217 269.404Q212.215 268.99 211.234 268.527Q210.253 268.064 209.296 267.554Q208.339 267.044 207.408 266.487Q206.477 265.931 205.574 265.33Q204.672 264.728 203.8 264.084Q202.928 263.439 202.088 262.752Q201.249 262.066 200.444 261.339Q199.639 260.612 198.87 259.847Q198.102 259.081 197.372 258.279Q196.642 257.477 195.952 256.64Q195.262 255.803 194.614 254.934Q193.966 254.064 193.361 253.164Q192.756 252.264 192.196 251.335Q191.636 250.406 191.122 249.451Q190.608 248.496 190.141 247.517Q189.674 246.538 189.256 245.538Q188.838 244.537 188.469 243.517Q188.1 242.497 187.782 241.46Q187.463 240.424 187.196 239.373Q186.929 238.321 186.713 237.259Q186.498 236.196 186.334 235.123Q186.171 234.051 186.06 232.972Q185.949 231.894 185.892 230.811Q185.834 229.728 185.829 228.643Q185.824 227.558 185.873 226.475Q185.921 225.392 186.022 224.312Q186.123 223.232 186.277 222.158Q186.431 221.085 186.637 220.02Q186.844 218.955 187.102 217.902Q187.36 216.849 187.669 215.809Q187.979 214.77 188.338 213.747Q188.698 212.723 189.108 211.719Q189.517 210.715 189.975 209.732Q190.433 208.749 190.939 207.789Q191.444 206.83 191.996 205.896Q192.548 204.963 193.145 204.057Q193.742 203.152 194.383 202.276Q195.023 201.401 195.706 200.558Q196.388 199.716 197.111 198.907Q197.834 198.099 198.596 197.327Q199.357 196.554 200.156 195.821Q200.954 195.087 201.788 194.393Q202.621 193.699 203.488 193.046Q204.354 192.394 205.251 191.785Q206.148 191.176 207.074 190.611Q208 190.046 208.953 189.528Q209.905 189.009 210.882 188.538Q211.859 188.066 212.857 187.643Q213.856 187.22 214.874 186.846Q215.892 186.473 216.927 186.149Q217.963 185.826 219.012 185.553Q220.062 185.281 221.124 185.06Q222.186 184.839 223.257 184.671Q224.328 184.502 225.407 184.386Q226.485 184.27 227.568 184.207Q228.651 184.144 229.735 184.134ZM246.395 236.027Q246.92 235.987 247.442 235.921Q247.963 235.855 248.482 235.764Q249 235.673 249.513 235.556Q250.026 235.44 250.532 235.298Q251.039 235.156 251.538 234.99Q252.037 234.824 252.527 234.633Q253.018 234.443 253.498 234.228Q253.979 234.014 254.448 233.776Q254.917 233.538 255.374 233.278Q255.831 233.017 256.275 232.735Q256.719 232.452 257.148 232.148Q257.577 231.844 257.991 231.519Q258.405 231.194 258.802 230.85Q259.2 230.505 259.58 230.141Q259.96 229.778 260.322 229.396Q260.684 229.014 261.026 228.614Q261.369 228.215 261.691 227.8Q262.014 227.384 262.316 226.953Q262.617 226.522 262.898 226.077Q263.178 225.632 263.436 225.173Q263.694 224.715 263.929 224.244Q264.165 223.774 264.377 223.292Q264.589 222.811 264.777 222.32Q264.965 221.828 265.128 221.328Q265.292 220.828 265.431 220.321Q265.57 219.814 265.684 219.3Q265.798 218.786 265.886 218.268Q265.975 217.749 266.038 217.227Q266.101 216.705 266.138 216.18Q266.176 215.655 266.187 215.129Q266.199 214.603 266.184 214.077Q266.17 213.552 266.13 213.027Q266.09 212.502 266.024 211.981Q265.958 211.459 265.867 210.941Q265.776 210.422 265.659 209.909Q265.542 209.396 265.401 208.89Q265.259 208.383 265.093 207.884Q264.927 207.385 264.736 206.895Q264.545 206.404 264.331 205.924Q264.116 205.444 263.879 204.975Q263.641 204.505 263.38 204.048Q263.12 203.591 262.837 203.147Q262.555 202.704 262.251 202.274Q261.947 201.845 261.622 201.431Q261.297 201.017 260.952 200.62Q260.608 200.223 260.244 199.843Q259.88 199.463 259.498 199.101Q259.116 198.739 258.717 198.397Q258.318 198.054 257.902 197.731Q257.487 197.409 257.056 197.107Q256.625 196.805 256.18 196.525Q255.734 196.245 255.276 195.987Q254.818 195.729 254.347 195.493Q253.877 195.258 253.395 195.046Q252.914 194.834 252.422 194.646Q251.931 194.458 251.431 194.295Q250.931 194.131 250.424 193.992Q249.916 193.853 249.403 193.739Q248.889 193.625 248.371 193.537Q247.852 193.448 247.33 193.385Q246.808 193.322 246.283 193.285Q245.758 193.247 245.232 193.236Q244.706 193.224 244.18 193.239Q243.655 193.253 243.13 193.293Q242.605 193.333 242.084 193.399Q241.562 193.465 241.044 193.556Q240.525 193.647 240.012 193.764Q239.499 193.88 238.993 194.022Q238.486 194.164 237.987 194.33Q237.488 194.496 236.998 194.687Q236.507 194.878 236.027 195.092Q235.547 195.307 235.077 195.544Q234.608 195.782 234.151 196.043Q233.694 196.303 233.25 196.586Q232.807 196.868 232.377 197.172Q231.948 197.476 231.534 197.801Q231.12 198.126 230.723 198.471Q230.326 198.815 229.946 199.179Q229.566 199.543 229.204 199.925Q228.842 200.307 228.5 200.706Q228.157 201.105 227.834 201.521Q227.512 201.936 227.21 202.367Q226.908 202.798 226.628 203.243Q226.348 203.688 226.09 204.147Q225.832 204.605 225.596 205.076Q225.361 205.546 225.149 206.028Q224.937 206.509 224.749 207.001Q224.561 207.492 224.398 207.992Q224.234 208.492 224.095 208.999Q223.956 209.507 223.842 210.02Q223.728 210.534 223.64 211.052Q223.551 211.571 223.488 212.093Q223.425 212.615 223.388 213.14Q223.35 213.665 223.339 214.191Q223.327 214.717 223.342 215.243Q223.356 215.768 223.396 216.293Q223.436 216.818 223.502 217.339Q223.568 217.861 223.659 218.379Q223.75 218.897 223.867 219.41Q223.983 219.923 224.125 220.43Q224.267 220.937 224.433 221.436Q224.599 221.935 224.79 222.425Q224.981 222.915 225.195 223.396Q225.41 223.876 225.647 224.345Q225.885 224.815 226.146 225.272Q226.406 225.729 226.689 226.172Q226.971 226.616 227.275 227.045Q227.579 227.475 227.904 227.888Q228.229 228.302 228.573 228.7Q228.918 229.097 229.282 229.477Q229.646 229.857 230.027 230.219Q230.409 230.581 230.809 230.923Q231.208 231.266 231.623 231.588Q232.039 231.911 232.47 232.213Q232.901 232.514 233.346 232.795Q233.791 233.075 234.249 233.333Q234.708 233.591 235.178 233.826Q235.649 234.062 236.13 234.273Q236.612 234.485 237.103 234.673Q237.594 234.861 238.094 235.025Q238.594 235.189 239.102 235.328Q239.609 235.467 240.122 235.581Q240.636 235.695 241.155 235.783Q241.673 235.872 242.195 235.935Q242.718 235.998 243.242 236.035Q243.767 236.073 244.293 236.084Q244.819 236.096 245.345 236.081Q245.87 236.067 246.395 236.027ZM226.879 249.168Q227.064 249.136 227.247 249.096Q227.431 249.055 227.612 249.006Q227.793 248.957 227.971 248.899Q228.15 248.841 228.325 248.774Q228.501 248.707 228.673 248.632Q228.845 248.557 229.013 248.474Q229.181 248.391 229.345 248.299Q229.509 248.208 229.669 248.109Q229.828 248.009 229.983 247.903Q230.137 247.796 230.286 247.682Q230.435 247.568 230.578 247.446Q230.722 247.325 230.859 247.197Q230.996 247.069 231.127 246.935Q231.258 246.8 231.382 246.659Q231.507 246.519 231.624 246.372Q231.741 246.225 231.851 246.073Q231.961 245.921 232.064 245.764Q232.166 245.607 232.261 245.445Q232.356 245.283 232.443 245.116Q232.53 244.95 232.608 244.78Q232.687 244.609 232.757 244.435Q232.828 244.261 232.889 244.084Q232.951 243.907 233.004 243.727Q233.058 243.546 233.102 243.364Q233.146 243.182 233.182 242.997Q233.217 242.813 233.244 242.627Q233.27 242.441 233.288 242.254Q233.305 242.068 233.314 241.88Q233.322 241.693 233.322 241.505Q233.321 241.317 233.311 241.13Q233.301 240.942 233.283 240.755Q233.264 240.569 233.236 240.383Q233.208 240.197 233.171 240.013Q233.135 239.829 233.089 239.647Q233.043 239.465 232.989 239.285Q232.934 239.106 232.871 238.929Q232.808 238.752 232.737 238.579Q232.665 238.405 232.585 238.235Q232.505 238.066 232.417 237.9Q232.329 237.734 232.233 237.573Q232.137 237.411 232.034 237.255Q231.93 237.098 231.819 236.947Q231.708 236.796 231.59 236.65Q231.471 236.504 231.346 236.364Q231.221 236.225 231.089 236.091Q230.957 235.957 230.819 235.83Q230.681 235.703 230.537 235.583Q230.393 235.463 230.243 235.35Q230.093 235.237 229.938 235.131Q229.783 235.025 229.623 234.927Q229.463 234.829 229.298 234.739Q229.133 234.649 228.965 234.567Q228.796 234.484 228.623 234.411Q228.451 234.337 228.275 234.271Q228.099 234.206 227.92 234.149Q227.741 234.092 227.56 234.044Q227.378 233.996 227.195 233.957Q227.011 233.918 226.826 233.887Q226.64 233.857 226.454 233.836Q226.268 233.815 226.08 233.802Q225.893 233.79 225.705 233.787Q225.518 233.784 225.33 233.79Q225.142 233.796 224.955 233.811Q224.768 233.826 224.582 233.85Q224.327 233.883 224.075 233.933Q223.823 233.982 223.575 234.049Q223.327 234.115 223.084 234.198Q222.841 234.28 222.603 234.379Q222.366 234.477 222.136 234.591Q221.906 234.705 221.684 234.834Q221.462 234.963 221.249 235.107Q221.036 235.25 220.833 235.408Q220.629 235.565 220.437 235.735Q220.245 235.906 220.064 236.088Q219.884 236.271 219.716 236.465Q219.548 236.66 219.393 236.865Q219.238 237.07 219.098 237.284Q218.957 237.499 218.83 237.723Q218.704 237.947 218.593 238.178Q218.482 238.41 218.386 238.648Q218.29 238.886 218.211 239.131Q218.131 239.375 218.068 239.624Q218.004 239.873 217.958 240.125Q217.911 240.378 217.881 240.633Q217.852 240.888 217.839 241.145Q217.826 241.401 217.83 241.658Q217.834 241.915 217.855 242.171Q217.877 242.427 217.915 242.681Q217.953 242.935 218.008 243.186Q218.062 243.437 218.134 243.683Q218.205 243.93 218.293 244.172Q218.38 244.413 218.483 244.648Q218.587 244.883 218.705 245.111Q218.824 245.339 218.958 245.558Q219.091 245.778 219.239 245.988Q219.387 246.198 219.548 246.398Q219.709 246.598 219.884 246.787Q220.058 246.975 220.244 247.152Q220.431 247.329 220.628 247.493Q220.826 247.657 221.034 247.808Q221.242 247.958 221.46 248.095Q221.677 248.231 221.903 248.353Q222.13 248.475 222.363 248.581Q222.597 248.688 222.837 248.779Q223.078 248.869 223.323 248.944Q223.569 249.019 223.819 249.077Q224.07 249.135 224.323 249.177Q224.577 249.218 224.832 249.243Q225.088 249.267 225.345 249.275Q225.601 249.283 225.858 249.273Q226.115 249.264 226.37 249.238Q226.626 249.211 226.879 249.168Z"/>
	<path fill="#45D3D7" transform="scale(0.195312 0.195312)" d="M228.406 334.796C244.482 333.349 237.998 360.647 239.741 370.15C241.674 380.694 254.87 377.947 262.62 377.949L290.935 377.949C295.718 377.946 300.559 377.719 305.332 377.953C310.257 360.943 325.736 347.227 343.442 345.005C348.002 344.433 352.565 344.567 357.148 344.588L372.273 344.607C385.216 344.615 402.783 342.719 415.176 346.966C441.09 355.849 454.29 383.864 445.26 409.499C433.513 439.922 409.761 437.431 383.783 437.439L361.659 437.446C354.35 437.447 346.88 437.696 339.679 436.23C320.782 432.384 306.661 415.806 303.838 397.008L266.278 397.01C247.919 397.013 224.955 398.602 219.941 374.23C218.766 368.517 219.368 362.005 219.323 356.173C219.256 347.38 217.003 336.994 228.406 334.796Z"/>
	<defs>
		<linearGradient id="gradient_2" gradientUnits="userSpaceOnUse" x1="247.3278" y1="76.201012" x2="245.73088" y2="121.9389">
			<stop offset="0" stop-color="#906EE9"/>
			<stop offset="1" stop-color="#7188ED"/>
		</linearGradient>
	</defs>
	<path fill="url(#gradient_2)" transform="scale(0.195312 0.195312)" d="M224.624 75.293C235.241 74.4207 237.377 81.2908 237.244 90.3762C243.747 90.2444 263.151 89.5259 268.762 90.614C276.72 92.1571 279.666 101.814 273.936 107.425C270.209 111.075 263.741 110.486 258.929 110.496L237.244 110.496C237.502 122.548 221.745 126.496 217.549 115.122C216.257 111.62 216.469 89.6631 216.84 84.9824C217.256 79.7419 219.417 76.9509 224.624 75.293Z"/>
</svg>
