<?xml version="1.0" encoding="utf-8" ?>
<svg xmlns="http://www.w3.org/2000/svg" xmlns:xlink="http://www.w3.org/1999/xlink" width="100" height="100">
	<path fill="#F06E4A" transform="scale(0.195312 0.195312)" d="M133.188 206.974L133.169 194.298C133.119 177.637 137.014 167.729 155.593 167.732C179.077 167.735 196.825 163.243 196.769 194.481L196.743 207.732C194.617 207.931 192.778 209.216 191.246 210.617C190.503 205.859 192.589 193.15 185.304 192.572C179.247 192.092 169.663 211.802 151.095 198.504C148.765 196.836 146.602 192.828 143.627 192.776C136.14 192.646 137.59 203.895 137.643 208.614C136.066 207.505 135.121 207.088 133.188 206.974Z"/>
	<path fill="#FEDB43" transform="scale(0.195312 0.195312)" d="M137.643 208.614C137.59 203.895 136.14 192.646 143.627 192.776C146.602 192.828 148.765 196.836 151.095 198.504C169.663 211.802 179.247 192.092 185.304 192.572C192.589 193.15 190.503 205.859 191.246 210.617C192.778 209.216 194.617 207.931 196.743 207.732C208.965 213.669 207.282 228.349 191.246 229.876C189.654 234.17 185.307 241.654 180.92 243.799C169.385 249.374 164.339 251.269 151.26 244.874C143.246 239.655 142.635 236.749 137.643 229.876C122.01 228.576 120.275 211.921 133.188 206.974C135.121 207.088 136.066 207.505 137.643 208.614Z"/>
	<path fill="#4CCCCF" transform="scale(0.195312 0.195312)" d="M292.96 238.252C300.918 238.148 311.206 237.785 312.734 247.711C313.183 250.631 313.441 269.426 312.681 272.024C311.486 276.107 308.256 278.142 304.731 280.002C304.679 292.369 304.465 303.441 315.339 312.107C325.931 320.548 341.93 320.558 352.064 311.43C368.533 296.595 357.507 276.729 362.993 270.167C365.749 266.871 370.919 267.388 373.777 270.233C376.982 273.423 375.963 280.606 375.926 284.898C375.913 299.423 375.011 308.867 364.496 320.126C348.689 337.052 320.624 337.902 303.863 321.892C289.319 308 290.506 297.471 290.14 280.002C286.386 278.022 283.454 275.561 282.543 271.162C282.005 268.571 281.933 250.353 282.357 247.612C283.247 241.859 287.493 239.243 292.96 238.252Z"/>
	<path fill="#2E5589" transform="scale(0.195312 0.195312)" d="M200.743 397.746L278.854 397.746C274.117 398.611 280.777 408.19 282.337 410.144C286.727 415.644 290.449 416.405 295.782 419.892C323.752 415.73 321.709 433.969 310.982 434.755C304.449 435.233 296.325 434.766 289.609 434.774L194.312 434.779C188.634 434.786 168.813 436.538 164.906 432.955C160.108 428.554 161.694 421.584 167.914 420.143C171.778 419.248 180.658 419.887 185.08 419.892C193.122 414.703 198.921 410.578 201.944 401.014C202.671 398.716 203.626 398.157 200.743 397.746Z"/>
	<path fill="#A9BEDC" transform="scale(0.195312 0.195312)" d="M200.743 397.746L278.854 397.746C274.117 398.611 280.777 408.19 282.337 410.144C286.727 415.644 290.449 416.405 295.782 419.892C292.471 420.358 286.994 419.909 283.381 419.895L207.669 419.887C200.195 419.883 192.524 420.335 185.08 419.892C193.122 414.703 198.921 410.578 201.944 401.014C202.671 398.716 203.626 398.157 200.743 397.746Z"/>
	<path fill="#46B0FD" transform="scale(0.195312 0.195312)" d="M151.26 244.874C164.339 251.269 169.385 249.374 180.92 243.799C180.863 246.443 180.893 249.084 180.92 251.728C180.849 253.362 180.43 255.968 180.92 257.476C189.155 257.672 194.702 261.833 198.919 268.442C226.196 271.791 233.298 292.664 233.217 316.853C233.151 336.237 231.93 331.939 212.375 331.937L102.251 331.93L102.239 311C102.24 288.869 107.123 269.608 133.188 268.442C136.868 261.615 143.52 257.998 151.26 257.476C151.468 256.166 151.285 254.577 151.26 253.238C151.075 250.521 150.665 247.562 151.26 244.874ZM129.259 302.901C120.411 308.292 119.909 321.704 129.812 326.072C145.258 332.885 157.122 309.422 138.747 302.137C135.554 301.417 132.305 301.675 129.259 302.901ZM194.966 311.305C187.42 312.681 188.155 321.13 194.966 321.401C200.252 319.868 201.116 312.06 194.966 311.305Z"/>
	<path fill="#2E5589" transform="scale(0.195312 0.195312)" d="M133.188 268.442C136.868 261.615 143.52 257.998 151.26 257.476C151.248 260.379 150.914 263.601 151.26 266.454C134.527 268.313 138.591 289.973 138.747 302.137C135.554 301.417 132.305 301.675 129.259 302.901C128.796 300.739 129.223 298.351 129.227 296.154C129.248 286.414 127.626 276.963 133.188 268.442Z"/>
	<path fill="#FEDB43" transform="scale(0.195312 0.195312)" d="M151.26 244.874C164.339 251.269 169.385 249.374 180.92 243.799C180.863 246.443 180.893 249.084 180.92 251.728C180.849 253.362 180.43 255.968 180.92 257.476C181.178 260.075 181.113 262.741 180.92 265.344C173.352 277.893 161.032 274.335 151.26 266.454C150.914 263.601 151.248 260.379 151.26 257.476C151.468 256.166 151.285 254.577 151.26 253.238C151.075 250.521 150.665 247.562 151.26 244.874Z"/>
	<path fill="#FBBD27" transform="scale(0.195312 0.195312)" d="M151.26 244.874C164.339 251.269 169.385 249.374 180.92 243.799C180.863 246.443 180.893 249.084 180.92 251.728C178.766 252.48 177.09 253.979 175.088 255.01C163.405 261.035 154.853 252.419 151.26 253.238C151.075 250.521 150.665 247.562 151.26 244.874Z"/>
	<path fill="#2E5589" transform="scale(0.195312 0.195312)" d="M180.92 257.476C189.155 257.672 194.702 261.833 198.919 268.442C200.618 272.34 200.83 275.811 200.743 280.002C214.184 283.756 212.511 297.918 212.487 309.125C209.804 309.161 207.124 309.146 204.441 309.125C204.47 303.654 205.606 294.617 201.768 290.382C198.308 286.564 191.937 286.544 188.394 290.27C184.678 294.179 185.869 304.017 185.895 309.125C183.306 309.047 180.744 309.052 178.155 309.125C178.125 295.322 175.945 284.669 191.246 279.073C190.208 271.923 187.944 268.312 180.92 265.344C181.113 262.741 181.178 260.075 180.92 257.476Z"/>
	<path fill="#46B0FD" transform="scale(0.195312 0.195312)" d="M302.495 182.949C284.46 179.661 270.111 172.951 260.41 156.076C245.454 130.06 254.016 95.5758 280.484 80.7647C305.445 66.7968 337.624 74.4542 353.537 98.1789C355.537 101.161 357.031 104.444 358.767 107.581C363.587 125.385 364.753 139.273 354.924 156.454C344.471 174.725 323.229 184.946 302.495 182.949ZM304.731 88.0998C268.339 91.3841 254.11 136.457 281.323 158.618C288.186 164.207 301.442 170.839 310.562 167.75C331.551 167.818 348.038 148.624 348.102 128.311C348.17 106.517 326.684 84.4064 304.731 88.0998Z"/>
	<path fill="#90D8FC" transform="scale(0.195312 0.195312)" d="M305.628 104.839C333.907 101.997 343.811 145.685 309.56 151.764C279.084 153.407 272.963 108.796 305.628 104.839Z"/>
	<path fill="#90D8FC" transform="scale(0.195312 0.195312)" d="M358.767 107.581C362.633 107.419 366.539 107.558 370.409 107.569L406.687 107.577C412.439 107.558 418.377 107.23 424.03 108.46C440.731 112.092 453.354 126.634 454.067 143.842C454.499 154.262 455.244 184.856 453.223 193.617C446.176 224.166 419.694 220.804 396.133 220.777C390.157 237.772 381.057 248.894 362.252 253.238L362.252 220.777L344.576 220.793C336.128 220.796 329.727 221.15 321.987 217.121C309.173 210.45 301.8 197.244 302.495 182.949C323.229 184.946 344.471 174.725 354.924 156.454C364.753 139.273 363.587 125.385 358.767 107.581ZM351.928 174.753C344.11 176.609 341.483 186.097 349.336 190.303C353.703 192.642 369.664 191.268 375.053 191.273L420.763 191.29C429.233 189.471 430.855 179.932 424.119 176.182C419.891 173.828 410.45 174.748 405.717 174.746L363.205 174.742C359.468 174.743 355.657 174.589 351.928 174.753ZM370.534 142.538C365.92 143.063 363.097 147.469 363.743 151.941C364.975 160.469 375.864 158.884 381.984 158.878L401.871 158.868C407.135 158.868 416.663 159.524 421.499 158.877C431.363 155.239 428.751 142.97 418.649 142.528C410.143 142.156 400.878 142.54 392.264 142.537L377.979 142.529C375.515 142.524 372.987 142.38 370.534 142.538Z"/>
	<path fill="#2E5589" transform="scale(0.195312 0.195312)" d="M200.743 397.746L100.911 397.757C95.2526 397.761 89.3253 398.124 83.7627 396.962C65.4766 393.14 58.0886 377.932 58.2077 360.904L58.2467 181.678C58.2475 176.127 57.6716 168.131 58.6766 162.924C63.4727 138.075 84.6551 137.238 104.069 137.24L238.198 137.251C238.075 142.733 241.225 147.15 243.799 151.764L104.844 151.756C88.8908 151.753 72.2115 150.912 72.4084 172.167L72.4881 349.503L406.387 349.503L406.376 250.184C406.363 245.928 406.134 241.603 406.387 237.357C411.336 237.394 416.073 237.821 420.763 235.953L420.774 357.319C420.816 386.996 413.103 397.772 382.257 397.763L278.854 397.746L200.743 397.746ZM238.198 361.801C222.997 366.026 227.652 387.573 242.743 385.068C257.171 380.116 254.507 360.756 238.198 361.801Z"/>
</svg>
