<?xml version="1.0" encoding="utf-8" ?>
<svg xmlns="http://www.w3.org/2000/svg" xmlns:xlink="http://www.w3.org/1999/xlink" width="100" height="100">
	<path fill="#4A507D" transform="scale(0.195312 0.195312)" d="M103.043 74.1225L281.277 74.1183C287.942 74.1137 295.259 73.4824 301.834 74.4713C321.89 77.4875 324.36 93.9508 324.349 109.995L324.341 212.37C327.851 212.522 331.4 212.38 334.915 212.378L419.396 212.318C437.406 212.289 435.173 226.095 435.158 239.618L435.167 367.174C435.182 392.923 424.156 389.431 404.178 389.434L365.625 389.428L324.341 389.428C324.376 401.404 325.799 415.142 317.264 424.795C308.402 434.818 297.493 433.385 285.469 433.371L109.802 433.381C106.388 433.382 102.827 433.539 99.4381 433.104C74.1784 429.861 76.9731 402.953 76.9891 384.811L76.9767 110.914C76.9757 91.4363 79.5516 75.1648 103.043 74.1225Z"/>
	<path fill="#DB3538" transform="scale(0.195312 0.195312)" d="M140.499 83.9288L163.859 83.9288C163.653 96.3045 161.978 100.618 170.351 109.952C144.919 109.605 140.387 111.101 140.499 83.9288Z"/>
	<path fill="#BED3DC" transform="scale(0.195312 0.195312)" d="M248.778 229.034C252.523 223.072 254.171 215.3 264.032 216.097C257.915 222.671 260.002 237.758 260.003 246.939L259.998 337.45C259.993 354.658 261.286 366.513 243.944 376.116C240.059 378.267 237.621 378.193 233.439 378.333C234.218 377.003 235.788 375.753 236.872 374.619C248.567 362.389 248.786 354.535 248.784 338.931L248.778 262.021C252.095 260.04 250.925 256.789 248.778 254.383C249.297 253.215 249.08 237.114 248.778 236.597C250.919 233.833 251.314 231.749 248.778 229.034Z"/>
	<path fill="#F3605C" transform="scale(0.195312 0.195312)" d="M163.859 83.9288L255.933 83.9288L255.953 92.2974C256.042 109.588 250.005 109.972 234.359 109.961L186.384 109.96C181.146 109.962 175.868 110.11 170.636 109.963L170.351 109.952C161.978 100.618 163.653 96.3045 163.859 83.9288Z"/>
	<path fill="#83DBFC" transform="scale(0.195312 0.195312)" d="M117.451 423.392C94.7915 423.475 86.8445 425.053 86.8247 397.429L86.818 100.992C86.8672 83.3186 101.986 83.7524 115.242 83.9288C107.156 92.5479 108.445 97.7369 108.468 108.632L108.473 380.671C108.461 397.245 104.764 411.32 117.451 423.392Z"/>
	<path fill="#F99B7D" transform="scale(0.195312 0.195312)" d="M275.469 222.029L406.506 222.025C411.865 222.025 418.826 221.37 423.981 222.71C427.191 225.859 425.649 254.176 425.649 259.857L425.635 356.148C425.703 380.538 430.555 379.922 406.625 379.788L255.933 379.788C269.297 366.159 269.555 358.129 269.524 340.216L269.503 237.471C269.491 229.896 266.83 222.627 275.469 222.029Z"/>
	<path fill="#4A507D" transform="scale(0.195312 0.195312)" d="M346.415 231.607C359.861 231.337 367.027 240.872 367.966 253.486L383.247 253.466C394.359 253.456 403.657 252.601 404.055 266.374C404.254 273.254 404.123 280.171 404.123 287.054L404.133 342.288C404.133 363.762 402.234 364.028 379.664 364.029L349.875 364.015L319.498 364.024C305.898 364.03 291.638 366.097 291.236 347.989C290.826 329.482 291.189 310.885 291.191 292.37L291.196 273.865C291.2 265.637 290.401 256.623 300.62 254.055C305.637 252.795 320.48 253.472 326.237 253.486C326.152 241.423 334.35 232.471 346.415 231.607Z"/>
	<path fill="#1A90F0" transform="scale(0.195312 0.195312)" d="M345.183 241.284C352.355 240.808 356.536 244.473 358.438 251.273L349.003 251.273L335.838 251.273C337.412 246.375 339.999 242.892 345.183 241.284Z"/>
	<path fill="#F3605C" transform="scale(0.195312 0.195312)" d="M335.838 260.278L358.056 260.278C358.056 262.082 358.454 272.629 358.056 273.339C350.655 273.239 343.24 273.337 335.838 273.339C335.942 268.992 335.848 264.627 335.838 260.278Z"/>
	<path fill="#FDC43E" transform="scale(0.195312 0.195312)" d="M367.966 263.476C376.787 263.471 385.681 263.747 394.494 263.476C394.711 271.72 394.502 280.022 394.501 288.273L394.494 337.375C394.469 343.046 394.741 348.769 394.494 354.431L316.653 354.447C309.328 354.457 301.097 356.927 300.759 348.037C300.514 341.6 300.73 335.07 300.735 328.624L300.734 275.105C300.71 271.683 299.3 265.799 302.366 263.476C310.318 263.592 318.283 263.487 326.237 263.476C326.223 267.024 325.364 278.944 327.55 281.149C330.064 283.683 348.491 282.442 352.712 282.444C370.643 282.449 368.083 283.218 367.966 263.476Z"/>
	<path fill="#4A507D" transform="scale(0.195312 0.195312)" d="M363.267 301.258C366.763 301.08 371.064 303.47 369.183 307.625C368.087 310.045 342.438 336.409 337.794 337.983C334.371 337.479 330.78 332.745 328.416 330.34C326.529 328.522 323.356 326.253 322.994 323.526C322.658 321.001 324.344 317.862 327.104 317.656C330.264 317.421 335.381 323.71 337.715 325.885C343.328 320.587 357.587 304.218 363.267 301.258Z"/>
	<path fill="#E2F3F7" transform="scale(0.195312 0.195312)" d="M265.713 83.9288C271.944 83.8212 296.108 83.0059 301.187 84.2066C315.78 87.6566 314.732 100.47 314.723 111.882L314.708 212.37L286.135 212.363C277.264 212.365 271.675 210.961 264.032 216.097C254.171 215.3 252.523 223.072 248.778 229.034C251.314 231.749 250.919 233.833 248.778 236.597C249.08 237.114 249.297 253.215 248.778 254.383C250.925 256.789 252.095 260.04 248.778 262.021L248.784 338.931C248.786 354.535 248.567 362.389 236.872 374.619C235.788 375.753 234.218 377.003 233.439 378.333C231.157 379.733 230.218 381.61 229.635 384.141C230.108 385.741 230.591 387.102 231.685 388.406C236.61 390.367 242.943 389.456 248.122 389.449L298.808 389.432C303.725 389.434 308.682 389.609 313.592 389.428L313.592 398.741C313.681 425.61 307.725 423.395 283.036 423.379L118.885 423.438C118.407 423.437 117.928 423.416 117.451 423.392C104.764 411.32 108.461 397.245 108.473 380.671L108.468 108.632C108.445 97.7369 107.156 92.5479 115.242 83.9288C120.348 83.6645 125.699 83.7364 130.814 83.9288C130.774 109.51 134.756 119.479 162.214 119.324L243.513 119.311C265.578 119.107 265.722 100.313 265.713 83.9288Z"/>
	<path fill="#4A507D" transform="scale(0.195312 0.195312)" d="M128.084 374.906C133.501 374.901 163.959 374.289 166.633 375.422C171.488 377.477 169.167 383.546 164.719 384.898C154.452 385.182 140.165 385.532 129.994 384.882C122.393 384.396 121.833 377.007 128.084 374.906Z"/>
	<path fill="#4A507D" transform="scale(0.195312 0.195312)" d="M248.778 236.597C244.729 239.203 232.253 237.777 227.063 237.779L202.428 237.776C198.683 237.775 178.177 240.29 184.756 229.957C186.934 226.535 195.232 227.781 198.616 227.785L234.524 227.768C238.841 227.763 244.913 226.706 248.778 229.034C251.314 231.749 250.919 233.833 248.778 236.597Z"/>
	<path fill="#4A507D" transform="scale(0.195312 0.195312)" d="M186.706 263.476C186.655 263.432 186.604 263.39 186.554 263.346L186.306 263.122C183.475 260.597 182.879 255.274 187.121 253.769C189.335 252.984 244.464 252.584 248.778 254.383C250.925 256.789 252.095 260.04 248.778 262.021C244.342 264.356 237.538 263.48 232.703 263.481L196.621 263.48C193.321 263.486 189.999 263.676 186.706 263.476Z"/>
	<path fill="#4A507D" transform="scale(0.195312 0.195312)" d="M146.452 349.929L200.523 349.929C203.547 349.936 208.224 349.185 210.74 351.274C214.476 354.379 211.845 358.901 207.859 359.707C203.722 360.544 194.925 360.005 190.375 359.99L137.037 359.99C133.341 360.022 124.086 361.241 123.983 355.527C123.826 346.757 140.3 349.909 146.452 349.929Z"/>
	<path fill="#83DBFC" transform="scale(0.195312 0.195312)" d="M231.685 388.406C236.61 390.367 242.943 389.456 248.122 389.449L298.808 389.432C303.725 389.434 308.682 389.609 313.592 389.428L313.592 398.741L218.723 398.741C217.079 397.621 215.594 396.095 215.419 394C214.765 386.169 226.797 388.628 231.365 388.422L231.685 388.406Z"/>
	<path fill="#4A507D" transform="scale(0.195312 0.195312)" d="M221.522 153.956L279.643 153.925C282.892 153.917 288.531 153.021 291.284 155.182C294.491 157.699 292.612 162.903 288.853 163.545C285.717 164.08 281.811 163.673 278.594 163.674L255.933 163.678L196.358 163.655C193.388 163.674 187.866 164.626 185.381 162.56C182.228 159.941 183.543 154.839 187.538 154.196C191.31 153.588 195.553 153.945 199.368 153.944L221.522 153.956Z"/>
	<path fill="#4A507D" transform="scale(0.195312 0.195312)" d="M270.882 179.423C276.241 179.418 282.101 178.805 287.407 179.345C293.799 179.995 294.093 186.164 289.408 189.253C286.547 189.519 283.51 189.285 280.628 189.274L205.465 189.253C201.141 189.227 187.99 190.525 184.946 187.871C183.111 186.271 183.038 183.168 184.683 181.41C187.666 178.221 195.104 179.393 198.992 179.411L270.882 179.423Z"/>
	<path fill="#4A507D" transform="scale(0.195312 0.195312)" d="M121.038 146.985C127.955 146.866 134.888 146.978 141.807 146.977C168.291 146.973 164.743 150.856 164.748 173.7C164.75 182.714 167.605 196.777 154.985 198.337C153.081 198.54 151.056 198.376 149.137 198.366L138.786 198.344C133.529 198.339 126.983 198.837 121.863 198.299C108.616 196.905 111.742 181.841 111.738 172.422C111.734 163.442 108.83 149.039 121.038 146.985Z"/>
	<path fill="#FDC43E" transform="scale(0.195312 0.195312)" d="M138.749 156.493L154.985 156.493C154.988 167.407 155.132 178.341 154.985 189.253L138.749 189.253C138.898 178.34 138.764 167.408 138.749 156.493Z"/>
	<path fill="#FAB03C" transform="scale(0.195312 0.195312)" d="M121.494 156.493L138.749 156.493C138.764 167.408 138.898 178.34 138.749 189.253L121.494 189.253L121.494 156.493Z"/>
	<path fill="#4A507D" transform="scale(0.195312 0.195312)" d="M144.694 219.661C155.852 219.594 164.415 218.937 164.71 232.721C164.832 238.427 164.741 244.156 164.739 249.864C164.731 268.133 164.911 271.808 145.207 271.783L131.625 271.758C111.37 271.86 111.759 268.96 111.754 249.515L111.64 232.887C111.37 215.048 132.365 219.63 144.694 219.661Z"/>
	<path fill="#F3605C" transform="scale(0.195312 0.195312)" d="M138.749 229.034C143.874 229.025 150.016 228.418 154.985 229.639C155.375 235.908 155.534 257.388 154.397 262.021C149.183 262.103 143.964 262.039 138.749 262.021L138.749 229.034Z"/>
	<path fill="#DB3538" transform="scale(0.195312 0.195312)" d="M121.494 229.034L138.749 229.034L138.749 262.021L121.494 262.021C121.669 258.274 121.511 254.482 121.507 250.728L121.494 229.034Z"/>
</svg>
