<?xml version="1.0" encoding="utf-8" ?>
<svg xmlns="http://www.w3.org/2000/svg" xmlns:xlink="http://www.w3.org/1999/xlink" width="100" height="100">
	<path fill="#506592" transform="scale(0.195312 0.195312)" d="M367.957 401.502C367.966 407.464 368.484 414.031 366.863 419.804C361.252 439.787 343.72 437.869 327.882 437.867L118.191 437.874C111.642 437.885 103.526 438.653 97.2627 436.803C76.1877 430.579 80.0153 407.391 80.0274 390.458L80.0296 109.779C80.0239 102.931 79.2578 92.7288 81.2318 86.2704C87.115 67.0227 103.412 68.7205 118.918 68.7368L332.2 68.7335C337.697 68.7248 345.543 67.948 350.697 69.5568C368.254 75.0377 366.727 89.9608 366.727 104.033L366.73 176.885C366.731 184.422 366.862 191.983 366.713 199.517C366.628 203.847 366.229 205.723 361.8 207.521L361.45 207.534C351.593 207.824 353.453 197.543 353.466 190.902L353.468 111.604C353.469 106.612 354.196 91.599 352.65 87.5308C349.428 79.0506 333.157 81.708 325.44 81.7082L116.087 81.7088C103.138 81.7056 93.5834 80.7499 93.3651 96.7703C93.1513 112.461 93.3532 128.18 93.3545 143.874L93.3483 304.003C93.3467 306.668 93.1713 309.459 93.3535 312.112C93.8297 314.968 93.3882 318.299 93.3697 321.227L93.3535 410.943L309.616 410.748C319.842 410.758 331.755 412.155 336.987 401.502C335.565 401.505 327.993 401.966 327.483 401.502C311.762 401.509 295.991 401.783 280.275 401.482C258.547 401.066 257.455 384.51 257.478 368.697L257.49 295.108C257.49 286.606 257.193 277.989 257.561 269.503C257.882 262.084 266.519 264.391 271.578 264.705C271.77 253.915 273.896 245.724 281.745 237.868C293.345 226.259 307.7 228.399 322.742 228.412L363.397 228.404C380.474 229.948 393.795 224.017 408.559 238.735C415.859 246.012 418.219 254.669 418.217 264.705C434.568 265.028 431.75 268.439 431.754 282.814L431.802 376.195C431.92 400.33 415.113 401.525 395.979 401.512L367.957 401.502Z"/>
	<path fill="#EEE5A5" transform="scale(0.195312 0.195312)" d="M335.626 278.012L360.871 278.012L360.871 323.114C357.684 321.546 354.421 320.113 351.188 318.64C341.436 313.904 336.853 319.307 327.483 323.114L327.483 278.012L335.626 278.012Z"/>
	<path fill="#9DD094" transform="scale(0.195312 0.195312)" d="M303.141 241.901L376.598 241.89C392.007 241.896 405.103 245.281 405.162 264.705L387.375 264.705L285.288 264.705C284.15 253.023 291.347 243.436 303.141 241.901Z"/>
	<path fill="#BCD7ED" transform="scale(0.195312 0.195312)" d="M93.3535 312.112C93.8297 314.968 93.3882 318.299 93.3697 321.227L93.3535 410.943L309.616 410.748C319.842 410.758 331.755 412.155 336.987 401.502C335.565 401.505 327.993 401.966 327.483 401.502C330.4 401.351 333.395 401.491 336.319 401.493L354.517 401.502C354.683 428.736 347.576 424.303 324.998 424.306L113.726 424.313C93.462 424.337 93.2975 422.633 93.3284 404.566L93.3535 312.112Z"/>
	<path fill="#FBB861" transform="scale(0.195312 0.195312)" d="M270.713 278.012L314.246 278.012C314.243 285.13 313.614 333.834 314.77 336.589C317.734 343.649 325.62 338.945 330.289 336.905L344.797 330.419C349.109 332.686 364.692 340.716 368.817 340.862C377.049 341.154 374.22 322.511 374.219 317.338L374.229 278.012L418.217 278.012L418.217 315.221L418.198 358.012C418.192 367.758 422.017 387.719 407.036 388.052C398.195 388.248 389.29 388.003 380.443 388.001L296.569 388.006C274.792 388.076 270.653 390.929 270.689 369.192L270.713 278.012Z"/>
	<path fill="#D8EEF3" transform="scale(0.195312 0.195312)" d="M93.3535 312.112C93.1713 309.459 93.3467 306.668 93.3483 304.003L93.3545 143.874C93.3532 128.18 93.1513 112.461 93.3651 96.7703C93.5834 80.7499 103.138 81.7056 116.087 81.7088L325.44 81.7082C333.157 81.708 349.428 79.0506 352.65 87.5308C354.196 91.599 353.469 106.612 353.468 111.604L353.466 190.902C353.453 197.543 351.593 207.824 361.45 207.534L361.8 207.521C361.563 214.326 361.859 221.113 361.542 227.93C362.09 228.349 362.762 228.249 363.397 228.404L322.742 228.412C307.7 228.399 293.345 226.259 281.745 237.868C273.896 245.724 271.77 253.915 271.578 264.705C266.519 264.391 257.882 262.084 257.561 269.503C257.193 277.989 257.49 286.606 257.49 295.108L257.478 368.697C257.455 384.51 258.547 401.066 280.275 401.482C295.991 401.783 311.762 401.509 327.483 401.502C327.993 401.966 335.565 401.505 336.987 401.502C331.755 412.155 319.842 410.758 309.616 410.748L93.3535 410.943L93.3697 321.227C93.3882 318.299 93.8297 314.968 93.3535 312.112Z"/>
	<path fill="#506592" transform="scale(0.195312 0.195312)" d="M196.724 341.002L221.182 341.019C225.463 341.011 230.01 340.664 234.267 341.066C241.987 341.794 242.853 353.347 234.983 354.524C229.162 354.724 196.376 355.45 193.357 353.358C187.736 349.462 190.669 341.985 196.724 341.002Z"/>
	<path fill="#506592" transform="scale(0.195312 0.195312)" d="M197.48 308.039L220.635 308.045C225.487 308.017 233.529 306.511 237.833 309.341C243.199 312.869 239.89 320.841 234.211 321.65C225.427 321.829 205.038 322.75 196.771 321.514C187.578 320.139 188.931 308.869 197.48 308.039Z"/>
	<path fill="#506592" transform="scale(0.195312 0.195312)" d="M196.724 274.967C205.713 274.529 225.152 274.095 234.011 275.055C243.104 276.041 242.276 287.198 234.211 288.73C228.763 288.734 197.068 289.432 194.039 287.864C187.4 284.426 190.294 276.225 196.724 274.967Z"/>
	<path fill="#506592" transform="scale(0.195312 0.195312)" d="M215.393 241.365L238.589 241.344C243.918 241.326 256.381 239.227 256.533 247.622C256.728 258.354 238.309 254.972 231.381 254.951L208.174 254.963C203.957 254.961 199.229 255.327 195.08 254.609C188.443 253.461 189.454 243.24 195.531 241.753C199.442 240.796 210.683 241.355 215.393 241.365Z"/>
	<path fill="#506592" transform="scale(0.195312 0.195312)" d="M127.273 388.008C149.223 387.711 171.22 388.01 193.175 388.009L218.918 388C223.084 387.998 234.13 386.963 237.687 389.111C243.144 392.405 239.865 400.376 234.211 401.502L140.81 401.495C136.988 401.515 126.777 402.733 123.582 400.526C117.94 396.631 121.155 388.807 127.273 388.008Z"/>
	<path fill="#506592" transform="scale(0.195312 0.195312)" d="M196.724 208.782C201.747 208.515 206.931 208.772 211.968 208.774L282.831 208.777C290.01 208.769 297.23 208.576 304.402 208.782C313.647 209.048 313.799 219.48 306.091 222.2C300.973 222.48 295.708 222.208 290.578 222.205L218.699 222.195C211.994 222.202 205.236 222.452 198.539 222.246C188.569 221.938 187.813 211.275 196.724 208.782Z"/>
	<path fill="#506592" transform="scale(0.195312 0.195312)" d="M126.405 208.782C128.379 208.308 131.064 208.756 133.119 208.77L148.903 208.787C156.088 208.786 163.35 208.357 170.35 208.36C176.543 208.362 175.549 217.444 175.554 221.388L175.561 250.581C175.561 255.338 177.122 263.468 170.813 264.705C168.015 264.935 165.182 264.74 162.377 264.725L147.021 264.696C142.716 264.692 138.405 264.638 134.101 264.697C122.943 264.852 121.183 265.562 121.228 253.148L121.239 223.369C121.239 218.001 119.169 209.702 126.405 208.782Z"/>
	<path fill="#FBB861" transform="scale(0.195312 0.195312)" d="M134.732 252.065L134.718 232.623C134.704 229.193 134.443 225.61 134.732 222.2C134.951 227.468 134.607 232.757 134.732 238.027L153.27 238.007C156.228 238.003 159.38 237.754 162.312 238.027L162.312 252.065L134.732 252.065Z"/>
	<path fill="#EEE5A5" transform="scale(0.195312 0.195312)" d="M134.732 222.2L134.833 221.638C136.431 221 158.529 221.409 162.312 221.412L162.312 238.027C159.38 237.754 156.228 238.003 153.27 238.007L134.732 238.027C134.607 232.757 134.951 227.468 134.732 222.2Z"/>
	<path fill="#506592" transform="scale(0.195312 0.195312)" d="M127.273 301.843L154.136 301.827C159.655 301.828 173.501 299.634 175.27 306.027C176.083 308.965 175.961 345.866 175.555 353.033C175.338 356.858 173.506 358.891 169.698 359.808L141.91 359.832C137.248 359.839 132.243 360.207 127.615 359.749C119.308 358.925 121.24 351.258 121.238 345.012L121.241 315.272C121.214 309.672 119.865 302.958 127.273 301.843Z"/>
	<path fill="#4BA8F9" transform="scale(0.195312 0.195312)" d="M134.732 315.221L162.312 315.221L162.312 346.747L134.732 346.747C134.891 336.249 134.733 325.722 134.732 315.221Z"/>
	<path fill="#506592" transform="scale(0.195312 0.195312)" d="M150.166 118.335L284.403 118.323C290.351 118.313 296.745 117.898 302.635 118.746C335.788 123.522 336.429 174.169 298.562 176.944C295.156 177.117 291.666 176.955 288.248 176.951L167.237 176.952C160.305 176.957 152.72 177.547 145.883 176.494C111.235 171.154 112.94 120.079 150.166 118.335Z"/>
	<path fill="#F3AFA3" transform="scale(0.195312 0.195312)" d="M137.006 138.678C142.201 130.307 152.519 131.438 161.013 131.443L177.486 131.466L177.486 145.794L152.362 145.915C145.518 145.891 141.734 143.408 137.006 138.678Z"/>
	<path fill="#E57D79" transform="scale(0.195312 0.195312)" d="M137.006 138.678C141.734 143.408 145.518 145.891 152.362 145.915L177.486 145.794L177.486 163.602L158.815 163.615C152.819 163.615 146.635 164.303 141.292 161.011C133.382 156.139 132.293 146.182 137.006 138.678Z"/>
	<path fill="#5FBAFE" transform="scale(0.195312 0.195312)" d="M190.505 131.466L286.261 131.464C298.677 131.467 310.723 130.086 314.246 145.794C305.147 146.057 295.972 145.794 286.864 145.793L203.153 145.788C199.405 145.796 194.041 146.255 190.505 145.794L190.505 131.466Z"/>
	<path fill="#4BA8F9" transform="scale(0.195312 0.195312)" d="M190.505 145.794C194.041 146.255 199.405 145.796 203.153 145.788L286.864 145.793C295.972 145.794 305.147 146.057 314.246 145.794C316.708 163.623 299.207 163.605 287.752 163.606L190.505 163.602L190.505 145.794Z"/>
</svg>
