<?xml version="1.0" encoding="utf-8" ?>
<svg xmlns="http://www.w3.org/2000/svg" xmlns:xlink="http://www.w3.org/1999/xlink" width="100" height="100">
	<path fill="#E5E8F3" transform="scale(0.195312 0.195312)" d="M181.367 348.231C181.641 317.416 199.173 295.557 230.662 290.79C233.653 290.337 236.731 289.933 239.755 290.27C240.638 291.119 240.761 293.274 240.94 294.499C250.418 305.953 262.325 301.609 271.489 292.347L271.489 290.27L271.489 290.27C305.323 293.769 329.565 309.749 332.243 345.506L332.257 364.774C332.26 379.088 333.898 388.436 324.184 399.842L309.764 399.842L309.764 418.756L309.764 420.425L309.764 434.095L220.848 434.085C211.626 434.076 194.541 435.311 185.96 434.095C159.488 434.751 160.038 406.223 177.534 401.104C178.77 400.936 180.117 401.076 181.367 401.104L181.366 365.268C181.371 359.651 181.835 353.809 181.367 348.231Z"/>
	<path fill="#2195F3" transform="scale(0.195312 0.195312)" d="M181.367 348.231C181.641 317.416 199.173 295.557 230.662 290.79C233.653 290.337 236.731 289.933 239.755 290.27C240.638 291.119 240.761 293.274 240.94 294.499C250.418 305.953 262.325 301.609 271.489 292.347L271.489 290.27L271.489 290.27C305.323 293.769 329.565 309.749 332.243 345.506C320.613 339.312 310.385 343.419 309.764 357.497C303.853 349.43 299.582 350.176 290.581 350.206L217.377 350.227C209.53 350.184 206.718 352.05 201.775 357.497C203.585 342.916 187.575 339.501 181.367 348.231Z"/>
	<path fill="#F7D1AE" transform="scale(0.195312 0.195312)" d="M271.489 292.347C271.913 320.14 238.008 314.694 240.94 294.499C250.418 305.953 262.325 301.609 271.489 292.347Z"/>
	<path fill="#BAD0EF" transform="scale(0.195312 0.195312)" d="M181.367 348.231C187.575 339.501 203.585 342.916 201.775 357.497C206.718 352.05 209.53 350.184 217.377 350.227L217.37 395.974C217.369 400.775 216.766 413.837 217.84 417.949C220.402 419.681 238.914 418.757 242.765 418.756L300.082 418.779C303.201 418.787 306.685 419.116 309.764 418.756L309.764 420.425L309.764 434.095L220.848 434.085C211.626 434.076 194.541 435.311 185.96 434.095C159.488 434.751 160.038 406.223 177.534 401.104C178.77 400.936 180.117 401.076 181.367 401.104L181.366 365.268C181.371 359.651 181.835 353.809 181.367 348.231Z"/>
	<path fill="#F4B68A" transform="scale(0.195312 0.195312)" d="M181.367 348.231C187.575 339.501 203.585 342.916 201.775 357.497L201.775 401.104C194.994 401.115 188.136 400.83 181.367 401.104L181.366 365.268C181.371 359.651 181.835 353.809 181.367 348.231Z"/>
	<path fill="#4F80D9" transform="scale(0.195312 0.195312)" d="M181.367 401.104C188.136 400.83 194.994 401.115 201.775 401.104L201.775 420.425L201.775 434.095C197.3 434.087 190.029 433.645 185.96 434.095C159.488 434.751 160.038 406.223 177.534 401.104C178.77 400.936 180.117 401.076 181.367 401.104Z"/>
	<path fill="#2195F3" transform="scale(0.195312 0.195312)" d="M181.367 401.104C188.136 400.83 194.994 401.115 201.775 401.104L201.775 420.425C195.299 419.719 185.203 422.522 180.042 417.586C172.856 410.714 178.265 405.182 177.534 401.104C178.77 400.936 180.117 401.076 181.367 401.104Z"/>
	<path fill="#F7D1AE" transform="scale(0.195312 0.195312)" d="M309.764 357.497C310.385 343.419 320.613 339.312 332.243 345.506L332.257 364.774C332.26 379.088 333.898 388.436 324.184 399.842L309.764 399.842C309.623 388.189 311.149 368.282 309.764 357.497Z"/>
	<path fill="#2195F3" transform="scale(0.195312 0.195312)" d="M247.625 380.232C267.045 366.591 282.248 402.378 260.919 408.091C243.473 413.684 233.137 390.88 247.625 380.232Z"/>
	<path fill="#4F80D9" transform="scale(0.195312 0.195312)" d="M260.919 408.091C243.473 413.684 233.137 390.88 247.625 380.232C248.1 389.513 248.341 396.646 256.05 403.637C257.63 405.07 259.989 406.12 260.919 408.091Z"/>
	<path fill="#56ADF5" transform="scale(0.195312 0.195312)" d="M86.3321 171.794L163.209 171.779C179.986 171.744 181.467 171.662 181.396 190.345L181.367 273.956C181.685 290.905 180.093 293.658 162.77 293.726L95.4382 293.741C93.1011 293.746 90.4965 293.984 88.1872 293.718C74.114 292.768 75.7775 283.515 75.8005 272.022L75.7924 189.483C75.7453 180.72 74.1727 171.713 86.3321 171.794ZM117.817 231.488L111.751 231.488C111.729 248.061 128.176 253.635 137.187 244.523C140.516 241.156 141.167 235.948 141.736 231.488C139.609 231.739 137.424 231.588 135.291 231.488C131.889 242.647 119.08 242.041 117.817 231.488Z"/>
	<path fill="#63D2C3" transform="scale(0.195312 0.195312)" d="M106.682 232.814C108.388 232.463 110.033 231.836 111.751 231.488C111.729 248.061 128.176 253.635 137.187 244.523C140.516 241.156 141.167 235.948 141.736 231.488C161.495 234.188 168.067 254.795 168.016 272.022C171.903 272.004 180.851 270.283 181.367 273.956C181.685 290.905 180.093 293.658 162.77 293.726L95.4382 293.741C93.1011 293.746 90.4965 293.984 88.1872 293.718C74.114 292.768 75.7775 283.515 75.8005 272.022C78.7339 272.092 81.5688 272.227 84.5072 272.022C84.3362 254.606 89.164 239.94 106.682 232.814Z"/>
	<path fill="#5E72BD" transform="scale(0.195312 0.195312)" d="M139.194 272.022C142.936 259.793 156.256 263.27 157.631 272.022C161.091 272.2 164.556 271.94 168.016 272.022C171.903 272.004 180.851 270.283 181.367 273.956C181.685 290.905 180.093 293.658 162.77 293.726L95.4382 293.741C93.1011 293.746 90.4965 293.984 88.1872 293.718C74.114 292.768 75.7775 283.515 75.8005 272.022C78.7339 272.092 81.5688 272.227 84.5072 272.022L96.4017 272.022C96.6132 273.731 96.8625 275.398 97.2395 277.079C103.386 286.228 114.815 282.418 115.141 272.022C117.707 271.861 120.38 272.014 122.956 272.015L139.194 272.022Z"/>
	<path fill="#3B599D" transform="scale(0.195312 0.195312)" d="M84.5072 272.022L96.4017 272.022C96.6132 273.731 96.8625 275.398 97.2395 277.079C96.46 283.898 97.8852 287.944 101.268 293.718C97.4958 293.708 91.6226 293.181 88.1872 293.718C74.114 292.768 75.7775 283.515 75.8005 272.022C78.7339 272.092 81.5688 272.227 84.5072 272.022Z"/>
	<path fill="#F7D1AE" transform="scale(0.195312 0.195312)" d="M139.194 272.022C142.936 259.793 156.256 263.27 157.631 272.022C156.86 285.325 139.33 285.949 139.194 272.022Z"/>
	<path fill="#F7D1AE" transform="scale(0.195312 0.195312)" d="M96.4017 272.022C97.634 261.651 112.289 261.024 115.141 272.022C114.815 282.418 103.386 286.228 97.2395 277.079C96.8625 275.398 96.6132 273.731 96.4017 272.022Z"/>
	<path fill="#2195F3" transform="scale(0.195312 0.195312)" d="M75.8005 272.022L75.7924 189.483C75.7453 180.72 74.1727 171.713 86.3321 171.794C77.0969 187.542 93.9058 223.086 106.682 232.814C89.164 239.94 84.3362 254.606 84.5072 272.022C81.5688 272.227 78.7339 272.092 75.8005 272.022Z"/>
	<path fill="#F7D1AE" transform="scale(0.195312 0.195312)" d="M119.008 203.393C122.829 201.327 125.51 199.173 128.534 196.061C133.218 202.884 141.307 205.35 149.224 205.288C150.449 216.719 145.493 224.352 136.192 230.083C135.775 230.562 135.494 230.873 135.291 231.488L135.291 231.488C131.889 242.647 119.08 242.041 117.817 231.488L117.817 231.488C116.267 226.218 102.632 223.293 104.848 206.056C109.872 205.715 114.279 205.211 119.008 203.393Z"/>
	<path fill="#F4B68A" transform="scale(0.195312 0.195312)" d="M104.848 206.056C109.872 205.715 114.279 205.211 119.008 203.393C119.418 223.072 114.879 225.331 136.192 230.083C135.775 230.562 135.494 230.873 135.291 231.488L135.291 231.488C131.889 242.647 119.08 242.041 117.817 231.488L117.817 231.488C116.267 226.218 102.632 223.293 104.848 206.056Z"/>
	<path fill="#EE965E" transform="scale(0.195312 0.195312)" d="M117.817 231.488C124.377 231.415 127.646 231.976 135.291 231.488L135.291 231.488C131.889 242.647 119.08 242.041 117.817 231.488L117.817 231.488Z"/>
	<path fill="#3B599D" transform="scale(0.195312 0.195312)" d="M104.848 206.056C108.621 175.305 147.81 178.954 149.224 205.288C141.307 205.35 133.218 202.884 128.534 196.061C125.51 199.173 122.829 201.327 119.008 203.393C114.279 205.211 109.872 205.715 104.848 206.056Z"/>
	<path fill="#D2E7F8" transform="scale(0.195312 0.195312)" d="M332.243 253.869L332.232 189.595C332.234 174.584 332.785 171.372 348.71 171.794L419.389 171.771C440.939 171.643 436.785 178.369 436.779 196.526L436.745 247.597C436.738 249.655 436.57 251.827 436.767 253.869C437.206 256.126 436.821 258.822 436.785 261.134C436.748 263.542 437.322 279.804 436.767 280.947C437.102 293.671 430.143 293.83 419.611 293.734L343.429 293.889C331.34 293.998 332.218 282.729 332.221 273.899L332.243 253.869ZM380.639 191.801C381.564 192.864 382.475 193.941 383.477 194.933C384.551 193.703 385.614 192.724 386.972 191.801C385.577 190.945 382.269 191.646 380.639 191.801ZM365.095 223.744C367.692 223.403 369.724 223.706 372.261 223.744C375.561 225.806 378.128 231.311 380.639 234.375C384.709 231.021 388.233 227.139 392.246 223.744L414.206 223.744C415.782 221.553 416.843 218.593 417.946 216.127L388.931 216.127C386.365 218.5 384.166 221.295 381.652 223.744C380.095 221.051 370.537 207.301 368.543 206.018C366.023 204.396 363.889 207.163 362.688 209.001L362.795 209.263C363.757 211.674 365.475 213.906 366.825 216.127C364.994 216.293 363.182 216.2 361.348 216.127C361.273 219.247 364.676 220.364 365.095 223.744Z"/>
	<path fill="#3B599D" transform="scale(0.195312 0.195312)" d="M383.477 253.869L436.767 253.869C437.206 256.126 436.821 258.822 436.785 261.134C436.748 263.542 437.322 279.804 436.767 280.947C437.102 293.671 430.143 293.83 419.611 293.734L343.429 293.889C331.34 293.998 332.218 282.729 332.221 273.899L332.243 253.869L346.43 253.869L368.612 253.869C373.564 253.824 378.528 253.965 383.477 253.869Z"/>
	<path fill="#4F80D9" transform="scale(0.195312 0.195312)" d="M383.477 253.869L436.767 253.869C437.206 256.126 436.821 258.822 436.785 261.134C436.748 263.542 437.322 279.804 436.767 280.947L436.681 280.349C435.298 279.359 431.673 280.023 430.046 280.021L374.474 280.013L374.474 253.869C372.556 253.968 370.507 254.238 368.612 253.869C373.564 253.824 378.528 253.965 383.477 253.869Z"/>
	<path fill="#3B599D" transform="scale(0.195312 0.195312)" d="M392.246 264.074L433.017 264.074C432.959 267.458 434.744 271.187 430.431 271.252L389.764 271.252C389.716 268.862 389.761 266.465 389.764 264.074L392.246 264.074Z"/>
	<path fill="#5E72BD" transform="scale(0.195312 0.195312)" d="M346.43 253.869L368.612 253.869C370.507 254.238 372.556 253.968 374.474 253.869L374.474 280.013C365.216 279.481 355.727 280.166 346.43 280.013C346.54 277.375 346.612 274.657 346.43 272.022C346.053 269.448 346.33 266.669 346.43 264.074C345.938 260.795 346.536 257.202 346.43 253.869Z"/>
	<path fill="#3B599D" transform="scale(0.195312 0.195312)" d="M346.43 264.074L374.474 264.074C374.327 266.745 374.327 269.352 374.474 272.022L346.43 272.022C346.053 269.448 346.33 266.669 346.43 264.074Z"/>
	<path fill="#BAD0EF" transform="scale(0.195312 0.195312)" d="M332.243 253.869L332.232 189.595C332.234 174.584 332.785 171.372 348.71 171.794L348.705 187.728C348.711 190.982 347.92 199.851 350.367 202.314C348.641 206.208 348.664 212.22 350.367 216.127C352.322 216.177 354.262 216.187 356.216 216.127C357.921 216.13 359.645 216.187 361.348 216.127C361.273 219.247 364.676 220.364 365.095 223.744C367.692 223.403 369.724 223.706 372.261 223.744C375.561 225.806 378.128 231.311 380.639 234.375C384.191 238.757 388.444 242.49 392.246 246.634C390.054 248.976 386.569 251.641 383.477 252.559L383.477 253.869C378.528 253.965 373.564 253.824 368.612 253.869L346.43 253.869L332.243 253.869Z"/>
	<path fill="#D24C44" transform="scale(0.195312 0.195312)" d="M356.216 216.127C357.921 216.13 359.645 216.187 361.348 216.127C361.273 219.247 364.676 220.364 365.095 223.744C367.692 223.403 369.724 223.706 372.261 223.744C375.561 225.806 378.128 231.311 380.639 234.375C384.191 238.757 388.444 242.49 392.246 246.634C390.054 248.976 386.569 251.641 383.477 252.559C372.527 243.159 361.902 238.578 353.825 223.744C352.339 221.511 351.399 218.606 350.367 216.127C352.322 216.177 354.262 216.187 356.216 216.127Z"/>
	<path fill="#E5E8F3" transform="scale(0.195312 0.195312)" d="M356.216 216.127C357.921 216.13 359.645 216.187 361.348 216.127C361.273 219.247 364.676 220.364 365.095 223.744L365.095 223.744L353.825 223.744C352.339 221.511 351.399 218.606 350.367 216.127C352.322 216.177 354.262 216.187 356.216 216.127Z"/>
	<path fill="#F55E54" transform="scale(0.195312 0.195312)" d="M350.367 202.314C353.155 186.92 368.498 184.836 380.639 191.801C381.564 192.864 382.475 193.941 383.477 194.933C384.551 193.703 385.614 192.724 386.972 191.801C405.325 180.726 423.404 195.913 418.346 214.9C418.235 215.319 418.131 215.734 417.946 216.127L388.931 216.127C386.365 218.5 384.166 221.295 381.652 223.744C380.095 221.051 370.537 207.301 368.543 206.018C366.023 204.396 363.889 207.163 362.688 209.001L362.795 209.263C363.757 211.674 365.475 213.906 366.825 216.127C364.994 216.293 363.182 216.2 361.348 216.127C359.645 216.187 357.921 216.13 356.216 216.127C354.262 216.187 352.322 216.177 350.367 216.127C348.664 212.22 348.641 206.208 350.367 202.314Z"/>
	<path fill="#F55E54" transform="scale(0.195312 0.195312)" d="M392.246 223.744L414.206 223.744C409.768 231.248 399.88 242.251 392.246 246.634C388.444 242.49 384.191 238.757 380.639 234.375C384.709 231.021 388.233 227.139 392.246 223.744Z"/>
	<path fill="#63D2C3" transform="scale(0.195312 0.195312)" d="M221.475 85.2811C222.829 83.4706 224.959 82.1108 226.844 80.9124C259.528 60.1416 304.805 78.7456 309.732 116.707C310.885 125.585 309.472 142.023 304.44 149.745C288.916 183.024 238.858 189.204 215.138 159.418C197.662 137.473 198.646 102.984 221.475 85.2811Z"/>
	<path fill="#0FB9B1" transform="scale(0.195312 0.195312)" d="M221.475 85.2811C221.92 87.4873 218.638 93.0229 217.954 95.6641C205.78 142.691 251.832 177.618 292.498 156.974C295.66 155.368 301.196 149.568 304.44 149.745C288.916 183.024 238.858 189.204 215.138 159.418C197.662 137.473 198.646 102.984 221.475 85.2811Z"/>
	<path fill="#E5E8F3" transform="scale(0.195312 0.195312)" d="M246.013 97.7261L266.821 97.7261L266.821 113.985C271.51 114.089 276.207 113.884 280.899 113.985L282.019 113.971C282.813 114.755 282.507 115.829 282.425 116.843L282.425 133.82C277.23 133.91 272.018 133.827 266.821 133.82C266.608 139.101 266.804 144.457 266.821 149.745L246.013 149.745L246.013 133.82C240.737 133.73 235.454 133.801 230.178 133.82L230.178 113.985L246.013 113.985C246.127 108.593 246.241 103.112 246.013 97.7261Z"/>
	<path fill="#F7D1AE" transform="scale(0.195312 0.195312)" d="M224.374 243.346C224.588 239.517 223.919 235.49 223.889 231.623C223.815 222.283 230.848 212.25 240.079 209.895C246.446 208.271 256.011 208.993 262.727 208.993L295.741 209.001C295.775 219.896 295.644 225.676 286.597 233.612C288.539 235.306 287.593 242.212 287.259 244.497C305.928 244.514 303.828 265.848 287.259 265.838C284.668 276.537 280.968 283.648 271.489 290.27L271.489 290.27L271.489 292.347C262.325 301.609 250.418 305.953 240.94 294.499C240.761 293.274 240.638 291.119 239.755 290.27C231.202 284.703 227.205 275.169 224.374 265.838L221.475 265.838C206.807 263.147 209.031 245.795 220.507 244.864C221.548 244.78 223.094 245.065 223.995 244.589L224.374 243.346Z"/>
	<path fill="#3B599D" transform="scale(0.195312 0.195312)" d="M224.374 243.346C224.588 239.517 223.919 235.49 223.889 231.623C223.815 222.283 230.848 212.25 240.079 209.895C246.446 208.271 256.011 208.993 262.727 208.993L295.741 209.001C295.775 219.896 295.644 225.676 286.597 233.612C279.46 237.974 257.405 238.419 252.054 236.287C247.966 234.659 245.957 230.933 241.257 230.134L240.94 230.083C228.254 229.947 228.858 237.613 224.374 243.346Z"/>
	<path fill="#F4B68A" transform="scale(0.195312 0.195312)" d="M224.374 243.346C228.858 237.613 228.254 229.947 240.94 230.083C239.922 231.243 239.543 233.656 239.164 235.171C232.893 260.275 236.093 286.333 266.035 289.449C267.622 289.614 270.087 289.561 271.489 290.27L271.489 292.347C262.325 301.609 250.418 305.953 240.94 294.499C240.761 293.274 240.638 291.119 239.755 290.27C231.202 284.703 227.205 275.169 224.374 265.838L221.475 265.838C206.807 263.147 209.031 245.795 220.507 244.864C221.548 244.78 223.094 245.065 223.995 244.589L224.374 243.346Z"/>
	<path fill="#EE965E" transform="scale(0.195312 0.195312)" d="M221.475 265.838C221.378 258.659 221.316 251.917 224.374 245.264C224.474 252.013 224.818 259.116 224.374 265.838L221.475 265.838Z"/>
	<path fill="#F4B68A" transform="scale(0.195312 0.195312)" d="M287.259 244.497C305.928 244.514 303.828 265.848 287.259 265.838C287.478 258.795 287.442 251.545 287.259 244.497Z"/>
	<path fill="#D2E7F8" transform="scale(0.195312 0.195312)" d="M128.534 307.581C132.899 307.772 137.36 307.582 141.736 307.581L141.736 354.63L168.683 354.63C168.546 358.822 168.676 363.056 168.683 367.253L128.534 367.253C128.967 363.04 128.551 357.235 128.549 352.813L128.532 322.693C128.526 317.67 128.258 312.594 128.534 307.581Z"/>
	<path fill="#2195F3" transform="scale(0.195312 0.195312)" d="M324.184 399.842C337.96 399.312 347.563 405.437 345.693 420.425C339.913 437.501 324.572 434.131 309.764 434.095L309.764 420.425L309.764 418.756L309.764 399.842L324.184 399.842Z"/>
	<path fill="#4F80D9" transform="scale(0.195312 0.195312)" d="M309.764 420.425L331.818 420.411C336.428 420.39 341.088 420.187 345.693 420.425C339.913 437.501 324.572 434.131 309.764 434.095L309.764 420.425Z"/>
	<path fill="#D2E7F8" transform="scale(0.195312 0.195312)" d="M138.032 126.493C154.757 125.509 173.024 126.966 190.102 126.493L190.102 139.873C181.895 139.659 173.628 139.87 165.415 139.873C157.702 139.865 149.981 139.985 142.269 139.873L142.269 155.336L128.534 155.336L128.527 155.131C128.393 150.625 128.497 146.091 128.505 141.582C128.521 131.965 126.724 126.71 138.032 126.493Z"/>
	<path fill="#D2E7F8" transform="scale(0.195312 0.195312)" d="M372.261 309.986L384.275 309.986L384.307 358.894C384.344 369.212 379.939 367.28 371.346 367.276L356.216 367.253L344.274 367.253L344.274 355.634C353.596 355.628 362.942 355.816 372.261 355.634C372.073 350.881 372.246 346.053 372.254 341.291L372.261 309.986Z"/>
	<path fill="#D2E7F8" transform="scale(0.195312 0.195312)" d="M324.184 126.493C328.483 126.691 332.847 126.506 337.154 126.504L362.633 126.497C378.326 126.482 383.541 122.741 383.508 140.688L383.477 153.337C379.251 153.096 374.897 153.325 370.658 153.337C370.584 148.574 370.627 143.81 370.658 139.047C365.861 139.42 360.738 139.06 355.916 139.057L324.184 139.047C324.268 134.866 324.198 130.675 324.184 126.493Z"/>
</svg>
