<?xml version="1.0" encoding="utf-8" ?>
<svg xmlns="http://www.w3.org/2000/svg" xmlns:xlink="http://www.w3.org/1999/xlink" width="100" height="100">
	<path fill="#2E68A9" transform="matrix(0.195313 0 0 0.195313 0 3.05176e-05)" d="M72.7324 144.26L72.7409 117.967C72.6649 108.233 71.5413 101.272 79.633 93.618C85.4977 88.0704 92.1074 87.1047 99.8561 87.3118C102.469 87.9176 110.543 87.2936 113.724 87.3118C105.979 97.5403 106.72 94.9119 102.265 106.55C101.955 108.998 102.186 111.662 102.218 114.137L102.265 125.519L102.265 125.519C102.28 131.772 102.106 138.011 101.911 144.26C92.219 144.511 82.4325 144.263 72.7324 144.26Z"/>
	<path fill="#C0523C" transform="matrix(0.195313 0 0 0.195313 0 3.05176e-05)" d="M102.265 106.55C101.955 108.998 102.186 111.662 102.218 114.137L102.265 125.519C90.4884 124.825 89.9603 107.273 102.265 106.55Z"/>
	<path fill="#98E4F9" transform="matrix(0.195313 0 0 0.195313 0 3.05176e-05)" d="M72.7324 144.26C82.4325 144.263 92.219 144.511 101.911 144.26L101.887 159.126C101.868 161.936 101.681 164.76 101.911 167.564C95.5498 174.886 97.814 188.987 97.8133 198.104L97.8134 373.52C90.6129 373.098 79.9813 373.196 72.7324 373.52L72.7324 144.26Z"/>
	<path fill="#50C6F2" transform="matrix(0.195313 0 0 0.195313 0 3.05176e-05)" d="M72.7324 373.52C79.9813 373.196 90.6129 373.098 97.8134 373.52C99.133 394.009 118.714 393.68 133.464 393.676L380.744 393.672C392.313 393.676 413.288 396.396 414.113 379.019C414.347 377.217 414.178 375.333 414.113 373.52L439.24 373.52L439.26 388.729C439.358 416.529 429.888 420.21 403.772 420.212L97.5037 420.199C68.8924 420.096 72.687 393.179 72.7324 373.52Z"/>
	<path fill="#4878B0" transform="matrix(0.195313 0 0 0.195313 0 3.05176e-05)" d="M99.8561 87.3118L407.276 87.2895C420.741 87.2769 433.597 88.785 438.146 104.799C439.839 110.756 439.246 117.8 439.248 123.954L439.24 144.26L101.911 144.26C102.106 138.011 102.28 131.772 102.265 125.519L102.265 125.519L102.218 114.137C102.186 111.662 101.955 108.998 102.265 106.55C106.72 94.9119 105.979 97.5403 113.724 87.3118C110.543 87.2936 102.469 87.9176 99.8561 87.3118Z"/>
	<path fill="#F27A75" transform="matrix(0.195313 0 0 0.195313 0 3.05176e-05)" d="M102.265 106.55C115.507 106.707 115.388 125.738 102.265 125.519L102.265 125.519L102.218 114.137C102.186 111.662 101.955 108.998 102.265 106.55Z"/>
	<path fill="#FCC632" transform="matrix(0.195313 0 0 0.195313 0 3.05176e-05)" d="M166.225 106.55C176.546 105.566 180.342 121.576 167.619 125.519C155.671 123.497 154.574 108.994 166.225 106.55Z"/>
	<path fill="#79C57A" transform="matrix(0.195313 0 0 0.195313 0 3.05176e-05)" d="M197.026 106.55C210.08 107.281 210.413 121.461 199.563 125.519C187.258 125.375 185.323 110.086 197.026 106.55Z"/>
	<path fill="#FEFEFE" transform="matrix(0.195313 0 0 0.195313 0 3.05176e-05)" d="M134.84 106.55C146.149 106.277 148.053 123.551 134.84 125.519C122.024 124.184 122.104 107.676 134.84 106.55Z"/>
	<path fill="#59A1E1" transform="matrix(0.195313 0 0 0.195313 0 3.05176e-05)" d="M342.039 103.735C357.219 104.092 372.495 103.729 387.684 103.728C393.74 103.727 402.253 103.163 408.022 104.116C422.351 106.483 419.775 127.003 405.479 127.263L348.179 127.268C343.666 127.264 337.64 127.949 333.811 125.042C325.079 118.412 328.436 104.855 342.039 103.735Z"/>
	<path fill="#DFE7F0" transform="matrix(0.195313 0 0 0.195313 0 3.05176e-05)" d="M439.24 144.26L439.24 373.52L414.113 373.52C414.178 375.333 414.347 377.217 414.113 379.019C413.288 396.396 392.313 393.676 380.744 393.672L133.464 393.676C118.714 393.68 99.133 394.009 97.8134 373.52L97.8133 198.104C97.814 188.987 95.5498 174.886 101.911 167.564C101.681 164.76 101.868 161.936 101.887 159.126L101.911 144.26L439.24 144.26Z"/>
	<path fill="#79C57A" transform="matrix(0.195313 0 0 0.195313 0 3.05176e-05)" d="M202.27 254.635C203.119 254.577 203.906 254.545 204.753 254.635C211.632 255.283 213.904 256.335 222.09 256.075L222.899 256.075C216.072 269.795 204.755 280.424 189.967 285.038L189.967 280.867C191.679 279.255 193.979 277.749 195.305 275.831C202.015 269.8 202.777 263.39 202.27 254.635Z"/>
	<path fill="#98E4F9" transform="matrix(0.195313 0 0 0.195313 0 3.05176e-05)" d="M324.866 362.466C325.327 363.56 324.708 365.664 324.391 366.789C321.464 377.182 297.874 373.523 288.781 373.522L274.406 373.527C267.592 373.557 259.234 375.466 255.62 368.073C254.766 366.325 253.825 363.178 254.494 361.292C258.776 368.806 263.344 367.808 270.98 367.797L306.528 367.778C314.307 367.774 319.492 369.24 324.866 362.466Z"/>
	<path fill="#EF9F63" transform="matrix(0.195313 0 0 0.195313 0 3.05176e-05)" d="M395.899 353.932C395.511 364.637 389.494 362.481 381.168 362.482L365.545 362.481C359.591 362.478 350.737 362.951 345.189 362.288C338.756 361.52 340.487 352.995 340.493 348.489L340.543 329.995C340.569 324.354 337.717 312.676 346.001 312.099L345.988 335.971C345.974 356.22 344.594 353.938 363.199 353.934L388.649 353.894C389.983 353.887 394.905 353.461 395.899 353.932Z"/>
	<path fill="#A8C1DA" transform="matrix(0.195313 0 0 0.195313 0 3.05176e-05)" d="M263.82 243.764L316.607 243.78C320.782 243.78 334.604 243.176 337.787 244.106C343.279 245.709 341.093 252.002 336.964 253.691C332.609 253.916 328.134 253.701 323.767 253.699L274.952 253.684C271.523 253.683 267.939 253.926 264.527 253.695C257.348 253.21 256.866 244.648 263.82 243.764Z"/>
	<path fill="#A8C1DA" transform="matrix(0.195313 0 0 0.195313 0 3.05176e-05)" d="M262.817 284.212C286.334 283.869 312.013 283.455 335.501 284.16C342.437 284.368 343.514 292.183 337.738 294.11C321.475 294.329 305.18 294.106 288.913 294.106L271.827 294.119C268.489 294.138 265.127 294.331 261.796 294.11C258.056 290.628 257.975 286.329 262.817 284.212Z"/>
	<path fill="#A8C1DA" transform="matrix(0.195313 0 0 0.195313 0 3.05176e-05)" d="M263.82 203.976L312.942 203.98C320.515 203.981 328.299 203.559 335.85 203.934C342.835 204.281 344.244 212.715 336.964 214.021L271.9 214.001C268.672 214.009 263.548 214.933 260.729 212.939C256.649 210.052 259.427 204.386 263.82 203.976Z"/>
	<path fill="#59A1E1" transform="matrix(0.195313 0 0 0.195313 0 3.05176e-05)" d="M113.724 379.019C113.989 365.651 111.898 337.533 113.979 325.694C116.3 312.486 126.675 303.432 139.698 301.087C139.09 303.257 134.994 305.319 133.445 307.064C125.004 316.575 126.966 330.635 126.966 342.345L126.974 379.019L113.724 379.019Z"/>
	<path fill="#79C57A" transform="matrix(0.195313 0 0 0.195313 0 3.05176e-05)" d="M134.84 195.275C135.346 196.376 133.679 204.193 133.524 206.026C132.546 217.582 131.956 229.329 132.271 240.931C131.827 248.344 133.342 254.101 141.691 254.635C142.013 263.943 144.156 272.116 151.124 278.735C153.103 280.615 155.469 282.014 157.133 284.212L157.133 284.212C149.07 284.33 138.684 276.587 133.173 271.147C111.718 249.965 114.316 215.968 134.84 195.275Z"/>
	<path fill="#4878B0" transform="matrix(0.195313 0 0 0.195313 0 3.05176e-05)" d="M259.464 179.773C270.104 179.526 280.808 179.773 291.454 179.774L381.162 179.755C385.309 179.75 400.018 177.441 397.08 185.882C396.526 187.474 395.527 188.293 394.068 189.038C389.526 189.378 384.719 189.057 380.155 189.047L268.551 189.059C265.525 189.062 261.4 189.569 258.529 188.734C254.385 187.527 254.301 182.216 259.464 179.773Z"/>
	<path fill="#A8C1DA" transform="matrix(0.195313 0 0 0.195313 0 3.05176e-05)" d="M262.817 264.791C266.016 264.332 271.198 264.767 274.603 264.775L356.802 264.793C362.158 264.792 394.562 262.606 396.178 267.994C397.087 271.022 395.959 273.652 392.854 274.527C387.077 274.822 381.166 274.533 375.375 274.53L291.458 274.526C282.942 274.531 274.382 274.743 265.872 274.517C256.106 274.259 257.831 265.547 262.817 264.791Z"/>
	<path fill="#A8C1DA" transform="matrix(0.195313 0 0 0.195313 0 3.05176e-05)" d="M263.82 224.186C267.179 223.73 272.823 224.181 276.435 224.189L363.004 224.192C371.847 224.191 380.772 223.918 389.605 224.121C396.893 224.288 399.609 232.875 392.029 233.974L278.96 233.988C272.885 233.99 264.005 235.509 259.464 231.534C257.976 227.432 259.414 224.482 263.82 224.186Z"/>
	<path fill="#FCC632" transform="matrix(0.195313 0 0 0.195313 0 3.05176e-05)" d="M346.001 312.099L376.659 312.094C397.06 312.09 395.918 309.227 395.916 331.233C395.915 338.713 396.463 346.486 395.899 353.932C394.905 353.461 389.983 353.887 388.649 353.894L363.199 353.934C344.594 353.938 345.974 356.22 345.988 335.971L346.001 312.099Z"/>
	<path fill="#FEFEFE" transform="matrix(0.195313 0 0 0.195313 0 3.05176e-05)" d="M254.494 361.292L254.484 335.254C254.48 329.358 254.061 323.044 254.986 317.224C256.782 305.909 267.608 308.2 276.162 308.195L301.588 308.195C326.172 308.212 324.881 306.585 324.88 333.231C324.88 337.426 324.129 359.648 324.866 362.466C319.492 369.24 314.307 367.774 306.528 367.778L270.98 367.797C263.344 367.808 258.776 368.806 254.494 361.292Z"/>
	<path fill="#F27A75" transform="matrix(0.195313 0 0 0.195313 0 3.05176e-05)" d="M288.135 315.806C291.56 315.501 293.576 317.037 295.413 319.885C295.518 324.058 295.319 328.24 295.413 332.418C299.595 332.517 305.938 331.294 309.255 334.424C311.773 336.799 311.279 340.854 308.948 343.168C305.791 346.302 299.555 345.239 295.413 345.223C295.292 351.966 297.32 357.058 290.801 361.292C280.764 360.848 282.712 352.627 282.681 345.223C279.036 344.898 272.824 345.928 269.953 343.454C267.316 341.181 267.376 336.709 269.756 334.285C272.533 331.457 279.05 332.395 282.681 332.418L282.681 319.885C284.214 317.56 285.525 316.655 288.135 315.806Z"/>
	<path fill="#AAD387" transform="matrix(0.195313 0 0 0.195313 0 3.05176e-05)" d="M134.84 195.275C141.294 186.429 155.255 180.58 165.79 178.908C209.692 171.94 242.793 220.283 222.899 256.075L222.09 256.075C213.904 256.335 211.632 255.283 204.753 254.635C203.906 254.545 203.119 254.577 202.27 254.635C202.271 249.46 201.846 244.055 202.27 238.914C202.526 235.988 203.089 233.068 201.477 230.44C194.273 226.566 193.419 222.752 182.831 220.164C177.119 218.767 158.421 222.363 157.133 214.021C157.235 213.632 157.177 213.357 157.133 212.963C156.377 212.181 155.684 211.312 154.968 210.491C148.277 214.462 145.183 220.637 141.691 227.299C141.769 229.94 141.719 232.582 141.691 235.223C137.722 235.744 134.263 237.3 132.271 240.931C131.956 229.329 132.546 217.582 133.524 206.026C133.679 204.193 135.346 196.376 134.84 195.275Z"/>
	<path fill="#EF9F63" transform="matrix(0.195313 0 0 0.195313 0 3.05176e-05)" d="M206.743 238.068C207.923 238.914 209.086 239.873 210.082 240.931L211.702 243.764C211.918 247.825 209.34 253.991 204.753 254.635C203.906 254.545 203.119 254.577 202.27 254.635C202.271 249.46 201.846 244.055 202.27 238.914C203.758 238.524 205.283 238.463 206.743 238.068Z"/>
	<path fill="#8D1A03" transform="matrix(0.195313 0 0 0.195313 0 3.05176e-05)" d="M141.691 227.299C140.887 213.725 141.005 199.343 157.133 196.285C155.753 200.335 155.82 208.854 154.968 210.491C148.277 214.462 145.183 220.637 141.691 227.299Z"/>
	<path fill="#C0523C" transform="matrix(0.195313 0 0 0.195313 0 3.05176e-05)" d="M157.133 196.285C164.397 196.063 184.341 195.541 190.325 197.081C210.98 202.396 205.584 223.288 206.743 238.068C205.283 238.463 203.758 238.524 202.27 238.914C202.526 235.988 203.089 233.068 201.477 230.44C194.273 226.566 193.419 222.752 182.831 220.164C177.119 218.767 158.421 222.363 157.133 214.021C157.235 213.632 157.177 213.357 157.133 212.963C156.377 212.181 155.684 211.312 154.968 210.491C155.82 208.854 155.753 200.335 157.133 196.285Z"/>
	<path fill="#EF9F63" transform="matrix(0.195313 0 0 0.195313 0 3.05176e-05)" d="M157.133 214.021C165.444 220.919 196.148 212.996 201.477 230.44C194.273 226.566 193.419 222.752 182.831 220.164C177.119 218.767 158.421 222.363 157.133 214.021Z"/>
	<path fill="#F0C7A6" transform="matrix(0.195313 0 0 0.195313 0 3.05176e-05)" d="M154.968 210.491C155.684 211.312 156.377 212.181 157.133 212.963C157.177 213.357 157.235 213.632 157.133 214.021C158.421 222.363 177.119 218.767 182.831 220.164C193.419 222.752 194.273 226.566 201.477 230.44C203.089 233.068 202.526 235.988 202.27 238.914C201.846 244.055 202.271 249.46 202.27 254.635C202.777 263.39 202.015 269.8 195.305 275.831C193.979 277.749 191.679 279.255 189.967 280.867L189.967 285.038L189.967 285.038L189.967 289.196C183.819 294.203 166.992 300.295 159.073 304.673C158.21 303.594 157.617 302.372 157.133 301.087C157.125 295.692 157.661 289.503 157.133 284.212L157.133 284.212C155.469 282.014 153.103 280.615 151.124 278.735C144.156 272.116 142.013 263.943 141.691 254.635C133.342 254.101 131.827 248.344 132.271 240.931C134.263 237.3 137.722 235.744 141.691 235.223C141.719 232.582 141.769 229.94 141.691 227.299C145.183 220.637 148.277 214.462 154.968 210.491Z"/>
	<path fill="#EF9F63" transform="matrix(0.195313 0 0 0.195313 0 3.05176e-05)" d="M154.968 210.491C155.684 211.312 156.377 212.181 157.133 212.963C152.09 219.423 151.328 245.513 152.381 253.72C154.495 270.209 166.934 281.076 183.753 278.685C187.725 278.12 191.407 276.594 195.305 275.831C193.979 277.749 191.679 279.255 189.967 280.867L189.967 285.038L189.967 285.038L189.967 289.196C183.819 294.203 166.992 300.295 159.073 304.673C158.21 303.594 157.617 302.372 157.133 301.087C157.125 295.692 157.661 289.503 157.133 284.212L157.133 284.212C155.469 282.014 153.103 280.615 151.124 278.735C144.156 272.116 142.013 263.943 141.691 254.635C133.342 254.101 131.827 248.344 132.271 240.931C134.263 237.3 137.722 235.744 141.691 235.223C141.719 232.582 141.769 229.94 141.691 227.299C145.183 220.637 148.277 214.462 154.968 210.491Z"/>
	<path fill="#F27A75" transform="matrix(0.195313 0 0 0.195313 0 3.05176e-05)" d="M167.619 287.269C177.117 287.888 181.919 284.913 189.967 280.867L189.967 285.038L189.967 285.038C183.665 287.844 174.214 290.386 167.619 287.269Z"/>
	<path fill="#50C6F2" transform="matrix(0.195313 0 0 0.195313 0 3.05176e-05)" d="M189.967 289.196C189.965 292.78 189.816 296.425 189.967 300.001C201.753 299.57 212.51 299.077 221.777 307.647C232.653 317.704 230.51 331.781 230.505 345.122L230.506 379.019C226.963 379.213 218 379.516 214.566 379.019C211.736 378.99 208.904 379.013 206.073 379.019L142.954 379.019L134.84 379.019C132.218 379.079 129.595 379.04 126.974 379.019L126.966 342.345C126.966 330.635 125.004 316.575 133.445 307.064C134.994 305.319 139.09 303.257 139.698 301.087C143.06 299.905 154.085 299.198 157.133 301.087C157.617 302.372 158.21 303.594 159.073 304.673C166.992 300.295 183.819 294.203 189.967 289.196Z"/>
	<path fill="#59A1E1" transform="matrix(0.195313 0 0 0.195313 0 3.05176e-05)" d="M134.84 342.525C137.55 342.586 140.243 342.636 142.954 342.525L142.954 379.019L134.84 379.019L134.84 342.525Z"/>
	<path fill="#59A1E1" transform="matrix(0.195313 0 0 0.195313 0 3.05176e-05)" d="M206.073 342.525L214.566 342.525C214.56 354.685 214.419 366.861 214.566 379.019C211.736 378.99 208.904 379.013 206.073 379.019C206.378 367.49 206.489 354.033 206.073 342.525Z"/>
	<path fill="#F0C7A6" transform="matrix(0.195313 0 0 0.195313 0 3.05176e-05)" d="M189.967 289.196C189.965 292.78 189.816 296.425 189.967 300.001C185.844 314.485 168.89 314.653 159.073 304.673C166.992 300.295 183.819 294.203 189.967 289.196Z"/>
	<path fill="#98E4F9" transform="matrix(0.195313 0 0 0.195313 0 3.05176e-05)" d="M439.24 144.26L439.24 373.52L414.113 373.52C414.178 375.333 414.347 377.217 414.113 379.019C413.771 371.696 414.105 364.235 414.109 356.895L414.198 182.284C414.265 165.291 398.434 164.19 386.146 164.194L123.348 164.205C117.806 158.257 106.857 162.318 101.911 167.564C101.681 164.76 101.868 161.936 101.887 159.126L101.911 144.26L439.24 144.26Z"/>
</svg>
