<?xml version="1.0" encoding="utf-8" ?>
<svg xmlns="http://www.w3.org/2000/svg" xmlns:xlink="http://www.w3.org/1999/xlink" width="100" height="100">
	<path fill="#C098ED" transform="matrix(0.195313 0 0 0.195313 0.00012207 3.05176e-05)" d="M137.277 353.808C145.354 352.667 149.034 365.446 138.725 369.05C128.777 367.873 127.587 356.566 137.277 353.808Z"/>
	<path fill="#C098ED" transform="matrix(0.195313 0 0 0.195313 0.00012207 3.05176e-05)" d="M305.638 213.22C315.394 210.952 317.971 225.387 308.502 227.89C297.57 228.872 296.187 214.825 305.638 213.22Z"/>
	<path fill="#AABCF8" transform="matrix(0.195313 0 0 0.195313 0.00012207 3.05176e-05)" d="M367.625 369.05C377.545 368.107 379.815 381.927 370.343 384.238C359.347 384.495 357.442 371.698 367.625 369.05Z"/>
	<path fill="#FC9A8E" transform="matrix(0.195313 0 0 0.195313 0.00012207 3.05176e-05)" d="M289.568 288.212C291.654 288.125 293.701 288.047 295.787 288.212C312.424 297.915 306.451 316.404 289.568 316.795C286.079 316.618 288.631 313.48 289.125 309.538C289.987 302.653 289.714 295.148 289.568 288.212Z"/>
	<path fill="#FC9A8E" transform="matrix(0.195313 0 0 0.195313 0.00012207 3.05176e-05)" d="M210.623 316.795C189.518 316.901 187.12 293.827 203.383 288.212C205.221 287.985 207.12 287.877 208.952 288.212C208.828 296.472 208.136 309.12 210.623 316.795Z"/>
	<path fill="#C31A49" transform="matrix(0.195313 0 0 0.195313 0.00012207 3.05176e-05)" d="M335.224 313.661C338.163 316.895 341.607 319.975 344.269 323.413C344.905 331.532 343.221 341.776 344.269 349.109C339.296 352.061 334.247 354.88 329.289 357.857C329.267 349.548 333.077 322.316 335.224 313.661Z"/>
	<path fill="#18EA7C" transform="matrix(0.195313 0 0 0.195313 0.00012207 3.05176e-05)" d="M121.63 314.756L88.3707 314.767C75.6908 314.769 60.7007 317.665 60.2527 299.714C59.982 288.865 60.2341 277.948 60.2224 267.093C60.2062 252.177 57.659 238.231 77.2961 237.929C75.0599 240.676 72.5463 242.178 71.3137 245.709C69.4661 251.003 69.7288 287.55 70.3159 295.664C71.3959 310.588 84.1229 308.159 94.9162 308.156C105.053 308.153 115.205 308.034 125.34 308.148C131.407 313.492 137.754 320.442 143.652 326.198C147.793 330.24 152.348 331.723 152.736 337.293C149.301 344.382 142.615 335.583 139.742 332.694L128.395 321.295C126.18 319.076 124.084 316.72 121.63 314.756Z"/>
	<path fill="#5056C2" transform="matrix(0.195313 0 0 0.195313 0.00012207 3.05176e-05)" d="M203.383 288.212C202.887 270.908 200.979 251.384 213.454 238.147C229.697 220.913 258.123 224.027 271.747 242.551C293.137 242.399 295.846 253.207 295.807 271.855L295.787 288.212C293.701 288.047 291.654 288.125 289.568 288.212C289.626 280.488 289.992 273.029 284.145 267.054C271.492 254.123 254.422 267.069 239.624 263.783C235.355 262.836 231.218 260.961 226.762 261.597C206.515 264.487 212.944 287.577 208.952 288.212C207.12 287.877 205.221 287.985 203.383 288.212Z"/>
	<path fill="#FCBA6B" transform="matrix(0.195313 0 0 0.195313 0.00012207 3.05176e-05)" d="M167.969 211.737L148.513 211.761C132.812 211.774 122.833 211.455 122.653 192.717L122.636 153.395C122.635 144.821 120.31 129.191 126.985 122.643C132.669 117.067 141.961 119.025 149.302 118.993C147.113 121.923 143.924 123.773 142.827 127.471C141.308 132.592 141.986 141.101 141.982 146.582L141.98 185.134C141.994 202.261 145.144 204.522 161.571 204.485L178.035 204.442L178.008 217.519C177.999 219.852 177.827 222.272 178.035 224.592C185.253 219.963 191.847 208.366 198.983 204.442C206.317 204.14 213.77 204.442 221.119 204.442L264.418 204.451C266.046 204.455 279.428 203.989 279.942 204.442C273.794 214.106 262.346 211.741 252.501 211.744L219.782 211.731C214.351 211.726 208.798 211.468 203.383 211.737C198.32 216.981 193.055 222.014 187.951 227.214C183.764 231.479 177.339 240.666 170.767 240.777L170.448 240.78L167.969 239.283C167.527 236.55 167.931 233.421 167.943 230.631L167.969 211.737Z"/>
	<path fill="#FCD0BE" transform="matrix(0.195313 0 0 0.195313 0.00012207 3.05176e-05)" d="M208.952 288.212C212.944 287.577 206.515 264.487 226.762 261.597C231.218 260.961 235.355 262.836 239.624 263.783C254.422 267.069 271.492 254.123 284.145 267.054C289.992 273.029 289.626 280.488 289.568 288.212C289.714 295.148 289.987 302.653 289.125 309.538C288.631 313.48 286.079 316.618 289.568 316.795C285.958 317.337 286.454 320.711 285.12 323.539C281.907 330.347 276.15 336.092 270.002 340.293C270.049 341.478 270.142 342.667 270.002 343.847C269.923 342.67 269.985 341.472 270.002 340.293C253.729 349.658 241.871 348.002 226.244 340.293C216.329 331.26 214.474 328.851 210.623 316.795C208.136 309.12 208.828 296.472 208.952 288.212Z"/>
	<path fill="#72EBA0" transform="matrix(0.195313 0 0 0.195313 0.00012207 3.05176e-05)" d="M77.2961 237.929L154.776 237.918C158.3 237.917 165.131 236.749 167.969 239.283L170.448 240.78C173.954 244.848 173.309 249.345 173.264 254.355L173.256 289.712C173.27 310.268 174.477 315.54 152.736 315.451L152.751 331.251C152.756 333.135 153.083 335.465 152.736 337.293C152.348 331.723 147.793 330.24 143.652 326.198C137.754 320.442 131.407 313.492 125.34 308.148C115.205 308.034 105.053 308.153 94.9162 308.156C84.1229 308.159 71.3959 310.588 70.3159 295.664C69.7288 287.55 69.4661 251.003 71.3137 245.709C72.5463 242.178 75.0599 240.676 77.2961 237.929ZM86.3864 266.046C82.5596 266.399 81.3061 270.339 84.0269 273.108C88.2033 274.378 102.2 273.737 107.334 273.738L145.864 273.731C150.368 273.039 149.782 268.639 147.506 266.046C140.571 265.735 133.489 266.045 126.536 266.045L86.3864 266.046Z"/>
	<path fill="#FEFEFE" transform="matrix(0.195313 0 0 0.195313 0.00012207 3.05176e-05)" d="M84.9726 283.214L108.714 283.199C112.22 283.2 126.474 281.113 123.775 288.632C123.364 289.777 122.659 290.095 121.63 290.602C119.071 290.825 116.35 290.641 113.773 290.634L97.6525 290.562C94.5255 290.551 79.9244 292.74 82.6219 285.343C83.0447 284.184 83.956 283.781 84.9726 283.214Z"/>
	<path fill="#FCCD83" transform="matrix(0.195313 0 0 0.195313 0.00012207 3.05176e-05)" d="M149.302 118.993L232.752 118.993C236.502 119.015 240.261 119.084 244.01 118.993L244.001 154.259C244.003 166.296 241.461 181.283 256.772 185.668C263.846 187.693 274.666 186.658 282.265 186.487C282.292 188.135 282.289 189.779 282.265 191.427C282.318 195.457 283.083 201.327 279.942 204.442C279.428 203.989 266.046 204.455 264.418 204.451L221.119 204.442C213.77 204.442 206.317 204.14 198.983 204.442C191.847 208.366 185.253 219.963 178.035 224.592C177.827 222.272 177.999 219.852 178.008 217.519L178.035 204.442L161.571 204.485C145.144 204.522 141.994 202.261 141.98 185.134L141.982 146.582C141.986 141.101 141.308 132.592 142.827 127.471C143.924 123.773 147.113 121.923 149.302 118.993ZM155.335 150.767L152.736 150.767C147.148 155.907 150.749 158.548 157.359 158.566L213.134 158.558C219.084 158.549 219.332 151.636 214.793 151.044C208.352 150.205 200.688 150.764 194.126 150.768L155.335 150.767ZM161.148 169.329C157.325 169.36 150.306 167.83 150.431 173.427C150.548 178.656 162.138 176.89 165.418 176.893L188.253 176.884C191.149 176.903 198.788 177.953 198.526 173.187C198.209 167.439 188.639 169.352 184.949 169.34L161.148 169.329Z"/>
	<path fill="#FCBA6B" transform="matrix(0.195313 0 0 0.195313 0.00012207 3.05176e-05)" d="M232.752 118.993C236.502 119.015 240.261 119.084 244.01 118.993L244.001 154.259C244.003 166.296 241.461 181.283 256.772 185.668C263.846 187.693 274.666 186.658 282.265 186.487C282.292 188.135 282.289 189.779 282.265 191.427C280.355 191.957 256.807 191.478 252.516 191.4C229.44 190.981 232.756 169.91 232.755 154.392C232.755 142.614 232.456 130.763 232.752 118.993Z"/>
	<defs>
		<linearGradient id="gradient_0" gradientUnits="userSpaceOnUse" x1="323.94217" y1="303.40747" x2="445.13232" y2="247.537">
			<stop offset="0" stop-color="#E7315A"/>
			<stop offset="1" stop-color="#F37875"/>
		</linearGradient>
	</defs>
	<path fill="url(#gradient_0)" transform="matrix(0.195313 0 0 0.195313 0.00012207 3.05176e-05)" d="M335.224 313.661C332.983 310.047 330.3 306.765 328.318 302.98C303.818 256.18 349.087 198.31 401.712 211.38C457.872 225.327 470.406 301.026 419.777 330.42C402.965 340.18 385.83 340.281 367.625 336.017C359.644 340.063 352.145 344.901 344.269 349.109C343.221 341.776 344.905 331.532 344.269 323.413C341.607 319.975 338.163 316.895 335.224 313.661ZM381.452 237.929C373.062 241.633 375.808 251.503 375.756 258.975C358.001 258.919 354.476 256.736 355.222 274.908C355.673 285.868 368.328 282.499 375.756 282.602C375.697 301.259 372.064 304.522 394.114 303.744C403.413 302.196 400.164 289.665 400.258 282.602C407.165 283.38 419.579 285.002 420.233 275.67C421.61 256.047 415.117 259.334 400.258 258.975C400.334 238.582 402.205 237.886 381.452 237.929Z"/>
	<path fill="#C098ED" transform="matrix(0.195313 0 0 0.195313 0.00012207 3.05176e-05)" d="M226.244 340.293C241.871 348.002 253.729 349.658 270.002 340.293C269.985 341.472 269.923 342.67 270.002 343.847L270.002 352.621C275.204 352.13 279.871 352.86 284.959 353.808C307.172 359.291 325.134 371.04 337.253 391.028C342.534 399.739 348.489 415.379 345.974 425.449C342.569 439.086 327.405 436.542 316.723 436.636L316.723 436.636C312.663 437.197 303.78 436.64 299.228 436.633L190.854 436.68C187.985 436.71 184.964 436.943 182.113 436.636L182.113 436.636C178.376 436.991 174.203 436.758 170.448 436.636L166.172 436.537C127.137 435.702 166.526 350.497 226.244 352.621C226.082 348.538 226.243 344.384 226.244 340.293Z"/>
	<path fill="#A778F0" transform="matrix(0.195313 0 0 0.195313 0.00012207 3.05176e-05)" d="M182.113 436.636C179.897 432.146 180.086 413.967 181.23 410.593C182.393 407.163 187.207 407.495 187.992 410.875C188.99 415.174 189.245 431.983 186.402 436.345L186.209 436.636C184.89 436.607 183.412 436.436 182.113 436.636L182.113 436.636Z"/>
	<path fill="#A778F0" transform="matrix(0.195313 0 0 0.195313 0.00012207 3.05176e-05)" d="M309.032 436.636L309.023 419.559C309.014 415.113 307.341 405.394 314.6 406.063C316.431 406.232 317.824 407.529 318.768 409.01C319.287 415.918 319.419 430.78 316.723 436.636L316.723 436.636C314.164 436.362 311.595 436.486 309.032 436.636Z"/>
	<path fill="#A778F0" transform="matrix(0.195313 0 0 0.195313 0.00012207 3.05176e-05)" d="M226.244 340.293C241.871 348.002 253.729 349.658 270.002 340.293C269.985 341.472 269.923 342.67 270.002 343.847L270.002 352.621C275.204 352.13 279.871 352.86 284.959 353.808C283.106 388.381 245.616 409.464 221.254 382.18C214.544 374.664 212.729 366.85 211.982 357.101C192.407 366.029 177.537 382.8 170.054 402.989C167.77 409.153 163.873 422.425 166.738 428.844C168.222 432.17 170.985 433.683 172.876 436.403L170.448 436.636L166.172 436.537C127.137 435.702 166.526 350.497 226.244 352.621C226.082 348.538 226.243 344.384 226.244 340.293Z"/>
	<path fill="#FC9A8E" transform="matrix(0.195313 0 0 0.195313 0.00012207 3.05176e-05)" d="M226.244 340.293C241.871 348.002 253.729 349.658 270.002 340.293C269.985 341.472 269.923 342.67 270.002 343.847L270.002 352.621C270.024 359.777 269.889 365.688 264.508 371.045C250.219 385.271 225.101 372.534 226.244 352.621C226.082 348.538 226.243 344.384 226.244 340.293Z"/>
	<path fill="#C5EFF6" transform="matrix(0.195313 0 0 0.195313 0.00012207 3.05176e-05)" d="M270.749 72.238L371.952 72.2274C395.706 72.2192 399.703 75.6044 399.705 99.6387L399.827 170.636C399.825 171.017 399.84 171.595 399.69 171.941C397.919 188.304 382.115 186.344 370.343 186.487C367.329 187.801 352.262 206.452 350.123 209.724C346.844 211.956 345.527 213.468 341.279 213.22C335.257 209.887 323.124 192.417 316.723 186.487C305.242 186.37 293.748 186.48 282.265 186.487C274.666 186.658 263.846 187.693 256.772 185.668C241.461 181.283 244.003 166.296 244.001 154.259L244.01 118.993C244.364 107.129 241.224 85.5551 249.567 77.2228C255.515 71.2835 263.03 72.2052 270.749 72.238Z"/>
	<path fill="#92DFEF" transform="matrix(0.195313 0 0 0.195313 0.00012207 3.05176e-05)" d="M370.343 186.487C369.429 185.481 372.791 182.371 373.471 181.581C380.732 173.149 384.058 179.175 392.104 176.013C396.398 174.325 399.316 168.02 399.69 171.941C397.919 188.304 382.115 186.344 370.343 186.487Z"/>
	<path fill="#A778F0" transform="matrix(0.195313 0 0 0.195313 0.00012207 3.05176e-05)" d="M304.997 144.383C286.86 144.454 282.483 146.21 285.089 125.291C285.598 121.203 287.858 119.343 291.748 118.163C291.344 122.394 291.442 131.736 291.748 136.081C296.04 141.158 305.61 139.278 311.512 139.263C311.487 156.791 307.131 160.144 325.928 160.05C327.04 160.119 328.174 160.061 329.289 160.05C327.148 164.47 325.596 165.783 320.461 165.95C301.949 166.555 304.937 160.333 304.997 144.383Z"/>
	<path fill="#FEFEFE" transform="matrix(0.195313 0 0 0.195313 0.00012207 3.05176e-05)" d="M311.512 98.0615C313.815 94.9894 330.084 95.9575 332.413 97.6549C335.17 99.6635 333.769 113.868 333.759 117.262C337.439 117.251 351.743 116.409 353.901 118.564C355.832 120.492 357.07 137.524 351.967 139.263C353.441 145.534 336.314 144.391 333.759 144.383C333.668 148.416 333.937 152.488 333.759 156.511C332.611 158.077 331.53 159.086 329.815 160.05C328.522 160.013 327.218 159.929 325.928 160.05C307.131 160.144 311.487 156.791 311.512 139.263C305.61 139.278 296.04 141.158 291.748 136.081C291.442 131.736 291.344 122.394 291.748 118.163C296.185 117.387 300.507 117.314 304.997 117.262C305.13 109.191 301.361 100.481 311.512 98.0615Z"/>
	<path fill="#A778F0" transform="matrix(0.195313 0 0 0.195313 0.00012207 3.05176e-05)" d="M351.967 139.263C353.441 145.534 336.314 144.391 333.759 144.383C333.907 142.688 333.803 140.962 333.759 139.263L351.967 139.263Z"/>
	<path fill="#A778F0" transform="matrix(0.195313 0 0 0.195313 0.00012207 3.05176e-05)" d="M304.997 117.262C305.13 109.191 301.361 100.481 311.512 98.0615C311.255 104.437 311.535 110.877 311.512 117.262L304.997 117.262Z"/>
	<path fill="#92DFEF" transform="matrix(0.195313 0 0 0.195313 0.00012207 3.05176e-05)" d="M244.01 118.993C244.364 107.129 241.224 85.5551 249.567 77.2228C255.515 71.2835 263.03 72.2052 270.749 72.238C270.261 73.2226 269.264 73.6278 268.382 74.2707C259.956 80.4163 261.83 89.8933 261.833 99.1244L261.832 148.575C261.843 176.084 259.967 176.192 290.803 176.202L320.63 176.19C324.677 180.993 347.771 208.417 350.123 209.724C346.844 211.956 345.527 213.468 341.279 213.22C335.257 209.887 323.124 192.417 316.723 186.487C305.242 186.37 293.748 186.48 282.265 186.487C274.666 186.658 263.846 187.693 256.772 185.668C241.461 181.283 244.003 166.296 244.001 154.259L244.01 118.993Z"/>
</svg>
