<?xml version="1.0" encoding="utf-8" ?>
<svg xmlns="http://www.w3.org/2000/svg" xmlns:xlink="http://www.w3.org/1999/xlink" width="100" height="100">
	<path fill="#465F77" transform="matrix(0.195312 0 0 0.195312 0.00012207 3.05176e-05)" d="M76.2693 173.086L76.2432 148.86C76.2345 138.968 74.8272 127.335 86.8681 123.608C91.6275 122.136 107.566 122.837 113.294 122.846C103.02 129.086 103.499 135.834 103.501 146.647L103.538 163.543C103.553 166.717 103.744 169.919 103.518 173.086L103.518 173.086C94.4623 172.839 85.3333 173.083 76.2693 173.086Z"/>
	<defs>
		<linearGradient id="gradient_0" gradientUnits="userSpaceOnUse" x1="351.38885" y1="189.30342" x2="453.90286" y2="131.347">
			<stop offset="0" stop-color="#F04848"/>
			<stop offset="1" stop-color="#FF7D7C"/>
		</linearGradient>
	</defs>
	<path fill="url(#gradient_0)" transform="matrix(0.195312 0 0 0.195312 0.00012207 3.05176e-05)" d="M356.062 122.846C370.078 108.492 382.216 100.682 402.938 100.436C455.623 99.8105 481.525 166.036 444.822 202.744C435.686 211.882 423.245 218.773 410.246 220.027C377.348 220.962 353.673 205.826 344.423 173.086C341.624 152.654 343.656 139.92 356.062 122.846ZM392.735 128.352L392.735 149.224L372.741 149.224L372.741 173.086C375.383 173.323 378.045 173.141 380.693 173.121L392.735 173.086L392.735 195.131C395.213 195.288 397.773 195.142 400.263 195.138L415.532 195.131L415.532 173.086L436.24 173.086L436.24 149.224C432.159 148.621 420.006 149.058 415.532 149.224C415.96 142.364 415.543 135.237 415.532 128.352L415.552 128.231C414.766 127.904 395.32 128.313 392.735 128.352Z"/>
	<path fill="#FB4D4D" transform="matrix(0.195312 0 0 0.195312 0.00012207 3.05176e-05)" d="M390.512 197.405C389.716 195.509 391.157 194.954 392.735 195.131C392.557 197.143 392.784 198.216 390.512 197.405Z"/>
	<path fill="#6480A8" transform="matrix(0.195312 0 0 0.195312 0.00012207 3.05176e-05)" d="M113.294 122.846L259.419 122.847C288.563 122.847 317.754 122.5 346.894 122.846L356.062 122.846C343.656 139.92 341.624 152.654 344.423 173.086C339.036 173.235 333.622 173.106 328.232 173.086L226.86 173.086L103.518 173.086C103.744 169.919 103.553 166.717 103.538 163.543L103.501 146.647C103.499 135.834 103.02 129.086 113.294 122.846Z"/>
	<path fill="#FBFCFC" transform="matrix(0.195312 0 0 0.195312 0.00012207 3.05176e-05)" d="M139.573 141.729L154.491 141.729L154.491 156.039L139.573 156.039C139.37 151.299 139.564 146.477 139.573 141.729Z"/>
	<path fill="#FBFCFC" transform="matrix(0.195312 0 0 0.195312 0.00012207 3.05176e-05)" d="M111.252 141.729L125.991 141.729C125.99 143.821 126.397 155.156 125.991 156.039C121.087 156.069 116.152 156.202 111.252 156.039C111.261 153.114 110.35 144.314 111.171 142.218L110.977 142.091L111.252 141.729Z"/>
	<path fill="#465F77" transform="matrix(0.195312 0 0 0.195312 0.00012207 3.05176e-05)" d="M346.894 122.846L356.062 122.846C343.656 139.92 341.624 152.654 344.423 173.086C339.036 173.235 333.622 173.106 328.232 173.086L328.196 168.622C328.159 153.166 333.254 134.079 344.423 122.846L344.427 122.862C345.293 122.966 346.03 122.967 346.894 122.846Z"/>
	<path fill="#CED7E0" transform="matrix(0.195312 0 0 0.195312 0.00012207 3.05176e-05)" d="M76.2693 173.086C85.3333 173.083 94.4623 172.839 103.518 173.086L103.504 198.457C103.493 202.074 102.954 206.15 103.518 209.702C106.296 203.612 113.532 204.124 119.147 204.193L119.126 277.204C119.124 279.072 118.84 281.376 119.147 283.189C118.004 284.725 116.463 285.866 115.103 287.192C109.437 292.713 107.773 300.399 103.518 306.783C104.173 315.206 102.234 329.604 104.109 336.951C102.818 339.615 103.51 360.483 103.518 364.932C114.606 364.511 125.927 364.938 137.045 364.939L201.085 364.932C205.749 370.336 209.056 376.673 213.635 382.115L278.822 382.115C282.888 377.072 287.392 369.887 291.088 364.439C304.33 365.572 318.266 364.933 331.594 364.932C357.801 364.928 384.042 364.652 410.246 364.932C418.636 364.892 429.635 365.611 437.716 364.932C437.783 400.083 432.893 408.926 396.468 408.936L80.9352 408.979C78.9493 408.995 76.3957 409.338 74.4704 408.934C49.9531 406.433 48.6188 384.119 48.6625 364.932C57.0006 364.082 67.4101 365.395 76.2693 364.932C76.2489 362.942 76.2568 360.952 76.2693 358.961L76.2693 173.086Z"/>
	<path fill="#B1C1D1" transform="matrix(0.195312 0 0 0.195312 0.00012207 3.05176e-05)" d="M48.6625 364.932C50.7473 365.339 74.1413 365.23 76.2693 364.932C76.2386 384.722 74.0005 400.792 96.2961 408.934L81.8075 408.91C79.3943 408.906 76.8723 408.753 74.4704 408.934C49.9531 406.433 48.6188 384.119 48.6625 364.932Z"/>
	<path fill="#4ACDBE" transform="matrix(0.195312 0 0 0.195312 0.00012207 3.05176e-05)" d="M103.518 209.702C106.296 203.612 113.532 204.124 119.147 204.193L119.126 277.204C119.124 279.072 118.84 281.376 119.147 283.189C118.004 284.725 116.463 285.866 115.103 287.192C109.437 292.713 107.773 300.399 103.518 306.783C103.343 304.795 103.599 302.718 103.588 300.716L103.518 233.774C103.515 225.807 103.958 217.636 103.518 209.702Z"/>
	<path fill="#FBFCFC" transform="matrix(0.195312 0 0 0.195312 0.00012207 3.05176e-05)" d="M226.86 173.086L328.232 173.086C333.622 173.106 339.036 173.235 344.423 173.086C353.673 205.826 377.348 220.962 410.246 220.027C410.404 221.942 410.352 223.789 410.246 225.706C410.504 228.301 410.307 230.986 410.284 233.592L410.284 355.261C410.322 358.474 410.526 361.731 410.246 364.932C384.042 364.652 357.801 364.928 331.594 364.932C318.266 364.933 304.33 365.572 291.088 364.439C287.392 369.887 282.888 377.072 278.822 382.115L213.635 382.115C209.056 376.673 205.749 370.336 201.085 364.932L137.045 364.939C125.927 364.938 114.606 364.511 103.518 364.932C103.51 360.483 102.818 339.615 104.109 336.951C102.234 329.604 104.173 315.206 103.518 306.783C107.773 300.399 109.437 292.713 115.103 287.192C116.463 285.866 118.004 284.725 119.147 283.189C118.84 281.376 119.124 279.072 119.126 277.204L119.147 204.193C113.532 204.124 106.296 203.612 103.518 209.702C102.954 206.15 103.493 202.074 103.504 198.457L103.518 173.086L103.518 173.086L226.86 173.086Z"/>
	<path fill="#CED7E0" transform="matrix(0.195312 0 0 0.195312 0.00012207 3.05176e-05)" d="M247.17 304.038L297.506 304.038L297.506 318.246L247.17 318.246L247.17 304.038Z"/>
	<path fill="#CED7E0" transform="matrix(0.195312 0 0 0.195312 0.00012207 3.05176e-05)" d="M247.17 271.953L299.499 271.953L299.499 286.056L247.17 286.056L247.17 271.953Z"/>
	<path fill="#CED7E0" transform="matrix(0.195312 0 0 0.195312 0.00012207 3.05176e-05)" d="M247.17 206.646C255.378 206.887 263.657 206.654 271.875 206.653L320.841 206.646L320.841 221.063C318.918 221.458 316.373 221.14 314.379 221.12L247.17 221.063L247.17 206.646Z"/>
	<path fill="#1B99EF" transform="matrix(0.195312 0 0 0.195312 0.00012207 3.05176e-05)" d="M382.986 334.322C382.484 345.373 378.472 345.93 368.195 345.895L338.166 345.898C320.789 345.888 319.797 344.551 319.786 325.756L319.79 291.83C319.793 284.352 318.78 274.873 328.991 274.133C330.248 274.155 331.5 274.174 332.758 274.133C332.759 284.721 331.966 298.098 332.758 308.456C332.875 309.426 333.064 311.238 332.758 312.168C332.699 317.734 332.617 323.384 332.758 328.945C333.722 330.255 334.584 331.316 335.972 332.212C340.655 332.271 382.26 331.947 382.704 332.134C382.836 332.868 382.933 333.578 382.986 334.322Z"/>
	<path fill="#CED7E0" transform="matrix(0.195312 0 0 0.195312 0.00012207 3.05176e-05)" d="M247.17 239.546L351.183 239.533C367.665 239.525 371.265 235.363 369.431 253.749C365.664 254.168 361.444 253.771 357.63 253.764L247.17 253.749L247.17 239.546Z"/>
	<path fill="#CED7E0" transform="matrix(0.195312 0 0 0.195312 0.00012207 3.05176e-05)" d="M226.86 173.086L328.232 173.086C333.622 173.106 339.036 173.235 344.423 173.086C353.673 205.826 377.348 220.962 410.246 220.027C410.404 221.942 410.352 223.789 410.246 225.706C409.927 230.644 410.23 235.785 410.246 240.743C389.527 240.821 377.231 240.013 359.118 227.096C339.881 213.377 332.028 195.605 328.232 173.086L235.223 173.104C232.542 173.127 229.471 173.568 226.86 173.086Z"/>
	<path fill="#5BD2F8" transform="matrix(0.195312 0 0 0.195312 0.00012207 3.05176e-05)" d="M328.991 274.133C331.793 273.776 334.822 274.062 337.657 274.094L367.468 274.105C385.361 273.958 382.99 277.236 382.994 292.388L383.008 327.164C383.017 329.493 383.237 332.018 382.986 334.322C382.933 333.578 382.836 332.868 382.704 332.134C382.26 331.947 340.655 332.271 335.972 332.212C334.584 331.316 333.722 330.255 332.758 328.945C332.617 323.384 332.699 317.734 332.758 312.168C333.064 311.238 332.875 309.426 332.758 308.456C331.966 298.098 332.759 284.721 332.758 274.133C331.5 274.174 330.248 274.155 328.991 274.133Z"/>
	<path fill="#FBFCFC" transform="matrix(0.195312 0 0 0.195312 0.00012207 3.05176e-05)" d="M366.727 290.887C373.023 292.448 375.852 297 371.246 302.513C366.821 307.808 357.052 318.339 352.016 322.862C344.426 329.679 339.13 317.531 332.758 312.168C333.064 311.238 332.875 309.426 332.758 308.456C335.837 305.004 337.84 303.474 342.402 304.038C344.753 305.155 346.188 306.862 348.17 308.456C352.752 304.224 361.146 292.747 366.33 291.022L366.727 290.887Z"/>
	<path fill="#1B99EF" transform="matrix(0.195312 0 0 0.195312 0.00012207 3.05176e-05)" d="M153.325 269.109C171.415 279.055 169.91 269.738 177.551 269.109C177.509 271.906 177.225 275.041 177.551 277.807C203.017 277.754 211.05 277.327 221.337 301.374C220.537 308.899 221.237 322.027 221.337 329.899C221.832 343.382 216.884 341.997 205.326 341.999L116.091 342.005C111.051 341.992 106.769 341.687 104.109 336.951C102.234 329.604 104.173 315.206 103.518 306.783C107.773 300.399 109.437 292.713 115.103 287.192C116.463 285.866 118.004 284.725 119.147 283.189C123.719 280.817 128.217 278.378 133.427 277.807C135.783 277.417 138.458 277.748 140.857 277.774L153.325 277.807C153.47 274.923 153.349 271.997 153.325 269.109Z"/>
	<path fill="#FD9A66" transform="matrix(0.195312 0 0 0.195312 0.00012207 3.05176e-05)" d="M153.325 269.109C171.415 279.055 169.91 269.738 177.551 269.109C177.509 271.906 177.225 275.041 177.551 277.807C178.699 294.98 153.93 296.372 153.325 277.807C153.47 274.923 153.349 271.997 153.325 269.109Z"/>
	<path fill="#6480A8" transform="matrix(0.195312 0 0 0.195312 0.00012207 3.05176e-05)" d="M133.427 277.807C135.469 277.945 137.528 277.85 139.573 277.807C125.172 284.138 118.582 298.716 125.103 313.414C133.295 331.881 152.811 329.895 169.645 329.908L204.6 329.894C210.106 329.889 215.859 329.514 221.337 329.899C221.832 343.382 216.884 341.997 205.326 341.999L116.091 342.005C111.051 341.992 106.769 341.687 104.109 336.951C102.234 329.604 104.173 315.206 103.518 306.783C107.773 300.399 109.437 292.713 115.103 287.192C116.463 285.866 118.004 284.725 119.147 283.189C123.719 280.817 128.217 278.378 133.427 277.807Z"/>
	<defs>
		<linearGradient id="gradient_1" gradientUnits="userSpaceOnUse" x1="115.75617" y1="263.64291" x2="226.77368" y2="239.81407">
			<stop offset="0" stop-color="#8CECE3"/>
			<stop offset="1" stop-color="#9BDEF9"/>
		</linearGradient>
	</defs>
	<path fill="url(#gradient_1)" transform="matrix(0.195312 0 0 0.195312 0.00012207 3.05176e-05)" d="M119.147 204.193L203.414 204.175C221.191 204.11 221.386 205.077 221.345 224.233L221.34 287.519C221.344 290.859 222.522 298.621 221.337 301.374C211.05 277.327 203.017 277.754 177.551 277.807C177.225 275.041 177.509 271.906 177.551 269.109C169.91 269.738 171.415 279.055 153.325 269.109C153.349 271.997 153.47 274.923 153.325 277.807L140.857 277.774C138.458 277.748 135.783 277.417 133.427 277.807C128.217 278.378 123.719 280.817 119.147 283.189C118.84 281.376 119.124 279.072 119.126 277.204L119.147 204.193Z"/>
	<path fill="#FD9A66" transform="matrix(0.195312 0 0 0.195312 0.00012207 3.05176e-05)" d="M182.8 237.733C183.033 239.787 182.891 241.885 182.8 243.946C184.547 243.903 186.297 243.822 188.042 243.946C197.033 250.286 192.576 257.867 182.8 260.007C182.479 257.67 182.768 255.029 182.779 252.649L182.8 237.733Z"/>
	<path fill="#FD9A66" transform="matrix(0.195312 0 0 0.195312 0.00012207 3.05176e-05)" d="M149.992 243.946C150.529 248.185 149.959 255.369 149.992 260.007C148.797 259.873 147.769 259.725 146.579 260.007C138.798 256.701 136.642 249.733 143.002 243.946C148.221 243.175 146.71 244.277 149.792 244.748L149.992 243.946Z"/>
	<path fill="#845F33" transform="matrix(0.195312 0 0 0.195312 0.00012207 3.05176e-05)" d="M143.002 243.946C143.4 235.291 140.823 220.976 152.15 217.993C154.864 217.278 171.524 217.528 175.363 217.743C190.086 218.569 187.897 233.471 188.042 243.946C186.297 243.822 184.547 243.903 182.8 243.946C182.891 241.885 183.033 239.787 182.8 237.733L149.992 237.733C149.884 239.816 149.833 241.864 149.992 243.946L149.792 244.748C146.71 244.277 148.221 243.175 143.002 243.946Z"/>
	<path fill="#FBC89F" transform="matrix(0.195312 0 0 0.195312 0.00012207 3.05176e-05)" d="M149.992 237.733L182.8 237.733L182.779 252.649C182.768 255.029 182.479 257.67 182.8 260.007C181.655 263.401 180.068 266.504 177.551 269.109C169.91 269.738 171.415 279.055 153.325 269.109C150.208 266.364 148.733 263.458 146.579 260.007C147.769 259.725 148.797 259.873 149.992 260.007C149.959 255.369 150.529 248.185 149.992 243.946C149.833 241.864 149.884 239.816 149.992 237.733Z"/>
</svg>
