<?xml version="1.0" encoding="utf-8" ?>
<svg xmlns="http://www.w3.org/2000/svg" xmlns:xlink="http://www.w3.org/1999/xlink" width="100" height="100">
	<path fill="#3D6194" transform="scale(0.195312 0.195312)" d="M116.185 75.2599C116.338 75.2523 116.491 75.2474 116.643 75.2463L385.913 75.2404C400.721 75.2154 415.659 78.405 418.006 96.5859C418.443 99.964 418.257 103.48 418.256 106.885L418.241 369.747C434.717 370.013 433.148 368.979 433.221 385.841C433.337 412.541 424.088 430.003 395.267 432.263L127.722 432.279C123.216 432.284 118.7 432.408 114.231 431.734C94.7576 428.8 77.6569 411.322 77.2049 391.261C76.7989 373.246 75.8005 370.762 93.7492 370.485L93.7427 109.556C93.7456 93.2924 95.7861 78.0237 116.185 75.2599Z"/>
	<path fill="#5BC6F9" transform="scale(0.195312 0.195312)" d="M90.8366 384.96C96.0961 384.982 101.394 384.743 106.646 384.96C110.672 407.972 124.172 408.288 143.901 408.268L363.633 409.117C380.521 409.135 397.38 409.306 414.262 409.087C407.091 418.933 395.815 418.226 384.98 418.231L122.126 418.217C102.4 418.133 90.5869 404.148 90.8366 384.96Z"/>
	<path fill="#80DBF9" transform="scale(0.195312 0.195312)" d="M106.646 384.96L419.182 384.96C419.211 392.908 420.393 402.919 414.262 409.087C397.38 409.306 380.521 409.135 363.633 409.117L143.901 408.268C124.172 408.288 110.672 407.972 106.646 384.96Z"/>
	<path fill="#3D6194" transform="scale(0.195312 0.195312)" d="M249.965 390.83L267.265 390.8C270.563 390.786 274.327 390.423 277.562 391.04C283.657 392.202 289.367 404.589 270.877 404.507L259.563 404.455L241.595 404.472C238.375 404.472 234.8 404.774 231.638 404.206C224.989 403.012 223.911 393.08 230.821 391.327C235.308 390.188 245.005 390.813 249.965 390.83Z"/>
	<path fill="#C3CCDF" transform="scale(0.195312 0.195312)" d="M107.66 370.485L107.643 109.071C107.59 85.2819 114.391 88.8022 134.637 88.7983C133.782 88.9247 132.882 88.9829 132.078 89.3021C131.607 95.2187 132.074 101.725 132.077 107.694L132.069 146.907C132.066 148.981 131.627 160.323 132.069 161.223C130.321 174.279 127.298 178.911 129.994 194.295C130.398 196.599 132.534 203.066 132.069 204.905C131.726 206.964 132.097 211.525 132.085 213.929L132.067 299.192C132.067 306.015 130.038 339.041 136.012 343.27C144.43 353.836 147.896 353.048 160.175 353.051L234.654 353.045C237.26 356.264 254.66 354.938 258.698 354.936L403.771 354.919C403.886 360.095 403.775 365.306 403.771 370.485L107.66 370.485Z"/>
	<path fill="#E1E6EE" transform="scale(0.195312 0.195312)" d="M403.771 259.099L403.771 354.919L258.698 354.936C254.66 354.938 237.26 356.264 234.654 353.045C244.169 352.157 249.265 346.525 249.965 336.966C250.206 333.907 249.975 330.672 249.974 327.591L249.972 283.392C249.97 272.624 252.105 267.015 243.301 259.099C248.687 258.709 254.375 259.101 259.799 259.1L403.771 259.099Z"/>
	<path fill="#3D6194" transform="scale(0.195312 0.195312)" d="M289.184 274.264C292.38 273.931 298.405 273.341 300.969 275.528C303.629 277.799 304.066 282.24 301.687 284.863C299.525 287.247 295.388 286.891 292.434 287.014C289.051 286.771 282.672 287.746 280.082 285.462C277.431 283.125 277.243 278.258 279.785 275.775C282.043 273.569 286.269 274.19 289.184 274.264Z"/>
	<path fill="#3D6194" transform="scale(0.195312 0.195312)" d="M283.382 301.952C286.26 301.637 298.033 301.442 300.186 302.734C305.55 305.955 303.484 313.546 297.782 314.727C294.346 314.839 283.348 315.374 280.812 313.712C275.672 310.341 277.691 303.018 283.382 301.952Z"/>
	<path fill="#3D6194" transform="scale(0.195312 0.195312)" d="M283.382 330.257C286.642 330.141 297.117 329.731 299.667 330.749C305.644 333.137 303.472 341.276 298.364 343.27C294.453 343.528 284.508 343.762 281.316 342.257C275.279 339.41 277.617 331.778 283.382 330.257Z"/>
	<path fill="#3D6194" transform="scale(0.195312 0.195312)" d="M323.384 274.264L354.97 274.247C358.988 274.246 370.493 273.211 373.739 275C379.156 277.985 377.507 285.613 371.897 287.014C361.643 287.222 351.344 286.991 341.087 286.985C335.828 286.982 319.73 289.544 318.066 282.355C317.169 278.478 319.593 275.01 323.384 274.264Z"/>
	<path fill="#3D6194" transform="scale(0.195312 0.195312)" d="M364.45 301.952C383.844 301.113 377.132 313.87 372.058 314.627C368.132 315.213 363.255 314.743 359.233 314.741L331.021 314.727C327.8 314.649 322.726 315.155 320.193 312.858C316.79 309.771 317.661 303.014 322.546 302.185C326.905 301.445 332.041 301.94 336.493 301.94L364.45 301.952Z"/>
	<path fill="#3D6194" transform="scale(0.195312 0.195312)" d="M323.384 330.257C336.891 329.814 357.066 329.314 370.532 330.279C379.016 330.887 379.51 341.169 371.897 343.27L341.04 343.284C335.439 343.284 329.635 343.59 324.06 343.181C316.142 342.601 316.008 331.792 323.384 330.257Z"/>
	<path fill="#FEFEFE" transform="scale(0.195312 0.195312)" d="M134.637 88.7983L383.265 88.7858C407.438 88.7662 403.775 92.5131 403.775 113.063L403.771 259.099L259.799 259.1C254.375 259.101 248.687 258.709 243.301 259.099C252.105 267.015 249.97 272.624 249.972 283.392L249.974 327.591C249.975 330.672 250.206 333.907 249.965 336.966C249.265 346.525 244.169 352.157 234.654 353.045L160.175 353.051C147.896 353.048 144.43 353.836 136.012 343.27C130.038 339.041 132.067 306.015 132.067 299.192L132.085 213.929C132.097 211.525 131.726 206.964 132.069 204.905C132.534 203.066 130.398 196.599 129.994 194.295C127.298 178.911 130.321 174.279 132.069 161.223C131.627 160.323 132.066 148.981 132.069 146.907L132.077 107.694C132.074 101.725 131.607 95.2187 132.078 89.3021C132.882 88.9829 133.782 88.9247 134.637 88.7983Z"/>
	<path fill="#3D6194" transform="scale(0.195312 0.195312)" d="M293.913 223.003L361.002 223.003C364.951 222.976 371.141 221.996 374.758 223.959C380.442 227.045 377.478 234.636 371.897 235.883C367.296 236.059 362.625 235.893 358.017 235.891L308.462 235.881C304.261 235.89 294.812 237.02 291.161 234.733C285.772 231.358 288.208 224.035 293.913 223.003Z"/>
	<path fill="#3D6194" transform="scale(0.195312 0.195312)" d="M297.782 195.164L363.952 195.146C366.714 195.119 369.744 194.844 372.478 195.189C379.396 196.062 380.366 208.048 369.381 207.991L302.519 207.999C299.531 207.998 296.406 208.171 293.438 207.791C287.977 207.093 282.498 195.196 297.782 195.164Z"/>
	<path fill="#26A8F1" transform="scale(0.195312 0.195312)" d="M380.257 151.871C380.408 165.697 373.506 172.413 359.964 172.727C349.582 172.967 315.537 174.128 306.445 172.255C290.547 168.981 292.491 152.393 292.43 140.076C292.36 125.861 293.101 112.528 311.064 112.306C310.738 114.015 308.921 114.934 308.626 116.689C308.022 120.28 308.467 124.932 308.465 128.651C308.459 139.129 305.581 152.891 318.291 156.994C321.435 158.009 363.931 157.732 369.454 157.255C374.484 156.82 376.212 154.249 380.257 151.871Z"/>
	<path fill="#80DBF9" transform="scale(0.195312 0.195312)" d="M311.064 112.306L347.791 112.294C358.636 112.294 376.031 109.467 379.597 123.534C381.368 130.518 380.448 144.168 380.257 151.871C376.212 154.249 374.484 156.82 369.454 157.255C363.931 157.732 321.435 158.009 318.291 156.994C305.581 152.891 308.459 139.129 308.465 128.651C308.467 124.932 308.022 120.28 308.626 116.689C308.921 114.934 310.738 114.015 311.064 112.306Z"/>
	<path fill="#5BC6F9" transform="scale(0.195312 0.195312)" d="M149.974 257.483C153.524 257.088 157.396 257.467 160.987 257.473L219.123 257.48C227.151 257.48 235.614 256.354 243.301 259.099C252.105 267.015 249.97 272.624 249.972 283.392L249.974 327.591C249.975 330.672 250.206 333.907 249.965 336.966C249.265 346.525 244.169 352.157 234.654 353.045L160.175 353.051C147.896 353.048 144.43 353.836 136.012 343.27C135.873 337.995 136.004 332.679 136.005 327.401L135.988 280.397C135.927 270.101 136.394 259.228 149.974 257.483Z"/>
	<path fill="#FEFEFE" transform="scale(0.195312 0.195312)" d="M175.605 306.573C197.91 293.247 217.822 304.419 225.701 326.977C210.701 326.692 183.827 320.29 175.605 306.573Z"/>
	<path fill="#FEFEFE" transform="scale(0.195312 0.195312)" d="M193.927 265.854C215.277 266.511 217.611 295.442 194.978 299.299C172.184 299.167 170.925 267.636 193.927 265.854Z"/>
	<path fill="#26A8F1" transform="scale(0.195312 0.195312)" d="M149.974 257.483C151.361 257.525 152.727 257.539 154.115 257.483C156.246 275.502 163.745 292.802 175.605 306.573L175.605 306.573C183.827 320.29 210.701 326.692 225.701 326.977L225.701 335.71C227.498 335.533 249.095 335.212 249.757 335.755L249.965 336.966C249.265 346.525 244.169 352.157 234.654 353.045L160.175 353.051C147.896 353.048 144.43 353.836 136.012 343.27C135.873 337.995 136.004 332.679 136.005 327.401L135.988 280.397C135.927 270.101 136.394 259.228 149.974 257.483Z"/>
	<path fill="#E1E6EE" transform="scale(0.195312 0.195312)" d="M175.605 306.573L175.605 306.573C183.827 320.29 210.701 326.692 225.701 326.977L225.701 335.71C223.869 335.966 221.741 335.75 219.884 335.74L162.261 335.71C162.157 323.137 165.091 314.7 175.605 306.573Z"/>
	<path fill="#3D6194" transform="scale(0.195312 0.195312)" d="M132.069 161.223C134.052 156.929 135.741 152.511 138.05 148.375C155.467 117.169 193.999 104.898 226.409 119.993C261.332 136.259 276.418 177.838 260.034 212.676C238.014 259.496 171.14 265.427 141.627 222.005C137.969 216.623 135.027 210.685 132.069 204.905C132.534 203.066 130.398 196.599 129.994 194.295C127.298 178.911 130.321 174.279 132.069 161.223Z"/>
	<path fill="#C3CCDF" transform="scale(0.195312 0.195312)" d="M241.005 217.08C232.075 233.602 205.24 239.819 188.06 236.992C157.849 232.021 138.368 201.377 143.544 171.899C145.137 162.83 151.053 148.658 158.8 143.247C158.338 146.564 156.133 149.36 155.043 152.473C152.499 159.735 153.527 172.66 158.8 178.623L158.8 178.623C164.286 182.599 165.418 184.403 172.49 188.736C174.17 188.784 175.836 188.78 177.515 188.736C179.591 188.774 181.681 188.865 183.755 188.736C185.726 191.38 188.661 193.52 191.013 195.85C191.016 198.981 189.482 207.674 192.834 207.991C194.267 215.666 200.664 217.174 205.52 221.364C206.688 221.459 207.906 221.376 209.079 221.364C225.26 224.691 228.59 219.939 241.005 217.08Z"/>
	<path fill="#E3545E" transform="scale(0.195312 0.195312)" d="M158.8 178.623C164.286 182.599 165.418 184.403 172.49 188.736C174.17 188.784 175.836 188.78 177.515 188.736C179.591 188.774 181.681 188.865 183.755 188.736C185.726 191.38 188.661 193.52 191.013 195.85C191.016 198.981 189.482 207.674 192.834 207.991C194.267 215.666 200.664 217.174 205.52 221.364L191.741 221.384C183.936 221.397 177.975 222.578 177.515 212.953C175.778 211.623 165.372 203.297 171.005 202.887C154.451 202.6 158.743 192.223 158.8 178.623Z"/>
	<path fill="#FEFEFE" transform="scale(0.195312 0.195312)" d="M171.005 202.887C173.181 202.833 175.339 202.806 177.515 202.887L177.515 212.953C175.778 211.623 165.372 203.297 171.005 202.887Z"/>
	<path fill="#FEFEFE" transform="scale(0.195312 0.195312)" d="M158.8 143.247C191.208 107.53 251.301 133.313 253.292 181.252C253.781 193.042 249.842 208.734 241.005 217.08C228.59 219.939 225.26 224.691 209.079 221.364C207.906 221.376 206.688 221.459 205.52 221.364C200.664 217.174 194.267 215.666 192.834 207.991C189.482 207.674 191.016 198.981 191.013 195.85C188.661 193.52 185.726 191.38 183.755 188.736C181.681 188.865 179.591 188.774 177.515 188.736C175.836 188.78 174.17 188.784 172.49 188.736C165.418 184.403 164.286 182.599 158.8 178.623L158.8 178.623C153.527 172.66 152.499 159.735 155.043 152.473C156.133 149.36 158.338 146.564 158.8 143.247Z"/>
	<path fill="#EE7677" transform="scale(0.195312 0.195312)" d="M177.515 164.514C177.454 142.593 177.493 145.302 197.654 145.323C216.354 145.343 213.951 146.237 213.951 164.514C229.89 164.422 233.62 161.733 233.69 178.297C233.708 182.51 234.215 194.527 233.435 197.981C231.72 205.578 219.555 202.831 213.951 202.887C213.979 209.298 215.966 217.961 209.079 221.364C207.906 221.376 206.688 221.459 205.52 221.364C200.664 217.174 194.267 215.666 192.834 207.991C189.482 207.674 191.016 198.981 191.013 195.85C188.661 193.52 185.726 191.38 183.755 188.736C181.681 188.865 179.591 188.774 177.515 188.736C175.836 188.78 174.17 188.784 172.49 188.736C165.418 184.403 164.286 182.599 158.8 178.623L158.8 178.623C159.066 160.98 164.532 165.348 177.515 164.514Z"/>
	<path fill="#F8DCB9" transform="scale(0.195312 0.195312)" d="M191.013 159.242L201.084 159.242C201.071 165.678 200.834 172.195 201.084 178.623C207.19 179.047 213.554 178.608 219.694 178.623L219.694 188.736L201.084 188.736L201.084 207.991C198.325 207.919 195.593 207.901 192.834 207.991C189.482 207.674 191.016 198.981 191.013 195.85C188.661 193.52 185.726 191.38 183.755 188.736C181.681 188.865 179.591 188.774 177.515 188.736C175.836 188.78 174.17 188.784 172.49 188.736L172.49 183.375L172.49 178.623C178.585 178.635 184.945 179.045 191.013 178.623L191.013 159.242Z"/>
	<path fill="#FACE8B" transform="scale(0.195312 0.195312)" d="M172.49 183.375C174.817 184.225 177.742 185.895 177.515 188.736C175.836 188.78 174.17 188.784 172.49 188.736L172.49 183.375Z"/>
	<path fill="#EE7677" transform="scale(0.195312 0.195312)" d="M183.755 188.736L191.013 188.736C190.88 191.121 190.928 193.466 191.013 195.85C188.661 193.52 185.726 191.38 183.755 188.736Z"/>
</svg>
