<?xml version="1.0" encoding="utf-8" ?>
<svg xmlns="http://www.w3.org/2000/svg" xmlns:xlink="http://www.w3.org/1999/xlink" width="100" height="100">
	<path fill="#3E5F9E" transform="scale(0.195312 0.195312)" d="M185.732 132.005C167.777 132.408 151.085 148.083 148.27 165.517C147.663 169.273 148.365 178.22 146.45 180.846C144.534 183.475 140.39 184.115 137.813 182.047C134.825 179.65 135.431 174.835 135.629 171.468C137.385 141.668 157.4 123.485 185.732 120.003C185.754 123.944 186.042 128.084 185.732 132.005Z"/>
	<path fill="#3E5F9E" transform="scale(0.195312 0.195312)" d="M323.034 378.019C345.308 376.575 363.901 359.601 363.775 336.649C363.758 333.555 363.262 329.735 364.283 326.78C366.517 320.318 375.576 323.12 375.767 330.313C376.194 346.418 373.029 360.396 361.554 372.408C353.107 381.25 336.883 390.857 324.197 389.528C320.423 385.635 319.739 382.629 323.034 378.019Z"/>
	<path fill="#A2B4E0" transform="scale(0.195312 0.195312)" d="M267.852 389.528C270.842 393.162 280.493 400.998 281.627 403.957C283.463 408.746 277.904 413.363 273.596 410.843C271.464 409.596 252.375 391.339 249.511 387.926C244.27 381.682 253.243 376.392 257.134 372.552C261.999 367.75 267.616 361.202 272.891 357.098C277.675 353.375 284.985 358.718 281.465 364.008C279.222 367.379 271.094 374.846 267.852 378.019C273.335 378.204 278.875 378.028 284.364 378.023L323.034 378.019C319.739 382.629 320.423 385.635 324.197 389.528C305.435 389.209 286.62 389.559 267.852 389.528Z"/>
	<path fill="#A2B4E0" transform="scale(0.195312 0.195312)" d="M242.245 120.003C239.229 116.576 229.348 109.468 229.63 105.051C229.932 100.336 235.334 97.2572 239.31 100.331C241.546 102.059 243.559 104.351 245.596 106.326L255.988 116.215C259.557 119.613 265.425 122.396 264.113 128.181C263.446 131.12 240.594 152.496 238.899 153.424C233.713 156.263 227.721 151.221 230.281 145.832C231.593 143.07 240.561 135.308 243.332 132.812L205.774 132.826C202.251 132.826 187.954 134.101 185.732 132.005C186.042 128.084 185.754 123.944 185.732 120.003C196.928 120.337 208.23 119.996 219.436 120L233.806 120.027C236.594 120.041 239.468 120.201 242.245 120.003Z"/>
	<path fill="#65B8F6" transform="scale(0.195312 0.195312)" d="M110.47 195.01C120.718 194.585 132.075 195.017 142.472 195.025L157.861 194.995C162.852 194.978 172.439 193.522 173.629 200.284C174.335 204.297 174.202 227.509 173.613 231.343C173.106 234.638 171.159 236.016 167.956 236.509L131.769 236.514C124.636 236.517 106.269 239.531 104.695 230.81C104.065 227.315 104.008 205.598 104.476 201.193C104.885 197.341 106.558 195.602 110.47 195.01Z"/>
	<path fill="#65B8F6" transform="scale(0.195312 0.195312)" d="M344.002 270.427C346.233 270.199 348.613 270.386 350.861 270.396L363.711 270.428C375.393 270.432 387.211 270.041 398.875 270.532C403.969 270.746 407.777 271.325 408.032 277.097C408.42 285.846 408.572 299.741 407.983 308.29C407.757 311.57 406.576 312.655 403.459 313.763C400.238 314.009 396.863 313.787 393.626 313.778L355.022 313.785C351.053 313.792 340.682 315.482 339.524 310.028C338.567 305.522 338.767 280.348 339.25 274.738C339.506 271.755 341.169 270.832 344.002 270.427Z"/>
	<path fill="#3E5F9E" transform="scale(0.195312 0.195312)" d="M230.39 325.529C245.509 395.733 169.181 455.532 100.489 426.59C53.2259 406.677 30.6682 352.469 50.8904 305.077C70.0716 260.124 122.469 235.7 168.923 252.478C175.567 254.878 181.537 258.498 187.994 261.259C187.675 266.144 188.656 270.701 188.705 275.51C167.761 261.725 145.889 255.807 120.997 260.874C75.7347 270.088 47.9599 314.532 57.2587 359.311C66.2758 402.733 112.036 429.764 154.656 420.777C199.533 411.315 227.656 368.716 218.085 323.771C217.73 322.107 217.417 320.348 216.883 318.735C221.516 320.506 225.842 323.465 230.39 325.529Z"/>
	<path fill="#3E5F9E" transform="scale(0.195312 0.195312)" d="M286.071 200.717C285.544 197.911 284.517 195.247 283.747 192.507C269.196 140.717 302.829 85.3108 355.523 74.5577C405.66 64.3264 455.694 97.027 465.832 147.37C480.841 221.909 409.01 283.887 338.165 253.988C333.259 251.917 328.459 249.72 324.197 246.494C323.08 245.562 318.715 232.661 317.332 229.847C316.55 228.257 313.88 223.978 313.602 222.622C325.992 231.965 333.13 239.681 349.118 245.185C393.862 260.59 437.306 236.651 452.218 192.532C466.477 150.347 442.278 102.628 400.252 88.5342C356.961 74.0162 310.372 98.7945 296.182 141.782C287.714 167.435 293.341 189.707 304.848 212.608C301.729 210.764 298.949 207.963 295.86 205.95C292.843 203.985 289.451 202.779 286.409 200.926L286.071 200.717Z"/>
	<path fill="#65B8F6" transform="scale(0.195312 0.195312)" d="M187.994 261.259C188.681 237.954 201.484 215.344 222.05 203.827C238.581 194.569 261.789 191.623 279.861 198.299C281.946 199.069 283.911 200.151 286.071 200.717L286.409 200.926C289.451 202.779 292.843 203.985 295.86 205.95C298.949 207.963 301.729 210.764 304.848 212.608C306.507 214.179 312.696 220.952 313.602 222.622C313.88 223.978 316.55 228.257 317.332 229.847C318.715 232.661 323.08 245.562 324.197 246.494C323.693 249.295 324.444 252.097 324.677 254.884C328.726 303.158 283.147 342.442 237.146 327.566C234.945 326.854 232.675 325.901 230.39 325.529C225.842 323.465 221.516 320.506 216.883 318.735C206.288 308.89 199.112 303.771 193.235 288.982C191.506 284.632 190.934 279.626 188.705 275.51C188.656 270.701 187.675 266.144 187.994 261.259ZM243.332 221.075C232.131 221.615 235.623 233.433 235.557 242.251C216.152 242.14 214.498 239.658 214.473 258.713C214.442 282.344 211.236 282.537 235.557 282.436C235.476 296.754 232.818 302.304 248.591 302.265L267.852 302.238C279.574 300.961 276.172 290.817 276.244 281.679C287.363 281.724 295.667 283.662 295.724 269.781C295.745 264.566 296.296 251.361 295.232 247.135C293.356 239.685 281.726 242.286 276.244 242.251C276.231 225.513 280.048 221.018 260.235 221.044L243.332 221.075Z"/>
	<path fill="#3E5F9E" transform="scale(0.195312 0.195312)" d="M243.332 221.075L260.235 221.044C280.048 221.018 276.231 225.513 276.244 242.251C281.726 242.286 293.356 239.685 295.232 247.135C296.296 251.361 295.745 264.566 295.724 269.781C295.667 283.662 287.363 281.724 276.244 281.679C276.172 290.817 279.574 300.961 267.852 302.238L248.591 302.265C232.818 302.304 235.476 296.754 235.557 282.436C211.236 282.537 214.442 282.344 214.473 258.713C214.498 239.658 216.152 242.14 235.557 242.251C235.623 233.433 232.131 221.615 243.332 221.075ZM257.628 232.891C254.43 232.89 251.227 232.851 248.03 232.891C248.027 239.991 248.315 247.182 248.03 254.268L233.998 254.241C231.615 254.226 229.123 254 226.755 254.268L226.755 269.859L248.03 269.859L248.03 290.077C250.128 290.132 252.214 290.125 254.312 290.077L263.608 290.077L263.608 269.859C270.407 269.469 277.429 269.866 284.253 269.859L284.253 254.268C277.382 254.27 270.475 254.426 263.608 254.268L263.608 232.891C261.613 232.855 259.624 232.818 257.628 232.891Z"/>
	<path fill="#0CC6A9" transform="scale(0.195312 0.195312)" d="M134.626 280.323C140.726 279.332 147.771 281.447 152.719 285.005C172.981 299.576 163.656 328.558 140.366 332.171C109.384 337.136 96.6793 286.905 134.626 280.323Z"/>
	<path fill="#0CC6A9" transform="scale(0.195312 0.195312)" d="M117.076 337.479C118.479 337.381 119.928 337.423 121.336 337.421L139.829 337.473C169.705 337.441 184.818 341.714 184.81 375.159L184.794 390.25C180.62 390.093 176.385 390.245 172.204 390.25L172.204 370.739L158.3 370.739C158.298 373.779 159.2 388.775 158.3 390.25L117.076 390.25C116.893 383.765 117.092 377.23 117.076 370.739L103.509 370.739L103.509 390.25L89.1542 390.25L89.116 375.463C89.0585 356.58 96.1454 340.143 117.076 337.479Z"/>
	<path fill="#FEAB43" transform="scale(0.195312 0.195312)" d="M375.738 103.611C410.196 103.476 412.446 157.075 375.738 158.741C339.336 159.229 337.903 104.982 375.738 103.611Z"/>
	<path fill="#FEAB43" transform="scale(0.195312 0.195312)" d="M361.461 161.763L379.062 161.742C407.088 161.73 419.228 171.016 422.934 199.772C425.533 219.944 427.586 222.652 407.14 222.64L388.688 222.622L352.503 222.628C347.824 222.628 332.957 223.988 329.297 221.162C324.554 217.5 326.793 210.402 327.264 205.404C329.51 181.567 333.302 164.273 361.461 161.763ZM372.003 175.053L369.721 175.792C363.172 177.892 360.228 184.683 362.351 191.064C364.545 197.654 375.395 198.243 376.226 200.592C378.307 206.478 368.25 195.895 363.595 199.616C358.468 203.714 364.887 211.946 372.003 212.608C373.147 219.704 376.785 218.014 378.708 212.608C388.558 210.001 393.127 197.626 383.247 191.624C383.024 190.92 382.111 190.611 381.5 190.169C382.166 189.969 382.645 190.053 383.291 190.209L383.247 189.937C393.57 187.11 387.016 177.468 378.708 175.053C376.804 169.587 373.4 169.345 372.003 175.053Z"/>
	<path fill="#FEAA62" transform="scale(0.195312 0.195312)" d="M383.247 191.624C381.249 191.295 370.226 187.593 374.623 184.866C375.93 184.798 378.504 188.72 383.247 189.937L383.291 190.209C382.645 190.053 382.166 189.969 381.5 190.169C382.111 190.611 383.024 190.92 383.247 191.624Z"/>
</svg>
