<?xml version="1.0" encoding="utf-8" ?>
<svg xmlns="http://www.w3.org/2000/svg" xmlns:xlink="http://www.w3.org/1999/xlink" width="100" height="100">
	<path fill="#379AFA" transform="scale(0.195312 0.195312)" d="M147.499 155.254L163.855 155.224C168.241 155.226 177.86 153.766 177.856 160.586C177.851 166.977 171.057 166.238 166.8 166.224L153.977 166.191L153.977 196.953C153.958 200.784 154.622 210.281 153.685 213.419C152.351 217.887 145.85 218.94 143.829 214.401C142.783 212.052 142.978 160.06 143.564 158.569C144.259 156.802 145.876 155.996 147.499 155.254Z"/>
	<path fill="#379AFA" transform="scale(0.195312 0.195312)" d="M192.89 135.004C198.205 122.834 209.474 123.314 220.623 123.322L313.565 123.335C314.064 127.051 313.523 131.232 313.565 135.004C311.078 135.171 308.48 135.023 305.981 135.018L208.685 134.981C203.542 134.976 197.986 135.518 192.89 135.004Z"/>
	<path fill="#379AFA" transform="scale(0.195312 0.195312)" d="M360.074 286.074C368.797 286.192 366.528 297.5 366.517 303.26L366.515 347.308C366.531 353.157 368.742 362.947 361.458 363.879C353.118 364.946 340.347 363.694 331.414 363.959C333.412 366.331 336.709 368.37 336.901 371.75C337.137 375.927 332.684 379.993 328.65 377.629C324.887 375.424 317.657 367.405 314.335 363.959C312.188 362.116 308.586 358.878 310.022 355.635C311.361 352.612 333.324 325.253 337.128 340.52C338.191 344.789 333.213 347.92 331.414 351.253L353.971 351.253L353.96 311.238C353.959 303.154 350.422 287.619 360.074 286.074Z"/>
	<path fill="#379AFA" transform="scale(0.195312 0.195312)" d="M49.9637 400.422L50.3245 400.759C62.9751 412.758 66.0329 409.212 83.6669 409.199L228.312 409.192C244.986 409.192 261.698 409.442 278.368 409.206C292.395 409.008 293.179 400.765 296.476 399.977C296.831 400.615 296.641 401.117 296.773 401.82C296.85 418.005 295.495 431.679 275.576 431.974C259.536 432.211 243.467 431.998 227.425 431.998L73.9543 432.005C49.6152 431.949 49.9337 421.728 49.9637 400.422Z"/>
	<path fill="#6176D2" transform="scale(0.195312 0.195312)" d="M192.89 135.004C197.986 135.518 203.542 134.976 208.685 134.981L305.981 135.018C308.48 135.023 311.078 135.171 313.565 135.004L313.565 161.054C313.261 165.09 313.108 176.684 313.565 180.542C313.588 185.955 313.929 191.564 313.565 196.953L313.565 202.885C314.031 212.524 314.693 237.377 313.565 246.748L294.74 246.748C289.047 235.015 279.045 234.206 267.988 234.2L212.318 234.205C205.243 234.209 198.129 234.398 191.06 234.205L191.037 151.032C191.03 145.453 190.323 140.129 192.89 135.004Z"/>
	<path fill="#CFD9EF" transform="scale(0.195312 0.195312)" d="M214.434 196.953C221.891 196.71 236.075 196.239 243.345 197.039C249.817 197.751 250.099 206.034 243.984 207.277L214.434 207.277C212.288 206.164 211.058 205.143 210.128 202.885C210.823 200.206 211.727 198.177 214.434 196.953Z"/>
	<path fill="#CFD9EF" transform="scale(0.195312 0.195312)" d="M263.737 196.953C265.573 196.711 267.598 196.911 269.453 196.928L313.565 196.953L313.565 202.885C313.486 204.335 313.555 205.822 313.565 207.277L282.847 207.279C275.815 207.284 254.479 210.605 263.737 196.953Z"/>
	<path fill="#444EA7" transform="scale(0.195312 0.195312)" d="M313.565 180.542L226.347 180.556C222.691 180.56 218.773 180.819 215.149 180.332C207.444 179.296 204.344 169.64 209.757 164.006C213.822 159.776 221.393 161.026 226.675 161.035L313.565 161.054C313.261 165.09 313.108 176.684 313.565 180.542Z"/>
	<path fill="#0F9F64" transform="scale(0.195312 0.195312)" d="M313.565 123.335C313.484 117.074 313.569 110.81 313.555 104.549C313.512 85.9367 315.24 75.2014 336.759 75.0111L434.546 75.0014C450.184 74.9753 462.304 77.5208 462.17 96.4867L462.107 234.531C462.113 246.611 463.948 263.622 447.25 266.171C443.083 266.807 438.45 266.379 434.235 266.363L411.074 266.36C384.152 266.372 357.189 266.695 330.272 266.389C319.172 266.263 313.343 258.734 313.533 248.03L313.565 246.748C314.693 237.377 314.031 212.524 313.565 202.885L313.565 196.953C313.929 191.564 313.588 185.955 313.565 180.542C313.108 176.684 313.261 165.09 313.565 161.054L313.565 135.004C313.523 131.232 314.064 127.051 313.565 123.335Z"/>
	<path fill="#CEF0CC" transform="scale(0.195312 0.195312)" d="M324.906 119.554C324.69 113.917 324.908 108.212 324.892 102.567C324.866 92.9088 322.468 86.78 335.346 86.5178C343.161 86.3586 351.004 86.501 358.821 86.5028L429.643 86.4951C434.108 86.49 438.809 86.1975 443.252 86.5888C452.056 87.3641 450.29 95.4249 450.278 101.903L450.247 119.554L324.906 119.554Z"/>
	<path fill="#2FD67D" transform="scale(0.195312 0.195312)" d="M324.906 119.554L450.247 119.554L450.247 145.003C447.95 145.007 440.289 144.521 438.674 145.551C438.139 147.555 437.283 164.895 439.028 166.228C441.344 167.997 447.382 167.143 450.247 166.972L450.242 244.148C450.139 259.212 441.465 254.866 428.096 254.856L350.892 254.85C344.53 254.843 329.075 256.89 324.906 252.362L324.906 166.972C327.911 166.995 335.634 167.643 337.884 166.132C339.855 162.705 339.64 148.018 337.974 145.688C334.718 144.274 328.473 144.97 324.906 145.003C324.888 136.529 325.129 128.021 324.906 119.554Z"/>
	<path fill="#FAFCF6" transform="scale(0.195312 0.195312)" d="M385.338 140.281C388.351 140.226 389.526 142.183 389.553 145.003C391.652 145.494 397.157 146.807 397.183 149.743C397.258 158.482 380.835 147.944 382.252 155.058C382.593 156.773 406.987 161.019 398.835 173.937C396.629 177.433 393.328 178.317 389.553 179.125C389.95 182.475 389.069 185.278 385.338 183.911C383.743 182.408 382.872 181.277 382.278 179.125C378.635 178.418 375.606 177.719 372.802 175.181C373.727 172.41 374.306 170.71 376.87 169.083C379.78 170.479 393.386 174.496 390.533 169.2C388.476 165.38 368.54 165.084 374.528 151.563C376.261 147.651 380.052 146.411 383.736 145.003C383.528 142.919 383.385 141.535 385.338 140.281Z"/>
	<path fill="#F7BC4C" transform="scale(0.195312 0.195312)" d="M398.041 203.914C406.35 203.922 414.672 203.773 422.978 203.914C426.601 207.698 431.646 215.264 433.962 219.954C431.643 225.092 426.626 231.376 422.978 235.736C408.031 236.038 393.017 235.739 378.062 235.736L350.742 235.736C346.921 232.41 343.735 226.774 341.751 222.123C342.447 218.008 347.076 208.246 349.986 205.243C352.465 202.684 365.387 203.909 368.978 203.909L398.041 203.914Z"/>
	<path fill="#FAFCF6" transform="scale(0.195312 0.195312)" d="M352.269 214.015C358.55 213.527 373.12 213.486 379.454 214.015L379.454 225.353C374.525 226.269 358.053 225.352 352.269 225.353L352.269 214.015Z"/>
	<path fill="#EA6D7A" transform="scale(0.195312 0.195312)" d="M379.454 214.015L419.617 214.015C421.177 215.923 422.023 217.701 422.978 219.954C422.096 222.033 421.09 223.641 419.617 225.353L379.454 225.353L379.454 214.015Z"/>
	<path fill="#51C2FB" transform="scale(0.195312 0.195312)" d="M191.06 234.205C198.129 234.398 205.243 234.209 212.318 234.205L267.988 234.2C279.045 234.206 289.047 235.015 294.74 246.748C297.452 252.026 296.783 257.651 296.783 263.405L296.799 394.213C296.808 396.726 296.971 399.318 296.773 401.82C296.641 401.117 296.831 400.615 296.476 399.977C293.179 400.765 292.395 409.008 278.368 409.206C261.698 409.442 244.986 409.192 228.312 409.192L83.6669 409.199C66.0329 409.212 62.9751 412.758 50.3245 400.759L49.9637 400.422C49.5711 385.086 49.9613 369.634 49.9622 354.287L49.8499 250.54C49.7292 232.833 65.3293 234.195 77.2135 234.197L191.06 234.205ZM81.9878 261.821C69.0809 262.608 71.7214 273.164 71.7167 282.595L71.7173 331.36C71.7222 340.297 68.8804 353.759 81.4733 354.62C88.5258 355.103 95.7913 354.748 102.874 354.743L265.661 354.735C277.777 353.97 275.033 342.841 275.022 334.146L275.024 281.296C275.042 273.719 277.512 262.726 266.741 261.898C259.742 261.361 252.395 261.807 245.364 261.819L81.9878 261.821Z"/>
	<path fill="#6176D2" transform="scale(0.195312 0.195312)" d="M139.74 374.496C145.389 374.473 151.148 374.215 156.786 374.502C164.347 374.887 164.792 382.261 159.799 386.325L155.192 386.325L144.099 386.325C140.915 386.34 136.561 387.005 133.814 384.979C127.939 380.646 132.45 374.97 139.74 374.496Z"/>
	<path fill="#6176D2" transform="scale(0.195312 0.195312)" d="M240.373 374.496C243.968 374.025 262.261 373.886 264.273 375.42C268.77 378.849 266.447 385.799 261.074 386.325C257.099 386.585 239.661 387.062 236.899 385.124C231.834 381.569 235.071 375.142 240.373 374.496Z"/>
	<path fill="#6176D2" transform="scale(0.195312 0.195312)" d="M84.2049 374.496C88.5881 374.454 106.474 373.765 109.314 375.315C114.599 378.201 112.778 385.021 107.481 386.325C102.975 386.329 84.7071 387.047 81.7673 385.399C76.565 382.482 78.982 375.51 84.2049 374.496Z"/>
	<path fill="#6176D2" transform="scale(0.195312 0.195312)" d="M197.186 374.496C204.602 374.572 213.567 371.561 216.404 379.598C214.462 387.831 208.585 386.564 201.438 386.325C197.334 386.306 186.941 387.391 184.009 384.844C181.461 382.631 181.839 378.423 184.178 376.209C187.077 373.464 193.44 374.479 197.186 374.496Z"/>
	<path fill="#379AFA" transform="scale(0.195312 0.195312)" d="M81.9878 261.821L245.364 261.819C252.395 261.807 259.742 261.361 266.741 261.898C277.512 262.726 275.042 273.719 275.024 281.296L275.022 334.146C275.033 342.841 277.777 353.97 265.661 354.735L102.874 354.743C95.7913 354.748 88.5258 355.103 81.4733 354.62C68.8804 353.759 71.7222 340.297 71.7173 331.36L71.7167 282.595C71.7214 273.164 69.0809 262.608 81.9878 261.821ZM178.962 290.765C173.865 290.769 173.6 295.067 174.528 299.135C175.335 299.981 176.055 300.649 177.073 301.231C179.491 301.692 182.055 301.245 184.499 301.241L237.718 301.235C243.817 301.234 250.049 301.526 256.125 301.104C260.069 300.83 262.551 295.1 259.606 292.282C256.937 289.727 248.712 290.761 245.327 290.759L178.962 290.765ZM178.962 321.778C174.538 322.361 173.934 324.866 174.528 328.93C175.266 330.209 175.836 331.058 177.073 331.877L220.447 331.877C227.138 331.492 227.335 322.463 221.322 321.836C216.722 321.357 211.717 321.749 207.082 321.758L178.962 321.778ZM241.329 331.877C247.063 332.216 252.975 331.799 258.735 331.877C260.303 330.212 261.216 328.224 261.074 325.897C258.199 319.059 252.94 321.783 245.591 321.778C232.057 320.234 235.378 331.93 241.329 331.877Z"/>
	<path fill="#CFD9EF" transform="scale(0.195312 0.195312)" d="M241.329 331.877C235.378 331.93 232.057 320.234 245.591 321.778C252.94 321.783 258.199 319.059 261.074 325.897C261.216 328.224 260.303 330.212 258.735 331.877C252.975 331.799 247.063 332.216 241.329 331.877ZM241.329 331.877C243.899 330.905 246.524 332.899 243.903 329.226C243.392 326.255 247.122 322.671 249.802 322.27C249.407 321.85 246.462 322.042 245.591 321.778C232.057 320.234 235.378 331.93 241.329 331.877ZM258.735 331.877C260.303 330.212 261.216 328.224 261.074 325.897L260.333 325.386C258.958 327.161 256.127 329.136 257.637 331.525L258.735 331.877Z"/>
	<path fill="#CFD9EF" transform="scale(0.195312 0.195312)" d="M178.962 290.765L245.327 290.759C248.712 290.761 256.937 289.727 259.606 292.282C262.551 295.1 260.069 300.83 256.125 301.104C250.049 301.526 243.817 301.234 237.718 301.235L184.499 301.241C182.055 301.245 179.491 301.692 177.073 301.231C176.055 300.649 175.335 299.981 174.528 299.135C173.6 295.067 173.865 290.769 178.962 290.765ZM174.528 299.135C175.335 299.981 176.055 300.649 177.073 301.231C182.896 300.471 182.759 299.131 181.706 291.496C180.981 290.952 179.841 290.909 178.962 290.765C173.865 290.769 173.6 295.067 174.528 299.135Z"/>
	<path fill="#F7BC4C" transform="scale(0.195312 0.195312)" d="M92.3132 279.954C95.4272 279.782 98.5915 279.941 101.713 279.943L133.097 279.946C153.62 279.957 148.748 287.006 148.761 304.777L148.755 321.026C148.738 328.628 150.238 335.208 143.242 339.994C140.4 340.164 137.494 340.016 134.644 340.01L104.572 340C97.8357 340.048 87.1571 341.294 86.5225 331.759C85.6975 319.366 85.8259 299.723 86.5235 287.333C86.738 283.522 88.6138 281.251 92.3132 279.954Z"/>
	<path fill="#FBDB67" transform="scale(0.195312 0.195312)" d="M114.392 293.54C136.069 291.445 141.841 320.742 119.821 325.897C98.6292 328.569 93.1043 297.997 114.392 293.54Z"/>
</svg>
