<?xml version="1.0" encoding="utf-8" ?>
<svg xmlns="http://www.w3.org/2000/svg" xmlns:xlink="http://www.w3.org/1999/xlink" width="100" height="100">
	<path fill="#FAB219" transform="scale(0.195312 0.195312)" d="M316.438 72.0143C320.872 72.0278 325.149 75.9118 323.256 80.6158C321.812 84.2016 315.12 89.3586 311.555 90.9372C307.564 90.3671 305.167 87.5353 304.071 83.7722C305.567 78.4726 311.146 73.2606 316.438 72.0143Z"/>
	<path fill="#FAB219" transform="scale(0.195312 0.195312)" d="M259.255 51.773C269.092 51.7705 269.633 72.1591 260.188 74.2166C249.557 73.5884 250.275 54.2714 259.255 51.773Z"/>
	<path fill="#FAB219" transform="scale(0.195312 0.195312)" d="M201.218 72.0143C209.93 71.0284 220.405 89.074 207.463 90.9372C198.631 91.2861 187.743 72.5796 201.218 72.0143Z"/>
	<path fill="#3E77BE" transform="scale(0.195312 0.195312)" d="M87.9028 421.277L106.569 421.277C108.966 421.786 111.551 421.319 113.99 421.623L113.962 432.185C113.95 445.363 117.471 450.514 128.703 456.514L117.514 456.482C115.318 456.456 112.859 456.178 110.695 456.514C89.108 455.247 86.9113 439.878 87.9028 421.277Z"/>
	<path fill="#3E77BE" transform="scale(0.195312 0.195312)" d="M106.001 303.933C105.658 299.731 105.982 295.24 105.994 291.011L105.845 183.642C105.809 167.355 118.086 166.227 131.021 166.247L143.202 166.264C141.927 167.883 139.975 167.931 138.312 168.921C129.764 174.012 128.592 181.071 128.703 190.265L137.975 190.265C141.486 190.733 145.323 190.227 148.886 190.265C148.87 196.835 146.457 208.87 155.278 210.337C155.094 216.469 155.277 222.649 155.28 228.786L155.279 265.192C155.278 267.973 154.838 282.689 155.278 284.227C155.17 285.832 155.68 288.284 155.278 289.701C154.336 292.377 155.918 309.652 154.802 315.768C148.498 311.426 136.135 304.446 128.703 303.933C128.644 300.285 128.827 296.637 128.703 292.989C128.619 296.587 128.503 300.342 128.703 303.933C118.302 302.689 115.183 303.694 106.001 303.933Z"/>
	<path fill="#C9D4D7" transform="scale(0.195312 0.195312)" d="M128.703 190.265L137.975 190.265C141.486 190.733 145.323 190.227 148.886 190.265C148.87 196.835 146.457 208.87 155.278 210.337C155.094 216.469 155.277 222.649 155.28 228.786L155.279 265.192C155.278 267.973 154.838 282.689 155.278 284.227C155.17 285.832 155.68 288.284 155.278 289.701C154.336 292.377 155.918 309.652 154.802 315.768C148.498 311.426 136.135 304.446 128.703 303.933C128.644 300.285 128.827 296.637 128.703 292.989L128.703 190.265Z"/>
	<path fill="#88D7EE" transform="scale(0.195312 0.195312)" d="M148.886 166.264C148.547 163.267 148.848 160.174 148.861 157.163L148.855 123.841C148.801 109.966 146.929 107.214 162.717 107.235L219.543 107.254C201.439 136.073 208.161 172.17 242.069 184.088C237.282 191.147 210.552 216.692 203.52 223.27C200.219 219.019 194.706 213.884 190.579 210.337L155.278 210.337C146.457 208.87 148.87 196.835 148.886 190.265C145.323 190.227 141.486 190.733 137.975 190.265L128.703 190.265C128.592 181.071 129.764 174.012 138.312 168.921C139.975 167.931 141.927 167.883 143.202 166.264C145.098 166.24 146.99 166.239 148.886 166.264Z"/>
	<path fill="#4595E8" transform="scale(0.195312 0.195312)" d="M143.202 166.264C145.098 166.24 146.99 166.239 148.886 166.264C149.241 174.216 148.859 182.298 148.886 190.265L137.975 190.265L128.703 190.265C128.592 181.071 129.764 174.012 138.312 168.921C139.975 167.931 141.927 167.883 143.202 166.264Z"/>
	<path fill="#8DD6A4" transform="scale(0.195312 0.195312)" d="M128.703 292.989C128.827 296.637 128.644 300.285 128.703 303.933C136.135 304.446 148.498 311.426 154.802 315.768C176.397 336.38 184.407 362.888 168.682 390.664C167.536 392.688 166.056 395.991 164.162 397.371C162.315 400.073 159.745 402.004 157.763 404.531C157.927 410.22 157.747 415.93 157.763 421.623C146.971 421.629 136.207 421.727 125.422 421.277C121.71 421.646 117.72 421.993 113.99 421.623C111.551 421.319 108.966 421.786 106.569 421.277C105.681 420.473 100.509 419.238 99.0839 418.761C72.5097 409.856 54.2528 380.723 59.211 352.858C61.3993 340.559 67.6609 326.069 78.1984 318.754C82.1156 311.949 97.81 305.779 106.001 303.933C115.183 303.694 118.302 302.689 128.703 303.933C128.503 300.342 128.619 296.587 128.703 292.989Z"/>
	<path fill="#FAFBFB" transform="scale(0.195312 0.195312)" d="M143.202 336.497C146.135 336.761 148.711 339.076 149.042 342.061C149.574 346.846 143.377 350.994 140.426 353.908L114.861 379.576C100.137 394.449 99.8788 385.867 86.7764 373.807C82.573 369.386 78.1403 365.72 83.7196 360.395C91.3745 357.727 98.8292 368.434 103.607 373.807C109.572 368.153 137.24 337.776 143.202 336.497Z"/>
	<path fill="#5BBC81" transform="scale(0.195312 0.195312)" d="M78.1984 318.754C78.9452 320.462 75.286 326.882 74.5925 329.018C58.7064 377.947 115.296 425.691 156.833 401.514C159.09 400.201 161.647 398.032 164.162 397.371C162.315 400.073 159.745 402.004 157.763 404.531C157.927 410.22 157.747 415.93 157.763 421.623C146.971 421.629 136.207 421.727 125.422 421.277C121.71 421.646 117.72 421.993 113.99 421.623C111.551 421.319 108.966 421.786 106.569 421.277C105.681 420.473 100.509 419.238 99.0839 418.761C72.5097 409.856 54.2528 380.723 59.211 352.858C61.3993 340.559 67.6609 326.069 78.1984 318.754Z"/>
	<path fill="#C9D4D7" transform="scale(0.195312 0.195312)" d="M157.763 404.531C157.927 410.22 157.747 415.93 157.763 421.623C146.971 421.629 136.207 421.727 125.422 421.277C139.539 415.782 144.612 414.969 157.763 404.531Z"/>
	<path fill="#4595E8" transform="scale(0.195312 0.195312)" d="M367.304 165.532L390.246 165.517C411.287 165.515 420.37 166.058 420.349 191.902L420.331 421.623C435.769 421.59 441.57 417.753 438.953 435.669C435.854 456.886 418.322 456.54 402.601 456.52L128.925 456.523C122.912 456.527 116.692 456.854 110.695 456.514C112.859 456.178 115.318 456.456 117.514 456.482L128.703 456.514C117.471 450.514 113.95 445.363 113.962 432.185L113.99 421.623C117.72 421.993 121.71 421.646 125.422 421.277C136.207 421.727 146.971 421.629 157.763 421.623L233.541 421.623L290.631 421.586C292.953 421.572 295.46 421.376 297.762 421.623L398.137 421.623L398.137 190.265L395.587 190.265C392.919 189.728 389.516 190.221 386.769 190.243L367.304 190.265L367.304 165.532Z"/>
	<path fill="#49B2FB" transform="scale(0.195312 0.195312)" d="M233.541 421.623L290.631 421.586C292.953 421.572 295.46 421.376 297.762 421.623C296.826 421.683 295.881 421.637 294.944 421.623C294.107 438.258 282.198 436.221 269.859 436.236L247.906 436.228C237.088 436.148 233.431 432.531 233.541 421.623Z"/>
	<path fill="#FAFBFB" transform="scale(0.195312 0.195312)" d="M219.543 107.254L224.065 102.781C236.844 90.3323 248.882 89.2747 265.33 89.4994C277.272 91.9911 286.415 99.0094 294.944 107.254C298.409 106.908 302.132 107.235 305.623 107.264L347.027 107.25C356.32 107.223 366.395 104.146 367.164 115.819C367.554 121.751 367.317 127.819 367.317 133.766L367.304 165.532L367.304 190.265L386.769 190.243C389.516 190.221 392.919 189.728 395.587 190.265L398.137 190.265L398.137 421.623L297.762 421.623C295.46 421.376 292.953 421.572 290.631 421.586L233.541 421.623L157.763 421.623C157.747 415.93 157.927 410.22 157.763 404.531C159.745 402.004 162.315 400.073 164.162 397.371C166.056 395.991 167.536 392.688 168.682 390.664C184.407 362.888 176.397 336.38 154.802 315.768C155.918 309.652 154.336 292.377 155.278 289.701C155.68 288.284 155.17 285.832 155.278 284.227C154.838 282.689 155.278 267.973 155.279 265.192L155.28 228.786C155.277 222.649 155.094 216.469 155.278 210.337L190.579 210.337C194.706 213.884 200.219 219.019 203.52 223.27C210.552 216.692 237.282 191.147 242.069 184.088C208.161 172.17 201.439 136.073 219.543 107.254Z"/>
	<path fill="#BF504D" transform="scale(0.195312 0.195312)" d="M309.442 380.5C315.928 380.506 322.416 380.416 328.901 380.5C329.135 389.053 328.999 397.712 328.901 406.27C326.747 406.547 324.378 406.313 322.2 406.3L309.442 406.27L309.442 380.5Z"/>
	<path fill="#3E77BE" transform="scale(0.195312 0.195312)" d="M199.125 374.728C202.702 374.485 206.465 374.717 210.058 374.719L256.128 374.733C259.728 374.729 265 373.592 268.29 375.437C273.111 378.141 271.08 383.616 266.463 384.771L221.449 384.774C216.884 384.775 199.229 386.05 196.001 383.989C191.764 381.284 194.11 375.194 199.125 374.728Z"/>
	<path fill="#3E77BE" transform="scale(0.195312 0.195312)" d="M197.53 391.731C201.985 391.417 206.637 391.724 211.12 391.726L256.419 391.711C259.501 391.694 263.618 391.175 266.578 391.889C272.343 393.28 271.748 399.697 267.146 401.998C263.269 402.352 259.104 402.007 255.189 402.004L208.94 402.008C204.637 402.03 191.371 403.935 193.979 395.426C194.568 393.505 195.839 392.653 197.53 391.731Z"/>
	<path fill="#88D7EE" transform="scale(0.195312 0.195312)" d="M335.444 364.028C341.664 363.789 347.953 364.108 354.186 364.028C353.981 373.959 354.192 383.933 354.198 393.867C354.2 397.016 355.586 405.198 352.642 406.27C350.339 406.555 336.565 406.662 334.991 405.998C333.494 402.4 332.895 365.099 335.444 364.028Z"/>
	<path fill="#FACD5D" transform="scale(0.195312 0.195312)" d="M360.812 345.505C379.783 345.441 378.983 341.344 378.996 357.972L378.999 374.729C378.998 379.747 381.034 405.84 377.313 406.27C372.098 406.29 366.126 406.745 360.993 406.229C358.186 405.946 358.969 402.92 358.908 400.785C358.724 394.349 357.715 350.77 358.913 346.182C359.545 345.599 359.978 345.644 360.812 345.505Z"/>
	<path fill="#88D7EE" transform="scale(0.195312 0.195312)" d="M294.944 107.254C298.409 106.908 302.132 107.235 305.623 107.264L347.027 107.25C356.32 107.223 366.395 104.146 367.164 115.819C367.554 121.751 367.317 127.819 367.317 133.766L367.304 165.532L367.304 190.265L386.769 190.243C389.516 190.221 392.919 189.728 395.587 190.265C386.225 190.668 376.684 190.275 367.304 190.265C367.576 192.83 367.477 195.573 367.493 198.157C367.583 212.78 358.706 210.342 347.701 210.346L326.445 210.337C322.198 214.745 317.765 218.959 313.421 223.27C305.818 213.58 292.491 202.137 283.646 192.96C281.029 190.245 277.655 187.286 275.684 184.088C290.754 179.858 302.907 165.033 305.732 149.996C308.875 133.268 304.547 121.165 294.944 107.254Z"/>
	<path fill="#FACD5D" transform="scale(0.195312 0.195312)" d="M219.543 107.254L224.065 102.781C236.844 90.3323 248.882 89.2747 265.33 89.4994C277.272 91.9911 286.415 99.0094 294.944 107.254C304.547 121.165 308.875 133.268 305.732 149.996C302.907 165.033 290.754 179.858 275.684 184.088C272.682 184.791 269.474 186.019 266.463 186.482C258.848 187.404 249.345 186.014 242.069 184.088C208.161 172.17 201.439 136.073 219.543 107.254Z"/>
	<path fill="#F0875D" transform="scale(0.195312 0.195312)" d="M257.725 103.256C260.138 103.241 261.555 104.371 263.272 105.903L263.272 110.204C269.739 111.564 274.753 116.293 275.47 123.107C276.169 129.758 273.036 132.612 269.214 137.414C281.601 147.291 276.343 158.369 263.272 163.482C263.208 167.198 262.962 169.614 259.255 171.224C254.408 171.533 254.264 167.213 254.252 163.482C240.332 159.647 237.289 146.983 247.462 137.414L247.235 137.218C235.884 127.35 239.789 110.908 254.252 110.204C254.262 106.8 254.079 104.488 257.725 103.256Z"/>
	<path fill="#FACD5D" transform="scale(0.195312 0.195312)" d="M256.878 118.293C265.951 117.656 267.548 128.113 259.255 131.83C250.746 133.067 247.343 121.813 256.878 118.293Z"/>
	<path fill="#FACD5D" transform="scale(0.195312 0.195312)" d="M257.725 141.051C266.534 141.064 268.003 152.609 259.255 154.849C250.041 154.877 249.036 143.078 257.725 141.051Z"/>
	<path fill="#FAB219" transform="scale(0.195312 0.195312)" d="M219.543 107.254L224.065 102.781C236.844 90.3323 248.882 89.2747 265.33 89.4994C262.972 92.9596 256.629 92.4338 253.059 94.1089C217.77 110.667 218.727 168.549 257.828 183.148C259.83 183.895 265.196 185.064 266.463 186.482C258.848 187.404 249.345 186.014 242.069 184.088C208.161 172.17 201.439 136.073 219.543 107.254Z"/>
	<path fill="#3E77BE" transform="scale(0.195312 0.195312)" d="M155.278 284.227C158.747 278.629 162.236 273.099 166.492 268.052C217.024 208.125 316.257 214.435 360.569 278.787C367.749 289.216 367.133 290.625 359.65 301.635C323.653 354.602 243.185 365.712 191.086 330.033C175.132 319.107 164.96 306.169 155.278 289.701C155.68 288.284 155.17 285.832 155.278 284.227Z"/>
	<path fill="#49B2FB" transform="scale(0.195312 0.195312)" d="M169.811 286.774C174.074 278.453 192.344 260.068 201.218 257.748C191.29 275.958 191.573 299.913 199.964 318.754C193.205 317.616 173.334 292.726 169.811 286.774Z"/>
	<path fill="#49B2FB" transform="scale(0.195312 0.195312)" d="M318.62 257.748C329.933 262.403 344.562 279.465 350.853 289.701C346.835 295.474 327.235 317.874 320.189 318.754C329.438 299.733 327.946 276.421 318.62 257.748Z"/>
	<path fill="#0758A7" transform="scale(0.195312 0.195312)" d="M285.474 244.072C290.773 244.499 314.844 252.81 318.62 257.748C327.946 276.421 329.438 299.733 320.189 318.754C316.013 322.528 301.656 329.343 295.99 330.454C310.745 311.255 317.993 292.475 307.82 268.274C303.701 258.476 295.565 248.176 285.474 244.072Z"/>
	<path fill="#0758A7" transform="scale(0.195312 0.195312)" d="M201.218 257.748C203.601 253.884 224.043 246.336 228.969 245.685C201.395 267.921 201.69 307.104 226.738 331.389C221.551 330.687 203.001 322.403 199.964 318.754C191.573 299.913 191.29 275.958 201.218 257.748Z"/>
	<path fill="#49B2FB" transform="scale(0.195312 0.195312)" d="M228.969 245.685C242.589 238.918 271.749 240.183 285.474 244.072C295.565 248.176 303.701 258.476 307.82 268.274C317.993 292.475 310.745 311.255 295.99 330.454C281.667 336.852 242.535 338.788 227.315 331.659L226.953 331.493C226.881 331.459 226.809 331.424 226.738 331.389C201.69 307.104 201.395 267.921 228.969 245.685Z"/>
	<path fill="#FAFBFB" transform="scale(0.195312 0.195312)" d="M256.878 247.35C266.787 245.822 279.086 250.468 286.778 256.523C316.721 280.094 303.082 328.53 263.272 333.184C253.004 333.661 242.071 330.613 233.977 324.125C202.585 298.96 218.169 251.163 256.878 247.35Z"/>
	<path fill="#C9D4D7" transform="scale(0.195312 0.195312)" d="M259.255 266.851C264.81 266.145 271.222 268.344 275.551 271.795C292.722 285.486 283.678 311.772 261.842 313.974C229.623 315.033 226.385 270.045 259.255 266.851Z"/>
</svg>
