<?xml version="1.0" encoding="utf-8" ?>
<svg xmlns="http://www.w3.org/2000/svg" xmlns:xlink="http://www.w3.org/1999/xlink" width="100" height="100">
	<path fill="#79D5F9" transform="scale(0.195312 0.195312)" d="M248.697 136.752C267.667 86.3535 330.899 53.5446 381.765 72.6619C407.603 82.3725 432.343 101.391 443.786 126.907C452.814 147.037 459.799 176.364 452.106 198.148C437.242 198.369 422.342 198.149 407.473 198.148C407.153 188.894 407.477 179.481 407.482 170.212C407.492 148.419 404.727 138.443 380.628 138.482L368.113 138.498C370.148 132.133 370.418 118.425 368.756 112.641C363.286 93.6045 337.214 91.7493 328.361 108.741C324.881 115.42 324.992 131.485 327.242 138.498L316.125 138.479C284.891 138.457 289.083 160.214 289.037 184.055C289.027 189.485 288.288 195.436 289.04 200.8L245.431 200.8C239.104 182.558 242.113 154.247 248.697 136.752Z"/>
	<path fill="#FCD166" transform="scale(0.195312 0.195312)" d="M194.112 95.2884C194.308 90.9682 193.031 86.0146 197.74 83.7877C206.91 83.1849 205.62 87.8683 206.471 95.2884C209.014 95.1619 213.047 94.5395 215.094 96.2911C217.524 98.3699 217.452 102.801 215.271 105.018C213.307 107.015 209.094 106.636 206.471 106.687C206.052 109.099 205.973 111.543 205.68 113.971C204.556 115.632 203.18 116.599 201.36 117.391C194.448 118.741 193.917 111.564 194.112 106.687C187.648 106.793 184.095 107.545 182.373 100.395C184.158 94.1364 188.53 95.0823 194.112 95.2884Z"/>
	<path fill="#F6D6AC" transform="scale(0.195312 0.195312)" d="M327.242 138.498C324.992 131.485 324.881 115.42 328.361 108.741C337.214 91.7493 363.286 93.6045 368.756 112.641C370.418 118.425 370.148 132.133 368.113 138.498C362.816 158.356 336.704 160.235 327.242 138.498Z"/>
	<path fill="#FCD166" transform="scale(0.195312 0.195312)" d="M117.379 176.197C115.526 177.563 110.376 182.416 109.377 184.383C101.407 174.243 98.3906 160.331 99.3739 147.675C101.61 118.899 128.994 96.3092 157.238 98.5681L157.238 110.529C121.182 108.426 97.5462 146.029 117.379 176.197Z"/>
	<path fill="#F07A70" transform="scale(0.195312 0.195312)" d="M184.818 138.498C174.815 146.645 167.08 158.489 157.989 166.127C151.528 159.63 144.494 153.308 138.744 146.175C137.003 147.053 132.121 149.068 131.075 150.464C130.47 140.918 136.172 130.825 147.176 132.402C152.787 133.205 155.987 137.267 159.229 141.453C166.885 132.834 176.306 127.803 184.818 138.498Z"/>
	<path fill="#FCFCFD" transform="scale(0.195312 0.195312)" d="M187.707 144.249C201.694 137.42 236.395 128.762 248.697 136.752C242.113 154.247 239.104 182.558 245.431 200.8C246.866 205.547 248.56 210.21 250.049 214.94L289.04 214.94L314.454 214.94C328.804 215.369 325.197 223.222 325.768 234.377L325.768 236.201L325.768 279.991C326.117 295.054 318.155 292.369 306.938 292.355L279.31 292.339C275.671 294.574 263.14 305.461 260.129 308.973L260.112 381.341C260.097 389.825 259.193 398.014 270.069 397.914L329.889 397.779C331.885 397.764 334.171 397.485 336.117 397.812C327.932 406.003 296.96 426.214 289.445 426.227C288.409 426.229 287.175 426.043 286.186 426.382C281.032 426.204 275.81 426.38 270.649 426.382L239.784 426.382C240.085 422.409 239.818 418.412 239.802 414.431L239.784 392.256L239.777 381.376C239.695 353.097 224.713 345.224 198.915 345.209L179.703 345.223C177.437 345.203 178.837 331.099 178.721 328.202L178.721 326.561C192.059 319.295 189.533 310.9 193.51 306.214C197.653 306.39 205.327 307.63 206.471 302.113C206.532 301.765 206.566 301.434 206.567 301.081L206.468 281.318C206.531 251.483 200.287 232.969 166.442 232.941C152.699 232.93 143.571 235.433 133.256 245.842C123.609 255.577 124.067 264.226 124.063 276.911L124.076 295.887C123.736 307.496 127.17 306.312 137.274 306.214C140.466 309.683 137.077 316.107 151.565 326.561C151.424 328.391 151.136 330.325 151.565 332.134L151.565 333.006C151.573 337.021 151.856 341.232 151.565 345.223C143.354 345.05 117.98 344.254 111.239 345.959C100.338 348.716 92.0447 360.114 92.2097 371.231L92.2097 371.231C91.6853 370.568 91.7541 369.521 91.7014 368.698L91.4947 368.719L91.7163 369.079L91.6419 368.654C91.0013 369.19 90.4758 369.743 89.9343 370.378C59.9206 314.806 60.1924 257.183 95.2419 203.035C98.3436 198.243 102.679 190.171 108.472 188.145C109.423 187.812 110.534 188.082 111.309 187.326C113.196 188.622 114.827 190.48 116.46 192.091C127.566 203.043 142.511 208.589 157.989 208.484L157.989 197.258C143.232 197.606 127.393 190.316 118.925 178.213L119.586 177.957C120.167 177.015 120.257 175.897 120.445 174.822C124.493 170.373 128.808 165.407 134.672 163.356C136.071 162.867 138.01 163.621 139.039 163.017L138.744 162.094C144.152 167.308 153.859 178.421 159.229 182.07C162.045 179.496 164.549 176.486 167.256 173.781C175.536 165.507 188.859 156.477 187.707 144.249ZM304.07 238.874C296.67 228.322 284.904 235.355 279.31 244.701C271.269 229.97 254.619 229.974 251.684 244.701C249.783 254.039 258.036 259.171 263.791 265.008C268.414 269.696 276.048 281.604 283.616 275.795C287.452 272.851 303.57 256.705 305.812 253.286C308.569 249.079 306.957 242.499 304.07 238.874ZM238.253 292.339C238.251 297.369 237.702 321.804 238.651 325.13C242.313 328.425 247.496 316.336 248.697 314.736C252.097 307.076 256.858 300.032 260.129 292.339C252.877 292.463 245.501 292.556 238.253 292.339Z"/>
	<path fill="#DB5550" transform="scale(0.195312 0.195312)" d="M157.989 166.127C167.08 158.489 174.815 146.645 184.818 138.498C186.239 140.256 187.241 142.01 187.707 144.249C188.859 156.477 175.536 165.507 167.256 173.781C164.549 176.486 162.045 179.496 159.229 182.07C153.859 178.421 144.152 167.308 138.744 162.094C135.597 158.741 131.893 155.159 131.075 150.464C132.121 149.068 137.003 147.053 138.744 146.175C144.494 153.308 151.528 159.63 157.989 166.127Z"/>
	<path fill="#6F8FEB" transform="scale(0.195312 0.195312)" d="M289.04 200.8C288.288 195.436 289.027 189.485 289.037 184.055C289.083 160.214 284.891 138.457 316.125 138.479L327.242 138.498C336.704 160.235 362.816 158.356 368.113 138.498L380.628 138.482C404.727 138.443 407.492 148.419 407.482 170.212C407.477 179.481 407.153 188.894 407.473 198.148L407.473 210.352C392.771 210.303 391.926 204.298 391.952 191.308C391.966 184.793 392.182 178.215 391.967 171.705C390.159 169.527 386.999 167.754 384.455 169.973C381.316 172.711 382.724 191.601 382.724 196.009L382.733 236.201C381.799 236.196 380.863 236.176 379.93 236.201C379.815 230.888 379.965 225.556 379.93 220.241C379.025 218.633 378.28 217.925 376.69 216.985C367.463 216.593 357.471 216.419 349.036 220.601C336.276 226.929 341.486 225.994 325.768 225.98C325.951 228.77 325.955 231.587 325.768 234.377C325.197 223.222 328.804 215.369 314.454 214.94L314.446 187.863C314.452 184.52 315.644 173.37 313.406 170.866C311.723 168.983 308.193 168.387 306.165 170.024C298.492 176.216 314.527 212.908 289.04 209.418C289.464 206.903 290.035 203.206 289.04 200.8ZM336.117 183.206C322.753 183.19 322.864 185.762 323.622 198.993C324.095 207.261 336.256 205.249 341.89 205.236L361.226 205.252C373.305 205.132 373.288 201.602 372.882 190.343C372.709 185.527 371.401 183.881 366.618 183.321C359.921 182.537 342.986 182.768 336.117 183.206Z"/>
	<path fill="#3F50B4" transform="scale(0.195312 0.195312)" d="M289.04 209.418C314.527 212.908 298.492 176.216 306.165 170.024C308.193 168.387 311.723 168.983 313.406 170.866C315.644 173.37 314.452 184.52 314.446 187.863L314.454 214.94L289.04 214.94C288.994 213.098 289.01 211.261 289.04 209.418Z"/>
	<path fill="#3F50B4" transform="scale(0.195312 0.195312)" d="M391.967 171.705C392.182 178.215 391.966 184.793 391.952 191.308C391.926 204.298 392.771 210.303 407.473 210.352L407.473 236.201L382.733 236.201L382.724 196.009C382.724 191.601 381.316 172.711 384.455 169.973C386.999 167.754 390.159 169.527 391.967 171.705Z"/>
	<path fill="#F0B22E" transform="scale(0.195312 0.195312)" d="M109.377 184.383C110.376 182.416 115.526 177.563 117.379 176.197L118.925 178.213C127.393 190.316 143.232 197.606 157.989 197.258L157.989 208.484C142.511 208.589 127.566 203.043 116.46 192.091C114.827 190.48 113.196 188.622 111.309 187.326L109.377 184.383Z"/>
	<path fill="#FB8744" transform="scale(0.195312 0.195312)" d="M361.226 205.252L341.89 205.236C336.256 205.249 324.095 207.261 323.622 198.993C322.864 185.762 322.753 183.19 336.117 183.206C342.986 182.768 359.921 182.537 366.618 183.321C371.401 183.881 372.709 185.527 372.882 190.343C373.288 201.602 373.305 205.132 361.226 205.252ZM348.816 187.326C338.209 188.927 340.432 202.414 348.816 200.8C357.339 199.781 357.837 188.154 348.816 187.326Z"/>
	<path fill="#FCFCFD" transform="scale(0.195312 0.195312)" d="M348.816 200.8C340.432 202.414 338.209 188.927 348.816 187.326C357.837 188.154 357.339 199.781 348.816 200.8Z"/>
	<path fill="#38ACFA" transform="scale(0.195312 0.195312)" d="M407.473 198.148C422.342 198.149 437.242 198.369 452.106 198.148C449.707 204.011 447.854 209.99 445.141 215.739C437.098 232.787 420.733 254.451 404.254 264.654C382.874 277.942 365.128 284.029 338.958 281.917C334.518 281.559 330.182 280.475 325.768 279.991L325.768 236.201C343.815 236.207 361.886 236.42 379.93 236.201C380.863 236.176 381.799 236.196 382.733 236.201L407.473 236.201L407.473 210.352L407.473 198.148Z"/>
	<path fill="#38ACFA" transform="scale(0.195312 0.195312)" d="M245.431 200.8L289.04 200.8C290.035 203.206 289.464 206.903 289.04 209.418C289.01 211.261 288.994 213.098 289.04 214.94L250.049 214.94C248.56 210.21 246.866 205.547 245.431 200.8Z"/>
	<path fill="#3F50B4" transform="scale(0.195312 0.195312)" d="M325.768 234.377C325.955 231.587 325.951 228.77 325.768 225.98C341.486 225.994 336.276 226.929 349.036 220.601C357.471 216.419 367.463 216.593 376.69 216.985C378.28 217.925 379.025 218.633 379.93 220.241C379.965 225.556 379.815 230.888 379.93 236.201C361.886 236.42 343.815 236.207 325.768 236.201L325.768 234.377Z"/>
	<path fill="#496397" transform="scale(0.195312 0.195312)" d="M137.274 282.564C135.849 281.788 126.535 282.57 124.076 282.564C124.082 285.573 124.616 293.453 124.076 295.887L124.063 276.911C124.067 264.226 123.609 255.577 133.256 245.842C143.571 235.433 152.699 232.93 166.442 232.941C200.287 232.969 206.531 251.483 206.468 281.318L206.567 301.081C206.566 301.434 206.532 301.765 206.471 302.113C206.147 299.919 206.421 297.466 206.442 295.238L206.471 282.564C203.192 282.896 195.978 281.586 193.7 282.452L193.51 283.746L193.462 282.288C189.465 279.117 181.115 283.251 174.556 268.254C164.77 280.897 159.744 280.009 144.857 279.989C140.637 279.983 137.273 278.317 137.274 282.564Z"/>
	<path fill="#F07A70" transform="scale(0.195312 0.195312)" d="M304.07 238.874C296.653 246.848 285.588 258.643 277.227 265.484C273.206 262.003 255.182 245.949 251.684 244.701C254.619 229.974 271.269 229.97 279.31 244.701C284.904 235.355 296.67 228.322 304.07 238.874Z"/>
	<path fill="#DB5550" transform="scale(0.195312 0.195312)" d="M277.227 265.484C285.588 258.643 296.653 246.848 304.07 238.874C306.957 242.499 308.569 249.079 305.812 253.286C303.57 256.705 287.452 272.851 283.616 275.795C276.048 281.604 268.414 269.696 263.791 265.008C258.036 259.171 249.783 254.039 251.684 244.701C255.182 245.949 273.206 262.003 277.227 265.484Z"/>
	<path fill="#C6DAF9" transform="scale(0.195312 0.195312)" d="M325.768 279.991C330.182 280.475 334.518 281.559 338.958 281.917C365.128 284.029 382.874 277.942 404.254 264.654L404.372 265.276C405.583 265.9 406.343 264.844 406.871 263.83C407.971 265.271 407.475 281.137 407.473 283.746C426.158 283.877 422.591 292.963 422.596 308.521L422.596 368.894C422.594 375.372 422.801 381.928 422.496 388.394C421.925 400.479 409.488 397.461 400.168 397.46L346.181 397.465C342.86 397.486 339.414 397.927 336.117 397.812C334.171 397.485 331.885 397.764 329.889 397.779L270.069 397.914C259.193 398.014 260.097 389.825 260.112 381.341L260.129 308.973C263.14 305.461 275.671 294.574 279.31 292.339L306.938 292.355C318.155 292.369 326.117 295.054 325.768 279.991ZM277.227 314.736L277.227 325.726C280.729 325.735 284.377 325.966 287.861 325.726C287.86 322.064 287.814 318.397 287.861 314.736L277.227 314.736ZM300.582 314.736L300.582 325.726L365.932 325.726L365.932 314.736L300.582 314.736ZM277.227 338.523L277.227 349.765L287.861 349.765L287.861 338.523L277.227 338.523ZM300.582 338.523L300.582 349.765L403.135 349.765L403.135 338.523L300.582 338.523ZM277.227 362.712L277.227 373.635C280.769 373.637 284.32 373.692 287.861 373.635L287.861 362.712L277.227 362.712ZM300.582 362.712L300.582 373.635L403.135 373.635C403.643 372.589 403.137 364.515 403.135 362.712L300.582 362.712Z"/>
	<path fill="#ECAC72" transform="scale(0.195312 0.195312)" d="M137.274 282.564C137.273 278.317 140.637 279.983 144.857 279.989C159.744 280.009 164.77 280.897 174.556 268.254C181.115 283.251 189.465 279.117 193.462 282.288L193.51 283.746L193.51 288.807L193.084 288.77C185.36 288.046 179.46 284.872 174.556 278.902C167.139 285.979 159.181 286.789 149.365 286.796L137.274 286.785L137.274 282.564Z"/>
	<path fill="#F6D6AC" transform="scale(0.195312 0.195312)" d="M137.274 286.785L149.365 286.796C159.181 286.789 167.139 285.979 174.556 278.902C179.46 284.872 185.36 288.046 193.084 288.77L193.51 288.807L193.549 300.143C193.568 302.037 193.87 304.364 193.51 306.214C189.533 310.9 192.059 319.295 178.721 326.561C169.216 331.908 160.913 330.77 151.565 326.561C151.545 328.42 151.539 330.275 151.565 332.134C151.136 330.325 151.424 328.391 151.565 326.561C137.077 316.107 140.466 309.683 137.274 306.214C137.676 305.183 137.276 289.129 137.274 286.785Z"/>
	<path fill="#3F50B4" transform="scale(0.195312 0.195312)" d="M124.076 282.564C126.535 282.57 135.849 281.788 137.274 282.564L137.274 286.785C137.276 289.129 137.676 305.183 137.274 306.214C127.17 306.312 123.736 307.496 124.076 295.887C124.616 293.453 124.082 285.573 124.076 282.564Z"/>
	<path fill="#3F50B4" transform="scale(0.195312 0.195312)" d="M193.51 283.746L193.7 282.452C195.978 281.586 203.192 282.896 206.471 282.564L206.442 295.238C206.421 297.466 206.147 299.919 206.471 302.113C205.327 307.63 197.653 306.39 193.51 306.214C193.87 304.364 193.568 302.037 193.549 300.143L193.51 288.807L193.51 283.746Z"/>
	<path fill="#C6DAF9" transform="scale(0.195312 0.195312)" d="M248.697 314.736C247.496 316.336 242.313 328.425 238.651 325.13C237.702 321.804 238.251 297.369 238.253 292.339C245.501 292.556 252.877 292.463 260.129 292.339C256.858 300.032 252.097 307.076 248.697 314.736Z"/>
	<path fill="#6F8FEB" transform="scale(0.195312 0.195312)" d="M277.227 325.726L277.227 314.736L287.861 314.736C287.814 318.397 287.86 322.064 287.861 325.726C284.377 325.966 280.729 325.735 277.227 325.726Z"/>
	<path fill="#6F8FEB" transform="scale(0.195312 0.195312)" d="M300.582 325.726L300.582 314.736L365.932 314.736L365.932 325.726L300.582 325.726Z"/>
	<path fill="#FB8744" transform="scale(0.195312 0.195312)" d="M151.565 326.561C160.913 330.77 169.216 331.908 178.721 326.561L178.721 328.202C178.354 329.676 178.628 331.494 178.721 333.006C163.518 339.961 161.584 333.482 151.565 333.006L151.565 332.134C151.539 330.275 151.545 328.42 151.565 326.561Z"/>
	<path fill="#ECAC72" transform="scale(0.195312 0.195312)" d="M178.721 333.006C178.628 331.494 178.354 329.676 178.721 328.202C178.837 331.099 177.437 345.203 179.703 345.223C178.297 345.6 167.063 359.282 164.982 361.337C162.745 359.266 152.288 347.645 151.565 345.223C151.856 341.232 151.573 337.021 151.565 333.006C161.584 333.482 163.518 339.961 178.721 333.006Z"/>
	<path fill="#6F8FEB" transform="scale(0.195312 0.195312)" d="M277.227 349.765L277.227 338.523L287.861 338.523L287.861 349.765L277.227 349.765Z"/>
	<path fill="#6F8FEB" transform="scale(0.195312 0.195312)" d="M300.582 349.765L300.582 338.523L403.135 338.523L403.135 349.765L300.582 349.765Z"/>
	<path fill="#F07A70" transform="scale(0.195312 0.195312)" d="M92.2097 371.231C92.0447 360.114 100.338 348.716 111.239 345.959C117.98 344.254 143.354 345.05 151.565 345.223C152.288 347.645 162.745 359.266 164.982 361.337C167.063 359.282 178.297 345.6 179.703 345.223L198.915 345.209C224.713 345.224 239.695 353.097 239.777 381.376L239.784 392.256L209.561 392.256C209.826 399.007 210.075 409.37 209.561 416.126C209.322 410.874 209.583 405.564 209.561 400.304L151.594 400.306C141.846 400.307 132.063 400.507 122.32 400.304L122.342 417.554C122.346 420.469 122.504 423.479 122.32 426.382L122.32 426.382C122.141 414.548 122.318 402.683 122.32 390.845L92.2097 390.845L92.2097 371.231Z"/>
	<path fill="#6F8FEB" transform="scale(0.195312 0.195312)" d="M277.227 373.635L277.227 362.712L287.861 362.712L287.861 373.635C284.32 373.692 280.769 373.637 277.227 373.635Z"/>
	<path fill="#6F8FEB" transform="scale(0.195312 0.195312)" d="M300.582 373.635L300.582 362.712L403.135 362.712C403.137 364.515 403.643 372.589 403.135 373.635L300.582 373.635Z"/>
	<path fill="#F6D6AC" transform="scale(0.195312 0.195312)" d="M92.2097 371.231L92.2097 371.231L92.2097 390.845L122.32 390.845C122.318 402.683 122.141 414.548 122.32 426.382L91.0069 426.382L91.8919 426.218C93.0447 425.002 91.9881 377.771 92.2097 371.231Z"/>
	<path fill="#F6D6AC" transform="scale(0.195312 0.195312)" d="M209.561 392.256L239.784 392.256L239.802 414.431C239.818 418.412 240.085 422.409 239.784 426.382L209.561 426.382L209.561 416.126C210.075 409.37 209.826 399.007 209.561 392.256Z"/>
	<path fill="#DB5550" transform="scale(0.195312 0.195312)" d="M209.561 400.304C209.583 405.564 209.322 410.874 209.561 416.126L209.561 426.382L122.32 426.382C122.504 423.479 122.346 420.469 122.342 417.554L122.32 400.304C132.063 400.507 141.846 400.307 151.594 400.306L209.561 400.304Z"/>
	<path fill="#496397" transform="scale(0.195312 0.195312)" d="M122.32 426.382L209.561 426.382L239.784 426.382L270.649 426.382C275.81 426.38 281.032 426.204 286.186 426.382C291.288 429.794 290.73 437.591 283.839 438.256C281.228 438.508 278.43 438.272 275.801 438.269L82.0532 438.254C77.9883 438.263 63.4754 439.481 60.4745 436.772C57.9619 434.503 57.9525 430.534 60.2319 428.096C63.1655 424.959 85.7537 426.482 91.0069 426.382L122.32 426.382L122.32 426.382Z"/>
</svg>
