<?xml version="1.0" encoding="utf-8" ?>
<svg xmlns="http://www.w3.org/2000/svg" xmlns:xlink="http://www.w3.org/1999/xlink" width="100" height="100">
	<path fill="#454995" transform="scale(0.195312 0.195312)" d="M85.8639 437.62C94.7649 436.868 96.5691 442.464 82.0155 442.475L66.2651 442.486C64.5873 442.478 56.3628 442.157 60.6524 438.211C62.113 436.867 82.6035 437.493 85.8639 437.62Z"/>
	<path fill="#454995" transform="scale(0.195312 0.195312)" d="M419.695 437.62L439.504 437.607C442.845 437.603 446.801 437.163 450.043 437.863C453.012 438.505 451.931 441.729 449.642 442.486L429.333 442.486C425.975 442.477 421.949 442.798 418.678 442.191C417.134 441.904 416.272 438.216 419.695 437.62Z"/>
	<path fill="#454995" transform="scale(0.195312 0.195312)" d="M82.0657 247.254C87.9753 246.984 84.58 252.746 86.5892 256.093C88.025 258.484 95.7526 266.849 98.4245 267.667C100.652 268.348 107.261 267.377 106.299 271.601C105.734 274.08 99.827 272.89 97.382 274.541C95.2293 275.995 87.3692 283.794 86.6936 286.048C85.8229 288.954 87.1685 294.179 84.4097 296.002L82.8253 295.974C80.5036 294.539 81.4794 289.085 80.6886 286.54C79.4473 282.545 71.1007 274.578 67.8529 273.401C65.4749 272.539 61.1359 273.905 60.2023 270.737C60.4756 266.832 66.5061 268.72 69.1019 267.126C72.0377 265.323 78.609 257.912 80.9744 255.044L81.1368 254.844C81.2726 252.457 80.6671 249.274 82.0657 247.254ZM72.5685 271.017C75.7308 273.067 78.4551 276.158 81.1368 278.8C81.7244 278.009 81.1219 266.061 81.1368 264.226L81.1368 262.396C78.1621 265.125 75.3461 268.087 72.5685 271.017ZM81.1368 262.396L81.1368 264.226C82.2709 263.874 83.7246 263.811 84.0199 265.245L84.0877 265.561C84.643 268.222 86.4639 270.066 87.9573 272.272L88.659 272.111C89.4709 273.569 87.2223 273.849 90.3158 274.559C91.6558 273.294 93.0391 272.145 94.496 271.017C90.3255 267.881 86.6258 264.079 83.5279 259.884C82.68 260.69 81.8436 261.459 81.1368 262.396Z"/>
	<path fill="#D2DDF3" transform="scale(0.195312 0.195312)" d="M81.1368 264.226C82.2709 263.874 83.7246 263.811 84.0199 265.245L84.0877 265.561C84.643 268.222 86.4639 270.066 87.9573 272.272L88.659 272.111C89.4709 273.569 87.2223 273.849 90.3158 274.559C88.0037 276.816 85.7244 279.084 83.5279 281.455C82.7443 280.557 81.9692 279.654 81.1368 278.8C81.7244 278.009 81.1219 266.061 81.1368 264.226Z"/>
	<path fill="#454995" transform="scale(0.195312 0.195312)" d="M162.182 91.2536C166.468 90.989 194.451 92.5612 196.399 93.6882C198.333 94.807 197.742 98.1484 195.419 98.2389C181.272 98.7907 161.841 90.4376 149.744 102.58C142.25 110.102 143.644 120.624 143.648 130.282L143.657 258.223L143.676 278.848C143.68 281.124 144.507 288.809 143.147 290.557C137.552 297.75 138.933 276.351 138.88 271.403L138.872 126.248C138.951 109.294 140.924 94.5688 162.182 91.2536Z"/>
	<path fill="#03AFFA" transform="scale(0.195312 0.195312)" d="M353.757 120.044C366.816 123.085 364.885 133.78 364.878 144.226L364.858 265.013C364.854 269.046 364.659 273.176 364.864 277.195C361.241 278.497 357.402 278.94 353.757 280.169C353.927 273.38 353.762 266.544 353.761 259.751L353.757 120.044Z"/>
	<path fill="#454995" transform="scale(0.195312 0.195312)" d="M266.935 64.1873C285.499 73.5088 296.981 80.546 319.622 81.2346C331.394 81.5927 328.378 81.0429 328.306 94.8151C344.316 93.3018 372.687 86.7582 384.522 96.5768C398.986 108.576 394.867 132.06 394.862 149.315L394.853 254.274C394.853 257.834 396.421 274.086 392.735 273.85C388.538 273.581 389.969 255.514 389.97 252.388L389.982 131.156C389.982 116.576 391.004 100.172 372.198 96.2152C363.907 94.4707 339.173 99.6141 328.306 99.7631L328.306 120.044L328.318 138.638C328.315 174.84 318.627 177.449 295.518 200.295L285.047 210.719C282.43 213.349 279.723 216.466 276.651 218.555C260.628 229.449 246.618 207.509 236.357 198.537L226.278 208.805C224.002 211.118 221.549 214.061 218.793 215.77C207.419 222.821 193.161 209.142 200.233 196.729C203.066 191.755 214.438 181.939 219.247 176.798C206.666 165.514 206.66 153.392 206.695 138.447L206.712 118.871C206.708 113.66 206.085 83.4214 207.194 80.7985C209.123 78.9684 213.531 79.8699 215.962 79.7889C234.212 79.1813 251.572 74.3698 266.935 64.1873ZM266.935 69.9691C251.706 79.6966 229.447 85.4595 211.387 84.7988L211.396 128.487C211.391 144.275 209.531 160.279 221.698 172.572C222.109 172.987 222.182 173.073 222.752 173.247L223.091 173.002C214.376 154.63 216.395 154.379 216.392 133.629L216.389 89.0028C238.714 90.4008 253.745 83.5366 272.822 73.164C270.85 72.1254 268.838 71.1285 266.935 69.9691Z"/>
	<path fill="#9E99F4" transform="scale(0.195312 0.195312)" d="M241.085 161.974C243.916 166.467 249.736 171.44 253.897 174.793C249.56 178.073 245.752 182.187 241.886 185.999L225.888 201.825C222.584 205.155 219.55 208.789 215.708 211.519C210.011 214.25 203.088 210.006 203.45 203.41C203.784 197.315 211.048 192.338 214.895 188.333C222.803 180.104 232.611 169.565 241.085 161.974Z"/>
	<path fill="#FB9C43" transform="scale(0.195312 0.195312)" d="M313.923 86.0154C317.109 86.0218 320.342 86.1448 323.523 86.0154L323.524 125.777C323.523 147.695 326.253 163.1 309.587 179.795L284.174 204.797C279.35 209.477 274.447 216.797 266.935 216.532C268.127 214.158 286.731 196.184 290.226 192.682C310.007 172.861 313.993 162.903 313.929 134.835L313.923 86.0154Z"/>
	<path fill="#FBBD8F" transform="scale(0.195312 0.195312)" d="M272.822 73.164C288.484 80.9577 297.606 82.9024 313.923 86.0154L313.929 134.835C313.993 162.903 310.007 172.861 290.226 192.682C286.731 196.184 268.127 214.158 266.935 216.532C258.214 216.166 246.917 201.213 239.682 195.12C244.567 189.771 256.399 179.844 259.629 174.793C257.881 171.756 244.081 158.296 241.085 155.813C237.928 157.426 225.582 169.792 223.091 173.002C214.376 154.63 216.395 154.379 216.392 133.629L216.389 89.0028C238.714 90.4008 253.745 83.5366 272.822 73.164Z"/>
	<path fill="#454995" transform="scale(0.195312 0.195312)" d="M296.847 96.2429C307.607 95.0215 315.287 107.402 309.949 116.768C307.626 120.844 298.901 128.514 295.252 132.635C295.022 138.953 294.981 144.695 292.305 150.558C285.506 165.455 269.359 170.916 254.691 164.037C223.538 147.013 239.138 99.9567 278.075 110.556C281.979 104.736 289.198 95.9952 296.847 96.2429Z"/>
	<path fill="#9E99F4" transform="scale(0.195312 0.195312)" d="M295.252 100.797C298.18 100.537 300.886 100.813 303.222 102.817C312.799 111.029 299.298 121.471 293.697 127.186C291.319 122.389 287.617 115.099 282.092 113.831C285.202 108.898 289.83 103.221 295.252 100.797Z"/>
	<path fill="#FEFEFE" transform="scale(0.195312 0.195312)" d="M264.129 113.831C268.203 113.45 271.875 114.038 275.698 115.468C274.661 117.215 272.901 118.729 272.916 120.879C272.974 128.741 279.693 118.353 280.283 117.626C285.213 120.564 287.392 126.36 290.244 131.062C288.779 131.358 278.826 131.923 282.131 135.841C283.488 137.45 288.305 136.601 290.244 136.554C290.349 141.563 289.362 146.545 286.76 150.864C284.655 148.007 277.898 143.198 278.36 148.865C278.494 150.513 282.702 153.322 283.954 154.356C279.927 158.919 275.652 161.211 269.638 161.974L269.638 155.813C269.256 154.085 267.319 152.419 265.707 154.113C264.197 155.701 264.739 159.906 264.772 161.974C258.606 161.153 254.658 158.239 249.987 154.356C251.301 153.303 254.251 151.346 254.604 149.677C256.117 142.516 247.968 149.825 246.887 150.864C244.472 145.75 242.845 141.401 243.482 135.702C253.585 137.088 253.343 132.577 243.482 131.062C245.731 125.522 248.556 120.666 253.897 117.626C259.28 128.019 263.585 124.902 257.796 115.468C259.854 114.617 261.937 114.164 264.129 113.831Z"/>
	<path fill="#454995" transform="scale(0.195312 0.195312)" d="M264.772 131.062C273.596 130.113 275.227 140.058 266.935 142.688C259.326 143.488 257.623 133.793 264.772 131.062Z"/>
	<path fill="#7ED5F9" transform="scale(0.195312 0.195312)" d="M265.857 134.186C269.171 134.396 268.862 137.404 266.935 139.12C263.151 138.896 263.351 135.987 265.857 134.186Z"/>
	<path fill="#7ED5F9" transform="scale(0.195312 0.195312)" d="M170.715 298.244L170.7 151.871C170.697 145.699 170.395 139.363 170.79 133.215C172.003 114.343 194.561 124.028 206.241 121.128C206.657 120.624 206.633 119.541 206.712 118.871L206.695 138.447C206.66 153.392 206.666 165.514 219.247 176.798C214.438 181.939 203.066 191.755 200.233 196.729C193.161 209.142 207.419 222.821 218.793 215.77C221.549 214.061 224.002 211.118 226.278 208.805L236.357 198.537C246.618 207.509 260.628 229.449 276.651 218.555C279.723 216.466 282.43 213.349 285.047 210.719L295.518 200.295C318.627 177.449 328.315 174.84 328.318 138.638L328.306 120.044C329.903 120.013 331.528 119.92 333.12 120.044L346.752 120.073C349.047 120.077 351.48 120.261 353.757 120.044L353.761 259.751C353.762 266.544 353.927 273.38 353.757 280.169C344.459 284.045 338.587 287.446 330.529 293.316C310.894 312.989 302.166 335.103 309.428 363.393C301.572 371.052 293.441 378.775 283.681 383.982C279.476 386.226 274.857 387.749 270.714 390.012C258.366 391.647 223.517 391.045 212.751 388.657C212.923 385.3 212.786 381.854 212.751 378.489C209.583 375.144 206.816 371.403 203.957 367.796L193.074 354.219C188.773 348.83 185.775 343.483 178.723 341.775L178.723 323.512C193.313 316.026 190.313 298.576 170.715 298.244Z"/>
	<path fill="#454995" transform="scale(0.195312 0.195312)" d="M219.247 351.301C224.243 351.237 256.092 350.878 258.309 351.592C260.663 352.351 260.063 355.82 257.796 356.235L230.44 356.248C226.895 356.248 217.785 357.903 215.553 354.482C215.26 352.203 217.402 351.527 219.247 351.301Z"/>
	<path fill="#454995" transform="scale(0.195312 0.195312)" d="M217.901 328.993L256.32 329.004C263.04 329.007 269.828 328.748 276.537 328.955C281.332 329.102 282.261 332.815 278.075 333.839L232.277 333.836C229.637 333.834 220.374 334.359 218.323 333.955C215.012 333.304 214.719 329.925 217.901 328.993Z"/>
	<path fill="#454995" transform="scale(0.195312 0.195312)" d="M217.901 306.276L291.902 306.275C294.218 306.277 303.773 305.419 305.053 307.593C305.903 309.038 305.362 310.531 303.979 311.255L227.592 311.281C225.555 311.287 217.194 312.204 215.947 310.297C214.641 308.298 216.104 306.935 217.901 306.276Z"/>
	<path fill="#454995" transform="scale(0.195312 0.195312)" d="M216.389 284.793C221.63 284.622 226.927 284.786 232.175 284.786L288.75 284.787C290.803 284.787 311.192 282.938 303.979 289.803C300.84 290.176 297.352 289.811 294.166 289.809L237.169 289.805C234.148 289.804 209.681 292.319 216.389 284.793Z"/>
	<path fill="#454995" transform="scale(0.195312 0.195312)" d="M330.529 252.185C332.56 252.123 344.696 250.995 340.222 256.439C338.121 257.473 333.112 256.91 330.529 257.228L212.822 257.202C211.904 257.205 189.021 259.455 194.793 253.108C196.476 251.257 206.863 252.19 209.44 252.189L330.529 252.185Z"/>
	<path fill="#2FC1F8" transform="scale(0.195312 0.195312)" d="M333.12 120.044L346.752 120.073C349.047 120.077 351.48 120.261 353.757 120.044L353.761 259.751C353.762 266.544 353.927 273.38 353.757 280.169C344.459 284.045 338.587 287.446 330.529 293.316C330.294 289.994 330.538 285.611 330.534 282.182L330.529 257.228C333.112 256.91 338.121 257.473 340.222 256.439C344.696 250.995 332.56 252.123 330.529 252.185L330.533 132.024C330.526 127.162 328.353 120.473 333.12 120.044Z"/>
	<path fill="#454995" transform="scale(0.195312 0.195312)" d="M364.864 277.195C370.445 277.329 376.027 276.869 381.595 277.424C432.308 282.478 461.579 346.677 428.806 387.298C425.02 391.991 420.49 396.117 416.527 400.687C409.402 408.905 402.705 416.961 395.713 425.213C392.258 429.291 388.245 433.146 385.326 437.62L385.759 437.592C389.074 437.394 405.028 436.884 406.615 438.494C412.875 444.844 384.076 442.487 372.668 442.487L145.209 443.4C141.335 443.402 111.777 442.67 110.129 442.254C107.617 441.619 108.162 438.544 110.345 437.84C113.494 436.824 120.819 437.629 124.507 437.62L124.15 437.259C117.076 430.244 116.648 430.728 109.908 421.826C97.2132 418.128 89.4729 415.826 82.4492 402.886C71.9489 383.541 80.4519 376.55 91.0479 362.756C96.8246 355.235 102.005 345.309 111.28 341.775L111.28 322.651C98.4059 318.988 99.4764 299.51 114.402 298.298C120.46 297.807 126.859 298.255 132.954 298.255L170.715 298.244C190.313 298.576 193.313 316.026 178.723 323.512L178.723 341.775C185.775 343.483 188.773 348.83 193.074 354.219L203.957 367.796C206.816 371.403 209.583 375.144 212.751 378.489C212.786 381.854 212.923 385.3 212.751 388.657C223.517 391.045 258.366 391.647 270.714 390.012C274.857 387.749 279.476 386.226 283.681 383.982C293.441 378.775 301.572 371.052 309.428 363.393C302.166 335.103 310.894 312.989 330.529 293.316C338.587 287.446 344.459 284.045 353.757 280.169C357.402 278.94 361.241 278.497 364.864 277.195ZM207.69 413.782C200.175 413.996 202.143 413.152 195.903 416.785C190.462 419.952 184.996 421.546 178.723 421.826C173.616 427.512 171.807 432.873 164.741 437.62C182.078 437.945 199.481 437.618 216.826 437.617L321.437 437.62L364.864 437.62C358.958 429.184 351.346 422.113 345.404 413.782C341.057 414.258 336.465 413.795 332.077 413.787L207.69 413.782ZM173.762 346.74C167.713 347.749 153.342 368.877 148.584 374.508C152.207 374.295 155.87 374.487 159.5 374.501L177.754 374.508L203.31 374.508C198.863 369.614 194.869 364.328 190.812 359.114C186.407 353.454 182.124 345.077 173.762 346.74ZM113.503 346.74C105.822 347.556 93.2491 367.814 87.9511 374.508L116.228 374.508L140.997 374.508C139.104 370.258 132.354 362.875 129.14 358.857C125.315 354.076 120.767 345.413 113.503 346.74ZM127.316 303.083C127.512 305.137 127.545 307.195 127.316 309.249C138.893 310.452 152.987 307.849 163.319 309.249C163.363 307.197 163.323 305.136 163.319 303.083C151.434 303.087 139.503 303.35 127.63 302.794L127.316 303.083ZM83.5279 379.45C81.6934 396.405 91.1727 416.248 109.908 416.217C109.423 415.71 108.856 415.285 108.314 414.839C94.2861 407.257 85.8113 396.337 88.5467 379.45C86.8636 379.513 85.2098 379.563 83.5279 379.45ZM145.494 379.45C145.338 396.452 152.358 413.226 170.715 416.217C166.794 412.389 168.16 412.532 162.824 409.009C153.931 403.138 147.939 389.857 150.464 379.45L145.494 379.45ZM116.228 323.512L116.228 341.775C119.734 342.399 122.014 343.371 124.507 346.02C124.667 338.854 124.702 330.671 124.507 323.512C121.744 323.459 118.991 323.398 116.228 323.512ZM396.546 286.171L396.531 286.553L397.065 286.735L397.013 286.881C395.057 287.098 388.178 285.254 391.718 289.803C395.946 290.428 400.948 292.054 404.511 294.459C412.236 298.842 419.309 304.021 425.388 310.536C427.238 312.518 428.483 315.032 430.407 316.937C426.221 305.242 408.119 289.873 396.546 286.171ZM122.458 303.083C122.177 305.133 122.257 307.193 122.458 309.249C119.493 309.399 116.419 309.008 113.503 309.249C110.721 311.633 110.254 313.292 109.908 316.937C113.062 318.472 115.784 318.655 119.231 318.586L120.678 318.578C121.348 318.575 121.866 318.66 122.434 318.237L122.458 317.577C122.901 313.841 122.74 306.798 122.458 303.083ZM109.908 316.937C110.254 313.292 110.721 311.633 113.503 309.249C116.419 309.008 119.493 309.399 122.458 309.249C122.257 307.193 122.177 305.133 122.458 303.083C113.941 303.068 100.118 305.783 109.908 316.937Z"/>
	<path fill="#FEFEFE" transform="scale(0.195312 0.195312)" d="M168.185 303.083C174.353 303.336 179.374 302.148 182.189 308.803C180.887 309.896 170.75 309.063 168.185 309.249L168.185 303.083Z"/>
	<path fill="#D2DDF3" transform="scale(0.195312 0.195312)" d="M122.458 303.083C122.74 306.798 122.901 313.841 122.458 317.577L122.434 318.237C121.866 318.66 121.348 318.575 120.678 318.578L119.231 318.586C115.784 318.655 113.062 318.472 109.908 316.937C110.254 313.292 110.721 311.633 113.503 309.249C116.419 309.008 119.493 309.399 122.458 309.249C122.257 307.193 122.177 305.133 122.458 303.083ZM119.231 318.586L120.678 318.578C121.348 318.575 121.866 318.66 122.434 318.237L122.458 317.577C122.36 316.517 122.277 315.472 122.051 314.429L121.948 315.633C119.781 314.71 118.575 316.376 119.231 318.586Z"/>
	<path fill="#D2DDF3" transform="scale(0.195312 0.195312)" d="M182.189 308.803C185.253 318.492 174.716 318.941 168.185 318.586L168.185 309.249C170.75 309.063 180.887 309.896 182.189 308.803Z"/>
	<path fill="#D2DDF3" transform="scale(0.195312 0.195312)" d="M164.741 323.512L173.762 323.512C173.76 329.597 173.693 335.69 173.762 341.775C169.89 342.096 167.601 343.465 164.741 346.02C164.402 343.811 164.699 341.229 164.708 338.98L164.741 323.512Z"/>
	<path fill="#ACC1E8" transform="scale(0.195312 0.195312)" d="M156.993 323.512L164.741 323.512L164.708 338.98C164.699 341.229 164.402 343.811 164.741 346.02C162.575 349.661 159.651 352.946 156.993 356.235C156.811 352.749 157 349.169 157 345.671L156.993 323.512Z"/>
	<path fill="#D2DDF3" transform="scale(0.195312 0.195312)" d="M127.316 318.586C127.342 313.447 127 308.205 127.316 303.083C127.512 305.137 127.545 307.195 127.316 309.249C138.893 310.452 152.987 307.849 163.319 309.249L163.319 318.586L127.316 318.586Z"/>
	<path fill="#FE7C39" transform="scale(0.195312 0.195312)" d="M140.997 379.45C140.981 385.518 140.479 391.375 143.657 396.795C137.308 407.411 123.518 420.798 109.908 416.217C109.423 415.71 108.856 415.285 108.314 414.839C120.705 409.603 131.148 401.585 136.335 388.798C137.703 385.425 138.161 382.033 140.997 379.45Z"/>
	<path fill="#D2DDF3" transform="scale(0.195312 0.195312)" d="M145.494 403.536C148.832 408.451 152.371 412.451 156.993 416.217C149.687 420.176 139.533 425.548 131.877 427.46C128.601 428.278 124.419 428.03 121.67 428.847C119.42 426.708 117.472 424.254 115.547 421.826C128.914 420.876 137.806 414.045 145.494 403.536Z"/>
	<path fill="#ACC1E8" transform="scale(0.195312 0.195312)" d="M156.993 416.217C162.205 419.048 166.83 420.769 172.687 421.826C160.343 440.202 137.912 445.461 121.67 428.847C124.419 428.03 128.601 428.278 131.877 427.46C139.533 425.548 149.687 420.176 156.993 416.217Z"/>
	<path fill="#FEFEFE" transform="scale(0.195312 0.195312)" d="M334.938 394.736C312.77 374.091 304.714 345.141 318.409 316.936C331.082 290.837 360.65 277.309 388.607 283.661C391.266 284.265 394.089 284.961 396.546 286.171L396.531 286.553L397.065 286.735L397.013 286.881C395.057 287.098 388.178 285.254 391.718 289.803C343.215 276.167 301.129 327.297 327.461 373.555C328.077 374.636 328.902 376.541 329.804 377.307C332.565 382.193 335.371 387.107 337.663 392.235C339.437 395.895 342.716 401.127 343.883 404.71C340.707 401.763 337.745 398.047 334.938 394.736Z"/>
	<path fill="#D2DDF3" transform="scale(0.195312 0.195312)" d="M124.507 323.512L156.993 323.512L157 345.671C157 349.169 156.811 352.749 156.993 356.235C152.973 361.041 149.286 366.05 145.494 371.03C137.648 363.862 131.738 351.89 124.507 346.02C124.667 338.854 124.702 330.671 124.507 323.512Z"/>
	<path fill="#FB9C43" transform="scale(0.195312 0.195312)" d="M88.5467 379.45L124.3 379.446C129.597 379.447 135.838 379.864 140.997 379.45C138.161 382.033 137.703 385.425 136.335 388.798C131.148 401.585 120.705 409.603 108.314 414.839C94.2861 407.257 85.8113 396.337 88.5467 379.45Z"/>
	<path fill="#FB9C43" transform="scale(0.195312 0.195312)" d="M150.464 379.45L207.69 379.45C208.326 389.551 207.5 398.678 200.548 406.645C193.915 414.245 180.796 419.854 170.715 416.217C166.794 412.389 168.16 412.532 162.824 409.009C153.931 403.138 147.939 389.857 150.464 379.45Z"/>
	<path fill="#03AFFA" transform="scale(0.195312 0.195312)" d="M309.428 363.393C313.22 375.311 316.854 381.542 325.042 390.956C329.528 395.77 337.087 404.2 340.768 409.182L252.563 409.183C236.737 409.183 220.882 409.384 205.058 409.182C209.35 402.485 211.594 396.491 212.751 388.657C223.517 391.045 258.366 391.647 270.714 390.012C274.857 387.749 279.476 386.226 283.681 383.982C293.441 378.775 301.572 371.052 309.428 363.393Z"/>
	<path fill="#2FC1F8" transform="scale(0.195312 0.195312)" d="M309.428 363.393C313.22 375.311 316.854 381.542 325.042 390.956C321.027 391.101 317.018 390.537 313.002 390.505L285.893 390.494C281.436 390.493 274.821 391.066 270.714 390.012C274.857 387.749 279.476 386.226 283.681 383.982C293.441 378.775 301.572 371.052 309.428 363.393Z"/>
	<path fill="#3CC876" transform="scale(0.195312 0.195312)" d="M401.591 294.459C402.569 294.535 403.532 294.493 404.511 294.459C412.236 298.842 419.309 304.021 425.388 310.536C427.238 312.518 428.483 315.032 430.407 316.937C441.804 335.019 439.204 363.153 427.45 380.722C423.581 386.505 418.416 390.857 413.874 396.042C403.092 408.349 389.074 424.089 379.862 437.62C377.619 437.537 374.158 437.818 372.104 436.984C366.521 432.777 349.325 411.841 343.883 404.71C342.716 401.127 339.437 395.895 337.663 392.235C335.371 387.107 332.565 382.193 329.804 377.307L330.437 377.133C332.015 378.126 333.383 379.621 334.781 380.86C354.2 398.064 385.086 402.63 405.776 385.559C407.881 383.821 410.461 381.088 412.985 380.044C431.605 356.458 431.43 323.398 410.013 301.646C407.416 299.007 404.189 297.094 401.591 294.459Z"/>
	<path fill="#82E0A2" transform="scale(0.195312 0.195312)" d="M329.804 377.307C328.902 376.541 328.077 374.636 327.461 373.555C301.129 327.297 343.215 276.167 391.718 289.803C395.946 290.428 400.948 292.054 404.511 294.459C403.532 294.493 402.569 294.535 401.591 294.459C404.189 297.094 407.416 299.007 410.013 301.646C431.43 323.398 431.605 356.458 412.985 380.044C410.461 381.088 407.881 383.821 405.776 385.559C385.086 402.63 354.2 398.064 334.781 380.86C333.383 379.621 332.015 378.126 330.437 377.133L329.804 377.307Z"/>
	<path fill="#454995" transform="scale(0.195312 0.195312)" d="M373.49 300.148C411.012 300.126 432.267 343.025 407.476 371.946C399.339 381.438 388.315 385.998 376.002 386.962C315.162 388.314 316.61 302.341 373.49 300.148Z"/>
	<path fill="#FEFEFE" transform="scale(0.195312 0.195312)" d="M372.104 305.302C380.786 303.962 390.601 307.514 397.411 312.819C426.258 335.296 413.591 377.878 376.763 382.197L374.877 382.257C322.436 383.546 324.12 305.867 372.104 305.302Z"/>
	<path fill="#454995" transform="scale(0.195312 0.195312)" d="M373.49 318.586C379.493 319.018 376.779 336.408 376.763 341.775C378.372 341.769 404.806 339.427 398.719 346.079C397.646 347.251 379.65 346.748 376.763 346.74L376.793 360.639C376.796 363.338 377.487 367.005 376.002 369.398C369.024 371.314 372.135 352.209 372.104 346.74C367.369 346.565 355.113 347.497 351.534 346.277C345.636 341.203 358.668 341.743 360.189 341.745L372.104 341.775C372.109 336.933 370.421 321.914 373.49 318.586Z"/>
</svg>
