<?xml version="1.0" encoding="utf-8" ?>
<svg xmlns="http://www.w3.org/2000/svg" xmlns:xlink="http://www.w3.org/1999/xlink" width="100" height="100">
	<path fill="#FCBBB9" transform="scale(0.195312 0.195312)" d="M225.162 279.958C226.713 280.199 234.506 286.296 236.604 287.56C261.86 302.778 281.869 291.644 300.43 274.21C302.907 271.883 304.974 266.324 308.909 267.775C312.331 271.251 298.31 281.429 295.366 284.2C304.06 308.72 324.56 322.754 349.379 327.169C353.311 327.868 357.333 328.17 361.196 329.209C380.104 334.293 395.554 352.235 397.417 371.837C397.902 376.938 397.736 382.124 397.741 387.243L397.75 409.953C397.75 414.199 398.287 431.172 397.383 434.292C396.19 435.41 394.927 434.813 393.584 434.249C382.676 434.267 371.637 434.614 360.743 434.249C359.452 434.758 357.797 434.772 356.519 434.249L160.371 434.252C148.92 434.25 137.446 434.079 125.997 434.249C119.963 438.229 122.006 425.818 121.971 423.209L121.839 391.097C121.826 383.135 121.278 374.761 122.68 366.906C126.136 347.547 142.358 331.573 161.637 328.011C168.267 326.786 173.933 326.726 181.075 325.149C183.497 324.078 186.134 323.452 188.583 322.374C210.487 312.942 218.085 300.836 225.162 279.958Z"/>
	<path fill="#FC9392" transform="scale(0.195312 0.195312)" d="M225.162 279.958C226.713 280.199 234.506 286.296 236.604 287.56C261.86 302.778 281.869 291.644 300.43 274.21C302.907 271.883 304.974 266.324 308.909 267.775C312.331 271.251 298.31 281.429 295.366 284.2C304.06 308.72 324.56 322.754 349.379 327.169C353.311 327.868 357.333 328.17 361.196 329.209C380.104 334.293 395.554 352.235 397.417 371.837C397.902 376.938 397.736 382.124 397.741 387.243L397.75 409.953C397.75 414.199 398.287 431.172 397.383 434.292C396.19 435.41 394.927 434.813 393.584 434.249C393.327 431.275 393.558 428.119 393.584 425.123L393.592 392.771C393.591 381.861 394.185 371.309 390.259 360.903C382.095 339.267 366.669 334.406 346.819 330.773C324.875 326.758 302.458 313.301 294.296 291.703C293.52 290.303 293.04 288.899 292.559 287.377C290.12 288.549 287.907 290.102 285.735 291.703C286.587 295.678 277.724 299.786 276.287 303.688C274.941 304.999 272.203 307.03 270.31 307.131C262.028 315.757 223.478 331.11 210.662 335.99C202.731 339.011 194.101 341.162 186.581 345.081C165.522 356.056 166.089 375.071 166.09 395.02L166.102 425.123L245.422 425.139C248.931 425.15 252.527 425.315 256.028 425.123C256.903 427.582 256.56 431.324 258.236 433.338C263.344 433.94 261.614 428.248 263.087 425.123C273.279 425.455 283.597 425.121 293.802 425.122L356.519 425.123C356.49 428.131 356.299 431.255 356.519 434.249L160.371 434.252C148.92 434.25 137.446 434.079 125.997 434.249C119.963 438.229 122.006 425.818 121.971 423.209L121.839 391.097C121.826 383.135 121.278 374.761 122.68 366.906C126.136 347.547 142.358 331.573 161.637 328.011C168.267 326.786 173.933 326.726 181.075 325.149C183.497 324.078 186.134 323.452 188.583 322.374C210.487 312.942 218.085 300.836 225.162 279.958Z"/>
	<path fill="#4552AF" transform="scale(0.195312 0.195312)" d="M225.162 279.958C226.713 280.199 234.506 286.296 236.604 287.56C261.86 302.778 281.869 291.644 300.43 274.21C302.907 271.883 304.974 266.324 308.909 267.775C312.331 271.251 298.31 281.429 295.366 284.2C304.06 308.72 324.56 322.754 349.379 327.169C353.311 327.868 357.333 328.17 361.196 329.209C380.104 334.293 395.554 352.235 397.417 371.837C397.902 376.938 397.736 382.124 397.741 387.243L397.75 409.953C397.75 414.199 398.287 431.172 397.383 434.292C396.19 435.41 394.927 434.813 393.584 434.249C393.327 431.275 393.558 428.119 393.584 425.123L393.592 392.771C393.591 381.861 394.185 371.309 390.259 360.903C382.095 339.267 366.669 334.406 346.819 330.773C324.875 326.758 302.458 313.301 294.296 291.703C293.52 290.303 293.04 288.899 292.559 287.377C290.12 288.549 287.907 290.102 285.735 291.703C286.587 295.678 277.724 299.786 276.287 303.688C274.941 304.999 272.203 307.03 270.31 307.131C268.401 307.016 265.882 308.254 263.923 308.583C250.334 310.866 233.479 306.735 223.993 296.669C211.413 313.863 198.807 327.108 175.899 330.566C171.827 331.18 167.654 331.036 163.61 331.726C145.501 334.818 129.991 349.821 126.683 367.923C124.208 381.47 125.74 419.291 125.997 434.249C119.963 438.229 122.006 425.818 121.971 423.209L121.839 391.097C121.826 383.135 121.278 374.761 122.68 366.906C126.136 347.547 142.358 331.573 161.637 328.011C168.267 326.786 173.933 326.726 181.075 325.149C183.497 324.078 186.134 323.452 188.583 322.374C210.487 312.942 218.085 300.836 225.162 279.958Z"/>
	<path fill="#F98287" transform="scale(0.195312 0.195312)" d="M227.496 286.251C247.923 299.65 261.888 304.197 285.735 291.703C286.587 295.678 277.724 299.786 276.287 303.688C274.941 304.999 272.203 307.03 270.31 307.131C268.401 307.016 265.882 308.254 263.923 308.583C250.334 310.866 233.479 306.735 223.993 296.669C224.309 293.345 226.462 289.494 227.496 286.251Z"/>
	<path fill="#FC9392" transform="scale(0.195312 0.195312)" d="M360.743 425.123L393.584 425.123C393.558 428.119 393.327 431.275 393.584 434.249C382.676 434.267 371.637 434.614 360.743 434.249C361.161 431.433 360.764 428.008 360.743 425.123Z"/>
	<path fill="#4552AF" transform="scale(0.195312 0.195312)" d="M259.371 422.692C261.922 418.066 276.478 402.518 279.366 409.709C278.955 413.153 268.012 413.562 263.087 425.123C261.614 428.248 263.344 433.94 258.236 433.338C256.56 431.324 256.903 427.582 256.028 425.123C251.18 413.762 241.461 413.508 239.936 411.036C236.813 405.976 252.118 406.822 259.371 422.692Z"/>
	<path fill="#4552AF" transform="scale(0.195312 0.195312)" d="M356.519 425.123C356.547 421.667 356.094 412.718 356.622 410.12C357.065 407.942 359.818 406.747 360.565 409.225C361.267 411.552 360.734 421.921 360.743 425.123C360.764 428.008 361.161 431.433 360.743 434.249C359.452 434.758 357.797 434.772 356.519 434.249C356.299 431.255 356.49 428.131 356.519 425.123Z"/>
	<path fill="#FC9392" transform="scale(0.195312 0.195312)" d="M292.559 287.377C293.04 288.899 293.52 290.303 294.296 291.703C290.136 294.389 280.441 302.838 276.287 303.688C277.724 299.786 286.587 295.678 285.735 291.703C287.907 290.102 290.12 288.549 292.559 287.377Z"/>
	<path fill="#FCBBB9" transform="scale(0.195312 0.195312)" d="M209.58 104.011L209.919 103.642C211.824 101.537 213.212 98.999 215.179 96.9237C228.192 83.1938 244.223 74.5566 263.2 73.335C298.532 71.0607 331.202 99.2773 333.185 134.835C333.487 140.254 332.958 145.725 332.596 151.132L331.111 172.242C330.667 177.892 330.101 183.454 330.487 189.126C347.894 191.21 348.754 218.764 328.706 221.469C328.726 224.196 329.062 227.323 328.706 230.007C326.769 233.757 325.643 237.864 324.062 241.77C321.409 248.323 315.115 257.515 313.54 262.746C316.251 263.645 319.27 264.407 321.789 265.76L321 269.371C316.941 267.985 313.028 266.863 308.909 265.76C308.781 266.512 308.796 267.02 308.909 267.775C304.974 266.324 302.907 271.883 300.43 274.21C281.869 291.644 261.86 302.778 236.604 287.56C234.506 286.296 226.713 280.199 225.162 279.958C220.203 277.345 217.014 271.978 212.128 269.371C212.931 266.354 216.251 261.651 215.018 258.638C212.078 257.118 208.123 258.458 205.111 257.416C198.837 249.327 197.475 240.059 198.175 230.007L196.693 230.007C191.969 229.979 192.35 227.354 192.262 223.379C187.133 222.062 182.933 220.071 180.171 215.321C173.9 204.531 178.355 189.655 192.262 187.544C189.901 182.691 188.863 177.274 187.543 172.063L181.729 148.184C178.036 133.088 171.102 115.857 190.325 106.531C196.405 103.58 203.007 103.976 209.58 104.011Z"/>
	<path fill="#4552AF" transform="scale(0.195312 0.195312)" d="M209.58 104.011L209.919 103.642C211.824 101.537 213.212 98.999 215.179 96.9237C228.192 83.1938 244.223 74.5566 263.2 73.335C298.532 71.0607 331.202 99.2773 333.185 134.835C333.487 140.254 332.958 145.725 332.596 151.132L331.111 172.242C330.667 177.892 330.101 183.454 330.487 189.126C347.894 191.21 348.754 218.764 328.706 221.469C328.726 224.196 329.062 227.323 328.706 230.007L324.278 230.007L324.427 196.447C324.432 188.131 310.961 170.557 305.177 164.757C288.897 148.432 274.885 151.114 253.389 151.143L227.738 151.052C222.851 151.057 218.236 151.865 214.663 155.458C216.149 161.719 214.889 183.264 215.018 190.769C212.102 192.135 212.043 193.652 214.663 195.279C215.955 199.564 214.895 224.149 215.018 230.007C209.426 229.833 203.773 230.004 198.175 230.007L196.693 230.007C191.969 229.979 192.35 227.354 192.262 223.379C187.133 222.062 182.933 220.071 180.171 215.321C173.9 204.531 178.355 189.655 192.262 187.544C189.901 182.691 188.863 177.274 187.543 172.063L181.729 148.184C178.036 133.088 171.102 115.857 190.325 106.531C196.405 103.58 203.007 103.976 209.58 104.011Z"/>
	<path fill="#F98287" transform="scale(0.195312 0.195312)" d="M196.693 230.007C197.058 226.924 196.717 223.502 196.707 220.379L196.666 199.106C196.663 196.087 196.251 192.33 197.062 189.407C198.787 183.195 210.332 160.012 214.663 155.458C216.149 161.719 214.889 183.264 215.018 190.769C212.102 192.135 212.043 193.652 214.663 195.279C215.955 199.564 214.895 224.149 215.018 230.007C209.426 229.833 203.773 230.004 198.175 230.007L196.693 230.007Z"/>
	<path fill="#3CB4E4" transform="scale(0.195312 0.195312)" d="M217.766 100.568C226.691 88.8721 243.855 80.3568 258.132 78.3972C291.951 73.7552 323.896 97.1728 328.44 131.254C329.429 138.675 328.526 146.399 327.971 153.834L326.387 177.138C326.19 180.219 325.81 183.322 325.71 186.404C321.873 179.667 318.265 175.015 314.336 168.843C300.447 151.683 291.664 147.268 270.835 147.265L235.95 147.259C227.259 147.215 217.628 146.145 210.946 153.004C204.179 159.951 199.669 174.353 195.12 183.56L194.985 183.831C193.897 179.662 193.048 175.425 192.013 171.242L185.372 144.942C182.621 133.716 177.405 123.254 187.276 113.772C194.067 107.248 203.474 108.305 212.128 108.457C213.953 105.829 215.722 103.026 217.766 100.568Z"/>
	<path fill="#A4E4F7" transform="scale(0.195312 0.195312)" d="M217.766 100.568C226.691 88.8721 243.855 80.3568 258.132 78.3972C291.951 73.7552 323.896 97.1728 328.44 131.254C329.429 138.675 328.526 146.399 327.971 153.834L326.387 177.138C326.19 180.219 325.81 183.322 325.71 186.404C321.873 179.667 318.265 175.015 314.336 168.843C315.052 162.494 314.424 151.006 314.301 144.376C313.929 124.289 302.753 106.88 282.803 101.946C271.095 99.0505 231.836 100.272 217.766 100.568Z"/>
	<path fill="#F98287" transform="scale(0.195312 0.195312)" d="M191.094 191.986C193.409 191.798 192.289 198.9 192.287 200.995L192.262 219.23C190.286 218.641 188.318 217.879 186.439 217.03C179.993 208.934 179.828 195.35 191.094 191.986Z"/>
	<path fill="#FCBBB9" transform="scale(0.195312 0.195312)" d="M329.058 193.17C339.571 193.585 342.031 206.674 336.166 213.798C333.827 215.768 331.633 216.457 328.706 217.03C328.602 209.629 327.979 200.43 329.058 193.17Z"/>
	<path fill="#A4E4F7" transform="scale(0.195312 0.195312)" d="M270.31 230.007C270.979 229.694 319.047 230.008 324.278 230.007L328.706 230.007C326.769 233.757 325.643 237.864 324.062 241.77C321.409 248.323 315.115 257.515 313.54 262.746C316.251 263.645 319.27 264.407 321.789 265.76L321 269.371C316.941 267.985 313.028 266.863 308.909 265.76C308.781 266.512 308.796 267.02 308.909 267.775C304.974 266.324 302.907 271.883 300.43 274.21C281.869 291.644 261.86 302.778 236.604 287.56C234.506 286.296 226.713 280.199 225.162 279.958C220.203 277.345 217.014 271.978 212.128 269.371C212.931 266.354 216.251 261.651 215.018 258.638C212.078 257.118 208.123 258.458 205.111 257.416C198.837 249.327 197.475 240.059 198.175 230.007C203.773 230.004 209.426 229.833 215.018 230.007L241.728 229.997C243.823 229.989 248.515 228.897 250.181 230.007C249.796 232.053 247.15 238.942 248.856 240.413C252.125 243.231 263.042 242.663 267.21 242.478C273.933 242.179 270.962 234.381 270.31 230.007Z"/>
	<path fill="#4552AF" transform="scale(0.195312 0.195312)" d="M308.909 265.76C306.829 264.572 300.588 263.225 299.556 261.76C298.899 260.828 299.528 259.182 300.549 258.783C302.544 258.004 311.167 261.883 313.54 262.746C316.251 263.645 319.27 264.407 321.789 265.76L321 269.371C316.941 267.985 313.028 266.863 308.909 265.76Z"/>
	<path fill="#FC9392" transform="scale(0.195312 0.195312)" d="M257.143 251.171C284.065 250.159 283.473 270.952 261.474 272.759C255.935 272.85 236.577 265.305 240.719 259.583C243.167 256.201 252.962 251.96 257.143 251.171Z"/>
	<path fill="#FC9392" transform="scale(0.195312 0.195312)" d="M250.181 230.007C251.703 224.344 250.534 201.565 261.864 206.754C266.966 209.09 268.513 224.864 270.31 230.007C270.962 234.381 273.933 242.179 267.21 242.478C263.042 242.663 252.125 243.231 248.856 240.413C247.15 238.942 249.796 232.053 250.181 230.007Z"/>
	<path fill="#4552AF" transform="scale(0.195312 0.195312)" d="M215.018 190.769C230.427 181.422 252.231 192.768 245.44 195.445C243.643 196.154 241.111 194.092 239.605 193.338C229.023 188.041 224.229 191.902 214.663 195.279C212.043 193.652 212.102 192.135 215.018 190.769Z"/>
	<path fill="#4552AF" transform="scale(0.195312 0.195312)" d="M289.397 186.404C292.647 186.034 309.69 189.966 306.03 194.557C303.527 195.648 296.907 191.4 292.559 190.769C282.235 190.384 282.155 194.56 277.378 195.637C275.526 196.055 274.412 193.513 275.518 192.107C278.113 188.807 285.343 186.791 289.397 186.404Z"/>
	<path fill="#4552AF" transform="scale(0.195312 0.195312)" d="M281.775 203.99C284.391 203.883 286.854 206.358 289.397 207.093C291.507 206.582 299.355 201.453 299.522 206.425C299.551 207.296 299.097 207.756 298.546 208.347C288.355 214.038 275.94 208.013 281.775 203.99Z"/>
	<path fill="#4552AF" transform="scale(0.195312 0.195312)" d="M223.993 203.99C226.886 204.571 228.851 207.148 232.156 206.25C234.716 205.554 236.563 203 239.25 204.845C240.175 206.446 239.472 207.236 238.218 208.347C230.335 213.545 217.681 208.696 223.993 203.99Z"/>
	<path fill="#FEFDFD" transform="scale(0.195312 0.195312)" d="M150.336 307.131C149.66 308.266 148.481 308.927 147.473 309.742C133.637 320.927 113.283 324.837 95.7412 322.704C67.4774 319.266 40.5696 294.689 33.5528 267.041C30.811 256.238 30.8839 238.19 33.8725 227.434C46.7348 181.144 99.8048 156.566 142.538 182.543C167.266 197.574 179.987 226.214 177.653 254.607C177.43 257.317 174.974 268.592 175.738 270.139C178.965 272.866 175.084 274.463 172.7 274.844C172.278 278.16 168.168 287.885 164.984 289.207C164.421 289.836 163.871 290.487 163.283 291.092C162.898 294.552 160.527 294.79 162.989 298.498C169.308 308.015 182.151 314.368 188.583 322.374C186.134 323.452 183.497 324.078 181.075 325.149C177.912 321.116 158.83 306.573 155.024 305.088C153.254 305.52 151.87 306.18 150.336 307.131Z"/>
	<path fill="#E8E1EE" transform="scale(0.195312 0.195312)" d="M151.515 294.489C156.907 295.962 157.933 293.775 163.283 291.092C162.898 294.552 160.527 294.79 162.989 298.498C169.308 308.015 182.151 314.368 188.583 322.374C186.134 323.452 183.497 324.078 181.075 325.149C177.912 321.116 158.83 306.573 155.024 305.088C153.254 305.52 151.87 306.18 150.336 307.131L150.197 306.761C158.381 298.755 169.879 318.513 177.735 320.944C174.828 317.837 177.933 319.668 179.578 320.684L179.781 320.499C179.537 320.189 179.442 320.025 179.29 319.644L179.798 319.318C179.207 318.545 178.751 317.669 178.837 316.668C180.792 317.073 182.007 320.329 184.123 319.122C179.261 312.901 168.408 307.207 162.659 298.935C161.784 297.676 161.644 295.941 160.933 294.586C159.333 291.533 153.037 298.579 151.515 294.489Z"/>
	<path fill="#4552AF" transform="scale(0.195312 0.195312)" d="M151.515 294.489C150.319 290.268 156.365 288.973 160.157 287.261C162.763 286.085 163.848 286.645 164.984 289.207C164.421 289.836 163.871 290.487 163.283 291.092C157.933 293.775 156.907 295.962 151.515 294.489Z"/>
	<path fill="#4552AF" transform="scale(0.195312 0.195312)" d="M172.7 274.844C156.545 275.681 162.513 268.373 175.738 270.139C178.965 272.866 175.084 274.463 172.7 274.844Z"/>
	<path fill="#4552AF" transform="scale(0.195312 0.195312)" d="M94.8989 238.233L95.8652 238.218C97.62 239.08 101.02 244.366 102.718 246.183C102.357 244.418 101.457 241.789 101.745 240.024C102.12 237.719 104.999 237.549 105.963 239.54C106.915 241.507 109.208 253.505 105.022 254.656C84.7528 249.703 89.1815 243.11 98.4644 248.477C96.4966 245.346 90.3094 241.54 94.8989 238.233Z"/>
	<path fill="#4552AF" transform="scale(0.195312 0.195312)" d="M145.721 261.897C150.91 260.598 148.157 265.323 144.213 267.775C145.303 267.922 159.401 269.249 153.934 273.445C152.087 274.862 146.678 272.88 144.464 272.526L144.213 272.759C145.732 276.267 145.677 281.712 141.684 277.719C133.765 269.799 136.556 265.7 145.721 261.897Z"/>
	<path fill="#4552AF" transform="scale(0.195312 0.195312)" d="M117.485 214.814C117.088 207.603 122.976 209.442 122.708 213.798C123.382 214.804 124.269 214.726 125.367 214.814C131.711 214.025 129.269 221.995 122.708 219.23L121.833 219.23C125.258 225.968 115.563 227.151 117.485 220.319L117.485 219.23C112.867 221.609 107.563 214.33 117.485 214.814Z"/>
	<path fill="#4552AF" transform="scale(0.195312 0.195312)" d="M125.367 214.814C131.711 214.025 129.269 221.995 122.708 219.23C120.676 216.012 122.053 214.963 125.367 214.814Z"/>
	<path fill="#4552AF" transform="scale(0.195312 0.195312)" d="M117.485 220.319C119.051 218.773 119.628 218.418 121.833 219.23C125.258 225.968 115.563 227.151 117.485 220.319Z"/>
	<path fill="#E8E1EE" transform="scale(0.195312 0.195312)" d="M117.485 219.23C119.14 217.306 120.917 215.589 122.708 213.798C123.382 214.804 124.269 214.726 125.367 214.814C122.053 214.963 120.676 216.012 122.708 219.23L121.833 219.23C119.628 218.418 119.051 218.773 117.485 220.319L117.485 219.23Z"/>
	<path fill="#4552AF" transform="scale(0.195312 0.195312)" d="M84.3147 217.947C87.1045 218.298 93.1886 228.798 88.9248 231.459C87.0534 230.659 79.0533 221.362 84.3147 217.947Z"/>
	<path fill="#4552AF" transform="scale(0.195312 0.195312)" d="M141.902 295.075C143.479 295.236 144.911 296.327 143.716 297.906C141.53 300.797 136.433 300.625 133.128 301.089C131.276 300.929 130.519 299.904 131.071 298.127C132.546 296.303 139.464 295.5 141.902 295.075Z"/>
	<path fill="#4552AF" transform="scale(0.195312 0.195312)" d="M49.1628 248.477C53.22 249.564 57.1817 258.131 53.2505 260.791C49.5337 259.78 45.4346 250.734 49.1628 248.477Z"/>
	<path fill="#4552AF" transform="scale(0.195312 0.195312)" d="M91.3388 291.703C93.9624 291.791 105.258 294.249 101.447 298.695C98.5807 298.804 86.4668 296.549 91.3388 291.703Z"/>
	<path fill="#4552AF" transform="scale(0.195312 0.195312)" d="M73.2436 281.113C75.063 281.214 86.5097 285.939 82.2883 290.414C79.9347 290.54 69.72 285.496 73.2436 281.113Z"/>
	<path fill="#4552AF" transform="scale(0.195312 0.195312)" d="M59.298 266.664C62.1725 266.718 69.8252 274.491 65.9029 277.451C63.0479 276.872 55.1223 270.112 59.298 266.664Z"/>
	<path fill="#4552AF" transform="scale(0.195312 0.195312)" d="M77.9738 198.234C82.8733 197.975 83.8652 207.981 82.2883 210.178C76.8718 211.376 76.0618 200.428 77.9738 198.234Z"/>
	<path fill="#4552AF" transform="scale(0.195312 0.195312)" d="M110.637 297.584C113.725 297.075 125.453 295.668 121.833 301.842C118.683 302.346 108.748 303.042 110.637 297.584Z"/>
	<path fill="#4552AF" transform="scale(0.195312 0.195312)" d="M115.327 257.416C118.301 257.058 127.273 262.042 123.806 265.76C120.902 266.416 112.212 260.775 115.327 257.416Z"/>
	<path fill="#4552AF" transform="scale(0.195312 0.195312)" d="M43.5489 229.194C47.2332 229.434 49.4298 239.138 45.9744 241.517C42.5378 240.532 39.9013 231.47 43.5489 229.194Z"/>
	<path fill="#4552AF" transform="scale(0.195312 0.195312)" d="M138.409 214.814C140.709 214.677 154.167 214.573 146.781 219.23C143.584 219.629 130.775 218.594 138.409 214.814Z"/>
	<path fill="#4552AF" transform="scale(0.195312 0.195312)" d="M361.766 246.183C365.432 248.618 367.598 253.159 371.046 255.882C373.512 257.831 378.78 259.406 381.839 260.791C382.704 260.369 383.625 260.061 384.526 259.726C388.716 262.415 392.606 267.56 396.295 269.564C397.334 270.129 397.936 268.722 399.082 269.225C402.458 270.706 438.895 308.891 443.767 313.823C450.682 320.823 463.147 328.611 456.551 339.821C459.507 341.846 480.906 362.78 481.421 364.821C481.743 366.098 480.855 367.301 479.519 367.314C477.879 367.33 475.403 364.051 474.298 362.886C467.382 355.981 460.583 348.893 453.359 342.309C444.392 346.668 440.701 341.882 434.677 335.653C430.731 331.571 426.666 327.602 423.155 323.127C421.713 323.894 407.929 329.703 410.867 323.563C411.908 321.386 417.714 320.59 419.857 319.986C410.852 310.551 400.381 300.936 391.044 291.584C388.449 288.985 385.17 286.661 382.903 283.828C374.421 273.228 371.091 258.743 359.255 249.95C360.02 248.601 360.776 247.38 361.766 246.183Z"/>
	<path fill="#C0C1FD" transform="scale(0.195312 0.195312)" d="M398.39 274.844C406.52 279.699 433.311 309.071 441.235 317.307L448.242 324.581C449.959 326.339 451.891 328.066 453.327 330.058C456.721 334.763 451.147 340.219 446.287 339.821C442.127 338.283 435.572 329.953 432.289 326.67L406.233 300.448C400.969 295.058 394.784 290.039 390.057 284.2C392.155 280.634 395.503 277.787 398.39 274.844Z"/>
	<path fill="#C0C1FD" transform="scale(0.195312 0.195312)" d="M374.574 261.897C382.274 264.896 387.159 267.454 393.584 272.759C392.471 274.392 391.339 275.947 390.057 277.451C388.592 278.515 387.392 279.81 386.144 281.113C382.056 274.948 378.166 268.366 374.574 261.897Z"/>
	<path fill="#4552AF" transform="scale(0.195312 0.195312)" d="M205.111 257.416C208.123 258.458 212.078 257.118 215.018 258.638C216.251 261.651 212.931 266.354 212.128 269.371C207.109 276.155 205.978 271.973 207.674 265.76C201.993 266.378 193.545 271.864 187.716 272.042C185.264 272.117 183.308 269.364 186.133 268.11C191.675 265.651 198.175 265.183 205.111 261.897C201.301 260.716 200.279 257.734 205.111 257.416Z"/>
	<path fill="#4552AF" transform="scale(0.195312 0.195312)" d="M338.443 270.139C344.712 270.176 342.77 281.137 341.335 282.326C336.416 282.594 335.907 272.448 338.443 270.139Z"/>
	<path fill="#4552AF" transform="scale(0.195312 0.195312)" d="M344.11 290.414C347.64 290.305 352.125 298.58 349.662 301.842C345.466 301.601 340.43 293.142 344.11 290.414Z"/>
	<path fill="#4552AF" transform="scale(0.195312 0.195312)" d="M347.49 231.459C354.286 231.202 347.53 240.189 345.72 242.462C339.166 242.585 345.014 233.17 347.49 231.459Z"/>
	<path fill="#4552AF" transform="scale(0.195312 0.195312)" d="M354.955 211.612C360.353 211.672 357.277 221.343 354.955 223.379C348.889 223.937 353.096 213.904 354.955 211.612Z"/>
	<path fill="#4552AF" transform="scale(0.195312 0.195312)" d="M347.49 153.529C349.678 153.981 354.182 162.083 349.662 164.821C347.125 164.907 342.139 155.159 347.49 153.529Z"/>
	<path fill="#4552AF" transform="scale(0.195312 0.195312)" d="M356.519 191.986C360.675 191.771 360.672 201.853 357.526 203.99C353.382 203.121 353.35 193.183 356.519 191.986Z"/>
	<path fill="#4552AF" transform="scale(0.195312 0.195312)" d="M355.8 307.131C358.887 307.486 366.993 313.016 362.654 316.299C359.778 316.045 351.166 310.055 355.8 307.131Z"/>
	<path fill="#4552AF" transform="scale(0.195312 0.195312)" d="M391.572 323.127C393.309 323.167 407.521 322.583 401.334 327.625C398.612 327.992 387.124 328.761 391.572 323.127Z"/>
	<path fill="#4552AF" transform="scale(0.195312 0.195312)" d="M352.88 172.155C356.736 172.572 359.127 181.289 355.8 183.831C351.803 183.521 349.854 173.646 352.88 172.155Z"/>
	<path fill="#4552AF" transform="scale(0.195312 0.195312)" d="M339.925 249.95C343.931 250.365 342.584 260.127 339.925 261.897C335.581 260.923 336.703 251.898 339.925 249.95Z"/>
	<path fill="#4552AF" transform="scale(0.195312 0.195312)" d="M372.713 318.139C375.588 318.474 384.695 320.863 381.839 325.149C378.788 324.719 368.113 323.081 372.713 318.139Z"/>
</svg>
