<?xml version="1.0" encoding="utf-8" ?>
<svg xmlns="http://www.w3.org/2000/svg" xmlns:xlink="http://www.w3.org/1999/xlink" width="100" height="100">
	<path fill="#C0EBF0" transform="scale(0.195312 0.195312)" d="M300.52 393.616C321.262 393.347 342.163 393.252 362.903 393.616C377.716 394.952 374.217 412.756 374.261 422.973C374.348 442.8 377.696 446.99 354.298 447.023L311.177 447.03C304.906 447.026 289.452 449.024 288.123 440.188C287.285 434.612 287.53 409.113 288.2 403.966C289.116 396.922 293.87 394.568 300.52 393.616Z"/>
	<path fill="#C0EBF0" transform="scale(0.195312 0.195312)" d="M150.149 393.616L204.906 393.632C207.049 393.639 209.296 393.802 211.422 393.616C227.553 393.702 224.27 411.756 224.29 422.525C224.33 444.365 228.029 447.017 203.234 447.026L157.874 447.043C133.478 447.086 137.251 442.833 137.247 422.044C137.244 410.163 133.68 394.76 150.149 393.616Z"/>
	<defs>
		<linearGradient id="gradient_0" gradientUnits="userSpaceOnUse" x1="422.56369" y1="116.89833" x2="316.50616" y2="114.78522">
			<stop offset="0" stop-color="#F8940C"/>
			<stop offset="1" stop-color="#FED02B"/>
		</linearGradient>
	</defs>
	<path fill="url(#gradient_0)" transform="scale(0.195312 0.195312)" d="M317.514 83.8343C325.844 59.1917 355.949 58.3651 369.088 77.8241C379.441 64.5337 399.814 59.5818 413.646 70.6344C445.447 96.0455 395.946 153.111 370.466 168.138C366.992 166.101 363.967 163.406 360.687 161.095C340.74 147 312.261 109.255 317.514 83.8343Z"/>
	<path fill="#FCA66E" transform="scale(0.195312 0.195312)" d="M396.042 246.813C395.613 232.733 393.38 201.642 402.383 192.177C405.956 188.42 411.343 185.378 416.6 185.311C431.133 185.124 429.68 196.73 429.999 206.623L432.822 271.382C433.976 296.746 438.145 298.827 418.369 318.221L380.893 355.478C363.656 372.277 364.597 369.158 362.903 393.616C342.163 393.252 321.262 393.347 300.52 393.616C298.446 381.323 296.219 365.457 295.135 352.928C293.032 328.616 309.981 298.239 334.301 290.327C340.209 288.404 342.36 288.621 347.508 284.421L369.033 267.135C374.176 262.936 379.181 257.966 384.958 254.638C399.375 246.332 417.181 266.327 407.288 279.304C404.263 283.273 394.646 289.694 390.243 293.108L371.544 307.9C369.415 309.571 362.549 313.161 362.903 316.216C367.692 319.878 377.192 308.565 382.141 304.731L400.73 290.417C410.28 282.977 418.539 276.352 412.453 261.959C407.226 249.599 396.365 252.039 396.042 246.813Z"/>
	<path fill="#FD8F62" transform="scale(0.195312 0.195312)" d="M396.042 246.813C397.194 238.18 393.706 233.416 408.962 242.844C423.37 251.749 429.586 272.495 420.32 287.124C417.022 292.331 384.555 318.734 376.488 323.754C367.971 329.054 354.481 328.531 362.903 316.216C367.692 319.878 377.192 308.565 382.141 304.731L400.73 290.417C410.28 282.977 418.539 276.352 412.453 261.959C407.226 249.599 396.365 252.039 396.042 246.813Z"/>
	<path fill="#FCA66E" transform="scale(0.195312 0.195312)" d="M150.149 393.616C145.547 369.1 154.474 379.69 134.266 359.629L92.0483 317.233C73.5339 298.528 77.8357 294.045 78.952 269.246L81.863 204.427C82.2024 196.366 81.5344 186.13 92.3586 185.246C101.489 184.5 110.93 191.509 113.859 200.033C116.026 206.34 115.576 214.137 115.913 220.765L117.021 239.053C117.241 242.071 117.404 245.103 117.847 248.098C102.113 250.609 91.3388 266.066 101.008 279.459C104.611 284.449 110.142 288.318 114.854 292.208L137.191 310.976C140.456 313.703 144.283 316.222 147.297 319.18C148.571 318.345 149.33 317.485 150.149 316.216C145.618 310.497 126.67 296.068 120.38 290.867C115.03 286.445 108.254 282.321 104.551 276.281C96.2891 262.803 112.812 247.238 126.772 255.115C133.616 258.977 147.438 271.131 153.81 276.353C163.511 284.304 163.957 286.234 175.678 289.922C201.493 298.046 220.942 327.862 217.116 354.4C215.319 366.864 212.316 381.192 211.422 393.616C209.296 393.802 207.049 393.639 204.906 393.632L150.149 393.616Z"/>
	<path fill="#FD8F62" transform="scale(0.195312 0.195312)" d="M141.081 327.181C137.149 325.151 133.881 322.145 130.447 319.404L114.625 306.628C107.823 301.04 98.7873 295.052 93.4549 288.318C86.3794 279.383 88.0933 262.771 93.4097 253.658C98.608 244.747 107.58 241.515 117.021 239.053C117.241 242.071 117.404 245.103 117.847 248.098C102.113 250.609 91.3388 266.066 101.008 279.459C104.611 284.449 110.142 288.318 114.854 292.208L137.191 310.976C140.456 313.703 144.283 316.222 147.297 319.18C148.573 321.486 147.588 323.463 146.375 325.615C144.59 326.667 143.1 326.971 141.081 327.181Z"/>
	<defs>
		<linearGradient id="gradient_1" gradientUnits="userSpaceOnUse" x1="340.34091" y1="231.1004" x2="172.5321" y2="108.34846">
			<stop offset="0" stop-color="#309CD4"/>
			<stop offset="1" stop-color="#38CAE0"/>
		</linearGradient>
	</defs>
	<path fill="url(#gradient_1)" transform="scale(0.195312 0.195312)" d="M255.463 292.105C251.697 289.216 244.436 285.83 240.084 283.369C222.454 273.399 198.359 259.806 184.259 246.57C164.878 228.375 154.362 202.412 153.08 176.14C148.874 89.9472 237.367 35.9648 311.487 79.614C313.467 80.7799 315.178 82.3481 317.11 83.5799L317.514 83.8343C312.261 109.255 340.74 147 360.687 161.095C362.203 185.507 354.583 211.9 340.683 231.834C325.841 253.118 302.795 267.114 280.442 279.294L265.601 287.202C262.292 288.926 258.959 290.788 255.463 292.105ZM221.559 113.591C186.762 116.202 179.04 144.909 189.967 174.793C199.101 199.772 230.332 234.206 255.463 245.307C264.274 240.283 272.529 234.972 280.52 228.71C301.603 212.356 321.877 188.146 325.396 160.824C329.352 130.103 304.773 105.447 275.043 115.746C268.071 118.161 262.305 120.302 254.731 120.239C243.022 120.141 234.333 113.097 221.559 113.591Z"/>
	<path fill="#2B6BB3" transform="scale(0.195312 0.195312)" d="M221.559 113.591C234.333 113.097 243.022 120.141 254.731 120.239C262.305 120.302 268.071 118.161 275.043 115.746C304.773 105.447 329.352 130.103 325.396 160.824C321.877 188.146 301.603 212.356 280.52 228.71C272.529 234.972 264.274 240.283 255.463 245.307C230.332 234.206 199.101 199.772 189.967 174.793C179.04 144.909 186.762 116.202 221.559 113.591ZM282.451 142.334C274.386 143.884 255.245 166.196 247.694 172.553C244.133 168.938 237.645 161.465 233.552 159.084C224.089 153.579 210.652 163.964 216.584 174.1C218.823 177.926 224.812 182.933 228.114 186.168C241.605 198.832 245.047 207.529 260.394 192.542L285.628 167.546C289.565 163.606 296.077 159.175 295.767 152.99C295.415 145.998 289.04 141.738 282.451 142.334Z"/>
</svg>
