<?xml version="1.0" encoding="utf-8" ?>
<svg xmlns="http://www.w3.org/2000/svg" xmlns:xlink="http://www.w3.org/1999/xlink" width="100" height="100">
	<path fill="#7CB2F9" transform="scale(0.195312 0.195312)" d="M67.9422 317.101C75.3727 316.91 75.6188 324.52 70.0904 327.936C63.5489 327.369 60.7337 318.861 67.9422 317.101Z"/>
	<path fill="#7CB2F9" transform="scale(0.195312 0.195312)" d="M67.9422 243.542C75.1683 242.967 76.2748 250.925 70.0904 253.891C64.5015 254.71 62.4142 249.144 65.1726 245.027C66.0673 244.406 66.9391 243.964 67.9422 243.542Z"/>
	<path fill="#7CB2F9" transform="scale(0.195312 0.195312)" d="M67.9422 263.808C71.9444 262.881 73.5658 265.396 73.8115 268.879C74.3365 276.322 77.0245 305.044 70.0904 308.394C67.9507 308.612 65.4673 307.984 64.8257 305.643C63.673 301.437 63.8442 274.217 64.2554 267.95C64.4352 265.211 65.2324 264.41 67.9422 263.808Z"/>
	<path fill="#7CB2F9" transform="scale(0.195312 0.195312)" d="M370.164 84.2624C408.409 79.295 434.499 136.343 419.081 140.368C412.178 139.941 413.697 131.631 412.472 126.68C408.506 110.649 395.42 98.0946 379.267 94.8091C376.299 94.2055 370.884 94.6714 368.464 93.0762C364.184 90.2557 365.328 85.1105 370.164 84.2624Z"/>
	<path fill="#7CB2F9" transform="scale(0.195312 0.195312)" d="M369.285 59.2492C432.892 57.8246 459.229 133.917 445.112 140.368C437.553 140.408 438.648 132.897 437.895 127.366C434.048 99.13 406.956 71.68 378.241 69.6857C373.915 69.3852 362.726 70.2705 365.815 62.5263C366.534 60.7244 367.558 60.0135 369.285 59.2492Z"/>
	<path fill="#4763C9" transform="scale(0.195312 0.195312)" d="M315.127 438.822C319.55 438.826 337.607 438.059 340.069 439.542C344.538 442.233 342.593 448.268 337.792 448.848C332.488 449.489 324.132 448.997 318.595 448.99L188.5 448.982C184.484 448.981 180.425 449.109 176.414 448.938C171.583 448.732 164.128 438.714 182.99 438.775L196.608 438.822L315.127 438.822Z"/>
	<path fill="#C6D0DD" transform="scale(0.195312 0.195312)" d="M214.268 404.953C219.253 405.345 224.325 404.959 229.328 404.952L287.052 404.965C291.05 404.972 295.426 405.353 299.388 404.953C301.851 410.898 304.99 416.655 307.653 422.534C309.592 425.801 314.426 435.346 315.127 438.822L196.608 438.822C197.052 436.981 203.835 423.727 205.06 422.534C208.154 416.748 211.788 411.026 214.268 404.953Z"/>
	<path fill="#A0ACC1" transform="scale(0.195312 0.195312)" d="M214.268 404.953C219.253 405.345 224.325 404.959 229.328 404.952L287.052 404.965C291.05 404.972 295.426 405.353 299.388 404.953C301.851 410.898 304.99 416.655 307.653 422.534L218.982 422.524C217.118 422.524 205.722 423.014 205.06 422.534C208.154 416.748 211.788 411.026 214.268 404.953Z"/>
	<path fill="#C6D0DD" transform="scale(0.195312 0.195312)" d="M398.967 167.507C420.279 167.384 425.264 174.907 425.268 195.517L425.257 290.952C425.061 314.701 425.717 338.504 425.257 362.244L415.005 362.244L394.214 362.244C394.543 358.352 394.224 354.176 394.214 350.254L394.214 231.059C394.388 227.795 394.227 224.446 394.214 221.172C393.973 216.456 394.594 211.636 394.214 206.941C396.334 194.53 398.992 190.962 398.967 175.991L398.967 167.507Z"/>
	<path fill="#A0ACC1" transform="scale(0.195312 0.195312)" d="M394.214 350.254C399.27 350.946 409.505 350.252 415.005 350.254C414.997 352.86 414.5 360.285 415.005 362.244L394.214 362.244C394.543 358.352 394.224 354.176 394.214 350.254Z"/>
	<path fill="#A0ACC1" transform="scale(0.195312 0.195312)" d="M398.967 175.991C399.562 182.738 412.208 171.832 415.005 189.161C407.65 198.21 401.218 214.097 394.214 221.172C393.973 216.456 394.594 211.636 394.214 206.941C396.334 194.53 398.992 190.962 398.967 175.991Z"/>
	<path fill="#4763C9" transform="scale(0.195312 0.195312)" d="M398.967 167.507C420.279 167.384 425.264 174.907 425.268 195.517L425.257 290.952C425.061 314.701 425.717 338.504 425.257 362.244L415.005 362.244C414.5 360.285 414.997 352.86 415.005 350.254L415.005 189.161C412.208 171.832 399.562 182.738 398.967 175.991L398.967 167.507Z"/>
	<path fill="#FEFEFE" transform="scale(0.195312 0.195312)" d="M140.783 153.732C143.228 149.392 145.018 144.73 147.592 140.453C168.968 104.943 211.679 94.201 250.726 98.0963C254.622 98.4849 270.719 99.2651 272.821 102.637C253.461 114.628 237.183 133.125 231.901 155.714C231.118 159.065 230.595 162.51 229.448 165.76L107.272 165.76L107.175 165.45C107.34 164.784 107.669 164.403 108.063 163.857C106.451 163.413 105.79 163.035 106.494 161.301C112.251 147.11 129.037 148.654 140.783 153.732Z"/>
	<path fill="#C6D0DD" transform="scale(0.195312 0.195312)" d="M107.272 165.76L229.448 165.76C229.765 169.189 229.308 172.568 229.448 175.991C229.167 180.836 230.117 185.956 229.448 190.713L229.448 194.155L137.206 194.153C116.299 194.158 117.42 194.046 117.44 216.421L117.45 315.13C117.45 326.831 117.628 338.555 117.45 350.254L117.45 350.254L117.45 362.244C110.665 362.258 103.873 362.332 97.0884 362.244L87.0953 362.244L87.0848 205.32C87.0797 187.976 84.4314 170.259 107.272 165.76Z"/>
	<path fill="#A0ACC1" transform="scale(0.195312 0.195312)" d="M97.0884 325.869C97.3739 328.892 97.1344 332.064 97.1101 335.107L97.0884 350.254L110.755 350.279C112.933 350.285 115.297 350.5 117.45 350.254L117.45 350.254L117.45 362.244C110.665 362.258 103.873 362.332 97.0884 362.244C97.1093 350.132 96.8136 337.974 97.0884 325.869Z"/>
	<path fill="#4763C9" transform="scale(0.195312 0.195312)" d="M107.272 165.76L229.448 165.76C229.765 169.189 229.308 172.568 229.448 175.991L121.234 175.984C97.9816 175.978 97.0668 178.634 97.0757 203.56L97.0884 325.869C96.8136 337.974 97.1093 350.132 97.0884 362.244L87.0953 362.244L87.0848 205.32C87.0797 187.976 84.4314 170.259 107.272 165.76Z"/>
	<path fill="#C6D0DD" transform="scale(0.195312 0.195312)" d="M425.257 290.952C425.962 295.684 425.249 306.346 425.249 311.614L425.257 362.244L445.112 362.244C445.764 381.416 446.669 404.24 421.657 404.908C407.4 405.288 393.051 404.951 378.784 404.952L299.388 404.953C295.426 405.353 291.05 404.972 287.052 404.965L229.328 404.952C224.325 404.959 219.253 405.345 214.268 404.953C212.615 404.877 210.945 404.935 209.29 404.941L99.679 404.967C76.0104 404.988 65.163 400.317 65.1583 374.891L65.1726 362.244C72.5002 362.274 79.7613 362.091 87.0953 362.244L97.0884 362.244C103.873 362.332 110.665 362.258 117.45 362.244L394.214 362.244L415.005 362.244L425.257 362.244C425.717 338.504 425.061 314.701 425.257 290.952Z"/>
	<path fill="#FA9364" transform="scale(0.195312 0.195312)" d="M272.821 102.637C279.112 99.4825 285.315 96.5564 292.092 94.5769C329.837 83.5523 372.106 102.757 389.591 137.827C395.372 149.422 395.893 156.097 398.967 167.507L398.967 175.991C398.992 190.962 396.334 194.53 394.214 206.941C394.594 211.636 393.973 216.456 394.214 221.172C394.227 224.446 394.388 227.795 394.214 231.059C389.557 235.886 385.816 241.487 381.112 246.271C359.446 268.303 327.592 278.508 297.305 271.944C292.94 270.998 288.477 269.398 284.028 269.056C274.643 273.328 265.942 278.929 256.553 283.184C256.436 279.724 256.509 276.264 256.553 272.803C256.124 267.858 258.444 258.221 258.334 251.713C256.405 251.125 254.504 249.13 253.098 247.744C238.676 233.527 229.591 214.701 229.448 194.155L229.448 190.713C230.117 185.956 229.167 180.836 229.448 175.991C229.308 172.568 229.765 169.189 229.448 165.76C230.595 162.51 231.118 159.065 231.901 155.714C237.183 133.125 253.461 114.628 272.821 102.637ZM310.246 105.238C310.304 107.087 310.461 108.996 310.246 110.833C276.066 115.269 252.685 136.548 246.932 170.367C246.888 171.591 246.869 172.791 246.932 174.016C239.956 172.937 237.513 178.768 242.642 183.734C243.683 183.741 244.733 183.777 245.772 183.734C248.269 202.113 253.789 219.399 269.446 231.299C270.29 231.941 271.163 232.569 271.953 233.278C270.033 239.916 267.578 251.08 266.856 257.976C274.889 253.154 282.859 248.214 290.981 243.542C296.783 246.306 303.213 247.273 309.547 247.821C309.394 245.304 309.191 242.714 309.547 240.209L309.565 240.511C309.767 244.341 308.268 249.99 311.387 252.808C314.969 256.044 317.828 252.394 318.747 249.084C321.986 250.242 335.163 246.438 338.567 245.059C360.645 236.112 378.567 216.366 382.421 192.477C382.875 189.662 382.644 186.325 383.922 183.734L384.298 183.619C384.64 182.97 384.727 182.208 384.814 181.486C389.608 141.77 358.312 109.986 319.947 105.238L310.246 105.238Z"/>
	<path fill="#5499F4" transform="scale(0.195312 0.195312)" d="M229.448 190.713C234.796 205.888 237.302 217.223 248.608 230.303C252.199 234.457 256.543 237.917 260.089 242.045C259.711 245.318 259.145 248.519 258.334 251.713C256.405 251.125 254.504 249.13 253.098 247.744C238.676 233.527 229.591 214.701 229.448 194.155L229.448 190.713Z"/>
	<path fill="#5499F4" transform="scale(0.195312 0.195312)" d="M394.214 206.941C394.594 211.636 393.973 216.456 394.214 221.172C394.227 224.446 394.388 227.795 394.214 231.059C389.557 235.886 385.816 241.487 381.112 246.271C359.446 268.303 327.592 278.508 297.305 271.944C292.94 270.998 288.477 269.398 284.028 269.056C274.643 273.328 265.942 278.929 256.553 283.184C256.436 279.724 256.509 276.264 256.553 272.803C265.739 267.966 274.676 262.486 284.028 257.976C322.141 273.985 364.598 257.585 385.819 223.084C389.04 217.848 391.329 212.328 394.214 206.941Z"/>
	<path fill="#E26A3F" transform="scale(0.195312 0.195312)" d="M309.547 240.209C309.325 234.341 313.632 229.635 317.379 233.873C319.543 236.319 318.866 245.57 318.747 249.084C317.828 252.394 314.969 256.044 311.387 252.808C308.268 249.99 309.767 244.341 309.565 240.511L309.547 240.209Z"/>
	<path fill="#E26A3F" transform="scale(0.195312 0.195312)" d="M310.246 105.238L319.947 105.238C320.006 107.1 319.855 108.982 319.947 110.833C319.972 113.699 320.367 132.753 312.032 124.72C309.189 121.981 310.229 114.662 310.246 110.833C310.461 108.996 310.304 107.087 310.246 105.238Z"/>
	<path fill="#E26A3F" transform="scale(0.195312 0.195312)" d="M242.642 183.734C237.513 178.768 239.956 172.937 246.932 174.016C251.264 174.055 255.799 173.617 260.089 174.016C270.5 185.62 249.784 183.243 245.772 183.734C244.733 183.777 243.683 183.741 242.642 183.734Z"/>
	<path fill="#4763C9" transform="scale(0.195312 0.195312)" d="M315.127 133.818C325.518 150.289 324.211 149.525 323.718 169.92C317.079 165.298 312.296 165.581 305.795 169.92C305.951 146.857 302.996 152.396 315.127 133.818Z"/>
	<path fill="#4763C9" transform="scale(0.195312 0.195312)" d="M274.664 210.064C282.316 200.739 292.957 191.413 301.296 182.256C302.921 187.544 306.421 192.266 311.81 194.155C310.216 196.316 307.607 198.195 305.719 200.16L285.248 221.172C281.636 217.561 278.274 213.69 274.664 210.064Z"/>
	<path fill="#EF7279" transform="scale(0.195312 0.195312)" d="M305.795 169.92C312.296 165.581 317.079 165.298 323.718 169.92C329.047 176.546 330.142 185.36 322.903 191.172C319.237 194.115 316.02 193.388 311.81 194.155C306.421 192.266 302.921 187.544 301.296 182.256C301.06 177.121 302.583 173.815 305.795 169.92Z"/>
	<defs>
		<linearGradient id="gradient_0" gradientUnits="userSpaceOnUse" x1="340.09024" y1="165.9733" x2="364.1571" y2="122.78149">
			<stop offset="0" stop-color="#DC633C"/>
			<stop offset="1" stop-color="#F48255"/>
		</linearGradient>
	</defs>
	<path fill="url(#gradient_0)" transform="scale(0.195312 0.195312)" d="M319.947 105.238C358.312 109.986 389.608 141.77 384.814 181.486C384.727 182.208 384.64 182.97 384.298 183.619L383.922 183.734C377.604 183.142 369.908 186.822 367.109 179.319C368.972 171.783 376.894 174.666 382.866 174.016C380.032 140.757 352.463 115.466 319.947 110.833C319.855 108.982 320.006 107.1 319.947 105.238Z"/>
	<path fill="#7CB2F9" transform="scale(0.195312 0.195312)" d="M117.45 350.254C117.628 338.555 117.45 326.831 117.45 315.13L117.44 216.421C117.42 194.046 116.299 194.158 137.206 194.153L229.448 194.155C229.591 214.701 238.676 233.527 253.098 247.744C254.504 249.13 256.405 251.125 258.334 251.713C258.444 258.221 256.124 267.858 256.553 272.803C256.509 276.264 256.436 279.724 256.553 283.184C265.942 278.929 274.643 273.328 284.028 269.056C288.477 269.398 292.94 270.998 297.305 271.944C327.592 278.508 359.446 268.303 381.112 246.271C385.816 241.487 389.557 235.886 394.214 231.059L394.214 350.254C394.224 354.176 394.543 358.352 394.214 362.244L117.45 362.244L117.45 350.254L117.45 350.254Z"/>
	<path fill="#4763C9" transform="scale(0.195312 0.195312)" d="M286.177 286.759L373.487 286.759L373.487 299.92L286.177 299.92L286.177 286.759Z"/>
	<path fill="#4763C9" transform="scale(0.195312 0.195312)" d="M362.042 316.481C365.793 316.224 369.716 316.458 373.487 316.481L373.487 329.562L297.34 329.562L286.177 329.562L286.177 316.481L362.042 316.481Z"/>
	<path fill="#4763C9" transform="scale(0.195312 0.195312)" d="M203.843 321.374C188.555 332.209 166.438 329.675 153.135 316.802C127.132 291.64 144.741 244.018 178.266 243.542L178.25 270.827C178.25 276.017 176.857 283.741 179.786 288.354C178.725 291.934 201.308 318.953 203.843 321.374Z"/>
	<path fill="#5499F4" transform="scale(0.195312 0.195312)" d="M117.45 350.254C122.535 349.82 127.894 350.266 133.016 350.236L369.888 350.257C374.393 350.257 390.631 349.5 394.214 350.254C394.224 354.176 394.543 358.352 394.214 362.244L117.45 362.244L117.45 350.254Z"/>
	<path fill="#EF7279" transform="scale(0.195312 0.195312)" d="M178.266 243.542C179.529 228.226 181.463 227.868 198.717 229.837C221.462 232.432 240.072 254.225 241.536 276.686C241.845 281.424 241.467 286.205 241.506 290.952C237.514 290.955 225.996 290.259 222.899 290.883L222.542 290.952C221.554 302.246 214.103 315.758 203.843 321.374C201.308 318.953 178.725 291.934 179.786 288.354C176.857 283.741 178.25 276.017 178.25 270.827L178.266 243.542Z"/>
	<path fill="#304EC4" transform="scale(0.195312 0.195312)" d="M179.786 288.354C184.554 292.954 193.168 290.975 199.199 290.965C206.85 290.953 214.948 291.725 222.542 290.952C221.554 302.246 214.103 315.758 203.843 321.374C201.308 318.953 178.725 291.934 179.786 288.354Z"/>
</svg>
