<?xml version="1.0" encoding="utf-8" ?>
<svg xmlns="http://www.w3.org/2000/svg" xmlns:xlink="http://www.w3.org/1999/xlink" width="100" height="100">
	<defs>
		<linearGradient id="gradient_0" gradientUnits="userSpaceOnUse" x1="240.14066" y1="179.41441" x2="399.75894" y2="151.05032">
			<stop offset="0" stop-color="#8FD8FC"/>
			<stop offset="1" stop-color="#E3EEF8"/>
		</linearGradient>
	</defs>
	<path fill="url(#gradient_0)" transform="scale(0.195312 0.195312)" d="M224.788 116.061C233.956 98.4597 258.211 81.9465 276.42 76.2175C369.525 46.9242 443.44 162.183 375.779 233.33C372.923 236.334 369.28 239.201 366.802 242.472C363.04 245.074 358.287 248.056 354.768 250.685C319.992 271.127 284.841 266.383 251.754 247.099C253.282 247.062 254.012 248.062 255.353 248.264C254.332 246.841 253.675 245.771 253.038 244.169C250.408 242.126 250.466 228.222 253.328 232.551C254.67 233.241 258.351 234.962 259.706 233.946C261.178 234.702 262.593 235.785 264.018 236.656C328.946 276.335 407.093 211.963 381.939 141.875C356.771 71.7495 262.539 68.3987 231.675 135.552C231.933 131.977 236.031 128.525 235.559 125.298C231.912 124.147 232.007 115.262 228.194 112.528L228.385 111.7C226.67 112.513 226.537 115.034 224.788 116.061Z"/>
	<path fill="#5ECCF8" transform="scale(0.195312 0.195312)" d="M297.282 113.999C297.608 109.882 297.562 103.261 297.282 99.1381C302.141 99.0337 307.001 99.2919 311.861 99.1381L311.861 113.999C309.461 114.503 300.386 114.006 297.282 113.999Z"/>
	<path fill="#5ECCF8" transform="scale(0.195312 0.195312)" d="M224.788 116.061C226.537 115.034 226.67 112.513 228.385 111.7L228.194 112.528C232.007 115.262 231.912 124.147 235.559 125.298C236.031 128.525 231.933 131.977 231.675 135.552C216.562 172.74 227.663 210.419 259.706 233.946C258.351 234.962 254.67 233.241 253.328 232.551C250.466 228.222 250.408 242.126 253.038 244.169C253.675 245.771 254.332 246.841 255.353 248.264C254.012 248.062 253.282 247.062 251.754 247.099C242.351 239.054 236.619 235.258 228.615 224.534C225.853 220.833 223.662 216.726 220.961 212.973C218.591 208.714 216.259 204.277 214.905 199.577C209.013 180.759 208.42 165.344 211.789 145.943C213.427 140.926 215.02 135.889 216.819 130.928C219.286 126.058 221.307 120.309 224.788 116.061Z"/>
	<path fill="#0291FA" transform="scale(0.195312 0.195312)" d="M338.312 177.268C334.747 177.719 330.045 177.284 326.338 177.284C320.066 177.284 300.789 179.75 297.931 173.241C296.834 170.743 296.828 136.827 297.955 134.204C298.954 131.877 301.144 130.689 303.369 129.783C313.058 129.304 311.923 138.713 311.896 145.634L311.861 163.118C315.97 163.116 336.692 162.603 339.335 163.501C346.45 165.916 345.069 174.517 338.312 177.268Z"/>
	<path fill="#C4CFF9" transform="scale(0.195312 0.195312)" d="M211.789 145.943C208.03 147.292 204.036 148.027 200.231 149.271C183.873 154.615 168.225 163.49 155.033 174.591C150.553 178.361 145.529 186.002 139.081 181.506C129.752 175 141.383 166.875 146.352 162.713C165.133 146.981 192.32 133.422 216.819 130.928C215.02 135.889 213.427 140.926 211.789 145.943Z"/>
	<path fill="#5ECCF8" transform="scale(0.195312 0.195312)" d="M236.25 177.268L236.25 163.118C241.34 163.476 246.637 163.134 251.754 163.118L251.754 177.268L236.25 177.268Z"/>
	<path fill="#A1EAFA" transform="scale(0.195312 0.195312)" d="M361.553 177.268L361.553 163.118C366.369 163.211 371.203 163.122 376.022 163.118L376.022 177.268C371.21 177.42 366.368 177.295 361.553 177.268Z"/>
	<path fill="#C4CFF9" transform="scale(0.195312 0.195312)" d="M133.037 202.231C126.337 202.098 120.003 202.221 113.345 203.12C117.073 187.224 134.725 187.993 133.037 202.231Z"/>
	<path fill="#C4CFF9" transform="scale(0.195312 0.195312)" d="M214.905 199.577C216.259 204.277 218.591 208.714 220.961 212.973C214.993 217.144 208.062 220.058 201.948 224.077C196.812 227.453 192.613 231.97 187.605 235.382C184.738 231.89 182.548 227.912 179.19 224.816C183.142 215.533 214.027 200.992 214.905 199.577Z"/>
	<defs>
		<linearGradient id="gradient_1" gradientUnits="userSpaceOnUse" x1="65.494972" y1="310.36676" x2="187.04369" y2="235.57098">
			<stop offset="0" stop-color="#6257B3"/>
			<stop offset="1" stop-color="#8087D2"/>
		</linearGradient>
	</defs>
	<path fill="url(#gradient_1)" transform="scale(0.195312 0.195312)" d="M113.345 203.12C120.003 202.221 126.337 202.098 133.037 202.231C151.805 204.853 166.311 210.307 179.19 224.816C182.548 227.912 184.738 231.89 187.605 235.382C197.696 254.843 202.569 272.337 195.507 294.553C187.379 320.127 165.246 338.019 139.348 343.218C134.216 343.869 129.189 344.424 124.006 344.333C45.9237 343.613 29.5224 232.898 100.267 206.722C104.498 205.157 108.961 204.163 113.345 203.12ZM124.006 224.816C88.1288 230.436 95.4153 279.609 129.598 276.973C163.668 271.205 155.332 222.245 124.006 224.816ZM102.14 283.761C81.1332 286.405 85.133 307.672 85.1695 322.896L167.878 322.896L167.878 308.253C168.082 291.604 163.888 283.839 146.364 283.759L129.598 283.761C130.671 289.619 131.823 295.454 133.037 301.285C130.786 304.003 128.599 306.838 126.237 309.457C123.93 306.701 121.651 303.915 119.198 301.285C120.408 295.519 121.416 289.63 121.956 283.761C115.391 283.751 108.689 283.451 102.14 283.761Z"/>
	<path fill="#5ECCF8" transform="scale(0.195312 0.195312)" d="M297.282 238.272C297.362 233.02 297.298 227.761 297.282 222.508L311.861 222.508L311.861 238.272C307.138 238.674 302.04 238.316 297.282 238.272Z"/>
	<path fill="#FEFEFE" transform="scale(0.195312 0.195312)" d="M129.598 276.973C95.4153 279.609 88.1288 230.436 124.006 224.816C155.332 222.245 163.668 271.205 129.598 276.973Z"/>
	<path fill="#C4CFF9" transform="scale(0.195312 0.195312)" d="M354.768 250.685C358.287 248.056 363.04 245.074 366.802 242.472C372.13 248.77 378.812 271.542 379.368 280.025C374.816 280.637 370.338 281.666 365.8 282.331C363.889 277.565 363.109 272.065 361.584 267.136C359.807 261.397 357.16 256.163 354.768 250.685Z"/>
	<path fill="#5ECCF8" transform="scale(0.195312 0.195312)" d="M365.8 282.331C370.338 281.666 374.816 280.637 379.368 280.025C402.437 279.951 418.748 283.947 436.12 301.204C464.526 329.423 463.287 376.733 435.215 404.655C432.953 406.905 430.338 409.277 427.568 410.881C427.254 400.158 431.134 378.481 418.786 375.199C414.711 374.115 398.838 374.741 393.494 374.751C390.577 378.773 388.16 383.119 385.687 387.42C382.111 383.328 379.279 378.414 376.022 374.048C339.967 371.199 343.184 381.974 343.211 410.881C340.387 408.642 337.694 406.178 334.956 403.83C331.305 400.124 328.356 395.984 325.694 391.532C300.662 349.493 318.702 296.868 365.8 282.331ZM382.244 305.838C342.076 311.867 350.121 368.279 388.811 364.726C424.892 361.44 422.359 302.17 382.244 305.838Z"/>
	<path fill="#FEFEFE" transform="scale(0.195312 0.195312)" d="M85.1695 322.896C85.133 307.672 81.1332 286.405 102.14 283.761C108.689 283.451 115.391 283.751 121.956 283.761C121.416 289.63 120.408 295.519 119.198 301.285C121.651 303.915 123.93 306.701 126.237 309.457C128.599 306.838 130.786 304.003 133.037 301.285C131.823 295.454 130.671 289.619 129.598 283.761L146.364 283.759C163.888 283.839 168.082 291.604 167.878 308.253L167.878 322.896L85.1695 322.896Z"/>
	<defs>
		<linearGradient id="gradient_2" gradientUnits="userSpaceOnUse" x1="219.69087" y1="323.68524" x2="276.66397" y2="349.38651">
			<stop offset="0" stop-color="#15BE8B"/>
			<stop offset="1" stop-color="#22E59F"/>
		</linearGradient>
	</defs>
	<path fill="url(#gradient_2)" transform="scale(0.195312 0.195312)" d="M249.586 368.712C210.205 371.402 202.183 308.254 248.604 304.334C256.958 304.119 265.447 308.139 271.209 314.038C289.766 333.039 276.771 369.264 249.586 368.712Z"/>
	<path fill="#7474C4" transform="scale(0.195312 0.195312)" d="M388.811 364.726C350.121 368.279 342.076 311.867 382.244 305.838C422.359 302.17 424.892 361.44 388.811 364.726Z"/>
	<path fill="#C4CFF9" transform="scale(0.195312 0.195312)" d="M124.006 344.333C129.189 344.424 134.216 343.869 139.348 343.218C152.758 367.203 167.808 381.623 193.266 393.468C193.276 397.709 193.74 405.016 193.266 408.812C187.916 408.66 175.579 401.025 170.862 398.007C153.197 386.704 138.865 372.044 128.705 353.646C127.027 350.606 124.767 347.778 124.006 344.333Z"/>
	<defs>
		<linearGradient id="gradient_3" gradientUnits="userSpaceOnUse" x1="343.22775" y1="396.15933" x2="427.54047" y2="401.55573">
			<stop offset="0" stop-color="#625EB4"/>
			<stop offset="1" stop-color="#8589CE"/>
		</linearGradient>
	</defs>
	<path fill="url(#gradient_3)" transform="scale(0.195312 0.195312)" d="M343.211 410.881C343.184 381.974 339.967 371.199 376.022 374.048C379.279 378.414 382.111 383.328 385.687 387.42C388.16 383.119 390.577 378.773 393.494 374.751C398.838 374.741 414.711 374.115 418.786 375.199C431.134 378.481 427.254 400.158 427.568 410.881C425.767 412.479 423.523 413.762 421.441 414.975C396.244 429.648 367.065 428.231 343.211 410.881Z"/>
	<path fill="#1ED698" transform="scale(0.195312 0.195312)" d="M193.266 393.468C198.152 375.515 216.798 380.05 231.675 380.061C233.958 385.595 244.461 398.75 248.604 403.83C253.421 395.433 260.564 388.556 265.241 380.061C266.168 379.784 287.463 379.647 289.875 379.899C302.425 381.209 304.188 391.23 304.095 401.236C304.091 404.7 304.01 408.183 304.095 411.645C304.131 413.409 304.145 415.164 304.095 416.927C304.323 428.041 302.555 435.498 290.021 435.825C271.348 436.312 252.567 435.854 233.882 435.868L214.557 435.902C198.865 435.934 193.172 435.394 193.224 418.027L193.266 408.812C193.74 405.016 193.276 397.709 193.266 393.468Z"/>
	<path fill="#A1EAFA" transform="scale(0.195312 0.195312)" d="M231.675 380.061C241.569 380.211 255.57 380.844 265.241 380.061C260.564 388.556 253.421 395.433 248.604 403.83C244.461 398.75 233.958 385.595 231.675 380.061Z"/>
	<path fill="#C4CFF9" transform="scale(0.195312 0.195312)" d="M304.095 401.236C310.698 399.655 316.708 395.877 322.998 393.468C327.048 393.999 326.508 397.196 328.176 400.013C330.67 404.223 333.361 401.929 331.177 406.099C323.375 411.247 314.775 413.55 306.264 416.927L304.095 416.927C304.145 415.164 304.131 413.409 304.095 411.645C304.01 408.183 304.091 404.7 304.095 401.236Z"/>
</svg>
