<?xml version="1.0" encoding="utf-8" ?>
<svg xmlns="http://www.w3.org/2000/svg" xmlns:xlink="http://www.w3.org/1999/xlink" width="100" height="100">
	<path fill="#F47BC4" transform="matrix(0.195312 0 0 0.195312 0 -7.62939e-06)" d="M329.664 102.294C390.136 83.7612 444.911 143.057 427.916 201.036C426.064 206.773 424.137 212.372 421.364 217.746C403.897 251.593 363.512 267.321 327.489 255.68C322.796 254.164 318.661 251.72 314.112 249.945L307.73 245.938C304.002 245.953 300.226 246.458 296.495 246.657C295.849 246.571 295.204 246.631 294.554 246.657C284.159 247.703 269.658 248.806 259.363 248.276C263.984 236.669 274.945 224.308 280.617 210.568C270.143 188.323 272.999 158.546 285.329 137.828C288.311 132.818 292.24 128.643 295.385 123.81L295.568 123.526C301.338 117.87 307.218 113.407 314.112 109.251C319.175 106.383 324.169 104.197 329.664 102.294Z"/>
	<path fill="#5A6FFA" transform="matrix(0.195312 0 0 0.195312 0 -7.62939e-06)" d="M330.555 126.131C381.539 107.619 424.769 157.94 401.922 205.614C397.76 214.299 391.212 220.756 383.524 226.369C380.922 227.423 378.596 229.445 375.976 230.627C347.437 243.507 313.273 231.349 300.334 202.561C286.857 172.578 300.596 139.257 330.555 126.131Z"/>
	<path fill="#E4ECF9" transform="matrix(0.195312 0 0 0.195312 0 -7.62939e-06)" d="M308.909 174.828C312.634 175.042 318.398 174.286 321.608 176.321C325.771 178.96 322.511 184.229 318.562 184.778C315.211 184.771 308.04 185.517 305.389 183.749C300.419 180.435 304.43 175.552 308.909 174.828Z"/>
	<path fill="#E4ECF9" transform="matrix(0.195312 0 0 0.195312 0 -7.62939e-06)" d="M387.055 174.828C404.634 172.15 403.044 183.652 396.313 184.778C392.735 184.829 386.346 185.983 383.396 183.695C379.681 180.813 381.614 175.01 387.055 174.828Z"/>
	<path fill="#E4ECF9" transform="matrix(0.195312 0 0 0.195312 0 -7.62939e-06)" d="M350.741 142.286C352.686 142.021 355.478 142.092 356.54 144.087C358.02 146.868 359.472 161.296 354.026 164.184C351.724 164.456 349.283 164.482 348.008 162.151C346.524 159.436 345.227 145.236 350.741 142.286Z"/>
	<path fill="#E4ECF9" transform="matrix(0.195312 0 0 0.195312 0 -7.62939e-06)" d="M350.741 168.274C356.041 167.991 359.617 170.37 362.518 174.828C366.798 175.08 376.609 173.403 374.52 181.233C372.951 187.117 364.19 183.357 361.56 184.778C349.998 202.598 329.086 174.52 350.741 168.274Z"/>
	<path fill="#808DD8" transform="matrix(0.195312 0 0 0.195312 0 -7.62939e-06)" d="M314.112 265.818C314.701 277.393 314.107 289.095 314.104 300.686L314.123 407.83C314.125 420.99 316.022 434.592 306.101 444.927C293.893 457.645 259.764 453.255 242.71 453.251L125.784 453.266C112.17 453.28 99.5492 455.004 88.8916 444.667C82.4926 438.461 80.7716 430.03 80.6427 421.458C80.2604 396.028 80.6323 370.537 80.6324 345.102L80.6161 95.0609C80.5919 70.9128 84.3763 54.5203 112.245 54.369L268.409 54.3757C298.846 54.3525 314.119 58.496 314.128 92.254L314.112 109.251C307.218 113.407 301.338 117.87 295.568 123.526L295.55 97.0289C295.546 87.8642 297.644 76.73 284.925 76.7654L253.522 76.8248C253.166 90.7295 243.362 89.8417 232.498 89.8368L213.446 89.8262C194.689 89.8173 175.795 90.2456 157.055 89.7915C148.765 89.5906 143.726 85.2501 143.17 76.8248L121.691 76.8135C96.6749 76.8203 99.4632 80.6407 99.4975 101.924L99.5079 360.522C99.4989 368.733 97.3459 387.344 103.684 393.027C108.739 397.558 116.1 396.465 122.386 396.464L275.512 396.468C298.813 396.474 296.512 393.001 296.502 373.046L296.495 266.973C296.381 264.376 296.408 261.821 296.495 259.224L296.495 246.657C300.226 246.458 304.002 245.953 307.73 245.938L314.112 249.945L314.112 265.818Z"/>
	<path fill="#5A6FFA" transform="matrix(0.195312 0 0 0.195312 0 -7.62939e-06)" d="M296.495 246.657C300.226 246.458 304.002 245.953 307.73 245.938L314.112 249.945L314.112 265.818L313.892 266.247C314.817 288.349 308.494 271.172 296.495 266.973C296.381 264.376 296.408 261.821 296.495 259.224L296.495 246.657Z"/>
	<path fill="#F47BC4" transform="matrix(0.195312 0 0 0.195312 0 -7.62939e-06)" d="M196.812 411.848C213.956 411.353 215.731 437.2 196.812 439.146C179.341 438.159 179.179 413.336 196.812 411.848Z"/>
	<path fill="#E4ECF9" transform="matrix(0.195312 0 0 0.195312 0 -7.62939e-06)" d="M253.522 76.8248L284.925 76.7654C297.644 76.73 295.546 87.8642 295.55 97.0289L295.568 123.526L295.385 123.81C292.24 128.643 288.311 132.818 285.329 137.828C272.999 158.546 270.143 188.323 280.617 210.568C274.945 224.308 263.984 236.669 259.363 248.276C269.658 248.806 284.159 247.703 294.554 246.657C295.204 246.631 295.849 246.571 296.495 246.657L296.495 259.224C296.408 261.821 296.381 264.376 296.495 266.973L296.502 373.046C296.512 393.001 298.813 396.474 275.512 396.468L122.386 396.464C116.1 396.465 108.739 397.558 103.684 393.027C97.3459 387.344 99.4989 368.733 99.5079 360.522L99.4975 101.924C99.4632 80.6407 96.6749 76.8203 121.691 76.8135L143.17 76.8248C143.726 85.2501 148.765 89.5906 157.055 89.7915C175.795 90.2456 194.689 89.8173 213.446 89.8262L232.498 89.8368C243.362 89.8417 253.166 90.7295 253.522 76.8248Z"/>
	<path fill="#FC9942" transform="matrix(0.195312 0 0 0.195312 0 -7.62939e-06)" d="M189.383 135.702C193.783 124.23 210.26 131.101 202.081 144.298L202.081 144.298L202.081 144.735C198.551 144.531 195.491 144.277 191.955 144.735C189.748 141.583 188.888 139.585 189.383 135.702Z"/>
	<path fill="#EF7833" transform="matrix(0.195312 0 0 0.195312 0 -7.62939e-06)" d="M189.383 135.702C190.227 136.356 190.277 136.751 190.62 137.713C192.268 142.336 198.224 142.785 202.081 144.298L202.081 144.735C198.551 144.531 195.491 144.277 191.955 144.735C189.748 141.583 188.888 139.585 189.383 135.702Z"/>
	<path fill="#C3C8E3" transform="matrix(0.195312 0 0 0.195312 0 -7.62939e-06)" d="M294.554 246.657C295.204 246.631 295.849 246.571 296.495 246.657L296.495 259.224C285.692 260.233 271.787 258.776 260.313 259.224C263.372 257.495 266.055 255.116 269.392 253.904C274.91 251.899 290.488 249.499 294.554 246.657Z"/>
	<path fill="#5F60AA" transform="matrix(0.195312 0 0 0.195312 0 -7.62939e-06)" d="M181.931 214.375L211.466 214.375C209.686 234.866 183.644 234.269 181.931 214.375Z"/>
	<path fill="#FC9942" transform="matrix(0.195312 0 0 0.195312 0 -7.62939e-06)" d="M155.295 205.046C158.549 205.321 161.964 205.068 165.239 205.061L185.743 205.04C203.647 205.038 221.648 205.481 239.537 205.046C240.886 206.254 241.488 207.062 241.563 208.917C241.856 216.172 234.64 214.437 229.661 214.409C223.612 214.375 217.51 214.19 211.466 214.375L181.931 214.375C176.029 214.199 170.069 214.397 164.161 214.411C159.989 214.422 152.471 215.816 152.719 209.479C152.802 207.353 153.804 206.376 155.295 205.046Z"/>
	<path fill="#29B6C4" transform="matrix(0.195312 0 0 0.195312 0 -7.62939e-06)" d="M160.713 369.463C157.239 376.213 149.949 374.467 143.724 374.453C138.221 374.441 122.178 376.136 118.564 372.197C114.759 368.049 116.057 343.753 116.269 337.213C116.5 330.086 121.585 329.396 127.491 329.698C128.762 332.741 126.476 346.242 127.491 349.38C125.227 354.095 133.095 366.687 140.952 359.38C143.779 360.221 159.461 368.111 160.713 369.463Z"/>
	<path fill="#C3C8E3" transform="matrix(0.195312 0 0 0.195312 0 -7.62939e-06)" d="M182.972 268.998C187.601 268.823 192.301 268.991 196.935 268.994L252.89 268.987C256.431 268.987 272.561 268.177 275.196 269.737C278.689 271.804 277.147 277.108 273.563 278.042C270.262 278.322 266.825 278.071 263.508 278.061L181.931 278.042C178.33 275.405 177.308 269.801 182.972 268.998Z"/>
	<path fill="#C3C8E3" transform="matrix(0.195312 0 0 0.195312 0 -7.62939e-06)" d="M184.122 354.32L264.685 354.308C267.927 354.291 271.268 353.983 274.491 354.32C279.173 358.222 276.99 362.945 271.561 363.553C250.211 363.246 228.809 363.556 207.453 363.554L190.218 363.532C187.092 363.546 182.826 364.605 180.111 362.561C175.692 359.234 180.044 354.625 184.122 354.32Z"/>
	<path fill="#C3C8E3" transform="matrix(0.195312 0 0 0.195312 0 -7.62939e-06)" d="M259.363 332.993C266.524 333.114 277.346 329.753 276.97 339.393C274.369 343.817 267.25 342.378 262.848 342.369L196.812 342.352C191.912 342.304 186.798 342.795 181.931 342.352C180.191 341.02 178.827 339.694 178.653 337.35C178.228 331.646 190.84 332.992 194.272 332.99L259.363 332.993Z"/>
	<path fill="#C3C8E3" transform="matrix(0.195312 0 0 0.195312 0 -7.62939e-06)" d="M229.138 288.957L257.615 288.944C261.21 288.942 272.606 287.703 275.245 290.24C278.571 293.436 276.843 297.667 272.587 298.207C267.45 298.86 261.791 298.423 256.596 298.418L227.774 298.423L198.33 298.446C194.52 298.451 182.682 299.776 179.835 297.143C178.129 295.566 178.33 291.832 179.913 290.258C182.587 287.6 194.495 288.951 198.232 288.95L229.138 288.957Z"/>
	<path fill="#FCBF6E" transform="matrix(0.195312 0 0 0.195312 0 -7.62939e-06)" d="M164.45 191.986L230.032 191.986L230.032 195.71C233.168 198.861 236.378 201.92 239.537 205.046C221.648 205.481 203.647 205.038 185.743 205.04L165.239 205.061C161.964 205.068 158.549 205.321 155.295 205.046C157.812 201.724 161.218 198.347 164.45 195.71C164.517 194.476 164.46 193.222 164.45 191.986Z"/>
	<path fill="#EF7833" transform="matrix(0.195312 0 0 0.195312 0 -7.62939e-06)" d="M164.45 191.986L230.032 191.986L230.032 195.71L171.621 195.75C169.276 195.773 166.778 195.981 164.45 195.71C164.517 194.476 164.46 193.222 164.45 191.986Z"/>
	<path fill="#3ACFCD" transform="matrix(0.195312 0 0 0.195312 0 -7.62939e-06)" d="M127.491 329.698L145.304 329.702C161.092 329.725 160.782 330.637 160.737 346.615C160.724 351.624 159.944 365.074 160.713 369.463C159.461 368.111 143.779 360.221 140.952 359.38C133.095 366.687 125.227 354.095 127.491 349.38C126.476 346.242 128.762 332.741 127.491 329.698Z"/>
	<path fill="#E4ECF9" transform="matrix(0.195312 0 0 0.195312 0 -7.62939e-06)" d="M136.494 352.848C138.924 350.222 145.503 342.009 148.862 341.986C160.204 341.907 141.39 358.889 140.952 359.38C133.095 366.687 125.227 354.095 127.491 349.38C131.357 347.424 133.415 351.105 136.494 352.848Z"/>
	<defs>
		<linearGradient id="gradient_0" gradientUnits="userSpaceOnUse" x1="162.15135" y1="279.71487" x2="115.93044" y2="289.21692">
			<stop offset="0" stop-color="#FD7B4C"/>
			<stop offset="1" stop-color="#E75551"/>
		</linearGradient>
	</defs>
	<path fill="url(#gradient_0)" transform="matrix(0.195312 0 0 0.195312 0 -7.62939e-06)" d="M124.489 262.488C128.882 262.242 133.418 262.466 137.827 262.463C144.885 262.458 159.486 259.665 160.622 270.049C161.029 273.769 160.996 299.18 160.282 301.465C159.595 303.668 157.266 305.537 155.295 306.6C149.089 307.365 131.94 306.955 125.757 306.549C121.991 306.301 119.092 304.564 117.952 300.687C117.439 298.943 117.496 272.083 117.861 269.18C118.3 265.68 121.205 263.309 124.489 262.488Z"/>
	<path fill="#E4ECF9" transform="matrix(0.195312 0 0 0.195312 0 -7.62939e-06)" d="M148.378 274.227C161.011 275.094 139.086 293.549 136.494 295.231C134.676 293.831 133.063 292.298 131.424 290.699C123.397 282.698 127.616 276.321 136.494 284.83C140.577 281.455 143.745 276.882 148.378 274.227Z"/>
	<path fill="#FC9942" transform="matrix(0.195312 0 0 0.195312 0 -7.62939e-06)" d="M202.081 144.298C223.643 150.493 230.332 162.956 230.032 184.241C230.027 186.813 229.947 189.417 230.032 191.986L164.45 191.986C164.38 167.046 165.996 152.549 191.955 144.735C195.491 144.277 198.551 144.531 202.081 144.735L202.081 144.298L202.081 144.298Z"/>
	<path fill="#FCBF6E" transform="matrix(0.195312 0 0 0.195312 0 -7.62939e-06)" d="M202.081 144.298C223.643 150.493 230.332 162.956 230.032 184.241C218.42 184.475 211.218 183.898 201.276 176.948C187.15 167.074 180.485 148.077 202.081 144.735L202.081 144.298L202.081 144.298Z"/>
</svg>
