<?xml version="1.0" encoding="utf-8" ?>
<svg xmlns="http://www.w3.org/2000/svg" xmlns:xlink="http://www.w3.org/1999/xlink" width="100" height="100">
	<path fill="#E0E7EF" transform="scale(0.195312 0.195312)" d="M347.233 118.675C348.365 119.887 349.466 121.176 350.777 122.196C349.225 122.652 345.428 122.926 344.223 121.509L344.34 120.842C345.07 119.84 346.186 119.301 347.233 118.675Z"/>
	<path fill="#02BFD6" transform="scale(0.195312 0.195312)" d="M302.643 364.806C303.702 366.751 303.117 368.588 303.285 370.66C304.192 381.817 317.288 379.565 324.811 380.688L325.133 380.734C325.198 380.743 325.262 380.754 325.326 380.764L315.391 380.762C311.786 380.788 307.749 381.343 304.559 379.278C299.263 375.85 299.365 369.555 302.643 364.806Z"/>
	<path fill="#B9CDE3" transform="scale(0.195312 0.195312)" d="M390.649 193.489C395.777 193.672 405.921 192.763 410.254 193.779C415.513 195.012 417.682 203.249 413.397 206.676C409.677 209.652 402.45 208.459 398.054 208.392C390.337 208.274 376.818 207.648 369.413 208.44L356.948 208.478C336.352 208.536 343.371 194.942 349.183 193.871C353.834 193.014 359.187 193.48 363.923 193.478L390.649 193.489Z"/>
	<path fill="#B9CDE3" transform="scale(0.195312 0.195312)" d="M389.372 241.33L363.022 241.344C358.831 241.346 354.073 241.78 349.94 241.154C341.627 239.895 341.383 227.942 349.692 226.465C354.496 225.611 361.548 226.141 366.567 226.143L399.726 226.151C403.896 226.147 410.497 225.277 413.674 228.54C416.596 231.542 416.388 236.769 413.28 239.574C409.531 242.958 394.684 240.856 389.372 241.33Z"/>
	<path fill="#B9CDE3" transform="scale(0.195312 0.195312)" d="M399.726 259.9C403.973 259.975 410.271 258.841 413.523 262.125C416.38 265.011 416.046 270.498 413.1 273.177C410.072 275.931 403.548 274.844 399.726 275.221L366.92 275.227C361.17 275.225 354.719 275.783 349.067 274.786C341.576 273.465 342.03 261.16 349.432 260.018C351.647 259.676 354.1 259.897 356.342 259.909L367.13 259.912C377.962 259.908 388.905 259.544 399.726 259.9Z"/>
	<path fill="#1C8CF9" transform="scale(0.195312 0.195312)" d="M112.009 363.529L135.932 363.512C140.123 363.512 144.957 362.999 149.038 363.885C154.585 365.09 158.058 371.661 155.348 376.748C151.877 383.263 140.557 395.955 135.629 402.67C123.39 415.797 116.939 398.983 108.495 388.6C103.817 382.848 93.0659 373.809 100.809 366.118C103.785 363.162 108.156 363.538 112.009 363.529Z"/>
	<path fill="#08DBC5" transform="scale(0.195312 0.195312)" d="M333.538 332.545C338.23 330.149 345.297 332.229 347.638 337.006C349.607 341.025 348.708 356.195 348.712 361.241L362.441 361.248C365.15 361.249 368.161 360.934 370.81 361.531C380.318 363.672 379.475 377.971 370.445 380.303C365.308 381.63 354.558 380.551 348.712 380.764L348.712 402.67C346.689 406.958 340.808 410.36 336.012 409.156C332.921 408.311 330.788 406.415 328.907 403.906C327.125 399.212 328.972 382.622 327.722 380.842L326.205 380.764L325.326 380.764C325.262 380.754 325.198 380.743 325.133 380.734L324.811 380.688C317.288 379.565 304.192 381.817 303.285 370.66C303.117 368.588 303.702 366.751 302.643 364.806C307.9 358.991 320.915 361.21 328.013 361.241C328.037 352.701 325.016 337.381 333.538 332.545Z"/>
	<path fill="#02BFD6" transform="scale(0.195312 0.195312)" d="M326.205 380.764L329.986 380.222C329.973 391.283 327.203 401.84 336.012 409.156C332.921 408.311 330.788 406.415 328.907 403.906C327.125 399.212 328.972 382.622 327.722 380.842L326.205 380.764Z"/>
	<path fill="#02BFD6" transform="scale(0.195312 0.195312)" d="M333.538 332.545C334.484 334.648 331.882 335.828 331.24 337.712C328.917 344.525 331.776 354.181 330.655 360.735C330.479 361.77 328.738 361.321 328.013 361.241C328.037 352.701 325.016 337.381 333.538 332.545Z"/>
	<path fill="#08DBC5" transform="scale(0.195312 0.195312)" d="M373.245 80.9566C376.297 72.932 385.558 70.4644 391.856 76.0463C398.35 81.8025 404.358 88.4603 410.427 94.6714C416.389 100.775 426.128 106.982 421.574 116.877C420.471 119.273 396.555 142.867 393.24 145.723C384.664 153.112 373.608 146.831 375.379 134.483C374.006 134.046 358.721 134.477 356.11 134.483C359.2 130.345 364.023 126.784 366.328 122.196L350.777 122.196C349.466 121.176 348.365 119.887 347.233 118.675C342.229 110.66 345.516 101.347 355.175 100.149C356.332 96.6284 369.864 83.6327 373.245 80.9566ZM380.904 95.8111C379.222 97.12 379.201 98.2002 379.665 100.149C381.657 100.005 383.728 100.135 385.729 100.149C384.071 98.7466 382.461 97.3244 380.904 95.8111Z"/>
	<path fill="#E0E7EF" transform="scale(0.195312 0.195312)" d="M366.328 122.196L385.729 122.196C382.222 125.233 377.22 130.275 375.379 134.483C374.006 134.046 358.721 134.477 356.11 134.483C359.2 130.345 364.023 126.784 366.328 122.196Z"/>
	<path fill="#E0E7EF" transform="scale(0.195312 0.195312)" d="M355.175 100.149C356.332 96.6284 369.864 83.6327 373.245 80.9566C373.344 88.539 375.782 90.804 380.904 95.8111C379.222 97.12 379.201 98.2002 379.665 100.149L355.175 100.149Z"/>
	<path fill="#E0E7EF" transform="scale(0.195312 0.195312)" d="M439.716 151.011L439.724 337.111C439.726 368.183 439.397 390.772 401.509 390.781L399.726 390.777L399.726 275.221C403.548 274.844 410.072 275.931 413.1 273.177C416.046 270.498 416.38 265.011 413.523 262.125C410.271 258.841 403.973 259.975 399.726 259.9C399.549 253.731 399.724 247.505 399.726 241.33C396.289 241.304 392.798 241.585 389.372 241.33C394.684 240.856 409.531 242.958 413.28 239.574C416.388 236.769 416.596 231.542 413.674 228.54C410.497 225.277 403.896 226.147 399.726 226.151C400.167 225.144 399.472 211.383 399.726 208.44C389.657 208.439 379.464 208.809 369.413 208.44C376.818 207.648 390.337 208.274 398.054 208.392C402.45 208.459 409.677 209.652 413.397 206.676C417.682 203.249 415.513 195.012 410.254 193.779C405.921 192.763 395.777 193.672 390.649 193.489C393.695 193.246 396.678 193.307 399.726 193.489L399.726 178.983L400.073 178.77C404.685 175.966 409.825 174.095 414.453 171.237C423.738 165.503 431.438 157.997 439.716 151.011Z"/>
	<path fill="#67BAF9" transform="scale(0.195312 0.195312)" d="M112.009 116.68C112.066 103.616 113.582 93.0075 123.383 83.3755C135.233 71.7297 148.194 73.1939 163.325 73.1954L287.929 73.1995C300.599 73.1988 313.575 72.2983 326.205 73.1986C314.427 94.9017 313.282 119.094 320.185 142.465L320.38 143.111C313.591 143.355 306.741 143.113 299.944 143.111L135.629 143.111C127.758 143.012 119.88 143.096 112.009 143.111L111.988 127.269C111.953 123.764 111.728 120.173 112.009 116.68Z"/>
	<path fill="#0366E4" transform="scale(0.195312 0.195312)" d="M149.185 98.0045C169.864 95.7742 169.32 112.023 158.201 115.313C134.135 116.303 140.047 99.143 149.185 98.0045Z"/>
	<path fill="#1C8CF9" transform="scale(0.195312 0.195312)" d="M190.14 98.0045C193.874 97.8061 197.707 97.9942 201.451 97.9987L239.529 98.0019C242.548 97.9987 245.707 97.8099 248.709 98.1109C259.12 99.1547 258.697 113.461 249.203 115.313L210.341 115.325C204.82 115.324 190.132 116.877 185.648 113.737C178.768 108.918 181.506 99.1438 190.14 98.0045Z"/>
	<path fill="#E0E7EF" transform="scale(0.195312 0.195312)" d="M398.463 401.882C395.054 423.462 375.294 434.751 354.581 434.854L133.817 434.862C125.505 434.868 113.78 435.546 105.909 434.195C91.3575 431.696 78.5732 419.039 75.9079 404.519C74.4364 396.503 74.3094 378.22 74.1631 369.581L72.6617 298.5C72.5493 295.748 72.2559 293.004 72.2206 290.249L70.5626 181.45C70.2786 161.946 67.1462 144.05 82.6773 128.853C90.8076 120.897 100.346 117.559 111.587 117.645L112.009 116.68C111.728 120.173 111.953 123.764 111.988 127.269L112.009 143.111C119.88 143.096 127.758 143.012 135.629 143.111C132.884 143.567 129.801 143.166 127.005 143.137L112.009 143.111L112.009 363.529C108.156 363.538 103.785 363.162 100.809 366.118C93.0659 373.809 103.817 382.848 108.495 388.6C116.939 398.983 123.39 415.797 135.629 402.67L136.021 402.801C139.205 400.54 165.531 401.884 170.487 401.885L288.975 401.883C296.019 401.879 320.607 400.694 326.05 402.705C327.01 403.06 327.915 403.679 328.907 403.906C330.788 406.415 332.921 408.311 336.012 409.156C340.808 410.36 346.689 406.958 348.712 402.67C352.46 401.284 390.11 401.587 398.463 401.882Z"/>
	<path fill="#1C8CF9" transform="scale(0.195312 0.195312)" d="M159.606 315.235C156.519 311.306 153.211 307.575 150.44 303.405C109.556 241.875 161.471 159.997 235.977 169.177C305.196 177.706 336.528 266.081 288.393 315.235C283.954 319.761 279.415 324.294 274.027 327.703C250.622 343.809 218.247 347.551 191.905 336.901C185.526 334.322 179.897 330.683 173.745 327.703C169.311 323.34 164.269 319.387 159.606 315.235Z"/>
	<path fill="#E0E7EF" transform="scale(0.195312 0.195312)" d="M213.572 227.668C202.641 220.54 201.467 204.485 210.66 195.255C227.201 178.648 258.998 203.429 234.442 227.668C227.128 230.648 220.657 231.517 213.572 227.668Z"/>
	<path fill="#0366E4" transform="scale(0.195312 0.195312)" d="M213.572 227.668C220.657 231.517 227.128 230.648 234.442 227.668C244.242 229.691 253.504 237.759 258.88 245.95C267.087 258.457 265.407 267.488 264.612 280.823C275.673 289.241 286.68 300.84 288.393 315.235C283.954 319.761 279.415 324.294 274.027 327.703C250.622 343.809 218.247 347.551 191.905 336.901C185.526 334.322 179.897 330.683 173.745 327.703C169.311 323.34 164.269 319.387 159.606 315.235C162.698 301.728 171.964 289.871 183.222 282.162C176.172 259.333 190.355 233.039 213.572 227.668Z"/>
	<path fill="#FAA67F" transform="scale(0.195312 0.195312)" d="M206.468 291.162C207.756 290.582 205.119 288.149 204.61 287.502C191.228 270.474 200.137 246.474 221.821 243.986L221.819 281.029C221.819 285.64 219.583 297.185 224.119 297.285C217.177 298.599 210.024 291.403 206.468 291.162Z"/>
	<path fill="#FDCBAC" transform="scale(0.195312 0.195312)" d="M221.821 243.986C248.359 244.084 258.038 273.04 239.833 291.162C234.746 294.544 230.361 296.929 224.119 297.285C219.583 297.185 221.819 285.64 221.819 281.029L221.821 243.986Z"/>
	<path fill="#FEAE02" transform="scale(0.195312 0.195312)" d="M239.833 291.162L241.642 291.162C261.791 296.448 270.389 308.013 274.027 327.703C250.622 343.809 218.247 347.551 191.905 336.901C185.526 334.322 179.897 330.683 173.745 327.703C178.2 309.136 183.361 299.489 202.713 292.197C203.95 291.8 205.211 291.488 206.468 291.162C210.024 291.403 217.177 298.599 224.119 297.285C230.361 296.929 234.746 294.544 239.833 291.162Z"/>
	<path fill="#F07100" transform="scale(0.195312 0.195312)" d="M239.833 291.162L241.642 291.162C235.607 307.517 211.781 307.384 202.713 292.197C203.95 291.8 205.211 291.488 206.468 291.162C210.024 291.403 217.177 298.599 224.119 297.285C230.361 296.929 234.746 294.544 239.833 291.162Z"/>
</svg>
