<?xml version="1.0" encoding="utf-8" ?>
<svg xmlns="http://www.w3.org/2000/svg" xmlns:xlink="http://www.w3.org/1999/xlink" width="100" height="100">
	<path fill="#6E9AF0" transform="scale(0.195312 0.195312)" d="M368.145 124.194C375.575 130.915 386.931 142.272 393.517 149.806C396.414 153.119 398.694 156.896 401.351 160.393C410.875 172.933 413.048 170.535 410.546 187.264C410.102 190.226 409.861 193.261 409.839 196.256L409.834 397.253C409.834 426.491 404.737 437.977 376.975 447.993C376.969 447.99 371.515 442.385 369.577 440.957C366.477 438.674 358.392 430.362 359.453 425.903C360.704 424.836 358.107 425.106 357.09 424.745C379.808 424.345 387.027 426.791 387.05 400.977L387.046 229.896C387.046 213.084 387.304 196.231 387.047 179.424L378.86 179.424C381.477 178.867 384.218 179.519 386.808 179.002C387.139 177.118 385.028 177.716 385.954 175.708C388.369 170.475 379.855 153.622 380.019 148.372C384.236 151.953 375.31 140.073 384.152 140.97L384.177 141.095C379.017 135.359 373.101 130.319 367.975 124.517L368.145 124.194Z"/>
	<defs>
		<linearGradient id="gradient_0" gradientUnits="userSpaceOnUse" x1="385.15439" y1="264.08432" x2="96.349022" y2="249.63045">
			<stop offset="0" stop-color="#689EF2"/>
			<stop offset="1" stop-color="#6CECFA"/>
		</linearGradient>
	</defs>
	<path fill="url(#gradient_0)" transform="scale(0.195312 0.195312)" d="M376.975 447.993C373.361 448.259 369.552 448.06 365.922 448.029L195.117 447.993C178.419 447.994 161.661 448.29 144.969 447.972C132.37 447.732 122.227 444.229 113.356 434.929C103.082 424.158 102.904 410.865 102.9 397.02L102.905 130.351C102.904 122.752 102.719 115.102 102.935 107.51C103.557 85.598 116.986 68.3813 138.852 64.5973C145.792 63.3963 153.441 63.9982 160.484 64.0075L285.854 64.0073C294.546 63.9704 303.977 62.8938 311.675 67.802C319.125 72.5524 331.951 87.3738 338.516 94.095C348.342 104.154 358.605 113.868 368.145 124.194L367.975 124.517C373.101 130.319 379.017 135.359 384.177 141.095L384.152 140.97C375.31 140.073 384.236 151.953 380.019 148.372C379.855 153.622 388.369 170.475 385.954 175.708C385.028 177.716 387.139 177.118 386.808 179.002C384.218 179.519 381.477 178.867 378.86 179.424L349.674 179.427C326.225 179.449 302.206 179.653 295.042 150.494C292.909 141.812 293.782 131.212 293.783 122.243L293.787 85.9599L156.377 85.9488C139.283 85.9428 124.304 86.3972 124.361 108.277L124.42 396.978C124.417 425.471 131.917 424.751 159.191 424.754L339.597 424.742C345.386 424.742 351.314 424.49 357.09 424.745C358.107 425.106 360.704 424.836 359.453 425.903C358.392 430.362 366.477 438.674 369.577 440.957C371.515 442.385 376.969 447.99 376.975 447.993Z"/>
	<path fill="#FEFEFE" transform="scale(0.195312 0.195312)" d="M314.553 102.213C316.767 103.932 318.692 106.085 320.704 108.033L333.896 120.996C345.086 132.02 358.985 145.043 369.269 156.826C356.075 156.599 328.983 159.793 319.882 150.563C313.172 143.759 314.534 134.035 314.539 125.32L314.553 102.213Z"/>
	<path fill="#FEFEFE" transform="scale(0.195312 0.195312)" d="M357.09 424.745C351.314 424.49 345.386 424.742 339.597 424.742L159.191 424.754C131.917 424.751 124.417 425.471 124.42 396.978L124.361 108.277C124.304 86.3972 139.283 85.9428 156.377 85.9488L293.787 85.9599L293.783 122.243C293.782 131.212 292.909 141.812 295.042 150.494C302.206 179.653 326.225 179.449 349.674 179.427L378.86 179.424L387.047 179.424C387.304 196.231 387.046 213.084 387.046 229.896L387.05 400.977C387.027 426.791 379.808 424.345 357.09 424.745Z"/>
	<defs>
		<linearGradient id="gradient_1" gradientUnits="userSpaceOnUse" x1="345.8696" y1="254.84372" x2="310.10434" y2="257.58173">
			<stop offset="0" stop-color="#5C9AF5"/>
			<stop offset="1" stop-color="#70E2F5"/>
		</linearGradient>
	</defs>
	<path fill="url(#gradient_1)" transform="scale(0.195312 0.195312)" d="M317.784 240.414C321.686 240.218 338.031 239.95 340.892 241.077C348.3 243.995 347.043 263.166 345.439 267.094C344.331 269.809 341.551 271.443 338.948 272.471C330.638 272.486 312.146 276.033 310.416 265.152C309.293 258.08 307.796 241.65 317.784 240.414Z"/>
	<defs>
		<linearGradient id="gradient_2" gradientUnits="userSpaceOnUse" x1="202.89534" y1="244.71896" x2="165.8602" y2="243.99704">
			<stop offset="0" stop-color="#68BDF7"/>
			<stop offset="1" stop-color="#7AEEF9"/>
		</linearGradient>
	</defs>
	<path fill="url(#gradient_2)" transform="scale(0.195312 0.195312)" d="M175.293 216.327C182.808 216.033 202.06 213.175 202.796 224.055C203.374 232.585 202.935 241.374 202.942 249.93C202.949 259.536 206.632 272.264 193.812 272.471C185.137 273.381 168.297 274.685 166.201 264.617C165.447 261 165.437 228.949 165.974 224.604C166.604 219.515 170.411 217.039 175.293 216.327Z"/>
	<path fill="#63C1F6" transform="scale(0.195312 0.195312)" d="M177.817 368.784C181.778 368.36 186.044 368.775 190.046 368.779L257.232 368.78C263.549 368.778 281.858 367.107 286.973 370.924C294.68 376.674 291.686 388.893 279.363 390.229L186.338 390.217C180.614 390.213 173.683 391.379 169.105 387.075C161.794 380.201 167.126 368.863 177.817 368.784Z"/>
	<defs>
		<linearGradient id="gradient_3" gradientUnits="userSpaceOnUse" x1="298.76071" y1="236.22751" x2="260.49762" y2="236.95865">
			<stop offset="0" stop-color="#65A7F5"/>
			<stop offset="1" stop-color="#79EDF5"/>
		</linearGradient>
	</defs>
	<path fill="url(#gradient_3)" transform="scale(0.195312 0.195312)" d="M270.388 201.005C275.915 200.989 286.273 200.435 291.334 201.374C300.237 203.027 298.896 212.437 298.903 219.209L298.919 254.517C298.922 262.12 300.617 271.557 290.285 272.471L277.304 272.501C262.947 272.529 260.539 270.359 260.534 255.521L260.546 221.799C260.556 212.783 258.343 202.218 270.388 201.005Z"/>
	<defs>
		<linearGradient id="gradient_4" gradientUnits="userSpaceOnUse" x1="335.14178" y1="277.74985" x2="177.64337" y2="338.73654">
			<stop offset="0" stop-color="#6497F2"/>
			<stop offset="1" stop-color="#67DEF8"/>
		</linearGradient>
	</defs>
	<path fill="url(#gradient_4)" transform="scale(0.195312 0.195312)" d="M188.55 297.284L320.6 297.276C329.667 297.269 346.585 294.521 346.775 308.262C346.949 320.775 333.697 319.492 324.753 319.502L194.538 319.515C188.494 319.516 182.172 319.827 176.162 319.161C167.411 318.191 162.643 307.387 169.202 300.738C173.687 296.192 182.679 297.264 188.55 297.284Z"/>
	<path fill="#63C1F6" transform="scale(0.195312 0.195312)" d="M186.6 332.96L320.838 332.949C326.169 332.946 331.967 332.511 337.25 333.165C346.08 334.259 350.471 345.48 343.792 351.947C339.411 356.189 332.473 355.228 326.875 355.18L197.048 355.191C190.613 355.194 175.175 356.776 170.109 352.155C165.64 348.079 164.571 340.681 169.055 336.2C173.323 331.935 181.069 332.953 186.6 332.96Z"/>
	<defs>
		<linearGradient id="gradient_5" gradientUnits="userSpaceOnUse" x1="251.97432" y1="217.62003" x2="211.77229" y2="215.96231">
			<stop offset="0" stop-color="#67A9F5"/>
			<stop offset="1" stop-color="#75E1F7"/>
		</linearGradient>
	</defs>
	<path fill="url(#gradient_5)" transform="scale(0.195312 0.195312)" d="M222.451 161.049C231.432 160.465 249.774 158.532 250.54 169.767C251.023 176.852 250.741 184.06 250.732 191.163L250.72 251.399C250.727 259.088 253.335 272.009 242.062 272.471C238.063 272.857 233.815 272.481 229.789 272.492C209.517 272.543 213.473 268.6 213.471 250.694L213.466 184.872C213.461 176.064 209.982 162.259 222.451 161.049Z"/>
</svg>
