<?xml version="1.0" encoding="utf-8" ?>
<svg xmlns="http://www.w3.org/2000/svg" xmlns:xlink="http://www.w3.org/1999/xlink" width="100" height="100">
	<path fill="#C7D5E2" transform="matrix(0.195313 0 0 0.195313 0 3.05176e-05)" d="M373.999 72.207C397.131 72.0604 400.584 82.2183 400.502 103.652L400.488 142.886C400.487 146.267 399.963 153.851 400.485 156.514L362.032 156.514L362.032 110.105C362.027 93.6007 358.004 81.6319 373.999 72.207Z"/>
	<path fill="#C7D5E2" transform="matrix(0.195313 0 0 0.195313 0 3.05176e-05)" d="M400.485 361.871C400.722 371.858 400.487 381.896 400.491 391.891L400.502 406.339C400.536 423.826 397.135 433.48 377.676 433.772C359.194 434.05 340.666 433.776 322.18 433.775L139.841 433.785C126.364 433.781 112.004 431.729 111.214 414.034C111.254 412.523 111.227 411.012 111.214 409.501C131.644 416.507 164.223 414.037 185.971 414.037L321.041 414.04C347.697 414.036 361.748 417.459 362.032 385.952C372.612 383.755 390.732 369.07 400.485 361.871Z"/>
	<path fill="#4ABAFC" transform="matrix(0.195313 0 0 0.195313 0 3.05176e-05)" d="M400.485 156.514L424.235 156.496C445.149 156.492 447.847 156.946 447.836 176.681L447.818 196.003C447.78 251.52 454.765 297.703 416.567 344.619C411.563 350.764 405.977 356.186 400.485 361.871C400.033 357.534 400.483 351.112 400.489 346.455L400.49 173.333C400.493 167.772 400.818 162.056 400.485 156.514Z"/>
	<path fill="#399CF7" transform="matrix(0.195313 0 0 0.195313 0 3.05176e-05)" d="M362.032 156.514L400.485 156.514C400.818 162.056 400.493 167.772 400.49 173.333L400.489 346.455C400.483 351.112 400.033 357.534 400.485 361.871L400.485 361.871C390.732 369.07 372.612 383.755 362.032 385.952L362.032 156.514Z"/>
	<path fill="#F9FBFC" transform="matrix(0.195313 0 0 0.195313 0 3.05176e-05)" d="M112.042 181.037C109.866 177.337 111.158 168.011 111.174 163.718L111.199 108.025C111.178 74.5003 118.676 72.2438 151.072 72.2131L361.193 72.0947C365.304 72.0443 369.425 72.4446 373.53 72.2332L373.999 72.207C358.004 81.6319 362.027 93.6007 362.032 110.105L362.032 156.514L362.032 385.952C361.748 417.459 347.697 414.036 321.041 414.04L185.971 414.037C164.223 414.037 131.644 416.507 111.214 409.501C111.227 411.012 111.254 412.523 111.214 414.034C110.681 413.357 111.208 399.302 111.211 397.301L111.214 349.407C111.207 341.636 110.776 333.746 111.214 325.994C110.931 322.762 110.001 318.282 111.214 315.184C101.664 312.473 93.5159 306.425 86.1114 300.072C87.4705 298.72 88.8526 297.395 90.2427 296.074C90.092 295.799 89.9295 295.568 89.7386 295.321L89.7928 295.045C91.0157 294.062 87.015 289.716 87.4719 287.841C88.4963 283.635 86.0165 286.32 83.8847 287.278L83.5176 287.44C81.8195 288.506 80.1312 290.56 78.6807 291.982C68.6238 277.757 62.5938 261.473 64.0009 243.738C66.371 215.888 84.2676 188.793 112.042 181.037Z"/>
	<path fill="#C7D5E2" transform="matrix(0.195313 0 0 0.195313 0 3.05176e-05)" d="M281.473 214.968C287.563 211.166 295.526 224.055 282.744 226.161C270.01 225.837 271.272 214.339 281.473 214.968Z"/>
	<path fill="#C7D5E2" transform="matrix(0.195313 0 0 0.195313 0 3.05176e-05)" d="M287.575 267.996C291.205 268.175 293.687 268.328 296.172 271.44C296.395 273.172 296.391 274.703 296.172 276.427C294.083 278.999 292.01 279.394 288.796 279.527C276.294 279.02 275.781 268.715 287.575 267.996Z"/>
	<path fill="#4ABAFC" transform="matrix(0.195313 0 0 0.195313 0 3.05176e-05)" d="M139.738 383.978C139.721 381.405 139.063 372.564 140.347 370.615C142.462 367.403 155.454 368.181 157.387 370.161C158.831 371.64 158.199 379.315 158.186 381.72L158.186 383.978L139.738 383.978Z"/>
	<path fill="#C7D5E2" transform="matrix(0.195313 0 0 0.195313 0 3.05176e-05)" d="M322.64 267.996C326.261 268.085 333.804 267.164 336.441 269.838C338.407 271.831 338.081 275.87 336.095 277.728C333.11 280.521 323.939 279.566 319.88 279.527C316.515 279.8 310.035 280.704 307.301 278.4C304.948 276.417 304.436 272.301 306.564 269.971C309.171 267.115 318.707 268.243 322.64 267.996Z"/>
	<path fill="#C7D5E2" transform="matrix(0.195313 0 0 0.195313 0 3.05176e-05)" d="M303.855 214.968C309.104 214.912 331.653 214.382 334.941 215.554C340.199 217.426 338.121 224.66 333.671 226.161C326.833 226.26 299.551 228.634 298.432 221.638C297.765 217.472 300.122 215.554 303.855 214.968Z"/>
	<path fill="#9CAEC2" transform="matrix(0.195313 0 0 0.195313 0 3.05176e-05)" d="M227.411 214.968L249.631 214.951C254.666 214.951 266.808 212.834 264.371 221.873C263.831 223.875 262.391 225.185 260.64 226.161C252.823 226.694 236.394 226.718 228.683 226.07C220.582 225.389 220.469 217.428 227.411 214.968Z"/>
	<path fill="#9CAEC2" transform="matrix(0.195313 0 0 0.195313 0 3.05176e-05)" d="M301.76 241.601L319.998 241.61C324.336 241.572 335.658 239.841 337.576 245.25C339.049 249.403 335.982 252.147 332.312 253.069C324.012 252.782 308.179 254.174 300.86 252.834C293.475 251.481 294.101 242.038 301.76 241.601Z"/>
	<path fill="#9CAEC2" transform="matrix(0.195313 0 0 0.195313 0 3.05176e-05)" d="M227.411 267.996C232.69 267.972 264.586 267.33 267.022 268.613C272.017 271.246 270.261 278.303 265.195 279.527L240.171 279.548C236.056 279.55 231.612 279.883 227.53 279.432C220.63 278.669 220.828 269.298 227.411 267.996Z"/>
	<path fill="#9CAEC2" transform="matrix(0.195313 0 0 0.195313 0 3.05176e-05)" d="M228.127 241.601C232.094 241.417 236.148 241.588 240.125 241.59L263.499 241.636C269.075 241.669 274.904 241.098 280.438 241.525C287.938 242.104 288.564 252.373 281.473 253.069L244.106 253.043C239.009 253.026 233.639 253.516 228.579 253.158C220.519 252.587 220.98 242.677 228.127 241.601Z"/>
	<path fill="#FBE6A8" transform="matrix(0.195313 0 0 0.195313 0 3.05176e-05)" d="M167.499 390.539C167.234 382.42 166.389 359.5 167.519 351.805C168.119 347.716 184.046 346.282 187.499 351.852C187.859 362.703 186.77 373.731 187.499 384.533C187.29 386.497 187.276 388.577 187.499 390.539C180.914 390.15 174.111 390.561 167.499 390.539L167.499 390.539Z"/>
	<path fill="#FDBB34" transform="matrix(0.195313 0 0 0.195313 0 3.05176e-05)" d="M167.499 384.533L180.556 384.489C182.78 384.468 185.311 384.178 187.499 384.533C187.29 386.497 187.276 388.577 187.499 390.539C180.914 390.15 174.111 390.561 167.499 390.539C167.56 388.534 167.54 386.539 167.499 384.533Z"/>
	<path fill="#4ABAFC" transform="matrix(0.195313 0 0 0.195313 0 3.05176e-05)" d="M259.727 345.032C264.973 344.962 274.718 343.028 277.535 348.685C277.715 362.628 277.533 376.594 277.535 390.539L277.535 390.539C275.491 390.78 273.195 390.582 271.123 390.578L257.675 390.539C257.7 388.537 257.69 386.535 257.675 384.533L257.657 361.47C257.654 356.296 256.34 349.406 259.727 345.032Z"/>
	<path fill="#399CF7" transform="matrix(0.195313 0 0 0.195313 0 3.05176e-05)" d="M257.675 384.533C264.269 384.519 270.951 384.295 277.535 384.533C277.376 386.562 277.316 388.511 277.535 390.539C275.491 390.78 273.195 390.582 271.123 390.578L257.675 390.539C257.7 388.537 257.69 386.535 257.675 384.533Z"/>
	<path fill="#9CAEC2" transform="matrix(0.195313 0 0 0.195313 0 3.05176e-05)" d="M249.843 112.467L323.058 112.48C327.061 112.478 336.161 110.95 337.815 115.914C338.906 119.189 336.884 122.426 333.671 123.285L276.952 123.275C271.911 123.275 252.112 124.412 248.566 122.92C243.21 120.665 245.091 114.013 249.843 112.467Z"/>
	<path fill="#C7D5E2" transform="matrix(0.195313 0 0 0.195313 0 3.05176e-05)" d="M251.006 135.982C255.447 135.672 259.96 135.935 264.411 135.967L314.322 135.979C318.711 135.947 331.622 134.582 335.314 136.686C340.804 139.815 337.321 146.113 332.312 147.032C327.805 147.303 323.113 147.04 318.589 147.04L264.149 147.035C259.355 147.035 245.281 149.273 244.806 141.839C244.575 138.225 247.81 136.111 251.006 135.982Z"/>
	<path fill="#FDBB34" transform="matrix(0.195313 0 0 0.195313 0 3.05176e-05)" d="M196.039 385.952C195.853 383.885 196.024 381.652 196.025 379.568L196.035 348.786C196.034 344.835 195.081 338.13 197.035 334.517C198.991 333.01 210.235 333.132 212.97 333.574C218.233 334.425 216.107 349.38 216.106 353.884L216.092 384.533C216.072 386.535 216.04 388.537 216.092 390.539L196.039 390.539C196.092 389.012 196.052 387.48 196.039 385.952Z"/>
	<path fill="#F9971B" transform="matrix(0.195313 0 0 0.195313 0 3.05176e-05)" d="M196.039 385.952C197.383 383.386 212.937 384.567 216.092 384.533C216.072 386.535 216.04 388.537 216.092 390.539L196.039 390.539C196.092 389.012 196.052 387.48 196.039 385.952Z"/>
	<path fill="#1BBD7D" transform="matrix(0.195313 0 0 0.195313 0 3.05176e-05)" d="M312.286 384.533L312.278 352.96C312.279 349.637 311.3 332.425 313.466 330.171C314.583 329.009 330.461 325.363 330.914 333.591C331.266 339.962 330.928 346.529 330.926 352.922L330.925 386.935L330.925 390.539C324.762 390.263 318.464 390.504 312.286 390.539L312.286 384.533Z"/>
	<path fill="#15A383" transform="matrix(0.195313 0 0 0.195313 0 3.05176e-05)" d="M312.286 384.533C315.69 384.021 327.059 384.324 330.925 384.533C330.848 385.335 330.671 386.163 330.925 386.935L330.925 390.539C324.762 390.263 318.464 390.504 312.286 390.539L312.286 384.533Z"/>
	<path fill="#9CAEC2" transform="matrix(0.195313 0 0 0.195313 0 3.05176e-05)" d="M229.488 188.024L318.382 188.017C321.832 188.016 332.84 187.097 335.584 189.01C340.333 192.321 337.948 198.78 330.925 199.493C309.72 199.835 288.451 199.487 267.24 199.487L242.499 199.507C238.988 199.511 227.64 200.649 224.918 198.406C219.419 193.877 223.616 188.506 229.488 188.024Z"/>
	<path fill="#FB796F" transform="matrix(0.195313 0 0 0.195313 0 3.05176e-05)" d="M284.661 384.533L284.658 337.952C284.658 333.434 283.283 313.889 285.685 311.003C286.902 309.542 303.533 307.713 303.825 313.537C304.223 321.494 303.863 329.623 303.86 337.602L303.855 384.533L284.661 384.533Z"/>
	<path fill="#4470A7" transform="matrix(0.195313 0 0 0.195313 0 3.05176e-05)" d="M223.763 390.539L223.763 342.461C223.763 338.866 222.692 317.361 224.493 315.475C226.766 313.094 240.478 313.233 242.598 315.522C244.149 317.196 243.299 322.666 243.292 324.779L243.28 384.533C243.271 386.535 243.255 388.537 243.28 390.539C240.786 390.618 225.243 390.923 223.763 390.539Z"/>
	<path fill="#7CDDFB" transform="matrix(0.195313 0 0 0.195313 0 3.05176e-05)" d="M181.598 111.45C212.321 90.6286 240.019 135.171 211.837 153.133C203.087 158.709 189.669 158.625 181.598 151.584L182.4 150.784C194.737 138.316 193.946 123.546 181.598 111.45Z"/>
	<path fill="#4ABAFC" transform="matrix(0.195313 0 0 0.195313 0 3.05176e-05)" d="M181.598 151.584C165.428 162.141 143.666 157.101 139.426 137.004C134.44 113.364 160.5 97.3902 181.598 111.45C193.946 123.546 194.737 138.316 182.4 150.784L181.598 151.584Z"/>
	<path fill="#C7D5E2" transform="matrix(0.195313 0 0 0.195313 0 3.05176e-05)" d="M158.186 381.72C158.325 384.641 158.343 387.618 158.186 390.539C160.422 390.563 165.6 391.069 167.499 390.539L167.499 390.539C174.111 390.561 180.914 390.15 187.499 390.539C190.304 390.697 193.239 390.819 196.039 390.539L216.092 390.539C218.627 390.497 221.238 390.32 223.763 390.539C225.243 390.923 240.786 390.618 243.28 390.539C243.255 388.537 243.271 386.535 243.28 384.533C243.65 386.492 243.431 388.561 243.28 390.539C248.039 390.56 252.935 390.826 257.675 390.539L271.123 390.578C273.195 390.582 275.491 390.78 277.535 390.539L277.535 390.539C279.804 391.024 282.367 390.708 284.661 390.539C284.708 388.534 284.702 386.538 284.661 384.533L303.855 384.533C303.835 386.533 303.785 388.54 303.855 390.539C306.557 390.781 309.605 391.054 312.286 390.539C318.464 390.504 324.762 390.263 330.925 390.539C336.095 390.868 341.364 390.356 346.555 390.539C349.808 393.81 349.267 396.43 346.555 399.97L139.375 399.97C136.168 399.987 132.065 400.878 129.836 397.881C127.872 395.24 128.92 392.323 131.396 390.539C134.222 390.207 136.905 390.316 139.738 390.539L139.738 383.978L158.186 383.978L158.186 381.72Z"/>
	<path fill="#E95C5A" transform="matrix(0.195313 0 0 0.195313 0 3.05176e-05)" d="M284.661 384.533L303.855 384.533C303.835 386.533 303.785 388.54 303.855 390.539C297.559 390.889 290.977 390.646 284.661 390.539C284.708 388.534 284.702 386.538 284.661 384.533Z"/>
	<path fill="#399CF7" transform="matrix(0.195313 0 0 0.195313 0 3.05176e-05)" d="M139.738 383.978L158.186 383.978C158.123 386.174 158.1 388.344 158.186 390.539L139.738 390.539L139.738 383.978Z"/>
	<path fill="#C7D5E2" transform="matrix(0.195313 0 0 0.195313 0 3.05176e-05)" d="M155.352 182.269C160.163 180.445 173.028 187.138 177.54 189.974C209.793 210.246 221.995 252.126 206.076 286.743C190.062 321.568 147.711 339.909 111.487 326.391L111.214 325.994C110.931 322.762 110.001 318.282 111.214 315.184C154.362 328.369 198.183 300.67 200.546 254.554C200.738 251.004 200.639 247.293 200.546 243.738C197.477 214.394 181.569 193.968 155.352 182.269Z"/>
	<path fill="#FB796F" transform="matrix(0.195313 0 0 0.195313 0 3.05176e-05)" d="M138.013 178.003C143.751 179.024 149.916 180.115 155.352 182.269C181.569 193.968 197.477 214.394 200.546 243.738L199.137 243.738C192.635 244.144 185.844 243.75 179.318 243.749L138.013 243.738L138.013 182.269L138.013 178.003Z"/>
	<path fill="#E95C5A" transform="matrix(0.195313 0 0 0.195313 0 3.05176e-05)" d="M138.013 178.003C143.751 179.024 149.916 180.115 155.352 182.269C181.569 193.968 197.477 214.394 200.546 243.738L199.137 243.738C196.247 243.218 190.678 243.723 187.499 243.738L187.475 243.372C185.762 218.719 175.36 198.174 151.644 187.36C148.615 185.978 139.84 184.16 138.013 182.269L138.013 178.003Z"/>
	<path fill="#FB796F" transform="matrix(0.195313 0 0 0.195313 0 3.05176e-05)" d="M112.042 181.037C116.93 179.666 121.804 178.616 126.846 178.003L126.853 221.605C126.854 228.97 127.024 236.377 126.846 243.738C126.477 247.768 120.226 251.912 117.491 254.603C107.403 264.528 92.3228 277.016 83.5176 287.44C81.8195 288.506 80.1312 290.56 78.6807 291.982C68.6238 277.757 62.5938 261.473 64.0009 243.738C66.371 215.888 84.2676 188.793 112.042 181.037Z"/>
	<path fill="#FDBB34" transform="matrix(0.195313 0 0 0.195313 0 3.05176e-05)" d="M64.0009 243.738C83.7125 242.733 106.987 243.524 126.846 243.738C126.477 247.768 120.226 251.912 117.491 254.603C107.403 264.528 92.3228 277.016 83.5176 287.44C81.8195 288.506 80.1312 290.56 78.6807 291.982C68.6238 277.757 62.5938 261.473 64.0009 243.738Z"/>
	<path fill="#1BBD7D" transform="matrix(0.195313 0 0 0.195313 0 3.05176e-05)" d="M133.572 254.554C141.922 254.345 150.486 254.3 158.838 254.554L200.546 254.554C198.183 300.67 154.362 328.369 111.214 315.184C101.664 312.473 93.5159 306.425 86.1114 300.072C87.4705 298.72 88.8526 297.395 90.2427 296.074C97.4168 290.504 105.973 280.218 113.145 273.667C118.672 268.053 127.454 259.611 133.572 254.554Z"/>
	<path fill="#5BD99E" transform="matrix(0.195313 0 0 0.195313 0 3.05176e-05)" d="M133.572 254.554C141.922 254.345 150.486 254.3 158.838 254.554C157.676 254.564 156.514 254.581 155.352 254.554C152.426 274.871 135.472 286.341 116.55 275.538C115.467 274.919 114.309 274.109 113.145 273.667C118.672 268.053 127.454 259.611 133.572 254.554Z"/>
</svg>
