<?xml version="1.0" encoding="utf-8" ?>
<svg xmlns="http://www.w3.org/2000/svg" xmlns:xlink="http://www.w3.org/1999/xlink" width="100" height="100">
	<path fill="#4365A1" transform="scale(0.195312 0.195312)" d="M294.658 393.003L329.178 393.022C334.233 393.02 349.776 390.234 346.648 400.01C344.435 406.928 302.072 403.461 293.386 403.46L177.572 403.467C171.482 403.481 165.544 405.725 163.632 398.146C164.345 395.554 165.239 394.447 167.47 393.003C172.532 393.435 177.855 393.016 182.955 393.011L215.629 393.003L294.658 393.003Z"/>
	<defs>
		<linearGradient id="gradient_0" gradientUnits="userSpaceOnUse" x1="295.4129" y1="369.50958" x2="214.82797" y2="385.19351">
			<stop offset="0" stop-color="#6485BD"/>
			<stop offset="1" stop-color="#BCC9E4"/>
		</linearGradient>
	</defs>
	<path fill="url(#gradient_0)" transform="scale(0.195312 0.195312)" d="M215.629 361.831L289.921 361.867C292.772 361.849 295.697 361.514 298.534 361.831C297.238 361.863 295.954 361.878 294.658 361.831C294.645 372.215 294.505 382.622 294.658 393.003L215.629 393.003L215.629 361.831Z"/>
	<defs>
		<linearGradient id="gradient_1" gradientUnits="userSpaceOnUse" x1="374.24829" y1="410.10611" x2="137.0041" y2="56.652531">
			<stop offset="0" stop-color="#36558F"/>
			<stop offset="1" stop-color="#5A80B1"/>
		</linearGradient>
	</defs>
	<path fill="url(#gradient_1)" transform="scale(0.195312 0.195312)" d="M215.629 361.831L82.6162 361.844C67.3991 361.847 52.6854 363.463 52.3344 343.14C52.0539 326.902 52.3543 310.603 52.3555 294.358L52.3305 130.629C52.2744 115.798 55.1403 104.575 72.4055 104.46L429.704 104.493C449.29 104.451 459.272 103.794 459.272 129.283L459.306 341.501C459.408 363.642 444.885 361.838 427.482 361.839L298.534 361.831C295.697 361.514 292.772 361.849 289.921 361.867L215.629 361.831ZM67.4623 116.246C62.418 120.164 63.7404 126.927 63.7383 132.664L63.7363 301.181C63.7299 310.304 62.0503 325.813 74.9802 326.842C78.067 327.087 81.2835 326.78 84.3864 326.754L418.325 326.747C422.747 326.748 438.96 327.648 442 326.102L442 326.102C444.249 324.93 446.559 322.779 447.412 320.348C448.696 316.691 448.068 287.98 448.067 282.123L448.06 136.451C448.057 130.892 447.638 125.119 448.065 119.594C444.054 114.295 435.243 116.244 428.581 116.244L67.4623 116.246Z"/>
	<path fill="#5BC4EF" transform="scale(0.195312 0.195312)" d="M393.861 339.772C400.509 339.115 403.009 346.692 396.814 349.601C389.653 350.381 388.616 343.14 393.861 339.772Z"/>
	<path fill="#C47F18" transform="scale(0.195312 0.195312)" d="M412.001 339.772C419.269 338.838 421.058 346.166 415.298 349.601C408.413 351.562 406.7 343.006 412.001 339.772Z"/>
	<path fill="#37B563" transform="scale(0.195312 0.195312)" d="M430.297 339.772C437.687 338.812 439.857 346.585 433.476 349.601C426.896 350.547 424.337 341.442 430.297 339.772Z"/>
	<path fill="#FCFDFD" transform="scale(0.195312 0.195312)" d="M67.4623 116.246L428.581 116.244C435.243 116.244 444.054 114.295 448.065 119.594C447.638 125.119 448.057 130.892 448.06 136.451L448.067 282.123C448.068 287.98 448.696 316.691 447.412 320.348C446.559 322.779 444.249 324.93 442 326.102L442 326.102C438.96 327.648 422.747 326.748 418.325 326.747L84.3864 326.754C81.2835 326.78 78.067 327.087 74.9802 326.842C62.0503 325.813 63.7299 310.304 63.7363 301.181L63.7383 132.664C63.7404 126.927 62.418 120.164 67.4623 116.246ZM67.4623 116.246C62.418 120.164 63.7404 126.927 63.7383 132.664L63.7363 301.181C63.7299 310.304 62.0503 325.813 74.9802 326.842C78.067 327.087 81.2835 326.78 84.3864 326.754L418.325 326.747C422.747 326.748 438.96 327.648 442 326.102C441.997 326.101 428.185 326.752 426.24 326.752L101.212 326.756C93.4982 326.756 73.3365 329.041 68.0625 323.078C68.7617 321.298 66.6686 321.197 65.8201 319.925C63.8754 317.009 63.8121 311.499 64.3211 308.163L64.5342 308.162C64.502 308.935 64.46 309.679 64.5687 310.449C66.9399 308.581 66.3885 291.476 66.3873 288.114L66.8751 199.231C66.9173 192.538 65.6296 180.748 67.2489 174.696C67.7696 172.75 70.1401 172.422 71.0116 170.8C72.1297 168.719 77.5531 171.39 79.0856 171.792C82.7458 172.751 86.1279 171.037 89.4189 173.778L89.6509 173.976C90.4495 173.8 89.868 173.042 90.398 172.547C90.8445 174.099 90.9599 175.768 91.1564 177.369C88.449 175.402 85.6418 181.348 99.6246 179.002L99.2797 178.75C99.8132 177.901 99.2832 168.687 99.2797 166.962L105.915 166.962C109.123 170.171 111.971 174.452 113.437 178.75L113.41 178.784L113.462 178.971C125.296 178.284 137.248 178.761 149.109 178.75C149.403 175.709 148.834 175.496 152.21 175.43C154.815 175.38 166.644 184.275 175.131 176.339C176.288 175.257 177.394 173.255 178.8 172.577C182.33 170.873 184.483 178.094 188.77 176.64C192.214 178.28 194.682 178.646 198.429 178.75C197.937 179.223 197.148 179.063 196.528 179.017L196.248 178.995L196.052 179.168C203.543 180.853 208.737 174.321 211.415 173.839C214.17 173.342 214.606 165.655 214.822 165.292C219.625 161.532 218.514 171.121 218.732 173.221L218.772 172.874C219.083 174.808 219.173 176.796 219.326 178.75L233.84 178.785C236.75 178.798 239.791 178.996 242.682 178.651L242.894 178.347C242.9 178.093 243.597 170.623 243.146 175.026C242.001 172.866 245.102 171.326 245.488 174.02C246.46 180.795 250.342 178.777 256.769 178.75C257.34 174.61 256.42 170.31 257.107 166.442L257.601 167.206L257.794 167.159C258.203 161.104 259.566 159.806 259.902 157.225L259.764 157.063L259.893 156.763L259.695 156.648L259.203 157.541L258.945 157.355L259.138 156.863C259.119 156.78 259.1 156.698 259.082 156.615L259.001 156.208C258.545 154.016 259.732 151.17 262.468 151.965C263.789 152.349 263.42 153.938 264.703 154.33C265.658 153.5 265.487 151.508 266.505 150.953C268.766 152.458 268.758 154.72 268.671 157.199L269.442 157.277C270.314 158.613 270.973 159.664 268.906 159.499C269.316 160.169 273.38 164.019 270.151 162.023L269.807 162.316L269.829 162.787L270.735 163.216L270.583 163.576L270.831 163.952C271.487 164.083 271.534 164.034 272.15 163.754L271.814 163.683L271.843 163.358L272.27 163.229C272.817 163.746 273.851 164.108 274.575 164.271L274.923 164.028L274.781 163.589C274.397 163.343 274.081 163.271 273.642 163.231L273.382 162.765L273.474 163.089C269.943 159.487 275.295 164.428 277.795 163.381C280.315 164.071 295.147 168.92 285.938 172.063C280.692 173.853 275.495 171.081 270.903 168.803C269.997 169.957 269.086 171.1 268.14 172.221C271.813 178.54 283.84 181.074 289.893 177.253C291.409 176.297 292.368 174.531 293.781 173.671L294.233 173.461C300.468 159.927 287.77 157.149 287.931 156.08C286.424 154.961 285.55 155.793 284.299 155.365C283.359 155.043 278.38 152.008 278.297 151.815C278.834 151.112 279.697 151.894 280.576 151.575C281.471 149.044 283.495 150.812 284.755 151.367C287.84 152.725 286.9 148.817 290.64 154.441L291.019 154.426C292.656 150.077 296.598 154.232 299.091 155.796L298.922 155.632C301.434 156.886 304.363 156.137 307.036 155.743L306.999 155.535C306.414 155.306 305.859 155.096 305.234 155.014L305.293 154.807C306.542 154.906 309.423 156.764 308.993 154.47L309.118 154.816C309.468 154.671 309.802 155.287 310.132 155.386C311.915 155.921 311.637 155.881 313.365 156.498L313.137 156.986C315.258 158.466 311.668 156.825 313.832 158.349L314.216 158.616C313.291 159.506 312.602 158.331 311.57 158.561C311.919 159.148 312.35 158.827 312.684 159.448L311.805 159.549C312.183 160.084 312.704 160.469 313.203 160.885C312.491 161.096 309.497 159.389 308.435 159.407L308.293 160.011L308.571 160.45C313.977 161.986 334.455 169.474 338.943 168.798C338.034 167.753 335.329 167.745 333.913 167.393L333.87 167.088L334.426 167.343C335.718 167.24 337.093 167.701 338.347 167.993L338.373 167.766C337.696 167.476 336.998 167.262 336.512 166.682L336.739 166.536L337.778 167.19L338.008 167.129L338.196 166.431L337.377 165.495L337.542 165.336C337.971 165.665 338.386 165.946 338.858 166.209L339.009 165.89C339.935 165.394 339.687 165.241 338.786 165.461C340.232 163.615 341.35 164.034 341.843 166.074C343.058 163.566 342.963 165.187 342.325 166.58C341.579 166.745 340.806 167.059 341.795 167.75C342.744 167.946 343.934 167.154 344.913 166.962C344.243 164.512 343.929 162.131 343.809 159.596L359.214 159.596C360.371 171.062 366.436 178.557 378.188 179.52L378.188 193.827C381.968 193.789 385.731 193.144 389.388 192.223L389.191 192.995C393.225 199.653 428.566 190.687 439.014 202.874C442.547 206.995 441.484 208.306 441.696 213.011C442.133 222.705 440.969 235.781 441.926 244.676C442.052 238.173 440.937 214.652 442.153 209.58L442.43 209.429C445.846 212.886 445.201 221.806 445.388 226.245C445.798 235.97 445.576 305.586 446.01 306.136L446.434 305.983L446.013 306.371L446.262 306.446C446.408 306.012 446.571 305.592 446.763 305.176L447.168 305.094L447.282 306.011L447.572 305.606C450.593 311.819 447.639 321.049 442.13 325.692L442 326.102C444.249 324.93 446.559 322.779 447.412 320.348C448.696 316.691 448.068 287.98 448.067 282.123L448.06 136.451C448.057 130.892 447.638 125.119 448.065 119.594C444.054 114.295 435.243 116.244 428.581 116.244L67.4623 116.246Z"/>
	<path fill="#C7E1ED" transform="scale(0.195312 0.195312)" d="M384.188 263.891C398.838 262.648 415.066 264.866 430.297 263.891L430.297 274.252C418.783 274.261 407.23 274.469 395.72 274.252L395.72 263.891C391.878 263.911 388.03 263.968 384.188 263.891Z"/>
	<path fill="#C7E1ED" transform="scale(0.195312 0.195312)" d="M383.127 214.232C387.437 213.606 392.428 214.255 396.813 214.255L430.297 214.232C430.186 217.817 430.263 221.411 430.297 224.997L393.776 225.006C391.165 225.009 384.015 225.473 382.065 224.997L382.797 224.766C383.706 222.952 383.148 216.597 383.127 214.232Z"/>
	<path fill="#DD6158" transform="scale(0.195312 0.195312)" d="M370.339 288.287C370.393 293.778 372.581 298.753 367.416 299.06C364.905 298.689 361.798 299.038 359.228 299.041L333.231 299.073C329.017 299.076 314.405 300.995 313.806 295.851C313.602 294.097 313.321 290.666 314.527 289.285C316.14 287.437 365.359 288.408 370.339 288.287Z"/>
	<path fill="#3AA3E7" transform="scale(0.195312 0.195312)" d="M359.214 238.764C362.913 238.925 366.637 238.751 370.339 238.764L370.339 249.646C368.7 249.628 367.009 249.527 365.377 249.646C350.336 249.423 332.538 250.698 317.87 249.521C310.98 248.969 313.118 239.559 315.857 239.148C327.137 237.455 347.176 238.901 359.214 238.764Z"/>
	<path fill="#C7E1ED" transform="scale(0.195312 0.195312)" d="M245.04 214.232L279.098 214.228C283.704 214.229 294.684 213.697 298.564 214.727C301.601 215.533 301.658 223.548 298.534 224.997C286.659 224.736 255.456 226.806 245.451 224.777C242.367 224.152 242.293 215.865 245.04 214.232Z"/>
	<path fill="#C7E1ED" transform="scale(0.195312 0.195312)" d="M262.372 288.287L284.45 288.284C287.784 288.271 300.157 286.467 300.709 291.322C302.087 303.439 291.665 299.077 280.688 299.06C276.597 299.103 245.553 299.554 244.355 298.668C242.6 297.371 242.917 290.506 244.007 289.307C245.358 287.821 259.631 288.279 262.372 288.287Z"/>
	<path fill="#C7E1ED" transform="scale(0.195312 0.195312)" d="M250.161 238.764L280.664 238.748C285.687 238.737 300.563 236.218 300.93 242.513C301.269 248.336 300.292 249.532 294.658 249.646L263.561 249.657C261.089 249.659 245.619 250.476 244.239 248.9C242.865 247.33 243.461 241.888 243.485 239.801C245.662 238.963 247.859 238.9 250.161 238.764Z"/>
	<path fill="#C7E1ED" transform="scale(0.195312 0.195312)" d="M246.35 263.891C248.252 263.699 250.324 263.874 252.241 263.877L263.981 263.886C271.257 263.889 296.417 261.646 300.756 266.171C300.672 269.568 301.556 273.925 297.377 274.837C291.014 274.836 247.373 275.408 244.464 274.347C242.568 272.497 241.678 264.738 246.35 263.891Z"/>
	<path fill="#5BC4EF" transform="scale(0.195312 0.195312)" d="M343.809 159.596L359.214 159.596C360.371 171.062 366.436 178.557 378.188 179.52L378.188 193.827C362.495 194.297 348.03 182.098 344.913 166.962C344.243 164.512 343.929 162.131 343.809 159.596Z"/>
	<path fill="#C7E1ED" transform="scale(0.195312 0.195312)" d="M359.214 238.764C361.959 238.526 364.786 238.695 367.543 238.714L430.297 238.764C430.284 242.35 430.053 246.076 430.297 249.646L384.877 249.654C378.591 249.665 371.571 250.472 365.377 249.646C367.009 249.527 368.7 249.628 370.339 249.646L370.339 238.764C366.637 238.751 362.913 238.925 359.214 238.764Z"/>
	<path fill="#C7E1ED" transform="scale(0.195312 0.195312)" d="M370.339 288.287C375.467 287.734 382.705 288.297 388.13 288.29L430.297 288.287L430.297 299.06L373.185 299.086C371.329 299.095 369.246 299.328 367.416 299.06C372.581 298.753 370.393 293.778 370.339 288.287Z"/>
	<path fill="#3AA3E7" transform="scale(0.195312 0.195312)" d="M382.065 224.997C378.316 224.528 373.931 224.979 370.124 224.994L335.197 224.995C329.168 224.99 307.048 228.234 314.438 215.178C316.791 213.393 322.006 214.224 324.777 214.223L383.127 214.232C383.148 216.597 383.706 222.952 382.797 224.766L382.065 224.997Z"/>
	<path fill="#3AA3E7" transform="scale(0.195312 0.195312)" d="M384.188 263.891C388.03 263.968 391.878 263.911 395.72 263.891L395.72 274.252C376.166 273.86 356.531 274.272 336.966 274.246L324.163 274.289C322.164 274.308 316.16 275.162 314.624 273.63C313.11 272.12 313.012 266.058 314.508 264.828C316.88 262.878 337.905 263.881 341.892 263.885L384.188 263.891Z"/>
	<path fill="#5BC4EF" transform="scale(0.195312 0.195312)" d="M92.9943 202.405L203.641 202.4C212.12 202.377 225.45 200.291 226.016 212.574C226.298 218.72 226.035 224.991 226.023 231.146L226.029 287.694C226.029 301.722 227.052 308.375 210.812 308.518L102.086 308.527C88.8584 308.523 76.8599 311.149 76.3343 293.325C76.1387 286.692 76.2551 280.03 76.2521 273.393L76.2544 221.483C76.2622 207.461 77.7163 202.366 92.9943 202.405Z"/>
	<path fill="#C7E1ED" transform="scale(0.195312 0.195312)" d="M90.145 210.202L199.498 210.19C204.301 210.174 209.209 209.927 213.995 210.196C219.918 210.528 218.022 222.246 218.018 226.819L218 246.352C217.986 261.845 218.373 277.417 218.016 292.901C217.908 297.556 216.267 298.734 213.131 301.724C210.324 302.416 195.6 301.716 191.896 301.717L107.898 301.735C97.9778 301.738 85.0174 305.33 84.9491 292.128L84.9395 223.772C84.9322 217.188 82.578 210.127 90.145 210.202Z"/>
	<path fill="#F6D64B" transform="scale(0.195312 0.195312)" d="M132.705 238.764C132.813 239.852 133.011 240.847 133.3 241.901C131.472 243.753 127.651 245.753 125.016 245.948C124.503 244.75 123.959 243.601 123.348 242.449C126.276 241.394 130.131 240.421 132.705 238.764Z"/>
	<path fill="#F6D64B" transform="scale(0.195312 0.195312)" d="M147.487 238.764C148.987 240.921 155.562 243.99 157.993 245.948C157.19 246.717 156.593 247.905 155.989 248.843C152.42 247.078 148.968 244.251 145.746 241.901C146.487 240.96 146.961 239.834 147.487 238.764Z"/>
	<path fill="#F6D64B" transform="scale(0.195312 0.195312)" d="M193.337 227.465C193.971 228.889 194.649 230.282 195.351 231.673C190.705 234.653 172.105 246.609 169.544 249.646L169.108 248.649C168.651 247.581 168.26 246.812 167.47 245.948C172.21 239.104 187.611 233.218 193.337 227.465Z"/>
	<path fill="#F2B741" transform="scale(0.195312 0.195312)" d="M157.993 245.948C161.817 244.012 163.974 243.209 167.47 245.948C168.26 246.812 168.651 247.581 169.108 248.649L169.544 249.646C166.032 263.543 155.814 258.407 155.989 248.843C156.593 247.905 157.19 246.717 157.993 245.948Z"/>
	<path fill="#F2B741" transform="scale(0.195312 0.195312)" d="M110.027 244.35C114.921 239.4 117.334 238.192 123.348 242.449C123.959 243.601 124.503 244.75 125.016 245.948C121.835 255.31 116.46 254.391 110.027 248.046C109.941 246.812 109.994 245.585 110.027 244.35Z"/>
	<path fill="#F2B741" transform="scale(0.195312 0.195312)" d="M193.337 227.465C199.069 208.316 218.48 230.754 200.416 234.059C198.585 233.489 196.939 232.762 195.351 231.673C194.649 230.282 193.971 228.889 193.337 227.465Z"/>
	<path fill="#F2B741" transform="scale(0.195312 0.195312)" d="M132.705 238.764C135.189 227.15 145.68 228.56 147.487 238.764C146.961 239.834 146.487 240.96 145.746 241.901C141.387 246.151 138.159 244.861 133.3 241.901C133.011 240.847 132.813 239.852 132.705 238.764Z"/>
	<path fill="#F6D64B" transform="scale(0.195312 0.195312)" d="M105.02 248.046C89.8763 256.507 88.4811 240.244 96.0481 237.817C101.22 236.158 103.821 239.966 105.02 244.35C106.721 244.235 108.329 244.178 110.027 244.35C109.994 245.585 109.941 246.812 110.027 248.046C108.33 247.901 106.72 247.931 105.02 248.046Z"/>
	<path fill="#5BC4EF" transform="scale(0.195312 0.195312)" d="M113.437 278.259L125.949 278.259C126.172 280.248 125.999 282.354 125.983 284.358L125.949 294.733L113.437 294.733L113.437 278.259Z"/>
	<path fill="#DD6158" transform="scale(0.195312 0.195312)" d="M155.512 276.911C159.744 277.01 164 276.915 168.235 276.911L168.235 294.733L155.512 294.733L155.512 276.911Z"/>
	<path fill="#DD6158" transform="scale(0.195312 0.195312)" d="M134.464 265.252L147.487 265.252L147.487 294.733L134.464 294.733C134.051 284.974 134.456 275.029 134.464 265.252Z"/>
	<path fill="#5BC4EF" transform="scale(0.195312 0.195312)" d="M92.0147 265.252L105.915 265.252L105.915 294.733L92.0147 294.733L92.0147 265.252Z"/>
	<path fill="#F6D64B" transform="scale(0.195312 0.195312)" d="M175.756 253.519C179.854 253.601 183.968 253.523 188.068 253.519L188.068 294.733L175.756 294.733L175.756 253.519Z"/>
	<path fill="#37B563" transform="scale(0.195312 0.195312)" d="M209.941 257.501L209.979 257.503C210.122 257.806 209.937 291.519 209.941 294.733L196.4 294.733C196.094 294.406 196.412 283.853 196.412 282.446L196.4 257.501L209.941 257.501Z"/>
	<path fill="#4365A1" transform="scale(0.195312 0.195312)" d="M219.326 144.012L226.023 144.012L226.034 162.376C226.05 165.647 226.269 168.96 226.023 172.221L242.747 172.221C242.738 174.399 242.862 176.573 242.747 178.75C236.538 178.754 224.968 177.967 219.326 178.75L219.326 144.012Z"/>
	<path fill="#4365A1" transform="scale(0.195312 0.195312)" d="M239.74 144.012C248.74 144.019 257.751 143.877 266.749 144.012L266.749 150.249L256.769 150.249L256.769 168.803L256.769 178.75C254.512 178.506 252.419 178.526 250.161 178.75L250.161 150.249L239.74 150.249C239.71 148.172 239.738 146.09 239.74 144.012Z"/>
	<path fill="#4365A1" transform="scale(0.195312 0.195312)" d="M163.632 144.012C168.261 143.159 173.259 144.3 176.842 147.45C176.077 149.125 175.333 150.769 174.345 152.327C171.446 151.001 158.617 147.2 159.303 153.696C159.744 157.859 171.833 158.619 175.554 161.851C182.435 167.827 177.086 178.578 165.852 178.75C160.715 178.78 156.772 177.676 152.463 174.852C153.283 172.989 154.365 171.341 155.512 169.667C159.263 171.965 167.196 174.908 170.858 170.904C176 165.285 160.18 163.412 157.224 161.468C149.318 156.27 153.081 145.528 163.632 144.012Z"/>
	<path fill="#4365A1" transform="scale(0.195312 0.195312)" d="M277.795 163.381C257.755 154.977 278.298 134.884 293.781 147.45C292.871 149.063 292.018 150.802 290.974 152.327C280.371 145.746 271.035 153.028 279.867 156.845C287.806 160.277 298.989 161.349 293.781 173.671C292.368 174.531 291.409 176.297 289.893 177.253C283.84 181.074 271.813 178.54 268.14 172.221C269.086 171.1 269.997 169.957 270.903 168.803C275.495 171.081 280.692 173.853 285.938 172.063C295.147 168.92 280.315 164.071 277.795 163.381Z"/>
	<path fill="#4365A1" transform="scale(0.195312 0.195312)" d="M183.178 144.012C185.395 143.726 187.538 143.803 189.76 144.012L189.736 158.134C189.734 161.515 188.903 167.607 191.568 170.279C195.469 174.19 204.251 173.278 205.424 167.219C205.948 164.512 205.666 161.395 205.654 158.642L205.613 144.012C207.807 143.993 210.029 143.899 212.22 144.012C212.246 157.084 216.938 178.406 198.429 178.75C194.682 178.646 192.214 178.28 188.77 176.64C180.301 169.398 183.201 154.442 183.178 144.012Z"/>
	<path fill="#4365A1" transform="scale(0.195312 0.195312)" d="M144.186 144.012C145.836 143.889 147.459 143.951 149.109 144.012C149.037 146.092 149.078 148.169 149.109 150.249C143.642 150.172 138.172 150.232 132.705 150.249L132.705 158.489C137.609 158.524 142.599 158.177 147.487 158.489C147.324 160.431 147.366 162.291 147.487 164.235L132.705 164.235C132.522 166.922 132.56 169.535 132.705 172.221L142.625 172.221L149.109 172.221L149.109 178.75C141.413 178.759 133.631 178.444 125.949 178.75C125.642 167.215 125.856 155.555 125.949 144.012L144.186 144.012Z"/>
	<path fill="#F2B741" transform="scale(0.195312 0.195312)" d="M378.781 124.208C397.407 124.301 414.562 139.333 414.54 158.489C409.337 158.488 404.133 158.571 398.93 158.489C397.067 147.265 389.809 140.295 378.188 139.88L378.713 139.657C379.245 138.07 378.788 126.819 378.781 124.208Z"/>
	<path fill="#37B563" transform="scale(0.195312 0.195312)" d="M398.93 158.489C404.133 158.571 409.337 158.488 414.54 158.489C414.437 174.109 404.606 188.054 389.388 192.223C385.731 193.144 381.968 193.789 378.188 193.827L378.188 179.52C390.466 179.022 397.932 170.361 398.93 158.489Z"/>
	<path fill="#DD6158" transform="scale(0.195312 0.195312)" d="M343.809 159.596C343.479 139.126 359.092 125.625 378.781 124.208C378.788 126.819 379.245 138.07 378.713 139.657L378.188 139.88C367.637 141.249 359.664 148.788 359.214 159.596L343.809 159.596Z"/>
	<path fill="#4365A1" transform="scale(0.195312 0.195312)" d="M92.9943 144.012C98.7889 144.479 105.034 143.206 110.727 144.505C121.113 146.876 123.534 159.418 113.437 165.329C115.487 170.045 118.787 174.057 120.896 178.75C118.358 178.554 115.981 178.553 113.437 178.75C111.971 174.452 109.123 170.171 105.915 166.962L99.2797 166.962C99.2832 168.687 99.8132 177.901 99.2797 178.75C97.1775 178.523 95.0997 178.653 92.9943 178.75L92.9943 144.012Z"/>
	<path fill="#FCFDFD" transform="scale(0.195312 0.195312)" d="M99.2797 150.249C103.518 150.281 120.024 150.019 111.555 159.596C108.026 161.325 103.125 161.027 99.2797 160.995L99.2797 150.249Z"/>
	<path fill="#FCFDFD" transform="scale(0.195312 0.195312)" d="M378.188 139.88C389.809 140.295 397.067 147.265 398.93 158.489C397.932 170.361 390.466 179.022 378.188 179.52C366.436 178.557 360.371 171.062 359.214 159.596C359.664 148.788 367.637 141.249 378.188 139.88Z"/>
</svg>
