<?xml version="1.0" encoding="utf-8" ?>
<svg xmlns="http://www.w3.org/2000/svg" xmlns:xlink="http://www.w3.org/1999/xlink" width="100" height="100">
	<path fill="#F15882" transform="scale(0.195312 0.195312)" d="M114.042 156.948C121.147 157.694 120.04 165.607 114.042 167.102C107.291 165.999 107.772 158.103 114.042 156.948Z"/>
	<path fill="#5E92CA" transform="scale(0.195312 0.195312)" d="M75.7493 412.77L90.7084 412.77C90.6603 419.899 90.9904 428.006 96.9353 432.93C100.209 437.494 105.889 439.821 110.738 442.249C109.179 442.231 107.471 442.072 105.929 442.249C96.2624 441.237 89.9916 442.559 82.1702 434.555C75.9223 428.161 75.6938 421.235 75.7493 412.77Z"/>
	<path fill="#93C1E4" transform="scale(0.195312 0.195312)" d="M390.777 411.275L396.178 411.275C396.09 428.23 387.048 442.135 368.936 442.249L115.022 442.245C112.003 442.246 108.941 442.402 105.929 442.249C107.471 442.072 109.179 442.231 110.738 442.249C105.889 439.821 100.209 437.494 96.9353 432.93L361.753 432.942C367.434 432.941 373.797 433.539 379.251 431.61C386.641 426.518 390.622 420.649 390.777 411.275Z"/>
	<path fill="#DFE6F1" transform="scale(0.195312 0.195312)" d="M371.872 411.275C373.513 411.716 387.877 411.274 390.777 411.275C390.622 420.649 386.641 426.518 379.251 431.61C373.797 433.539 367.434 432.941 361.753 432.942L96.9353 432.93C90.9904 428.006 90.6603 419.899 90.7084 412.77C93.3035 412.871 99.1306 413.656 101.09 411.75C103.915 411.945 106.663 411.959 109.486 411.75C113.423 412.105 117.448 411.945 121.398 411.923L363.885 411.275C366.469 411.179 369.354 411.669 371.872 411.275Z"/>
	<path fill="#93C1E4" transform="scale(0.195312 0.195312)" d="M218.552 418.777L249.856 418.766C254.931 418.766 278.455 415.775 268.646 426.031C265.575 426.262 262.309 426.005 259.213 426.031L221.334 426.011C217.589 425.972 213.458 426.52 209.783 426.097C206.957 425.772 204.361 422.263 206.815 419.862C208.739 417.98 215.985 418.765 218.552 418.777Z"/>
	<path fill="#BE9DF6" transform="scale(0.195312 0.195312)" d="M145.285 166.231C145.903 171.259 145.285 178.048 145.288 183.234L145.303 196.135C145.311 198.289 145.524 200.586 145.285 202.723L129.292 202.702C101.508 202.69 101.057 207.632 101.085 235.904L101.09 385.975C97.8671 383.53 95.1133 380.113 92.4833 377.053C50.5465 328.263 44.7165 235.291 102.215 196.797C120.607 184.484 131.412 187.884 145.285 166.231Z"/>
	<path fill="#3574FA" transform="scale(0.195312 0.195312)" d="M101.09 385.975L101.085 235.904C101.057 207.632 101.508 202.69 129.292 202.702L145.285 202.723L145.285 202.723C146.551 211.916 145.282 231.683 145.283 241.743L145.275 356.821C145.273 365.584 144.067 374.069 151.231 380.493C157.302 385.669 163.925 385.008 171.437 384.997L286.149 384.986C295.995 384.995 313.246 388.057 319.561 379.974C324.993 379.87 330.47 380.303 335.891 379.974L363.885 379.974C366.45 380.15 369.365 380.055 371.872 380.493C371.873 390.732 372.116 401.043 371.872 411.275C369.354 411.669 366.469 411.179 363.885 411.275L121.398 411.923C117.448 411.945 113.423 412.105 109.486 411.75C106.663 411.959 103.915 411.945 101.09 411.75L101.09 385.975Z"/>
	<path fill="#2E46C4" transform="scale(0.195312 0.195312)" d="M363.885 379.974C366.45 380.15 369.365 380.055 371.872 380.493C371.873 390.732 372.116 401.043 371.872 411.275C369.354 411.669 366.469 411.179 363.885 411.275C363.889 400.856 363.637 390.385 363.885 379.974Z"/>
	<path fill="#2E46C4" transform="scale(0.195312 0.195312)" d="M319.561 379.974C324.993 379.87 330.47 380.303 335.891 379.974C341.442 381.471 357.484 380.442 363.885 380.493L363.885 384.985C357.746 383.738 339.025 382.398 332.252 383.377L331.917 383.54C312.475 393.08 315.287 391.024 293.289 391.012L186.315 391.004C179.308 391.009 172.245 391.259 165.246 391.149C160.465 391.074 149.627 386.706 150.522 381.18L151.231 380.493C157.302 385.669 163.925 385.008 171.437 384.997L286.149 384.986C295.995 384.995 313.246 388.057 319.561 379.974Z"/>
	<path fill="#2E46C4" transform="scale(0.195312 0.195312)" d="M101.09 385.975L101.085 235.904C101.057 207.632 101.508 202.69 129.292 202.702L145.285 202.723L145.285 202.723C145.233 205.566 145.259 208.407 145.285 211.251L128.35 211.223C123.303 211.22 116.593 210.267 112.633 214.22C107.339 219.504 109.48 233.505 109.486 240.477L109.486 411.75C106.663 411.959 103.915 411.945 101.09 411.75L101.09 385.975Z"/>
	<path fill="#D6BDF5" transform="scale(0.195312 0.195312)" d="M179.761 105.07C219.593 75.349 261.677 60.8391 311.434 68.026C399.713 80.7768 462.076 162.107 449.093 250.796C445.105 278.038 435.464 307.1 418.65 329.295L412.382 337.621C409.837 342.149 406.405 345.75 402.791 349.423C402.987 351.435 403.136 353.368 402.791 355.376L402.791 366.093C403.845 383.698 395.171 380.477 380.56 380.494C377.689 380.498 374.733 380.655 371.872 380.493C369.365 380.055 366.45 380.15 363.885 379.974L335.891 379.974C330.47 380.303 324.993 379.87 319.561 379.974C313.246 388.057 295.995 384.995 286.149 384.986L171.437 384.997C163.925 385.008 157.302 385.669 151.231 380.493C144.067 374.069 145.273 365.584 145.275 356.821L145.283 241.743C145.282 231.683 146.551 211.916 145.285 202.723L145.285 202.723C145.524 200.586 145.311 198.289 145.303 196.135L145.288 183.234C145.285 178.048 145.903 171.259 145.285 166.231C147.839 154.878 143.256 130.529 149.135 122.028C155.032 113.501 162.43 114.146 171.215 112.621C174.147 110.265 177.261 107.889 179.761 105.07Z"/>
	<path fill="#3574FA" transform="scale(0.195312 0.195312)" d="M410.699 222.258C417.939 222.579 419.649 232.277 412.382 234.473C403.554 234.518 402.792 224.992 410.699 222.258Z"/>
	<path fill="#FEFEFE" transform="scale(0.195312 0.195312)" d="M355.165 148.264C363.757 148.744 363.953 158.515 356.687 161.179C348.203 161.726 346.968 150.656 355.165 148.264Z"/>
	<defs>
		<linearGradient id="gradient_0" gradientUnits="userSpaceOnUse" x1="176.56517" y1="100.05714" x2="343.54501" y2="156.89467">
			<stop offset="0" stop-color="#9D94FC"/>
			<stop offset="1" stop-color="#C0A3F7"/>
		</linearGradient>
	</defs>
	<path fill="url(#gradient_0)" transform="scale(0.195312 0.195312)" d="M179.761 105.07C180.277 109.165 187.972 104.201 192.215 103.054C202.759 100.203 219.978 101.124 231.034 101.121L293.896 101.124C299.976 101.114 306.718 100.498 312.661 101.909C328.583 105.689 331.573 117.588 331.544 131.361L331.525 194.231C332.978 194.229 334.44 194.192 335.891 194.231C334.451 194.473 332.975 194.314 331.525 194.231C331.729 196.59 332.223 199.36 331.525 201.647C331.348 199.211 331.507 196.678 331.525 194.231C328.283 194.278 325.035 194.238 321.792 194.231L321.801 152.752C321.802 137.746 325.087 117.763 305.422 113.178C301.522 112.269 297.155 112.604 293.16 112.606L180.964 112.632C177.703 112.646 174.467 113.086 171.215 112.621C174.147 110.265 177.261 107.889 179.761 105.07Z"/>
	<path fill="#BE9DF6" transform="scale(0.195312 0.195312)" d="M335.891 194.231C352.429 194.022 380.599 190.17 380.711 214.24L380.68 247.545C391.54 252 390.184 264.203 390.169 273.995C389.884 278.106 384.506 276.444 380.021 276.461C380.068 277.923 380.186 279.411 380.021 280.867C380.087 282.682 380.11 284.468 380.021 286.283L367.781 286.283C367.795 278.304 367.156 269.961 367.781 262.03C370.31 260 373.183 258.422 375.957 256.755C375.118 255.018 373.866 253.349 372.809 251.73C372.112 250.795 371.322 249.921 370.564 249.035C368.83 247.149 367.043 245.292 365.451 243.284C354.757 234.589 341.806 230.617 328.11 231.975L321.792 233.158C322.099 225.587 321.802 217.879 321.792 210.292C321.963 207.747 321.942 205.27 321.792 202.723C321.944 199.928 321.794 197.035 321.792 194.231C325.035 194.238 328.283 194.278 331.525 194.231C331.507 196.678 331.348 199.211 331.525 201.647C332.223 199.36 331.729 196.59 331.525 194.231C332.975 194.314 334.451 194.473 335.891 194.231Z"/>
	<path fill="#A48BF2" transform="scale(0.195312 0.195312)" d="M321.792 194.231C325.035 194.238 328.283 194.278 331.525 194.231C331.507 196.678 331.348 199.211 331.525 201.647L331.581 202.377C333.999 203.754 355.442 201.886 356.687 202.723C348.309 202.582 339.906 202.717 331.525 202.723C328.321 202.712 324.981 202.503 321.792 202.723C321.944 199.928 321.794 197.035 321.792 194.231Z"/>
	<defs>
		<linearGradient id="gradient_1" gradientUnits="userSpaceOnUse" x1="366.79562" y1="271.21613" x2="380.7858" y2="272.31522">
			<stop offset="0" stop-color="#DE3D8B"/>
			<stop offset="1" stop-color="#F869B2"/>
		</linearGradient>
	</defs>
	<path fill="url(#gradient_1)" transform="scale(0.195312 0.195312)" d="M375.957 256.755C380.233 266.616 379.31 271.272 380.021 280.867C380.087 282.682 380.11 284.468 380.021 286.283L367.781 286.283C367.795 278.304 367.156 269.961 367.781 262.03C370.31 260 373.183 258.422 375.957 256.755Z"/>
	<path fill="#2E46C4" transform="scale(0.195312 0.195312)" d="M331.525 202.723C339.906 202.717 348.309 202.582 356.687 202.723C364.456 203.017 370.671 208.677 372.395 216.155C373.173 219.527 373.367 246.444 372.809 251.73C372.112 250.795 371.322 249.921 370.564 249.035C368.83 247.149 367.043 245.292 365.451 243.284C365.637 239.74 365.477 236.155 365.464 232.607C365.366 205.753 352.922 210.266 331.525 210.292C331.735 207.825 331.525 205.209 331.525 202.723Z"/>
	<path fill="#3574FA" transform="scale(0.195312 0.195312)" d="M321.792 202.723C324.981 202.503 328.321 202.712 331.525 202.723C331.525 205.209 331.735 207.825 331.525 210.292C352.922 210.266 365.366 205.753 365.464 232.607C365.477 236.155 365.637 239.74 365.451 243.284C354.757 234.589 341.806 230.617 328.11 231.975L321.792 233.158C322.099 225.587 321.802 217.879 321.792 210.292C321.963 207.747 321.942 205.27 321.792 202.723Z"/>
	<path fill="#2B2D94" transform="scale(0.195312 0.195312)" d="M321.792 202.723C324.981 202.503 328.321 202.712 331.525 202.723C331.525 205.209 331.735 207.825 331.525 210.292C328.438 210.284 324.798 210.776 321.792 210.292C321.963 207.747 321.942 205.27 321.792 202.723Z"/>
	<path fill="#3574FA" transform="scale(0.195312 0.195312)" d="M328.11 231.975C341.806 230.617 354.757 234.589 365.451 243.284C367.043 245.292 368.83 247.149 370.564 249.035C371.322 249.921 372.112 250.795 372.809 251.73C373.866 253.349 375.118 255.018 375.957 256.755C373.183 258.422 370.31 260 367.781 262.03C367.156 269.961 367.795 278.304 367.781 286.283C365.162 286.459 362.506 286.306 359.881 286.297L330.31 286.297C327.485 286.312 324.609 286.462 321.792 286.283C314.177 286.292 306.456 285.983 298.854 286.283C294.997 286.161 291.118 286.261 287.259 286.283L287.259 273.995C287.542 271.746 287.365 269.481 287.259 267.225C293.012 253.981 293.425 249.537 306.895 239.926C312.468 237.449 315.164 235.415 321.792 233.158L328.11 231.975Z"/>
	<path fill="#E782C0" transform="scale(0.195312 0.195312)" d="M328.11 231.975C341.806 230.617 354.757 234.589 365.451 243.284C367.043 245.292 368.83 247.149 370.564 249.035C371.322 249.921 372.112 250.795 372.809 251.73C373.866 253.349 375.118 255.018 375.957 256.755C373.183 258.422 370.31 260 367.781 262.03C366.22 259.528 364.626 257.124 362.729 254.86C350.038 251.035 346.635 242.99 329.941 244.795C333.057 242.391 337.678 245.182 340.944 244.536C340.229 243.532 338.579 234.723 340.597 232.619C336.592 231.318 332 233.597 328.11 231.975Z"/>
	<path fill="#FEFEFE" transform="scale(0.195312 0.195312)" d="M362.729 254.86C365.182 252.78 368.041 251.077 370.564 249.035C371.322 249.921 372.112 250.795 372.809 251.73C373.866 253.349 375.118 255.018 375.957 256.755C373.183 258.422 370.31 260 367.781 262.03C366.22 259.528 364.626 257.124 362.729 254.86Z"/>
	<path fill="#F15882" transform="scale(0.195312 0.195312)" d="M321.792 233.158L328.11 231.975C332 233.597 336.592 231.318 340.597 232.619C338.579 234.723 340.229 243.532 340.944 244.536C337.678 245.182 333.057 242.391 329.941 244.795C327.24 245.408 324.463 245.736 321.792 246.463L321.792 286.283C314.177 286.292 306.456 285.983 298.854 286.283C294.997 286.161 291.118 286.261 287.259 286.283L287.259 273.995C287.542 271.746 287.365 269.481 287.259 267.225C293.012 253.981 293.425 249.537 306.895 239.926C312.468 237.449 315.164 235.415 321.792 233.158Z"/>
	<path fill="#DFE6F1" transform="scale(0.195312 0.195312)" d="M321.792 246.463L321.792 286.283C314.177 286.292 306.456 285.983 298.854 286.283C298.779 283.02 298.727 279.723 298.854 276.461C298.717 269.656 300.539 261.555 305.668 256.755C309.158 251.606 316.128 248.476 321.792 246.463Z"/>
	<path fill="#FEFEFE" transform="scale(0.195312 0.195312)" d="M305.668 256.755C307.216 260.378 307.065 280.777 299.296 279.074C298.822 278.413 298.9 277.267 298.854 276.461C298.717 269.656 300.539 261.555 305.668 256.755Z"/>
	<path fill="#03EBAF" transform="scale(0.195312 0.195312)" d="M287.259 286.283C291.118 286.261 294.997 286.161 298.854 286.283C306.456 285.983 314.177 286.292 321.792 286.283C324.609 286.462 327.485 286.312 330.31 286.297L359.881 286.297C362.506 286.306 365.162 286.459 367.781 286.283L380.021 286.283C398.408 286.202 402.841 284.963 402.808 304.277L402.8 343.17C402.815 347.247 403.134 351.303 402.791 355.376L402.791 366.093C403.845 383.698 395.171 380.477 380.56 380.494C377.689 380.498 374.733 380.655 371.872 380.493C369.365 380.055 366.45 380.15 363.885 379.974L335.891 379.974C330.47 380.303 324.993 379.87 319.561 379.974C316.84 379.629 313.752 379.955 310.988 379.962L288.442 379.992C274.22 379.999 267.517 382.728 266.384 366.093C266.434 364.964 266.404 363.837 266.384 362.708C266.581 361.383 266.412 359.834 266.384 358.485L266.384 351.685L266.384 330.753C266.275 328.428 266.301 326.143 266.384 323.82L266.384 302.258C266.495 299.397 266.417 296.527 266.384 293.665C268.189 283.556 279.826 286.245 287.259 286.283Z"/>
	<path fill="#FEFEFE" transform="scale(0.195312 0.195312)" d="M293.671 323.14C295.488 323.103 297.38 322.854 298.745 324.325C298.599 327.185 284.047 326.035 281.46 326.029C280.266 326.061 274.623 326.179 276.749 323.586C278.758 322.596 290.696 323.139 293.671 323.14Z"/>
	<path fill="#FEFEFE" transform="scale(0.195312 0.195312)" d="M370.564 323.82C376.575 324.507 382.987 323.546 389.087 323.918C392.353 324.117 393.624 326.582 390.169 326.978C386.594 326.971 369.916 328.108 367.763 325.761C367.506 323.873 369.131 323.941 370.564 323.82Z"/>
	<path fill="#FEFEFE" transform="scale(0.195312 0.195312)" d="M278.875 338.51L297.983 338.51C298.097 339.625 298.423 340.761 297.743 341.71L296.813 341.802L276.55 341.802C276.97 339.597 276.109 338.505 278.875 338.51Z"/>
	<path fill="#FEFEFE" transform="scale(0.195312 0.195312)" d="M276.55 330.753C283.65 330.768 290.908 330.348 297.983 330.753C298.056 331.865 298.167 332.942 297.983 334.049C290.839 334.059 283.694 333.976 276.55 334.049L276.55 330.753Z"/>
	<path fill="#FEFEFE" transform="scale(0.195312 0.195312)" d="M367.781 330.753L391.885 330.753C391.944 331.859 391.929 332.942 391.885 334.049C389.331 334.144 368.566 334.351 367.633 333.687C367.36 332.719 367.627 331.727 367.781 330.753Z"/>
	<path fill="#FEFEFE" transform="scale(0.195312 0.195312)" d="M367.781 338.51L391.885 338.51L391.885 341.802L367.781 341.802L367.781 338.51Z"/>
	<path fill="#EED185" transform="scale(0.195312 0.195312)" d="M311.25 326.029C313.188 312.644 326.893 304.305 339.753 306.386C353.998 308.692 363.401 325.105 357.841 338.51C356.274 343.975 351.272 349.277 346.409 352.005C328.266 362.184 306.074 343.316 311.25 326.029Z"/>
	<path fill="#EDC434" transform="scale(0.195312 0.195312)" d="M311.25 326.029L311.492 326.477C311.211 329.211 310.711 333.057 311.731 335.634L311.942 335.809L314.225 334.744C314.581 331.856 313.284 328.803 314.102 325.768C314.277 327.675 314.076 329.608 314.268 331.52C316.181 350.509 339.966 357.832 351.793 343.206C352.899 341.839 353.731 339.762 355.041 338.68C354.305 341.235 351.898 342.839 350.989 345.014C352.058 345.322 352.245 344.875 352.978 345.834C355.524 343.49 355.725 340.529 357.535 338.362L357.841 338.51C356.274 343.975 351.272 349.277 346.409 352.005C328.266 362.184 306.074 343.316 311.25 326.029Z"/>
	<path fill="#FEFEFE" transform="scale(0.195312 0.195312)" d="M344.54 321.222C348.108 320.909 348.913 322.957 349.866 326.029C348.866 328.737 335.942 342.131 333.427 343.41C331.323 343.323 328.235 339.924 326.636 338.51C323.745 335.836 317.151 328.132 325.368 327.145C328.294 326.793 331.155 330.835 333.243 332.539C336.641 328.834 340.315 323.967 344.54 321.222Z"/>
	<path fill="#04AC8D" transform="scale(0.195312 0.195312)" d="M266.384 366.093C274.4 364.892 292.51 366.094 301.575 366.094L368.937 366.097C380.195 366.099 391.544 366.399 402.791 366.093C403.845 383.698 395.171 380.477 380.56 380.494C377.689 380.498 374.733 380.655 371.872 380.493C369.365 380.055 366.45 380.15 363.885 379.974L335.891 379.974C330.47 380.303 324.993 379.87 319.561 379.974C316.84 379.629 313.752 379.955 310.988 379.962L288.442 379.992C274.22 379.999 267.517 382.728 266.384 366.093Z"/>
	<path fill="#FEFEFE" transform="scale(0.195312 0.195312)" d="M145.285 166.231C147.839 154.878 143.256 130.529 149.135 122.028C155.032 113.501 162.43 114.146 171.215 112.621C174.467 113.086 177.703 112.646 180.964 112.632L293.16 112.606C297.155 112.604 301.522 112.269 305.422 113.178C325.087 117.763 321.802 137.746 321.801 152.752L321.792 194.231C321.794 197.035 321.944 199.928 321.792 202.723C321.942 205.27 321.963 207.747 321.792 210.292C321.802 217.879 322.099 225.587 321.792 233.158C315.164 235.415 312.468 237.449 306.895 239.926C293.425 249.537 293.012 253.981 287.259 267.225C287.365 269.481 287.542 271.746 287.259 273.995L287.259 286.283C279.826 286.245 268.189 283.556 266.384 293.665C266.417 296.527 266.495 299.397 266.384 302.258L266.384 323.82C266.301 326.143 266.275 328.428 266.384 330.753L266.384 351.685L266.384 358.485C266.412 359.834 266.581 361.383 266.384 362.708C266.404 363.837 266.434 364.964 266.384 366.093C267.517 382.728 274.22 379.999 288.442 379.992L310.988 379.962C313.752 379.955 316.84 379.629 319.561 379.974C313.246 388.057 295.995 384.995 286.149 384.986L171.437 384.997C163.925 385.008 157.302 385.669 151.231 380.493C144.067 374.069 145.273 365.584 145.275 356.821L145.283 241.743C145.282 231.683 146.551 211.916 145.285 202.723L145.285 202.723C145.524 200.586 145.311 198.289 145.303 196.135L145.288 183.234C145.285 178.048 145.903 171.259 145.285 166.231Z"/>
	<path fill="#93C1E4" transform="scale(0.195312 0.195312)" d="M266.384 351.685L266.384 358.485L187.173 358.489C184.38 358.499 177.348 359.414 175.02 357.813C173.35 356.665 173.492 354.019 174.803 352.662C176.601 350.802 185.305 351.667 187.833 351.668L266.384 351.685Z"/>
	<path fill="#93C1E4" transform="scale(0.195312 0.195312)" d="M266.384 323.82C266.301 326.143 266.275 328.428 266.384 330.753L187.826 330.73C186.019 330.739 167.485 331.924 174.688 324.917C176.942 322.725 184.742 323.826 187.641 323.826L266.384 323.82Z"/>
	<path fill="#93C1E4" transform="scale(0.195312 0.195312)" d="M266.384 302.258C261.367 302.525 256.217 302.263 251.187 302.261L189.509 302.245C186.345 302.23 177.626 303.407 175.121 301.486C172.559 299.52 173.95 295.405 177.077 295.23C179.906 295.071 182.857 295.266 185.703 295.267L265.822 295.424C266.286 295.061 266.273 294.241 266.384 293.665C266.417 296.527 266.495 299.397 266.384 302.258Z"/>
	<path fill="#93C1E4" transform="scale(0.195312 0.195312)" d="M287.259 273.995L189.772 273.994C186.639 273.995 174.449 275.596 173.734 270.998C172.874 265.466 184.179 267.22 186.958 267.222L287.259 267.225C287.365 269.481 287.542 271.746 287.259 273.995Z"/>
	<defs>
		<linearGradient id="gradient_2" gradientUnits="userSpaceOnUse" x1="182.25583" y1="208.0201" x2="284.8006" y2="178.31171">
			<stop offset="0" stop-color="#0492FF"/>
			<stop offset="1" stop-color="#13DDFB"/>
		</linearGradient>
	</defs>
	<path fill="url(#gradient_2)" transform="scale(0.195312 0.195312)" d="M230.168 139.403C259.713 136.978 284.566 160.709 287.481 189.425C290.487 219.044 266.832 244.757 237.939 247.545C208.601 251.622 180.873 224.155 179.751 195.202C178.63 166.278 200.911 140.586 230.168 139.403Z"/>
	<path fill="#1BEEF9" transform="scale(0.195312 0.195312)" d="M251.748 150.932C252.068 150.566 252.314 150.083 252.609 149.686L253.93 149.64C256.581 150.794 263.76 154.24 265.05 156.948C263.17 156.315 260.959 154.003 259.213 152.86C255.562 155.114 257.121 153.278 255.563 156.935L255.29 156.948C256.493 152.787 255.162 152.864 251.748 150.932Z"/>
	<defs>
		<linearGradient id="gradient_3" gradientUnits="userSpaceOnUse" x1="262.18893" y1="157.61746" x2="203.15773" y2="230.43849">
			<stop offset="0" stop-color="#2CF7F7"/>
			<stop offset="1" stop-color="#06D1FC"/>
		</linearGradient>
	</defs>
	<path fill="url(#gradient_3)" transform="scale(0.195312 0.195312)" d="M281.46 199.484L281.567 200.018C280.899 201.82 281.026 203.259 280.737 205.1C278.495 219.391 264.199 234.258 251.289 239.306C226.015 249.189 197.844 235.133 188.272 210.25C172.656 169.657 213.603 131.354 253.93 149.64L252.609 149.686C252.314 150.083 252.068 150.566 251.748 150.932C255.162 152.864 256.493 152.787 255.29 156.948L255.563 156.935C257.121 153.278 255.562 155.114 259.213 152.86C260.959 154.003 263.17 156.315 265.05 156.948C278.635 168.062 282.34 182.903 281.46 199.484Z"/>
	<path fill="#C5F9FE" transform="scale(0.195312 0.195312)" d="M252.723 160.144C238.249 156.004 245.243 149.009 251.748 150.932C255.162 152.864 256.493 152.787 255.29 156.948C254.335 157.916 253.546 159.063 252.723 160.144Z"/>
	<path fill="#1BEEF9" transform="scale(0.195312 0.195312)" d="M197.504 203.267C201.354 203.543 203.592 212.763 204.612 215.849C203.644 218.076 203.23 218.888 200.64 219.177C196.499 218.693 194.648 211.897 193.371 208.04C192.472 205.325 195.357 203.987 197.504 203.267Z"/>
	<path fill="#F15882" transform="scale(0.195312 0.195312)" d="M211.805 184.08C213.191 184.017 214.651 183.841 216.023 184.08C217.581 184.294 219.112 184.17 220.675 184.08C220.639 204.182 224.338 211.503 237.939 224.706C230.941 226.823 223.53 223.584 218.423 218.689C209.34 209.981 212.046 195.558 211.805 184.08Z"/>
	<path fill="#85F0FC" transform="scale(0.195312 0.195312)" d="M259.213 152.86C260.959 154.003 263.17 156.315 265.05 156.948C278.635 168.062 282.34 182.903 281.46 199.484C280.866 200.427 280.48 201.688 280.039 202.723C276.374 205.996 273.058 205.864 270.459 201.647C268.677 183.243 273.619 173.404 252.723 160.144C253.546 159.063 254.335 157.916 255.29 156.948L255.563 156.935C257.121 153.278 255.562 155.114 259.213 152.86Z"/>
	<path fill="#3574FA" transform="scale(0.195312 0.195312)" d="M216.023 182.447C215.955 174.85 215.142 168.554 220.963 162.705C227.712 155.923 239.836 156.757 246.358 163.419C251.767 168.944 250.997 175.314 250.971 182.447L253.525 182.349C254.968 182.285 255.352 182.722 255.29 184.08L229.532 184.073C225.043 184.059 220.493 183.668 216.023 184.08C214.651 183.841 213.191 184.017 211.805 184.08C211.932 181.657 214.166 182.348 216.023 182.447Z"/>
	<path fill="#FEFEFE" transform="scale(0.195312 0.195312)" d="M224.207 182.447C224.191 178.032 223.395 172.965 226.777 169.522C230.449 165.783 236.637 165.453 240.278 169.42C243.437 172.86 243.104 178.109 243.051 182.447C245.69 182.457 248.333 182.5 250.971 182.447L253.525 182.349C254.968 182.285 255.352 182.722 255.29 184.08L229.532 184.073C225.043 184.059 220.493 183.668 216.023 184.08C214.651 183.841 213.191 184.017 211.805 184.08C211.932 181.657 214.166 182.348 216.023 182.447L224.207 182.447Z"/>
	<path fill="#F67E92" transform="scale(0.195312 0.195312)" d="M216.023 184.08C220.493 183.668 225.043 184.059 229.532 184.073L255.29 184.08C254.883 195.87 258.071 210.073 248.551 219.023C244.475 222.854 240.388 222.863 237.939 224.706C224.338 211.503 220.639 204.182 220.675 184.08C219.112 184.17 217.581 184.294 216.023 184.08Z"/>
	<path fill="#DFE6F1" transform="scale(0.195312 0.195312)" d="M145.285 166.231C147.839 154.878 143.256 130.529 149.135 122.028C155.032 113.501 162.43 114.146 171.215 112.621C174.467 113.086 177.703 112.646 180.964 112.632L293.16 112.606C297.155 112.604 301.522 112.269 305.422 113.178C325.087 117.763 321.802 137.746 321.801 152.752L321.792 194.231C321.794 197.035 321.944 199.928 321.792 202.723C321.942 205.27 321.963 207.747 321.792 210.292C321.802 217.879 322.099 225.587 321.792 233.158C315.164 235.415 312.468 237.449 306.895 239.926C305.351 234.5 306.478 226.52 306.492 220.79L306.481 163.495C306.431 130.632 309.83 127.255 271.677 127.263L195.548 127.279C189.05 127.274 177.761 126.554 171.831 127.995C158.096 131.333 161.205 147.665 161.208 158.232L161.205 345.341C161.205 357.361 157.265 370.842 173.351 371.897C182.143 372.473 191.211 372.009 200.032 372.009L249.579 372.014C255.095 371.997 260.92 371.369 266.384 372.01C266.369 369.019 266.037 365.656 266.384 362.708C266.404 363.837 266.434 364.964 266.384 366.093C267.517 382.728 274.22 379.999 288.442 379.992L310.988 379.962C313.752 379.955 316.84 379.629 319.561 379.974C313.246 388.057 295.995 384.995 286.149 384.986L171.437 384.997C163.925 385.008 157.302 385.669 151.231 380.493C144.067 374.069 145.273 365.584 145.275 356.821L145.283 241.743C145.282 231.683 146.551 211.916 145.285 202.723L145.285 202.723C145.524 200.586 145.311 198.289 145.303 196.135L145.288 183.234C145.285 178.048 145.903 171.259 145.285 166.231Z"/>
</svg>
