<?xml version="1.0" encoding="utf-8" ?>
<svg xmlns="http://www.w3.org/2000/svg" xmlns:xlink="http://www.w3.org/1999/xlink" width="100" height="100">
	<path fill="#5199DC" transform="scale(0.195312 0.195312)" d="M107.098 255C107.382 249.908 107.115 244.679 107.106 239.573L107.04 120.543C107.001 105.371 117.881 107.239 129.455 107.242L256.011 107.252L256.011 127.257L127.751 127.257L127.754 212.736C127.755 226.789 128.139 240.957 127.751 255C120.897 254.769 113.961 254.994 107.098 255Z"/>
	<path fill="#526CC1" transform="scale(0.195312 0.195312)" d="M383.52 255.762L404.933 255.762L404.94 378.371C404.946 402.379 407.014 404.513 379.751 404.506L256.011 404.499L256.011 383.807C258.769 383.353 262.198 383.778 265.032 383.784L351.417 383.803C362.08 383.803 372.879 384.241 383.52 383.807L383.517 298.227C383.517 284.094 383.829 269.888 383.52 255.762Z"/>
	<path fill="#E0655E" transform="scale(0.195312 0.195312)" d="M298.617 108.603L298.605 79.7343C298.607 65.5827 295.535 52.8342 314.785 52.8609L434.229 53.02C458.705 52.9711 457.372 53.9503 457.363 80.3872L457.348 173.141C457.348 182.418 457.69 191.812 457.396 201.073C456.97 214.502 445.34 213.114 435.803 213.109L414.151 213.088C410.454 213.084 403.903 214.957 403.788 211.129C404.149 208.905 403.85 206.389 403.821 204.133L403.788 192.578C407.174 192.256 410.835 192.56 414.252 192.564L436.764 192.578C436.918 188.202 436.772 183.838 436.769 179.461L436.764 75.9891L318.454 75.9891L318.454 108.603C317.36 108.532 315.25 108.124 314.318 108.603L298.617 108.603Z"/>
	<path fill="#F28D4E" transform="scale(0.195312 0.195312)" d="M213.462 402.023L213.47 433.511C213.484 444.859 216.082 457.577 200.208 458.35C190.659 458.815 180.926 458.431 171.359 458.431L82.3029 458.442C71.7111 458.456 54.8198 461.808 54.2617 446.168C53.9158 436.473 54.2672 426.643 54.2672 416.932L54.2476 324.473C54.2308 301.671 51.9522 300.239 78.1284 300.239L108.954 300.254L108.954 320.449C97.6565 320.203 86.307 320.453 75.0026 320.449L75.0026 436.042L190.93 436.042C190.929 424.707 190.798 413.356 190.93 402.023C197.991 402.029 206.574 401.563 213.462 402.023Z"/>
	<defs>
		<linearGradient id="gradient_0" gradientUnits="userSpaceOnUse" x1="318.92398" y1="220.07959" x2="422.98483" y2="67.38047">
			<stop offset="0" stop-color="#E66C63"/>
			<stop offset="1" stop-color="#E78D7C"/>
		</linearGradient>
	</defs>
	<path fill="url(#gradient_0)" transform="scale(0.195312 0.195312)" d="M318.454 75.9891L436.764 75.9891L436.769 179.461C436.772 183.838 436.918 188.202 436.764 192.578L414.252 192.564C410.835 192.56 407.174 192.256 403.788 192.578L403.821 204.133C403.85 206.389 404.149 208.905 403.788 211.129C402.755 198.886 404.069 183.47 403.793 170.76C403.484 156.528 388.587 146.63 376.816 153.604C370.064 157.604 349.804 178.569 342.468 186.422C346.498 190.084 353.281 194.983 353.865 200.741C355.612 217.959 328.73 212.847 318.547 213.135C309.829 213.382 300.998 213.312 298.691 202.39C297.613 197.282 298.488 176.313 298.378 169.899C298.258 162.948 302.675 156.974 310.011 157.13C316.568 157.269 320.862 164.605 324.986 168.902C333.693 159.281 352.346 143.801 357.938 134.665C363.576 125.456 357.777 112.085 347.489 109.3C340.918 107.521 322.11 108.812 314.318 108.603C315.25 108.124 317.36 108.532 318.454 108.603L318.454 75.9891Z"/>
	<path fill="#F9A852" transform="scale(0.195312 0.195312)" d="M168.82 322.759C165.172 319.414 158.366 314.55 158.098 309.285C157.643 300.316 164.239 296.64 172.315 296.545C179.363 296.462 196.54 295.718 202.756 296.935C216.421 299.609 213.467 316.039 213.442 326.184C213.42 335.219 215.887 353.254 201.403 352.427C195.818 352.108 190.389 345.097 186.633 341.281C180.792 346.739 157.356 368.62 153.828 374.545C149.822 381.271 151.876 390.787 157.015 396.243C164.679 404.381 180.382 402.045 190.93 402.023C190.798 413.356 190.929 424.707 190.93 436.042L75.0026 436.042L75.0026 320.449C86.307 320.453 97.6565 320.203 108.954 320.449C108.773 329.752 107.263 344.69 113.805 351.553C122.259 360.422 134.172 357.473 142.207 349.592C151.16 340.81 160.228 331.89 168.82 322.759Z"/>
	<path fill="#5199DC" transform="scale(0.195312 0.195312)" d="M268.732 251.392L296.889 279.084C304.091 286.17 310.547 296.064 321.628 296.053C344.917 296.031 341.251 270.995 341.239 255.762L383.52 255.762C383.829 269.888 383.517 284.094 383.517 298.227L383.52 383.807C372.879 384.241 362.08 383.803 351.417 383.803L265.032 383.784C262.198 383.778 258.769 383.353 256.011 383.807L256.011 338.475C269.982 338.489 296.63 342.751 297.267 321.46C297.577 311.108 289.964 305.874 283.362 299.165C272.877 288.511 261.98 278.214 251.799 267.272C257.348 263.304 263.841 256.344 268.732 251.392Z"/>
	<path fill="#7CC9DC" transform="scale(0.195312 0.195312)" d="M127.751 127.257L256.011 127.257L256.011 170.871L242.019 170.853C233.975 170.842 226.718 170.275 220.573 176.402C204.093 192.834 224.912 207.534 235.835 218.35C246.87 229.275 257.892 240.274 268.732 251.392C263.841 256.344 257.348 263.304 251.799 267.272C245.235 260.916 202.723 217.528 199.675 216.394C191.723 213.435 182.837 213.925 176.553 220.247C170.331 226.506 170.869 233.714 170.928 241.878L170.948 255L127.751 255C128.139 240.957 127.755 226.789 127.754 212.736L127.751 127.257Z"/>
</svg>
