<?xml version="1.0" encoding="utf-8" ?>
<svg xmlns="http://www.w3.org/2000/svg" xmlns:xlink="http://www.w3.org/1999/xlink" width="100" height="100">
	<path fill="#3B5893" transform="scale(0.195312 0.195312)" d="M379.232 206.517C347.291 202.418 319.762 180.458 318.691 146.317L288.976 146.317C287.155 153.075 264.855 193.121 257.945 190.61C254.045 189.192 234.365 159.237 230.955 151.06C215.578 114.196 272.592 90.4597 287.467 128.562C288.462 131.112 289.219 133.768 290.001 136.391L318.691 136.391C321.833 99.986 352.583 72.1593 389.524 75.3397C426.129 78.491 452.961 111.753 449.438 148.06C446.241 181.005 421.133 202.807 389.241 206.517L379.232 206.517ZM333.362 118.125C327.337 128.748 327.326 145.178 330.46 156.69C343.008 202.778 408.568 211.807 432.771 168.023C438.57 157.533 439.835 147.535 439.244 135.707C431.607 77.433 356.416 66.7554 333.362 118.125ZM256.75 119.321C250.707 120.415 245.506 123.35 241.965 128.471C232.349 142.378 245.264 156.5 252.974 167.769C255.027 170.771 256.956 174.038 259.207 176.882L259.568 176.851L260.296 175.867C265.758 168.307 276.373 153.291 278.986 144.855C283.275 131.009 270.272 118.263 256.75 119.321Z"/>
	<path fill="#71E8E7" transform="scale(0.195312 0.195312)" d="M333.362 118.125C356.416 66.7554 431.607 77.433 439.244 135.707C437.635 165.197 412.265 183.523 383.658 181.866C382.743 181.813 378.135 180.848 378.12 180.853C379.175 181.053 380.653 180.872 381.634 180.446C396.239 180.392 402.203 184.367 402.062 169.523L402.036 158.284C425.658 158.23 422.87 161.16 422.839 137.748C422.815 119.138 420.342 123.398 402.036 123.465C401.986 99.6452 404.875 102.737 380.273 102.728C362.67 102.722 366.404 104.471 366.498 123.465C343.394 123.343 345.938 120.874 345.908 143.497C345.885 161.967 346.836 158.383 366.498 158.284C366.516 164.493 366.316 170.725 366.498 176.931C350.331 172.509 337.033 148.123 334.757 132.418C334.104 127.909 334.98 122.365 333.362 118.125Z"/>
	<path fill="#3B5893" transform="scale(0.195312 0.195312)" d="M366.498 176.931C366.316 170.725 366.516 164.493 366.498 158.284C346.836 158.383 345.885 161.967 345.908 143.497C345.938 120.874 343.394 123.343 366.498 123.465C366.404 104.471 362.67 102.722 380.273 102.728C404.875 102.737 401.986 99.6452 402.036 123.465C420.342 123.398 422.815 119.138 422.839 137.748C422.87 161.16 425.658 158.23 402.036 158.284L402.062 169.523C402.203 184.367 396.239 180.392 381.634 180.446C377.827 180.258 373.995 180.648 370.169 180.446C368.321 179.656 367.437 178.682 366.498 176.931ZM376.591 112.704C376.603 116.691 377.073 126.176 376.434 129.593C375.199 136.193 361.178 133.5 355.795 133.522L355.795 148.451C359.243 148.45 362.695 148.474 366.143 148.423C376.678 148.265 376.704 148.572 376.634 158.276L376.591 170.489C381.213 170.485 385.901 170.335 390.504 170.795L390.629 171.156L390.755 170.811L391.698 170.815L391.814 170.489L391.797 158.335C391.762 153.554 390.619 148.229 397.326 148.271C402.641 148.304 407.947 148.462 413.267 148.451L413.267 133.522C407.641 133.518 392.746 135.724 391.838 129.476C391.164 124.834 391.823 117.598 391.814 112.704L376.591 112.704Z"/>
	<path fill="#F19A97" transform="scale(0.195312 0.195312)" d="M355.795 133.522C361.178 133.5 375.199 136.193 376.434 129.593C377.073 126.176 376.603 116.691 376.591 112.704L391.814 112.704C391.823 117.598 391.164 124.834 391.838 129.476C392.746 135.724 407.641 133.518 413.267 133.522L413.267 148.451C407.947 148.462 402.641 148.304 397.326 148.271C390.619 148.229 391.762 153.554 391.797 158.335L391.814 170.489L391.698 170.815L390.755 170.811L390.629 171.156L390.504 170.795C385.901 170.335 381.213 170.485 376.591 170.489L376.634 158.276C376.704 148.572 376.678 148.265 366.143 148.423C362.695 148.474 359.243 148.45 355.795 148.451L355.795 133.522Z"/>
	<path fill="#27D6CE" transform="scale(0.195312 0.195312)" d="M439.244 135.707C439.835 147.535 438.57 157.533 432.771 168.023C408.568 211.807 343.008 202.778 330.46 156.69C327.326 145.178 327.337 128.748 333.362 118.125C334.98 122.365 334.104 127.909 334.757 132.418C337.033 148.123 350.331 172.509 366.498 176.931C367.437 178.682 368.321 179.656 370.169 180.446C373.995 180.648 377.827 180.258 381.634 180.446C380.653 180.872 379.175 181.053 378.12 180.853C378.135 180.848 382.743 181.813 383.658 181.866C412.265 183.523 437.635 165.197 439.244 135.707Z"/>
	<path fill="#F3BC4C" transform="scale(0.195312 0.195312)" d="M260.296 175.867L259.568 176.851L259.207 176.882C256.956 174.038 255.027 170.771 252.974 167.769C245.264 156.5 232.349 142.378 241.965 128.471C245.506 123.35 250.707 120.415 256.75 119.321C270.272 118.263 283.275 131.009 278.986 144.855C276.373 153.291 265.758 168.307 260.296 175.867ZM257.839 132.245C247.469 136.518 252.511 149.724 260.296 146.317C269.61 144.527 267.313 132.462 257.839 132.245Z"/>
	<path fill="#3B5893" transform="scale(0.195312 0.195312)" d="M130.088 251.25C126.199 251.277 122.124 251.578 118.255 251.25C114.97 251.088 111.6 251.239 108.304 251.244L88.7477 251.268C75.6808 251.28 62.851 250.168 62.5111 233.44C62.1178 214.078 62.4921 194.627 62.4977 175.256L62.5019 157.708C62.4984 143.288 65.907 132.431 82.6688 132.232C103.234 131.988 123.838 132.246 144.407 132.243L161.089 132.216C183.494 132.11 187.525 138.647 187.482 160.233L187.467 174.689L209.649 185.445C213.125 187.16 228.545 192.661 220.63 198.478C212.937 204.131 196.826 210.307 187.467 215.858L187.493 227.418C187.533 250.934 179.877 251.261 158.74 251.248L130.088 251.25ZM86.5177 142.201C71.9761 142.232 72.508 146.787 72.5012 159.843L72.4959 213.694C72.4974 219 70.9944 235.196 74.6682 238.779C78.7934 242.803 87.0485 241.451 92.2937 241.448L148.245 241.437C154.961 241.445 161.72 241.613 168.432 241.428C178.169 241.161 177.369 235.219 177.607 227.305C177.61 224.234 177.071 213.332 177.687 210.913C178.505 207.702 202.023 196.849 205.808 194.811C201.031 192.759 180.466 183.026 177.607 180.446C177.527 173.677 177.605 166.902 177.617 160.133C177.65 141.998 176.231 142.171 159.903 142.188L86.5177 142.201Z"/>
	<path fill="#82CEFA" transform="scale(0.195312 0.195312)" d="M177.607 227.305C177.369 235.219 178.169 241.161 168.432 241.428C161.72 241.613 154.961 241.445 148.245 241.437L92.2937 241.448C87.0485 241.451 78.7934 242.803 74.6682 238.779C70.9944 235.196 72.4974 219 72.4959 213.694L72.5012 159.843C72.508 146.787 71.9761 142.232 86.5177 142.201L86.5152 200.41C86.5159 204.867 85.1035 227.072 88.049 226.955L88.0696 227.467L88.3395 227.18C98.584 227.786 109.071 227.306 119.343 227.304L177.607 227.305Z"/>
	<path fill="#C7E5F9" transform="scale(0.195312 0.195312)" d="M86.5177 142.201L159.903 142.188C176.231 142.171 177.65 141.998 177.617 160.133C177.605 166.902 177.527 173.677 177.607 180.446C180.466 183.026 201.031 192.759 205.808 194.811C202.023 196.849 178.505 207.702 177.687 210.913C177.071 213.332 177.61 224.234 177.607 227.305L119.343 227.304C109.071 227.306 98.584 227.786 88.3395 227.18L88.0696 227.467L88.049 226.955C85.1035 227.072 86.5159 204.867 86.5152 200.41L86.5177 142.201ZM122.771 159.851C80.4758 164.019 87.0764 225.941 126.561 222.392C169.55 218.691 161.952 155.977 122.771 159.851Z"/>
	<path fill="#3B5893" transform="scale(0.195312 0.195312)" d="M126.561 222.392C87.0764 225.941 80.4758 164.019 122.771 159.851C161.952 155.977 169.55 218.691 126.561 222.392ZM110.285 175.867C101.579 183.429 101.4 196.986 108.817 205.485C123.01 221.747 148.499 208.487 145.67 187.542C143.668 171.397 121.501 163.249 110.285 175.867Z"/>
	<path fill="#71E8E7" transform="scale(0.195312 0.195312)" d="M110.285 175.867C121.501 163.249 143.668 171.397 145.67 187.542C143.669 197.128 125.366 203.179 115.471 193.265C110.124 187.908 110.237 182.972 110.285 175.867Z"/>
	<path fill="#27D6CE" transform="scale(0.195312 0.195312)" d="M145.67 187.542C148.499 208.487 123.01 221.747 108.817 205.485C101.4 196.986 101.579 183.429 110.285 175.867C110.237 182.972 110.124 187.908 115.471 193.265C125.366 203.179 143.669 197.128 145.67 187.542Z"/>
	<path fill="#3B5893" transform="scale(0.195312 0.195312)" d="M234.726 203.022C234.871 201.203 234.846 199.422 234.726 197.6C238.256 197.54 241.773 197.522 245.302 197.6C245.378 199.416 245.364 201.207 245.302 203.022L245.302 208.664C241.11 208.684 234.651 210.664 234.726 206.517L234.726 203.022Z"/>
	<path fill="#3B5893" transform="scale(0.195312 0.195312)" d="M267.012 203.022C267.017 201.218 267.061 199.403 267.012 197.6L277.643 197.6C277.654 199.396 277.743 201.231 277.643 203.022C277.561 204.891 277.638 206.792 277.643 208.664L267.012 208.664C266.96 206.788 267.007 204.9 267.012 203.022Z"/>
	<path fill="#3B5893" transform="scale(0.195312 0.195312)" d="M301.735 203.022L301.735 197.6L312.263 197.6L312.263 208.664C308.842 208.277 305.188 208.6 301.735 208.664L301.735 203.022Z"/>
	<path fill="#C6C7D1" transform="scale(0.195312 0.195312)" d="M231.11 203.813C232.28 203.281 233.468 203.148 234.726 203.022L234.726 206.517C234.651 210.664 241.11 208.684 245.302 208.664L245.302 203.022C252.428 202.705 259.886 202.764 267.012 203.022C267.007 204.9 266.96 206.788 267.012 208.664L277.643 208.664C277.638 206.792 277.561 204.891 277.643 203.022C283.57 203.489 295.761 203.439 301.735 203.022L301.735 208.664C305.188 208.6 308.842 208.277 312.263 208.664C310.298 208.94 308.235 208.741 306.255 208.664C306.238 211.529 305.83 225.182 306.322 227.095L309.063 227.305C306.897 227.563 304.663 227.379 302.487 227.305L302.487 238.852L306.255 238.852C306.329 245.152 306.254 251.453 306.255 257.752L302.487 257.752L302.487 266.439C296.57 266.446 290.559 266.677 284.652 266.439L280.013 266.439C279.526 263.842 280.006 254.011 280.013 250.485L269.782 250.485L269.782 266.439C260.921 266.304 252.044 266.428 243.182 266.439L243.182 250.485L233.236 250.485L233.236 266.439L213.278 266.439L213.278 256.072L209.75 256.072C209.415 254.406 209.704 252.2 209.714 250.462L209.75 237.334L213.278 237.334L213.278 226.005L209.054 226.005C210.776 225.338 210.042 219.546 211.023 217.54C213.804 211.855 225.321 205.749 231.11 203.813Z"/>
	<path fill="#27D6CE" transform="scale(0.195312 0.195312)" d="M379.232 206.517L389.241 206.517C389.008 221.725 389.248 236.975 389.241 252.186C393.779 248.58 397.336 243.855 402.036 240.418C403.79 242.865 406.265 245.084 408.36 247.256C400.34 254.776 392.385 262.532 384.813 270.505C376.664 261.766 367.554 253.711 359.074 245.262C361.414 242.887 363.526 240.441 366.498 238.852C370.263 241.969 376.27 248.359 379.232 252.186C379.443 236.975 379.235 221.732 379.232 206.517Z"/>
	<path fill="#3B5893" transform="scale(0.195312 0.195312)" d="M202.686 226.005L209.054 226.005L213.278 226.005L213.278 237.334L209.75 237.334L202.686 237.334L202.686 226.005Z"/>
	<path fill="#3B5893" transform="scale(0.195312 0.195312)" d="M309.063 227.305L312.263 227.305L312.263 238.852L306.255 238.852L302.487 238.852L302.487 227.305C304.663 227.379 306.897 227.563 309.063 227.305Z"/>
	<path fill="#3B5893" transform="scale(0.195312 0.195312)" d="M202.686 256.072L209.75 256.072L213.278 256.072L213.278 266.439L233.236 266.439L233.236 250.485L243.182 250.485L243.182 266.439C252.044 266.428 260.921 266.304 269.782 266.439L269.782 250.485L280.013 250.485C280.006 254.011 279.526 263.842 280.013 266.439L284.652 266.439C290.559 266.677 296.57 266.446 302.487 266.439L302.487 257.752L306.255 257.752L312.263 257.752L312.263 276.489L202.686 276.489L202.686 256.072Z"/>
	<path fill="#27D6CE" transform="scale(0.195312 0.195312)" d="M118.255 251.25C122.124 251.578 126.199 251.277 130.088 251.25L130.088 292.721C134.702 289.397 138.084 284.671 142.89 281.55C145.039 284.247 147.701 286.663 150.152 289.091C144.621 294.053 139.479 299.475 134.272 304.774C131.513 307.582 126.642 315.178 122.227 311.548C114.92 305.54 107.376 295.895 99.8765 289.091C102.951 286.808 105.291 283.954 108.199 281.55C111.6 284.821 114.994 288.086 118.255 291.498L118.255 251.25Z"/>
	<path fill="#3B5893" transform="scale(0.195312 0.195312)" d="M362.25 422.31L362.232 306.263C362.225 298.553 360.033 285.499 370.418 283.385C376.859 282.074 386.741 282.741 393.457 282.74L435.617 282.748C453.151 281.872 449.724 297.186 449.726 309.224L449.722 392.85C449.727 402.164 450.122 411.683 449.606 420.978C448.78 435.825 432.526 432.512 422.315 432.511L83.991 432.511C77.2641 432.511 64.0339 435.827 63.7921 426.766C63.1912 404.247 72.9737 384.884 97.8032 384.228C95.3574 360.135 119.168 344.269 138.392 356.817C151.231 365.198 155.507 382.162 146.891 395.158C154.157 401.575 157.694 412.961 158.562 422.31L209.75 422.31L226.765 422.31L226.765 398.465C210.689 396.943 188.988 398.838 172.137 398.465C167.11 395.168 169.109 383.192 169.117 377.299L169.128 314.106C169.123 308.633 168.951 303.126 169.096 297.659C169.333 288.749 177.188 291.495 183.688 291.499L322.899 291.488C329.874 291.49 345.309 288.385 345.853 296.847C346.255 303.087 345.951 309.525 345.943 315.785L345.931 378.154C345.945 384.106 348.641 397.695 341.157 398.379C335.604 398.887 329.674 398.482 324.072 398.48L290.001 398.465L290.001 422.31L362.25 422.31ZM201.746 301.735L179.202 301.735L179.202 388.466L335.752 388.466C335.748 383.306 335.561 378.064 335.752 372.913L335.752 301.735L201.746 301.735ZM394.938 309.596C385.018 308.903 383.571 301.061 383.761 292.721L372.402 292.721L372.397 365C372.397 376.907 372.007 388.956 372.402 400.85L395.763 400.865C399.489 400.87 403.359 401.139 407.064 400.85C410.585 400.693 414.186 400.847 417.717 400.847L439.244 400.85L439.244 292.721L428.322 292.721C428.577 308.383 424.785 309.585 410.179 309.604L394.938 309.596ZM120.04 363.41C93.1492 370.755 116.384 410.775 135.842 392.325C148.903 379.768 136.725 359.886 120.04 363.41ZM90.5356 395.158C78.5852 400.215 73.1519 409.76 73.8826 422.31L107.055 422.314C112.861 422.322 118.565 422.551 124.378 422.31C126.946 422.538 129.717 422.326 132.303 422.324L148.598 422.31C147.992 414.754 144.826 407.549 139.689 401.963C126.685 410.512 111.691 406.199 102.67 394.236C98.6167 393.793 94.47 394.113 90.5356 395.158ZM393.959 292.721C394.11 295.091 394.15 297.366 393.959 299.733L418.254 299.733L418.254 292.721L393.959 292.721ZM237.022 398.465L237.022 422.31L280.013 422.31L280.013 398.465L237.022 398.465ZM372.402 411.279C372.63 414.957 372.367 418.63 372.402 422.31L431.001 422.343C433.737 422.376 436.519 422.596 439.244 422.31C439.305 418.633 439.224 414.956 439.244 411.279L372.402 411.279Z"/>
	<path fill="#27D6CE" transform="scale(0.195312 0.195312)" d="M394.938 309.596L394.151 309.686C393.069 311.246 394.01 315.803 393.997 317.671L393.951 373.897C393.952 390.297 394.946 391.563 407.064 400.85C403.359 401.139 399.489 400.87 395.763 400.865L372.402 400.85C372.007 388.956 372.397 376.907 372.397 365L372.402 292.721L383.761 292.721C383.571 301.061 385.018 308.903 394.938 309.596Z"/>
	<path fill="#548ACC" transform="scale(0.195312 0.195312)" d="M393.959 299.733C394.15 297.366 394.11 295.091 393.959 292.721L418.254 292.721L418.254 299.733L393.959 299.733Z"/>
	<path fill="#71E8E7" transform="scale(0.195312 0.195312)" d="M407.064 400.85C394.946 391.563 393.952 390.297 393.951 373.897L393.997 317.671C394.01 315.803 393.069 311.246 394.151 309.686L394.938 309.596L410.179 309.604C424.785 309.585 428.577 308.383 428.322 292.721L439.244 292.721L439.244 400.85L417.717 400.847C414.186 400.847 410.585 400.693 407.064 400.85Z"/>
	<path fill="#82CEFA" transform="scale(0.195312 0.195312)" d="M179.202 301.735L201.746 301.735L201.746 321.817C199.376 321.78 196.03 321.366 194.21 323.275C192.134 325.453 192.426 358.437 194.758 360.429C196.666 362.059 199.405 361.768 201.746 361.774L201.746 372.913L335.752 372.913C335.561 378.064 335.748 383.306 335.752 388.466L179.202 388.466L179.202 301.735Z"/>
	<path fill="#C7E5F9" transform="scale(0.195312 0.195312)" d="M201.746 301.735L335.752 301.735L335.752 372.913L201.746 372.913L201.746 361.774L220.559 361.796C227.731 361.804 234.587 364.016 234.722 354.384C234.807 348.254 234.747 342.114 234.74 335.983C234.725 320.507 235.174 321.781 221.082 321.796L201.746 321.817L201.746 301.735ZM252.169 326.023C249.145 326.301 245.165 328.025 245.603 331.715C246.417 338.572 259.017 336.55 263.628 336.549L288.976 336.536C295.251 335.891 296.227 326.647 289.04 326.01C285.26 325.676 281.145 326.031 277.324 326.03L252.169 326.023ZM252.169 348.119C248.741 348.242 245.429 350.238 245.789 354.141C246.341 360.121 256.294 358.538 260.23 358.522L278.605 358.544C285.609 358.187 286.875 349.111 280.251 348.256C277.082 347.847 273.652 348.091 270.455 348.093L252.169 348.119Z"/>
	<path fill="#3B5893" transform="scale(0.195312 0.195312)" d="M201.746 361.774C199.405 361.768 196.666 362.059 194.758 360.429C192.426 358.437 192.134 325.453 194.21 323.275C196.03 321.366 199.376 321.78 201.746 321.817L221.082 321.796C235.174 321.781 234.725 320.507 234.74 335.983C234.747 342.114 234.807 348.254 234.722 354.384C234.587 364.016 227.731 361.804 220.559 361.796L201.746 361.774ZM218.176 331.956L202.686 331.956C202.699 338.285 203.129 345.847 202.686 352.013L209.054 352.013L224.467 352.013L224.467 331.956C222.362 331.894 220.28 331.866 218.176 331.956Z"/>
	<path fill="#3B5893" transform="scale(0.195312 0.195312)" d="M288.976 336.536L263.628 336.549C259.017 336.55 246.417 338.572 245.603 331.715C245.165 328.025 249.145 326.301 252.169 326.023L277.324 326.03C281.145 326.031 285.26 325.676 289.04 326.01C296.227 326.647 295.251 335.891 288.976 336.536Z"/>
	<path fill="#27D6CE" transform="scale(0.195312 0.195312)" d="M202.686 331.956L218.176 331.956C220.28 331.866 222.362 331.894 224.467 331.956L224.467 352.013L209.054 352.013L202.686 352.013C203.129 345.847 202.699 338.285 202.686 331.956Z"/>
	<path fill="#3B5893" transform="scale(0.195312 0.195312)" d="M278.605 358.544L260.23 358.522C256.294 358.538 246.341 360.121 245.789 354.141C245.429 350.238 248.741 348.242 252.169 348.119L270.455 348.093C273.652 348.091 277.082 347.847 280.251 348.256C286.875 349.111 285.609 358.187 278.605 358.544Z"/>
	<path fill="#C7E5F9" transform="scale(0.195312 0.195312)" d="M135.842 392.325C116.384 410.775 93.1492 370.755 120.04 363.41C117.849 369.461 114.55 374.458 117.537 380.955C122.932 392.691 129.255 388.942 135.842 392.325Z"/>
	<path fill="#F19A97" transform="scale(0.195312 0.195312)" d="M90.5356 395.158C94.47 394.113 98.6167 393.793 102.67 394.236C111.691 406.199 126.685 410.512 139.689 401.963C144.826 407.549 147.992 414.754 148.598 422.31L132.303 422.324C129.717 422.326 126.946 422.538 124.378 422.31C108.727 421.925 94.8932 410.081 90.5356 395.158Z"/>
	<path fill="#E16967" transform="scale(0.195312 0.195312)" d="M73.8826 422.31C73.1519 409.76 78.5852 400.215 90.5356 395.158C94.8932 410.081 108.727 421.925 124.378 422.31C118.565 422.551 112.861 422.322 107.055 422.314L73.8826 422.31Z"/>
	<path fill="#27D6CE" transform="scale(0.195312 0.195312)" d="M237.022 422.31L237.022 398.465L280.013 398.465L280.013 422.31L237.022 422.31Z"/>
	<path fill="#548ACC" transform="scale(0.195312 0.195312)" d="M372.402 422.31C372.367 418.63 372.63 414.957 372.402 411.279L439.244 411.279C439.224 414.956 439.305 418.633 439.244 422.31C436.519 422.596 433.737 422.376 431.001 422.343L372.402 422.31Z"/>
</svg>
