<?xml version="1.0" encoding="utf-8" ?>
<svg xmlns="http://www.w3.org/2000/svg" xmlns:xlink="http://www.w3.org/1999/xlink" width="100" height="100">
	<path fill="#E5E9EB" transform="scale(0.195312 0.195312)" d="M144.182 287.52L219.041 287.505C236.248 287.493 235.828 287.155 235.825 302.341L235.834 364.507C235.835 373.024 239.473 392.087 229.789 394.003C227.101 394.421 224.225 394.058 221.505 394.029L167.264 394.009C159.905 394.013 152.405 394.329 145.069 393.847C134.642 393.161 137.383 382.797 137.386 375.278L137.401 313.468C137.395 305.731 134.083 288.423 144.182 287.52Z"/>
	<path fill="#3EB2F4" transform="scale(0.195312 0.195312)" d="M185.607 298.406C187.972 298.414 215.441 329.024 220.186 334.657C225.445 340.899 208.774 338.573 206.401 338.561L206.412 359.129C206.416 376.712 206.717 374.857 187.875 374.746C169.212 374.728 167.334 378.797 167.327 359.251L167.335 338.561C145.967 339.839 149.451 338.265 161.421 325.22L174.832 310.367C178.265 306.605 181.815 301.667 185.607 298.406Z"/>
	<path fill="#3EB2F4" transform="scale(0.195312 0.195312)" d="M244.562 153.688C248.95 153.602 253.341 153.662 257.729 153.688C258.229 157.045 257.995 160.173 257.729 163.528C263.094 166.262 267.576 166.31 272.813 170.551C274.761 167.961 277.191 165.272 279.946 163.528C283.448 165.959 287.182 169.584 289.681 173.055C287.068 175.278 284.059 177.349 281.76 179.892C284.061 184.279 285.923 188.626 287.636 193.279C291.263 193.368 294.889 193.192 298.509 193.279C298.712 197.669 298.51 202.085 298.509 206.48C297.203 206.545 295.938 206.601 294.631 206.48C292.272 206.647 289.995 206.576 287.636 206.48C286.005 211.374 283.872 215.706 281.76 220.377C284.216 222.481 286.918 224.529 288.891 227.11C287.54 229.223 281.941 234.697 279.946 236.618C277.539 234.33 274.916 232.067 272.813 229.498C267.85 232.027 263.409 234.732 257.729 235.176C257.743 236.902 258.339 243.778 257.149 244.777C255.551 246.118 246.313 246.057 244.339 244.96L244.249 244.52C243.73 241.569 244.138 238.163 244.249 235.176C239.9 233.717 236.222 231.453 232.137 229.498C230.213 232.009 227.742 234.424 225.458 236.618C221.829 233.266 218.386 229.451 215.082 225.777C217.177 223.277 219.704 221.047 222.053 218.781C219.746 214.841 218.187 209.478 216.243 206.48C212.962 206.479 209.681 206.607 206.401 206.48C205.869 202.348 206.242 197.459 206.401 193.279C209.698 193.173 212.945 193.18 216.243 193.279C217.156 188.379 219.451 184.068 222.053 179.892C219.549 177.76 217.035 175.73 215.082 173.055C217.604 169.945 222.048 165.639 225.458 163.528C226.923 166.113 229.231 168.295 231.155 170.551C235.031 166.83 244.343 165.01 244.562 163.528C244.663 160.247 244.407 156.965 244.562 153.688ZM255.092 218.781C279.924 212.254 273.338 177.787 248.927 180.572C223.122 184.784 231.231 223.486 255.092 218.781Z"/>
	<path fill="#4263C3" transform="scale(0.195312 0.195312)" d="M279.946 163.528C283.448 165.959 287.182 169.584 289.681 173.055C287.068 175.278 284.059 177.349 281.76 179.892C281.554 179.829 273.514 171.257 272.813 170.551C274.761 167.961 277.191 165.272 279.946 163.528Z"/>
	<path fill="#4263C3" transform="scale(0.195312 0.195312)" d="M222.053 218.781C224.118 222.009 228.726 227.704 232.137 229.498C230.213 232.009 227.742 234.424 225.458 236.618C221.829 233.266 218.386 229.451 215.082 225.777C217.177 223.277 219.704 221.047 222.053 218.781Z"/>
	<path fill="#4263C3" transform="scale(0.195312 0.195312)" d="M287.636 193.279C291.263 193.368 294.889 193.192 298.509 193.279C298.712 197.669 298.51 202.085 298.509 206.48C297.203 206.545 295.938 206.601 294.631 206.48C292.432 206.182 289.878 206.456 287.636 206.48C288.602 202.136 288.08 197.655 287.636 193.279Z"/>
	<path fill="#4263C3" transform="scale(0.195312 0.195312)" d="M244.249 235.176C248.772 235.392 253.209 235.612 257.729 235.176C257.743 236.902 258.339 243.778 257.149 244.777C255.551 246.118 246.313 246.057 244.339 244.96L244.249 244.52C244.378 241.424 244.257 238.277 244.249 235.176Z"/>
	<path fill="#4263C3" transform="scale(0.195312 0.195312)" d="M206.401 193.279C209.698 193.173 212.945 193.18 216.243 193.279C216.249 197.645 216.532 202.13 216.243 206.48C212.962 206.479 209.681 206.607 206.401 206.48C205.869 202.348 206.242 197.459 206.401 193.279Z"/>
	<path fill="#4263C3" transform="scale(0.195312 0.195312)" d="M281.76 220.377C284.216 222.481 286.918 224.529 288.891 227.11C287.54 229.223 281.941 234.697 279.946 236.618C277.539 234.33 274.916 232.067 272.813 229.498C275.049 226.775 278.942 222.343 281.76 220.377Z"/>
	<path fill="#4263C3" transform="scale(0.195312 0.195312)" d="M244.562 153.688C248.95 153.602 253.341 153.662 257.729 153.688C258.229 157.045 257.995 160.173 257.729 163.528C253.486 163.412 249.2 163.465 245.016 164.222L244.562 163.528C244.663 160.247 244.407 156.965 244.562 153.688Z"/>
	<path fill="#4263C3" transform="scale(0.195312 0.195312)" d="M225.458 163.528C226.923 166.113 229.231 168.295 231.155 170.551C227.322 172.972 224.731 176.294 222.053 179.892C219.549 177.76 217.035 175.73 215.082 173.055C217.604 169.945 222.048 165.639 225.458 163.528Z"/>
	<path fill="#4263C3" transform="scale(0.195312 0.195312)" d="M257.729 382.288C260.885 382.011 264.261 382.267 267.436 382.279L349.599 382.264C353.235 382.266 355.563 382.009 358.3 384.748C359.689 388.746 358.993 391.581 354.993 393.365C350.343 393.6 345.577 393.376 340.913 393.374L275.81 393.354C271.651 393.352 260.181 394.352 256.74 392.82C251.666 390.561 252.9 383.82 257.729 382.288Z"/>
	<path fill="#4263C3" transform="scale(0.195312 0.195312)" d="M257.246 313.251C261.389 312.985 265.724 313.233 269.883 313.237L332.518 313.247C339.215 313.239 345.957 313.066 352.649 313.244C360.32 313.449 361.799 322.126 354.993 324.162L269.486 324.175C264.785 324.186 250.89 325.943 253.428 317.225C254.065 315.037 255.341 314.23 257.246 313.251Z"/>
	<path fill="#4263C3" transform="scale(0.195312 0.195312)" d="M286.23 359.12L345.266 359.101C349.631 359.092 359.124 357.726 359.322 364.306C359.543 371.639 350.082 370.017 345.453 370.012L326.375 369.987L265.626 369.999C263.086 369.999 260.376 370.17 257.857 369.874C252.191 369.209 251.587 360.642 257.489 359.343C260.365 358.71 264.055 359.109 267.008 359.109L286.23 359.12Z"/>
	<path fill="#4263C3" transform="scale(0.195312 0.195312)" d="M312.56 336.137L339.768 336.134C343.873 336.122 354.016 334.722 357.339 337.4C360.974 340.328 359.437 346.14 354.885 346.787C350.054 347.474 342.008 346.989 336.908 346.984L300.125 346.979L272.098 346.98C268.632 346.979 258.089 348.21 255.47 345.845C252.194 342.885 252.55 336.955 257.411 336.327C262.713 335.642 269.952 336.132 275.426 336.131L312.56 336.137Z"/>
	<path fill="#2BD6AE" transform="scale(0.195312 0.195312)" d="M104.295 139.98L104.285 116.019C104.239 90.96 103.29 77.991 134.53 77.9588L378.633 77.8659C386.504 77.8633 395.133 85.4183 397.323 92.8835C399.294 99.6049 398.472 109.051 398.467 116.109L398.462 139.98C394.885 140.082 391.281 139.986 387.701 139.98L115.261 139.98L115.261 139.98C111.618 140.085 107.944 139.951 104.295 139.98ZM371.324 117.293C373.577 116.217 374.753 115.149 375.902 112.923C375.853 109.974 374.843 107.982 372.711 105.989C367.305 105.628 361.661 105.984 356.226 105.986L280.827 105.982C273.989 105.979 267.006 105.667 260.187 105.989C255.203 107.446 253.803 114.522 258.954 116.873C261.95 118.24 269.859 117.299 273.251 117.296L371.324 117.293ZM172.086 121.375C187.84 117.657 183.169 95.9102 169.178 98.0826C153.297 100.308 157.281 122.965 172.086 121.375ZM201.435 121.375C216.857 116.472 211.914 96.5366 197.889 98.0826C182.933 100.593 184.635 121.601 201.435 121.375ZM142.091 121.375C157.969 120.365 156.033 97.7808 142.091 98.0826C125.434 99.4439 126.864 120.874 142.091 121.375Z"/>
	<path fill="#4263C3" transform="scale(0.195312 0.195312)" d="M104.295 139.98L104.285 116.019C104.239 90.96 103.29 77.991 134.53 77.9588L378.633 77.8659C386.504 77.8633 395.133 85.4183 397.323 92.8835C399.294 99.6049 398.472 109.051 398.467 116.109L398.462 139.98C394.885 140.082 391.281 139.986 387.701 139.98C387.475 136.292 387.681 132.497 387.695 128.799L387.722 108.617C387.721 89.8422 386.117 88.2338 367.472 88.2329L133.465 88.2265C113.656 88.2606 115.216 93.72 115.257 111.316C115.279 120.862 115.053 130.442 115.261 139.98C111.618 140.085 107.944 139.951 104.295 139.98Z"/>
	<path fill="#F05A78" transform="scale(0.195312 0.195312)" d="M398.462 189.124L419.3 189.107C438.322 189.096 447.42 189.32 447.452 212.634L447.462 252.018C447.535 275.557 442.911 278.408 420.432 278.402L399.742 278.384C396.174 278.3 392.594 278.213 389.027 278.384L372.325 278.398C353.794 278.423 342.558 276.13 342.442 254.679L342.429 224.234C342.441 194.895 342.705 189.11 371.711 189.112L387.701 189.124C391.244 189.112 394.936 188.876 398.462 189.124Z"/>
	<path fill="#E5E9EB" transform="scale(0.195312 0.195312)" d="M395.617 225.777C400.59 220.841 412.96 205.008 416.191 220.377C414.099 224.725 407.441 229.911 403.882 233.517C407.229 237.152 423.405 249.238 412.21 253.25C405.904 254.622 399.427 245.348 395.617 241.3C375.592 262.569 375.514 246.958 376.893 244.455C378.863 240.876 384.73 236.709 387.701 233.517C383.605 228.907 367.972 217.87 381.693 213.789C385.573 213.951 392.991 222.994 395.617 225.777Z"/>
	<path fill="#4263C3" transform="scale(0.195312 0.195312)" d="M167.335 200.29C157.965 192.425 165.202 186.07 170.491 189.447C173.491 191.362 180.938 198.94 183.466 201.922C188.139 207.437 176.86 215.885 172.904 219.122C166.632 224.254 160.121 220.024 165.988 211.187C149.092 211.192 132.151 211.472 115.261 211.187L115.261 253.25C122.217 253.394 129.198 253.253 136.157 253.252L303.118 253.25C291.965 243.443 302.642 238.657 306.018 240.754C308.519 242.307 325.055 256.155 322.357 260.265C320.298 263.403 310.912 272.663 307.716 275.604C302.235 280.649 291.098 275.744 303.118 264.264L116.873 264.264L104.295 264.264C93.5932 264.299 84.4697 264.293 75.7602 257.113C52.9968 238.349 63.4249 202.955 96.1951 200.29C100.117 200.747 111.418 200.59 115.261 200.29L167.335 200.29ZM104.295 211.187C95.8336 210.983 88.0379 210.262 81.4483 216.52C72.6635 224.862 72.7596 238.826 81.179 247.415C87.9065 254.277 95.7711 252.898 104.295 253.25L104.295 211.187Z"/>
	<path fill="#96BAF5" transform="scale(0.195312 0.195312)" d="M104.295 211.187C107.922 211.136 111.645 211 115.261 211.187L115.261 253.25C111.609 253.391 107.942 253.582 104.295 253.25L104.295 211.187Z"/>
	<path fill="#96BAF5" transform="scale(0.195312 0.195312)" d="M104.295 264.264L116.873 264.264C116.168 264.384 115.445 264.316 114.988 264.886C115.538 298.013 115.261 331.175 115.261 364.312L115.262 392.183C115.23 412.384 111.854 417.395 135.52 417.378L326.37 417.365C343.284 417.365 360.259 417.676 377.166 417.441C390.824 417.251 389.034 404.865 389.036 395.05L389.008 290.326C388.981 286.375 388.721 282.322 389.027 278.384C392.594 278.213 396.174 278.3 399.742 278.384L399.755 393.698C399.763 415.714 399.056 428.335 373.331 428.536L132.85 428.574C103.95 428.66 104.264 415.255 104.285 392.725L104.295 264.264Z"/>
	<path fill="#2BD6AE" transform="scale(0.195312 0.195312)" d="M443.135 105.989C465.596 102.627 470.57 137.459 447.452 139.98C427.607 144.046 419.184 110.095 443.135 105.989ZM446.907 128.614C454.644 125.103 451.185 115.416 444.639 117.293C436.104 120.248 440.437 130.596 446.907 128.614Z"/>
	<path fill="#F05A78" transform="scale(0.195312 0.195312)" d="M63.2424 146.303C84.6009 144.561 91.5469 171.316 69.0249 179.892C47.0186 181.521 41.3938 152.349 63.2424 146.303ZM66.8774 168.762C70.2468 167.499 71.1548 165.739 71.8774 162.48C70.7446 158.848 69.1246 157.209 65.2828 157.278C58.2155 160.249 59.0918 168.638 66.8774 168.762Z"/>
	<path fill="#96BAF5" transform="scale(0.195312 0.195312)" d="M115.261 139.98L115.261 139.98L115.261 200.29C111.418 200.59 100.117 200.747 96.1951 200.29C98.7161 199.935 101.716 200.264 104.295 200.29L104.295 139.98C107.944 139.951 111.618 140.085 115.261 139.98Z"/>
	<path fill="#96BAF5" transform="scale(0.195312 0.195312)" d="M387.701 139.98C391.281 139.986 394.885 140.082 398.462 139.98L398.462 189.124C394.936 188.876 391.244 189.112 387.701 189.124C387.284 184.022 387.69 178.612 387.694 173.47L387.701 139.98Z"/>
</svg>
