<?xml version="1.0" encoding="utf-8" ?>
<svg xmlns="http://www.w3.org/2000/svg" xmlns:xlink="http://www.w3.org/1999/xlink" width="100" height="100">
	<path fill="#4E70AA" transform="scale(0.195312 0.195312)" d="M393.701 404.856C403.647 406.278 403.44 418.766 393.701 420.496C384.178 420.616 381.01 406.17 393.701 404.856Z"/>
	<path fill="#4E70AA" transform="scale(0.195312 0.195312)" d="M118.907 118.32C130.338 117.583 132.574 133.143 121.371 134.792C110.938 136.665 107.181 121.65 118.907 118.32Z"/>
	<path fill="#4E70AA" transform="scale(0.195312 0.195312)" d="M76.4455 246.497C88.7583 243.401 89.3341 265.368 80.2907 268.37C68.8457 271.218 66.478 248.955 76.4455 246.497Z"/>
	<path fill="#4E70AA" transform="scale(0.195312 0.195312)" d="M76.4455 279.07C90.0219 277.561 88.003 299.436 80.2907 301.704C76.5527 302.167 72.6233 301.658 71.332 297.545C69.6885 292.309 69.1833 281.034 76.4455 279.07Z"/>
	<path fill="#AAD8EA" transform="scale(0.195312 0.195312)" d="M117.98 334.567L118.21 334.545C127.533 333.732 126.857 342.877 126.849 349.417C126.839 356.58 126.479 363.861 126.818 371.004C130.379 368.315 133.318 364.916 136.472 361.78L152.274 346.021C154.938 343.311 157.554 340.109 160.629 337.883C164.941 334.762 172.364 337.973 172.504 343.441C172.648 349.063 163.974 355.093 160.407 358.574L142.689 376.125C140.997 377.795 139.355 379.517 137.7 381.223L159.429 381.202C163.039 381.201 167.025 380.867 170.596 381.436C179.047 382.783 177.826 394.601 169.693 395.741C159.337 397.192 132.637 396.314 121.662 395.917C111.067 395.534 112.151 387.695 112.149 379.765L112.146 348.342C112.134 345.134 111.954 341.908 112.149 338.706C113.761 336.76 115.635 335.476 117.98 334.567Z"/>
	<path fill="#AAD8EA" transform="scale(0.195312 0.195312)" d="M221.955 178.288C222.627 179.316 227.145 183.272 228.319 184.439C236.461 192.538 246.863 203.945 255.432 210.868C255.904 213.298 258.552 217.061 260.643 218.417C265.407 221.506 269.99 215.422 272.912 212.44L289.013 196.209C292.547 192.697 296.356 187.589 300.904 185.464C310.593 180.937 322.637 187.866 325.059 197.931C327.506 208.097 321.827 212.57 315.343 218.969L297.318 236.536C294.29 239.532 290.565 241.979 290.193 246.497C290.594 251.28 294.058 254.822 298.917 254.859L319.744 275.607C323.365 279.238 329.377 284.508 331.92 288.746C322.837 289.295 325.228 298.698 325.276 305.136L325.29 324.529L305.164 324.508C296.813 324.486 289.709 322.629 290.182 333.527L290.193 333.768C285.918 330.178 256.918 302.007 255.432 298.818C248.119 306.323 226.904 329.02 219.338 333.452C192.075 349.42 159.816 318.138 176.058 290.1C178.798 285.369 183.262 281.729 187.109 277.926L200.822 264.454C205.31 260.101 209.594 255.536 213.952 251.053C208.878 247.318 183.916 222.935 181.142 218.614C188.307 218.278 186.519 207.425 186.516 202.64L186.495 183.28L206.254 183.287C212.231 183.312 219.819 185.531 221.955 178.288Z"/>
	<path fill="#4E70AA" transform="scale(0.195312 0.195312)" d="M213.952 251.053C217.7 247.388 224.371 239.927 228.446 237.33C233.32 234.224 240.554 237.491 240.034 243.742C239.587 249.11 229.366 257.025 225.749 260.616L200.765 285.31C196.97 289.061 190.638 294.238 188.447 299.03C181.023 315.268 200.787 329.649 214.633 318.343C218.952 314.816 222.847 310.396 226.723 306.395L242.826 289.929C246.281 286.379 252.027 278.161 257.753 278.833C261.653 279.29 265.284 283.392 264.603 287.399C263.825 291.979 258.319 295.444 255.432 298.818C248.119 306.323 226.904 329.02 219.338 333.452C192.075 349.42 159.816 318.138 176.058 290.1C178.798 285.369 183.262 281.729 187.109 277.926L200.822 264.454C205.31 260.101 209.594 255.536 213.952 251.053Z"/>
	<path fill="#4E70AA" transform="scale(0.195312 0.195312)" d="M207.243 134.792L186.099 134.778C180.27 134.778 173.003 136.818 171.873 129.023C170.57 120.042 171.257 93.9171 171.649 84.1508C172.283 68.3843 185.989 69.9913 197.255 70.0009L410.178 70.0043C439.33 69.9794 441.034 71.0841 440.988 97.8908L440.991 313.588C441.023 335.44 442.127 339.53 418.828 339.505L387.998 339.51C372.441 339.648 374.094 337.139 374.124 324.011C374.139 317.097 374.217 310.178 374.143 303.264C362.863 303.265 351.554 303.437 340.276 303.264L340.291 323.434C340.309 340.899 339.373 339.624 323.704 339.51L305.229 339.494L305.229 374.17C311.401 374.252 317.579 374.172 323.752 374.155C343.374 374.099 340.295 376.528 340.297 393.293C340.298 403.11 342.926 426.074 335.754 433.02C330.329 438.274 323.786 437.409 316.864 437.403L140.109 437.372C122.554 437.372 104.908 437.778 87.3644 437.335C70.4318 436.907 70.991 425.139 70.9946 411.646L71.0048 341.221C71.0053 335.864 69.3556 317.45 73.0629 313.95C75.9528 311.221 81.4822 311.559 84.0302 314.579C87.0548 318.163 85.7574 326.208 85.7547 330.531L85.7361 422.25L325.29 422.25C325.515 411.308 325.286 400.32 325.29 389.373L307.33 389.381C286.242 389.375 290.187 385.967 290.181 367.284C290.178 356.118 290.046 344.933 290.193 333.768L290.182 333.527C289.709 322.629 296.813 324.486 305.164 324.508L325.29 324.529L325.276 305.136C325.228 298.698 322.837 289.295 331.92 288.746C343.163 288.109 354.64 288.745 365.908 288.744C385.505 288.744 388.975 283.945 388.974 305.517L388.96 324.529C401.282 324.833 413.755 324.635 426.083 324.529L426.083 110.765C426.084 102.148 426.445 93.3967 426.083 84.7976L186.495 84.7976L186.495 120.252L206.69 120.238C225.252 120.228 221.952 121.806 221.953 138.169L221.948 165.182C221.944 169.428 221.691 173.774 221.937 178.004L221.955 178.288C219.819 185.531 212.231 183.312 206.254 183.287L186.495 183.28L186.516 202.64C186.519 207.425 188.307 218.278 181.142 218.614C176.752 218.43 172.291 218.622 167.893 218.621L141.194 218.604C124.294 218.594 122.354 222.175 122.362 202.842L122.381 183.28L85.7361 183.28L85.7405 213.449C85.7509 218.446 87.3627 230.165 83.3506 233.984C80.3484 236.841 75.2048 236.648 72.4447 233.558C69.8064 230.604 70.9536 224.825 70.9847 221.215L71.002 190.262C70.8329 170.052 75.1758 168.676 94.7067 168.743L123.885 168.764C138.963 168.709 136.942 171.837 136.943 184.45L136.928 203.767C148.478 204.051 160.102 203.765 171.66 203.767L171.645 183.581C171.636 178.415 169.896 169.747 177.145 168.795C184.047 167.889 199.954 168.561 207.243 168.753L207.243 134.792Z"/>
	<path fill="#AAD8EA" transform="scale(0.195312 0.195312)" d="M342.312 110.245C345.532 110.095 348.816 110.235 352.043 110.234L384.143 110.23C391.597 110.233 399.036 109.609 399.282 119.17C399.555 129.787 400.555 157.454 399.059 167.257C398.101 173.53 389.657 174.811 385.574 170.538C382.595 167.418 383.735 160.384 383.735 156.499L383.754 137.753C380.316 140.535 377.356 143.964 374.143 147.012L361.277 159.875C357.225 163.957 351.203 172.558 344.692 167.502C336.412 161.071 346.427 153.448 350.905 148.896L363.809 135.566C366.849 132.483 370.166 129.515 372.934 126.189L373.215 125.848C370.328 125.623 367.376 125.82 364.478 125.836L350.376 125.847C346.965 125.874 343.158 126.547 340.004 124.881C333.104 121.238 335.165 111.793 342.312 110.245Z"/>
	<path fill="#4E70AA" transform="scale(0.195312 0.195312)" d="M255.432 210.868C256.185 206.862 259.253 204.626 262.024 201.885L270.458 193.519C283.628 180.434 293.384 165.582 314.427 169.72C331.913 173.159 343.806 191.703 340.164 209.019C337.653 220.958 327.002 228.695 318.641 236.721C312.238 242.867 305.927 249.411 298.917 254.859C294.058 254.822 290.594 251.28 290.193 246.497C290.565 241.979 294.29 239.532 297.318 236.536L315.343 218.969C321.827 212.57 327.506 208.097 325.059 197.931C322.637 187.866 310.593 180.937 300.904 185.464C296.356 187.589 292.547 192.697 289.013 196.209L272.912 212.44C269.99 215.422 265.407 221.506 260.643 218.417C258.552 217.061 255.904 213.298 255.432 210.868Z"/>
</svg>
