<?xml version="1.0" encoding="utf-8" ?>
<svg xmlns="http://www.w3.org/2000/svg" xmlns:xlink="http://www.w3.org/1999/xlink" width="100" height="100">
	<path fill="#4C5983" transform="scale(0.195312 0.195312)" d="M80.9805 154.198C81.8856 136.896 81.1192 116.371 80.8563 98.9586C80.678 87.1537 89.6994 78.0076 101.512 77.9424L402.453 78.0003C433.977 77.9573 431.746 88.5522 431.749 113.799L431.74 154.198L80.9805 154.198ZM159.934 107.328C150.454 108.276 146.64 118.722 153.592 123.929C157.663 126.978 165.892 125.984 170.805 125.773C179.266 125.433 183.397 115.29 176.466 109.594C172.528 106.357 164.798 107.272 159.934 107.328ZM199.601 107.328C190.119 108.282 187.004 118.847 193.705 123.871C197.717 126.88 205.965 126.04 210.812 125.773C218.865 125.547 222.898 115.256 216.712 109.731C212.762 106.204 204.603 107.252 199.601 107.328ZM120.746 107.328C112.13 108.334 107.694 119.019 115.388 124.182C119.167 126.717 125.841 125.806 130.292 125.773C138.677 125.722 143.606 116.052 137.199 109.976C133.281 106.26 125.793 107.295 120.746 107.328Z"/>
	<path fill="#CBCECF" transform="scale(0.195312 0.195312)" d="M431.74 154.198L431.748 399.405C431.748 424.3 424.152 428.227 400.208 428.253L106.644 428.25C84.7183 428.098 80.9342 420.944 80.9629 400.701L80.9752 171.521C80.9652 165.894 80.294 159.762 80.9805 154.198L431.74 154.198Z"/>
	<path fill="#6799DC" transform="scale(0.195312 0.195312)" d="M111.527 183.232L160.893 183.234C168.675 183.235 176.685 182.806 184.443 183.232L184.421 198.394C184.399 201.496 184.223 204.673 184.443 207.763C181.391 208.629 140.437 207.886 135.974 207.763C135.969 222.661 135.467 238.267 136.18 253.081L136.47 253.214L136.163 253.339L136.041 253.895L135.974 253.915C133.348 253.67 130.523 253.887 127.877 253.891L111.527 253.915C111.917 246.305 111.532 238.483 111.53 230.853L111.527 183.232Z"/>
	<path fill="#6799DC" transform="scale(0.195312 0.195312)" d="M375.525 327.759L400.447 327.759C400.73 332.124 400.46 336.543 400.451 340.919L400.466 387.814C400.471 391.227 400.734 394.86 400.447 398.246L327.03 398.246L327.055 381.62C327.071 379.041 327.406 376.197 327.03 373.662L375.525 373.662L375.525 327.759Z"/>
	<path fill="#FEFEFE" transform="scale(0.195312 0.195312)" d="M184.443 183.232L400.447 183.232L400.447 327.759L375.525 327.759L375.525 373.662L327.03 373.662C326.805 376.289 327.002 379.094 327.006 381.74L327.03 398.246L111.527 398.246L111.527 253.915C119.652 253.909 127.861 254.214 135.974 253.915L136.041 253.895L136.163 253.339L136.47 253.214L136.18 253.081C135.467 238.267 135.969 222.661 135.974 207.763C140.437 207.886 181.391 208.629 184.443 207.763C184.645 199.599 184.428 191.402 184.443 183.232Z"/>
	<path fill="#01A8C3" transform="scale(0.195312 0.195312)" d="M266.95 199.488L332.512 199.484C344.724 199.534 345.761 206.918 345.704 217.379L345.647 230.803C345.633 245.096 346.045 259.49 345.604 273.77C345.087 290.509 325.628 289.661 323.468 278.606C322.755 274.956 322.984 271.021 322.983 267.312L322.983 253.227C322.982 248.284 322.539 243.059 322.952 238.158L322.982 237.816C318.01 241.615 313.654 246.593 309.153 250.952L230.774 328.831C222.534 337.023 214.127 345.061 206.012 353.38C212.306 353.34 245.087 352.772 248.476 354.016C258.993 357.877 256.514 371.503 247.214 375.22C241.507 377.105 231.009 376.173 224.969 376.176L183.105 376.177C163.076 376.172 166.212 369.937 166.213 352.112L166.191 307.889C166.189 304.367 165.919 300.619 166.538 297.148C168.742 284.784 187.191 285.111 189.834 297.251C190.797 301.672 190.277 306.797 190.277 311.331L190.262 335.611L290.379 236.866C295.415 231.953 300.632 227.11 305.313 221.855C296.366 221.596 287.34 221.859 278.385 221.868C271.115 221.875 259.592 223.495 257.512 213.973C256.027 207.182 259.876 200.586 266.95 199.488Z"/>
</svg>
