<?xml version="1.0" encoding="utf-8" ?>
<svg xmlns="http://www.w3.org/2000/svg" xmlns:xlink="http://www.w3.org/1999/xlink" width="100" height="100">
	<defs>
		<linearGradient id="gradient_0" gradientUnits="userSpaceOnUse" x1="432.81866" y1="252.17882" x2="78.252861" y2="256.80396">
			<stop offset="0" stop-color="#4C58E2"/>
			<stop offset="1" stop-color="#2EA2F1"/>
		</linearGradient>
	</defs>
	<path fill="url(#gradient_0)" transform="scale(0.195312 0.195312)" d="M274.247 76.408C302.979 76.2715 314.706 85.7368 314.647 115.35L314.627 197.25L394.787 197.233C417.906 197.202 433.095 205.188 433.125 230.413L433.126 385.312C433.131 392.419 433.659 400.082 432.389 407.085C427.98 431.404 408.238 432.826 389.165 432.817L237.875 432.805C208.221 432.935 197.995 423.11 198.045 393.13L198.066 328.24C198.111 313.208 200.249 313.152 185.815 313.337C169.727 313.543 153.607 313.315 137.515 313.322L121.181 313.335C115.526 313.338 109.662 313.598 104.11 312.357C87.8572 308.726 78.2569 293.892 78.231 277.678L78.2315 121.923C78.2222 115.733 77.6689 108.945 78.6169 102.844C82.6236 77.0586 103.958 76.3983 123.715 76.401L274.247 76.408ZM112.985 102.238C108.438 102.267 105.031 102.949 104.605 108.15C104 115.546 104.467 124.187 104.468 131.692L104.47 245.621C104.47 256.99 104.099 268.495 104.508 279.85C104.86 289.661 113.431 287.792 120.542 287.762L190.739 287.76C213.322 287.733 223.54 282.736 223.536 309.08L223.521 392.94C223.522 398.703 222.006 407.472 229.962 408.023C235.572 408.411 241.471 408.005 247.109 408.013L400.469 408.022C411.071 406.738 408.261 394.331 408.244 385.973L408.239 246.048C408.234 225.476 412.944 222.094 390.543 222.234L321.173 222.245C299.106 222.243 288.329 226.738 288.377 199.782L288.393 115.732C288.388 111.803 289.119 105.846 285.229 103.366C281.299 100.86 251.625 102.231 245.377 102.232L120.545 102.216C118.045 102.21 115.476 102.057 112.985 102.238Z"/>
	<defs>
		<linearGradient id="gradient_1" gradientUnits="userSpaceOnUse" x1="376.4729" y1="256.25806" x2="136.06706" y2="253.50385">
			<stop offset="0" stop-color="#4866E4"/>
			<stop offset="1" stop-color="#3E8AEC"/>
		</linearGradient>
	</defs>
	<path fill="url(#gradient_1)" transform="scale(0.195312 0.195312)" d="M167.633 134.863L184.481 134.847C188.788 134.846 193.512 134.489 197.723 135.463C207.782 137.789 210.082 150.541 203.308 157.46C198.139 162.74 188.385 161.326 181.591 161.297C183.514 163.66 185.831 165.821 187.959 168.001L316.636 297.477C327.916 308.456 337.657 318.323 348.247 329.818C348.802 323.082 346.482 315.164 351.144 309.465C359.662 299.053 375.636 305.367 376.004 318.405C376.246 326.962 377.053 357.8 375.569 364.768C372.648 378.483 355.848 375.272 345.645 375.237L329.685 375.25C324.865 375.252 319.327 375.711 314.641 374.487C303.589 371.599 296.774 348.215 323.478 348.432L331.754 348.448C327.122 343.411 321.848 338.76 316.967 333.934L162.732 180.312C162.769 186.84 164.049 195.437 159.416 200.653C154.715 205.946 146.509 206.223 141.311 201.477C134.553 195.305 137.04 175.189 137.012 166.332C136.925 138.306 135.007 134.783 167.633 134.863Z"/>
</svg>
