<?xml version="1.0" encoding="utf-8" ?>
<svg xmlns="http://www.w3.org/2000/svg" xmlns:xlink="http://www.w3.org/1999/xlink" width="100" height="100">
	<path fill="#48557B" transform="scale(0.195312 0.195312)" d="M178.256 99.074C178.25 94.4889 177.675 83.4201 178.559 79.5915C180.238 72.3222 189.988 69.5133 195.328 74.8754C200.658 80.2277 198.041 92.2414 198.297 99.074C198.286 100.567 198.414 102.155 198.297 103.635C198.083 108.935 199.507 115.555 195.03 119.537C191.094 123.037 184.186 122.295 180.917 118.239C177.91 114.509 178.904 108.166 178.256 103.635C178.557 102.166 178.585 100.535 178.256 99.074Z"/>
	<path fill="#48557B" transform="scale(0.195312 0.195312)" d="M250.256 99.074C250.303 93.9106 249.548 83.2032 250.769 78.7476C253.497 68.7892 268.269 70.5483 270.294 80.1945C271.252 84.7543 270.318 94.0069 270.487 99.074C270.469 100.595 270.441 102.114 270.487 103.635C270.56 108.58 271.792 114.093 268.372 118.277C264.808 122.637 258.272 123.111 254.035 119.462C249.463 115.525 250.6 109.036 250.256 103.635C250.392 102.125 250.292 100.588 250.256 99.074Z"/>
	<path fill="#48557B" transform="scale(0.195312 0.195312)" d="M105.662 99.074C105.982 93.3988 104.744 84.4914 106.111 79.3479C108.635 69.8579 123.112 69.7235 125.669 79.2631C126.631 82.8556 126.097 94.65 126.104 99.074C126.109 100.804 126.143 102.54 126.104 104.27C125.461 109.942 127.11 115.524 121.963 119.639C117.568 123.151 111.178 122.394 107.84 117.799C105.241 114.221 105.694 109.408 105.662 105.215C105.416 103.218 105.651 101.093 105.662 99.074Z"/>
	<path fill="#5DB9E9" transform="scale(0.195312 0.195312)" d="M58.072 112.417C58.829 105.464 64.5813 99.6937 71.6225 99.074C74.5722 99.4567 77.6762 99.0348 80.6551 99.074L80.6435 136.85C80.6487 142.758 81.2117 149.003 80.6551 154.856L143.86 154.857C154.336 154.856 164.874 154.59 175.342 154.856C170.25 155.11 165.05 154.864 159.947 154.86L96.7579 154.864C91.4183 154.866 85.9802 155.101 80.6551 154.856C80.6467 162.463 80.541 170.085 80.6551 177.691L80.6482 347.895C80.6451 360.124 77.8763 381.799 95.3482 384.084C100.642 384.776 108.245 384.264 113.723 384.256L277.445 384.256C282.021 393.206 287.433 398.315 291.671 405.732C287.418 405.961 282.952 405.727 278.674 405.73L82.5229 405.744C74.9146 405.746 67.122 406.956 61.6273 400.396C56.1628 393.871 58.0613 379.612 58.0702 371.575L58.0676 124.919C58.0589 120.826 57.7108 116.482 58.072 112.417Z"/>
	<path fill="#48557B" transform="scale(0.195312 0.195312)" d="M58.072 112.417C58.829 105.464 64.5813 99.6937 71.6225 99.074C74.5722 99.4567 77.6762 99.0348 80.6551 99.074L80.6435 136.85C80.6487 142.758 81.2117 149.003 80.6551 154.856L58.072 154.856L58.0784 126.706C58.0828 121.966 58.3109 117.146 58.072 112.417Z"/>
	<path fill="#596C92" transform="scale(0.195312 0.195312)" d="M321.539 93.8532C321.499 88.4256 320.277 78.9274 324.375 74.873C329.863 69.4427 339.583 72.5403 341.384 79.9538C342.201 83.3149 341.588 94.6828 341.598 99.074C343.339 100.116 375.202 97.6716 382.421 99.9458C393.189 103.338 390.839 114.633 390.84 123.201L390.862 154.856L390.862 154.856C367.005 155.128 343.11 154.854 319.249 154.854L175.342 154.856C164.874 154.59 154.336 154.856 143.86 154.857L80.6551 154.856C81.2117 149.003 80.6487 142.758 80.6435 136.85L80.6551 99.074C77.6762 99.0348 74.5722 99.4567 71.6225 99.074C75.5443 98.8113 79.5591 99.0582 83.4945 99.0649L105.662 99.074C105.651 101.093 105.416 103.218 105.662 105.215C105.694 109.408 105.241 114.221 107.84 117.799C111.178 122.394 117.568 123.151 121.963 119.639C127.11 115.524 125.461 109.942 126.104 104.27C126.143 102.54 126.109 100.804 126.104 99.074L178.256 99.074C178.585 100.535 178.557 102.166 178.256 103.635C178.904 108.166 177.91 114.509 180.917 118.239C184.186 122.295 191.094 123.037 195.03 119.537C199.507 115.555 198.083 108.935 198.297 103.635C198.414 102.155 198.286 100.567 198.297 99.074C215.604 98.8552 232.946 99.0753 250.256 99.074C250.292 100.588 250.392 102.125 250.256 103.635C250.6 109.036 249.463 115.525 254.035 119.462C258.272 123.111 264.808 122.637 268.372 118.277C271.792 114.093 270.56 108.58 270.487 103.635C270.441 102.114 270.469 100.595 270.487 99.074C272.367 98.8783 274.398 99.0448 276.294 99.0538L321.539 99.074L321.539 93.8532Z"/>
	<path fill="#5DB9E9" transform="scale(0.195312 0.195312)" d="M126.104 104.27C141.159 116.112 119.796 137.775 105.791 125.326C99.9652 120.148 99.238 106.354 105.415 105.1L105.662 105.215C105.694 109.408 105.241 114.221 107.84 117.799C111.178 122.394 117.568 123.151 121.963 119.639C127.11 115.524 125.461 109.942 126.104 104.27Z"/>
	<path fill="#5DB9E9" transform="scale(0.195312 0.195312)" d="M270.487 103.635C277.57 108.526 277.387 118.635 271.313 124.442C256.474 138.627 235.71 116.21 250.256 103.635C250.6 109.036 249.463 115.525 254.035 119.462C258.272 123.111 264.808 122.637 268.372 118.277C271.792 114.093 270.56 108.58 270.487 103.635Z"/>
	<path fill="#5DB9E9" transform="scale(0.195312 0.195312)" d="M321.539 103.635C321.494 108.526 320.52 115.261 324.341 119.047C328.412 123.079 334.877 123.047 338.858 118.905C342.707 114.902 341.121 108.67 341.598 103.635C349.218 108.64 348.176 120.281 341.419 125.617C325.721 138.012 306.414 114.24 321.539 103.635Z"/>
	<path fill="#5DB9E9" transform="scale(0.195312 0.195312)" d="M198.297 103.635C209.572 112.306 202.527 127.583 190.153 128.965C171.938 130.999 169.592 107.241 178.256 103.635C178.904 108.166 177.91 114.509 180.917 118.239C184.186 122.295 191.094 123.037 195.03 119.537C199.507 115.555 198.083 108.935 198.297 103.635Z"/>
	<path fill="#48557B" transform="scale(0.195312 0.195312)" d="M321.539 93.8532C321.499 88.4256 320.277 78.9274 324.375 74.873C329.863 69.4427 339.583 72.5403 341.384 79.9538C342.201 83.3149 341.588 94.6828 341.598 99.074L341.598 103.635C341.121 108.67 342.707 114.902 338.858 118.905C334.877 123.047 328.412 123.079 324.341 119.047C320.52 115.261 321.494 108.526 321.539 103.635C322.112 101.586 322.057 95.9127 321.539 93.8532Z"/>
	<defs>
		<linearGradient id="gradient_0" gradientUnits="userSpaceOnUse" x1="271.90717" y1="368.45319" x2="449.33224" y2="315.09894">
			<stop offset="0" stop-color="#2E5BA8"/>
			<stop offset="1" stop-color="#3C89DD"/>
		</linearGradient>
	</defs>
	<path fill="url(#gradient_0)" transform="scale(0.195312 0.195312)" d="M351.838 247.728C355.718 248.167 359.628 247.605 363.525 247.677C373.271 247.859 381.489 249.218 390.862 251.769C443.886 272.908 467.198 326.9 445.901 379.865C422.978 436.874 346.033 453.724 300.649 413.974C297.658 411.355 294.986 407.89 291.671 405.732C287.433 398.315 282.021 393.206 277.445 384.256C275.758 380.608 274.18 376.899 272.916 373.081C270.739 363.124 267.855 354.767 267.947 344.163C267.962 342.441 268.324 340.469 267.921 338.795C268.309 338.35 270.198 321.39 270.487 319.507C273.183 314.385 274.849 308.588 277.256 303.293C279.985 297.29 283.593 291.957 286.978 286.327C296.639 272.461 307.096 265.169 321.539 256.978C325.669 255.119 329.934 253.163 334.287 251.901C337.224 251.049 350.784 248.574 351.838 247.728Z"/>
	<path fill="#FEFEFE" transform="scale(0.195312 0.195312)" d="M295.061 352.358C284.114 351.742 279.847 333.399 300.553 335.665L301.037 335.966C301.235 337.541 301.574 350.468 301.199 351.772C299.148 352.085 297.133 352.259 295.061 352.358Z"/>
	<path fill="#FEFEFE" transform="scale(0.195312 0.195312)" d="M381.413 394.269C382.781 394.898 383.896 395.643 385.084 396.551C396.841 413.473 369.024 417.009 370.32 402.771C370.869 401.642 370.485 400.11 371.135 398.847C372.867 395.478 377.92 395.459 381.132 394.368L381.413 394.269Z"/>
	<path fill="#C7CED6" transform="scale(0.195312 0.195312)" d="M333.709 290.194C332.829 291.976 330.995 293.241 329.728 294.704C279.148 353.072 352.962 424.178 401.48 382.336C401.757 383.304 402.026 384.272 402.355 385.224C396.066 390.569 391.821 392.571 385.084 396.551C383.896 395.643 382.781 394.898 381.413 394.269L381.132 394.368C377.92 395.459 372.867 395.478 371.135 398.847C370.485 400.11 370.869 401.642 370.32 402.771C370.025 402.614 352.961 402.579 348.969 401.841C347.486 407.027 345.221 411.598 339.552 412.582C336.666 411.715 333.966 410.324 331.975 407.995C327.546 408.119 314.262 391.622 317.374 386.501C314.986 388.05 311.911 390.528 309.014 390.66C302.312 390.968 297.41 381.736 303.478 375.883C299.432 367.911 299.733 359.299 296.714 352.662C296.136 352.614 295.6 352.587 295.061 352.358C297.133 352.259 299.148 352.085 301.199 351.772C301.574 350.468 301.235 337.541 301.037 335.966L300.553 335.665C302.06 335.299 302.221 329.17 302.551 327.625C303.5 323.177 305.018 319.084 307.165 315.08C304.278 312.624 300.585 310.69 299.85 306.634C299.013 302.018 302.618 296.821 307.374 296.356C311.326 295.969 314.503 299.153 317.374 301.422C321.612 297.748 328.189 291.419 333.709 290.194Z"/>
	<path fill="#3679CE" transform="scale(0.195312 0.195312)" d="M301.199 351.772C301.966 358.992 304.626 365.937 308.335 372.132C306.739 373.414 305.115 374.653 303.478 375.883C299.432 367.911 299.733 359.299 296.714 352.662C296.136 352.614 295.6 352.587 295.061 352.358C297.133 352.259 299.148 352.085 301.199 351.772Z"/>
	<path fill="#3679CE" transform="scale(0.195312 0.195312)" d="M317.374 386.501L318.162 385.224C323.158 389.996 327.863 392.54 333.061 396.551C330.791 400.63 329.066 403.847 331.975 407.995C327.546 408.119 314.262 391.622 317.374 386.501Z"/>
	<path fill="#FEFEFE" transform="scale(0.195312 0.195312)" d="M370.32 282.276C372.447 272.112 381.669 268.484 386.668 276.865C389.161 281.046 386.935 285.451 385.084 289.34C392.499 292.896 397.626 296.51 403.331 302.427C414.278 285.809 431.726 308.399 412.366 315.08C416.063 321.869 418.735 329.326 419.351 337.075C434.21 326.965 444.111 356.021 419.351 351.772C417.078 359.352 415.109 365.072 411.343 372.132C414.655 374.099 418.601 375.781 419.607 379.878C421.889 389.172 409.446 394.909 402.355 385.224C402.026 384.272 401.757 383.304 401.48 382.336C352.962 424.178 279.148 353.072 329.728 294.704C330.995 293.241 332.829 291.976 333.709 290.194C332.099 286.783 329.135 282.705 330.491 278.797C332.067 274.257 337.679 271.489 342.201 273.206C346.481 274.832 347.612 279.915 348.969 283.801C355.492 281.663 363.504 282.213 370.32 282.276Z"/>
	<path fill="#48557B" transform="scale(0.195312 0.195312)" d="M372.12 338.795C376.074 338.974 390.945 337.732 393.299 340.157C400.868 347.955 372.621 345.743 372.12 345.741C371.996 344.229 370.988 339.928 372.12 338.795Z"/>
	<path fill="#48557B" transform="scale(0.195312 0.195312)" d="M357.525 327.308C357.514 324.393 356.758 309.238 358.377 307.603C366.485 299.42 363.647 330.937 363.551 332.009C361.54 332.141 359.503 332.65 357.525 333.033C357.636 331.659 358.2 328.515 357.525 327.308Z"/>
	<path fill="#3679CE" transform="scale(0.195312 0.195312)" d="M357.525 327.308C358.2 328.515 357.636 331.659 357.525 333.033C359.503 332.65 361.54 332.141 363.551 332.009L363.876 332.21C365.521 333.217 367.32 333.773 368.823 335.043C369.998 336.036 370.793 338.286 372.12 338.795C370.988 339.928 371.996 344.229 372.12 345.741C370.285 352.928 362.555 356.853 355.912 353.116C347.468 348.366 347.762 335.488 357.525 333.033L357.525 327.308Z"/>
	<path fill="#A7DBF9" transform="scale(0.195312 0.195312)" d="M390.862 154.856L390.862 154.856L390.862 251.769C381.489 249.218 373.271 247.859 363.525 247.677C359.628 247.605 355.718 248.167 351.838 247.728C350.784 248.574 337.224 251.049 334.287 251.901C329.934 253.163 325.669 255.119 321.539 256.978C307.096 265.169 296.639 272.461 286.978 286.327C283.593 291.957 279.985 297.29 277.256 303.293C274.849 308.588 273.183 314.385 270.487 319.507C270.198 321.39 268.309 338.35 267.921 338.795C268.324 340.469 267.962 342.441 267.947 344.163C267.855 354.767 270.739 363.124 272.916 373.081C274.18 376.899 275.758 380.608 277.445 384.256L113.723 384.256C108.245 384.264 100.642 384.776 95.3482 384.084C77.8763 381.799 80.6451 360.124 80.6482 347.895L80.6551 177.691C80.541 170.085 80.6467 162.463 80.6551 154.856C85.9802 155.101 91.4183 154.866 96.7579 154.864L159.947 154.86C165.05 154.864 170.25 155.11 175.342 154.856L319.249 154.854C343.11 154.854 367.005 155.128 390.862 154.856Z"/>
	<path fill="#596C92" transform="scale(0.195312 0.195312)" d="M267.921 338.795C268.324 340.469 267.962 342.441 267.947 344.163C267.855 354.767 270.739 363.124 272.916 373.081C270.334 373.335 266.763 373.334 265.219 370.83C264.185 369.153 264.092 343.559 264.794 341.292C265.209 339.95 266.764 339.352 267.921 338.795Z"/>
	<path fill="#596C92" transform="scale(0.195312 0.195312)" d="M286.978 286.327C283.593 291.957 279.985 297.29 277.256 303.293C274.849 308.588 273.183 314.385 270.487 319.507C261.686 318.104 264.531 307.251 264.484 299.799C264.458 295.723 262.581 287.798 268.193 286.518C271.491 285.765 282.872 286.318 286.978 286.327Z"/>
	<path fill="#596C92" transform="scale(0.195312 0.195312)" d="M321.539 256.978C321.526 252.235 320.85 239.004 322.196 235.068C324.925 233.051 349.474 233.57 351.164 234.873C352.404 235.829 351.839 245.73 351.838 247.728C350.784 248.574 337.224 251.049 334.287 251.901C329.934 253.163 325.669 255.119 321.539 256.978Z"/>
	<path fill="#596C92" transform="scale(0.195312 0.195312)" d="M100.924 286.94C107.341 286.749 124.91 285.102 128.33 290.194C128.499 297.063 130.308 314.096 126.104 318.991C125.044 319.069 123.993 319.023 122.933 318.991L108.571 319.017C103.83 319.022 95.9018 320.311 95.3554 313.606C94.7949 306.728 91.7242 287.583 100.924 286.94Z"/>
	<path fill="#596C92" transform="scale(0.195312 0.195312)" d="M268.513 232.837C274.338 232.839 295.478 230.231 297.229 236.462C297.95 239.028 297.731 257.779 297.438 261.215C297.202 263.98 295.707 265.165 293.03 265.785C289.044 265.826 268.887 266.426 266.672 264.99C262.598 262.349 264.528 250.752 264.539 246.476C264.55 242.32 262.782 233.9 268.513 232.837Z"/>
	<path fill="#596C92" transform="scale(0.195312 0.195312)" d="M155.956 286.94C161.546 286.727 174.992 286.328 180.352 287.098C186.42 287.969 184.857 295.16 184.854 299.661L184.824 315.765C183.531 317.646 182.411 318.52 180.163 318.991C171.348 318.987 162.496 319.199 153.686 318.991C148.417 314.518 150.459 290.101 151.916 288.404C153.033 287.103 154.338 287.045 155.956 286.94Z"/>
	<path fill="#596C92" transform="scale(0.195312 0.195312)" d="M213.878 286.327L227.707 286.308C232.035 286.31 240.808 285.02 241.298 291.203C241.828 297.886 241.428 309.04 241.219 315.765C239.868 317.895 238.872 318.626 236.249 318.991L220.703 319.026C216.492 319.042 208.549 320.564 207.823 314.554C207.251 309.811 207.397 295.312 207.92 290.887C208.351 287.25 210.494 286.706 213.878 286.327Z"/>
	<path fill="#596C92" transform="scale(0.195312 0.195312)" d="M100.924 338.795C104.616 338.676 123.677 338.303 125.729 339.458C130.458 342.121 128.674 362.921 128.292 367.907C128.063 370.898 126.996 372.253 124.002 373.081C119.605 373.184 100.139 373.731 97.5969 372.079C93.3813 369.339 94.861 348.317 95.401 343.806C95.7947 340.517 97.7774 339.34 100.924 338.795Z"/>
	<path fill="#596C92" transform="scale(0.195312 0.195312)" d="M213.878 338.795L229.175 338.756C233.972 338.746 240.819 337.249 241.181 343.941C241.497 349.8 241.775 362.662 241.028 368.31C240.518 372.164 238.818 372.96 235.063 373.081L221.033 373.109C217.176 373.142 208.832 374.59 207.955 369.064C207.251 364.628 207.368 348.404 207.815 343.612C208.191 339.58 210.047 339.031 213.878 338.795Z"/>
	<path fill="#596C92" transform="scale(0.195312 0.195312)" d="M154.499 338.795C159.956 338.512 182.056 336.611 184.422 342C185.215 343.806 187.707 370.41 181.087 373.081C175.579 373.156 170.065 373.099 164.556 373.093C160.306 373.088 151.309 374.948 150.782 368.628C150.255 362.3 147.965 341.53 154.499 338.795Z"/>
	<path fill="#FEFEFE" transform="scale(0.195312 0.195312)" d="M333.061 169.035C335.887 168.79 338.776 168.744 341.598 169.035C363.418 170.498 375.798 202.972 356.947 219.317C327.4 244.938 290.83 199.634 319.706 175.814C323.655 172.557 328.332 170.814 333.061 169.035Z"/>
	<path fill="#71BD98" transform="scale(0.195312 0.195312)" d="M350.152 181.95C351.582 182.547 357.011 188.921 358.489 190.502C349.948 198.124 341.801 206.392 333.709 214.491C331.405 211.534 328.656 208.997 325.921 206.45C323.169 203.941 320.292 201.554 318.162 198.47C320.502 195.683 323.103 192.807 325.921 190.502C328.41 193.244 331.108 195.832 333.709 198.47C338.573 192.888 344.524 186.775 350.152 181.95Z"/>
	<defs>
		<linearGradient id="gradient_1" gradientUnits="userSpaceOnUse" x1="122.17403" y1="240.22278" x2="212.43948" y2="199.22668">
			<stop offset="0" stop-color="#ED6F6F"/>
			<stop offset="1" stop-color="#FB9D8B"/>
		</linearGradient>
	</defs>
	<path fill="url(#gradient_1)" transform="scale(0.195312 0.195312)" d="M173.24 169.035C173.744 170.968 173.248 178.762 173.24 181.355C179.746 182.283 185.038 184.429 190.576 187.949C193.96 185.609 196.498 182.187 199.722 179.635C202.537 182.059 205.291 184.687 207.748 187.475C205.092 190.515 201.823 192.966 199.722 196.459C202.677 203.67 205.993 206.17 206.653 215.014C210.51 215.074 214.377 215.017 218.236 215.014L218.236 226.272L206.653 226.272C205.596 233.329 201.908 238.694 198.297 244.617C201.204 247.497 203.983 250.572 206.653 253.674C204.004 256.413 201.006 258.847 198.297 261.545C195.218 259.125 192.726 256.201 190.576 252.939C184.168 256.515 180.256 258.004 173.24 259.93L173.24 270.789C169.403 270.713 165.561 270.769 161.723 270.789L161.723 259.93C154.775 258.619 149.314 257.076 143.469 252.939C140.801 255.718 138.023 258.423 135.751 261.545C133.115 258.35 130.127 255.644 127.009 252.939C129.459 250.008 132.252 247.336 134.936 244.617C130.376 239.303 127.863 233.187 127.009 226.272C123.584 226.3 120.16 226.353 116.736 226.272L116.736 214.491L127.009 214.491C128.715 207.585 130.583 201.581 135.751 196.459C132.719 193.325 129.534 190.171 126.104 187.475C128.731 184.298 131.183 181.475 134.936 179.635C137.968 183.035 141.373 186.187 144.596 189.411C150.068 185.285 155.228 183.274 161.723 181.355C161.716 178.621 161.229 171.448 162.206 169.205L162.937 169.035C166.094 169.44 170.077 169.379 173.24 169.035Z"/>
	<path fill="#FEFEFE" transform="scale(0.195312 0.195312)" d="M165.181 192.589C199.449 189.38 207.996 240.821 171.811 246.241C132.439 247.783 131.886 196.87 165.181 192.589Z"/>
	<path fill="#3679CE" transform="scale(0.195312 0.195312)" d="M178.256 205.178C179.839 206.155 181.399 208.318 182.736 209.689C176.725 215.241 170.5 221.063 165.181 227.283C163.525 225.906 161.954 224.428 160.368 222.971C166.48 217.198 172.533 211.337 178.256 205.178Z"/>
</svg>
