<?xml version="1.0" encoding="utf-8" ?>
<svg xmlns="http://www.w3.org/2000/svg" xmlns:xlink="http://www.w3.org/1999/xlink" width="100" height="100">
	<path fill="#4A6B9F" transform="scale(0.195312 0.195312)" d="M281.567 230.595L315.314 230.595L315.314 245.112C310.759 241.092 307.37 240.793 301.596 240.289C298.228 242.438 294.885 246.331 291.993 247.913C287.709 246.166 284.921 247.841 281.567 250.704L281.567 230.595Z"/>
	<path fill="#7EDCE2" transform="scale(0.195312 0.195312)" d="M291.993 240.289C295.199 240.363 298.396 240.228 301.596 240.289C298.228 242.438 294.885 246.331 291.993 247.913L291.993 240.289Z"/>
	<path fill="#4A6B9F" transform="scale(0.195312 0.195312)" d="M234.487 315.002C232.229 313.591 231.714 312.125 231.624 309.446C231.469 304.855 230.921 287.495 231.8 283.435C232.723 279.169 241.777 280.455 244.813 280.46L262.687 280.481C256.75 290.662 261.566 296.426 260.323 301.316L259.788 301.465C259.194 301.243 258.704 301.233 258.081 301.229L257.827 301.228C255.79 302.079 255.027 303.626 254.294 305.549C253.163 308.562 252.477 311.886 251.649 315.002C246.531 315.216 239.578 315.365 234.487 315.002Z"/>
	<path fill="#70BCF5" transform="scale(0.195312 0.195312)" d="M241.07 290.2L257.827 290.2C257.867 293.805 257.362 297.677 257.827 301.228C255.79 302.079 255.027 303.626 254.294 305.549C250.692 305.049 244.886 305.539 241.07 305.549L241.07 290.2Z"/>
	<path fill="#4A6B9F" transform="scale(0.195312 0.195312)" d="M185.36 280.481C188.506 280.279 191.75 280.46 194.908 280.468L209.95 280.368C212.953 280.352 214.362 280.747 216.53 282.901C217.127 287.597 216.97 305.357 216.535 310.293C216.253 313.492 214.871 314.552 211.696 315.002L194.239 315.018C189.225 315.047 181.523 317.025 180.719 310.808C180.145 306.376 180.188 288.886 180.673 284.747C181.019 281.789 182.46 280.737 185.36 280.481Z"/>
	<path fill="#70BCF5" transform="scale(0.195312 0.195312)" d="M190.241 290.2C195.858 290.216 201.478 290.081 207.094 290.2C207.109 295.315 207.165 300.434 207.094 305.549L190.241 305.549L190.241 290.2Z"/>
	<path fill="#4A6B9F" transform="scale(0.195312 0.195312)" d="M132.358 280.481C138.413 280.202 144.608 280.46 150.676 280.464C154.36 280.466 165.545 278.472 165.84 284.464C166.145 290.655 168.322 312.219 162.985 315.002C154.7 315.283 142.438 315.553 134.166 315.024C130.359 314.78 129.285 313.514 129.118 309.902C128.835 303.775 126.574 282.539 132.358 280.481Z"/>
	<path fill="#70BCF5" transform="scale(0.195312 0.195312)" d="M138.863 290.2C144.444 290.221 150.094 289.931 155.665 290.2L155.665 305.549L138.863 305.549C138.849 300.433 138.809 295.316 138.863 290.2Z"/>
	<path fill="#4A6B9F" transform="scale(0.195312 0.195312)" d="M184.358 230.595C189.903 230.161 214.498 229.219 216.108 233.157C216.961 235.242 216.862 262.199 215.898 264.125C215.176 265.567 214.062 266.069 212.579 266.506C209.398 266.914 205.916 266.526 202.696 266.521C198.82 266.516 182.188 268.207 180.924 264.001C180.32 261.99 180.359 237.68 180.682 234.668C180.911 232.532 182.295 231.122 184.358 230.595Z"/>
	<path fill="#70BCF5" transform="scale(0.195312 0.195312)" d="M190.241 240.289C195.858 240.276 201.477 240.232 207.094 240.289C207.066 245.694 207.44 251.223 207.094 256.607L190.241 256.607L190.241 240.289Z"/>
	<path fill="#4A6B9F" transform="scale(0.195312 0.195312)" d="M235.862 230.595C239.283 230.341 242.861 230.576 246.3 230.579L267.494 230.595C267.727 242.547 267.5 254.549 267.494 266.506C265.902 266.583 264.283 266.518 262.687 266.506L245.782 266.521C240.964 266.547 232.396 268.575 231.7 261.785C231.011 255.055 231.233 240.559 231.607 233.728C232.748 232.032 233.891 231.135 235.862 230.595Z"/>
	<path fill="#70BCF5" transform="scale(0.195312 0.195312)" d="M241.07 240.289L257.827 240.289L257.827 256.607L241.07 256.607L241.07 240.289Z"/>
	<path fill="#4A6B9F" transform="scale(0.195312 0.195312)" d="M132.358 230.595C136.998 230.591 160.525 229.991 163.265 231.13C167.644 232.951 165.758 246.563 165.764 250.477C165.77 254.965 167.93 264.896 162.12 266.506C152.21 266.502 142.261 266.729 132.358 266.506C130.31 265.421 129.136 264.243 128.882 261.887C128.202 255.576 125.733 233.373 132.358 230.595Z"/>
	<path fill="#70BCF5" transform="scale(0.195312 0.195312)" d="M138.863 240.289L155.665 240.289L155.665 256.607L138.863 256.607L138.863 240.289Z"/>
	<path fill="#FBB162" transform="scale(0.195312 0.195312)" d="M305.409 282.901C306.648 285.361 304.907 288.671 304.387 291.204C298.143 321.565 304.839 358.3 329.469 378.834C331.944 380.898 334.713 383.374 337.502 384.947C339.72 388.426 341.194 388.7 345.007 388.615C364.139 400.775 391.826 389.2 393.981 390.139C364.682 412.983 320.657 406.992 297.199 378.78C273.866 350.717 277.482 306.109 305.409 282.901Z"/>
	<path fill="#4A6B9F" transform="scale(0.195312 0.195312)" d="M119.59 99.9837C119.987 90.5518 118.975 82.0022 131.233 81.7039C149.108 81.2689 151.857 81.9168 151.744 99.9837C167.856 99.7076 184.022 99.9802 200.141 99.9808L296.494 99.9837C296.961 89.8696 294.345 82.956 307.994 82.7528C325.817 82.4875 328.679 81.8307 328.472 99.9837C335.986 99.8732 354.195 99.0973 360.808 100.463C381.559 104.75 381.275 122.667 381.266 138.688L381.267 209.634C381.276 216.512 381.669 223.632 381.25 230.49C380.934 235.652 371.574 241.227 371.768 226.459C372.077 202.941 371.759 179.379 371.763 155.857L371.791 134.655C371.836 110.704 366.161 109.426 345.257 109.425L328.472 109.438C328.461 118.305 331.332 130.661 319.078 131.104C295.953 131.94 296.44 132.029 296.494 109.438L151.744 109.438C151.771 120.323 153.73 130.684 139.709 131.092C119.525 131.68 119.526 128.492 119.59 109.438L108.103 109.438C94.0437 109.408 78.0537 110.064 78.0677 128.789L78.1711 205.719C78.2158 211.705 80.1417 217.342 73.7431 220.361C69.4414 220.035 68.2444 215.927 68.2308 212.259L68.2501 135.841C68.223 109.077 77.7782 99.9164 104.27 99.9619L119.59 99.9837ZM129.203 91.1162C128.867 94.0972 129.222 97.5404 129.221 100.561L129.203 121.867L142.246 121.867L142.225 101.585C142.23 98.1049 142.422 94.5886 142.246 91.1162C137.915 91.1009 133.528 90.9367 129.203 91.1162ZM306.021 91.9893C306.067 94.6576 306.075 97.3152 306.021 99.9837C306.968 100.835 317.027 99.9708 318.955 99.9837C319.036 97.3202 318.982 94.6534 318.955 91.9893L306.021 91.9893Z"/>
	<path fill="#70BCF5" transform="scale(0.195312 0.195312)" d="M306.021 99.9837C306.968 100.835 317.027 99.9708 318.955 99.9837L318.955 121.867L306.021 121.867C305.909 114.579 306.019 107.273 306.021 99.9837Z"/>
	<path fill="#7EDCE2" transform="scale(0.195312 0.195312)" d="M129.203 91.1162C133.528 90.9367 137.915 91.1009 142.246 91.1162C142.422 94.5886 142.23 98.1049 142.225 101.585L142.246 121.867L129.203 121.867L129.221 100.561C129.222 97.5404 128.867 94.0972 129.203 91.1162ZM129.203 91.1162C129.537 94.0536 129.341 97.0392 129.203 99.9837C133.421 99.745 138.052 99.5574 142.246 99.9837C142.063 97.0179 142.051 94.0817 142.246 91.1162C137.915 91.1009 133.528 90.9367 129.203 91.1162Z"/>
	<path fill="#FED2A2" transform="scale(0.195312 0.195312)" d="M305.409 282.901C307.517 280.519 310.21 278.724 312.82 276.936C339.892 258.383 374.493 261.915 399.03 283.532C425.885 307.19 431.129 351.179 406.702 378.352C404.38 380.935 397.014 389.117 393.981 390.139C391.826 389.2 364.139 400.775 345.007 388.615C341.194 388.7 339.72 388.426 337.502 384.947C334.713 383.374 331.944 380.898 329.469 378.834C304.839 358.3 298.143 321.565 304.387 291.204C304.907 288.671 306.648 285.361 305.409 282.901Z"/>
	<path fill="#4A6B9F" transform="scale(0.195312 0.195312)" d="M333.779 284.745C341.38 284.246 340.094 292.115 339.206 297.414C338.586 298.91 338.06 299.65 336.667 300.514C329.064 301.053 328.075 287.929 333.779 284.745Z"/>
	<path fill="#4A6B9F" transform="scale(0.195312 0.195312)" d="M354.308 284.745C356.769 284.581 358.31 285.538 359.901 287.414C360.037 291.707 361.356 298.411 356.506 300.514C348.39 301.482 348.703 287.245 354.308 284.745Z"/>
	<path fill="#4A6B9F" transform="scale(0.195312 0.195312)" d="M313.837 284.745C322.874 282.604 321.508 298.671 316.488 300.514C310.003 300.687 306.893 287.975 313.837 284.745Z"/>
	<path fill="#4A6B9F" transform="scale(0.195312 0.195312)" d="M337.502 384.947C337.297 375.364 355.902 379.092 363.626 379.018C367.246 378.983 384.27 376.762 383.979 383.379C383.657 390.691 372.476 388.611 367.709 388.615L345.007 388.615C341.194 388.7 339.72 388.426 337.502 384.947Z"/>
	<path fill="#4A6B9F" transform="scale(0.195312 0.195312)" d="M376.18 305.549C388.749 302.068 399.018 321.354 391.559 332.826C389.037 336.706 385.554 339.796 382.324 343.069L367.661 357.681C361.532 363.713 356.132 372.091 346.414 370.644C339.908 369.675 334.519 364.185 330.743 359.125C327.157 356.459 315.772 345.62 313.709 342.159C304.562 326.814 333.496 297.944 348.741 325.761C357.072 319.703 365.217 305.494 376.18 305.549Z"/>
	<path fill="#7EDCE2" transform="scale(0.195312 0.195312)" d="M375.288 315.002C380.513 314.455 384.295 318.057 384.429 323.377C384.604 330.362 368.337 343.276 363.192 348.455C346.451 365.307 350.37 365.597 332.213 347.342C328.863 343.95 319.681 337.953 322.548 332.168C323.632 329.98 328.02 325.852 330.272 325.141C341.446 321.615 340.846 348.595 357.216 331.928C360.97 328.106 371.145 316.362 375.288 315.002Z"/>
	<path fill="#4A6B9F" transform="scale(0.195312 0.195312)" d="M73.7431 220.361C80.1417 217.342 78.2158 211.705 78.1711 205.719L78.0677 128.789C78.0537 110.064 94.0437 109.408 108.103 109.438L108.103 168.289C118.14 165.527 167.49 167.88 180.607 167.56C180.489 145.088 202.759 127.164 224.198 127.213C246.796 127.265 266.296 145.176 268.572 167.56C275.164 167.982 281.93 167.598 288.539 167.567L322.012 167.566C348.002 167.57 348.675 166.044 348.729 195.039L348.758 211.106C348.762 214.303 349.839 222.003 347.077 224.331C344.043 226.888 339.875 224.661 339.344 221.091C338.5 215.406 340.175 180.844 338.757 178.37C337.747 176.607 330.206 177.233 328.416 177.233L267.494 177.24C267.84 185.869 262.718 195.14 256.969 201.319C231.511 228.687 185.541 213.385 180.607 177.24L135.008 177.235C127.878 177.234 120.669 176.991 113.548 177.208C110.649 177.296 110.112 178.082 109.979 181.022C109.521 191.167 109.86 201.467 109.86 211.627L109.87 309.126C109.869 313.118 108.592 332.054 111.186 334.502C116.478 335.512 122.602 334.919 127.997 334.918L226.27 334.917C237.385 334.918 248.632 335.285 259.734 334.917C260.243 328.361 260.678 321.878 262.076 315.432C275.621 252.98 347.372 222.586 401.716 258.688C403.935 260.162 406.819 261.99 408.547 263.996C411.114 266.977 408.691 272.75 404.51 271.753C403.757 271.574 391.759 263.761 388.944 262.292C320.843 226.749 248.323 297.124 274.873 364.155C276.212 367.535 280.686 375.033 281.085 377.388C281.579 380.307 278.214 402.919 277.67 407.819C287.372 407.48 297.281 404.494 306.882 403.089C311.445 405.509 315.613 408.245 320.428 410.245C359.065 426.296 405.664 410.035 425.366 372.987C438.3 348.665 437.882 316.138 422.841 292.724C420.986 289.835 418.223 286.979 416.94 283.805C415.62 280.542 420.056 272.195 427.419 282.377C445.783 307.772 449.277 343.351 436.58 371.953C414.864 420.873 350.943 441.983 305.409 413.619C295.981 415.039 278.118 419.165 269.744 418.992C263.326 414.751 269.761 390.931 270.766 382.834C257.44 383.155 244.034 382.834 230.698 382.834L110.72 382.833C98.8221 382.834 86.0493 385.126 76.6085 376.234C65.3821 365.661 68.2504 345.46 68.2619 331.026L68.2464 263.474C68.2453 257.077 65.783 246.489 73.7431 245.112L73.7186 228.895C73.687 226.118 73.3133 223.096 73.7431 220.361ZM223.641 136.758C178.798 136.986 178.652 206.293 225.4 205.983L225.646 205.979C273.462 202.05 266.243 135.3 223.641 136.758Z"/>
	<path fill="#F78E8C" transform="scale(0.195312 0.195312)" d="M223.641 136.758C266.243 135.3 273.462 202.05 225.646 205.979L225.4 205.983C178.652 206.293 178.798 136.986 223.641 136.758ZM222.748 146.823C214.626 148.516 217.697 157.987 217.744 165.741C213.949 165.718 204.384 164.655 201.7 167.489C199.657 169.647 199.723 174.682 202.036 176.659C204.683 178.921 214.103 177.644 217.744 177.829C217.681 192.016 213.992 195.592 227.248 195.33C232.243 192.408 230.241 182.623 230.251 177.829C233.981 177.845 241.467 178.478 244.81 177.636C249.186 176.534 250.58 170.188 247.194 167.288C244.097 164.635 234.412 165.747 230.251 165.741C230.279 159.071 233.476 145.691 222.748 146.823Z"/>
	<path fill="#B4F0EF" transform="scale(0.195312 0.195312)" d="M108.103 344.046C113.026 345.537 123.478 344.81 129.002 344.805L260.817 344.79C260.743 355.372 264.941 363.439 267.494 373.287L120.709 373.287C118.071 371.09 114.783 370.18 112.257 367.681C106.063 361.555 108.125 352.006 108.103 344.046Z"/>
	<path fill="#7EDCE2" transform="scale(0.195312 0.195312)" d="M73.7431 220.361C80.1417 217.342 78.2158 211.705 78.1711 205.719L78.0677 128.789C78.0537 110.064 94.0437 109.408 108.103 109.438L108.103 168.289C96.6175 174.516 100.002 186.437 100.001 198.022L99.9969 301.475C99.9985 313.879 95.3238 338.626 108.103 344.046C108.125 352.006 106.063 361.555 112.257 367.681C114.783 370.18 118.071 371.09 120.709 373.287C112.838 373.405 92.0606 374.469 85.8797 371.292C76.2882 366.363 78.1532 354.959 78.1651 346.006L78.1591 268.719C78.1696 260.801 81.1395 248.839 73.7431 245.112L73.7186 228.895C73.687 226.118 73.3133 223.096 73.7431 220.361Z"/>
</svg>
