<?xml version="1.0" encoding="utf-8" ?>
<svg xmlns="http://www.w3.org/2000/svg" xmlns:xlink="http://www.w3.org/1999/xlink" width="100" height="100">
	<path fill="#3AB796" transform="scale(0.195312 0.195312)" d="M296.087 233.078C296.518 231.346 301.159 227.767 302.8 227.452L302.8 230.437C300.594 231.505 298.42 232.342 296.087 233.078Z"/>
	<path fill="#E86968" transform="scale(0.195312 0.195312)" d="M312.15 103.692C312.119 95.3744 310.377 84.9915 316.738 78.6047C323.545 71.7701 334.641 71.5094 341.425 78.4618C347.962 85.1618 346.08 95.1819 346.173 103.692C346.177 111.293 347.169 119.878 341.335 125.744C334.46 132.656 323.522 132.331 316.773 125.449C310.875 119.436 312.121 111.415 312.15 103.692Z"/>
	<path fill="#E86968" transform="scale(0.195312 0.195312)" d="M127.733 103.692C127.692 94.9327 126.126 85.4408 132.94 78.6562C139.818 71.8079 150.837 72.3502 157.549 79.1457C163.914 85.5894 162.279 95.4548 162.419 103.692C162.304 111.718 163.409 120.244 157.099 126.347C144.716 138.325 127.54 127.505 127.733 111.791C127.76 109.091 127.743 106.392 127.733 103.692Z"/>
	<path fill="#E86968" transform="scale(0.195312 0.195312)" d="M220.323 103.692C220.305 96.1252 218.808 87.1791 223.47 80.7349C229.129 72.9121 240.116 71.3976 247.806 77.1904C258.17 84.9974 253.153 94.4516 254.736 103.692L254.736 103.692C253.088 110.729 257.5 117.781 249.892 125.813C243.276 132.797 232.297 133.072 225.443 126.228C219.233 120.028 220.279 111.711 220.323 103.692Z"/>
	<path fill="#3670A1" transform="scale(0.195312 0.195312)" d="M254.736 103.692C271.738 103.452 288.78 103.693 305.787 103.692L312.15 103.692C312.121 111.415 310.875 119.436 316.773 125.449C323.522 132.331 334.46 132.656 341.335 125.744C347.169 119.878 346.177 111.293 346.173 103.692L352.462 103.692L373.446 103.68C388.715 103.674 402.26 104.94 402.198 124.155L402.134 160.455C402.141 165.763 402.577 172.848 402.137 177.997L73.2947 177.997C72.2124 161.48 73.0947 140.222 73.2597 123.463C73.4558 103.541 90.5931 103.674 105.291 103.692C112.763 103.701 120.265 103.514 127.733 103.692C127.743 106.392 127.76 109.091 127.733 111.791C127.54 127.505 144.716 138.325 157.099 126.347C163.409 120.244 162.304 111.718 162.419 103.692L168.504 103.692L214.158 103.692L220.323 103.692C220.279 111.711 219.233 120.028 225.443 126.228C232.297 133.072 243.276 132.797 249.892 125.813C257.5 117.781 253.088 110.729 254.736 103.692L254.736 103.692ZM149.373 145.239L114.712 145.247C110.955 145.245 106.16 144.584 102.556 145.064C94.7236 146.107 95.2477 157.293 106.351 156.567C111.913 156.203 117.456 156.236 123.028 156.247L157.296 156.253C161.422 156.259 165.828 156.905 169.895 156.478C176.424 155.793 175.862 146.138 169.812 144.996C167.07 144.479 153.082 145.245 149.373 145.239Z"/>
	<path fill="#2E568D" transform="scale(0.195312 0.195312)" d="M162.419 103.692L168.504 103.692C168.532 114.063 169.596 123.056 161.629 131.053C146.511 146.228 122.789 136.225 123.001 113.795L123.028 111.791C124.399 111.387 127.049 109.946 127.733 111.791C127.54 127.505 144.716 138.325 157.099 126.347C163.409 120.244 162.304 111.718 162.419 103.692Z"/>
	<path fill="#2E568D" transform="scale(0.195312 0.195312)" d="M305.787 103.692L312.15 103.692C312.121 111.415 310.875 119.436 316.773 125.449C323.522 132.331 334.46 132.656 341.335 125.744C347.169 119.878 346.177 111.293 346.173 103.692L352.462 103.692C352.349 116.195 353.205 128.615 339.512 135.263C327.737 140.98 313.676 136.201 307.967 124.359C306.539 121.396 304.658 106.953 305.787 103.692Z"/>
	<path fill="#2E568D" transform="scale(0.195312 0.195312)" d="M254.736 103.692C256.845 103.824 258.961 103.739 261.072 103.692C261.116 113.917 261.987 123.437 253.907 131.264C244.375 140.498 229.977 140.644 220.616 130.919C213.218 123.235 213.915 113.658 214.158 103.692L220.323 103.692C220.279 111.711 219.233 120.028 225.443 126.228C232.297 133.072 243.276 132.797 249.892 125.813C257.5 117.781 253.088 110.729 254.736 103.692Z"/>
	<path fill="#528CBC" transform="scale(0.195312 0.195312)" d="M202.233 145.239L353.808 145.242C359.805 145.243 365.987 144.934 371.965 145.224C379.336 145.582 379.671 154.639 372.941 156.247C367.206 156.7 360.73 156.255 354.927 156.248L216.346 156.258C211.259 156.271 204.578 156.959 199.752 155.604C195.321 151.716 196.625 146.469 202.233 145.239Z"/>
	<path fill="#46BFD4" transform="scale(0.195312 0.195312)" d="M316.03 218.023C316.518 218.012 317.007 218.003 317.495 218.001L332.588 218.01C349.709 217.997 345.753 219.044 345.676 238.153C361.3 240.924 367.173 244.187 380.285 251.085C383.201 247.994 392.006 235.346 396.995 238.695C400.265 240.889 411.323 252.598 414.675 256.075C421.177 262.822 409.349 271.262 404.93 275.458C411.242 287.813 415.646 295.5 417.04 309.772C424.101 310.027 432.183 307.754 437.769 313.154C439.514 317.336 439.294 331.051 438.473 334.889C436.767 342.856 424.005 340.168 417.04 340.282C414.215 355.387 410.027 361.608 403.361 374.074C408.82 381.627 419.146 389.246 411.153 397.528C395.614 413.627 394.985 414.323 379.26 398.373C369.505 406.223 357.632 410.415 345.676 413.524C345.224 419.979 347.602 429.311 341.705 433.828C338.01 435.64 323.024 435.234 319.549 434.528C310.522 432.697 313.491 420.211 313.411 413.524C299.039 409.774 291.501 409.657 278.099 399.423C273.135 402.531 265.565 414.523 258.729 409.866C255.673 407.783 242.706 395.55 242.081 391.359C241.516 387.575 250.799 379.426 253.028 376.108L253.237 375.793C246.497 363.468 242.436 356.845 239.721 342.006C233.592 341.978 225.226 343.968 220.323 339.487C220.216 334.935 220.302 330.359 220.306 325.805C220.32 308.461 221.016 311.683 238.791 311.763C241.559 295.58 246.742 287.319 254.736 274.17C245.436 259.611 235.645 264.296 252.161 248.388C266.307 234.764 263.882 233.81 279.49 252.197C289.949 246.173 299.507 239.559 312.15 238.924L312.15 220.447C313.399 219.138 314.188 218.406 316.03 218.023Z"/>
	<path fill="#F5B464" transform="scale(0.195312 0.195312)" d="M327.936 256.631C345.426 255.372 364.656 264.544 376.704 276.785C417.647 318.38 386.769 392.708 328.889 392.039C292.63 393.077 261.888 363.595 260.32 327.541C258.645 288.989 290.236 258.166 327.936 256.631Z"/>
	<path fill="#FEFEFE" transform="scale(0.195312 0.195312)" d="M324.343 273.353C336.778 271.392 352.413 277.005 361.718 285.179C396.118 315.396 376.186 373.15 333.008 375.793C304.296 377.662 279.167 357.578 276.781 328.197C274.525 300.415 296.918 275.609 324.343 273.353Z"/>
	<path fill="#2E568D" transform="scale(0.195312 0.195312)" d="M325.583 306.171C323.746 303.32 321.243 273.888 331.109 280.78C334.27 282.988 333.746 303.195 331.562 306.171C329.396 306.74 327.715 307.126 325.583 306.171Z"/>
	<path fill="#D4E7F0" transform="scale(0.195312 0.195312)" d="M331.562 306.171C357.061 306.8 357.275 349.048 328.167 347.953C317.655 347.557 311.125 340.202 308.215 330.804C305.843 330.812 294.679 331.226 293.558 330.804C287.017 330.272 286.783 323.573 292.328 321.49C293.942 321.188 295.953 321.426 297.606 321.441L308.215 321.49C311.024 313.294 316.712 307.579 325.583 306.171C327.715 307.126 329.396 306.74 331.562 306.171Z"/>
	<path fill="#2E568D" transform="scale(0.195312 0.195312)" d="M292.328 321.49C296.169 321.879 308.011 320.22 310.407 322.915C312.092 324.81 311.706 328.328 309.728 329.874C307.133 331.901 297.216 330.141 293.558 330.804C287.017 330.272 286.783 323.573 292.328 321.49Z"/>
	<path fill="#FEFEFE" transform="scale(0.195312 0.195312)" d="M328.889 315.837C342.646 315.723 343.996 334.991 330.39 337.495C315.971 337.845 314.074 317.658 328.889 315.837Z"/>
	<path fill="#D4E7F0" transform="scale(0.195312 0.195312)" d="M73.2947 177.997L402.137 177.997C401.843 181.269 402.089 184.564 402.122 187.844L402.117 219.263C402.079 223.022 401.849 226.677 402.137 230.437C387.855 224.947 386.849 233.164 377.648 238.924C374.967 237.778 367.095 234.759 365.197 233.078C362.134 231.925 358.464 230.668 355.209 230.437C355.286 218.774 355.066 207.797 340.254 208.46C333.013 209.507 319.787 208.918 312.15 208.805C305.238 211.569 300.728 220.502 302.8 227.452C301.159 227.767 296.518 231.346 296.087 233.078C291.998 234.752 287.731 236.269 283.743 238.153C282.7 238.819 281.613 239.32 280.491 239.832C279.416 238.675 278.398 237.489 277.394 236.271C264.534 221.648 255.152 232.244 245.259 242.168C236.331 251.125 235.959 249.606 233.702 261.569C234.5 268.046 239.464 270.661 242.959 275.458C238.598 280.611 235.593 288.068 233.702 294.459C232.612 297.044 232.031 299.578 231.492 302.329C218.625 302.295 211.474 305.906 211.23 319.634C210.865 340.141 207.432 351.464 232.638 351.227C233.444 359.114 238.13 368.104 242.009 375.029C238.959 378.46 236.673 382.405 233.702 385.794C223.213 386.397 212.478 385.8 201.962 385.797L108.954 385.802C103.479 385.802 97.4705 386.281 92.0763 385.382C69.4491 381.611 73.1633 354.819 73.3342 338.218C73.4394 328.003 73.2962 317.768 73.295 307.551L73.2947 177.997Z"/>
	<path fill="#3AB796" transform="scale(0.195312 0.195312)" d="M340.254 208.46C340.542 206.55 340.902 204.357 342.625 203.174C344.326 202.005 361.207 202.23 363.517 202.751C371.119 204.466 368.043 230.471 365.197 233.078C362.134 231.925 358.464 230.668 355.209 230.437C355.286 218.774 355.066 207.797 340.254 208.46Z"/>
	<path fill="#E86968" transform="scale(0.195312 0.195312)" d="M233.702 294.459C215.671 293.36 218.914 298.151 218.935 278.015C218.953 260.577 214.959 261.457 233.702 261.569C234.5 268.046 239.464 270.661 242.959 275.458C238.598 280.611 235.593 288.068 233.702 294.459Z"/>
	<path fill="#F7E0B4" transform="scale(0.195312 0.195312)" d="M277.394 234.847C275.606 232.23 275.496 205.597 276.906 204.211C279.811 201.357 306.18 202.023 308.708 202.812C310.12 203.252 311.12 204.22 312.15 205.222C312.267 206.412 312.187 207.613 312.15 208.805C305.238 211.569 300.728 220.502 302.8 227.452C301.159 227.767 296.518 231.346 296.087 233.078C291.998 234.752 287.731 236.269 283.743 238.153C281.364 237.363 279.324 236.498 277.394 234.847Z"/>
	<path fill="#F7E0B4" transform="scale(0.195312 0.195312)" d="M168.504 319.012C196.556 321.802 196.442 309.15 194.423 349.564C193.281 351.141 192.283 351.743 190.313 351.956C186.122 351.961 167.017 352.512 164.478 351.415C162.272 347.935 162.272 323.293 163.86 320.488C165.174 319.38 166.863 319.276 168.504 319.012Z"/>
	<path fill="#46BFD4" transform="scale(0.195312 0.195312)" d="M165.208 202.499C169.96 202.495 191.604 200.836 194.384 204.52C194.463 204.625 197.501 232.379 192.482 235.711C186.162 235.784 166.102 238.06 163.027 233.078C161.952 227.965 160.112 206.087 165.208 202.499Z"/>
	<path fill="#46BFD4" transform="scale(0.195312 0.195312)" d="M176.859 261.569C179.923 261.551 191.06 260.895 193.298 262.191C195.24 263.316 196.346 289.5 193.798 293.886C191.287 295.123 183.184 294.479 180.187 294.459C177.053 294.471 166.117 295.088 163.937 293.837C160.84 289.567 161.402 266.045 163.675 262.473C165.748 260.97 173.942 261.566 176.859 261.569Z"/>
	<path fill="#3AB796" transform="scale(0.195312 0.195312)" d="M111.517 261.569C116.163 261.57 138.441 259.716 139.831 263.673C140.46 265.463 140.44 286.968 140.22 290.356C140.028 293.321 139.534 293.985 136.581 294.459C132.486 294.457 110.662 294.999 108.855 293.946C105.619 292.06 107.224 263.621 108.156 262.505C108.88 261.637 110.483 261.663 111.517 261.569Z"/>
	<path fill="#F7E0B4" transform="scale(0.195312 0.195312)" d="M113.03 202.499C117.982 202.282 136.498 201.522 139.278 204.198C140.958 205.816 140.214 229.245 140.209 233.078C138.678 235.005 137.844 235.648 135.219 235.711C130.273 235.72 112.052 236.523 108.682 234.655C106.24 231.573 106.69 205.831 107.96 204.322C109.14 202.92 111.323 202.708 113.03 202.499Z"/>
	<path fill="#3AB796" transform="scale(0.195312 0.195312)" d="M113.03 319.012C116.987 318.79 136.583 318.565 139.133 319.79C141.243 323.078 140.712 348.986 139.346 350.658C138.319 351.916 136.698 351.861 135.219 351.956C130.861 351.969 111.169 352.665 108.509 351.148C106.309 349.894 106.726 321.737 107.911 320.37C109.256 318.819 111.169 319.023 113.03 319.012Z"/>
	<path fill="#3AB796" transform="scale(0.195312 0.195312)" d="M221.137 202.499C227.127 202.244 241.782 201.834 247.468 202.68C250.669 203.156 251.753 203.758 251.955 206.964C252.184 210.593 252.324 231.711 251.712 233.697C251.37 234.807 250.602 235.202 249.646 235.711C245.398 236.19 227.614 236.241 222.887 235.693C217.198 235.033 218.914 227.294 218.912 223.258L218.934 205.222C219.599 204.188 220.212 203.333 221.137 202.499Z"/>
</svg>
