<?xml version="1.0" encoding="utf-8" ?>
<svg xmlns="http://www.w3.org/2000/svg" xmlns:xlink="http://www.w3.org/1999/xlink" width="100" height="100">
	<path fill="#FEFEFE" transform="scale(0.195312 0.195312)" d="M150.795 171.991L150.787 100.476C150.809 71.4363 159.318 71.2204 187.242 71.2576L327.05 71.2615L338.043 71.45C356.065 71.7893 361.857 77.0783 361.672 95.9061C381.994 96.142 394.881 96.6616 414.042 106.624C466.256 133.771 478.139 205.926 435.596 247.266C431.481 251.265 426.44 255.628 421.27 258.198C421.094 273.825 422.051 290.745 421.27 306.169C421.521 310.462 421.282 314.875 421.276 319.181L421.297 365.501C421.271 369.184 421.516 372.88 420.937 376.535C417.928 395.52 401.64 394.79 387.323 394.768L296.358 394.754C292.925 395.059 289.465 394.785 286.023 394.761L236.413 394.76C233.146 394.761 218.239 394.286 216.331 394.754C214.638 394.299 211.844 394.702 210.056 394.714L123.235 394.771C95.14 394.834 91.2457 385.001 91.252 358.775L91.2449 208.751C91.2414 193.912 90.063 178.137 108.916 172.902C114.554 171.336 121.157 171.969 126.991 171.98L145.103 171.991C146.894 171.433 148.964 171.816 150.795 171.991Z"/>
	<defs>
		<linearGradient id="gradient_0" gradientUnits="userSpaceOnUse" x1="276.06915" y1="274.44986" x2="238.73697" y2="59.692722">
			<stop offset="0" stop-color="#D0D9E2"/>
			<stop offset="1" stop-color="#F5F7F6"/>
		</linearGradient>
	</defs>
	<path fill="url(#gradient_0)" transform="scale(0.195312 0.195312)" d="M150.795 171.991L150.787 100.476C150.809 71.4363 159.318 71.2204 187.242 71.2576L327.05 71.2615L338.043 71.45C356.065 71.7893 361.857 77.0783 361.672 95.9061C361.709 97.7875 361.256 108.966 361.672 109.94C361.338 112.102 361.65 114.584 361.657 116.784L361.647 159.433C361.643 163.843 361.4 168.382 361.672 172.776L361.672 186.755C362.822 186.753 363.984 186.715 365.133 186.755C363.952 186.834 362.853 186.852 361.672 186.755L361.697 230.975C361.577 247.863 361.333 263.35 339.625 263.13L271.542 263.021C268.303 263.005 265.011 262.838 261.781 263.044C257.028 263.139 252.245 263.121 247.491 263.044L185.285 263.062C182.9 263.079 180.388 263.323 178.021 263.044C184.396 254.494 177.866 251.102 172.223 245.574C165.711 239.196 160.363 229.929 150.795 231.822C149.68 220.816 150.745 205.024 150.522 193.405C150.478 191.093 151.231 188.488 150.795 186.237C150.333 182.445 150.781 176.096 150.795 171.991C148.901 171.949 146.998 171.988 145.103 171.991C146.894 171.433 148.964 171.816 150.795 171.991Z"/>
	<path fill="#74C3F4" transform="scale(0.195312 0.195312)" d="M186.465 178.002L218.158 177.985C226.406 177.987 242.691 174.775 243.841 186.84C244.905 198.012 244.507 218.33 243.962 229.663C243.661 235.928 241.112 238.424 235.7 241.538C233.961 241.74 232.001 241.53 230.23 241.53L198.764 241.544C182.813 241.544 178.044 243.834 178.02 224.925L178.014 195.531C178.009 188.353 177.063 179.609 186.465 178.002Z"/>
	<path fill="#4A77B5" transform="scale(0.195312 0.195312)" d="M208.579 190.569C216.33 190.002 214.789 197.808 214.737 203.166C218.917 203.216 227.274 201.64 227.392 207.95C227.51 214.276 218.862 213.002 214.737 212.956C214.582 217.551 216.272 223.983 210.39 225.477C201.928 225.841 205.84 219.562 204.601 214.799C203.653 211.158 195.834 213.913 193.041 211.819C191.133 210.388 191.186 206.411 192.737 204.776C195.15 202.235 201.238 203.301 204.53 203.166C204.443 199.763 204.228 196.356 204.974 193.01C206.12 191.647 206.849 191.025 208.579 190.569Z"/>
	<path fill="#74C3F4" transform="scale(0.195312 0.195312)" d="M187.474 102.329C195.39 101.914 203.682 102.312 211.641 102.312C220.042 102.313 241.123 99.051 243.631 109.542C244.399 112.754 244.508 143.606 243.879 148.592C243.33 152.949 240.061 156.422 235.7 157.283C233.05 157.504 230.33 157.317 227.671 157.306L197.746 157.289C180.547 157.339 178.017 157.256 178.011 141.139L178.015 127.772C178.021 117.944 174.365 103.611 187.474 102.329Z"/>
	<path fill="#93A0B2" transform="scale(0.195312 0.195312)" d="M296.358 123.628L331.274 123.628L331.274 137.531C327.469 137.717 323.593 137.546 319.78 137.543L297.562 137.531L262.752 137.531L262.752 123.628L296.358 123.628Z"/>
	<path fill="#93A0B2" transform="scale(0.195312 0.195312)" d="M314.433 199.707L331.274 199.707L331.274 213.551C314.338 213.909 297.32 213.556 280.375 213.551L262.752 213.551L262.752 199.707L314.433 199.707Z"/>
	<path fill="#93A0B2" transform="scale(0.195312 0.195312)" d="M262.752 161.745L331.274 161.745L331.274 175.486C323.71 175.783 316.03 175.494 308.452 175.493L262.752 175.486L262.752 161.745Z"/>
	<path fill="#74C3F4" transform="scale(0.195312 0.195312)" d="M421.27 306.169C421.521 310.462 421.282 314.875 421.276 319.181L421.297 365.501C421.271 369.184 421.516 372.88 420.937 376.535C417.928 395.52 401.64 394.79 387.323 394.768L296.358 394.754C292.925 395.059 289.465 394.785 286.023 394.761L236.413 394.76C233.146 394.761 218.239 394.286 216.331 394.754C214.638 394.299 211.844 394.702 210.056 394.714L123.235 394.771C95.14 394.834 91.2457 385.001 91.252 358.775L221.22 358.775L401.503 358.773C407.609 358.77 415.353 359.25 421.27 358.775C421.531 354.266 421.287 349.619 421.284 345.096L421.262 317.493C421.255 313.735 421.053 309.916 421.27 306.169Z"/>
	<path fill="#FEFEFE" transform="scale(0.195312 0.195312)" d="M361.672 95.9061C381.994 96.142 394.881 96.6616 414.042 106.624C466.256 133.771 478.139 205.926 435.596 247.266C431.481 251.265 426.44 255.628 421.27 258.198C421.101 252.032 421.269 245.815 421.27 239.644L421.276 209.25C421.333 176.225 418.223 172.77 387.765 172.765L361.672 172.776C361.4 168.382 361.643 163.843 361.647 159.433L361.657 116.784C361.65 114.584 361.338 112.102 361.672 109.94C361.256 108.966 361.709 97.7875 361.672 95.9061Z"/>
	<path fill="#9EE4EC" transform="scale(0.195312 0.195312)" d="M361.672 95.9061C381.994 96.142 394.881 96.6616 414.042 106.624C466.256 133.771 478.139 205.926 435.596 247.266C431.481 251.265 426.44 255.628 421.27 258.198C421.101 252.032 421.269 245.815 421.27 239.644C421.983 241.59 426.006 236.866 426.831 236.044C470.152 192.868 441.674 117.073 381.813 110.296C375.119 109.538 368.391 109.936 361.672 109.94C361.256 108.966 361.709 97.7875 361.672 95.9061Z"/>
	<path fill="#5F9DDE" transform="scale(0.195312 0.195312)" d="M361.672 172.776L387.765 172.765C418.223 172.77 421.333 176.225 421.276 209.25L421.27 239.644C421.269 245.815 421.101 252.032 421.27 258.198C421.094 273.825 422.051 290.745 421.27 306.169C421.053 309.916 421.255 313.735 421.262 317.493L421.284 345.096C421.287 349.619 421.531 354.266 421.27 358.775C415.353 359.25 407.609 358.77 401.503 358.773L221.22 358.775C221.485 352.998 222.904 347.303 223.075 341.522L406.636 341.522L406.642 209.443C406.645 203.357 406.922 197.134 406.436 191.067C405.913 184.527 394.404 186.736 389.274 186.736L365.133 186.755C363.984 186.715 362.822 186.753 361.672 186.755L361.672 172.776Z"/>
	<path fill="#4A77B5" transform="scale(0.195312 0.195312)" d="M145.103 171.991C146.998 171.988 148.901 171.949 150.795 171.991C150.781 176.096 150.333 182.445 150.795 186.237L127.298 186.219C105.365 186.217 105.422 186.539 105.444 210.336L105.448 341.522L223.075 341.522C222.904 347.303 221.485 352.998 221.22 358.775L91.252 358.775L91.2449 208.751C91.2414 193.912 90.063 178.137 108.916 172.902C114.554 171.336 121.157 171.969 126.991 171.98L145.103 171.991Z"/>
	<path fill="#FEFEFE" transform="scale(0.195312 0.195312)" d="M160.3 255.515C166.462 261.289 169.162 266.265 178.021 263.044C180.388 263.323 182.9 263.079 185.285 263.062L247.491 263.044C244.705 270.899 241.961 277.388 236.018 283.443C208.741 311.236 160.403 290.615 160.3 255.515Z"/>
	<path fill="#FCC16D" transform="scale(0.195312 0.195312)" d="M154.561 249.314C156.671 251.234 158.541 253.267 160.3 255.515C160.403 290.615 208.741 311.236 236.018 283.443C241.961 277.388 244.705 270.899 247.491 263.044C252.245 263.121 257.028 263.139 261.781 263.044C253.175 305.515 202.632 325.408 168.837 298.282C156.97 288.757 147.627 273.527 145.905 258.198C148.461 255.048 151.709 252.209 154.561 249.314Z"/>
	<path fill="#F69B7B" transform="scale(0.195312 0.195312)" d="M150.795 231.822C160.363 229.929 165.711 239.196 172.223 245.574C177.866 251.102 184.396 254.494 178.021 263.044C169.162 266.265 166.462 261.289 160.3 255.515C158.541 253.267 156.671 251.234 154.561 249.314C151.709 252.209 148.461 255.048 145.905 258.198C142.725 261.22 140.163 265.476 135.079 264.49C130.698 263.641 128.141 258.77 129.109 254.569C129.637 252.28 148.684 233.17 150.795 231.822Z"/>
	<path fill="#74C3F4" transform="scale(0.195312 0.195312)" d="M347.514 263.955L361.045 263.955C353.334 293.15 329.614 309.465 300.25 309.976C296.566 310.04 292.674 309.653 289.028 309.991C286.12 307.584 282.494 307.903 280.375 304.32C278.665 298.582 281.672 296.032 287.004 294.681C288.738 295.427 291.45 295.38 293.364 295.453C318.102 296.403 337.198 288.086 347.514 263.955Z"/>
	<path fill="#5F9DDE" transform="scale(0.195312 0.195312)" d="M289.028 309.991C296.354 316.819 296.186 315.666 288.098 323.475C281.652 329.699 276.89 321.132 272.177 316.317C269.531 313.615 258.672 305.191 259.989 300.916C260.215 300.183 280.793 276.77 285.147 278.327C288.744 279.613 293.238 284.838 294.9 288.212C292.653 290.726 289.745 292.747 287.004 294.681C281.672 296.032 278.665 298.582 280.375 304.32C282.494 307.903 286.12 307.584 289.028 309.991Z"/>
	<path fill="#B1BDC9" transform="scale(0.195312 0.195312)" d="M216.331 394.754C218.239 394.286 233.146 394.761 236.413 394.76L286.023 394.761C289.465 394.785 292.925 395.059 296.358 394.754C296.33 396.909 296.279 399.066 296.358 401.221C296.818 408.47 296.583 416.246 296.358 423.512L317.366 423.502C321.045 423.481 325.037 423.087 328.673 423.603C335.814 424.615 337.453 436.604 326.22 436.78C316.105 436.939 305.965 436.773 295.848 436.769L201.271 436.756C196.941 436.75 183.441 438.37 180.288 435.074C176.829 431.458 177.962 424.622 183.387 423.73C187 423.136 191.111 423.494 194.777 423.5L216.331 423.512C216.527 420.315 216.35 417.042 216.346 413.836L216.331 394.754Z"/>
	<path fill="#4A77B5" transform="scale(0.195312 0.195312)" d="M296.358 423.512L317.366 423.502C321.045 423.481 325.037 423.087 328.673 423.603C335.814 424.615 337.453 436.604 326.22 436.78C316.105 436.939 305.965 436.773 295.848 436.769L201.271 436.756C196.941 436.75 183.441 438.37 180.288 435.074C176.829 431.458 177.962 424.622 183.387 423.73C187 423.136 191.111 423.494 194.777 423.5L216.331 423.512C222.853 424.241 229.931 423.51 236.529 423.513L248.386 423.531C250.296 423.539 252.455 423.767 254.338 423.512L296.358 423.512Z"/>
	<path fill="#93A0B2" transform="scale(0.195312 0.195312)" d="M216.331 394.754C218.239 394.286 233.146 394.761 236.413 394.76L286.023 394.761C289.465 394.785 292.925 395.059 296.358 394.754C296.33 396.909 296.279 399.066 296.358 401.221C296.313 402.577 296.303 403.912 296.358 405.268L269.189 405.261C253.328 405.264 228.965 403.989 223.075 423.512C232.682 423.606 245.055 422.711 254.338 423.512C252.455 423.767 250.296 423.539 248.386 423.531L236.529 423.513C229.931 423.51 222.853 424.241 216.331 423.512C216.527 420.315 216.35 417.042 216.346 413.836L216.331 394.754Z"/>
	<path fill="#9EE4EC" transform="scale(0.195312 0.195312)" d="M97.7798 139.499C104.128 139.002 125.412 137.258 125.428 147.365C125.444 157.603 108.64 153.206 102.757 153.205C78.9263 153.201 63.5459 170.505 63.755 193.841C63.7206 197.438 65.3698 202.352 63.2351 205.561C59.0311 211.881 51.3536 208.416 50.365 200.069C46.7541 169.58 66.9078 142.726 97.7798 139.499Z"/>
	<path fill="#9EE4EC" transform="scale(0.195312 0.195312)" d="M68.7355 220.047C77.629 220.604 82.8241 234.925 71.7253 236.379C62.5603 236.302 57.325 221.891 68.7355 220.047Z"/>
</svg>
