<?xml version="1.0" encoding="utf-8" ?>
<svg xmlns="http://www.w3.org/2000/svg" xmlns:xlink="http://www.w3.org/1999/xlink" width="100" height="100">
	<path fill="#6BC5F4" transform="scale(0.195312 0.195312)" d="M382.749 84.5374C387.051 84.5 391.879 90.1049 386.348 92.0886C381.929 91.7298 377.793 87.5781 382.749 84.5374Z"/>
	<path fill="#6BC5F4" transform="scale(0.195312 0.195312)" d="M391.065 96.9787C395.297 97.3921 396.243 108.708 391.065 110.348C387.778 109.391 384.978 99.4014 391.065 96.9787Z"/>
	<path fill="#6BC5F4" transform="scale(0.195312 0.195312)" d="M257.541 83.7519C259.69 83.747 263.82 83.1864 265.719 84.1257C268.553 85.5275 267.653 89.3763 264.701 89.833C262.293 89.9237 252.84 91.0277 254.529 86.1256C254.958 84.8806 256.434 84.2347 257.541 83.7519Z"/>
	<path fill="#6BC5F4" transform="scale(0.195312 0.195312)" d="M277.136 83.7519C279.877 83.7588 289.155 82.2214 288.407 87.1576C288.216 88.4193 287.757 89.0779 286.754 89.833L281.622 89.8595C276.02 89.8665 272.031 86.9386 277.136 83.7519Z"/>
	<path fill="#6BC5F4" transform="scale(0.195312 0.195312)" d="M236.168 83.7519C238.708 83.6591 242.267 83.1364 244.663 83.9756C247.339 84.9129 247.537 88.7633 244.945 89.833C242.41 89.9094 231.774 91.2803 233.956 85.6657C234.353 84.6428 235.254 84.2144 236.168 83.7519Z"/>
	<path fill="#6BC5F4" transform="scale(0.195312 0.195312)" d="M390.336 117.461C395.425 117.437 395.998 128.819 391.065 131.22C386.263 130.678 385.939 119.54 390.336 117.461Z"/>
	<path fill="#6BC5F4" transform="scale(0.195312 0.195312)" d="M318.677 83.7519C322.373 83.6575 335.245 82.2037 329.586 89.833C326.236 90.0559 312.321 90.8295 318.677 83.7519Z"/>
	<path fill="#6BC5F4" transform="scale(0.195312 0.195312)" d="M298.845 83.7519C301.467 83.7154 304.545 83.2469 307.105 83.7713C310.79 84.5258 310.629 88.522 307.515 89.833C304.894 89.8963 299.482 90.5343 297.246 89.211C294.413 87.5351 296.359 84.3407 298.845 83.7519Z"/>
	<path fill="#6BC5F4" transform="scale(0.195312 0.195312)" d="M340.269 83.7519C343.354 83.7216 353.846 81.9675 352.221 87.7847C351.924 88.849 351.429 89.2759 350.504 89.833C347.365 90.0407 338.135 91.2898 338.721 86.3384C338.863 85.1425 339.336 84.4715 340.269 83.7519Z"/>
	<path fill="#6BC5F4" transform="scale(0.195312 0.195312)" d="M363.6 83.7519C365.995 83.7175 369.867 83.1564 372.004 84.1307C375.492 85.7201 373.508 89.4519 370.444 89.833C367.629 89.9992 363.586 90.7394 361.134 89.0918C357.5 86.6493 360.781 84.1887 363.6 83.7519Z"/>
	<path fill="#6BC5F4" transform="scale(0.195312 0.195312)" d="M391.065 138.182C394.178 138.749 397.101 150.471 391.065 153.297C386.328 152.876 387.847 143.324 387.428 139.949C388.575 139.222 389.822 138.721 391.065 138.182Z"/>
	<path fill="#6BC5F4" transform="scale(0.195312 0.195312)" d="M390.336 160.2C396.181 160.319 394.396 174.587 393.515 175.974C392.746 176.542 391.994 176.544 391.065 176.632C389.84 176.448 388.798 176.277 387.887 175.385C386.479 171.408 385.821 162.973 390.336 160.2Z"/>
	<path fill="#59CCC2" transform="scale(0.195312 0.195312)" d="M379.64 170.417C383.08 174.298 387.164 178.048 391.065 181.469C393.565 177.255 398.318 173.723 401.92 170.417C405.231 174.217 409.329 178.252 413.162 181.469C408.912 184.996 405.044 188.869 401.125 192.751C397.042 196.294 392.747 200.174 389.289 204.344L389.171 204.177C383.668 196.282 373.39 189.292 367.532 181.469C372.155 177.962 375.325 174.05 379.64 170.417Z"/>
	<path fill="#C3EAF0" transform="scale(0.195312 0.195312)" d="M131.75 134.982C135.8 134.346 142.412 128.602 146.35 126.478C178.561 109.114 220.487 110.454 252.928 126.271C255.732 127.638 267.591 134.647 269.207 134.982L176.612 134.982C161.664 134.981 146.697 134.825 131.75 134.982Z"/>
	<path fill="#C3EAF0" transform="scale(0.195312 0.195312)" d="M107.264 301.802C104.406 300.899 102.707 297.725 101.143 295.366C74.4357 255.095 74.1309 199.986 102.829 160.606C104.169 158.768 106.31 157.61 107.264 155.481L107.264 301.802Z"/>
	<path fill="#718095" transform="scale(0.195312 0.195312)" d="M189.232 364.229C191.821 364.169 194.416 364.216 197.006 364.229C196.697 368.412 196.164 372.376 195.249 376.471C204.166 376.465 213.181 376.17 222.087 376.471L263.925 376.471C265.936 376.491 267.932 376.739 269.936 376.471C271.328 384.346 273.96 392.178 276.096 399.895L289.325 399.886C291.553 399.905 305.202 399.881 298.587 405.772C293.794 407.353 273.011 406.222 266.667 406.223L177.322 406.227C174.92 406.227 158.888 407.921 159.964 403.49L159.703 403.903C157.755 398.956 165.503 399.874 168.03 399.893L179.409 399.895C182.691 393.009 192.849 369.178 190.82 364.54L189.232 364.229Z"/>
	<path fill="#F2F2F2" transform="scale(0.195312 0.195312)" d="M195.249 376.471C204.166 376.465 213.181 376.17 222.087 376.471C220.319 384.534 216.012 392.179 213.122 399.895L232.839 399.878C235.647 399.871 238.794 399.51 241.551 399.895C236.031 400.312 230.221 399.891 224.673 399.902L186.683 399.895C190.257 392.165 193.101 384.713 195.249 376.471Z"/>
	<path fill="#E5E4E4" transform="scale(0.195312 0.195312)" d="M222.087 376.471L263.925 376.471C265.944 383.649 268.388 392.698 269.936 399.895C260.53 399.534 250.977 399.898 241.551 399.895C238.794 399.51 235.647 399.871 232.839 399.878L213.122 399.895C216.012 392.179 220.319 384.534 222.087 376.471Z"/>
	<path fill="#495A74" transform="scale(0.195312 0.195312)" d="M131.75 134.982C146.697 134.825 161.664 134.981 176.612 134.982L269.207 134.982L310.079 134.975C323.213 134.963 342.319 132.139 345.956 149.8C346.671 153.27 346.393 157.104 346.388 160.639L346.367 174.793C346.357 181.605 347.944 218.26 345.051 221.637C344.886 223.925 344.849 226.091 345.051 228.377L408.504 228.356C432.793 228.297 431.79 236.585 431.737 258.954L431.744 408.132C431.658 423.257 421.272 425.438 408.689 425.45L332.136 425.443C310.932 425.292 312.938 409.397 312.94 393.69L312.949 364.229C309.087 363.609 304.451 364.247 300.487 364.248L269.207 364.229C269.202 368.352 269.059 372.418 269.936 376.471C267.932 376.739 265.936 376.491 263.925 376.471L222.087 376.471C213.181 376.17 204.166 376.465 195.249 376.471C196.164 372.376 196.697 368.412 197.006 364.229C194.416 364.216 191.821 364.169 189.232 364.229C183.073 364.427 176.85 364.242 170.686 364.239L116.957 364.252C112.902 364.283 108.558 364.651 104.556 363.965C80.6495 359.864 80.5716 339.051 80.579 320.801C80.5835 309.889 80.899 311.787 91.3911 311.801L107.264 311.825C107.467 308.499 107.318 305.134 107.264 301.802L107.264 155.481C107.362 141.064 118.307 134.065 131.75 134.982Z"/>
	<path fill="#718095" transform="scale(0.195312 0.195312)" d="M237.323 157.013C241.524 157.005 254.309 154.854 253.935 159.261C249.095 159.247 241.756 159.879 237.327 159.549C237.072 158.694 237.227 157.882 237.323 157.013Z"/>
	<path fill="#6BC5F4" transform="scale(0.195312 0.195312)" d="M211.441 161.107C218.041 161.2 224.652 161.12 231.253 161.107L231.253 185.487L211.441 185.487C211.467 177.856 210.952 168.543 211.441 161.107Z"/>
	<path fill="#6BC5F4" transform="scale(0.195312 0.195312)" d="M266.772 214.332L294.006 214.332C293.99 223.912 294.453 233.681 294.006 243.24L288.352 243.24C288.473 225.751 288.584 230.715 266.772 230.777L266.772 214.332Z"/>
	<path fill="#E5E4E4" transform="scale(0.195312 0.195312)" d="M260.741 237.005C260.818 258.5 264.473 257.207 244.286 257.113L200.05 257.113C191.733 257.135 181.97 260.152 181.848 249.864C181.705 237.758 181.862 225.629 181.869 213.52L181.874 201.407C181.874 195.577 180.434 191.087 187.787 191.366C188.172 208.872 189.042 233.722 187.787 251.006C193.33 252.834 200.074 252.12 205.874 252.143L260.741 252.135C260.735 249.04 260.219 239.097 260.741 237.005Z"/>
	<path fill="#A2A8B2" transform="scale(0.195312 0.195312)" d="M197.006 364.229L263.213 364.229C263.057 368.302 263.13 372.459 263.925 376.471L222.087 376.471C213.181 376.17 204.166 376.465 195.249 376.471C196.164 372.376 196.697 368.412 197.006 364.229Z"/>
	<path fill="#718095" transform="scale(0.195312 0.195312)" d="M336.013 234.208L405.646 234.192C421.776 234.187 425.08 234.285 425.409 251.006L418.125 251.006L330.254 251.006C327.685 244.688 328.907 236.702 336.013 234.208Z"/>
	<path fill="#495A74" transform="scale(0.195312 0.195312)" d="M353.641 239.221C358.495 239.222 389.7 238.674 391.533 239.669C395.113 241.613 392.727 245.308 387.428 245.377L366.567 245.356C364.234 245.375 344.61 247.565 350.196 240.516C351.075 239.407 352.343 239.377 353.641 239.221Z"/>
	<path fill="#3EA7E0" transform="scale(0.195312 0.195312)" d="M133.84 165.356L196.806 165.326C199.668 165.303 202.62 165.129 205.472 165.356C199.178 165.795 192.627 165.348 186.298 165.349L145.209 165.356L145.209 311.825L133.84 311.825C133.637 306.542 133.836 301.176 133.837 295.884L133.84 165.356Z"/>
	<path fill="#F2F2F2" transform="scale(0.195312 0.195312)" d="M87.3536 318.323L257.541 318.323C255.328 318.939 251.865 318.341 249.492 318.332L131.75 318.323C131.719 331.946 130.606 341.003 140.976 351.51C143.082 353.644 147.053 355.337 148.6 357.352L123.771 357.367C101.178 357.364 87.3154 356.436 87.33 329.455L87.3536 318.323Z"/>
	<path fill="#3EA7E0" transform="scale(0.195312 0.195312)" d="M319.279 257.118L335.303 257.118C335.315 263.491 335.458 269.895 335.303 276.264C323.479 284.999 324.069 299.618 335.303 308.787C335.529 318.406 335.295 328.07 335.303 337.695C334.411 337.635 333.421 337.448 332.559 337.695C331.702 337.747 331.087 337.661 330.356 338.13C329.534 348.145 329.52 369.924 330.385 379.927C330.68 383.34 332.474 384.799 336.013 384.723C336.004 388.856 335.743 393.147 336.013 397.261L326.756 397.261L319.279 397.261L319.279 257.118Z"/>
	<path fill="#718095" transform="scale(0.195312 0.195312)" d="M367.532 397.261C370.766 396.283 373.134 396.604 376.374 397.261L425.409 397.261C425.167 398.726 425.281 400.278 425.138 401.766C424.079 412.817 416.118 420.137 405.004 420.27C390.102 420.449 375.174 420.254 360.269 420.265L346.684 420.267C330.615 420.25 326.754 413.254 326.756 397.261L336.013 397.261L357.633 397.247C360.863 397.239 364.343 396.865 367.532 397.261Z"/>
	<path fill="#495A74" transform="scale(0.195312 0.195312)" d="M367.532 397.261C370.766 396.283 373.134 396.604 376.374 397.261C390.719 410.486 370.631 423.905 363.299 412.758C359.146 406.445 361.811 400.934 367.532 397.261Z"/>
	<path fill="#F2F2F2" transform="scale(0.195312 0.195312)" d="M187.787 191.366L235.687 191.369C239.591 191.368 243.498 191.408 247.402 191.35C264.181 191.104 260.762 194.413 260.762 209.854L260.741 237.005C260.219 239.097 260.735 249.04 260.741 252.135L205.874 252.143C200.074 252.12 193.33 252.834 187.787 251.006C189.042 233.722 188.172 208.872 187.787 191.366Z"/>
	<path fill="#CB645D" transform="scale(0.195312 0.195312)" d="M231.253 204.344C239.003 203.826 247.241 210.213 246.469 218.476C245.299 230.996 229.942 240.874 221.03 248.344C219.177 246.27 216.94 244.341 214.368 243.24C207.837 236.85 198.705 230.491 196.578 221.007C193.379 206.747 209.567 200.897 221.03 208.972C224.168 206.354 227.188 204.881 231.253 204.344Z"/>
	<path fill="#F08369" transform="scale(0.195312 0.195312)" d="M221.03 214.332C226.837 212.653 230.373 205.669 237.323 210.67C240.778 212.099 241.171 215.999 240.689 219.251C239.201 228.065 227.544 235.973 221.03 241.373C214.992 236.94 189.532 216.478 206.978 209.985C212.457 207.946 216.223 212.043 220.697 214.175L221.03 214.332Z"/>
	<path fill="#F2F2F2" transform="scale(0.195312 0.195312)" d="M237.323 210.67C240.778 212.099 241.171 215.999 240.689 219.251L236.168 219.251C235.986 215.192 232.824 212.828 237.323 210.67Z"/>
	<path fill="#E5E4E4" transform="scale(0.195312 0.195312)" d="M257.541 318.323L312.949 318.323L312.949 357.352L166.612 357.349C160.633 357.349 154.568 357.134 148.6 357.352C147.053 355.337 143.082 353.644 140.976 351.51C130.606 341.003 131.719 331.946 131.75 318.323L249.492 318.332C251.865 318.341 255.328 318.939 257.541 318.323Z"/>
	<path fill="#495A74" transform="scale(0.195312 0.195312)" d="M215.194 333.79C219.608 333.705 243.202 332.38 245.099 335.828C246.086 337.621 244.469 339.129 242.862 339.772C238.779 339.771 215.775 340.245 214.247 339.457C211.591 338.088 212.632 334.496 215.194 333.79Z"/>
	<path fill="#E5E4E4" transform="scale(0.195312 0.195312)" d="M159.435 141.019L310.714 141.01C339.689 140.997 340.285 139.762 340.281 172.314L340.281 210.847C340.277 215.387 338.11 222.854 345.051 221.637C344.886 223.925 344.849 226.091 345.051 228.377C337.657 228.357 330.136 228.03 322.817 229.22L322.833 169.025C322.838 166.024 322.986 162.976 322.592 159.997C319.488 158.171 302.774 159.25 298.613 159.25L259.733 159.261C259.804 157.01 260.126 154.547 259.242 152.43C257.268 150.221 244.272 151.415 241.224 151.425C230.662 151.463 231.074 150.032 231.253 161.107C224.652 161.12 218.041 161.2 211.441 161.107C210.124 158 203.638 159.219 200.919 159.24L145.209 159.261C126.468 159.146 131.176 158.209 131.171 178.97L131.175 311.825L114.274 311.825L114.262 168.942C114.258 144.816 113.94 141.008 139.411 141.003L159.435 141.019Z"/>
	<path fill="#6BC5F4" transform="scale(0.195312 0.195312)" d="M335.303 257.118L425.409 257.118L425.422 383.114C425.426 387.708 425.828 392.704 425.409 397.261L376.374 397.261C373.134 396.604 370.766 396.283 367.532 397.261C364.343 396.865 360.863 397.239 357.633 397.247L336.013 397.261C335.743 393.147 336.004 388.856 336.013 384.723C332.474 384.799 330.68 383.34 330.385 379.927C329.52 369.924 329.534 348.145 330.356 338.13C331.087 337.661 331.702 337.747 332.559 337.695C333.421 337.448 334.411 337.635 335.303 337.695C335.295 328.07 335.529 318.406 335.303 308.787C324.069 299.618 323.479 284.999 335.303 276.264C335.458 269.895 335.315 263.491 335.303 257.118Z"/>
	<path fill="#F2F2F2" transform="scale(0.195312 0.195312)" d="M392.262 299.589C393.505 299.592 422.18 297.299 415.04 304.21C412.913 306.269 404.168 305.425 401.125 305.398L387.415 305.398C386.047 305.398 373.077 305.901 377.617 300.771C379.184 299.001 389.491 299.581 392.262 299.589Z"/>
	<path fill="#F2F2F2" transform="scale(0.195312 0.195312)" d="M401.92 282.425C402.849 282.431 420.334 281.017 415.247 287.069C413.483 289.168 408.802 288.286 406.436 288.282L392.262 288.273C390.971 288.263 372.235 289.95 377.883 283.436C379.501 281.569 384.792 282.442 386.942 282.442L401.92 282.425Z"/>
	<path fill="#F08369" transform="scale(0.195312 0.195312)" d="M335.303 276.264C364.322 263.012 378.152 300.545 353.769 311.015C347.423 313.74 341.028 311.955 335.303 308.787C324.069 299.618 323.479 284.999 335.303 276.264Z"/>
	<path fill="#FC9E6C" transform="scale(0.195312 0.195312)" d="M345.051 276.915C366.971 279.442 367.215 303.405 349.341 307.987C330.846 311.384 323.122 282.706 345.051 276.915Z"/>
	<path fill="#F2F2F2" transform="scale(0.195312 0.195312)" d="M345.592 282.425C350.077 282.719 349.483 286.769 349.341 290.129C359.753 289.879 359.565 296.553 349.341 296.644C349.458 299.953 349.939 301.943 346.368 303.076C342.406 303.235 343.028 299.552 343.226 296.644C332.189 296.221 332.069 290.081 343.226 290.129C343.24 286.979 342.773 284.514 345.592 282.425Z"/>
	<path fill="#F2F2F2" transform="scale(0.195312 0.195312)" d="M332.559 337.695L413.162 337.695C417.266 341.636 415.406 357.391 415.435 363.3C415.471 370.587 418.688 383.8 409.957 384.558C387.4 386.516 359.297 384.27 336.013 384.723C332.474 384.799 330.68 383.34 330.385 379.927C329.52 369.924 329.534 348.145 330.356 338.13C331.087 337.661 331.702 337.747 332.559 337.695Z"/>
	<path fill="#718095" transform="scale(0.195312 0.195312)" d="M380.507 348.849C385.185 348.989 399.223 348.115 402.688 349.446C406.152 350.777 404.846 354.823 401.92 355.789C398.624 355.908 380.587 356.253 379.033 355.438C375.429 353.548 377.352 349.663 380.507 348.849Z"/>
	<path fill="#718095" transform="scale(0.195312 0.195312)" d="M379.64 366.901L393.56 366.883C396.423 366.872 406.208 365.427 404.617 370.848C404.146 372.456 403.359 373.339 401.92 374.15C394.999 373.521 387.868 374.683 380.922 374.034C376.613 373.631 376.054 369.193 379.64 366.901Z"/>
	<path fill="#718095" transform="scale(0.195312 0.195312)" d="M343.226 348.849L355.998 348.854C359.114 348.832 363.652 347.908 366.289 350.073C369.237 352.494 366.566 355.596 363.6 355.789C360.427 355.779 341.534 356.377 339.898 355.307C336.921 353.358 338.248 349.254 343.226 348.849Z"/>
	<path fill="#718095" transform="scale(0.195312 0.195312)" d="M341.789 366.901C345.679 366.848 362.879 366.405 365.281 367.416C368.854 368.918 367.503 373.568 363.6 374.15L349.125 374.15C345.832 374.165 339.197 375.32 338.055 370.932C337.42 368.493 339.816 367.34 341.789 366.901Z"/>
	<path fill="#6BC5F4" transform="scale(0.195312 0.195312)" d="M237.323 165.356L317.491 165.356L317.491 232.742C311.163 242.241 312.955 252.052 312.953 262.83L312.949 311.825L145.209 311.825L145.209 165.356L186.298 165.349C192.627 165.348 199.178 165.795 205.472 165.356L205.472 185.487C190.03 185.454 186.904 182.023 175.765 191.366C175.51 196.152 175.778 201.094 175.765 205.901C172.675 205.945 169.578 206.04 166.489 205.901C166.515 201.804 166.627 197.681 166.489 193.587C162.987 193.513 153.094 193.008 150.222 194.097C149.725 194.73 146.397 217.617 153.426 215.542C157.465 214.349 155.62 202.865 155.638 199.709C157.262 199.709 158.892 199.68 160.515 199.709C160.43 216.151 160.678 211.829 175.765 212.182L175.765 232.742L160.062 232.738C148.163 232.745 149.416 230.527 149.397 241.715C149.393 244.361 147.611 260.558 152.27 260.015C158.105 259.336 155.648 244.234 155.638 239.221L175.765 239.221C175.697 254.057 173.142 263.263 191.119 263.24L205.472 263.205L205.472 282.425C198.066 282.753 190.538 282.416 183.116 282.425C183.129 280.593 183.192 278.745 183.116 276.915L177.065 276.915C177.041 279.456 176.566 286.898 177.71 288.86C182.395 290.206 210.803 290.073 211.313 287.764C211.93 284.97 211.479 281.338 211.46 278.463L211.441 263.205L231.253 263.205C231.247 267.529 230.57 289.728 232.303 291.969C232.939 292.792 236.003 292.628 236.993 292.625L255.831 292.614C258.166 292.619 260.845 292.978 263.126 292.728C265.448 292.473 268.172 289.375 266.035 287.313C263.967 285.317 257.647 286.422 255.013 286.444L238.028 286.462L238.028 263.205C265.58 263.23 266.913 267.127 266.772 237.005C271.922 237.005 277.081 236.941 282.23 237.005C282.213 240.221 281.645 245.841 282.711 248.705C283.82 249.563 298.058 250.077 299.944 248.283C300.904 244.958 300.409 216.314 300.245 211.892C300.026 206.034 291.766 208.214 286.866 208.228L266.772 208.234C266.833 196.981 269.109 185.538 253.453 185.446L237.323 185.487C237.322 178.782 237.215 172.059 237.323 165.356Z"/>
	<path fill="#F2F2F2" transform="scale(0.195312 0.195312)" d="M177.065 276.915C175.247 277 171.134 277.631 169.618 276.561C169.055 276.163 165.999 255.229 172.445 255.815C177.657 256.29 175.771 266.387 175.765 269.993C179.254 269.974 187.251 269.472 190.154 270.022C193.11 270.582 195.254 273.783 192.312 276.093C190.281 277.688 185.626 277.012 183.116 276.915L177.065 276.915Z"/>
	<path fill="#F2F2F2" transform="scale(0.195312 0.195312)" d="M170.38 205.901C167.625 201.12 167.841 178.324 169.817 174.015C172.914 171.33 203.884 170.309 193.614 179.024L193.364 179.233C188.731 179.933 180.751 179.231 175.765 179.233C175.903 183.301 175.743 187.309 175.765 191.366C175.51 196.152 175.778 201.094 175.765 205.901C173.99 205.732 172.163 205.856 170.38 205.901Z"/>
	<path fill="#F2F2F2" transform="scale(0.195312 0.195312)" d="M244.07 172.587C248.354 172.392 273.658 171.804 275.473 173.822C276.973 175.488 276.038 182.283 276.044 184.392C276.06 189.345 278.197 196.629 273.205 199.709C266.299 197.81 269.256 185.586 269.207 179.233L254.226 179.246C251.479 179.271 241.557 180.602 241.031 176.409C240.755 174.209 241.965 172.853 244.07 172.587Z"/>
	<path fill="#F2F2F2" transform="scale(0.195312 0.195312)" d="M271.244 249.963C279.871 250.214 275.831 274.751 274.095 276.69C272.477 277.443 250.448 276.911 247.302 276.915C244.688 276.83 239.329 274.863 242.538 271.56C245.147 268.876 251.337 269.968 254.667 269.996L268.496 269.993L268.496 252.135C269.363 251.219 270.171 250.617 271.244 249.963Z"/>
</svg>
