<?xml version="1.0" encoding="utf-8" ?>
<svg xmlns="http://www.w3.org/2000/svg" xmlns:xlink="http://www.w3.org/1999/xlink" width="100" height="100">
	<path fill="#3B4C86" transform="scale(0.195312 0.195312)" d="M217.036 216.078C228.585 202.704 237.555 205.237 253.187 205.242L321.926 205.234C327.63 205.231 333.763 204.743 339.396 205.616C358.18 208.528 358.774 224.871 358.767 239.205L358.757 275.582C358.77 279.372 359.028 283.336 358.31 287.072C354.274 308.072 333.116 304.533 317.566 304.533L248.453 304.537C237.08 304.539 223.821 306.11 217.036 294.632C218.92 291.868 222.167 289.178 224.801 287.105C235.754 294.85 236.423 292.662 249.765 292.649L320.328 292.624C328.4 292.629 345.16 296.019 346.499 284.623C346.859 281.562 346.682 278.309 346.686 275.224L346.69 239.291C346.685 230.25 348.728 218.272 336.231 217.299C329.797 216.798 323.017 217.217 316.553 217.218L248.472 217.22C236.589 217.215 233.524 214.53 225.626 224.71C225.006 223.667 218.48 217.574 217.036 216.078Z"/>
	<path fill="#8082BD" transform="scale(0.195312 0.195312)" d="M126.253 353.414C122.111 357.097 115.198 365.89 111.077 368.336C106.145 371.263 99.6765 365.006 104.531 358.761C107.601 354.811 124.682 337.358 128.528 334.336C134.491 329.649 139 336.979 142.832 340.854C146.443 344.507 163.286 359.483 162.368 364.001C161.723 367.172 158.296 369.76 155.045 368.821C152.187 367.996 141.338 356.092 138.237 353.414L138.247 391.986C138.237 413.451 136.146 423.782 161.158 423.735L309.012 423.714C323.845 423.714 338.721 423.967 353.548 423.711C371.806 423.396 373.315 416.001 373.6 400.227C373.671 396.308 374.035 392.71 373.572 388.782L361.996 388.818C360.184 388.826 358.187 389.005 356.394 388.782C366.841 387.687 373.56 389.85 385.457 386.62L385.488 401.125C385.683 435.013 366.765 435.737 338.782 435.741L156.493 435.74C148.417 435.69 140.917 433.899 135.063 427.921C125.662 418.321 126.237 409.864 126.238 397.299L126.258 367.369C126.264 362.8 126.671 357.937 126.253 353.414Z"/>
	<path fill="#8082BD" transform="scale(0.195312 0.195312)" d="M127.079 121.97C127.529 120.055 127.093 117.288 127.079 115.281L127.048 103.939C127.016 78.8758 137.602 71.6239 162.366 71.6177L343.493 71.6101C352.716 71.6052 364.483 70.1845 372.599 75.4207C386.63 84.4731 384.776 99.628 384.767 114.16L384.747 140.785C384.744 145.468 384.329 150.66 385.363 155.238L385.457 155.645C390.859 150.706 396.052 141.61 403.256 139.544C419.664 143.78 399.375 158.444 394.304 163.491C388.721 169.048 381.803 180.598 373.295 172.593C367.81 167.432 362.448 162.049 357.117 156.728C353.357 152.976 345.091 147.136 351.122 141.418C357.99 134.907 368.311 150.12 372.261 154.682C373.088 141.81 372.237 128.238 372.252 115.281C372.259 109.978 372.883 98.2178 371.862 93.6146C368.94 80.4422 349.958 83.8701 340.329 83.8802L160.561 83.8768C133.843 83.939 138.673 98.2338 138.734 119.746C140.011 119.723 141.29 119.741 142.567 119.746C139.956 120.175 129.101 121.895 127.079 121.97Z"/>
	<path fill="#3B4C86" transform="scale(0.195312 0.195312)" d="M149.191 290.12C159.693 291.701 158.65 300.672 152.965 302.052C150.279 302.705 146.901 301.878 144.215 301.428C104.993 294.852 72.8323 266.907 63.6249 227.527C53.2462 183.138 81.4677 132.46 126.253 121.97C127.657 123.877 126.726 131.045 127.079 133.787C77.6418 145.946 74.5963 217.848 122.909 236.928C125.554 237.972 129.282 238.556 131.581 240.182C135.901 243.238 133.626 249.029 129.894 251.354C118.643 262.496 125.932 266.101 134.63 274.864C139.572 279.842 144.611 284.804 149.191 290.12Z"/>
	<path fill="#4EBAFE" transform="scale(0.195312 0.195312)" d="M149.191 290.12C142.244 289.83 135.384 288.04 128.876 285.675C89.5329 271.378 61.802 225.417 76.6688 184.809C76.45 215.398 99.6927 245.913 129.894 251.354C118.643 262.496 125.932 266.101 134.63 274.864C139.572 279.842 144.611 284.804 149.191 290.12Z"/>
	<path fill="#24717C" transform="scale(0.195312 0.195312)" d="M217.036 294.632C202.623 303.798 206.022 316.14 190.011 300.144L159.963 269.652C156.306 265.965 152.367 262.36 149.033 258.39C144.214 252.651 153.923 245.982 157.572 242.329L188.415 211.913C192.506 207.801 197.26 199.847 203.873 204.085C207.273 206.264 213.707 212.973 217.036 216.078C218.48 217.574 225.006 223.667 225.626 224.71C231.376 229.911 237.769 237.101 244.039 241.305C245.272 242.716 246.483 244.193 248.059 245.236C261.173 259.538 253.112 254.102 248.059 264.965C244.486 266.991 241.748 270.139 238.732 272.883C233.986 277.381 229.199 282.264 224.801 287.105C222.167 289.178 218.92 291.868 217.036 294.632Z"/>
	<path fill="#96DFD6" transform="scale(0.195312 0.195312)" d="M200.131 217.227C201.249 217.306 234.852 249.112 240.152 255.032C236.295 259.222 231.841 263.021 227.747 266.989L201.438 292.632L200.917 293.187C198.759 293.159 166.259 259.314 162.051 255.032C165.843 250.402 170.677 246.395 174.885 242.121L191.174 225.702C194.049 222.842 196.859 219.623 200.131 217.227Z"/>
	<path fill="#FDFDFE" transform="scale(0.195312 0.195312)" d="M225.626 224.71C233.524 214.53 236.589 217.215 248.472 217.22L316.553 217.218C323.017 217.217 329.797 216.798 336.231 217.299C348.728 218.272 346.685 230.25 346.69 239.291L346.686 275.224C346.682 278.309 346.859 281.562 346.499 284.623C345.16 296.019 328.4 292.629 320.328 292.624L249.765 292.649C236.423 292.662 235.754 294.85 224.801 287.105C229.199 282.264 233.986 277.381 238.732 272.883C241.748 270.139 244.486 266.991 248.059 264.965C253.112 254.102 261.173 259.538 248.059 245.236C246.483 244.193 245.272 242.716 244.039 241.305C237.769 237.101 231.376 229.911 225.626 224.71Z"/>
	<path fill="#3B4C86" transform="scale(0.195312 0.195312)" d="M248.059 264.965C250.952 264.522 263.949 264.558 265.943 266.024C268.646 268.011 268.576 272.245 266.63 274.71C264.241 277.737 242.956 279.622 238.732 272.883C241.748 270.139 244.486 266.991 248.059 264.965Z"/>
	<path fill="#3B4C86" transform="scale(0.195312 0.195312)" d="M244.039 241.305C243.493 236.052 247.003 233.869 251.891 233.417C256.738 232.968 273.529 232.689 278.237 233.459C284.635 234.505 284.074 245.01 275.286 245.231C266.22 245.459 257.122 244.994 248.059 245.236C246.483 244.193 245.272 242.716 244.039 241.305Z"/>
	<path fill="#3B4C86" transform="scale(0.195312 0.195312)" d="M300.397 233.274L318.143 233.293C322.936 233.27 332.262 231.545 334.366 237.365C335.628 240.857 332.985 244.216 329.71 245.236C321.338 245.505 308.821 245.832 300.534 245.187C296.804 244.897 295.634 243.421 294.632 239.861C295.428 236.389 296.553 233.857 300.397 233.274Z"/>
	<path fill="#3B4C86" transform="scale(0.195312 0.195312)" d="M285.364 264.965C291.466 264.406 297.952 264.975 304.102 264.97L319.889 264.968C323.459 264.972 328.692 264.163 331.909 266.087C337.165 269.232 334.952 275.58 329.71 276.843L299.719 276.841C295.348 276.842 290.788 277.166 286.448 276.923C278.591 276.484 278.126 266.853 285.364 264.965Z"/>
	<defs>
		<linearGradient id="gradient_0" gradientUnits="userSpaceOnUse" x1="209.32634" y1="181.48584" x2="203.80756" y2="114.8802">
			<stop offset="0" stop-color="#237779"/>
			<stop offset="1" stop-color="#3B4C84"/>
		</linearGradient>
	</defs>
	<path fill="url(#gradient_0)" transform="scale(0.195312 0.195312)" d="M142.567 119.746L259.299 119.746C286.751 119.695 286.159 125.331 286.222 150.844C286.286 176.519 278.722 177.312 254.947 177.28L229.86 177.276C201.137 177.277 172.364 177.631 143.646 177.277C127.866 177.083 127.004 165.747 127.059 153.085L127.135 139.998C127.15 138.129 127.503 135.576 127.079 133.787C126.726 131.045 127.657 123.877 126.253 121.97L127.079 121.97C129.101 121.895 139.956 120.175 142.567 119.746Z"/>
	<path fill="#96DFD6" transform="scale(0.195312 0.195312)" d="M138.734 131.561L253.113 131.549C258.206 131.543 263.359 131.381 268.446 131.587C277.097 131.938 274.5 140.969 274.529 147.845C274.551 153.035 276.105 159.693 272.644 164.036C269.001 166.814 263.012 165.435 258.704 165.43L172.53 165.417C163.133 165.417 153.662 165.719 144.275 165.447C136.581 165.225 138.704 156.98 138.707 150.998L138.734 131.561Z"/>
	<path fill="#3B4C86" transform="scale(0.195312 0.195312)" d="M374.875 207.703C394.614 212.711 410.08 219.61 424.463 234.531C461.849 273.318 459.467 332.984 419.272 368.109C409.487 376.659 398.258 383.681 385.457 386.62C373.56 389.85 366.841 387.687 356.394 388.782L255.472 388.798C241.426 388.808 225.725 387.779 225.605 368.331L225.618 356.606C225.569 340.495 228.737 330.442 247.084 330.35L355.502 330.378C359.899 330.378 364.714 330.003 369.044 330.68C390.032 333.962 385.459 359.407 385.457 374.679C435.42 359.138 436.837 286.671 385.976 270.243C383.493 269.441 380.764 269.507 378.312 268.658C371.58 266.327 372.978 258.632 379.488 256.572C380.905 256.948 382.351 257.162 383.796 257.403C382.894 242.507 377.447 232.506 372.261 219.358C367.269 215.1 368.408 209.656 374.875 207.703Z"/>
	<path fill="#4EBAFE" transform="scale(0.195312 0.195312)" d="M372.261 219.358C420.437 228.497 448.226 275.786 435.575 323.011C436.297 291.87 414.527 263.554 383.796 257.403C382.894 242.507 377.447 232.506 372.261 219.358Z"/>
	<path fill="#96DFD6" transform="scale(0.195312 0.195312)" d="M244.039 342.287L353.398 342.272C370.466 342.263 373.587 339.212 373.586 358.727L373.572 377.231L366.687 377.231L258.228 377.256C240.687 377.283 237.404 379.799 237.319 360.29C237.291 354.011 235.041 343.154 244.039 342.287Z"/>
</svg>
