<?xml version="1.0" encoding="utf-8" ?>
<svg xmlns="http://www.w3.org/2000/svg" xmlns:xlink="http://www.w3.org/1999/xlink" width="100" height="100">
	<path fill="#AA90E7" transform="matrix(0.195312 0 0 0.195312 0 -7.62939e-06)" d="M335.556 135.271C342.886 134.853 351.503 146.39 356.39 151.075C371.267 165.334 369.504 162.595 356.639 175.758L346.932 185.695C344.676 187.991 342.474 190.472 339.864 192.378C335.681 195.431 329.966 191.993 330.035 186.874C330.111 181.228 339.229 174.512 342.965 170.936L324.675 170.936L292.858 170.941C287.733 170.943 282.17 171.394 277.096 170.769C271.51 170.08 263.556 157.032 284.583 157.187L342.965 157.237C337.681 151.954 322.151 141.296 335.556 135.271Z"/>
	<path fill="#AA90E7" transform="matrix(0.195312 0 0 0.195312 0 -7.62939e-06)" d="M104.77 285.82C107.522 285.506 110.22 285.587 112.339 287.683C119.668 294.934 106.894 303.068 102.325 307.526L142.757 307.525C147.953 307.522 156.476 306.959 161.275 307.695C167.035 308.579 169.946 315.476 165.699 319.956C162.077 323.776 154.487 322.034 149.847 322.031L118.625 322.036L102.325 322.036C105.582 325.74 110.655 329.436 113.297 333.386C117.358 339.458 110.867 346.054 104.568 344.007C102.89 343.462 83.534 323.763 80.3568 320.366C73.1554 312.668 84.355 305.383 89.206 300.446C93.563 296.013 99.1215 288.338 104.77 285.82Z"/>
	<path fill="#FDFDFD" transform="matrix(0.195312 0 0 0.195312 0 -7.62939e-06)" d="M151.021 241.982C162.232 241.738 173.498 241.986 184.716 241.982L184.716 256.744C184.691 257.692 184.6 258.689 184.716 259.63L184.716 271.873L184.438 271.456C181.273 272.671 155.745 271.632 150.251 271.632L92.6334 271.866C67.9584 271.959 51.228 271.768 51.3382 241.982C53.8496 242.187 72.6589 242.419 74.0647 241.982L76.1966 241.982C84.659 242.195 93.1686 241.981 101.636 241.977L151.021 241.982Z"/>
	<path fill="#4F68F7" transform="matrix(0.195312 0 0 0.195312 0 -7.62939e-06)" d="M428.776 392.084L446.941 392.074C451.035 392.076 460.92 390.29 460.218 396.96C459.56 403.221 454.707 410.746 449.802 414.536C440.261 421.906 427.447 420.248 416.125 420.227L201.621 420.232C183.189 420.227 165.204 417.051 163.633 393.469L187.779 393.495C191.162 393.515 194.974 394.009 198.292 393.469C203.254 394.873 208.921 394.239 214.042 394.23L230.849 394.228C245.936 394.228 261.053 394.43 276.136 394.224L344.306 394.224C360.427 394.061 416.095 396.542 428.776 392.084ZM276.136 394.224C283.637 409.243 296.656 405.262 311.252 405.247C324.94 405.233 336.857 408.633 344.306 394.224L276.136 394.224Z"/>
	<path fill="#9FEAF5" transform="matrix(0.195312 0 0 0.195312 0 -7.62939e-06)" d="M74.0647 241.982L74.0494 120.489C74.0382 100.381 75.8266 89.3991 98.7475 89.0775C109.712 88.9236 120.693 89.0521 131.661 89.0501L223.425 89.0511C228.168 89.0519 233.486 88.5906 238.159 89.3125C254.771 91.879 255.539 107.687 255.532 120.404L255.521 214.962L205.375 214.962C179.557 215.102 185.276 241.655 184.716 259.63C184.6 258.689 184.691 257.692 184.716 256.744L184.716 241.982C173.498 241.986 162.232 241.738 151.021 241.982L101.636 241.977C93.1686 241.981 84.659 242.195 76.1966 241.982L74.0647 241.982ZM133.843 127.094C124.969 127.358 123.288 132.06 117.946 137.917C108.536 148.236 105.246 155.807 124.204 155.469L124.19 183.025C124.19 209.539 128.018 205.514 151.168 205.523L196.104 205.511C212.33 205.486 209.036 190.86 209.032 179.642C209.028 170.206 209.29 160.693 208.997 151.265C208.626 139.293 198.245 139.929 189.162 139.931L170.217 139.951L170.217 126.244L148.822 126.237C144.979 126.238 137.453 125.772 133.998 126.787L133.843 127.094Z"/>
	<path fill="#15AFF9" transform="matrix(0.195312 0 0 0.195312 0 -7.62939e-06)" d="M74.0647 241.982L74.0494 120.489C74.0382 100.381 75.8266 89.3991 98.7475 89.0775C109.712 88.9236 120.693 89.0521 131.661 89.0501L223.425 89.0511C228.168 89.0519 233.486 88.5906 238.159 89.3125C254.771 91.879 255.539 107.687 255.532 120.404L255.521 214.962L205.375 214.962C217.334 214.655 229.377 214.962 241.345 214.962L241.353 122.826C241.357 115.649 243.731 103.688 233.622 102.864C227.436 102.36 220.947 102.747 214.73 102.747L124.646 102.75C115.259 102.743 105.763 102.446 96.3889 102.768C85.3056 103.148 88.433 115.503 88.4314 123.937L88.4454 241.982C84.7249 241.972 79.7464 241.423 76.1966 241.982L74.0647 241.982Z"/>
	<path fill="#15AFF9" transform="matrix(0.195312 0 0 0.195312 0 -7.62939e-06)" d="M133.843 127.094L133.998 126.787C137.453 125.772 144.979 126.238 148.822 126.237L170.217 126.244L170.217 139.951L189.162 139.931C198.245 139.929 208.626 139.293 208.997 151.265C209.29 160.693 209.028 170.206 209.032 179.642C209.036 190.86 212.33 205.486 196.104 205.511L151.168 205.523C128.018 205.514 124.19 209.539 124.19 183.025L124.204 155.469C105.246 155.807 108.536 148.236 117.946 137.917C123.288 132.06 124.969 127.358 133.843 127.094ZM133.843 127.094C137.664 128.969 140.33 133.1 143.097 136.192C146.574 140.079 154.501 145.5 151.391 151.577C149.008 156.235 142.976 155.044 138.712 154.743L138.712 191.367L193.592 191.367L193.592 154.743L170.217 154.743L170.217 139.951L170.217 126.244L148.822 126.237C144.979 126.238 137.453 125.772 133.998 126.787L133.843 127.094Z"/>
	<path fill="#334196" transform="matrix(0.195312 0 0 0.195312 0 -7.62939e-06)" d="M205.375 214.962L255.521 214.962L405.978 214.956C417.258 214.954 435.062 212.86 437.632 228.687C438.442 233.678 437.959 239.31 437.956 244.37L437.973 375.396C437.925 383.075 434.39 387.573 428.776 392.084C416.095 396.542 360.427 394.061 344.306 394.224L276.136 394.224C261.053 394.43 245.936 394.228 230.849 394.228L214.042 394.23C208.921 394.239 203.254 394.873 198.292 393.469C184.288 386.78 184.717 376.491 184.713 363.242L184.716 271.873L184.716 259.63C185.276 241.655 179.557 215.102 205.375 214.962Z"/>
	<path fill="#FDFDFD" transform="matrix(0.195312 0 0 0.195312 0 -7.62939e-06)" d="M204.034 229.102C214.83 228.744 225.754 229.103 236.562 229.104L377.537 229.095C384.176 229.094 421.986 227.083 423.359 231.224C424.8 235.57 424.132 253.58 424.13 259.45L424.121 351.007C424.115 358.204 427.131 376.598 420.052 379.158L214.071 379.18C207.934 379.22 200.356 380.847 199.283 372.583C198.571 367.098 198.997 361.152 198.997 355.623L199.019 264.633C199.02 254.931 198.722 245.154 199.019 235.462C199.142 231.431 199.719 229.455 204.034 229.102Z"/>
	<path fill="#15AFF9" transform="matrix(0.195312 0 0 0.195312 0 -7.62939e-06)" d="M277.267 275.291C284.319 274.968 294.551 286.627 297.705 291.628C304.073 301.724 290.589 302.156 285.742 302.773L285.742 339.842L341.482 339.842L341.482 302.773L315.632 302.773L315.632 289.414L347.804 289.414C357.216 289.492 355.838 298.069 355.792 305.132L355.784 337.792C355.913 358.078 351.662 353.989 333.793 353.949L287.63 353.956C267.079 353.953 271.391 352.894 271.398 332.691L271.408 301.61C265.52 303.42 257.569 300.321 260.525 292.809C262.139 288.709 272.645 277.281 277.267 275.291Z"/>
</svg>
