<?xml version="1.0" encoding="utf-8" ?>
<svg xmlns="http://www.w3.org/2000/svg" xmlns:xlink="http://www.w3.org/1999/xlink" width="100" height="100">
	<path fill="#5E93E3" transform="scale(0.195312 0.195312)" d="M298.815 408.939L317.362 408.935C319.469 408.925 321.796 408.517 323.873 408.815C329.156 409.574 331.961 415.208 327.937 419.122C325.206 421.778 321.071 420.817 317.631 420.788L174.556 420.776C168.918 420.777 158.248 422.708 159.258 413.694C159.91 407.867 169.198 408.91 173.191 408.917L187.312 408.939L298.815 408.939Z"/>
	<path fill="#586997" transform="scale(0.195312 0.195312)" d="M397.058 88.499C425.402 86.297 421.189 100.934 421.185 124.052L421.171 290.918L420.849 291.497C419.228 291.604 411.486 288.154 409.906 287.245L409.906 118.485C409.948 105.35 412.363 93.1944 397.058 88.499Z"/>
	<path fill="#DDE9F8" transform="scale(0.195312 0.195312)" d="M204.009 365.491C211.872 366.24 219.972 365.853 227.874 365.846L279.145 365.807C281.118 365.796 283.3 365.614 285.254 365.844C285.249 367.971 285.203 370.108 285.254 372.234L285.254 379.705C286.405 390.798 286.707 395.929 295.464 404.86C296.528 405.944 298.394 407.458 298.815 408.939L187.312 408.939C187.85 408.688 188.667 408.819 189.241 408.939C196.608 399.494 199.944 394.327 202.829 382.602C204.226 377.333 203.984 372.017 204.009 366.628L204.009 365.491Z"/>
	<path fill="#BED9FB" transform="scale(0.195312 0.195312)" d="M204.009 365.491C211.872 366.24 219.972 365.853 227.874 365.846L279.145 365.807C281.118 365.796 283.3 365.614 285.254 365.844C285.249 367.971 285.203 370.108 285.254 372.234L285.254 379.705C285.232 380.612 285.347 381.777 284.939 382.598C280.367 383.221 272.05 382.6 267.152 382.605L209.805 382.585C207.519 382.581 205.101 382.404 202.829 382.602C204.226 377.333 203.984 372.017 204.009 366.628L204.009 365.491Z"/>
	<path fill="#6DAFF6" transform="scale(0.195312 0.195312)" d="M204.009 365.491C211.872 366.24 219.972 365.853 227.874 365.846L279.145 365.807C281.118 365.796 283.3 365.614 285.254 365.844C285.249 367.971 285.203 370.108 285.254 372.234C276.308 372.535 267.235 372.234 258.277 372.233L204.009 372.234C204.133 370.381 204.335 368.466 204.009 366.628L204.009 365.491Z"/>
	<defs>
		<linearGradient id="gradient_0" gradientUnits="userSpaceOnUse" x1="11.447958" y1="180.461" x2="320.56964" y2="384.69278">
			<stop offset="0" stop-color="#677193"/>
			<stop offset="1" stop-color="#5F7CB3"/>
		</linearGradient>
	</defs>
	<path fill="url(#gradient_0)" transform="scale(0.195312 0.195312)" d="M204.009 365.491C200.681 365.347 197.294 365.484 193.958 365.487L92.6253 365.51C69.3495 365.532 64.8506 363.438 64.8397 338.86L64.8316 118.9C64.8182 111.369 62.8724 100.737 67.8812 94.3748C73.533 87.1953 82.3799 89.3965 90.3022 88.499C73.9197 97.0724 75.7716 102.965 76.5813 121.142L76.5813 324.212C76.5546 332.757 73.2196 352.082 86.1838 353.19C93.3573 353.804 102.187 353.327 109.508 353.321L297.625 353.317C309.41 353.494 321.218 353.307 333.006 353.317C333.026 357.535 333.344 361.685 334.076 365.844C332.17 366.051 330.111 365.872 328.186 365.865L316.588 365.844C306.165 365.832 295.668 366.138 285.254 365.844C283.3 365.614 281.118 365.796 279.145 365.807L227.874 365.846C219.972 365.853 211.872 366.24 204.009 365.491Z"/>
	<path fill="#DDE9F8" transform="scale(0.195312 0.195312)" d="M90.3022 88.499C91.6395 88.1324 103.283 88.4905 105.505 88.4937L397.058 88.499C412.363 93.1944 409.948 105.35 409.906 118.485L76.5813 118.485C76.6646 119.404 76.7532 120.23 76.5813 121.142C75.7716 102.965 73.9197 97.0724 90.3022 88.499Z"/>
	<path fill="#FEFEFE" transform="scale(0.195312 0.195312)" d="M231.331 99.2115C236.194 99.2083 254.47 98.5314 257.772 99.8782C262.403 101.767 261.507 108.506 257.051 109.989C252.97 110.344 232.153 110.326 229.547 109.036C225.234 106.901 227.177 100.387 231.331 99.2115Z"/>
	<path fill="#83D7F7" transform="scale(0.195312 0.195312)" d="M333.006 324.212C332.998 320.276 332.426 301.159 333.356 298.853C334.296 296.521 356.38 296.198 377.156 284.486C379.701 283.051 387.839 276.266 390.613 277.108C395.389 278.557 403.219 284.754 409.906 287.245C411.486 288.154 419.228 291.604 420.849 291.497L421.171 290.918L421.257 291.68C425.736 294.088 445.979 295.632 447.346 296.568C448.94 297.66 448.452 353.877 448.218 360.365C447.169 389.484 423.379 416.058 393.512 416.977C366.083 417.821 343.305 399.458 335.973 373.168C335.349 370.929 335.07 367.852 334.076 365.844C333.344 361.685 333.026 357.535 333.006 353.317C321.218 353.307 309.41 353.494 297.625 353.317C301.546 353.127 305.554 353.299 309.484 353.302L333.006 353.317C332.855 343.623 332.997 333.908 333.006 324.212Z"/>
	<path fill="#54D3CC" transform="scale(0.195312 0.195312)" d="M389.476 295.73C392.561 295.673 399.756 300.202 403.22 301.491C413.743 305.409 423.262 306.682 434.043 309.211L434.052 339.328C434.052 346.715 434.542 354.512 433.769 361.851C431.375 384.6 414.531 401.505 391.494 402.69C380.2 402.264 369.92 397.343 361.949 389.389C346.331 373.805 346.914 357.688 346.923 337.469L346.929 309.211C361.973 307.793 376.237 302.873 389.476 295.73Z"/>
	<path fill="#FEFEFE" transform="scale(0.195312 0.195312)" d="M390.69 315.776C405.767 314.669 411.287 331.903 399.183 340.058C415.941 340.945 417.587 345.993 417.515 362.265L409.906 362.265C409.419 365.314 409.648 378.011 409.906 381.509L395.105 381.509L377.081 381.509C377.063 375.103 377.284 368.665 377.081 362.265L367.998 362.265C367.921 345.766 368.565 339.98 386.551 340.058C375.773 332.62 379.206 319.582 390.69 315.776Z"/>
	<path fill="#FEFEFE" transform="scale(0.195312 0.195312)" d="M76.5813 121.142C76.7532 120.23 76.6646 119.404 76.5813 118.485L409.906 118.485L409.906 287.245C403.219 284.754 395.389 278.557 390.613 277.108C387.839 276.266 379.701 283.051 377.156 284.486C356.38 296.198 334.296 296.521 333.356 298.853C332.426 301.159 332.998 320.276 333.006 324.212C332.997 333.908 332.855 343.623 333.006 353.317L309.484 353.302C305.554 353.299 301.546 353.127 297.625 353.317L109.508 353.321C102.187 353.327 93.3573 353.804 86.1838 353.19C73.2196 352.082 76.5546 332.757 76.5813 324.212L76.5813 121.142Z"/>
	<path fill="#5E93E3" transform="scale(0.195312 0.195312)" d="M281.1 283.27L310.147 283.261C313.429 283.261 325.88 282.125 328.079 284.475C329.763 286.274 328.981 290.535 327.182 292.002C322.662 292.517 316.431 292.004 311.709 291.99L293.348 292.023C289.926 292.032 284.509 292.591 281.298 291.635C278.313 290.746 278.197 284.598 281.1 283.27Z"/>
	<path fill="#5E93E3" transform="scale(0.195312 0.195312)" d="M363.881 258.194C366.178 258.149 369.63 257.424 371.466 259.076C373.166 260.606 373.804 264.446 372.121 266.21C370.262 268.157 364.408 267.194 362 267.198L288.875 267.207C286.951 267.249 281.884 267.935 280.422 266.682C278.778 265.271 278.804 260.185 280.333 258.832C282.206 257.175 288.914 258.177 291.313 258.179L363.881 258.194Z"/>
	<path fill="#5E93E3" transform="scale(0.195312 0.195312)" d="M282.73 233.005L357.858 233C361.602 232.986 368.061 232.071 371.503 233.612C373.652 235.781 373.733 241.889 369.813 242.114L306.09 242.116C301.719 242.115 280.792 243.75 279.495 239.822C278.211 235.934 278.794 233.626 282.73 233.005Z"/>
	<path fill="#586997" transform="scale(0.195312 0.195312)" d="M140.564 192.986C140.517 175.573 138.602 160.572 152.203 146.95C167.173 131.956 192.097 131.599 207.037 146.861C220.817 160.937 218.73 175.042 218.721 192.986L209.701 192.986L209.72 179.973C209.721 170.16 209.14 163.157 202.451 155.4C184.314 134.365 151.819 145.626 149.903 174.12C149.219 179.906 149.911 187.066 149.903 192.986C146.785 192.855 143.681 192.848 140.564 192.986Z"/>
	<path fill="#5E93E3" transform="scale(0.195312 0.195312)" d="M240.046 195.786C250.441 200.745 248.061 212.45 248.031 221.929L248.03 268.466C248.09 291.915 246.231 290.929 225.595 290.932L150.467 290.922C139.972 290.923 120.201 294.149 113.812 284.689C115.495 284.086 130.204 284.679 133.544 284.682L219.631 284.701C226.865 284.739 237.003 286.695 239.449 277.479C240.694 272.787 240.05 259.998 240.05 254.635L240.074 209.751C240.084 205.209 239.166 200.256 240.046 195.786Z"/>
	<path fill="#FEFEFE" transform="scale(0.195312 0.195312)" d="M149.903 174.12C151.819 145.626 184.314 134.365 202.451 155.4C209.14 163.157 209.721 170.16 209.72 179.973L209.701 192.986C205.145 192.529 198.954 192.99 194.222 192.993L165.093 192.989C160.04 192.99 154.95 193.179 149.903 192.986L149.903 174.12Z"/>
	<defs>
		<linearGradient id="gradient_1" gradientUnits="userSpaceOnUse" x1="350.05338" y1="208.29802" x2="304.33139" y2="139.77933">
			<stop offset="0" stop-color="#F8605D"/>
			<stop offset="1" stop-color="#FF938A"/>
		</linearGradient>
	</defs>
	<path fill="url(#gradient_1)" transform="scale(0.195312 0.195312)" d="M324.636 132.603C360.172 130.5 382.119 172.091 359.413 200.423C351.969 209.712 342.239 214.403 330.544 215.716C319.554 215.93 309.082 212.884 300.541 205.789C272.095 182.157 287.666 135.319 324.636 132.603Z"/>
	<path fill="#FEFEFE" transform="scale(0.195312 0.195312)" d="M345.904 156.509C349.928 156.438 351.823 158.616 352.752 162.411C351.368 167.92 325.145 192.789 321.121 194.228C317.314 193.861 311.031 186.671 308.211 183.946C306.061 181.901 301.095 178.531 300.706 175.545C300.377 173.02 303.947 169.18 306.397 168.961C309.824 168.654 318.015 177.133 320.645 179.468C325.407 175.291 341.053 157.955 345.904 156.509Z"/>
	<path fill="#DDE9F8" transform="scale(0.195312 0.195312)" d="M76.5813 324.212L333.006 324.212C332.997 333.908 332.855 343.623 333.006 353.317L309.484 353.302C305.554 353.299 301.546 353.127 297.625 353.317L109.508 353.321C102.187 353.327 93.3573 353.804 86.1838 353.19C73.2196 352.082 76.5546 332.757 76.5813 324.212Z"/>
	<path fill="#6DAFF6" transform="scale(0.195312 0.195312)" d="M149.903 192.986C149.911 187.066 149.219 179.906 149.903 174.12L149.903 192.986C154.95 193.179 160.04 192.99 165.093 192.989L194.222 192.993C198.954 192.99 205.145 192.529 209.701 192.986L218.721 192.986C226.37 193.315 233.208 191.612 240.046 195.786C239.166 200.256 240.084 205.209 240.074 209.751L240.05 254.635C240.05 259.998 240.694 272.787 239.449 277.479C237.003 286.695 226.865 284.739 219.631 284.701L133.544 284.682C130.204 284.679 115.495 284.086 113.812 284.689C111.053 277.972 112.724 234.823 112.725 224.975L112.71 210.897C112.491 188.267 121.563 193.05 140.564 192.986C143.681 192.848 146.785 192.855 149.903 192.986Z"/>
	<path fill="#5E93E3" transform="scale(0.195312 0.195312)" d="M204.009 226.763L204.29 226.174C207.895 225.551 212.11 239.227 212.528 242.037C216.253 267.031 186.968 285.899 166.771 270.384C165.267 269.23 162.706 267.699 163.676 265.56L164.356 265.956C178.754 274.337 196.948 267.536 203.981 252.939C208.396 243.775 207.279 236.005 204.009 226.763Z"/>
	<path fill="#FEFEFE" transform="scale(0.195312 0.195312)" d="M163.676 265.56C146.459 256.831 144.107 232.825 158.045 219.643C169.121 209.169 187.937 208.738 198.608 220.193C200.438 222.157 201.855 224.513 203.703 226.446L204.009 226.763C207.279 236.005 208.396 243.775 203.981 252.939C196.948 267.536 178.754 274.337 164.356 265.956L163.676 265.56Z"/>
	<path fill="#F57675" transform="scale(0.195312 0.195312)" d="M177.606 224.077C184.412 224.379 183.083 231.985 183.007 236.853C186.864 236.755 194.534 235.536 194.829 241.215C195.175 247.872 187.574 247.042 183.007 246.98C183.05 251.754 183.821 256.128 178.586 258.194C172.307 256.356 172.833 252.862 173.001 246.98C169.916 247.019 166.752 247.188 163.676 246.98C156.521 237.526 166.296 236.804 173.001 236.853C172.969 232.136 171.437 225.119 177.606 224.077Z"/>
</svg>
