<?xml version="1.0" encoding="utf-8" ?>
<svg xmlns="http://www.w3.org/2000/svg" xmlns:xlink="http://www.w3.org/1999/xlink" width="100" height="100">
	<path fill="#2EB2F9" transform="matrix(0.195313 0 0 0.195313 0.00012207 3.05176e-05)" d="M113.375 175.87C108.29 175.86 100.157 175.378 95.4753 176.078C82.0145 178.093 92.2377 200.969 86.5212 208.106C82.6639 212.921 75.7175 210.453 74.3153 204.998C73.5572 202.049 74.0388 191.724 74.0321 187.994C73.9899 164.75 87.9488 162.279 107.326 162.259L126.535 162.246C122.666 164.957 110.853 160.108 106.689 163.592C104.538 165.392 103.667 171.157 104.866 173.483C107.052 177.729 121.721 173.937 126.706 175.592C122.933 175.541 117.072 175.624 113.375 175.87Z"/>
	<path fill="#2EB2F9" transform="matrix(0.195313 0 0 0.195313 0.00012207 3.05176e-05)" d="M160.246 249.634C160.249 244.535 159.621 225.879 160.714 222.507C163.054 219.735 187.134 212.976 191.716 211.676C190.782 213.443 172.623 218.243 169.338 219.255C160.629 221.939 160.769 221.245 160.798 229.799C160.807 232.506 161.137 249.222 160.567 250.169C158.953 250.925 157.706 249.129 156.746 251.731C156.447 252.541 156.565 255.421 156.446 255.621C153.522 260.523 160.889 260.731 160.75 264.474L160.246 264.474L160.128 263.803C158.838 262.817 146.265 263.357 143.807 263.366C138.935 260.392 131.771 252.329 127.747 247.949L103.816 247.949L103.816 233.705L121.111 233.676C138.796 233.607 135.297 236.569 148.729 249.634L160.246 249.634Z"/>
	<path fill="#2EB2F9" transform="matrix(0.195313 0 0 0.195313 0.00012207 3.05176e-05)" d="M79.5186 226.257C91.4737 225.59 88.2577 240.726 88.2599 248.577L88.2736 293.048C88.2772 298.832 89.9655 306.612 82.7927 308.741C79.5357 308.934 76.4081 308.189 74.7627 305.032C72.9095 301.476 74.0486 271.576 74.0491 265.762L74.0536 244.459C74.0557 237.237 71.9542 230.076 79.5186 226.257Z"/>
	<path fill="#667EF7" transform="matrix(0.195313 0 0 0.195313 0.00012207 3.05176e-05)" d="M132.105 97.8564C159.688 95.1236 164.556 137.136 136.562 140.097C106.595 139.356 105.585 102.364 132.105 97.8564ZM133.893 112.032C123.134 112.605 124.762 126.581 135.147 126.5C146.47 124.226 141.136 108.823 133.893 112.032Z"/>
	<path fill="#9959EE" transform="matrix(0.195313 0 0 0.195313 0.00012207 3.05176e-05)" d="M376.198 97.8564C380.332 96.4479 386.085 99.0494 389.42 101.366C406.128 112.97 398.877 137.168 379.86 140.097L379.599 140.12C351.958 142.344 347.723 99.3987 376.198 97.8564ZM376.198 112.032C367.373 115.076 369.888 126.231 379.071 125.717C387.446 122.579 385.71 111.181 376.198 112.032Z"/>
	<defs>
		<linearGradient id="gradient_0" gradientUnits="userSpaceOnUse" x1="153.58229" y1="412.23526" x2="226.73314" y2="300.5209">
			<stop offset="0" stop-color="#22C4F5"/>
			<stop offset="1" stop-color="#2B9BFD"/>
		</linearGradient>
	</defs>
	<path fill="url(#gradient_0)" transform="matrix(0.195313 0 0 0.195313 0.00012207 3.05176e-05)" d="M160.75 264.474C161.703 269.914 160.138 276.832 160.915 282.816L161.144 283.025L161.183 283.224C164.628 277.903 167.515 278.393 170.674 271.249C171.371 269.673 171.532 267.955 173.047 268.118C174.648 263.134 171.887 232.317 174.277 231.138C176.916 229.836 193.098 224.199 195.265 224.847C188.282 227.477 180.982 229.267 173.935 231.74L173.926 278.108C173.924 287.4 173.467 296.906 174.265 306.166C177.578 344.579 208.176 370.644 239.465 388.655C242.659 390.494 253.995 397.324 256.503 397.224C260.673 397.057 296.883 372.698 301.709 368.751C310.406 361.641 317.909 353.491 324.357 344.322L324.864 344.445C321.261 350.729 315.47 356.91 310.221 361.863C308.425 363.558 300.956 368.83 303.025 370.757C305.278 372.854 304.851 379.088 307.681 380.796C310.393 380.618 320.01 369.966 322.646 368.835C323.628 368.414 346.619 369.043 349.837 368.854C351.158 368.776 357.429 368.043 358.226 368.6L357.889 368.506C353.383 371.042 330.27 367.277 324.357 368.892C321.645 369.344 316.763 374.797 314.39 376.76C300.655 388.126 285.598 397.074 270.383 406.221C254.988 415.477 257.58 415.78 241.228 406.452C226.61 398.112 212.208 389.029 199.186 378.315C196.218 375.873 193.356 372.998 190.109 370.942L189.807 370.753L104.045 370.76C89.4404 370.814 75.4298 369.017 74.2077 349.862C73.9888 346.431 73.6356 332.656 74.2223 329.885C75.7465 322.684 85.7966 322.563 87.7998 329.597C89.0078 333.839 88.1077 342.691 88.1952 347.433C88.4021 358.653 101.021 356.151 108.757 356.152L163.389 356.15C168.48 356.152 173.634 356.394 178.713 356.151C169.068 338.743 164.034 332.647 160.75 310.778C138.377 311.783 139.156 312.634 124.718 296.038C120.096 296.451 108.481 296.428 103.816 296.038C103.727 291.707 103.818 287.354 103.816 283.02C132.038 282.971 126.707 277.624 144.819 297.246L160.246 297.246L160.246 264.474L160.75 264.474Z"/>
	<path fill="#667EF7" transform="matrix(0.195313 0 0 0.195313 0.00012207 3.05176e-05)" d="M371.246 162.246C371.202 159.352 370.608 155.671 372.767 153.384C378.848 146.94 384.54 153.709 384.358 162.246L404.231 162.229C410.033 162.227 416.671 161.505 422.269 163.089C439.405 167.938 437.754 185.352 437.757 198.863L437.77 344.978C437.76 360.801 430.669 368.947 414.625 368.922L332.374 368.909C329.83 368.921 326.861 369.251 324.357 368.892C330.27 367.277 353.383 371.042 357.889 368.506L358.226 368.6C357.429 368.043 351.158 368.776 349.837 368.854C346.619 369.043 323.628 368.414 322.646 368.835C320.01 369.966 310.393 380.618 307.681 380.796C304.851 379.088 305.278 372.854 303.025 370.757C300.956 368.83 308.425 363.558 310.221 361.863C315.47 356.91 321.261 350.729 324.864 344.445L324.357 344.322C339.656 318.903 338.223 304.66 338.224 276.144L338.223 231.74C332.545 229.265 326.5 227.639 320.572 225.879L295.386 218.486C282.161 214.583 269.186 209.825 256.044 205.646C235.758 211.696 215.732 218.813 195.265 224.847C193.098 224.199 176.916 229.836 174.277 231.138C171.887 232.317 174.648 263.134 173.047 268.118C171.532 267.955 171.371 269.673 170.674 271.249C167.515 278.393 164.628 277.903 161.183 283.224L161.144 283.025L160.915 282.816C160.138 276.832 161.703 269.914 160.75 264.474C160.889 260.731 153.522 260.523 156.446 255.621C156.565 255.421 156.447 252.541 156.746 251.731C157.706 249.129 158.953 250.925 160.567 250.169C161.137 249.222 160.807 232.506 160.798 229.799C160.769 221.245 160.629 221.939 169.338 219.255C172.623 218.243 190.782 213.443 191.716 211.676C194.23 210.379 197.422 209.657 200.142 208.788L245.504 194.615C248.974 193.559 252.489 192.235 256.044 191.53C285.676 201.938 317.31 208.855 346.412 219.569C353.44 222.157 351.695 227.707 351.69 234.315L351.66 249.634C354.97 250.237 358.228 249.631 361.551 249.634C377.569 240.816 365.838 234.498 390.304 234.493L408.319 234.502C408.499 238.959 408.327 243.485 408.319 247.949C399.999 247.957 391.67 247.819 383.353 247.949C380.815 251.008 371.96 260.307 368.768 262.639C366.785 264.089 354.755 263.82 351.66 263.366L351.66 297.246C355.498 297.231 361.177 298.112 364.793 296.704C371.142 294.233 374.418 284.697 380.694 282.708C384.668 281.449 402.99 282.117 408.319 282.125L408.319 296.038C400.99 296.045 393.466 295.636 386.16 296.038C380.52 299.57 375.966 308.465 370.092 310.43C367.303 311.363 355.088 310.772 351.065 310.778C349.964 329.505 342.474 340.27 333.672 355.232C339.188 355.484 344.818 355.244 350.348 355.241L406.314 355.247C421.726 355.256 423.344 357.489 423.298 339.873L423.29 192.535C423.287 176.867 423.883 175.835 406.184 175.85L384.358 175.87C384.272 179.847 385.433 185.946 382.596 189.117C380.048 191.965 375.546 191.608 373.025 188.936C370.16 185.899 371.215 179.818 371.246 175.87L141.731 175.87C141.773 180.014 142.68 186.603 139.546 189.849C136.863 192.629 132.268 192.429 129.659 189.651C126.682 186.483 127.708 179.949 127.747 175.87L113.375 175.87C117.072 175.624 122.933 175.541 126.706 175.592C121.721 173.937 107.052 177.729 104.866 173.483C103.667 171.157 104.538 165.392 106.689 163.592C110.853 160.108 122.666 164.957 126.535 162.246L127.086 161.923C129.821 146.447 142.481 153.015 141.731 162.246L294.561 162.245C320.113 162.244 345.696 161.979 371.246 162.246Z"/>
	<defs>
		<linearGradient id="gradient_1" gradientUnits="userSpaceOnUse" x1="301.44168" y1="244.11575" x2="210.04637" y2="349.58997">
			<stop offset="0" stop-color="#5F75FA"/>
			<stop offset="1" stop-color="#28A8FB"/>
		</linearGradient>
	</defs>
	<path fill="url(#gradient_1)" transform="matrix(0.195313 0 0 0.195313 0.00012207 3.05176e-05)" d="M252.187 226.257C289.159 222.868 324.712 256.17 326.161 293.17C327.628 330.634 298.837 365.083 260.641 366.481C243.24 366.787 225.485 362.165 211.528 351.455C182.168 328.924 177.349 283.798 199.855 254.855C213.184 237.712 230.847 228.955 252.187 226.257ZM253.811 241.592C238.943 243.331 227.16 255.991 229.027 271.349L229.173 272.473C213.996 272.727 216.524 282.25 216.59 294.199C216.616 298.931 216.405 303.714 216.671 308.438C218.015 332.362 237.505 346.778 260.641 345.492C290.831 341.254 295.329 319.252 295.255 293.544C295.222 281.752 297.903 273.271 283.338 272.473C285.406 257.427 274.557 243.619 259.565 241.654C258.048 241.456 255.259 241.065 253.811 241.592Z"/>
	<path fill="#667EF7" transform="matrix(0.195313 0 0 0.195313 0.00012207 3.05176e-05)" d="M253.811 254.29C266.45 253.177 270.838 261.196 270.781 272.473L257.938 272.473L241.022 272.473C240.834 263.036 244.299 256.757 253.811 254.29Z"/>
	<defs>
		<linearGradient id="gradient_2" gradientUnits="userSpaceOnUse" x1="270.72653" y1="278.67075" x2="238.49159" y2="326.05374">
			<stop offset="0" stop-color="#4A81FD"/>
			<stop offset="1" stop-color="#32A2FD"/>
		</linearGradient>
	</defs>
	<path fill="url(#gradient_2)" transform="matrix(0.195313 0 0 0.195313 0.00012207 3.05176e-05)" d="M265.565 285.715L282.521 285.715L282.557 299.933C282.577 304.251 282.932 308.871 281.926 313.095C278.282 328.394 262.74 335.341 248.199 331.792C232.142 326.681 229.16 315.431 229.159 299.868L229.173 285.715L265.565 285.715ZM265.565 294.787C259.985 297.185 256.977 303.529 252.187 307.122C247.614 299.605 230.063 304.169 248.199 319.942C249.531 322.168 252.176 324.04 254.685 322.208C257.143 320.414 269.99 306.983 271.878 304.382C275.285 299.69 270.973 294.355 265.565 294.787Z"/>
</svg>
