<?xml version="1.0" encoding="utf-8" ?>
<svg xmlns="http://www.w3.org/2000/svg" xmlns:xlink="http://www.w3.org/1999/xlink" width="100" height="100">
	<path fill="#5CC2FA" transform="scale(0.195312 0.195312)" d="M79.1414 303.148C69.6205 271.164 68.5195 236.893 79.1414 204.963C80.8387 207.098 79.7469 222.1 79.7468 225.569L79.7426 289.266C79.7403 294.457 79.349 298.355 79.1414 303.148Z"/>
	<path fill="#A4DAF9" transform="scale(0.195312 0.195312)" d="M420.697 196.224L420.697 196.224C429.652 214.33 431.334 251.01 429.471 270.271C428.623 279.033 426.447 287.559 425.487 296.292C417.574 288.678 415.182 284.063 405.031 276.934C403.125 275.595 400.62 274.514 398.969 272.908C399.837 266.924 400.33 252.89 398.969 247.732C404.389 243.87 416.346 234.091 418.013 228.808C419.32 224.665 413.569 220.688 411.898 217.29C413.779 211.569 418.264 205.077 420.697 197.987C420.61 197.39 420.665 196.823 420.697 196.224Z"/>
	<path fill="#A4DAF9" transform="scale(0.195312 0.195312)" d="M274.861 383.185C275.977 383.19 277.098 383.219 278.213 383.185C279.564 387.947 281.733 391.948 283.514 396.466L283.999 396.466C289.731 405.413 292.878 406.99 298.828 413.749C255.174 431.975 203.812 427.704 162.771 404.727C158.487 402.328 153.09 399.918 149.56 396.466C145.249 396.678 140.832 396.476 136.508 396.476L93.6881 396.47C83.8368 396.466 71.8295 397.2 71.2633 383.185L85.3053 383.185C91.5559 383.464 97.9129 383.199 104.176 383.193L180.209 383.192C186.542 383.196 192.994 383.463 199.312 383.185L199.312 383.185L251.889 383.185C259.506 383.185 267.257 382.884 274.861 383.185Z"/>
	<path fill="#1E6ADB" transform="scale(0.195312 0.195312)" d="M274.861 383.185C275.977 383.19 277.098 383.219 278.213 383.185C279.564 387.947 281.733 391.948 283.514 396.466L149.56 396.466C145.249 396.678 140.832 396.476 136.508 396.476L93.6881 396.47C83.8368 396.466 71.8295 397.2 71.2633 383.185L85.3053 383.185C91.5559 383.464 97.9129 383.199 104.176 383.193L180.209 383.192C186.542 383.196 192.994 383.463 199.312 383.185L199.312 383.185L251.889 383.185C259.506 383.185 267.257 382.884 274.861 383.185Z"/>
	<path fill="#FED265" transform="scale(0.195312 0.195312)" d="M331.324 103.642C331.388 88.5597 327.414 84.7278 342.58 84.7388C366.616 84.7562 365.643 81.1172 365.511 103.642C373.416 104.943 380.47 108.536 387.195 112.714C398.853 98.6194 399.04 101.182 410.102 111.972C422.843 124.4 426.338 123.566 411.898 137.117C416.102 142.76 420.062 152.006 420.697 158.997C425.335 158.999 435.125 157.69 436.473 163.992C437.444 168.533 436.969 184.343 436.781 189.539C436.371 200.86 423.898 193.866 420.697 196.224L420.697 196.224C420.665 196.823 420.61 197.39 420.697 197.987C415.969 196.339 407.612 189.364 403.151 190.384C403.736 186.593 404.258 182.848 404.297 179.002C404.806 128.634 345.234 102.379 308.571 138.73C305.377 142.485 302.269 146.181 299.757 150.445C297.847 147.777 289.144 139.965 286.245 138.73C283.004 134.793 278.22 131.593 275.788 127.164L275.89 126.947C276.89 124.78 278.3 123.389 279.975 121.745C283.451 117.914 287.165 114.374 290.803 110.705C295.81 105.655 298.296 100.19 305.039 105.315C307.72 104.254 310.199 101.799 312.379 99.9291C316.146 101.682 321.362 103.597 324.588 106.13C326.92 105.433 329.142 104.737 331.324 103.642Z"/>
	<path fill="#5CC2FA" transform="scale(0.195312 0.195312)" d="M312.379 99.9291C316.146 101.682 321.362 103.597 324.588 106.13C320.236 107.945 316.12 109.806 312.379 112.714C309.805 110.376 307.438 107.83 305.039 105.315C307.72 104.254 310.199 101.799 312.379 99.9291Z"/>
	<path fill="#A4DAF9" transform="scale(0.195312 0.195312)" d="M101.329 158.997C101.773 155.1 108.585 148.496 111.153 145.398C159.148 87.5123 243.918 67.1006 312.379 99.9291C310.199 101.799 307.72 104.254 305.039 105.315C298.296 100.19 295.81 105.655 290.803 110.705C287.165 114.374 283.451 117.914 279.975 121.745C278.3 123.389 276.89 124.78 275.89 126.947L275.788 127.164C278.22 131.593 283.004 134.793 286.245 138.73C281.825 144.684 278.939 152.378 277.638 159.652C273.441 159.508 269.125 159.99 264.957 159.652C259.635 158.659 253.853 158.983 248.453 158.989L144.314 158.997L101.329 158.997Z"/>
	<path fill="#5CC2FA" transform="scale(0.195312 0.195312)" d="M144.314 158.997C144.854 158.909 145.39 158.804 145.928 158.7C151.373 151.774 161.328 143.9 168.637 138.927C198.368 118.698 235.854 112.162 270.88 119.458C273.527 120.009 277.771 120.344 279.975 121.745C278.3 123.389 276.89 124.78 275.89 126.947L275.788 127.164C278.22 131.593 283.004 134.793 286.245 138.73C281.825 144.684 278.939 152.378 277.638 159.652C273.441 159.508 269.125 159.99 264.957 159.652C259.635 158.659 253.853 158.983 248.453 158.989L144.314 158.997Z"/>
	<path fill="#96B9E8" transform="scale(0.195312 0.195312)" d="M344.494 145.583C350.648 144.878 349.048 148.429 349.027 153.09C349.006 158.02 348.443 172.042 349.293 175.897C350.797 182.718 376.296 176.32 380.276 179.21C383.438 181.506 376.559 195.951 374.388 198.772C369.171 205.55 361.236 209.888 352.813 210.954C309.332 215.901 301.745 151.468 344.494 145.583Z"/>
	<path fill="#FAB031" transform="scale(0.195312 0.195312)" d="M286.245 138.73C289.144 139.965 297.847 147.777 299.757 150.445C285.051 180.637 294.323 214.119 325.313 228.802C352.333 241.604 386.294 229.418 398.875 202.23C400.646 198.403 401.82 194.375 403.151 190.384C407.612 189.364 415.969 196.339 420.697 197.987C418.264 205.077 413.779 211.569 411.898 217.29C413.569 220.688 419.32 224.665 418.013 228.808C416.346 234.091 404.389 243.87 398.969 247.732C400.33 252.89 399.837 266.924 398.969 272.908C390.869 269.308 382.151 265.589 373.263 264.479C371.295 264.233 366.135 264.49 364.823 262.963C362.95 263.925 354.068 263.902 351.605 263.725C344.056 265.764 336.498 267.236 329.197 270.105L329.197 262.963C329.187 263.41 329.135 263.897 329.197 264.339C321.708 263.593 307.227 255.093 301.141 249.55C295.56 249.258 288.578 238.3 283.514 235.06C281.482 232.554 279.493 230.304 278.213 227.306L278.213 226.393C275.741 224.093 272.334 217.914 271.087 214.724C269.828 213.244 269.245 209.858 268.641 207.976L268.641 207.976C267.648 206.084 267.148 203.889 266.545 201.846C262.932 201.843 255.185 202.648 252.558 200.048C251.147 198.652 251.76 178.442 251.78 175.077C254.254 172.703 257.188 172.489 260.477 172.992C260.426 168.497 258.877 160.675 264.957 159.652C269.125 159.99 273.441 159.508 277.638 159.652C278.939 152.378 281.825 144.684 286.245 138.73Z"/>
	<path fill="#1E6ADB" transform="scale(0.195312 0.195312)" d="M329.197 248.723L332.804 249.55C332.855 270.398 338.701 261.322 351.605 263.725C344.056 265.764 336.498 267.236 329.197 270.105L329.197 262.963L329.197 248.723Z"/>
	<path fill="#E3E2E5" transform="scale(0.195312 0.195312)" d="M281.415 207.976C282.541 211.371 283.897 214.561 286.245 217.29C283.655 219.452 281.337 221.932 279.411 224.706C279.001 225.26 278.572 225.805 278.213 226.393C275.741 224.093 272.334 217.914 271.087 214.724C269.828 213.244 269.245 209.858 268.641 207.976L281.415 207.976Z"/>
	<path fill="#E3E2E5" transform="scale(0.195312 0.195312)" d="M311.441 241.055C316.737 244.684 323.073 246.922 329.197 248.723L329.197 262.963C329.187 263.41 329.135 263.897 329.197 264.339C321.708 263.593 307.227 255.093 301.141 249.55C304.951 247.286 308.044 243.884 311.441 241.055Z"/>
	<path fill="#1E6ADB" transform="scale(0.195312 0.195312)" d="M251.78 175.077C254.254 172.703 257.188 172.489 260.477 172.992C260.475 179.081 260.415 185.175 260.477 191.264C265.099 194.898 272.06 193.777 277.638 193.741C278.248 198.395 279.458 203.681 281.415 207.976L268.641 207.976L268.641 207.976C267.648 206.084 267.148 203.889 266.545 201.846C262.932 201.843 255.185 202.648 252.558 200.048C251.147 198.652 251.76 178.442 251.78 175.077Z"/>
	<path fill="#5CC2FA" transform="scale(0.195312 0.195312)" d="M387.195 241.055C390.64 242.933 394.973 247.897 398.969 247.732C400.33 252.89 399.837 266.924 398.969 272.908C390.869 269.308 382.151 265.589 373.263 264.479C371.295 264.233 366.135 264.49 364.823 262.963C368.187 259.573 367.855 253.199 368.223 248.723C375.932 246.881 380.294 243.994 387.195 241.055Z"/>
	<path fill="#A4DAF9" transform="scale(0.195312 0.195312)" d="M364.823 262.963C366.135 264.49 371.295 264.233 373.263 264.479C382.151 265.589 390.869 269.308 398.969 272.908C400.62 274.514 403.125 275.595 405.031 276.934C415.182 284.063 417.574 288.678 425.487 296.292C425.685 298.087 433.223 310.246 434.744 313.752C444.687 336.678 441.586 366.549 427.931 387.305C403.837 423.929 352.319 433.908 315.793 409.84C314.799 409.185 313.769 408.43 313.012 407.505C308.605 410.297 303.643 411.823 298.828 413.749C292.878 406.99 289.731 405.413 283.999 396.466L283.514 396.466C281.733 391.948 279.564 387.947 278.213 383.185C277.098 383.219 275.977 383.19 274.861 383.185C275.967 382.984 277.097 383.12 278.213 383.185C276.556 376.148 275.537 369.543 273.998 362.734C274.05 360.979 273.344 354.891 273.998 353.738L273.998 353.738C273.709 346.165 274.975 338.964 276.609 331.616L276.609 331.616C277.397 328.457 278.24 325.319 279.411 322.278L278.213 322.278C280.844 322.238 288.713 304.164 292.738 299.759C282.462 299.59 259.477 301.209 250.428 299.552C246.386 298.812 245.934 292.261 249.708 290.855C251.798 290.076 258.44 290.574 260.983 290.574L285.204 290.6C289.061 290.623 292.955 290.833 296.807 290.749C301.213 290.652 313.692 278.98 318.064 276.142C321.508 273.906 325.401 272.494 328.87 270.313L329.197 270.105C328.97 268.181 329.104 266.266 329.197 264.339C329.135 263.897 329.187 263.41 329.197 262.963L329.197 270.105C336.498 267.236 344.056 265.764 351.605 263.725C354.068 263.902 362.95 263.925 364.823 262.963ZM356.868 278.737C336.469 281.311 321.763 287.93 309.018 304.451C287.677 332.118 293.279 373.291 320.993 394.388C333.751 404.1 349.701 407.917 365.511 407.505C384.761 405.309 398.991 399.273 411.323 383.786C446.001 340.238 414.136 276.609 356.868 278.737Z"/>
	<path fill="#96B9E8" transform="scale(0.195312 0.195312)" d="M279.411 322.278C280.943 322.119 282.464 322.213 283.999 322.278C283.218 325.363 282.482 328.451 282.096 331.616C280.266 331.479 278.443 331.735 276.609 331.616C277.397 328.457 278.24 325.319 279.411 322.278Z"/>
	<path fill="#B5CEF6" transform="scale(0.195312 0.195312)" d="M276.609 331.616C278.443 331.735 280.266 331.479 282.096 331.616C281.26 339.479 281.744 346.053 281.415 353.738C278.92 354.004 276.496 353.907 273.998 353.738L273.998 353.738C273.709 346.165 274.975 338.964 276.609 331.616L276.609 331.616Z"/>
	<path fill="#B5CEF6" transform="scale(0.195312 0.195312)" d="M273.998 353.738C276.496 353.907 278.92 354.004 281.415 353.738C282.102 356.71 282.647 359.815 283.514 362.734C285.845 370.441 288.415 375.994 291.005 383.185L278.213 383.185C277.098 383.219 275.977 383.19 274.861 383.185C275.967 382.984 277.097 383.12 278.213 383.185C276.556 376.148 275.537 369.543 273.998 362.734C274.05 360.979 273.344 354.891 273.998 353.738Z"/>
	<path fill="#96B9E8" transform="scale(0.195312 0.195312)" d="M273.998 353.738C276.496 353.907 278.92 354.004 281.415 353.738C282.102 356.71 282.647 359.815 283.514 362.734C280.299 362.767 277.237 362.493 273.998 362.734C274.05 360.979 273.344 354.891 273.998 353.738Z"/>
	<path fill="#5CC2FA" transform="scale(0.195312 0.195312)" d="M291.005 383.185C292.468 384.196 298.113 393.382 301.141 396.466C304.08 400.748 308.355 405.115 313.012 407.505C308.605 410.297 303.643 411.823 298.828 413.749C292.878 406.99 289.731 405.413 283.999 396.466L283.514 396.466C281.733 391.948 279.564 387.947 278.213 383.185L291.005 383.185Z"/>
	<path fill="#105AC3" transform="scale(0.195312 0.195312)" d="M291.005 383.185C292.468 384.196 298.113 393.382 301.141 396.466C295.444 396.454 289.688 396.256 283.999 396.466L283.514 396.466C281.733 391.948 279.564 387.947 278.213 383.185L291.005 383.185Z"/>
	<path fill="#96B9E8" transform="scale(0.195312 0.195312)" d="M397.006 377.1C398.938 377.026 400.097 377.301 401.748 378.317C403.869 381.464 404.199 386.021 399.739 387.413C391.783 387.228 390.232 379.027 397.006 377.1Z"/>
	<path fill="#96B9E8" transform="scale(0.195312 0.195312)" d="M413.066 338.302C420.377 336.811 422.732 345.306 416.385 348.395C408.596 349.396 406.151 340.661 413.066 338.302Z"/>
	<path fill="#96B9E8" transform="scale(0.195312 0.195312)" d="M305.039 338.302C312.277 337.536 314.934 346.547 307.746 349.337C299.964 350.139 298.285 341.624 305.039 338.302Z"/>
	<path fill="#96B9E8" transform="scale(0.195312 0.195312)" d="M322.51 299.277C329.86 298.833 330.233 307.209 324.588 310.786C315.932 310.715 314.607 302.265 322.51 299.277Z"/>
	<path fill="#96B9E8" transform="scale(0.195312 0.195312)" d="M358.747 285.307C366.989 284.661 369.088 293.075 362.618 296.292C355.061 297.551 352.597 288.606 358.747 285.307Z"/>
	<path fill="#96B9E8" transform="scale(0.195312 0.195312)" d="M397.006 299.759C404.876 299.411 406.38 307.726 399.739 310.786C392.082 312.044 389.925 302.913 397.006 299.759Z"/>
	<path fill="#96B9E8" transform="scale(0.195312 0.195312)" d="M322.51 377.1C330.567 376.986 330.369 386.369 323.526 388.368C316.057 388.403 314.84 378.276 322.51 377.1Z"/>
	<path fill="#96B9E8" transform="scale(0.195312 0.195312)" d="M358.747 391.536C362.298 391.229 364.646 393.015 365.511 396.466C365.164 399.659 364.661 401.228 361.489 402.584C353.778 404.027 350.936 394.188 358.747 391.536Z"/>
	<path fill="#A1E2AB" transform="scale(0.195312 0.195312)" d="M380.727 321.789C383.922 321.295 387.225 323.704 385.843 327.254C385.206 328.891 364.44 350.586 361.489 351.971C356.64 350.424 348.517 344.731 342.901 342.104C338.504 339.764 334.01 334.232 340.781 332.236C344.088 331.262 357.09 340.095 360.715 342.104C364.359 337.428 375.942 324.41 380.727 321.789Z"/>
	<path fill="#F8C99A" transform="scale(0.195312 0.195312)" d="M164.803 293.241L165.548 293.241C173.727 297.839 172.525 304.652 164.448 308.885C163.63 307.333 164.468 295.35 164.803 293.241Z"/>
	<path fill="#F8C99A" transform="scale(0.195312 0.195312)" d="M107.734 293.241L107.734 293.241C108.13 295.264 108.047 306.871 107.734 308.885C99.3563 306.241 98.6744 296.512 107.734 293.241Z"/>
	<path fill="#E3E2E5" transform="scale(0.195312 0.195312)" d="M289.511 242.761C294.065 245.64 291.499 254.868 286.617 255.833C281.422 256.859 272.651 246.678 271.087 242.761C272.523 242.888 288.688 243.237 289.511 242.761Z"/>
	<path fill="#B5CEF6" transform="scale(0.195312 0.195312)" d="M273.998 353.738L273.998 353.738C273.344 354.891 274.05 360.979 273.998 362.734C266.32 361.473 242.031 367.992 248.535 354.421C253.842 352.533 267.791 353.654 273.998 353.738Z"/>
	<path fill="#B5CEF6" transform="scale(0.195312 0.195312)" d="M276.609 331.616C269.874 331.839 256.736 332.267 250.237 331.462C246.776 331.034 246.047 325.429 248.354 323.418C250.309 321.714 274.022 322.085 278.213 322.278L279.411 322.278C278.24 325.319 277.397 328.457 276.609 331.616L276.609 331.616Z"/>
	<path fill="#B5CEF6" transform="scale(0.195312 0.195312)" d="M194.159 353.738C197.248 353.276 203.947 353.728 207.324 353.73C212.393 353.733 244.989 349.421 233.403 362.734C229.405 362.932 225.368 362.742 221.362 362.736L198.409 362.734C197.303 359.564 195.739 356.689 194.159 353.738Z"/>
	<path fill="#B5CEF6" transform="scale(0.195312 0.195312)" d="M195.577 290.595C205.992 290.357 220.057 289.955 230.345 290.611C236.801 291.024 237.547 298.075 231.812 299.759L206.754 299.753C203.217 299.754 199.387 300.097 195.877 299.82C190.148 299.366 189.999 291.92 195.577 290.595Z"/>
	<path fill="#B5CEF6" transform="scale(0.195312 0.195312)" d="M278.213 227.306C279.493 230.304 281.482 232.554 283.514 235.06L283.514 235.06L289.511 242.761C288.688 243.237 272.523 242.888 271.087 242.761C266.881 242.231 251.252 243.803 248.755 242.191C246.691 240.859 246.695 235.882 248.227 234.289C249.995 232.449 255.892 233.254 258.168 233.248L272.316 233.252C272.809 230.127 276.936 229.809 278.213 227.306Z"/>
	<path fill="#E3E2E5" transform="scale(0.195312 0.195312)" d="M278.213 227.306C279.493 230.304 281.482 232.554 283.514 235.06L283.514 235.06C282.845 234.425 282.121 233.845 281.415 233.252C278.39 233.171 275.343 233.249 272.316 233.252C272.809 230.127 276.936 229.809 278.213 227.306Z"/>
	<path fill="#B5CEF6" transform="scale(0.195312 0.195312)" d="M194.159 322.278L219.072 322.265C223.079 322.265 227.554 321.836 231.485 322.507C236.268 323.324 236.35 328.715 233.403 331.616C230.907 331.771 228.325 331.633 225.82 331.63L211.205 331.62C206.551 331.619 199.248 332.182 194.896 331.463C190.53 330.741 190.937 324.289 194.159 322.278Z"/>
	<path fill="#B5CEF6" transform="scale(0.195312 0.195312)" d="M249.68 260.386C260.099 259.311 276.061 260.38 287.097 260.381C294.434 260.382 302.984 259.872 310.171 260.62C314.228 261.042 314.104 263.989 313.945 267.451C313.239 268.709 312.81 269.546 311.441 270.105C302.007 270.571 251.299 270.424 249.253 269.659C245.93 268.415 246.185 261.673 249.68 260.386Z"/>
	<path fill="#1E6ADB" transform="scale(0.195312 0.195312)" d="M107.734 293.241C107.527 279.977 105.666 264.914 115.544 254.804C133.979 235.936 165.354 248.418 165.532 276.756C165.549 279.528 166.081 291.176 165.548 293.241L164.803 293.241C160.813 287.529 156.529 281.494 151.506 276.664C141.964 281.183 130.468 280.481 121.108 275.854C116.012 281.294 111.747 286.962 107.734 293.241L107.734 293.241Z"/>
	<path fill="#A4DAF9" transform="scale(0.195312 0.195312)" d="M196.576 227.306C202.917 226.99 209.424 227.295 215.779 227.305C218.825 227.311 233.015 225.649 233.985 229.55C234.866 233.097 234.744 261.952 234.272 267.176C234.047 269.667 233.194 271.206 230.563 271.742L207.793 271.759C202.624 271.761 192.26 273.818 191.768 266.964C190.972 255.863 191.453 239.746 191.745 228.549C193.342 227.909 194.886 227.57 196.576 227.306Z"/>
	<path fill="#4DBBA7" transform="scale(0.195312 0.195312)" d="M222.742 238.957C225.481 241.129 227.957 243.925 230.563 246.294C223.668 251.187 218.477 258.55 212.193 263.725C210.059 262.179 208.276 260.122 206.455 258.23L199.312 251.054C201.609 248.668 203.823 246.211 206.455 244.186C208.148 246.414 209.832 248.044 212.193 249.55C215.597 247.056 219.462 242.079 222.742 238.957Z"/>
	<path fill="#F7D7C7" transform="scale(0.195312 0.195312)" d="M121.108 275.854C130.468 280.481 141.964 281.183 151.506 276.664C156.529 281.494 160.813 287.529 164.803 293.241C164.468 295.35 163.63 307.333 164.448 308.885C162.005 315.765 158.23 322.033 152.298 326.409C150.546 327.702 149.302 327.709 149.067 329.937C149.048 331.063 149.01 332.19 149.067 333.315C140.735 336.458 132.331 336.202 124.239 332.503L124.239 329.063C122.41 327.224 119.821 325.907 117.773 324.291C112.274 319.952 110.795 314.814 107.734 308.885C108.047 306.871 108.13 295.264 107.734 293.241C111.747 286.962 116.012 281.294 121.108 275.854Z"/>
	<path fill="#FAB031" transform="scale(0.195312 0.195312)" d="M124.239 329.063C129.88 331.099 135.688 332.541 141.702 331.186C143.228 330.842 147.726 328.703 148.891 329.356L149.067 329.937C149.048 331.063 149.01 332.19 149.067 333.315C140.735 336.458 132.331 336.202 124.239 332.503L124.239 329.063Z"/>
	<path fill="#308FFC" transform="scale(0.195312 0.195312)" d="M124.239 332.503C132.331 336.202 140.735 336.458 149.067 333.315C149.074 335.458 148.748 338.682 149.56 340.639C153.398 340.337 157.504 340.654 161.378 340.639C164.895 340.567 168.449 340.395 171.96 340.639C184.65 342.439 185.996 347.202 194.159 353.738C195.739 356.689 197.303 359.564 198.409 362.734C200.485 369.512 200.104 376.234 199.312 383.185L199.312 383.185C192.994 383.463 186.542 383.196 180.209 383.192L104.176 383.193C97.9129 383.199 91.5559 383.464 85.3053 383.185L71.2633 383.185C71.2489 373.574 70.1404 363.153 74.5893 354.303C75.9775 351.541 78.4896 349.564 79.7431 346.698C83.4657 343.922 89.3037 340.912 93.9952 340.639C95.037 341.302 98.9019 340.7 100.272 340.639L112.128 340.639C115.41 340.605 121.98 339.291 124.239 342.104C123.981 338.954 124.203 335.671 124.239 332.503Z"/>
	<path fill="#5CC2FA" transform="scale(0.195312 0.195312)" d="M171.96 340.639C184.65 342.439 185.996 347.202 194.159 353.738C195.739 356.689 197.303 359.564 198.409 362.734C200.485 369.512 200.104 376.234 199.312 383.185L199.312 383.185C196.291 382.756 193.061 383.136 190.004 383.161L171.96 383.185C171.682 369.026 171.963 354.804 171.96 340.639Z"/>
	<path fill="#5CC2FA" transform="scale(0.195312 0.195312)" d="M93.9952 340.639C95.037 341.302 98.9019 340.7 100.272 340.639C99.6965 343.902 100.266 349.322 100.274 352.865L100.272 383.185C97.998 383.179 86.358 382.769 85.3053 383.185L71.2633 383.185C71.2489 373.574 70.1404 363.153 74.5893 354.303C75.9775 351.541 78.4896 349.564 79.7431 346.698C83.4657 343.922 89.3037 340.912 93.9952 340.639Z"/>
	<path fill="#5CC2FA" transform="scale(0.195312 0.195312)" d="M124.239 332.503C132.331 336.202 140.735 336.458 149.067 333.315C149.074 335.458 148.748 338.682 149.56 340.639C153.398 340.337 157.504 340.654 161.378 340.639C160.509 344.853 156.145 362.252 154.021 364.682C150.135 369.129 136.789 365.042 136.77 357.63C133.628 364.23 120.657 371.573 117.278 362.285C115.933 358.586 112.482 344.419 112.128 340.639C115.41 340.605 121.98 339.291 124.239 342.104C123.981 338.954 124.203 335.671 124.239 332.503Z"/>
	<path fill="#F7D7C7" transform="scale(0.195312 0.195312)" d="M124.239 332.503C132.331 336.202 140.735 336.458 149.067 333.315C149.074 335.458 148.748 338.682 149.56 340.639C148.458 346.694 140.82 351.587 136.77 355.596C131.909 352.627 126.205 347.623 124.239 342.104C123.981 338.954 124.203 335.671 124.239 332.503Z"/>
	<path fill="#308FFC" transform="scale(0.195312 0.195312)" d="M144.314 158.997L248.453 158.989C253.853 158.983 259.635 158.659 264.957 159.652C258.877 160.675 260.426 168.497 260.477 172.992C257.188 172.489 254.254 172.703 251.78 175.077C251.76 178.442 251.147 198.652 252.558 200.048C255.185 202.648 262.932 201.843 266.545 201.846C267.148 203.889 267.648 206.084 268.641 207.976L118.193 207.967C98.2041 207.953 94.2276 203.588 94.0093 226.86L94.0047 330.484C94.0053 333.847 94.1632 337.286 93.9952 340.639C89.3037 340.912 83.4657 343.922 79.7431 346.698C79.4825 335.401 81.1774 313.294 79.1414 303.148C79.349 298.355 79.7403 294.457 79.7426 289.266L79.7468 225.569C79.7469 222.1 80.8387 207.098 79.1414 204.963C82.541 195.192 76.1677 170.041 82.2375 162.684C86.6922 157.286 94.7418 159.551 100.855 159.04L101.329 158.997L144.314 158.997ZM98.4575 177.286C94.1917 178.853 92.3784 184.402 97.6264 186.274C100.758 187.391 109.87 186.771 113.542 186.752C117.852 185.488 119.523 179.9 114.713 177.821C112.03 176.662 101.954 177.187 98.4575 177.286ZM128.53 177.286C123.407 178.852 123.515 184.694 128.305 186.358C130.773 187.215 141.351 187.045 144.314 186.752C145.713 186.165 147.191 185.482 147.777 183.973C151.33 174.813 132.488 177.262 128.53 177.286ZM160.177 177.286C155.863 177.954 153.431 183.563 156.898 185.707C159.751 187.472 170.133 186.764 173.873 186.752C177.99 185.926 180.65 180.719 176.132 178.238C173.18 176.618 163.849 177.188 160.177 177.286Z"/>
</svg>
