<?xml version="1.0" encoding="utf-8" ?>
<svg xmlns="http://www.w3.org/2000/svg" xmlns:xlink="http://www.w3.org/1999/xlink" width="100" height="100">
	<path fill="#39BCE1" transform="scale(0.195312 0.195312)" d="M118.481 335.599C117.845 332.827 104.123 299.155 103.673 298.612C101.269 295.717 96.5145 296.193 93.1274 295.765L77.6768 293.701C57.0974 291.149 57.24 291.175 57.2354 272.274L57.2348 249.448C57.2345 241.012 54.6841 225.233 62.8307 221.446C67.7495 219.159 83.0537 217.916 89.4125 216.463C89.9546 226.8 88.8016 239.514 88.8002 250.38C88.7957 284.299 106.726 264.305 120.625 272.865C126.588 276.537 127.459 285.538 128.996 291.693C130.683 298.445 133.417 305.733 136.506 311.928C141.366 321.678 152.104 331.851 142.454 342.195C136.166 348.935 127.629 355.563 132.667 365.786C134.955 370.43 144.036 381.901 147.875 385.495C162.947 399.604 172.219 376.176 181.846 372.179C188.135 369.568 194.839 373.434 200.295 376.253C209.08 380.793 217.128 384.65 226.745 387.025C232.579 388.466 238.553 389.244 243.229 393.366C260.905 408.945 233.788 437.211 270.607 437.164L285.388 437.121C287.774 437.111 290.291 436.92 292.66 437.146C289.715 457.546 284.009 453.751 266.345 453.752L232.109 453.729C217.494 453.575 219.215 442.106 217.893 431.234C217.051 424.305 215.633 417.234 215.743 410.25C202.571 405.675 188.805 401.353 177.145 393.448C170.698 398.499 151.276 417.066 145.242 419.382C137.142 422.491 132.087 415.496 127.261 410.482L114.961 397.854C108.462 391.201 101.485 384.685 95.4089 377.655C83.9965 364.451 112.671 348.538 118.481 335.599Z"/>
	<path fill="#62C3F2" transform="scale(0.195312 0.195312)" d="M89.4125 216.463C106.239 213.948 103.889 214.284 108.709 199.401C110.055 195.246 118.124 178.013 117.728 175.682C116.3 167.271 96.1117 153.737 92.3915 144.674C88.8315 136.001 97.4161 131.043 102.539 125.799L123.171 104.886C127.273 100.739 133.412 92.3724 139.444 91.2855C146.449 90.0235 160.004 104.216 165.374 109.174C179.821 122.51 176.764 118.524 192.272 111.387C196.415 109.48 200.707 107.771 204.977 106.164C216.599 101.789 216.242 101.935 218.1 89.6305L220.473 74.3948C222.99 57.9809 223.081 56.2276 241.018 56.2499L272.535 56.2509C277.173 56.2534 282.698 55.4611 286.756 58.2159C292.205 61.915 292.811 77.6224 293.647 83.9321C296.531 105.712 295.753 100.894 314.341 108.335C320.269 110.708 326.571 114.674 331.973 116.623C342.129 120.287 356.195 95.2667 366.365 91.0482C374.687 87.5962 380.552 96.1842 385.535 101.317L410.156 126.23C415.483 131.591 423.933 138.096 418.342 146.445C415.411 150.822 406.059 160.769 402.117 165.046C389.591 178.638 393.92 176.302 400.407 191.762C402.258 196.173 403.743 200.784 405.324 205.298C408.855 215.386 410.278 215.349 420.589 216.839L437.286 219.136C453.53 221.308 455.857 221.485 455.873 239.098L455.887 272.83C455.883 280.857 457.34 290.115 446.952 292.135C439.462 293.591 431.16 294.207 423.522 295.086C404.469 297.278 409.207 299.755 402.893 315.637C400.77 320.976 393.443 332.136 394.373 336.367C396.075 344.113 415.315 356.65 419.184 365.377C423.981 376.197 411.004 385.138 404.477 391.641L389.662 406.563C377.053 419.126 375.795 425.89 358.341 412.435L345.833 402.672C331.191 391.116 332.561 396.081 317.891 402.271C312.897 404.378 302.872 407.486 298.937 410.02L298.576 410.25C295.249 414.779 293.889 430.868 292.66 437.146C290.291 436.92 287.774 437.111 285.388 437.121L270.607 437.164C233.788 437.211 260.905 408.945 243.229 393.366C238.553 389.244 232.579 388.466 226.745 387.025C217.128 384.65 209.08 380.793 200.295 376.253C194.839 373.434 188.135 369.568 181.846 372.179C172.219 376.176 162.947 399.604 147.875 385.495C144.036 381.901 134.955 370.43 132.667 365.786C127.629 355.563 136.166 348.935 142.454 342.195C152.104 331.851 141.366 321.678 136.506 311.928C133.417 305.733 130.683 298.445 128.996 291.693C127.459 285.538 126.588 276.537 120.625 272.865C106.726 264.305 88.7957 284.299 88.8002 250.38C88.8016 239.514 89.9546 226.8 89.4125 216.463Z"/>
	<path fill="#3458A9" transform="scale(0.195312 0.195312)" d="M251.811 135.786C356.393 131.526 419.207 259.289 344.364 337.785C323.642 359.519 291.015 376.068 260.688 376.782C222.465 376.893 189.612 363.318 164.2 333.721C126.054 289.293 126.032 221.714 164.643 177.364C188.47 149.996 216.601 138.183 251.811 135.786Z"/>
	<path fill="#E15345" transform="scale(0.195312 0.195312)" d="M197.61 299.842C200.047 300.31 212.762 313.535 216.134 316.029C241.586 334.855 265.82 340.663 297.046 336.568C301.176 336.026 306.89 333.958 310.839 334.233C308.112 336.33 304.964 338.137 301.966 339.824C263.749 361.327 219.451 353.363 188.151 323.519C189.123 314.88 192.617 306.886 197.61 299.842Z"/>
	<path fill="#FEFEFE" transform="scale(0.195312 0.195312)" d="M188.151 323.519C151.493 288.509 150.86 228.31 185.378 191.277C221.642 152.368 281.416 148.197 320.751 185.045C361.421 223.144 361.768 282.37 324.161 322.474C321.03 326.34 315.218 332.051 310.839 334.233C306.89 333.958 301.176 336.026 297.046 336.568C265.82 340.663 241.586 334.855 216.134 316.029C212.762 313.535 200.047 300.31 197.61 299.842C192.617 306.886 189.123 314.88 188.151 323.519Z"/>
	<defs>
		<linearGradient id="gradient_0" gradientUnits="userSpaceOnUse" x1="232.22482" y1="255.31047" x2="278.67221" y2="199.81258">
			<stop offset="0" stop-color="#FBA149"/>
			<stop offset="1" stop-color="#FABA61"/>
		</linearGradient>
	</defs>
	<path fill="url(#gradient_0)" transform="scale(0.195312 0.195312)" d="M252.751 191.548C297.812 186.137 307.97 257.297 259.105 264.247C205.365 265.131 209.918 193.062 252.751 191.548Z"/>
	<path fill="#EA796C" transform="scale(0.195312 0.195312)" d="M277.209 276.633C303.038 281.173 317.664 298.471 324.161 322.474C321.03 326.34 315.218 332.051 310.839 334.233C306.89 333.958 301.176 336.026 297.046 336.568C265.82 340.663 241.586 334.855 216.134 316.029C212.762 313.535 200.047 300.31 197.61 299.842C208.301 284.884 217.126 281.076 234.155 276.633C235.504 279.044 237.383 281.212 239.069 283.394L247.592 294.371C248.708 295.817 253.788 304.342 256.159 302.968L256.11 303.05C258.448 301.071 260.199 298.324 262.032 295.891L270.585 284.737C272.676 282.006 274.709 279.009 277.209 276.633Z"/>
</svg>
