<?xml version="1.0" encoding="utf-8" ?>
<svg xmlns="http://www.w3.org/2000/svg" xmlns:xlink="http://www.w3.org/1999/xlink" width="100" height="100">
	<path fill="#718FF7" transform="scale(0.195312 0.195312)" d="M367.484 258.008C371.924 257.992 381.275 257.393 385.12 258.383C391.14 259.933 394.931 273.076 379.244 272.536C371.527 272.546 363.805 272.431 356.09 272.536C361.621 268.384 364.639 264.275 367.484 258.008Z"/>
	<path fill="#718FF7" transform="scale(0.195312 0.195312)" d="M232.282 288.514C236.892 288.03 244.496 288.511 249.433 288.519L350.044 288.514C356.508 288.512 382.388 287.133 386.817 289.604C392.215 292.616 390.538 301.294 384.814 302.775C379.187 303.243 373.21 302.784 367.542 302.776L266.271 302.773C255.457 302.773 244.607 302.965 233.796 302.774C225.068 302.62 223.521 291.993 232.282 288.514Z"/>
	<path fill="#718FF7" transform="scale(0.195312 0.195312)" d="M232.282 319.164L363.382 319.154C368.51 319.154 382.109 317.967 386.526 320.218C392.753 323.39 391.052 332.104 384.018 334.248L254.808 334.257C249.327 334.257 235.828 335.28 230.918 333.246C223.609 330.216 225.592 321.481 232.282 319.164Z"/>
	<defs>
		<linearGradient id="gradient_0" gradientUnits="userSpaceOnUse" x1="439.94333" y1="321.80255" x2="174.46602" y2="318.40637">
			<stop offset="0" stop-color="#A06EEB"/>
			<stop offset="1" stop-color="#579FF8"/>
		</linearGradient>
	</defs>
	<path fill="url(#gradient_0)" transform="scale(0.195312 0.195312)" d="M370.08 197.243L403.884 197.237C410.338 197.236 417.978 196.575 424.272 197.858C445.53 202.189 439.832 234.566 439.831 250.89L439.842 357.128C439.863 370.985 442.852 389.767 425.744 395.08C418.638 397.287 397.77 395.601 389.174 396.005C389.016 406.899 391.962 434.605 384.249 441.379C372.781 451.451 362.68 440.479 353.77 433.467L315.189 403.144C312.322 400.896 309.357 398.751 306.939 396.005L199.584 396.024C171.341 396.022 174.153 378.204 174.155 355.921L174.164 313.157C176.52 310.502 179.926 308.496 182.718 306.27L205.274 288.514C205.6 293.237 205.296 298.001 205.284 302.733L205.274 329.9L205.248 345.938C205.225 351.428 204.115 357.826 208.202 362.219C213.165 366.327 217.93 365.547 224.037 365.525L298.495 365.509C322.256 365.51 315.252 362.902 332.728 376.068C340.819 382.163 349.033 388.032 357.25 393.944C357.16 371.858 353.501 365.997 376.785 366.047L393.198 366.091C401.637 366.112 407.933 365.921 408.447 356.009C408.859 348.06 408.511 339.936 408.511 331.97L408.527 251.84C408.531 246.109 408.926 240.027 408.379 234.329C407.578 225.998 399.28 227.529 393.346 227.54C385.612 227.555 377.807 227.839 370.08 227.574L370.08 197.243Z"/>
	<path fill="#57A5FD" transform="scale(0.195312 0.195312)" d="M208.202 362.219C201.165 363.703 202.51 333.563 204.229 331.759C206.424 336.647 202.7 339.457 204.856 329.793L205.274 329.9L205.248 345.938C205.225 351.428 204.115 357.826 208.202 362.219Z"/>
	<path fill="#57A5FD" transform="scale(0.195312 0.195312)" d="M189.139 338.44L191.77 338.44C194.104 342.51 197.411 355.296 191.77 358.306C184.313 358.82 184.755 342.174 189.139 338.44Z"/>
	<defs>
		<linearGradient id="gradient_1" gradientUnits="userSpaceOnUse" x1="356.2894" y1="237.40092" x2="58.475189" y2="116.09054">
			<stop offset="0" stop-color="#7887F2"/>
			<stop offset="1" stop-color="#23BBFF"/>
		</linearGradient>
	</defs>
	<path fill="url(#gradient_1)" transform="scale(0.195312 0.195312)" d="M94.9871 62.1026C111.043 61.7473 127.195 62.0982 143.259 62.0988L320.637 62.0947C330.127 62.0926 338.252 61.08 345.672 68.3067C351.155 73.6457 352.213 78.8605 352.295 86.2519C352.706 123.549 352.314 160.897 352.311 198.199L352.308 231.817C352.31 243.855 354.28 260.003 337.981 263.425C333.048 264.461 324.001 263.836 318.662 263.834L280.125 263.843L229.149 263.839C225.185 263.838 207.574 263.342 205.127 264.182C201.187 265.534 159.68 300.294 153.815 304.878C150.553 307.428 147.3 310.21 143.684 312.248C135.764 316.714 125.232 311.483 122.976 302.982C121.697 298.161 122.436 292.403 122.443 287.436L122.455 263.843C115.649 263.562 108.707 263.856 101.887 263.867C74.8983 263.907 72.495 252.641 72.5245 227.97L72.5191 90.3536C72.5216 75.3902 77.4255 63.2891 94.9871 62.1026ZM112.624 92.7507C100.205 97.1379 103.842 113.661 103.838 124.934L103.833 199.275C103.834 204.137 103.186 222.943 104.5 226.59C106.822 233.038 114.218 233.001 119.872 232.944L132.625 232.889C157.464 232.878 155.646 242.972 155.579 263.061L155.901 262.858C163.274 258.154 173.476 248.809 180.717 243.14C193.914 232.807 193.487 232.912 209.599 232.896L282.312 232.897L299.661 232.921C311.056 232.926 320.307 233.871 320.209 219.623L320.153 112.943C320.158 96.2042 321.194 92.7399 301.316 92.7379L126.213 92.7445C121.695 92.7404 117.137 92.505 112.624 92.7507Z"/>
	<path fill="#57A5FD" transform="scale(0.195312 0.195312)" d="M211.872 121.987C217.786 121.83 223.728 121.982 229.645 121.984L285.771 122.021C289.634 122.014 294.554 120.923 297.993 123.199C304.026 127.191 300.762 135.189 294.13 135.937C276.097 136.307 257.971 135.94 239.929 135.936L221.237 135.932C217.052 135.932 210.406 137.061 207.017 133.956C202.164 129.512 205.598 122.218 211.872 121.987Z"/>
	<path fill="#57A5FD" transform="scale(0.195312 0.195312)" d="M211.872 153.381C215.816 153.106 219.932 153.363 223.897 153.368L278.962 153.378C283.181 153.374 294.194 152.17 297.74 154.338C303.602 157.923 301.282 166.8 294.888 168.006L221.47 168.009C216.11 168.007 205.875 169.675 205.035 161.976C204.469 156.791 206.78 153.947 211.872 153.381Z"/>
	<path fill="#57A5FD" transform="scale(0.195312 0.195312)" d="M214.814 185.118L285.331 185.12C289.624 185.116 295.673 184.209 299.146 187.358C304.752 192.44 299.955 199.706 291.784 199.934L222.583 199.939C218.539 199.938 210.761 200.951 207.38 198.22C201.745 193.668 204.839 185.321 214.814 185.118Z"/>
	<path fill="#57A5FD" transform="scale(0.195312 0.195312)" d="M153.156 121.987C161.663 123.109 163.718 135.816 166.328 142.93C171.514 157.07 181.529 177.342 184.637 191.308C185.827 196.652 178.854 200.979 174.24 198.828C170.269 196.977 168.34 189.074 166.844 185.118C163.3 184.55 158.364 185.112 154.653 185.118L140.857 185.118L139.222 189.655C138.105 192.724 136.848 197.082 133.578 198.485C129.281 200.327 124.184 198.613 122.595 194.057C121.005 189.498 125.357 181.692 126.962 177.536L142.968 136.523C145.371 130.206 145.971 124.266 153.156 121.987Z"/>
	<path fill="#FEFEFE" transform="scale(0.195312 0.195312)" d="M153.156 150.4C154.661 151.777 159.338 166.87 160.381 169.806L154.653 169.806L146.298 169.806C148.403 163.241 151.526 157.145 153.156 150.4Z"/>
</svg>
