<?xml version="1.0" encoding="utf-8" ?>
<svg xmlns="http://www.w3.org/2000/svg" xmlns:xlink="http://www.w3.org/1999/xlink" width="100" height="100">
	<defs>
		<linearGradient id="gradient_0" gradientUnits="userSpaceOnUse" x1="292.51468" y1="428.26746" x2="164.67883" y2="185.34489">
			<stop offset="0" stop-color="#755FFE"/>
			<stop offset="1" stop-color="#4AA3F7"/>
		</linearGradient>
	</defs>
	<path fill="url(#gradient_0)" transform="scale(0.195312 0.195312)" d="M234.786 178.96C234.635 154.448 234.295 157.959 259.234 157.983C281.5 158.005 277.702 158.616 277.761 178.96C283.89 180.527 289.766 183.607 295.324 186.572C299.024 183.126 307.091 171.885 312.988 175.232C314.806 176.264 333.145 194.419 335.235 196.917C341.166 204.006 328.269 210.829 325.407 216.186C328.357 222.365 330.448 227.297 332.661 233.776C344.572 235.394 351.545 229.806 351.94 245.951C352.071 251.343 351.99 256.751 351.986 262.145C351.975 279.892 350.612 277.455 332.661 277.412C331.351 283.809 327.933 289.963 324.565 295.476C340.215 308.81 340.301 309.392 326.496 323.191C322.71 326.975 314.248 338.317 308.195 336.244C304.643 335.027 296.861 327.623 295.324 324.299C289.478 327.154 283.947 329.917 277.761 331.998C278.268 338.577 279.969 351.636 270.791 351.834C264.059 351.98 257.287 351.822 250.551 351.814C232.589 351.794 233.627 351.698 233.741 331.998C227.843 329.838 222.405 327.172 216.836 324.299C199.312 340.062 203.726 340.348 188.272 324.859C184.797 321.375 174.502 314.432 175.872 308.684C176.77 304.919 184.543 297.599 187.885 295.476C185.27 289.728 182.234 284.469 180.758 278.265C174.388 278.129 167.149 279.174 161.001 277.412C159.787 284.321 153.637 283.037 148.018 283.028L134.737 282.997C134.727 286.913 134.579 290.904 134.84 294.809C136.852 324.986 158.474 351.613 188.302 358.167C196.932 360.064 205.199 359.373 213.927 359.374L370.427 359.38L370.416 340.385C370.415 336.784 370.09 332.83 370.743 329.29C371.576 324.768 377.581 321.626 381.591 324.21C385.057 326.443 389.741 331.738 392.813 334.779L413.723 355.533C419.6 360.814 424.951 366.847 430.558 372.427L438.714 380.51C450.26 391.876 444.409 394.079 435.41 403.021L395.512 442.838C390.713 447.617 381.88 459.819 374.569 455.326C368.731 451.739 370.363 446.326 370.412 440.503L370.427 420.979C354.504 420.98 338.527 421.273 322.61 420.979C317.133 421.122 311.615 420.991 306.134 420.989L274.068 420.979C250.035 420.982 225.974 421.241 201.945 420.978C136.259 420.261 82.0623 368.385 75.4753 303.718C74.7226 296.329 74.9253 289.125 75.0127 281.73C69.1541 281.727 55.2008 283.441 50.4213 279.73C42.5856 273.646 52.4282 265.974 56.5336 261.908L89.6377 228.745C106.377 212.224 103.86 216.104 119.126 230.961C132.164 243.65 145.625 258.684 159.269 270.457C159.591 262.891 159.259 255.184 159.244 247.603C159.208 229.074 163.102 233.745 180.758 233.776C182.307 227.758 184.799 222.34 187.885 216.973C183.951 212.848 171.838 205.099 175.571 198.489C176.625 196.621 194.007 179.534 196.462 177.537C204.097 171.323 210.613 183.6 216.836 187.444C221.779 183.522 228.791 180.868 234.786 178.96ZM384.754 433.452C388.531 430.111 391.796 426.066 395.403 422.523L427.768 390.155C425.115 386.817 421.763 383.852 418.737 380.841L403.244 365.401C397.199 359.319 391.177 352.905 384.754 347.238C384.783 354.565 388.128 372.639 377.928 373.678C372.126 374.269 364.525 373.808 358.574 373.808L198.85 373.817C154.365 373.52 120.17 331.366 120.543 288.151C120.721 267.603 120.819 269.328 137.104 268.615C127.47 257.581 113.873 246.38 103.305 235.609C100.91 237.366 98.7943 239.823 96.6992 241.925L84.8421 253.864C80.2051 258.523 75.1462 262.774 70.5868 267.505C96.9743 267.405 88.5862 271.097 88.9175 291.58C89.8541 349.48 135.293 402.802 194.199 406.224C232.5 408.449 274.922 405.937 313.757 406.426C332.181 405.967 350.61 406.693 369.034 406.398C390.982 406.046 384.101 414.692 384.754 433.452ZM201.785 192.699C198.49 195.308 195.264 198.241 192.739 201.617L192.934 201.952C201.96 217.279 208.442 207.601 198.984 225.601C196.624 230.091 195.013 235.045 193.861 239.979C191.088 251.849 185.066 247.447 173.509 247.817L173.509 263.951C200.353 263.812 188.13 263.676 197.18 282.635C206.361 301.867 207.488 291.844 192.739 309.982C195.997 312.812 199.095 315.798 201.785 319.182C219.306 303.939 210.257 305.683 228.876 314.856C246.862 323.718 249.315 313.171 248.618 337.497C252.486 337.476 256.59 337.173 260.438 337.497C266.184 337.568 261.365 330.168 263.355 323.326C264.68 318.767 273.139 318.398 276.867 317.074C281.416 315.459 293.714 307.855 295.932 308.041C300.155 308.396 307.254 316.994 310.445 320.032C313.393 316.504 317.029 313.539 319.891 309.982C304.256 295.128 306.815 299.439 314.518 284.877C323.677 267.563 313.176 261.646 337.878 263.951C337.961 258.571 337.798 253.192 337.878 247.817C316.966 248.014 323.435 250.46 316.899 232.656C310.4 214.951 301.399 217.516 319.891 201.617C316.979 198.436 313.882 195.313 310.445 192.699C298.856 198.04 303.562 208.559 288.161 198.988C281.777 195.02 267.289 191.894 264.449 189.325C262.942 184.384 263.655 177.489 263.678 172.238C259.471 172.215 255.153 171.948 250.96 172.238C244.868 172.213 251.308 184.453 247.748 189.383C246.762 190.747 231.844 195.167 228.385 196.699C225.085 198.161 218.556 205.296 214.922 203.711C212.05 202.459 204.228 195.091 201.785 192.699Z"/>
	<path fill="#904EF8" transform="scale(0.195312 0.195312)" d="M413.723 355.533C419.6 360.814 424.951 366.847 430.558 372.427L438.714 380.51C450.26 391.876 444.409 394.079 435.41 403.021L395.512 442.838C390.713 447.617 381.88 459.819 374.569 455.326C368.731 451.739 370.363 446.326 370.412 440.503L370.427 420.979C354.504 420.98 338.527 421.273 322.61 420.979C325.027 420.341 328.071 420.657 330.569 420.647L330.212 420.72L330.465 420.761C329.795 419.809 311.884 422.008 307.308 420.085C306.157 419.602 306.654 418.695 304.899 418.246L304.686 418.193C303.405 416.156 304.077 411.244 306.563 409.32C305.774 408.433 304.98 407.818 303.887 407.358L304.227 406.971L303.657 407.11C306.2 406.651 311.811 407.829 313.757 406.426C332.181 405.967 350.61 406.693 369.034 406.398C390.982 406.046 384.101 414.692 384.754 433.452C388.531 430.111 391.796 426.066 395.403 422.523L427.768 390.155C425.115 386.817 421.763 383.852 418.737 380.841L403.244 365.401C413.133 368.421 407.75 366.875 413.226 355.813L413.334 355.838L413.723 355.533Z"/>
	<path fill="#5B8CF9" transform="scale(0.195312 0.195312)" d="M254.328 208.776C266.518 207.296 279.68 213.22 288.388 221.485C318.946 250.489 298.611 301.99 257.987 302.752C228.348 305.8 205.373 276.263 209.654 247.784C212.939 225.929 232.398 209.254 254.328 208.776ZM257.987 287.998C276.185 287.32 289.371 271.824 288.563 253.903C287.811 237.222 271.697 220.702 254.328 222.848C236.413 224.661 221.153 240.104 223.122 258.711C225 276.453 240.242 289.337 257.987 287.998Z"/>
	<defs>
		<linearGradient id="gradient_1" gradientUnits="userSpaceOnUse" x1="356.17407" y1="317.99042" x2="179.51286" y2="26.8316">
			<stop offset="0" stop-color="#6A72FB"/>
			<stop offset="1" stop-color="#20CDF5"/>
		</linearGradient>
	</defs>
	<path fill="url(#gradient_1)" transform="scale(0.195312 0.195312)" d="M97.594 149.098C93.0544 145.666 89.1367 140.719 85.0943 136.689C78.7936 130.408 66.3171 122.924 74.198 114.109C82.8556 104.426 92.8062 95.73 101.932 86.4691L122.653 65.5412C125.626 62.5509 131.989 54.0764 136.473 53.9233C145.702 53.6083 144.086 64.3588 144.079 70.0272L144.06 90.3642L304.318 90.3642C333.356 91.7358 357.642 98.0863 381.684 116.026C413.274 139.597 435.964 179.052 435.554 218.854L435.876 218.876C442.418 219.278 454.321 217.901 459.997 219.497C466.053 221.201 466.592 227.872 463 232.1C460.267 235.315 456.862 238.106 453.822 241.042C441.61 252.835 429.98 265.237 417.873 277.141C413.18 281.754 406.871 291.836 399.704 285.677C384.956 273.004 366.874 253.19 353.3 238.937C348.685 234.091 342.743 231.577 344.44 223.786C345.938 216.905 355.326 218.815 360.486 218.843C365.543 218.869 370.615 218.75 375.669 218.854C373.303 186.463 349.235 159.555 317.653 153.019C308.313 151.086 298.659 151.507 289.178 151.509L144.06 151.516L144.074 170.608C144.074 174.18 144.525 178.474 143.677 181.957C142.879 185.232 137.659 188.351 134.594 186.102C131.229 183.632 128.359 179.968 125.366 177.032C116.417 168.254 105.963 158.319 97.594 149.098ZM100.732 131.714C105.95 135.026 125.83 156.929 129.654 161.687C129.613 150.778 125.302 137.414 138.132 137.157C150.318 136.913 162.55 137.121 174.739 137.121L282.914 137.115C296.639 137.107 310.206 136.451 323.666 139.638C362.41 148.811 388.975 183.157 389.781 222.459C390.11 238.476 379.922 233.56 367.149 233.776C378.106 245.256 393.06 260.331 404.528 270.457C415.975 259.795 430.605 245.243 441.047 233.776C437.572 233.592 434.033 233.838 430.55 233.834L429.774 233.828C419.319 233.671 421.608 225.645 421.49 218.003C421.359 209.578 420.102 201.837 417.818 193.72C403.916 144.309 360.872 107.16 308.75 104.798C303.431 104.557 298.036 104.734 292.707 104.735L263.02 104.742L150.363 104.748C134.264 104.746 129.174 108.592 129.609 90.5453C129.7 86.783 129.59 83.0156 129.654 79.2521C126.786 81.3648 124.609 84.2527 122.064 86.7236L99.7432 108.744C96.0942 112.292 92.4344 116.309 88.2687 119.244C92.1962 123.524 97.1241 127.192 100.732 131.714Z"/>
</svg>
