<?xml version="1.0" encoding="utf-8" ?>
<svg xmlns="http://www.w3.org/2000/svg" xmlns:xlink="http://www.w3.org/1999/xlink" width="100" height="100">
	<path fill="#7995CD" transform="scale(0.195312 0.195312)" d="M97.2728 178.563C75.2689 176.285 70.3069 165.633 70.529 144.834L70.5573 132.063C70.5594 125.329 70.2015 118.485 70.4454 111.769C71.1294 92.9379 84.7671 87.169 100.817 87.2299L271.68 87.2432C287.229 87.2335 304.043 85.8583 309.011 105.66C310.51 111.636 310.091 136.262 309.744 144.072C309.017 162.822 310.194 176.086 287.063 178.563C285.419 183.196 285.132 187.684 284.79 192.551C282.757 192.726 280.604 192.57 278.555 192.565L97.2728 192.551L97.2728 178.563Z"/>
	<path fill="#9BACD7" transform="scale(0.195312 0.195312)" d="M97.2728 178.563L261.889 178.57C270.249 178.601 278.71 178.824 287.063 178.563C285.419 183.196 285.132 187.684 284.79 192.551C282.757 192.726 280.604 192.57 278.555 192.565L97.2728 192.551L97.2728 178.563Z"/>
	<path fill="#FDFDFD" transform="scale(0.195312 0.195312)" d="M94.3267 99.8369C98.7973 99.6226 103.291 99.8261 107.765 99.8306L262.293 99.8328C276.374 99.8318 297.079 94.6214 297.412 113.751C297.566 122.597 297.361 131.48 297.384 140.33C297.406 148.963 300.285 165.752 287.063 165.845L116.582 165.848C109.773 165.857 102.264 166.328 95.5485 165.74C79.7361 164.356 83.2392 145.78 83.2412 134.771C83.2432 123.68 79.0655 101.641 94.3267 99.8369Z"/>
	<path fill="#9FECDF" transform="scale(0.195312 0.195312)" d="M133.967 114.855C147.748 112.906 157.885 127.273 149.632 139.252C135.412 139.378 132.052 126.858 133.967 114.855Z"/>
	<path fill="#62CCAA" transform="scale(0.195312 0.195312)" d="M149.632 139.252C130.802 163.25 103.822 123.338 133.967 114.855C132.052 126.858 135.412 139.378 149.632 139.252Z"/>
	<path fill="#48608D" transform="scale(0.195312 0.195312)" d="M184.655 138.242C191.91 138.122 255.385 137.413 258.026 139.04C263.215 142.234 261.38 149.296 255.892 150.648C252.45 150.872 248.871 150.67 245.419 150.662L200.946 150.659C196.643 150.66 185.825 151.643 182.05 149.677C176.445 146.758 179.296 139.555 184.655 138.242Z"/>
	<path fill="#48608D" transform="scale(0.195312 0.195312)" d="M184.655 113.269L247.826 113.271C250.782 113.268 254.42 112.569 257.195 113.855C263.136 116.609 261.62 124.049 255.892 125.728L195.302 125.734C190.798 125.757 180.536 127.083 179.186 121.075C178.285 117.064 180.848 113.913 184.655 113.269Z"/>
	<path fill="#48608D" transform="scale(0.195312 0.195312)" d="M265.987 349.608C259.589 337.014 259.986 323.723 259.993 310.033L259.986 261.263C259.866 240.32 263.13 243.943 281.458 241.056C298.567 238.36 315.368 233.527 331.648 227.676C355.06 219.262 343.117 222.066 365.743 228.535C380.969 232.887 396.002 236.676 411.705 238.927C418.414 239.986 435.802 239.599 439.187 244.15C442.206 248.21 441.259 255.436 441.247 260.16L441.243 301.959C441.279 351.239 426.852 373.963 385.459 402.791C377.169 408.564 363.019 417.389 353.445 419.648C344.834 421.68 337.618 417.741 330.275 413.627C308.699 401.537 275.073 374.099 265.987 349.608Z"/>
	<path fill="#10B7FA" transform="scale(0.195312 0.195312)" d="M293.835 258.665C308.127 255.657 322.124 252.298 335.903 247.439C350.829 242.176 346.577 243.412 360.689 247.696C380.266 253.641 400.238 258.737 420.751 259.823L420.758 297.727C420.755 316.797 421.453 332.302 411.261 349.527C401.781 365.551 386.27 377.853 370.777 387.714C365.697 391.287 354.766 397.936 348.965 399.349C334.843 395.144 315.174 378.512 304.792 368.139C280.149 343.517 280.155 334.207 280.154 302.877L280.156 260.615C284.575 259.565 289.326 259.243 293.835 258.665Z"/>
	<path fill="#FDCF6B" transform="scale(0.195312 0.195312)" d="M350.103 362.7C351.224 363.499 352.252 364.238 353.004 365.425C351.366 365.472 349.725 365.439 348.086 365.425C348.672 364.371 349.254 363.557 350.103 362.7Z"/>
	<path fill="#FDFDFD" transform="scale(0.195312 0.195312)" d="M320.006 299.516L319.998 288.947C320.028 267.833 330.448 262.705 350.148 262.728C378.24 262.761 377.332 280.154 377.689 301.986C372.835 302.176 367.89 302.013 363.03 301.986C353.639 301.669 344.112 301.983 334.709 301.986L331.497 301.986C327.755 301.945 323.702 302.447 320.006 301.986L320.006 299.516Z"/>
	<path fill="#10B7FA" transform="scale(0.195312 0.195312)" d="M334.709 301.986C334.69 297.353 334.131 287.497 334.979 283.406C336.525 275.941 344.477 277.825 350.148 277.757C368.051 277.542 362.986 286.43 363.03 301.986C353.639 301.669 344.112 301.983 334.709 301.986Z"/>
	<path fill="#FDE688" transform="scale(0.195312 0.195312)" d="M334.709 301.986C344.112 301.983 353.639 301.669 363.03 301.986C367.89 302.013 372.835 302.176 377.689 301.986C392.594 302.305 389.252 319.479 389.258 329.676C389.263 337.142 391.319 357.062 385.855 362.301C381.267 366.7 375.007 365.447 369.168 365.439L353.004 365.425C352.252 364.238 351.224 363.499 350.103 362.7C329.677 355.38 331.492 347.126 331.489 328.689L331.497 301.986L334.709 301.986Z"/>
	<path fill="#FECF4A" transform="scale(0.195312 0.195312)" d="M348.086 318.535C359.301 319.086 354.539 344.998 353.624 346.403C352.553 348.048 350.767 348.61 348.965 349.027C337.38 348.825 341.316 324.311 342.673 321.924C343.786 319.965 346.034 319.114 348.086 318.535Z"/>
	<path fill="#089FE7" transform="scale(0.195312 0.195312)" d="M293.835 258.665C294.738 267.164 306.375 284.969 311.807 290.99C313.616 292.995 319.147 297.489 320.006 299.516L320.006 301.986C323.702 302.447 327.755 301.945 331.497 301.986L331.489 328.689C331.492 347.126 329.677 355.38 350.103 362.7C349.254 363.557 348.672 364.371 348.086 365.425C340.744 365.382 333.216 365.092 325.89 365.425C330.998 374.48 347.265 383.046 357.098 385.783C361.569 387.027 366.317 386.387 370.777 387.714C365.697 391.287 354.766 397.936 348.965 399.349C334.843 395.144 315.174 378.512 304.792 368.139C280.149 343.517 280.155 334.207 280.154 302.877L280.156 260.615C284.575 259.565 289.326 259.243 293.835 258.665Z"/>
	<path fill="#FECF4A" transform="scale(0.195312 0.195312)" d="M320.006 301.986C323.702 302.447 327.755 301.945 331.497 301.986L331.489 328.689C331.492 347.126 329.677 355.38 350.103 362.7C349.254 363.557 348.672 364.371 348.086 365.425C340.744 365.382 333.216 365.092 325.89 365.425C310.007 364.056 309.679 362.583 309.731 346.503L309.745 328.144C309.743 319.087 306.265 302.299 320.006 301.986Z"/>
	<path fill="#FDFDFD" transform="scale(0.195312 0.195312)" d="M309.744 144.072C327.109 132.224 344.991 127.266 366.258 131.298C401.19 137.921 425.815 170.619 423.668 205.853C423.4 210.251 422.621 214.657 421.886 218.998C419.497 218.546 417.136 218.348 414.714 218.17L414.41 218.602C414.974 219.233 417.469 219.312 418.446 219.505L418.314 219.555C419.079 219.585 419.995 219.53 420.725 219.737C419.246 222.611 423.677 229.291 420.94 236.991C418.889 239.442 414.127 236.639 412.367 237.818L412.544 238.199L411.705 238.927C396.002 236.676 380.969 232.887 365.743 228.535C343.117 222.066 355.06 219.262 331.648 227.676C315.368 233.527 298.567 238.36 281.458 241.056C263.13 243.943 259.866 240.32 259.986 261.263L259.993 310.033C259.986 323.723 259.589 337.014 265.987 349.608L265.241 349.476C262.013 352.744 261.295 357.861 258.632 361.417C257.243 363.27 255.267 364.419 253.821 366.15L253.231 366.013C252.891 367.723 259.99 376.193 259.291 379.698L258.382 379.8L258.307 379.929C259.327 380.03 260.37 380.118 261.359 380.399C264.868 383.148 270.099 389.683 273.257 393.211L115.054 393.217C97.5228 393.213 76.2626 395.468 71.1987 372.516C70.2348 368.147 70.5316 363.465 70.5452 359.019L70.5213 331.374C70.4846 317.732 74.3112 304.175 89.8983 300.738C92.2624 300.217 94.7033 300.102 97.063 299.566L97.2728 299.516L97.2728 285.979C67.638 285.01 70.5803 259.312 70.5529 237.63C70.5255 215.924 68.5059 193.963 97.2728 192.551L278.555 192.565C280.604 192.57 282.757 192.726 284.79 192.551C285.132 187.684 285.419 183.196 287.063 178.563C310.194 176.086 309.017 162.822 309.744 144.072Z"/>
	<path fill="#9FECDF" transform="scale(0.195312 0.195312)" d="M136.237 329.181C152.211 330.189 157.576 346.602 147.395 356.491C136.235 348.482 136.031 342.806 136.237 329.181Z"/>
	<path fill="#9FECDF" transform="scale(0.195312 0.195312)" d="M134.769 222.802C146.446 217.819 158.802 236.4 148.375 248.337C138.251 243.868 134.656 241.595 134.411 228.878C134.369 226.703 135.52 224.917 135.542 222.897L134.769 222.802Z"/>
	<path fill="#62CCAA" transform="scale(0.195312 0.195312)" d="M148.375 248.337C142.243 254.774 132.443 255.445 125.884 249.237C116.442 240.3 121.165 222.851 134.769 222.802L135.542 222.897C135.52 224.917 134.369 226.703 134.411 228.878C134.656 241.595 138.251 243.868 148.375 248.337Z"/>
	<path fill="#62CCAA" transform="scale(0.195312 0.195312)" d="M147.395 356.491C141.387 361.466 132.621 362.571 126.452 357.065C115.558 347.342 121.756 329.47 136.237 329.181C136.031 342.806 136.235 348.482 147.395 356.491Z"/>
	<path fill="#48608D" transform="scale(0.195312 0.195312)" d="M186.168 243.991L241.123 243.991C239.914 248.072 239.928 252.043 239.949 256.259C237.869 256.162 235.769 256.238 233.687 256.259L201.602 256.23C196.233 256.248 190.513 256.759 185.183 256.269C176.719 255.49 176.407 244.951 186.168 243.991Z"/>
	<path fill="#48608D" transform="scale(0.195312 0.195312)" d="M184.655 324.735C203.078 324.54 221.524 324.734 239.949 324.735C239.887 329.112 240.538 333.367 241.123 337.693C239.288 337.628 237.461 337.659 235.625 337.693L203.034 337.708C198.661 337.709 185.869 338.821 182.303 336.769C176.934 333.678 179.078 325.971 184.655 324.735Z"/>
	<path fill="#48608D" transform="scale(0.195312 0.195312)" d="M203.877 349.608L244.863 349.608C246.558 354.172 248.407 358.513 250.915 362.7L225.625 362.7L199.156 362.712C195.382 362.713 184.467 363.939 181.584 361.092C178.054 357.606 178.621 351.486 183.908 350.101C188.166 348.986 199.049 349.595 203.877 349.608Z"/>
	<path fill="#48608D" transform="scale(0.195312 0.195312)" d="M184.655 218.998L235.037 218.995C244.64 218.997 254.394 216.288 261.359 222.802C257.443 224.021 254.265 225.379 250.915 227.786C249.309 228.947 247.846 230.388 246.362 231.702C238.522 231.887 185.364 232.793 181.49 230.386C176.125 227.053 179.261 219.93 184.655 218.998Z"/>
	<path fill="#7995CD" transform="scale(0.195312 0.195312)" d="M97.2728 192.551L278.555 192.565C280.604 192.57 282.757 192.726 284.79 192.551C297.975 194.038 305.006 200.604 308.971 212.809C305.109 214.078 301.163 215.237 297.377 216.714C294.442 209.332 291.218 206.149 283.257 205.862C272.281 205.466 261.193 205.799 250.207 205.799L124.939 205.8C115.078 205.803 105.081 205.419 95.2391 205.773C79.2141 206.351 83.2299 229.954 83.2379 240.797C83.2443 249.411 80.2359 268.458 90.9464 272.196C96.5199 274.141 103.32 273.111 109.106 273.107L205.051 273.097C216.674 273.095 228.33 272.887 239.949 273.102L239.949 285.979C235.833 285.771 231.74 285.98 227.625 285.965L97.2728 285.979C67.638 285.01 70.5803 259.312 70.5529 237.63C70.5255 215.924 68.5059 193.963 97.2728 192.551Z"/>
	<path fill="#9FECDF" transform="scale(0.195312 0.195312)" d="M309.744 144.072C327.109 132.224 344.991 127.266 366.258 131.298C401.19 137.921 425.815 170.619 423.668 205.853C423.4 210.251 422.621 214.657 421.886 218.998C419.497 218.546 417.136 218.348 414.714 218.17C411.121 216.999 403.574 216.299 399.35 215.363C394.492 214.286 389.855 212.37 384.999 211.328C390.161 187.705 374.35 165.593 349.102 168.947C329.272 171.581 318.757 189.219 321.386 208.182C317.621 210.379 313.096 211.439 308.971 212.809C305.006 200.604 297.975 194.038 284.79 192.551C285.132 187.684 285.419 183.196 287.063 178.563C310.194 176.086 309.017 162.822 309.744 144.072Z"/>
	<path fill="#7995CD" transform="scale(0.195312 0.195312)" d="M239.949 285.979L239.974 304.652C239.983 307.141 240.364 310.092 239.949 312.515L108.529 312.504C81.3705 312.474 83.1852 314.91 83.2735 343.499C83.2972 351.167 82.9675 358.905 83.2028 366.562C83.7162 383.263 101.47 380.398 112.888 380.396L223.401 380.399C236.048 380.399 248.713 380.551 261.359 380.399C264.868 383.148 270.099 389.683 273.257 393.211L115.054 393.217C97.5228 393.213 76.2626 395.468 71.1987 372.516C70.2348 368.147 70.5316 363.465 70.5452 359.019L70.5213 331.374C70.4846 317.732 74.3112 304.175 89.8983 300.738C92.2624 300.217 94.7033 300.102 97.063 299.566L97.2728 299.516L97.2728 285.979L227.625 285.965C231.74 285.98 235.833 285.771 239.949 285.979Z"/>
	<path fill="#9BACD7" transform="scale(0.195312 0.195312)" d="M239.949 285.979L239.974 304.652C239.983 307.141 240.364 310.092 239.949 312.515C239.412 309.873 239.941 302.646 239.949 299.516L110.328 299.521C105.98 299.504 101.617 299.675 97.2728 299.516L97.2728 285.979L227.625 285.965C231.74 285.98 235.833 285.771 239.949 285.979Z"/>
</svg>
