<?xml version="1.0" encoding="utf-8" ?>
<svg xmlns="http://www.w3.org/2000/svg" xmlns:xlink="http://www.w3.org/1999/xlink" width="100" height="100">
	<path fill="#FC8382" transform="scale(0.195312 0.195312)" d="M375.502 293.274C388.948 293.008 407.648 291.545 418.344 299.741C443.554 317.249 434.828 360.306 403.913 365.584C399.142 366.398 394.301 366.127 389.486 366.087L375.502 366.07L347.801 366.07L347.801 366.07L347.801 337.966L347.801 293.274L363.697 293.261C367.629 293.229 371.574 293.05 375.502 293.274Z"/>
	<path fill="#FC9B96" transform="scale(0.195312 0.195312)" d="M375.502 293.274C388.948 293.008 407.648 291.545 418.344 299.741C414.699 312.535 410.828 326.391 398.326 333.37C386.55 339.943 362.238 337.986 347.801 337.966L347.819 356.375C347.823 359.585 347.967 362.868 347.801 366.07L347.801 366.07L347.801 337.966L347.801 293.274L363.697 293.261C367.629 293.229 371.574 293.05 375.502 293.274Z"/>
	<path fill="#69AFF9" transform="scale(0.195312 0.195312)" d="M137.535 391.898C152.213 391.632 166.944 391.898 181.627 391.898L375.502 391.898C376.642 401.452 375.058 413.008 369.013 420.619C358.038 434.437 344.149 432.476 328.571 432.477L181.627 432.472L178.297 432.476C150.266 432.434 137.438 420.085 137.535 391.898Z"/>
	<path fill="#5379E9" transform="scale(0.195312 0.195312)" d="M137.535 391.898C152.213 391.632 166.944 391.898 181.627 391.898C181.521 417.338 182.753 420.913 204.188 432.472C201.459 432.424 182.447 432.115 181.627 432.472L178.297 432.476C150.266 432.434 137.438 420.085 137.535 391.898Z"/>
	<path fill="#C7D5F3" transform="scale(0.195312 0.195312)" d="M133.397 390.964C128.54 391.433 123.582 390.99 118.709 390.978C94.9277 390.92 78.5146 381.791 78.4869 355.775L78.507 114.873C78.5419 83.606 91.5905 74.2332 121.356 74.2494L140.489 74.2645C138.394 75.6006 135.987 76.2074 133.849 77.4327C124.296 82.9061 118.528 92.5413 117.842 103.369C117.658 106.267 117.3 126.17 117.699 127.04C117.47 130.192 115.916 132.96 115.182 135.986C113.211 144.104 114.674 152.606 117.165 160.42C115.514 162.882 116.381 174.245 116.38 177.546L116.377 202.14C116.371 205.317 115.396 211.058 116.383 213.888C113.872 217.46 114.094 220.54 116.383 224.031C116.138 224.599 116.212 242.294 116.383 244.004C113.466 247.341 113.626 250.19 116.383 253.6C115.77 257.817 116.388 267.351 116.391 272.031L116.38 305.149C116.375 307.904 115.784 313.62 116.383 316.013C111.959 325.588 111.945 333.466 116.383 342.783C116.006 346.161 116.411 349.802 116.407 353.218C116.382 371.185 117.811 383.347 136.279 390.883L136.199 391.035L133.397 390.964Z"/>
	<path fill="#E8EDF5" transform="scale(0.195312 0.195312)" d="M276.698 74.2645C280.647 73.9714 284.776 74.2647 288.742 74.2845L331.323 74.2637C337.149 74.2525 343.341 73.7888 349.074 74.9679C374.809 80.2608 375.501 102.382 375.497 122.54L375.502 157.457C374.937 159.785 375.489 164.223 375.495 166.828L375.49 281.83C375.486 285.635 375.352 289.474 375.502 293.274C371.574 293.05 367.629 293.229 363.697 293.261L347.801 293.274L347.801 337.966L347.801 366.07L347.801 366.07L375.502 366.07C375.46 366.212 375.368 391.129 375.502 391.898L181.627 391.898C166.944 391.898 152.213 391.632 137.535 391.898C136.123 391.651 134.771 391.383 133.397 390.964L136.199 391.035L136.279 390.883C117.811 383.347 116.382 371.185 116.407 353.218C116.411 349.802 116.006 346.161 116.383 342.783C111.945 333.466 111.959 325.588 116.383 316.013C115.784 313.62 116.375 307.904 116.38 305.149L116.391 272.031C116.388 267.351 115.77 257.817 116.383 253.6C113.626 250.19 113.466 247.341 116.383 244.004C116.212 242.294 116.138 224.599 116.383 224.031C114.094 220.54 113.872 217.46 116.383 213.888C115.396 211.058 116.371 205.317 116.377 202.14L116.38 177.546C116.381 174.245 115.514 162.882 117.165 160.42C114.674 152.606 113.211 144.104 115.182 135.986C115.916 132.96 117.47 130.192 117.699 127.04C117.3 126.17 117.658 106.267 117.842 103.369C118.528 92.5413 124.296 82.9061 133.849 77.4327C135.987 76.2074 138.394 75.6006 140.489 74.2645C150.531 74.0479 160.583 74.4402 170.624 74.4199L241.727 74.2665C249.098 74.2785 270.401 75.4227 276.698 74.2645Z"/>
	<path fill="#5379E9" transform="scale(0.195312 0.195312)" d="M116.383 213.888C121.692 211.25 130.771 212.512 136.564 212.516L197.127 212.52C201.693 212.513 206.34 212.27 210.895 212.401C219.285 212.641 220.865 222.308 214.223 224.763C210.978 225.962 194.265 225.326 189.834 225.324L134.168 225.328C129.49 225.331 120.519 226.476 116.383 224.031C114.094 220.54 113.872 217.46 116.383 213.888Z"/>
	<path fill="#5379E9" transform="scale(0.195312 0.195312)" d="M116.383 244.004C119.819 240.589 124.087 241.753 128.6 241.752L205.687 241.761C224.969 241.834 219.152 254.011 211.78 254.672C207.562 255.05 203.083 254.683 198.837 254.678L139.276 254.714C133.516 254.719 121.547 255.979 116.383 253.6C113.626 250.19 113.466 247.341 116.383 244.004Z"/>
	<path fill="#C7D5F3" transform="scale(0.195312 0.195312)" d="M276.698 259.923C289.318 259.577 302.037 259.921 314.669 259.918L331.192 259.92C339.193 259.924 347.703 257.838 349.602 267.412C346.742 277.682 331.757 274.207 322.883 274.181L278.822 274.187C271.245 274.189 248.565 277.76 248.587 266.479C248.603 258.77 257.824 259.894 262.908 259.902L276.698 259.923Z"/>
	<path fill="#C7D5F3" transform="scale(0.195312 0.195312)" d="M253.696 229.507C258.856 229.218 264.16 229.492 269.339 229.495L306.25 229.538C315.198 229.528 339.448 228.574 345.035 230.207C352.64 232.43 348.592 240.219 344.294 244.004C340.013 244.27 335.535 244.009 331.24 244.008L272.787 244.002C267.963 244.001 256.743 245.152 252.585 242.961C247.113 240.078 247.251 230.854 253.696 229.507Z"/>
	<path fill="#C7D5F3" transform="scale(0.195312 0.195312)" d="M256.42 198.565C261.385 198.147 266.382 198.557 271.354 198.564L328.875 198.562C333.391 198.56 338.143 198.213 342.622 198.649C352.308 199.592 350.752 212.452 341.812 212.523C337.113 213.125 332.679 212.541 327.979 212.529L267.056 212.535C262.492 212.49 254.482 214.178 250.793 210.748C246.315 206.584 248.212 198.473 256.42 198.565Z"/>
	<path fill="#FC8382" transform="scale(0.195312 0.195312)" d="M126.02 307.028C132.223 302.341 165.834 302.598 169.841 303.74L169.841 336.962L169.841 339.696L169.841 356.508C165.337 356.78 160.64 356.512 156.117 356.507C139.817 356.488 126.875 358.164 116.383 342.783C111.945 333.466 111.959 325.588 116.383 316.013C119.214 312.125 121.771 309.339 126.02 307.028Z"/>
	<path fill="#FC9B96" transform="scale(0.195312 0.195312)" d="M126.02 307.028C132.223 302.341 165.834 302.598 169.841 303.74L169.841 336.962C152.988 337.015 126.315 340.681 126.015 315.662C125.982 312.887 126.259 310.089 126.046 307.32L126.02 307.028Z"/>
	<path fill="#51B9D8" transform="scale(0.195312 0.195312)" d="M169.841 303.74C170.994 303.375 211.111 303.768 213.927 304.119C218.069 304.636 222.345 306.648 225.581 309.286C244.634 326.194 235.099 355.191 210.879 356.429C206.012 356.678 201.076 356.523 196.202 356.522L169.841 356.508L169.841 339.696L169.841 336.962L169.841 303.74Z"/>
	<path fill="#6ACFE0" transform="scale(0.195312 0.195312)" d="M169.841 303.74C170.994 303.375 211.111 303.768 213.927 304.119C218.069 304.636 222.345 306.648 225.581 309.286C216.18 338.835 196.369 337.467 169.841 336.962C169.888 337.767 170.123 338.955 169.841 339.696L169.841 336.962L169.841 303.74Z"/>
	<path fill="#51B9D8" transform="scale(0.195312 0.195312)" d="M283.059 297.784C288.417 292.009 308.237 293.266 315.405 293.264L347.801 293.274L347.801 337.966L347.801 366.07C333.31 366.507 310.15 367.179 295.991 365.823C260.677 362.44 250.036 313.516 283.059 297.784Z"/>
	<path fill="#6ACFE0" transform="scale(0.195312 0.195312)" d="M283.059 297.784C288.417 292.009 308.237 293.266 315.405 293.264L347.801 293.274L347.801 337.966C334.123 338.668 309.13 339.511 298.499 332.751C288.817 326.595 283.913 317.262 283.218 305.933C283.073 303.572 283.949 299.912 283.059 297.784Z"/>
	<path fill="#D669C4" transform="scale(0.195312 0.195312)" d="M117.699 127.04C119.273 124.444 120.755 121.727 122.547 119.277C155.21 74.6011 222.462 120.395 194.327 166.801C175.778 197.397 132.192 193.4 117.165 160.42C114.674 152.606 113.211 144.104 115.182 135.986C115.916 132.96 117.47 130.192 117.699 127.04Z"/>
	<path fill="#E8EDF5" transform="scale(0.195312 0.195312)" d="M169.841 119.29C181.102 118.222 189.889 131.913 182.811 141.125C178.443 146.811 156.102 170.5 149.158 171.44C137.284 171.933 128.422 160.673 134.689 150.526C138.621 144.158 160.644 121.399 169.841 119.29Z"/>
	<path fill="#D669C4" transform="scale(0.195312 0.195312)" d="M169.841 129.277C171.388 129.13 172.746 129.176 174.025 130.165C178.74 133.808 172.335 138.611 169.841 141.418C167.881 138.983 165.708 136.818 163.503 134.61C165.5 132.64 167.424 130.728 169.841 129.277Z"/>
	<path fill="#D669C4" transform="scale(0.195312 0.195312)" d="M156.682 141.418C159.042 143.364 161.224 145.586 163.503 147.631C158.497 151.967 154.392 157.777 149.158 161.724C146.058 162.758 142.754 160.606 142.694 157.303C142.63 153.799 153.685 144.307 156.682 141.418Z"/>
	<path fill="#69AFF9" transform="scale(0.195312 0.195312)" d="M276.698 74.2645C280.647 73.9714 284.776 74.2647 288.742 74.2845L331.323 74.2637C337.149 74.2525 343.341 73.7888 349.074 74.9679C374.809 80.2608 375.501 102.382 375.497 122.54L375.502 157.457C375.131 157.466 374.762 157.475 374.391 157.478L310.117 157.472C305.231 157.475 299.997 157.72 295.22 156.607C273.764 151.608 276.68 129.798 276.684 113.45L276.698 74.2645Z"/>
</svg>
