<?xml version="1.0" encoding="utf-8" ?>
<svg xmlns="http://www.w3.org/2000/svg" xmlns:xlink="http://www.w3.org/1999/xlink" width="100" height="100">
	<path fill="#9052F4" transform="scale(0.195312 0.195312)" d="M228.122 345.21L239.897 345.21L239.897 367.2L228.122 367.2L228.122 345.21Z"/>
	<path fill="#696AF9" transform="scale(0.195312 0.195312)" d="M133.447 345.21L145.693 345.21C145.703 352.532 145.521 359.881 145.693 367.2L133.447 367.2C133.142 360.015 133.08 352.379 133.447 345.21Z"/>
	<path fill="#9052F4" transform="scale(0.195312 0.195312)" d="M287.322 398.988C292.033 400.694 297.026 401.712 301.659 403.484C302.459 406.841 299.318 414.736 297.478 417.733C287.988 433.189 275.218 431.357 259.994 431.345L228.621 431.352C228.236 431.04 226.193 431.211 225.566 431.203C231.962 430.241 255.743 431.701 259.319 429.534L259.079 428.664L259.411 428.636C259.623 429.088 259.726 429.288 260.092 429.646L260.38 429.388C260.317 428.077 261.533 427.549 261.528 426.368C261.52 424.489 263.731 426.858 264.534 427.071C266.041 426.228 265.778 423.872 266.659 422.529C267.197 421.708 268.22 422.093 268.914 421.447L268.6 420.48C270.284 417.047 272.761 421.145 274.635 421.571C276.01 420.738 276.723 418.983 277.9 417.903C281.406 414.689 284.192 415.096 288.401 408.707C291.561 407.21 294.792 406.809 293.969 403.823L294.166 403.495L295.007 403.561C295.085 401.183 288.37 401.12 287.322 398.988Z"/>
	<path fill="#9052F4" transform="scale(0.195312 0.195312)" d="M315.929 288.296C334.843 284.538 354.798 302.893 355.702 321.364C356.567 339.035 341.829 357.911 323.507 358.713C303.69 361.386 284.475 346.44 283.283 326.245C282.167 307.344 296.527 289.245 315.929 288.296ZM318.916 298.814C310.222 300.724 311.985 309.779 312.015 316.707C308.66 316.682 302.705 316.105 299.609 317.075C294.689 318.617 293.02 326.106 296.854 329.568C300.386 332.758 307.512 331.772 312.015 331.741C311.983 339.346 310.374 350.584 321.397 349.565C329.041 346.745 327.173 338.291 327.117 331.741C331.715 331.78 339.168 332.888 342.786 329.497C345.891 326.588 345.912 322.109 342.91 319.115C339.252 315.467 331.891 316.601 327.117 316.707C327.642 309.657 329.021 298.725 318.916 298.814Z"/>
	<defs>
		<linearGradient id="gradient_0" gradientUnits="userSpaceOnUse" x1="347.81046" y1="384.74057" x2="310.73047" y2="291.35947">
			<stop offset="0" stop-color="#B233F0"/>
			<stop offset="1" stop-color="#826FF7"/>
		</linearGradient>
	</defs>
	<path fill="url(#gradient_0)" transform="scale(0.195312 0.195312)" d="M379.694 268.797L379.973 268.888C382.507 273.757 386.04 282.31 387.546 287.485C388.675 291.365 388.089 324.467 387.835 329.769C386.445 358.763 362.864 382.431 335.667 389.818C297.738 400.12 261.308 374.905 251.543 338.127C250.067 330.927 248.138 320.232 254.099 314.546C259.458 309.435 267.08 310.454 269.821 317.86C270.986 321.009 270.456 324.892 270.675 328.219C274.011 378.876 352.808 389.546 366.808 336.167C369.157 327.21 368.252 315.895 368.251 306.562L368.247 271.323C372.15 271.124 375.963 269.871 379.694 268.797Z"/>
	<defs>
		<linearGradient id="gradient_1" gradientUnits="userSpaceOnUse" x1="196.64258" y1="331.91531" x2="126.519" y2="181.63992">
			<stop offset="0" stop-color="#6A79FF"/>
			<stop offset="1" stop-color="#29B8F9"/>
		</linearGradient>
	</defs>
	<path fill="url(#gradient_1)" transform="scale(0.195312 0.195312)" d="M182.624 159.096C215.74 156.334 239.456 183.516 238.875 215.758C248.811 215.635 253.924 217.048 253.994 228.134C254.123 248.423 258.925 257.482 235.499 257.269C229.599 267.808 221.597 273.967 212.153 281.031C224.164 283.885 242.001 292.987 250.248 302.409C246.715 305.071 244.452 308.349 242.133 312.044C235.468 304.801 212.284 287.79 203.515 292.527C198.526 295.221 196.654 298.33 190.372 299.77C180.257 302.089 173.375 296.609 165.378 291.529C154.313 293.628 138.808 302.236 130.883 310.142C118.343 322.651 116.605 334.748 116.601 351.185L116.613 367.2L105.01 367.2L105.001 350.625C105.001 345.365 104.855 340.058 105.732 334.853C110.052 309.194 130.394 291.881 153.783 282.889C149.765 279.553 146.234 275.819 143.527 271.323L143.783 271.047C145.908 268.715 148.447 267.286 151.122 265.678C156.579 274.137 160.404 274.072 168.345 278.777C190.116 291.673 181.666 293.445 203.563 276.75C200.742 276.85 197.886 276.759 195.063 276.75C174.338 276.775 152.135 260.665 151.775 238.75C151.552 225.226 149.937 212.357 160.273 201.775C173.531 188.201 199.545 188.109 212.966 201.509C220.902 209.433 220.159 215.785 220.108 226.038L220.065 245.108C216.498 250.544 207.665 255.33 201.614 257.269C187.953 241.421 175.764 270.482 193.975 270.002C195.276 269.968 205.986 264.128 209.221 262.707C215.196 260.082 226.816 252.962 228.461 245.841C229.259 242.388 228.45 237.994 228.325 234.461L227.516 212.01C225.205 160.309 157.299 157.718 146.857 200C144.637 208.987 145.358 236.572 145.88 247.129C146.614 261.971 122.154 259.51 119.846 249.474C119.085 246.167 119.4 230.887 119.552 226.49C119.895 216.609 125.97 215.381 134.506 215.758C134.233 186.182 151.09 161.314 182.624 159.096Z"/>
	<path fill="#696AF9" transform="scale(0.195312 0.195312)" d="M75.0927 345.21L75.0983 159.895C75.0964 152.769 74.4372 145.044 75.5513 138.013C77.557 125.355 88.9858 114.818 101.365 112.551C107.543 111.419 114.276 111.927 120.553 111.93L256.467 111.919C256.952 111.92 257.437 111.931 257.922 111.945C254.603 115.7 252.983 119.88 250.248 123.86L249.936 123.88C245.966 124.105 241.905 123.87 237.922 123.865L116.397 123.851C111.682 123.848 106.561 123.461 101.929 124.329C82.4521 127.98 86.06 151.898 86.0633 166.107L86.0732 368.562L86.0732 378.249L242.08 378.253C246.781 378.248 253.6 377.726 257.922 378.249C260.333 379.943 262.356 382.213 264.513 384.213C272.986 392.071 280.213 393.632 287.322 398.988C288.37 401.12 295.085 401.183 295.007 403.561L294.166 403.495L293.969 403.823C294.792 406.809 291.561 407.21 288.401 408.707C284.192 415.096 281.406 414.689 277.9 417.903C276.723 418.983 276.01 420.738 274.635 421.571C272.761 421.145 270.284 417.047 268.6 420.48L268.914 421.447C268.22 422.093 267.197 421.708 266.659 422.529C265.778 423.872 266.041 426.228 264.534 427.071C263.731 426.858 261.52 424.489 261.528 426.368C261.533 427.549 260.317 428.077 260.38 429.388L260.092 429.646C259.726 429.288 259.623 429.088 259.411 428.636L259.079 428.664L259.319 429.534C255.743 431.701 231.962 430.241 225.566 431.203C226.193 431.211 228.236 431.04 228.621 431.352L117.378 431.368C98.9795 431.373 81 431.446 75.9065 408.426C74.3524 401.402 75.0933 391.049 75.0921 383.684L75.0927 345.21ZM169.977 398.988C162.984 399.224 161.091 407.028 165.671 410.446C168.711 412.715 177.896 411.433 181.57 411.394L203.563 411.37C212.134 410.875 212.898 400.47 204.559 399.162C200.934 398.594 196.792 398.986 193.104 398.986L169.977 398.988Z"/>
	<path fill="#56A8F9" transform="scale(0.195312 0.195312)" d="M340.352 78.0062C364.873 77.3919 385.441 83.2315 404.475 99.2943C443.094 131.886 447.725 191.43 415.19 229.845C398.175 249.935 375.218 260.591 349.249 262.751C299.329 262.924 258.049 230.401 252.637 179.361C247.818 133.92 279.268 90.8421 323.466 80.5604C329.004 79.272 334.702 78.5886 340.352 78.0062ZM342.815 89.7759C298.275 89.7811 264.045 128.127 264.416 171.996C264.79 216.178 303.116 250.566 346.497 250.023L347.677 250.005C420.428 246.8 452.142 158.423 397.991 109.686C383.929 97.0305 362.069 87.3685 342.815 89.7759Z"/>
	<defs>
		<linearGradient id="gradient_2" gradientUnits="userSpaceOnUse" x1="327.8241" y1="119.43091" x2="362.7453" y2="218.51598">
			<stop offset="0" stop-color="#44C4F8"/>
			<stop offset="1" stop-color="#5C97FD"/>
		</linearGradient>
	</defs>
	<path fill="url(#gradient_2)" transform="scale(0.195312 0.195312)" d="M326.71 119.411C337.038 119.277 352.315 118.554 362.383 119.545C368.767 120.174 366.819 125.777 366.803 131.112L366.778 147.255L383.783 147.226C399.032 147.213 395.954 148.692 395.964 163.3L395.953 187.938C392.877 192.27 372.679 190.293 366.778 190.395L366.806 206.588C366.811 210.697 368.011 216.376 364.223 219.109C354.95 220.114 336.205 219.405 326.71 219.109C321.253 216.38 323.496 196.642 323.507 190.395C290.098 189.662 294.665 197.965 294.686 163.733C294.695 148.684 291.35 147.247 306.953 147.243L323.507 147.255C323.509 140.761 320.666 121.379 326.71 119.411Z"/>
</svg>
