<?xml version="1.0" encoding="utf-8" ?>
<svg xmlns="http://www.w3.org/2000/svg" xmlns:xlink="http://www.w3.org/1999/xlink" width="100" height="100">
	<path fill="#18B3E3" transform="scale(0.195312 0.195312)" d="M236.741 101.502C240.911 101.298 245.174 101.487 249.355 101.489L301.579 101.494C310.72 101.492 319.895 100.971 328.836 103.19C333.403 104.323 373.737 116.741 358.345 125.349C354.251 126.639 350.758 123.184 347.395 121.191C328.802 110.171 311.415 111.806 290.48 111.815L255.954 111.828C252.057 111.836 239.327 112.407 236.324 111.381C231.555 109.752 232.251 103.202 236.741 101.502Z"/>
	<path fill="#2796E8" transform="scale(0.195312 0.195312)" d="M120.024 347.576C126.168 347.191 126.587 354.085 128.309 358.589C136.119 379.017 155.208 394.758 176.894 398.007C186.673 399.473 196.953 398.914 206.823 398.909L246.245 398.903C250.036 398.904 263.515 398.33 266.365 399.402C271.371 401.286 269.456 407.512 265.188 408.895C260.803 409.224 256.184 408.909 251.77 408.905L196.346 408.907C189.855 408.907 183.279 409.144 176.821 408.414C135.579 403.755 105.76 352.587 120.024 347.576Z"/>
	<defs>
		<linearGradient id="gradient_0" gradientUnits="userSpaceOnUse" x1="396.04599" y1="195.61742" x2="363.50797" y2="136.10309">
			<stop offset="0" stop-color="#2986E9"/>
			<stop offset="1" stop-color="#229FE6"/>
		</linearGradient>
	</defs>
	<path fill="url(#gradient_0)" transform="scale(0.195312 0.195312)" d="M378.698 127.803C385.786 126.94 411.588 155.162 415.944 160.732C421.279 167.552 414.678 172.322 409.94 176.982L389.37 197.517C386.905 200.011 384.599 203.484 380.99 204.203C373.311 205.02 361.609 188.934 356.034 183.221L347.592 174.634C344.517 171.508 341.156 169.051 341.11 164.314C341.017 154.627 351.18 155.273 357.573 155.276L371.628 155.285C372.042 145.458 367.634 131.36 378.698 127.803ZM380.99 139.1C381 143.976 381.532 154.765 380.695 158.956C379.243 166.232 371.328 164.592 365.791 164.579L351.193 164.576C353.993 168.546 358.026 172.07 361.422 175.554L378.698 193.341L379.148 193.68C380.95 193.162 405.231 168.751 407.947 165.464C404.516 162.939 401.583 159.699 398.593 156.675L387.618 145.567C385.625 143.522 383.37 140.661 380.99 139.1Z"/>
	<path fill="#18B3E3" transform="scale(0.195312 0.195312)" d="M127.989 263.778C133.776 263.602 141.663 272.505 146.013 276.094C154.543 283.134 163.761 289.982 171.637 297.761C174.758 300.843 175.365 304.541 171.971 307.87C167.781 311.981 134.137 340.687 131.221 341.602C129.09 342.271 127.488 341.581 125.634 340.555C120.367 337.015 122.417 322.866 122.434 317.364L102.695 317.37C96.3378 317.4 88.7281 318.698 83.4867 314.197C77.4796 309.037 76.2462 298.79 81.7782 292.85C88.5865 285.539 111.984 288.311 122.434 288.127C122.459 279.929 119.051 266.599 127.989 263.778ZM132.733 278.106C132.785 292.459 136.917 298.355 121.835 298.309L103.497 298.257C99.8632 298.25 88.4529 296.571 88.2966 302.617C88.137 308.788 96.1611 307.544 100.056 307.534C106.579 307.516 132.9 303.888 132.733 312.437L132.733 328.095C142.761 320.076 152.212 310.679 162.138 302.95L144.393 287.988C140.564 284.708 136.797 281.083 132.733 278.106Z"/>
	<defs>
		<linearGradient id="gradient_1" gradientUnits="userSpaceOnUse" x1="221.97899" y1="224.97063" x2="72.400932" y2="122.47494">
			<stop offset="0" stop-color="#1DB0E7"/>
			<stop offset="1" stop-color="#08E1EB"/>
		</linearGradient>
	</defs>
	<path fill="url(#gradient_1)" transform="scale(0.195312 0.195312)" d="M96.5099 101.502L186.73 101.493C191.251 101.494 196.119 101.21 200.592 101.92C221.872 105.298 219.494 128.202 219.498 143.618L219.496 209.197C219.492 225.692 219.336 243.796 198.062 246.52C175.389 246.749 152.692 246.512 130.016 246.523L108.168 246.531C103.721 246.531 99.0026 246.79 94.5992 246.148C85.3331 244.795 76.9428 235.664 75.6924 226.598C74.8728 220.656 75.427 214.063 75.4378 208.041L75.4427 137.728C75.4419 132.291 74.9574 125.383 75.6691 120.096C76.9951 110.246 87.2464 102.801 96.5099 101.502ZM99.8457 111.818C80.4289 113.061 85.0113 132.805 85.0067 147.655L85.0088 208.264C85.0221 233.586 86.5041 236.842 110.866 236.808L195.313 236.795C211.588 235.718 209.49 222.65 209.495 211.26L209.495 145.092C209.492 137.803 209.819 130.332 209.291 123.066C208.394 110.733 195.89 111.788 187.003 111.801L99.8457 111.818Z"/>
	<path fill="#6EE2F2" transform="scale(0.195312 0.195312)" d="M133.517 181.827C141.32 180.794 142.693 189.255 135.993 191.872C129.063 193.932 126.661 183.818 133.517 181.827Z"/>
	<path fill="#6EE2F2" transform="scale(0.195312 0.195312)" d="M108.618 181.827C112.42 181.853 116.225 181.625 120.024 181.827C120.65 182.855 121.156 183.984 121.727 185.047C121.944 188.906 120.859 190.776 117.034 191.872C113.646 191.888 108.579 192.513 105.638 190.582C101.524 187.88 104.346 182.247 108.618 181.827Z"/>
	<path fill="#6EE2F2" transform="scale(0.195312 0.195312)" d="M164.716 131.025C173.587 131.498 188.451 127.282 191.512 135.641C190.856 137.603 190.331 139.394 188.44 140.448C186.137 140.644 166.659 140.716 165.214 140.39C160.274 139.274 160.762 133.012 164.716 131.025Z"/>
	<path fill="#18B3E3" transform="scale(0.195312 0.195312)" d="M178.689 206.638C182.953 206.536 198.03 207.297 189.853 215.183C187.763 217.198 177.081 216.418 173.875 216.402C170.801 216.41 165.224 217.363 162.785 215.34C160.664 213.581 160.876 209.748 162.796 207.929C165.014 205.827 175.372 206.626 178.689 206.638Z"/>
	<path fill="#6EE2F2" transform="scale(0.195312 0.195312)" d="M154.837 181.827L175.658 181.807C181.864 181.802 189.706 179.568 191.512 187.346C190.638 189.356 189.783 190.592 187.994 191.872C186.752 191.959 185.503 191.899 184.26 191.872L163.684 191.89C159.887 191.908 155.686 192.285 151.934 191.75C146.215 190.935 144.673 182.148 154.837 181.827Z"/>
	<path fill="#6EE2F2" transform="scale(0.195312 0.195312)" d="M108.618 131.025C114.818 130.538 147.94 130.577 150.22 131.82C154.103 133.937 152.053 139.537 148.295 140.448C143.353 140.625 108.199 141.147 106.148 139.856C102.255 137.406 103.06 132.22 108.618 131.025Z"/>
	<path fill="#6EE2F2" transform="scale(0.195312 0.195312)" d="M128.809 206.638C134.568 206.642 152.72 204.229 152.877 210.996C153.033 217.735 145.327 216.431 140.774 216.428L127.989 216.402C124.21 216.389 108.024 217.227 105.943 215.513C103.678 213.647 103.303 210.206 105.396 208.059C107.639 205.759 113.061 206.596 115.928 206.602L128.809 206.638Z"/>
	<path fill="#6EE2F2" transform="scale(0.195312 0.195312)" d="M107.743 156.204L164.411 156.202C168.729 156.2 184.311 155.663 187.667 156.51C192.583 157.75 191.897 164.227 187.994 166.237C184.168 166.571 180.056 166.245 176.197 166.244L121.498 166.24C117.287 166.242 101.752 168.674 104.086 160.231C104.665 158.139 105.929 157.229 107.743 156.204Z"/>
	<defs>
		<linearGradient id="gradient_2" gradientUnits="userSpaceOnUse" x1="414.85904" y1="369.45898" x2="250.56316" y2="243.11646">
			<stop offset="0" stop-color="#5956E4"/>
			<stop offset="1" stop-color="#129BEB"/>
		</linearGradient>
	</defs>
	<path fill="url(#gradient_2)" transform="scale(0.195312 0.195312)" d="M309.619 225.688C309.408 220.586 307.034 206.018 313.895 204.377C316.516 203.75 348.272 203.828 350.619 204.411C356.943 205.983 354.587 221.734 354.485 226.845C360.456 227.577 371.27 232.824 375.825 236.795C379.899 232.69 388.758 220.513 395.643 224.886C399.498 227.334 410.833 239.162 414.434 243.075C424.205 253.691 411.979 261.18 404.744 268.502C408.071 273.282 409.367 279.113 412.217 284.127C431.355 284.178 436.393 279.312 436.39 300.418C436.39 307.029 439.128 326.008 431.355 327.795C425.567 329.125 418.165 328.361 412.217 328.095C410.013 334.46 407.92 340.758 404.744 346.727C407.457 349.336 418.9 360.282 418.699 363.407C418.448 367.319 411.582 372.55 409.073 375.13L396.582 387.805C394.366 390.019 391.831 393.92 388.185 393.22C386.168 392.832 373.657 380.408 370.948 378.033C365.518 381.704 359.752 383.805 353.508 385.618C353.523 389.641 354.454 403.63 352.106 406.169C348.641 409.915 317.148 410.921 312.817 406.337C310.02 403.377 310.579 389.418 311.041 384.623C304.949 383.295 299.643 380.821 294.118 378.033L293.774 378.24C287.657 381.973 278.977 395.153 272.174 389.642C269.318 387.329 247.873 366.658 247.621 363.466C248.738 360.139 259.152 349.543 262.134 346.727C258.249 340.744 256.286 334.804 254.157 328.095L239.495 328.121C233.494 328.137 226.886 329.611 227.257 321.271L227.231 299.806C227.231 296.637 225.639 286.991 230.001 285.98C234.591 284.916 247.261 285.48 252.557 285.499C254.424 278.787 257.704 272.935 260.087 266.465C247.965 249.378 238.402 256.586 255.772 238.637L268.976 224.954C276.55 217.182 283.371 227.331 289.449 234.635C296.954 231.623 300.125 228.126 309.619 225.688ZM327.797 221.981C327.796 228.036 327.689 234.111 327.797 240.163C312.923 242.298 307.122 245.135 294.794 253.201C292.366 250.21 285.516 246.506 285.238 244.059C284.173 242.538 282.965 241.347 281.546 240.163C276.863 243.552 268.252 252.276 265.188 257.16C267.325 260.118 270.349 262.572 273.023 265.047C274.532 265.292 278.159 270.163 279.279 271.531L279.15 271.816C273.375 284.229 269.359 288.116 267.431 303.743C260.144 303.732 252.851 303.659 245.565 303.743C245.573 308.67 245.654 313.609 245.565 318.536C244.449 318.509 243.279 318.407 242.17 318.536C248.807 318.121 262.349 316.205 263.555 324.018C264.314 329.66 266.627 335.014 269.57 339.854C277.908 353.569 268.027 350.332 260.087 363.528C262.466 366.064 264.757 368.506 267.431 370.735C269.37 374.381 273.334 377.487 276.285 380.363C279.315 377.961 289.112 366.044 292.763 366.601C296.405 367.157 305.38 373.616 312.526 375.388C315.249 376.064 320.643 376.328 320.463 380.363C320.141 386.502 320.491 392.752 320.463 398.907C322.022 398.692 323.618 398.319 325.177 398.183C329.997 397.899 338.06 398.924 343.72 398.907C343.737 391.989 343.332 384.927 343.72 378.033C354.053 375.6 363.391 372.479 371.628 365.507C377.535 370.688 383.426 376.108 389 381.645C394.175 376.458 402.243 367.129 407.947 363.528C402.185 359.183 397.254 353.055 392.596 347.576C399.701 336.389 401.243 330.912 404.744 318.536C411.983 318.668 419.247 318.539 426.489 318.536L426.489 300.423L411.062 300.423C409.428 297.893 406.75 296.595 405.138 294.285L406.144 294C403.776 294.008 403.695 290.886 403.154 289.046C400.729 280.793 396.893 273.85 392.596 266.465C398.255 261.738 403.687 256.062 408.699 250.662C405.292 247.219 401.997 243.328 398.346 240.163C396.079 238.053 393.957 235.813 391.739 233.655C387.2 237.656 380.474 245.86 375.825 248.483L373.97 247.221C368.002 242.593 361.515 239.445 354.485 236.795C343.182 235.514 344.508 231.822 345.045 221.981C339.338 222.271 333.52 221.958 327.797 221.981ZM273.023 265.047C265.631 275.969 262.977 282.176 260.087 294.8L245.816 294.793C243.128 294.794 236.835 293.631 236.741 296.496C236.917 303.832 236.723 311.196 236.741 318.536C238.544 318.426 240.371 318.305 242.17 318.536C243.279 318.407 244.449 318.509 245.565 318.536C245.654 313.609 245.573 308.67 245.565 303.743C252.851 303.659 260.144 303.732 267.431 303.743C269.359 288.116 273.375 284.229 279.15 271.816L279.279 271.531C278.159 270.163 274.532 265.292 273.023 265.047ZM318.766 213.734C318.775 220.05 318.933 226.403 318.766 232.715C310.875 236.041 303.768 236.315 296.19 241.793C291.401 245.255 290.48 248.216 285.238 244.059C285.516 246.506 292.366 250.21 294.794 253.201C307.122 245.135 312.923 242.298 327.797 240.163C327.689 234.111 327.796 228.036 327.797 221.981C333.52 221.958 339.338 222.271 345.045 221.981C345.177 219.25 345.006 216.473 345.045 213.734C336.288 213.83 327.523 213.744 318.766 213.734ZM274.822 232.715C269.552 237.556 262.262 245.112 257.636 250.662C260.108 252.87 262.538 255.166 265.188 257.16C268.252 252.276 276.863 243.552 281.546 240.163C279.345 237.769 276.701 235.348 274.822 232.715ZM406.144 294L405.138 294.285C406.75 296.595 409.428 297.893 411.062 300.423L426.489 300.423C426.538 298.286 426.49 296.138 426.489 294L406.144 294Z"/>
	<path fill="#6EE2F2" transform="scale(0.195312 0.195312)" d="M327.797 221.981C333.52 221.958 339.338 222.271 345.045 221.981C344.508 231.822 343.182 235.514 354.485 236.795C361.515 239.445 368.002 242.593 373.97 247.221L375.825 248.483C380.474 245.86 387.2 237.656 391.739 233.655C393.957 235.813 396.079 238.053 398.346 240.163C401.997 243.328 405.292 247.219 408.699 250.662C403.687 256.062 398.255 261.738 392.596 266.465C396.893 273.85 400.729 280.793 403.154 289.046C403.695 290.886 403.776 294.008 406.144 294L405.138 294.285C406.75 296.595 409.428 297.893 411.062 300.423L426.489 300.423L426.489 318.536C419.247 318.539 411.983 318.668 404.744 318.536C401.243 330.912 399.701 336.389 392.596 347.576C397.254 353.055 402.185 359.183 407.947 363.528C402.243 367.129 394.175 376.458 389 381.645C383.426 376.108 377.535 370.688 371.628 365.507C363.391 372.479 354.053 375.6 343.72 378.033C343.332 384.927 343.737 391.989 343.72 398.907C338.06 398.924 329.997 397.899 325.177 398.183C323.618 398.319 322.022 398.692 320.463 398.907C320.491 392.752 320.141 386.502 320.463 380.363C320.643 376.328 315.249 376.064 312.526 375.388C305.38 373.616 296.405 367.157 292.763 366.601C289.112 366.044 279.315 377.961 276.285 380.363C273.334 377.487 269.37 374.381 267.431 370.735C264.757 368.506 262.466 366.064 260.087 363.528C268.027 350.332 277.908 353.569 269.57 339.854C266.627 335.014 264.314 329.66 263.555 324.018C262.349 316.205 248.807 318.121 242.17 318.536C243.279 318.407 244.449 318.509 245.565 318.536C245.654 313.609 245.573 308.67 245.565 303.743C252.851 303.659 260.144 303.732 267.431 303.743C269.359 288.116 273.375 284.229 279.15 271.816L279.279 271.531C278.159 270.163 274.532 265.292 273.023 265.047C270.349 262.572 267.325 260.118 265.188 257.16C268.252 252.276 276.863 243.552 281.546 240.163C282.965 241.347 284.173 242.538 285.238 244.059C285.516 246.506 292.366 250.21 294.794 253.201C307.122 245.135 312.923 242.298 327.797 240.163C327.689 234.111 327.796 228.036 327.797 221.981ZM300.557 340.555C307.421 345.22 314.24 349.673 322.548 351.203C365.373 359.087 393.713 313.638 367.246 275.797C365.295 273.975 363.538 271.945 361.48 270.238C317.759 233.984 260.801 291.539 295.404 335.006C296.714 336.651 299.657 338.985 300.557 340.555ZM367.246 275.797C393.713 313.638 365.373 359.087 322.548 351.203C314.24 349.673 307.421 345.22 300.557 340.555C304.19 347.557 316.248 354.303 323.517 356.682C365.456 370.407 403.918 318.215 375.564 282.975C373.945 280.962 369.966 276.085 367.246 275.797ZM263.555 324.018C264.314 329.66 266.627 335.014 269.57 339.854C277.908 353.569 268.027 350.332 260.087 363.528C262.466 366.064 264.757 368.506 267.431 370.735C268.353 364.524 277.232 357.861 281.546 353.587C274.188 344.655 271.66 336.11 269.018 325.169C267.268 324.557 265.382 324.308 263.555 324.018ZM375.825 248.483L375.703 248.563L375.753 248.862C377.912 250.921 380.261 253.407 382.8 254.978C386.01 251.562 394.665 242.28 398.346 240.163C396.079 238.053 393.957 235.813 391.739 233.655C387.2 237.656 380.474 245.86 375.825 248.483ZM320.463 380.363C320.141 386.502 320.491 392.752 320.463 398.907C322.022 398.692 323.618 398.319 325.177 398.183C335.756 396.358 324.849 383.362 320.463 380.363ZM354.485 236.795L354.111 237.216C356.53 240.487 371.168 247.283 373.97 247.221C368.002 242.593 361.515 239.445 354.485 236.795Z"/>
	<defs>
		<linearGradient id="gradient_3" gradientUnits="userSpaceOnUse" x1="365.72812" y1="335.85287" x2="296.70984" y2="275.18329">
			<stop offset="0" stop-color="#4769E7"/>
			<stop offset="1" stop-color="#1A7EE6"/>
		</linearGradient>
	</defs>
	<path fill="url(#gradient_3)" transform="scale(0.195312 0.195312)" d="M300.557 340.555C299.657 338.985 296.714 336.651 295.404 335.006C260.801 291.539 317.759 233.984 361.48 270.238C363.538 271.945 365.295 273.975 367.246 275.797C393.713 313.638 365.373 359.087 322.548 351.203C314.24 349.673 307.421 345.22 300.557 340.555ZM330.443 268.502C298.116 269.154 282.084 310.161 305.871 332.212C312.892 338.721 322.877 343.131 332.553 342.223C353.011 341.929 368.648 324.613 368.335 304.464C368.03 284.909 350.177 267.549 330.443 268.502Z"/>
</svg>
