<?xml version="1.0" encoding="utf-8" ?>
<svg xmlns="http://www.w3.org/2000/svg" xmlns:xlink="http://www.w3.org/1999/xlink" width="100" height="100">
	<path fill="#49576E" transform="scale(0.195312 0.195312)" d="M331.111 230.781C342.798 229.961 352.63 247.054 337.638 251.578C325.793 252.873 314.347 235.365 331.111 230.781Z"/>
	<path fill="#49576E" transform="scale(0.195312 0.195312)" d="M337.638 96.7834C349.59 95.8262 353.267 113.879 336.311 117.733C325.208 118.426 318.78 101.187 337.638 96.7834Z"/>
	<path fill="#49576E" transform="scale(0.195312 0.195312)" d="M426.826 223.794C442.628 223.037 438.498 243.633 423.189 247.829C406.889 249.212 409.723 228.094 426.826 223.794Z"/>
	<path fill="#49576E" transform="scale(0.195312 0.195312)" d="M446.502 141.294C458.209 140.574 467.542 168.942 453.439 172.4C444.108 174.012 443.576 166.815 441.426 159.88C439.14 152.506 435.723 143.664 446.502 141.294Z"/>
	<path fill="#49576E" transform="scale(0.195312 0.195312)" d="M449.782 182.282C467.897 181.394 458.782 213.294 447.498 216.731C441.592 216.937 436.089 212.748 437.244 206.221C437.855 202.764 439.744 199.589 440.732 196.226C442.703 189.523 441.773 184.504 449.782 182.282Z"/>
	<path fill="#49576E" transform="scale(0.195312 0.195312)" d="M368.197 87.2377C374.318 86.9802 389.883 85.7742 394.034 91.4541C398.931 98.1552 393.538 107.804 383.641 105.737C378.76 105.924 363.197 106.496 360.258 104.461C356.126 101.601 354.715 95.301 357.879 91.2045C360.472 87.8466 364.347 87.7389 368.197 87.2377Z"/>
	<path fill="#49576E" transform="scale(0.195312 0.195312)" d="M364.164 243.839C373.306 243.564 395.64 240.843 396.799 252.016C397.432 258.12 393.584 262.167 387.672 262.464C382.73 262.717 377.722 262.462 372.77 262.475C365.517 262.494 356.384 264.274 354.731 254.496C353.758 248.742 358.935 244.568 364.164 243.839Z"/>
	<path fill="#49576E" transform="scale(0.195312 0.195312)" d="M412.034 97.8171C419.447 97.1327 434.049 111.537 438.55 116.431C445.165 123.623 446.335 131.91 435.687 134.777C426.918 135.036 424.634 127.628 418.562 122.478C412.552 117.382 398.009 112.454 404.861 101.954C406.572 99.3312 409.156 98.4946 412.034 97.8171Z"/>
	<path fill="#F9AC5C" transform="scale(0.195312 0.195312)" d="M380.004 165.807C392.708 173.566 390.668 181.504 377.712 185.646L348.245 185.647C341.139 185.646 327.095 188.01 323.928 179.304C318.036 163.111 342.198 165.796 350.245 165.793L372.371 165.831C374.8 165.852 377.684 166.731 380.004 165.807Z"/>
	<path fill="#F0814B" transform="scale(0.195312 0.195312)" d="M380.004 165.807C375.561 161.688 365.374 153.45 362.884 148.561C358.828 140.594 368.896 131.573 376.26 136.597C380.6 139.558 386.227 145.832 390.211 149.59L405.401 163.91C418.169 175.916 417.544 176.117 404.394 187.685L385.839 204.094C381.504 207.909 376.18 215.397 369.709 215.001C362.634 214.568 358.217 206.289 362.283 200.45C365.538 195.776 373.364 190.271 377.712 185.646C390.668 181.504 392.708 173.566 380.004 165.807Z"/>
	<path fill="#49576E" transform="scale(0.195312 0.195312)" d="M312.015 117.733C318.704 115.207 324.455 123.362 322.426 129.525C321.389 132.674 318.099 135.386 316.151 138.059C302.273 157.107 301.839 184.791 312.694 205.245C317.781 214.83 326.698 220.005 312.015 228.135L309.359 228.914C303.95 227.563 301.576 223.291 298.834 218.786C281.735 190.687 282.048 154.889 300.509 127.439C303.481 123.02 306.048 117.795 312.015 117.733Z"/>
	<path fill="#7BA5AD" transform="scale(0.195312 0.195312)" d="M252.868 89.3631C258.087 89.0532 261.065 93.4399 264.322 96.8273L273.258 106.078C276.283 109.216 280.939 112.386 281.674 117.004C282.809 124.137 272.795 131.2 268.42 135.748C264.889 139.418 261.584 143.732 257.661 146.948C252.266 151.371 244.18 147.07 243.801 140.23C243.492 134.66 248.668 130.568 252.082 126.864L157.497 126.847C150.896 126.841 139.633 124.636 138.126 133.52C137.28 138.509 137.83 149.071 137.843 154.625L137.852 170.849C137.886 177.855 139.147 187.876 129.464 188.913C115.581 190.4 119.247 170.911 119.272 162.626L119.228 143.78C119.223 138.8 118.933 133.671 120.032 128.779C125.506 104.412 150.269 107.881 168.86 107.893L224.509 107.882C232.265 107.878 242.356 108.528 249.838 107.928L250.331 107.886C242.351 101.16 241.145 91.6933 252.868 89.3631Z"/>
	<path fill="#7BA5AD" transform="scale(0.195312 0.195312)" d="M381.498 278.501C388.805 275.814 392.193 284.663 392.246 290.638L392.265 373.535C392.27 377.474 392.603 381.718 391.855 385.589C388.222 404.385 372.448 405.014 357.616 405.013L263.159 405.004C265.993 408.487 270.402 411.271 270.561 416.243C270.79 423.364 263.068 427.731 256.997 423.961C254.213 422.232 252.054 419.365 249.807 417.01L241.492 408.42C229.155 395.884 230.496 395.594 242.849 382.672C246.829 378.509 254.392 367.73 260.217 367.134C265.543 366.589 270.111 370.463 270.334 375.862C270.531 380.62 266.749 383.989 263.836 387.253L355.242 387.267C378.651 387.304 374.249 386.929 374.251 363.166L374.236 293.511C374.231 287.107 372.645 279.014 381.498 278.501Z"/>
	<path fill="#77CFF4" transform="scale(0.195312 0.195312)" d="M175.683 418.38C118.054 430.855 59.9306 384.909 51.7884 326.996C41.978 257.218 100.939 195.155 171.132 205.252C174.92 205.455 178.843 206.295 182.525 207.196C233.637 219.703 266.592 267.856 263.766 319.496C261.298 364.585 229.494 405.068 185.628 416.346C182.462 417.16 178.939 418.192 175.683 418.38ZM175.683 260.07L175.683 260.07C172.875 263.204 163.375 274.92 160.003 275.655L159.602 275.74L158.045 275.74C156.773 280.22 152.508 283.158 149.8 286.738C137.281 303.286 140.361 326.772 153.94 341.594C155.647 343.458 159.751 346.66 160.823 348.674L160.823 348.674C163.097 350.965 170.782 362.992 172.558 366.245C164.677 368.323 156.825 368.292 148.748 368.238L148.748 390.485C145.855 390.277 143.097 390.147 140.205 390.485C143.894 390.92 148.367 390.504 152.148 390.508L163.997 390.515C167.442 390.514 171.2 391.052 174.292 389.246C188.442 387.079 193.376 379.322 202.97 375.559C204.493 376.046 205.67 377.335 207.336 377.479C213.628 378.023 222.117 369.706 214.819 361.163C221.788 352.062 225.779 344.43 227.98 333C241.829 333.155 239.396 331.9 239.385 317.567L239.371 296.573C235.741 291.239 228.799 293.188 223.224 293.262L209.783 293.262C207.505 288.106 204.858 283.328 201.957 278.501C197.447 274.692 194.513 270.349 189.367 266.818C185.016 263.755 180.804 261.564 175.683 260.07ZM214.819 265.763C210.304 269.768 205.893 273.915 201.957 278.501C204.858 283.328 207.505 288.106 209.783 293.262L223.224 293.262C224.476 293.195 225.75 293.253 227.004 293.262C223.772 279.02 219.655 276.738 214.819 265.763ZM177.688 240.023C177.733 242.199 177.742 244.365 177.688 246.54C177.731 251.056 179.074 256.5 175.683 260.07C180.804 261.564 185.016 263.755 189.367 266.818C192.421 262.352 198.266 258.086 201.957 253.756C194.513 247.859 186.828 242.913 177.688 240.023Z"/>
	<path fill="#51B0E2" transform="scale(0.195312 0.195312)" d="M201.957 253.756C209.083 245.604 220.488 245.924 220.476 256.21C220.47 261.199 217.339 262.255 214.819 265.763C210.304 269.768 205.893 273.915 201.957 278.501C197.447 274.692 194.513 270.349 189.367 266.818C192.421 262.352 198.266 258.086 201.957 253.756Z"/>
	<path fill="#447FC0" transform="scale(0.195312 0.195312)" d="M146.03 232.409C156.57 232.412 167.153 232.611 177.688 232.409C177.46 237.103 177.442 241.846 177.688 246.54C177.731 251.056 179.074 256.5 175.683 260.07L175.683 260.07C167.311 254.898 155.212 255.759 146.03 257.703L146.03 232.409Z"/>
	<path fill="#58697E" transform="scale(0.195312 0.195312)" d="M175.683 260.07C180.804 261.564 185.016 263.755 189.367 266.818C194.513 270.349 197.447 274.692 201.957 278.501C204.858 283.328 207.505 288.106 209.783 293.262L223.224 293.262C228.799 293.188 235.741 291.239 239.371 296.573L239.385 317.567C239.396 331.9 241.829 333.155 227.98 333C225.779 344.43 221.788 352.062 214.819 361.163C222.117 369.706 213.628 378.023 207.336 377.479C205.67 377.335 204.493 376.046 202.97 375.559C193.376 379.322 188.442 387.079 174.292 389.246C171.2 391.052 167.442 390.514 163.997 390.515L152.148 390.508C148.367 390.504 143.894 390.92 140.205 390.485C143.097 390.147 145.855 390.277 148.748 390.485L148.748 368.238C156.825 368.292 164.677 368.323 172.558 366.245C170.782 362.992 163.097 350.965 160.823 348.674L160.823 348.674C159.751 346.66 155.647 343.458 153.94 341.594C140.361 326.772 137.281 303.286 149.8 286.738C152.508 283.158 156.773 280.22 158.045 275.74L159.602 275.74L160.003 275.655C163.375 274.92 172.875 263.204 175.683 260.07L175.683 260.07ZM159.602 275.74L158.045 275.74C156.773 280.22 152.508 283.158 149.8 286.738C137.281 303.286 140.361 326.772 153.94 341.594C155.647 343.458 159.751 346.66 160.823 348.674C177.981 348.691 194.193 329.222 194.159 312.226C194.123 293.703 178.833 275.642 159.602 275.74ZM187.814 359.139C184.051 361.907 179.975 363.691 175.683 365.456C175.602 370.771 176.691 385.268 174.292 389.246C188.442 387.079 193.376 379.322 202.97 375.559C199.012 369.851 192.713 364.259 187.814 359.139ZM209.783 333C207.389 338.097 204.622 343.199 200.934 347.492C204.97 352.334 209.99 357.105 214.819 361.163C221.788 352.062 225.779 344.43 227.98 333L209.783 333Z"/>
	<path fill="#51B0E2" transform="scale(0.195312 0.195312)" d="M200.934 347.492C204.97 352.334 209.99 357.105 214.819 361.163C222.117 369.706 213.628 378.023 207.336 377.479C205.67 377.335 204.493 376.046 202.97 375.559C199.012 369.851 192.713 364.259 187.814 359.139C191.855 355.129 195.939 352.83 200.934 347.492Z"/>
	<path fill="#51B0E2" transform="scale(0.195312 0.195312)" d="M175.683 418.38C118.054 430.855 59.9306 384.909 51.7884 326.996C41.978 257.218 100.939 195.155 171.132 205.252C168.857 207.004 165.72 207.791 163.085 208.9C145.795 216.179 128.246 231.708 115.284 244.884C113.338 246.861 110.702 249.198 109.307 251.578C114.346 257.038 120.31 261.704 125.064 266.818C127.483 264.124 131.402 261.975 134.765 260.738C134.645 251.301 134.762 241.848 134.765 232.409L146.03 232.409L146.03 257.703C155.212 255.759 167.311 254.898 175.683 260.07C172.875 263.204 163.375 274.92 160.003 275.655L159.602 275.74L158.045 275.74C156.773 280.22 152.508 283.158 149.8 286.738C137.281 303.286 140.361 326.772 153.94 341.594C155.647 343.458 159.751 346.66 160.823 348.674L160.823 348.674C163.097 350.965 170.782 362.992 172.558 366.245C164.677 368.323 156.825 368.292 148.748 368.238L148.748 390.485C145.855 390.277 143.097 390.147 140.205 390.485C130.301 390 134.095 372.205 134.116 364.434C130.988 362.84 128.038 360.997 125.064 359.139C119.021 363.96 113.653 369.988 108.29 375.559C122.831 394.106 144.509 407.25 166.611 414.717C168.288 415.283 175.082 417.076 175.683 418.38Z"/>
	<path fill="#447FC0" transform="scale(0.195312 0.195312)" d="M90.3372 257.703C92.205 254.911 99.7522 246.368 102.499 246.367C104.86 246.365 107.732 249.952 109.307 251.578C114.346 257.038 120.31 261.704 125.064 266.818C119.908 270.14 115.393 274.378 112.287 279.724C107.699 276.132 103.574 271.844 99.4001 267.785C96.3902 264.8 92.244 261.498 90.3372 257.703Z"/>
	<path fill="#49576E" transform="scale(0.195312 0.195312)" d="M134.765 232.409L146.03 232.409L146.03 257.703C155.212 255.759 167.311 254.898 175.683 260.07C172.875 263.204 163.375 274.92 160.003 275.655L159.602 275.74L158.045 275.74C156.773 280.22 152.508 283.158 149.8 286.738C137.281 303.286 140.361 326.772 153.94 341.594C155.647 343.458 159.751 346.66 160.823 348.674L160.823 348.674C163.097 350.965 170.782 362.992 172.558 366.245C164.677 368.323 156.825 368.292 148.748 368.238L148.748 390.485C145.855 390.277 143.097 390.147 140.205 390.485C130.301 390 134.095 372.205 134.116 364.434C130.988 362.84 128.038 360.997 125.064 359.139C119.021 363.96 113.653 369.988 108.29 375.559C101.076 382.034 91.9348 378.934 92.1193 369.901C92.1988 366.013 95.2158 363.655 97.7739 361.163C93.5029 355.679 86.7921 339.648 87.4269 331.87C83.5017 331.702 79.5231 331.851 75.5924 331.87L75.5924 293.262L87.4269 293.262C88.0549 286.282 95.1882 273.525 99.4001 267.785C103.574 271.844 107.699 276.132 112.287 279.724C115.393 274.378 119.908 270.14 125.064 266.818C127.483 264.124 131.402 261.975 134.765 260.738C134.645 251.301 134.762 241.848 134.765 232.409Z"/>
	<path fill="#77CFF4" transform="scale(0.195312 0.195312)" d="M99.4001 267.785C103.574 271.844 107.699 276.132 112.287 279.724C108.871 283.765 106.881 288.249 105.289 293.262L87.4269 293.262C88.0549 286.282 95.1882 273.525 99.4001 267.785Z"/>
	<path fill="#77CFF4" transform="scale(0.195312 0.195312)" d="M87.4269 331.87C93.3756 331.856 99.3421 331.754 105.289 331.87C107.099 336.788 109.229 341.568 112.287 345.857C107.516 351.019 102.473 355.942 97.7739 361.163C93.5029 355.679 86.7921 339.648 87.4269 331.87Z"/>
	<path fill="#447FC0" transform="scale(0.195312 0.195312)" d="M112.287 345.857C117.172 351.936 120.846 354.301 125.064 359.139C119.021 363.96 113.653 369.988 108.29 375.559C101.076 382.034 91.9348 378.934 92.1193 369.901C92.1988 366.013 95.2158 363.655 97.7739 361.163C102.473 355.942 107.516 351.019 112.287 345.857Z"/>
	<path fill="#D0DCE2" transform="scale(0.195312 0.195312)" d="M160.823 348.674C139.57 349.638 122.016 334.061 121.913 312.512C121.818 292.425 137.847 275.686 158.045 275.74C156.773 280.22 152.508 283.158 149.8 286.738C137.281 303.286 140.361 326.772 153.94 341.594C155.647 343.458 159.751 346.66 160.823 348.674L160.823 348.674Z"/>
</svg>
