<?xml version="1.0" encoding="utf-8" ?>
<svg xmlns="http://www.w3.org/2000/svg" xmlns:xlink="http://www.w3.org/1999/xlink" width="100" height="100">
	<path fill="#4CA1FA" transform="scale(0.195312 0.195312)" d="M207.268 223.366C184.917 195.176 188.246 153.883 217.102 131.414C244.122 110.373 285.477 114.861 306.507 142.252C324.699 165.946 325.731 200.592 305.7 223.366C309.192 223.029 325.609 222.875 328.768 223.366C342.864 224.092 342.363 233.326 342.299 244.63L342.295 296.96C342.296 302.423 342.726 308.028 342.289 313.472L376.281 313.472L403.914 313.458C422.33 313.46 422.023 310.038 421.998 329.101L421.979 427.336C417.63 427.787 412.872 427.333 408.469 427.331L376.281 427.336C374.655 427.555 372.789 427.369 371.14 427.361L361.443 427.343C354.365 427.335 346.982 427.846 339.938 427.336L295.264 427.336C290.979 427.198 286.641 427.333 282.35 427.336L254.792 427.336C243.931 427.099 233.029 427.402 222.16 427.336C220.875 427.437 219.5 427.343 218.207 427.336L168.989 427.336C166.291 427.585 163.396 427.37 160.675 427.36L90.7789 427.336L90.7675 330.229C90.7664 326.128 90.5148 321.838 90.8591 317.76C91.368 311.732 98.3122 313.455 102.618 313.462L168.989 313.472L168.994 259.123C168.995 251.635 167.518 234.225 171.434 228.906C176.16 222.487 184.943 224.369 191.891 223.366C195.408 222.574 203.888 222.673 207.268 223.366ZM305.7 223.366C325.731 200.592 324.699 165.946 306.507 142.252C285.477 114.861 244.122 110.373 217.102 131.414C188.246 153.883 184.917 195.176 207.268 223.366C235.643 254.677 276.553 253.084 305.7 223.366ZM259.222 320.723C285.297 315.34 280.265 277.523 253.515 280.319C226.196 284.657 233.494 325.778 259.222 320.723Z"/>
	<path fill="#F75B59" transform="scale(0.195312 0.195312)" d="M207.268 223.366C184.917 195.176 188.246 153.883 217.102 131.414C244.122 110.373 285.477 114.861 306.507 142.252C324.699 165.946 325.731 200.592 305.7 223.366C276.553 253.084 235.643 254.677 207.268 223.366ZM239.356 189.744C241.897 189.917 244.405 189.833 246.947 189.744C246.926 192.158 246.886 194.574 246.947 196.988C246.708 203.402 245.535 208.372 253.515 208.248C268.474 208.331 264.848 205.942 264.751 189.744C281.249 189.593 281.324 193.434 281.73 177.86C281.246 172.118 276.808 172.692 272.187 172.756L264.751 172.756C264.774 169.294 264.831 165.827 264.751 162.366C264.594 160.444 264.519 158.477 263.961 156.622C260.715 154.639 250.333 152.957 247.746 157.093C246.133 159.671 246.976 169.351 246.947 172.756C233.628 172.691 228.976 169.472 229.821 184.98C230.17 191.396 234.514 189.745 239.356 189.744Z"/>
	<path fill="#EF2F31" transform="scale(0.195312 0.195312)" d="M281.73 177.86C292.135 172.103 291.445 194.613 287.117 196.38C283.926 197.684 275.972 197.012 272.187 196.988C272.194 202.354 273.827 211.275 268.736 214.778C262.83 214.854 254.315 216.179 253.515 208.248C268.474 208.331 264.848 205.942 264.751 189.744C281.249 189.593 281.324 193.434 281.73 177.86Z"/>
	<path fill="#EF2F31" transform="scale(0.195312 0.195312)" d="M264.751 162.366C265.471 158.715 269.974 160.342 271.405 162.807C273.018 165.587 272.225 169.663 272.187 172.756L264.751 172.756C264.774 169.294 264.831 165.827 264.751 162.366Z"/>
	<path fill="#EF2F31" transform="scale(0.195312 0.195312)" d="M239.356 189.744C241.897 189.917 244.405 189.833 246.947 189.744C246.926 192.158 246.886 194.574 246.947 196.988C244.422 196.869 241.885 197.044 239.356 196.988C236.757 194.967 235.689 192.841 234.824 189.744C236.327 189.897 237.869 190.069 239.356 189.744Z"/>
	<path fill="#3D6BEC" transform="scale(0.195312 0.195312)" d="M342.289 313.472L376.281 313.472L403.914 313.458C422.33 313.46 422.023 310.038 421.998 329.101L421.979 427.336C417.63 427.787 412.872 427.333 408.469 427.331L376.281 427.336C374.655 427.555 372.789 427.369 371.14 427.361L361.443 427.343C354.365 427.335 346.982 427.846 339.938 427.336C344.213 427.252 342.292 424.072 342.289 419.2L342.278 326.017C342.265 321.853 342.09 317.631 342.289 313.472Z"/>
	<path fill="#264CD9" transform="scale(0.195312 0.195312)" d="M342.289 313.472L376.281 313.472C376.29 324.362 376.431 335.275 376.281 346.162C370.469 346.178 364.61 346.352 358.803 346.162C358.959 361.394 358.801 376.644 358.803 391.877L362.888 391.877C367.225 392.333 371.901 391.842 376.281 391.877C375.992 403.669 376.281 415.536 376.281 427.336C374.655 427.555 372.789 427.369 371.14 427.361L361.443 427.343C354.365 427.335 346.982 427.846 339.938 427.336C344.213 427.252 342.292 424.072 342.289 419.2L342.278 326.017C342.265 321.853 342.09 317.631 342.289 313.472Z"/>
	<path fill="#D9E4ED" transform="scale(0.195312 0.195312)" d="M376.281 346.162C385.838 346.172 395.541 346.55 405.083 346.162L405.083 391.877L376.239 391.863C371.874 391.861 367.208 391.484 362.888 391.877L358.803 391.877C358.801 376.644 358.959 361.394 358.803 346.162C364.61 346.352 370.469 346.178 376.281 346.162Z"/>
	<path fill="#3D6BEC" transform="scale(0.195312 0.195312)" d="M90.7789 427.336L90.7675 330.229C90.7664 326.128 90.5148 321.838 90.8591 317.76C91.368 311.732 98.3122 313.455 102.618 313.462L168.989 313.472L168.989 427.336C166.291 427.585 163.396 427.37 160.675 427.36L90.7789 427.336Z"/>
	<path fill="#D9E4ED" transform="scale(0.195312 0.195312)" d="M106.528 346.162C122.171 346.165 137.871 345.867 153.506 346.162L153.506 389.569L106.528 389.569L106.528 346.162Z"/>
	<path fill="#C0B9C2" transform="scale(0.195312 0.195312)" d="M254.792 340.465L295.264 340.465L295.264 427.336C290.979 427.198 286.641 427.333 282.35 427.336L254.792 427.336L254.789 369.504C254.79 359.828 254.939 350.138 254.792 340.465Z"/>
	<path fill="#D9E4ED" transform="scale(0.195312 0.195312)" d="M218.207 340.465L254.792 340.465C254.939 350.138 254.79 359.828 254.789 369.504L254.792 427.336C243.931 427.099 233.029 427.402 222.16 427.336C220.875 427.437 219.5 427.343 218.207 427.336C217.814 420.973 218.198 414.326 218.199 407.933L218.207 367.69C218.026 364.752 218.196 361.689 218.198 358.74L218.207 340.465Z"/>
	<path fill="#8DC9FB" transform="scale(0.195312 0.195312)" d="M191.891 223.366C195.408 222.574 203.888 222.673 207.268 223.366C235.643 254.677 276.553 253.084 305.7 223.366C309.192 223.029 325.609 222.875 328.768 223.366C325.181 223.661 321.5 223.337 317.896 223.366C312.959 235.957 296.319 247.798 284.383 253.008C252.18 267.064 217.896 255.393 196.253 229.178C194.871 227.504 192.757 225.31 191.891 223.366Z"/>
	<path fill="#264CD9" transform="scale(0.195312 0.195312)" d="M261.892 291.515C264.958 291.298 268.088 293.995 266.977 297.26C266.292 299.273 253.4 309.511 251.004 310.756C248.031 311.238 244.881 307.878 245.787 304.925C246.5 302.602 259.22 293.045 261.892 291.515Z"/>
	<path fill="#404A91" transform="scale(0.195312 0.195312)" d="M90.7789 427.336L160.675 427.36C163.396 427.37 166.291 427.585 168.989 427.336L218.207 427.336C219.5 427.343 220.875 427.437 222.16 427.336C233.029 427.402 243.931 427.099 254.792 427.336L282.35 427.336C286.641 427.333 290.979 427.198 295.264 427.336L339.938 427.336C346.982 427.846 354.365 427.335 361.443 427.343L371.14 427.361C372.789 427.369 374.655 427.555 376.281 427.336L408.469 427.331C412.872 427.333 417.63 427.787 421.979 427.336C426.595 427.26 434.112 426.389 438.077 428.58C440.602 432.283 439.402 435.107 436.517 438.24C432.546 438.648 426.516 438.23 422.348 438.231L100.129 438.24C93.1561 438.248 75.8669 440.545 71.4606 435.459C69.1381 423.952 83.3666 427.287 90.7789 427.336Z"/>
	<path fill="#8DC9FB" transform="scale(0.195312 0.195312)" d="M120.27 227.086C123.092 227.108 130.052 227.514 128.026 232.177C125.427 238.157 93.2444 232.399 84.004 265.498C82.9677 269.21 83.2429 273.3 81.6379 276.85C80.3459 278.01 78.639 279.024 76.9582 277.98C70.1536 273.752 79.848 253.583 82.9657 249.014C92.3902 235.203 104.031 230.142 120.27 227.086Z"/>
	<path fill="#8DC9FB" transform="scale(0.195312 0.195312)" d="M384.242 227.086C407.789 226.897 425.621 236.471 434.377 259.617C435.926 263.71 438.403 272.702 436.517 276.85C429.441 282.149 429.076 272.895 428.486 269.075C425.017 246.63 406.124 234.586 384.242 234.765L384.242 227.086Z"/>
	<path fill="#8DC9FB" transform="scale(0.195312 0.195312)" d="M384.242 246.007L384.796 245.909C405.082 242.38 424.756 266.476 417.287 276.85C405.549 285.531 415.449 252.24 384.242 254.069L384.242 246.007Z"/>
	<path fill="#8DC9FB" transform="scale(0.195312 0.195312)" d="M121.198 246.007C127.681 244.804 130.514 249.924 125.555 254.069C115.379 253.79 105.189 259.239 102.438 269.721C101.68 272.61 102.065 275.535 100.231 278.097C97.1057 279.203 94.303 277.723 93.8101 274.407C91.6298 259.737 107.754 247.862 121.198 246.007Z"/>
	<path fill="#FE9A94" transform="scale(0.195312 0.195312)" d="M157.889 125.77C162.883 125.499 168.703 130.021 173.055 132.163C178.413 134.799 188.07 137.331 189.527 143.283C188.746 145.675 187.741 147.635 185.767 149.257C181.959 148.909 178.43 146.007 175.107 144.295C170.338 141.838 144.495 133.203 157.889 125.77Z"/>
	<path fill="#FE9A94" transform="scale(0.195312 0.195312)" d="M254.792 67.7775C256.969 67.6766 259.155 68.0211 260.469 70.0116C261.619 71.7544 261.498 97.3755 260.731 100.217C260.26 101.964 258.665 102.948 257.185 103.76C254.819 103.847 252.151 102.586 251.417 100.179C250.29 96.4797 250.058 73.3957 252.242 69.2831C253.055 68.7232 253.932 68.2604 254.792 67.7775Z"/>
	<path fill="#FE9A94" transform="scale(0.195312 0.195312)" d="M200.041 86.077C205.226 86.0461 208.445 95.1894 210.644 98.9223C214.587 105.617 222.707 113.526 213.215 118.239C207.799 117.281 205.142 109.39 202.696 105.205C199.273 99.3483 189.293 88.4935 200.041 86.077Z"/>
	<path fill="#FE9A94" transform="scale(0.195312 0.195312)" d="M313.156 86.077C324.564 86.2061 310.787 104.123 308.955 107.267C306.523 111.44 305.184 117.379 299.791 118.239C290.194 115.729 298.321 106.067 301.142 101.343C303.843 96.8194 307.601 87.2112 313.156 86.077Z"/>
	<path fill="#FE9A94" transform="scale(0.195312 0.195312)" d="M351.15 127.081C354.525 127.198 357.486 130.362 355.752 133.799C354.203 136.87 333.862 147.825 329.555 149.257C325.83 149.743 322.932 144.159 325.349 141.387C327.38 139.056 347.057 127.571 351.15 127.081Z"/>
	<path fill="#FE9A94" transform="scale(0.195312 0.195312)" d="M149.713 179.751C153.449 179.607 173.806 179.304 175.811 180.218C180.878 182.529 178.473 188.617 173.975 189.744C169.592 189.751 149.988 190.387 147.392 189.027C141.894 186.149 144.249 180.827 149.713 179.751Z"/>
	<path fill="#FE9A94" transform="scale(0.195312 0.195312)" d="M338.682 179.241C345.617 178.458 356.504 179.242 363.873 179.241C368.532 182.05 367.995 187.863 362.888 189.478C358.928 189.461 339.583 190.096 337.415 188.816C333.639 186.587 333.982 179.921 338.682 179.241Z"/>
	<path fill="#8DC9FB" transform="scale(0.195312 0.195312)" d="M123.624 264.323C128.741 264.184 131.451 270.835 122.335 273.145C120.625 275.141 120.219 277.09 117.518 278.097C109.134 279.709 111.422 266.288 123.624 264.323Z"/>
	<path fill="#8DC9FB" transform="scale(0.195312 0.195312)" d="M385.99 264.323C391.892 263.787 405.072 272.32 397.37 278.097C393.586 279.182 379.037 267.24 385.99 264.323Z"/>
</svg>
