<?xml version="1.0" encoding="utf-8" ?>
<svg xmlns="http://www.w3.org/2000/svg" xmlns:xlink="http://www.w3.org/1999/xlink" width="100" height="100">
	<path fill="#333795" transform="scale(0.195312 0.195312)" d="M101.77 321.564C105.539 322.093 106.702 326.177 108.58 328.993C118.062 343.212 129.477 356.373 141.989 367.975C145.612 371.335 165.289 384.208 154.169 387.115C143.817 385.784 108.522 342.482 102.807 333.646C100.144 329.528 94.5148 323.986 101.77 321.564Z"/>
	<path fill="#333795" transform="scale(0.195312 0.195312)" d="M302.486 95.4789C306.266 95.3046 310.545 97.8354 314 99.1483C337.612 108.121 358.677 121.707 376.247 139.959C379.996 143.853 390.592 151.781 383.285 156.082C379.37 156.461 374.998 149.538 372.72 146.99C357.593 130.078 336.319 115.973 315.291 107.501C311.905 106.137 291.58 101.56 302.486 95.4789Z"/>
	<path fill="#333795" transform="scale(0.195312 0.195312)" d="M408.082 319.738C410.727 319.717 411.915 321.211 412.811 323.603C406.106 340.016 388.519 358.989 376.167 371.063C379.769 371.23 393.767 369.986 395.871 372.242C405.152 382.195 371.081 378.539 370.244 378.502C358.055 377.676 362.284 369.722 362.576 358.75C362.659 355.622 361.686 347.436 366.482 347.149C372.629 346.78 370.113 362.469 370.244 366.016C382.228 355.17 393.15 342.278 401.569 328.429C403.485 325.279 404.681 321.539 408.082 319.738Z"/>
	<path fill="#333795" transform="scale(0.195312 0.195312)" d="M185.1 84.2475C189.406 84.2256 192.713 88.8481 195.778 91.3447C201.344 95.8797 212.305 100.484 208.766 107.939C207.433 110.747 195.99 136.16 190.932 126.71C189.326 123.71 197.411 113.829 198.797 109.06C178.603 119.037 166.41 122.999 147.932 139.388C144.373 142.284 132.59 156.934 129.719 156.121C121.155 153.697 135.925 140.489 138.147 138.378C151.173 126 165.101 115.783 181.543 108.307C186.642 105.989 192.122 104.498 197.173 102.105L197.475 101.959C193.07 98.5506 176.155 89.0159 185.1 84.2475Z"/>
	<path fill="#333795" transform="scale(0.195312 0.195312)" d="M386.542 168.463C390.272 168.419 398.964 167.748 402.155 169.535C404.694 170.957 404.732 176.106 401.379 176.459C398.426 176.77 395.089 176.085 392.112 175.977C351.117 174.491 321.474 215.562 332.323 254.469C341.523 287.463 376.614 307.867 409.771 298.46C447.084 287.875 466.533 247.346 451.598 211.417C450.018 207.618 445.561 200.916 452.46 200.091L452.772 200.056C458.315 201.728 462.295 218.854 463.171 224.143C473.627 287.293 403.233 332.45 351.085 294.355C321.305 272.6 312.866 227.004 335.409 197.072C349.45 178.428 364.523 171.549 386.542 168.463Z"/>
	<path fill="#333795" transform="scale(0.195312 0.195312)" d="M126.56 304.995C129.702 312.075 120.089 311.461 115.903 311.375C57.919 310.193 28.0548 240.468 64.1035 195.09C103.438 145.576 182.667 171.211 189.533 232.93C190.023 237.335 192.131 247.585 185.398 247.781L185.1 247.786C180.366 244.897 182.243 239.531 181.849 234.117C180.987 222.247 176.101 210.169 168.644 200.931C167.882 201.426 160.31 194.739 158.603 193.657C135.466 178.985 104.519 178.948 83.736 197.839C79.416 200.313 77.6316 202.663 75.2368 206.911C58.7795 227.601 58.9301 257.8 72.3299 280.073C74.3083 283.362 76.8123 286.381 78.7031 289.695C85.9384 297.708 103.8 303.376 114.091 303.906C117.839 304.099 123.221 303.208 126.56 304.995ZM78.7031 289.695C76.8123 286.381 74.3083 283.362 72.3299 280.073C58.9301 257.8 58.7795 227.601 75.2368 206.911C77.6316 202.663 79.416 200.313 83.736 197.839C104.519 178.948 135.466 178.985 158.603 193.657C160.31 194.739 167.882 201.426 168.644 200.931C147.343 173.632 107.163 168.252 79.9034 189.974C51.1302 212.902 47.8551 253.64 70.7813 281.943C72.9991 284.681 75.678 287.812 78.7031 289.695Z"/>
	<path fill="#FD938F" transform="scale(0.195312 0.195312)" d="M83.736 197.839C104.519 178.948 135.466 178.985 158.603 193.657C160.31 194.739 167.882 201.426 168.644 200.931C176.101 210.169 180.987 222.247 181.849 234.117C182.243 239.531 180.366 244.897 185.1 247.786C182.243 265.016 172.266 282.654 158.005 292.917C150.612 298.237 135.874 305.232 126.56 304.995C123.221 303.208 117.839 304.099 114.091 303.906C103.8 303.376 85.9384 297.708 78.7031 289.695C76.8123 286.381 74.3083 283.362 72.3299 280.073C58.9301 257.8 58.7795 227.601 75.2368 206.911C75.5169 211.842 75.2454 216.948 75.2422 221.897L75.2292 252.165C75.2284 257.432 74.7448 263.28 75.4893 268.474C77.4904 282.431 89.7226 280.755 99.8442 280.762L140.143 280.76C159.561 280.745 161.726 276.715 161.667 258.032L161.675 221.158C161.71 198.149 157.633 196.506 135.754 196.501L115.008 196.504C102.901 196.507 95.9678 195.639 83.9625 197.8L83.736 197.839Z"/>
	<path fill="#333795" transform="scale(0.195312 0.195312)" d="M83.736 197.839L83.9625 197.8C95.9678 195.639 102.901 196.507 115.008 196.504L135.754 196.501C157.633 196.506 161.71 198.149 161.675 221.158L161.667 258.032C161.726 276.715 159.561 280.745 140.143 280.76L99.8442 280.762C89.7226 280.755 77.4904 282.431 75.4893 268.474C74.7448 263.28 75.2284 257.432 75.2292 252.165L75.2422 221.897C75.2454 216.948 75.5169 211.842 75.2368 206.911C77.6316 202.663 79.416 200.313 83.736 197.839ZM82.4475 261.219L82.5651 261.288C84.0189 261.099 104.236 239.116 107.23 235.998C110.516 239.266 114.019 242.318 117.3 245.599C123.595 238.174 134.465 227.46 141.727 220.793L154.169 232.599C154.325 228.406 154.16 224.211 154.154 220.016C154.133 206.833 155.196 203.845 140.881 203.861L128.85 203.867C116.443 203.875 103.99 203.623 91.5914 203.794C80.1912 203.95 82.4374 215.075 82.4344 223.057L82.4614 247.174C82.4905 251.833 82.8281 256.573 82.4475 261.219Z"/>
	<path fill="#44C9F9" transform="scale(0.195312 0.195312)" d="M141.727 220.793L154.169 232.599L154.163 255.76C154.245 278.369 151.123 273.504 130.001 273.51C118.021 273.513 106.008 273.695 94.0312 273.485C84.6428 273.32 80.9119 271.523 82.4475 261.219L82.5651 261.288C84.0189 261.099 104.236 239.116 107.23 235.998C110.516 239.266 114.019 242.318 117.3 245.599C123.595 238.174 134.465 227.46 141.727 220.793Z"/>
	<path fill="#44C9F9" transform="scale(0.195312 0.195312)" d="M402.917 185.451C407.87 180.57 426.44 183.233 433.586 183.04C443.192 182.78 445.064 181.605 444.313 193.12C443.966 198.459 442.778 206.327 443.767 211.378L443.847 211.77C444.783 216.233 446.618 220.438 447.532 224.945C451.684 245.396 444.696 266.579 428.511 279.678C427.791 283.01 426.322 283.762 422.938 283.412C410.698 292.138 394.992 294.532 380.408 291.37C375.883 290.389 366.066 287.456 363.482 283.412C359.663 284.32 357.655 283.643 356.961 279.678C340.42 264.278 333.379 241.612 341.047 219.69C350.667 192.19 375.782 181.778 402.917 185.451ZM402.917 185.451C400.975 190.83 405.082 192.761 408.082 196.506C402.232 203.238 393.289 209.862 388.507 217.077L388.286 216.78C386.264 214.092 375.518 202.782 372.703 202.081C368.111 202.979 353.652 218.07 354.109 220.828C357.423 227.111 372.17 239.463 377.87 245.314C391.821 259.636 387.712 256.452 402.031 242.144C410.49 233.691 419.032 225.218 427.79 217.077C430.014 219.367 437.578 230.073 441.225 225.743C443.317 223.26 442.416 215.349 443.767 211.378C442.778 206.327 443.966 198.459 444.313 193.12C445.064 181.605 443.192 182.78 433.586 183.04C426.44 183.233 407.87 180.57 402.917 185.451Z"/>
	<path fill="#333795" transform="scale(0.195312 0.195312)" d="M356.961 279.678C357.039 275.722 356.143 242.494 357.749 240.869C360.23 238.361 364.162 239.5 364.534 242.987C364.791 245.399 364.596 247.964 364.571 250.392L364.522 262.491C364.514 266.81 365.554 280.363 363.482 283.412C359.663 284.32 357.655 283.643 356.961 279.678Z"/>
	<path fill="#333795" transform="scale(0.195312 0.195312)" d="M422.938 283.412C419.472 279.52 421.087 268.977 421.082 263.832C421.077 259.155 419.996 237.564 421.844 234.557C423.603 231.695 427.901 233.124 428.427 236.148C428.963 239.232 428.537 242.82 428.531 245.963L428.504 268.465C428.495 272.197 428.126 275.955 428.511 279.678C427.791 283.01 426.322 283.762 422.938 283.412Z"/>
	<path fill="#333795" transform="scale(0.195312 0.195312)" d="M402.917 185.451C407.87 180.57 426.44 183.233 433.586 183.04C443.192 182.78 445.064 181.605 444.313 193.12C443.966 198.459 442.778 206.327 443.767 211.378C442.416 215.349 443.317 223.26 441.225 225.743C437.578 230.073 430.014 219.367 427.79 217.077C419.032 225.218 410.49 233.691 402.031 242.144C387.712 256.452 391.821 259.636 377.87 245.314C372.17 239.463 357.423 227.111 354.109 220.828C353.652 218.07 368.111 202.979 372.703 202.081C375.518 202.782 386.264 214.092 388.286 216.78L388.507 217.077C393.289 209.862 402.232 203.238 408.082 196.506C405.082 192.761 400.975 190.83 402.917 185.451ZM422.938 190.019C419.535 190.234 416.217 190.288 412.811 190.019C420.256 198.625 417.319 197.682 409.941 205.037C406.28 208.687 391.009 227.649 386.811 225.008C382.16 222.081 377.013 215.185 372.333 211.378C369.241 214.258 365.83 217.265 363.482 220.793C368.139 224.299 372.726 229.752 376.93 233.927L388.507 245.599C392.586 241.117 424.604 208.135 427.738 208.209C430.386 208.272 433.641 212.857 435.441 214.644C435.95 206.447 436.919 198.225 437.131 190.019C432.401 190.017 427.667 189.969 422.938 190.019Z"/>
	<path fill="#333795" transform="scale(0.195312 0.195312)" d="M255.906 56.7838C265.665 56.3072 274.22 69.4894 280.725 76.29C284.069 79.7857 290.148 83.6784 290.222 89.0787C290.37 99.8897 276.586 97.736 269.765 97.7353C269.883 104.443 269.778 111.174 269.765 117.884C278.537 125.343 286.211 134.534 294.209 142.798C302.687 151.558 312.513 157.529 314.282 170.392C316.476 186.342 302.431 195.446 292.548 205.377L280.011 218.148C273.026 225.233 269.191 229.402 258.837 230.711C243.283 230.894 233.501 215.599 223.278 205.38L211.344 193.513C201.094 183.348 195.408 172.174 204.62 157.939C208.298 152.254 227.026 134.791 232.5 129.35C236.574 125.302 241.077 121.521 244.722 117.081C244.761 110.639 244.347 104.166 244.722 97.7353C240.363 97.7638 232.529 98.5946 228.748 96.6429C224.692 94.5491 222.393 88.9606 224.759 84.8142C227.374 80.2315 248.489 58.5611 255.906 56.7838ZM274.403 172.438C273.578 164.69 272.114 162.012 266.242 156.863C252.885 150.084 236.51 161.919 241.939 177.082C247.728 193.249 271.265 191.507 274.403 172.438ZM244.722 127.965C236.744 134.684 229.588 142.93 222.295 150.374C218.376 154.373 213.433 158.27 210.256 162.889C205.639 169.602 206.854 179.399 213.167 184.527C213.437 182.044 212.468 179.316 213.022 176.064C214.508 167.357 223.626 160.713 229.493 154.869C234.356 150.024 239.088 144.568 244.722 140.625C244.831 136.406 244.714 132.185 244.722 127.965ZM251.926 92.3078C252.181 95.9674 251.956 99.7041 251.936 103.375L251.947 139.177C251.954 141.955 252.186 144.907 251.926 147.666C253.7 147.286 255.461 147.188 257.268 147.082L257.273 115.039C257.272 108.881 257.491 102.629 257.105 96.4844C256.787 91.4177 256.616 91.8175 251.926 92.3078ZM239.218 90.2389C243.503 84.2529 255.839 74.2237 261.763 67.3133C259.893 64.5234 257.834 62.7189 254.821 64.9767C251.748 67.2794 231.942 86.5964 230.936 88.9655C231.673 90.5522 237.555 89.9992 239.218 90.2389ZM279.939 90.2389C283.291 90.0563 283.74 89.3622 281.333 86.9974C280.331 87.8354 280.036 88.982 279.939 90.2389Z"/>
	<path fill="#FED246" transform="scale(0.195312 0.195312)" d="M261.763 67.3133C267.418 73.2115 276.629 80.8045 281.333 86.9974C280.331 87.8354 280.036 88.982 279.939 90.2389C258.813 90.61 262.426 86.4725 262.433 109.243L262.447 134.204C262.451 138.488 262.585 142.803 262.442 147.082C260.675 146.956 259.032 146.881 257.268 147.082L257.273 115.039C257.272 108.881 257.491 102.629 257.105 96.4844C256.787 91.4177 256.616 91.8175 251.926 92.3078C251.028 91.4246 250.162 90.8562 249.078 90.2389C245.769 89.8724 242.532 90.0673 239.218 90.2389C243.503 84.2529 255.839 74.2237 261.763 67.3133Z"/>
	<path fill="#44C9F9" transform="scale(0.195312 0.195312)" d="M257.268 164.52C262.606 164.333 261.818 170.887 257.691 172.438C252.494 171.681 252.172 165.932 257.268 164.52Z"/>
	<path fill="#5FD5D0" transform="scale(0.195312 0.195312)" d="M266.242 156.863C271.052 153.452 269.798 148.947 269.796 143.63L269.765 127.965C274.064 131.513 277.735 136.116 281.676 140.085L294.745 153.153C317.315 175.801 306.033 180.985 286.898 200.517L275.628 212.231C261.57 226.879 255.336 227.193 240.818 212.476C235.163 206.744 215.986 189.032 213.167 184.527C213.437 182.044 212.468 179.316 213.022 176.064C214.508 167.357 223.626 160.713 229.493 154.869C234.356 150.024 239.088 144.568 244.722 140.625C244.87 144.059 244.71 147.507 244.722 150.944C215.237 174.437 249.338 209.95 273.316 189.852C277.976 185.946 286.913 173.364 278.322 169.125C276.628 169.996 275.577 170.948 274.403 172.438C273.578 164.69 272.114 162.012 266.242 156.863Z"/>
	<path fill="#333795" transform="scale(0.195312 0.195312)" d="M243.014 252.247C247.262 252.017 251.622 252.259 255.882 252.248C278.618 252.186 274.552 255.088 278.322 275.554C283.899 277.607 289.248 279.436 294.3 282.635C299.363 277.983 309.014 268.67 316.369 273.998C319.706 276.414 331.142 288.707 333.312 292.22C338.375 300.415 326.907 308.25 322.961 314.057L322.746 314.378C326.226 319.351 328.749 325.408 330.519 331.175C335.766 330.859 351.621 331.708 353.636 338.126C354.906 342.175 356.268 366.671 351.344 369.718C347.513 372.09 335.668 374.343 330.519 375.963C328.78 381.279 326.629 386.129 324.129 391.124C333.971 406.062 343.707 405.171 328.824 420.538L320.895 428.856C310.98 439.246 302.365 431.528 293.107 422.436C288.339 424.925 283.415 427.518 278.322 429.269C278.152 432.118 277.479 435.032 277.076 437.87C275.781 446.998 276.179 454.387 264.765 454.009L251.84 454.041C237.659 454.203 236.194 454.896 233.976 441.002C233.353 437.103 232.453 433.217 232.242 429.269C227.507 427.498 223.006 425.528 218.459 423.316C212.917 426.288 200.931 437.416 194.523 433.064C189.905 429.929 173.628 413.797 174.107 408.416C174.463 404.416 183.89 393.666 187.082 391.124C184.763 386.186 182.912 380.657 180.21 375.963C172.542 372.915 158.181 375.738 156.595 365.027C156.055 361.384 156.085 342.855 156.803 339.448C158.628 330.78 173.108 332.195 180.21 331.175C182.281 324.937 184.374 318.775 188.106 313.295C184.249 309.478 171.354 299.502 175.351 292.964C176.84 290.528 191.531 275.302 194.314 273.195C201.4 267.831 210.683 278.311 216.649 282.635C221.792 280.123 227.041 277.935 232.242 275.554C235.046 266.794 232.252 255.658 243.014 252.247ZM202.062 367.155C201.966 374.789 209.512 386.091 214.662 391.334C230.963 407.928 255.813 414.604 277.495 405.376C304.203 392.472 317.366 363.037 306.72 334.794C289.068 287.963 224.545 287.56 204.861 331.766C200.246 342.13 197.849 356.316 202.062 367.155ZM202.062 367.155C199.747 367.82 197.787 369.353 195.449 369.931C192.993 370.539 189.152 369.797 187.082 371.063C188.073 377.013 191.961 385.997 195.284 391.124C191.844 397.735 184.926 402.567 182.18 409.495C183.781 411.379 185.401 413.229 187.082 415.043L198.797 427.123C204.01 422.806 212.414 417.386 218.459 414.259C223.867 418.876 232.492 421.158 239.218 423.316C240.399 430.865 240.876 438.833 242.93 446.185L243.014 446.478L268.543 446.478C269.206 438.87 269.789 430.787 271.342 423.316C275.269 422.232 279.007 420.834 282.779 419.307C281.886 416.026 278.835 409.432 277.495 405.376C255.813 414.604 230.963 407.928 214.662 391.334C209.512 386.091 201.966 374.789 202.062 367.155ZM243.014 259.545C241.585 266.781 241.072 274.483 239.218 281.596C235.982 283.303 219.06 290.312 215.46 291.573C212.53 289.591 209.856 287.062 206.81 285.291C209.473 288.696 217.229 295.976 220.562 298.991C225.516 295.282 230.495 292.301 236.52 290.671C239.121 289.967 243.389 290.171 244.722 287.443C248.64 282.229 247.773 273.263 249.012 266.859L249.078 266.531C257.847 266.343 260 266.722 268.543 265.224C268.231 263.323 267.932 261.423 267.495 259.545C259.348 259.75 251.148 259.194 243.014 259.545ZM196.321 311.356C197.965 314.607 194.626 317.015 193.141 319.751C189.996 325.548 187.864 331.326 186.342 337.732C178.914 339.127 171.089 339.106 163.757 340.845L163.757 366.016C165.891 365.89 167.939 365.85 170.069 366.016C169.506 360.135 170.173 353.533 170.069 347.535C177.69 346.682 185.379 345.339 192.898 343.826C194.735 335.072 198.015 325.019 203.925 318.095C201.537 315.658 199.302 313.078 196.321 311.356ZM294.3 291.573C286.553 286.922 282.986 285.843 274.403 282.635C274.948 283.302 275.473 283.994 276.108 284.578C282.615 288.977 288.268 295.003 295.549 298.217C303.575 296.052 308.57 287.969 315.93 284.578C314.55 282.516 313.396 280.945 311.215 279.678C304.87 282.135 300.169 288.202 294.3 291.573ZM198.797 279.678C193.951 282.959 185.942 291.988 182.18 296.743C184.735 299.117 187.15 301.68 189.749 303.995C189.341 298.853 200.215 287.617 204.711 283.412C202.782 282.037 200.917 280.752 198.797 279.678Z"/>
	<path fill="#FED246" transform="scale(0.195312 0.195312)" d="M249.078 266.531C257.847 266.343 260 266.722 268.543 265.224C269.61 270.636 270.865 276.096 271.342 281.596C272.357 281.965 273.364 282.341 274.403 282.635C274.948 283.302 275.473 283.994 276.108 284.578C274.682 286.7 275.053 290.769 272.91 292.155C268.851 293.169 260.308 289.864 255.78 289.285C252.366 288.848 247.151 290.279 244.722 287.443C248.64 282.229 247.773 273.263 249.012 266.859L249.078 266.531Z"/>
	<path fill="#FED246" transform="scale(0.195312 0.195312)" d="M202.062 367.155C201.966 374.789 209.512 386.091 214.662 391.334C230.963 407.928 255.813 414.604 277.495 405.376C278.835 409.432 281.886 416.026 282.779 419.307C279.007 420.834 275.269 422.232 271.342 423.316C269.789 430.787 269.206 438.87 268.543 446.478L243.014 446.478L242.93 446.185C240.876 438.833 240.399 430.865 239.218 423.316C232.492 421.158 223.867 418.876 218.459 414.259C212.414 417.386 204.01 422.806 198.797 427.123L187.082 415.043C185.401 413.229 183.781 411.379 182.18 409.495C184.926 402.567 191.844 397.735 195.284 391.124C191.961 385.997 188.073 377.013 187.082 371.063C189.152 369.797 192.993 370.539 195.449 369.931C197.787 369.353 199.747 367.82 202.062 367.155ZM195.284 391.124C191.844 397.735 184.926 402.567 182.18 409.495C183.781 411.379 185.401 413.229 187.082 415.043C188.227 412.254 199.241 398.583 202.062 394.37C200.016 391.242 199.221 387.283 195.284 391.124Z"/>
	<defs>
		<linearGradient id="gradient_0" gradientUnits="userSpaceOnUse" x1="174.07364" y1="330.0166" x2="346.20184" y2="361.39264">
			<stop offset="0" stop-color="#FFDA04"/>
			<stop offset="1" stop-color="#FEA94A"/>
		</linearGradient>
	</defs>
	<path fill="url(#gradient_0)" transform="scale(0.195312 0.195312)" d="M204.711 283.412C205.403 283.995 206.258 284.579 206.81 285.291C209.473 288.696 217.229 295.976 220.562 298.991C225.516 295.282 230.495 292.301 236.52 290.671C239.121 289.967 243.389 290.171 244.722 287.443C247.151 290.279 252.366 288.848 255.78 289.285C260.308 289.864 268.851 293.169 272.91 292.155C275.053 290.769 274.682 286.7 276.108 284.578C282.615 288.977 288.268 295.003 295.549 298.217C303.575 296.052 308.57 287.969 315.93 284.578C319.204 287.182 325.04 293.327 327.336 296.743C324.834 301.816 317.584 308.323 313.972 313.295C315.747 317.765 318.474 321.911 320.533 326.27C322.126 329.644 322.676 335.6 326.533 337.161C329.317 338.287 343.364 340.519 346.927 340.845C346.917 348.324 346.433 356.173 346.927 363.607C343.058 364.604 326.743 367.669 325.144 370.52L324.901 370.947C321.368 377.255 318.957 385.802 314.837 393.358C320.134 397.962 324.617 403.986 328.925 409.495C323.961 415.061 317.788 421.837 312.559 427.123C305.74 423.825 299.598 418.237 294.3 412.904C290.4 414.828 286.666 417.292 282.779 419.307C281.886 416.026 278.835 409.432 277.495 405.376C304.203 392.472 317.366 363.037 306.72 334.794C289.068 287.963 224.545 287.56 204.861 331.766C200.246 342.13 197.849 356.316 202.062 367.155C199.747 367.82 197.787 369.353 195.449 369.931C192.993 370.539 189.152 369.797 187.082 371.063L186.342 368.374C180.89 367.926 175.455 366.951 170.069 366.016C169.506 360.135 170.173 353.533 170.069 347.535C177.69 346.682 185.379 345.339 192.898 343.826C194.735 335.072 198.015 325.019 203.925 318.095C201.537 315.658 199.302 313.078 196.321 311.356C194.826 310.206 191.101 305.645 189.749 303.995C189.341 298.853 200.215 287.617 204.711 283.412Z"/>
	<path fill="#333795" transform="scale(0.195312 0.195312)" d="M202.062 367.155C197.849 356.316 200.246 342.13 204.861 331.766C224.545 287.56 289.068 287.963 306.72 334.794C317.366 363.037 304.203 392.472 277.495 405.376C255.813 414.604 230.963 407.928 214.662 391.334C209.512 386.091 201.966 374.789 202.062 367.155ZM222.568 388.376C225.952 381.142 231.241 377.742 237.863 373.729C205.742 351.7 236.235 302.761 269.277 320.32C277.966 324.938 282.77 332.935 285.528 342.1C291.558 347.092 296.984 352.783 302.486 358.342C304.888 345.599 297.217 328.671 288.25 319.918C269.273 301.396 238.989 302.392 220.762 321.411C202.871 340.079 203.754 370.808 222.568 388.376ZM235.996 360.797C235.867 345.644 244.94 330.021 261.941 331.816C270.046 332.672 272.934 336.383 277.495 342.1C270.623 320.684 243.968 318.793 234.436 337.8C231.08 344.49 230.807 354.809 235.996 360.797ZM228.523 393.358C230.928 394.889 233.355 396.131 235.996 397.197C235.587 387.879 262.82 388.439 264.765 378.905C250.254 378.199 235.381 378.356 228.523 393.358Z"/>
	<path fill="#C4EEF8" transform="scale(0.195312 0.195312)" d="M264.765 378.905C273.693 380.819 279.305 385.035 282.779 393.358C267.806 402.252 252.673 405.456 235.996 397.197C235.587 387.879 262.82 388.439 264.765 378.905Z"/>
	<path fill="#ADD0FC" transform="scale(0.195312 0.195312)" d="M285.528 342.1C291.558 347.092 296.984 352.783 302.486 358.342C301.048 371.046 297.242 378.673 289.153 388.376C284.629 379.926 280.428 375.794 271.342 372.539C282.995 364.471 286.127 356.571 285.528 342.1Z"/>
	<path fill="#FED246" transform="scale(0.195312 0.195312)" d="M235.996 360.797C235.867 345.644 244.94 330.021 261.941 331.816C270.046 332.672 272.934 336.383 277.495 342.1C284.038 369.817 243.292 379.841 235.996 360.797Z"/>
</svg>
