<svg width="504" height="323" viewBox="0 0 504 323" fill="none" xmlns="http://www.w3.org/2000/svg">
<path d="M47.0889 93.3942C47.0889 93.3942 33.2355 71.7352 0 77.3519C0 77.3519 22.3743 108.729 47.0889 93.3942Z" fill="#3F9896"/>
<path d="M68.7252 99.1188C68.7252 99.1188 64.5983 55.7029 8.68066 40.6416C8.68066 40.6416 18.2258 105.185 68.7252 99.1188Z" fill="#7FC6A6"/>
<path d="M356.192 69.1373L355.566 69.0603L355.607 68.7647C355.757 67.6798 355.94 66.5802 356.152 65.4965L356.209 65.2033L356.829 65.3117L356.772 65.6049C356.562 66.6784 356.38 67.7676 356.232 68.8419L356.192 69.1373ZM357.418 62.6904L356.805 62.5507L356.879 62.261C357.155 61.1811 357.463 60.1068 357.796 59.0683L357.887 58.7831L358.491 58.9561L358.399 59.2413C358.07 60.2689 357.765 61.3321 357.492 62.4009L357.418 62.6904ZM399.927 59.309C399.927 59.309 399.926 59.309 399.925 59.309C399.409 59.309 398.877 59.2619 398.343 59.1693L398.033 59.1154L398.147 58.5289L398.457 58.5828C398.953 58.6691 399.447 58.7127 399.925 58.7127C399.926 58.7127 399.927 58.7127 399.927 58.7127C400.556 58.7127 401.174 58.6371 401.764 58.4882L402.069 58.4115L402.231 58.9875L401.927 59.0643C401.284 59.2266 400.61 59.309 399.927 59.309ZM395.244 58.1469L394.983 57.9801C394.004 57.3551 393.299 56.4164 392.888 55.191L392.792 54.9069L393.393 54.7263L393.489 55.0103C393.856 56.105 394.477 56.9377 395.336 57.4859L395.597 57.6528L395.244 58.1469ZM404.847 57.6532L404.436 57.2014L404.675 57.0068C405.48 56.3506 406.191 55.5212 406.787 54.5413L406.944 54.2831L407.491 54.5807L407.334 54.8392C406.702 55.877 405.946 56.7584 405.086 57.4588L404.847 57.6532ZM359.395 56.4201L358.804 56.2116L358.914 55.9323C359.329 54.8818 359.778 53.8521 360.251 52.8718L360.381 52.6004L360.955 52.8476L360.825 53.119C360.358 54.0866 359.914 55.1034 359.505 56.1407L359.395 56.4201ZM393.123 52.1633L392.494 52.1269L392.513 51.8292C392.58 50.7839 392.793 49.6753 393.144 48.5342L393.233 48.2481L393.838 48.415L393.75 48.7011C393.411 49.7998 393.207 50.8643 393.142 51.8657L393.123 52.1633ZM408.606 52.0255L407.998 51.8652L408.083 51.578C408.384 50.5585 408.571 49.4894 408.64 48.4009L408.659 48.1033L409.288 48.1388L409.269 48.4362C409.198 49.5671 409.004 50.6778 408.69 51.738L408.606 52.0255ZM362.221 50.4607L361.669 50.1723L361.821 49.9114C362.395 48.9299 363.009 47.9779 363.646 47.0813L363.822 46.8339L364.345 47.1664L364.17 47.4138C363.543 48.2961 362.938 49.2334 362.373 50.1997L362.221 50.4607ZM394.846 45.9498L394.277 45.6922L394.414 45.4233C394.907 44.4495 395.491 43.476 396.15 42.5294L396.323 42.2804L396.85 42.6082L396.677 42.8572C396.033 43.7814 395.463 44.7313 394.982 45.6809L394.846 45.9498ZM408.538 45.4772L408.491 45.1822C408.425 44.763 408.34 44.3459 408.238 43.9423C408.077 43.304 407.862 42.6817 407.596 42.0926L407.473 41.8182L408.053 41.5846L408.176 41.859C408.455 42.4787 408.683 43.1333 408.851 43.8042C408.957 44.2239 409.046 44.6578 409.115 45.0937L409.162 45.3884L408.538 45.4772ZM366.026 45.0292L365.539 44.6503L365.739 44.4201C366.49 43.5577 367.286 42.7338 368.107 41.9715L368.332 41.7625L368.774 42.1879L368.549 42.3968C367.744 43.1446 366.962 43.9527 366.226 44.7988L366.026 45.0292ZM398.537 40.4839L398.055 40.0986L398.259 39.8712C399.005 39.0382 399.819 38.2279 400.676 37.4623L400.906 37.2577L401.338 37.6914L401.109 37.896C400.268 38.6464 399.471 39.4404 398.74 40.2566L398.537 40.4839ZM370.887 40.4359L370.499 39.9658L370.748 39.7824C371.671 39.1013 372.644 38.4671 373.638 37.8974L373.908 37.743L374.234 38.253L373.965 38.4074C372.991 38.9646 372.039 39.5855 371.136 40.2523L370.887 40.4359ZM406.045 39.5957L405.845 39.3655C405.146 38.5613 404.312 37.8275 403.366 37.1846L403.111 37.0106L403.479 36.5266L403.735 36.7004C404.724 37.3736 405.598 38.1428 406.332 38.9868L406.532 39.217L406.045 39.5957ZM376.72 37.0142L376.457 36.4721L376.743 36.3478C377.803 35.889 378.899 35.4741 380 35.1149L380.298 35.0175L380.504 35.5814L380.206 35.6785C379.123 36.0314 378.047 36.439 377.006 36.8897L376.72 37.0142ZM403.485 35.9705L403.103 35.4963L403.353 35.3154C404.272 34.6533 405.245 34.0223 406.247 33.4399L406.515 33.2835L406.846 33.7914L406.577 33.9476C405.594 34.5196 404.638 35.1395 403.736 35.7896L403.485 35.9705ZM400.689 35.7233L400.4 35.6045C399.393 35.1898 398.302 34.8453 397.156 34.5807L396.85 34.5098L396.999 33.9308L397.306 34.0015C398.486 34.2742 399.612 34.6298 400.652 35.0578L400.941 35.1769L400.689 35.7233ZM383.209 34.8376L383.063 34.2577L383.37 34.1886C384.514 33.9313 385.675 33.728 386.821 33.5845L387.134 33.5454L387.217 34.1364L386.904 34.1755C385.779 34.3163 384.639 34.516 383.516 34.7686L383.209 34.8376ZM394.087 34.0705L393.773 34.0411C392.66 33.9367 391.505 33.8967 390.337 33.922L390.022 33.9288L390.007 33.3326L390.322 33.3258C391.513 33.2993 392.697 33.341 393.835 33.4476L394.149 33.477L394.087 34.0705ZM409.312 32.5139L409.043 31.9745L409.328 31.8475C410.367 31.3851 411.467 30.9738 412.598 30.6252L412.897 30.5329L413.093 31.0996L412.793 31.192C411.687 31.5329 410.612 31.9349 409.597 32.3869L409.312 32.5139ZM440.359 31.9109L440.055 31.831C438.948 31.5395 437.818 31.271 436.697 31.0329L436.389 30.9677L436.527 30.3857L436.834 30.4512C437.966 30.6913 439.107 30.9625 440.224 31.2565L440.528 31.3364L440.359 31.9109ZM433.61 30.4489L433.3 30.3989C432.149 30.2139 430.996 30.0603 429.873 29.9414L429.56 29.9084L429.63 29.316L429.943 29.3491C431.078 29.4688 432.243 29.6243 433.406 29.811L433.716 29.8611L433.61 30.4489ZM415.812 30.4202L415.684 29.8364L415.992 29.7757C417.106 29.5571 418.273 29.3844 419.458 29.2626L419.772 29.2305L419.84 29.823L419.527 29.8554C418.361 29.9754 417.215 30.1451 416.121 30.3597L415.812 30.4202ZM426.741 29.6945L426.426 29.6804C425.259 29.6282 424.115 29.6146 422.97 29.6411L422.655 29.6485L422.64 29.0525L422.955 29.0451C424.113 29.0175 425.274 29.0315 426.456 29.0847L426.77 29.0987L426.741 29.6945Z" fill="#3F9896"/>
<path d="M451.052 42.0031L454.659 39.0012C454.659 39.0012 470.424 39.3484 470.655 39.2719C470.887 39.1954 479.406 36.4018 479.406 36.4018L469.443 34.5967L452.718 34.7796L451.052 42.0031Z" fill="#FF424D"/>
<path d="M450.061 26.7295L479.406 36.4121L452.718 34.79L450.061 26.7295Z" fill="#FD7583"/>
<path d="M454.661 39.0125L457.432 47.5878L479.408 36.4131L454.661 39.0125Z" fill="#FD7583"/>
<path d="M319.542 78.2337C316.529 76.6447 313.309 75.5619 310.012 74.9851L308.127 67.3379L302.456 67.5894L296.784 67.8406L295.664 75.6209C292.439 76.4867 289.34 77.8496 286.497 79.6982L279.444 75.5505L275.622 79.5207L271.8 83.4909L276.826 89.7424C275.146 92.592 274.001 95.6373 273.391 98.7546L265.304 100.537L265.57 105.9L265.835 111.263L274.063 112.323C274.979 115.373 276.42 118.303 278.375 120.992L273.989 127.66L278.187 131.275L282.385 134.889L288.996 130.136C292.01 131.725 295.23 132.808 298.527 133.385L300.412 141.032L306.083 140.781L311.755 140.53L312.875 132.749C316.1 131.884 319.199 130.52 322.043 128.672L329.095 132.82L332.917 128.849L336.74 124.879L331.713 118.628C333.394 115.778 334.539 112.733 335.149 109.615L343.235 107.833L342.97 102.47L342.704 97.1067L334.476 96.0474C333.561 92.9976 332.119 90.067 330.165 87.3787L334.551 80.7099L330.352 77.0954L326.154 73.4808L319.542 78.2337ZM320.02 117.746C312.1 125.972 298.628 126.569 289.929 119.08C281.23 111.59 280.599 98.8505 288.519 90.6245C296.439 82.3987 309.911 81.8016 318.61 89.2909C327.309 96.7803 327.94 109.52 320.02 117.746Z" fill="#7FC6A6"/>
<path d="M276.234 28.5512C274.428 27.397 272.463 26.5509 270.421 26.0195L269.671 21.1097L266.087 20.9782L262.503 20.8467L261.353 25.6867C259.273 26.0668 257.245 26.7664 255.35 27.7845L251.148 24.8135L248.515 27.117L245.882 29.4206L248.689 33.6124C247.468 35.3202 246.574 37.1785 246.012 39.1095L240.82 39.8182L240.681 43.2076L240.542 46.5969L245.66 47.6843C246.062 49.6508 246.802 51.5689 247.878 53.3609L244.736 57.3343L247.172 59.8239L249.608 62.3135L254.041 59.6596C255.847 60.8137 257.812 61.6598 259.854 62.1913L260.604 67.101L264.188 67.2325L267.772 67.3641L268.922 62.524C271.001 62.144 273.03 61.4443 274.925 60.4262L279.127 63.3973L281.76 61.0937L284.393 58.7902L281.586 54.5984C282.807 52.8906 283.701 51.0322 284.263 49.1013L289.455 48.3925L289.594 45.0032L289.734 41.6138L284.615 40.5264C284.213 38.5599 283.473 36.6418 282.397 34.8496L285.539 30.8762L283.103 28.3866L280.667 25.897L276.234 28.5512ZM274.277 53.4458C268.821 58.2186 260.307 57.9063 255.26 52.7477C250.213 47.5892 250.543 39.5382 255.998 34.7652C261.454 29.9921 269.968 30.3047 275.015 35.4632C280.062 40.6217 279.732 48.6728 274.277 53.4458Z" fill="#F7AB48"/>
<path d="M84.748 23.4255C93.0123 23.0131 121.334 21.8836 140.7 24.5987C143.212 24.9509 144.812 22.1038 143.075 20.3526C142.058 19.3283 140.325 18.494 137.408 18.3011C137.408 18.3011 138.413 1.20404 124.756 0.0716169C109.092 -1.22718 108.903 15.5698 108.903 15.5698C108.903 15.5698 101.784 9.1788 96.6489 17.2814C96.6489 17.2814 87.7754 12.4317 83.2993 21.3892C82.811 22.3662 83.6069 23.4825 84.748 23.4255Z" fill="white"/>
<path d="M501.93 158.58C496.317 158.276 483.16 157.746 471.722 158.658C466.99 159.036 462.905 155.461 463.011 150.971C463.054 149.134 463.751 146.996 465.555 144.574C472.5 135.247 484.571 144.154 484.455 148.889C484.455 148.889 486.896 141.76 494.308 143.008C501.72 144.256 499.099 154.624 499.099 154.624C499.099 154.624 501.491 154.146 503.149 155.216C504.78 156.269 503.901 158.687 501.93 158.58Z" fill="white"/>
<path d="M68.6792 310.884V123.762C68.6792 114.871 75.2115 107.664 83.2692 107.664H412.089C420.147 107.664 426.679 114.871 426.679 123.762V310.884H68.6792Z" fill="#4CB7D8"/>
<path d="M77.0615 300.823V131.684C77.0615 119.548 80.623 118.375 85.0165 118.375H410.347C414.74 118.375 418.302 121.626 418.302 125.636V300.823H77.0615Z" fill="#DCF4FF"/>
<path d="M76.6304 279.014L77.4856 278.206V125.633C77.4856 121.852 80.8623 118.777 85.0127 118.777V117.968C80.3905 117.968 76.6304 121.406 76.6304 125.633V279.014Z" fill="#21111D"/>
<path d="M418.592 300.808H417.99V125.621C417.99 121.774 414.557 118.645 410.336 118.645H85.0063V118.076H410.336C414.889 118.076 418.592 121.461 418.592 125.621V300.808Z" fill="#21111D"/>
<path d="M447.313 310.876H34.1284V321.623H447.313V310.876Z" fill="#128CB2"/>
<path d="M149.509 41.3945V179.898H40.4312V64.1861L63.9154 41.3945H149.509Z" fill="white"/>
<path d="M40.4312 64.2294L63.778 41.3945V64.2294H40.4312Z" fill="#3AA1C9"/>
<path d="M74.4163 58.6161H122.003C122.686 58.6161 123.239 58.0927 123.239 57.4472C123.239 56.8016 122.686 56.2783 122.003 56.2783H74.4163C73.7336 56.2783 73.1802 56.8016 73.1802 57.4472C73.1804 58.093 73.7338 58.6161 74.4163 58.6161Z" fill="#3AA1C9"/>
<path d="M67.9304 67.6903H128.495C129.178 67.6903 129.731 67.167 129.731 66.5214C129.731 65.8759 129.178 65.3525 128.495 65.3525H67.9304C67.2477 65.3525 66.6943 65.8759 66.6943 66.5214C66.6943 67.1672 67.2477 67.6903 67.9304 67.6903Z" fill="#3AA1C9"/>
<path d="M51.8611 89.3026H139.618C140.301 89.3026 140.854 88.7793 140.854 88.1337C140.854 87.4882 140.301 86.9648 139.618 86.9648H51.8611C51.1784 86.9648 50.625 87.4882 50.625 88.1337C50.6252 88.7793 51.1787 89.3026 51.8611 89.3026Z" fill="#3AA1C9"/>
<path d="M51.8601 99.5487H139.617C140.3 99.5487 140.853 99.0254 140.853 98.3798C140.853 97.7343 140.3 97.2109 139.617 97.2109H51.8601C51.1774 97.2109 50.624 97.7343 50.624 98.3798C50.6243 99.0254 51.1777 99.5487 51.8601 99.5487Z" fill="#3AA1C9"/>
<path d="M51.8606 109.764H139.618C140.3 109.764 140.854 109.241 140.854 108.596C140.854 107.95 140.3 107.427 139.618 107.427H51.8606C51.1779 107.427 50.6245 107.95 50.6245 108.596C50.6248 109.241 51.1782 109.764 51.8606 109.764Z" fill="#3AA1C9"/>
<path d="M51.8567 121.438H139.614C140.296 121.438 140.85 120.915 140.85 120.269C140.85 119.624 140.296 119.101 139.614 119.101H51.8567C51.174 119.101 50.6206 119.624 50.6206 120.269C50.6208 120.915 51.1743 121.438 51.8567 121.438Z" fill="#3AA1C9"/>
<path d="M51.8581 131.661H139.615C140.298 131.661 140.851 131.138 140.851 130.492C140.851 129.847 140.298 129.323 139.615 129.323H51.8581C51.1755 129.323 50.6221 129.847 50.6221 130.492C50.6223 131.138 51.1757 131.661 51.8581 131.661Z" fill="#3AA1C9"/>
<path d="M51.8591 166.741H139.616C140.299 166.741 140.852 166.218 140.852 165.572C140.852 164.927 140.299 164.403 139.616 164.403H51.8591C51.1765 164.403 50.623 164.927 50.623 165.572C50.6233 166.218 51.1767 166.741 51.8591 166.741Z" fill="#3AA1C9"/>
<path d="M51.8601 158.378H139.617C140.3 158.378 140.853 157.854 140.853 157.209C140.853 156.563 140.3 156.04 139.617 156.04H51.8601C51.1774 156.04 50.624 156.563 50.624 157.209C50.6243 157.854 51.1777 158.378 51.8601 158.378Z" fill="#3AA1C9"/>
<path d="M373.508 133.94H177.479V278.485H373.508V133.94Z" fill="white"/>
<path d="M365.401 141.913H210.13V149.272H365.401V141.913Z" fill="#D4EEF4"/>
<path d="M365.398 160.881H186.021V186.507H365.398V160.881Z" fill="#D4EEF4"/>
<path d="M365.399 185.669H186.021V270.318H365.399V185.669Z" fill="#DEF8FC"/>
<path d="M205.751 146.466C206.245 144.488 204.95 142.506 202.858 142.039C200.767 141.572 198.671 142.797 198.177 144.775C197.684 146.752 198.979 148.734 201.07 149.201C203.161 149.668 205.257 148.443 205.751 146.466Z" fill="#D4EEF4"/>
<path d="M191.41 148.993C193.395 148.216 194.338 146.063 193.516 144.186C192.693 142.308 190.417 141.417 188.431 142.194C186.446 142.972 185.503 145.125 186.326 147.002C187.148 148.88 189.424 149.771 191.41 148.993Z" fill="#D4EEF4"/>
<path d="M331.598 166.789H191.501V169.317H331.598V166.789Z" fill="white"/>
<path d="M331.599 174.949H191.502V177.478H331.599V174.949Z" fill="white"/>
<path d="M248.295 194.485H358.992C359.674 194.485 360.228 193.962 360.228 193.316C360.228 192.671 359.674 192.147 358.992 192.147H248.295C247.613 192.147 247.059 192.671 247.059 193.316C247.059 193.962 247.613 194.485 248.295 194.485Z" fill="#D4EEF4"/>
<path d="M248.296 201.587H358.992C359.675 201.587 360.228 201.063 360.228 200.418C360.228 199.772 359.675 199.249 358.992 199.249H248.296C247.613 199.249 247.06 199.772 247.06 200.418C247.06 201.063 247.613 201.587 248.296 201.587Z" fill="#D4EEF4"/>
<path d="M248.298 208.691H358.995C359.677 208.691 360.231 208.168 360.231 207.522C360.231 206.877 359.677 206.354 358.995 206.354H248.298C247.615 206.354 247.062 206.877 247.062 207.522C247.062 208.168 247.615 208.691 248.298 208.691Z" fill="#D4EEF4"/>
<path d="M248.296 222.9H358.992C359.675 222.9 360.228 222.377 360.228 221.731C360.228 221.086 359.675 220.562 358.992 220.562H248.296C247.613 220.562 247.06 221.086 247.06 221.731C247.06 222.377 247.613 222.9 248.296 222.9Z" fill="#D4EEF4"/>
<path d="M248.299 229.995H358.995C359.678 229.995 360.231 229.472 360.231 228.826C360.231 228.181 359.678 227.657 358.995 227.657H248.299C247.616 227.657 247.062 228.181 247.062 228.826C247.062 229.472 247.616 229.995 248.299 229.995Z" fill="#D4EEF4"/>
<path d="M248.296 237.096H358.992C359.675 237.096 360.228 236.572 360.228 235.927C360.228 235.281 359.675 234.758 358.992 234.758H248.296C247.613 234.758 247.06 235.281 247.06 235.927C247.06 236.572 247.613 237.096 248.296 237.096Z" fill="#D4EEF4"/>
<path d="M248.296 251.298H358.993C359.675 251.298 360.229 250.774 360.229 250.129C360.229 249.483 359.675 248.96 358.993 248.96H248.296C247.613 248.96 247.06 249.483 247.06 250.129C247.06 250.774 247.613 251.298 248.296 251.298Z" fill="#D4EEF4"/>
<path d="M248.298 258.399H358.995C359.677 258.399 360.231 257.876 360.231 257.23C360.231 256.585 359.677 256.062 358.995 256.062H248.298C247.615 256.062 247.062 256.585 247.062 257.23C247.062 257.876 247.615 258.399 248.298 258.399Z" fill="#D4EEF4"/>
<path d="M239.893 192.147H192.746V232.136H239.893V192.147Z" fill="#D4EEF4"/>
<path d="M239.898 242.639H192.751V258.406H239.898V242.639Z" fill="#D4EEF4"/>
<path d="M196.047 222.903L204.068 210.364L215.921 215.144L223.853 199.262L235.795 222.903H196.047Z" fill="#D4EEF4"/>
<path d="M211.523 206.093C213.366 205.372 214.241 203.374 213.477 201.631C212.714 199.889 210.601 199.061 208.759 199.783C206.916 200.505 206.041 202.503 206.804 204.245C207.567 205.988 209.68 206.815 211.523 206.093Z" fill="#D4EEF4"/>
<path d="M358.19 300.527H119.049V301.096H358.19V300.527Z" fill="#21111D"/>
<path d="M423.887 165.069L430.323 160.665L430.746 160.376L437.182 155.972L495.19 221.646C496.822 223.493 496.456 226.261 494.394 227.671L478.014 238.879C475.952 240.29 473.058 239.753 471.713 237.71L423.887 165.069Z" fill="#FF424D"/>
<path d="M424.02 167.2L439.416 156.665C440.432 155.97 440.659 154.628 439.925 153.668L434.524 146.61L415.45 159.661L420.851 166.719C421.585 167.679 423.004 167.894 424.02 167.2Z" fill="#F99247"/>
<path d="M428.096 164.859L438.478 157.755C440.311 156.501 440.724 154.071 439.397 152.338L434.842 146.385L434.208 146.819L438.763 152.772C439.836 154.174 439.503 156.141 438.02 157.155L427.637 164.259L428.096 164.859Z" fill="#21111D"/>
<path d="M429.984 148.403C446.787 132.514 446.787 106.752 429.984 90.8622C413.18 74.9726 385.937 74.9726 369.134 90.8622C352.331 106.752 352.331 132.514 369.134 148.403C385.937 164.293 413.18 164.293 429.984 148.403Z" fill="#D4EEF4"/>
<path d="M380.609 116.14C382.023 107.806 379.757 100.532 375.548 99.8934C371.339 99.2549 366.78 105.493 365.367 113.828C363.953 122.162 366.219 129.436 370.428 130.074C374.637 130.713 379.195 124.474 380.609 116.14Z" fill="#F3FFFE"/>
<path d="M438.564 157.207L437.964 157.683L495.663 222.757L496.263 222.282L438.564 157.207Z" fill="#21111D"/>
<path d="M405.662 84.8661L405.883 84.1563C405.789 84.13 396.367 81.5741 387.757 85.1554L388.072 85.8328C396.414 82.3629 405.57 84.8408 405.662 84.8661Z" fill="#21111D"/>
<path d="M406.501 89.9276L406.722 89.2178C406.628 89.1915 397.206 86.6356 388.596 90.2169L388.911 90.8944C397.253 87.4244 406.409 89.9023 406.501 89.9276Z" fill="#21111D"/>
<path d="M424.79 152.593C405.538 165.766 378.638 161.686 364.708 143.481C350.778 125.275 355.092 99.8378 374.344 86.6649C393.597 73.492 420.497 77.572 434.427 95.7776C448.357 113.983 444.043 139.42 424.79 152.593ZM439.97 91.9844C423.825 70.8836 392.647 66.1549 370.333 81.4227C348.019 96.6904 343.019 126.173 359.164 147.274C375.31 168.375 406.487 173.103 428.801 157.835C451.116 142.568 456.116 113.085 439.97 91.9844Z" fill="#FECC86"/>
<path d="M429.02 158.134C451.473 142.771 456.523 112.998 440.277 91.7658C424.03 70.5332 392.546 65.7582 370.093 81.121C359.567 88.3232 352.476 98.9415 350.126 111.02L350.896 111.154C353.209 99.2638 360.19 88.8105 370.552 81.7206C392.655 66.597 423.649 71.2979 439.642 92.1997C455.636 113.101 450.665 142.41 428.561 157.534C418.302 164.554 405.739 167.57 393.187 166.027L393.086 166.761C405.836 168.328 418.598 165.264 429.02 158.134Z" fill="#21111D"/>
<path d="M173.044 77.4141L176.074 78.6531L179.445 80.1642C179.445 80.1642 184.679 81.0234 184.754 81.0074C184.765 81.0051 184.319 81.7439 184.319 81.7439C190.813 82.5015 211.281 83.2964 214.642 83.6511C216.668 83.865 218.614 86.2465 219.841 88.105L218.178 89.1695C218.178 89.1695 200.303 88.4242 200.339 88.7791C200.35 88.8911 200.855 90.5691 201.638 92.7644C190.598 93.4623 175.137 93.3953 172.266 89.0933C169.911 85.5638 172.207 80.4979 173.044 77.4141Z" fill="#FE9F73"/>
<path d="M242.499 153.292L228.916 153.467L228.721 141.46L242.251 139.876L242.499 153.292Z" fill="#FE9F73"/>
<path d="M255.55 157.768L228.021 154.598L228.689 149.406C228.689 149.406 231.012 147.144 233.898 148.767C233.898 148.767 238.017 152.35 242.553 149.158L252.218 154.433C252.218 154.433 255.778 156.002 255.55 157.768Z" fill="#3AA1C9"/>
<path d="M227.788 156.404L256.231 159.679C256.387 159.697 256.529 159.592 256.547 159.445L256.713 158.161C256.732 158.014 256.621 157.88 256.465 157.862L228.022 154.587L227.788 156.404Z" fill="#472A31"/>
<path d="M245.43 150.681C244.332 151.926 242.128 154.428 240.726 156.02L238.849 155.804C240.102 154.382 242.728 151.401 244.034 149.919L245.43 150.681Z" fill="#D7E4F7"/>
<path d="M243.733 156.384L241.856 156.168C242.875 155.01 244.862 152.754 246.269 151.157L247.665 151.919C246.483 153.261 244.845 155.12 243.733 156.384Z" fill="#D7E4F7"/>
<path d="M200.247 110.456C200.247 110.456 188.555 110.637 180.36 110.372C177.729 110.287 175.388 110.462 174.002 110.171C168.298 108.973 166.893 92.1368 173.37 81.8216C179.847 71.5064 202.508 103.177 202.508 103.177L200.247 110.456Z" fill="#FECC86"/>
<path d="M221.406 153.292L207.823 153.467L207.628 141.46L221.158 139.876L221.406 153.292Z" fill="#FE9F73"/>
<path d="M233.517 159.094L206.333 153.901L207.428 148.774C207.428 148.774 209.931 146.691 212.674 148.522C212.674 148.522 216.484 152.398 221.271 149.55L230.471 155.523C230.47 155.524 233.889 157.351 233.517 159.094Z" fill="#4CB7D8"/>
<path d="M205.935 155.664L234.021 161.029C234.175 161.059 234.324 160.965 234.355 160.819L234.626 159.551C234.658 159.406 234.558 159.264 234.404 159.235L206.318 153.869L205.935 155.664Z" fill="#683D46"/>
<path d="M223.988 151.27C222.791 152.43 220.386 154.762 218.857 156.246L217.004 155.892C218.37 154.567 221.234 151.788 222.659 150.407L223.988 151.27Z" fill="#D7E4F7"/>
<path d="M221.827 156.829L219.974 156.475C221.086 155.396 223.253 153.294 224.788 151.806L226.117 152.668C224.827 153.918 223.041 155.651 221.827 156.829Z" fill="#D7E4F7"/>
<path d="M212.829 87.9136C212.829 87.9136 241.55 89.6492 242.379 92.7853C243.209 95.9216 245.584 129.265 243.808 143.49C243.808 143.49 232.91 144.2 227.699 143.005L226.43 108.319L217.828 107.386L198.122 84.9844L212.829 87.9136Z" fill="#FFB357"/>
<path d="M199.046 87.4121C199.046 87.4121 221.196 93.3223 222.025 96.4586C222.854 99.5949 225.215 129.352 223.438 143.577C223.438 143.577 211.72 144.212 206.508 143.017L205.104 110.298L200.049 110.464L187.793 90.0742L199.046 87.4121Z" fill="#FECC86"/>
<path d="M213.521 143.979C208.343 143.979 206.497 143.242 206.409 143.205L206.295 143.158L204.935 110.246L207.075 111.2L206.904 111.542L205.36 110.854L206.684 142.899C207.244 143.082 209.93 143.815 216.272 143.538L216.291 143.916C215.277 143.96 214.355 143.979 213.521 143.979Z" fill="#21111D"/>
<path d="M208.678 136.858C208.125 134.842 207.967 115.182 207.96 114.346L208.36 114.344C208.362 114.548 208.524 134.792 209.064 136.763L208.678 136.858Z" fill="#21111D"/>
<path d="M229.241 109.097C226.614 108.294 222.999 108.173 222.963 108.172L222.976 107.794C223.013 107.795 226.683 107.917 229.364 108.737L229.241 109.097Z" fill="#21111D"/>
<path d="M235.172 143.918C230.748 143.918 227.693 143.233 227.662 143.226L227.514 143.192L226.232 108.12L227.869 109.367L227.619 109.661L226.662 108.932L227.903 142.889C228.581 143.027 231.534 143.579 235.559 143.538L235.563 143.916C235.432 143.918 235.302 143.918 235.172 143.918Z" fill="#21111D"/>
<path d="M229.599 137.614C229.049 134.569 229.573 113.961 229.596 113.085L229.996 113.094C229.99 113.308 229.45 134.542 229.993 137.55L229.599 137.614Z" fill="#21111D"/>
<path d="M191.45 110.827C186.348 110.827 180.231 110.664 173.355 110.174L173.385 109.799C193.873 111.259 207.612 109.814 207.749 109.8L207.794 110.174C207.703 110.183 201.579 110.827 191.45 110.827Z" fill="#21111D"/>
<path d="M198.456 76.8691C198.852 76.8628 214.763 83.3335 214.763 83.3335L211.556 89.1355L202.627 87.2821L198.456 76.8691Z" fill="#FD7583"/>
<path d="M175.401 49.8923C175.401 49.8923 168.636 49.6684 165.406 51.3986C160.587 53.9806 162.303 68.7683 162.303 68.7683C162.303 68.7683 166.399 66.6557 166.647 65.9516C166.896 65.2472 175.401 49.8923 175.401 49.8923Z" fill="#FD7583"/>
<path d="M173.765 81.9658C173.773 81.9687 173.781 81.971 173.789 81.9728L178.767 83.0498C178.867 83.0713 178.967 83.0122 178.99 82.9173C179.013 82.8225 178.95 82.7286 178.85 82.7064L173.872 81.6294C173.772 81.6079 173.672 81.667 173.649 81.7618C173.628 81.8485 173.679 81.9352 173.765 81.9658Z" fill="#21111D"/>
<path d="M171.16 79.1885L174.191 80.4275L177.561 81.9386C177.561 81.9386 182.795 82.7979 182.871 82.7818C182.882 82.7795 182.436 83.5183 182.436 83.5183C188.93 84.2759 209.398 85.0709 212.758 85.4255C214.784 85.6394 216.731 88.0209 217.958 89.8794L216.294 90.944C216.294 90.944 198.42 90.1986 198.455 90.5535C198.467 90.6655 198.971 92.3435 199.754 94.5388C188.714 95.2367 173.254 95.1697 170.383 90.8677C168.027 87.3384 170.323 82.2723 171.16 79.1885Z" fill="#F9B59D"/>
<path d="M168.853 51.0344C172.698 50.531 182.844 50.1836 182.844 50.1836C182.844 50.1836 184.188 50.517 183.76 50.3291C194.964 52.1999 196.203 60.0572 196.203 60.0572L201.672 82.7589L207.758 83.0706C209.728 86.5997 208.282 96.1188 208.282 96.1188L178.802 99.2605C178.802 99.2605 172.43 100.254 167.041 93.7184C163.476 89.3948 162.263 76.1203 162.265 66.4213C162.265 66.4213 162.877 51.8169 168.853 51.0344Z" fill="#FD7583"/>
<path d="M251.42 68.6396H223.352L213.563 92.2122H241.631L251.42 68.6396Z" fill="#E23E3D"/>
<path d="M213.563 92.2122H215.027L224.816 68.6396H223.352L213.563 92.2122Z" fill="#CC2323"/>
<path d="M233.079 79.6748C232.69 80.7577 232.975 81.8285 233.716 82.0664C234.457 82.3046 235.373 81.6196 235.762 80.5365C236.151 79.4537 235.866 78.3828 235.125 78.1449C234.384 77.9068 233.468 78.5917 233.079 79.6748Z" fill="#E2F2F1"/>
<path d="M204.288 90.2959H214.773V92.1995H204.288C203.732 92.1995 203.281 91.7733 203.281 91.2477C203.281 90.7221 203.732 90.2959 204.288 90.2959Z" fill="#CC2323"/>
<path d="M206.946 91.2568H213.57V90.9585H206.946V91.2568Z" fill="#E23E3D"/>
<path d="M178.767 83.1496C178.8 83.1616 178.838 83.1646 178.875 83.1562C178.975 83.1338 179.037 83.0392 179.014 82.9445C178.983 82.8203 175.902 70.4358 174.591 62.6426C174.575 62.5464 174.479 62.4812 174.378 62.4963C174.277 62.5117 174.207 62.6018 174.224 62.6978C175.537 70.5041 178.621 82.9009 178.652 83.0251C178.666 83.0847 178.711 83.1297 178.767 83.1496Z" fill="#21111D"/>
<path d="M197.823 82.9427C197.86 82.9563 197.903 82.9581 197.944 82.9459C198.042 82.9167 198.097 82.8178 198.066 82.7252C198.02 82.5871 193.449 68.8728 192.494 64.1314C192.475 64.0359 192.377 63.9735 192.276 63.9913C192.175 64.0094 192.109 64.1018 192.128 64.1971C193.087 68.9588 197.665 82.6928 197.711 82.8309C197.728 82.8845 197.771 82.9241 197.823 82.9427Z" fill="#21111D"/>
<path d="M179.244 56.8468C179.388 56.8609 179.535 56.8729 179.684 56.8828C179.769 56.8885 179.843 56.8276 179.849 56.747C179.855 56.6667 179.794 56.5972 179.706 56.5908C173.294 56.1653 172.104 51.7268 172.095 51.6822C172.079 51.6041 172 51.55 171.917 51.5636C171.834 51.5767 171.777 51.6483 171.789 51.7268C171.796 51.773 172.979 56.2341 179.244 56.8468Z" fill="#21111D"/>
<path d="M199.13 79.6866C199.213 79.7164 199.31 79.6859 199.356 79.6105L200.606 77.5856L200.59 77.5177L196.378 60.0353C196.352 59.8778 195.987 57.8404 194.16 55.5939C192.448 53.4879 189.072 50.8098 182.71 50.0094C182.608 49.9965 182.515 50.0644 182.501 50.1606C182.488 50.2568 182.559 50.3455 182.661 50.3582C188.885 51.1411 192.183 53.7455 193.853 55.7926C195.662 58.0109 196.008 60.0734 196.011 60.094L196.013 60.1071L200.21 77.5279L199.035 79.4328C198.983 79.5168 199.013 79.6246 199.102 79.6737C199.111 79.6789 199.12 79.6832 199.13 79.6866Z" fill="#21111D"/>
<path d="M205.732 79.7763C205.826 79.8102 205.933 79.7661 205.97 79.6769C206.008 79.5866 205.962 79.4843 205.866 79.4481L200.488 77.4193C200.389 77.3869 200.284 77.4272 200.246 77.5175C200.208 77.6078 200.254 77.7101 200.35 77.7464L205.728 79.7751C205.73 79.7754 205.73 79.7758 205.732 79.7763Z" fill="#21111D"/>
<path d="M207.75 83.0752C207.75 83.0752 209.695 87.4166 208.273 96.1234L201.16 92.5142L203.273 86.0098L207.75 83.0752Z" fill="#FD7583"/>
<path d="M172.34 83.304C172.362 83.3119 172.386 83.316 172.412 83.3153C172.678 83.3076 199.017 82.5602 207.635 83.2325C207.847 83.7673 208.819 86.5313 208.547 91.5882C208.541 91.6853 208.62 91.7681 208.723 91.7731C208.826 91.7778 208.913 91.7034 208.919 91.6063C209.227 85.876 207.989 83.1111 207.936 82.9961L207.892 82.8999L207.781 82.8909C199.264 82.2012 172.668 82.9559 172.4 82.9636C172.298 82.9665 172.217 83.0477 172.22 83.1448C172.222 83.2182 172.272 83.2795 172.34 83.304Z" fill="#21111D"/>
<path d="M184.377 36.9821L184.587 44.6432C184.587 44.6432 184.763 47.1034 182.493 47.4671L183.008 50.7424C183.2 51.9599 182.46 53.148 181.229 53.55C180.628 53.7465 179.907 53.8968 179.086 53.9172C176.482 53.981 175.02 52.1686 174.778 51.2503C174.535 50.332 175.066 45.9037 175.066 45.9037L174.927 43.7375L174.993 35.3291L184.377 36.9821Z" fill="#FE9F73"/>
<path d="M177.144 45.5381C177.144 45.5381 177.41 49.6565 182.865 49.9166L182.485 47.5008C182.485 47.5008 178.972 48.2581 177.144 45.5381Z" fill="#F07162"/>
<path d="M178.196 41.1824C178.169 41.1831 178.142 41.1743 178.12 41.1555C178.076 41.1175 178.073 41.0525 178.113 41.0106C178.128 40.9955 179.581 39.5151 180.973 40.5208C181.021 40.5552 181.03 40.6195 180.993 40.6645C180.957 40.7098 180.889 40.7184 180.841 40.6838C179.608 39.7929 178.327 41.0928 178.274 41.1487C178.253 41.1704 178.225 41.1815 178.196 41.1824Z" fill="#49263E"/>
<path d="M174.427 40.1537L176.782 40.5572L177.217 40.9615C177.217 40.9615 176.912 37.2537 176.451 36.5346C175.99 35.8154 174.427 40.1537 174.427 40.1537Z" fill="#4C222E"/>
<path d="M182.657 40.4472C182.627 40.4479 182.596 40.4366 182.574 40.4137C182.534 40.3719 182.537 40.3071 182.581 40.2689C182.624 40.232 183.636 39.3694 184.305 39.8841C184.352 39.9198 184.359 39.9843 184.321 40.0285C184.283 40.0726 184.215 40.0792 184.168 40.0434C183.644 39.6403 182.737 40.4128 182.728 40.4208C182.708 40.4377 182.683 40.4466 182.657 40.4472Z" fill="#49263E"/>
<path d="M180.401 41.5217C180.405 41.6917 180.264 41.8331 180.084 41.8374C179.904 41.842 179.754 41.7075 179.75 41.5375C179.745 41.3676 179.887 41.2261 180.067 41.2218C180.247 41.2175 180.396 41.3517 180.401 41.5217Z" fill="black"/>
<path d="M183.851 41.0969C183.855 41.2669 183.713 41.4083 183.533 41.4126C183.354 41.4169 183.204 41.2827 183.199 41.1127C183.195 40.9427 183.337 40.8013 183.516 40.797C183.696 40.7927 183.846 40.9269 183.851 41.0969Z" fill="black"/>
<path d="M177.702 41.461C177.73 42.4812 176.878 43.3295 175.799 43.356C174.72 43.3825 173.823 42.5769 173.795 41.5568C173.767 40.5366 174.619 39.6882 175.698 39.6618C176.776 39.6355 177.674 40.4408 177.702 41.461Z" fill="#FE9F73"/>
<path d="M175.439 42.5786C175.033 42.5886 174.754 42.3068 174.657 42.0209C174.542 41.6825 174.654 41.3484 174.942 41.1694C175.368 40.9048 175.764 41.0582 175.969 41.1782C175.879 40.9706 175.742 40.8212 175.562 40.7332C175.171 40.5424 174.698 40.6999 174.693 40.7015C174.665 40.7112 174.634 40.6974 174.624 40.6705C174.614 40.6438 174.628 40.6146 174.656 40.6048C174.677 40.5976 175.178 40.4303 175.611 40.6415C175.861 40.7633 176.035 40.9858 176.127 41.3022L176.18 41.4797L176.038 41.3532C176.018 41.3353 175.542 40.9195 175.002 41.2552C174.703 41.441 174.685 41.7669 174.76 41.9894C174.839 42.2205 175.063 42.4851 175.435 42.4761C175.439 42.4761 175.443 42.4756 175.447 42.4756C175.476 42.4749 175.501 42.4967 175.502 42.525C175.503 42.5533 175.48 42.5773 175.45 42.5784C175.446 42.5784 175.442 42.5786 175.439 42.5786Z" fill="#F07162"/>
<path d="M181.615 43.6142C181.592 43.6146 181.571 43.6015 181.563 43.5802C181.553 43.5535 181.567 43.5241 181.596 43.5146L182.674 43.1477L182.264 40.7355C182.259 40.7076 182.279 40.6811 182.309 40.6766C182.339 40.6714 182.366 40.6911 182.371 40.7192L182.795 43.2154L181.632 43.6108C181.627 43.6131 181.621 43.614 181.615 43.6142Z" fill="#F07162"/>
<path d="M180.789 44.6067C180.822 44.5997 182.936 44.501 182.936 44.501C182.936 44.501 182.693 45.3346 181.907 45.3733C181.122 45.412 180.789 44.6067 180.789 44.6067Z" fill="#FBFDFC"/>
<path d="M174.437 40.158C174.437 40.158 173.679 36.5776 174.807 35.2084C175.935 33.8392 182.554 31.3292 183.382 31.9797C184.211 32.63 183.423 33.4639 183.423 33.4639C183.423 33.4639 186.084 32.5841 186.753 34.8195C187.423 37.0549 181.677 38.1541 178.205 37.1851C178.205 37.1851 175.945 37.8691 174.437 40.158Z" fill="#4C222E"/>
<path d="M173.678 98.7279C174.115 98.8841 174.527 99.0061 174.906 99.1011C177.185 99.6729 178.777 99.4355 178.844 99.4248C178.945 99.409 179.014 99.3187 178.997 99.2227C178.981 99.1269 178.885 99.062 178.783 99.0776C178.768 99.0801 177.188 99.3132 174.982 98.756C172.947 98.2426 169.945 96.9307 167.199 93.6009C163.752 89.4206 162.493 76.5504 162.462 66.7995C162.462 66.7024 162.378 66.6233 162.275 66.624C162.172 66.6243 162.089 66.7035 162.09 66.8006C162.121 76.6072 163.401 89.5671 166.905 93.8175C169.211 96.6138 171.701 98.0212 173.678 98.7279Z" fill="#21111D"/>
<path d="M232.011 288.393C231.865 288.289 228.61 285.807 228.354 285.69C225.96 287.219 226.278 291.354 223.641 293.034C225.353 293.377 226.566 293.594 227.052 293.66L228.518 296.736L228.719 297.543C228.815 297.924 229.289 298.202 229.779 298.163C230.269 298.124 230.589 297.783 230.494 297.402L230.578 297.739C230.674 298.121 231.148 298.398 231.638 298.359C232.128 298.321 232.448 297.979 232.353 297.598C232.448 297.979 232.923 298.257 233.413 298.218C233.903 298.179 234.223 297.838 234.128 297.456L234.043 297.119C234.139 297.5 234.613 297.778 235.103 297.739C235.132 297.737 235.16 297.733 235.187 297.729H235.187C235.219 297.724 235.25 297.718 235.28 297.711C235.745 297.606 235.941 297.409 235.988 297.2C236.086 296.763 235.383 294.349 235.075 293.209C234.624 291.427 233.767 289.649 232.011 288.393Z" fill="#F9956E"/>
<path d="M234.147 297.496C234.163 297.496 234.179 297.493 234.195 297.488C234.265 297.463 234.301 297.389 234.275 297.322L232.345 292.422C232.319 292.355 232.241 292.322 232.17 292.346C232.099 292.371 232.063 292.445 232.09 292.512L234.019 297.412C234.039 297.464 234.092 297.496 234.147 297.496Z" fill="#F07162"/>
<path d="M232.383 297.862C232.399 297.862 232.415 297.859 232.431 297.854C232.501 297.829 232.537 297.755 232.511 297.688L230.761 293.243C230.735 293.176 230.656 293.143 230.586 293.167C230.515 293.192 230.479 293.266 230.505 293.333L232.255 297.778C232.275 297.83 232.328 297.862 232.383 297.862Z" fill="#F07162"/>
<path d="M224.721 282.852C227.302 284.838 231.941 288.42 232.897 289.233C234.236 290.372 227.982 295.291 227.982 295.291C227.982 295.291 220.742 291.666 216.764 289.079L224.721 282.852Z" fill="#F9956E"/>
<path d="M230.571 297.804C230.587 297.804 230.603 297.801 230.619 297.796C230.689 297.771 230.725 297.697 230.699 297.63L229.292 294.058C229.266 293.991 229.187 293.957 229.117 293.982C229.046 294.007 229.01 294.081 229.036 294.148L230.443 297.72C230.464 297.772 230.516 297.804 230.571 297.804Z" fill="#F07162"/>
<path d="M250.895 293.703C250.94 293.703 250.986 293.688 251.023 293.657L253.9 291.301C253.982 291.234 253.99 291.117 253.92 291.04C253.849 290.962 253.725 290.954 253.643 291.021L250.766 293.377C250.685 293.444 250.676 293.561 250.747 293.639C250.785 293.681 250.84 293.703 250.895 293.703Z" fill="#21111D"/>
<path d="M192.668 298.179C192.668 298.179 194.96 291.622 219.347 292.839C247.228 294.232 266.219 289.679 271.156 298.179L232.519 311.741L192.668 298.179Z" fill="#FF424D"/>
<path d="M236.539 309.841C236.539 309.841 214.416 297.238 206.656 295.345C198.896 293.453 193.524 295.949 192.68 298.157C191.836 300.366 191.044 306.327 196.203 309.841C198.436 311.362 223.955 318.539 230.703 320.214C230.703 320.214 236.965 317.723 236.539 309.841Z" fill="#FF424D"/>
<path d="M231.841 307.45C231.907 307.45 231.972 307.418 232.009 307.36C232.064 307.272 232.034 307.158 231.941 307.106C210.757 295.131 203.817 294.54 203.532 294.521C203.421 294.513 203.33 294.591 203.323 294.693C203.315 294.795 203.396 294.883 203.504 294.891C203.573 294.896 210.677 295.518 231.74 307.424C231.772 307.441 231.806 307.45 231.841 307.45Z" fill="#21111D"/>
<path d="M226.192 322.275L236.198 317.456L231.386 308.522L223.223 312.454C223.223 312.454 209.729 312.345 209.083 312.942C208.438 313.539 223.057 323.786 226.192 322.275Z" fill="#FE9F73"/>
<path d="M229.632 320.552C226.759 317.558 225.197 313.215 224.709 311.672L223.227 312.386C223.227 312.386 209.732 312.276 209.087 312.874C208.441 313.47 223.06 323.718 226.196 322.207L229.632 320.552Z" fill="#472A31"/>
<path d="M227.291 309.841C227.291 309.841 249.414 297.238 257.174 295.345C264.934 293.453 270.307 295.949 271.15 298.157C271.994 300.366 272.787 306.327 267.627 309.841C265.394 311.362 238.086 318.997 231.338 320.672C231.338 320.672 226.866 317.723 227.291 309.841Z" fill="#FF424D"/>
<path d="M231.35 320.819C231.414 320.819 231.476 320.789 231.514 320.735C231.573 320.65 231.549 320.535 231.458 320.479C227.725 318.149 227.511 310.871 227.5 309.909C229.049 309.058 248.269 298.525 255.934 295.808C256.035 295.773 256.087 295.665 256.049 295.57C256.011 295.474 255.898 295.425 255.796 295.461C247.816 298.29 227.41 309.529 227.205 309.643L227.108 309.696L227.107 309.801C227.104 310.143 227.084 318.194 231.242 320.788C231.276 320.809 231.313 320.819 231.35 320.819Z" fill="#21111D"/>
<path d="M194.955 297.941C195.016 297.941 195.076 297.914 195.114 297.864C195.127 297.848 195.904 296.896 198.437 296.925C198.55 296.928 198.634 296.844 198.635 296.742C198.636 296.64 198.55 296.556 198.442 296.554C195.673 296.522 194.829 297.603 194.795 297.649C194.732 297.732 194.753 297.848 194.841 297.907C194.876 297.93 194.916 297.941 194.955 297.941Z" fill="#21111D"/>
<path d="M196.218 298.901C196.269 298.901 196.32 298.882 196.358 298.845C196.374 298.83 197.29 297.997 199.791 298.375C199.898 298.391 199.998 298.323 200.015 298.222C200.032 298.12 199.96 298.025 199.853 298.009C197.116 297.596 196.117 298.547 196.076 298.587C196.002 298.661 196.004 298.778 196.082 298.849C196.121 298.884 196.169 298.901 196.218 298.901Z" fill="#21111D"/>
<path d="M237.044 243.715C237.044 243.715 235.88 253.601 234.319 253.7C232.757 253.799 235.397 265.377 239.535 259.704C240.985 257.717 240.92 244.711 237.46 241.929C234 239.148 237.044 243.715 237.044 243.715Z" fill="#49263E"/>
<path d="M237.613 241.215C237.613 241.215 239.05 250.555 237.757 252.217C237.757 252.217 237.124 253.101 235.582 253.148L235.703 258.637L228.724 257.883L228.491 242.272C228.491 242.272 230.48 238.413 230.483 238.572C230.485 238.731 237.613 241.215 237.613 241.215Z" fill="#FE9F73"/>
<path d="M235.487 249.024C235.467 249.024 235.448 249.006 235.443 248.978C235.437 248.945 235.452 248.914 235.476 248.906C235.763 248.82 235.938 248.344 235.988 248.189C235.574 247.903 235.318 247.528 235.228 247.072C235.081 246.329 235.425 245.652 235.44 245.623C235.453 245.596 235.481 245.59 235.502 245.608C235.522 245.627 235.527 245.664 235.514 245.691C235.51 245.698 235.178 246.354 235.315 247.043C235.401 247.477 235.653 247.835 236.065 248.108L236.101 248.132L236.087 248.182C236.079 248.211 235.885 248.906 235.497 249.023C235.494 249.024 235.491 249.024 235.487 249.024Z" fill="#F07162"/>
<path d="M235.607 255.041L235.579 253.174C235.579 253.174 232.238 253.033 230.172 251.84C230.172 251.84 232.989 254.33 235.607 255.041Z" fill="#F07162"/>
<path d="M230.872 245.949C230.84 245.949 230.808 245.938 230.784 245.916C230.733 245.871 230.73 245.796 230.778 245.748C230.794 245.732 232.388 244.146 233.884 245.252C233.939 245.293 233.948 245.368 233.905 245.42C233.862 245.472 233.783 245.481 233.728 245.44C232.415 244.469 231.021 245.851 230.962 245.91C230.938 245.935 230.905 245.948 230.872 245.949Z" fill="#49263E"/>
<path d="M236.06 245.617C236.025 245.617 235.99 245.604 235.964 245.577C235.918 245.528 235.922 245.452 235.974 245.408C236.021 245.369 237.131 244.445 237.852 245.014C237.906 245.056 237.913 245.131 237.869 245.181C237.824 245.232 237.744 245.239 237.691 245.197C237.136 244.76 236.152 245.578 236.142 245.587C236.119 245.607 236.089 245.617 236.06 245.617Z" fill="#49263E"/>
<path d="M233.415 246.549C233.418 246.733 233.263 246.884 233.069 246.887C232.874 246.889 232.715 246.743 232.712 246.559C232.709 246.375 232.864 246.224 233.059 246.222C233.253 246.219 233.413 246.366 233.415 246.549Z" fill="black"/>
<path d="M237.52 246.536C237.523 246.719 237.368 246.87 237.174 246.873C236.979 246.876 236.82 246.729 236.817 246.545C236.814 246.362 236.969 246.211 237.164 246.208C237.358 246.206 237.518 246.352 237.52 246.536Z" fill="black"/>
<path d="M233.755 249.553C233.794 249.551 236.241 249.808 236.241 249.808C236.241 249.808 235.798 250.723 234.889 250.629C233.979 250.536 233.755 249.553 233.755 249.553Z" fill="#FBFDFC"/>
<path d="M234.579 241.428L232.885 239.205C232.885 239.205 235.608 240.816 235.382 240.882C235.155 240.949 234.579 241.428 234.579 241.428Z" fill="#FE9F73"/>
<path d="M229.499 240.367C229.499 240.367 229.986 243.85 238.808 244.553C238.808 244.553 240.858 239.399 234.451 237.676C228.045 235.953 227.463 240.6 227.592 240.557C227.722 240.514 229.499 240.367 229.499 240.367Z" fill="#49263E"/>
<path d="M230.833 242.291C230.833 242.291 229.204 244.582 228.447 246.234C228.447 246.234 231.392 260.823 225.453 260.005L224.391 259.991C219.138 259.923 222.774 249.171 222.863 243.465C222.919 239.892 227.506 236.264 230.49 238.441C233.475 240.618 230.833 242.291 230.833 242.291Z" fill="#49263E"/>
<path d="M229.958 248.036C229.973 249.065 229.103 249.912 228.015 249.926C226.926 249.941 226.031 249.118 226.016 248.089C226.001 247.059 226.87 246.213 227.959 246.198C229.048 246.184 229.943 247.006 229.958 248.036Z" fill="#FE9F73"/>
<path d="M227.871 249.221C227.457 249.227 227.177 248.936 227.081 248.644C226.968 248.298 227.087 247.959 227.383 247.779C227.804 247.524 228.193 247.664 228.405 247.786C228.318 247.589 228.186 247.446 228.014 247.359C227.624 247.164 227.15 247.317 227.146 247.318C227.112 247.329 227.077 247.313 227.065 247.282C227.054 247.25 227.071 247.216 227.104 247.205C227.125 247.198 227.635 247.034 228.073 247.254C228.326 247.38 228.5 247.608 228.59 247.931L228.648 248.138L228.485 247.989C228.465 247.971 227.994 247.551 227.451 247.88C227.151 248.061 227.129 248.386 227.202 248.609C227.278 248.842 227.5 249.111 227.879 249.102C227.913 249.1 227.943 249.126 227.944 249.16C227.945 249.193 227.917 249.22 227.883 249.221C227.879 249.221 227.875 249.221 227.871 249.221Z" fill="#F07162"/>
<path d="M238.013 239.665C238.013 239.665 241.072 242.718 240.37 251.498L238.261 242.835L238.013 239.665Z" fill="#49263E"/>
<path d="M235.962 274.082L231.711 257.198H220.127C218.897 257.198 217.203 257.965 217.13 257.998C212.482 260.339 199.691 273.668 200.33 282.067C200.909 289.692 212.517 288.177 224.085 289.943L226.655 279.833L222.473 278.775L235.962 274.082Z" fill="#7FC6A6"/>
<path d="M232.123 276.576V257.198H243.707C244.937 257.198 246.631 257.965 246.704 257.998C251.353 260.339 265.746 274.09 265.108 282.49C264.528 290.114 250.956 289.807 244.594 291.664L241.06 279.575L241.373 278.959L232.123 276.576Z" fill="#7FC6A6"/>
<path d="M250.906 279.219L250.759 300.352C250.759 300.352 230.53 303.848 212.518 299.317C212.075 299.206 213.363 281.852 213.363 281.852C213.363 281.852 213.363 278.485 215.24 277.444C217.117 276.404 232.436 269.977 232.803 269.977C233.17 269.977 250.906 279.219 250.906 279.219Z" fill="#7FC6A6"/>
<path d="M231.519 263.064C231.633 263.064 231.729 262.98 231.736 262.87C231.744 262.756 231.652 262.658 231.532 262.651C224.886 262.256 222.716 257.951 222.695 257.907C222.645 257.804 222.515 257.758 222.405 257.806C222.296 257.854 222.248 257.976 222.298 258.08C222.32 258.125 224.586 262.652 231.505 263.063C231.51 263.064 231.514 263.064 231.519 263.064Z" fill="#21111D"/>
<path d="M238.844 257.232H224.189C224.189 257.232 226.839 261.57 231.902 261.552C234.225 261.543 236.708 260.736 238.844 257.232Z" fill="#FE9F73"/>
<path d="M229.822 285.162C228.892 284.272 229.753 283.141 229.753 283.141C229.408 281.794 229.789 281.204 229.789 281.204C229.789 281.204 233.697 282.3 235.918 283.077C237.171 282.899 237.614 282.32 237.614 282.32L237.646 282.37C237.671 281.343 237.701 280.059 237.701 279.914C237.701 279.669 238.115 279.277 238.762 280.052C239.41 280.828 240.662 282.909 240.662 282.909L243.899 281.113L246.531 289.725C246.531 289.725 238.678 290.775 237.47 290.856C236.261 290.938 232.055 290.001 230.804 289.021C229.552 288.042 229.822 287.165 229.822 287.165C228.892 286.107 229.822 285.162 229.822 285.162Z" fill="#F78C63"/>
<path d="M238.338 279.466V282.133C238.338 282.133 237.505 283.297 235.909 283.077L234.696 282.652L235.651 278.775L238.338 279.466Z" fill="#FD7583"/>
<path d="M232.384 284.427C232.445 284.427 232.502 284.39 232.522 284.332C232.547 284.259 232.505 284.182 232.428 284.158C231.355 283.83 229.812 282.994 229.797 282.985C229.727 282.947 229.638 282.97 229.598 283.036C229.558 283.102 229.582 283.186 229.652 283.224C229.716 283.259 231.237 284.083 232.339 284.42C232.354 284.425 232.369 284.427 232.384 284.427Z" fill="#F07162"/>
<path d="M232.386 286.212C232.455 286.212 232.516 286.166 232.529 286.099C232.544 286.025 232.492 285.953 232.413 285.939C231.064 285.701 229.88 285.054 229.869 285.047C229.799 285.009 229.71 285.031 229.669 285.097C229.629 285.162 229.652 285.247 229.721 285.285C229.772 285.313 230.959 285.963 232.36 286.209C232.369 286.211 232.377 286.212 232.386 286.212Z" fill="#F07162"/>
<path d="M232.092 288.18C232.159 288.18 232.219 288.136 232.234 288.071C232.251 287.997 232.201 287.924 232.122 287.908C230.964 287.671 229.913 287.038 229.903 287.032C229.835 286.99 229.745 287.009 229.701 287.073C229.658 287.137 229.678 287.222 229.745 287.264C229.79 287.291 230.851 287.93 232.061 288.177C232.071 288.179 232.081 288.18 232.092 288.18Z" fill="#F07162"/>
<path d="M241.55 281.246L246.008 280.195C246.008 280.195 248.522 286.089 248.522 286.286C248.522 286.484 247.265 291.683 247.108 291.658C246.951 291.633 245.523 290.237 245.523 290.237L241.55 281.246Z" fill="#4CB7D8"/>
<path d="M249.745 277.422L251.942 277.09C252.087 277.068 252.185 276.939 252.162 276.803C252.139 276.666 252.004 276.573 251.858 276.595L250.001 276.876L245.866 270.852C245.786 270.735 245.622 270.702 245.5 270.778C245.377 270.853 245.342 271.008 245.422 271.124L249.745 277.422Z" fill="#21111D"/>
<path d="M248.906 262.705C248.838 262.705 248.77 262.674 248.727 262.616C247.08 260.379 245.674 260.374 245.675 260.374C245.675 260.374 245.675 260.374 245.674 260.374C245.554 260.374 245.456 260.282 245.456 260.168C245.455 260.054 245.553 259.961 245.673 259.961C245.673 259.961 245.674 259.961 245.674 259.961C245.754 259.961 247.328 259.993 249.085 262.38C249.154 262.474 249.13 262.602 249.031 262.668C248.993 262.693 248.95 262.705 248.906 262.705Z" fill="#21111D"/>
<path d="M248.444 264.814C248.363 264.814 248.286 264.772 248.248 264.7C246.986 262.3 245.588 262.061 245.574 262.059C245.456 262.041 245.374 261.936 245.392 261.824C245.41 261.712 245.519 261.634 245.638 261.651C245.704 261.659 247.264 261.9 248.639 264.516C248.693 264.618 248.649 264.742 248.541 264.793C248.51 264.807 248.476 264.814 248.444 264.814Z" fill="#21111D"/>
<path d="M236.13 281.657C236.07 281.669 236.006 281.644 235.973 281.591C235.933 281.525 235.957 281.441 236.027 281.403C237.005 280.872 238.333 279.752 238.346 279.741C238.406 279.691 238.498 279.695 238.552 279.752C238.605 279.809 238.6 279.896 238.54 279.947C238.485 279.993 237.177 281.097 236.172 281.642C236.158 281.649 236.144 281.654 236.13 281.657Z" fill="#F07162"/>
<path d="M236.515 283.33C236.447 283.343 236.377 283.31 236.35 283.248C236.319 283.178 236.355 283.097 236.429 283.068C237.697 282.572 238.713 281.707 238.723 281.699C238.783 281.647 238.875 281.652 238.929 281.708C238.983 281.765 238.979 281.852 238.919 281.903C238.876 281.939 237.857 282.808 236.54 283.323C236.532 283.326 236.523 283.329 236.515 283.33Z" fill="#F07162"/>
<path d="M237.267 285.173C237.201 285.186 237.132 285.155 237.104 285.094C237.071 285.025 237.104 284.944 237.177 284.912C238.259 284.454 239.148 283.63 239.158 283.622C239.215 283.568 239.307 283.569 239.364 283.623C239.42 283.677 239.419 283.764 239.362 283.818C239.325 283.853 238.426 284.686 237.296 285.164C237.286 285.168 237.277 285.171 237.267 285.173Z" fill="#F07162"/>
<path d="M217.369 277.274L215.146 277.379C215 277.385 214.875 277.279 214.868 277.14C214.861 277.002 214.973 276.885 215.12 276.878L216.998 276.79L219.728 270.087C219.781 269.958 219.934 269.894 220.071 269.944C220.207 269.993 220.275 270.139 220.223 270.268L217.369 277.274Z" fill="#21111D"/>
<path d="M226.653 279.839L224.362 290.217C224.362 290.217 219.649 286.589 219.649 286.194C219.649 285.798 221.142 280.972 221.299 280.879C221.456 280.785 226.653 279.839 226.653 279.839Z" fill="#4CB7D8"/>
<path d="M224.513 290.471L224.28 290.458C224.225 290.455 218.731 290.125 212.381 287.603C212.246 287.549 212.183 287.402 212.239 287.275C212.296 287.147 212.452 287.087 212.587 287.141C218.12 289.338 222.98 289.849 224.08 289.941L226.043 280.164L217.094 277.268C216.956 277.223 216.882 277.081 216.929 276.95C216.977 276.818 217.127 276.749 217.266 276.794L226.649 279.83L224.513 290.471Z" fill="#21111D"/>
<path d="M242.717 290.471L242.95 290.458C243.005 290.455 248.499 290.125 254.849 287.603C254.984 287.549 255.047 287.402 254.991 287.275C254.934 287.147 254.778 287.087 254.643 287.141C249.11 289.338 244.25 289.849 243.15 289.941L241.187 280.164L250.136 277.268C250.274 277.223 250.348 277.081 250.301 276.95C250.254 276.818 250.103 276.749 249.964 276.794L240.581 279.83L242.717 290.471Z" fill="#21111D"/>
<path d="M211.934 301.676H254.078C254.91 301.676 255.585 301.038 255.585 300.251V278.009C255.585 277.222 254.91 276.584 254.078 276.584H211.934C211.102 276.584 210.427 277.222 210.427 278.009V300.251C210.427 301.038 211.101 301.676 211.934 301.676Z" fill="#49263E"/>
<path d="M232.543 288.718C233.539 288.718 234.346 287.954 234.346 287.012C234.346 286.07 233.539 285.307 232.543 285.307C231.546 285.307 230.739 286.07 230.739 287.012C230.739 287.954 231.546 288.718 232.543 288.718Z" fill="white"/>
<path d="M467.7 299.208C467.7 299.208 462.765 310.949 466.904 319.83L372.032 320.583L363.277 319.83L355.561 315.309V308.39L357.706 302.67L364.71 299.208L467.7 299.208Z" fill="white"/>
<path d="M367.582 321.726H470.081C470.748 321.726 471.29 321.214 471.29 320.582C471.29 319.951 470.748 319.439 470.081 319.439H367.582C361.395 319.439 356.361 315.023 356.361 309.594C356.361 304.166 361.395 299.749 367.582 299.749H470.081C470.748 299.749 471.29 299.237 471.29 298.606C471.29 297.975 470.748 297.463 470.081 297.463H367.582C360.062 297.463 353.944 302.905 353.944 309.594C353.944 316.283 360.062 321.726 367.582 321.726Z" fill="#FF424D"/>
<path d="M466.312 309.851H416.011C415.863 309.851 415.743 309.737 415.743 309.597C415.743 309.456 415.863 309.343 416.011 309.343H466.312C466.461 309.343 466.581 309.456 466.581 309.597C466.581 309.737 466.461 309.851 466.312 309.851Z" fill="#AAC9F8"/>
<path d="M408.92 309.851H360.052C359.903 309.851 359.783 309.737 359.783 309.597C359.783 309.456 359.903 309.343 360.052 309.343H408.92C409.069 309.343 409.189 309.456 409.189 309.597C409.189 309.737 409.069 309.851 408.92 309.851Z" fill="#AAC9F8"/>
<path d="M386.429 314.418H361.356C361.208 314.418 361.087 314.304 361.087 314.164C361.087 314.024 361.208 313.91 361.356 313.91H386.429C386.578 313.91 386.698 314.024 386.698 314.164C386.698 314.304 386.578 314.418 386.429 314.418Z" fill="#AAC9F8"/>
<path d="M466.303 314.418H390.116C389.967 314.418 389.847 314.304 389.847 314.164C389.847 314.024 389.967 313.91 390.116 313.91H466.303C466.452 313.91 466.572 314.024 466.572 314.164C466.572 314.304 466.452 314.418 466.303 314.418Z" fill="#AAC9F8"/>
<path d="M372.565 276.574C372.565 276.574 377.145 287.471 373.304 295.713L461.351 296.412L469.477 295.713L476.638 291.517V285.096L474.647 279.787L468.147 276.574H372.565V276.574Z" fill="white"/>
<path d="M465.478 297.473H370.351C369.731 297.473 369.229 296.998 369.229 296.412C369.229 295.826 369.731 295.351 370.351 295.351H465.478C471.22 295.351 475.891 291.252 475.891 286.214C475.891 281.176 471.22 277.077 465.478 277.077H370.351C369.731 277.077 369.229 276.602 369.229 276.016C369.229 275.43 369.731 274.955 370.351 274.955H465.478C472.457 274.955 478.135 280.006 478.135 286.214C478.135 292.422 472.457 297.473 465.478 297.473Z" fill="#258D8C"/>
<path d="M420.543 286.461H373.86C373.711 286.461 373.591 286.347 373.591 286.207C373.591 286.067 373.711 285.953 373.86 285.953H420.543C420.691 285.953 420.811 286.067 420.811 286.207C420.811 286.347 420.691 286.461 420.543 286.461Z" fill="#AAC9F8"/>
<path d="M472.476 286.461H427.123C426.975 286.461 426.854 286.347 426.854 286.207C426.854 286.067 426.975 285.953 427.123 285.953H472.476C472.625 285.953 472.745 286.067 472.745 286.207C472.745 286.347 472.625 286.461 472.476 286.461Z" fill="#AAC9F8"/>
<path d="M471.257 290.697H447.987C447.839 290.697 447.719 290.584 447.719 290.443C447.719 290.303 447.839 290.189 447.987 290.189H471.257C471.406 290.189 471.526 290.303 471.526 290.443C471.526 290.584 471.406 290.697 471.257 290.697Z" fill="#AAC9F8"/>
<path d="M471.254 282.23H373.862C373.714 282.23 373.594 282.116 373.594 281.976C373.594 281.835 373.714 281.722 373.862 281.722H471.254C471.402 281.722 471.523 281.835 471.523 281.976C471.523 282.116 471.403 282.23 471.254 282.23Z" fill="#AAC9F8"/>
<path d="M470.079 321.963H367.58C359.912 321.963 353.673 316.407 353.673 309.578C353.673 302.749 359.912 297.192 367.58 297.192H470.079C470.894 297.192 471.556 297.819 471.556 298.589C471.556 299.36 470.894 299.986 470.079 299.986C469.93 299.986 469.81 299.873 469.81 299.732C469.81 299.592 469.93 299.479 470.079 299.479C470.597 299.479 471.019 299.08 471.019 298.589C471.019 298.099 470.597 297.7 470.079 297.7H367.58C360.208 297.7 354.21 303.028 354.21 309.578C354.21 316.127 360.208 321.455 367.58 321.455H470.079C470.597 321.455 471.019 321.056 471.019 320.566C471.019 320.076 470.597 319.677 470.079 319.677C469.93 319.677 469.81 319.563 469.81 319.423C469.81 319.283 469.93 319.169 470.079 319.169C470.894 319.169 471.556 319.795 471.556 320.566C471.556 321.337 470.893 321.963 470.079 321.963Z" fill="#21111D"/>
<path d="M465.482 297.729H370.355C369.589 297.729 368.965 297.139 368.965 296.414C368.965 295.689 369.589 295.099 370.355 295.099C370.503 295.099 370.624 295.213 370.624 295.353C370.624 295.493 370.503 295.607 370.355 295.607C369.885 295.607 369.502 295.969 369.502 296.414C369.502 296.859 369.885 297.221 370.355 297.221H465.482C472.313 297.221 477.87 292.284 477.87 286.216C477.87 280.148 472.313 275.211 465.482 275.211H370.355C369.885 275.211 369.502 275.573 369.502 276.018C369.502 276.463 369.885 276.825 370.355 276.825C370.503 276.825 370.624 276.938 370.624 277.079C370.624 277.219 370.503 277.333 370.355 277.333C369.589 277.333 368.965 276.743 368.965 276.018C368.965 275.293 369.589 274.703 370.355 274.703H465.482C472.609 274.703 478.408 279.868 478.408 286.216C478.408 292.564 472.609 297.729 465.482 297.729Z" fill="#21111D"/>
<path d="M453.832 305.036C453.832 305.036 457.061 312.641 455.2 318.239L452.577 314.406C452.577 314.406 450.786 316.439 449.688 318.239C449.688 318.239 447.685 305.736 443.802 305.036H453.832Z" fill="#7FC6A6"/>
<path d="M429.517 290.426C429.517 290.426 426.288 298.03 428.149 303.629L430.772 299.796C430.772 299.796 432.563 301.828 433.661 303.629C433.661 303.629 435.664 291.126 439.547 290.426H429.517Z" fill="#4CB7D8"/>
<path d="M466.302 305.288H361.362C361.213 305.288 361.093 305.175 361.093 305.034C361.093 304.894 361.213 304.78 361.362 304.78H466.302C466.45 304.78 466.57 304.894 466.57 305.034C466.57 305.175 466.45 305.288 466.302 305.288Z" fill="#AAC9F8"/>
<path d="M444.573 290.697H373.865C373.716 290.697 373.596 290.584 373.596 290.443C373.596 290.303 373.716 290.189 373.865 290.189H444.573C444.721 290.189 444.841 290.303 444.841 290.443C444.841 290.584 444.721 290.697 444.573 290.697Z" fill="#AAC9F8"/>
<path d="M389.107 311.695L393.744 314.159L399.286 309.004L399.436 308.168L398.079 298.788L387.292 300.688L389.107 311.695Z" fill="#FE9F73"/>
<path d="M397.032 314.459L382.163 316.374C382.026 316.373 381.913 316.366 381.83 316.353C380.371 316.128 380.707 315.229 380.707 315.229L387.226 310.132L387.274 309.504C387.35 308.496 388.581 307.985 389.634 308.523L392.373 309.923C392.373 309.923 398.812 310.01 399.439 308.196L400.022 312.618C400.022 312.618 400.707 313.964 397.032 314.459Z" fill="#3A1F33"/>
<path d="M369.901 312.27L374.538 314.733L380.08 309.578L380.229 308.742L378.873 299.362L368.085 301.262L369.901 312.27Z" fill="#FE9F73"/>
<path d="M377.822 315.039L362.953 316.953C362.816 316.952 362.703 316.945 362.62 316.932C361.161 316.707 361.497 315.808 361.497 315.808L368.016 310.711L368.064 310.083C368.14 309.075 369.371 308.564 370.424 309.102L373.163 310.502C373.163 310.502 379.602 310.589 380.23 308.775L380.812 313.198C380.812 313.198 381.497 314.543 377.822 315.039Z" fill="#3A1F33"/>
<path d="M406.362 274.851C406.362 274.851 424.908 275.676 430.058 274.594C435.208 273.513 436.476 258.312 430.629 248.998C424.781 239.685 404.321 268.28 404.321 268.28L406.362 274.851Z" fill="#49263E"/>
<path d="M394.885 252.276C394.885 252.276 369.058 256.075 368.309 258.907C367.561 261.738 365.416 291.843 367.02 304.687C367.02 304.687 376.859 305.328 381.564 304.249L382.898 274.826L390.817 274.963L408.269 251.863L394.885 252.276Z" fill="#3A1F33"/>
<path d="M407.447 254.021C407.447 254.021 387.448 259.357 386.7 262.188C385.951 265.02 383.82 291.887 385.424 304.731C385.424 304.731 396.004 305.304 400.709 304.225L401.977 274.683L406.541 274.834L417.607 256.424L407.447 254.021Z" fill="#49263E"/>
<path d="M419.841 217.997C419.841 217.997 428.68 218.137 430.735 219.284C432.789 220.43 442.201 235.094 444.233 241.313C444.233 241.313 438.921 245.712 432.076 245.881L430.432 242.948L431.372 248.952L413.445 253.98C407.362 255.686 400.859 255.486 394.907 253.411L393.044 252.761C393.044 252.761 393.073 224.228 398.462 221.213C403.264 218.527 413.665 217.114 419.841 217.997Z" fill="#FEBAC7"/>
<path d="M408.742 203.972V212.049C408.742 212.049 408.621 214.78 411.148 215.121L410.676 218.764C410.501 220.118 411.357 221.415 412.733 221.827C413.405 222.028 414.208 222.175 415.118 222.175C418.006 222.175 419.57 220.127 419.811 219.103C420.051 218.079 419.329 213.187 419.329 213.187L419.417 210.783L419.089 201.469L408.742 203.972Z" fill="#FE9F73"/>
<path d="M415.711 208.003C415.741 208.003 415.771 207.992 415.795 207.971C415.842 207.928 415.844 207.856 415.798 207.81C415.782 207.794 414.127 206.193 412.615 207.345C412.563 207.385 412.555 207.456 412.596 207.505C412.638 207.554 412.714 207.562 412.766 207.522C414.106 206.502 415.563 207.907 415.625 207.968C415.648 207.991 415.68 208.003 415.711 208.003Z" fill="#21111D"/>
<path d="M410.753 207.348C410.787 207.348 410.82 207.335 410.844 207.309C410.888 207.262 410.882 207.19 410.832 207.149C410.783 207.109 409.636 206.181 408.91 206.769C408.86 206.81 408.854 206.882 408.897 206.929C408.94 206.977 409.016 206.983 409.067 206.941C409.635 206.481 410.664 207.312 410.674 207.32C410.697 207.339 410.725 207.348 410.753 207.348Z" fill="#21111D"/>
<path d="M413.273 208.478C413.273 208.667 413.435 208.819 413.634 208.819C413.833 208.819 413.995 208.667 413.995 208.478C413.995 208.289 413.833 208.137 413.634 208.137C413.435 208.137 413.273 208.289 413.273 208.478Z" fill="black"/>
<path d="M409.44 208.133C409.44 208.322 409.602 208.475 409.801 208.475C410.001 208.475 410.162 208.322 410.162 208.133C410.162 207.945 410.001 207.792 409.801 207.792C409.602 207.792 409.44 207.945 409.44 208.133Z" fill="black"/>
<path d="M418.756 201.925L416.742 204.622C416.742 204.622 410.639 206.863 407.511 204.208C404.383 201.554 405.346 200.279 406.263 198.95C406.715 198.295 408.873 196.961 411.519 198.072C412.964 198.679 414.033 196.869 415.717 197.779C417.401 198.689 419.388 200.265 419.166 200.889C418.944 201.512 418.756 201.925 418.756 201.925Z" fill="#21111D"/>
<path d="M418.636 200.761C418.636 200.761 421.413 200.634 422.189 203.163C422.964 205.691 421.921 207.015 421.895 207.769C421.868 208.523 422.409 213.604 418.636 213.225L417.617 204.831L418.93 201.49L418.636 200.761Z" fill="#21111D"/>
<path d="M419.951 209.801C420.797 209.001 420.797 207.704 419.951 206.905C419.105 206.105 417.734 206.105 416.889 206.905C416.043 207.704 416.043 209.001 416.889 209.801C417.734 210.6 419.105 210.6 419.951 209.801Z" fill="#FE9F73"/>
<path d="M418.58 209.615C419.03 209.615 419.331 209.295 419.429 208.976C419.546 208.598 419.412 208.231 419.088 208.04C418.608 207.759 418.173 207.939 417.951 208.078C418.044 207.845 418.191 207.676 418.388 207.574C418.814 207.352 419.344 207.513 419.349 207.515C419.381 207.525 419.415 207.509 419.425 207.479C419.436 207.449 419.419 207.417 419.387 207.407C419.364 207.4 418.804 207.228 418.331 207.474C418.058 207.615 417.872 207.867 417.778 208.22L417.726 208.418L417.879 208.274C417.901 208.253 418.416 207.78 419.025 208.137C419.362 208.335 419.391 208.695 419.314 208.944C419.234 209.202 418.994 209.501 418.581 209.501C418.577 209.501 418.573 209.501 418.568 209.501C418.536 209.501 418.509 209.526 418.508 209.558C418.508 209.589 418.534 209.615 418.568 209.615C418.572 209.615 418.576 209.615 418.58 209.615Z" fill="#F07162"/>
<path d="M416.996 212.79C416.996 212.79 416.826 217.36 410.791 217.797L411.139 215.11C411.139 215.11 415.053 215.853 416.996 212.79Z" fill="#F07162"/>
<path d="M430.688 243.329C438.151 242.231 442.577 238.005 442.621 237.963L442.363 237.725C442.32 237.766 437.972 241.912 430.632 242.992L430.688 243.329Z" fill="#21111D"/>
<path d="M394.354 305.088C399.029 305.088 400.696 304.422 400.775 304.389L400.879 304.346L402.106 274.631L400.174 275.493L400.328 275.801L401.722 275.18L400.527 304.113C400.022 304.278 397.597 304.94 391.87 304.69L391.854 305.031C392.769 305.071 393.601 305.088 394.354 305.088Z" fill="#21111D"/>
<path d="M398.747 298.66C399.246 296.84 399.389 279.089 399.394 278.335L399.033 278.332C399.032 278.517 398.885 296.795 398.397 298.574L398.747 298.66Z" fill="#21111D"/>
<path d="M374.827 305.182C378.821 305.182 381.741 304.526 381.741 304.526L382.899 274.796L381.42 275.765L381.647 276.031L382.511 275.373L381.39 304.253C380.778 304.378 378.112 304.876 374.477 304.839L374.474 305.181C374.592 305.182 374.71 305.182 374.827 305.182Z" fill="#21111D"/>
<path d="M379.865 299.333C380.361 296.584 379.888 277.977 379.868 277.187L379.507 277.195C379.512 277.388 380 296.559 379.509 299.276L379.865 299.333Z" fill="#21111D"/>
<path d="M397.701 255.509L399.745 252.504C400.871 250.783 402.689 248.526 404.582 248.326C407.674 248 426.509 247.269 432.485 246.571C432.485 246.571 432.075 245.891 432.085 245.893C432.155 245.908 436.971 245.118 436.971 245.118L440.073 243.727L442.861 242.587C443.632 245.425 445.744 250.087 443.577 253.334C439.572 259.336 408.94 256.381 406.222 255.595L403.72 258.158L403.209 258.901C402.968 259.252 402.47 259.352 402.099 259.123C401.727 258.895 401.622 258.424 401.864 258.073L401.65 258.384C401.408 258.735 400.911 258.835 400.539 258.606C400.168 258.377 400.063 257.907 400.304 257.556C400.063 257.907 399.565 258.007 399.194 257.778C398.822 257.549 398.717 257.079 398.959 256.728L399.172 256.417C398.931 256.768 398.433 256.868 398.062 256.639C398.047 256.63 398.033 256.62 398.019 256.61C398.015 256.608 398.012 256.605 398.009 256.603C398.002 256.598 397.995 256.593 397.988 256.588C397.987 256.587 397.986 256.587 397.986 256.586C397.985 256.585 397.984 256.585 397.984 256.584C397.934 256.544 397.89 256.5 397.853 256.452C397.415 255.953 397.701 255.509 397.701 255.509Z" fill="#FE9F73"/>
<path d="M431.987 246.123L432.103 246.121C438.188 245.986 444.304 241.562 444.365 241.518L444.478 241.435L440.619 233.35L440.29 233.49L444.031 241.328C443.178 241.923 437.685 245.606 432.21 245.776L430.553 242.589L430.229 242.739L431.987 246.123Z" fill="#21111D"/>
<path d="M434.633 249.334C434.667 249.342 434.704 249.335 434.733 249.313C434.786 249.275 434.795 249.203 434.755 249.154L432.562 246.484C432.521 246.435 432.446 246.426 432.393 246.464C432.341 246.503 432.331 246.574 432.372 246.624L434.565 249.293C434.582 249.315 434.607 249.329 434.633 249.334Z" fill="#F07162"/>
<path d="M398.814 256.859C398.86 256.869 398.909 256.853 398.938 256.815L401.808 253.09C401.847 253.039 401.835 252.968 401.781 252.931C401.728 252.894 401.652 252.905 401.613 252.956L398.744 256.682C398.705 256.732 398.716 256.804 398.77 256.84C398.784 256.85 398.799 256.856 398.814 256.859Z" fill="#F07162"/>
<path d="M400.08 257.923C400.127 257.933 400.178 257.916 400.206 257.876L402.945 254.035C402.982 253.983 402.967 253.912 402.912 253.877C402.857 253.842 402.782 253.856 402.745 253.908L400.007 257.748C399.97 257.8 399.984 257.871 400.039 257.906C400.052 257.915 400.066 257.92 400.08 257.923Z" fill="#F07162"/>
<path d="M401.594 258.66C401.641 258.67 401.692 258.653 401.721 258.612L403.999 255.357C404.035 255.304 404.02 255.234 403.965 255.199C403.909 255.164 403.835 255.178 403.798 255.231L401.52 258.486C401.483 258.539 401.498 258.609 401.554 258.644C401.567 258.652 401.58 258.657 401.594 258.66Z" fill="#F07162"/>
<path d="M414.307 275.171C405.16 275.171 399.632 274.59 399.55 274.581L399.591 274.242C399.714 274.255 412.12 275.559 430.618 274.241L430.645 274.582C424.437 275.024 418.913 275.171 414.307 275.171Z" fill="#21111D"/>
<path d="M401.489 229.377L401.005 243.868L401.366 243.879L401.85 229.388L401.489 229.377Z" fill="#21111D"/>
<path d="M425.091 230.478L424.76 230.614L431.924 246.209L432.255 246.073L425.091 230.478Z" fill="#21111D"/>
<path d="M430.405 241.976L430.048 242.03L430.847 246.705L431.203 246.65L430.405 241.976Z" fill="#21111D"/>
<path d="M412.009 210.766C412.034 210.766 412.058 210.75 412.066 210.727C412.076 210.697 412.059 210.665 412.028 210.655L410.822 210.278L411.203 207.594C411.207 207.563 411.184 207.534 411.151 207.53C411.118 207.525 411.088 207.548 411.083 207.579L410.689 210.356L411.99 210.763C411.996 210.765 412.003 210.766 412.009 210.766Z" fill="#F07162"/>
<path d="M412.946 211.907C412.909 211.901 410.564 211.849 410.564 211.849C410.564 211.849 410.858 212.766 411.73 212.787C412.602 212.809 412.946 211.907 412.946 211.907Z" fill="#FBFDFC"/>
<path d="M362.769 233.361H391.437L401.434 257.437H372.767L362.769 233.361Z" fill="#FECC86"/>
<path d="M401.441 257.437H399.945L389.947 233.361H391.443L401.441 257.437Z" fill="#FFB357"/>
<path d="M381.511 244.602C381.909 245.708 381.618 246.802 380.861 247.045C380.104 247.288 379.169 246.588 378.772 245.482C378.374 244.376 378.665 243.283 379.422 243.039C380.178 242.796 381.114 243.496 381.511 244.602Z" fill="#E2F2F1"/>
<path d="M410.909 255.491H400.2V257.436H410.909C411.477 257.436 411.937 257 411.937 256.463C411.937 255.926 411.477 255.491 410.909 255.491Z" fill="#FFB357"/>
<path d="M408.198 256.157H401.433V256.462H408.198V256.157Z" fill="#FECC86"/>
<path d="M410.013 257.416H397.397V261.679H410.013V257.416Z" fill="#49263E"/>
<path d="M483.193 321.618H10.8125V323H483.193V321.618Z" fill="#21111D"/>
<path d="M87.1348 318.182L75.556 318.332L75.3901 308.006L86.9234 306.644L87.1348 318.182Z" fill="#FE9F73"/>
<path d="M99.0427 320.054H75.4009V315.555C75.4009 315.555 77.1205 313.396 79.7389 314.498C79.7389 314.498 83.6151 317.152 87.106 313.98L95.8596 317.534C95.8596 317.534 99.0427 318.524 99.0427 320.054Z" fill="#33192C"/>
<path d="M75.4004 321.595H99.592C99.8553 321.595 100.069 321.393 100.069 321.144V320.471C100.069 320.222 99.8553 320.021 99.592 320.021H75.4004V321.595Z" fill="#472A31"/>
<path d="M89.691 315.02C88.8978 316.191 87.3053 318.544 86.2921 320.041H84.6807C85.5857 318.704 87.4829 315.9 88.427 314.507L89.691 315.02Z" fill="#D7E4F7"/>
<path d="M88.8746 320.062H87.2632C87.9995 318.974 89.4354 316.852 90.452 315.351L91.7161 315.864C90.862 317.125 89.6786 318.874 88.8746 320.062Z" fill="#D7E4F7"/>
<path d="M67.2112 318.182L55.6322 318.332L55.4663 308.006L66.9996 306.644L67.2112 318.182Z" fill="#FE9F73"/>
<path d="M68.4324 228.801C68.8156 239.465 70.4832 281.179 73.9895 308.471C74.2204 310.27 75.8328 311.627 77.7492 311.622C79.8706 311.617 82.8215 311.378 86.0915 310.434C87.672 309.978 88.7693 308.618 88.7961 307.056L90.2215 224.014C90.2248 223.812 90.2105 223.61 90.1779 223.411L90.1111 223.001C89.7437 220.74 87.262 219.378 85.0043 220.199L70.8619 225.336C69.3532 225.884 68.3776 227.274 68.4324 228.801Z" fill="#33192C"/>
<path d="M52.8865 226.638C52.8865 226.638 51.9238 277.932 54.4338 309.572C54.5525 311.07 55.8099 312.253 57.3933 312.367C59.6347 312.528 63.0487 312.504 66.897 311.538C68.202 311.211 69.1523 310.145 69.2684 308.872L75.9821 235.311L80.1159 214.887L52.8865 226.638Z" fill="#49263E"/>
<path d="M48.916 210.131C49.1525 212.18 50.4503 242.58 54.0571 245.088C57.6638 247.596 92.1754 245.186 92.9789 242.222C93.7825 239.259 89.0986 207.49 89.0986 207.49L48.916 210.131Z" fill="#FFB357"/>
<path d="M87.5278 195.976C87.9939 195.983 106.45 204.205 106.45 204.205L102.429 210.913L91.9963 208.392L87.5278 195.976Z" fill="#FFB357"/>
<path d="M61.5317 163.382C61.5317 163.382 53.5764 162.862 49.7009 164.776C43.9174 167.633 45.3109 185.107 45.3109 185.107C45.3109 185.107 50.2222 182.775 50.5444 181.956C50.8664 181.136 61.5317 163.382 61.5317 163.382Z" fill="#FFB357"/>
<path d="M53.7839 164.476C58.3321 164.03 70.2914 164.006 70.2914 164.006C70.2914 164.006 71.8597 164.449 71.3635 164.212C84.4747 166.84 85.5992 176.137 85.5992 176.137L91.0745 203.07L98.2262 203.668C100.395 207.897 98.2884 219.049 98.2884 219.049L63.4506 221.628C63.4506 221.628 55.9071 222.556 49.8399 214.658C45.8262 209.432 44.9619 193.759 45.3753 182.34C45.3753 182.34 46.7162 165.171 53.7839 164.476Z" fill="#FFB357"/>
<path d="M64.0839 202.653C64.123 202.669 64.1668 202.674 64.2113 202.665C64.33 202.643 64.4071 202.533 64.3834 202.421C64.3523 202.274 61.2508 187.577 60.0385 178.353C60.0234 178.239 59.9133 178.158 59.7938 178.172C59.6737 178.187 59.5882 178.29 59.6033 178.404C60.8181 187.644 63.9224 202.355 63.9535 202.502C63.9681 202.573 64.0188 202.628 64.0839 202.653Z" fill="#21111D"/>
<path d="M85.5842 203.062C85.5486 203.092 85.5026 203.111 85.4516 203.113C85.3308 203.12 85.2269 203.033 85.2202 202.918C85.2099 202.748 84.1749 185.838 83.1284 180.24C83.1073 180.127 83.1873 180.019 83.306 179.999C83.4252 179.979 83.5391 180.055 83.5602 180.167C84.6112 185.79 85.6474 202.724 85.658 202.894C85.662 202.961 85.6331 203.021 85.5842 203.062Z" fill="#21111D"/>
<path d="M88.2165 199.38C88.3135 199.418 88.4284 199.386 88.4863 199.299L90.0434 196.963L90.0271 196.882L85.8107 176.141C85.7868 175.955 85.4435 173.542 83.3888 170.828C81.4624 168.284 77.601 165.003 70.1457 163.819C70.0263 163.8 69.9131 163.877 69.8932 163.99C69.8731 164.102 69.954 164.209 70.0732 164.228C77.3676 165.386 81.1388 168.577 83.018 171.051C85.0543 173.731 85.3731 176.172 85.376 176.196L85.3787 176.212L89.5802 196.88L88.1153 199.078C88.0507 199.175 88.0815 199.303 88.184 199.364C88.1943 199.37 88.2053 199.376 88.2165 199.38Z" fill="#21111D"/>
<path d="M58.2416 201.125C58.2509 201.129 58.2603 201.132 58.2701 201.134L64.0842 202.591C64.2013 202.62 64.3214 202.554 64.3523 202.444C64.3834 202.333 64.3138 202.22 64.1965 202.19L58.3823 200.733C58.2653 200.704 58.1451 200.77 58.1142 200.881C58.086 200.982 58.142 201.086 58.2416 201.125Z" fill="#21111D"/>
<path d="M95.9672 199.675C96.0771 199.719 96.2042 199.671 96.2523 199.567C96.3009 199.462 96.2504 199.34 96.1395 199.294L89.8933 196.701C89.7782 196.659 89.653 196.703 89.6044 196.808C89.5558 196.913 89.6063 197.035 89.7172 197.081L95.9631 199.674C95.9646 199.674 95.9658 199.675 95.9672 199.675Z" fill="#21111D"/>
<path d="M121.861 219.28L101.329 218.004C100.355 217.943 99.5339 217.125 99.6478 216.328L103.738 187.734C103.82 187.156 104.38 186.778 105.086 186.822L125.618 188.098C126.593 188.159 127.413 188.977 127.299 189.774L123.21 218.368C123.127 218.946 122.568 219.324 121.861 219.28Z" fill="#7FC6A6"/>
<path d="M111.913 213.272C111.934 212.737 111.446 212.27 110.882 212.235L107.391 212.014C107.282 212.007 107.189 211.935 107.16 211.834C107.118 211.686 107.23 211.539 107.392 211.529L112.559 211.205C113.151 211.168 113.51 210.694 113.356 210.152C113.202 209.611 112.591 209.198 111.999 209.235L106.73 209.565C106.608 209.572 106.497 209.497 106.465 209.385L106.442 209.306C106.406 209.176 106.487 209.043 106.624 209.008L112.273 207.573C112.819 207.435 113.202 206.887 113.071 206.367C112.933 205.815 112.342 205.484 111.767 205.63L106.075 207.076C105.938 207.111 105.797 207.034 105.76 206.904L105.688 206.653C105.655 206.535 105.719 206.412 105.838 206.365L110.89 204.386C111.412 204.182 111.716 203.592 111.515 203.092C111.302 202.562 110.671 202.306 110.121 202.522C110.121 202.522 102.351 205.122 101.083 205.438L103.42 204.406C105.14 205.93 103.199 203.849 101.784 203.58C100.216 203.281 96.0748 206.907 96.0748 206.907C95.8845 207.219 96.0803 207.916 96.3793 208.441C97.5347 214.243 97.7633 215.128 98.2272 216.665L104.61 214.824C106.452 214.292 108.381 214.082 110.302 214.204L110.785 214.234C111.379 214.272 111.891 213.838 111.913 213.272Z" fill="#FE9F73"/>
<path d="M116.553 197.911C116.548 198.967 115.67 199.853 114.592 199.89C113.515 199.928 112.646 199.103 112.651 198.047C112.657 196.991 113.535 196.105 114.613 196.068C115.69 196.03 116.559 196.855 116.553 197.911Z" fill="white"/>
<path d="M101.846 203.205L101.556 205.335L103.953 204.578L103.922 203.036L101.846 203.205Z" fill="#7FC6A6"/>
<path d="M125.617 187.893L105.085 186.617C104.276 186.567 103.619 187.021 103.523 187.697L101.049 205.489L101.558 205.322L103.948 187.778C104.016 187.302 104.483 186.996 105.083 187.033L125.615 188.31C125.733 188.317 125.83 188.23 125.83 188.115C125.831 188 125.735 187.901 125.617 187.893Z" fill="#21111D"/>
<path d="M98.2261 203.672C98.2261 203.672 100.332 208.857 98.2883 219.053L96.2422 211.727L92.8306 206.957L98.2261 203.672Z" fill="#FFB357"/>
<path d="M56.5093 202.635C56.5349 202.645 56.5631 202.651 56.5928 202.651C56.9066 202.652 87.9464 202.772 98.0629 203.89C98.2896 204.528 99.317 207.819 98.782 213.762C98.7717 213.876 98.8605 213.976 98.9819 213.986C99.1025 213.996 99.2088 213.911 99.2191 213.797C99.8254 207.063 98.4854 203.761 98.4282 203.623L98.3801 203.508L98.2504 203.494C88.2526 202.358 56.91 202.237 56.5945 202.236C56.4734 202.236 56.3748 202.328 56.3745 202.443C56.374 202.529 56.4296 202.603 56.5093 202.635Z" fill="#21111D"/>
<path d="M69.1768 220.961C81.8517 220.961 97.3661 219.415 98.3226 219.318C98.4626 219.303 98.5643 219.184 98.5495 219.052C98.5344 218.919 98.4145 218.822 98.268 218.837C97.9223 218.872 63.5882 222.295 54.9639 219.098C46.4406 215.938 45.8457 198.181 45.8407 198.002C45.8371 197.868 45.7189 197.761 45.5786 197.767C45.4376 197.77 45.3261 197.881 45.3297 198.014C45.3507 198.759 45.9396 216.272 54.7776 219.548C57.6198 220.601 63.0685 220.961 69.1768 220.961Z" fill="#21111D"/>
<path d="M61.7959 144.858C61.7959 144.858 58.7839 146.328 60.2898 152.076L61.4289 151.52L61.0445 148.467L61.7959 144.858Z" fill="#21111D"/>
<path d="M72.3614 148.418V156.841C72.3614 156.841 72.4861 159.688 69.8682 160.043L70.3569 163.842C70.5386 165.254 69.6513 166.606 68.2264 167.035C67.5296 167.245 66.6978 167.398 65.7545 167.398C62.7626 167.398 61.1419 165.263 60.8927 164.195C60.6433 163.128 61.3913 158.027 61.3913 158.027L61.3001 155.52L61.6405 145.809L72.3614 148.418Z" fill="#FE9F73"/>
<path d="M65.1457 152.707C65.1146 152.707 65.0834 152.696 65.0593 152.674C65.0097 152.629 65.008 152.553 65.0557 152.506C65.0729 152.489 66.7875 150.82 68.3544 152.021C68.408 152.062 68.4164 152.137 68.3733 152.188C68.3302 152.239 68.2517 152.247 68.198 152.206C66.8097 151.142 65.2993 152.607 65.2357 152.67C65.2113 152.694 65.1785 152.707 65.1457 152.707Z" fill="#21111D"/>
<path d="M70.283 151.894C70.248 151.894 70.2133 151.88 70.1887 151.853C70.1436 151.803 70.1491 151.729 70.2011 151.686C70.2513 151.644 71.4405 150.676 72.1924 151.29C72.2445 151.333 72.2508 151.408 72.206 151.457C72.1612 151.507 72.0825 151.513 72.0303 151.47C71.4412 150.99 70.3753 151.856 70.3648 151.865C70.3409 151.885 70.3119 151.894 70.283 151.894Z" fill="#21111D"/>
<path d="M67.6596 153.123C67.6596 153.32 67.4921 153.479 67.2855 153.479C67.0789 153.479 66.9116 153.32 66.9116 153.123C66.9116 152.927 67.0792 152.768 67.2855 152.768C67.4918 152.768 67.6596 152.927 67.6596 153.123Z" fill="black"/>
<path d="M71.6374 152.779C71.6374 152.975 71.4701 153.135 71.2635 153.135C71.057 153.135 70.8896 152.975 70.8896 152.779C70.8896 152.582 71.0572 152.423 71.2635 152.423C71.4699 152.423 71.6374 152.582 71.6374 152.779Z" fill="black"/>
<path d="M61.0412 155.422C62.2804 155.422 63.285 154.466 63.285 153.287C63.285 152.107 62.2804 151.151 61.0412 151.151C59.802 151.151 58.7974 152.107 58.7974 153.287C58.7974 154.466 59.802 155.422 61.0412 155.422Z" fill="#FE9F73"/>
<path d="M60.869 154.543C60.4029 154.543 60.0915 154.21 59.989 153.877C59.8677 153.483 60.0068 153.1 60.3431 152.901C60.84 152.608 61.2905 152.796 61.5212 152.94C61.4245 152.698 61.2725 152.521 61.0681 152.414C60.626 152.183 60.0776 152.352 60.0721 152.353C60.0396 152.364 60.0041 152.347 59.9934 152.316C59.9826 152.285 60.0001 152.251 60.0328 152.241C60.0573 152.233 60.637 152.054 61.1275 152.31C61.4106 152.458 61.6031 152.72 61.7 153.088L61.7544 153.295L61.5957 153.145C61.5732 153.124 61.0396 152.63 60.4089 153.002C60.0597 153.208 60.029 153.584 60.1087 153.844C60.1916 154.113 60.44 154.425 60.8685 154.425C60.8728 154.425 60.8769 154.425 60.8814 154.425C60.9154 154.425 60.9432 154.451 60.9436 154.483C60.9441 154.516 60.9166 154.543 60.8821 154.543C60.8776 154.543 60.8733 154.543 60.869 154.543Z" fill="#F07162"/>
<path d="M72.797 155.531C72.797 155.531 73.6123 161.235 69.6321 161.437C63.9369 161.727 63.3854 158.634 63.047 156.103L62.9897 150.88L63.1726 149.364C63.5752 149.797 63.8211 150.341 63.8754 150.917C63.9932 152.17 64.2849 155.544 64.6136 155.693C65.077 155.904 71.9104 154.981 72.797 155.531Z" fill="#21111D"/>
<path d="M68.9817 155.572C68.9556 155.572 68.9312 155.557 68.9226 155.532C68.9118 155.501 68.9295 155.467 68.9623 155.457L70.2118 155.064L69.8171 152.266C69.8125 152.233 69.8365 152.203 69.8705 152.199C69.9049 152.194 69.9361 152.217 69.9406 152.25L70.3492 155.146L69.0016 155.57C68.9949 155.572 68.9884 155.572 68.9817 155.572Z" fill="#F07162"/>
<path d="M68.0225 156.71C68.0608 156.703 70.4908 156.648 70.4908 156.648C70.4908 156.648 70.1858 157.605 69.2827 157.627C68.3796 157.65 68.0225 156.71 68.0225 156.71Z" fill="#FBFDFC"/>
<path d="M63.1596 149.471L62.0329 148.5L60.8672 151.15C60.8672 151.15 62.3084 151.375 62.3335 152.792C62.3587 154.209 61.5496 156.422 64.1453 159.602C66.7407 162.781 63.9363 154.855 63.9112 154.58C63.886 154.304 63.1596 149.471 63.1596 149.471Z" fill="#21111D"/>
<path d="M61.7952 144.876C62.9971 143.748 67.1654 143.105 70.1397 144.8L70.14 144.797C73.5265 146.364 72.4628 149.553 72.3503 149.647L72.3064 149.616C72.3234 149.689 72.339 149.763 72.3503 149.837C72.3503 149.837 72.2081 149.622 71.9038 149.324L70.572 148.36C69.8259 147.962 68.8247 147.62 67.5295 147.54C66.2436 147.461 65.1207 147.528 64.1989 147.796C63.9553 148.519 63.7571 149.953 64.0433 152.776C64.4799 157.083 62.4906 151.859 61.767 149.858C61.6116 150.232 61.4989 150.652 61.4424 151.134C61.4424 151.134 59.3868 147.136 61.7952 144.876Z" fill="#21111D"/>
<path d="M72.3621 150.794C72.3621 150.794 72.4509 149.065 72.363 148.686C72.2752 148.307 68.2055 147.22 65.977 147.509C63.7485 147.798 68.0683 150.119 68.1184 150.119C68.1684 150.119 72.3621 150.794 72.3621 150.794Z" fill="#FE9F73"/>
<path d="M64.6343 147.982L62.481 146.088L64.5091 148.858L64.6343 147.982Z" fill="#FE9F73"/>
<path d="M64.626 144.253C64.626 144.253 65.0643 140.168 62.6603 141.056C60.2564 141.944 59.8432 143.827 62.0217 145.07C64.2004 146.313 64.626 144.253 64.626 144.253Z" fill="#21111D"/>
<path d="M55.7803 172.131L60.0237 165.402L67.4802 167.532L70.5048 164.489C70.5048 164.489 71.1482 167.299 71.1293 167.532C71.1104 167.765 67.7226 171.093 67.2872 171.057C66.8518 171.022 55.7803 172.131 55.7803 172.131Z" fill="#FFB357"/>
<path d="M56.3722 246.255C56.505 246.255 56.6171 246.158 56.6266 246.03C56.6367 245.897 56.5309 245.781 56.3901 245.772C52.8102 245.53 52.3183 242.651 51.504 237.882C51.3577 237.025 51.2062 236.139 51.0238 235.186C49.8115 228.852 49.2779 213.506 49.2729 213.352C49.2683 213.221 49.1549 213.118 49.0175 213.118C49.0148 213.118 49.0122 213.118 49.0091 213.118C48.8681 213.123 48.7575 213.234 48.7618 213.368C48.7671 213.522 49.3021 228.903 50.5207 235.272C50.7024 236.221 50.8534 237.104 50.9994 237.96C51.8247 242.792 52.37 245.985 56.3533 246.254C56.36 246.255 56.366 246.255 56.3722 246.255Z" fill="#21111D"/>
<path d="M70.0526 161.431L70.3611 163.814C70.3611 163.814 68.5159 166.433 67.2532 167.269C64.7492 165.627 60.8737 163.332 60.8737 163.332L61.1001 160.319C56.4519 159.818 51.1591 162.58 52.3703 164.004C53.5814 165.427 59.8767 165.864 61.5477 166.382C63.196 166.894 67.4071 168.103 67.4071 168.103C68.5144 167.325 71.4876 164.022 71.4876 164.022L74.4961 164.812C74.5545 161.924 70.0526 161.431 70.0526 161.431Z" fill="#FD7583"/>
<path d="M79.0954 320.054H55.4536V315.555C55.4536 315.555 57.1732 313.396 59.7916 314.498C59.7916 314.498 63.6679 317.152 67.1588 313.98L75.9121 317.534C75.9121 317.534 79.0954 318.524 79.0954 320.054Z" fill="#49263E"/>
<path d="M55.4565 321.595H79.6481C79.9114 321.595 80.125 321.393 80.125 321.144V320.471C80.125 320.222 79.9114 320.021 79.6481 320.021H55.4565V321.595Z" fill="#683D46"/>
<path d="M69.7516 315.02C68.9583 316.191 67.3658 318.544 66.3526 320.041H64.7412C65.6462 318.704 67.5435 315.9 68.4875 314.507L69.7516 315.02Z" fill="#D7E4F7"/>
<path d="M68.9298 320.071H67.3184C68.0546 318.983 69.4904 316.861 70.5072 315.359L71.7715 315.873C70.9172 317.134 69.7338 318.883 68.9298 320.071Z" fill="#D7E4F7"/>
<path d="M67.3963 168.297C67.4401 168.297 67.4844 168.281 67.5176 168.249L72.7693 163.204C72.8351 163.14 72.8344 163.038 72.7674 162.976C72.7006 162.914 72.5927 162.914 72.5266 162.978L67.2749 168.023C67.2091 168.086 67.2098 168.188 67.2769 168.25C67.3101 168.282 67.353 168.297 67.3963 168.297Z" fill="black"/>
<path d="M204.869 210.656C204.869 197.267 193.391 186.412 179.232 186.412C165.072 186.412 153.594 197.266 153.594 210.656C153.594 217.297 156.419 223.314 160.994 227.692H160.993C160.993 227.692 168.751 235.539 171.371 244.091C171.371 244.091 175.851 245.529 179.232 245.609C182.612 245.529 187.092 244.091 187.092 244.091C189.712 235.539 197.47 227.692 197.47 227.692H197.469C202.044 223.314 204.869 217.297 204.869 210.656Z" fill="#FECC86"/>
<path d="M170.684 242.152V248.635C170.684 251.557 172.59 254.057 175.289 255.088C175.56 256.92 177.219 258.331 179.231 258.331C181.242 258.331 182.901 256.92 183.172 255.088C185.872 254.057 187.777 251.557 187.777 248.635V242.152H170.684Z" fill="#4CB7D8"/>
<g opacity="0.3">
<path d="M204.871 210.64C204.871 205.679 203.296 201.067 200.592 197.226C193.094 214.697 181.135 226.447 163.909 231.005C166.079 233.696 168.954 237.748 170.693 242.141H187.775V242.142C190.848 234.377 197.473 227.676 197.473 227.676H197.472C202.046 223.297 204.871 217.281 204.871 210.64Z" fill="#FECC86"/>
</g>
<path d="M183.423 242.235L182.689 242.046C182.713 241.963 185.104 233.65 186.762 225.135C189.639 210.361 187.985 207.228 186.742 206.675C185.472 206.11 184.473 206.211 183.773 206.976C183.722 207.032 183.673 207.09 183.626 207.152C185.418 208.151 185.852 209.686 185.955 210.308C186.24 212.023 185.428 213.735 184.147 214.125C183.837 214.219 183.239 214.267 182.723 213.529C181.904 212.356 181.647 209.426 182.565 207.471C181.684 207.131 180.61 206.949 179.382 206.949H178.642C177.413 206.949 176.34 207.131 175.458 207.471C176.376 209.426 176.12 212.357 175.3 213.529C174.784 214.267 174.187 214.22 173.877 214.125C172.595 213.736 171.784 212.024 172.068 210.308C172.171 209.687 172.605 208.152 174.397 207.152C174.35 207.091 174.302 207.032 174.25 206.977C173.551 206.212 172.551 206.11 171.281 206.675C170.039 207.228 168.384 210.362 171.262 225.136C172.92 233.65 175.311 241.963 175.335 242.046L174.601 242.236C174.577 242.152 172.179 233.814 170.515 225.27C168.217 213.475 168.362 207.179 170.957 206.024C172.971 205.128 174.173 205.792 174.826 206.506C174.917 206.606 175.003 206.713 175.084 206.825C175.98 206.465 177.14 206.23 178.642 206.23H179.382C180.883 206.23 182.043 206.465 182.94 206.825C183.02 206.713 183.106 206.606 183.198 206.506C183.851 205.792 185.052 205.128 187.066 206.024C189.661 207.179 189.806 213.475 187.509 225.27C185.845 233.813 183.446 242.152 183.423 242.235ZM174.775 207.788C173.694 208.385 173.008 209.282 172.82 210.419C172.572 211.916 173.286 213.19 174.11 213.44C174.186 213.463 174.39 213.526 174.666 213.132C175.368 212.128 175.553 209.477 174.775 207.788ZM183.249 207.788C182.47 209.477 182.656 212.128 183.358 213.132C183.633 213.526 183.837 213.463 183.914 213.44C184.737 213.19 185.452 211.916 185.204 210.42C185.015 209.282 184.33 208.385 183.249 207.788Z" fill="#F99247"/>
<path d="M170.555 242.337C170.351 241.784 170.259 241.582 170.057 241.138L169.947 240.896C166.746 233.827 160.912 227.884 160.854 227.825L160.836 227.807C156.043 223.208 153.404 217.122 153.404 210.666C153.404 197.198 164.99 186.242 179.232 186.242C187.976 186.242 196.059 190.377 200.855 197.304L200.537 197.501C195.812 190.676 187.847 186.602 179.232 186.602C165.2 186.602 153.785 197.397 153.785 210.666C153.785 217.037 156.393 223.043 161.129 227.576L161.377 227.813L161.359 227.817C162.475 228.996 167.431 234.428 170.296 240.755L170.406 240.996C170.611 241.448 170.705 241.654 170.914 242.218L170.555 242.337Z" fill="#21111D"/>
<path d="M161.327 199.448L160.962 199.348C160.981 199.288 162.876 193.321 169.254 191.077L169.387 191.414C163.193 193.593 161.346 199.39 161.327 199.448Z" fill="#21111D"/>
<path d="M162.506 201.617L162.141 201.517C162.159 201.457 164.054 195.49 170.432 193.246L170.565 193.583C164.371 195.762 162.524 201.559 162.506 201.617Z" fill="#21111D"/>
<path d="M180.164 255.762H178.3C173.997 255.762 170.495 252.451 170.495 248.381V241.96H187.778V242.32H170.875V248.381C170.875 252.253 174.206 255.402 178.3 255.402H180.164C182.124 255.402 183.973 254.686 185.37 253.387L185.637 253.643C184.168 255.009 182.224 255.762 180.164 255.762Z" fill="#21111D"/>
<path d="M179.343 258.503C175.639 258.503 175.104 255.105 175.099 255.071L175.475 255.021C175.495 255.152 175.989 258.218 179.467 258.142L179.475 258.502C179.431 258.503 179.387 258.503 179.343 258.503Z" fill="#21111D"/>
<path d="M196.816 224.212L196.589 223.923C199.973 221.549 200.505 217.586 200.51 217.546L200.888 217.588C200.883 217.629 200.334 221.743 196.816 224.212Z" fill="#21111D"/>
<path d="M196.071 222.485L195.844 222.196C198.31 220.466 198.7 217.575 198.703 217.546L199.081 217.588C199.066 217.712 198.672 220.66 196.071 222.485Z" fill="#21111D"/>
<path d="M169.9 245.37L169.895 245.011C170.04 245.009 184.452 244.833 189.017 243.224L189.15 243.561C184.523 245.192 170.494 245.364 169.9 245.37Z" fill="#21111D"/>
<path d="M169.899 248.408L169.892 248.048C170.049 248.046 185.689 247.752 188.613 246.271L188.793 246.588C185.789 248.11 170.546 248.397 169.899 248.408Z" fill="#21111D"/>
<path d="M170.69 251.536L170.687 251.176C170.828 251.175 184.863 251.035 188.622 249.198L188.796 249.518C184.957 251.394 171.271 251.531 170.69 251.536Z" fill="#21111D"/>
<path d="M147.061 206.841C147.044 206.841 147.028 206.841 147.012 206.839L137.939 206.109C137.625 206.084 137.392 205.823 137.419 205.526C137.446 205.229 137.722 205.01 138.036 205.034L147.109 205.764C147.423 205.79 147.656 206.051 147.629 206.348C147.603 206.629 147.354 206.841 147.061 206.841Z" fill="#FECC86"/>
<path d="M151.762 193.183C151.651 193.183 151.539 193.152 151.44 193.088L143.926 188.226C143.666 188.058 143.599 187.722 143.777 187.476C143.955 187.23 144.31 187.167 144.57 187.336L152.085 192.198C152.344 192.366 152.411 192.702 152.233 192.948C152.123 193.1 151.944 193.183 151.762 193.183Z" fill="#FECC86"/>
<path d="M165.343 183.33C165.118 183.33 164.905 183.203 164.815 182.993L161.387 175.016C161.269 174.74 161.409 174.425 161.701 174.313C161.992 174.201 162.326 174.334 162.444 174.61L165.872 182.587C165.99 182.863 165.85 183.178 165.558 183.29C165.488 183.317 165.415 183.33 165.343 183.33Z" fill="#FECC86"/>
<path d="M210.959 208.391C210.661 208.391 210.41 208.173 210.39 207.888C210.37 207.59 210.608 207.333 210.922 207.314L220.008 206.746C220.32 206.727 220.594 206.952 220.615 207.249C220.635 207.546 220.397 207.803 220.083 207.823L210.997 208.39C210.985 208.391 210.972 208.391 210.959 208.391Z" fill="#FECC86"/>
<path d="M206.536 194.622C206.35 194.622 206.168 194.536 206.059 194.379C205.886 194.13 205.959 193.795 206.222 193.632L213.833 188.905C214.096 188.741 214.45 188.811 214.623 189.06C214.796 189.309 214.723 189.643 214.459 189.807L206.848 194.533C206.752 194.593 206.643 194.622 206.536 194.622Z" fill="#FECC86"/>
<path d="M194.909 183.334C194.834 183.334 194.758 183.32 194.684 183.29C194.395 183.173 194.26 182.856 194.385 182.582L197.971 174.668C198.095 174.394 198.431 174.268 198.72 174.384C199.01 174.502 199.144 174.819 199.02 175.093L195.434 183.007C195.341 183.212 195.13 183.334 194.909 183.334Z" fill="#FECC86"/>
<path d="M180.287 179.133C180.284 179.133 180.282 179.133 180.279 179.133C179.963 179.128 179.712 178.883 179.717 178.585L179.857 169.976C179.862 169.681 180.117 169.444 180.428 169.444C180.43 169.444 180.434 169.444 180.436 169.444C180.752 169.449 181.003 169.694 180.998 169.992L180.858 178.602C180.853 178.896 180.598 179.133 180.287 179.133Z" fill="#FECC86"/>
<g opacity="0.5">
<path d="M196.442 198.952C195.545 200.269 192.453 199.896 189.537 198.119C186.62 196.342 184.984 193.833 185.881 192.516C186.779 191.199 189.87 191.572 192.787 193.349C195.703 195.126 197.34 197.635 196.442 198.952Z" fill="#F3FFFE"/>
</g>
<path d="M213.677 61.7941H257.167C258.247 61.7941 259.123 60.9661 259.123 59.9446V36.0038C259.123 34.9823 258.247 34.1543 257.167 34.1543H213.677C212.597 34.1543 211.721 34.9823 211.721 36.0038V59.9446C211.721 60.9659 212.597 61.7941 213.677 61.7941Z" fill="white"/>
<path d="M216.175 39.1466H255.701C255.974 39.1466 256.196 38.937 256.196 38.6783C256.196 38.4196 255.974 38.21 255.701 38.21H216.175C215.902 38.21 215.68 38.4198 215.68 38.6783C215.68 38.9368 215.902 39.1466 216.175 39.1466Z" fill="#61A3C5"/>
<path d="M216.176 44.4767H255.702C255.975 44.4767 256.197 44.2671 256.197 44.0084C256.197 43.7496 255.975 43.54 255.702 43.54H216.176C215.903 43.54 215.681 43.7496 215.681 44.0084C215.681 44.2671 215.903 44.4767 216.176 44.4767Z" fill="#61A3C5"/>
<path d="M230.013 49.8224H255.695C255.969 49.8224 256.19 49.6128 256.19 49.3541C256.19 49.0953 255.969 48.8857 255.695 48.8857H230.013C229.74 48.8857 229.518 49.0953 229.518 49.3541C229.518 49.6128 229.74 49.8224 230.013 49.8224Z" fill="#61A3C5"/>
<path d="M215.879 49.8224H226.127C226.401 49.8224 226.622 49.6128 226.622 49.3541C226.622 49.0953 226.401 48.8857 226.127 48.8857H215.879C215.605 48.8857 215.384 49.0953 215.384 49.3541C215.384 49.6128 215.605 49.8224 215.879 49.8224Z" fill="#61A3C5"/>
<path d="M239.553 55.1466H255.696C255.97 55.1466 256.191 54.937 256.191 54.6783C256.191 54.4196 255.97 54.21 255.696 54.21H239.553C239.28 54.21 239.058 54.4196 239.058 54.6783C239.058 54.937 239.28 55.1466 239.553 55.1466Z" fill="#61A3C5"/>
<path d="M215.881 55.1466H235.937C236.211 55.1466 236.433 54.937 236.433 54.6783C236.433 54.4196 236.211 54.21 235.937 54.21H215.881C215.607 54.21 215.386 54.4196 215.386 54.6783C215.386 54.937 215.607 55.1466 215.881 55.1466Z" fill="#61A3C5"/>
<path d="M226.214 60.5903C226.165 60.7754 218.534 70.1658 218.485 69.888C218.436 69.6103 219.365 59.8037 219.365 59.8037L226.214 60.5903Z" fill="white"/>
<path d="M182.748 310.587H106.46V311.156H182.748V310.587Z" fill="#21111D"/>
<g opacity="0.3">
<path d="M118.674 276.528C120.85 277.949 123.222 278.998 125.692 279.666L126.537 285.63L130.883 285.832L135.229 286.033L136.687 280.175C139.214 279.739 141.684 278.914 143.996 277.701L149.054 281.353L152.277 278.589L155.501 275.826L152.151 270.709C153.653 268.652 154.763 266.408 155.47 264.072L161.777 263.273L161.99 259.163L162.202 255.054L156.008 253.675C155.546 251.285 154.674 248.95 153.391 246.764L157.253 241.98L154.331 238.932L151.408 235.884L145.997 239.052C143.821 237.631 141.449 236.582 138.979 235.913L138.133 229.949L133.787 229.748L129.442 229.547L127.984 235.404C125.457 235.841 122.987 236.666 120.675 237.879L115.617 234.227L112.393 236.99L109.17 239.754L112.52 244.871C111.017 246.928 109.907 249.172 109.201 251.508L102.894 252.307L102.681 256.417L102.468 260.526L108.663 261.904C109.125 264.294 109.997 266.63 111.28 268.816L107.417 273.599L110.34 276.648L113.262 279.696L118.674 276.528ZM121.371 246.354C128.05 240.628 138.373 241.106 144.429 247.422C150.484 253.738 149.979 263.5 143.3 269.226C136.621 274.952 126.298 274.474 120.242 268.158C114.187 261.842 114.692 252.08 121.371 246.354Z" fill="#4CB7D8"/>
</g>
</svg>
